<?xml version="1.0" encoding="utf-8" standalone="no"?>
<!DOCTYPE svg PUBLIC "-//W3C//DTD SVG 1.1//EN"
  "http://www.w3.org/Graphics/SVG/1.1/DTD/svg11.dtd">
<svg xmlns:xlink="http://www.w3.org/1999/xlink" width="276.116875pt" height="283.57pt" viewBox="0 0 276.116875 283.57" xmlns="http://www.w3.org/2000/svg" version="1.1">
 <metadata>
  <rdf:RDF xmlns:dc="http://purl.org/dc/elements/1.1/" xmlns:cc="http://creativecommons.org/ns#" xmlns:rdf="http://www.w3.org/1999/02/22-rdf-syntax-ns#">
   <cc:Work>
    <dc:type rdf:resource="http://purl.org/dc/dcmitype/StillImage"/>
    <dc:date>2025-02-18T01:01:55.289986</dc:date>
    <dc:format>image/svg+xml</dc:format>
    <dc:creator>
     <cc:Agent>
      <dc:title>Matplotlib v3.9.2, https://matplotlib.org/</dc:title>
     </cc:Agent>
    </dc:creator>
   </cc:Work>
  </rdf:RDF>
 </metadata>
 <defs>
  <style type="text/css">*{stroke-linejoin: round; stroke-linecap: butt}</style>
 </defs>
 <g id="figure_1">
  <g id="patch_1">
   <path d="M 0 283.57 
L 276.116875 283.57 
L 276.116875 0 
L 0 0 
z
" style="fill: #ffffff"/>
  </g>
  <g id="axes_1">
   <g id="patch_2">
    <path d="M 45.716875 244.078125 
L 268.916875 244.078125 
L 268.916875 22.318125 
L 45.716875 22.318125 
z
" style="fill: #ffffff"/>
   </g>
   <g id="matplotlib.axis_1">
    <g id="xtick_1">
     <g id="line2d_1">
      <path d="M 55.86233 244.078125 
L 55.86233 22.318125 
" clip-path="url(#p41c0c6dc92)" style="fill: none; stroke: #b0b0b0; stroke-width: 0.8; stroke-linecap: square"/>
     </g>
     <g id="line2d_2">
      <defs>
       <path id="m6483c05cda" d="M 0 0 
L 0 3.5 
" style="stroke: #000000; stroke-width: 0.8"/>
      </defs>
      <g>
       <use xlink:href="#m6483c05cda" x="55.86233" y="244.078125" style="stroke: #000000; stroke-width: 0.8"/>
      </g>
     </g>
     <g id="text_1">
      <!-- 0.0 -->
      <g transform="translate(47.910767 258.676562) scale(0.1 -0.1)">
       <defs>
        <path id="DejaVuSans-30" d="M 2034 4250 
Q 1547 4250 1301 3770 
Q 1056 3291 1056 2328 
Q 1056 1369 1301 889 
Q 1547 409 2034 409 
Q 2525 409 2770 889 
Q 3016 1369 3016 2328 
Q 3016 3291 2770 3770 
Q 2525 4250 2034 4250 
z
M 2034 4750 
Q 2819 4750 3233 4129 
Q 3647 3509 3647 2328 
Q 3647 1150 3233 529 
Q 2819 -91 2034 -91 
Q 1250 -91 836 529 
Q 422 1150 422 2328 
Q 422 3509 836 4129 
Q 1250 4750 2034 4750 
z
" transform="scale(0.015625)"/>
        <path id="DejaVuSans-2e" d="M 684 794 
L 1344 794 
L 1344 0 
L 684 0 
L 684 794 
z
" transform="scale(0.015625)"/>
       </defs>
       <use xlink:href="#DejaVuSans-30"/>
       <use xlink:href="#DejaVuSans-2e" x="63.623047"/>
       <use xlink:href="#DejaVuSans-30" x="95.410156"/>
      </g>
     </g>
    </g>
    <g id="xtick_2">
     <g id="line2d_3">
      <path d="M 96.444148 244.078125 
L 96.444148 22.318125 
" clip-path="url(#p41c0c6dc92)" style="fill: none; stroke: #b0b0b0; stroke-width: 0.8; stroke-linecap: square"/>
     </g>
     <g id="line2d_4">
      <g>
       <use xlink:href="#m6483c05cda" x="96.444148" y="244.078125" style="stroke: #000000; stroke-width: 0.8"/>
      </g>
     </g>
     <g id="text_2">
      <!-- 0.2 -->
      <g transform="translate(88.492585 258.676562) scale(0.1 -0.1)">
       <defs>
        <path id="DejaVuSans-32" d="M 1228 531 
L 3431 531 
L 3431 0 
L 469 0 
L 469 531 
Q 828 903 1448 1529 
Q 2069 2156 2228 2338 
Q 2531 2678 2651 2914 
Q 2772 3150 2772 3378 
Q 2772 3750 2511 3984 
Q 2250 4219 1831 4219 
Q 1534 4219 1204 4116 
Q 875 4013 500 3803 
L 500 4441 
Q 881 4594 1212 4672 
Q 1544 4750 1819 4750 
Q 2544 4750 2975 4387 
Q 3406 4025 3406 3419 
Q 3406 3131 3298 2873 
Q 3191 2616 2906 2266 
Q 2828 2175 2409 1742 
Q 1991 1309 1228 531 
z
" transform="scale(0.015625)"/>
       </defs>
       <use xlink:href="#DejaVuSans-30"/>
       <use xlink:href="#DejaVuSans-2e" x="63.623047"/>
       <use xlink:href="#DejaVuSans-32" x="95.410156"/>
      </g>
     </g>
    </g>
    <g id="xtick_3">
     <g id="line2d_5">
      <path d="M 137.025966 244.078125 
L 137.025966 22.318125 
" clip-path="url(#p41c0c6dc92)" style="fill: none; stroke: #b0b0b0; stroke-width: 0.8; stroke-linecap: square"/>
     </g>
     <g id="line2d_6">
      <g>
       <use xlink:href="#m6483c05cda" x="137.025966" y="244.078125" style="stroke: #000000; stroke-width: 0.8"/>
      </g>
     </g>
     <g id="text_3">
      <!-- 0.4 -->
      <g transform="translate(129.074403 258.676562) scale(0.1 -0.1)">
       <defs>
        <path id="DejaVuSans-34" d="M 2419 4116 
L 825 1625 
L 2419 1625 
L 2419 4116 
z
M 2253 4666 
L 3047 4666 
L 3047 1625 
L 3713 1625 
L 3713 1100 
L 3047 1100 
L 3047 0 
L 2419 0 
L 2419 1100 
L 313 1100 
L 313 1709 
L 2253 4666 
z
" transform="scale(0.015625)"/>
       </defs>
       <use xlink:href="#DejaVuSans-30"/>
       <use xlink:href="#DejaVuSans-2e" x="63.623047"/>
       <use xlink:href="#DejaVuSans-34" x="95.410156"/>
      </g>
     </g>
    </g>
    <g id="xtick_4">
     <g id="line2d_7">
      <path d="M 177.607784 244.078125 
L 177.607784 22.318125 
" clip-path="url(#p41c0c6dc92)" style="fill: none; stroke: #b0b0b0; stroke-width: 0.8; stroke-linecap: square"/>
     </g>
     <g id="line2d_8">
      <g>
       <use xlink:href="#m6483c05cda" x="177.607784" y="244.078125" style="stroke: #000000; stroke-width: 0.8"/>
      </g>
     </g>
     <g id="text_4">
      <!-- 0.6 -->
      <g transform="translate(169.656222 258.676562) scale(0.1 -0.1)">
       <defs>
        <path id="DejaVuSans-36" d="M 2113 2584 
Q 1688 2584 1439 2293 
Q 1191 2003 1191 1497 
Q 1191 994 1439 701 
Q 1688 409 2113 409 
Q 2538 409 2786 701 
Q 3034 994 3034 1497 
Q 3034 2003 2786 2293 
Q 2538 2584 2113 2584 
z
M 3366 4563 
L 3366 3988 
Q 3128 4100 2886 4159 
Q 2644 4219 2406 4219 
Q 1781 4219 1451 3797 
Q 1122 3375 1075 2522 
Q 1259 2794 1537 2939 
Q 1816 3084 2150 3084 
Q 2853 3084 3261 2657 
Q 3669 2231 3669 1497 
Q 3669 778 3244 343 
Q 2819 -91 2113 -91 
Q 1303 -91 875 529 
Q 447 1150 447 2328 
Q 447 3434 972 4092 
Q 1497 4750 2381 4750 
Q 2619 4750 2861 4703 
Q 3103 4656 3366 4563 
z
" transform="scale(0.015625)"/>
       </defs>
       <use xlink:href="#DejaVuSans-30"/>
       <use xlink:href="#DejaVuSans-2e" x="63.623047"/>
       <use xlink:href="#DejaVuSans-36" x="95.410156"/>
      </g>
     </g>
    </g>
    <g id="xtick_5">
     <g id="line2d_9">
      <path d="M 218.189602 244.078125 
L 218.189602 22.318125 
" clip-path="url(#p41c0c6dc92)" style="fill: none; stroke: #b0b0b0; stroke-width: 0.8; stroke-linecap: square"/>
     </g>
     <g id="line2d_10">
      <g>
       <use xlink:href="#m6483c05cda" x="218.189602" y="244.078125" style="stroke: #000000; stroke-width: 0.8"/>
      </g>
     </g>
     <g id="text_5">
      <!-- 0.8 -->
      <g transform="translate(210.23804 258.676562) scale(0.1 -0.1)">
       <defs>
        <path id="DejaVuSans-38" d="M 2034 2216 
Q 1584 2216 1326 1975 
Q 1069 1734 1069 1313 
Q 1069 891 1326 650 
Q 1584 409 2034 409 
Q 2484 409 2743 651 
Q 3003 894 3003 1313 
Q 3003 1734 2745 1975 
Q 2488 2216 2034 2216 
z
M 1403 2484 
Q 997 2584 770 2862 
Q 544 3141 544 3541 
Q 544 4100 942 4425 
Q 1341 4750 2034 4750 
Q 2731 4750 3128 4425 
Q 3525 4100 3525 3541 
Q 3525 3141 3298 2862 
Q 3072 2584 2669 2484 
Q 3125 2378 3379 2068 
Q 3634 1759 3634 1313 
Q 3634 634 3220 271 
Q 2806 -91 2034 -91 
Q 1263 -91 848 271 
Q 434 634 434 1313 
Q 434 1759 690 2068 
Q 947 2378 1403 2484 
z
M 1172 3481 
Q 1172 3119 1398 2916 
Q 1625 2713 2034 2713 
Q 2441 2713 2670 2916 
Q 2900 3119 2900 3481 
Q 2900 3844 2670 4047 
Q 2441 4250 2034 4250 
Q 1625 4250 1398 4047 
Q 1172 3844 1172 3481 
z
" transform="scale(0.015625)"/>
       </defs>
       <use xlink:href="#DejaVuSans-30"/>
       <use xlink:href="#DejaVuSans-2e" x="63.623047"/>
       <use xlink:href="#DejaVuSans-38" x="95.410156"/>
      </g>
     </g>
    </g>
    <g id="xtick_6">
     <g id="line2d_11">
      <path d="M 258.77142 244.078125 
L 258.77142 22.318125 
" clip-path="url(#p41c0c6dc92)" style="fill: none; stroke: #b0b0b0; stroke-width: 0.8; stroke-linecap: square"/>
     </g>
     <g id="line2d_12">
      <g>
       <use xlink:href="#m6483c05cda" x="258.77142" y="244.078125" style="stroke: #000000; stroke-width: 0.8"/>
      </g>
     </g>
     <g id="text_6">
      <!-- 1.0 -->
      <g transform="translate(250.819858 258.676562) scale(0.1 -0.1)">
       <defs>
        <path id="DejaVuSans-31" d="M 794 531 
L 1825 531 
L 1825 4091 
L 703 3866 
L 703 4441 
L 1819 4666 
L 2450 4666 
L 2450 531 
L 3481 531 
L 3481 0 
L 794 0 
L 794 531 
z
" transform="scale(0.015625)"/>
       </defs>
       <use xlink:href="#DejaVuSans-31"/>
       <use xlink:href="#DejaVuSans-2e" x="63.623047"/>
       <use xlink:href="#DejaVuSans-30" x="95.410156"/>
      </g>
     </g>
    </g>
    <g id="text_7">
     <!-- Percentage of Sample -->
     <g transform="translate(91.474375 273.874375) scale(0.12 -0.12)">
      <defs>
       <path id="DejaVuSans-50" d="M 1259 4147 
L 1259 2394 
L 2053 2394 
Q 2494 2394 2734 2622 
Q 2975 2850 2975 3272 
Q 2975 3691 2734 3919 
Q 2494 4147 2053 4147 
L 1259 4147 
z
M 628 4666 
L 2053 4666 
Q 2838 4666 3239 4311 
Q 3641 3956 3641 3272 
Q 3641 2581 3239 2228 
Q 2838 1875 2053 1875 
L 1259 1875 
L 1259 0 
L 628 0 
L 628 4666 
z
" transform="scale(0.015625)"/>
       <path id="DejaVuSans-65" d="M 3597 1894 
L 3597 1613 
L 953 1613 
Q 991 1019 1311 708 
Q 1631 397 2203 397 
Q 2534 397 2845 478 
Q 3156 559 3463 722 
L 3463 178 
Q 3153 47 2828 -22 
Q 2503 -91 2169 -91 
Q 1331 -91 842 396 
Q 353 884 353 1716 
Q 353 2575 817 3079 
Q 1281 3584 2069 3584 
Q 2775 3584 3186 3129 
Q 3597 2675 3597 1894 
z
M 3022 2063 
Q 3016 2534 2758 2815 
Q 2500 3097 2075 3097 
Q 1594 3097 1305 2825 
Q 1016 2553 972 2059 
L 3022 2063 
z
" transform="scale(0.015625)"/>
       <path id="DejaVuSans-72" d="M 2631 2963 
Q 2534 3019 2420 3045 
Q 2306 3072 2169 3072 
Q 1681 3072 1420 2755 
Q 1159 2438 1159 1844 
L 1159 0 
L 581 0 
L 581 3500 
L 1159 3500 
L 1159 2956 
Q 1341 3275 1631 3429 
Q 1922 3584 2338 3584 
Q 2397 3584 2469 3576 
Q 2541 3569 2628 3553 
L 2631 2963 
z
" transform="scale(0.015625)"/>
       <path id="DejaVuSans-63" d="M 3122 3366 
L 3122 2828 
Q 2878 2963 2633 3030 
Q 2388 3097 2138 3097 
Q 1578 3097 1268 2742 
Q 959 2388 959 1747 
Q 959 1106 1268 751 
Q 1578 397 2138 397 
Q 2388 397 2633 464 
Q 2878 531 3122 666 
L 3122 134 
Q 2881 22 2623 -34 
Q 2366 -91 2075 -91 
Q 1284 -91 818 406 
Q 353 903 353 1747 
Q 353 2603 823 3093 
Q 1294 3584 2113 3584 
Q 2378 3584 2631 3529 
Q 2884 3475 3122 3366 
z
" transform="scale(0.015625)"/>
       <path id="DejaVuSans-6e" d="M 3513 2113 
L 3513 0 
L 2938 0 
L 2938 2094 
Q 2938 2591 2744 2837 
Q 2550 3084 2163 3084 
Q 1697 3084 1428 2787 
Q 1159 2491 1159 1978 
L 1159 0 
L 581 0 
L 581 3500 
L 1159 3500 
L 1159 2956 
Q 1366 3272 1645 3428 
Q 1925 3584 2291 3584 
Q 2894 3584 3203 3211 
Q 3513 2838 3513 2113 
z
" transform="scale(0.015625)"/>
       <path id="DejaVuSans-74" d="M 1172 4494 
L 1172 3500 
L 2356 3500 
L 2356 3053 
L 1172 3053 
L 1172 1153 
Q 1172 725 1289 603 
Q 1406 481 1766 481 
L 2356 481 
L 2356 0 
L 1766 0 
Q 1100 0 847 248 
Q 594 497 594 1153 
L 594 3053 
L 172 3053 
L 172 3500 
L 594 3500 
L 594 4494 
L 1172 4494 
z
" transform="scale(0.015625)"/>
       <path id="DejaVuSans-61" d="M 2194 1759 
Q 1497 1759 1228 1600 
Q 959 1441 959 1056 
Q 959 750 1161 570 
Q 1363 391 1709 391 
Q 2188 391 2477 730 
Q 2766 1069 2766 1631 
L 2766 1759 
L 2194 1759 
z
M 3341 1997 
L 3341 0 
L 2766 0 
L 2766 531 
Q 2569 213 2275 61 
Q 1981 -91 1556 -91 
Q 1019 -91 701 211 
Q 384 513 384 1019 
Q 384 1609 779 1909 
Q 1175 2209 1959 2209 
L 2766 2209 
L 2766 2266 
Q 2766 2663 2505 2880 
Q 2244 3097 1772 3097 
Q 1472 3097 1187 3025 
Q 903 2953 641 2809 
L 641 3341 
Q 956 3463 1253 3523 
Q 1550 3584 1831 3584 
Q 2591 3584 2966 3190 
Q 3341 2797 3341 1997 
z
" transform="scale(0.015625)"/>
       <path id="DejaVuSans-67" d="M 2906 1791 
Q 2906 2416 2648 2759 
Q 2391 3103 1925 3103 
Q 1463 3103 1205 2759 
Q 947 2416 947 1791 
Q 947 1169 1205 825 
Q 1463 481 1925 481 
Q 2391 481 2648 825 
Q 2906 1169 2906 1791 
z
M 3481 434 
Q 3481 -459 3084 -895 
Q 2688 -1331 1869 -1331 
Q 1566 -1331 1297 -1286 
Q 1028 -1241 775 -1147 
L 775 -588 
Q 1028 -725 1275 -790 
Q 1522 -856 1778 -856 
Q 2344 -856 2625 -561 
Q 2906 -266 2906 331 
L 2906 616 
Q 2728 306 2450 153 
Q 2172 0 1784 0 
Q 1141 0 747 490 
Q 353 981 353 1791 
Q 353 2603 747 3093 
Q 1141 3584 1784 3584 
Q 2172 3584 2450 3431 
Q 2728 3278 2906 2969 
L 2906 3500 
L 3481 3500 
L 3481 434 
z
" transform="scale(0.015625)"/>
       <path id="DejaVuSans-20" transform="scale(0.015625)"/>
       <path id="DejaVuSans-6f" d="M 1959 3097 
Q 1497 3097 1228 2736 
Q 959 2375 959 1747 
Q 959 1119 1226 758 
Q 1494 397 1959 397 
Q 2419 397 2687 759 
Q 2956 1122 2956 1747 
Q 2956 2369 2687 2733 
Q 2419 3097 1959 3097 
z
M 1959 3584 
Q 2709 3584 3137 3096 
Q 3566 2609 3566 1747 
Q 3566 888 3137 398 
Q 2709 -91 1959 -91 
Q 1206 -91 779 398 
Q 353 888 353 1747 
Q 353 2609 779 3096 
Q 1206 3584 1959 3584 
z
" transform="scale(0.015625)"/>
       <path id="DejaVuSans-66" d="M 2375 4863 
L 2375 4384 
L 1825 4384 
Q 1516 4384 1395 4259 
Q 1275 4134 1275 3809 
L 1275 3500 
L 2222 3500 
L 2222 3053 
L 1275 3053 
L 1275 0 
L 697 0 
L 697 3053 
L 147 3053 
L 147 3500 
L 697 3500 
L 697 3744 
Q 697 4328 969 4595 
Q 1241 4863 1831 4863 
L 2375 4863 
z
" transform="scale(0.015625)"/>
       <path id="DejaVuSans-53" d="M 3425 4513 
L 3425 3897 
Q 3066 4069 2747 4153 
Q 2428 4238 2131 4238 
Q 1616 4238 1336 4038 
Q 1056 3838 1056 3469 
Q 1056 3159 1242 3001 
Q 1428 2844 1947 2747 
L 2328 2669 
Q 3034 2534 3370 2195 
Q 3706 1856 3706 1288 
Q 3706 609 3251 259 
Q 2797 -91 1919 -91 
Q 1588 -91 1214 -16 
Q 841 59 441 206 
L 441 856 
Q 825 641 1194 531 
Q 1563 422 1919 422 
Q 2459 422 2753 634 
Q 3047 847 3047 1241 
Q 3047 1584 2836 1778 
Q 2625 1972 2144 2069 
L 1759 2144 
Q 1053 2284 737 2584 
Q 422 2884 422 3419 
Q 422 4038 858 4394 
Q 1294 4750 2059 4750 
Q 2388 4750 2728 4690 
Q 3069 4631 3425 4513 
z
" transform="scale(0.015625)"/>
       <path id="DejaVuSans-6d" d="M 3328 2828 
Q 3544 3216 3844 3400 
Q 4144 3584 4550 3584 
Q 5097 3584 5394 3201 
Q 5691 2819 5691 2113 
L 5691 0 
L 5113 0 
L 5113 2094 
Q 5113 2597 4934 2840 
Q 4756 3084 4391 3084 
Q 3944 3084 3684 2787 
Q 3425 2491 3425 1978 
L 3425 0 
L 2847 0 
L 2847 2094 
Q 2847 2600 2669 2842 
Q 2491 3084 2119 3084 
Q 1678 3084 1418 2786 
Q 1159 2488 1159 1978 
L 1159 0 
L 581 0 
L 581 3500 
L 1159 3500 
L 1159 2956 
Q 1356 3278 1631 3431 
Q 1906 3584 2284 3584 
Q 2666 3584 2933 3390 
Q 3200 3197 3328 2828 
z
" transform="scale(0.015625)"/>
       <path id="DejaVuSans-70" d="M 1159 525 
L 1159 -1331 
L 581 -1331 
L 581 3500 
L 1159 3500 
L 1159 2969 
Q 1341 3281 1617 3432 
Q 1894 3584 2278 3584 
Q 2916 3584 3314 3078 
Q 3713 2572 3713 1747 
Q 3713 922 3314 415 
Q 2916 -91 2278 -91 
Q 1894 -91 1617 61 
Q 1341 213 1159 525 
z
M 3116 1747 
Q 3116 2381 2855 2742 
Q 2594 3103 2138 3103 
Q 1681 3103 1420 2742 
Q 1159 2381 1159 1747 
Q 1159 1113 1420 752 
Q 1681 391 2138 391 
Q 2594 391 2855 752 
Q 3116 1113 3116 1747 
z
" transform="scale(0.015625)"/>
       <path id="DejaVuSans-6c" d="M 603 4863 
L 1178 4863 
L 1178 0 
L 603 0 
L 603 4863 
z
" transform="scale(0.015625)"/>
      </defs>
      <use xlink:href="#DejaVuSans-50"/>
      <use xlink:href="#DejaVuSans-65" x="56.677734"/>
      <use xlink:href="#DejaVuSans-72" x="118.201172"/>
      <use xlink:href="#DejaVuSans-63" x="157.064453"/>
      <use xlink:href="#DejaVuSans-65" x="212.044922"/>
      <use xlink:href="#DejaVuSans-6e" x="273.568359"/>
      <use xlink:href="#DejaVuSans-74" x="336.947266"/>
      <use xlink:href="#DejaVuSans-61" x="376.15625"/>
      <use xlink:href="#DejaVuSans-67" x="437.435547"/>
      <use xlink:href="#DejaVuSans-65" x="500.912109"/>
      <use xlink:href="#DejaVuSans-20" x="562.435547"/>
      <use xlink:href="#DejaVuSans-6f" x="594.222656"/>
      <use xlink:href="#DejaVuSans-66" x="655.404297"/>
      <use xlink:href="#DejaVuSans-20" x="690.609375"/>
      <use xlink:href="#DejaVuSans-53" x="722.396484"/>
      <use xlink:href="#DejaVuSans-61" x="785.873047"/>
      <use xlink:href="#DejaVuSans-6d" x="847.152344"/>
      <use xlink:href="#DejaVuSans-70" x="944.564453"/>
      <use xlink:href="#DejaVuSans-6c" x="1008.041016"/>
      <use xlink:href="#DejaVuSans-65" x="1035.824219"/>
     </g>
    </g>
   </g>
   <g id="matplotlib.axis_2">
    <g id="ytick_1">
     <g id="line2d_13">
      <path d="M 45.716875 233.998125 
L 268.916875 233.998125 
" clip-path="url(#p41c0c6dc92)" style="fill: none; stroke: #b0b0b0; stroke-width: 0.8; stroke-linecap: square"/>
     </g>
     <g id="line2d_14">
      <defs>
       <path id="m3153ade747" d="M 0 0 
L -3.5 0 
" style="stroke: #000000; stroke-width: 0.8"/>
      </defs>
      <g>
       <use xlink:href="#m3153ade747" x="45.716875" y="233.998125" style="stroke: #000000; stroke-width: 0.8"/>
      </g>
     </g>
     <g id="text_8">
      <!-- 1.0 -->
      <g transform="translate(22.81375 237.797344) scale(0.1 -0.1)">
       <use xlink:href="#DejaVuSans-31"/>
       <use xlink:href="#DejaVuSans-2e" x="63.623047"/>
       <use xlink:href="#DejaVuSans-30" x="95.410156"/>
      </g>
     </g>
    </g>
    <g id="ytick_2">
     <g id="line2d_15">
      <path d="M 45.716875 194.103264 
L 268.916875 194.103264 
" clip-path="url(#p41c0c6dc92)" style="fill: none; stroke: #b0b0b0; stroke-width: 0.8; stroke-linecap: square"/>
     </g>
     <g id="line2d_16">
      <g>
       <use xlink:href="#m3153ade747" x="45.716875" y="194.103264" style="stroke: #000000; stroke-width: 0.8"/>
      </g>
     </g>
     <g id="text_9">
      <!-- 1.2 -->
      <g transform="translate(22.81375 197.902483) scale(0.1 -0.1)">
       <use xlink:href="#DejaVuSans-31"/>
       <use xlink:href="#DejaVuSans-2e" x="63.623047"/>
       <use xlink:href="#DejaVuSans-32" x="95.410156"/>
      </g>
     </g>
    </g>
    <g id="ytick_3">
     <g id="line2d_17">
      <path d="M 45.716875 154.208403 
L 268.916875 154.208403 
" clip-path="url(#p41c0c6dc92)" style="fill: none; stroke: #b0b0b0; stroke-width: 0.8; stroke-linecap: square"/>
     </g>
     <g id="line2d_18">
      <g>
       <use xlink:href="#m3153ade747" x="45.716875" y="154.208403" style="stroke: #000000; stroke-width: 0.8"/>
      </g>
     </g>
     <g id="text_10">
      <!-- 1.4 -->
      <g transform="translate(22.81375 158.007621) scale(0.1 -0.1)">
       <use xlink:href="#DejaVuSans-31"/>
       <use xlink:href="#DejaVuSans-2e" x="63.623047"/>
       <use xlink:href="#DejaVuSans-34" x="95.410156"/>
      </g>
     </g>
    </g>
    <g id="ytick_4">
     <g id="line2d_19">
      <path d="M 45.716875 114.313541 
L 268.916875 114.313541 
" clip-path="url(#p41c0c6dc92)" style="fill: none; stroke: #b0b0b0; stroke-width: 0.8; stroke-linecap: square"/>
     </g>
     <g id="line2d_20">
      <g>
       <use xlink:href="#m3153ade747" x="45.716875" y="114.313541" style="stroke: #000000; stroke-width: 0.8"/>
      </g>
     </g>
     <g id="text_11">
      <!-- 1.6 -->
      <g transform="translate(22.81375 118.11276) scale(0.1 -0.1)">
       <use xlink:href="#DejaVuSans-31"/>
       <use xlink:href="#DejaVuSans-2e" x="63.623047"/>
       <use xlink:href="#DejaVuSans-36" x="95.410156"/>
      </g>
     </g>
    </g>
    <g id="ytick_5">
     <g id="line2d_21">
      <path d="M 45.716875 74.41868 
L 268.916875 74.41868 
" clip-path="url(#p41c0c6dc92)" style="fill: none; stroke: #b0b0b0; stroke-width: 0.8; stroke-linecap: square"/>
     </g>
     <g id="line2d_22">
      <g>
       <use xlink:href="#m3153ade747" x="45.716875" y="74.41868" style="stroke: #000000; stroke-width: 0.8"/>
      </g>
     </g>
     <g id="text_12">
      <!-- 1.8 -->
      <g transform="translate(22.81375 78.217899) scale(0.1 -0.1)">
       <use xlink:href="#DejaVuSans-31"/>
       <use xlink:href="#DejaVuSans-2e" x="63.623047"/>
       <use xlink:href="#DejaVuSans-38" x="95.410156"/>
      </g>
     </g>
    </g>
    <g id="ytick_6">
     <g id="line2d_23">
      <path d="M 45.716875 34.523819 
L 268.916875 34.523819 
" clip-path="url(#p41c0c6dc92)" style="fill: none; stroke: #b0b0b0; stroke-width: 0.8; stroke-linecap: square"/>
     </g>
     <g id="line2d_24">
      <g>
       <use xlink:href="#m3153ade747" x="45.716875" y="34.523819" style="stroke: #000000; stroke-width: 0.8"/>
      </g>
     </g>
     <g id="text_13">
      <!-- 2.0 -->
      <g transform="translate(22.81375 38.323038) scale(0.1 -0.1)">
       <use xlink:href="#DejaVuSans-32"/>
       <use xlink:href="#DejaVuSans-2e" x="63.623047"/>
       <use xlink:href="#DejaVuSans-30" x="95.410156"/>
      </g>
     </g>
    </g>
    <g id="text_14">
     <!-- Lift -->
     <g transform="translate(16.318125 142.5675) rotate(-90) scale(0.12 -0.12)">
      <defs>
       <path id="DejaVuSans-4c" d="M 628 4666 
L 1259 4666 
L 1259 531 
L 3531 531 
L 3531 0 
L 628 0 
L 628 4666 
z
" transform="scale(0.015625)"/>
       <path id="DejaVuSans-69" d="M 603 3500 
L 1178 3500 
L 1178 0 
L 603 0 
L 603 3500 
z
M 603 4863 
L 1178 4863 
L 1178 4134 
L 603 4134 
L 603 4863 
z
" transform="scale(0.015625)"/>
      </defs>
      <use xlink:href="#DejaVuSans-4c"/>
      <use xlink:href="#DejaVuSans-69" x="55.712891"/>
      <use xlink:href="#DejaVuSans-66" x="83.496094"/>
      <use xlink:href="#DejaVuSans-74" x="116.951172"/>
     </g>
    </g>
   </g>
   <g id="line2d_25">
    <path d="M 55.872475 32.398125 
L 56.055093 32.398125 
L 56.065239 52.45184 
L 56.166693 45.767269 
L 56.42033 39.690385 
L 56.734839 37.06178 
L 56.836293 36.575982 
L 56.846439 40.667698 
L 56.947893 39.894841 
L 57.059493 39.195995 
L 57.069639 42.509242 
L 57.171093 41.725434 
L 57.363857 40.52801 
L 57.374002 43.16522 
L 57.475457 42.488045 
L 57.962439 40.148353 
L 58.520439 38.521397 
L 58.905966 37.745782 
L 58.916111 39.060489 
L 59.017566 38.846265 
L 59.179893 38.53076 
L 59.190039 39.73485 
L 59.291493 39.517787 
L 59.311784 39.475907 
L 59.32193 40.631322 
L 59.423384 40.396758 
L 59.585711 40.048044 
L 59.595857 41.117132 
L 59.697311 40.88647 
L 59.737893 40.797587 
L 59.748039 41.822848 
L 59.849493 41.583033 
L 60.610402 40.111092 
L 60.935057 39.617463 
L 60.945202 40.4036 
L 61.046657 40.246937 
L 61.188693 40.037636 
L 61.198839 40.78561 
L 61.300293 40.629128 
L 61.787275 39.952607 
L 61.79742 40.62529 
L 61.898875 40.487019 
L 62.13222 40.185976 
L 62.142366 40.821333 
L 62.24382 40.687419 
L 62.609057 40.238675 
L 62.619202 40.829116 
L 62.720657 40.704398 
L 62.730802 40.692128 
L 62.751093 41.849066 
L 62.852548 41.711897 
L 62.964148 41.565538 
L 62.994584 42.667453 
L 63.085893 42.537644 
L 63.13662 42.466936 
L 63.258366 43.401535 
L 63.410548 43.179692 
L 63.420693 43.703575 
L 63.522148 43.553834 
L 63.745348 43.237971 
L 63.755493 43.739558 
L 63.856948 43.595631 
L 63.938111 43.483093 
L 63.948257 43.972415 
L 64.049711 43.828991 
L 64.384511 43.379921 
L 64.394657 43.843765 
L 64.496111 43.709269 
L 64.617857 43.551988 
L 64.628002 44.003284 
L 64.729457 43.870502 
L 65.074402 43.44092 
L 65.094693 44.298132 
L 65.196148 44.168784 
L 65.226584 44.130526 
L 65.23673 44.551892 
L 65.338184 44.421766 
L 66.35273 43.258938 
L 66.362875 43.635956 
L 66.46433 43.528417 
L 66.48462 43.507155 
L 66.494766 43.87926 
L 66.59622 43.770742 
L 66.697675 43.664257 
L 66.70782 44.028905 
L 66.809275 43.921112 
L 67.194802 43.529104 
L 67.204948 43.87789 
L 67.306402 43.77612 
L 67.326693 43.755981 
L 67.336839 44.100558 
L 67.438293 43.997995 
L 67.499166 43.937316 
L 67.509311 44.276632 
L 67.610766 44.174055 
L 67.742657 44.043323 
L 67.773093 44.696826 
L 67.864402 44.60326 
L 68.077457 44.39038 
L 68.087602 44.71327 
L 68.189057 44.61191 
L 68.27022 44.532017 
L 68.280366 44.849778 
L 68.38182 44.748873 
L 68.574584 44.561592 
L 68.58473 44.871728 
L 68.686184 44.773044 
L 68.787639 44.67591 
L 68.797784 44.980848 
L 68.899239 44.882928 
L 68.949966 44.834538 
L 68.980402 45.426061 
L 69.071711 45.336006 
L 69.305057 45.111424 
L 69.406511 46.217914 
L 69.447093 46.17663 
L 69.487675 46.135592 
L 69.49782 46.423789 
L 69.599275 46.320202 
L 69.670293 46.248597 
L 69.680439 46.532902 
L 69.781893 46.429879 
L 69.822475 46.389089 
L 69.83262 46.670195 
L 69.934075 46.567297 
L 70.309457 46.199137 
L 70.319602 46.470908 
L 70.421057 46.37284 
L 70.451493 46.343685 
L 70.461639 46.612711 
L 70.563093 46.514612 
L 70.654402 46.427473 
L 70.664548 46.692754 
L 70.766002 46.595446 
L 70.847166 46.518547 
L 70.958766 46.953241 
L 70.968911 46.943466 
L 71.100802 46.817574 
L 71.110948 47.074829 
L 71.212402 46.977825 
L 71.242839 46.948974 
L 71.354439 47.894775 
L 71.384875 47.864389 
L 71.638511 47.615735 
L 71.739966 48.287331 
L 71.770402 48.25693 
L 72.37913 47.672454 
L 72.470439 48.5685 
L 72.521166 48.51926 
L 72.744366 48.30612 
L 72.82553 48.949636 
L 72.876257 48.900288 
L 72.998002 48.783043 
L 73.008148 49.01067 
L 73.109602 48.912949 
L 73.261784 48.768505 
L 73.27193 48.992691 
L 73.373384 48.896547 
L 73.444402 48.829906 
L 73.454548 49.051729 
L 73.556002 48.956239 
L 73.85022 48.685406 
L 73.860366 48.90231 
L 73.96182 48.809798 
L 74.042984 48.736531 
L 74.16473 49.294825 
L 74.174875 49.285464 
L 74.38793 49.091251 
L 74.398075 49.30164 
L 74.49953 49.209623 
L 74.529966 49.182213 
L 74.540111 49.390953 
L 74.641566 49.299149 
L 74.682148 49.262705 
L 74.803893 50.013601 
L 74.824184 49.994751 
L 74.874911 49.947801 
L 74.915493 50.337551 
L 74.996657 50.261456 
L 75.087966 50.176617 
L 75.098111 50.378777 
L 75.199566 50.28444 
L 75.230002 50.256331 
L 75.351748 50.979912 
L 75.372039 50.960586 
L 75.50393 50.835942 
L 75.514075 51.033483 
L 75.61553 50.937769 
L 75.74742 50.814802 
L 75.85902 51.322483 
L 75.879311 51.3033 
L 76.031493 51.160655 
L 76.163384 51.640071 
L 76.224257 51.582546 
L 76.234402 51.77273 
L 76.335857 51.676721 
L 76.366293 51.648104 
L 76.41702 51.996524 
L 76.488039 51.929043 
L 76.609784 51.814436 
L 76.741675 52.471329 
L 76.75182 52.46158 
L 76.802548 52.412977 
L 76.914148 52.88674 
L 76.934439 52.867011 
L 76.995311 52.808051 
L 77.106911 53.275441 
L 77.127202 53.25552 
L 77.238802 53.14663 
L 77.248948 53.32705 
L 77.350402 53.228235 
L 77.411275 53.169393 
L 77.441711 53.517223 
L 77.53302 53.428238 
L 77.675057 53.291298 
L 77.73593 53.605208 
L 77.796802 53.546354 
L 77.877966 53.468388 
L 77.928693 53.788755 
L 77.999711 53.720132 
L 78.080875 53.642244 
L 78.151893 54.122223 
L 78.212766 54.063056 
L 78.233057 54.043405 
L 78.253348 54.387246 
L 78.354802 54.288062 
L 78.42582 54.219164 
L 78.435966 54.389615 
L 78.53742 54.291219 
L 78.547566 54.281428 
L 78.557711 54.450937 
L 78.659166 54.352793 
L 78.811348 54.207205 
L 78.922948 54.454565 
L 78.933093 54.444866 
L 78.98382 54.396496 
L 79.115711 55.146668 
L 79.136002 55.126835 
L 79.176584 55.087272 
L 79.18673 55.251859 
L 79.288184 55.152882 
L 79.31862 55.123356 
L 79.349057 55.440407 
L 79.440366 55.351173 
L 79.602693 55.194229 
L 79.734584 55.57964 
L 79.825893 55.491311 
L 79.836039 55.651269 
L 79.937493 55.553279 
L 80.089675 55.407832 
L 80.160693 55.675506 
L 80.21142 55.627012 
L 80.252002 55.588362 
L 80.32302 56.020087 
L 80.383893 55.961448 
L 80.475202 55.874032 
L 80.586802 56.426376 
L 80.617239 56.396833 
L 80.718693 56.29888 
L 80.728839 56.452765 
L 80.830293 56.355022 
L 81.114366 56.085519 
L 81.246257 56.443347 
L 81.30713 56.385823 
L 81.378148 56.797476 
L 81.43902 56.739406 
L 81.479602 56.700845 
L 81.560766 57.257448 
L 81.621639 57.198702 
L 81.77382 57.053045 
L 81.794111 57.347583 
L 81.895566 57.250352 
L 81.99702 57.153876 
L 82.139057 57.794336 
L 82.149202 57.784534 
L 82.179639 57.755174 
L 82.270948 58.129746 
L 82.31153 58.090265 
L 82.44342 57.962785 
L 82.473857 58.086453 
L 82.484002 58.229511 
L 82.585457 58.131442 
L 82.64633 58.072957 
L 82.656475 58.2151 
L 82.676766 58.195564 
L 82.77822 58.703036 
L 82.818802 58.663435 
L 83.163748 58.331581 
L 83.184039 58.461253 
L 83.20433 58.739554 
L 83.305784 58.642174 
L 83.356511 58.593753 
L 83.366657 58.732034 
L 83.417384 58.683554 
L 83.42753 58.821497 
L 83.528984 58.724601 
L 83.589857 58.813557 
L 83.731893 58.678931 
L 83.823202 58.884164 
L 83.853639 58.855364 
L 84.259457 58.620561 
L 84.269602 58.754437 
L 84.371057 58.660642 
L 84.401493 58.632633 
L 84.411639 58.765839 
L 84.421784 58.756472 
L 84.523239 58.947114 
L 84.54353 58.928332 
L 84.614548 58.862802 
L 84.634839 58.985561 
L 84.644984 59.117562 
L 84.746439 59.023711 
L 84.918911 59.005708 
L 84.929057 59.136412 
L 85.030511 59.043409 
L 85.12182 58.960258 
L 85.182693 59.043892 
L 85.192839 59.173407 
L 85.294293 59.081111 
L 85.314584 59.200886 
L 85.405893 59.118048 
L 85.497202 59.310335 
L 85.527639 59.282723 
L 85.54793 59.401419 
L 85.710257 59.254562 
L 85.842148 59.679321 
L 85.852293 59.670092 
L 85.913166 59.614849 
L 85.933457 59.731799 
L 86.045057 60.035178 
L 86.065348 60.016611 
L 86.116075 59.970302 
L 86.12622 60.095513 
L 86.136366 60.086231 
L 86.268257 60.76908 
L 86.298693 60.740709 
L 86.359566 60.817562 
L 86.450875 60.732728 
L 86.46102 60.856315 
L 86.562475 60.76227 
L 86.592911 60.734177 
L 86.603057 60.857193 
L 86.623348 60.83842 
L 86.694366 61.036863 
L 86.745093 60.989822 
L 86.765384 60.971048 
L 86.77553 61.0933 
L 86.785675 61.083886 
L 86.846548 61.290184 
L 86.90742 61.233533 
L 87.029166 61.120894 
L 87.090039 61.195208 
L 87.100184 61.316117 
L 87.201639 61.222501 
L 87.262511 61.296209 
L 87.33353 61.230997 
L 87.46542 61.625691 
L 87.475566 61.616311 
L 87.536439 61.560158 
L 87.546584 61.679246 
L 87.55673 61.798258 
L 87.658184 61.704448 
L 87.68862 61.804274 
L 87.749493 61.748138 
L 87.77993 61.975124 
L 87.871239 61.890752 
L 87.91182 61.98037 
L 88.145166 61.766545 
L 88.256766 62.419033 
L 88.307493 62.372096 
L 88.33793 62.344004 
L 88.348075 62.459909 
L 88.378511 62.43177 
L 88.540839 63.029693 
L 88.865493 62.851661 
L 88.89593 63.069962 
L 88.987239 62.985415 
L 89.02782 63.070678 
L 89.220584 62.893434 
L 89.301748 63.062787 
L 89.34233 63.025617 
L 89.393057 62.979282 
L 89.413348 63.082068 
L 89.484366 63.259304 
L 89.535093 63.212813 
L 89.58582 63.166461 
L 89.595966 63.277831 
L 89.626402 63.491025 
L 89.717711 63.407166 
L 89.758293 63.490087 
L 89.80902 63.443626 
L 89.859748 63.756367 
L 89.940911 63.681682 
L 90.03222 63.598086 
L 90.062657 63.689298 
L 90.194548 64.043172 
L 90.204693 64.033824 
L 90.224984 64.015143 
L 90.23513 64.124192 
L 90.25542 64.105474 
L 90.397457 64.56419 
L 90.407602 64.554743 
L 90.468475 64.498179 
L 90.488766 64.596883 
L 90.498911 64.704931 
L 90.600366 64.610577 
L 90.640948 64.572989 
L 90.651093 64.680571 
L 90.671384 64.661753 
L 90.691675 64.876615 
L 90.79313 64.782283 
L 90.823566 64.870479 
L 90.894584 64.80465 
L 90.935166 64.99919 
L 91.01633 64.92392 
L 91.03662 65.02084 
L 91.138075 64.927016 
L 91.198948 65.216436 
L 91.269966 65.150611 
L 91.300402 65.237304 
L 91.46273 65.087567 
L 91.59462 65.308538 
L 91.79753 65.235942 
L 91.807675 65.339876 
L 91.90913 65.24716 
L 91.919275 65.237918 
L 91.92942 65.3415 
L 91.959857 65.313723 
L 92.051166 65.567993 
L 92.091748 65.530839 
L 92.274366 65.476418 
L 92.396111 65.588945 
L 92.46713 65.524551 
L 92.497566 65.608099 
L 92.629457 66.042327 
L 92.649748 66.02377 
L 92.659893 66.014499 
L 92.670039 66.115783 
L 92.69033 66.097206 
L 92.791784 66.445367 
L 92.832366 66.407993 
L 92.883093 66.361392 
L 92.91353 66.443315 
L 92.984548 66.707023 
L 93.04542 66.650856 
L 93.055566 66.641512 
L 93.065711 66.741548 
L 93.075857 66.732185 
L 93.167166 67.19353 
L 93.228039 67.136844 
L 93.400511 66.977234 
L 93.420802 67.066893 
L 93.441093 67.264736 
L 93.542548 67.170857 
L 93.968657 66.888807 
L 94.009239 67.065452 
L 94.090402 66.991848 
L 94.130984 66.955164 
L 94.14113 67.052306 
L 94.25273 67.375535 
L 94.283166 67.347827 
L 94.323748 67.31095 
L 94.333893 67.407512 
L 94.374475 67.370621 
L 94.415057 67.650446 
L 94.506366 67.567151 
L 94.577384 67.502637 
L 94.60782 67.580082 
L 94.729566 67.993339 
L 94.760002 67.965487 
L 94.780293 67.946943 
L 94.790439 68.042206 
L 94.820875 68.014359 
L 94.962911 68.301248 
L 95.216548 68.17325 
L 95.287566 68.418437 
L 95.348439 68.362907 
L 95.561493 68.272392 
L 95.571639 68.365698 
L 95.673093 68.274038 
L 95.906439 68.166596 
L 95.916584 68.259126 
L 96.018039 68.168522 
L 96.119493 68.179452 
L 96.241239 68.575431 
L 96.271675 68.548182 
L 96.312257 68.612509 
L 96.59633 68.359956 
L 96.636911 68.523753 
L 96.718075 68.451986 
L 96.738366 68.434089 
L 96.748511 68.524669 
L 96.870257 68.814323 
L 96.890548 68.796313 
L 96.910839 68.877449 
L 96.992002 68.805462 
L 97.093457 69.209325 
L 97.144184 69.164091 
L 97.164475 69.244549 
L 97.215202 69.199349 
L 97.347093 69.376607 
L 97.529711 69.312196 
L 97.550002 69.489446 
L 97.651457 69.399396 
L 97.692039 69.363499 
L 97.702184 69.451789 
L 97.793493 69.759269 
L 97.834075 69.723145 
L 97.854366 69.705109 
L 97.864511 69.792976 
L 97.95582 70.09853 
L 97.996402 70.062218 
L 98.036984 70.122458 
L 98.097857 70.068087 
L 98.138439 70.320678 
L 98.219602 70.248012 
L 98.27033 70.202737 
L 98.29062 70.280562 
L 98.40222 70.563794 
L 98.422511 70.545598 
L 98.432657 70.536506 
L 98.442802 70.622981 
L 98.463093 70.604775 
L 98.564548 70.79987 
L 98.584839 70.781631 
L 98.73702 70.740297 
L 98.889202 71.172109 
L 98.899348 71.162968 
L 98.909493 71.248358 
L 98.919639 71.239204 
L 99.031239 71.515831 
L 99.05153 71.497452 
L 99.112402 71.442422 
L 99.152984 71.499815 
L 99.27473 71.671351 
L 99.355893 71.598063 
L 99.366039 71.682455 
L 99.487784 71.852644 
L 99.558802 71.78852 
L 99.589239 71.854159 
L 99.751566 72.449928 
L 99.761711 72.440672 
L 99.782002 72.51482 
L 99.863166 72.440821 
L 99.995057 72.782159 
L 100.005202 72.772877 
L 100.07622 72.708025 
L 100.086366 72.790789 
L 100.218257 73.404579 
L 100.258839 73.367095 
L 100.370439 73.355793 
L 100.482039 73.618131 
L 100.50233 73.599395 
L 100.532766 73.571322 
L 100.542911 73.653043 
L 100.553057 73.734728 
L 100.644366 73.650444 
L 100.705239 73.594445 
L 100.74582 73.647856 
L 100.755966 73.729172 
L 100.847275 73.64528 
L 100.96902 73.533951 
L 101.009602 73.587104 
L 101.121202 73.665354 
L 101.253093 73.545444 
L 101.273384 73.616664 
L 101.28353 73.697043 
L 101.374839 73.614187 
L 101.384984 73.605002 
L 101.39513 73.685186 
L 101.41542 73.666795 
L 101.516875 73.84247 
L 101.537166 73.824058 
L 101.547311 73.814859 
L 101.557457 73.894712 
L 101.63862 74.176699 
L 101.689348 74.130453 
L 101.851675 74.07163 
L 101.932839 74.263181 
L 101.97342 74.226336 
L 102.003857 74.286932 
L 102.115457 74.185863 
L 102.28793 74.819446 
L 102.298075 74.810177 
L 102.39953 74.717716 
L 102.440111 74.768205 
L 102.592293 75.152681 
L 102.673457 75.078551 
L 102.693748 75.146946 
L 102.764766 75.429242 
L 102.825639 75.373467 
L 102.95753 75.253113 
L 102.998111 75.302544 
L 103.099566 75.468819 
L 103.119857 75.450326 
L 103.150293 75.422616 
L 103.160439 75.499418 
L 103.18073 75.480935 
L 103.302475 75.799237 
L 103.322766 75.780681 
L 103.393784 75.715862 
L 103.42422 75.773695 
L 103.53582 76.013569 
L 103.556111 75.995013 
L 103.586548 76.052471 
L 103.657566 75.987606 
L 103.698148 76.205817 
L 103.779311 76.131614 
L 103.789457 76.122356 
L 103.799602 76.197986 
L 103.809748 76.188718 
L 103.840184 76.330561 
L 103.921348 76.256367 
L 103.941639 76.237857 
L 103.951784 76.313223 
L 103.96193 76.388557 
L 104.053239 76.305207 
L 104.083675 76.361877 
L 104.124257 76.324909 
L 104.29673 76.840586 
L 104.388039 76.75696 
L 104.398184 76.831524 
L 104.51993 77.138482 
L 104.54022 77.119833 
L 104.601093 77.063977 
L 104.63153 77.119537 
L 104.692402 77.313781 
L 104.753275 77.257858 
L 104.773566 77.239247 
L 104.783711 77.313124 
L 104.814148 77.285198 
L 104.946039 77.661988 
L 104.96633 77.643284 
L 104.996766 77.698072 
L 105.088075 77.614045 
L 105.20982 77.914781 
L 105.230111 77.896073 
L 105.260548 77.86804 
L 105.270693 77.94106 
L 105.290984 77.922364 
L 105.443166 78.275051 
L 105.463457 78.33832 
L 105.54462 78.263269 
L 105.65622 78.487348 
L 105.676511 78.468575 
L 105.717093 78.512692 
L 105.777966 78.456455 
L 105.87942 78.607092 
L 105.899711 78.588353 
L 106.08233 78.501414 
L 106.204075 78.874894 
L 106.234511 78.846811 
L 106.254802 78.908856 
L 106.295384 78.87143 
L 106.488148 79.498234 
L 106.498293 79.488797 
L 106.508439 79.559707 
L 106.518584 79.550262 
L 106.579457 79.73436 
L 106.64033 79.677614 
L 106.650475 79.668169 
L 106.66062 79.738831 
L 106.680911 79.719929 
L 106.812802 79.916885 
L 106.904111 79.831878 
L 106.924402 79.892718 
L 107.005566 80.135594 
L 107.056293 80.088292 
L 107.188184 79.965744 
L 107.208475 80.026194 
L 107.21862 80.096018 
L 107.30993 80.011363 
L 107.380948 80.024712 
L 107.42153 80.145066 
L 107.492548 80.07939 
L 107.512839 80.060658 
L 107.522984 80.130063 
L 107.675166 80.539607 
L 107.685311 80.530182 
L 107.695457 80.520761 
L 107.705602 80.589832 
L 107.837493 81.015565 
L 107.86793 80.987111 
L 107.969384 80.970597 
L 108.020111 81.157402 
L 108.09113 81.091101 
L 108.121566 81.062742 
L 108.141857 81.121687 
L 108.283893 81.377782 
L 108.31433 81.34936 
L 108.344766 81.398504 
L 108.42593 81.55508 
L 108.466511 81.517158 
L 108.496948 81.488754 
L 108.517239 81.547115 
L 108.618693 81.838246 
L 108.659275 81.800245 
L 108.66942 81.790753 
L 108.679566 81.858306 
L 108.791166 82.061533 
L 108.811457 82.042502 
L 108.821602 82.032991 
L 108.831748 82.100304 
L 108.963639 82.28337 
L 109.186839 82.150874 
L 109.196984 82.217703 
L 109.288293 82.132558 
L 109.298439 82.199263 
L 109.308584 82.18981 
L 109.31873 82.25648 
L 109.328875 82.247019 
L 109.440475 82.371027 
L 109.45062 82.361566 
L 109.470911 82.342654 
L 109.491202 82.475507 
L 109.572366 82.702874 
L 109.623093 82.655407 
L 109.754984 82.68342 
L 109.856439 82.890381 
L 109.886875 82.861934 
L 109.907166 82.842988 
L 109.947748 82.955606 
L 110.069493 83.29245 
L 110.09993 83.26389 
L 110.12022 83.244868 
L 110.160802 83.356744 
L 110.333275 83.867709 
L 110.34342 83.858124 
L 110.394148 83.810255 
L 110.414439 83.940313 
L 110.424584 84.005306 
L 110.515893 83.919087 
L 110.526039 83.983963 
L 110.56662 83.945694 
L 110.586911 84.075293 
L 110.688366 84.128101 
L 110.698511 84.11853 
L 110.708657 84.108963 
L 110.728948 84.238166 
L 110.830402 84.364563 
L 110.850693 84.345388 
L 111.023166 84.330498 
L 111.12462 84.456053 
L 111.144911 84.436946 
L 111.337675 84.402822 
L 111.34782 84.466649 
L 111.43913 84.381104 
L 111.449275 84.371616 
L 111.469566 84.499002 
L 111.479711 84.489498 
L 111.631893 85.004015 
L 111.66233 84.97532 
L 111.865239 84.93014 
L 111.986984 85.178692 
L 112.007275 85.159617 
L 112.230475 85.022885 
L 112.24062 85.08559 
L 112.392802 85.447616 
L 112.402948 85.438097 
L 112.494257 85.352579 
L 112.524693 85.46776 
L 112.697166 85.951067 
L 112.707311 85.941509 
L 112.717457 85.931955 
L 112.747893 86.046374 
L 112.768184 86.027244 
L 112.849348 86.165074 
L 112.88993 86.126813 
L 112.91022 86.107702 
L 112.940657 86.221641 
L 113.00153 86.377941 
L 113.062402 86.320495 
L 113.102984 86.424441 
L 113.143566 86.386165 
L 113.255166 86.493882 
L 113.265311 86.484321 
L 113.295748 86.526507 
L 113.417493 86.482709 
L 113.478366 86.63744 
L 113.539239 86.580195 
L 113.711711 86.559334 
L 113.80302 86.614438 
L 113.823311 86.595458 
L 113.833457 86.585973 
L 113.853748 86.707347 
L 113.874039 86.688351 
L 113.995784 86.924632 
L 114.016075 86.905607 
L 114.046511 86.877094 
L 114.076948 86.988406 
L 114.087093 86.978894 
L 114.22913 87.264365 
L 114.239275 87.25483 
L 114.310293 87.257794 
L 114.259566 87.305448 
L 114.320439 87.31788 
L 114.45233 87.541501 
L 114.462475 87.531954 
L 114.645093 87.429895 
L 114.665384 87.480104 
L 114.776984 87.652033 
L 114.797275 87.63301 
L 114.878439 87.625995 
L 114.888584 87.685439 
L 114.949457 87.903944 
L 115.020475 87.837311 
L 115.040766 87.887061 
L 115.172657 87.832275 
L 115.182802 87.891389 
L 115.274111 87.806102 
L 115.34513 87.739949 
L 115.385711 87.83894 
L 115.426293 87.937796 
L 115.497311 87.871655 
L 115.517602 87.852787 
L 115.558184 87.951415 
L 115.56833 87.941975 
L 115.669784 88.187935 
L 115.710366 88.150105 
L 115.771239 88.229299 
L 115.81182 88.191505 
L 115.882839 88.328873 
L 115.933566 88.281642 
L 116.166911 88.132879 
L 116.177057 88.190968 
L 116.23793 88.4043 
L 116.308948 88.338499 
L 116.34953 88.300968 
L 116.36982 88.416719 
L 116.410402 88.379173 
L 116.542293 88.525728 
L 116.562584 88.506966 
L 116.582875 88.622242 
L 116.603166 88.60346 
L 116.765493 88.921341 
L 116.836511 88.855507 
L 116.897384 88.932535 
L 117.03942 89.133844 
L 117.049566 89.124436 
L 117.069857 89.238591 
L 117.090148 89.219754 
L 117.293057 89.826932 
L 117.303202 89.817449 
L 117.333639 89.789018 
L 117.35393 89.902427 
L 117.48582 90.241571 
L 117.516257 90.213016 
L 117.587275 90.146497 
L 117.607566 90.259321 
L 117.648148 90.353033 
L 117.719166 90.286495 
L 117.780039 90.229583 
L 117.82062 90.323053 
L 117.891639 90.453532 
L 117.942366 90.406094 
L 117.993093 90.489717 
L 118.04382 90.442326 
L 118.145275 90.674437 
L 118.185857 90.636491 
L 118.327893 90.634349 
L 118.368475 90.726737 
L 118.439493 90.66054 
L 118.46993 90.632216 
L 118.49022 90.743294 
L 118.510511 90.724397 
L 118.703275 91.193002 
L 118.93662 91.104514 
L 119.129384 91.633121 
L 119.13953 91.623624 
L 119.15982 91.604638 
L 119.190257 91.704691 
L 119.210548 91.685695 
L 119.36273 91.992166 
L 119.372875 91.982647 
L 119.433748 91.925591 
L 119.454039 92.034573 
L 119.514911 92.233246 
L 119.58593 92.166562 
L 119.768548 92.123113 
L 119.880148 92.273243 
L 119.900439 92.254271 
L 119.930875 92.225836 
L 119.951166 92.333877 
L 120.062766 92.546595 
L 120.093202 92.518093 
L 120.245384 92.50239 
L 120.346839 92.660234 
L 120.377275 92.631804 
L 120.428002 92.58448 
L 120.488875 92.653715 
L 120.630911 93.024175 
L 120.661348 92.995699 
L 120.762802 92.963668 
L 120.783093 93.007416 
L 120.94542 93.356418 
L 120.955566 93.346917 
L 121.046875 93.323965 
L 121.05702 93.376898 
L 121.178766 93.51243 
L 121.188911 93.502939 
L 121.249784 93.446053 
L 121.28022 93.542052 
L 121.401966 93.61473 
L 121.452693 93.567385 
L 121.493275 93.653561 
L 121.655602 93.997201 
L 121.665748 93.987704 
L 121.736766 93.983075 
L 121.696184 94.021038 
L 121.746911 94.035353 
L 121.858511 94.177749 
L 121.878802 94.15876 
L 121.92953 94.23452 
L 121.970111 94.19656 
L 122.162875 94.630619 
L 122.193311 94.602063 
L 122.223748 94.696167 
L 122.244039 94.677125 
L 122.386075 94.849988 
L 122.446948 94.792894 
L 122.497675 94.867524 
L 122.629566 95.109789 
L 122.649857 95.090736 
L 122.82233 94.929255 
L 122.873057 95.003365 
L 122.984657 95.263006 
L 123.025239 95.225022 
L 123.075966 95.238145 
L 123.096257 95.279701 
L 123.258584 95.550876 
L 123.278875 95.592226 
L 123.40062 95.53856 
L 123.532511 95.656022 
L 123.633966 95.621365 
L 123.644111 95.671934 
L 123.765857 95.738263 
L 123.867311 95.703603 
L 123.887602 95.744537 
L 124.019493 95.980164 
L 124.039784 95.96124 
L 124.151384 95.976536 
L 124.323857 96.291853 
L 124.354293 96.26346 
L 124.394875 96.344391 
L 124.526766 96.636386 
L 124.557202 96.607924 
L 124.597784 96.629213 
L 124.577493 96.64818 
L 124.60793 96.678924 
L 124.780402 97.049437 
L 124.790548 97.039921 
L 124.810839 97.079914 
L 124.871711 97.081823 
L 124.922439 97.152152 
L 124.983311 97.095125 
L 125.05433 97.087529 
L 125.07462 97.127356 
L 125.226802 97.337317 
L 125.29782 97.3295 
L 125.307966 97.378608 
L 125.40942 97.45934 
L 125.429711 97.440363 
L 125.450002 97.421398 
L 125.480439 97.509868 
L 125.61233 97.620099 
L 125.622475 97.610614 
L 125.652911 97.698782 
L 125.663057 97.689291 
L 125.805093 97.847587 
L 125.96742 97.812125 
L 126.119602 98.017936 
L 126.160184 98.095821 
L 126.221057 98.038981 
L 126.322511 98.175466 
L 126.352948 98.147065 
L 126.39353 98.166927 
L 126.373239 98.185853 
L 126.41382 98.205687 
L 126.50513 98.35103 
L 126.545711 98.313165 
L 126.586293 98.390411 
L 126.61673 98.362024 
L 126.687748 98.525689 
L 126.74862 98.468903 
L 126.758766 98.459448 
L 126.789202 98.54584 
L 126.809493 98.526922 
L 126.961675 98.843226 
L 126.981966 98.824269 
L 127.022548 98.900751 
L 127.06313 98.862847 
L 127.19502 99.025175 
L 127.205166 99.0157 
L 127.266039 99.015895 
L 127.28633 99.05394 
L 127.448657 99.414367 
L 127.468948 99.395377 
L 127.499384 99.480515 
L 127.570402 99.414078 
L 127.682002 99.479913 
L 127.661711 99.385525 
L 127.692148 99.470438 
L 127.75302 99.470246 
L 127.763166 99.517375 
L 127.884911 99.686405 
L 127.905202 99.667453 
L 127.915348 99.657981 
L 127.935639 99.75196 
L 127.95593 99.845887 
L 128.057384 99.807466 
L 128.077675 99.788525 
L 128.097966 99.882257 
L 128.29073 100.32064 
L 128.300875 100.311127 
L 128.321166 100.292109 
L 128.341457 100.385385 
L 128.493639 100.6351 
L 128.503784 100.62557 
L 128.524075 100.662518 
L 128.605239 100.642289 
L 128.75742 100.946385 
L 128.777711 100.927309 
L 128.929893 100.840269 
L 128.950184 100.876942 
L 129.09222 101.077516 
L 129.102366 101.068002 
L 129.142948 101.141028 
L 129.18353 101.102981 
L 129.274839 101.18381 
L 129.305275 101.155303 
L 129.416875 101.161623 
L 129.508184 101.13162 
L 129.558911 101.305164 
L 129.569057 101.29568 
L 129.589348 101.3871 
L 129.670511 101.421497 
L 129.700948 101.393045 
L 129.792257 101.307832 
L 129.842984 101.370585 
L 129.85313 101.416122 
L 129.944439 101.331055 
L 129.995166 101.283886 
L 130.015457 101.374784 
L 130.157493 101.516761 
L 130.177784 101.497889 
L 130.20822 101.579064 
L 130.218366 101.569625 
L 130.390839 101.84633 
L 130.400984 101.836878 
L 130.43142 101.917671 
L 130.441566 101.908214 
L 130.52273 101.887151 
L 130.573457 102.003362 
L 130.614039 101.965574 
L 130.644475 102.046085 
L 130.756075 102.213959 
L 130.786511 102.185597 
L 130.796657 102.176149 
L 130.816948 102.265834 
L 130.948839 102.414069 
L 130.958984 102.40461 
L 131.030002 102.392602 
L 130.979275 102.43987 
L 131.040148 102.437282 
L 131.10102 102.651027 
L 131.182184 102.575324 
L 131.30393 102.569948 
L 131.476402 102.894213 
L 131.486548 102.884755 
L 131.628584 102.860028 
L 131.811202 103.226369 
L 131.821348 103.216909 
L 131.86193 103.286175 
L 131.902511 103.248343 
L 132.054693 103.534074 
L 132.074984 103.515135 
L 132.10542 103.486745 
L 132.125711 103.574542 
L 132.237311 103.683649 
L 132.257602 103.664715 
L 132.277893 103.699041 
L 132.359057 103.676583 
L 132.511239 103.853587 
L 132.541675 103.825224 
L 132.572111 103.902974 
L 132.704002 103.99206 
L 132.714148 103.982608 
L 132.744584 104.060122 
L 132.88662 104.192116 
L 132.917057 104.163758 
L 132.937348 104.250452 
L 133.069239 104.338523 
L 133.08953 104.372311 
L 133.150402 104.368272 
L 133.292439 104.499009 
L 133.33302 104.46124 
L 133.353311 104.547391 
L 133.53593 104.901631 
L 133.546075 104.892162 
L 133.606948 104.8354 
L 133.637384 104.91169 
L 133.89102 105.510357 
L 133.921457 105.48185 
L 133.941748 105.567086 
L 133.951893 105.55758 
L 134.043202 105.784418 
L 134.104075 105.727323 
L 134.175093 105.712783 
L 134.185239 105.755239 
L 134.306984 105.797005 
L 134.31713 105.787514 
L 134.33742 105.872242 
L 134.367857 105.843756 
L 134.54033 106.096498 
L 134.56062 106.077497 
L 134.580911 106.161888 
L 134.611348 106.133378 
L 134.773675 106.39422 
L 134.78382 106.384708 
L 134.89542 106.383206 
L 135.067893 106.63309 
L 135.149057 106.608419 
L 135.159202 106.650239 
L 135.280948 106.741357 
L 135.291093 106.731861 
L 135.402693 106.678724 
L 135.412839 106.720401 
L 135.54473 106.852714 
L 135.554875 106.843235 
L 135.646184 106.809037 
L 135.575166 106.875332 
L 135.65633 106.850571 
L 135.798366 107.22732 
L 135.849093 107.179864 
L 135.950548 107.186747 
L 136.10273 107.450593 
L 136.12302 107.431619 
L 136.183893 107.425414 
L 136.21433 107.498276 
L 136.356366 107.618514 
L 136.54913 107.43881 
L 136.620148 107.523978 
L 136.701311 107.599557 
L 136.741893 107.561825 
L 136.752039 107.552397 
L 136.802766 107.656114 
L 136.812911 107.646682 
L 136.88393 107.781613 
L 136.944802 107.725019 
L 137.025966 107.74996 
L 137.046257 107.781249 
L 137.178148 107.909183 
L 137.188293 107.899763 
L 137.208584 107.930951 
L 137.320184 107.927375 
L 137.523093 108.287822 
L 137.533239 108.278394 
L 137.563675 108.39954 
L 137.57382 108.390103 
L 137.77673 108.748287 
L 137.868039 108.762514 
L 137.79702 108.779042 
L 137.878184 108.802681 
L 138.010075 108.92768 
L 138.02022 108.918229 
L 138.070948 109.019503 
L 138.13182 108.962809 
L 138.24342 109.007269 
L 138.22313 108.927332 
L 138.253566 108.997835 
L 138.304293 108.950703 
L 138.33473 109.070467 
L 138.486911 109.224736 
L 138.527493 109.285467 
L 138.628948 109.240383 
L 138.791275 109.433439 
L 138.842002 109.435383 
L 138.862293 109.5146 
L 138.984039 109.646417 
L 139.00433 109.627564 
L 139.075348 109.561653 
L 139.105784 109.680085 
L 139.268111 109.968755 
L 139.288402 109.949888 
L 139.33913 109.902761 
L 139.389857 110.001838 
L 139.613057 110.426633 
L 139.765239 110.430599 
L 140.00873 110.930157 
L 140.12033 110.922727 
L 140.02902 110.95957 
L 140.14062 110.952103 
L 140.302948 111.138413 
L 140.36382 111.129844 
L 140.323239 111.167673 
L 140.394257 111.19777 
L 140.414548 111.275109 
L 140.516002 111.228645 
L 140.688475 111.212272 
L 140.779784 111.27128 
L 140.81022 111.24302 
L 140.952257 111.20705 
L 140.962402 111.24547 
L 141.12473 111.47715 
L 141.134875 111.467741 
L 141.155166 111.448931 
L 141.195748 111.55439 
L 141.337784 111.708486 
L 141.34793 111.699074 
L 141.388511 111.661446 
L 141.429093 111.766517 
L 141.68273 112.290572 
L 141.743602 112.233944 
L 141.804475 112.319436 
L 141.956657 112.461744 
L 141.997239 112.424023 
L 142.058111 112.50913 
L 142.169711 112.68842 
L 142.210293 112.650686 
L 142.220439 112.641257 
L 142.250875 112.754293 
L 142.362475 112.791743 
L 142.37262 112.782315 
L 142.392911 112.81049 
L 142.48422 112.819677 
L 142.585675 112.866356 
L 142.605966 112.847533 
L 142.727711 112.828466 
L 142.748002 112.856516 
L 142.768293 112.931373 
L 142.869748 112.884235 
L 142.940766 112.818593 
L 142.981348 112.921253 
L 143.143675 113.097837 
L 143.15382 113.088458 
L 143.194402 113.190742 
L 143.346584 113.422298 
L 143.366875 113.40351 
L 143.397311 113.375344 
L 143.458184 113.458429 
L 143.620511 113.679427 
L 143.630657 113.670031 
L 143.640802 113.660638 
L 143.69153 113.752691 
L 143.701675 113.789619 
L 143.782839 113.714483 
L 143.80313 113.741991 
L 143.82342 113.769487 
L 143.93502 113.758781 
L 143.985748 113.850471 
L 144.066911 113.821653 
L 144.168366 113.820264 
L 144.087202 113.849048 
L 144.188657 113.847628 
L 144.320548 113.956187 
L 144.330693 113.946834 
L 144.350984 113.928135 
L 144.38142 114.038007 
L 144.391566 114.028651 
L 144.462584 114.146924 
L 144.523457 114.090798 
L 144.574184 114.181689 
L 144.60462 114.15364 
L 144.837966 114.579485 
L 144.959711 114.6042 
L 145.14233 114.937394 
L 145.16262 114.918639 
L 145.243784 114.934756 
L 145.182911 114.945449 
L 145.264075 114.961538 
L 145.436548 115.256833 
L 145.456839 115.238068 
L 145.466984 115.228688 
L 145.507566 115.327364 
L 145.58873 115.524448 
L 145.659748 115.458706 
L 145.680039 115.439942 
L 145.740911 115.519519 
L 145.94382 115.829169 
L 145.994548 115.827359 
L 145.964111 115.855542 
L 146.03513 115.880063 
L 146.14673 116.092359 
L 146.197457 116.045361 
L 146.207602 116.035967 
L 146.248184 116.133472 
L 146.25833 116.124074 
L 146.39022 116.316732 
L 146.420657 116.288527 
L 146.451093 116.260341 
L 146.50182 116.348086 
L 146.694584 116.707501 
L 146.70473 116.698085 
L 146.72502 116.67926 
L 146.755457 116.785341 
L 146.785893 116.757093 
L 146.917784 116.947717 
L 146.938075 116.92888 
L 147.049675 116.87005 
L 147.080111 116.931081 
L 147.212002 117.12084 
L 147.232293 117.102026 
L 147.293166 117.045632 
L 147.343893 117.132133 
L 147.536657 117.442212 
L 147.59753 117.385779 
L 147.658402 117.462404 
L 147.861311 117.849775 
L 147.871457 117.840352 
L 147.942475 117.818644 
L 147.983057 117.869357 
L 148.114948 118.100025 
L 148.145384 118.071759 
L 148.165675 118.052926 
L 148.206257 118.147477 
L 148.216402 118.138057 
L 148.348293 118.23577 
L 148.388875 118.198122 
L 148.449748 118.273557 
L 148.703384 118.827863 
L 148.71353 118.818419 
L 148.723675 118.808977 
L 148.754111 118.912078 
L 148.764257 118.90263 
L 148.95702 119.204312 
L 149.088911 119.212446 
L 149.261384 119.531366 
L 149.281675 119.51244 
L 149.312111 119.571153 
L 149.362839 119.567378 
L 149.545457 119.875237 
L 149.555602 119.865765 
L 149.596184 119.871307 
L 149.575893 119.890247 
L 149.636766 119.920236 
L 149.880257 120.429326 
L 149.890402 120.419827 
L 149.900548 120.410331 
L 149.94113 120.502122 
L 150.133893 120.796767 
L 150.245493 120.82158 
L 150.377384 120.913451 
L 150.38753 120.90395 
L 150.417966 121.004562 
L 150.438257 120.985552 
L 150.620875 121.244243 
L 150.63102 121.234731 
L 150.661457 121.334979 
L 150.783202 121.435249 
L 150.793348 121.425734 
L 150.803493 121.41622 
L 150.83393 121.516227 
L 150.975966 121.639832 
L 150.996257 121.620798 
L 151.036839 121.711015 
L 151.290475 122.198517 
L 151.371639 122.207413 
L 151.381784 122.240474 
L 151.594839 122.635593 
L 151.604984 122.626031 
L 151.61513 122.616471 
L 151.63542 122.682331 
L 151.665857 122.696121 
L 151.74702 122.662123 
L 151.787602 122.751195 
L 151.807893 122.774497 
L 151.929639 122.744676 
L 152.031093 122.903235 
L 152.071675 122.86506 
L 152.183275 122.802487 
L 152.223857 122.848869 
L 152.365893 122.968732 
L 152.39633 122.940175 
L 152.426766 123.038053 
L 152.436911 123.028531 
L 152.599239 123.255021 
L 152.609384 123.245493 
L 152.649966 123.249443 
L 152.670257 123.314466 
L 152.680402 123.304939 
L 152.832584 123.456008 
L 152.84273 123.446482 
L 152.883311 123.534219 
L 153.055784 123.749287 
L 153.076075 123.73022 
L 153.106511 123.827166 
L 153.30942 124.13787 
L 153.410875 124.125884 
L 153.339857 124.192713 
L 153.42102 124.158054 
L 153.603639 124.402922 
L 153.694948 124.400237 
L 153.715239 124.422743 
L 153.826839 124.442518 
L 153.887711 124.509891 
L 153.918148 124.4813 
L 154.080475 124.660544 
L 154.131202 124.654325 
L 154.161639 124.708549 
L 154.334111 125.001414 
L 154.354402 124.982336 
L 154.506584 124.963253 
L 154.638475 125.086826 
L 154.64862 125.077306 
L 154.699348 125.070909 
L 154.668911 125.099456 
L 154.719639 125.13421 
L 154.750075 125.187964 
L 154.821093 125.121373 
L 154.881966 125.105465 
L 154.912402 125.159139 
L 155.084875 125.366985 
L 155.105166 125.388978 
L 155.196475 125.385427 
L 155.358802 125.560893 
L 155.480548 125.569578 
L 155.592148 125.669322 
L 155.612439 125.650349 
L 155.673311 125.71578 
L 155.724039 125.668377 
L 155.96753 126.09188 
L 156.018257 126.166308 
L 156.038548 126.147315 
L 156.160293 126.358078 
L 156.200875 126.320076 
L 156.231311 126.291594 
L 156.271893 126.375221 
L 156.43422 126.587673 
L 156.444366 126.578172 
L 156.464657 126.559176 
L 156.515384 126.633001 
L 156.698002 126.946581 
L 156.718293 126.927559 
L 156.86033 126.915485 
L 157.10382 127.331236 
L 157.225566 127.2975 
L 157.235711 127.328142 
L 157.377748 127.43582 
L 157.489348 127.451574 
L 157.66182 127.690246 
L 157.671966 127.68075 
L 157.722693 127.673247 
L 157.742984 127.734151 
L 157.935748 127.992617 
L 157.986475 127.945133 
L 158.027057 128.026666 
L 158.280693 128.465255 
L 158.290839 128.455739 
L 158.321275 128.546347 
L 158.483602 128.790773 
L 158.503893 128.771718 
L 158.53433 128.78278 
L 158.55462 128.842984 
L 158.879275 129.48702 
L 158.899566 129.467901 
L 158.930002 129.557675 
L 158.950293 129.538551 
L 159.082184 129.650957 
L 159.09233 129.641399 
L 159.143057 129.711832 
L 159.193784 129.664059 
L 159.305384 129.755805 
L 159.325675 129.736712 
L 159.376402 129.806939 
L 159.416984 129.768766 
L 159.630039 130.117833 
L 159.640184 130.10828 
L 159.65033 130.098728 
L 159.680766 130.187668 
L 159.701057 130.168559 
L 159.903966 130.447202 
L 159.914111 130.437642 
L 159.934402 130.496725 
L 159.954693 130.516693 
L 160.127166 130.705625 
L 160.370657 130.593388 
L 160.553275 130.888511 
L 160.573566 130.869425 
L 160.644584 130.841518 
L 160.664875 130.900111 
L 160.857639 131.145572 
L 160.89822 131.14616 
L 160.918511 131.204552 
L 161.12142 131.516633 
L 161.131566 131.50708 
L 161.162002 131.555719 
L 161.21273 131.546598 
L 161.334475 131.66363 
L 161.354766 131.644537 
L 161.385202 131.654472 
L 161.405493 131.712497 
L 161.415639 131.702951 
L 161.588111 131.925824 
L 161.598257 131.916275 
L 161.689566 131.90731 
L 161.699711 131.936217 
L 161.851893 132.100429 
L 161.862039 132.090887 
L 161.90262 132.091107 
L 161.933057 132.139225 
L 162.186693 132.628431 
L 162.206984 132.609307 
L 162.247566 132.609329 
L 162.267857 132.666702 
L 162.430184 132.819434 
L 162.480911 132.847985 
L 162.491057 132.876588 
L 162.714257 133.276005 
L 162.734548 133.256853 
L 162.785275 133.323171 
L 162.856293 133.294212 
L 163.150511 133.851909 
L 163.160657 133.842316 
L 163.251966 133.869735 
L 163.262111 133.898037 
L 163.434584 134.151391 
L 163.454875 134.132202 
L 163.627348 134.120417 
L 163.789675 134.344442 
L 163.809966 134.32528 
L 163.850548 134.324656 
L 163.880984 134.408947 
L 164.154911 134.939982 
L 164.175202 134.920772 
L 164.236075 134.938279 
L 164.266511 134.984562 
L 164.418693 135.103134 
L 164.44913 135.149293 
L 164.540439 135.137846 
L 164.682475 135.265496 
L 164.69262 135.255906 
L 164.773784 135.291338 
L 164.78393 135.319112 
L 165.088293 135.889154 
L 165.098439 135.879543 
L 165.149166 135.905976 
L 165.128875 135.925198 
L 165.179602 135.951602 
L 165.47382 136.453223 
L 165.504257 136.424338 
L 165.544839 136.534244 
L 165.56513 136.514982 
L 165.768039 136.841088 
L 165.78833 136.821809 
L 165.849202 136.838008 
L 165.869493 136.892722 
L 166.204293 137.497589 
L 166.265166 137.513354 
L 166.285457 137.567738 
L 166.47822 137.789108 
L 166.620257 137.800908 
L 166.843457 138.138896 
L 166.853602 138.129231 
L 166.873893 138.109905 
L 166.914475 138.21784 
L 167.046366 138.348496 
L 167.066657 138.329164 
L 167.218839 138.29402 
L 167.228984 138.32091 
L 167.401457 138.594896 
L 167.431893 138.565926 
L 167.452184 138.546621 
L 167.48262 138.62704 
L 167.502911 138.644181 
L 167.68553 138.834556 
L 167.776839 138.820434 
L 167.715966 138.878351 
L 167.79713 138.873847 
L 167.959457 139.010057 
L 167.969602 139.000409 
L 168.000039 139.080334 
L 168.02033 139.097314 
L 168.35513 139.684055 
L 168.365275 139.67438 
L 168.405857 139.78032 
L 168.57833 139.940912 
L 168.618911 139.938293 
L 168.649348 140.017506 
L 168.659493 140.007826 
L 168.892839 140.325669 
L 168.963857 140.329854 
L 168.984148 140.382436 
L 169.095748 140.563492 
L 169.146475 140.515057 
L 169.237784 140.535654 
L 169.176911 140.557836 
L 169.24793 140.561865 
L 169.481275 140.876924 
L 169.623311 140.884558 
L 169.907384 141.327923 
L 169.91753 141.318233 
L 169.958111 141.422147 
L 170.242184 141.862879 
L 170.25233 141.853171 
L 170.292911 141.956591 
L 170.303057 141.946878 
L 170.465384 142.075757 
L 170.526257 142.053018 
L 170.556693 142.130352 
L 170.800184 142.464328 
L 170.81033 142.454614 
L 170.850911 142.55732 
L 171.094402 142.889541 
L 171.195857 142.93347 
L 171.408911 143.187463 
L 171.47993 143.224993 
L 171.439348 143.2287 
L 171.490075 143.25046 
L 171.642257 143.42106 
L 171.662548 143.401606 
L 171.70313 143.468098 
L 171.743711 143.464316 
L 171.936475 143.700539 
L 171.94662 143.690812 
L 172.007493 143.77262 
L 172.027784 143.753166 
L 172.210402 143.963092 
L 172.220548 143.953364 
L 172.240839 143.933914 
L 172.28142 144.034843 
L 172.291566 144.025115 
L 172.453893 144.183802 
L 172.464039 144.174076 
L 172.50462 144.135187 
L 172.545202 144.235817 
L 172.748111 144.494233 
L 172.758257 144.484505 
L 172.829275 144.520815 
L 172.788693 144.524929 
L 172.83942 144.545875 
L 172.981457 144.687813 
L 173.001748 144.668362 
L 173.082911 144.694765 
L 173.032184 144.708655 
L 173.093057 144.719757 
L 173.295966 144.941481 
L 173.346693 144.927522 
L 173.387275 144.992535 
L 173.580039 145.222958 
L 173.590184 145.213235 
L 173.610475 145.193794 
L 173.651057 145.293115 
L 173.894548 145.611811 
L 174.006148 145.642635 
L 174.229348 145.91037 
L 174.26993 145.905831 
L 174.320657 145.960274 
L 174.482984 146.079296 
L 174.564148 146.104405 
L 174.574293 146.128964 
L 174.756911 146.29652 
L 174.817784 146.375062 
L 174.84822 146.345907 
L 175.091711 146.659253 
L 175.101857 146.649531 
L 175.142439 146.747115 
L 175.16273 146.727666 
L 175.477239 147.24349 
L 175.487384 147.23375 
L 175.588839 147.2384 
L 175.598984 147.262653 
L 175.842475 147.572177 
L 175.85262 147.562439 
L 175.893202 147.659104 
L 176.156984 148.015227 
L 176.197566 148.010051 
L 176.238148 148.072485 
L 176.50193 148.426686 
L 176.593239 148.473748 
L 176.775857 148.634965 
L 176.816439 148.629607 
L 176.846875 148.701266 
L 177.019348 148.837969 
L 177.029493 148.82822 
L 177.05993 148.899702 
L 177.08022 148.913769 
L 177.252693 149.116949 
L 177.272984 149.097443 
L 177.313566 149.091952 
L 177.344002 149.163202 
L 177.668657 149.687138 
L 177.678802 149.67737 
L 177.699093 149.657838 
L 177.74982 149.742572 
L 177.983166 150.118115 
L 178.013602 150.088783 
L 178.074475 150.130048 
L 178.044039 150.126073 
L 178.08462 150.153568 
L 178.338257 150.474507 
L 178.348402 150.464727 
L 178.388984 150.558461 
L 178.561457 150.723999 
L 178.571602 150.714216 
L 178.581748 150.704435 
L 178.632475 150.788128 
L 178.64262 150.778345 
L 178.84553 150.980068 
L 178.97742 150.985238 
L 179.20062 151.232513 
L 179.210766 151.222738 
L 179.241202 151.292367 
L 179.261493 151.305792 
L 179.525275 151.677341 
L 179.53542 151.667556 
L 179.636875 151.701294 
L 179.931093 152.107113 
L 179.941239 152.097325 
L 179.971675 152.166329 
L 179.991966 152.179532 
L 180.164439 152.307951 
L 180.265893 152.308287 
L 180.276039 152.331215 
L 180.448511 152.524452 
L 180.468802 152.504891 
L 180.509384 152.563722 
L 180.570257 152.537695 
L 180.803602 152.834405 
L 180.813748 152.824626 
L 180.823893 152.814849 
L 180.87462 152.896184 
L 181.09782 153.136307 
L 181.107966 153.126527 
L 181.158693 153.207552 
L 181.168839 153.19777 
L 181.402184 153.491838 
L 181.41233 153.482053 
L 181.43262 153.462487 
L 181.473202 153.552951 
L 181.736984 153.880937 
L 181.76742 153.851569 
L 181.818148 153.931878 
L 182.142802 154.392768 
L 182.163093 154.373169 
L 182.223966 154.443217 
L 182.508039 154.812056 
L 182.538475 154.814766 
L 182.568911 154.881703 
L 182.77182 155.230939 
L 182.822548 155.181861 
L 182.852984 155.216517 
L 182.944293 155.19231 
L 183.157348 155.402344 
L 183.21822 155.407452 
L 183.238511 155.451747 
L 183.44142 155.670665 
L 183.451566 155.660863 
L 183.461711 155.651062 
L 183.502293 155.739393 
L 183.512439 155.72959 
L 183.837093 156.179818 
L 183.877675 156.172364 
L 183.918257 156.228467 
L 184.161748 156.596052 
L 184.192184 156.566595 
L 184.22262 156.568854 
L 184.253057 156.634496 
L 184.263202 156.62468 
L 184.506693 156.895638 
L 184.526984 156.876005 
L 184.577711 156.953399 
L 184.729893 157.058915 
L 184.740039 157.049102 
L 184.750184 157.03929 
L 184.790766 157.126301 
L 185.237166 157.828201 
L 185.267602 157.830144 
L 185.298039 157.894961 
L 185.490802 158.053635 
L 185.500948 158.043801 
L 185.54153 158.129994 
L 185.551675 158.120158 
L 185.76473 158.321173 
L 185.825602 158.387431 
L 185.845893 158.367763 
L 186.089384 158.663416 
L 186.09953 158.65358 
L 186.109675 158.643745 
L 186.150257 158.729348 
L 186.332875 158.864401 
L 186.34302 158.854568 
L 186.393748 158.930117 
L 186.403893 158.920283 
L 186.809711 159.522553 
L 186.840148 159.524079 
L 186.88073 159.577874 
L 187.185093 159.964791 
L 187.306839 159.90855 
L 187.32713 159.950773 
L 187.611202 160.293451 
L 187.631493 160.273756 
L 187.68222 160.37889 
L 187.844548 160.468128 
L 187.915566 160.46088 
L 187.946002 160.523791 
L 188.341675 161.093281 
L 188.361966 161.073572 
L 188.412693 161.17782 
L 188.656184 161.462605 
L 188.66633 161.452745 
L 188.737348 161.445016 
L 188.767784 161.507312 
L 189.285202 162.31802 
L 189.366366 162.360952 
L 189.325784 162.369981 
L 189.376511 162.381553 
L 189.57942 162.610337 
L 189.599711 162.590581 
L 189.660584 162.592173 
L 189.69102 162.653779 
L 190.147566 163.362401 
L 190.157711 163.352507 
L 190.188148 163.322834 
L 190.238875 163.424816 
L 190.543239 163.793391 
L 190.593966 163.774121 
L 190.634548 163.855331 
L 190.908475 164.191305 
L 190.91862 164.181404 
L 190.938911 164.161608 
L 190.999784 164.252809 
L 191.34473 164.728018 
L 191.354875 164.71811 
L 191.36502 164.708202 
L 191.415748 164.80878 
L 191.69982 165.130984 
L 191.750548 165.141323 
L 191.780984 165.201411 
L 192.105639 165.601744 
L 192.115784 165.591826 
L 192.166511 165.691521 
L 192.176657 165.681601 
L 192.57233 166.218539 
L 192.673784 166.268014 
L 192.876693 166.455838 
L 192.886839 166.445913 
L 192.988293 166.435758 
L 193.008584 166.475266 
L 193.272366 166.780523 
L 193.282511 166.770602 
L 193.37382 166.829332 
L 193.637602 167.103568 
L 193.647748 167.093649 
L 193.678184 167.152478 
L 193.718766 167.171843 
L 193.972402 167.425198 
L 194.094148 167.424022 
L 194.104293 167.443547 
L 194.368075 167.715167 
L 194.37822 167.705256 
L 194.408657 167.76364 
L 194.439093 167.792636 
L 194.865202 168.372882 
L 194.885493 168.353036 
L 194.93622 168.449739 
L 195.240584 168.794919 
L 195.25073 168.784991 
L 195.291311 168.862031 
L 195.311602 168.871354 
L 195.58553 169.157125 
L 195.656548 169.174971 
L 195.676839 169.213328 
L 195.910184 169.479303 
L 195.930475 169.459444 
L 195.94062 169.449518 
L 195.991348 169.545095 
L 196.336293 169.961456 
L 196.346439 169.951521 
L 196.397166 170.046642 
L 196.407311 170.036705 
L 196.660948 170.280062 
L 196.731966 170.26832 
L 196.772548 170.315245 
L 197.097202 170.689675 
L 197.137784 170.707555 
L 197.16822 170.764153 
L 197.533457 171.211654 
L 197.543602 171.201714 
L 197.574039 171.258044 
L 197.604475 171.285642 
L 198.020439 171.823828 
L 198.071166 171.802707 
L 198.121893 171.86741 
L 198.426257 172.197581 
L 198.568293 172.201006 
L 198.771202 172.372659 
L 198.781348 172.362723 
L 198.832075 172.426906 
L 198.872657 172.415624 
L 199.146584 172.687516 
L 199.217602 172.731555 
L 199.227748 172.750007 
L 199.450948 172.956915 
L 199.461093 172.946985 
L 199.532111 172.962476 
L 199.501675 172.992261 
L 199.552402 172.999264 
L 199.82633 173.297027 
L 199.836475 173.287098 
L 199.856766 173.267245 
L 199.907493 173.358879 
L 200.333602 173.900745 
L 200.343748 173.890809 
L 200.394475 173.981916 
L 200.60753 174.195195 
L 200.62782 174.17532 
L 200.698839 174.218179 
L 200.708984 174.236338 
L 201.094511 174.728371 
L 201.104657 174.718429 
L 201.114802 174.708489 
L 201.155384 174.780764 
L 201.175675 174.788884 
L 201.469893 175.143913 
L 201.490184 175.124024 
L 201.50033 175.114082 
L 201.530766 175.168064 
L 201.561202 175.194095 
L 202.098911 175.921177 
L 202.646766 176.688404 
L 202.677202 176.686207 
L 202.72793 176.747195 
L 203.184475 177.321814 
L 203.214911 177.319494 
L 203.255493 177.39002 
L 203.478693 177.556702 
L 203.519275 177.571922 
L 203.549711 177.62466 
L 204.006257 178.193387 
L 204.077275 178.178436 
L 204.117857 178.220871 
L 204.330911 178.422719 
L 204.351202 178.402764 
L 204.371493 178.382816 
L 204.432366 178.459944 
L 204.716439 178.727921 
L 204.726584 178.717948 
L 204.75702 178.770024 
L 204.787457 178.794755 
L 205.152693 179.19977 
L 205.162839 179.189795 
L 205.213566 179.276162 
L 205.568657 179.661651 
L 205.578802 179.651672 
L 205.619384 179.720453 
L 205.639675 179.727663 
L 206.045493 180.196567 
L 206.360002 180.509562 
L 206.370148 180.499578 
L 206.420875 180.584811 
L 206.43102 180.574826 
L 206.867275 181.143769 
L 206.87742 181.133776 
L 206.96873 181.178543 
L 207.486148 181.851642 
L 207.536875 181.855313 
L 207.567311 181.905795 
L 208.023857 182.473402 
L 208.094875 182.510308 
L 208.10502 182.527032 
L 208.470257 182.940974 
L 208.520984 182.970914 
L 208.541275 183.004205 
L 208.876075 183.366089 
L 208.947093 183.402375 
L 208.926802 183.422393 
L 208.957239 183.418947 
L 209.261602 183.729403 
L 209.31233 183.758928 
L 209.33262 183.791943 
L 209.677566 184.166695 
L 209.718148 184.153111 
L 209.75873 184.218856 
L 209.98193 184.395017 
L 210.042802 184.466964 
L 210.063093 184.446954 
L 210.499348 184.99161 
L 210.509493 184.981599 
L 210.580511 184.990461 
L 210.600802 185.023045 
L 210.976184 185.440672 
L 211.037057 185.433081 
L 211.067493 185.481722 
L 211.503748 185.993819 
L 211.524039 185.973798 
L 211.574766 186.054427 
L 211.99073 186.531171 
L 212.061748 186.565295 
L 212.071893 186.581331 
L 212.32553 186.79951 
L 212.335675 186.789499 
L 212.396548 186.885428 
L 212.822657 187.373382 
L 212.90382 187.371019 
L 212.934257 187.418707 
L 213.451675 188.045837 
L 213.502402 188.047376 
L 213.542984 188.110541 
L 213.938657 188.544505 
L 213.948802 188.534484 
L 214.009675 188.628763 
L 214.324184 188.960648 
L 214.33433 188.950625 
L 214.344475 188.940603 
L 214.385057 189.003203 
L 214.415493 189.024468 
L 214.91262 189.609429 
L 214.922766 189.599401 
L 214.973493 189.677152 
L 214.993784 189.682668 
L 215.318439 190.000397 
L 215.33873 189.980345 
L 215.409748 190.063225 
L 215.795275 190.471879 
L 215.835857 190.457215 
L 215.886584 190.534251 
L 216.272111 190.940558 
L 216.322839 190.966514 
L 216.353275 191.012504 
L 216.941711 191.721401 
L 216.992439 191.747002 
L 217.022875 191.792654 
L 217.205493 191.965322 
L 217.23593 191.935226 
L 217.25622 191.915169 
L 217.327239 191.996214 
L 217.844657 192.616835 
L 217.854802 192.606801 
L 217.895384 192.591788 
L 217.946111 192.667177 
L 218.382366 193.138311 
L 218.392511 193.128278 
L 218.453384 193.21826 
L 219.173711 194.103551 
L 219.194002 194.083462 
L 219.254875 194.172648 
L 219.91433 194.960958 
L 219.924475 194.950905 
L 219.985348 195.039372 
L 220.553493 195.688958 
L 220.563639 195.678899 
L 220.624511 195.766754 
L 221.131784 196.324014 
L 221.192657 196.28827 
L 221.243384 196.361022 
L 221.557893 196.688298 
L 221.578184 196.668182 
L 221.58833 196.658126 
L 221.649202 196.745078 
L 222.085457 197.195014 
L 222.095602 197.184956 
L 222.156475 197.27145 
L 222.48113 197.560734 
L 222.542002 197.549241 
L 222.582584 197.606667 
L 223.008693 198.037553 
L 223.018839 198.0275 
L 223.079711 198.11321 
L 223.61742 198.722075 
L 223.627566 198.712017 
L 223.678293 198.710238 
L 223.718875 198.766996 
L 224.195711 199.262634 
L 224.205857 199.252578 
L 224.26673 199.337241 
L 224.753711 199.843696 
L 224.834875 199.859592 
L 224.855166 199.887641 
L 225.433457 200.516265 
L 225.49433 200.551886 
L 225.51462 200.579744 
L 226.427711 201.659498 
L 226.49873 201.684438 
L 226.51902 201.711997 
L 227.421966 202.765762 
L 227.492984 202.742683 
L 227.533566 202.797226 
L 228.314766 203.677004 
L 228.335057 203.656854 
L 228.39593 203.737937 
L 229.217711 204.662673 
L 229.227857 204.652592 
L 229.28873 204.732908 
L 230.059784 205.58187 
L 230.09022 205.574971 
L 230.140948 205.641305 
L 231.084475 206.705562 
L 231.135202 206.724761 
L 231.165639 206.764129 
L 231.845384 207.47795 
L 231.87582 207.470793 
L 231.926548 207.535908 
L 233.113566 208.888267 
L 233.164293 208.906622 
L 233.19473 208.945165 
L 233.793311 209.54042 
L 233.803457 209.53032 
L 233.86433 209.606904 
L 234.77742 210.590197 
L 234.787566 210.580093 
L 234.848439 210.655898 
L 235.487602 211.290178 
L 235.518039 211.28252 
L 235.568766 211.34524 
L 235.994875 211.735152 
L 236.00502 211.725052 
L 236.076039 211.767279 
L 236.086184 211.77976 
L 236.725348 212.405727 
L 236.735493 212.39563 
L 236.796366 212.470008 
L 237.628293 213.324813 
L 237.719602 213.390597 
L 238.55153 214.23689 
L 238.632693 214.267457 
L 238.652984 214.29179 
L 239.251566 214.851877 
L 239.261711 214.841784 
L 239.33273 214.926412 
L 239.921166 215.492459 
L 239.931311 215.482367 
L 240.032766 215.491981 
L 240.053057 215.515995 
L 241.260366 216.781689 
L 241.270511 216.771599 
L 241.34153 216.854572 
L 242.325639 217.845073 
L 242.416948 217.906988 
L 243.979348 219.567577 
L 243.989493 219.557483 
L 244.080802 219.61802 
L 245.58233 221.160423 
L 245.643202 221.185641 
L 245.673639 221.219681 
L 246.464984 221.951474 
L 246.47513 221.941385 
L 246.546148 222.020167 
L 247.915784 223.379836 
L 247.976657 223.404045 
L 248.007093 223.43732 
L 250.107202 225.582459 
L 250.117348 225.572369 
L 250.188366 225.648348 
L 252.41022 227.873457 
L 252.420366 227.863367 
L 252.491384 227.937629 
L 255.08862 230.49456 
L 255.098766 230.484473 
L 255.169784 230.556802 
L 257.310475 232.591893 
L 257.401784 232.642523 
L 258.77142 233.998125 
L 258.77142 233.998125 
" clip-path="url(#p41c0c6dc92)" style="fill: none; stroke: #1f77b4; stroke-width: 1.5; stroke-linecap: square"/>
   </g>
   <g id="line2d_26">
    <path d="M 55.86233 233.998125 
L 258.77142 233.998125 
" clip-path="url(#p41c0c6dc92)" style="fill: none; stroke-dasharray: 5.55,2.4; stroke-dashoffset: 0; stroke: #808080; stroke-width: 1.5"/>
   </g>
   <g id="patch_3">
    <path d="M 45.716875 244.078125 
L 45.716875 22.318125 
" style="fill: none; stroke: #000000; stroke-width: 0.8; stroke-linejoin: miter; stroke-linecap: square"/>
   </g>
   <g id="patch_4">
    <path d="M 268.916875 244.078125 
L 268.916875 22.318125 
" style="fill: none; stroke: #000000; stroke-width: 0.8; stroke-linejoin: miter; stroke-linecap: square"/>
   </g>
   <g id="patch_5">
    <path d="M 45.716875 244.078125 
L 268.916875 244.078125 
" style="fill: none; stroke: #000000; stroke-width: 0.8; stroke-linejoin: miter; stroke-linecap: square"/>
   </g>
   <g id="patch_6">
    <path d="M 45.716875 22.318125 
L 268.916875 22.318125 
" style="fill: none; stroke: #000000; stroke-width: 0.8; stroke-linejoin: miter; stroke-linecap: square"/>
   </g>
   <g id="text_15">
    <!-- Lift Chart: Logistic Regression -->
    <g transform="translate(68.073437 16.318125) scale(0.12 -0.12)">
     <defs>
      <path id="DejaVuSans-43" d="M 4122 4306 
L 4122 3641 
Q 3803 3938 3442 4084 
Q 3081 4231 2675 4231 
Q 1875 4231 1450 3742 
Q 1025 3253 1025 2328 
Q 1025 1406 1450 917 
Q 1875 428 2675 428 
Q 3081 428 3442 575 
Q 3803 722 4122 1019 
L 4122 359 
Q 3791 134 3420 21 
Q 3050 -91 2638 -91 
Q 1578 -91 968 557 
Q 359 1206 359 2328 
Q 359 3453 968 4101 
Q 1578 4750 2638 4750 
Q 3056 4750 3426 4639 
Q 3797 4528 4122 4306 
z
" transform="scale(0.015625)"/>
      <path id="DejaVuSans-68" d="M 3513 2113 
L 3513 0 
L 2938 0 
L 2938 2094 
Q 2938 2591 2744 2837 
Q 2550 3084 2163 3084 
Q 1697 3084 1428 2787 
Q 1159 2491 1159 1978 
L 1159 0 
L 581 0 
L 581 4863 
L 1159 4863 
L 1159 2956 
Q 1366 3272 1645 3428 
Q 1925 3584 2291 3584 
Q 2894 3584 3203 3211 
Q 3513 2838 3513 2113 
z
" transform="scale(0.015625)"/>
      <path id="DejaVuSans-3a" d="M 750 794 
L 1409 794 
L 1409 0 
L 750 0 
L 750 794 
z
M 750 3309 
L 1409 3309 
L 1409 2516 
L 750 2516 
L 750 3309 
z
" transform="scale(0.015625)"/>
      <path id="DejaVuSans-73" d="M 2834 3397 
L 2834 2853 
Q 2591 2978 2328 3040 
Q 2066 3103 1784 3103 
Q 1356 3103 1142 2972 
Q 928 2841 928 2578 
Q 928 2378 1081 2264 
Q 1234 2150 1697 2047 
L 1894 2003 
Q 2506 1872 2764 1633 
Q 3022 1394 3022 966 
Q 3022 478 2636 193 
Q 2250 -91 1575 -91 
Q 1294 -91 989 -36 
Q 684 19 347 128 
L 347 722 
Q 666 556 975 473 
Q 1284 391 1588 391 
Q 1994 391 2212 530 
Q 2431 669 2431 922 
Q 2431 1156 2273 1281 
Q 2116 1406 1581 1522 
L 1381 1569 
Q 847 1681 609 1914 
Q 372 2147 372 2553 
Q 372 3047 722 3315 
Q 1072 3584 1716 3584 
Q 2034 3584 2315 3537 
Q 2597 3491 2834 3397 
z
" transform="scale(0.015625)"/>
      <path id="DejaVuSans-52" d="M 2841 2188 
Q 3044 2119 3236 1894 
Q 3428 1669 3622 1275 
L 4263 0 
L 3584 0 
L 2988 1197 
Q 2756 1666 2539 1819 
Q 2322 1972 1947 1972 
L 1259 1972 
L 1259 0 
L 628 0 
L 628 4666 
L 2053 4666 
Q 2853 4666 3247 4331 
Q 3641 3997 3641 3322 
Q 3641 2881 3436 2590 
Q 3231 2300 2841 2188 
z
M 1259 4147 
L 1259 2491 
L 2053 2491 
Q 2509 2491 2742 2702 
Q 2975 2913 2975 3322 
Q 2975 3731 2742 3939 
Q 2509 4147 2053 4147 
L 1259 4147 
z
" transform="scale(0.015625)"/>
     </defs>
     <use xlink:href="#DejaVuSans-4c"/>
     <use xlink:href="#DejaVuSans-69" x="55.712891"/>
     <use xlink:href="#DejaVuSans-66" x="83.496094"/>
     <use xlink:href="#DejaVuSans-74" x="116.951172"/>
     <use xlink:href="#DejaVuSans-20" x="156.160156"/>
     <use xlink:href="#DejaVuSans-43" x="187.947266"/>
     <use xlink:href="#DejaVuSans-68" x="257.771484"/>
     <use xlink:href="#DejaVuSans-61" x="321.150391"/>
     <use xlink:href="#DejaVuSans-72" x="382.429688"/>
     <use xlink:href="#DejaVuSans-74" x="423.542969"/>
     <use xlink:href="#DejaVuSans-3a" x="462.751953"/>
     <use xlink:href="#DejaVuSans-20" x="496.443359"/>
     <use xlink:href="#DejaVuSans-4c" x="528.230469"/>
     <use xlink:href="#DejaVuSans-6f" x="582.193359"/>
     <use xlink:href="#DejaVuSans-67" x="643.375"/>
     <use xlink:href="#DejaVuSans-69" x="706.851562"/>
     <use xlink:href="#DejaVuSans-73" x="734.634766"/>
     <use xlink:href="#DejaVuSans-74" x="786.734375"/>
     <use xlink:href="#DejaVuSans-69" x="825.943359"/>
     <use xlink:href="#DejaVuSans-63" x="853.726562"/>
     <use xlink:href="#DejaVuSans-20" x="908.707031"/>
     <use xlink:href="#DejaVuSans-52" x="940.494141"/>
     <use xlink:href="#DejaVuSans-65" x="1005.476562"/>
     <use xlink:href="#DejaVuSans-67" x="1067"/>
     <use xlink:href="#DejaVuSans-72" x="1130.476562"/>
     <use xlink:href="#DejaVuSans-65" x="1169.339844"/>
     <use xlink:href="#DejaVuSans-73" x="1230.863281"/>
     <use xlink:href="#DejaVuSans-73" x="1282.962891"/>
     <use xlink:href="#DejaVuSans-69" x="1335.0625"/>
     <use xlink:href="#DejaVuSans-6f" x="1362.845703"/>
     <use xlink:href="#DejaVuSans-6e" x="1424.027344"/>
    </g>
   </g>
   <g id="legend_1">
    <g id="patch_7">
     <path d="M 181.62 59.674375 
L 261.916875 59.674375 
Q 263.916875 59.674375 263.916875 57.674375 
L 263.916875 29.318125 
Q 263.916875 27.318125 261.916875 27.318125 
L 181.62 27.318125 
Q 179.62 27.318125 179.62 29.318125 
L 179.62 57.674375 
Q 179.62 59.674375 181.62 59.674375 
z
" style="fill: #ffffff; opacity: 0.8; stroke: #cccccc; stroke-linejoin: miter"/>
    </g>
    <g id="line2d_27">
     <path d="M 183.62 35.416562 
L 193.62 35.416562 
L 203.62 35.416562 
" style="fill: none; stroke: #1f77b4; stroke-width: 1.5; stroke-linecap: square"/>
    </g>
    <g id="text_16">
     <!-- Lift Curve -->
     <g transform="translate(211.62 38.916562) scale(0.1 -0.1)">
      <defs>
       <path id="DejaVuSans-75" d="M 544 1381 
L 544 3500 
L 1119 3500 
L 1119 1403 
Q 1119 906 1312 657 
Q 1506 409 1894 409 
Q 2359 409 2629 706 
Q 2900 1003 2900 1516 
L 2900 3500 
L 3475 3500 
L 3475 0 
L 2900 0 
L 2900 538 
Q 2691 219 2414 64 
Q 2138 -91 1772 -91 
Q 1169 -91 856 284 
Q 544 659 544 1381 
z
M 1991 3584 
L 1991 3584 
z
" transform="scale(0.015625)"/>
       <path id="DejaVuSans-76" d="M 191 3500 
L 800 3500 
L 1894 563 
L 2988 3500 
L 3597 3500 
L 2284 0 
L 1503 0 
L 191 3500 
z
" transform="scale(0.015625)"/>
      </defs>
      <use xlink:href="#DejaVuSans-4c"/>
      <use xlink:href="#DejaVuSans-69" x="55.712891"/>
      <use xlink:href="#DejaVuSans-66" x="83.496094"/>
      <use xlink:href="#DejaVuSans-74" x="116.951172"/>
      <use xlink:href="#DejaVuSans-20" x="156.160156"/>
      <use xlink:href="#DejaVuSans-43" x="187.947266"/>
      <use xlink:href="#DejaVuSans-75" x="257.771484"/>
      <use xlink:href="#DejaVuSans-72" x="321.150391"/>
      <use xlink:href="#DejaVuSans-76" x="362.263672"/>
      <use xlink:href="#DejaVuSans-65" x="421.443359"/>
     </g>
    </g>
    <g id="line2d_28">
     <path d="M 183.62 50.094687 
L 193.62 50.094687 
L 203.62 50.094687 
" style="fill: none; stroke-dasharray: 5.55,2.4; stroke-dashoffset: 0; stroke: #808080; stroke-width: 1.5"/>
    </g>
    <g id="text_17">
     <!-- Baseline -->
     <g transform="translate(211.62 53.594687) scale(0.1 -0.1)">
      <defs>
       <path id="DejaVuSans-42" d="M 1259 2228 
L 1259 519 
L 2272 519 
Q 2781 519 3026 730 
Q 3272 941 3272 1375 
Q 3272 1813 3026 2020 
Q 2781 2228 2272 2228 
L 1259 2228 
z
M 1259 4147 
L 1259 2741 
L 2194 2741 
Q 2656 2741 2882 2914 
Q 3109 3088 3109 3444 
Q 3109 3797 2882 3972 
Q 2656 4147 2194 4147 
L 1259 4147 
z
M 628 4666 
L 2241 4666 
Q 2963 4666 3353 4366 
Q 3744 4066 3744 3513 
Q 3744 3084 3544 2831 
Q 3344 2578 2956 2516 
Q 3422 2416 3680 2098 
Q 3938 1781 3938 1306 
Q 3938 681 3513 340 
Q 3088 0 2303 0 
L 628 0 
L 628 4666 
z
" transform="scale(0.015625)"/>
      </defs>
      <use xlink:href="#DejaVuSans-42"/>
      <use xlink:href="#DejaVuSans-61" x="68.603516"/>
      <use xlink:href="#DejaVuSans-73" x="129.882812"/>
      <use xlink:href="#DejaVuSans-65" x="181.982422"/>
      <use xlink:href="#DejaVuSans-6c" x="243.505859"/>
      <use xlink:href="#DejaVuSans-69" x="271.289062"/>
      <use xlink:href="#DejaVuSans-6e" x="299.072266"/>
      <use xlink:href="#DejaVuSans-65" x="362.451172"/>
     </g>
    </g>
   </g>
  </g>
 </g>
 <defs>
  <clipPath id="p41c0c6dc92">
   <rect x="45.716875" y="22.318125" width="223.2" height="221.76"/>
  </clipPath>
 </defs>
</svg>
