<?xml version="1.0" encoding="utf-8" standalone="no"?>
<!DOCTYPE svg PUBLIC "-//W3C//DTD SVG 1.1//EN"
  "http://www.w3.org/Graphics/SVG/1.1/DTD/svg11.dtd">
<svg xmlns:xlink="http://www.w3.org/1999/xlink" width="276.116875pt" height="283.57pt" viewBox="0 0 276.116875 283.57" xmlns="http://www.w3.org/2000/svg" version="1.1">
 <metadata>
  <rdf:RDF xmlns:dc="http://purl.org/dc/elements/1.1/" xmlns:cc="http://creativecommons.org/ns#" xmlns:rdf="http://www.w3.org/1999/02/22-rdf-syntax-ns#">
   <cc:Work>
    <dc:type rdf:resource="http://purl.org/dc/dcmitype/StillImage"/>
    <dc:date>2025-02-22T23:50:05.842350</dc:date>
    <dc:format>image/svg+xml</dc:format>
    <dc:creator>
     <cc:Agent>
      <dc:title>Matplotlib v3.9.2, https://matplotlib.org/</dc:title>
     </cc:Agent>
    </dc:creator>
   </cc:Work>
  </rdf:RDF>
 </metadata>
 <defs>
  <style type="text/css">*{stroke-linejoin: round; stroke-linecap: butt}</style>
 </defs>
 <g id="figure_1">
  <g id="patch_1">
   <path d="M 0 283.57 
L 276.116875 283.57 
L 276.116875 0 
L 0 0 
z
" style="fill: #ffffff"/>
  </g>
  <g id="axes_1">
   <g id="patch_2">
    <path d="M 45.716875 244.078125 
L 268.916875 244.078125 
L 268.916875 22.318125 
L 45.716875 22.318125 
z
" style="fill: #ffffff"/>
   </g>
   <g id="matplotlib.axis_1">
    <g id="xtick_1">
     <g id="line2d_1">
      <path d="M 55.86233 244.078125 
L 55.86233 22.318125 
" clip-path="url(#p65d2350612)" style="fill: none; stroke: #b0b0b0; stroke-width: 0.8; stroke-linecap: square"/>
     </g>
     <g id="line2d_2">
      <defs>
       <path id="mec1893891f" d="M 0 0 
L 0 3.5 
" style="stroke: #000000; stroke-width: 0.8"/>
      </defs>
      <g>
       <use xlink:href="#mec1893891f" x="55.86233" y="244.078125" style="stroke: #000000; stroke-width: 0.8"/>
      </g>
     </g>
     <g id="text_1">
      <!-- 0.0 -->
      <g transform="translate(47.910767 258.676562) scale(0.1 -0.1)">
       <defs>
        <path id="DejaVuSans-30" d="M 2034 4250 
Q 1547 4250 1301 3770 
Q 1056 3291 1056 2328 
Q 1056 1369 1301 889 
Q 1547 409 2034 409 
Q 2525 409 2770 889 
Q 3016 1369 3016 2328 
Q 3016 3291 2770 3770 
Q 2525 4250 2034 4250 
z
M 2034 4750 
Q 2819 4750 3233 4129 
Q 3647 3509 3647 2328 
Q 3647 1150 3233 529 
Q 2819 -91 2034 -91 
Q 1250 -91 836 529 
Q 422 1150 422 2328 
Q 422 3509 836 4129 
Q 1250 4750 2034 4750 
z
" transform="scale(0.015625)"/>
        <path id="DejaVuSans-2e" d="M 684 794 
L 1344 794 
L 1344 0 
L 684 0 
L 684 794 
z
" transform="scale(0.015625)"/>
       </defs>
       <use xlink:href="#DejaVuSans-30"/>
       <use xlink:href="#DejaVuSans-2e" x="63.623047"/>
       <use xlink:href="#DejaVuSans-30" x="95.410156"/>
      </g>
     </g>
    </g>
    <g id="xtick_2">
     <g id="line2d_3">
      <path d="M 96.444148 244.078125 
L 96.444148 22.318125 
" clip-path="url(#p65d2350612)" style="fill: none; stroke: #b0b0b0; stroke-width: 0.8; stroke-linecap: square"/>
     </g>
     <g id="line2d_4">
      <g>
       <use xlink:href="#mec1893891f" x="96.444148" y="244.078125" style="stroke: #000000; stroke-width: 0.8"/>
      </g>
     </g>
     <g id="text_2">
      <!-- 0.2 -->
      <g transform="translate(88.492585 258.676562) scale(0.1 -0.1)">
       <defs>
        <path id="DejaVuSans-32" d="M 1228 531 
L 3431 531 
L 3431 0 
L 469 0 
L 469 531 
Q 828 903 1448 1529 
Q 2069 2156 2228 2338 
Q 2531 2678 2651 2914 
Q 2772 3150 2772 3378 
Q 2772 3750 2511 3984 
Q 2250 4219 1831 4219 
Q 1534 4219 1204 4116 
Q 875 4013 500 3803 
L 500 4441 
Q 881 4594 1212 4672 
Q 1544 4750 1819 4750 
Q 2544 4750 2975 4387 
Q 3406 4025 3406 3419 
Q 3406 3131 3298 2873 
Q 3191 2616 2906 2266 
Q 2828 2175 2409 1742 
Q 1991 1309 1228 531 
z
" transform="scale(0.015625)"/>
       </defs>
       <use xlink:href="#DejaVuSans-30"/>
       <use xlink:href="#DejaVuSans-2e" x="63.623047"/>
       <use xlink:href="#DejaVuSans-32" x="95.410156"/>
      </g>
     </g>
    </g>
    <g id="xtick_3">
     <g id="line2d_5">
      <path d="M 137.025966 244.078125 
L 137.025966 22.318125 
" clip-path="url(#p65d2350612)" style="fill: none; stroke: #b0b0b0; stroke-width: 0.8; stroke-linecap: square"/>
     </g>
     <g id="line2d_6">
      <g>
       <use xlink:href="#mec1893891f" x="137.025966" y="244.078125" style="stroke: #000000; stroke-width: 0.8"/>
      </g>
     </g>
     <g id="text_3">
      <!-- 0.4 -->
      <g transform="translate(129.074403 258.676562) scale(0.1 -0.1)">
       <defs>
        <path id="DejaVuSans-34" d="M 2419 4116 
L 825 1625 
L 2419 1625 
L 2419 4116 
z
M 2253 4666 
L 3047 4666 
L 3047 1625 
L 3713 1625 
L 3713 1100 
L 3047 1100 
L 3047 0 
L 2419 0 
L 2419 1100 
L 313 1100 
L 313 1709 
L 2253 4666 
z
" transform="scale(0.015625)"/>
       </defs>
       <use xlink:href="#DejaVuSans-30"/>
       <use xlink:href="#DejaVuSans-2e" x="63.623047"/>
       <use xlink:href="#DejaVuSans-34" x="95.410156"/>
      </g>
     </g>
    </g>
    <g id="xtick_4">
     <g id="line2d_7">
      <path d="M 177.607784 244.078125 
L 177.607784 22.318125 
" clip-path="url(#p65d2350612)" style="fill: none; stroke: #b0b0b0; stroke-width: 0.8; stroke-linecap: square"/>
     </g>
     <g id="line2d_8">
      <g>
       <use xlink:href="#mec1893891f" x="177.607784" y="244.078125" style="stroke: #000000; stroke-width: 0.8"/>
      </g>
     </g>
     <g id="text_4">
      <!-- 0.6 -->
      <g transform="translate(169.656222 258.676562) scale(0.1 -0.1)">
       <defs>
        <path id="DejaVuSans-36" d="M 2113 2584 
Q 1688 2584 1439 2293 
Q 1191 2003 1191 1497 
Q 1191 994 1439 701 
Q 1688 409 2113 409 
Q 2538 409 2786 701 
Q 3034 994 3034 1497 
Q 3034 2003 2786 2293 
Q 2538 2584 2113 2584 
z
M 3366 4563 
L 3366 3988 
Q 3128 4100 2886 4159 
Q 2644 4219 2406 4219 
Q 1781 4219 1451 3797 
Q 1122 3375 1075 2522 
Q 1259 2794 1537 2939 
Q 1816 3084 2150 3084 
Q 2853 3084 3261 2657 
Q 3669 2231 3669 1497 
Q 3669 778 3244 343 
Q 2819 -91 2113 -91 
Q 1303 -91 875 529 
Q 447 1150 447 2328 
Q 447 3434 972 4092 
Q 1497 4750 2381 4750 
Q 2619 4750 2861 4703 
Q 3103 4656 3366 4563 
z
" transform="scale(0.015625)"/>
       </defs>
       <use xlink:href="#DejaVuSans-30"/>
       <use xlink:href="#DejaVuSans-2e" x="63.623047"/>
       <use xlink:href="#DejaVuSans-36" x="95.410156"/>
      </g>
     </g>
    </g>
    <g id="xtick_5">
     <g id="line2d_9">
      <path d="M 218.189602 244.078125 
L 218.189602 22.318125 
" clip-path="url(#p65d2350612)" style="fill: none; stroke: #b0b0b0; stroke-width: 0.8; stroke-linecap: square"/>
     </g>
     <g id="line2d_10">
      <g>
       <use xlink:href="#mec1893891f" x="218.189602" y="244.078125" style="stroke: #000000; stroke-width: 0.8"/>
      </g>
     </g>
     <g id="text_5">
      <!-- 0.8 -->
      <g transform="translate(210.23804 258.676562) scale(0.1 -0.1)">
       <defs>
        <path id="DejaVuSans-38" d="M 2034 2216 
Q 1584 2216 1326 1975 
Q 1069 1734 1069 1313 
Q 1069 891 1326 650 
Q 1584 409 2034 409 
Q 2484 409 2743 651 
Q 3003 894 3003 1313 
Q 3003 1734 2745 1975 
Q 2488 2216 2034 2216 
z
M 1403 2484 
Q 997 2584 770 2862 
Q 544 3141 544 3541 
Q 544 4100 942 4425 
Q 1341 4750 2034 4750 
Q 2731 4750 3128 4425 
Q 3525 4100 3525 3541 
Q 3525 3141 3298 2862 
Q 3072 2584 2669 2484 
Q 3125 2378 3379 2068 
Q 3634 1759 3634 1313 
Q 3634 634 3220 271 
Q 2806 -91 2034 -91 
Q 1263 -91 848 271 
Q 434 634 434 1313 
Q 434 1759 690 2068 
Q 947 2378 1403 2484 
z
M 1172 3481 
Q 1172 3119 1398 2916 
Q 1625 2713 2034 2713 
Q 2441 2713 2670 2916 
Q 2900 3119 2900 3481 
Q 2900 3844 2670 4047 
Q 2441 4250 2034 4250 
Q 1625 4250 1398 4047 
Q 1172 3844 1172 3481 
z
" transform="scale(0.015625)"/>
       </defs>
       <use xlink:href="#DejaVuSans-30"/>
       <use xlink:href="#DejaVuSans-2e" x="63.623047"/>
       <use xlink:href="#DejaVuSans-38" x="95.410156"/>
      </g>
     </g>
    </g>
    <g id="xtick_6">
     <g id="line2d_11">
      <path d="M 258.77142 244.078125 
L 258.77142 22.318125 
" clip-path="url(#p65d2350612)" style="fill: none; stroke: #b0b0b0; stroke-width: 0.8; stroke-linecap: square"/>
     </g>
     <g id="line2d_12">
      <g>
       <use xlink:href="#mec1893891f" x="258.77142" y="244.078125" style="stroke: #000000; stroke-width: 0.8"/>
      </g>
     </g>
     <g id="text_6">
      <!-- 1.0 -->
      <g transform="translate(250.819858 258.676562) scale(0.1 -0.1)">
       <defs>
        <path id="DejaVuSans-31" d="M 794 531 
L 1825 531 
L 1825 4091 
L 703 3866 
L 703 4441 
L 1819 4666 
L 2450 4666 
L 2450 531 
L 3481 531 
L 3481 0 
L 794 0 
L 794 531 
z
" transform="scale(0.015625)"/>
       </defs>
       <use xlink:href="#DejaVuSans-31"/>
       <use xlink:href="#DejaVuSans-2e" x="63.623047"/>
       <use xlink:href="#DejaVuSans-30" x="95.410156"/>
      </g>
     </g>
    </g>
    <g id="text_7">
     <!-- Percentage of Sample -->
     <g transform="translate(91.474375 273.874375) scale(0.12 -0.12)">
      <defs>
       <path id="DejaVuSans-50" d="M 1259 4147 
L 1259 2394 
L 2053 2394 
Q 2494 2394 2734 2622 
Q 2975 2850 2975 3272 
Q 2975 3691 2734 3919 
Q 2494 4147 2053 4147 
L 1259 4147 
z
M 628 4666 
L 2053 4666 
Q 2838 4666 3239 4311 
Q 3641 3956 3641 3272 
Q 3641 2581 3239 2228 
Q 2838 1875 2053 1875 
L 1259 1875 
L 1259 0 
L 628 0 
L 628 4666 
z
" transform="scale(0.015625)"/>
       <path id="DejaVuSans-65" d="M 3597 1894 
L 3597 1613 
L 953 1613 
Q 991 1019 1311 708 
Q 1631 397 2203 397 
Q 2534 397 2845 478 
Q 3156 559 3463 722 
L 3463 178 
Q 3153 47 2828 -22 
Q 2503 -91 2169 -91 
Q 1331 -91 842 396 
Q 353 884 353 1716 
Q 353 2575 817 3079 
Q 1281 3584 2069 3584 
Q 2775 3584 3186 3129 
Q 3597 2675 3597 1894 
z
M 3022 2063 
Q 3016 2534 2758 2815 
Q 2500 3097 2075 3097 
Q 1594 3097 1305 2825 
Q 1016 2553 972 2059 
L 3022 2063 
z
" transform="scale(0.015625)"/>
       <path id="DejaVuSans-72" d="M 2631 2963 
Q 2534 3019 2420 3045 
Q 2306 3072 2169 3072 
Q 1681 3072 1420 2755 
Q 1159 2438 1159 1844 
L 1159 0 
L 581 0 
L 581 3500 
L 1159 3500 
L 1159 2956 
Q 1341 3275 1631 3429 
Q 1922 3584 2338 3584 
Q 2397 3584 2469 3576 
Q 2541 3569 2628 3553 
L 2631 2963 
z
" transform="scale(0.015625)"/>
       <path id="DejaVuSans-63" d="M 3122 3366 
L 3122 2828 
Q 2878 2963 2633 3030 
Q 2388 3097 2138 3097 
Q 1578 3097 1268 2742 
Q 959 2388 959 1747 
Q 959 1106 1268 751 
Q 1578 397 2138 397 
Q 2388 397 2633 464 
Q 2878 531 3122 666 
L 3122 134 
Q 2881 22 2623 -34 
Q 2366 -91 2075 -91 
Q 1284 -91 818 406 
Q 353 903 353 1747 
Q 353 2603 823 3093 
Q 1294 3584 2113 3584 
Q 2378 3584 2631 3529 
Q 2884 3475 3122 3366 
z
" transform="scale(0.015625)"/>
       <path id="DejaVuSans-6e" d="M 3513 2113 
L 3513 0 
L 2938 0 
L 2938 2094 
Q 2938 2591 2744 2837 
Q 2550 3084 2163 3084 
Q 1697 3084 1428 2787 
Q 1159 2491 1159 1978 
L 1159 0 
L 581 0 
L 581 3500 
L 1159 3500 
L 1159 2956 
Q 1366 3272 1645 3428 
Q 1925 3584 2291 3584 
Q 2894 3584 3203 3211 
Q 3513 2838 3513 2113 
z
" transform="scale(0.015625)"/>
       <path id="DejaVuSans-74" d="M 1172 4494 
L 1172 3500 
L 2356 3500 
L 2356 3053 
L 1172 3053 
L 1172 1153 
Q 1172 725 1289 603 
Q 1406 481 1766 481 
L 2356 481 
L 2356 0 
L 1766 0 
Q 1100 0 847 248 
Q 594 497 594 1153 
L 594 3053 
L 172 3053 
L 172 3500 
L 594 3500 
L 594 4494 
L 1172 4494 
z
" transform="scale(0.015625)"/>
       <path id="DejaVuSans-61" d="M 2194 1759 
Q 1497 1759 1228 1600 
Q 959 1441 959 1056 
Q 959 750 1161 570 
Q 1363 391 1709 391 
Q 2188 391 2477 730 
Q 2766 1069 2766 1631 
L 2766 1759 
L 2194 1759 
z
M 3341 1997 
L 3341 0 
L 2766 0 
L 2766 531 
Q 2569 213 2275 61 
Q 1981 -91 1556 -91 
Q 1019 -91 701 211 
Q 384 513 384 1019 
Q 384 1609 779 1909 
Q 1175 2209 1959 2209 
L 2766 2209 
L 2766 2266 
Q 2766 2663 2505 2880 
Q 2244 3097 1772 3097 
Q 1472 3097 1187 3025 
Q 903 2953 641 2809 
L 641 3341 
Q 956 3463 1253 3523 
Q 1550 3584 1831 3584 
Q 2591 3584 2966 3190 
Q 3341 2797 3341 1997 
z
" transform="scale(0.015625)"/>
       <path id="DejaVuSans-67" d="M 2906 1791 
Q 2906 2416 2648 2759 
Q 2391 3103 1925 3103 
Q 1463 3103 1205 2759 
Q 947 2416 947 1791 
Q 947 1169 1205 825 
Q 1463 481 1925 481 
Q 2391 481 2648 825 
Q 2906 1169 2906 1791 
z
M 3481 434 
Q 3481 -459 3084 -895 
Q 2688 -1331 1869 -1331 
Q 1566 -1331 1297 -1286 
Q 1028 -1241 775 -1147 
L 775 -588 
Q 1028 -725 1275 -790 
Q 1522 -856 1778 -856 
Q 2344 -856 2625 -561 
Q 2906 -266 2906 331 
L 2906 616 
Q 2728 306 2450 153 
Q 2172 0 1784 0 
Q 1141 0 747 490 
Q 353 981 353 1791 
Q 353 2603 747 3093 
Q 1141 3584 1784 3584 
Q 2172 3584 2450 3431 
Q 2728 3278 2906 2969 
L 2906 3500 
L 3481 3500 
L 3481 434 
z
" transform="scale(0.015625)"/>
       <path id="DejaVuSans-20" transform="scale(0.015625)"/>
       <path id="DejaVuSans-6f" d="M 1959 3097 
Q 1497 3097 1228 2736 
Q 959 2375 959 1747 
Q 959 1119 1226 758 
Q 1494 397 1959 397 
Q 2419 397 2687 759 
Q 2956 1122 2956 1747 
Q 2956 2369 2687 2733 
Q 2419 3097 1959 3097 
z
M 1959 3584 
Q 2709 3584 3137 3096 
Q 3566 2609 3566 1747 
Q 3566 888 3137 398 
Q 2709 -91 1959 -91 
Q 1206 -91 779 398 
Q 353 888 353 1747 
Q 353 2609 779 3096 
Q 1206 3584 1959 3584 
z
" transform="scale(0.015625)"/>
       <path id="DejaVuSans-66" d="M 2375 4863 
L 2375 4384 
L 1825 4384 
Q 1516 4384 1395 4259 
Q 1275 4134 1275 3809 
L 1275 3500 
L 2222 3500 
L 2222 3053 
L 1275 3053 
L 1275 0 
L 697 0 
L 697 3053 
L 147 3053 
L 147 3500 
L 697 3500 
L 697 3744 
Q 697 4328 969 4595 
Q 1241 4863 1831 4863 
L 2375 4863 
z
" transform="scale(0.015625)"/>
       <path id="DejaVuSans-53" d="M 3425 4513 
L 3425 3897 
Q 3066 4069 2747 4153 
Q 2428 4238 2131 4238 
Q 1616 4238 1336 4038 
Q 1056 3838 1056 3469 
Q 1056 3159 1242 3001 
Q 1428 2844 1947 2747 
L 2328 2669 
Q 3034 2534 3370 2195 
Q 3706 1856 3706 1288 
Q 3706 609 3251 259 
Q 2797 -91 1919 -91 
Q 1588 -91 1214 -16 
Q 841 59 441 206 
L 441 856 
Q 825 641 1194 531 
Q 1563 422 1919 422 
Q 2459 422 2753 634 
Q 3047 847 3047 1241 
Q 3047 1584 2836 1778 
Q 2625 1972 2144 2069 
L 1759 2144 
Q 1053 2284 737 2584 
Q 422 2884 422 3419 
Q 422 4038 858 4394 
Q 1294 4750 2059 4750 
Q 2388 4750 2728 4690 
Q 3069 4631 3425 4513 
z
" transform="scale(0.015625)"/>
       <path id="DejaVuSans-6d" d="M 3328 2828 
Q 3544 3216 3844 3400 
Q 4144 3584 4550 3584 
Q 5097 3584 5394 3201 
Q 5691 2819 5691 2113 
L 5691 0 
L 5113 0 
L 5113 2094 
Q 5113 2597 4934 2840 
Q 4756 3084 4391 3084 
Q 3944 3084 3684 2787 
Q 3425 2491 3425 1978 
L 3425 0 
L 2847 0 
L 2847 2094 
Q 2847 2600 2669 2842 
Q 2491 3084 2119 3084 
Q 1678 3084 1418 2786 
Q 1159 2488 1159 1978 
L 1159 0 
L 581 0 
L 581 3500 
L 1159 3500 
L 1159 2956 
Q 1356 3278 1631 3431 
Q 1906 3584 2284 3584 
Q 2666 3584 2933 3390 
Q 3200 3197 3328 2828 
z
" transform="scale(0.015625)"/>
       <path id="DejaVuSans-70" d="M 1159 525 
L 1159 -1331 
L 581 -1331 
L 581 3500 
L 1159 3500 
L 1159 2969 
Q 1341 3281 1617 3432 
Q 1894 3584 2278 3584 
Q 2916 3584 3314 3078 
Q 3713 2572 3713 1747 
Q 3713 922 3314 415 
Q 2916 -91 2278 -91 
Q 1894 -91 1617 61 
Q 1341 213 1159 525 
z
M 3116 1747 
Q 3116 2381 2855 2742 
Q 2594 3103 2138 3103 
Q 1681 3103 1420 2742 
Q 1159 2381 1159 1747 
Q 1159 1113 1420 752 
Q 1681 391 2138 391 
Q 2594 391 2855 752 
Q 3116 1113 3116 1747 
z
" transform="scale(0.015625)"/>
       <path id="DejaVuSans-6c" d="M 603 4863 
L 1178 4863 
L 1178 0 
L 603 0 
L 603 4863 
z
" transform="scale(0.015625)"/>
      </defs>
      <use xlink:href="#DejaVuSans-50"/>
      <use xlink:href="#DejaVuSans-65" x="56.677734"/>
      <use xlink:href="#DejaVuSans-72" x="118.201172"/>
      <use xlink:href="#DejaVuSans-63" x="157.064453"/>
      <use xlink:href="#DejaVuSans-65" x="212.044922"/>
      <use xlink:href="#DejaVuSans-6e" x="273.568359"/>
      <use xlink:href="#DejaVuSans-74" x="336.947266"/>
      <use xlink:href="#DejaVuSans-61" x="376.15625"/>
      <use xlink:href="#DejaVuSans-67" x="437.435547"/>
      <use xlink:href="#DejaVuSans-65" x="500.912109"/>
      <use xlink:href="#DejaVuSans-20" x="562.435547"/>
      <use xlink:href="#DejaVuSans-6f" x="594.222656"/>
      <use xlink:href="#DejaVuSans-66" x="655.404297"/>
      <use xlink:href="#DejaVuSans-20" x="690.609375"/>
      <use xlink:href="#DejaVuSans-53" x="722.396484"/>
      <use xlink:href="#DejaVuSans-61" x="785.873047"/>
      <use xlink:href="#DejaVuSans-6d" x="847.152344"/>
      <use xlink:href="#DejaVuSans-70" x="944.564453"/>
      <use xlink:href="#DejaVuSans-6c" x="1008.041016"/>
      <use xlink:href="#DejaVuSans-65" x="1035.824219"/>
     </g>
    </g>
   </g>
   <g id="matplotlib.axis_2">
    <g id="ytick_1">
     <g id="line2d_13">
      <path d="M 45.716875 233.998125 
L 268.916875 233.998125 
" clip-path="url(#p65d2350612)" style="fill: none; stroke: #b0b0b0; stroke-width: 0.8; stroke-linecap: square"/>
     </g>
     <g id="line2d_14">
      <defs>
       <path id="m3a021396c6" d="M 0 0 
L -3.5 0 
" style="stroke: #000000; stroke-width: 0.8"/>
      </defs>
      <g>
       <use xlink:href="#m3a021396c6" x="45.716875" y="233.998125" style="stroke: #000000; stroke-width: 0.8"/>
      </g>
     </g>
     <g id="text_8">
      <!-- 0.0 -->
      <g transform="translate(22.81375 237.797344) scale(0.1 -0.1)">
       <use xlink:href="#DejaVuSans-30"/>
       <use xlink:href="#DejaVuSans-2e" x="63.623047"/>
       <use xlink:href="#DejaVuSans-30" x="95.410156"/>
      </g>
     </g>
    </g>
    <g id="ytick_2">
     <g id="line2d_15">
      <path d="M 45.716875 193.678125 
L 268.916875 193.678125 
" clip-path="url(#p65d2350612)" style="fill: none; stroke: #b0b0b0; stroke-width: 0.8; stroke-linecap: square"/>
     </g>
     <g id="line2d_16">
      <g>
       <use xlink:href="#m3a021396c6" x="45.716875" y="193.678125" style="stroke: #000000; stroke-width: 0.8"/>
      </g>
     </g>
     <g id="text_9">
      <!-- 0.2 -->
      <g transform="translate(22.81375 197.477344) scale(0.1 -0.1)">
       <use xlink:href="#DejaVuSans-30"/>
       <use xlink:href="#DejaVuSans-2e" x="63.623047"/>
       <use xlink:href="#DejaVuSans-32" x="95.410156"/>
      </g>
     </g>
    </g>
    <g id="ytick_3">
     <g id="line2d_17">
      <path d="M 45.716875 153.358125 
L 268.916875 153.358125 
" clip-path="url(#p65d2350612)" style="fill: none; stroke: #b0b0b0; stroke-width: 0.8; stroke-linecap: square"/>
     </g>
     <g id="line2d_18">
      <g>
       <use xlink:href="#m3a021396c6" x="45.716875" y="153.358125" style="stroke: #000000; stroke-width: 0.8"/>
      </g>
     </g>
     <g id="text_10">
      <!-- 0.4 -->
      <g transform="translate(22.81375 157.157344) scale(0.1 -0.1)">
       <use xlink:href="#DejaVuSans-30"/>
       <use xlink:href="#DejaVuSans-2e" x="63.623047"/>
       <use xlink:href="#DejaVuSans-34" x="95.410156"/>
      </g>
     </g>
    </g>
    <g id="ytick_4">
     <g id="line2d_19">
      <path d="M 45.716875 113.038125 
L 268.916875 113.038125 
" clip-path="url(#p65d2350612)" style="fill: none; stroke: #b0b0b0; stroke-width: 0.8; stroke-linecap: square"/>
     </g>
     <g id="line2d_20">
      <g>
       <use xlink:href="#m3a021396c6" x="45.716875" y="113.038125" style="stroke: #000000; stroke-width: 0.8"/>
      </g>
     </g>
     <g id="text_11">
      <!-- 0.6 -->
      <g transform="translate(22.81375 116.837344) scale(0.1 -0.1)">
       <use xlink:href="#DejaVuSans-30"/>
       <use xlink:href="#DejaVuSans-2e" x="63.623047"/>
       <use xlink:href="#DejaVuSans-36" x="95.410156"/>
      </g>
     </g>
    </g>
    <g id="ytick_5">
     <g id="line2d_21">
      <path d="M 45.716875 72.718125 
L 268.916875 72.718125 
" clip-path="url(#p65d2350612)" style="fill: none; stroke: #b0b0b0; stroke-width: 0.8; stroke-linecap: square"/>
     </g>
     <g id="line2d_22">
      <g>
       <use xlink:href="#m3a021396c6" x="45.716875" y="72.718125" style="stroke: #000000; stroke-width: 0.8"/>
      </g>
     </g>
     <g id="text_12">
      <!-- 0.8 -->
      <g transform="translate(22.81375 76.517344) scale(0.1 -0.1)">
       <use xlink:href="#DejaVuSans-30"/>
       <use xlink:href="#DejaVuSans-2e" x="63.623047"/>
       <use xlink:href="#DejaVuSans-38" x="95.410156"/>
      </g>
     </g>
    </g>
    <g id="ytick_6">
     <g id="line2d_23">
      <path d="M 45.716875 32.398125 
L 268.916875 32.398125 
" clip-path="url(#p65d2350612)" style="fill: none; stroke: #b0b0b0; stroke-width: 0.8; stroke-linecap: square"/>
     </g>
     <g id="line2d_24">
      <g>
       <use xlink:href="#m3a021396c6" x="45.716875" y="32.398125" style="stroke: #000000; stroke-width: 0.8"/>
      </g>
     </g>
     <g id="text_13">
      <!-- 1.0 -->
      <g transform="translate(22.81375 36.197344) scale(0.1 -0.1)">
       <use xlink:href="#DejaVuSans-31"/>
       <use xlink:href="#DejaVuSans-2e" x="63.623047"/>
       <use xlink:href="#DejaVuSans-30" x="95.410156"/>
      </g>
     </g>
    </g>
    <g id="text_14">
     <!-- Cumulative Gain -->
     <g transform="translate(16.318125 183.145312) rotate(-90) scale(0.12 -0.12)">
      <defs>
       <path id="DejaVuSans-43" d="M 4122 4306 
L 4122 3641 
Q 3803 3938 3442 4084 
Q 3081 4231 2675 4231 
Q 1875 4231 1450 3742 
Q 1025 3253 1025 2328 
Q 1025 1406 1450 917 
Q 1875 428 2675 428 
Q 3081 428 3442 575 
Q 3803 722 4122 1019 
L 4122 359 
Q 3791 134 3420 21 
Q 3050 -91 2638 -91 
Q 1578 -91 968 557 
Q 359 1206 359 2328 
Q 359 3453 968 4101 
Q 1578 4750 2638 4750 
Q 3056 4750 3426 4639 
Q 3797 4528 4122 4306 
z
" transform="scale(0.015625)"/>
       <path id="DejaVuSans-75" d="M 544 1381 
L 544 3500 
L 1119 3500 
L 1119 1403 
Q 1119 906 1312 657 
Q 1506 409 1894 409 
Q 2359 409 2629 706 
Q 2900 1003 2900 1516 
L 2900 3500 
L 3475 3500 
L 3475 0 
L 2900 0 
L 2900 538 
Q 2691 219 2414 64 
Q 2138 -91 1772 -91 
Q 1169 -91 856 284 
Q 544 659 544 1381 
z
M 1991 3584 
L 1991 3584 
z
" transform="scale(0.015625)"/>
       <path id="DejaVuSans-69" d="M 603 3500 
L 1178 3500 
L 1178 0 
L 603 0 
L 603 3500 
z
M 603 4863 
L 1178 4863 
L 1178 4134 
L 603 4134 
L 603 4863 
z
" transform="scale(0.015625)"/>
       <path id="DejaVuSans-76" d="M 191 3500 
L 800 3500 
L 1894 563 
L 2988 3500 
L 3597 3500 
L 2284 0 
L 1503 0 
L 191 3500 
z
" transform="scale(0.015625)"/>
       <path id="DejaVuSans-47" d="M 3809 666 
L 3809 1919 
L 2778 1919 
L 2778 2438 
L 4434 2438 
L 4434 434 
Q 4069 175 3628 42 
Q 3188 -91 2688 -91 
Q 1594 -91 976 548 
Q 359 1188 359 2328 
Q 359 3472 976 4111 
Q 1594 4750 2688 4750 
Q 3144 4750 3555 4637 
Q 3966 4525 4313 4306 
L 4313 3634 
Q 3963 3931 3569 4081 
Q 3175 4231 2741 4231 
Q 1884 4231 1454 3753 
Q 1025 3275 1025 2328 
Q 1025 1384 1454 906 
Q 1884 428 2741 428 
Q 3075 428 3337 486 
Q 3600 544 3809 666 
z
" transform="scale(0.015625)"/>
      </defs>
      <use xlink:href="#DejaVuSans-43"/>
      <use xlink:href="#DejaVuSans-75" x="69.824219"/>
      <use xlink:href="#DejaVuSans-6d" x="133.203125"/>
      <use xlink:href="#DejaVuSans-75" x="230.615234"/>
      <use xlink:href="#DejaVuSans-6c" x="293.994141"/>
      <use xlink:href="#DejaVuSans-61" x="321.777344"/>
      <use xlink:href="#DejaVuSans-74" x="383.056641"/>
      <use xlink:href="#DejaVuSans-69" x="422.265625"/>
      <use xlink:href="#DejaVuSans-76" x="450.048828"/>
      <use xlink:href="#DejaVuSans-65" x="509.228516"/>
      <use xlink:href="#DejaVuSans-20" x="570.751953"/>
      <use xlink:href="#DejaVuSans-47" x="602.539062"/>
      <use xlink:href="#DejaVuSans-61" x="680.029297"/>
      <use xlink:href="#DejaVuSans-69" x="741.308594"/>
      <use xlink:href="#DejaVuSans-6e" x="769.091797"/>
     </g>
    </g>
   </g>
   <g id="line2d_25">
    <path d="M 55.86233 233.977858 
L 62.122388 221.71607 
L 62.183264 221.614733 
L 65.064717 216.101996 
L 65.135739 216.000658 
L 68.778139 208.967865 
L 68.839015 208.866528 
L 70.837769 205.117055 
L 70.898645 205.015718 
L 72.450977 202.158012 
L 72.511853 202.056675 
L 74.672943 197.982924 
L 74.75411 197.881587 
L 76.022356 195.591369 
L 76.093377 195.490032 
L 77.077536 193.767302 
L 77.148557 193.665965 
L 78.416803 191.375746 
L 78.477678 191.274409 
L 79.685048 189.105796 
L 79.75607 189.004459 
L 81.115629 186.531834 
L 81.176504 186.430497 
L 82.089641 184.849638 
L 82.180955 184.748301 
L 83.34774 182.660757 
L 83.418762 182.55942 
L 85.113138 179.41797 
L 85.184159 179.316633 
L 86.107442 177.715507 
L 86.208901 177.61417 
L 87.24379 175.790102 
L 87.304665 175.688765 
L 88.19751 174.148442 
L 88.288824 174.047105 
L 89.283128 172.304107 
L 89.344004 172.20277 
L 90.125243 170.885387 
L 90.20641 170.78405 
L 90.88619 169.669342 
L 90.957212 169.568005 
L 91.961662 167.80474 
L 92.022538 167.703403 
L 92.722609 166.54816 
L 92.803777 166.446823 
L 93.42268 165.45372 
L 93.483556 165.352383 
L 94.569174 163.426978 
L 94.670634 163.325641 
L 95.73596 161.440771 
L 95.796835 161.339434 
L 96.780994 159.616703 
L 96.862161 159.515366 
L 97.531795 158.420926 
L 97.592671 158.319589 
L 98.110115 157.529159 
L 98.181136 157.427822 
L 98.769602 156.495521 
L 98.830478 156.394184 
L 99.347922 155.603755 
L 99.42909 155.502418 
L 99.875512 154.85386 
L 99.95668 154.752523 
L 100.423394 154.063431 
L 100.504562 153.962094 
L 101.498866 152.219096 
L 101.59018 152.117759 
L 102.219229 151.104388 
L 102.310543 151.003051 
L 102.949738 149.969413 
L 103.02076 149.868076 
L 103.517912 149.118181 
L 103.588934 149.016844 
L 104.187546 148.064276 
L 104.289005 147.962939 
L 104.816595 147.152242 
L 104.887617 147.050905 
L 105.323894 146.422615 
L 105.394915 146.321278 
L 106.074695 145.20657 
L 106.166008 145.105233 
L 106.470387 144.740419 
L 106.571847 144.639082 
L 107.332794 143.362235 
L 107.413962 143.260898 
L 107.789362 142.754212 
L 107.880676 142.652875 
L 108.357536 141.943516 
L 108.428558 141.842178 
L 108.82425 141.294958 
L 108.895272 141.193621 
L 109.493884 140.241053 
L 109.575052 140.139715 
L 110.021474 139.491158 
L 110.092496 139.389821 
L 110.396874 139.025007 
L 110.467896 138.92367 
L 111.015778 138.072439 
L 111.0868 137.971102 
L 111.583952 137.221207 
L 111.66512 137.11987 
L 112.273877 136.147034 
L 112.355045 136.045697 
L 112.710154 135.579547 
L 112.801467 135.478209 
L 113.339203 134.647245 
L 113.400079 134.545908 
L 113.947961 133.694677 
L 114.018983 133.59334 
L 114.3538 133.167724 
L 114.424821 133.066387 
L 114.932119 132.296225 
L 114.992995 132.194888 
L 115.642337 131.140982 
L 115.713358 131.039645 
L 116.352554 130.006007 
L 116.423576 129.90467 
L 116.829414 129.337182 
L 116.910582 129.235845 
L 117.184523 128.931834 
L 117.296129 128.830497 
L 117.630945 128.404881 
L 117.691821 128.303544 
L 118.219411 127.492847 
L 118.290433 127.39151 
L 118.665833 126.884825 
L 118.736855 126.783487 
L 119.112256 126.276802 
L 119.193423 126.175465 
L 119.497802 125.810651 
L 119.558678 125.709314 
L 120.045684 124.979687 
L 120.10656 124.87835 
L 120.573274 124.189258 
L 120.664588 124.087921 
L 121.050134 123.560968 
L 121.121156 123.459631 
L 121.516849 122.912411 
L 121.577724 122.811074 
L 121.963271 122.284121 
L 122.044439 122.182784 
L 122.358963 121.797703 
L 122.429985 121.696366 
L 122.906845 120.987006 
L 122.998159 120.885669 
L 123.424289 120.277646 
L 123.495311 120.176309 
L 123.972171 119.46695 
L 124.043193 119.365613 
L 124.388156 118.91973 
L 124.499761 118.818392 
L 124.793994 118.473846 
L 124.875162 118.372509 
L 125.341876 117.683417 
L 125.412898 117.58208 
L 125.788299 117.075395 
L 125.85932 116.974057 
L 126.305743 116.3255 
L 126.376764 116.224163 
L 126.772457 115.676943 
L 126.873916 115.575606 
L 127.259463 115.048653 
L 127.350777 114.947316 
L 127.746469 114.400095 
L 127.827637 114.298758 
L 128.142162 113.913677 
L 128.284205 113.81234 
L 128.608876 113.406992 
L 128.70019 113.305655 
L 129.12632 112.697632 
L 129.207488 112.596295 
L 129.785808 111.684262 
L 129.866975 111.582924 
L 130.293106 110.974902 
L 130.404711 110.873565 
L 130.790258 110.346612 
L 130.891717 110.245275 
L 131.348286 109.57645 
L 131.480183 109.475113 
L 131.825146 109.02923 
L 131.906314 108.927893 
L 132.220838 108.542812 
L 132.302006 108.441475 
L 132.707845 107.873987 
L 132.809304 107.77265 
L 133.215143 107.205162 
L 133.29631 107.103825 
L 133.600689 106.739012 
L 133.752879 106.637675 
L 133.986236 106.414733 
L 134.077549 106.313396 
L 134.493534 105.725641 
L 134.594993 105.624304 
L 134.909518 105.239223 
L 134.990686 105.137886 
L 135.437108 104.489328 
L 135.518276 104.387991 
L 135.782071 104.104247 
L 135.842947 104.00291 
L 136.198055 103.53676 
L 136.299515 103.435423 
L 136.837251 102.604459 
L 136.908273 102.503121 
L 137.324257 101.915366 
L 137.395279 101.814029 
L 137.598198 101.65189 
L 137.689512 101.550553 
L 137.943161 101.287076 
L 138.014183 101.185739 
L 138.430167 100.597984 
L 138.531627 100.496647 
L 138.876589 100.050764 
L 138.957757 99.949427 
L 139.25199 99.604881 
L 139.312866 99.503544 
L 139.536077 99.30087 
L 139.627391 99.199532 
L 139.901331 98.895521 
L 140.023083 98.794184 
L 140.388338 98.307766 
L 140.459359 98.206429 
L 141.017387 97.33493 
L 141.128993 97.233593 
L 141.423226 96.889047 
L 141.585561 96.78771 
L 141.930524 96.341827 
L 142.021838 96.24049 
L 142.346508 95.835141 
L 142.41753 95.733804 
L 142.955266 94.90284 
L 143.066872 94.801503 
L 143.290083 94.598829 
L 143.361104 94.497492 
L 143.655337 94.152946 
L 143.736505 94.051608 
L 144.203219 93.362516 
L 144.284387 93.261179 
L 144.609058 92.855831 
L 144.740955 92.754494 
L 145.00475 92.47075 
L 145.10621 92.369413 
L 145.370005 92.085669 
L 145.451173 91.984332 
L 145.73526 91.660053 
L 145.806281 91.558716 
L 146.029492 91.356042 
L 146.151244 91.254705 
L 146.475915 90.849357 
L 146.63825 90.748019 
L 146.962921 90.342671 
L 147.023797 90.241334 
L 147.338322 89.856253 
L 147.480365 89.754916 
L 147.784744 89.390102 
L 147.906495 89.288765 
L 148.190582 88.964487 
L 148.27175 88.86315 
L 148.545691 88.559138 
L 148.74861 88.457801 
L 149.032697 88.133523 
L 149.134157 88.032186 
L 149.367514 87.809244 
L 149.489265 87.707907 
L 149.722623 87.484965 
L 149.884958 87.383628 
L 150.108169 87.180954 
L 150.199483 87.079617 
L 150.48357 86.755338 
L 150.595175 86.654001 
L 150.828532 86.43106 
L 150.9097 86.329722 
L 151.122765 86.147316 
L 151.285101 86.045979 
L 151.508312 85.843304 
L 151.630063 85.741967 
L 152.005464 85.235282 
L 152.076486 85.133945 
L 152.431594 84.667794 
L 152.553346 84.566457 
L 152.837433 84.242178 
L 152.959184 84.140841 
L 153.17225 83.958435 
L 153.304147 83.857098 
L 153.588234 83.532819 
L 153.669402 83.431482 
L 154.004218 83.005866 
L 154.085386 82.904529 
L 154.288305 82.74239 
L 154.359327 82.641053 
L 154.714436 82.174902 
L 154.785458 82.073565 
L 155.089836 81.708751 
L 155.171004 81.607414 
L 155.495675 81.202066 
L 155.586989 81.100729 
L 155.840638 80.837252 
L 155.962389 80.735915 
L 156.23633 80.431904 
L 156.368228 80.330567 
L 156.591439 80.127893 
L 156.703044 80.026556 
L 156.976985 79.722544 
L 157.098737 79.621207 
L 157.484283 79.094254 
L 157.606035 78.992917 
L 157.829246 78.790243 
L 157.930706 78.688906 
L 158.133625 78.526767 
L 158.255376 78.42543 
L 158.458296 78.26329 
L 158.569901 78.161953 
L 158.711945 78.121418 
L 158.87428 78.020081 
L 159.188805 77.635 
L 159.280119 77.533663 
L 159.55406 77.229652 
L 159.726541 77.128315 
L 159.949752 76.925641 
L 160.041066 76.824304 
L 160.40632 76.337886 
L 160.528072 76.236549 
L 160.812159 75.91227 
L 160.93391 75.810933 
L 161.13683 75.648794 
L 161.238289 75.547456 
L 161.502084 75.263713 
L 161.61369 75.162376 
L 161.907923 74.817829 
L 162.120988 74.716492 
L 162.394929 74.412481 
L 162.587702 74.311144 
L 162.851497 74.0274 
L 163.074708 73.926063 
L 163.29792 73.723389 
L 163.429817 73.622052 
L 163.764634 73.196436 
L 163.896531 73.095099 
L 164.069013 72.993762 
L 164.211056 72.892425 
L 164.484997 72.588414 
L 164.576311 72.487076 
L 164.850252 72.183065 
L 165.093755 72.081728 
L 165.316966 71.879054 
L 165.540177 71.777717 
L 165.73295 71.635845 
L 165.824264 71.534508 
L 165.976453 71.473706 
L 166.138789 71.372368 
L 166.362 71.169694 
L 166.483752 71.068357 
L 166.727255 70.825148 
L 166.849006 70.723811 
L 167.163531 70.33873 
L 167.285283 70.237393 
L 167.498348 70.054986 
L 167.609953 69.953649 
L 167.873748 69.669905 
L 167.9955 69.568568 
L 168.167981 69.467231 
L 168.42163 69.365894 
L 168.665133 69.122685 
L 168.766593 69.021348 
L 168.969512 68.859209 
L 169.111556 68.757872 
L 169.375351 68.474128 
L 169.507248 68.372791 
L 169.750751 68.129582 
L 169.973962 68.028245 
L 170.166736 67.886373 
L 170.349363 67.785036 
L 170.643596 67.44049 
L 170.897245 67.339152 
L 171.079872 67.217548 
L 171.181332 67.116211 
L 171.394397 66.933804 
L 171.556732 66.832467 
L 171.830673 66.528456 
L 171.972717 66.427119 
L 172.195928 66.224444 
L 172.31768 66.123107 
L 172.551037 65.900166 
L 172.713372 65.798829 
L 172.967021 65.535352 
L 173.058335 65.434015 
L 173.281546 65.231341 
L 173.393152 65.130004 
L 173.616363 64.92733 
L 173.788844 64.825993 
L 174.012055 64.623319 
L 174.143953 64.521981 
L 174.387456 64.278772 
L 174.499061 64.177435 
L 174.742564 63.934226 
L 174.874462 63.832889 
L 175.077381 63.67075 
L 175.33103 63.569413 
L 175.584679 63.305936 
L 175.787599 63.204599 
L 175.990518 63.04246 
L 176.162999 62.941123 
L 176.33548 62.839786 
L 176.477524 62.738449 
L 176.710881 62.515507 
L 176.802195 62.41417 
L 177.025406 62.211496 
L 177.187741 62.110159 
L 177.410952 61.907485 
L 177.674747 61.806148 
L 177.867521 61.664276 
L 178.040002 61.562939 
L 178.242921 61.400799 
L 178.425549 61.299462 
L 178.638614 61.117055 
L 178.760365 61.015718 
L 179.014014 60.752242 
L 179.135766 60.650905 
L 179.328539 60.509033 
L 179.531458 60.407696 
L 179.724232 60.265824 
L 179.876421 60.164487 
L 180.07934 60.002347 
L 180.170654 59.90101 
L 180.414157 59.657801 
L 180.525763 59.556464 
L 180.738828 59.374057 
L 180.941747 59.27272 
L 181.164958 59.070046 
L 181.296856 58.968709 
L 181.469337 58.867372 
L 181.651964 58.766035 
L 181.86503 58.583628 
L 182.108533 58.482291 
L 182.311452 58.320152 
L 182.504225 58.218815 
L 182.656415 58.158012 
L 182.798458 58.056675 
L 183.072399 57.752664 
L 183.184005 57.651327 
L 183.386924 57.489188 
L 183.589843 57.387851 
L 183.772471 57.266246 
L 183.944952 57.164909 
L 184.117433 57.063572 
L 184.249331 56.962235 
L 184.462396 56.779828 
L 184.655169 56.678491 
L 184.868234 56.496084 
L 185.182759 56.394747 
L 185.375532 56.252875 
L 185.537868 56.151538 
L 185.750933 55.969131 
L 185.913268 55.867794 
L 186.116188 55.705655 
L 186.288669 55.604318 
L 186.501734 55.421911 
L 186.806113 55.320574 
L 186.978594 55.219237 
L 187.161222 55.1179 
L 187.435163 54.813889 
L 187.61779 54.712551 
L 187.830855 54.530145 
L 188.04392 54.428808 
L 188.206256 54.347738 
L 188.348299 54.246401 
L 188.510635 54.165331 
L 188.662824 54.063994 
L 188.845451 53.94239 
L 189.068663 53.841053 
L 189.210706 53.800518 
L 189.454209 53.699181 
L 189.687566 53.476239 
L 190.052821 53.374902 
L 190.235448 53.253297 
L 190.458659 53.15196 
L 190.651433 53.010088 
L 190.752892 52.908751 
L 190.894936 52.868216 
L 191.067417 52.766879 
L 191.229752 52.68581 
L 191.473256 52.584473 
L 191.666029 52.442601 
L 191.868948 52.341264 
L 192.021137 52.280461 
L 192.213911 52.179124 
L 192.406684 52.037252 
L 192.660333 51.935915 
L 192.863252 51.773776 
L 192.954566 51.672439 
L 193.147339 51.530567 
L 193.309675 51.42923 
L 193.492302 51.307625 
L 193.634345 51.206288 
L 193.796681 51.125219 
L 193.938724 51.023882 
L 194.192373 50.760405 
L 194.364855 50.659068 
L 194.506898 50.618533 
L 194.770693 50.517196 
L 194.943174 50.415859 
L 195.135948 50.314522 
L 195.308429 50.213185 
L 195.48091 50.111848 
L 195.673684 49.969976 
L 195.876603 49.868639 
L 196.049084 49.767302 
L 196.252004 49.665965 
L 196.414339 49.584895 
L 196.556382 49.483558 
L 196.769448 49.301151 
L 196.962221 49.199814 
L 197.134702 49.098477 
L 197.378205 48.99714 
L 197.540541 48.91607 
L 197.895649 48.814733 
L 198.098569 48.652594 
L 198.311634 48.551257 
L 198.565283 48.28778 
L 198.676888 48.186443 
L 198.869662 48.044571 
L 199.021851 47.943234 
L 199.194333 47.841897 
L 199.366814 47.74056 
L 199.569733 47.578421 
L 199.782798 47.477083 
L 199.95528 47.375746 
L 200.208929 47.274409 
L 200.371264 47.19334 
L 200.574183 47.092003 
L 200.777103 46.929863 
L 201.091627 46.828526 
L 201.253963 46.747456 
L 201.467028 46.646119 
L 201.629363 46.56505 
L 201.903304 46.463713 
L 202.045348 46.423178 
L 202.532354 46.321841 
L 202.714981 46.200236 
L 203.009214 46.098899 
L 203.161404 46.038097 
L 203.323739 45.93676 
L 203.516512 45.794888 
L 203.871621 45.693551 
L 204.07454 45.531411 
L 204.267313 45.430074 
L 204.460087 45.288202 
L 204.65286 45.186865 
L 204.835487 45.065261 
L 205.058698 44.963924 
L 205.210888 44.903121 
L 205.484829 44.801784 
L 205.65731 44.700447 
L 205.880521 44.59911 
L 206.032711 44.538308 
L 206.23563 44.436971 
L 206.397965 44.355901 
L 206.682052 44.254564 
L 206.824096 44.214029 
L 206.986431 44.112692 
L 207.128475 44.072157 
L 207.483583 43.97082 
L 207.656065 43.869483 
L 208.021319 43.768146 
L 208.173509 43.707344 
L 208.366282 43.606007 
L 208.528617 43.524937 
L 208.782266 43.4236 
L 208.954748 43.322263 
L 209.188105 43.220926 
L 209.360586 43.119589 
L 209.644673 43.018252 
L 209.827301 42.896647 
L 209.97949 42.79531 
L 210.151971 42.693973 
L 210.50708 42.592636 
L 210.669415 42.511566 
L 210.852043 42.410229 
L 211.03467 42.288625 
L 211.440508 42.187288 
L 211.623136 42.065683 
L 211.98839 41.964346 
L 212.150726 41.883276 
L 212.302915 41.781939 
L 212.444959 41.741404 
L 212.729046 41.640067 
L 212.921819 41.498195 
L 213.347949 41.396858 
L 213.520431 41.295521 
L 213.834955 41.194184 
L 213.987145 41.133382 
L 214.291524 41.032045 
L 214.453859 40.950975 
L 214.849552 40.849638 
L 215.011887 40.768568 
L 215.214806 40.667231 
L 215.377142 40.586162 
L 215.701812 40.484825 
L 215.88444 40.36322 
L 216.219256 40.261883 
L 216.381592 40.180813 
L 216.716409 40.079476 
L 216.858452 40.038941 
L 217.172977 39.937604 
L 217.36575 39.795732 
L 217.802027 39.694395 
L 217.974508 39.593058 
L 218.197719 39.491721 
L 218.329617 39.471454 
L 218.806477 39.370117 
L 218.94852 39.329582 
L 219.57757 39.228245 
L 219.729759 39.167442 
L 220.05443 39.066105 
L 220.186328 39.045838 
L 220.551582 38.944501 
L 220.693626 38.903966 
L 221.05888 38.802629 
L 221.241508 38.681024 
L 221.556032 38.579687 
L 221.718368 38.498618 
L 221.972017 38.397281 
L 222.11406 38.356746 
L 222.357563 38.255409 
L 222.540191 38.133804 
L 222.864861 38.032467 
L 223.017051 37.971665 
L 223.544641 37.870328 
L 223.717122 37.768991 
L 224.112815 37.667654 
L 224.265004 37.606851 
L 224.579529 37.505514 
L 224.721573 37.464979 
L 225.167995 37.363642 
L 225.340476 37.262305 
L 225.928942 37.160968 
L 226.081131 37.100166 
L 226.842079 36.998829 
L 226.984122 36.958294 
L 227.420398 36.856957 
L 227.59288 36.75562 
L 228.150908 36.654283 
L 228.292951 36.613748 
L 229.033606 36.512411 
L 229.195942 36.431341 
L 229.845283 36.330004 
L 229.997473 36.269202 
L 230.555501 36.167865 
L 230.687398 36.147597 
L 231.174404 36.04626 
L 231.33674 35.96519 
L 232.087541 35.863853 
L 232.229584 35.823319 
L 233.112283 35.721981 
L 233.254326 35.681447 
L 233.629727 35.58011 
L 233.77177 35.539575 
L 234.431258 35.438238 
L 234.573301 35.397703 
L 235.171913 35.296366 
L 235.324103 35.235563 
L 235.811109 35.134226 
L 235.973444 35.053157 
L 236.348845 34.95182 
L 236.480742 34.931552 
L 236.845997 34.830215 
L 236.998186 34.769413 
L 237.708404 34.668076 
L 237.850447 34.627541 
L 238.428767 34.526204 
L 238.57081 34.485669 
L 238.905627 34.384332 
L 239.047671 34.343797 
L 239.483947 34.24246 
L 239.615844 34.222193 
L 239.960807 34.120855 
L 240.123143 34.039786 
L 240.610149 33.938449 
L 240.742046 33.918181 
L 242.030583 33.816844 
L 242.192919 33.735775 
L 242.690071 33.634437 
L 242.821968 33.61417 
L 244.110506 33.512833 
L 244.242403 33.492566 
L 245.48021 33.391228 
L 245.622254 33.350694 
L 245.855611 33.249357 
L 245.997654 33.208822 
L 247.042689 33.107485 
L 247.174586 33.087217 
L 248.047139 32.98588 
L 248.179036 32.965613 
L 250.106769 32.864276 
L 250.238667 32.844008 
L 251.324284 32.742671 
L 251.456182 32.722404 
L 254.723182 32.621067 
L 254.865225 32.580532 
L 256.701644 32.479195 
L 256.843688 32.43866 
L 258.77142 32.398125 
L 258.77142 32.398125 
" clip-path="url(#p65d2350612)" style="fill: none; stroke: #1f77b4; stroke-width: 1.5; stroke-linecap: square"/>
   </g>
   <g id="line2d_26">
    <path d="M 55.86233 233.998125 
L 258.77142 32.398125 
" clip-path="url(#p65d2350612)" style="fill: none; stroke-dasharray: 7.4,3.2; stroke-dashoffset: 0; stroke: #808080; stroke-width: 2"/>
   </g>
   <g id="patch_3">
    <path d="M 45.716875 244.078125 
L 45.716875 22.318125 
" style="fill: none; stroke: #000000; stroke-width: 0.8; stroke-linejoin: miter; stroke-linecap: square"/>
   </g>
   <g id="patch_4">
    <path d="M 268.916875 244.078125 
L 268.916875 22.318125 
" style="fill: none; stroke: #000000; stroke-width: 0.8; stroke-linejoin: miter; stroke-linecap: square"/>
   </g>
   <g id="patch_5">
    <path d="M 45.716875 244.078125 
L 268.916875 244.078125 
" style="fill: none; stroke: #000000; stroke-width: 0.8; stroke-linejoin: miter; stroke-linecap: square"/>
   </g>
   <g id="patch_6">
    <path d="M 45.716875 22.318125 
L 268.916875 22.318125 
" style="fill: none; stroke: #000000; stroke-width: 0.8; stroke-linejoin: miter; stroke-linecap: square"/>
   </g>
   <g id="text_15">
    <!-- Gain Chart: Logistic Regression -->
    <g transform="translate(63.6475 16.318125) scale(0.12 -0.12)">
     <defs>
      <path id="DejaVuSans-68" d="M 3513 2113 
L 3513 0 
L 2938 0 
L 2938 2094 
Q 2938 2591 2744 2837 
Q 2550 3084 2163 3084 
Q 1697 3084 1428 2787 
Q 1159 2491 1159 1978 
L 1159 0 
L 581 0 
L 581 4863 
L 1159 4863 
L 1159 2956 
Q 1366 3272 1645 3428 
Q 1925 3584 2291 3584 
Q 2894 3584 3203 3211 
Q 3513 2838 3513 2113 
z
" transform="scale(0.015625)"/>
      <path id="DejaVuSans-3a" d="M 750 794 
L 1409 794 
L 1409 0 
L 750 0 
L 750 794 
z
M 750 3309 
L 1409 3309 
L 1409 2516 
L 750 2516 
L 750 3309 
z
" transform="scale(0.015625)"/>
      <path id="DejaVuSans-4c" d="M 628 4666 
L 1259 4666 
L 1259 531 
L 3531 531 
L 3531 0 
L 628 0 
L 628 4666 
z
" transform="scale(0.015625)"/>
      <path id="DejaVuSans-73" d="M 2834 3397 
L 2834 2853 
Q 2591 2978 2328 3040 
Q 2066 3103 1784 3103 
Q 1356 3103 1142 2972 
Q 928 2841 928 2578 
Q 928 2378 1081 2264 
Q 1234 2150 1697 2047 
L 1894 2003 
Q 2506 1872 2764 1633 
Q 3022 1394 3022 966 
Q 3022 478 2636 193 
Q 2250 -91 1575 -91 
Q 1294 -91 989 -36 
Q 684 19 347 128 
L 347 722 
Q 666 556 975 473 
Q 1284 391 1588 391 
Q 1994 391 2212 530 
Q 2431 669 2431 922 
Q 2431 1156 2273 1281 
Q 2116 1406 1581 1522 
L 1381 1569 
Q 847 1681 609 1914 
Q 372 2147 372 2553 
Q 372 3047 722 3315 
Q 1072 3584 1716 3584 
Q 2034 3584 2315 3537 
Q 2597 3491 2834 3397 
z
" transform="scale(0.015625)"/>
      <path id="DejaVuSans-52" d="M 2841 2188 
Q 3044 2119 3236 1894 
Q 3428 1669 3622 1275 
L 4263 0 
L 3584 0 
L 2988 1197 
Q 2756 1666 2539 1819 
Q 2322 1972 1947 1972 
L 1259 1972 
L 1259 0 
L 628 0 
L 628 4666 
L 2053 4666 
Q 2853 4666 3247 4331 
Q 3641 3997 3641 3322 
Q 3641 2881 3436 2590 
Q 3231 2300 2841 2188 
z
M 1259 4147 
L 1259 2491 
L 2053 2491 
Q 2509 2491 2742 2702 
Q 2975 2913 2975 3322 
Q 2975 3731 2742 3939 
Q 2509 4147 2053 4147 
L 1259 4147 
z
" transform="scale(0.015625)"/>
     </defs>
     <use xlink:href="#DejaVuSans-47"/>
     <use xlink:href="#DejaVuSans-61" x="77.490234"/>
     <use xlink:href="#DejaVuSans-69" x="138.769531"/>
     <use xlink:href="#DejaVuSans-6e" x="166.552734"/>
     <use xlink:href="#DejaVuSans-20" x="229.931641"/>
     <use xlink:href="#DejaVuSans-43" x="261.71875"/>
     <use xlink:href="#DejaVuSans-68" x="331.542969"/>
     <use xlink:href="#DejaVuSans-61" x="394.921875"/>
     <use xlink:href="#DejaVuSans-72" x="456.201172"/>
     <use xlink:href="#DejaVuSans-74" x="497.314453"/>
     <use xlink:href="#DejaVuSans-3a" x="536.523438"/>
     <use xlink:href="#DejaVuSans-20" x="570.214844"/>
     <use xlink:href="#DejaVuSans-4c" x="602.001953"/>
     <use xlink:href="#DejaVuSans-6f" x="655.964844"/>
     <use xlink:href="#DejaVuSans-67" x="717.146484"/>
     <use xlink:href="#DejaVuSans-69" x="780.623047"/>
     <use xlink:href="#DejaVuSans-73" x="808.40625"/>
     <use xlink:href="#DejaVuSans-74" x="860.505859"/>
     <use xlink:href="#DejaVuSans-69" x="899.714844"/>
     <use xlink:href="#DejaVuSans-63" x="927.498047"/>
     <use xlink:href="#DejaVuSans-20" x="982.478516"/>
     <use xlink:href="#DejaVuSans-52" x="1014.265625"/>
     <use xlink:href="#DejaVuSans-65" x="1079.248047"/>
     <use xlink:href="#DejaVuSans-67" x="1140.771484"/>
     <use xlink:href="#DejaVuSans-72" x="1204.248047"/>
     <use xlink:href="#DejaVuSans-65" x="1243.111328"/>
     <use xlink:href="#DejaVuSans-73" x="1304.634766"/>
     <use xlink:href="#DejaVuSans-73" x="1356.734375"/>
     <use xlink:href="#DejaVuSans-69" x="1408.833984"/>
     <use xlink:href="#DejaVuSans-6f" x="1436.617188"/>
     <use xlink:href="#DejaVuSans-6e" x="1497.798828"/>
    </g>
   </g>
   <g id="legend_1">
    <g id="patch_7">
     <path d="M 174.243437 239.078125 
L 261.916875 239.078125 
Q 263.916875 239.078125 263.916875 237.078125 
L 263.916875 208.721875 
Q 263.916875 206.721875 261.916875 206.721875 
L 174.243437 206.721875 
Q 172.243437 206.721875 172.243437 208.721875 
L 172.243437 237.078125 
Q 172.243437 239.078125 174.243437 239.078125 
z
" style="fill: #ffffff; opacity: 0.8; stroke: #cccccc; stroke-linejoin: miter"/>
    </g>
    <g id="line2d_27">
     <path d="M 176.243437 214.820312 
L 186.243437 214.820312 
L 196.243437 214.820312 
" style="fill: none; stroke: #1f77b4; stroke-width: 1.5; stroke-linecap: square"/>
    </g>
    <g id="text_16">
     <!-- Gain Curve -->
     <g transform="translate(204.243437 218.320312) scale(0.1 -0.1)">
      <use xlink:href="#DejaVuSans-47"/>
      <use xlink:href="#DejaVuSans-61" x="77.490234"/>
      <use xlink:href="#DejaVuSans-69" x="138.769531"/>
      <use xlink:href="#DejaVuSans-6e" x="166.552734"/>
      <use xlink:href="#DejaVuSans-20" x="229.931641"/>
      <use xlink:href="#DejaVuSans-43" x="261.71875"/>
      <use xlink:href="#DejaVuSans-75" x="331.542969"/>
      <use xlink:href="#DejaVuSans-72" x="394.921875"/>
      <use xlink:href="#DejaVuSans-76" x="436.035156"/>
      <use xlink:href="#DejaVuSans-65" x="495.214844"/>
     </g>
    </g>
    <g id="line2d_28">
     <path d="M 176.243437 229.498437 
L 186.243437 229.498437 
L 196.243437 229.498437 
" style="fill: none; stroke-dasharray: 7.4,3.2; stroke-dashoffset: 0; stroke: #808080; stroke-width: 2"/>
    </g>
    <g id="text_17">
     <!-- Baseline -->
     <g transform="translate(204.243437 232.998437) scale(0.1 -0.1)">
      <defs>
       <path id="DejaVuSans-42" d="M 1259 2228 
L 1259 519 
L 2272 519 
Q 2781 519 3026 730 
Q 3272 941 3272 1375 
Q 3272 1813 3026 2020 
Q 2781 2228 2272 2228 
L 1259 2228 
z
M 1259 4147 
L 1259 2741 
L 2194 2741 
Q 2656 2741 2882 2914 
Q 3109 3088 3109 3444 
Q 3109 3797 2882 3972 
Q 2656 4147 2194 4147 
L 1259 4147 
z
M 628 4666 
L 2241 4666 
Q 2963 4666 3353 4366 
Q 3744 4066 3744 3513 
Q 3744 3084 3544 2831 
Q 3344 2578 2956 2516 
Q 3422 2416 3680 2098 
Q 3938 1781 3938 1306 
Q 3938 681 3513 340 
Q 3088 0 2303 0 
L 628 0 
L 628 4666 
z
" transform="scale(0.015625)"/>
      </defs>
      <use xlink:href="#DejaVuSans-42"/>
      <use xlink:href="#DejaVuSans-61" x="68.603516"/>
      <use xlink:href="#DejaVuSans-73" x="129.882812"/>
      <use xlink:href="#DejaVuSans-65" x="181.982422"/>
      <use xlink:href="#DejaVuSans-6c" x="243.505859"/>
      <use xlink:href="#DejaVuSans-69" x="271.289062"/>
      <use xlink:href="#DejaVuSans-6e" x="299.072266"/>
      <use xlink:href="#DejaVuSans-65" x="362.451172"/>
     </g>
    </g>
   </g>
  </g>
 </g>
 <defs>
  <clipPath id="p65d2350612">
   <rect x="45.716875" y="22.318125" width="223.2" height="221.76"/>
  </clipPath>
 </defs>
</svg>
