<?xml version="1.0" encoding="utf-8" standalone="no"?>
<!DOCTYPE svg PUBLIC "-//W3C//DTD SVG 1.1//EN"
  "http://www.w3.org/Graphics/SVG/1.1/DTD/svg11.dtd">
<svg xmlns:xlink="http://www.w3.org/1999/xlink" width="276.116875pt" height="283.57pt" viewBox="0 0 276.116875 283.57" xmlns="http://www.w3.org/2000/svg" version="1.1">
 <metadata>
  <rdf:RDF xmlns:dc="http://purl.org/dc/elements/1.1/" xmlns:cc="http://creativecommons.org/ns#" xmlns:rdf="http://www.w3.org/1999/02/22-rdf-syntax-ns#">
   <cc:Work>
    <dc:type rdf:resource="http://purl.org/dc/dcmitype/StillImage"/>
    <dc:date>2025-08-24T22:00:08.337870</dc:date>
    <dc:format>image/svg+xml</dc:format>
    <dc:creator>
     <cc:Agent>
      <dc:title>Matplotlib v3.9.2, https://matplotlib.org/</dc:title>
     </cc:Agent>
    </dc:creator>
   </cc:Work>
  </rdf:RDF>
 </metadata>
 <defs>
  <style type="text/css">*{stroke-linejoin: round; stroke-linecap: butt}</style>
 </defs>
 <g id="figure_1">
  <g id="patch_1">
   <path d="M 0 283.57 
L 276.116875 283.57 
L 276.116875 0 
L 0 0 
z
" style="fill: #ffffff"/>
  </g>
  <g id="axes_1">
   <g id="patch_2">
    <path d="M 45.716875 244.078125 
L 268.916875 244.078125 
L 268.916875 22.318125 
L 45.716875 22.318125 
z
" style="fill: #ffffff"/>
   </g>
   <g id="matplotlib.axis_1">
    <g id="xtick_1">
     <g id="line2d_1">
      <path d="M 55.86233 244.078125 
L 55.86233 22.318125 
" clip-path="url(#p47685a98aa)" style="fill: none; stroke: #b0b0b0; stroke-width: 0.8; stroke-linecap: square"/>
     </g>
     <g id="line2d_2">
      <defs>
       <path id="m1cfa77aa66" d="M 0 0 
L 0 3.5 
" style="stroke: #000000; stroke-width: 0.8"/>
      </defs>
      <g>
       <use xlink:href="#m1cfa77aa66" x="55.86233" y="244.078125" style="stroke: #000000; stroke-width: 0.8"/>
      </g>
     </g>
     <g id="text_1">
      <!-- 0.0 -->
      <g transform="translate(47.910767 258.676562) scale(0.1 -0.1)">
       <defs>
        <path id="DejaVuSans-30" d="M 2034 4250 
Q 1547 4250 1301 3770 
Q 1056 3291 1056 2328 
Q 1056 1369 1301 889 
Q 1547 409 2034 409 
Q 2525 409 2770 889 
Q 3016 1369 3016 2328 
Q 3016 3291 2770 3770 
Q 2525 4250 2034 4250 
z
M 2034 4750 
Q 2819 4750 3233 4129 
Q 3647 3509 3647 2328 
Q 3647 1150 3233 529 
Q 2819 -91 2034 -91 
Q 1250 -91 836 529 
Q 422 1150 422 2328 
Q 422 3509 836 4129 
Q 1250 4750 2034 4750 
z
" transform="scale(0.015625)"/>
        <path id="DejaVuSans-2e" d="M 684 794 
L 1344 794 
L 1344 0 
L 684 0 
L 684 794 
z
" transform="scale(0.015625)"/>
       </defs>
       <use xlink:href="#DejaVuSans-30"/>
       <use xlink:href="#DejaVuSans-2e" x="63.623047"/>
       <use xlink:href="#DejaVuSans-30" x="95.410156"/>
      </g>
     </g>
    </g>
    <g id="xtick_2">
     <g id="line2d_3">
      <path d="M 96.444148 244.078125 
L 96.444148 22.318125 
" clip-path="url(#p47685a98aa)" style="fill: none; stroke: #b0b0b0; stroke-width: 0.8; stroke-linecap: square"/>
     </g>
     <g id="line2d_4">
      <g>
       <use xlink:href="#m1cfa77aa66" x="96.444148" y="244.078125" style="stroke: #000000; stroke-width: 0.8"/>
      </g>
     </g>
     <g id="text_2">
      <!-- 0.2 -->
      <g transform="translate(88.492585 258.676562) scale(0.1 -0.1)">
       <defs>
        <path id="DejaVuSans-32" d="M 1228 531 
L 3431 531 
L 3431 0 
L 469 0 
L 469 531 
Q 828 903 1448 1529 
Q 2069 2156 2228 2338 
Q 2531 2678 2651 2914 
Q 2772 3150 2772 3378 
Q 2772 3750 2511 3984 
Q 2250 4219 1831 4219 
Q 1534 4219 1204 4116 
Q 875 4013 500 3803 
L 500 4441 
Q 881 4594 1212 4672 
Q 1544 4750 1819 4750 
Q 2544 4750 2975 4387 
Q 3406 4025 3406 3419 
Q 3406 3131 3298 2873 
Q 3191 2616 2906 2266 
Q 2828 2175 2409 1742 
Q 1991 1309 1228 531 
z
" transform="scale(0.015625)"/>
       </defs>
       <use xlink:href="#DejaVuSans-30"/>
       <use xlink:href="#DejaVuSans-2e" x="63.623047"/>
       <use xlink:href="#DejaVuSans-32" x="95.410156"/>
      </g>
     </g>
    </g>
    <g id="xtick_3">
     <g id="line2d_5">
      <path d="M 137.025966 244.078125 
L 137.025966 22.318125 
" clip-path="url(#p47685a98aa)" style="fill: none; stroke: #b0b0b0; stroke-width: 0.8; stroke-linecap: square"/>
     </g>
     <g id="line2d_6">
      <g>
       <use xlink:href="#m1cfa77aa66" x="137.025966" y="244.078125" style="stroke: #000000; stroke-width: 0.8"/>
      </g>
     </g>
     <g id="text_3">
      <!-- 0.4 -->
      <g transform="translate(129.074403 258.676562) scale(0.1 -0.1)">
       <defs>
        <path id="DejaVuSans-34" d="M 2419 4116 
L 825 1625 
L 2419 1625 
L 2419 4116 
z
M 2253 4666 
L 3047 4666 
L 3047 1625 
L 3713 1625 
L 3713 1100 
L 3047 1100 
L 3047 0 
L 2419 0 
L 2419 1100 
L 313 1100 
L 313 1709 
L 2253 4666 
z
" transform="scale(0.015625)"/>
       </defs>
       <use xlink:href="#DejaVuSans-30"/>
       <use xlink:href="#DejaVuSans-2e" x="63.623047"/>
       <use xlink:href="#DejaVuSans-34" x="95.410156"/>
      </g>
     </g>
    </g>
    <g id="xtick_4">
     <g id="line2d_7">
      <path d="M 177.607784 244.078125 
L 177.607784 22.318125 
" clip-path="url(#p47685a98aa)" style="fill: none; stroke: #b0b0b0; stroke-width: 0.8; stroke-linecap: square"/>
     </g>
     <g id="line2d_8">
      <g>
       <use xlink:href="#m1cfa77aa66" x="177.607784" y="244.078125" style="stroke: #000000; stroke-width: 0.8"/>
      </g>
     </g>
     <g id="text_4">
      <!-- 0.6 -->
      <g transform="translate(169.656222 258.676562) scale(0.1 -0.1)">
       <defs>
        <path id="DejaVuSans-36" d="M 2113 2584 
Q 1688 2584 1439 2293 
Q 1191 2003 1191 1497 
Q 1191 994 1439 701 
Q 1688 409 2113 409 
Q 2538 409 2786 701 
Q 3034 994 3034 1497 
Q 3034 2003 2786 2293 
Q 2538 2584 2113 2584 
z
M 3366 4563 
L 3366 3988 
Q 3128 4100 2886 4159 
Q 2644 4219 2406 4219 
Q 1781 4219 1451 3797 
Q 1122 3375 1075 2522 
Q 1259 2794 1537 2939 
Q 1816 3084 2150 3084 
Q 2853 3084 3261 2657 
Q 3669 2231 3669 1497 
Q 3669 778 3244 343 
Q 2819 -91 2113 -91 
Q 1303 -91 875 529 
Q 447 1150 447 2328 
Q 447 3434 972 4092 
Q 1497 4750 2381 4750 
Q 2619 4750 2861 4703 
Q 3103 4656 3366 4563 
z
" transform="scale(0.015625)"/>
       </defs>
       <use xlink:href="#DejaVuSans-30"/>
       <use xlink:href="#DejaVuSans-2e" x="63.623047"/>
       <use xlink:href="#DejaVuSans-36" x="95.410156"/>
      </g>
     </g>
    </g>
    <g id="xtick_5">
     <g id="line2d_9">
      <path d="M 218.189602 244.078125 
L 218.189602 22.318125 
" clip-path="url(#p47685a98aa)" style="fill: none; stroke: #b0b0b0; stroke-width: 0.8; stroke-linecap: square"/>
     </g>
     <g id="line2d_10">
      <g>
       <use xlink:href="#m1cfa77aa66" x="218.189602" y="244.078125" style="stroke: #000000; stroke-width: 0.8"/>
      </g>
     </g>
     <g id="text_5">
      <!-- 0.8 -->
      <g transform="translate(210.23804 258.676562) scale(0.1 -0.1)">
       <defs>
        <path id="DejaVuSans-38" d="M 2034 2216 
Q 1584 2216 1326 1975 
Q 1069 1734 1069 1313 
Q 1069 891 1326 650 
Q 1584 409 2034 409 
Q 2484 409 2743 651 
Q 3003 894 3003 1313 
Q 3003 1734 2745 1975 
Q 2488 2216 2034 2216 
z
M 1403 2484 
Q 997 2584 770 2862 
Q 544 3141 544 3541 
Q 544 4100 942 4425 
Q 1341 4750 2034 4750 
Q 2731 4750 3128 4425 
Q 3525 4100 3525 3541 
Q 3525 3141 3298 2862 
Q 3072 2584 2669 2484 
Q 3125 2378 3379 2068 
Q 3634 1759 3634 1313 
Q 3634 634 3220 271 
Q 2806 -91 2034 -91 
Q 1263 -91 848 271 
Q 434 634 434 1313 
Q 434 1759 690 2068 
Q 947 2378 1403 2484 
z
M 1172 3481 
Q 1172 3119 1398 2916 
Q 1625 2713 2034 2713 
Q 2441 2713 2670 2916 
Q 2900 3119 2900 3481 
Q 2900 3844 2670 4047 
Q 2441 4250 2034 4250 
Q 1625 4250 1398 4047 
Q 1172 3844 1172 3481 
z
" transform="scale(0.015625)"/>
       </defs>
       <use xlink:href="#DejaVuSans-30"/>
       <use xlink:href="#DejaVuSans-2e" x="63.623047"/>
       <use xlink:href="#DejaVuSans-38" x="95.410156"/>
      </g>
     </g>
    </g>
    <g id="xtick_6">
     <g id="line2d_11">
      <path d="M 258.77142 244.078125 
L 258.77142 22.318125 
" clip-path="url(#p47685a98aa)" style="fill: none; stroke: #b0b0b0; stroke-width: 0.8; stroke-linecap: square"/>
     </g>
     <g id="line2d_12">
      <g>
       <use xlink:href="#m1cfa77aa66" x="258.77142" y="244.078125" style="stroke: #000000; stroke-width: 0.8"/>
      </g>
     </g>
     <g id="text_6">
      <!-- 1.0 -->
      <g transform="translate(250.819858 258.676562) scale(0.1 -0.1)">
       <defs>
        <path id="DejaVuSans-31" d="M 794 531 
L 1825 531 
L 1825 4091 
L 703 3866 
L 703 4441 
L 1819 4666 
L 2450 4666 
L 2450 531 
L 3481 531 
L 3481 0 
L 794 0 
L 794 531 
z
" transform="scale(0.015625)"/>
       </defs>
       <use xlink:href="#DejaVuSans-31"/>
       <use xlink:href="#DejaVuSans-2e" x="63.623047"/>
       <use xlink:href="#DejaVuSans-30" x="95.410156"/>
      </g>
     </g>
    </g>
    <g id="text_7">
     <!-- False Positive Rate -->
     <g transform="translate(101.557187 273.874375) scale(0.12 -0.12)">
      <defs>
       <path id="DejaVuSans-46" d="M 628 4666 
L 3309 4666 
L 3309 4134 
L 1259 4134 
L 1259 2759 
L 3109 2759 
L 3109 2228 
L 1259 2228 
L 1259 0 
L 628 0 
L 628 4666 
z
" transform="scale(0.015625)"/>
       <path id="DejaVuSans-61" d="M 2194 1759 
Q 1497 1759 1228 1600 
Q 959 1441 959 1056 
Q 959 750 1161 570 
Q 1363 391 1709 391 
Q 2188 391 2477 730 
Q 2766 1069 2766 1631 
L 2766 1759 
L 2194 1759 
z
M 3341 1997 
L 3341 0 
L 2766 0 
L 2766 531 
Q 2569 213 2275 61 
Q 1981 -91 1556 -91 
Q 1019 -91 701 211 
Q 384 513 384 1019 
Q 384 1609 779 1909 
Q 1175 2209 1959 2209 
L 2766 2209 
L 2766 2266 
Q 2766 2663 2505 2880 
Q 2244 3097 1772 3097 
Q 1472 3097 1187 3025 
Q 903 2953 641 2809 
L 641 3341 
Q 956 3463 1253 3523 
Q 1550 3584 1831 3584 
Q 2591 3584 2966 3190 
Q 3341 2797 3341 1997 
z
" transform="scale(0.015625)"/>
       <path id="DejaVuSans-6c" d="M 603 4863 
L 1178 4863 
L 1178 0 
L 603 0 
L 603 4863 
z
" transform="scale(0.015625)"/>
       <path id="DejaVuSans-73" d="M 2834 3397 
L 2834 2853 
Q 2591 2978 2328 3040 
Q 2066 3103 1784 3103 
Q 1356 3103 1142 2972 
Q 928 2841 928 2578 
Q 928 2378 1081 2264 
Q 1234 2150 1697 2047 
L 1894 2003 
Q 2506 1872 2764 1633 
Q 3022 1394 3022 966 
Q 3022 478 2636 193 
Q 2250 -91 1575 -91 
Q 1294 -91 989 -36 
Q 684 19 347 128 
L 347 722 
Q 666 556 975 473 
Q 1284 391 1588 391 
Q 1994 391 2212 530 
Q 2431 669 2431 922 
Q 2431 1156 2273 1281 
Q 2116 1406 1581 1522 
L 1381 1569 
Q 847 1681 609 1914 
Q 372 2147 372 2553 
Q 372 3047 722 3315 
Q 1072 3584 1716 3584 
Q 2034 3584 2315 3537 
Q 2597 3491 2834 3397 
z
" transform="scale(0.015625)"/>
       <path id="DejaVuSans-65" d="M 3597 1894 
L 3597 1613 
L 953 1613 
Q 991 1019 1311 708 
Q 1631 397 2203 397 
Q 2534 397 2845 478 
Q 3156 559 3463 722 
L 3463 178 
Q 3153 47 2828 -22 
Q 2503 -91 2169 -91 
Q 1331 -91 842 396 
Q 353 884 353 1716 
Q 353 2575 817 3079 
Q 1281 3584 2069 3584 
Q 2775 3584 3186 3129 
Q 3597 2675 3597 1894 
z
M 3022 2063 
Q 3016 2534 2758 2815 
Q 2500 3097 2075 3097 
Q 1594 3097 1305 2825 
Q 1016 2553 972 2059 
L 3022 2063 
z
" transform="scale(0.015625)"/>
       <path id="DejaVuSans-20" transform="scale(0.015625)"/>
       <path id="DejaVuSans-50" d="M 1259 4147 
L 1259 2394 
L 2053 2394 
Q 2494 2394 2734 2622 
Q 2975 2850 2975 3272 
Q 2975 3691 2734 3919 
Q 2494 4147 2053 4147 
L 1259 4147 
z
M 628 4666 
L 2053 4666 
Q 2838 4666 3239 4311 
Q 3641 3956 3641 3272 
Q 3641 2581 3239 2228 
Q 2838 1875 2053 1875 
L 1259 1875 
L 1259 0 
L 628 0 
L 628 4666 
z
" transform="scale(0.015625)"/>
       <path id="DejaVuSans-6f" d="M 1959 3097 
Q 1497 3097 1228 2736 
Q 959 2375 959 1747 
Q 959 1119 1226 758 
Q 1494 397 1959 397 
Q 2419 397 2687 759 
Q 2956 1122 2956 1747 
Q 2956 2369 2687 2733 
Q 2419 3097 1959 3097 
z
M 1959 3584 
Q 2709 3584 3137 3096 
Q 3566 2609 3566 1747 
Q 3566 888 3137 398 
Q 2709 -91 1959 -91 
Q 1206 -91 779 398 
Q 353 888 353 1747 
Q 353 2609 779 3096 
Q 1206 3584 1959 3584 
z
" transform="scale(0.015625)"/>
       <path id="DejaVuSans-69" d="M 603 3500 
L 1178 3500 
L 1178 0 
L 603 0 
L 603 3500 
z
M 603 4863 
L 1178 4863 
L 1178 4134 
L 603 4134 
L 603 4863 
z
" transform="scale(0.015625)"/>
       <path id="DejaVuSans-74" d="M 1172 4494 
L 1172 3500 
L 2356 3500 
L 2356 3053 
L 1172 3053 
L 1172 1153 
Q 1172 725 1289 603 
Q 1406 481 1766 481 
L 2356 481 
L 2356 0 
L 1766 0 
Q 1100 0 847 248 
Q 594 497 594 1153 
L 594 3053 
L 172 3053 
L 172 3500 
L 594 3500 
L 594 4494 
L 1172 4494 
z
" transform="scale(0.015625)"/>
       <path id="DejaVuSans-76" d="M 191 3500 
L 800 3500 
L 1894 563 
L 2988 3500 
L 3597 3500 
L 2284 0 
L 1503 0 
L 191 3500 
z
" transform="scale(0.015625)"/>
       <path id="DejaVuSans-52" d="M 2841 2188 
Q 3044 2119 3236 1894 
Q 3428 1669 3622 1275 
L 4263 0 
L 3584 0 
L 2988 1197 
Q 2756 1666 2539 1819 
Q 2322 1972 1947 1972 
L 1259 1972 
L 1259 0 
L 628 0 
L 628 4666 
L 2053 4666 
Q 2853 4666 3247 4331 
Q 3641 3997 3641 3322 
Q 3641 2881 3436 2590 
Q 3231 2300 2841 2188 
z
M 1259 4147 
L 1259 2491 
L 2053 2491 
Q 2509 2491 2742 2702 
Q 2975 2913 2975 3322 
Q 2975 3731 2742 3939 
Q 2509 4147 2053 4147 
L 1259 4147 
z
" transform="scale(0.015625)"/>
      </defs>
      <use xlink:href="#DejaVuSans-46"/>
      <use xlink:href="#DejaVuSans-61" x="48.394531"/>
      <use xlink:href="#DejaVuSans-6c" x="109.673828"/>
      <use xlink:href="#DejaVuSans-73" x="137.457031"/>
      <use xlink:href="#DejaVuSans-65" x="189.556641"/>
      <use xlink:href="#DejaVuSans-20" x="251.080078"/>
      <use xlink:href="#DejaVuSans-50" x="282.867188"/>
      <use xlink:href="#DejaVuSans-6f" x="339.544922"/>
      <use xlink:href="#DejaVuSans-73" x="400.726562"/>
      <use xlink:href="#DejaVuSans-69" x="452.826172"/>
      <use xlink:href="#DejaVuSans-74" x="480.609375"/>
      <use xlink:href="#DejaVuSans-69" x="519.818359"/>
      <use xlink:href="#DejaVuSans-76" x="547.601562"/>
      <use xlink:href="#DejaVuSans-65" x="606.78125"/>
      <use xlink:href="#DejaVuSans-20" x="668.304688"/>
      <use xlink:href="#DejaVuSans-52" x="700.091797"/>
      <use xlink:href="#DejaVuSans-61" x="767.324219"/>
      <use xlink:href="#DejaVuSans-74" x="828.603516"/>
      <use xlink:href="#DejaVuSans-65" x="867.8125"/>
     </g>
    </g>
   </g>
   <g id="matplotlib.axis_2">
    <g id="ytick_1">
     <g id="line2d_13">
      <path d="M 45.716875 233.998125 
L 268.916875 233.998125 
" clip-path="url(#p47685a98aa)" style="fill: none; stroke: #b0b0b0; stroke-width: 0.8; stroke-linecap: square"/>
     </g>
     <g id="line2d_14">
      <defs>
       <path id="m12495d7124" d="M 0 0 
L -3.5 0 
" style="stroke: #000000; stroke-width: 0.8"/>
      </defs>
      <g>
       <use xlink:href="#m12495d7124" x="45.716875" y="233.998125" style="stroke: #000000; stroke-width: 0.8"/>
      </g>
     </g>
     <g id="text_8">
      <!-- 0.0 -->
      <g transform="translate(22.81375 237.797344) scale(0.1 -0.1)">
       <use xlink:href="#DejaVuSans-30"/>
       <use xlink:href="#DejaVuSans-2e" x="63.623047"/>
       <use xlink:href="#DejaVuSans-30" x="95.410156"/>
      </g>
     </g>
    </g>
    <g id="ytick_2">
     <g id="line2d_15">
      <path d="M 45.716875 193.678125 
L 268.916875 193.678125 
" clip-path="url(#p47685a98aa)" style="fill: none; stroke: #b0b0b0; stroke-width: 0.8; stroke-linecap: square"/>
     </g>
     <g id="line2d_16">
      <g>
       <use xlink:href="#m12495d7124" x="45.716875" y="193.678125" style="stroke: #000000; stroke-width: 0.8"/>
      </g>
     </g>
     <g id="text_9">
      <!-- 0.2 -->
      <g transform="translate(22.81375 197.477344) scale(0.1 -0.1)">
       <use xlink:href="#DejaVuSans-30"/>
       <use xlink:href="#DejaVuSans-2e" x="63.623047"/>
       <use xlink:href="#DejaVuSans-32" x="95.410156"/>
      </g>
     </g>
    </g>
    <g id="ytick_3">
     <g id="line2d_17">
      <path d="M 45.716875 153.358125 
L 268.916875 153.358125 
" clip-path="url(#p47685a98aa)" style="fill: none; stroke: #b0b0b0; stroke-width: 0.8; stroke-linecap: square"/>
     </g>
     <g id="line2d_18">
      <g>
       <use xlink:href="#m12495d7124" x="45.716875" y="153.358125" style="stroke: #000000; stroke-width: 0.8"/>
      </g>
     </g>
     <g id="text_10">
      <!-- 0.4 -->
      <g transform="translate(22.81375 157.157344) scale(0.1 -0.1)">
       <use xlink:href="#DejaVuSans-30"/>
       <use xlink:href="#DejaVuSans-2e" x="63.623047"/>
       <use xlink:href="#DejaVuSans-34" x="95.410156"/>
      </g>
     </g>
    </g>
    <g id="ytick_4">
     <g id="line2d_19">
      <path d="M 45.716875 113.038125 
L 268.916875 113.038125 
" clip-path="url(#p47685a98aa)" style="fill: none; stroke: #b0b0b0; stroke-width: 0.8; stroke-linecap: square"/>
     </g>
     <g id="line2d_20">
      <g>
       <use xlink:href="#m12495d7124" x="45.716875" y="113.038125" style="stroke: #000000; stroke-width: 0.8"/>
      </g>
     </g>
     <g id="text_11">
      <!-- 0.6 -->
      <g transform="translate(22.81375 116.837344) scale(0.1 -0.1)">
       <use xlink:href="#DejaVuSans-30"/>
       <use xlink:href="#DejaVuSans-2e" x="63.623047"/>
       <use xlink:href="#DejaVuSans-36" x="95.410156"/>
      </g>
     </g>
    </g>
    <g id="ytick_5">
     <g id="line2d_21">
      <path d="M 45.716875 72.718125 
L 268.916875 72.718125 
" clip-path="url(#p47685a98aa)" style="fill: none; stroke: #b0b0b0; stroke-width: 0.8; stroke-linecap: square"/>
     </g>
     <g id="line2d_22">
      <g>
       <use xlink:href="#m12495d7124" x="45.716875" y="72.718125" style="stroke: #000000; stroke-width: 0.8"/>
      </g>
     </g>
     <g id="text_12">
      <!-- 0.8 -->
      <g transform="translate(22.81375 76.517344) scale(0.1 -0.1)">
       <use xlink:href="#DejaVuSans-30"/>
       <use xlink:href="#DejaVuSans-2e" x="63.623047"/>
       <use xlink:href="#DejaVuSans-38" x="95.410156"/>
      </g>
     </g>
    </g>
    <g id="ytick_6">
     <g id="line2d_23">
      <path d="M 45.716875 32.398125 
L 268.916875 32.398125 
" clip-path="url(#p47685a98aa)" style="fill: none; stroke: #b0b0b0; stroke-width: 0.8; stroke-linecap: square"/>
     </g>
     <g id="line2d_24">
      <g>
       <use xlink:href="#m12495d7124" x="45.716875" y="32.398125" style="stroke: #000000; stroke-width: 0.8"/>
      </g>
     </g>
     <g id="text_13">
      <!-- 1.0 -->
      <g transform="translate(22.81375 36.197344) scale(0.1 -0.1)">
       <use xlink:href="#DejaVuSans-31"/>
       <use xlink:href="#DejaVuSans-2e" x="63.623047"/>
       <use xlink:href="#DejaVuSans-30" x="95.410156"/>
      </g>
     </g>
    </g>
    <g id="text_14">
     <!-- True Positive Rate -->
     <g transform="translate(16.318125 186.63375) rotate(-90) scale(0.12 -0.12)">
      <defs>
       <path id="DejaVuSans-54" d="M -19 4666 
L 3928 4666 
L 3928 4134 
L 2272 4134 
L 2272 0 
L 1638 0 
L 1638 4134 
L -19 4134 
L -19 4666 
z
" transform="scale(0.015625)"/>
       <path id="DejaVuSans-72" d="M 2631 2963 
Q 2534 3019 2420 3045 
Q 2306 3072 2169 3072 
Q 1681 3072 1420 2755 
Q 1159 2438 1159 1844 
L 1159 0 
L 581 0 
L 581 3500 
L 1159 3500 
L 1159 2956 
Q 1341 3275 1631 3429 
Q 1922 3584 2338 3584 
Q 2397 3584 2469 3576 
Q 2541 3569 2628 3553 
L 2631 2963 
z
" transform="scale(0.015625)"/>
       <path id="DejaVuSans-75" d="M 544 1381 
L 544 3500 
L 1119 3500 
L 1119 1403 
Q 1119 906 1312 657 
Q 1506 409 1894 409 
Q 2359 409 2629 706 
Q 2900 1003 2900 1516 
L 2900 3500 
L 3475 3500 
L 3475 0 
L 2900 0 
L 2900 538 
Q 2691 219 2414 64 
Q 2138 -91 1772 -91 
Q 1169 -91 856 284 
Q 544 659 544 1381 
z
M 1991 3584 
L 1991 3584 
z
" transform="scale(0.015625)"/>
      </defs>
      <use xlink:href="#DejaVuSans-54"/>
      <use xlink:href="#DejaVuSans-72" x="46.333984"/>
      <use xlink:href="#DejaVuSans-75" x="87.447266"/>
      <use xlink:href="#DejaVuSans-65" x="150.826172"/>
      <use xlink:href="#DejaVuSans-20" x="212.349609"/>
      <use xlink:href="#DejaVuSans-50" x="244.136719"/>
      <use xlink:href="#DejaVuSans-6f" x="300.814453"/>
      <use xlink:href="#DejaVuSans-73" x="361.996094"/>
      <use xlink:href="#DejaVuSans-69" x="414.095703"/>
      <use xlink:href="#DejaVuSans-74" x="441.878906"/>
      <use xlink:href="#DejaVuSans-69" x="481.087891"/>
      <use xlink:href="#DejaVuSans-76" x="508.871094"/>
      <use xlink:href="#DejaVuSans-65" x="568.050781"/>
      <use xlink:href="#DejaVuSans-20" x="629.574219"/>
      <use xlink:href="#DejaVuSans-52" x="661.361328"/>
      <use xlink:href="#DejaVuSans-61" x="728.59375"/>
      <use xlink:href="#DejaVuSans-74" x="789.873047"/>
      <use xlink:href="#DejaVuSans-65" x="829.082031"/>
     </g>
    </g>
   </g>
   <g id="line2d_25">
    <path d="M 55.86233 233.998125 
L 55.963249 229.215015 
L 55.983433 229.215015 
L 56.084353 222.992917 
L 56.104537 222.992917 
L 56.205456 218.189539 
L 56.22564 218.189539 
L 56.32656 215.534508 
L 56.346744 215.534508 
L 56.447664 211.055409 
L 56.488032 211.055409 
L 56.588951 209.677224 
L 56.609135 209.677224 
L 56.710055 207.609948 
L 56.770607 207.508611 
L 56.871526 205.562939 
L 56.89171 205.562939 
L 56.99263 204.205022 
L 57.032998 204.205022 
L 57.133917 203.191651 
L 57.154101 203.191651 
L 57.255021 201.671594 
L 57.275205 201.671594 
L 57.376125 199.766457 
L 57.396309 199.766457 
L 57.497228 197.618111 
L 57.537596 197.618111 
L 57.638516 197.010088 
L 57.6587 197.010088 
L 57.759619 195.733241 
L 57.779803 195.733241 
L 57.880723 194.618533 
L 57.900907 194.618533 
L 58.001827 192.956605 
L 58.062378 192.895803 
L 58.163298 191.841897 
L 58.203666 191.841897 
L 58.304586 189.835423 
L 58.32477 189.835423 
L 58.425689 188.68018 
L 58.445873 188.68018 
L 58.546793 187.849216 
L 58.566977 187.849216 
L 58.667896 186.572368 
L 58.68808 186.572368 
L 58.789 185.680602 
L 58.829368 185.680602 
L 58.930288 184.160546 
L 58.950471 184.160546 
L 59.051391 183.390384 
L 59.091759 183.309314 
L 59.192679 182.154072 
L 59.233047 182.052734 
L 59.333966 181.160968 
L 59.35415 181.160968 
L 59.45507 180.735352 
L 59.475254 180.735352 
L 59.576173 179.600377 
L 59.616541 179.49904 
L 59.717461 178.688343 
L 59.737645 178.688343 
L 59.838565 177.69524 
L 59.878932 177.674972 
L 59.979852 177.208822 
L 60.02022 177.188554 
L 60.12114 176.621067 
L 60.141324 176.621067 
L 60.242243 174.796999 
L 60.262427 174.796999 
L 60.363347 174.371383 
L 60.403715 174.330848 
L 60.504634 173.662024 
L 60.565186 173.601221 
L 60.666106 173.074269 
L 60.706474 173.074269 
L 60.807393 171.635282 
L 60.847761 171.57448 
L 60.908313 171.371806 
L 60.968865 171.371806 
L 61.069785 170.540841 
L 61.110152 170.540841 
L 61.211072 169.912551 
L 61.25144 169.831482 
L 61.35236 169.385599 
L 61.412911 169.284262 
L 61.513831 168.554635 
L 61.594567 168.493832 
L 61.695487 167.602066 
L 61.756038 167.500729 
L 61.856958 166.872439 
L 61.877142 166.872439 
L 61.978062 166.467091 
L 61.998246 166.467091 
L 62.099165 165.636126 
L 62.139533 165.575324 
L 62.240453 164.724093 
L 62.280821 164.66329 
L 62.38174 163.791791 
L 62.422108 163.751257 
L 62.523028 162.494677 
L 62.543212 162.494677 
L 62.603764 162.150131 
L 62.684499 162.129863 
L 62.765235 161.60291 
L 62.805603 161.60291 
L 62.886339 160.873283 
L 62.967074 160.812481 
L 63.067994 160.50847 
L 63.168914 160.407133 
L 63.269833 159.88018 
L 63.310201 159.88018 
L 63.411121 159.292425 
L 63.431305 159.292425 
L 63.532225 158.6236 
L 63.572592 158.522263 
L 63.673512 157.873706 
L 63.71388 157.772368 
L 63.8148 157.306218 
L 63.875351 157.204881 
L 63.976271 156.515789 
L 64.036823 156.495521 
L 64.117559 156.150975 
L 64.157927 156.150975 
L 64.258846 155.725359 
L 64.299214 155.725359 
L 64.400134 155.340278 
L 64.440502 155.299744 
L 64.541421 155.076802 
L 64.581789 154.975465 
L 64.682709 154.529582 
L 64.702893 154.529582 
L 64.803812 153.921559 
L 64.823996 153.921559 
L 64.904732 153.394606 
L 64.965284 153.394606 
L 65.066204 152.624444 
L 65.126755 152.523107 
L 65.227675 152.178561 
L 65.328595 152.097492 
L 65.429514 151.530004 
L 65.469882 151.428667 
L 65.570802 150.719307 
L 65.590986 150.719307 
L 65.691906 150.496366 
L 65.732273 150.455831 
L 65.833193 150.030215 
L 65.893745 150.030215 
L 65.994665 149.462727 
L 66.055216 149.401925 
L 66.156136 148.976309 
L 66.257056 148.89524 
L 66.337791 148.368287 
L 66.418527 148.348019 
L 66.519447 147.821067 
L 66.579999 147.739997 
L 66.680918 147.253579 
L 66.721286 147.213044 
L 66.822206 146.888765 
L 66.882758 146.787428 
L 66.983677 146.057801 
L 67.044229 145.996999 
L 67.145149 145.591651 
L 67.225885 145.530848 
L 67.326804 145.024163 
L 67.40754 144.963361 
L 67.50846 144.598547 
L 67.589195 144.49721 
L 67.690115 144.132397 
L 67.710299 144.132397 
L 67.811219 143.767583 
L 67.831403 143.767583 
L 67.932322 143.463572 
L 67.97269 143.40277 
L 68.07361 143.159561 
L 68.113978 143.078491 
L 68.214897 142.551538 
L 68.255265 142.450201 
L 68.356185 142.085387 
L 68.396553 141.98405 
L 68.497472 141.598969 
L 68.53784 141.497632 
L 68.63876 140.950412 
L 68.679128 140.909877 
L 68.780047 140.34239 
L 68.820415 140.34239 
L 68.921335 139.511425 
L 68.981887 139.470891 
L 69.062623 139.146612 
L 69.163542 139.08581 
L 69.264462 138.822333 
L 69.325014 138.802066 
L 69.425933 138.37645 
L 69.486485 138.275113 
L 69.587405 138.194043 
L 69.607589 138.194043 
L 69.708508 137.504951 
L 69.76906 137.464416 
L 69.86998 137.140138 
L 69.890164 137.140138 
L 69.991084 136.815859 
L 70.011267 136.815859 
L 70.112187 136.471313 
L 70.172739 136.369976 
L 70.273659 136.167302 
L 70.314026 136.106499 
L 70.414946 135.741686 
L 70.43513 135.741686 
L 70.53605 135.275535 
L 70.697521 135.174198 
L 70.798441 134.789117 
L 70.879177 134.708048 
L 70.939728 134.464839 
L 71.121384 134.363501 
L 71.222304 134.018955 
L 71.282855 133.937886 
L 71.363591 133.694677 
L 71.424143 133.654142 
L 71.525063 132.944782 
L 71.585614 132.944782 
L 71.686534 132.458364 
L 71.848005 132.377295 
L 71.948925 131.992214 
L 71.969109 131.992214 
L 72.049845 131.769272 
L 72.130581 131.70847 
L 72.211316 131.222052 
L 72.33242 131.120715 
L 72.43334 130.796436 
L 72.493891 130.695099 
L 72.594811 130.492425 
L 72.635179 130.431623 
L 72.736099 130.188414 
L 72.816834 130.107344 
L 72.917754 129.8236 
L 72.978306 129.762798 
L 73.079225 129.093973 
L 73.099409 129.093973 
L 73.200329 128.810229 
L 73.240697 128.708892 
L 73.341617 128.506218 
L 73.361801 128.506218 
L 73.442536 128.121137 
L 73.56364 128.040067 
L 73.66456 127.736056 
L 73.725111 127.695521 
L 73.826031 127.209103 
L 73.906767 127.168568 
L 74.007686 126.722685 
L 74.148974 126.621348 
L 74.209526 126.216 
L 74.330629 126.155197 
L 74.431549 125.628245 
L 74.552653 125.547175 
L 74.653572 125.182361 
L 74.673756 125.182361 
L 74.734308 124.858083 
L 74.815044 124.777013 
L 74.915963 124.655409 
L 74.976515 124.554072 
L 75.077435 124.33113 
L 75.198539 124.25006 
L 75.299458 123.763642 
L 75.319642 123.763642 
L 75.36001 123.560968 
L 75.481114 123.459631 
L 75.582033 123.338026 
L 75.602217 123.338026 
L 75.703137 122.730004 
L 75.763689 122.669202 
L 75.844424 122.547597 
L 75.92516 122.44626 
L 76.02608 122.223319 
L 76.046264 122.223319 
L 76.147183 121.959842 
L 76.308655 121.858505 
L 76.308655 121.838238 
L 76.510494 121.757168 
L 76.611414 121.372087 
L 76.631598 121.372087 
L 76.69215 120.946471 
L 76.793069 120.845134 
L 76.893989 120.338449 
L 76.954541 120.297914 
L 77.05546 119.811496 
L 77.116012 119.750694 
L 77.216932 119.446682 
L 77.2573 119.365613 
L 77.35822 119.203473 
L 77.378403 119.203473 
L 77.479323 118.737323 
L 77.580243 118.635986 
L 77.681162 118.271172 
L 77.741714 118.169835 
L 77.82245 117.926626 
L 77.883002 117.845556 
L 77.983921 117.379406 
L 78.004105 117.379406 
L 78.105025 116.629511 
L 78.185761 116.548442 
L 78.28668 116.345768 
L 78.327048 116.3255 
L 78.427968 116.062024 
L 78.528888 115.960687 
L 78.609623 115.636408 
L 78.750911 115.575606 
L 78.811463 115.413466 
L 78.972934 115.312129 
L 79.073854 115.089188 
L 79.194958 114.987851 
L 79.295877 114.866246 
L 79.316061 114.866246 
L 79.416981 114.562235 
L 79.497717 114.460898 
L 79.578452 114.359561 
L 79.71974 114.258224 
L 79.820659 114.075817 
L 79.901395 113.994747 
L 80.002315 113.711003 
L 80.062867 113.650201 
L 80.163786 113.467794 
L 80.204154 113.467794 
L 80.305074 113.082713 
L 80.38581 112.981376 
L 80.486729 112.63683 
L 80.628017 112.535493 
L 80.728937 112.251749 
L 80.809672 112.150412 
L 80.890408 111.947738 
L 81.011512 111.846401 
L 81.112431 111.724796 
L 81.193167 111.663994 
L 81.273903 111.38025 
L 81.374822 111.339715 
L 81.455558 111.137041 
L 81.51611 111.116774 
L 81.61703 110.691158 
L 81.657398 110.670891 
L 81.758317 110.12367 
L 81.778501 110.12367 
L 81.879421 109.900729 
L 81.939973 109.799392 
L 82.040892 109.556183 
L 82.202364 109.475113 
L 82.303283 109.150834 
L 82.363835 109.090032 
L 82.464755 108.867091 
L 82.565675 108.786021 
L 82.666594 108.421207 
L 82.727146 108.31987 
L 82.828066 108.036126 
L 82.908801 107.995592 
L 83.009721 107.509174 
L 83.070273 107.428104 
L 83.171193 107.205162 
L 83.272112 107.124093 
L 83.332664 106.982221 
L 83.453768 106.880884 
L 83.554687 106.759279 
L 83.655607 106.698477 
L 83.695975 106.495803 
L 83.817078 106.455268 
L 83.917998 106.130989 
L 84.018918 106.029652 
L 84.099654 105.786443 
L 84.240941 105.685106 
L 84.341861 105.42163 
L 84.44278 105.34056 
L 84.483148 105.178421 
L 84.604252 105.097351 
L 84.705172 104.894677 
L 84.826275 104.833874 
L 84.927195 104.469061 
L 85.048298 104.367724 
L 85.10885 104.205585 
L 85.189586 104.104247 
L 85.270322 103.820504 
L 85.31069 103.820504 
L 85.411609 103.45569 
L 85.512529 103.354353 
L 85.573081 103.192214 
L 85.674 103.131411 
L 85.77492 102.989539 
L 85.815288 102.949005 
L 85.916208 102.381517 
L 85.976759 102.300447 
L 86.057495 102.097773 
L 86.178599 101.996436 
L 86.279518 101.834297 
L 86.501542 101.73296 
L 86.602461 101.510018 
L 86.642829 101.469483 
L 86.743749 101.327611 
L 86.844669 101.246542 
L 86.945588 100.861461 
L 87.026324 100.780391 
L 87.10706 100.577717 
L 87.187795 100.516915 
L 87.288715 100.39531 
L 87.329083 100.293973 
L 87.430003 100.050764 
L 87.530922 99.989962 
L 87.591474 99.868357 
L 87.793314 99.76702 
L 87.894233 99.645416 
L 87.954785 99.544079 
L 88.055705 99.179265 
L 88.13644 99.158998 
L 88.23736 98.895521 
L 88.277728 98.854986 
L 88.358464 98.67258 
L 88.519935 98.571243 
L 88.600671 98.490173 
L 88.741958 98.388836 
L 88.842878 98.307766 
L 88.943798 98.226696 
L 89.044717 98.024022 
L 89.085085 97.942953 
L 89.186005 97.659209 
L 89.307109 97.578139 
L 89.408028 97.355197 
L 89.46858 97.274128 
L 89.529132 97.152523 
L 89.670419 97.051186 
L 89.730971 96.807977 
L 89.872259 96.70664 
L 89.973178 96.503966 
L 90.13465 96.422896 
L 90.23557 96.321559 
L 90.316305 96.220222 
L 90.417225 95.936478 
L 90.659432 95.835141 
L 90.740168 95.652734 
L 90.881455 95.551397 
L 90.982375 95.267654 
L 91.083295 95.166316 
L 91.143847 95.044712 
L 91.345686 94.943375 
L 91.446606 94.760968 
L 91.587893 94.679898 
L 91.688813 94.35562 
L 91.708997 94.35562 
L 91.769549 94.031341 
L 91.910836 93.930004 
L 91.991572 93.788132 
L 92.112675 93.686795 
L 92.213595 93.504388 
L 92.354883 93.423319 
L 92.455802 93.342249 
L 92.69801 93.240912 
L 92.798929 93.09904 
L 92.899849 93.01797 
L 92.899849 92.957168 
L 93.020952 92.957168 
L 93.121872 92.632889 
L 93.222792 92.572087 
L 93.303528 92.308611 
L 93.586103 92.207273 
L 93.687022 91.882995 
L 93.868678 91.781658 
L 93.969597 91.457379 
L 94.050333 91.356042 
L 94.131069 91.193903 
L 94.272356 91.092566 
L 94.353092 91.011496 
L 94.595299 90.930426 
L 94.696219 90.322404 
L 94.776955 90.241334 
L 94.85769 90.018392 
L 95.099898 89.917055 
L 95.140266 89.754916 
L 95.261369 89.754916 
L 95.362289 89.41037 
L 95.62468 89.309033 
L 95.705416 89.227963 
L 95.786151 89.146893 
L 95.887071 88.964487 
L 96.068727 88.883417 
L 96.169646 88.619941 
L 96.331118 88.518604 
L 96.432037 88.376732 
L 96.512773 88.315929 
L 96.593509 88.07272 
L 96.694429 87.971383 
L 96.75498 87.768709 
L 96.8559 87.707907 
L 96.95682 87.5255 
L 97.178843 87.44443 
L 97.279763 87.282291 
L 97.400866 87.221489 
L 97.501786 86.917478 
L 97.643073 86.81614 
L 97.723809 86.572931 
L 97.824729 86.491862 
L 97.925649 86.370257 
L 98.08712 86.26892 
L 98.18804 86.167583 
L 98.309143 86.106781 
L 98.410063 85.883839 
L 98.733006 85.782502 
L 98.813742 85.559561 
L 98.874293 85.498758 
L 98.975213 85.215015 
L 99.21742 85.113677 
L 99.31834 84.992073 
L 99.479811 84.890736 
L 99.580731 84.627259 
L 99.742203 84.566457 
L 99.78257 84.46512 
L 99.903674 84.444853 
L 99.98441 84.221911 
L 100.105513 84.161109 
L 100.166065 83.958435 
L 100.246801 83.897632 
L 100.246801 83.796295 
L 100.489008 83.715226 
L 100.589928 83.451749 
L 100.771583 83.37068 
L 100.832135 83.269342 
L 100.933055 83.188273 
L 101.033974 82.965331 
L 101.134894 82.863994 
L 101.235814 82.701855 
L 101.276182 82.701855 
L 101.377101 82.458646 
L 101.558757 82.357309 
L 101.639492 82.255972 
L 101.760596 82.174902 
L 101.861516 81.992495 
L 101.922067 81.972228 
L 102.022987 81.830356 
L 102.164275 81.749286 
L 102.24501 81.647949 
L 102.34593 81.607414 
L 102.44685 81.425007 
L 102.527586 81.32367 
L 102.628505 81.181798 
L 102.729425 81.100729 
L 102.830345 80.999392 
L 102.991816 80.918322 
L 103.072552 80.77645 
L 103.254207 80.675113 
L 103.334943 80.553509 
L 103.415679 80.472439 
L 103.415679 80.411637 
L 103.617518 80.391369 
L 103.698254 80.168428 
L 103.819357 80.067091 
L 103.920277 79.925219 
L 104.1423 79.823882 
L 104.24322 79.68201 
L 104.364324 79.60094 
L 104.424875 79.418533 
L 104.505611 79.337463 
L 104.606531 79.114522 
L 104.626715 79.114522 
L 104.727634 78.932115 
L 104.990025 78.830778 
L 105.070761 78.749708 
L 105.252417 78.688906 
L 105.353336 78.465965 
L 105.494624 78.364627 
L 105.57536 78.303825 
L 105.837751 78.202488 
L 105.857935 78.141686 
L 105.979038 78.141686 
L 105.999222 77.959279 
L 106.14051 77.878209 
L 106.241429 77.553931 
L 106.503821 77.452594 
L 106.544188 77.412059 
L 106.645108 77.330989 
L 106.746028 77.148582 
L 106.968051 77.047245 
L 106.968051 77.026978 
L 107.230442 76.925641 
L 107.311178 76.844571 
L 107.412098 76.824304 
L 107.452465 76.62163 
L 107.613937 76.520292 
L 107.714857 76.317618 
L 107.876328 76.216281 
L 107.957064 75.99334 
L 108.017616 75.952805 
L 108.118535 75.750131 
L 108.522214 75.689328 
L 108.582766 75.587991 
L 108.703869 75.486654 
L 108.784605 75.162376 
L 108.986444 75.061038 
L 109.087364 74.838097 
L 109.228652 74.757027 
L 109.309387 74.65569 
L 109.470859 74.57462 
L 109.551595 74.493551 
L 109.612146 74.493551 
L 109.692882 74.230074 
L 109.83417 74.149005 
L 109.894722 73.905796 
L 110.197481 73.804459 
L 110.2984 73.581517 
L 110.560791 73.48018 
L 110.661711 73.236971 
L 111.125941 73.135634 
L 111.226861 73.014029 
L 111.408517 72.93296 
L 111.408517 72.811355 
L 111.590172 72.710018 
L 111.590172 72.669483 
L 111.771827 72.588414 
L 111.872747 72.324937 
L 112.014035 72.2236 
L 112.114954 72.122263 
L 112.377345 72.020926 
L 112.437897 71.919589 
L 112.76084 71.838519 
L 112.821392 71.737182 
L 113.043415 71.656112 
L 113.124151 71.392636 
L 113.42691 71.291299 
L 113.447094 71.189962 
L 113.729669 71.129159 
L 113.810405 70.926485 
L 113.89114 70.926485 
L 113.99206 70.663009 
L 114.173716 70.561672 
L 114.274635 70.460335 
L 114.355371 70.399532 
L 114.355371 70.33873 
L 114.678314 70.318463 
L 114.75905 70.176591 
L 114.839785 70.075254 
L 114.940705 69.933382 
L 115.102177 69.852312 
L 115.12236 69.750975 
L 115.364568 69.649638 
L 115.445303 69.426696 
L 115.869166 69.325359 
L 115.869166 69.305092 
L 116.35358 69.203755 
L 116.4545 69.061883 
L 116.55542 68.980813 
L 116.656339 68.899744 
L 117.12057 68.798406 
L 117.140754 68.717337 
L 117.302225 68.636267 
L 117.362777 68.433593 
L 117.524249 68.332256 
L 117.625168 68.190384 
L 117.766456 68.089047 
L 117.766456 68.068779 
L 117.988479 68.028245 
L 118.049031 67.866105 
L 118.25087 67.82557 
L 118.331606 67.683699 
L 118.493077 67.582361 
L 118.493077 67.541827 
L 118.775653 67.460757 
L 118.856388 67.339152 
L 119.038044 67.237815 
L 119.138963 67.116211 
L 119.340803 67.014874 
L 119.421538 66.873002 
L 119.562826 66.771665 
L 119.603194 66.670328 
L 119.744481 66.589258 
L 119.845401 66.447386 
L 120.188528 66.346049 
L 120.269264 66.305514 
L 120.511471 66.204177 
L 120.612391 66.001503 
L 120.672942 65.981235 
L 120.773862 65.677224 
L 120.91515 65.616422 
L 120.935334 65.515085 
L 121.238093 65.434015 
L 121.258276 65.312411 
L 121.682139 65.211074 
L 121.702323 65.130004 
L 122.206921 65.028667 
L 122.287657 64.967865 
L 122.6106 64.886795 
L 122.691336 64.805725 
L 122.872991 64.744923 
L 122.973911 64.603051 
L 123.155566 64.501714 
L 123.195934 64.440912 
L 123.518877 64.339575 
L 123.539061 64.29904 
L 123.922556 64.197703 
L 124.003292 64.136901 
L 124.104211 64.096366 
L 124.104211 64.015296 
L 124.487706 63.913959 
L 124.548258 63.832889 
L 124.750097 63.75182 
L 124.830833 63.67075 
L 124.992304 63.569413 
L 125.093224 63.366739 
L 125.214328 63.265402 
L 125.254695 63.204599 
L 125.517087 63.103262 
L 125.537271 63.04246 
L 125.900581 62.941123 
L 125.940949 62.900588 
L 126.20334 62.799251 
L 126.30426 62.697914 
L 126.465732 62.616844 
L 126.546467 62.515507 
L 126.667571 62.41417 
L 126.768491 62.353368 
L 127.051066 62.252031 
L 127.131801 62.211496 
L 127.273089 62.170961 
L 127.374009 62.069624 
L 127.43456 61.988554 
L 127.43456 61.948019 
L 127.696952 61.846682 
L 127.797871 61.745345 
L 127.999711 61.664276 
L 128.080446 61.603473 
L 128.342837 61.502136 
L 128.383205 61.461601 
L 128.746516 61.360264 
L 128.847436 61.299462 
L 129.049275 61.198125 
L 129.150195 61.035986 
L 129.230931 60.995451 
L 129.33185 60.69144 
L 129.695161 60.590102 
L 129.695161 60.549568 
L 129.977736 60.448231 
L 130.058472 60.326626 
L 130.199759 60.245556 
L 130.300679 60.144219 
L 130.401599 60.042882 
L 130.482334 59.961813 
L 130.643806 59.860475 
L 130.643806 59.840208 
L 131.067669 59.738871 
L 131.067669 59.718604 
L 131.370428 59.617266 
L 131.451163 59.455127 
L 131.632819 59.374057 
L 131.69337 59.252453 
L 131.955762 59.151116 
L 131.955762 59.130848 
L 132.197969 59.090314 
L 132.258521 58.847105 
L 132.541096 58.745768 
L 132.642015 58.664698 
L 132.823671 58.583628 
L 132.904407 58.482291 
L 133.146614 58.421489 
L 133.227349 58.320152 
L 133.328269 58.259349 
L 133.409005 58.158012 
L 133.832868 58.056675 
L 133.832868 58.036408 
L 134.175994 57.935071 
L 134.276914 57.833734 
L 134.418202 57.732397 
L 134.519121 57.671594 
L 134.640225 57.570257 
L 134.741145 57.529722 
L 134.902616 57.428385 
L 134.902616 57.408118 
L 135.165007 57.327048 
L 135.245743 57.266246 
L 135.58887 57.164909 
L 135.609054 57.124374 
L 135.790709 57.083839 
L 135.831077 56.982502 
L 136.073284 56.881165 
L 136.174204 56.820363 
L 136.376043 56.739293 
L 136.476963 56.658224 
L 136.577883 56.577154 
L 136.678802 56.475817 
L 137.042113 56.394747 
L 137.042113 56.354212 
L 137.28432 56.252875 
L 137.38524 56.171806 
L 137.647631 56.090736 
L 137.748551 55.989399 
L 138.091678 55.888062 
L 138.192597 55.827259 
L 138.333885 55.74619 
L 138.414621 55.644853 
L 138.798115 55.563783 
L 138.838483 55.482713 
L 138.979771 55.381376 
L 138.979771 55.320574 
L 139.423817 55.219237 
L 139.464185 55.1179 
L 139.726576 55.016563 
L 139.766944 54.976028 
L 140.231175 54.874691 
L 140.31191 54.773354 
L 140.655037 54.672017 
L 140.755957 54.57068 
L 140.97798 54.469342 
L 141.0789 54.347738 
L 141.159636 54.246401 
L 141.159636 54.226133 
L 141.583498 54.145064 
L 141.64405 54.084262 
L 142.128464 54.003192 
L 142.168832 53.94239 
L 142.511959 53.841053 
L 142.572511 53.759983 
L 142.794534 53.658646 
L 142.794534 53.618111 
L 143.077109 53.516774 
L 143.157845 53.415437 
L 143.601892 53.334367 
L 143.601892 53.293832 
L 144.187226 53.192495 
L 144.267962 53.091158 
L 144.812928 53.010088 
L 144.812928 52.969554 
L 145.277158 52.868216 
L 145.277158 52.827682 
L 145.519365 52.726345 
L 145.620285 52.665542 
L 145.923044 52.584473 
L 146.00378 52.483136 
L 146.346907 52.381798 
L 146.447826 52.320996 
L 146.609298 52.260194 
L 146.649666 52.158857 
L 147.012977 52.05752 
L 147.113896 51.956183 
L 147.517575 51.854846 
L 147.618495 51.814311 
L 147.719414 51.712974 
L 147.759782 51.652171 
L 148.143277 51.550834 
L 148.244197 51.490032 
L 148.3653 51.388695 
L 148.3653 51.34816 
L 148.728611 51.246823 
L 148.768979 51.186021 
L 149.051554 51.104951 
L 149.071738 51.044149 
L 149.475417 50.963079 
L 149.576336 50.780673 
L 149.677256 50.679335 
L 149.717624 50.577998 
L 150.16167 50.476661 
L 150.26259 50.436126 
L 150.72682 50.334789 
L 150.72682 50.273987 
L 150.948844 50.192917 
L 151.029579 50.09158 
L 151.413074 49.990243 
L 151.513994 49.888906 
L 151.756201 49.807836 
L 151.756201 49.767302 
L 152.119512 49.686232 
L 152.220432 49.62543 
L 152.341535 49.524093 
L 152.402087 49.483558 
L 152.745214 49.382221 
L 152.846134 49.321418 
L 153.148893 49.220081 
L 153.148893 49.199814 
L 153.411284 49.098477 
L 153.512203 48.976872 
L 153.734227 48.875535 
L 153.794778 48.794466 
L 154.279193 48.693129 
L 154.359929 48.632326 
L 154.481032 48.612059 
L 154.561768 48.389117 
L 154.864527 48.308048 
L 154.864527 48.267513 
L 155.147102 48.186443 
L 155.227838 48.125641 
L 155.449861 48.044571 
L 155.550781 47.983769 
L 155.813172 47.882432 
L 155.873724 47.82163 
L 156.136115 47.720292 
L 156.156299 47.65949 
L 156.842553 47.578421 
L 156.943472 47.497351 
L 157.367335 47.396014 
L 157.468255 47.294677 
L 158.013221 47.19334 
L 158.073773 47.152805 
L 158.517819 47.051468 
L 158.578371 47.010933 
L 158.941682 46.909596 
L 158.961866 46.848794 
L 159.264625 46.747456 
L 159.264625 46.727189 
L 159.930694 46.625852 
L 160.031614 46.585317 
L 160.57658 46.48398 
L 160.616948 46.382643 
L 161.121547 46.301573 
L 161.141731 46.240771 
L 161.949088 46.139434 
L 161.949088 46.119167 
L 162.776629 46.017829 
L 162.877549 45.957027 
L 163.483067 45.85569 
L 163.483067 45.815155 
L 163.967481 45.734086 
L 164.007849 45.653016 
L 164.653735 45.551679 
L 164.653735 45.511144 
L 164.93631 45.409807 
L 164.996862 45.369272 
L 165.662932 45.267935 
L 165.7033 45.2274 
L 166.308818 45.14633 
L 166.409737 44.984191 
L 166.914336 44.882854 
L 166.93452 44.76125 
L 167.580406 44.659912 
L 167.661141 44.518041 
L 168.16574 44.416703 
L 168.266659 44.376169 
L 168.569418 44.274832 
L 168.650154 44.173494 
L 169.033649 44.072157 
L 169.094201 44.011355 
L 169.518063 43.930285 
L 169.518063 43.889751 
L 170.406156 43.788414 
L 170.42634 43.747879 
L 170.971307 43.646542 
L 171.011674 43.585739 
L 171.314433 43.484402 
L 171.354801 43.4236 
L 171.980503 43.322263 
L 172.081423 43.241193 
L 172.767677 43.139856 
L 172.767677 43.099321 
L 173.211723 42.997984 
L 173.312643 42.916915 
L 173.474114 42.815577 
L 173.474114 42.79531 
L 173.837425 42.71424 
L 173.938345 42.572368 
L 174.402575 42.471031 
L 174.503495 42.410229 
L 175.290668 42.308892 
L 175.290668 42.268357 
L 175.91637 42.16702 
L 175.91637 42.126485 
L 176.481521 42.045416 
L 176.481521 41.984613 
L 176.844831 41.883276 
L 176.945751 41.761672 
L 177.167774 41.660335 
L 177.167774 41.640067 
L 177.874212 41.53873 
L 177.91458 41.477928 
L 178.398994 41.376591 
L 178.499914 41.275254 
L 178.964144 41.173917 
L 179.024696 41.133382 
L 179.690766 41.052312 
L 179.690766 41.011777 
L 180.639411 40.91044 
L 180.639411 40.869905 
L 180.861434 40.809103 
L 180.921986 40.707766 
L 181.547688 40.606429 
L 181.628424 40.545627 
L 182.375229 40.44429 
L 182.375229 40.424022 
L 182.900012 40.322685 
L 182.94038 40.241615 
L 183.384426 40.180813 
L 183.444978 40.099744 
L 184.393623 39.998406 
L 184.413807 39.937604 
L 185.079877 39.836267 
L 185.079877 39.816 
L 185.86705 39.714663 
L 185.86705 39.694395 
L 186.452384 39.593058 
L 186.492752 39.552523 
L 186.896431 39.451186 
L 186.896431 39.430919 
L 187.340477 39.370117 
L 187.441397 39.268779 
L 188.026731 39.167442 
L 188.026731 39.147175 
L 188.591881 39.066105 
L 188.652433 39.005303 
L 189.883653 38.903966 
L 189.944205 38.843164 
L 190.590091 38.741827 
L 190.650642 38.701292 
L 191.336896 38.599955 
L 191.336896 38.579687 
L 192.083702 38.47835 
L 192.083702 38.458083 
L 192.891059 38.356746 
L 192.891059 38.336478 
L 193.25437 38.235141 
L 193.314922 38.174339 
L 194.162647 38.093269 
L 194.243383 37.951397 
L 194.727797 37.85006 
L 194.727797 37.829793 
L 195.474603 37.728456 
L 195.474603 37.708188 
L 196.705823 37.606851 
L 196.705823 37.566316 
L 197.432444 37.464979 
L 197.533364 37.404177 
L 199.269182 37.30284 
L 199.269182 37.282573 
L 200.036172 37.181235 
L 200.036172 37.160968 
L 200.904081 37.059631 
L 200.904081 37.039364 
L 201.529783 36.938026 
L 201.630703 36.877224 
L 202.074749 36.775887 
L 202.074749 36.75562 
L 203.447257 36.654283 
L 203.447257 36.634015 
L 204.395902 36.532678 
L 204.436269 36.492143 
L 205.546386 36.390806 
L 205.546386 36.370539 
L 206.555583 36.269202 
L 206.59595 36.228667 
L 208.432688 36.12733 
L 208.432688 36.107062 
L 209.15931 36.005725 
L 209.240046 35.96519 
L 210.471266 35.863853 
L 210.552002 35.823319 
L 211.500646 35.721981 
L 211.500646 35.701714 
L 213.821799 35.600377 
L 213.882351 35.519307 
L 215.133755 35.41797 
L 215.234674 35.336901 
L 216.223687 35.255831 
L 216.284239 35.195029 
L 217.67693 35.093692 
L 217.717298 35.032889 
L 218.787047 34.931552 
L 218.787047 34.911285 
L 219.554036 34.809948 
L 219.554036 34.78968 
L 220.462313 34.688343 
L 220.462313 34.668076 
L 222.056844 34.587006 
L 222.157764 34.505936 
L 222.783466 34.424867 
L 222.783466 34.384332 
L 223.974318 34.282995 
L 223.994502 34.24246 
L 225.124802 34.141123 
L 225.124802 34.100588 
L 226.275286 34.019518 
L 226.275286 33.978984 
L 227.284483 33.877646 
L 227.284483 33.857379 
L 228.132208 33.776309 
L 228.172576 33.69524 
L 229.585452 33.593903 
L 229.585452 33.573635 
L 230.513913 33.472298 
L 230.513913 33.452031 
L 232.734145 33.350694 
L 232.734145 33.330426 
L 235.499344 33.229089 
L 235.600264 33.188554 
L 237.315898 33.087217 
L 237.315898 33.06695 
L 239.758154 32.965613 
L 239.758154 32.945345 
L 243.007768 32.844008 
L 243.007768 32.823741 
L 245.833519 32.722404 
L 245.833519 32.702136 
L 251.969435 32.600799 
L 251.969435 32.560264 
L 255.965854 32.458927 
L 256.006221 32.418392 
L 258.77142 32.398125 
L 258.77142 32.398125 
" clip-path="url(#p47685a98aa)" style="fill: none; stroke: #1f77b4; stroke-width: 1.5; stroke-linecap: square"/>
   </g>
   <g id="line2d_26">
    <path d="M 55.86233 233.998125 
L 258.77142 32.398125 
" clip-path="url(#p47685a98aa)" style="fill: none; stroke-dasharray: 7.4,3.2; stroke-dashoffset: 0; stroke: #808080; stroke-width: 2"/>
   </g>
   <g id="patch_3">
    <path d="M 45.716875 244.078125 
L 45.716875 22.318125 
" style="fill: none; stroke: #000000; stroke-width: 0.8; stroke-linejoin: miter; stroke-linecap: square"/>
   </g>
   <g id="patch_4">
    <path d="M 268.916875 244.078125 
L 268.916875 22.318125 
" style="fill: none; stroke: #000000; stroke-width: 0.8; stroke-linejoin: miter; stroke-linecap: square"/>
   </g>
   <g id="patch_5">
    <path d="M 45.716875 244.078125 
L 268.916875 244.078125 
" style="fill: none; stroke: #000000; stroke-width: 0.8; stroke-linejoin: miter; stroke-linecap: square"/>
   </g>
   <g id="patch_6">
    <path d="M 45.716875 22.318125 
L 268.916875 22.318125 
" style="fill: none; stroke: #000000; stroke-width: 0.8; stroke-linejoin: miter; stroke-linecap: square"/>
   </g>
   <g id="text_15">
    <!-- ROC Curve: Logistic Regression -->
    <g transform="translate(63.146875 16.318125) scale(0.12 -0.12)">
     <defs>
      <path id="DejaVuSans-4f" d="M 2522 4238 
Q 1834 4238 1429 3725 
Q 1025 3213 1025 2328 
Q 1025 1447 1429 934 
Q 1834 422 2522 422 
Q 3209 422 3611 934 
Q 4013 1447 4013 2328 
Q 4013 3213 3611 3725 
Q 3209 4238 2522 4238 
z
M 2522 4750 
Q 3503 4750 4090 4092 
Q 4678 3434 4678 2328 
Q 4678 1225 4090 567 
Q 3503 -91 2522 -91 
Q 1538 -91 948 565 
Q 359 1222 359 2328 
Q 359 3434 948 4092 
Q 1538 4750 2522 4750 
z
" transform="scale(0.015625)"/>
      <path id="DejaVuSans-43" d="M 4122 4306 
L 4122 3641 
Q 3803 3938 3442 4084 
Q 3081 4231 2675 4231 
Q 1875 4231 1450 3742 
Q 1025 3253 1025 2328 
Q 1025 1406 1450 917 
Q 1875 428 2675 428 
Q 3081 428 3442 575 
Q 3803 722 4122 1019 
L 4122 359 
Q 3791 134 3420 21 
Q 3050 -91 2638 -91 
Q 1578 -91 968 557 
Q 359 1206 359 2328 
Q 359 3453 968 4101 
Q 1578 4750 2638 4750 
Q 3056 4750 3426 4639 
Q 3797 4528 4122 4306 
z
" transform="scale(0.015625)"/>
      <path id="DejaVuSans-3a" d="M 750 794 
L 1409 794 
L 1409 0 
L 750 0 
L 750 794 
z
M 750 3309 
L 1409 3309 
L 1409 2516 
L 750 2516 
L 750 3309 
z
" transform="scale(0.015625)"/>
      <path id="DejaVuSans-4c" d="M 628 4666 
L 1259 4666 
L 1259 531 
L 3531 531 
L 3531 0 
L 628 0 
L 628 4666 
z
" transform="scale(0.015625)"/>
      <path id="DejaVuSans-67" d="M 2906 1791 
Q 2906 2416 2648 2759 
Q 2391 3103 1925 3103 
Q 1463 3103 1205 2759 
Q 947 2416 947 1791 
Q 947 1169 1205 825 
Q 1463 481 1925 481 
Q 2391 481 2648 825 
Q 2906 1169 2906 1791 
z
M 3481 434 
Q 3481 -459 3084 -895 
Q 2688 -1331 1869 -1331 
Q 1566 -1331 1297 -1286 
Q 1028 -1241 775 -1147 
L 775 -588 
Q 1028 -725 1275 -790 
Q 1522 -856 1778 -856 
Q 2344 -856 2625 -561 
Q 2906 -266 2906 331 
L 2906 616 
Q 2728 306 2450 153 
Q 2172 0 1784 0 
Q 1141 0 747 490 
Q 353 981 353 1791 
Q 353 2603 747 3093 
Q 1141 3584 1784 3584 
Q 2172 3584 2450 3431 
Q 2728 3278 2906 2969 
L 2906 3500 
L 3481 3500 
L 3481 434 
z
" transform="scale(0.015625)"/>
      <path id="DejaVuSans-63" d="M 3122 3366 
L 3122 2828 
Q 2878 2963 2633 3030 
Q 2388 3097 2138 3097 
Q 1578 3097 1268 2742 
Q 959 2388 959 1747 
Q 959 1106 1268 751 
Q 1578 397 2138 397 
Q 2388 397 2633 464 
Q 2878 531 3122 666 
L 3122 134 
Q 2881 22 2623 -34 
Q 2366 -91 2075 -91 
Q 1284 -91 818 406 
Q 353 903 353 1747 
Q 353 2603 823 3093 
Q 1294 3584 2113 3584 
Q 2378 3584 2631 3529 
Q 2884 3475 3122 3366 
z
" transform="scale(0.015625)"/>
      <path id="DejaVuSans-6e" d="M 3513 2113 
L 3513 0 
L 2938 0 
L 2938 2094 
Q 2938 2591 2744 2837 
Q 2550 3084 2163 3084 
Q 1697 3084 1428 2787 
Q 1159 2491 1159 1978 
L 1159 0 
L 581 0 
L 581 3500 
L 1159 3500 
L 1159 2956 
Q 1366 3272 1645 3428 
Q 1925 3584 2291 3584 
Q 2894 3584 3203 3211 
Q 3513 2838 3513 2113 
z
" transform="scale(0.015625)"/>
     </defs>
     <use xlink:href="#DejaVuSans-52"/>
     <use xlink:href="#DejaVuSans-4f" x="69.482422"/>
     <use xlink:href="#DejaVuSans-43" x="148.193359"/>
     <use xlink:href="#DejaVuSans-20" x="218.017578"/>
     <use xlink:href="#DejaVuSans-43" x="249.804688"/>
     <use xlink:href="#DejaVuSans-75" x="319.628906"/>
     <use xlink:href="#DejaVuSans-72" x="383.007812"/>
     <use xlink:href="#DejaVuSans-76" x="424.121094"/>
     <use xlink:href="#DejaVuSans-65" x="483.300781"/>
     <use xlink:href="#DejaVuSans-3a" x="544.824219"/>
     <use xlink:href="#DejaVuSans-20" x="578.515625"/>
     <use xlink:href="#DejaVuSans-4c" x="610.302734"/>
     <use xlink:href="#DejaVuSans-6f" x="664.265625"/>
     <use xlink:href="#DejaVuSans-67" x="725.447266"/>
     <use xlink:href="#DejaVuSans-69" x="788.923828"/>
     <use xlink:href="#DejaVuSans-73" x="816.707031"/>
     <use xlink:href="#DejaVuSans-74" x="868.806641"/>
     <use xlink:href="#DejaVuSans-69" x="908.015625"/>
     <use xlink:href="#DejaVuSans-63" x="935.798828"/>
     <use xlink:href="#DejaVuSans-20" x="990.779297"/>
     <use xlink:href="#DejaVuSans-52" x="1022.566406"/>
     <use xlink:href="#DejaVuSans-65" x="1087.548828"/>
     <use xlink:href="#DejaVuSans-67" x="1149.072266"/>
     <use xlink:href="#DejaVuSans-72" x="1212.548828"/>
     <use xlink:href="#DejaVuSans-65" x="1251.412109"/>
     <use xlink:href="#DejaVuSans-73" x="1312.935547"/>
     <use xlink:href="#DejaVuSans-73" x="1365.035156"/>
     <use xlink:href="#DejaVuSans-69" x="1417.134766"/>
     <use xlink:href="#DejaVuSans-6f" x="1444.917969"/>
     <use xlink:href="#DejaVuSans-6e" x="1506.099609"/>
    </g>
   </g>
   <g id="legend_1">
    <g id="patch_7">
     <path d="M 154.684062 239.078125 
L 261.916875 239.078125 
Q 263.916875 239.078125 263.916875 237.078125 
L 263.916875 208.721875 
Q 263.916875 206.721875 261.916875 206.721875 
L 154.684062 206.721875 
Q 152.684062 206.721875 152.684062 208.721875 
L 152.684062 237.078125 
Q 152.684062 239.078125 154.684062 239.078125 
z
" style="fill: #ffffff; opacity: 0.8; stroke: #cccccc; stroke-linejoin: miter"/>
    </g>
    <g id="line2d_27">
     <path d="M 156.684062 214.820312 
L 166.684062 214.820312 
L 176.684062 214.820312 
" style="fill: none; stroke: #1f77b4; stroke-width: 1.5; stroke-linecap: square"/>
    </g>
    <g id="text_16">
     <!-- AUC = 0.845 -->
     <g transform="translate(184.684062 218.320312) scale(0.1 -0.1)">
      <defs>
       <path id="DejaVuSans-41" d="M 2188 4044 
L 1331 1722 
L 3047 1722 
L 2188 4044 
z
M 1831 4666 
L 2547 4666 
L 4325 0 
L 3669 0 
L 3244 1197 
L 1141 1197 
L 716 0 
L 50 0 
L 1831 4666 
z
" transform="scale(0.015625)"/>
       <path id="DejaVuSans-55" d="M 556 4666 
L 1191 4666 
L 1191 1831 
Q 1191 1081 1462 751 
Q 1734 422 2344 422 
Q 2950 422 3222 751 
Q 3494 1081 3494 1831 
L 3494 4666 
L 4128 4666 
L 4128 1753 
Q 4128 841 3676 375 
Q 3225 -91 2344 -91 
Q 1459 -91 1007 375 
Q 556 841 556 1753 
L 556 4666 
z
" transform="scale(0.015625)"/>
       <path id="DejaVuSans-3d" d="M 678 2906 
L 4684 2906 
L 4684 2381 
L 678 2381 
L 678 2906 
z
M 678 1631 
L 4684 1631 
L 4684 1100 
L 678 1100 
L 678 1631 
z
" transform="scale(0.015625)"/>
       <path id="DejaVuSans-35" d="M 691 4666 
L 3169 4666 
L 3169 4134 
L 1269 4134 
L 1269 2991 
Q 1406 3038 1543 3061 
Q 1681 3084 1819 3084 
Q 2600 3084 3056 2656 
Q 3513 2228 3513 1497 
Q 3513 744 3044 326 
Q 2575 -91 1722 -91 
Q 1428 -91 1123 -41 
Q 819 9 494 109 
L 494 744 
Q 775 591 1075 516 
Q 1375 441 1709 441 
Q 2250 441 2565 725 
Q 2881 1009 2881 1497 
Q 2881 1984 2565 2268 
Q 2250 2553 1709 2553 
Q 1456 2553 1204 2497 
Q 953 2441 691 2322 
L 691 4666 
z
" transform="scale(0.015625)"/>
      </defs>
      <use xlink:href="#DejaVuSans-41"/>
      <use xlink:href="#DejaVuSans-55" x="68.408203"/>
      <use xlink:href="#DejaVuSans-43" x="141.601562"/>
      <use xlink:href="#DejaVuSans-20" x="211.425781"/>
      <use xlink:href="#DejaVuSans-3d" x="243.212891"/>
      <use xlink:href="#DejaVuSans-20" x="327.001953"/>
      <use xlink:href="#DejaVuSans-30" x="358.789062"/>
      <use xlink:href="#DejaVuSans-2e" x="422.412109"/>
      <use xlink:href="#DejaVuSans-38" x="454.199219"/>
      <use xlink:href="#DejaVuSans-34" x="517.822266"/>
      <use xlink:href="#DejaVuSans-35" x="581.445312"/>
     </g>
    </g>
    <g id="line2d_28">
     <path d="M 156.684062 229.498437 
L 166.684062 229.498437 
L 176.684062 229.498437 
" style="fill: none; stroke-dasharray: 7.4,3.2; stroke-dashoffset: 0; stroke: #808080; stroke-width: 2"/>
    </g>
    <g id="text_17">
     <!-- Random Guess -->
     <g transform="translate(184.684062 232.998437) scale(0.1 -0.1)">
      <defs>
       <path id="DejaVuSans-64" d="M 2906 2969 
L 2906 4863 
L 3481 4863 
L 3481 0 
L 2906 0 
L 2906 525 
Q 2725 213 2448 61 
Q 2172 -91 1784 -91 
Q 1150 -91 751 415 
Q 353 922 353 1747 
Q 353 2572 751 3078 
Q 1150 3584 1784 3584 
Q 2172 3584 2448 3432 
Q 2725 3281 2906 2969 
z
M 947 1747 
Q 947 1113 1208 752 
Q 1469 391 1925 391 
Q 2381 391 2643 752 
Q 2906 1113 2906 1747 
Q 2906 2381 2643 2742 
Q 2381 3103 1925 3103 
Q 1469 3103 1208 2742 
Q 947 2381 947 1747 
z
" transform="scale(0.015625)"/>
       <path id="DejaVuSans-6d" d="M 3328 2828 
Q 3544 3216 3844 3400 
Q 4144 3584 4550 3584 
Q 5097 3584 5394 3201 
Q 5691 2819 5691 2113 
L 5691 0 
L 5113 0 
L 5113 2094 
Q 5113 2597 4934 2840 
Q 4756 3084 4391 3084 
Q 3944 3084 3684 2787 
Q 3425 2491 3425 1978 
L 3425 0 
L 2847 0 
L 2847 2094 
Q 2847 2600 2669 2842 
Q 2491 3084 2119 3084 
Q 1678 3084 1418 2786 
Q 1159 2488 1159 1978 
L 1159 0 
L 581 0 
L 581 3500 
L 1159 3500 
L 1159 2956 
Q 1356 3278 1631 3431 
Q 1906 3584 2284 3584 
Q 2666 3584 2933 3390 
Q 3200 3197 3328 2828 
z
" transform="scale(0.015625)"/>
       <path id="DejaVuSans-47" d="M 3809 666 
L 3809 1919 
L 2778 1919 
L 2778 2438 
L 4434 2438 
L 4434 434 
Q 4069 175 3628 42 
Q 3188 -91 2688 -91 
Q 1594 -91 976 548 
Q 359 1188 359 2328 
Q 359 3472 976 4111 
Q 1594 4750 2688 4750 
Q 3144 4750 3555 4637 
Q 3966 4525 4313 4306 
L 4313 3634 
Q 3963 3931 3569 4081 
Q 3175 4231 2741 4231 
Q 1884 4231 1454 3753 
Q 1025 3275 1025 2328 
Q 1025 1384 1454 906 
Q 1884 428 2741 428 
Q 3075 428 3337 486 
Q 3600 544 3809 666 
z
" transform="scale(0.015625)"/>
      </defs>
      <use xlink:href="#DejaVuSans-52"/>
      <use xlink:href="#DejaVuSans-61" x="67.232422"/>
      <use xlink:href="#DejaVuSans-6e" x="128.511719"/>
      <use xlink:href="#DejaVuSans-64" x="191.890625"/>
      <use xlink:href="#DejaVuSans-6f" x="255.367188"/>
      <use xlink:href="#DejaVuSans-6d" x="316.548828"/>
      <use xlink:href="#DejaVuSans-20" x="413.960938"/>
      <use xlink:href="#DejaVuSans-47" x="445.748047"/>
      <use xlink:href="#DejaVuSans-75" x="523.238281"/>
      <use xlink:href="#DejaVuSans-65" x="586.617188"/>
      <use xlink:href="#DejaVuSans-73" x="648.140625"/>
      <use xlink:href="#DejaVuSans-73" x="700.240234"/>
     </g>
    </g>
   </g>
  </g>
 </g>
 <defs>
  <clipPath id="p47685a98aa">
   <rect x="45.716875" y="22.318125" width="223.2" height="221.76"/>
  </clipPath>
 </defs>
</svg>
