<svg xmlns="http://www.w3.org/2000/svg" viewBox="6 14 176 62" role="img" aria-label="Model Metrics">
  <title>Model Metrics</title>
  <rect x="10" y="42" width="9" height="26" rx="2.5" fill="#1F9E8F"/><rect x="24" y="28" width="9" height="40" rx="2.5" fill="#1F9E8F"/><rect x="38" y="16" width="9" height="52" rx="2.5" fill="#F0654A"/><rect x="52" y="28" width="9" height="40" rx="2.5" fill="#1F9E8F"/>
  <path d="M135 0H438V703C438 815 430 1034 427 1215C480 1015 540 806 575 703L826 0H1083L1330 703C1365 809 1428 1026 1478 1227C1475 1039 1467 815 1467 703V0H1774V1490H1304L1066 806C1036 711 990 512 956 351C921 513 875 712 845 806L603 1490H135Z" fill="#1F9E8F" transform="translate(74.00,42) scale(0.01367,-0.01367)"/>
<path d="M628 -22C964 -22 1175 210 1175 554C1175 900 964 1132 628 1132C291 1132 81 900 81 554C81 210 291 -22 628 -22ZM628 214C468 214 387 360 387 555C387 753 468 896 628 896C788 896 870 752 870 555C870 360 788 214 628 214Z" fill="#1F9E8F" transform="translate(100.09,42) scale(0.01367,-0.01367)"/>
<path d="M537 -19C719 -19 812 89 853 179H868V0H1163V1490H863V930H853C813 1019 725 1132 535 1132C287 1132 81 939 81 557C81 185 279 -19 537 -19ZM629 222C473 222 389 361 389 558C389 754 471 892 629 892C783 892 869 761 869 558C869 356 782 222 629 222Z" fill="#1F9E8F" transform="translate(117.26,42) scale(0.01367,-0.01367)"/>
<path d="M633 -22C893 -22 1071 99 1126 285L854 336C822 250 743 204 638 204C487 204 385 298 378 481H1143V565C1143 947 910 1132 618 1132C291 1132 81 898 81 553C81 200 291 -22 633 -22ZM380 669C392 807 478 906 621 906C760 906 839 815 854 669Z" fill="#1F9E8F" transform="translate(134.91,42) scale(0.01367,-0.01367)"/>
<path d="M428 1490H128V0H428Z" fill="#1F9E8F" transform="translate(151.59,42) scale(0.01367,-0.01367)"/>
<path d="M135 0H438V703C438 815 430 1034 427 1215C480 1015 540 806 575 703L826 0H1083L1330 703C1365 809 1428 1026 1478 1227C1475 1039 1467 815 1467 703V0H1774V1490H1304L1066 806C1036 711 990 512 956 351C921 513 875 712 845 806L603 1490H135Z" fill="#1F9E8F" transform="translate(74.00,68.32) scale(0.01367,-0.01367)"/>
<path d="M633 -22C893 -22 1071 99 1126 285L854 336C822 250 743 204 638 204C487 204 385 298 378 481H1143V565C1143 947 910 1132 618 1132C291 1132 81 898 81 553C81 200 291 -22 633 -22ZM380 669C392 807 478 906 621 906C760 906 839 815 854 669Z" fill="#1F9E8F" transform="translate(100.09,68.32) scale(0.01367,-0.01367)"/>
<path d="M683 1118H474V1384H174V1118H20V889H174V301C174 96 296 -16 520 -16C580 -16 647 -9 714 11L671 236C649 230 599 223 576 223C503 223 474 256 474 327V889H683Z" fill="#1F9E8F" transform="translate(116.77,68.32) scale(0.01367,-0.01367)"/>
<path d="M128 0H428V636C428 775 529 870 667 870C711 870 770 863 797 855V1123C770 1129 731 1133 700 1133C574 1133 471 1061 430 923H418V1118H128Z" fill="#1F9E8F" transform="translate(127.02,68.32) scale(0.01367,-0.01367)"/>
<path d="M128 0H428V1118H128ZM278 1264C368 1264 443 1332 443 1418C443 1503 368 1572 278 1572C187 1572 113 1503 113 1418C113 1332 187 1264 278 1264Z" fill="#1F9E8F" transform="translate(138.42,68.32) scale(0.01367,-0.01367)"/>
<path d="M628 -22C896 -22 1085 123 1127 358L848 409C824 288 747 214 631 214C471 214 387 355 387 555C387 757 471 896 631 896C747 896 821 824 846 708L1125 760C1083 990 893 1132 628 1132C291 1132 81 900 81 554C81 210 291 -22 628 -22Z" fill="#1F9E8F" transform="translate(146.01,68.32) scale(0.01367,-0.01367)"/>
<path d="M572 -22C865 -22 1072 125 1072 345C1072 504 968 603 752 647L551 687C445 709 407 748 407 804C407 871 483 917 581 917C690 917 753 863 777 787L1043 834C1001 1016 842 1132 577 1132C294 1132 107 1000 107 785C107 618 213 512 429 468L622 428C720 408 766 372 766 313C766 246 695 198 581 198C458 198 386 249 357 354L78 306C117 98 302 -22 572 -22Z" fill="#1F9E8F" transform="translate(162.48,68.32) scale(0.01367,-0.01367)"/>
  <circle cx="142.22" cy="48.72" r="3.22" fill="#F0654A"/>
</svg>