<?xml version="1.0" encoding="utf-8" standalone="no"?>
<!DOCTYPE svg PUBLIC "-//W3C//DTD SVG 1.1//EN"
  "http://www.w3.org/Graphics/SVG/1.1/DTD/svg11.dtd">
<svg xmlns:xlink="http://www.w3.org/1999/xlink" width="711.516875pt" height="854.09pt" viewBox="0 0 711.516875 854.09" xmlns="http://www.w3.org/2000/svg" version="1.1">
 <metadata>
  <rdf:RDF xmlns:dc="http://purl.org/dc/elements/1.1/" xmlns:cc="http://creativecommons.org/ns#" xmlns:rdf="http://www.w3.org/1999/02/22-rdf-syntax-ns#">
   <cc:Work>
    <dc:type rdf:resource="http://purl.org/dc/dcmitype/StillImage"/>
    <dc:date>2025-02-16T23:20:15.540745</dc:date>
    <dc:format>image/svg+xml</dc:format>
    <dc:creator>
     <cc:Agent>
      <dc:title>Matplotlib v3.5.3, https://matplotlib.org/</dc:title>
     </cc:Agent>
    </dc:creator>
   </cc:Work>
  </rdf:RDF>
 </metadata>
 <defs>
  <style type="text/css">*{stroke-linejoin: round; stroke-linecap: butt}</style>
 </defs>
 <g id="figure_1">
  <g id="patch_1">
   <path d="M 0 854.09 
L 711.516875 854.09 
L 711.516875 0 
L 0 0 
z
" style="fill: #ffffff"/>
  </g>
  <g id="axes_1">
   <g id="patch_2">
    <path d="M 45.716875 814.598125 
L 369.616875 814.598125 
L 369.616875 22.318125 
L 45.716875 22.318125 
z
" style="fill: #ffffff"/>
   </g>
   <g id="matplotlib.axis_1">
    <g id="xtick_1">
     <g id="line2d_1">
      <path d="M 60.439602 814.598125 
L 60.439602 22.318125 
" clip-path="url(#p449fa7f432)" style="fill: none; stroke: #b0b0b0; stroke-width: 0.8; stroke-linecap: square"/>
     </g>
     <g id="line2d_2">
      <defs>
       <path id="m7bc140ac6e" d="M 0 0 
L 0 3.5 
" style="stroke: #000000; stroke-width: 0.8"/>
      </defs>
      <g>
       <use xlink:href="#m7bc140ac6e" x="60.439602" y="814.598125" style="stroke: #000000; stroke-width: 0.8"/>
      </g>
     </g>
     <g id="text_1">
      <!-- 0.0 -->
      <g transform="translate(52.48804 829.196562)scale(0.1 -0.1)">
       <defs>
        <path id="DejaVuSans-30" d="M 2034 4250 
Q 1547 4250 1301 3770 
Q 1056 3291 1056 2328 
Q 1056 1369 1301 889 
Q 1547 409 2034 409 
Q 2525 409 2770 889 
Q 3016 1369 3016 2328 
Q 3016 3291 2770 3770 
Q 2525 4250 2034 4250 
z
M 2034 4750 
Q 2819 4750 3233 4129 
Q 3647 3509 3647 2328 
Q 3647 1150 3233 529 
Q 2819 -91 2034 -91 
Q 1250 -91 836 529 
Q 422 1150 422 2328 
Q 422 3509 836 4129 
Q 1250 4750 2034 4750 
z
" transform="scale(0.015625)"/>
        <path id="DejaVuSans-2e" d="M 684 794 
L 1344 794 
L 1344 0 
L 684 0 
L 684 794 
z
" transform="scale(0.015625)"/>
       </defs>
       <use xlink:href="#DejaVuSans-30"/>
       <use xlink:href="#DejaVuSans-2e" x="63.623047"/>
       <use xlink:href="#DejaVuSans-30" x="95.410156"/>
      </g>
     </g>
    </g>
    <g id="xtick_2">
     <g id="line2d_3">
      <path d="M 119.330511 814.598125 
L 119.330511 22.318125 
" clip-path="url(#p449fa7f432)" style="fill: none; stroke: #b0b0b0; stroke-width: 0.8; stroke-linecap: square"/>
     </g>
     <g id="line2d_4">
      <g>
       <use xlink:href="#m7bc140ac6e" x="119.330511" y="814.598125" style="stroke: #000000; stroke-width: 0.8"/>
      </g>
     </g>
     <g id="text_2">
      <!-- 0.2 -->
      <g transform="translate(111.378949 829.196562)scale(0.1 -0.1)">
       <defs>
        <path id="DejaVuSans-32" d="M 1228 531 
L 3431 531 
L 3431 0 
L 469 0 
L 469 531 
Q 828 903 1448 1529 
Q 2069 2156 2228 2338 
Q 2531 2678 2651 2914 
Q 2772 3150 2772 3378 
Q 2772 3750 2511 3984 
Q 2250 4219 1831 4219 
Q 1534 4219 1204 4116 
Q 875 4013 500 3803 
L 500 4441 
Q 881 4594 1212 4672 
Q 1544 4750 1819 4750 
Q 2544 4750 2975 4387 
Q 3406 4025 3406 3419 
Q 3406 3131 3298 2873 
Q 3191 2616 2906 2266 
Q 2828 2175 2409 1742 
Q 1991 1309 1228 531 
z
" transform="scale(0.015625)"/>
       </defs>
       <use xlink:href="#DejaVuSans-30"/>
       <use xlink:href="#DejaVuSans-2e" x="63.623047"/>
       <use xlink:href="#DejaVuSans-32" x="95.410156"/>
      </g>
     </g>
    </g>
    <g id="xtick_3">
     <g id="line2d_5">
      <path d="M 178.22142 814.598125 
L 178.22142 22.318125 
" clip-path="url(#p449fa7f432)" style="fill: none; stroke: #b0b0b0; stroke-width: 0.8; stroke-linecap: square"/>
     </g>
     <g id="line2d_6">
      <g>
       <use xlink:href="#m7bc140ac6e" x="178.22142" y="814.598125" style="stroke: #000000; stroke-width: 0.8"/>
      </g>
     </g>
     <g id="text_3">
      <!-- 0.4 -->
      <g transform="translate(170.269858 829.196562)scale(0.1 -0.1)">
       <defs>
        <path id="DejaVuSans-34" d="M 2419 4116 
L 825 1625 
L 2419 1625 
L 2419 4116 
z
M 2253 4666 
L 3047 4666 
L 3047 1625 
L 3713 1625 
L 3713 1100 
L 3047 1100 
L 3047 0 
L 2419 0 
L 2419 1100 
L 313 1100 
L 313 1709 
L 2253 4666 
z
" transform="scale(0.015625)"/>
       </defs>
       <use xlink:href="#DejaVuSans-30"/>
       <use xlink:href="#DejaVuSans-2e" x="63.623047"/>
       <use xlink:href="#DejaVuSans-34" x="95.410156"/>
      </g>
     </g>
    </g>
    <g id="xtick_4">
     <g id="line2d_7">
      <path d="M 237.11233 814.598125 
L 237.11233 22.318125 
" clip-path="url(#p449fa7f432)" style="fill: none; stroke: #b0b0b0; stroke-width: 0.8; stroke-linecap: square"/>
     </g>
     <g id="line2d_8">
      <g>
       <use xlink:href="#m7bc140ac6e" x="237.11233" y="814.598125" style="stroke: #000000; stroke-width: 0.8"/>
      </g>
     </g>
     <g id="text_4">
      <!-- 0.6 -->
      <g transform="translate(229.160767 829.196562)scale(0.1 -0.1)">
       <defs>
        <path id="DejaVuSans-36" d="M 2113 2584 
Q 1688 2584 1439 2293 
Q 1191 2003 1191 1497 
Q 1191 994 1439 701 
Q 1688 409 2113 409 
Q 2538 409 2786 701 
Q 3034 994 3034 1497 
Q 3034 2003 2786 2293 
Q 2538 2584 2113 2584 
z
M 3366 4563 
L 3366 3988 
Q 3128 4100 2886 4159 
Q 2644 4219 2406 4219 
Q 1781 4219 1451 3797 
Q 1122 3375 1075 2522 
Q 1259 2794 1537 2939 
Q 1816 3084 2150 3084 
Q 2853 3084 3261 2657 
Q 3669 2231 3669 1497 
Q 3669 778 3244 343 
Q 2819 -91 2113 -91 
Q 1303 -91 875 529 
Q 447 1150 447 2328 
Q 447 3434 972 4092 
Q 1497 4750 2381 4750 
Q 2619 4750 2861 4703 
Q 3103 4656 3366 4563 
z
" transform="scale(0.015625)"/>
       </defs>
       <use xlink:href="#DejaVuSans-30"/>
       <use xlink:href="#DejaVuSans-2e" x="63.623047"/>
       <use xlink:href="#DejaVuSans-36" x="95.410156"/>
      </g>
     </g>
    </g>
    <g id="xtick_5">
     <g id="line2d_9">
      <path d="M 296.003239 814.598125 
L 296.003239 22.318125 
" clip-path="url(#p449fa7f432)" style="fill: none; stroke: #b0b0b0; stroke-width: 0.8; stroke-linecap: square"/>
     </g>
     <g id="line2d_10">
      <g>
       <use xlink:href="#m7bc140ac6e" x="296.003239" y="814.598125" style="stroke: #000000; stroke-width: 0.8"/>
      </g>
     </g>
     <g id="text_5">
      <!-- 0.8 -->
      <g transform="translate(288.051676 829.196562)scale(0.1 -0.1)">
       <defs>
        <path id="DejaVuSans-38" d="M 2034 2216 
Q 1584 2216 1326 1975 
Q 1069 1734 1069 1313 
Q 1069 891 1326 650 
Q 1584 409 2034 409 
Q 2484 409 2743 651 
Q 3003 894 3003 1313 
Q 3003 1734 2745 1975 
Q 2488 2216 2034 2216 
z
M 1403 2484 
Q 997 2584 770 2862 
Q 544 3141 544 3541 
Q 544 4100 942 4425 
Q 1341 4750 2034 4750 
Q 2731 4750 3128 4425 
Q 3525 4100 3525 3541 
Q 3525 3141 3298 2862 
Q 3072 2584 2669 2484 
Q 3125 2378 3379 2068 
Q 3634 1759 3634 1313 
Q 3634 634 3220 271 
Q 2806 -91 2034 -91 
Q 1263 -91 848 271 
Q 434 634 434 1313 
Q 434 1759 690 2068 
Q 947 2378 1403 2484 
z
M 1172 3481 
Q 1172 3119 1398 2916 
Q 1625 2713 2034 2713 
Q 2441 2713 2670 2916 
Q 2900 3119 2900 3481 
Q 2900 3844 2670 4047 
Q 2441 4250 2034 4250 
Q 1625 4250 1398 4047 
Q 1172 3844 1172 3481 
z
" transform="scale(0.015625)"/>
       </defs>
       <use xlink:href="#DejaVuSans-30"/>
       <use xlink:href="#DejaVuSans-2e" x="63.623047"/>
       <use xlink:href="#DejaVuSans-38" x="95.410156"/>
      </g>
     </g>
    </g>
    <g id="xtick_6">
     <g id="line2d_11">
      <path d="M 354.894148 814.598125 
L 354.894148 22.318125 
" clip-path="url(#p449fa7f432)" style="fill: none; stroke: #b0b0b0; stroke-width: 0.8; stroke-linecap: square"/>
     </g>
     <g id="line2d_12">
      <g>
       <use xlink:href="#m7bc140ac6e" x="354.894148" y="814.598125" style="stroke: #000000; stroke-width: 0.8"/>
      </g>
     </g>
     <g id="text_6">
      <!-- 1.0 -->
      <g transform="translate(346.942585 829.196562)scale(0.1 -0.1)">
       <defs>
        <path id="DejaVuSans-31" d="M 794 531 
L 1825 531 
L 1825 4091 
L 703 3866 
L 703 4441 
L 1819 4666 
L 2450 4666 
L 2450 531 
L 3481 531 
L 3481 0 
L 794 0 
L 794 531 
z
" transform="scale(0.015625)"/>
       </defs>
       <use xlink:href="#DejaVuSans-31"/>
       <use xlink:href="#DejaVuSans-2e" x="63.623047"/>
       <use xlink:href="#DejaVuSans-30" x="95.410156"/>
      </g>
     </g>
    </g>
    <g id="text_7">
     <!-- False Positive Rate -->
     <g transform="translate(151.907188 844.394375)scale(0.12 -0.12)">
      <defs>
       <path id="DejaVuSans-46" d="M 628 4666 
L 3309 4666 
L 3309 4134 
L 1259 4134 
L 1259 2759 
L 3109 2759 
L 3109 2228 
L 1259 2228 
L 1259 0 
L 628 0 
L 628 4666 
z
" transform="scale(0.015625)"/>
       <path id="DejaVuSans-61" d="M 2194 1759 
Q 1497 1759 1228 1600 
Q 959 1441 959 1056 
Q 959 750 1161 570 
Q 1363 391 1709 391 
Q 2188 391 2477 730 
Q 2766 1069 2766 1631 
L 2766 1759 
L 2194 1759 
z
M 3341 1997 
L 3341 0 
L 2766 0 
L 2766 531 
Q 2569 213 2275 61 
Q 1981 -91 1556 -91 
Q 1019 -91 701 211 
Q 384 513 384 1019 
Q 384 1609 779 1909 
Q 1175 2209 1959 2209 
L 2766 2209 
L 2766 2266 
Q 2766 2663 2505 2880 
Q 2244 3097 1772 3097 
Q 1472 3097 1187 3025 
Q 903 2953 641 2809 
L 641 3341 
Q 956 3463 1253 3523 
Q 1550 3584 1831 3584 
Q 2591 3584 2966 3190 
Q 3341 2797 3341 1997 
z
" transform="scale(0.015625)"/>
       <path id="DejaVuSans-6c" d="M 603 4863 
L 1178 4863 
L 1178 0 
L 603 0 
L 603 4863 
z
" transform="scale(0.015625)"/>
       <path id="DejaVuSans-73" d="M 2834 3397 
L 2834 2853 
Q 2591 2978 2328 3040 
Q 2066 3103 1784 3103 
Q 1356 3103 1142 2972 
Q 928 2841 928 2578 
Q 928 2378 1081 2264 
Q 1234 2150 1697 2047 
L 1894 2003 
Q 2506 1872 2764 1633 
Q 3022 1394 3022 966 
Q 3022 478 2636 193 
Q 2250 -91 1575 -91 
Q 1294 -91 989 -36 
Q 684 19 347 128 
L 347 722 
Q 666 556 975 473 
Q 1284 391 1588 391 
Q 1994 391 2212 530 
Q 2431 669 2431 922 
Q 2431 1156 2273 1281 
Q 2116 1406 1581 1522 
L 1381 1569 
Q 847 1681 609 1914 
Q 372 2147 372 2553 
Q 372 3047 722 3315 
Q 1072 3584 1716 3584 
Q 2034 3584 2315 3537 
Q 2597 3491 2834 3397 
z
" transform="scale(0.015625)"/>
       <path id="DejaVuSans-65" d="M 3597 1894 
L 3597 1613 
L 953 1613 
Q 991 1019 1311 708 
Q 1631 397 2203 397 
Q 2534 397 2845 478 
Q 3156 559 3463 722 
L 3463 178 
Q 3153 47 2828 -22 
Q 2503 -91 2169 -91 
Q 1331 -91 842 396 
Q 353 884 353 1716 
Q 353 2575 817 3079 
Q 1281 3584 2069 3584 
Q 2775 3584 3186 3129 
Q 3597 2675 3597 1894 
z
M 3022 2063 
Q 3016 2534 2758 2815 
Q 2500 3097 2075 3097 
Q 1594 3097 1305 2825 
Q 1016 2553 972 2059 
L 3022 2063 
z
" transform="scale(0.015625)"/>
       <path id="DejaVuSans-20" transform="scale(0.015625)"/>
       <path id="DejaVuSans-50" d="M 1259 4147 
L 1259 2394 
L 2053 2394 
Q 2494 2394 2734 2622 
Q 2975 2850 2975 3272 
Q 2975 3691 2734 3919 
Q 2494 4147 2053 4147 
L 1259 4147 
z
M 628 4666 
L 2053 4666 
Q 2838 4666 3239 4311 
Q 3641 3956 3641 3272 
Q 3641 2581 3239 2228 
Q 2838 1875 2053 1875 
L 1259 1875 
L 1259 0 
L 628 0 
L 628 4666 
z
" transform="scale(0.015625)"/>
       <path id="DejaVuSans-6f" d="M 1959 3097 
Q 1497 3097 1228 2736 
Q 959 2375 959 1747 
Q 959 1119 1226 758 
Q 1494 397 1959 397 
Q 2419 397 2687 759 
Q 2956 1122 2956 1747 
Q 2956 2369 2687 2733 
Q 2419 3097 1959 3097 
z
M 1959 3584 
Q 2709 3584 3137 3096 
Q 3566 2609 3566 1747 
Q 3566 888 3137 398 
Q 2709 -91 1959 -91 
Q 1206 -91 779 398 
Q 353 888 353 1747 
Q 353 2609 779 3096 
Q 1206 3584 1959 3584 
z
" transform="scale(0.015625)"/>
       <path id="DejaVuSans-69" d="M 603 3500 
L 1178 3500 
L 1178 0 
L 603 0 
L 603 3500 
z
M 603 4863 
L 1178 4863 
L 1178 4134 
L 603 4134 
L 603 4863 
z
" transform="scale(0.015625)"/>
       <path id="DejaVuSans-74" d="M 1172 4494 
L 1172 3500 
L 2356 3500 
L 2356 3053 
L 1172 3053 
L 1172 1153 
Q 1172 725 1289 603 
Q 1406 481 1766 481 
L 2356 481 
L 2356 0 
L 1766 0 
Q 1100 0 847 248 
Q 594 497 594 1153 
L 594 3053 
L 172 3053 
L 172 3500 
L 594 3500 
L 594 4494 
L 1172 4494 
z
" transform="scale(0.015625)"/>
       <path id="DejaVuSans-76" d="M 191 3500 
L 800 3500 
L 1894 563 
L 2988 3500 
L 3597 3500 
L 2284 0 
L 1503 0 
L 191 3500 
z
" transform="scale(0.015625)"/>
       <path id="DejaVuSans-52" d="M 2841 2188 
Q 3044 2119 3236 1894 
Q 3428 1669 3622 1275 
L 4263 0 
L 3584 0 
L 2988 1197 
Q 2756 1666 2539 1819 
Q 2322 1972 1947 1972 
L 1259 1972 
L 1259 0 
L 628 0 
L 628 4666 
L 2053 4666 
Q 2853 4666 3247 4331 
Q 3641 3997 3641 3322 
Q 3641 2881 3436 2590 
Q 3231 2300 2841 2188 
z
M 1259 4147 
L 1259 2491 
L 2053 2491 
Q 2509 2491 2742 2702 
Q 2975 2913 2975 3322 
Q 2975 3731 2742 3939 
Q 2509 4147 2053 4147 
L 1259 4147 
z
" transform="scale(0.015625)"/>
      </defs>
      <use xlink:href="#DejaVuSans-46"/>
      <use xlink:href="#DejaVuSans-61" x="48.394531"/>
      <use xlink:href="#DejaVuSans-6c" x="109.673828"/>
      <use xlink:href="#DejaVuSans-73" x="137.457031"/>
      <use xlink:href="#DejaVuSans-65" x="189.556641"/>
      <use xlink:href="#DejaVuSans-20" x="251.080078"/>
      <use xlink:href="#DejaVuSans-50" x="282.867188"/>
      <use xlink:href="#DejaVuSans-6f" x="339.544922"/>
      <use xlink:href="#DejaVuSans-73" x="400.726562"/>
      <use xlink:href="#DejaVuSans-69" x="452.826172"/>
      <use xlink:href="#DejaVuSans-74" x="480.609375"/>
      <use xlink:href="#DejaVuSans-69" x="519.818359"/>
      <use xlink:href="#DejaVuSans-76" x="547.601562"/>
      <use xlink:href="#DejaVuSans-65" x="606.78125"/>
      <use xlink:href="#DejaVuSans-20" x="668.304688"/>
      <use xlink:href="#DejaVuSans-52" x="700.091797"/>
      <use xlink:href="#DejaVuSans-61" x="767.324219"/>
      <use xlink:href="#DejaVuSans-74" x="828.603516"/>
      <use xlink:href="#DejaVuSans-65" x="867.8125"/>
     </g>
    </g>
   </g>
   <g id="matplotlib.axis_2">
    <g id="ytick_1">
     <g id="line2d_13">
      <path d="M 45.716875 778.585398 
L 369.616875 778.585398 
" clip-path="url(#p449fa7f432)" style="fill: none; stroke: #b0b0b0; stroke-width: 0.8; stroke-linecap: square"/>
     </g>
     <g id="line2d_14">
      <defs>
       <path id="m1de0c43b8c" d="M 0 0 
L -3.5 0 
" style="stroke: #000000; stroke-width: 0.8"/>
      </defs>
      <g>
       <use xlink:href="#m1de0c43b8c" x="45.716875" y="778.585398" style="stroke: #000000; stroke-width: 0.8"/>
      </g>
     </g>
     <g id="text_8">
      <!-- 0.0 -->
      <g transform="translate(22.81375 782.384616)scale(0.1 -0.1)">
       <use xlink:href="#DejaVuSans-30"/>
       <use xlink:href="#DejaVuSans-2e" x="63.623047"/>
       <use xlink:href="#DejaVuSans-30" x="95.410156"/>
      </g>
     </g>
    </g>
    <g id="ytick_2">
     <g id="line2d_15">
      <path d="M 45.716875 634.534489 
L 369.616875 634.534489 
" clip-path="url(#p449fa7f432)" style="fill: none; stroke: #b0b0b0; stroke-width: 0.8; stroke-linecap: square"/>
     </g>
     <g id="line2d_16">
      <g>
       <use xlink:href="#m1de0c43b8c" x="45.716875" y="634.534489" style="stroke: #000000; stroke-width: 0.8"/>
      </g>
     </g>
     <g id="text_9">
      <!-- 0.2 -->
      <g transform="translate(22.81375 638.333707)scale(0.1 -0.1)">
       <use xlink:href="#DejaVuSans-30"/>
       <use xlink:href="#DejaVuSans-2e" x="63.623047"/>
       <use xlink:href="#DejaVuSans-32" x="95.410156"/>
      </g>
     </g>
    </g>
    <g id="ytick_3">
     <g id="line2d_17">
      <path d="M 45.716875 490.48358 
L 369.616875 490.48358 
" clip-path="url(#p449fa7f432)" style="fill: none; stroke: #b0b0b0; stroke-width: 0.8; stroke-linecap: square"/>
     </g>
     <g id="line2d_18">
      <g>
       <use xlink:href="#m1de0c43b8c" x="45.716875" y="490.48358" style="stroke: #000000; stroke-width: 0.8"/>
      </g>
     </g>
     <g id="text_10">
      <!-- 0.4 -->
      <g transform="translate(22.81375 494.282798)scale(0.1 -0.1)">
       <use xlink:href="#DejaVuSans-30"/>
       <use xlink:href="#DejaVuSans-2e" x="63.623047"/>
       <use xlink:href="#DejaVuSans-34" x="95.410156"/>
      </g>
     </g>
    </g>
    <g id="ytick_4">
     <g id="line2d_19">
      <path d="M 45.716875 346.43267 
L 369.616875 346.43267 
" clip-path="url(#p449fa7f432)" style="fill: none; stroke: #b0b0b0; stroke-width: 0.8; stroke-linecap: square"/>
     </g>
     <g id="line2d_20">
      <g>
       <use xlink:href="#m1de0c43b8c" x="45.716875" y="346.43267" style="stroke: #000000; stroke-width: 0.8"/>
      </g>
     </g>
     <g id="text_11">
      <!-- 0.6 -->
      <g transform="translate(22.81375 350.231889)scale(0.1 -0.1)">
       <use xlink:href="#DejaVuSans-30"/>
       <use xlink:href="#DejaVuSans-2e" x="63.623047"/>
       <use xlink:href="#DejaVuSans-36" x="95.410156"/>
      </g>
     </g>
    </g>
    <g id="ytick_5">
     <g id="line2d_21">
      <path d="M 45.716875 202.381761 
L 369.616875 202.381761 
" clip-path="url(#p449fa7f432)" style="fill: none; stroke: #b0b0b0; stroke-width: 0.8; stroke-linecap: square"/>
     </g>
     <g id="line2d_22">
      <g>
       <use xlink:href="#m1de0c43b8c" x="45.716875" y="202.381761" style="stroke: #000000; stroke-width: 0.8"/>
      </g>
     </g>
     <g id="text_12">
      <!-- 0.8 -->
      <g transform="translate(22.81375 206.18098)scale(0.1 -0.1)">
       <use xlink:href="#DejaVuSans-30"/>
       <use xlink:href="#DejaVuSans-2e" x="63.623047"/>
       <use xlink:href="#DejaVuSans-38" x="95.410156"/>
      </g>
     </g>
    </g>
    <g id="ytick_6">
     <g id="line2d_23">
      <path d="M 45.716875 58.330852 
L 369.616875 58.330852 
" clip-path="url(#p449fa7f432)" style="fill: none; stroke: #b0b0b0; stroke-width: 0.8; stroke-linecap: square"/>
     </g>
     <g id="line2d_24">
      <g>
       <use xlink:href="#m1de0c43b8c" x="45.716875" y="58.330852" style="stroke: #000000; stroke-width: 0.8"/>
      </g>
     </g>
     <g id="text_13">
      <!-- 1.0 -->
      <g transform="translate(22.81375 62.130071)scale(0.1 -0.1)">
       <use xlink:href="#DejaVuSans-31"/>
       <use xlink:href="#DejaVuSans-2e" x="63.623047"/>
       <use xlink:href="#DejaVuSans-30" x="95.410156"/>
      </g>
     </g>
    </g>
    <g id="text_14">
     <!-- True Positive Rate -->
     <g transform="translate(16.318125 471.89375)rotate(-90)scale(0.12 -0.12)">
      <defs>
       <path id="DejaVuSans-54" d="M -19 4666 
L 3928 4666 
L 3928 4134 
L 2272 4134 
L 2272 0 
L 1638 0 
L 1638 4134 
L -19 4134 
L -19 4666 
z
" transform="scale(0.015625)"/>
       <path id="DejaVuSans-72" d="M 2631 2963 
Q 2534 3019 2420 3045 
Q 2306 3072 2169 3072 
Q 1681 3072 1420 2755 
Q 1159 2438 1159 1844 
L 1159 0 
L 581 0 
L 581 3500 
L 1159 3500 
L 1159 2956 
Q 1341 3275 1631 3429 
Q 1922 3584 2338 3584 
Q 2397 3584 2469 3576 
Q 2541 3569 2628 3553 
L 2631 2963 
z
" transform="scale(0.015625)"/>
       <path id="DejaVuSans-75" d="M 544 1381 
L 544 3500 
L 1119 3500 
L 1119 1403 
Q 1119 906 1312 657 
Q 1506 409 1894 409 
Q 2359 409 2629 706 
Q 2900 1003 2900 1516 
L 2900 3500 
L 3475 3500 
L 3475 0 
L 2900 0 
L 2900 538 
Q 2691 219 2414 64 
Q 2138 -91 1772 -91 
Q 1169 -91 856 284 
Q 544 659 544 1381 
z
M 1991 3584 
L 1991 3584 
z
" transform="scale(0.015625)"/>
      </defs>
      <use xlink:href="#DejaVuSans-54"/>
      <use xlink:href="#DejaVuSans-72" x="46.333984"/>
      <use xlink:href="#DejaVuSans-75" x="87.447266"/>
      <use xlink:href="#DejaVuSans-65" x="150.826172"/>
      <use xlink:href="#DejaVuSans-20" x="212.349609"/>
      <use xlink:href="#DejaVuSans-50" x="244.136719"/>
      <use xlink:href="#DejaVuSans-6f" x="300.814453"/>
      <use xlink:href="#DejaVuSans-73" x="361.996094"/>
      <use xlink:href="#DejaVuSans-69" x="414.095703"/>
      <use xlink:href="#DejaVuSans-74" x="441.878906"/>
      <use xlink:href="#DejaVuSans-69" x="481.087891"/>
      <use xlink:href="#DejaVuSans-76" x="508.871094"/>
      <use xlink:href="#DejaVuSans-65" x="568.050781"/>
      <use xlink:href="#DejaVuSans-20" x="629.574219"/>
      <use xlink:href="#DejaVuSans-52" x="661.361328"/>
      <use xlink:href="#DejaVuSans-61" x="728.59375"/>
      <use xlink:href="#DejaVuSans-74" x="789.873047"/>
      <use xlink:href="#DejaVuSans-65" x="829.082031"/>
     </g>
    </g>
   </g>
   <g id="line2d_25">
    <path d="M 60.439602 778.585398 
L 60.527473 768.08606 
L 60.556763 768.08606 
L 60.644634 752.518077 
L 60.673924 752.518077 
L 60.761795 737.094913 
L 60.791085 737.094913 
L 60.849665 730.578083 
L 60.908246 730.578083 
L 60.996116 727.247258 
L 61.025407 727.247258 
L 61.113277 719.427062 
L 61.142567 719.427062 
L 61.230438 713.706734 
L 61.259728 713.706734 
L 61.347599 699.948981 
L 61.376889 699.948981 
L 61.46476 696.183701 
L 61.49405 696.183701 
L 61.581921 689.160007 
L 61.611211 689.160007 
L 61.699082 685.611955 
L 61.728372 685.611955 
L 61.816242 683.439678 
L 61.845533 683.439678 
L 61.933403 676.70562 
L 61.962694 676.70562 
L 62.050564 672.795522 
L 62.109145 672.723113 
L 62.197015 669.899153 
L 62.226305 669.899153 
L 62.314176 664.830508 
L 62.372757 664.830508 
L 62.460627 661.282456 
L 62.489917 661.282456 
L 62.577788 654.113943 
L 62.607078 654.113943 
L 62.694949 650.927937 
L 62.724239 650.927937 
L 62.81211 649.334934 
L 62.8414 649.334934 
L 62.929271 646.510974 
L 63.017141 646.438565 
L 63.105012 642.962922 
L 63.134302 642.962922 
L 63.222173 640.645827 
L 63.251463 640.645827 
L 63.339334 637.677049 
L 63.397914 637.677049 
L 63.485785 636.011637 
L 63.544365 636.011637 
L 63.632236 633.911769 
L 63.661526 633.911769 
L 63.749397 630.725763 
L 63.778687 630.725763 
L 63.866558 628.119031 
L 63.925138 628.119031 
L 64.013009 625.512299 
L 64.042299 625.512299 
L 64.13017 622.471112 
L 64.18875 622.398703 
L 64.276621 620.660881 
L 64.335201 620.588472 
L 64.423072 617.402466 
L 64.452362 617.402466 
L 64.540233 614.506097 
L 64.569523 614.506097 
L 64.657393 612.695867 
L 64.715974 612.695867 
L 64.803845 608.278904 
L 64.833135 608.278904 
L 64.921005 606.83072 
L 64.950296 606.83072 
L 65.038166 605.020489 
L 65.096747 605.020489 
L 65.184617 602.920622 
L 65.243198 602.920622 
L 65.331068 600.965573 
L 65.360359 600.965573 
L 65.448229 599.300161 
L 65.477519 599.300161 
L 65.56539 596.258973 
L 65.623971 596.258973 
L 65.711841 592.710921 
L 65.741131 592.710921 
L 65.829002 588.221549 
L 65.887583 588.14914 
L 65.975453 585.687227 
L 66.004743 585.687227 
L 66.092614 582.428811 
L 66.121904 582.428811 
L 66.209775 579.822079 
L 66.239065 579.822079 
L 66.326936 578.663532 
L 66.385516 578.591123 
L 66.473387 577.432575 
L 66.561258 577.432575 
L 66.649128 576.346437 
L 66.678418 576.346437 
L 66.766289 574.246569 
L 66.795579 574.246569 
L 66.88345 572.074293 
L 66.91274 572.074293 
L 67.000611 570.046834 
L 67.029901 570.046834 
L 67.088481 568.960696 
L 67.147062 568.960696 
L 67.234932 566.71601 
L 67.264223 566.71601 
L 67.322803 564.760961 
L 67.439964 564.688552 
L 67.527835 563.457595 
L 67.557125 563.457595 
L 67.644996 562.299047 
L 67.674286 562.299047 
L 67.762156 558.606177 
L 67.791447 558.606177 
L 67.879317 557.085583 
L 67.908607 557.085583 
L 67.996478 555.420171 
L 68.025768 555.420171 
L 68.113639 553.68235 
L 68.142929 553.68235 
L 68.2308 552.885848 
L 68.26009 552.885848 
L 68.347961 552.234165 
L 68.377251 552.234165 
L 68.465122 551.292845 
L 68.494412 551.292845 
L 68.582282 549.265387 
L 68.611573 549.265387 
L 68.699443 547.237929 
L 68.758024 547.16552 
L 68.845894 545.065652 
L 68.875185 545.065652 
L 68.963055 542.314102 
L 68.992345 542.314102 
L 69.080216 540.503871 
L 69.109506 540.503871 
L 69.197377 538.76605 
L 69.226667 538.76605 
L 69.285248 538.186776 
L 69.343828 538.186776 
L 69.431699 537.390274 
L 69.490279 537.390274 
L 69.57815 536.304136 
L 69.60744 536.304136 
L 69.695311 535.580044 
L 69.724601 535.580044 
L 69.812472 533.697404 
L 69.871052 533.697404 
L 69.958923 528.990805 
L 70.076083 528.990805 
L 70.163954 527.615029 
L 70.222535 527.615029 
L 70.310405 526.166845 
L 70.368986 526.166845 
L 70.456856 525.080707 
L 70.486146 525.080707 
L 70.574017 522.763611 
L 70.632598 522.691202 
L 70.720468 519.360378 
L 70.749758 519.360378 
L 70.837629 516.536418 
L 70.9255 516.464009 
L 71.01337 513.784868 
L 71.042661 513.784868 
L 71.130531 512.698729 
L 71.159821 512.698729 
L 71.218402 511.685 
L 71.276982 511.685 
L 71.364853 510.888499 
L 71.394143 510.888499 
L 71.482014 509.005859 
L 71.511304 509.005859 
L 71.569885 507.557674 
L 71.628465 507.557674 
L 71.716336 506.761173 
L 71.804206 506.761173 
L 71.892077 505.457807 
L 71.979948 505.385398 
L 72.067818 504.22685 
L 72.097108 504.22685 
L 72.184979 503.140712 
L 72.214269 503.140712 
L 72.30214 501.692527 
L 72.36072 501.692527 
L 72.448591 501.113254 
L 72.507171 501.040844 
L 72.595042 499.954706 
L 72.624332 499.954706 
L 72.712203 498.506522 
L 72.770783 498.506522 
L 72.858654 497.203155 
L 72.946525 497.203155 
L 73.034395 496.623882 
L 73.092976 496.623882 
L 73.151556 495.82738 
L 73.210137 495.82738 
L 73.268717 494.741242 
L 73.385878 494.668833 
L 73.415168 494.524014 
L 73.503039 494.524014 
L 73.590909 493.003421 
L 73.64949 492.931011 
L 73.737361 491.410418 
L 73.766651 491.410418 
L 73.854521 488.803686 
L 73.883812 488.803686 
L 73.971682 486.921046 
L 74.000972 486.921046 
L 74.059553 486.196954 
L 74.118133 486.196954 
L 74.206004 485.038406 
L 74.235294 485.038406 
L 74.323165 483.662631 
L 74.352455 483.662631 
L 74.440326 482.79372 
L 74.469616 482.79372 
L 74.557487 482.286855 
L 74.616067 482.286855 
L 74.703938 480.983489 
L 74.733228 480.983489 
L 74.821099 480.04217 
L 74.879679 479.96976 
L 74.96755 478.376757 
L 74.99684 478.376757 
L 75.08471 477.290619 
L 75.114001 477.290619 
L 75.201871 476.783754 
L 75.231162 476.783754 
L 75.319032 475.697616 
L 75.348322 475.697616 
L 75.436193 474.539069 
L 75.524064 474.466659 
L 75.611934 472.946066 
L 75.670515 472.946066 
L 75.758385 471.715109 
L 75.787676 471.715109 
L 75.875546 471.280653 
L 75.934127 471.208244 
L 76.021997 470.411743 
L 76.080578 470.339334 
L 76.168448 469.253195 
L 76.197739 469.253195 
L 76.256319 468.311875 
L 76.3149 468.311875 
L 76.34419 467.805011 
L 76.43206 467.805011 
L 76.519931 466.791282 
L 76.549221 466.791282 
L 76.637092 465.849962 
L 76.695672 465.777553 
L 76.783543 465.198279 
L 76.842123 465.12587 
L 76.900704 464.039731 
L 76.959284 464.039731 
L 77.047155 462.736365 
L 77.076445 462.736365 
L 77.164316 461.070953 
L 77.222896 461.070953 
L 77.310767 460.346861 
L 77.340057 460.346861 
L 77.398638 460.129633 
L 77.486508 460.057224 
L 77.515798 459.695178 
L 77.632959 459.622769 
L 77.72083 458.826267 
L 77.75012 458.826267 
L 77.837991 458.029766 
L 77.867281 458.029766 
L 77.955152 457.160855 
L 77.984442 457.160855 
L 78.072313 454.771351 
L 78.101603 454.771351 
L 78.160183 453.757621 
L 78.218764 453.757621 
L 78.306634 453.323166 
L 78.365215 453.250757 
L 78.453085 452.816302 
L 78.511666 452.816302 
L 78.511666 452.599074 
L 78.628827 452.599074 
L 78.687407 451.585345 
L 78.745988 451.585345 
L 78.833858 450.644025 
L 78.863148 450.644025 
L 78.951019 449.775114 
L 79.009599 449.702705 
L 79.06818 448.833794 
L 79.12676 448.833794 
L 79.214631 448.109702 
L 79.302502 448.109702 
L 79.361082 447.38561 
L 79.419662 447.38561 
L 79.507533 445.792607 
L 79.536823 445.792607 
L 79.624694 444.416832 
L 79.653984 444.416832 
L 79.712565 443.62033 
L 79.859016 443.547921 
L 79.946886 442.172146 
L 79.976177 442.172146 
L 80.064047 441.375644 
L 80.093337 441.375644 
L 80.181208 441.013598 
L 80.269079 440.941189 
L 80.327659 440.289506 
L 80.41553 440.217097 
L 80.47411 439.855051 
L 80.591271 439.782641 
L 80.620561 439.275777 
L 80.708432 439.275777 
L 80.737722 438.334457 
L 80.825593 438.334457 
L 80.854883 437.610365 
L 80.942754 437.610365 
L 81.030624 436.16218 
L 81.059915 436.16218 
L 81.147785 434.496768 
L 81.177075 434.496768 
L 81.235656 433.265811 
L 81.352817 433.193402 
L 81.411397 432.976174 
L 81.469978 432.976174 
L 81.557848 432.252082 
L 81.587139 432.252082 
L 81.645719 430.948716 
L 81.73359 430.876307 
L 81.79217 429.066076 
L 81.967911 428.993667 
L 82.026492 427.76271 
L 82.202233 427.690301 
L 82.202233 427.183436 
L 82.348684 427.111027 
L 82.436555 426.604163 
L 82.465845 426.604163 
L 82.524425 425.88007 
L 82.612296 425.88007 
L 82.700167 424.793932 
L 82.758747 424.721523 
L 82.846618 423.200929 
L 82.875908 423.200929 
L 82.963779 421.897563 
L 82.993069 421.897563 
L 83.051649 420.739016 
L 83.11023 420.739016 
L 83.13952 420.232151 
L 83.227391 420.232151 
L 83.315261 419.580468 
L 83.403132 419.580468 
L 83.491003 418.856376 
L 83.520293 418.856376 
L 83.608163 418.349511 
L 83.637454 418.349511 
L 83.725324 416.61169 
L 83.783905 416.539281 
L 83.871775 415.597961 
L 83.901066 415.597961 
L 83.988936 415.235915 
L 84.047517 415.235915 
L 84.135387 412.629183 
L 84.193968 412.629183 
L 84.281838 411.543044 
L 84.369709 411.470635 
L 84.45758 410.601724 
L 84.51616 410.529315 
L 84.604031 408.574266 
L 84.633321 408.574266 
L 84.633321 407.994992 
L 84.750482 407.994992 
L 84.838353 406.764035 
L 84.867643 406.764035 
L 84.955513 405.967534 
L 85.014094 405.967534 
L 85.101964 405.677897 
L 85.160545 405.605488 
L 85.248416 404.591759 
L 85.277706 404.591759 
L 85.336286 404.012485 
L 85.394867 404.012485 
L 85.482737 403.50562 
L 85.570608 403.433211 
L 85.629188 403.215983 
L 85.746349 403.143574 
L 85.83422 402.63671 
L 85.951381 402.63671 
L 86.009961 402.202254 
L 86.097832 402.202254 
L 86.185702 401.333344 
L 86.214993 401.333344 
L 86.302863 399.957568 
L 86.361444 399.957568 
L 86.420024 399.016249 
L 86.478605 399.016249 
L 86.566475 398.074929 
L 86.595766 398.074929 
L 86.683636 396.626744 
L 86.742217 396.626744 
L 86.771507 396.409516 
L 86.888668 396.409516 
L 86.947248 395.902652 
L 87.035119 395.830243 
L 87.122989 394.23724 
L 87.386601 394.164831 
L 87.474472 393.29592 
L 87.533052 393.29592 
L 87.620923 392.716646 
L 87.679504 392.716646 
L 87.767374 392.064963 
L 87.855245 392.064963 
L 87.943115 390.327142 
L 88.001696 390.254732 
L 88.030986 389.53064 
L 88.118857 389.53064 
L 88.206727 389.096185 
L 88.236018 389.096185 
L 88.294598 387.937637 
L 88.353179 387.937637 
L 88.441049 386.77909 
L 88.470339 386.77909 
L 88.55821 386.344634 
L 88.675371 386.272225 
L 88.763242 385.258496 
L 88.851112 385.258496 
L 88.938983 384.679222 
L 88.997563 384.679222 
L 89.026853 384.027539 
L 89.114724 384.027539 
L 89.202595 382.868992 
L 89.261175 382.868992 
L 89.349046 381.710444 
L 89.495497 381.710444 
L 89.583368 381.13117 
L 89.612658 381.13117 
L 89.700528 380.26226 
L 89.759109 380.18985 
L 89.84698 379.465758 
L 89.90556 379.465758 
L 89.93485 379.031303 
L 90.081301 378.958894 
L 90.169172 378.524438 
L 90.198462 378.524438 
L 90.257043 377.727937 
L 90.344913 377.727937 
L 90.432784 376.931435 
L 90.520655 376.859026 
L 90.608525 375.121205 
L 90.637815 375.121205 
L 90.696396 374.831568 
L 90.754976 374.831568 
L 90.842847 374.035066 
L 90.901427 373.962657 
L 90.989298 373.528202 
L 91.047878 373.528202 
L 91.135749 372.442064 
L 91.165039 372.442064 
L 91.25291 371.500744 
L 91.2822 371.500744 
L 91.370071 370.487014 
L 91.399361 370.487014 
L 91.487232 369.690513 
L 91.545812 369.618104 
L 91.633683 368.966421 
L 91.662973 368.966421 
L 91.721553 368.387147 
L 91.780134 368.387147 
L 91.868004 367.880282 
L 91.926585 367.807873 
L 91.985165 367.445827 
L 92.160907 367.445827 
L 92.219487 366.576916 
L 92.307358 366.504507 
L 92.365938 366.142461 
L 92.453809 366.142461 
L 92.541679 365.635597 
L 92.57097 365.635597 
L 92.65884 364.40464 
L 92.717421 364.33223 
L 92.805291 363.680547 
L 92.863872 363.680547 
L 92.951742 363.028864 
L 92.981033 363.028864 
L 93.039613 362.377181 
L 93.127484 362.377181 
L 93.215354 361.58068 
L 93.303225 361.508271 
L 93.391096 360.566951 
L 93.420386 360.566951 
L 93.508257 359.480813 
L 93.566837 359.408403 
L 93.654708 359.046357 
L 93.683998 359.046357 
L 93.771869 358.177446 
L 93.801159 358.177446 
L 93.859739 357.670582 
L 93.91832 357.670582 
L 94.00619 356.87408 
L 94.03548 356.87408 
L 94.094061 356.439625 
L 94.152641 356.439625 
L 94.211222 355.715533 
L 94.269802 355.715533 
L 94.328383 355.208668 
L 94.445544 355.208668 
L 94.504124 354.629395 
L 94.591995 354.556985 
L 94.679865 353.615665 
L 94.767736 353.543256 
L 94.826316 353.108801 
L 94.972767 353.036392 
L 95.060638 351.733026 
L 95.119218 351.733026 
L 95.207089 351.153752 
L 95.236379 351.153752 
L 95.32425 350.574478 
L 95.441411 350.574478 
L 95.470701 349.777977 
L 95.587862 349.705567 
L 95.587862 349.560749 
L 95.763603 349.48834 
L 95.851474 348.981475 
L 96.027215 348.909066 
L 96.115086 348.257383 
L 96.144376 348.257383 
L 96.232247 347.678109 
L 96.261537 347.678109 
L 96.349408 347.243654 
L 96.407988 347.243654 
L 96.495859 345.867879 
L 96.61302 345.867879 
L 96.70089 344.926559 
L 96.759471 344.926559 
L 96.847341 343.623193 
L 96.876631 343.623193 
L 96.905922 342.97151 
L 97.081663 342.8991 
L 97.169534 341.378507 
L 97.198824 341.378507 
L 97.198824 340.364778 
L 97.315985 340.364778 
L 97.403855 339.568276 
L 97.462436 339.495867 
L 97.521016 339.061412 
L 97.579597 339.061412 
L 97.667467 338.771775 
L 97.726048 338.699365 
L 97.784628 338.047682 
L 97.843209 338.047682 
L 97.901789 337.540818 
L 97.960369 337.540818 
L 98.01895 337.106362 
L 98.07753 337.106362 
L 98.07753 336.816726 
L 98.194691 336.816726 
L 98.282562 336.092633 
L 98.311852 336.092633 
L 98.370433 335.658178 
L 98.487593 335.658178 
L 98.575464 334.065175 
L 98.663335 333.992766 
L 98.721915 333.775538 
L 98.809786 333.775538 
L 98.868366 332.834218 
L 98.985527 332.761809 
L 99.044107 332.327354 
L 99.161268 332.254945 
L 99.249139 331.530852 
L 99.33701 331.530852 
L 99.42488 331.241215 
L 99.454171 331.241215 
L 99.454171 330.879169 
L 99.571331 330.879169 
L 99.659202 330.010259 
L 99.688492 330.010259 
L 99.776363 329.430985 
L 99.805653 329.430985 
L 99.893524 328.706893 
L 99.952104 328.706893 
L 100.039975 327.9828 
L 100.157136 327.910391 
L 100.245006 327.04148 
L 100.332877 327.04148 
L 100.420748 326.317388 
L 100.450038 326.317388 
L 100.508618 325.593296 
L 100.567199 325.593296 
L 100.625779 325.014022 
L 100.74294 325.014022 
L 100.830811 324.507158 
L 100.977262 324.434748 
L 101.006552 323.855475 
L 101.123713 323.783065 
L 101.211583 323.638247 
L 101.270164 323.565838 
L 101.299454 323.276201 
L 101.504486 323.203792 
L 101.563066 322.914155 
L 101.621647 322.914155 
L 101.709517 322.696927 
L 101.738807 322.696927 
L 101.826678 321.393561 
L 101.855968 321.393561 
L 101.943839 320.886696 
L 101.973129 320.886696 
L 102.061 320.307423 
L 102.178161 320.235013 
L 102.236741 319.872967 
L 102.324612 319.872967 
L 102.324612 319.65574 
L 102.441773 319.65574 
L 102.529643 318.569601 
L 102.617514 318.569601 
L 102.705385 317.917918 
L 102.763965 317.917918 
L 102.851836 317.338644 
L 102.881126 317.338644 
L 102.968996 316.035278 
L 103.027577 316.035278 
L 103.115448 315.456005 
L 103.144738 315.456005 
L 103.232608 314.731912 
L 103.40835 314.659503 
L 103.49622 313.863002 
L 103.525511 313.863002 
L 103.613381 313.428546 
L 103.671962 313.356137 
L 103.759832 313.0665 
L 103.789123 313.0665 
L 103.847703 312.487227 
L 103.906283 312.487227 
L 103.994154 311.835543 
L 104.023444 311.835543 
L 104.111315 310.170131 
L 104.140605 310.170131 
L 104.228476 309.37363 
L 104.287056 309.301221 
L 104.374927 309.011584 
L 104.404217 309.011584 
L 104.492088 308.070264 
L 104.521378 308.070264 
L 104.609249 307.49099 
L 104.638539 307.49099 
L 104.726409 306.694489 
L 104.78499 306.694489 
L 104.84357 306.187624 
L 104.902151 306.187624 
L 104.902151 306.042806 
L 105.136472 305.970396 
L 105.165763 305.753169 
L 105.253633 305.753169 
L 105.282924 305.318713 
L 105.458665 305.246304 
L 105.517245 304.73944 
L 105.575826 304.73944 
L 105.663696 304.160166 
L 105.692987 304.160166 
L 105.780857 303.508483 
L 105.810147 303.508483 
L 105.868728 302.494754 
L 106.015179 302.494754 
L 106.10305 301.843071 
L 106.13234 301.843071 
L 106.220211 301.046569 
L 106.249501 301.046569 
L 106.337371 300.539705 
L 106.366662 300.539705 
L 106.454532 300.105249 
L 106.571693 300.03284 
L 106.659564 298.946702 
L 106.835305 298.946702 
L 106.923176 298.657065 
L 106.952466 298.657065 
L 107.011046 297.932973 
L 107.098917 297.860563 
L 107.157497 297.570926 
L 107.333239 297.498517 
L 107.421109 297.136471 
L 107.47969 297.136471 
L 107.56756 296.26756 
L 107.655431 296.26756 
L 107.655431 296.050333 
L 107.801882 296.050333 
L 107.889753 295.688287 
L 108.006914 295.615877 
L 108.094784 294.891785 
L 108.182655 294.891785 
L 108.270526 294.240102 
L 108.329106 294.167693 
L 108.387687 293.805647 
L 108.446267 293.805647 
L 108.534138 292.429872 
L 108.563428 292.429872 
L 108.651298 291.126506 
L 108.709879 291.054096 
L 108.768459 290.330004 
L 108.88562 290.330004 
L 108.973491 289.82314 
L 109.090652 289.75073 
L 109.178522 289.243866 
L 109.237103 289.171457 
L 109.295683 288.737001 
L 109.500715 288.664592 
L 109.559295 288.374955 
L 109.705746 288.302546 
L 109.793617 287.650863 
L 109.881488 287.578454 
L 109.969358 286.926771 
L 109.998648 286.926771 
L 110.057229 286.492315 
L 110.115809 286.492315 
L 110.20368 285.985451 
L 110.320841 285.913042 
L 110.320841 285.550995 
L 110.438002 285.550995 
L 110.525872 284.537266 
L 110.584453 284.464857 
L 110.672323 283.451128 
L 110.701614 283.451128 
L 110.760194 282.871854 
L 110.818774 282.871854 
L 110.877355 281.640897 
L 111.023806 281.640897 
L 111.111677 280.989214 
L 111.199547 280.916805 
L 111.258128 280.771987 
L 111.345998 280.699577 
L 111.433869 280.337531 
L 111.463159 280.337531 
L 111.55103 279.758258 
L 111.58032 279.758258 
L 111.668191 279.251393 
L 111.785352 279.178984 
L 111.843932 278.889347 
L 111.902512 278.889347 
L 111.990383 277.803208 
L 112.019673 277.803208 
L 112.107544 276.861889 
L 112.166124 276.789479 
L 112.253995 276.137796 
L 112.312576 276.065387 
L 112.371156 275.413704 
L 112.517607 275.341295 
L 112.605478 274.544793 
L 112.664058 274.544793 
L 112.751929 274.255157 
L 112.810509 274.182747 
L 112.89838 273.96552 
L 112.92767 273.96552 
L 112.98625 273.748292 
L 113.074121 273.675883 
L 113.161992 273.0242 
L 113.337733 272.951791 
L 113.425604 272.517335 
L 113.484184 272.517335 
L 113.572055 271.865652 
L 113.601345 271.865652 
L 113.630635 271.648424 
L 113.835667 271.576015 
L 113.894247 271.069151 
L 114.099279 271.069151 
L 114.187149 270.127831 
L 114.24573 270.055422 
L 114.27502 269.620966 
L 114.450761 269.620966 
L 114.538632 269.331329 
L 114.567922 269.331329 
L 114.626503 268.969283 
L 114.743663 268.969283 
L 114.831534 268.245191 
L 114.919405 268.172782 
L 115.007275 267.738326 
L 115.124436 267.665917 
L 115.212307 267.086643 
L 115.300178 267.014234 
L 115.329468 266.869416 
L 115.505209 266.797007 
L 115.56379 266.362551 
L 115.65166 266.362551 
L 115.68095 266.000505 
L 115.827401 266.000505 
L 115.915272 264.769548 
L 115.973853 264.769548 
L 116.061723 264.335093 
L 116.149594 264.335093 
L 116.208174 263.611001 
L 116.354625 263.611001 
L 116.383916 263.393773 
L 116.501076 263.393773 
L 116.559657 262.597272 
L 116.647528 262.597272 
L 116.735398 262.017998 
L 116.881849 261.945589 
L 116.881849 261.873179 
L 117.0283 261.873179 
L 117.116171 261.221496 
L 117.174751 261.221496 
L 117.262622 260.931859 
L 117.350493 260.85945 
L 117.438363 260.352586 
L 117.467654 260.352586 
L 117.526234 259.773312 
L 117.584814 259.773312 
L 117.672685 259.266447 
L 117.848426 259.194038 
L 117.936297 258.904401 
L 117.965587 258.904401 
L 117.965587 258.759583 
L 118.199909 258.759583 
L 118.28778 258.542355 
L 118.31707 258.542355 
L 118.404941 258.1079 
L 118.434231 258.1079 
L 118.434231 257.963081 
L 118.609972 257.963081 
L 118.697843 257.238989 
L 118.785713 257.238989 
L 118.785713 256.949352 
L 118.990745 256.949352 
L 119.078616 256.442488 
L 119.107906 256.442488 
L 119.195776 256.22526 
L 119.254357 256.22526 
L 119.342227 255.863214 
L 119.430098 255.790805 
L 119.517969 255.356349 
L 119.63513 255.28394 
L 119.63513 255.139122 
L 119.810871 255.066712 
L 119.810871 254.921894 
L 120.015902 254.849485 
L 120.045193 254.632257 
L 120.162354 254.632257 
L 120.191644 254.415029 
L 120.367385 254.415029 
L 120.455256 253.763346 
L 120.484546 253.763346 
L 120.572417 253.184073 
L 120.601707 253.184073 
L 120.660287 252.822026 
L 120.748158 252.822026 
L 120.806738 252.53239 
L 120.894609 252.45998 
L 120.953189 252.170343 
L 121.04106 252.097934 
L 121.04106 252.025525 
L 121.158221 252.025525 
L 121.246092 251.51866 
L 121.275382 251.51866 
L 121.275382 251.373842 
L 121.421833 251.301433 
L 121.509703 250.794568 
L 121.538994 250.794568 
L 121.568284 250.57734 
L 121.656155 250.57734 
L 121.744025 250.360113 
L 121.919766 250.287704 
L 122.007637 250.142885 
L 122.095508 250.070476 
L 122.183378 249.563611 
L 122.271249 249.491202 
L 122.271249 249.418793 
L 122.44699 249.346384 
L 122.534861 249.201565 
L 122.564151 249.201565 
L 122.622732 248.911928 
L 122.681312 248.911928 
L 122.769183 248.187836 
L 122.857053 248.115427 
L 122.944924 247.246516 
L 123.003505 247.174107 
L 123.091375 246.377606 
L 123.120665 246.377606 
L 123.179246 245.94315 
L 123.237826 245.94315 
L 123.325697 245.363876 
L 123.354987 245.363876 
L 123.442858 245.074239 
L 123.501438 245.074239 
L 123.560019 244.784603 
L 123.647889 244.712193 
L 123.73576 244.277738 
L 123.823631 244.205329 
L 123.882211 243.770873 
L 123.970082 243.698464 
L 124.057952 243.481237 
L 124.116533 243.481237 
L 124.204403 243.046781 
L 124.233694 243.046781 
L 124.233694 242.901963 
L 124.350854 242.901963 
L 124.350854 242.757144 
L 124.497306 242.757144 
L 124.585176 242.395098 
L 124.673047 242.395098 
L 124.702337 242.177871 
L 124.848788 242.105461 
L 124.848788 241.598597 
L 124.995239 241.598597 
L 124.995239 241.381369 
L 125.14169 241.381369 
L 125.229561 240.512458 
L 125.288141 240.440049 
L 125.376012 239.643548 
L 125.434592 239.643548 
L 125.522463 239.281502 
L 125.581044 239.281502 
L 125.668914 238.702228 
L 125.698204 238.702228 
L 125.756785 238.485 
L 125.815365 238.485 
L 125.815365 238.267772 
L 126.049687 238.195363 
L 126.137558 237.326453 
L 126.166848 237.326453 
L 126.254719 236.747179 
L 126.284009 236.747179 
L 126.371879 236.167905 
L 126.48904 236.095496 
L 126.576911 235.154176 
L 126.606201 235.154176 
L 126.635491 234.864539 
L 126.781942 234.79213 
L 126.869813 234.357674 
L 126.928393 234.285265 
L 126.957684 233.923219 
L 127.104135 233.85081 
L 127.162715 233.126718 
L 127.221296 233.126718 
L 127.279876 232.692262 
L 127.338457 232.692262 
L 127.426327 232.040579 
L 127.484908 231.96817 
L 127.484908 231.606124 
L 127.660649 231.606124 
L 127.689939 231.388896 
L 127.83639 231.316487 
L 127.924261 231.02685 
L 127.982841 230.954441 
L 128.070712 230.519986 
L 128.275743 230.447576 
L 128.334324 229.868303 
L 128.539355 229.795893 
L 128.627226 229.14421 
L 128.715097 229.071801 
L 128.773677 228.926983 
L 128.920128 228.854573 
L 129.007999 228.564937 
L 129.066579 228.564937 
L 129.15445 227.623617 
L 129.242321 227.623617 
L 129.330191 227.406389 
L 129.447352 227.406389 
L 129.535223 227.116752 
L 129.623093 227.044343 
L 129.681674 226.320251 
L 129.740254 226.320251 
L 129.740254 226.103023 
L 129.857415 226.103023 
L 129.945286 225.378931 
L 129.974576 225.378931 
L 129.974576 225.161703 
L 130.121027 225.089294 
L 130.179608 224.654838 
L 130.267478 224.654838 
L 130.296768 224.292792 
L 130.413929 224.220383 
L 130.413929 224.075565 
L 130.56038 224.075565 
L 130.648251 223.713519 
L 130.677541 223.713519 
L 130.765412 223.279063 
L 130.882573 223.206654 
L 130.882573 223.134245 
L 131.087604 223.061836 
L 131.146185 222.844608 
L 131.234055 222.772199 
L 131.263346 222.62738 
L 131.439087 222.554971 
L 131.468377 222.410153 
L 131.585538 222.337743 
L 131.673409 221.903288 
L 131.761279 221.903288 
L 131.761279 221.75847 
L 132.200632 221.68606 
L 132.288503 221.396423 
L 132.434954 221.324014 
L 132.522825 221.034377 
L 132.581405 220.961968 
L 132.639986 220.527513 
L 132.698566 220.527513 
L 132.786437 219.948239 
L 132.874307 219.948239 
L 132.962178 219.224147 
L 133.020759 219.224147 
L 133.020759 218.93451 
L 133.137919 218.93451 
L 133.22579 218.500054 
L 133.430822 218.427645 
L 133.518692 218.138008 
L 133.606563 218.138008 
L 133.694433 217.703553 
L 133.782304 217.703553 
L 133.870175 217.486325 
L 133.987336 217.413916 
L 134.075206 216.979461 
L 134.192367 216.979461 
L 134.280238 215.531276 
L 134.309528 215.531276 
L 134.309528 215.314049 
L 134.51456 215.241639 
L 134.57314 214.952003 
L 134.661011 214.879593 
L 134.690301 214.30032 
L 134.866042 214.30032 
L 134.953913 213.865864 
L 135.012493 213.793455 
L 135.100364 213.503818 
L 135.188235 213.503818 
L 135.188235 213.359 
L 135.305395 213.359 
L 135.334686 213.141772 
L 135.510427 213.069363 
L 135.598298 212.707317 
L 135.627588 212.707317 
L 135.715458 212.272861 
L 135.744749 212.272861 
L 135.832619 211.838406 
L 135.97907 211.765997 
L 136.037651 211.47636 
L 136.125521 211.47636 
L 136.213392 210.969495 
L 136.242682 210.969495 
L 136.242682 210.679858 
L 136.389133 210.679858 
L 136.477004 210.172994 
L 136.506294 210.172994 
L 136.594165 209.810948 
L 136.740616 209.738538 
L 136.828487 209.59372 
L 137.033518 209.521311 
L 137.033518 209.376492 
L 137.150679 209.376492 
L 137.179969 209.014446 
L 137.26784 209.014446 
L 137.355711 208.579991 
L 137.385001 208.579991 
L 137.472871 208.362763 
L 137.531452 208.290354 
L 137.531452 208.217945 
L 137.736483 208.145536 
L 137.795064 208.000717 
L 137.941515 207.928308 
L 138.029386 207.493853 
L 138.117256 207.493853 
L 138.146546 207.059397 
L 138.468739 206.986988 
L 138.527319 206.84217 
L 138.61519 206.76976 
L 138.67377 206.552533 
L 138.790931 206.552533 
L 138.878802 206.045668 
L 139.025253 205.973259 
L 139.054543 205.683622 
L 139.230284 205.611213 
L 139.318155 204.669893 
L 139.347445 204.669893 
L 139.376735 204.452665 
L 139.464606 204.452665 
L 139.552477 204.090619 
L 139.640347 204.090619 
L 139.669638 203.728573 
L 139.816089 203.728573 
L 139.874669 203.438936 
L 140.284732 203.366527 
L 140.372603 203.004481 
L 140.431183 203.004481 
L 140.519054 202.714844 
L 140.548344 202.714844 
L 140.606925 202.207979 
L 140.753376 202.13557 
L 140.811956 201.628705 
L 140.899827 201.556296 
L 140.958407 201.121841 
L 141.016988 201.121841 
L 141.104858 200.687386 
L 141.222019 200.614976 
L 141.251309 200.470158 
L 141.661372 200.470158 
L 141.719953 200.25293 
L 141.807823 200.180521 
L 141.866404 199.890884 
L 141.954275 199.818475 
L 141.954275 199.673656 
L 142.130016 199.673656 
L 142.217886 199.239201 
L 142.540079 199.239201 
L 142.540079 199.021973 
L 142.65724 199.021973 
L 142.65724 198.877155 
L 142.862271 198.877155 
L 142.950142 198.515109 
L 143.067303 198.4427 
L 143.125883 198.008244 
L 143.535946 197.935835 
L 143.535946 197.863426 
L 143.682397 197.863426 
L 143.770268 197.573789 
L 143.858139 197.50138 
L 143.946009 197.211743 
L 144.06317 197.139334 
L 144.151041 196.849697 
L 144.180331 196.849697 
L 144.268202 196.632469 
L 144.356072 196.56006 
L 144.414653 195.980786 
L 144.473233 195.980786 
L 144.561104 195.763558 
L 144.619684 195.763558 
L 144.619684 195.61874 
L 144.795426 195.546331 
L 144.883296 195.329103 
L 144.912586 195.329103 
L 144.912586 195.111875 
L 145.176198 195.039466 
L 145.264069 193.880919 
L 145.322649 193.880919 
L 145.322649 193.663691 
L 145.4691 193.663691 
L 145.556971 193.374054 
L 145.703422 193.301645 
L 145.791293 192.867189 
L 145.849873 192.867189 
L 145.849873 192.577553 
L 145.996324 192.505143 
L 146.054905 192.287916 
L 146.172066 192.215506 
L 146.172066 191.781051 
L 146.289227 191.781051 
L 146.347807 191.491414 
L 146.406387 191.491414 
L 146.464968 191.129368 
L 146.611419 191.056959 
L 146.611419 190.98455 
L 146.904321 190.91214 
L 146.904321 190.767322 
L 147.197223 190.694913 
L 147.255804 190.477685 
L 147.490125 190.405276 
L 147.577996 190.04323 
L 147.665867 190.04323 
L 147.724447 189.608774 
L 147.958769 189.536365 
L 148.017349 189.029501 
L 148.251671 188.957091 
L 148.310251 188.595045 
L 148.398122 188.595045 
L 148.398122 188.377818 
L 148.603154 188.377818 
L 148.691024 187.581316 
L 148.749605 187.581316 
L 148.808185 187.291679 
L 149.042507 187.21927 
L 149.130378 187.002042 
L 149.188958 186.929633 
L 149.276829 186.27795 
L 149.42328 186.205541 
L 149.48186 185.988313 
L 149.774762 185.915904 
L 149.862633 185.626267 
L 150.096955 185.553858 
L 150.096955 185.33663 
L 150.331276 185.264221 
L 150.389857 185.119402 
L 150.565598 185.046993 
L 150.565598 184.974584 
L 150.741339 184.902175 
L 150.82921 184.467719 
L 150.8585 184.467719 
L 150.946371 183.960855 
L 151.092822 183.960855 
L 151.122112 183.5264 
L 151.473595 183.45399 
L 151.502885 183.309172 
L 151.678626 183.236763 
L 151.766497 183.019535 
L 151.854368 182.947126 
L 151.942238 182.729898 
L 152.088689 182.729898 
L 152.14727 182.440261 
L 152.20585 182.440261 
L 152.20585 182.295443 
L 152.381592 182.223034 
L 152.469462 181.860987 
L 152.557333 181.788578 
L 152.645203 181.571351 
L 152.674494 181.571351 
L 152.674494 181.426532 
L 152.879525 181.426532 
L 152.967396 180.774849 
L 153.055267 180.774849 
L 153.143137 180.412803 
L 153.172427 180.412803 
L 153.172427 180.267985 
L 153.289588 180.267985 
L 153.377459 180.050757 
L 153.436039 180.050757 
L 153.49462 179.833529 
L 153.5532 179.833529 
L 153.611781 179.616302 
L 153.670361 179.616302 
L 153.670361 179.399074 
L 153.787522 179.399074 
L 153.875393 178.964619 
L 154.051134 178.892209 
L 154.139005 178.674982 
L 154.168295 178.674982 
L 154.256165 178.023299 
L 154.578358 177.950889 
L 154.636938 177.661252 
L 154.724809 177.661252 
L 154.81268 177.299206 
L 154.84197 177.299206 
L 154.90055 177.009569 
L 154.988421 176.93716 
L 155.017711 176.719933 
L 155.105582 176.719933 
L 155.193452 176.213068 
L 155.310613 176.140659 
L 155.398484 175.851022 
L 155.427774 175.851022 
L 155.427774 175.633794 
L 155.574225 175.633794 
L 155.662096 175.271748 
L 155.837837 175.199339 
L 155.925708 174.837293 
L 156.042869 174.764884 
L 156.042869 174.547656 
L 156.18932 174.547656 
L 156.2479 174.330428 
L 156.423641 174.258019 
L 156.511512 174.040791 
L 156.628673 173.968382 
L 156.687253 173.606336 
L 156.745834 173.606336 
L 156.745834 173.461518 
L 156.892285 173.389108 
L 156.950865 173.099471 
L 157.068026 173.027062 
L 157.155897 172.737425 
L 157.273058 172.665016 
L 157.360928 172.230561 
L 157.390219 172.230561 
L 157.478089 171.940924 
L 157.53667 171.868515 
L 157.59525 171.578878 
L 157.712411 171.506468 
L 157.741701 171.289241 
L 157.829572 171.289241 
L 157.917442 170.927195 
L 158.034603 170.854785 
L 158.122474 170.492739 
L 158.181054 170.42033 
L 158.268925 170.130693 
L 158.503247 170.058284 
L 158.503247 169.985875 
L 158.620408 169.985875 
L 158.620408 169.841056 
L 158.97189 169.768647 
L 159.059761 169.551419 
L 159.206212 169.47901 
L 159.294083 169.334192 
L 159.323373 169.334192 
L 159.411243 168.754918 
L 159.528404 168.754918 
L 159.586985 168.53769 
L 159.821307 168.465281 
L 159.909177 168.103235 
L 160.143499 168.030826 
L 160.143499 167.813598 
L 160.465691 167.813598 
L 160.553562 167.379143 
L 160.670723 167.306734 
L 160.670723 167.234324 
L 160.875754 167.161915 
L 160.934335 166.944687 
L 161.080786 166.872278 
L 161.168656 166.655051 
L 161.227237 166.582641 
L 161.315108 166.293004 
L 161.344398 166.293004 
L 161.344398 166.075777 
L 161.490849 166.075777 
L 161.578719 165.713731 
L 161.6373 165.641321 
L 161.6373 165.496503 
L 161.754461 165.496503 
L 161.842331 165.206866 
L 161.930202 165.134457 
L 161.988783 164.84482 
L 162.193814 164.772411 
L 162.252394 164.555183 
L 162.310975 164.555183 
L 162.398846 164.337955 
L 162.428136 164.337955 
L 162.457426 163.975909 
L 162.603877 163.9035 
L 162.633167 163.758682 
L 162.838199 163.758682 
L 162.867489 163.541454 
L 163.277552 163.469045 
L 163.336132 163.179408 
L 163.570454 163.106999 
L 163.570454 162.889771 
L 163.921937 162.817362 
L 164.009807 162.382906 
L 164.185549 162.310497 
L 164.244129 161.948451 
L 164.507741 161.876042 
L 164.537031 161.731223 
L 164.683482 161.731223 
L 164.771353 161.296768 
L 164.947094 161.224359 
L 165.005675 161.007131 
L 165.152126 160.934722 
L 165.239997 160.572676 
L 165.298577 160.500267 
L 165.298577 160.355448 
L 165.415738 160.355448 
L 165.474318 159.848584 
L 165.532899 159.848584 
L 165.591479 159.631356 
L 165.70864 159.558947 
L 165.796511 159.341719 
L 165.825801 159.341719 
L 165.855091 159.124491 
L 166.030832 159.052082 
L 166.089413 158.834854 
L 166.353025 158.762445 
L 166.411605 158.472808 
L 166.616637 158.472808 
L 166.675217 158.110762 
L 166.733798 158.110762 
L 166.763088 157.893534 
L 167.08528 157.821125 
L 167.08528 157.676307 
L 167.261021 157.676307 
L 167.348892 157.314261 
L 167.524633 157.241851 
L 167.553924 156.952215 
L 167.641794 156.952215 
L 167.729665 156.517759 
L 167.758955 156.517759 
L 167.817536 156.155713 
L 167.876116 156.155713 
L 167.876116 156.010895 
L 168.051857 155.938485 
L 168.051857 155.721258 
L 168.169018 155.721258 
L 168.256889 155.214393 
L 168.315469 155.141984 
L 168.40334 154.924756 
L 168.549791 154.924756 
L 168.608371 154.707529 
L 168.754823 154.635119 
L 168.813403 154.417892 
L 169.047725 154.345483 
L 169.135595 153.911027 
L 169.282046 153.838618 
L 169.340627 153.6938 
L 169.545658 153.62139 
L 169.633529 153.186935 
L 169.867851 153.114526 
L 169.867851 152.897298 
L 170.307204 152.824889 
L 170.395075 152.390434 
L 170.512235 152.318024 
L 170.570816 152.028387 
L 170.717267 152.028387 
L 170.717267 151.883569 
L 171.273781 151.81116 
L 171.332362 151.304295 
L 171.449522 151.231886 
L 171.478813 151.087067 
L 171.595974 151.087067 
L 171.595974 150.942249 
L 171.801005 150.942249 
L 171.801005 150.797431 
L 171.918166 150.797431 
L 171.918166 150.580203 
L 172.064617 150.507794 
L 172.064617 150.435384 
L 172.53326 150.362975 
L 172.53326 150.218157 
L 172.650421 150.218157 
L 172.738292 149.494065 
L 172.767582 149.494065 
L 172.855453 149.204428 
L 172.884743 149.204428 
L 172.972614 148.914791 
L 173.119065 148.914791 
L 173.206935 148.407926 
L 173.382677 148.335517 
L 173.470547 148.04588 
L 173.558418 147.973471 
L 173.646289 147.756243 
L 173.939191 147.683834 
L 173.997771 147.394197 
L 174.144222 147.321788 
L 174.144222 147.249379 
L 174.407834 147.176969 
L 174.495705 146.887333 
L 174.671446 146.814923 
L 174.700736 146.670105 
L 174.905768 146.597696 
L 174.905768 146.525286 
L 175.14009 146.452877 
L 175.16938 146.090831 
L 175.286541 146.018422 
L 175.315831 145.728785 
L 175.462282 145.656376 
L 175.491572 145.439148 
L 175.725894 145.439148 
L 175.784474 145.22192 
L 175.960216 145.149511 
L 176.048086 144.715056 
L 176.077377 144.715056 
L 176.077377 144.570237 
L 176.340989 144.570237 
L 176.340989 144.425419 
L 176.54602 144.425419 
L 176.54602 144.2806 
L 176.809632 144.208191 
L 176.809632 144.135782 
L 177.131824 144.063373 
L 177.131824 143.990964 
L 177.278275 143.918554 
L 177.278275 143.846145 
L 177.395436 143.846145 
L 177.454017 143.556508 
L 177.600468 143.484099 
L 177.688339 143.194462 
L 177.83479 143.122053 
L 177.92266 142.904825 
L 178.039821 142.832416 
L 178.098402 142.542779 
L 178.215562 142.47037 
L 178.303433 142.253142 
L 178.479174 142.180733 
L 178.479174 142.035915 
L 178.625625 142.035915 
L 178.684206 141.818687 
L 178.801367 141.746278 
L 178.801367 141.601459 
L 179.064979 141.601459 
L 179.152849 141.311822 
L 179.18214 141.311822 
L 179.27001 140.877367 
L 179.416461 140.804958 
L 179.475042 140.58773 
L 179.767944 140.515321 
L 179.767944 140.442912 
L 180.090136 140.442912 
L 180.090136 140.298093 
L 180.265878 140.225684 
L 180.353748 140.008456 
L 180.470909 140.008456 
L 180.470909 139.863638 
L 180.64665 139.863638 
L 180.64665 139.718819 
L 180.910262 139.64641 
L 180.998133 139.429183 
L 181.027423 139.429183 
L 181.086004 138.70509 
L 181.173874 138.70509 
L 181.232455 138.487863 
L 181.408196 138.415453 
L 181.437486 138.270635 
L 181.613228 138.198226 
L 181.613228 138.125816 
L 181.730388 138.125816 
L 181.730388 137.980998 
L 181.96471 137.980998 
L 182.023291 137.401724 
L 182.111161 137.401724 
L 182.169742 137.039678 
L 182.755546 136.967269 
L 182.784836 136.750041 
L 182.989868 136.677632 
L 183.077738 136.532814 
L 183.165609 136.460404 
L 183.165609 136.315586 
L 183.429221 136.243177 
L 183.429221 136.098358 
L 183.663543 136.025949 
L 183.663543 135.808721 
L 183.809994 135.808721 
L 183.868574 135.374266 
L 184.190767 135.301857 
L 184.190767 135.229448 
L 184.395798 135.229448 
L 184.454379 135.01222 
L 184.65941 134.939811 
L 184.65941 134.867401 
L 185.215924 134.794992 
L 185.303795 134.577765 
L 185.450246 134.505355 
L 185.450246 134.432946 
L 185.567407 134.432946 
L 185.655277 134.0709 
L 185.772438 134.0709 
L 185.831019 133.636445 
L 186.358243 133.564035 
L 186.416823 133.419217 
L 186.563274 133.346808 
L 186.563274 133.274399 
L 186.914757 133.201989 
L 186.914757 133.12958 
L 187.031918 133.12958 
L 187.031918 132.839943 
L 187.236949 132.839943 
L 187.295529 132.622716 
L 187.588432 132.550306 
L 187.676302 132.333079 
L 187.822753 132.260669 
L 187.852044 131.971033 
L 188.057075 131.971033 
L 188.115656 131.753805 
L 188.174236 131.753805 
L 188.174236 131.536577 
L 188.555009 131.464168 
L 188.555009 131.24694 
L 188.877201 131.174531 
L 188.877201 130.957303 
L 189.170103 130.884894 
L 189.170103 130.812485 
L 189.463006 130.812485 
L 189.492296 130.522848 
L 189.785198 130.450439 
L 189.785198 130.37803 
L 189.931649 130.30562 
L 190.01952 130.088393 
L 190.04881 130.088393 
L 190.04881 129.943574 
L 190.224551 129.943574 
L 190.283132 129.726347 
L 190.517453 129.653937 
L 190.576034 129.509119 
L 190.781065 129.43671 
L 190.781065 129.3643 
L 190.986097 129.291891 
L 191.073967 129.074664 
L 191.337579 129.002254 
L 191.42545 128.712617 
L 191.45474 128.712617 
L 191.45474 128.567799 
L 191.981964 128.49539 
L 191.981964 128.422981 
L 192.157705 128.350571 
L 192.245576 128.133344 
L 192.304156 128.060934 
L 192.392027 127.771298 
L 192.597059 127.698888 
L 192.655639 127.409251 
L 192.74351 127.336842 
L 192.83138 126.902387 
L 192.889961 126.902387 
L 192.889961 126.757568 
L 193.212153 126.685159 
L 193.241443 126.540341 
L 193.358604 126.467932 
L 193.446475 126.178295 
L 193.534346 126.105885 
L 193.563636 125.961067 
L 193.885828 125.888658 
L 193.973699 125.526612 
L 194.12015 125.454202 
L 194.17873 125.309384 
L 194.471633 125.236975 
L 194.471633 125.164565 
L 194.588793 125.164565 
L 194.676664 124.585292 
L 194.705954 124.585292 
L 194.793825 124.150836 
L 194.969566 124.150836 
L 195.028147 123.78879 
L 195.233178 123.716381 
L 195.291759 123.571563 
L 195.43821 123.499153 
L 195.43821 123.426744 
L 196.141175 123.354335 
L 196.141175 123.209516 
L 196.258336 123.209516 
L 196.316916 122.992289 
L 196.404787 122.992289 
L 196.492657 122.702652 
L 196.87343 122.630243 
L 196.90272 122.413015 
L 197.078462 122.340606 
L 197.166332 122.123378 
L 197.400654 122.050969 
L 197.400654 121.97856 
L 197.722847 121.90615 
L 197.810717 121.399286 
L 198.015749 121.326877 
L 198.074329 121.109649 
L 198.337941 121.03724 
L 198.337941 120.964831 
L 198.455102 120.964831 
L 198.542973 120.747603 
L 198.630843 120.675194 
L 198.630843 120.457966 
L 198.982326 120.385557 
L 199.070196 120.240738 
L 199.333808 120.168329 
L 199.363099 119.951101 
L 199.53884 119.878692 
L 199.53884 119.806283 
L 199.831742 119.733874 
L 199.831742 119.371828 
L 199.978193 119.371828 
L 199.978193 119.227009 
L 200.183225 119.1546 
L 200.241805 118.792554 
L 200.358966 118.720145 
L 200.417546 118.502917 
L 200.622578 118.430508 
L 200.622578 118.358098 
L 200.91548 118.285689 
L 200.94477 118.140871 
L 201.091221 118.068462 
L 201.091221 117.996052 
L 201.442704 117.923643 
L 201.530575 117.706415 
L 201.647736 117.634006 
L 201.647736 117.561597 
L 201.969928 117.561597 
L 201.999218 117.344369 
L 202.23354 117.27196 
L 202.23354 117.199551 
L 202.760764 117.127142 
L 202.790054 116.982323 
L 202.877925 116.982323 
L 202.877925 116.837505 
L 203.082956 116.837505 
L 203.141537 116.403049 
L 203.317278 116.33064 
L 203.317278 116.185822 
L 203.522309 116.113413 
L 203.522309 116.041003 
L 203.698051 116.041003 
L 203.727341 115.751366 
L 203.903082 115.751366 
L 203.990953 115.244502 
L 204.049533 115.172093 
L 204.078823 115.027274 
L 204.195984 115.027274 
L 204.283855 114.592819 
L 204.430306 114.592819 
L 204.430306 114.448 
L 204.547467 114.448 
L 204.576757 114.230773 
L 204.752498 114.158364 
L 204.781789 113.941136 
L 204.869659 113.941136 
L 204.869659 113.723908 
L 205.133271 113.651499 
L 205.191852 113.506681 
L 205.309013 113.434271 
L 205.309013 113.289453 
L 205.484754 113.217044 
L 205.572625 113.072225 
L 205.689785 112.999816 
L 205.719076 112.782588 
L 205.806946 112.782588 
L 205.806946 112.565361 
L 206.099848 112.565361 
L 206.129139 112.348133 
L 206.36346 112.275724 
L 206.451331 111.841268 
L 207.095716 111.768859 
L 207.125006 111.624041 
L 207.212877 111.624041 
L 207.212877 111.479222 
L 207.359328 111.406813 
L 207.388618 111.261995 
L 207.769391 111.189585 
L 207.857261 111.044767 
L 207.886552 111.044767 
L 207.886552 110.899948 
L 208.120873 110.827539 
L 208.179454 110.537902 
L 208.296615 110.465493 
L 208.296615 110.393084 
L 208.413776 110.393084 
L 208.413776 110.248265 
L 209.08745 110.175856 
L 209.146031 109.958629 
L 209.233902 109.886219 
L 209.233902 109.741401 
L 209.526804 109.668992 
L 209.614674 109.524173 
L 209.643965 109.524173 
L 209.731835 109.234536 
L 210.054028 109.234536 
L 210.141898 108.944899 
L 210.4348 108.944899 
L 210.4348 108.800081 
L 211.049895 108.727672 
L 211.049895 108.510444 
L 211.459958 108.438035 
L 211.459958 108.365626 
L 211.928601 108.293216 
L 211.928601 108.220807 
L 212.192213 108.220807 
L 212.192213 108.075989 
L 212.690147 108.00358 
L 212.690147 107.93117 
L 212.895179 107.858761 
L 212.924469 107.713943 
L 213.07092 107.641533 
L 213.1295 107.496715 
L 213.422403 107.424306 
L 213.510273 107.279487 
L 213.715305 107.279487 
L 213.715305 107.06226 
L 214.154658 106.98985 
L 214.154658 106.917441 
L 214.359689 106.845032 
L 214.38898 106.555395 
L 214.506141 106.482986 
L 214.594011 106.338167 
L 214.740462 106.265758 
L 214.740462 106.193349 
L 215.121235 106.12094 
L 215.121235 106.048531 
L 215.355557 105.976121 
L 215.355557 105.903712 
L 215.619169 105.831303 
L 215.648459 105.686484 
L 215.912071 105.614075 
L 215.970651 105.252029 
L 216.087812 105.17962 
L 216.087812 104.962392 
L 216.380714 104.889983 
L 216.380714 104.745164 
L 216.497875 104.745164 
L 216.585746 104.383118 
L 216.995809 104.310709 
L 216.995809 104.2383 
L 217.11297 104.2383 
L 217.17155 103.803845 
L 217.318001 103.731435 
L 217.318001 103.659026 
L 217.552323 103.586617 
L 217.610903 103.441798 
L 217.874515 103.369389 
L 217.962386 103.224571 
L 218.079547 103.152162 
L 218.079547 103.079752 
L 218.43103 103.007343 
L 218.46032 102.790115 
L 218.870383 102.717706 
L 218.870383 102.645297 
L 219.046124 102.572888 
L 219.133995 102.35566 
L 219.397607 102.283251 
L 219.397607 102.138432 
L 219.749089 102.066023 
L 219.83696 101.776386 
L 220.305603 101.703977 
L 220.334894 101.486749 
L 220.627796 101.41434 
L 220.686376 101.197113 
L 220.891408 101.124703 
L 220.891408 101.052294 
L 221.389341 100.979885 
L 221.447922 100.835066 
L 221.565083 100.762657 
L 221.652953 100.617839 
L 222.121597 100.54543 
L 222.180177 100.255793 
L 222.326628 100.183383 
L 222.355919 100.038565 
L 223.058884 99.966156 
L 223.058884 99.893747 
L 223.381076 99.821337 
L 223.381076 99.748928 
L 223.556817 99.676519 
L 223.615398 99.459291 
L 223.87901 99.386882 
L 223.87901 99.314473 
L 224.201202 99.314473 
L 224.201202 99.169654 
L 224.523395 99.097245 
L 224.523395 99.024836 
L 224.816297 98.952427 
L 224.904167 98.807608 
L 225.343521 98.735199 
L 225.402101 98.59038 
L 225.519262 98.517971 
L 225.577842 98.300744 
L 225.812164 98.228334 
L 225.900035 98.083516 
L 226.134356 98.011107 
L 226.134356 97.866288 
L 226.515129 97.793879 
L 226.515129 97.649061 
L 226.720161 97.576651 
L 226.720161 97.504242 
L 226.837322 97.504242 
L 226.837322 97.359424 
L 227.071643 97.287014 
L 227.159514 97.069787 
L 227.393836 96.997378 
L 227.393836 96.852559 
L 227.628157 96.78015 
L 227.628157 96.707741 
L 227.803899 96.635331 
L 227.803899 96.562922 
L 227.97964 96.490513 
L 227.97964 96.418104 
L 228.331123 96.345695 
L 228.418993 96.200876 
L 228.506864 96.128467 
L 228.506864 95.983648 
L 228.770476 95.983648 
L 228.858347 95.766421 
L 228.887637 95.766421 
L 228.975507 95.549193 
L 229.063378 95.476784 
L 229.063378 95.404375 
L 229.209829 95.404375 
L 229.209829 95.259556 
L 229.38557 95.187147 
L 229.473441 95.042329 
L 229.766343 94.969919 
L 229.766343 94.89751 
L 230.293567 94.825101 
L 230.381438 94.463055 
L 230.73292 94.390646 
L 230.791501 94.101009 
L 231.142983 94.028599 
L 231.142983 93.95619 
L 231.377305 93.883781 
L 231.377305 93.666553 
L 232.138851 93.594144 
L 232.226721 93.376916 
L 232.402463 93.304507 
L 232.461043 93.159689 
L 232.519624 93.159689 
L 232.519624 93.01487 
L 232.753945 92.942461 
L 232.841816 92.797643 
L 233.39833 92.725233 
L 233.42762 92.580415 
L 233.661942 92.508006 
L 233.720522 92.363187 
L 233.896264 92.290778 
L 233.896264 92.218369 
L 234.130586 92.14596 
L 234.189166 91.856323 
L 234.335617 91.783913 
L 234.335617 91.711504 
L 235.009292 91.639095 
L 235.009292 91.566686 
L 235.185033 91.494277 
L 235.214324 91.349458 
L 235.331484 91.349458 
L 235.331484 91.20464 
L 235.536516 91.20464 
L 235.624387 90.842594 
L 236.415222 90.770184 
L 236.473803 90.625366 
L 236.737415 90.552957 
L 236.766705 90.408138 
L 237.001027 90.335729 
L 237.059607 90.118501 
L 237.3818 90.046092 
L 237.3818 89.973683 
L 237.674702 89.901274 
L 237.733282 89.756455 
L 238.084765 89.684046 
L 238.114055 89.539228 
L 238.670569 89.466818 
L 238.670569 89.394409 
L 238.81702 89.322 
L 238.81702 89.249591 
L 238.963471 89.177181 
L 239.022052 88.959954 
L 239.695727 88.887545 
L 239.725017 88.742726 
L 239.988629 88.670317 
L 239.988629 88.597908 
L 240.310821 88.525498 
L 240.398692 88.38068 
L 240.574433 88.308271 
L 240.574433 88.235862 
L 240.808755 88.163452 
L 240.808755 88.091043 
L 240.984496 88.018634 
L 240.984496 87.873815 
L 241.306689 87.801406 
L 241.335979 87.584179 
L 241.54101 87.511769 
L 241.5703 87.366951 
L 242.243975 87.294542 
L 242.302556 87.004905 
L 242.419717 87.004905 
L 242.449007 86.787677 
L 242.771199 86.715268 
L 242.771199 86.642859 
L 242.91765 86.570449 
L 242.91765 86.49804 
L 243.415584 86.425631 
L 243.503455 86.208403 
L 243.942808 86.135994 
L 243.972098 85.991176 
L 244.323581 85.918766 
L 244.323581 85.846357 
L 244.587193 85.773948 
L 244.587193 85.701539 
L 245.172997 85.62913 
L 245.260868 85.484311 
L 245.378029 85.484311 
L 245.378029 85.339493 
L 245.700221 85.267083 
L 245.758801 84.832628 
L 246.168864 84.760219 
L 246.168864 84.68781 
L 246.520347 84.6154 
L 246.520347 84.542991 
L 247.106151 84.470582 
L 247.164732 84.325763 
L 247.252602 84.325763 
L 247.281893 84.036127 
L 247.633375 83.963717 
L 247.691956 83.74649 
L 248.014148 83.67408 
L 248.014148 83.601671 
L 248.482792 83.529262 
L 248.482792 83.456853 
L 249.215047 83.384444 
L 249.215047 83.312034 
L 249.59582 83.239625 
L 249.59582 83.167216 
L 250.035173 83.094807 
L 250.035173 83.022397 
L 250.533107 82.949988 
L 250.533107 82.80517 
L 251.616845 82.732761 
L 251.616845 82.660351 
L 251.968327 82.660351 
L 252.056198 82.443124 
L 252.31981 82.370714 
L 252.407681 82.225896 
L 252.759163 82.153487 
L 252.759163 82.081078 
L 253.69645 82.008668 
L 253.755031 81.791441 
L 254.018642 81.719031 
L 254.018642 81.646622 
L 254.663027 81.574213 
L 254.750898 81.356985 
L 255.10238 81.356985 
L 255.10238 81.212167 
L 255.453863 81.139758 
L 255.483153 80.777712 
L 255.951797 80.777712 
L 255.951797 80.488075 
L 256.39115 80.415665 
L 256.39115 80.198438 
L 256.918374 80.126029 
L 257.006245 79.908801 
L 257.269856 79.836392 
L 257.328437 79.691573 
L 257.884951 79.619164 
L 257.884951 79.546755 
L 258.089983 79.474346 
L 258.177853 79.257118 
L 258.500046 79.184709 
L 258.587916 78.822663 
L 258.763658 78.822663 
L 258.792948 78.533026 
L 259.378752 78.460616 
L 259.378752 78.388207 
L 259.730235 78.315798 
L 259.730235 78.243389 
L 260.608941 78.170979 
L 260.696812 77.953752 
L 261.106875 77.881343 
L 261.106875 77.808933 
L 261.282616 77.808933 
L 261.341197 77.519296 
L 261.927001 77.446887 
L 261.927001 77.302069 
L 262.454225 77.22966 
L 262.454225 77.084841 
L 262.629966 77.012432 
L 262.629966 76.940023 
L 262.952158 76.867613 
L 262.952158 76.795204 
L 263.567253 76.722795 
L 263.567253 76.505567 
L 264.006606 76.433158 
L 264.065187 76.21593 
L 265.061054 76.143521 
L 265.090344 75.926294 
L 265.266086 75.853884 
L 265.266086 75.781475 
L 265.617568 75.709066 
L 265.646858 75.564247 
L 265.998341 75.491838 
L 266.086212 75.34702 
L 266.994208 75.274611 
L 266.994208 75.202201 
L 267.609303 75.129792 
L 267.609303 75.057383 
L 268.253688 74.984974 
L 268.282978 74.840155 
L 269.366716 74.767746 
L 269.366716 74.695337 
L 270.421164 74.622928 
L 270.421164 74.550518 
L 270.596905 74.550518 
L 270.596905 74.4057 
L 270.772646 74.333291 
L 270.860517 74.043654 
L 270.889807 74.043654 
L 270.889807 73.898835 
L 272.002835 73.826426 
L 272.061416 73.681608 
L 272.58864 73.609198 
L 272.64722 73.46438 
L 273.057283 73.391971 
L 273.057283 73.247152 
L 274.199602 73.174743 
L 274.199602 73.102334 
L 274.990437 73.029925 
L 275.049018 72.885106 
L 275.254049 72.812697 
L 275.254049 72.740288 
L 276.484238 72.667879 
L 276.484238 72.595469 
L 276.601399 72.595469 
L 276.63069 72.378242 
L 277.128623 72.305832 
L 277.216494 72.161014 
L 277.626557 72.088605 
L 277.626557 72.016196 
L 278.358812 71.943786 
L 278.358812 71.871377 
L 278.886036 71.798968 
L 278.886036 71.726559 
L 279.501131 71.654149 
L 279.501131 71.58174 
L 280.291967 71.509331 
L 280.379837 71.364512 
L 280.584869 71.292103 
L 280.584869 71.219694 
L 280.76061 71.147285 
L 280.76061 71.074876 
L 281.053512 71.002466 
L 281.053512 70.857648 
L 282.254411 70.785239 
L 282.254411 70.712829 
L 283.133118 70.64042 
L 283.133118 70.568011 
L 284.041114 70.495602 
L 284.041114 70.423193 
L 284.949111 70.350783 
L 284.949111 70.205965 
L 285.710657 70.133556 
L 285.710657 70.061146 
L 286.15001 70.061146 
L 286.15001 69.916328 
L 286.677234 69.843919 
L 286.677234 69.77151 
L 286.911555 69.6991 
L 286.911555 69.626691 
L 287.321618 69.554282 
L 287.321618 69.481873 
L 287.790262 69.409463 
L 287.790262 69.337054 
L 288.93258 69.264645 
L 289.020451 69.119827 
L 289.752706 69.047417 
L 289.752706 68.975008 
L 290.162769 68.902599 
L 290.162769 68.83019 
L 290.953605 68.75778 
L 290.953605 68.540553 
L 291.715151 68.468144 
L 291.773731 68.250916 
L 292.564567 68.178507 
L 292.564567 68.033688 
L 292.857469 67.961279 
L 292.91605 67.816461 
L 292.97463 67.816461 
L 292.97463 67.671642 
L 293.501854 67.599233 
L 293.501854 67.454414 
L 294.35127 67.382005 
L 294.35127 67.309596 
L 294.673463 67.309596 
L 294.702753 67.092368 
L 295.112816 67.019959 
L 295.200687 66.802731 
L 295.845071 66.730322 
L 295.845071 66.657913 
L 297.104551 66.585504 
L 297.163131 66.440685 
L 297.426743 66.368276 
L 297.426743 66.295867 
L 298.656932 66.223458 
L 298.656932 66.151048 
L 299.154866 66.078639 
L 299.242737 65.861412 
L 299.71138 65.789002 
L 299.71138 65.644184 
L 299.945702 65.571775 
L 299.974992 65.426956 
L 300.590087 65.354547 
L 300.590087 65.282138 
L 300.941569 65.209728 
L 300.941569 65.137319 
L 301.673825 65.06491 
L 301.673825 64.920092 
L 302.40608 64.847682 
L 302.40608 64.775273 
L 302.845433 64.702864 
L 302.845433 64.630455 
L 303.021174 64.630455 
L 303.079755 64.340818 
L 303.167626 64.268409 
L 303.167626 64.195999 
L 303.841301 64.12359 
L 303.841301 64.051181 
L 304.397815 63.978772 
L 304.397815 63.906362 
L 304.690717 63.833953 
L 304.690717 63.761544 
L 306.50671 63.689135 
L 306.50671 63.616726 
L 308.381284 63.544316 
L 308.381284 63.471907 
L 308.615606 63.471907 
L 308.615606 63.327089 
L 308.908508 63.254679 
L 308.908508 63.109861 
L 309.552893 63.037452 
L 309.552893 62.965043 
L 309.992246 62.892633 
L 309.992246 62.820224 
L 310.255858 62.747815 
L 310.255858 62.675406 
L 311.691079 62.602996 
L 311.691079 62.530587 
L 313.887845 62.530587 
L 313.887845 62.385769 
L 314.180747 62.31336 
L 314.180747 62.24095 
L 316.465384 62.168541 
L 316.465384 62.096132 
L 317.139059 62.023723 
L 317.139059 61.951313 
L 317.959185 61.878904 
L 317.959185 61.806495 
L 318.339958 61.734086 
L 318.339958 61.661677 
L 318.66215 61.589267 
L 318.66215 61.516858 
L 318.779311 61.516858 
L 318.837891 61.29963 
L 319.775178 61.227221 
L 319.775178 61.154812 
L 321.005367 61.082403 
L 321.005367 61.009994 
L 321.649752 60.937584 
L 321.649752 60.865175 
L 322.528459 60.792766 
L 322.528459 60.720357 
L 323.934389 60.647947 
L 323.934389 60.575538 
L 324.578774 60.503129 
L 324.578774 60.43072 
L 325.574641 60.358311 
L 325.574641 60.285901 
L 326.892701 60.213492 
L 326.892701 60.141083 
L 329.206628 60.068674 
L 329.206628 59.996264 
L 331.754877 59.923855 
L 331.754877 59.851446 
L 332.311391 59.779037 
L 332.311391 59.706628 
L 332.604293 59.634218 
L 332.604293 59.561809 
L 336.997826 59.4894 
L 336.997826 59.416991 
L 341.596389 59.344581 
L 341.596389 59.272172 
L 343.148771 59.199763 
L 343.148771 59.127354 
L 343.675995 59.054945 
L 343.675995 58.982535 
L 346.253534 58.910126 
L 346.253534 58.837717 
L 347.07366 58.765308 
L 347.07366 58.692898 
L 349.036104 58.620489 
L 349.036104 58.54808 
L 350.734937 58.475671 
L 350.822808 58.330852 
L 354.894148 58.330852 
L 354.894148 58.330852 
" clip-path="url(#p449fa7f432)" style="fill: none; stroke: #1f77b4; stroke-width: 1.5; stroke-linecap: square"/>
   </g>
   <g id="line2d_26">
    <path d="M 60.439602 778.585398 
L 354.894148 58.330852 
" clip-path="url(#p449fa7f432)" style="fill: none; stroke-dasharray: 5.55,2.4; stroke-dashoffset: 0; stroke: #808080; stroke-width: 1.5"/>
   </g>
   <g id="patch_3">
    <path d="M 45.716875 814.598125 
L 45.716875 22.318125 
" style="fill: none; stroke: #000000; stroke-width: 0.8; stroke-linejoin: miter; stroke-linecap: square"/>
   </g>
   <g id="patch_4">
    <path d="M 369.616875 814.598125 
L 369.616875 22.318125 
" style="fill: none; stroke: #000000; stroke-width: 0.8; stroke-linejoin: miter; stroke-linecap: square"/>
   </g>
   <g id="patch_5">
    <path d="M 45.716875 814.598125 
L 369.616875 814.598125 
" style="fill: none; stroke: #000000; stroke-width: 0.8; stroke-linejoin: miter; stroke-linecap: square"/>
   </g>
   <g id="patch_6">
    <path d="M 45.716875 22.318125 
L 369.616875 22.318125 
" style="fill: none; stroke: #000000; stroke-width: 0.8; stroke-linejoin: miter; stroke-linecap: square"/>
   </g>
   <g id="text_15">
    <!-- ROC Curve: Logistic Regression -->
    <g transform="translate(113.496875 16.318125)scale(0.12 -0.12)">
     <defs>
      <path id="DejaVuSans-4f" d="M 2522 4238 
Q 1834 4238 1429 3725 
Q 1025 3213 1025 2328 
Q 1025 1447 1429 934 
Q 1834 422 2522 422 
Q 3209 422 3611 934 
Q 4013 1447 4013 2328 
Q 4013 3213 3611 3725 
Q 3209 4238 2522 4238 
z
M 2522 4750 
Q 3503 4750 4090 4092 
Q 4678 3434 4678 2328 
Q 4678 1225 4090 567 
Q 3503 -91 2522 -91 
Q 1538 -91 948 565 
Q 359 1222 359 2328 
Q 359 3434 948 4092 
Q 1538 4750 2522 4750 
z
" transform="scale(0.015625)"/>
      <path id="DejaVuSans-43" d="M 4122 4306 
L 4122 3641 
Q 3803 3938 3442 4084 
Q 3081 4231 2675 4231 
Q 1875 4231 1450 3742 
Q 1025 3253 1025 2328 
Q 1025 1406 1450 917 
Q 1875 428 2675 428 
Q 3081 428 3442 575 
Q 3803 722 4122 1019 
L 4122 359 
Q 3791 134 3420 21 
Q 3050 -91 2638 -91 
Q 1578 -91 968 557 
Q 359 1206 359 2328 
Q 359 3453 968 4101 
Q 1578 4750 2638 4750 
Q 3056 4750 3426 4639 
Q 3797 4528 4122 4306 
z
" transform="scale(0.015625)"/>
      <path id="DejaVuSans-3a" d="M 750 794 
L 1409 794 
L 1409 0 
L 750 0 
L 750 794 
z
M 750 3309 
L 1409 3309 
L 1409 2516 
L 750 2516 
L 750 3309 
z
" transform="scale(0.015625)"/>
      <path id="DejaVuSans-4c" d="M 628 4666 
L 1259 4666 
L 1259 531 
L 3531 531 
L 3531 0 
L 628 0 
L 628 4666 
z
" transform="scale(0.015625)"/>
      <path id="DejaVuSans-67" d="M 2906 1791 
Q 2906 2416 2648 2759 
Q 2391 3103 1925 3103 
Q 1463 3103 1205 2759 
Q 947 2416 947 1791 
Q 947 1169 1205 825 
Q 1463 481 1925 481 
Q 2391 481 2648 825 
Q 2906 1169 2906 1791 
z
M 3481 434 
Q 3481 -459 3084 -895 
Q 2688 -1331 1869 -1331 
Q 1566 -1331 1297 -1286 
Q 1028 -1241 775 -1147 
L 775 -588 
Q 1028 -725 1275 -790 
Q 1522 -856 1778 -856 
Q 2344 -856 2625 -561 
Q 2906 -266 2906 331 
L 2906 616 
Q 2728 306 2450 153 
Q 2172 0 1784 0 
Q 1141 0 747 490 
Q 353 981 353 1791 
Q 353 2603 747 3093 
Q 1141 3584 1784 3584 
Q 2172 3584 2450 3431 
Q 2728 3278 2906 2969 
L 2906 3500 
L 3481 3500 
L 3481 434 
z
" transform="scale(0.015625)"/>
      <path id="DejaVuSans-63" d="M 3122 3366 
L 3122 2828 
Q 2878 2963 2633 3030 
Q 2388 3097 2138 3097 
Q 1578 3097 1268 2742 
Q 959 2388 959 1747 
Q 959 1106 1268 751 
Q 1578 397 2138 397 
Q 2388 397 2633 464 
Q 2878 531 3122 666 
L 3122 134 
Q 2881 22 2623 -34 
Q 2366 -91 2075 -91 
Q 1284 -91 818 406 
Q 353 903 353 1747 
Q 353 2603 823 3093 
Q 1294 3584 2113 3584 
Q 2378 3584 2631 3529 
Q 2884 3475 3122 3366 
z
" transform="scale(0.015625)"/>
      <path id="DejaVuSans-6e" d="M 3513 2113 
L 3513 0 
L 2938 0 
L 2938 2094 
Q 2938 2591 2744 2837 
Q 2550 3084 2163 3084 
Q 1697 3084 1428 2787 
Q 1159 2491 1159 1978 
L 1159 0 
L 581 0 
L 581 3500 
L 1159 3500 
L 1159 2956 
Q 1366 3272 1645 3428 
Q 1925 3584 2291 3584 
Q 2894 3584 3203 3211 
Q 3513 2838 3513 2113 
z
" transform="scale(0.015625)"/>
     </defs>
     <use xlink:href="#DejaVuSans-52"/>
     <use xlink:href="#DejaVuSans-4f" x="69.482422"/>
     <use xlink:href="#DejaVuSans-43" x="148.193359"/>
     <use xlink:href="#DejaVuSans-20" x="218.017578"/>
     <use xlink:href="#DejaVuSans-43" x="249.804688"/>
     <use xlink:href="#DejaVuSans-75" x="319.628906"/>
     <use xlink:href="#DejaVuSans-72" x="383.007812"/>
     <use xlink:href="#DejaVuSans-76" x="424.121094"/>
     <use xlink:href="#DejaVuSans-65" x="483.300781"/>
     <use xlink:href="#DejaVuSans-3a" x="544.824219"/>
     <use xlink:href="#DejaVuSans-20" x="578.515625"/>
     <use xlink:href="#DejaVuSans-4c" x="610.302734"/>
     <use xlink:href="#DejaVuSans-6f" x="664.265625"/>
     <use xlink:href="#DejaVuSans-67" x="725.447266"/>
     <use xlink:href="#DejaVuSans-69" x="788.923828"/>
     <use xlink:href="#DejaVuSans-73" x="816.707031"/>
     <use xlink:href="#DejaVuSans-74" x="868.806641"/>
     <use xlink:href="#DejaVuSans-69" x="908.015625"/>
     <use xlink:href="#DejaVuSans-63" x="935.798828"/>
     <use xlink:href="#DejaVuSans-20" x="990.779297"/>
     <use xlink:href="#DejaVuSans-52" x="1022.566406"/>
     <use xlink:href="#DejaVuSans-65" x="1087.548828"/>
     <use xlink:href="#DejaVuSans-67" x="1149.072266"/>
     <use xlink:href="#DejaVuSans-72" x="1212.548828"/>
     <use xlink:href="#DejaVuSans-65" x="1251.412109"/>
     <use xlink:href="#DejaVuSans-73" x="1312.935547"/>
     <use xlink:href="#DejaVuSans-73" x="1365.035156"/>
     <use xlink:href="#DejaVuSans-69" x="1417.134766"/>
     <use xlink:href="#DejaVuSans-6f" x="1444.917969"/>
     <use xlink:href="#DejaVuSans-6e" x="1506.099609"/>
    </g>
   </g>
   <g id="legend_1">
    <g id="patch_7">
     <path d="M 200.645 809.598125 
L 362.616875 809.598125 
Q 364.616875 809.598125 364.616875 807.598125 
L 364.616875 779.241875 
Q 364.616875 777.241875 362.616875 777.241875 
L 200.645 777.241875 
Q 198.645 777.241875 198.645 779.241875 
L 198.645 807.598125 
Q 198.645 809.598125 200.645 809.598125 
z
" style="fill: #ffffff; opacity: 0.8; stroke: #cccccc; stroke-linejoin: miter"/>
    </g>
    <g id="line2d_27">
     <path d="M 202.645 785.340312 
L 212.645 785.340312 
L 222.645 785.340312 
" style="fill: none; stroke: #1f77b4; stroke-width: 1.5; stroke-linecap: square"/>
    </g>
    <g id="text_16">
     <!-- ROC Curve (AUC = 0.846) -->
     <g transform="translate(230.645 788.840312)scale(0.1 -0.1)">
      <defs>
       <path id="DejaVuSans-28" d="M 1984 4856 
Q 1566 4138 1362 3434 
Q 1159 2731 1159 2009 
Q 1159 1288 1364 580 
Q 1569 -128 1984 -844 
L 1484 -844 
Q 1016 -109 783 600 
Q 550 1309 550 2009 
Q 550 2706 781 3412 
Q 1013 4119 1484 4856 
L 1984 4856 
z
" transform="scale(0.015625)"/>
       <path id="DejaVuSans-41" d="M 2188 4044 
L 1331 1722 
L 3047 1722 
L 2188 4044 
z
M 1831 4666 
L 2547 4666 
L 4325 0 
L 3669 0 
L 3244 1197 
L 1141 1197 
L 716 0 
L 50 0 
L 1831 4666 
z
" transform="scale(0.015625)"/>
       <path id="DejaVuSans-55" d="M 556 4666 
L 1191 4666 
L 1191 1831 
Q 1191 1081 1462 751 
Q 1734 422 2344 422 
Q 2950 422 3222 751 
Q 3494 1081 3494 1831 
L 3494 4666 
L 4128 4666 
L 4128 1753 
Q 4128 841 3676 375 
Q 3225 -91 2344 -91 
Q 1459 -91 1007 375 
Q 556 841 556 1753 
L 556 4666 
z
" transform="scale(0.015625)"/>
       <path id="DejaVuSans-3d" d="M 678 2906 
L 4684 2906 
L 4684 2381 
L 678 2381 
L 678 2906 
z
M 678 1631 
L 4684 1631 
L 4684 1100 
L 678 1100 
L 678 1631 
z
" transform="scale(0.015625)"/>
       <path id="DejaVuSans-29" d="M 513 4856 
L 1013 4856 
Q 1481 4119 1714 3412 
Q 1947 2706 1947 2009 
Q 1947 1309 1714 600 
Q 1481 -109 1013 -844 
L 513 -844 
Q 928 -128 1133 580 
Q 1338 1288 1338 2009 
Q 1338 2731 1133 3434 
Q 928 4138 513 4856 
z
" transform="scale(0.015625)"/>
      </defs>
      <use xlink:href="#DejaVuSans-52"/>
      <use xlink:href="#DejaVuSans-4f" x="69.482422"/>
      <use xlink:href="#DejaVuSans-43" x="148.193359"/>
      <use xlink:href="#DejaVuSans-20" x="218.017578"/>
      <use xlink:href="#DejaVuSans-43" x="249.804688"/>
      <use xlink:href="#DejaVuSans-75" x="319.628906"/>
      <use xlink:href="#DejaVuSans-72" x="383.007812"/>
      <use xlink:href="#DejaVuSans-76" x="424.121094"/>
      <use xlink:href="#DejaVuSans-65" x="483.300781"/>
      <use xlink:href="#DejaVuSans-20" x="544.824219"/>
      <use xlink:href="#DejaVuSans-28" x="576.611328"/>
      <use xlink:href="#DejaVuSans-41" x="615.625"/>
      <use xlink:href="#DejaVuSans-55" x="684.033203"/>
      <use xlink:href="#DejaVuSans-43" x="757.226562"/>
      <use xlink:href="#DejaVuSans-20" x="827.050781"/>
      <use xlink:href="#DejaVuSans-3d" x="858.837891"/>
      <use xlink:href="#DejaVuSans-20" x="942.626953"/>
      <use xlink:href="#DejaVuSans-30" x="974.414062"/>
      <use xlink:href="#DejaVuSans-2e" x="1038.037109"/>
      <use xlink:href="#DejaVuSans-38" x="1069.824219"/>
      <use xlink:href="#DejaVuSans-34" x="1133.447266"/>
      <use xlink:href="#DejaVuSans-36" x="1197.070312"/>
      <use xlink:href="#DejaVuSans-29" x="1260.693359"/>
     </g>
    </g>
    <g id="line2d_28">
     <path d="M 202.645 800.018437 
L 212.645 800.018437 
L 222.645 800.018437 
" style="fill: none; stroke-dasharray: 5.55,2.4; stroke-dashoffset: 0; stroke: #808080; stroke-width: 1.5"/>
    </g>
    <g id="text_17">
     <!-- Random Guess -->
     <g transform="translate(230.645 803.518437)scale(0.1 -0.1)">
      <defs>
       <path id="DejaVuSans-64" d="M 2906 2969 
L 2906 4863 
L 3481 4863 
L 3481 0 
L 2906 0 
L 2906 525 
Q 2725 213 2448 61 
Q 2172 -91 1784 -91 
Q 1150 -91 751 415 
Q 353 922 353 1747 
Q 353 2572 751 3078 
Q 1150 3584 1784 3584 
Q 2172 3584 2448 3432 
Q 2725 3281 2906 2969 
z
M 947 1747 
Q 947 1113 1208 752 
Q 1469 391 1925 391 
Q 2381 391 2643 752 
Q 2906 1113 2906 1747 
Q 2906 2381 2643 2742 
Q 2381 3103 1925 3103 
Q 1469 3103 1208 2742 
Q 947 2381 947 1747 
z
" transform="scale(0.015625)"/>
       <path id="DejaVuSans-6d" d="M 3328 2828 
Q 3544 3216 3844 3400 
Q 4144 3584 4550 3584 
Q 5097 3584 5394 3201 
Q 5691 2819 5691 2113 
L 5691 0 
L 5113 0 
L 5113 2094 
Q 5113 2597 4934 2840 
Q 4756 3084 4391 3084 
Q 3944 3084 3684 2787 
Q 3425 2491 3425 1978 
L 3425 0 
L 2847 0 
L 2847 2094 
Q 2847 2600 2669 2842 
Q 2491 3084 2119 3084 
Q 1678 3084 1418 2786 
Q 1159 2488 1159 1978 
L 1159 0 
L 581 0 
L 581 3500 
L 1159 3500 
L 1159 2956 
Q 1356 3278 1631 3431 
Q 1906 3584 2284 3584 
Q 2666 3584 2933 3390 
Q 3200 3197 3328 2828 
z
" transform="scale(0.015625)"/>
       <path id="DejaVuSans-47" d="M 3809 666 
L 3809 1919 
L 2778 1919 
L 2778 2438 
L 4434 2438 
L 4434 434 
Q 4069 175 3628 42 
Q 3188 -91 2688 -91 
Q 1594 -91 976 548 
Q 359 1188 359 2328 
Q 359 3472 976 4111 
Q 1594 4750 2688 4750 
Q 3144 4750 3555 4637 
Q 3966 4525 4313 4306 
L 4313 3634 
Q 3963 3931 3569 4081 
Q 3175 4231 2741 4231 
Q 1884 4231 1454 3753 
Q 1025 3275 1025 2328 
Q 1025 1384 1454 906 
Q 1884 428 2741 428 
Q 3075 428 3337 486 
Q 3600 544 3809 666 
z
" transform="scale(0.015625)"/>
      </defs>
      <use xlink:href="#DejaVuSans-52"/>
      <use xlink:href="#DejaVuSans-61" x="67.232422"/>
      <use xlink:href="#DejaVuSans-6e" x="128.511719"/>
      <use xlink:href="#DejaVuSans-64" x="191.890625"/>
      <use xlink:href="#DejaVuSans-6f" x="255.367188"/>
      <use xlink:href="#DejaVuSans-6d" x="316.548828"/>
      <use xlink:href="#DejaVuSans-20" x="413.960938"/>
      <use xlink:href="#DejaVuSans-47" x="445.748047"/>
      <use xlink:href="#DejaVuSans-75" x="523.238281"/>
      <use xlink:href="#DejaVuSans-65" x="586.617188"/>
      <use xlink:href="#DejaVuSans-73" x="648.140625"/>
      <use xlink:href="#DejaVuSans-73" x="700.240234"/>
     </g>
    </g>
   </g>
  </g>
  <g id="axes_2"/>
 </g>
 <defs>
  <clipPath id="p449fa7f432">
   <rect x="45.716875" y="22.318125" width="323.9" height="792.28"/>
  </clipPath>
 </defs>
</svg>
