<?xml version="1.0" encoding="utf-8" standalone="no"?>
<!DOCTYPE svg PUBLIC "-//W3C//DTD SVG 1.1//EN"
  "http://www.w3.org/Graphics/SVG/1.1/DTD/svg11.dtd">
<svg xmlns:xlink="http://www.w3.org/1999/xlink" width="276.116875pt" height="283.57pt" viewBox="0 0 276.116875 283.57" xmlns="http://www.w3.org/2000/svg" version="1.1">
 <metadata>
  <rdf:RDF xmlns:dc="http://purl.org/dc/elements/1.1/" xmlns:cc="http://creativecommons.org/ns#" xmlns:rdf="http://www.w3.org/1999/02/22-rdf-syntax-ns#">
   <cc:Work>
    <dc:type rdf:resource="http://purl.org/dc/dcmitype/StillImage"/>
    <dc:date>2025-02-16T12:05:50.152350</dc:date>
    <dc:format>image/svg+xml</dc:format>
    <dc:creator>
     <cc:Agent>
      <dc:title>Matplotlib v3.9.2, https://matplotlib.org/</dc:title>
     </cc:Agent>
    </dc:creator>
   </cc:Work>
  </rdf:RDF>
 </metadata>
 <defs>
  <style type="text/css">*{stroke-linejoin: round; stroke-linecap: butt}</style>
 </defs>
 <g id="figure_1">
  <g id="patch_1">
   <path d="M 0 283.57 
L 276.116875 283.57 
L 276.116875 0 
L 0 0 
z
" style="fill: #ffffff"/>
  </g>
  <g id="axes_1">
   <g id="patch_2">
    <path d="M 45.716875 244.078125 
L 268.916875 244.078125 
L 268.916875 22.318125 
L 45.716875 22.318125 
z
" style="fill: #ffffff"/>
   </g>
   <g id="matplotlib.axis_1">
    <g id="xtick_1">
     <g id="line2d_1">
      <path d="M 55.86233 244.078125 
L 55.86233 22.318125 
" clip-path="url(#p32cf51e8ad)" style="fill: none; stroke: #b0b0b0; stroke-width: 0.8; stroke-linecap: square"/>
     </g>
     <g id="line2d_2">
      <defs>
       <path id="m3b3cecf584" d="M 0 0 
L 0 3.5 
" style="stroke: #000000; stroke-width: 0.8"/>
      </defs>
      <g>
       <use xlink:href="#m3b3cecf584" x="55.86233" y="244.078125" style="stroke: #000000; stroke-width: 0.8"/>
      </g>
     </g>
     <g id="text_1">
      <!-- 0.0 -->
      <g transform="translate(47.910767 258.676562) scale(0.1 -0.1)">
       <defs>
        <path id="DejaVuSans-30" d="M 2034 4250 
Q 1547 4250 1301 3770 
Q 1056 3291 1056 2328 
Q 1056 1369 1301 889 
Q 1547 409 2034 409 
Q 2525 409 2770 889 
Q 3016 1369 3016 2328 
Q 3016 3291 2770 3770 
Q 2525 4250 2034 4250 
z
M 2034 4750 
Q 2819 4750 3233 4129 
Q 3647 3509 3647 2328 
Q 3647 1150 3233 529 
Q 2819 -91 2034 -91 
Q 1250 -91 836 529 
Q 422 1150 422 2328 
Q 422 3509 836 4129 
Q 1250 4750 2034 4750 
z
" transform="scale(0.015625)"/>
        <path id="DejaVuSans-2e" d="M 684 794 
L 1344 794 
L 1344 0 
L 684 0 
L 684 794 
z
" transform="scale(0.015625)"/>
       </defs>
       <use xlink:href="#DejaVuSans-30"/>
       <use xlink:href="#DejaVuSans-2e" x="63.623047"/>
       <use xlink:href="#DejaVuSans-30" x="95.410156"/>
      </g>
     </g>
    </g>
    <g id="xtick_2">
     <g id="line2d_3">
      <path d="M 96.444148 244.078125 
L 96.444148 22.318125 
" clip-path="url(#p32cf51e8ad)" style="fill: none; stroke: #b0b0b0; stroke-width: 0.8; stroke-linecap: square"/>
     </g>
     <g id="line2d_4">
      <g>
       <use xlink:href="#m3b3cecf584" x="96.444148" y="244.078125" style="stroke: #000000; stroke-width: 0.8"/>
      </g>
     </g>
     <g id="text_2">
      <!-- 0.2 -->
      <g transform="translate(88.492585 258.676562) scale(0.1 -0.1)">
       <defs>
        <path id="DejaVuSans-32" d="M 1228 531 
L 3431 531 
L 3431 0 
L 469 0 
L 469 531 
Q 828 903 1448 1529 
Q 2069 2156 2228 2338 
Q 2531 2678 2651 2914 
Q 2772 3150 2772 3378 
Q 2772 3750 2511 3984 
Q 2250 4219 1831 4219 
Q 1534 4219 1204 4116 
Q 875 4013 500 3803 
L 500 4441 
Q 881 4594 1212 4672 
Q 1544 4750 1819 4750 
Q 2544 4750 2975 4387 
Q 3406 4025 3406 3419 
Q 3406 3131 3298 2873 
Q 3191 2616 2906 2266 
Q 2828 2175 2409 1742 
Q 1991 1309 1228 531 
z
" transform="scale(0.015625)"/>
       </defs>
       <use xlink:href="#DejaVuSans-30"/>
       <use xlink:href="#DejaVuSans-2e" x="63.623047"/>
       <use xlink:href="#DejaVuSans-32" x="95.410156"/>
      </g>
     </g>
    </g>
    <g id="xtick_3">
     <g id="line2d_5">
      <path d="M 137.025966 244.078125 
L 137.025966 22.318125 
" clip-path="url(#p32cf51e8ad)" style="fill: none; stroke: #b0b0b0; stroke-width: 0.8; stroke-linecap: square"/>
     </g>
     <g id="line2d_6">
      <g>
       <use xlink:href="#m3b3cecf584" x="137.025966" y="244.078125" style="stroke: #000000; stroke-width: 0.8"/>
      </g>
     </g>
     <g id="text_3">
      <!-- 0.4 -->
      <g transform="translate(129.074403 258.676562) scale(0.1 -0.1)">
       <defs>
        <path id="DejaVuSans-34" d="M 2419 4116 
L 825 1625 
L 2419 1625 
L 2419 4116 
z
M 2253 4666 
L 3047 4666 
L 3047 1625 
L 3713 1625 
L 3713 1100 
L 3047 1100 
L 3047 0 
L 2419 0 
L 2419 1100 
L 313 1100 
L 313 1709 
L 2253 4666 
z
" transform="scale(0.015625)"/>
       </defs>
       <use xlink:href="#DejaVuSans-30"/>
       <use xlink:href="#DejaVuSans-2e" x="63.623047"/>
       <use xlink:href="#DejaVuSans-34" x="95.410156"/>
      </g>
     </g>
    </g>
    <g id="xtick_4">
     <g id="line2d_7">
      <path d="M 177.607784 244.078125 
L 177.607784 22.318125 
" clip-path="url(#p32cf51e8ad)" style="fill: none; stroke: #b0b0b0; stroke-width: 0.8; stroke-linecap: square"/>
     </g>
     <g id="line2d_8">
      <g>
       <use xlink:href="#m3b3cecf584" x="177.607784" y="244.078125" style="stroke: #000000; stroke-width: 0.8"/>
      </g>
     </g>
     <g id="text_4">
      <!-- 0.6 -->
      <g transform="translate(169.656222 258.676562) scale(0.1 -0.1)">
       <defs>
        <path id="DejaVuSans-36" d="M 2113 2584 
Q 1688 2584 1439 2293 
Q 1191 2003 1191 1497 
Q 1191 994 1439 701 
Q 1688 409 2113 409 
Q 2538 409 2786 701 
Q 3034 994 3034 1497 
Q 3034 2003 2786 2293 
Q 2538 2584 2113 2584 
z
M 3366 4563 
L 3366 3988 
Q 3128 4100 2886 4159 
Q 2644 4219 2406 4219 
Q 1781 4219 1451 3797 
Q 1122 3375 1075 2522 
Q 1259 2794 1537 2939 
Q 1816 3084 2150 3084 
Q 2853 3084 3261 2657 
Q 3669 2231 3669 1497 
Q 3669 778 3244 343 
Q 2819 -91 2113 -91 
Q 1303 -91 875 529 
Q 447 1150 447 2328 
Q 447 3434 972 4092 
Q 1497 4750 2381 4750 
Q 2619 4750 2861 4703 
Q 3103 4656 3366 4563 
z
" transform="scale(0.015625)"/>
       </defs>
       <use xlink:href="#DejaVuSans-30"/>
       <use xlink:href="#DejaVuSans-2e" x="63.623047"/>
       <use xlink:href="#DejaVuSans-36" x="95.410156"/>
      </g>
     </g>
    </g>
    <g id="xtick_5">
     <g id="line2d_9">
      <path d="M 218.189602 244.078125 
L 218.189602 22.318125 
" clip-path="url(#p32cf51e8ad)" style="fill: none; stroke: #b0b0b0; stroke-width: 0.8; stroke-linecap: square"/>
     </g>
     <g id="line2d_10">
      <g>
       <use xlink:href="#m3b3cecf584" x="218.189602" y="244.078125" style="stroke: #000000; stroke-width: 0.8"/>
      </g>
     </g>
     <g id="text_5">
      <!-- 0.8 -->
      <g transform="translate(210.23804 258.676562) scale(0.1 -0.1)">
       <defs>
        <path id="DejaVuSans-38" d="M 2034 2216 
Q 1584 2216 1326 1975 
Q 1069 1734 1069 1313 
Q 1069 891 1326 650 
Q 1584 409 2034 409 
Q 2484 409 2743 651 
Q 3003 894 3003 1313 
Q 3003 1734 2745 1975 
Q 2488 2216 2034 2216 
z
M 1403 2484 
Q 997 2584 770 2862 
Q 544 3141 544 3541 
Q 544 4100 942 4425 
Q 1341 4750 2034 4750 
Q 2731 4750 3128 4425 
Q 3525 4100 3525 3541 
Q 3525 3141 3298 2862 
Q 3072 2584 2669 2484 
Q 3125 2378 3379 2068 
Q 3634 1759 3634 1313 
Q 3634 634 3220 271 
Q 2806 -91 2034 -91 
Q 1263 -91 848 271 
Q 434 634 434 1313 
Q 434 1759 690 2068 
Q 947 2378 1403 2484 
z
M 1172 3481 
Q 1172 3119 1398 2916 
Q 1625 2713 2034 2713 
Q 2441 2713 2670 2916 
Q 2900 3119 2900 3481 
Q 2900 3844 2670 4047 
Q 2441 4250 2034 4250 
Q 1625 4250 1398 4047 
Q 1172 3844 1172 3481 
z
" transform="scale(0.015625)"/>
       </defs>
       <use xlink:href="#DejaVuSans-30"/>
       <use xlink:href="#DejaVuSans-2e" x="63.623047"/>
       <use xlink:href="#DejaVuSans-38" x="95.410156"/>
      </g>
     </g>
    </g>
    <g id="xtick_6">
     <g id="line2d_11">
      <path d="M 258.77142 244.078125 
L 258.77142 22.318125 
" clip-path="url(#p32cf51e8ad)" style="fill: none; stroke: #b0b0b0; stroke-width: 0.8; stroke-linecap: square"/>
     </g>
     <g id="line2d_12">
      <g>
       <use xlink:href="#m3b3cecf584" x="258.77142" y="244.078125" style="stroke: #000000; stroke-width: 0.8"/>
      </g>
     </g>
     <g id="text_6">
      <!-- 1.0 -->
      <g transform="translate(250.819858 258.676562) scale(0.1 -0.1)">
       <defs>
        <path id="DejaVuSans-31" d="M 794 531 
L 1825 531 
L 1825 4091 
L 703 3866 
L 703 4441 
L 1819 4666 
L 2450 4666 
L 2450 531 
L 3481 531 
L 3481 0 
L 794 0 
L 794 531 
z
" transform="scale(0.015625)"/>
       </defs>
       <use xlink:href="#DejaVuSans-31"/>
       <use xlink:href="#DejaVuSans-2e" x="63.623047"/>
       <use xlink:href="#DejaVuSans-30" x="95.410156"/>
      </g>
     </g>
    </g>
    <g id="text_7">
     <!-- Recall -->
     <g transform="translate(139.41625 273.874375) scale(0.12 -0.12)">
      <defs>
       <path id="DejaVuSans-52" d="M 2841 2188 
Q 3044 2119 3236 1894 
Q 3428 1669 3622 1275 
L 4263 0 
L 3584 0 
L 2988 1197 
Q 2756 1666 2539 1819 
Q 2322 1972 1947 1972 
L 1259 1972 
L 1259 0 
L 628 0 
L 628 4666 
L 2053 4666 
Q 2853 4666 3247 4331 
Q 3641 3997 3641 3322 
Q 3641 2881 3436 2590 
Q 3231 2300 2841 2188 
z
M 1259 4147 
L 1259 2491 
L 2053 2491 
Q 2509 2491 2742 2702 
Q 2975 2913 2975 3322 
Q 2975 3731 2742 3939 
Q 2509 4147 2053 4147 
L 1259 4147 
z
" transform="scale(0.015625)"/>
       <path id="DejaVuSans-65" d="M 3597 1894 
L 3597 1613 
L 953 1613 
Q 991 1019 1311 708 
Q 1631 397 2203 397 
Q 2534 397 2845 478 
Q 3156 559 3463 722 
L 3463 178 
Q 3153 47 2828 -22 
Q 2503 -91 2169 -91 
Q 1331 -91 842 396 
Q 353 884 353 1716 
Q 353 2575 817 3079 
Q 1281 3584 2069 3584 
Q 2775 3584 3186 3129 
Q 3597 2675 3597 1894 
z
M 3022 2063 
Q 3016 2534 2758 2815 
Q 2500 3097 2075 3097 
Q 1594 3097 1305 2825 
Q 1016 2553 972 2059 
L 3022 2063 
z
" transform="scale(0.015625)"/>
       <path id="DejaVuSans-63" d="M 3122 3366 
L 3122 2828 
Q 2878 2963 2633 3030 
Q 2388 3097 2138 3097 
Q 1578 3097 1268 2742 
Q 959 2388 959 1747 
Q 959 1106 1268 751 
Q 1578 397 2138 397 
Q 2388 397 2633 464 
Q 2878 531 3122 666 
L 3122 134 
Q 2881 22 2623 -34 
Q 2366 -91 2075 -91 
Q 1284 -91 818 406 
Q 353 903 353 1747 
Q 353 2603 823 3093 
Q 1294 3584 2113 3584 
Q 2378 3584 2631 3529 
Q 2884 3475 3122 3366 
z
" transform="scale(0.015625)"/>
       <path id="DejaVuSans-61" d="M 2194 1759 
Q 1497 1759 1228 1600 
Q 959 1441 959 1056 
Q 959 750 1161 570 
Q 1363 391 1709 391 
Q 2188 391 2477 730 
Q 2766 1069 2766 1631 
L 2766 1759 
L 2194 1759 
z
M 3341 1997 
L 3341 0 
L 2766 0 
L 2766 531 
Q 2569 213 2275 61 
Q 1981 -91 1556 -91 
Q 1019 -91 701 211 
Q 384 513 384 1019 
Q 384 1609 779 1909 
Q 1175 2209 1959 2209 
L 2766 2209 
L 2766 2266 
Q 2766 2663 2505 2880 
Q 2244 3097 1772 3097 
Q 1472 3097 1187 3025 
Q 903 2953 641 2809 
L 641 3341 
Q 956 3463 1253 3523 
Q 1550 3584 1831 3584 
Q 2591 3584 2966 3190 
Q 3341 2797 3341 1997 
z
" transform="scale(0.015625)"/>
       <path id="DejaVuSans-6c" d="M 603 4863 
L 1178 4863 
L 1178 0 
L 603 0 
L 603 4863 
z
" transform="scale(0.015625)"/>
      </defs>
      <use xlink:href="#DejaVuSans-52"/>
      <use xlink:href="#DejaVuSans-65" x="64.982422"/>
      <use xlink:href="#DejaVuSans-63" x="126.505859"/>
      <use xlink:href="#DejaVuSans-61" x="181.486328"/>
      <use xlink:href="#DejaVuSans-6c" x="242.765625"/>
      <use xlink:href="#DejaVuSans-6c" x="270.548828"/>
     </g>
    </g>
   </g>
   <g id="matplotlib.axis_2">
    <g id="ytick_1">
     <g id="line2d_13">
      <path d="M 45.716875 232.935278 
L 268.916875 232.935278 
" clip-path="url(#p32cf51e8ad)" style="fill: none; stroke: #b0b0b0; stroke-width: 0.8; stroke-linecap: square"/>
     </g>
     <g id="line2d_14">
      <defs>
       <path id="m23e6e8e0cb" d="M 0 0 
L -3.5 0 
" style="stroke: #000000; stroke-width: 0.8"/>
      </defs>
      <g>
       <use xlink:href="#m23e6e8e0cb" x="45.716875" y="232.935278" style="stroke: #000000; stroke-width: 0.8"/>
      </g>
     </g>
     <g id="text_8">
      <!-- 0.5 -->
      <g transform="translate(22.81375 236.734497) scale(0.1 -0.1)">
       <defs>
        <path id="DejaVuSans-35" d="M 691 4666 
L 3169 4666 
L 3169 4134 
L 1269 4134 
L 1269 2991 
Q 1406 3038 1543 3061 
Q 1681 3084 1819 3084 
Q 2600 3084 3056 2656 
Q 3513 2228 3513 1497 
Q 3513 744 3044 326 
Q 2575 -91 1722 -91 
Q 1428 -91 1123 -41 
Q 819 9 494 109 
L 494 744 
Q 775 591 1075 516 
Q 1375 441 1709 441 
Q 2250 441 2565 725 
Q 2881 1009 2881 1497 
Q 2881 1984 2565 2268 
Q 2250 2553 1709 2553 
Q 1456 2553 1204 2497 
Q 953 2441 691 2322 
L 691 4666 
z
" transform="scale(0.015625)"/>
       </defs>
       <use xlink:href="#DejaVuSans-30"/>
       <use xlink:href="#DejaVuSans-2e" x="63.623047"/>
       <use xlink:href="#DejaVuSans-35" x="95.410156"/>
      </g>
     </g>
    </g>
    <g id="ytick_2">
     <g id="line2d_15">
      <path d="M 45.716875 192.827847 
L 268.916875 192.827847 
" clip-path="url(#p32cf51e8ad)" style="fill: none; stroke: #b0b0b0; stroke-width: 0.8; stroke-linecap: square"/>
     </g>
     <g id="line2d_16">
      <g>
       <use xlink:href="#m23e6e8e0cb" x="45.716875" y="192.827847" style="stroke: #000000; stroke-width: 0.8"/>
      </g>
     </g>
     <g id="text_9">
      <!-- 0.6 -->
      <g transform="translate(22.81375 196.627066) scale(0.1 -0.1)">
       <use xlink:href="#DejaVuSans-30"/>
       <use xlink:href="#DejaVuSans-2e" x="63.623047"/>
       <use xlink:href="#DejaVuSans-36" x="95.410156"/>
      </g>
     </g>
    </g>
    <g id="ytick_3">
     <g id="line2d_17">
      <path d="M 45.716875 152.720417 
L 268.916875 152.720417 
" clip-path="url(#p32cf51e8ad)" style="fill: none; stroke: #b0b0b0; stroke-width: 0.8; stroke-linecap: square"/>
     </g>
     <g id="line2d_18">
      <g>
       <use xlink:href="#m23e6e8e0cb" x="45.716875" y="152.720417" style="stroke: #000000; stroke-width: 0.8"/>
      </g>
     </g>
     <g id="text_10">
      <!-- 0.7 -->
      <g transform="translate(22.81375 156.519636) scale(0.1 -0.1)">
       <defs>
        <path id="DejaVuSans-37" d="M 525 4666 
L 3525 4666 
L 3525 4397 
L 1831 0 
L 1172 0 
L 2766 4134 
L 525 4134 
L 525 4666 
z
" transform="scale(0.015625)"/>
       </defs>
       <use xlink:href="#DejaVuSans-30"/>
       <use xlink:href="#DejaVuSans-2e" x="63.623047"/>
       <use xlink:href="#DejaVuSans-37" x="95.410156"/>
      </g>
     </g>
    </g>
    <g id="ytick_4">
     <g id="line2d_19">
      <path d="M 45.716875 112.612986 
L 268.916875 112.612986 
" clip-path="url(#p32cf51e8ad)" style="fill: none; stroke: #b0b0b0; stroke-width: 0.8; stroke-linecap: square"/>
     </g>
     <g id="line2d_20">
      <g>
       <use xlink:href="#m23e6e8e0cb" x="45.716875" y="112.612986" style="stroke: #000000; stroke-width: 0.8"/>
      </g>
     </g>
     <g id="text_11">
      <!-- 0.8 -->
      <g transform="translate(22.81375 116.412205) scale(0.1 -0.1)">
       <use xlink:href="#DejaVuSans-30"/>
       <use xlink:href="#DejaVuSans-2e" x="63.623047"/>
       <use xlink:href="#DejaVuSans-38" x="95.410156"/>
      </g>
     </g>
    </g>
    <g id="ytick_5">
     <g id="line2d_21">
      <path d="M 45.716875 72.505556 
L 268.916875 72.505556 
" clip-path="url(#p32cf51e8ad)" style="fill: none; stroke: #b0b0b0; stroke-width: 0.8; stroke-linecap: square"/>
     </g>
     <g id="line2d_22">
      <g>
       <use xlink:href="#m23e6e8e0cb" x="45.716875" y="72.505556" style="stroke: #000000; stroke-width: 0.8"/>
      </g>
     </g>
     <g id="text_12">
      <!-- 0.9 -->
      <g transform="translate(22.81375 76.304774) scale(0.1 -0.1)">
       <defs>
        <path id="DejaVuSans-39" d="M 703 97 
L 703 672 
Q 941 559 1184 500 
Q 1428 441 1663 441 
Q 2288 441 2617 861 
Q 2947 1281 2994 2138 
Q 2813 1869 2534 1725 
Q 2256 1581 1919 1581 
Q 1219 1581 811 2004 
Q 403 2428 403 3163 
Q 403 3881 828 4315 
Q 1253 4750 1959 4750 
Q 2769 4750 3195 4129 
Q 3622 3509 3622 2328 
Q 3622 1225 3098 567 
Q 2575 -91 1691 -91 
Q 1453 -91 1209 -44 
Q 966 3 703 97 
z
M 1959 2075 
Q 2384 2075 2632 2365 
Q 2881 2656 2881 3163 
Q 2881 3666 2632 3958 
Q 2384 4250 1959 4250 
Q 1534 4250 1286 3958 
Q 1038 3666 1038 3163 
Q 1038 2656 1286 2365 
Q 1534 2075 1959 2075 
z
" transform="scale(0.015625)"/>
       </defs>
       <use xlink:href="#DejaVuSans-30"/>
       <use xlink:href="#DejaVuSans-2e" x="63.623047"/>
       <use xlink:href="#DejaVuSans-39" x="95.410156"/>
      </g>
     </g>
    </g>
    <g id="ytick_6">
     <g id="line2d_23">
      <path d="M 45.716875 32.398125 
L 268.916875 32.398125 
" clip-path="url(#p32cf51e8ad)" style="fill: none; stroke: #b0b0b0; stroke-width: 0.8; stroke-linecap: square"/>
     </g>
     <g id="line2d_24">
      <g>
       <use xlink:href="#m23e6e8e0cb" x="45.716875" y="32.398125" style="stroke: #000000; stroke-width: 0.8"/>
      </g>
     </g>
     <g id="text_13">
      <!-- 1.0 -->
      <g transform="translate(22.81375 36.197344) scale(0.1 -0.1)">
       <use xlink:href="#DejaVuSans-31"/>
       <use xlink:href="#DejaVuSans-2e" x="63.623047"/>
       <use xlink:href="#DejaVuSans-30" x="95.410156"/>
      </g>
     </g>
    </g>
    <g id="text_14">
     <!-- Precision -->
     <g transform="translate(16.318125 159.966563) rotate(-90) scale(0.12 -0.12)">
      <defs>
       <path id="DejaVuSans-50" d="M 1259 4147 
L 1259 2394 
L 2053 2394 
Q 2494 2394 2734 2622 
Q 2975 2850 2975 3272 
Q 2975 3691 2734 3919 
Q 2494 4147 2053 4147 
L 1259 4147 
z
M 628 4666 
L 2053 4666 
Q 2838 4666 3239 4311 
Q 3641 3956 3641 3272 
Q 3641 2581 3239 2228 
Q 2838 1875 2053 1875 
L 1259 1875 
L 1259 0 
L 628 0 
L 628 4666 
z
" transform="scale(0.015625)"/>
       <path id="DejaVuSans-72" d="M 2631 2963 
Q 2534 3019 2420 3045 
Q 2306 3072 2169 3072 
Q 1681 3072 1420 2755 
Q 1159 2438 1159 1844 
L 1159 0 
L 581 0 
L 581 3500 
L 1159 3500 
L 1159 2956 
Q 1341 3275 1631 3429 
Q 1922 3584 2338 3584 
Q 2397 3584 2469 3576 
Q 2541 3569 2628 3553 
L 2631 2963 
z
" transform="scale(0.015625)"/>
       <path id="DejaVuSans-69" d="M 603 3500 
L 1178 3500 
L 1178 0 
L 603 0 
L 603 3500 
z
M 603 4863 
L 1178 4863 
L 1178 4134 
L 603 4134 
L 603 4863 
z
" transform="scale(0.015625)"/>
       <path id="DejaVuSans-73" d="M 2834 3397 
L 2834 2853 
Q 2591 2978 2328 3040 
Q 2066 3103 1784 3103 
Q 1356 3103 1142 2972 
Q 928 2841 928 2578 
Q 928 2378 1081 2264 
Q 1234 2150 1697 2047 
L 1894 2003 
Q 2506 1872 2764 1633 
Q 3022 1394 3022 966 
Q 3022 478 2636 193 
Q 2250 -91 1575 -91 
Q 1294 -91 989 -36 
Q 684 19 347 128 
L 347 722 
Q 666 556 975 473 
Q 1284 391 1588 391 
Q 1994 391 2212 530 
Q 2431 669 2431 922 
Q 2431 1156 2273 1281 
Q 2116 1406 1581 1522 
L 1381 1569 
Q 847 1681 609 1914 
Q 372 2147 372 2553 
Q 372 3047 722 3315 
Q 1072 3584 1716 3584 
Q 2034 3584 2315 3537 
Q 2597 3491 2834 3397 
z
" transform="scale(0.015625)"/>
       <path id="DejaVuSans-6f" d="M 1959 3097 
Q 1497 3097 1228 2736 
Q 959 2375 959 1747 
Q 959 1119 1226 758 
Q 1494 397 1959 397 
Q 2419 397 2687 759 
Q 2956 1122 2956 1747 
Q 2956 2369 2687 2733 
Q 2419 3097 1959 3097 
z
M 1959 3584 
Q 2709 3584 3137 3096 
Q 3566 2609 3566 1747 
Q 3566 888 3137 398 
Q 2709 -91 1959 -91 
Q 1206 -91 779 398 
Q 353 888 353 1747 
Q 353 2609 779 3096 
Q 1206 3584 1959 3584 
z
" transform="scale(0.015625)"/>
       <path id="DejaVuSans-6e" d="M 3513 2113 
L 3513 0 
L 2938 0 
L 2938 2094 
Q 2938 2591 2744 2837 
Q 2550 3084 2163 3084 
Q 1697 3084 1428 2787 
Q 1159 2491 1159 1978 
L 1159 0 
L 581 0 
L 581 3500 
L 1159 3500 
L 1159 2956 
Q 1366 3272 1645 3428 
Q 1925 3584 2291 3584 
Q 2894 3584 3203 3211 
Q 3513 2838 3513 2113 
z
" transform="scale(0.015625)"/>
      </defs>
      <use xlink:href="#DejaVuSans-50"/>
      <use xlink:href="#DejaVuSans-72" x="58.552734"/>
      <use xlink:href="#DejaVuSans-65" x="97.416016"/>
      <use xlink:href="#DejaVuSans-63" x="158.939453"/>
      <use xlink:href="#DejaVuSans-69" x="213.919922"/>
      <use xlink:href="#DejaVuSans-73" x="241.703125"/>
      <use xlink:href="#DejaVuSans-69" x="293.802734"/>
      <use xlink:href="#DejaVuSans-6f" x="321.585938"/>
      <use xlink:href="#DejaVuSans-6e" x="382.767578"/>
     </g>
    </g>
   </g>
   <g id="line2d_25">
    <path d="M 258.77142 233.998125 
L 258.669425 231.349522 
L 258.649026 231.359607 
L 258.649026 231.236587 
L 258.547031 230.027756 
L 258.506233 230.006383 
L 258.506233 229.933624 
L 258.404238 226.267749 
L 258.383839 226.277837 
L 258.383839 226.191551 
L 258.36344 226.169264 
L 258.261445 224.236443 
L 258.241046 224.24653 
L 258.241046 224.125444 
L 258.139051 223.179875 
L 258.118652 223.189964 
L 258.118652 223.067577 
L 258.016657 222.122523 
L 257.996258 222.132612 
L 257.996258 222.008916 
L 257.914661 221.315368 
L 257.894262 221.325458 
L 257.833065 221.299066 
L 257.833065 221.242368 
L 257.73107 220.632913 
L 257.710671 220.643008 
L 257.710671 220.52881 
L 257.629075 219.54739 
L 257.608676 219.557483 
L 257.588277 219.567577 
L 257.588277 219.452152 
L 257.486282 217.97893 
L 257.465883 217.989019 
L 257.465883 217.906988 
L 257.445484 217.881902 
L 257.363888 217.581635 
L 257.343489 217.591727 
L 257.32309 217.60182 
L 257.32309 217.507661 
L 257.302691 217.494202 
L 257.200696 215.954798 
L 257.180297 215.964885 
L 257.180297 215.881187 
L 257.159898 215.855383 
L 257.078301 215.476125 
L 257.057902 215.486214 
L 256.955907 215.41648 
L 256.853912 214.706646 
L 256.833513 214.716739 
L 256.813114 214.605658 
L 256.711119 214.267457 
L 256.670321 214.28765 
L 256.649922 214.175998 
L 256.547927 213.860419 
L 256.527528 213.870519 
L 256.527528 213.748219 
L 256.425533 212.790659 
L 256.405134 212.800755 
L 256.405134 212.689548 
L 256.384735 212.687281 
L 256.28274 212.366211 
L 256.241941 212.386409 
L 256.241941 212.274693 
L 256.139946 211.714953 
L 256.037951 211.690499 
L 256.037951 211.653 
L 255.935956 211.277628 
L 255.915557 211.287733 
L 255.915557 211.174719 
L 255.813562 210.671051 
L 255.793163 210.681155 
L 255.793163 210.580093 
L 255.772764 210.577558 
L 255.670769 209.714225 
L 255.629971 209.683435 
L 255.629971 209.619662 
L 255.527976 209.235537 
L 255.507577 209.245638 
L 255.507577 209.130302 
L 255.425981 208.592219 
L 255.405582 208.602318 
L 255.385182 208.612418 
L 255.385182 208.496358 
L 255.283187 207.470793 
L 255.242389 207.47795 
L 255.242389 207.373673 
L 255.140394 206.796417 
L 255.099596 206.777249 
L 255.079197 206.708599 
L 254.977202 206.10071 
L 254.956803 206.110799 
L 254.956803 205.991886 
L 254.854808 205.379395 
L 254.81401 205.372967 
L 254.81401 205.279822 
L 254.712015 204.595699 
L 254.671217 204.602463 
L 254.630419 204.515372 
L 254.528423 203.541735 
L 254.467226 203.490722 
L 254.508024 203.497657 
L 254.467226 203.450079 
L 254.38563 202.742683 
L 254.365231 202.752753 
L 254.242837 202.731327 
L 254.242837 202.690369 
L 254.202039 202.696867 
L 254.140842 201.684438 
L 254.079645 201.659498 
L 254.079645 201.604331 
L 253.97765 200.684906 
L 253.936852 200.663278 
L 253.936852 200.593671 
L 253.834857 200.337181 
L 253.753261 200.307582 
L 253.814458 200.291371 
L 253.753261 200.265656 
L 253.651265 199.643048 
L 253.590068 199.673222 
L 253.590068 199.560683 
L 253.488073 199.187965 
L 253.447275 199.20808 
L 253.447275 199.095012 
L 253.365679 198.710238 
L 253.34528 198.720293 
L 253.284083 198.722075 
L 253.263684 198.646919 
L 253.161689 198.0275 
L 253.120891 198.004728 
L 253.120891 197.933227 
L 253.080093 197.609512 
L 253.018896 197.625317 
L 252.998497 197.549241 
L 252.916901 197.560734 
L 252.814905 197.352161 
L 252.794506 197.36222 
L 252.774107 197.257039 
L 252.672112 196.903078 
L 252.631314 196.908731 
L 252.631314 196.807431 
L 252.529319 196.480682 
L 252.447723 196.520918 
L 252.447723 196.404651 
L 252.345728 196.236634 
L 252.284531 196.179375 
L 252.325329 196.15925 
L 252.284531 196.150211 
L 252.182536 195.630351 
L 252.10094 195.567953 
L 252.162137 195.567109 
L 252.10094 195.553283 
L 251.998945 194.867713 
L 251.978545 194.803925 
L 251.917348 194.789759 
L 251.815353 193.860528 
L 251.794954 193.870571 
L 251.794954 193.751292 
L 251.774555 193.761333 
L 251.67256 193.108302 
L 251.652161 193.118336 
L 251.652161 192.998219 
L 251.550166 192.717421 
L 251.529767 192.727453 
L 251.529767 192.60687 
L 251.448171 192.616835 
L 251.427772 192.551418 
L 251.407373 192.561453 
L 251.407373 192.440628 
L 251.386974 192.450662 
L 251.305378 191.915169 
L 251.284979 191.925197 
L 251.182984 191.94498 
L 251.162585 191.863836 
L 251.060589 191.426516 
L 251.019791 191.416042 
L 251.019791 191.324388 
L 250.917796 190.930532 
L 250.856599 190.914587 
L 250.856599 190.837833 
L 250.754604 190.457215 
L 250.611811 190.419467 
L 250.611811 190.404038 
L 250.530215 189.980345 
L 250.509816 189.990371 
L 250.469018 189.994933 
L 250.469018 189.901938 
L 250.367023 189.734795 
L 250.346624 189.744824 
L 250.346624 189.667124 
L 250.326225 189.646058 
L 250.224229 189.353612 
L 250.163032 189.290088 
L 250.20383 189.28564 
L 250.163032 189.274479 
L 250.061037 188.871061 
L 249.979441 188.817104 
L 249.979441 188.80142 
L 249.877446 188.285535 
L 249.857047 188.295556 
L 249.857047 188.20096 
L 249.836648 188.195206 
L 249.734653 187.929388 
L 249.693855 187.933609 
L 249.693855 187.838654 
L 249.673456 187.848673 
L 249.612259 187.371019 
L 249.571461 187.375144 
L 249.510264 187.373382 
L 249.510264 187.293821 
L 249.408268 187.136788 
L 249.387869 187.146805 
L 249.387869 187.035129 
L 249.306273 186.723525 
L 249.285874 186.733537 
L 249.224677 186.715545 
L 249.224677 186.651465 
L 249.122682 186.412745 
L 249.081884 186.41671 
L 249.081884 186.320273 
L 249.000288 185.973798 
L 248.979889 185.983808 
L 248.918692 185.949299 
L 248.918692 185.900866 
L 248.816697 185.433081 
L 248.735101 185.440672 
L 248.735101 185.359531 
L 248.673904 185.145801 
L 248.633106 185.165815 
L 248.592308 185.169565 
L 248.592308 185.071904 
L 248.490312 184.877441 
L 248.469913 184.88745 
L 248.469913 184.773173 
L 248.367918 184.446954 
L 248.32712 184.466964 
L 248.286322 184.372225 
L 248.204726 184.280969 
L 248.184327 184.290978 
L 248.163928 184.300988 
L 248.163928 184.185988 
L 248.061933 184.088011 
L 248.041534 184.098023 
L 248.041534 183.982762 
L 247.939539 183.719395 
L 247.878342 183.666804 
L 247.91914 183.646788 
L 247.878342 183.633741 
L 247.776347 183.402375 
L 247.735549 183.422393 
L 247.69475 183.326339 
L 247.592755 183.044118 
L 247.572356 183.054126 
L 247.572356 182.970914 
L 247.551957 182.94762 
L 247.449962 182.797654 
L 247.388765 182.744243 
L 247.388765 182.71085 
L 247.28677 182.24212 
L 247.225573 182.171465 
L 247.266371 182.151461 
L 247.225573 182.154679 
L 247.123578 181.834804 
L 247.103179 181.844805 
L 247.103179 181.760581 
L 247.08278 181.736874 
L 246.980785 181.178543 
L 246.87879 181.143769 
L 246.87879 181.109859 
L 246.776794 180.769157 
L 246.756395 180.779147 
L 246.756395 180.66 
L 246.674799 180.375955 
L 246.6544 180.385939 
L 246.634001 180.395924 
L 246.634001 180.293429 
L 246.613602 180.286322 
L 246.532006 179.983924 
L 246.511607 179.993904 
L 246.45041 179.972415 
L 246.45041 179.903799 
L 246.348415 179.644449 
L 246.287218 179.605558 
L 246.287218 179.553906 
L 246.185223 179.189795 
L 246.164824 179.19977 
L 246.144425 179.088728 
L 246.124026 179.098703 
L 246.022031 178.854161 
L 246.001631 178.864135 
L 246.001631 178.760051 
L 245.981232 178.752667 
L 245.940434 178.685795 
L 245.879237 178.698348 
L 245.838439 178.718304 
L 245.797641 178.616575 
L 245.695646 178.352985 
L 245.654848 178.372941 
L 245.634449 178.260785 
L 245.532454 178.170939 
L 245.430459 178.185888 
L 245.430459 178.098431 
L 245.328464 177.780335 
L 245.308065 177.790314 
L 245.287666 177.677376 
L 245.185671 177.410614 
L 245.083675 177.407646 
L 245.083675 177.337129 
L 244.98168 176.980751 
L 244.961281 176.990725 
L 244.940882 176.894493 
L 244.920483 176.904467 
L 244.818488 176.635148 
L 244.757291 176.576251 
L 244.798089 176.574075 
L 244.757291 176.55848 
L 244.655296 175.805993 
L 244.634897 175.815949 
L 244.634897 175.708584 
L 244.553301 175.318 
L 244.532902 175.327946 
L 244.512503 175.337893 
L 244.512503 175.23006 
L 244.410508 174.901614 
L 244.328912 174.923344 
L 244.308512 174.843055 
L 244.206517 174.675935 
L 244.165719 174.677735 
L 244.165719 174.587254 
L 244.063724 174.165385 
L 243.961729 174.142358 
L 243.961729 174.105984 
L 243.859734 173.773084 
L 243.757739 173.713225 
L 243.696542 173.267245 
L 243.655744 173.287098 
L 243.574148 173.271799 
L 243.553749 173.226684 
L 243.492552 172.962476 
L 243.451753 172.982332 
L 243.370157 172.948438 
L 243.431354 172.937055 
L 243.370157 172.911613 
L 243.288561 172.748593 
L 243.268162 172.758524 
L 243.186566 172.687516 
L 243.084571 172.496892 
L 243.043773 172.51676 
L 243.002975 172.425557 
L 242.962177 172.426906 
L 242.90098 172.252775 
L 242.758187 172.210946 
L 242.656192 172.167741 
L 242.594994 172.197581 
L 242.554196 172.105865 
L 242.4726 171.884826 
L 242.513398 172.107151 
L 242.452201 171.894771 
L 242.411403 171.877357 
L 242.411403 171.802707 
L 242.391004 171.812653 
L 242.289009 171.825056 
L 242.289009 171.694251 
L 242.207413 171.659241 
L 242.207413 171.621817 
L 242.125817 171.192872 
L 242.105418 171.202813 
L 242.085019 171.212755 
L 242.085019 171.099995 
L 242.023822 170.903987 
L 241.983024 170.905023 
L 241.962625 170.914962 
L 241.962625 170.801872 
L 241.86063 170.454917 
L 241.840231 170.464847 
L 241.840231 170.389155 
L 241.819832 170.361221 
L 241.738235 170.26832 
L 241.717836 170.278251 
L 241.615841 170.271031 
L 241.615841 170.214114 
L 241.575043 170.082077 
L 241.513846 170.111878 
L 241.473048 170.131753 
L 241.452649 170.027623 
L 241.350654 169.810729 
L 241.330255 169.820664 
L 241.330255 169.70624 
L 241.309856 169.716173 
L 241.207861 169.441048 
L 241.126265 169.404224 
L 241.126265 169.365931 
L 241.02427 169.147195 
L 241.003871 169.157125 
L 241.003871 169.041921 
L 240.983472 169.051848 
L 240.922275 169.02399 
L 240.922275 169.062424 
L 240.881476 169.043852 
L 240.840678 169.044497 
L 240.840678 168.948334 
L 240.738683 168.631889 
L 240.657087 168.594386 
L 240.718284 168.583913 
L 240.657087 168.55576 
L 240.555092 168.276582 
L 240.453097 168.209941 
L 240.351102 167.637618 
L 240.330703 167.64753 
L 240.330703 167.530581 
L 240.289905 167.550401 
L 240.228708 167.424022 
L 240.18791 167.424316 
L 239.943121 167.426082 
L 239.841126 167.064332 
L 239.739131 167.055055 
L 239.739131 166.996143 
L 239.637136 166.790135 
L 239.55554 166.770753 
L 239.535141 166.721578 
L 239.433146 166.435758 
L 239.208757 166.42629 
L 239.106761 166.258125 
L 239.025165 166.218539 
L 239.025165 166.178867 
L 238.943569 165.781355 
L 238.92317 165.791275 
L 238.861973 165.7613 
L 238.861973 165.70153 
L 238.759978 165.431865 
L 238.71918 165.431718 
L 238.71918 165.331763 
L 238.637584 165.11116 
L 238.617185 165.121071 
L 238.596786 165.130984 
L 238.596786 165.010679 
L 238.555988 165.0305 
L 238.453993 164.839079 
L 238.433594 164.84899 
L 238.433594 164.728324 
L 238.331598 164.495848 
L 238.311199 164.505752 
L 238.311199 164.384696 
L 238.229603 164.161608 
L 238.209204 164.171506 
L 238.168406 164.191305 
L 238.148007 164.079767 
L 238.066411 163.896413 
L 238.046012 163.906309 
L 238.025613 163.916207 
L 238.025613 163.794428 
L 237.964416 163.803806 
L 237.923618 163.701674 
L 237.88282 163.721468 
L 237.862421 163.609312 
L 237.780825 163.322834 
L 237.760426 163.332724 
L 237.699229 163.362401 
L 237.67883 163.249792 
L 237.576835 162.684958 
L 237.556436 162.694834 
L 237.556436 162.592173 
L 237.515638 162.591377 
L 237.434041 162.610337 
L 237.413642 162.476278 
L 237.332046 162.515792 
L 237.311647 162.422746 
L 237.209652 161.935566 
L 237.189253 161.945431 
L 237.189253 161.841993 
L 237.168854 161.851856 
L 237.066859 161.445016 
L 236.944465 161.462605 
L 236.944465 161.400246 
L 236.862869 161.231587 
L 236.84247 161.241443 
L 236.801672 161.24033 
L 236.801672 161.156977 
L 236.699677 160.955858 
L 236.679278 160.965713 
L 236.679278 160.861232 
L 236.63848 160.880936 
L 236.536484 160.448441 
L 236.332494 160.441931 
L 236.230499 160.091379 
L 236.2101 160.101223 
L 236.2101 160.016895 
L 236.189701 160.005646 
L 236.128504 159.90855 
L 236.087706 159.928237 
L 235.883716 159.942234 
L 235.883716 159.921094 
L 235.80212 159.621788 
L 235.78172 159.631637 
L 235.761321 159.641487 
L 235.761321 159.556664 
L 235.740922 159.545297 
L 235.638927 159.190763 
L 235.618528 159.200602 
L 235.618528 159.094139 
L 235.598129 159.103975 
L 235.496134 158.854568 
L 235.312543 158.836277 
L 235.230947 158.554566 
L 235.210548 158.564401 
L 235.190149 158.574238 
L 235.190149 158.467032 
L 235.149351 158.486701 
L 235.047356 158.25669 
L 234.945361 158.219825 
L 234.945361 158.198306 
L 234.843365 158.010516 
L 234.761769 157.985145 
L 234.761769 157.941986 
L 234.659774 157.818366 
L 234.639375 157.828201 
L 234.639375 157.741711 
L 234.618976 157.729912 
L 234.516981 157.215351 
L 234.476183 157.234987 
L 234.476183 157.126301 
L 234.394587 157.035014 
L 234.374188 157.04483 
L 234.292592 156.996983 
L 234.292592 156.975193 
L 234.210996 156.709001 
L 234.190597 156.718813 
L 234.149799 156.629165 
L 234.109001 156.648791 
L 234.027404 156.55678 
L 234.007005 156.566595 
L 233.945808 156.596052 
L 233.925409 156.496354 
L 233.823414 156.172364 
L 233.741818 156.145657 
L 233.741818 156.101668 
L 233.639823 155.864411 
L 233.599025 155.861974 
L 233.599025 155.773732 
L 233.49703 155.55765 
L 233.395035 155.518164 
L 233.395035 155.496029 
L 233.313439 155.38018 
L 233.29304 155.389983 
L 233.252242 155.409594 
L 233.252242 155.298706 
L 233.231843 155.308509 
L 233.150246 155.19231 
L 233.129847 155.202114 
L 232.885059 155.230939 
L 232.885059 155.208694 
L 232.783064 154.722735 
L 232.681069 154.682368 
L 232.681069 154.660009 
L 232.579074 154.373169 
L 232.436281 154.396933 
L 232.436281 154.329616 
L 232.354684 153.851569 
L 232.334285 153.861357 
L 232.191492 153.817168 
L 232.130295 153.462487 
L 232.089497 153.482053 
L 232.069098 153.491838 
L 232.069098 153.37866 
L 231.967103 153.291618 
L 231.926305 153.311187 
L 231.926305 153.19777 
L 231.905906 153.207552 
L 231.82431 152.996796 
L 231.803911 153.006573 
L 231.722315 153.022955 
L 231.701916 152.941717 
L 231.599921 152.694343 
L 231.559123 152.713897 
L 231.559123 152.599759 
L 231.518325 152.619308 
L 231.477526 152.524612 
L 231.416329 152.553942 
L 231.334733 152.524452 
L 231.39593 152.495113 
L 231.334733 152.478688 
L 231.253137 152.33458 
L 231.232738 152.344359 
L 231.069546 152.307951 
L 230.98795 152.209327 
L 230.967551 152.219115 
L 230.906354 152.225506 
L 230.885955 152.143332 
L 230.78396 151.939018 
L 230.722763 151.922275 
L 230.722763 151.853087 
L 230.620767 151.64799 
L 230.55957 151.677341 
L 230.55957 151.561699 
L 230.457575 151.309437 
L 230.396378 151.292367 
L 230.375979 151.232513 
L 230.273984 151.095511 
L 230.212787 151.031787 
L 230.212787 151.008514 
L 230.131191 150.954473 
L 230.110792 150.964249 
L 229.988398 150.90638 
L 229.886403 150.838621 
L 229.866004 150.848405 
L 229.866004 150.778345 
L 229.825206 150.751181 
L 229.72321 150.566173 
L 229.641614 150.581885 
L 229.641614 150.488166 
L 229.580417 150.25943 
L 229.539619 150.278979 
L 229.478422 150.261329 
L 229.458023 150.200596 
L 229.417225 150.079009 
L 229.356028 150.108336 
L 229.31523 150.080805 
L 229.31523 150.01014 
L 229.213235 149.657838 
L 229.152038 149.687138 
L 229.152038 149.568904 
L 229.050043 149.191177 
L 229.009245 149.186944 
L 229.009245 149.091952 
L 228.988846 149.101701 
L 228.907249 149.116949 
L 228.88685 149.031606 
L 228.784855 148.985201 
L 228.784855 148.961394 
L 228.68286 148.795695 
L 228.642062 148.695889 
L 228.580865 148.725144 
L 228.519668 148.611063 
L 228.47887 148.63057 
L 228.417673 148.588095 
L 228.458471 148.568586 
L 228.417673 148.540244 
L 228.417673 148.468436 
L 228.315678 148.469306 
L 228.234082 148.412469 
L 228.234082 148.38849 
L 228.132087 148.221251 
L 228.091288 148.216735 
L 228.091288 148.120584 
L 227.989293 147.952732 
L 227.928096 147.981986 
L 227.928096 147.861475 
L 227.826101 147.548 
L 227.744505 147.538587 
L 227.724106 147.47573 
L 227.64251 147.223873 
L 227.622111 147.233606 
L 227.479318 147.228952 
L 227.479318 147.180378 
L 227.377323 146.961576 
L 227.356924 146.97131 
L 227.356924 146.84954 
L 227.275328 146.47359 
L 227.254929 146.483305 
L 227.132534 146.419335 
L 227.030539 146.222986 
L 226.887746 146.192894 
L 226.887746 146.168349 
L 226.785751 146.069574 
L 226.642958 146.014671 
L 226.540963 145.890914 
L 226.459367 145.855863 
L 226.459367 145.831198 
L 226.357371 145.73174 
L 226.336972 145.642635 
L 226.296174 145.662088 
L 226.194179 145.537563 
L 226.112583 145.477408 
L 226.030987 145.193794 
L 226.010588 145.203514 
L 225.867795 145.172167 
L 225.786199 144.91232 
L 225.7658 144.922038 
L 225.725002 144.941481 
L 225.725002 144.841738 
L 225.663805 144.845949 
L 225.623007 144.765539 
L 225.521011 144.714207 
L 225.419016 144.612745 
L 225.296622 144.570932 
L 225.194627 144.469149 
L 225.113031 144.432779 
L 225.113031 144.407671 
L 225.051834 144.135187 
L 225.011036 144.154628 
L 224.847844 144.131706 
L 224.786647 143.933914 
L 224.745849 143.953364 
L 224.664252 143.916517 
L 224.664252 143.891253 
L 224.582656 143.753166 
L 224.562257 143.762892 
L 224.480661 143.700539 
L 224.378666 143.495638 
L 224.276671 143.468098 
L 224.276671 143.442697 
L 224.174676 143.364243 
L 224.09308 143.403168 
L 224.09308 143.301381 
L 223.991085 143.120702 
L 223.868691 143.077004 
L 223.766695 142.870088 
L 223.725897 142.889541 
L 223.725897 142.787169 
L 223.623902 142.605139 
L 223.562705 142.582985 
L 223.562705 142.53165 
L 223.501508 142.149411 
L 223.46071 142.168816 
L 223.379114 142.181885 
L 223.379114 142.104579 
L 223.277119 142.024155 
L 223.113927 141.998558 
L 223.011932 141.607168 
L 222.991533 141.616868 
L 222.991533 141.513143 
L 222.930335 141.516288 
L 222.889537 141.301931 
L 222.807941 141.236665 
L 222.726345 140.884558 
L 222.705946 140.894234 
L 222.522355 140.876924 
L 222.440759 140.601754 
L 222.42036 140.61143 
L 222.318365 140.555011 
L 222.257168 140.505375 
L 222.257168 140.557836 
L 222.21637 140.52474 
L 222.134773 140.563492 
L 222.134773 140.458479 
L 222.032778 140.296615 
L 221.971581 140.325669 
L 221.951182 140.230064 
L 221.910384 140.091334 
L 221.849187 140.120375 
L 221.808389 140.139744 
L 221.808389 140.034219 
L 221.726793 139.914489 
L 221.706394 139.924168 
L 221.584 139.876498 
L 221.482005 139.500932 
L 221.461606 139.510602 
L 221.461606 139.404402 
L 221.359611 139.000409 
L 221.257615 138.995344 
L 221.237216 138.951652 
L 221.176019 138.820434 
L 221.135221 138.839733 
L 221.053625 138.878351 
L 221.012827 138.790737 
L 220.95163 138.632359 
L 220.910832 138.651662 
L 220.870034 138.670972 
L 220.849635 138.573432 
L 220.849635 138.546621 
L 220.74764 138.594896 
L 220.74764 138.568072 
L 220.727241 138.577731 
L 220.727241 138.47038 
L 220.706842 138.480034 
L 220.645645 138.29402 
L 220.604847 138.313319 
L 220.584448 138.269166 
L 220.31926 138.3409 
L 220.237664 138.109905 
L 220.258063 138.342972 
L 220.217265 138.119567 
L 220.11527 138.059852 
L 220.033674 137.800908 
L 220.013275 137.810564 
L 219.992876 137.766038 
L 219.829684 137.789108 
L 219.727689 137.565938 
L 219.605295 137.515136 
L 219.503299 137.318337 
L 219.462501 137.337655 
L 219.462501 137.228562 
L 219.380905 136.802537 
L 219.360506 136.812172 
L 219.27891 136.823344 
L 219.258511 136.750792 
L 219.176915 136.514982 
L 219.156516 136.524612 
L 219.136117 136.424338 
L 219.07492 136.453223 
L 218.993324 136.106287 
L 218.972925 136.115903 
L 218.952526 136.125521 
L 218.952526 136.015188 
L 218.850531 135.869932 
L 218.789334 135.871123 
L 218.768935 135.797765 
L 218.666939 135.291338 
L 218.544545 135.265496 
L 218.544545 135.237691 
L 218.524146 135.191652 
L 218.44255 135.202186 
L 218.279358 135.167562 
L 218.177363 134.992422 
L 218.014171 134.957482 
L 217.912176 134.753672 
L 217.891777 134.763269 
L 217.891777 134.651194 
L 217.81018 134.324656 
L 217.789781 134.334233 
L 217.708185 134.344442 
L 217.687786 134.269641 
L 217.585791 134.120417 
L 217.279806 134.151391 
L 217.177811 133.916744 
L 217.075816 133.879781 
L 217.157412 133.869735 
L 217.075816 133.851461 
L 217.014618 133.851909 
L 216.97382 133.700985 
L 216.933022 133.691787 
L 216.912623 133.616215 
L 216.851426 133.275312 
L 216.810628 133.29445 
L 216.667835 133.276005 
L 216.667835 133.247499 
L 216.56584 132.952802 
L 216.545441 132.962367 
L 216.545441 132.847985 
L 216.525042 132.857544 
L 216.443446 132.724009 
L 216.423047 132.733566 
L 216.321052 132.69538 
L 216.321052 132.666702 
L 216.219057 132.513561 
L 216.178259 132.532678 
L 216.157859 132.42726 
L 216.076263 132.091107 
L 216.055864 132.100646 
L 215.913071 132.052028 
L 215.851874 131.90731 
L 215.811076 131.926393 
L 215.627485 131.89659 
L 215.52549 131.654472 
L 215.382697 131.605148 
L 215.280701 131.536615 
L 215.178706 131.497079 
L 215.178706 131.467964 
L 215.09711 131.214656 
L 215.076711 131.224197 
L 215.056312 131.14616 
L 214.995115 131.145572 
L 214.89312 131.017866 
L 214.831923 131.017228 
L 214.831923 130.929399 
L 214.791125 130.831277 
L 214.729928 130.859885 
L 214.587135 130.838686 
L 214.587135 130.809336 
L 214.48514 130.592582 
L 214.077159 130.695293 
L 214.077159 130.66582 
L 213.995563 130.527091 
L 213.975164 130.536654 
L 213.954765 130.546218 
L 213.934366 130.437642 
L 213.913967 130.447202 
L 213.832371 130.278422 
L 213.811972 130.287978 
L 213.750775 130.257435 
L 213.791573 130.238322 
L 213.750775 130.19819 
L 213.64878 129.919617 
L 213.526385 129.887737 
L 213.526385 129.858003 
L 213.42439 129.727168 
L 213.240799 129.75352 
L 213.240799 129.693885 
L 213.138804 129.711832 
L 213.138804 129.652142 
L 212.996011 129.59957 
L 212.894016 129.467901 
L 212.832819 129.466641 
L 212.832819 129.376778 
L 212.730823 128.85402 
L 212.608429 128.790773 
L 212.506434 128.597199 
L 212.486035 128.606723 
L 212.486035 128.485948 
L 212.404439 128.312385 
L 212.38404 128.321896 
L 212.343242 128.310657 
L 212.343242 128.219826 
L 212.282045 127.945133 
L 212.241247 127.964121 
L 212.078055 127.918607 
L 211.97606 127.661764 
L 211.833266 127.636773 
L 211.833266 127.606269 
L 211.772069 127.451574 
L 211.731271 127.470557 
L 211.506882 127.452736 
L 211.425286 127.27635 
L 211.404887 127.285849 
L 211.221296 127.310066 
L 211.221296 127.279376 
L 211.119301 126.988842 
L 211.017305 126.943977 
L 210.996906 126.89186 
L 210.91531 126.929867 
L 210.772517 126.903908 
L 210.670522 126.611567 
L 210.588926 126.587673 
L 210.650123 126.559176 
L 210.588926 126.556712 
L 210.588926 126.494771 
L 210.486931 126.542271 
L 210.466532 126.551776 
L 210.466532 126.458779 
L 210.446133 126.46828 
L 210.425734 126.291594 
L 210.344138 126.329573 
L 210.282941 126.358078 
L 210.262542 126.274351 
L 210.160546 126.104037 
L 210.058551 126.058045 
L 209.956556 125.668377 
L 209.752566 125.669322 
L 209.650571 125.591442 
L 209.528177 125.585674 
L 209.528177 125.554295 
L 209.528177 125.52291 
L 209.446581 125.560893 
L 209.426182 125.538991 
L 209.324186 125.555092 
L 209.303787 125.501736 
L 209.283388 125.385427 
L 209.201792 125.391953 
L 209.099797 125.344983 
L 208.997802 125.171713 
L 208.895807 125.124466 
L 208.895807 125.092863 
L 208.793812 125.140389 
L 208.671418 125.165851 
L 208.671418 125.102563 
L 208.569423 125.023463 
L 208.426629 124.99498 
L 208.426629 124.963253 
L 208.345033 125.00135 
L 208.324634 124.979134 
L 208.100245 124.98871 
L 207.99825 124.654325 
L 207.835058 124.634852 
L 207.753462 124.4813 
L 207.733063 124.490828 
L 207.631067 124.442518 
L 207.56987 124.407089 
L 207.529072 124.42616 
L 207.345481 124.415899 
L 207.304683 124.370838 
L 207.243486 124.39949 
L 207.202688 124.418601 
L 207.202688 124.322272 
L 207.141491 124.125884 
L 207.100693 124.144968 
L 206.998698 124.192713 
L 206.978299 124.105661 
L 206.876304 123.927697 
L 206.815107 123.891763 
L 206.855905 123.87268 
L 206.815107 123.859468 
L 206.73351 123.606603 
L 206.713111 123.616132 
L 206.611116 123.566626 
L 206.509121 123.3223 
L 206.386727 123.314466 
L 206.386727 123.281958 
L 206.284732 123.199463 
L 206.243934 123.18596 
L 206.223535 123.130345 
L 206.141939 122.940175 
L 206.12154 122.949692 
L 205.978747 122.918368 
L 205.876751 122.802487 
L 205.591165 122.903235 
L 205.591165 122.837694 
L 205.509569 122.744676 
L 205.48917 122.754219 
L 205.28518 122.751195 
L 205.264781 122.662123 
L 205.183185 122.700343 
L 205.08119 122.682331 
L 205.08119 122.649404 
L 204.979194 122.466472 
L 204.938396 122.452585 
L 204.938396 122.386565 
L 204.836401 122.169885 
L 204.754805 122.174966 
L 204.734406 122.118289 
L 204.65281 121.725203 
L 204.632411 121.734723 
L 204.612012 121.744245 
L 204.612012 121.644535 
L 204.591613 121.654051 
L 204.510017 121.559041 
L 204.489618 121.568557 
L 204.387623 121.549549 
L 204.387623 121.516227 
L 204.285628 121.397075 
L 204.204031 121.36838 
L 204.204031 121.334979 
L 204.122435 121.105515 
L 204.102036 121.115022 
L 204.02044 121.052581 
L 203.918445 120.865331 
L 203.755253 120.840594 
L 203.694056 120.768236 
L 203.653258 120.787254 
L 203.530864 120.777019 
L 203.632859 120.729452 
L 203.530864 120.743338 
L 203.449268 120.410331 
L 203.428869 120.419827 
L 203.40847 120.429326 
L 203.40847 120.36175 
L 203.388071 120.337444 
L 203.286075 119.978595 
L 203.265676 119.920236 
L 203.224878 119.905246 
L 203.122883 119.782787 
L 203.020888 119.728119 
L 202.918893 119.50298 
L 202.816898 119.516188 
L 202.816898 119.447945 
L 202.735302 119.212446 
L 202.714903 119.221895 
L 202.531312 119.204312 
L 202.470114 118.924086 
L 202.429316 118.942974 
L 202.34772 118.912078 
L 202.34772 118.877719 
L 202.245725 118.442963 
L 202.164129 118.446155 
L 202.164129 118.377139 
L 202.102932 118.198122 
L 202.062134 118.216942 
L 201.898942 118.188478 
L 201.817346 118.052926 
L 201.796947 118.062341 
L 201.694952 118.074762 
L 201.674553 118.014779 
L 201.572557 117.818644 
L 201.429764 117.849775 
L 201.429764 117.780147 
L 201.368567 117.494628 
L 201.327769 117.51343 
L 201.225774 117.490617 
L 201.225774 117.455679 
L 201.225774 117.385779 
L 201.123779 117.432801 
L 201.001385 117.419304 
L 201.001385 117.384296 
L 200.89939 117.045632 
L 200.695399 117.034208 
L 200.593404 116.87005 
L 200.26702 116.950133 
L 200.26702 116.914842 
L 200.165025 116.67926 
L 200.042631 116.664966 
L 200.042631 116.629557 
L 199.940635 116.321981 
L 199.920236 116.260341 
L 199.777443 116.290587 
L 199.675448 116.124074 
L 199.655049 116.062216 
L 199.512256 116.092359 
L 199.410261 115.853717 
L 199.308266 115.829169 
L 199.308266 115.793391 
L 199.247069 115.534989 
L 199.206271 115.553745 
L 199.083876 115.502388 
L 199.063477 115.439942 
L 198.981881 115.477479 
L 198.839088 115.50729 
L 198.839088 115.435344 
L 198.757492 115.220787 
L 198.737093 115.23017 
L 198.696295 115.248942 
L 198.696295 115.140727 
L 198.675896 115.150107 
L 198.5943 114.934756 
L 198.573901 114.944125 
L 198.431108 114.937394 
L 198.431108 114.901193 
L 198.349512 114.793779 
L 198.329113 114.803153 
L 198.308714 114.812529 
L 198.308714 114.739999 
L 198.288315 114.713091 
L 198.206718 114.569 
L 198.186319 114.578365 
L 198.084324 114.552488 
L 198.084324 114.516111 
L 198.002728 114.298634 
L 197.982329 114.307989 
L 197.921132 114.263121 
L 197.921132 114.226635 
L 197.839536 114.081451 
L 197.819137 114.090798 
L 197.635546 114.101851 
L 197.635546 114.065255 
L 197.55395 113.919537 
L 197.533551 113.928889 
L 197.390757 113.884337 
L 197.370358 113.820264 
L 197.288762 113.8577 
L 197.064373 113.850471 
L 197.023575 113.758781 
L 196.962378 113.786907 
L 196.799186 113.751376 
L 196.799186 113.714483 
L 196.697191 113.761427 
L 196.635994 113.789619 
L 196.595196 113.697597 
L 196.513599 113.513234 
L 196.4932 113.52262 
L 196.350407 113.47721 
L 196.330008 113.375344 
L 196.248412 113.412903 
L 196.166816 113.413367 
L 196.146417 113.348475 
L 196.044422 113.060593 
L 196.024023 112.99545 
L 195.860831 113.033204 
L 195.840432 112.818593 
L 195.758836 112.85609 
L 195.514047 112.931373 
L 195.493648 112.865912 
L 195.45285 112.809798 
L 195.391653 112.837993 
L 195.106067 112.857229 
L 195.04487 112.772796 
L 195.004072 112.791638 
L 194.759283 112.791953 
L 194.759283 112.641257 
L 194.657288 112.650708 
L 194.636889 112.660144 
L 194.636889 112.546942 
L 194.596091 112.565801 
L 194.494096 112.424023 
L 194.351303 112.376504 
L 194.351303 112.338634 
L 194.249308 112.385802 
L 194.188111 112.33831 
L 194.228909 112.319436 
L 194.188111 112.300387 
L 194.167712 112.233944 
L 194.086116 112.271687 
L 194.00452 112.271485 
L 193.98412 112.204937 
L 193.882125 111.871488 
L 193.861726 111.880908 
L 193.861726 111.766517 
L 193.841327 111.661446 
L 193.759731 111.699074 
L 193.637337 111.640916 
L 193.555741 111.448931 
L 193.535342 111.458335 
L 193.412948 111.399781 
L 193.331352 111.20705 
L 193.310953 111.216448 
L 193.004967 111.242202 
L 193.004967 111.20369 
L 192.902972 111.250811 
L 192.902972 111.212272 
L 192.596987 111.238094 
L 192.596987 111.199466 
L 192.494992 111.246726 
L 192.433795 111.275109 
L 192.413396 111.168541 
L 192.311401 111.09968 
L 192.291002 110.992874 
L 192.127809 111.068536 
L 192.025814 110.921709 
L 191.923819 110.930157 
L 191.90342 110.861824 
L 191.801425 110.519413 
L 191.597435 110.496704 
L 191.49544 110.348348 
L 191.393444 110.278048 
L 191.291449 109.971967 
L 191.27105 109.902761 
L 191.107858 109.938832 
L 191.026262 109.779575 
L 191.005863 109.789001 
L 190.985464 109.79843 
L 190.985464 109.680085 
L 190.985464 109.561653 
L 190.883469 109.608721 
L 190.679479 109.584346 
L 190.577483 109.354135 
L 190.475488 109.282163 
L 190.393892 109.240383 
L 190.373493 109.249803 
L 190.169503 109.224736 
L 190.067508 109.112522 
L 189.985912 109.150261 
L 189.985912 109.030556 
L 189.985912 108.950703 
L 189.883917 108.997835 
L 189.863518 108.927332 
L 189.577931 109.019503 
L 189.516734 108.887592 
L 189.475936 108.906493 
L 189.353542 108.842838 
L 189.292345 108.750679 
L 189.251547 108.769585 
L 189.210749 108.748287 
L 189.210749 108.66783 
L 189.149552 108.494813 
L 189.108754 108.51369 
L 189.067956 108.532578 
L 189.067956 108.411587 
L 189.027158 108.430461 
L 188.925163 107.992498 
L 188.721172 107.965022 
L 188.619177 107.890345 
L 188.496783 107.824936 
L 188.394788 107.74996 
L 188.109202 107.759701 
L 188.027606 107.552397 
L 188.007206 107.561825 
L 187.823615 107.564921 
L 187.742019 107.43881 
L 187.72162 107.448247 
L 187.252443 107.624852 
L 187.252443 107.583746 
L 187.150447 107.425414 
L 186.987255 107.418853 
L 186.905659 107.250433 
L 186.88526 107.259911 
L 186.864861 107.186747 
L 186.824063 107.2057 
L 186.783265 107.141942 
L 186.722068 107.17038 
L 186.579275 107.195403 
L 186.579275 107.153976 
L 186.518078 106.809037 
L 186.47728 106.827966 
L 186.25289 106.849044 
L 186.171294 106.678724 
L 186.150895 106.688199 
L 185.865309 106.737604 
L 185.783713 106.608419 
L 185.763314 106.617916 
L 185.64092 106.63309 
L 185.64092 106.59122 
L 185.538925 106.471102 
L 185.457328 106.509122 
L 185.457328 106.425189 
L 185.41653 106.360203 
L 185.355333 106.388709 
L 185.151343 106.39974 
L 185.090146 106.133378 
L 185.049348 106.152382 
L 185.028949 106.077497 
L 184.988151 106.096498 
L 184.947353 105.904258 
L 184.886156 105.93273 
L 184.865757 105.857614 
L 184.80456 105.886091 
L 184.722964 105.754621 
L 184.702565 105.764111 
L 184.539372 105.797684 
L 184.539372 105.755239 
L 184.457776 105.708311 
L 184.437377 105.717815 
L 184.274185 105.751409 
L 184.274185 105.708864 
L 184.212988 105.48185 
L 184.17219 105.500852 
L 184.151791 105.510357 
L 184.151791 105.42505 
L 184.131392 105.434549 
L 184.029397 105.140201 
L 184.008998 105.14968 
L 184.008998 105.06409 
L 183.947801 104.8354 
L 183.907003 104.854311 
L 183.805008 104.901631 
L 183.805008 104.815775 
L 183.74381 104.586254 
L 183.703012 104.605144 
L 183.641815 104.633497 
L 183.641815 104.547391 
L 183.560219 104.455899 
L 183.53982 104.465343 
L 183.478623 104.450551 
L 183.478623 104.4074 
L 183.478623 104.364239 
L 183.376628 104.411467 
L 183.376628 104.368272 
L 183.254234 104.338523 
L 183.254234 104.252 
L 183.152239 104.299253 
L 183.070643 104.293782 
L 183.070643 104.250452 
L 183.009446 104.148739 
L 182.968648 104.167648 
L 182.825854 104.147038 
L 182.785056 103.948553 
L 182.723859 103.976908 
L 182.601465 103.946557 
L 182.519869 103.809952 
L 182.49947 103.819407 
L 182.377076 103.78882 
L 182.336278 103.676583 
L 182.275081 103.704954 
L 182.132288 103.683649 
L 182.071091 103.624401 
L 182.030292 103.643341 
L 181.989494 103.662292 
L 181.989494 103.574542 
L 181.989494 103.486745 
L 181.887499 103.490135 
L 181.8671 103.499604 
L 181.8671 103.411681 
L 181.805903 103.264035 
L 181.765105 103.28294 
L 181.642711 103.251551 
L 181.561115 103.024527 
L 181.540716 103.033972 
L 181.438721 102.992786 
L 181.438721 102.860028 
L 181.336726 102.862935 
L 181.173533 102.894213 
L 181.173533 102.849852 
L 181.091937 102.576696 
L 181.071538 102.586129 
L 180.887947 102.58208 
L 180.887947 102.537533 
L 180.785952 102.584778 
L 180.643159 102.651027 
L 180.643159 102.561785 
L 180.62276 102.392602 
L 180.541164 102.430411 
L 180.459568 102.378789 
L 180.398371 102.317625 
L 180.357573 102.336542 
L 180.316774 102.35547 
L 180.316774 102.265834 
L 180.235178 102.124187 
L 180.214779 102.133636 
L 180.112784 102.091042 
L 180.010789 101.958344 
L 179.827198 101.953313 
L 179.725203 101.684531 
L 179.643607 101.631841 
L 179.541612 101.497889 
L 179.378419 101.482694 
L 179.317222 101.283886 
L 179.276424 101.302746 
L 178.970439 101.398973 
L 178.970439 101.353408 
L 178.970439 101.307832 
L 178.868444 101.355147 
L 178.603256 101.432792 
L 178.603256 101.3871 
L 178.562458 101.13162 
L 178.501261 101.160037 
L 178.297271 101.163212 
L 178.297271 101.117332 
L 178.195276 101.164803 
L 178.032084 101.194935 
L 178.032084 101.148964 
L 177.950488 101.048983 
L 177.930089 101.058491 
L 177.766896 101.088566 
L 177.766896 101.042465 
L 177.705699 100.840269 
L 177.664901 100.859281 
L 177.379315 100.946385 
L 177.379315 100.900098 
L 177.297719 100.752902 
L 177.27732 100.762428 
L 177.236522 100.735102 
L 177.236522 100.688702 
L 177.154926 100.633935 
L 177.134527 100.64346 
L 176.971335 100.626729 
L 176.889738 100.292109 
L 176.869339 100.301617 
L 176.767344 100.302506 
L 176.767344 100.255805 
L 176.665349 99.788525 
L 176.44096 99.845887 
L 176.44096 99.79893 
L 176.359364 99.554753 
L 176.338965 99.56422 
L 176.23697 99.564491 
L 176.23697 99.517375 
L 176.175773 99.451497 
L 176.134975 99.470438 
L 176.114576 99.385525 
L 175.951383 99.461335 
L 175.951383 99.414078 
L 175.849388 99.46152 
L 175.747393 99.414367 
L 175.665797 99.120494 
L 175.645398 99.129966 
L 175.6046 99.148918 
L 175.584201 99.06341 
L 175.523004 98.996759 
L 175.482206 99.0157 
L 175.319014 98.996336 
L 175.217018 98.853044 
L 175.135422 98.843226 
L 175.135422 98.79547 
L 175.033427 98.603759 
L 174.951831 98.54584 
L 174.931432 98.459448 
L 174.849836 98.497284 
L 174.727442 98.458099 
L 174.645846 98.303705 
L 174.625447 98.313165 
L 174.441856 98.302083 
L 174.380659 98.137603 
L 174.33986 98.156529 
L 174.197067 98.126215 
L 174.176668 98.038981 
L 174.095072 98.076864 
L 174.013476 98.017936 
L 173.93188 97.861894 
L 173.911481 97.87136 
L 173.748289 97.850014 
L 173.748289 97.801408 
L 173.646294 97.848802 
L 173.462702 97.836871 
L 173.360707 97.689291 
L 173.29951 97.620099 
L 173.217914 97.560292 
L 173.197515 97.56978 
L 173.115919 97.607759 
L 173.115919 97.509868 
L 173.013924 97.410316 
L 172.871131 97.427701 
L 172.871131 97.378608 
L 172.789535 97.318326 
L 172.769136 97.32782 
L 172.748737 97.23896 
L 172.66714 97.276929 
L 172.565145 97.127356 
L 172.299958 97.152152 
L 172.197963 97.051374 
L 172.095968 97.049437 
L 172.095968 96.999905 
L 171.993973 96.74982 
L 171.932776 96.728621 
L 171.932776 96.678924 
L 171.891978 96.598442 
L 171.830781 96.626896 
L 171.687987 96.643573 
L 171.687987 96.593746 
L 171.585992 96.241878 
L 171.463598 96.198638 
L 171.361603 95.945273 
L 171.137214 95.948842 
L 171.035219 95.744537 
L 170.831228 95.738263 
L 170.749632 95.675139 
L 170.729233 95.684603 
L 170.545642 95.668723 
L 170.464046 95.605367 
L 170.443647 95.614846 
L 170.280455 95.589316 
L 170.198859 95.525726 
L 170.17846 95.535217 
L 169.974469 95.528514 
L 169.892873 95.311742 
L 169.872474 95.321232 
L 169.790878 95.257121 
L 169.790878 95.206046 
L 169.688883 95.253506 
L 169.607287 95.189217 
L 169.505292 94.929255 
L 169.036114 95.045017 
L 168.954518 94.825469 
L 168.934119 94.834978 
L 168.791326 94.849988 
L 168.791326 94.798337 
L 168.791326 94.694989 
L 168.689331 94.742551 
L 168.566937 94.696167 
L 168.485341 94.526886 
L 168.464942 94.536398 
L 168.424144 94.50352 
L 168.424144 94.451595 
L 168.383345 94.262699 
L 168.322148 94.291169 
L 168.301749 94.19656 
L 168.220153 94.23452 
L 168.118158 94.125582 
L 167.975365 94.087614 
L 167.893769 93.968718 
L 167.87337 93.97821 
L 167.812173 93.954339 
L 167.812173 93.90196 
L 167.812173 93.797155 
L 167.710178 93.844567 
L 167.66938 93.863552 
L 167.66938 93.758589 
L 167.628582 93.567385 
L 167.567385 93.595783 
L 167.342995 93.594763 
L 167.322596 93.446053 
L 167.241 93.483965 
L 167.016611 93.482715 
L 166.914616 93.318432 
L 166.771823 93.278827 
L 166.669827 93.007416 
L 166.40464 93.024175 
L 166.343443 92.732283 
L 166.302645 92.751218 
L 166.282246 92.760689 
L 166.282246 92.653715 
L 166.241448 92.67264 
L 166.20065 92.58448 
L 166.139453 92.612865 
L 165.915064 92.609816 
L 165.813068 92.49601 
L 165.588679 92.546595 
L 165.56828 92.50221 
L 165.466285 92.225836 
L 165.262295 92.266609 
L 165.241896 92.221966 
L 165.221497 92.123113 
L 165.139901 92.161064 
L 164.752319 92.233246 
L 164.711521 91.925591 
L 164.650324 91.954105 
L 164.568728 91.992166 
L 164.548329 91.892523 
L 164.466733 91.766621 
L 164.446334 91.776123 
L 164.405536 91.795136 
L 164.405536 91.685695 
L 164.364738 91.704691 
L 164.283142 91.578295 
L 164.262743 91.587788 
L 164.160748 91.6353 
L 164.160748 91.525508 
L 164.119949 91.104514 
L 164.058752 91.132856 
L 163.69157 91.193002 
L 163.589575 90.963794 
L 163.528378 90.99222 
L 163.528378 90.881367 
L 163.467181 90.632216 
L 163.426383 90.651096 
L 163.161195 90.662738 
L 163.0592 90.598594 
L 162.834811 90.591169 
L 162.794013 90.442326 
L 162.732816 90.470751 
L 162.528826 90.453532 
L 162.44723 90.323053 
L 162.42683 90.33254 
L 162.406431 90.229583 
L 162.141244 90.353033 
L 162.100446 90.146497 
L 162.039249 90.174986 
L 161.896456 90.241571 
L 161.896456 90.128518 
L 161.81486 89.99676 
L 161.794461 90.006258 
L 161.774062 90.01576 
L 161.774062 89.902427 
L 161.692466 89.656585 
L 161.672067 89.666048 
L 161.631269 89.684982 
L 161.631269 89.571277 
L 161.61087 89.580734 
L 161.529273 89.219754 
L 161.508874 89.229171 
L 161.488475 89.238591 
L 161.488475 89.124436 
L 161.468076 89.133844 
L 161.366081 88.9522 
L 161.223288 88.960741 
L 161.202889 88.912838 
L 161.202889 88.855507 
L 161.100894 88.902515 
L 161.060096 88.806509 
L 160.937702 88.862965 
L 160.835707 88.506966 
L 160.794909 88.410342 
L 160.733712 88.438461 
L 160.733712 88.380714 
L 160.631716 88.427601 
L 160.529721 88.416719 
L 160.611317 88.379173 
L 160.529721 88.358853 
L 160.529721 88.300968 
L 160.427726 88.34789 
L 160.264534 88.365118 
L 160.264534 88.307087 
L 160.264534 88.132879 
L 160.162539 88.179802 
L 159.672962 88.28942 
L 159.632164 88.191505 
L 159.570967 88.219845 
L 159.530169 88.121766 
L 159.387376 88.187935 
L 159.285381 87.941975 
L 159.264982 87.892683 
L 159.040593 87.937796 
L 158.958996 87.739949 
L 158.938597 87.74939 
L 158.387824 87.887061 
L 158.387824 87.827804 
L 158.285829 87.875367 
L 158.224632 87.903944 
L 158.183834 87.804266 
L 158.122636 87.595002 
L 158.081838 87.613999 
L 157.877848 87.649568 
L 157.877848 87.589933 
L 157.83705 87.429895 
L 157.775853 87.458404 
L 157.469868 87.541501 
L 157.449469 87.491131 
L 157.347474 87.418898 
L 157.327075 87.428442 
L 157.306675 87.31788 
L 157.20468 87.245298 
L 157.061887 87.191604 
L 156.959892 86.877094 
L 156.817099 86.883163 
L 156.817099 86.822634 
L 156.715104 86.688351 
L 156.674306 86.585973 
L 156.613109 86.614438 
L 156.613109 86.553692 
L 156.511114 86.601156 
L 156.347921 86.616386 
L 156.327522 86.564992 
L 156.327522 86.504056 
L 156.225527 86.551618 
L 155.980739 86.543863 
L 155.980739 86.482709 
L 155.878744 86.530419 
L 155.858345 86.478741 
L 155.695153 86.493882 
L 155.695153 86.432535 
L 155.593157 86.480344 
L 155.552359 86.499492 
L 155.53196 86.447629 
L 155.429965 86.310933 
L 155.225975 86.345042 
L 155.205576 86.107702 
L 155.12398 86.145936 
L 155.021985 86.131935 
L 154.91999 85.931955 
L 154.879192 85.951067 
L 154.858793 85.898573 
L 154.858793 85.650128 
L 154.756797 85.697751 
L 154.715999 85.716824 
L 154.715999 85.654592 
L 154.6956 85.352579 
L 154.614004 85.390553 
L 154.450812 85.404174 
L 154.348817 85.138783 
L 154.328418 85.148272 
L 154.328418 85.08559 
L 154.226423 85.007511 
L 153.818442 85.13479 
L 153.716447 84.93014 
L 153.430861 85.000423 
L 153.430861 84.93711 
L 153.328866 84.984882 
L 153.288068 85.004015 
L 153.267669 84.950172 
L 153.165674 84.489498 
L 153.145275 84.499002 
L 153.145275 84.435321 
L 153.145275 84.371616 
L 153.043279 84.419089 
L 152.880087 84.43137 
L 152.798491 84.341619 
L 152.778092 84.351136 
L 152.472107 84.430183 
L 152.41091 84.330498 
L 152.370112 84.349608 
L 152.20692 84.361862 
L 152.20692 84.29751 
L 152.104924 84.345388 
L 152.064126 84.364563 
L 152.064126 84.300117 
L 152.064126 84.235646 
L 151.962131 84.283546 
L 151.921333 84.302731 
L 151.921333 84.238166 
L 151.880535 84.063444 
L 151.819338 84.092147 
L 151.717343 84.140056 
L 151.717343 84.075293 
L 151.635747 83.919087 
L 151.615348 83.928652 
L 151.452156 84.005306 
L 151.452156 83.940313 
L 151.452156 83.810255 
L 151.350161 83.858124 
L 151.329761 83.867709 
L 151.329761 83.802582 
L 151.309362 83.812159 
L 151.268564 83.439864 
L 151.207367 83.468453 
L 151.186968 83.47799 
L 151.186968 83.412619 
L 151.166569 83.422149 
L 151.125771 83.244868 
L 151.064574 83.273406 
L 150.982978 83.245935 
L 150.901382 82.889843 
L 150.880983 82.899318 
L 150.860584 82.842988 
L 150.758589 82.890381 
L 150.73819 82.702104 
L 150.656594 82.73997 
L 150.636195 82.68342 
L 150.5342 82.730797 
L 150.493401 82.617499 
L 150.432204 82.645925 
L 150.248613 82.665094 
L 150.167017 82.30453 
L 150.146618 82.313984 
L 150.003825 82.313652 
L 149.963027 82.132558 
L 149.90183 82.160907 
L 149.616243 82.226716 
L 149.616243 82.159774 
L 149.514248 82.207239 
L 149.289859 82.244836 
L 149.228662 82.139015 
L 149.187864 82.158062 
L 149.167465 82.167591 
L 149.167465 82.100304 
L 149.106268 81.994162 
L 149.06547 82.013186 
L 148.963475 81.993335 
L 148.86148 81.770611 
L 148.841081 81.712437 
L 148.800283 81.731423 
L 148.739085 81.488754 
L 148.698287 81.507686 
L 148.514696 81.525078 
L 148.453499 81.34936 
L 148.412701 81.368304 
L 148.392302 81.309626 
L 148.310706 81.347527 
L 148.208711 81.121687 
L 148.188312 81.062742 
L 147.984322 81.157402 
L 147.882326 80.930304 
L 147.698735 81.015565 
L 147.698735 80.946752 
L 147.637538 80.630565 
L 147.59674 80.649435 
L 147.576341 80.658876 
L 147.576341 80.589832 
L 147.494745 80.350953 
L 147.474346 80.360353 
L 147.433548 80.379166 
L 147.413149 80.319305 
L 147.372351 80.060658 
L 147.311154 80.088761 
L 147.147962 80.094302 
L 147.086765 79.983212 
L 147.045966 80.001976 
L 146.841976 80.096018 
L 146.821577 80.035607 
L 146.821577 79.965744 
L 146.719582 80.012803 
L 146.413597 80.084411 
L 146.3524 79.831878 
L 146.311602 79.850742 
L 146.066813 79.893767 
L 145.985217 79.719929 
L 145.964818 79.729378 
L 145.944419 79.668169 
L 145.801626 79.73436 
L 145.699631 79.285296 
L 145.597636 79.261254 
L 145.51604 78.87143 
L 145.495641 78.880781 
L 145.352847 78.874894 
L 145.29165 78.545149 
L 145.250852 78.563786 
L 145.230453 78.501414 
L 145.026463 78.59474 
L 145.026463 78.522888 
L 144.924468 78.56963 
L 144.720478 78.591327 
L 144.700079 78.456455 
L 144.618483 78.493931 
L 144.475689 78.487348 
L 144.434891 78.288944 
L 144.373694 78.31704 
L 144.169704 78.33832 
L 144.128906 78.138991 
L 144.067709 78.167104 
L 144.026911 78.185866 
L 144.006512 78.122405 
L 143.924916 77.86804 
L 143.904517 77.877381 
L 143.761724 77.869718 
L 143.680128 77.614045 
L 143.659728 77.623366 
L 143.41494 77.661988 
L 143.353743 77.395491 
L 143.312945 77.414127 
L 143.272147 77.432779 
L 143.272147 77.359004 
L 143.21095 77.239247 
L 143.170152 77.257858 
L 143.00696 77.258411 
L 142.945763 77.063977 
L 142.904965 77.08258 
L 142.700974 77.10146 
L 142.639777 76.75696 
L 142.598979 76.775516 
L 142.456186 76.840586 
L 142.435787 76.775165 
L 142.354191 76.512931 
L 142.333792 76.522193 
L 142.313393 76.531459 
L 142.313393 76.456487 
L 142.292994 76.465743 
L 142.190999 76.286728 
L 141.96661 76.388557 
L 141.96661 76.313223 
L 141.96661 76.237857 
L 141.864614 76.28416 
L 141.762619 76.330561 
L 141.74222 76.264301 
L 141.721821 76.122356 
L 141.640225 76.159411 
L 141.53823 76.205817 
L 141.53823 76.130029 
L 141.517831 75.987606 
L 141.436235 76.024648 
L 141.293442 76.013569 
L 141.191447 75.831454 
L 141.10985 75.792208 
L 141.10985 75.715862 
L 141.007855 75.762142 
L 140.885461 75.741272 
L 140.783466 75.480935 
L 140.640673 75.468819 
L 140.640673 75.314972 
L 140.538678 75.361129 
L 140.436683 75.330266 
L 140.436683 75.253113 
L 140.334688 75.299323 
L 140.049101 75.429242 
L 140.028702 75.361073 
L 139.967505 75.078551 
L 139.926707 75.097059 
L 139.763515 75.093413 
L 139.702318 74.887398 
L 139.66152 74.905892 
L 139.620722 74.924401 
L 139.620722 74.84632 
L 139.559525 74.717716 
L 139.518727 74.736176 
L 139.335135 74.819446 
L 139.335135 74.741052 
L 139.23314 74.473156 
L 139.192342 74.491594 
L 139.171943 74.422132 
L 139.171943 74.185863 
L 139.069948 74.231743 
L 138.82516 74.263181 
L 138.723165 74.07163 
L 138.315184 74.176699 
L 138.233588 73.814859 
L 138.213189 73.824058 
L 138.172391 73.84247 
L 138.151992 73.771731 
L 138.151992 73.691744 
L 138.049997 73.737707 
L 138.029598 73.666795 
L 137.9888 73.685186 
L 137.9888 73.605002 
L 137.886805 73.650971 
L 137.78481 73.697043 
L 137.764411 73.625875 
L 137.764411 73.545444 
L 137.662415 73.591481 
L 137.315632 73.667959 
L 137.254435 73.533951 
L 137.213637 73.552464 
L 136.764858 73.675847 
L 136.764858 73.594445 
L 136.662863 73.6411 
L 136.458873 73.734728 
L 136.458873 73.653043 
L 136.356878 73.53629 
L 136.336479 73.545648 
L 136.336479 73.463754 
L 136.31608 73.473099 
L 136.214085 73.355793 
L 135.928498 73.404579 
L 135.826503 72.708025 
L 135.602114 72.727042 
L 135.500119 72.440821 
L 135.296129 72.449928 
L 135.234932 72.059711 
L 135.194134 72.07809 
L 135.132936 72.10569 
L 135.132936 72.021885 
L 135.092138 71.78852 
L 135.030941 71.815976 
L 134.806552 71.832738 
L 134.765754 71.598063 
L 134.704557 71.625514 
L 134.602562 71.671351 
L 134.602562 71.586779 
L 134.602562 71.502167 
L 134.500567 71.547934 
L 134.357774 71.527326 
L 134.357774 71.442422 
L 134.255778 71.48827 
L 134.194581 71.515831 
L 134.194581 71.430744 
L 134.194581 71.345618 
L 134.092586 71.39146 
L 134.072187 71.400642 
L 134.072187 71.315368 
L 134.051788 71.324536 
L 133.990591 70.924734 
L 133.949793 70.942928 
L 133.868197 70.979369 
L 133.868197 70.893673 
L 133.827399 70.740297 
L 133.766202 70.767535 
L 133.501015 70.79987 
L 133.460217 70.645639 
L 133.399019 70.672946 
L 133.317423 70.622981 
L 133.256226 70.477222 
L 133.215428 70.495398 
L 133.113433 70.454172 
L 133.093034 70.202737 
L 133.011438 70.238948 
L 132.827847 70.320678 
L 132.827847 70.233507 
L 132.807448 70.068087 
L 132.725852 70.104317 
L 132.54226 70.09853 
L 132.440265 69.705109 
L 132.277073 69.689295 
L 132.215876 69.363499 
L 132.175078 69.381439 
L 131.93029 69.489446 
L 131.93029 69.400842 
L 131.93029 69.312196 
L 131.828295 69.357191 
L 131.807896 69.277397 
L 131.583506 69.376607 
L 131.50191 69.234487 
L 131.481511 69.243511 
L 131.277521 69.244549 
L 131.277521 69.155058 
L 131.175526 69.200269 
L 131.155127 69.119671 
L 131.09393 69.146805 
L 131.053132 68.805462 
L 130.991935 68.832424 
L 130.828742 68.814323 
L 130.726747 68.588271 
L 130.66555 68.615204 
L 130.66555 68.524669 
L 130.66555 68.434089 
L 130.563555 68.478865 
L 130.420762 68.45087 
L 130.420762 68.359956 
L 130.318767 68.404796 
L 129.727195 68.575431 
L 129.686397 68.226353 
L 129.6252 68.253421 
L 129.502806 68.215558 
L 129.502806 68.123391 
L 129.400811 68.168522 
L 128.890835 68.303048 
L 128.890835 68.210153 
L 128.78884 68.255762 
L 128.299263 68.382746 
L 128.299263 68.289133 
L 128.197268 68.335207 
L 127.95248 68.352236 
L 127.932081 68.17325 
L 127.850485 68.210179 
L 127.442504 68.301248 
L 127.442504 68.206472 
L 127.340509 68.253001 
L 127.32011 68.167362 
L 127.279312 68.185973 
L 127.177317 67.946943 
L 126.973327 67.944318 
L 126.891731 67.502637 
L 126.871332 67.511839 
L 126.565346 67.650446 
L 126.565346 67.554151 
L 126.463351 67.31095 
L 126.177765 67.343423 
L 126.177765 66.955164 
L 126.07577 67.001032 
L 125.892179 66.98638 
L 125.892179 66.888807 
L 125.790184 66.934782 
L 124.851828 67.264736 
L 124.831429 66.977234 
L 124.749833 67.014657 
L 124.362252 67.19353 
L 124.362252 67.093889 
L 124.260257 66.641512 
L 124.076666 66.625473 
L 123.995069 66.361392 
L 123.97467 66.370702 
L 123.811478 66.445367 
L 123.811478 66.344508 
L 123.750281 66.17048 
L 123.709483 66.189077 
L 123.689084 66.097206 
L 123.648286 66.115783 
L 123.56669 65.747121 
L 123.546291 65.756336 
L 123.423897 65.709944 
L 123.383099 65.524551 
L 123.321902 65.552118 
L 123.036315 65.578924 
L 122.93432 65.419872 
L 122.485542 65.520554 
L 122.424345 65.237918 
L 122.383547 65.256409 
L 121.975566 65.338241 
L 121.975566 65.233953 
L 121.873571 65.280529 
L 121.649182 65.278683 
L 121.608384 65.087567 
L 121.547187 65.115538 
L 121.098408 65.216436 
L 121.037211 64.927016 
L 120.996413 64.945738 
L 120.64963 64.99919 
L 120.608831 64.80465 
L 120.547634 64.83283 
L 120.22125 64.876615 
L 120.180452 64.572989 
L 120.119255 64.601171 
L 119.894866 64.704931 
L 119.874467 64.60632 
L 119.874467 64.498179 
L 119.772471 64.545302 
L 119.731673 64.56419 
L 119.731673 64.455783 
L 119.711274 64.465207 
L 119.629678 64.285658 
L 119.609279 64.295051 
L 119.568481 64.313852 
L 119.568481 64.20502 
L 119.548082 64.2144 
L 119.446087 63.933971 
L 119.425688 63.943295 
L 119.425688 63.833999 
L 119.38489 63.852606 
L 119.38489 63.743186 
L 119.282895 63.789651 
L 119.262496 63.79896 
L 119.262496 63.689298 
L 119.221698 63.707873 
L 119.221698 63.598086 
L 119.119703 63.644473 
L 118.874914 63.756367 
L 118.834116 63.66467 
L 118.732121 63.379314 
L 118.487333 63.491025 
L 118.466934 63.389134 
L 118.466934 63.166461 
L 118.364939 63.212813 
L 118.160949 63.194036 
L 118.14055 62.979282 
L 118.058953 63.016339 
L 117.834564 63.006106 
L 117.834564 62.893434 
L 117.732569 62.939878 
L 117.202194 63.069962 
L 117.181795 62.851661 
L 117.100199 62.889154 
L 116.549426 63.029693 
L 116.46783 62.606647 
L 116.447431 62.616052 
L 116.365834 62.65373 
L 116.345435 62.547504 
L 116.284238 62.344004 
L 116.24344 62.362726 
L 116.121046 62.419033 
L 116.100647 62.31216 
L 116.019051 61.766545 
L 115.998652 61.775778 
L 115.305085 61.975124 
L 115.284686 61.748138 
L 115.20309 61.785538 
L 115.162292 61.685758 
L 114.917504 61.798258 
L 114.917504 61.560158 
L 114.815509 61.606937 
L 114.774711 61.50628 
L 114.652316 61.562473 
L 114.591119 61.230997 
L 114.550321 61.249599 
L 114.142341 61.316117 
L 114.040346 61.120894 
L 113.591567 61.20602 
L 113.571168 60.971048 
L 113.489572 61.00862 
L 113.428375 61.036863 
L 113.32638 60.83842 
L 113.285582 60.857193 
L 113.285582 60.734177 
L 113.183587 60.781029 
L 113.020395 60.856315 
L 113.020395 60.732728 
L 112.918399 60.779795 
L 112.836803 60.817562 
L 112.836803 60.69355 
L 112.734808 60.740709 
L 112.673611 60.76908 
L 112.592015 60.433085 
L 112.571616 60.442464 
L 112.530818 60.461242 
L 112.510419 59.970302 
L 112.428823 60.007337 
L 112.367626 60.035178 
L 112.367626 59.909611 
L 112.265631 59.955942 
L 112.245232 59.965227 
L 112.184035 59.614849 
L 112.143237 59.633238 
L 112.041241 59.679321 
L 111.980044 59.326817 
L 111.939246 59.345092 
L 111.85765 59.381717 
L 111.85765 59.254562 
L 111.755655 59.300283 
L 111.531266 59.401419 
L 111.44967 59.182197 
L 111.429271 59.191373 
L 111.306877 59.24656 
L 111.306877 59.118048 
L 111.204881 59.164006 
L 111.123285 59.200886 
L 111.123285 59.071916 
L 111.02129 59.117953 
L 110.898896 59.173407 
L 110.796901 58.960258 
L 110.40932 59.136412 
L 110.40932 59.005708 
L 110.307324 59.052241 
L 110.205329 59.098937 
L 110.205329 58.967716 
L 110.103334 59.014362 
L 109.878945 59.117562 
L 109.858546 58.862802 
L 109.77695 58.900208 
L 109.674955 58.947114 
L 109.674955 58.814492 
L 109.57296 58.861346 
L 109.511762 58.889539 
L 109.491363 58.632633 
L 109.409767 58.669991 
L 109.226176 58.754437 
L 109.226176 58.620561 
L 109.124181 58.667487 
L 109.022186 58.714582 
L 109.022186 58.580164 
L 108.920191 58.627203 
L 108.369417 58.884164 
L 108.369417 58.748197 
L 108.267422 58.796107 
L 108.226624 58.815319 
L 108.226624 58.678931 
L 108.124629 58.726854 
L 107.941038 58.813557 
L 107.941038 58.67642 
L 107.839042 58.724601 
L 107.635052 58.821497 
L 107.533057 58.593753 
L 107.227072 58.739554 
L 107.206673 58.331581 
L 107.125077 58.370187 
L 106.43151 58.703036 
L 106.370313 58.308101 
L 106.329515 58.327693 
L 106.309116 58.3375 
L 106.268318 58.072957 
L 106.207121 58.102167 
L 105.941933 58.229511 
L 105.901135 57.962785 
L 105.839938 57.992091 
L 105.554352 58.129746 
L 105.533953 57.850918 
L 105.452357 57.890136 
L 105.431958 57.899959 
L 105.329963 57.368335 
L 105.187169 57.43611 
L 105.16677 57.153876 
L 105.085174 57.192376 
L 104.75879 57.347583 
L 104.75879 57.053045 
L 104.656795 57.101407 
L 104.33041 57.257448 
L 104.248814 56.700845 
L 104.228415 56.710474 
L 104.044824 56.797476 
L 103.963228 56.385823 
L 103.942829 56.395391 
L 103.840834 56.443347 
L 103.840834 56.292596 
L 103.738839 56.340461 
L 103.636844 56.388519 
L 103.636844 56.085519 
L 103.534848 56.133199 
L 102.861681 56.452765 
L 102.861681 56.29888 
L 102.759686 56.347756 
L 102.596493 56.426376 
L 102.596493 56.116688 
L 102.494498 56.165491 
L 102.474099 56.175276 
L 102.4537 55.874032 
L 102.372104 55.912804 
L 102.147715 56.020087 
L 102.066119 55.588362 
L 102.04572 55.598012 
L 101.882528 55.675506 
L 101.780532 55.407832 
L 101.270557 55.651269 
L 101.270557 55.491311 
L 101.168562 55.5403 
L 101.086966 55.57964 
L 101.046168 55.27763 
L 100.98497 55.306888 
L 100.882975 55.355817 
L 100.882975 55.194229 
L 100.78098 55.243043 
L 100.373 55.440407 
L 100.352601 55.123356 
L 100.271005 55.162741 
L 100.087413 55.251859 
L 100.087413 55.087272 
L 99.985418 55.136747 
L 99.965019 55.146668 
L 99.863024 54.699542 
L 99.842625 54.709311 
L 99.801827 54.396496 
L 99.74063 54.425492 
L 99.679433 54.454565 
L 99.679433 54.287744 
L 99.577438 54.336023 
L 99.495842 54.374799 
L 99.495842 54.207205 
L 99.393847 54.25552 
L 98.985866 54.450937 
L 98.985866 54.281428 
L 98.883871 54.330472 
L 98.761477 54.389615 
L 98.761477 54.219164 
L 98.659482 54.268333 
L 98.414693 54.387246 
L 98.414693 54.043405 
L 98.312698 54.092599 
L 98.251501 54.122223 
L 98.169905 53.642244 
L 98.149506 53.651948 
L 97.86392 53.788755 
L 97.802723 53.468388 
L 97.761925 53.487826 
L 97.517136 53.605208 
L 97.43554 53.291298 
L 97.415141 53.30102 
L 96.966363 53.517223 
L 96.945964 53.169393 
L 96.864368 53.208584 
L 96.619579 53.32705 
L 96.619579 53.14663 
L 96.517584 53.195984 
L 96.354392 53.275441 
L 96.354392 52.911964 
L 96.252397 52.961111 
L 96.1912 52.990712 
L 96.1912 52.808051 
L 96.089205 52.857161 
L 96.028008 52.88674 
L 96.028008 52.519557 
L 95.926013 52.568206 
L 95.864815 52.597509 
L 95.864815 52.412977 
L 95.76282 52.46158 
L 95.742421 52.471329 
L 95.742421 52.100705 
L 95.640426 52.148737 
L 95.55883 52.187331 
L 95.55883 51.814436 
L 95.456835 51.862025 
L 95.171249 51.996524 
L 95.110052 51.648104 
L 95.069254 51.667173 
L 94.844864 51.77273 
L 94.844864 51.582546 
L 94.742869 51.630459 
L 94.72247 51.640071 
L 94.72247 51.449155 
L 94.620475 51.496901 
L 94.51848 51.544888 
L 94.51848 51.160655 
L 94.416485 51.207964 
L 94.171696 51.322483 
L 94.069701 50.981507 
L 94.008504 51.009936 
L 94.008504 50.814802 
L 93.906509 50.861904 
L 93.539327 51.033483 
L 93.539327 50.835942 
L 93.437332 50.883683 
L 93.233341 50.979912 
L 93.233341 50.780697 
L 93.131346 50.828694 
L 93.090548 50.847962 
L 93.070149 50.256331 
L 92.988553 50.293829 
L 92.804962 50.378777 
L 92.804962 50.176617 
L 92.702967 50.22365 
L 92.458178 50.337551 
L 92.41738 49.947801 
L 92.356183 49.975941 
L 92.274587 50.013601 
L 92.172592 49.442165 
L 92.111395 49.469715 
L 92.111395 49.262705 
L 92.0094 49.308285 
L 91.825809 49.390953 
L 91.825809 49.182213 
L 91.723814 49.227946 
L 91.560621 49.30164 
L 91.560621 49.091251 
L 91.458626 49.137086 
L 91.111843 49.294825 
L 91.091444 48.87758 
L 91.009848 48.914262 
L 90.928252 48.951108 
L 90.928252 48.736531 
L 90.826257 48.782246 
L 90.561069 48.90231 
L 90.561069 48.685406 
L 90.459074 48.731468 
L 89.765507 49.051729 
L 89.765507 48.829906 
L 89.663512 48.877451 
L 89.418724 48.992691 
L 89.418724 48.768505 
L 89.316729 48.816371 
L 88.908748 49.01067 
L 88.908748 48.783043 
L 88.806753 48.831692 
L 88.561965 48.949636 
L 88.45997 48.30612 
L 87.909196 48.5685 
L 87.807201 47.672454 
L 86.522062 48.287331 
L 86.481264 47.814178 
L 86.420067 47.843862 
L 86.379269 47.863715 
L 86.379269 47.615735 
L 86.277274 47.664824 
L 85.808097 47.894775 
L 85.706102 47.438411 
L 85.685703 47.448313 
L 85.665303 46.948974 
L 85.583707 46.987468 
L 85.400116 47.074829 
L 85.400116 46.817574 
L 85.298121 46.865735 
L 85.11453 46.953241 
L 85.11453 46.693309 
L 85.012535 46.741538 
L 84.930939 46.780357 
L 84.930939 46.518547 
L 84.828944 46.566511 
L 84.563756 46.692754 
L 84.563756 46.427473 
L 84.461761 46.47575 
L 84.176175 46.612711 
L 84.176175 46.343685 
L 84.07418 46.392344 
L 83.910987 46.470908 
L 83.910987 46.199137 
L 83.808992 46.247766 
L 82.952233 46.670195 
L 82.952233 46.389089 
L 82.850238 46.440114 
L 82.666647 46.532902 
L 82.666647 46.248597 
L 82.564652 46.299668 
L 82.319864 46.423789 
L 82.319864 46.135592 
L 82.217868 46.186928 
L 82.156671 46.217914 
L 82.054676 45.394504 
L 82.034277 45.404305 
L 82.034277 45.111424 
L 81.932282 45.15958 
L 81.381508 45.426061 
L 81.361109 44.834538 
L 81.279513 44.87322 
L 81.055124 44.980848 
L 81.055124 44.67591 
L 80.953129 44.724286 
L 80.647144 44.871728 
L 80.647144 44.561592 
L 80.545148 44.610323 
L 80.055572 44.849778 
L 80.055572 44.532017 
L 79.953577 44.581827 
L 79.688389 44.71327 
L 79.688389 44.39038 
L 79.586394 44.440389 
L 79.076419 44.696826 
L 79.05602 44.043323 
L 78.974424 44.083238 
L 78.586842 44.276632 
L 78.586842 43.937316 
L 78.484847 43.987838 
L 78.260458 44.100558 
L 78.260458 43.755981 
L 78.158463 43.806461 
L 78.01567 43.87789 
L 78.01567 43.529104 
L 77.913674 43.579153 
L 77.036516 44.028905 
L 77.036516 43.664257 
L 76.934521 43.717249 
L 76.628536 43.87926 
L 76.628536 43.507155 
L 76.526541 43.560462 
L 76.383748 43.635956 
L 76.383748 43.258938 
L 76.281752 43.311712 
L 74.160254 44.538753 
L 74.139855 44.551892 
L 74.139855 44.130526 
L 74.03786 44.194428 
L 73.874668 44.298132 
L 73.874668 43.44092 
L 73.772673 43.502065 
L 72.977111 44.003284 
L 72.977111 43.551988 
L 72.875115 43.616987 
L 72.528332 43.843765 
L 72.528332 43.379921 
L 72.426337 43.445681 
L 71.651174 43.972415 
L 71.651174 43.483093 
L 71.549179 43.553163 
L 71.283992 43.739558 
L 71.283992 43.237971 
L 71.181997 43.308177 
L 70.631223 43.703575 
L 70.631223 43.179692 
L 70.529228 43.252639 
L 70.325238 43.401535 
L 70.325238 42.865724 
L 70.223242 42.938114 
L 70.121247 43.011512 
L 70.121247 42.466936 
L 70.019252 42.537644 
L 69.835661 42.667453 
L 69.815262 41.565538 
L 69.733666 41.618224 
L 69.386882 41.849066 
L 69.386882 40.692128 
L 69.284887 40.75384 
L 69.162493 40.829116 
L 69.162493 40.238675 
L 69.060498 40.298073 
L 68.224138 40.821333 
L 68.224138 40.185976 
L 68.122143 40.249498 
L 67.55097 40.62529 
L 67.55097 39.952607 
L 67.448975 40.017844 
L 66.367827 40.78561 
L 66.367827 40.037636 
L 66.265832 40.111092 
L 65.87825 40.4036 
L 65.87825 39.617463 
L 65.776255 39.690385 
L 64.491117 40.75384 
L 63.491564 41.822848 
L 63.491564 40.797587 
L 63.389569 40.908986 
L 63.205978 41.117132 
L 63.205978 40.048044 
L 63.103983 40.153706 
L 62.675604 40.631322 
L 62.675604 39.475907 
L 62.573608 39.581545 
L 62.430815 39.73485 
L 62.430815 38.53076 
L 62.32882 38.625987 
L 61.900441 39.060489 
L 61.900441 37.745782 
L 61.798446 37.836421 
L 60.880489 38.815314 
L 60.105327 39.965565 
L 59.432159 41.360679 
L 58.820188 43.16522 
L 58.820188 40.52801 
L 58.718193 40.812271 
L 58.228616 42.509242 
L 58.228616 39.195995 
L 58.126621 39.496785 
L 57.800237 40.667698 
L 57.800237 36.575982 
L 57.698242 36.805535 
L 57.290261 38.047059 
L 56.943478 39.825427 
L 56.637492 42.682082 
L 56.392704 47.252729 
L 56.249911 52.45184 
L 56.249911 32.398125 
L 56.147916 32.398125 
L 55.86233 32.398125 
L 55.86233 32.398125 
" clip-path="url(#p32cf51e8ad)" style="fill: none; stroke: #1f77b4; stroke-width: 1.5; stroke-linecap: square"/>
   </g>
   <g id="patch_3">
    <path d="M 45.716875 244.078125 
L 45.716875 22.318125 
" style="fill: none; stroke: #000000; stroke-width: 0.8; stroke-linejoin: miter; stroke-linecap: square"/>
   </g>
   <g id="patch_4">
    <path d="M 268.916875 244.078125 
L 268.916875 22.318125 
" style="fill: none; stroke: #000000; stroke-width: 0.8; stroke-linejoin: miter; stroke-linecap: square"/>
   </g>
   <g id="patch_5">
    <path d="M 45.716875 244.078125 
L 268.916875 244.078125 
" style="fill: none; stroke: #000000; stroke-width: 0.8; stroke-linejoin: miter; stroke-linecap: square"/>
   </g>
   <g id="patch_6">
    <path d="M 45.716875 22.318125 
L 268.916875 22.318125 
" style="fill: none; stroke: #000000; stroke-width: 0.8; stroke-linejoin: miter; stroke-linecap: square"/>
   </g>
   <g id="text_15">
    <!-- PR Curve: Logistic Regression -->
    <g transform="translate(68.441875 16.318125) scale(0.12 -0.12)">
     <defs>
      <path id="DejaVuSans-20" transform="scale(0.015625)"/>
      <path id="DejaVuSans-43" d="M 4122 4306 
L 4122 3641 
Q 3803 3938 3442 4084 
Q 3081 4231 2675 4231 
Q 1875 4231 1450 3742 
Q 1025 3253 1025 2328 
Q 1025 1406 1450 917 
Q 1875 428 2675 428 
Q 3081 428 3442 575 
Q 3803 722 4122 1019 
L 4122 359 
Q 3791 134 3420 21 
Q 3050 -91 2638 -91 
Q 1578 -91 968 557 
Q 359 1206 359 2328 
Q 359 3453 968 4101 
Q 1578 4750 2638 4750 
Q 3056 4750 3426 4639 
Q 3797 4528 4122 4306 
z
" transform="scale(0.015625)"/>
      <path id="DejaVuSans-75" d="M 544 1381 
L 544 3500 
L 1119 3500 
L 1119 1403 
Q 1119 906 1312 657 
Q 1506 409 1894 409 
Q 2359 409 2629 706 
Q 2900 1003 2900 1516 
L 2900 3500 
L 3475 3500 
L 3475 0 
L 2900 0 
L 2900 538 
Q 2691 219 2414 64 
Q 2138 -91 1772 -91 
Q 1169 -91 856 284 
Q 544 659 544 1381 
z
M 1991 3584 
L 1991 3584 
z
" transform="scale(0.015625)"/>
      <path id="DejaVuSans-76" d="M 191 3500 
L 800 3500 
L 1894 563 
L 2988 3500 
L 3597 3500 
L 2284 0 
L 1503 0 
L 191 3500 
z
" transform="scale(0.015625)"/>
      <path id="DejaVuSans-3a" d="M 750 794 
L 1409 794 
L 1409 0 
L 750 0 
L 750 794 
z
M 750 3309 
L 1409 3309 
L 1409 2516 
L 750 2516 
L 750 3309 
z
" transform="scale(0.015625)"/>
      <path id="DejaVuSans-4c" d="M 628 4666 
L 1259 4666 
L 1259 531 
L 3531 531 
L 3531 0 
L 628 0 
L 628 4666 
z
" transform="scale(0.015625)"/>
      <path id="DejaVuSans-67" d="M 2906 1791 
Q 2906 2416 2648 2759 
Q 2391 3103 1925 3103 
Q 1463 3103 1205 2759 
Q 947 2416 947 1791 
Q 947 1169 1205 825 
Q 1463 481 1925 481 
Q 2391 481 2648 825 
Q 2906 1169 2906 1791 
z
M 3481 434 
Q 3481 -459 3084 -895 
Q 2688 -1331 1869 -1331 
Q 1566 -1331 1297 -1286 
Q 1028 -1241 775 -1147 
L 775 -588 
Q 1028 -725 1275 -790 
Q 1522 -856 1778 -856 
Q 2344 -856 2625 -561 
Q 2906 -266 2906 331 
L 2906 616 
Q 2728 306 2450 153 
Q 2172 0 1784 0 
Q 1141 0 747 490 
Q 353 981 353 1791 
Q 353 2603 747 3093 
Q 1141 3584 1784 3584 
Q 2172 3584 2450 3431 
Q 2728 3278 2906 2969 
L 2906 3500 
L 3481 3500 
L 3481 434 
z
" transform="scale(0.015625)"/>
      <path id="DejaVuSans-74" d="M 1172 4494 
L 1172 3500 
L 2356 3500 
L 2356 3053 
L 1172 3053 
L 1172 1153 
Q 1172 725 1289 603 
Q 1406 481 1766 481 
L 2356 481 
L 2356 0 
L 1766 0 
Q 1100 0 847 248 
Q 594 497 594 1153 
L 594 3053 
L 172 3053 
L 172 3500 
L 594 3500 
L 594 4494 
L 1172 4494 
z
" transform="scale(0.015625)"/>
     </defs>
     <use xlink:href="#DejaVuSans-50"/>
     <use xlink:href="#DejaVuSans-52" x="60.302734"/>
     <use xlink:href="#DejaVuSans-20" x="129.785156"/>
     <use xlink:href="#DejaVuSans-43" x="161.572266"/>
     <use xlink:href="#DejaVuSans-75" x="231.396484"/>
     <use xlink:href="#DejaVuSans-72" x="294.775391"/>
     <use xlink:href="#DejaVuSans-76" x="335.888672"/>
     <use xlink:href="#DejaVuSans-65" x="395.068359"/>
     <use xlink:href="#DejaVuSans-3a" x="456.591797"/>
     <use xlink:href="#DejaVuSans-20" x="490.283203"/>
     <use xlink:href="#DejaVuSans-4c" x="522.070312"/>
     <use xlink:href="#DejaVuSans-6f" x="576.033203"/>
     <use xlink:href="#DejaVuSans-67" x="637.214844"/>
     <use xlink:href="#DejaVuSans-69" x="700.691406"/>
     <use xlink:href="#DejaVuSans-73" x="728.474609"/>
     <use xlink:href="#DejaVuSans-74" x="780.574219"/>
     <use xlink:href="#DejaVuSans-69" x="819.783203"/>
     <use xlink:href="#DejaVuSans-63" x="847.566406"/>
     <use xlink:href="#DejaVuSans-20" x="902.546875"/>
     <use xlink:href="#DejaVuSans-52" x="934.333984"/>
     <use xlink:href="#DejaVuSans-65" x="999.316406"/>
     <use xlink:href="#DejaVuSans-67" x="1060.839844"/>
     <use xlink:href="#DejaVuSans-72" x="1124.316406"/>
     <use xlink:href="#DejaVuSans-65" x="1163.179688"/>
     <use xlink:href="#DejaVuSans-73" x="1224.703125"/>
     <use xlink:href="#DejaVuSans-73" x="1276.802734"/>
     <use xlink:href="#DejaVuSans-69" x="1328.902344"/>
     <use xlink:href="#DejaVuSans-6f" x="1356.685547"/>
     <use xlink:href="#DejaVuSans-6e" x="1417.867188"/>
    </g>
   </g>
   <g id="legend_1">
    <g id="patch_7">
     <path d="M 52.716875 239.078125 
L 197.591875 239.078125 
Q 199.591875 239.078125 199.591875 237.078125 
L 199.591875 223.4 
Q 199.591875 221.4 197.591875 221.4 
L 52.716875 221.4 
Q 50.716875 221.4 50.716875 223.4 
L 50.716875 237.078125 
Q 50.716875 239.078125 52.716875 239.078125 
z
" style="fill: #ffffff; opacity: 0.8; stroke: #cccccc; stroke-linejoin: miter"/>
    </g>
    <g id="line2d_26">
     <path d="M 54.716875 229.498437 
L 64.716875 229.498437 
L 74.716875 229.498437 
" style="fill: none; stroke: #1f77b4; stroke-width: 1.5; stroke-linecap: square"/>
    </g>
    <g id="text_16">
     <!-- PR Curve (AP = 0.842) -->
     <g transform="translate(82.716875 232.998437) scale(0.1 -0.1)">
      <defs>
       <path id="DejaVuSans-28" d="M 1984 4856 
Q 1566 4138 1362 3434 
Q 1159 2731 1159 2009 
Q 1159 1288 1364 580 
Q 1569 -128 1984 -844 
L 1484 -844 
Q 1016 -109 783 600 
Q 550 1309 550 2009 
Q 550 2706 781 3412 
Q 1013 4119 1484 4856 
L 1984 4856 
z
" transform="scale(0.015625)"/>
       <path id="DejaVuSans-41" d="M 2188 4044 
L 1331 1722 
L 3047 1722 
L 2188 4044 
z
M 1831 4666 
L 2547 4666 
L 4325 0 
L 3669 0 
L 3244 1197 
L 1141 1197 
L 716 0 
L 50 0 
L 1831 4666 
z
" transform="scale(0.015625)"/>
       <path id="DejaVuSans-3d" d="M 678 2906 
L 4684 2906 
L 4684 2381 
L 678 2381 
L 678 2906 
z
M 678 1631 
L 4684 1631 
L 4684 1100 
L 678 1100 
L 678 1631 
z
" transform="scale(0.015625)"/>
       <path id="DejaVuSans-29" d="M 513 4856 
L 1013 4856 
Q 1481 4119 1714 3412 
Q 1947 2706 1947 2009 
Q 1947 1309 1714 600 
Q 1481 -109 1013 -844 
L 513 -844 
Q 928 -128 1133 580 
Q 1338 1288 1338 2009 
Q 1338 2731 1133 3434 
Q 928 4138 513 4856 
z
" transform="scale(0.015625)"/>
      </defs>
      <use xlink:href="#DejaVuSans-50"/>
      <use xlink:href="#DejaVuSans-52" x="60.302734"/>
      <use xlink:href="#DejaVuSans-20" x="129.785156"/>
      <use xlink:href="#DejaVuSans-43" x="161.572266"/>
      <use xlink:href="#DejaVuSans-75" x="231.396484"/>
      <use xlink:href="#DejaVuSans-72" x="294.775391"/>
      <use xlink:href="#DejaVuSans-76" x="335.888672"/>
      <use xlink:href="#DejaVuSans-65" x="395.068359"/>
      <use xlink:href="#DejaVuSans-20" x="456.591797"/>
      <use xlink:href="#DejaVuSans-28" x="488.378906"/>
      <use xlink:href="#DejaVuSans-41" x="527.392578"/>
      <use xlink:href="#DejaVuSans-50" x="595.800781"/>
      <use xlink:href="#DejaVuSans-20" x="656.103516"/>
      <use xlink:href="#DejaVuSans-3d" x="687.890625"/>
      <use xlink:href="#DejaVuSans-20" x="771.679688"/>
      <use xlink:href="#DejaVuSans-30" x="803.466797"/>
      <use xlink:href="#DejaVuSans-2e" x="867.089844"/>
      <use xlink:href="#DejaVuSans-38" x="898.876953"/>
      <use xlink:href="#DejaVuSans-34" x="962.5"/>
      <use xlink:href="#DejaVuSans-32" x="1026.123047"/>
      <use xlink:href="#DejaVuSans-29" x="1089.746094"/>
     </g>
    </g>
   </g>
  </g>
 </g>
 <defs>
  <clipPath id="p32cf51e8ad">
   <rect x="45.716875" y="22.318125" width="223.2" height="221.76"/>
  </clipPath>
 </defs>
</svg>
