<?xml version="1.0" encoding="utf-8" standalone="no"?>
<!DOCTYPE svg PUBLIC "-//W3C//DTD SVG 1.1//EN"
  "http://www.w3.org/Graphics/SVG/1.1/DTD/svg11.dtd">
<svg xmlns:xlink="http://www.w3.org/1999/xlink" width="276.116875pt" height="283.57pt" viewBox="0 0 276.116875 283.57" xmlns="http://www.w3.org/2000/svg" version="1.1">
 <metadata>
  <rdf:RDF xmlns:dc="http://purl.org/dc/elements/1.1/" xmlns:cc="http://creativecommons.org/ns#" xmlns:rdf="http://www.w3.org/1999/02/22-rdf-syntax-ns#">
   <cc:Work>
    <dc:type rdf:resource="http://purl.org/dc/dcmitype/StillImage"/>
    <dc:date>2025-02-17T01:05:06.219925</dc:date>
    <dc:format>image/svg+xml</dc:format>
    <dc:creator>
     <cc:Agent>
      <dc:title>Matplotlib v3.5.3, https://matplotlib.org/</dc:title>
     </cc:Agent>
    </dc:creator>
   </cc:Work>
  </rdf:RDF>
 </metadata>
 <defs>
  <style type="text/css">*{stroke-linejoin: round; stroke-linecap: butt}</style>
 </defs>
 <g id="figure_1">
  <g id="patch_1">
   <path d="M 0 283.57 
L 276.116875 283.57 
L 276.116875 0 
L 0 0 
z
" style="fill: #ffffff"/>
  </g>
  <g id="axes_1">
   <g id="patch_2">
    <path d="M 45.716875 244.078125 
L 268.916875 244.078125 
L 268.916875 22.318125 
L 45.716875 22.318125 
z
" style="fill: #ffffff"/>
   </g>
   <g id="matplotlib.axis_1">
    <g id="xtick_1">
     <g id="line2d_1">
      <path d="M 55.86233 244.078125 
L 55.86233 22.318125 
" clip-path="url(#p1650925c7f)" style="fill: none; stroke: #b0b0b0; stroke-width: 0.8; stroke-linecap: square"/>
     </g>
     <g id="line2d_2">
      <defs>
       <path id="ma6194af0d4" d="M 0 0 
L 0 3.5 
" style="stroke: #000000; stroke-width: 0.8"/>
      </defs>
      <g>
       <use xlink:href="#ma6194af0d4" x="55.86233" y="244.078125" style="stroke: #000000; stroke-width: 0.8"/>
      </g>
     </g>
     <g id="text_1">
      <!-- 0.0 -->
      <g transform="translate(47.910767 258.676562)scale(0.1 -0.1)">
       <defs>
        <path id="DejaVuSans-30" d="M 2034 4250 
Q 1547 4250 1301 3770 
Q 1056 3291 1056 2328 
Q 1056 1369 1301 889 
Q 1547 409 2034 409 
Q 2525 409 2770 889 
Q 3016 1369 3016 2328 
Q 3016 3291 2770 3770 
Q 2525 4250 2034 4250 
z
M 2034 4750 
Q 2819 4750 3233 4129 
Q 3647 3509 3647 2328 
Q 3647 1150 3233 529 
Q 2819 -91 2034 -91 
Q 1250 -91 836 529 
Q 422 1150 422 2328 
Q 422 3509 836 4129 
Q 1250 4750 2034 4750 
z
" transform="scale(0.015625)"/>
        <path id="DejaVuSans-2e" d="M 684 794 
L 1344 794 
L 1344 0 
L 684 0 
L 684 794 
z
" transform="scale(0.015625)"/>
       </defs>
       <use xlink:href="#DejaVuSans-30"/>
       <use xlink:href="#DejaVuSans-2e" x="63.623047"/>
       <use xlink:href="#DejaVuSans-30" x="95.410156"/>
      </g>
     </g>
    </g>
    <g id="xtick_2">
     <g id="line2d_3">
      <path d="M 96.444148 244.078125 
L 96.444148 22.318125 
" clip-path="url(#p1650925c7f)" style="fill: none; stroke: #b0b0b0; stroke-width: 0.8; stroke-linecap: square"/>
     </g>
     <g id="line2d_4">
      <g>
       <use xlink:href="#ma6194af0d4" x="96.444148" y="244.078125" style="stroke: #000000; stroke-width: 0.8"/>
      </g>
     </g>
     <g id="text_2">
      <!-- 0.2 -->
      <g transform="translate(88.492585 258.676562)scale(0.1 -0.1)">
       <defs>
        <path id="DejaVuSans-32" d="M 1228 531 
L 3431 531 
L 3431 0 
L 469 0 
L 469 531 
Q 828 903 1448 1529 
Q 2069 2156 2228 2338 
Q 2531 2678 2651 2914 
Q 2772 3150 2772 3378 
Q 2772 3750 2511 3984 
Q 2250 4219 1831 4219 
Q 1534 4219 1204 4116 
Q 875 4013 500 3803 
L 500 4441 
Q 881 4594 1212 4672 
Q 1544 4750 1819 4750 
Q 2544 4750 2975 4387 
Q 3406 4025 3406 3419 
Q 3406 3131 3298 2873 
Q 3191 2616 2906 2266 
Q 2828 2175 2409 1742 
Q 1991 1309 1228 531 
z
" transform="scale(0.015625)"/>
       </defs>
       <use xlink:href="#DejaVuSans-30"/>
       <use xlink:href="#DejaVuSans-2e" x="63.623047"/>
       <use xlink:href="#DejaVuSans-32" x="95.410156"/>
      </g>
     </g>
    </g>
    <g id="xtick_3">
     <g id="line2d_5">
      <path d="M 137.025966 244.078125 
L 137.025966 22.318125 
" clip-path="url(#p1650925c7f)" style="fill: none; stroke: #b0b0b0; stroke-width: 0.8; stroke-linecap: square"/>
     </g>
     <g id="line2d_6">
      <g>
       <use xlink:href="#ma6194af0d4" x="137.025966" y="244.078125" style="stroke: #000000; stroke-width: 0.8"/>
      </g>
     </g>
     <g id="text_3">
      <!-- 0.4 -->
      <g transform="translate(129.074403 258.676562)scale(0.1 -0.1)">
       <defs>
        <path id="DejaVuSans-34" d="M 2419 4116 
L 825 1625 
L 2419 1625 
L 2419 4116 
z
M 2253 4666 
L 3047 4666 
L 3047 1625 
L 3713 1625 
L 3713 1100 
L 3047 1100 
L 3047 0 
L 2419 0 
L 2419 1100 
L 313 1100 
L 313 1709 
L 2253 4666 
z
" transform="scale(0.015625)"/>
       </defs>
       <use xlink:href="#DejaVuSans-30"/>
       <use xlink:href="#DejaVuSans-2e" x="63.623047"/>
       <use xlink:href="#DejaVuSans-34" x="95.410156"/>
      </g>
     </g>
    </g>
    <g id="xtick_4">
     <g id="line2d_7">
      <path d="M 177.607784 244.078125 
L 177.607784 22.318125 
" clip-path="url(#p1650925c7f)" style="fill: none; stroke: #b0b0b0; stroke-width: 0.8; stroke-linecap: square"/>
     </g>
     <g id="line2d_8">
      <g>
       <use xlink:href="#ma6194af0d4" x="177.607784" y="244.078125" style="stroke: #000000; stroke-width: 0.8"/>
      </g>
     </g>
     <g id="text_4">
      <!-- 0.6 -->
      <g transform="translate(169.656222 258.676562)scale(0.1 -0.1)">
       <defs>
        <path id="DejaVuSans-36" d="M 2113 2584 
Q 1688 2584 1439 2293 
Q 1191 2003 1191 1497 
Q 1191 994 1439 701 
Q 1688 409 2113 409 
Q 2538 409 2786 701 
Q 3034 994 3034 1497 
Q 3034 2003 2786 2293 
Q 2538 2584 2113 2584 
z
M 3366 4563 
L 3366 3988 
Q 3128 4100 2886 4159 
Q 2644 4219 2406 4219 
Q 1781 4219 1451 3797 
Q 1122 3375 1075 2522 
Q 1259 2794 1537 2939 
Q 1816 3084 2150 3084 
Q 2853 3084 3261 2657 
Q 3669 2231 3669 1497 
Q 3669 778 3244 343 
Q 2819 -91 2113 -91 
Q 1303 -91 875 529 
Q 447 1150 447 2328 
Q 447 3434 972 4092 
Q 1497 4750 2381 4750 
Q 2619 4750 2861 4703 
Q 3103 4656 3366 4563 
z
" transform="scale(0.015625)"/>
       </defs>
       <use xlink:href="#DejaVuSans-30"/>
       <use xlink:href="#DejaVuSans-2e" x="63.623047"/>
       <use xlink:href="#DejaVuSans-36" x="95.410156"/>
      </g>
     </g>
    </g>
    <g id="xtick_5">
     <g id="line2d_9">
      <path d="M 218.189602 244.078125 
L 218.189602 22.318125 
" clip-path="url(#p1650925c7f)" style="fill: none; stroke: #b0b0b0; stroke-width: 0.8; stroke-linecap: square"/>
     </g>
     <g id="line2d_10">
      <g>
       <use xlink:href="#ma6194af0d4" x="218.189602" y="244.078125" style="stroke: #000000; stroke-width: 0.8"/>
      </g>
     </g>
     <g id="text_5">
      <!-- 0.8 -->
      <g transform="translate(210.23804 258.676562)scale(0.1 -0.1)">
       <defs>
        <path id="DejaVuSans-38" d="M 2034 2216 
Q 1584 2216 1326 1975 
Q 1069 1734 1069 1313 
Q 1069 891 1326 650 
Q 1584 409 2034 409 
Q 2484 409 2743 651 
Q 3003 894 3003 1313 
Q 3003 1734 2745 1975 
Q 2488 2216 2034 2216 
z
M 1403 2484 
Q 997 2584 770 2862 
Q 544 3141 544 3541 
Q 544 4100 942 4425 
Q 1341 4750 2034 4750 
Q 2731 4750 3128 4425 
Q 3525 4100 3525 3541 
Q 3525 3141 3298 2862 
Q 3072 2584 2669 2484 
Q 3125 2378 3379 2068 
Q 3634 1759 3634 1313 
Q 3634 634 3220 271 
Q 2806 -91 2034 -91 
Q 1263 -91 848 271 
Q 434 634 434 1313 
Q 434 1759 690 2068 
Q 947 2378 1403 2484 
z
M 1172 3481 
Q 1172 3119 1398 2916 
Q 1625 2713 2034 2713 
Q 2441 2713 2670 2916 
Q 2900 3119 2900 3481 
Q 2900 3844 2670 4047 
Q 2441 4250 2034 4250 
Q 1625 4250 1398 4047 
Q 1172 3844 1172 3481 
z
" transform="scale(0.015625)"/>
       </defs>
       <use xlink:href="#DejaVuSans-30"/>
       <use xlink:href="#DejaVuSans-2e" x="63.623047"/>
       <use xlink:href="#DejaVuSans-38" x="95.410156"/>
      </g>
     </g>
    </g>
    <g id="xtick_6">
     <g id="line2d_11">
      <path d="M 258.77142 244.078125 
L 258.77142 22.318125 
" clip-path="url(#p1650925c7f)" style="fill: none; stroke: #b0b0b0; stroke-width: 0.8; stroke-linecap: square"/>
     </g>
     <g id="line2d_12">
      <g>
       <use xlink:href="#ma6194af0d4" x="258.77142" y="244.078125" style="stroke: #000000; stroke-width: 0.8"/>
      </g>
     </g>
     <g id="text_6">
      <!-- 1.0 -->
      <g transform="translate(250.819858 258.676562)scale(0.1 -0.1)">
       <defs>
        <path id="DejaVuSans-31" d="M 794 531 
L 1825 531 
L 1825 4091 
L 703 3866 
L 703 4441 
L 1819 4666 
L 2450 4666 
L 2450 531 
L 3481 531 
L 3481 0 
L 794 0 
L 794 531 
z
" transform="scale(0.015625)"/>
       </defs>
       <use xlink:href="#DejaVuSans-31"/>
       <use xlink:href="#DejaVuSans-2e" x="63.623047"/>
       <use xlink:href="#DejaVuSans-30" x="95.410156"/>
      </g>
     </g>
    </g>
    <g id="text_7">
     <!-- Recall -->
     <g transform="translate(139.41625 273.874375)scale(0.12 -0.12)">
      <defs>
       <path id="DejaVuSans-52" d="M 2841 2188 
Q 3044 2119 3236 1894 
Q 3428 1669 3622 1275 
L 4263 0 
L 3584 0 
L 2988 1197 
Q 2756 1666 2539 1819 
Q 2322 1972 1947 1972 
L 1259 1972 
L 1259 0 
L 628 0 
L 628 4666 
L 2053 4666 
Q 2853 4666 3247 4331 
Q 3641 3997 3641 3322 
Q 3641 2881 3436 2590 
Q 3231 2300 2841 2188 
z
M 1259 4147 
L 1259 2491 
L 2053 2491 
Q 2509 2491 2742 2702 
Q 2975 2913 2975 3322 
Q 2975 3731 2742 3939 
Q 2509 4147 2053 4147 
L 1259 4147 
z
" transform="scale(0.015625)"/>
       <path id="DejaVuSans-65" d="M 3597 1894 
L 3597 1613 
L 953 1613 
Q 991 1019 1311 708 
Q 1631 397 2203 397 
Q 2534 397 2845 478 
Q 3156 559 3463 722 
L 3463 178 
Q 3153 47 2828 -22 
Q 2503 -91 2169 -91 
Q 1331 -91 842 396 
Q 353 884 353 1716 
Q 353 2575 817 3079 
Q 1281 3584 2069 3584 
Q 2775 3584 3186 3129 
Q 3597 2675 3597 1894 
z
M 3022 2063 
Q 3016 2534 2758 2815 
Q 2500 3097 2075 3097 
Q 1594 3097 1305 2825 
Q 1016 2553 972 2059 
L 3022 2063 
z
" transform="scale(0.015625)"/>
       <path id="DejaVuSans-63" d="M 3122 3366 
L 3122 2828 
Q 2878 2963 2633 3030 
Q 2388 3097 2138 3097 
Q 1578 3097 1268 2742 
Q 959 2388 959 1747 
Q 959 1106 1268 751 
Q 1578 397 2138 397 
Q 2388 397 2633 464 
Q 2878 531 3122 666 
L 3122 134 
Q 2881 22 2623 -34 
Q 2366 -91 2075 -91 
Q 1284 -91 818 406 
Q 353 903 353 1747 
Q 353 2603 823 3093 
Q 1294 3584 2113 3584 
Q 2378 3584 2631 3529 
Q 2884 3475 3122 3366 
z
" transform="scale(0.015625)"/>
       <path id="DejaVuSans-61" d="M 2194 1759 
Q 1497 1759 1228 1600 
Q 959 1441 959 1056 
Q 959 750 1161 570 
Q 1363 391 1709 391 
Q 2188 391 2477 730 
Q 2766 1069 2766 1631 
L 2766 1759 
L 2194 1759 
z
M 3341 1997 
L 3341 0 
L 2766 0 
L 2766 531 
Q 2569 213 2275 61 
Q 1981 -91 1556 -91 
Q 1019 -91 701 211 
Q 384 513 384 1019 
Q 384 1609 779 1909 
Q 1175 2209 1959 2209 
L 2766 2209 
L 2766 2266 
Q 2766 2663 2505 2880 
Q 2244 3097 1772 3097 
Q 1472 3097 1187 3025 
Q 903 2953 641 2809 
L 641 3341 
Q 956 3463 1253 3523 
Q 1550 3584 1831 3584 
Q 2591 3584 2966 3190 
Q 3341 2797 3341 1997 
z
" transform="scale(0.015625)"/>
       <path id="DejaVuSans-6c" d="M 603 4863 
L 1178 4863 
L 1178 0 
L 603 0 
L 603 4863 
z
" transform="scale(0.015625)"/>
      </defs>
      <use xlink:href="#DejaVuSans-52"/>
      <use xlink:href="#DejaVuSans-65" x="64.982422"/>
      <use xlink:href="#DejaVuSans-63" x="126.505859"/>
      <use xlink:href="#DejaVuSans-61" x="181.486328"/>
      <use xlink:href="#DejaVuSans-6c" x="242.765625"/>
      <use xlink:href="#DejaVuSans-6c" x="270.548828"/>
     </g>
    </g>
   </g>
   <g id="matplotlib.axis_2">
    <g id="ytick_1">
     <g id="line2d_13">
      <path d="M 45.716875 234.323483 
L 268.916875 234.323483 
" clip-path="url(#p1650925c7f)" style="fill: none; stroke: #b0b0b0; stroke-width: 0.8; stroke-linecap: square"/>
     </g>
     <g id="line2d_14">
      <defs>
       <path id="m5d080d7088" d="M 0 0 
L -3.5 0 
" style="stroke: #000000; stroke-width: 0.8"/>
      </defs>
      <g>
       <use xlink:href="#m5d080d7088" x="45.716875" y="234.323483" style="stroke: #000000; stroke-width: 0.8"/>
      </g>
     </g>
     <g id="text_8">
      <!-- 0.5 -->
      <g transform="translate(22.81375 238.122702)scale(0.1 -0.1)">
       <defs>
        <path id="DejaVuSans-35" d="M 691 4666 
L 3169 4666 
L 3169 4134 
L 1269 4134 
L 1269 2991 
Q 1406 3038 1543 3061 
Q 1681 3084 1819 3084 
Q 2600 3084 3056 2656 
Q 3513 2228 3513 1497 
Q 3513 744 3044 326 
Q 2575 -91 1722 -91 
Q 1428 -91 1123 -41 
Q 819 9 494 109 
L 494 744 
Q 775 591 1075 516 
Q 1375 441 1709 441 
Q 2250 441 2565 725 
Q 2881 1009 2881 1497 
Q 2881 1984 2565 2268 
Q 2250 2553 1709 2553 
Q 1456 2553 1204 2497 
Q 953 2441 691 2322 
L 691 4666 
z
" transform="scale(0.015625)"/>
       </defs>
       <use xlink:href="#DejaVuSans-30"/>
       <use xlink:href="#DejaVuSans-2e" x="63.623047"/>
       <use xlink:href="#DejaVuSans-35" x="95.410156"/>
      </g>
     </g>
    </g>
    <g id="ytick_2">
     <g id="line2d_15">
      <path d="M 45.716875 193.938411 
L 268.916875 193.938411 
" clip-path="url(#p1650925c7f)" style="fill: none; stroke: #b0b0b0; stroke-width: 0.8; stroke-linecap: square"/>
     </g>
     <g id="line2d_16">
      <g>
       <use xlink:href="#m5d080d7088" x="45.716875" y="193.938411" style="stroke: #000000; stroke-width: 0.8"/>
      </g>
     </g>
     <g id="text_9">
      <!-- 0.6 -->
      <g transform="translate(22.81375 197.73763)scale(0.1 -0.1)">
       <use xlink:href="#DejaVuSans-30"/>
       <use xlink:href="#DejaVuSans-2e" x="63.623047"/>
       <use xlink:href="#DejaVuSans-36" x="95.410156"/>
      </g>
     </g>
    </g>
    <g id="ytick_3">
     <g id="line2d_17">
      <path d="M 45.716875 153.55334 
L 268.916875 153.55334 
" clip-path="url(#p1650925c7f)" style="fill: none; stroke: #b0b0b0; stroke-width: 0.8; stroke-linecap: square"/>
     </g>
     <g id="line2d_18">
      <g>
       <use xlink:href="#m5d080d7088" x="45.716875" y="153.55334" style="stroke: #000000; stroke-width: 0.8"/>
      </g>
     </g>
     <g id="text_10">
      <!-- 0.7 -->
      <g transform="translate(22.81375 157.352559)scale(0.1 -0.1)">
       <defs>
        <path id="DejaVuSans-37" d="M 525 4666 
L 3525 4666 
L 3525 4397 
L 1831 0 
L 1172 0 
L 2766 4134 
L 525 4134 
L 525 4666 
z
" transform="scale(0.015625)"/>
       </defs>
       <use xlink:href="#DejaVuSans-30"/>
       <use xlink:href="#DejaVuSans-2e" x="63.623047"/>
       <use xlink:href="#DejaVuSans-37" x="95.410156"/>
      </g>
     </g>
    </g>
    <g id="ytick_4">
     <g id="line2d_19">
      <path d="M 45.716875 113.168268 
L 268.916875 113.168268 
" clip-path="url(#p1650925c7f)" style="fill: none; stroke: #b0b0b0; stroke-width: 0.8; stroke-linecap: square"/>
     </g>
     <g id="line2d_20">
      <g>
       <use xlink:href="#m5d080d7088" x="45.716875" y="113.168268" style="stroke: #000000; stroke-width: 0.8"/>
      </g>
     </g>
     <g id="text_11">
      <!-- 0.8 -->
      <g transform="translate(22.81375 116.967487)scale(0.1 -0.1)">
       <use xlink:href="#DejaVuSans-30"/>
       <use xlink:href="#DejaVuSans-2e" x="63.623047"/>
       <use xlink:href="#DejaVuSans-38" x="95.410156"/>
      </g>
     </g>
    </g>
    <g id="ytick_5">
     <g id="line2d_21">
      <path d="M 45.716875 72.783197 
L 268.916875 72.783197 
" clip-path="url(#p1650925c7f)" style="fill: none; stroke: #b0b0b0; stroke-width: 0.8; stroke-linecap: square"/>
     </g>
     <g id="line2d_22">
      <g>
       <use xlink:href="#m5d080d7088" x="45.716875" y="72.783197" style="stroke: #000000; stroke-width: 0.8"/>
      </g>
     </g>
     <g id="text_12">
      <!-- 0.9 -->
      <g transform="translate(22.81375 76.582415)scale(0.1 -0.1)">
       <defs>
        <path id="DejaVuSans-39" d="M 703 97 
L 703 672 
Q 941 559 1184 500 
Q 1428 441 1663 441 
Q 2288 441 2617 861 
Q 2947 1281 2994 2138 
Q 2813 1869 2534 1725 
Q 2256 1581 1919 1581 
Q 1219 1581 811 2004 
Q 403 2428 403 3163 
Q 403 3881 828 4315 
Q 1253 4750 1959 4750 
Q 2769 4750 3195 4129 
Q 3622 3509 3622 2328 
Q 3622 1225 3098 567 
Q 2575 -91 1691 -91 
Q 1453 -91 1209 -44 
Q 966 3 703 97 
z
M 1959 2075 
Q 2384 2075 2632 2365 
Q 2881 2656 2881 3163 
Q 2881 3666 2632 3958 
Q 2384 4250 1959 4250 
Q 1534 4250 1286 3958 
Q 1038 3666 1038 3163 
Q 1038 2656 1286 2365 
Q 1534 2075 1959 2075 
z
" transform="scale(0.015625)"/>
       </defs>
       <use xlink:href="#DejaVuSans-30"/>
       <use xlink:href="#DejaVuSans-2e" x="63.623047"/>
       <use xlink:href="#DejaVuSans-39" x="95.410156"/>
      </g>
     </g>
    </g>
    <g id="ytick_6">
     <g id="line2d_23">
      <path d="M 45.716875 32.398125 
L 268.916875 32.398125 
" clip-path="url(#p1650925c7f)" style="fill: none; stroke: #b0b0b0; stroke-width: 0.8; stroke-linecap: square"/>
     </g>
     <g id="line2d_24">
      <g>
       <use xlink:href="#m5d080d7088" x="45.716875" y="32.398125" style="stroke: #000000; stroke-width: 0.8"/>
      </g>
     </g>
     <g id="text_13">
      <!-- 1.0 -->
      <g transform="translate(22.81375 36.197344)scale(0.1 -0.1)">
       <use xlink:href="#DejaVuSans-31"/>
       <use xlink:href="#DejaVuSans-2e" x="63.623047"/>
       <use xlink:href="#DejaVuSans-30" x="95.410156"/>
      </g>
     </g>
    </g>
    <g id="text_14">
     <!-- Precision -->
     <g transform="translate(16.318125 159.966563)rotate(-90)scale(0.12 -0.12)">
      <defs>
       <path id="DejaVuSans-50" d="M 1259 4147 
L 1259 2394 
L 2053 2394 
Q 2494 2394 2734 2622 
Q 2975 2850 2975 3272 
Q 2975 3691 2734 3919 
Q 2494 4147 2053 4147 
L 1259 4147 
z
M 628 4666 
L 2053 4666 
Q 2838 4666 3239 4311 
Q 3641 3956 3641 3272 
Q 3641 2581 3239 2228 
Q 2838 1875 2053 1875 
L 1259 1875 
L 1259 0 
L 628 0 
L 628 4666 
z
" transform="scale(0.015625)"/>
       <path id="DejaVuSans-72" d="M 2631 2963 
Q 2534 3019 2420 3045 
Q 2306 3072 2169 3072 
Q 1681 3072 1420 2755 
Q 1159 2438 1159 1844 
L 1159 0 
L 581 0 
L 581 3500 
L 1159 3500 
L 1159 2956 
Q 1341 3275 1631 3429 
Q 1922 3584 2338 3584 
Q 2397 3584 2469 3576 
Q 2541 3569 2628 3553 
L 2631 2963 
z
" transform="scale(0.015625)"/>
       <path id="DejaVuSans-69" d="M 603 3500 
L 1178 3500 
L 1178 0 
L 603 0 
L 603 3500 
z
M 603 4863 
L 1178 4863 
L 1178 4134 
L 603 4134 
L 603 4863 
z
" transform="scale(0.015625)"/>
       <path id="DejaVuSans-73" d="M 2834 3397 
L 2834 2853 
Q 2591 2978 2328 3040 
Q 2066 3103 1784 3103 
Q 1356 3103 1142 2972 
Q 928 2841 928 2578 
Q 928 2378 1081 2264 
Q 1234 2150 1697 2047 
L 1894 2003 
Q 2506 1872 2764 1633 
Q 3022 1394 3022 966 
Q 3022 478 2636 193 
Q 2250 -91 1575 -91 
Q 1294 -91 989 -36 
Q 684 19 347 128 
L 347 722 
Q 666 556 975 473 
Q 1284 391 1588 391 
Q 1994 391 2212 530 
Q 2431 669 2431 922 
Q 2431 1156 2273 1281 
Q 2116 1406 1581 1522 
L 1381 1569 
Q 847 1681 609 1914 
Q 372 2147 372 2553 
Q 372 3047 722 3315 
Q 1072 3584 1716 3584 
Q 2034 3584 2315 3537 
Q 2597 3491 2834 3397 
z
" transform="scale(0.015625)"/>
       <path id="DejaVuSans-6f" d="M 1959 3097 
Q 1497 3097 1228 2736 
Q 959 2375 959 1747 
Q 959 1119 1226 758 
Q 1494 397 1959 397 
Q 2419 397 2687 759 
Q 2956 1122 2956 1747 
Q 2956 2369 2687 2733 
Q 2419 3097 1959 3097 
z
M 1959 3584 
Q 2709 3584 3137 3096 
Q 3566 2609 3566 1747 
Q 3566 888 3137 398 
Q 2709 -91 1959 -91 
Q 1206 -91 779 398 
Q 353 888 353 1747 
Q 353 2609 779 3096 
Q 1206 3584 1959 3584 
z
" transform="scale(0.015625)"/>
       <path id="DejaVuSans-6e" d="M 3513 2113 
L 3513 0 
L 2938 0 
L 2938 2094 
Q 2938 2591 2744 2837 
Q 2550 3084 2163 3084 
Q 1697 3084 1428 2787 
Q 1159 2491 1159 1978 
L 1159 0 
L 581 0 
L 581 3500 
L 1159 3500 
L 1159 2956 
Q 1366 3272 1645 3428 
Q 1925 3584 2291 3584 
Q 2894 3584 3203 3211 
Q 3513 2838 3513 2113 
z
" transform="scale(0.015625)"/>
      </defs>
      <use xlink:href="#DejaVuSans-50"/>
      <use xlink:href="#DejaVuSans-72" x="58.552734"/>
      <use xlink:href="#DejaVuSans-65" x="97.416016"/>
      <use xlink:href="#DejaVuSans-63" x="158.939453"/>
      <use xlink:href="#DejaVuSans-69" x="213.919922"/>
      <use xlink:href="#DejaVuSans-73" x="241.703125"/>
      <use xlink:href="#DejaVuSans-69" x="293.802734"/>
      <use xlink:href="#DejaVuSans-6f" x="321.585938"/>
      <use xlink:href="#DejaVuSans-6e" x="382.767578"/>
     </g>
    </g>
   </g>
   <g id="line2d_25">
    <path d="M 258.77142 233.987974 
L 258.730622 233.97772 
L 258.730622 233.885997 
L 258.628627 232.45779 
L 258.608228 232.467947 
L 258.608228 232.35408 
L 258.506233 230.86037 
L 258.485834 230.870531 
L 258.485834 230.754801 
L 258.383839 227.533073 
L 258.36344 227.543231 
L 258.36344 227.456275 
L 258.343041 227.433807 
L 258.241046 225.141672 
L 258.220647 225.151829 
L 258.200248 225.039559 
L 258.098253 223.982061 
L 258.077854 223.992219 
L 258.077854 223.868356 
L 257.975859 222.979846 
L 257.955459 222.990004 
L 257.955459 222.876272 
L 257.853464 222.596558 
L 257.833065 222.60672 
L 257.833065 222.492509 
L 257.812666 222.502672 
L 257.710671 221.819627 
L 257.690272 221.829792 
L 257.690272 221.714667 
L 257.588277 219.988499 
L 257.567878 219.998658 
L 257.567878 219.881487 
L 257.465883 219.191161 
L 257.445484 219.20132 
L 257.445484 219.118657 
L 257.425085 219.093371 
L 257.32309 218.789069 
L 257.302691 218.799233 
L 257.302691 218.680602 
L 257.200696 217.225457 
L 257.180297 217.235613 
L 257.180297 217.151336 
L 257.159898 217.125354 
L 257.078301 216.743471 
L 257.057902 216.753629 
L 256.955907 216.683412 
L 256.853912 215.968665 
L 256.833513 215.978828 
L 256.813114 215.866977 
L 256.711119 215.526435 
L 256.670321 215.546768 
L 256.649922 215.434343 
L 256.547927 215.116579 
L 256.527528 215.12675 
L 256.527528 215.003603 
L 256.425533 214.039415 
L 256.405134 214.04958 
L 256.405134 213.937604 
L 256.384735 213.947769 
L 256.28274 213.612028 
L 256.241941 213.632366 
L 256.241941 213.519877 
L 256.139946 212.956262 
L 256.037951 212.931639 
L 256.037951 212.89388 
L 255.935956 212.515909 
L 255.915557 212.526084 
L 255.915557 212.412288 
L 255.813562 211.905134 
L 255.793163 211.915307 
L 255.793163 211.813546 
L 255.772764 211.810993 
L 255.670769 210.941684 
L 255.65037 210.951854 
L 255.629971 210.846467 
L 255.527976 210.459682 
L 255.507577 210.469853 
L 255.507577 210.353719 
L 255.425981 209.811911 
L 255.405582 209.82208 
L 255.385182 209.83225 
L 255.385182 209.715386 
L 255.283187 208.682722 
L 255.242389 208.689928 
L 255.242389 208.58493 
L 255.140394 208.003678 
L 255.099596 207.984377 
L 255.079197 207.915252 
L 254.977202 207.303154 
L 254.956803 207.313313 
L 254.956803 207.193577 
L 254.854808 206.576846 
L 254.81401 206.570374 
L 254.81401 206.476584 
L 254.712015 205.787725 
L 254.671217 205.794536 
L 254.630419 205.706842 
L 254.528423 204.726465 
L 254.467226 204.675099 
L 254.508024 204.682082 
L 254.467226 204.634175 
L 254.38563 203.921882 
L 254.365231 203.932022 
L 254.242837 203.910447 
L 254.242837 203.869206 
L 254.202039 203.875749 
L 254.140842 202.856311 
L 254.079645 202.831198 
L 254.079645 202.775649 
L 253.97765 201.84986 
L 253.936852 201.828082 
L 253.936852 201.757993 
L 253.834857 201.499728 
L 253.753261 201.469924 
L 253.814458 201.453601 
L 253.753261 201.427707 
L 253.651265 200.80079 
L 253.590068 200.831173 
L 253.590068 200.717855 
L 253.488073 200.342556 
L 253.447275 200.362811 
L 253.447275 200.24896 
L 253.365679 199.861523 
L 253.34528 199.871647 
L 253.284083 199.873442 
L 253.263684 199.797765 
L 253.161689 199.174058 
L 253.120891 199.151128 
L 253.120891 199.079132 
L 253.080093 198.753177 
L 253.018896 198.769091 
L 252.998497 198.692488 
L 252.916901 198.704061 
L 252.814905 198.494045 
L 252.794506 198.504173 
L 252.774107 198.398264 
L 252.672112 198.041853 
L 252.631314 198.047544 
L 252.631314 197.945543 
L 252.529319 197.616532 
L 252.447723 197.657047 
L 252.447723 197.539975 
L 252.345728 197.370795 
L 252.284531 197.313139 
L 252.325329 197.292876 
L 252.284531 197.283774 
L 252.182536 196.760315 
L 252.10094 196.697485 
L 252.162137 196.696635 
L 252.10094 196.682714 
L 251.998945 195.992398 
L 251.978545 195.928169 
L 251.917348 195.913904 
L 251.815353 194.978241 
L 251.794954 194.988353 
L 251.794954 194.868248 
L 251.774555 194.878359 
L 251.67256 194.220807 
L 251.652161 194.230911 
L 251.652161 194.109962 
L 251.550166 193.82722 
L 251.529767 193.837322 
L 251.529767 193.715904 
L 251.448171 193.725938 
L 251.427772 193.660068 
L 251.407373 193.670173 
L 251.407373 193.548511 
L 251.386974 193.558615 
L 251.305378 193.019415 
L 251.284979 193.029513 
L 251.182984 193.049432 
L 251.162585 192.967726 
L 251.060589 192.527379 
L 251.019791 192.516832 
L 251.019791 192.424545 
L 250.917796 192.027962 
L 250.856599 192.011906 
L 250.856599 191.934621 
L 250.754604 191.551369 
L 250.611811 191.513359 
L 250.530215 191.071197 
L 250.509816 191.081292 
L 250.469018 191.085887 
L 250.469018 190.992247 
L 250.367023 190.823948 
L 250.346624 190.834046 
L 250.346624 190.755808 
L 250.326225 190.734596 
L 250.224229 190.440126 
L 250.163032 190.376162 
L 250.20383 190.371683 
L 250.163032 190.360445 
L 250.061037 189.954234 
L 249.979441 189.899904 
L 249.979441 189.884112 
L 249.877446 189.364655 
L 249.857047 189.374745 
L 249.857047 189.279494 
L 249.836648 189.273701 
L 249.734653 189.006043 
L 249.693855 189.010293 
L 249.693855 188.91468 
L 249.673456 188.924769 
L 249.612259 188.443808 
L 249.571461 188.447962 
L 249.510264 188.446188 
L 249.510264 188.366076 
L 249.408268 188.207956 
L 249.387869 188.218043 
L 249.387869 188.105593 
L 249.306273 187.791832 
L 249.285874 187.801914 
L 249.224677 187.783797 
L 249.224677 187.719273 
L 249.122682 187.478901 
L 249.081884 187.482893 
L 249.081884 187.385788 
L 249.000288 187.036915 
L 248.979889 187.046995 
L 248.918692 187.012247 
L 248.918692 186.963479 
L 248.816697 186.492455 
L 248.735101 186.500099 
L 248.735101 186.418396 
L 248.673904 186.203186 
L 248.633106 186.223339 
L 248.592308 186.227115 
L 248.592308 186.128778 
L 248.490312 185.932969 
L 248.469913 185.943047 
L 248.469913 185.827979 
L 248.367918 185.499502 
L 248.32712 185.519651 
L 248.286322 185.424256 
L 248.204726 185.332368 
L 248.184327 185.342446 
L 248.163928 185.352525 
L 248.163928 185.236729 
L 248.061933 185.138074 
L 248.041534 185.148155 
L 248.041534 185.032097 
L 247.939539 184.766906 
L 247.878342 184.713951 
L 247.91914 184.693797 
L 247.878342 184.68066 
L 247.776347 184.447692 
L 247.735549 184.467849 
L 247.69475 184.37113 
L 247.592755 184.086954 
L 247.572356 184.097032 
L 247.572356 184.013244 
L 247.551957 183.989789 
L 247.449962 183.838784 
L 247.388765 183.785004 
L 247.388765 183.75138 
L 247.28677 183.279405 
L 247.225573 183.208261 
L 247.266371 183.188118 
L 247.225573 183.191359 
L 247.123578 182.86927 
L 247.103179 182.879339 
L 247.103179 182.794532 
L 247.08278 182.770661 
L 246.980785 182.208465 
L 246.87879 182.173451 
L 246.87879 182.139306 
L 246.776794 181.796246 
L 246.756395 181.806304 
L 246.756395 181.686333 
L 246.674799 181.400322 
L 246.6544 181.410375 
L 246.634001 181.420429 
L 246.634001 181.317225 
L 246.613602 181.310068 
L 246.532006 181.005576 
L 246.511607 181.015625 
L 246.45041 180.993988 
L 246.491208 180.973886 
L 246.45041 180.924897 
L 246.348415 180.663752 
L 246.287218 180.624591 
L 246.287218 180.572582 
L 246.185223 180.20595 
L 246.164824 180.215995 
L 246.144425 180.104183 
L 246.124026 180.114227 
L 246.022031 179.867993 
L 246.001631 179.878036 
L 246.001631 179.773231 
L 245.981232 179.765797 
L 245.940434 179.698461 
L 245.879237 179.711101 
L 245.838439 179.731196 
L 245.797641 179.628762 
L 245.695646 179.363348 
L 245.654848 179.383442 
L 245.634449 179.270509 
L 245.532454 179.180041 
L 245.430459 179.195094 
L 245.430459 179.107032 
L 245.328464 178.786733 
L 245.308065 178.796782 
L 245.287666 178.683062 
L 245.185671 178.414453 
L 245.083675 178.411465 
L 245.083675 178.358214 
L 244.98168 177.981614 
L 244.961281 177.991657 
L 244.940882 177.89476 
L 244.920483 177.904802 
L 244.818488 177.633619 
L 244.757291 177.574315 
L 244.798089 177.572124 
L 244.757291 177.556421 
L 244.655296 176.798725 
L 244.634897 176.808749 
L 244.634897 176.700641 
L 244.553301 176.307353 
L 244.532902 176.317368 
L 244.512503 176.327384 
L 244.512503 176.218804 
L 244.410508 175.888084 
L 244.328912 175.909965 
L 244.308512 175.829121 
L 244.206517 175.660843 
L 244.165719 175.662656 
L 244.165719 175.571549 
L 244.063724 175.146759 
L 243.961729 175.123573 
L 243.961729 175.086947 
L 243.859734 174.751743 
L 243.757739 174.691469 
L 243.696542 174.242402 
L 243.655744 174.262392 
L 243.574148 174.246988 
L 243.553749 174.201561 
L 243.492552 173.935524 
L 243.451753 173.955516 
L 243.370157 173.921388 
L 243.431354 173.909927 
L 243.370157 173.884308 
L 243.288561 173.72016 
L 243.268162 173.730159 
L 243.186566 173.65866 
L 243.084571 173.466716 
L 243.043773 173.486722 
L 243.002975 173.394888 
L 242.962177 173.396246 
L 242.90098 173.22091 
L 242.758187 173.178791 
L 242.656192 173.135287 
L 242.594994 173.165333 
L 242.554196 173.072983 
L 242.4726 172.850413 
L 242.513398 173.074277 
L 242.452201 172.860428 
L 242.411403 172.842893 
L 242.411403 172.767725 
L 242.391004 172.77774 
L 242.289009 172.790229 
L 242.289009 172.658519 
L 242.207413 172.623266 
L 242.207413 172.585584 
L 242.125817 172.153669 
L 242.105418 172.163679 
L 242.085019 172.17369 
L 242.085019 172.06015 
L 242.023822 171.862784 
L 241.983024 171.863828 
L 241.962625 171.873835 
L 241.962625 171.759962 
L 241.86063 171.410605 
L 241.840231 171.420604 
L 241.840231 171.344389 
L 241.819832 171.316261 
L 241.738235 171.222718 
L 241.717836 171.232716 
L 241.615841 171.225447 
L 241.615841 171.168136 
L 241.575043 171.035185 
L 241.513846 171.065193 
L 241.473048 171.085205 
L 241.452649 170.980354 
L 241.350654 170.761958 
L 241.330255 170.771962 
L 241.330255 170.656746 
L 241.309856 170.666748 
L 241.207861 170.389719 
L 241.126265 170.35264 
L 241.126265 170.314082 
L 241.02427 170.093831 
L 241.003871 170.10383 
L 241.003871 169.987829 
L 240.983472 169.997824 
L 240.922275 169.969773 
L 240.922275 170.008474 
L 240.881476 169.989773 
L 240.840678 169.990422 
L 240.840678 169.893594 
L 240.738683 169.574958 
L 240.657087 169.537196 
L 240.718284 169.52665 
L 240.657087 169.498303 
L 240.555092 169.217191 
L 240.453097 169.150089 
L 240.351102 168.573804 
L 240.330703 168.583785 
L 240.330703 168.466027 
L 240.289905 168.485984 
L 240.228708 168.358729 
L 240.18791 168.359025 
L 239.943121 168.360804 
L 239.841126 167.99655 
L 239.739131 167.987208 
L 239.739131 167.927889 
L 239.637136 167.720455 
L 239.55554 167.700938 
L 239.535141 167.651423 
L 239.433146 167.363624 
L 239.208757 167.354091 
L 239.106761 167.184762 
L 239.025165 167.144902 
L 239.025165 167.104955 
L 238.943569 166.704692 
L 238.92317 166.71468 
L 238.861973 166.684498 
L 238.861973 166.624314 
L 238.759978 166.352783 
L 238.71918 166.352635 
L 238.71918 166.251987 
L 238.637584 166.029857 
L 238.617185 166.039837 
L 238.596786 166.049818 
L 238.596786 165.92868 
L 238.555988 165.948638 
L 238.453993 165.755893 
L 238.433594 165.765873 
L 238.433594 165.644371 
L 238.331598 165.410285 
L 238.311199 165.420259 
L 238.311199 165.298364 
L 238.229603 165.073732 
L 238.209204 165.083698 
L 238.168406 165.103634 
L 238.148007 164.991325 
L 238.066411 164.806701 
L 238.046012 164.816666 
L 238.025613 164.826632 
L 238.025613 164.704011 
L 237.964416 164.713453 
L 237.923618 164.610614 
L 237.88282 164.630545 
L 237.862421 164.517613 
L 237.780825 164.229152 
L 237.760426 164.23911 
L 237.699229 164.268992 
L 237.67883 164.155604 
L 237.576835 163.58686 
L 237.556436 163.596804 
L 237.556436 163.493433 
L 237.536037 163.503374 
L 237.434041 163.511722 
L 237.434041 163.428924 
L 237.332046 163.416523 
L 237.413642 163.376736 
L 237.332046 163.375078 
L 237.230051 162.905607 
L 237.209652 162.915543 
L 237.209652 162.83228 
L 237.189253 162.821389 
L 237.087258 162.516503 
L 237.066859 162.526431 
L 237.066859 162.421964 
L 237.026061 162.316342 
L 236.964864 162.346117 
L 236.944465 162.251378 
L 236.883268 162.281159 
L 236.801672 161.96432 
L 236.781273 161.974241 
L 236.720076 161.940985 
L 236.720076 161.898948 
L 236.61808 161.611758 
L 236.597681 161.621675 
L 236.597681 161.516244 
L 236.495686 161.291276 
L 236.332494 161.328305 
L 236.332494 161.264828 
L 236.230499 160.975326 
L 236.2101 160.985239 
L 236.2101 160.900327 
L 236.189701 160.889001 
L 236.128504 160.791232 
L 236.087706 160.811055 
L 235.883716 160.825149 
L 235.883716 160.803863 
L 235.80212 160.502486 
L 235.78172 160.512402 
L 235.761321 160.522321 
L 235.761321 160.43691 
L 235.740922 160.425465 
L 235.638927 160.068476 
L 235.618528 160.078384 
L 235.618528 159.971183 
L 235.598129 159.981088 
L 235.496134 159.729954 
L 235.312543 159.711537 
L 235.230947 159.427876 
L 235.210548 159.437779 
L 235.190149 159.447684 
L 235.190149 159.339735 
L 235.149351 159.359541 
L 235.047356 159.127937 
L 234.945361 159.090818 
L 234.945361 159.069149 
L 234.843365 158.88006 
L 234.761769 158.854513 
L 234.761769 158.811055 
L 234.659774 158.686579 
L 234.639375 158.696483 
L 234.639375 158.609394 
L 234.618976 158.597513 
L 234.516981 158.07939 
L 234.476183 158.099162 
L 234.476183 157.989723 
L 234.394587 157.897804 
L 234.374188 157.907688 
L 234.292592 157.859511 
L 234.292592 157.83757 
L 234.210996 157.569535 
L 234.190597 157.579415 
L 234.149799 157.489146 
L 234.109001 157.508908 
L 234.027404 157.41626 
L 234.007005 157.426143 
L 233.945808 157.455804 
L 233.925409 157.355415 
L 233.823414 157.029183 
L 233.741818 157.002291 
L 233.741818 156.957998 
L 233.639823 156.719098 
L 233.599025 156.716645 
L 233.599025 156.627791 
L 233.49703 156.410213 
L 233.395035 156.370454 
L 233.395035 156.348166 
L 233.313439 156.231515 
L 233.29304 156.241386 
L 233.252242 156.261133 
L 233.252242 156.149477 
L 233.231843 156.159348 
L 233.150246 156.042345 
L 233.129847 156.052217 
L 232.885059 156.081241 
L 232.885059 156.058842 
L 232.783064 155.569519 
L 232.681069 155.528873 
L 232.681069 155.506359 
L 232.579074 155.217533 
L 232.436281 155.241462 
L 232.436281 155.173678 
L 232.354684 154.692323 
L 232.334285 154.702178 
L 232.191492 154.657683 
L 232.130295 154.300547 
L 232.089497 154.320248 
L 232.069098 154.330101 
L 232.069098 154.21614 
L 231.967103 154.128495 
L 231.926305 154.148199 
L 231.926305 154.033998 
L 231.905906 154.043847 
L 231.82431 153.831632 
L 231.803911 153.841477 
L 231.722315 153.857972 
L 231.701916 153.776172 
L 231.599921 153.527086 
L 231.559123 153.546775 
L 231.559123 153.431846 
L 231.518325 153.451532 
L 231.477526 153.356179 
L 231.416329 153.385712 
L 231.334733 153.356019 
L 231.39593 153.326476 
L 231.334733 153.309937 
L 231.253137 153.164832 
L 231.232738 153.174678 
L 231.069546 153.138018 
L 230.98795 153.038712 
L 230.967551 153.048568 
L 230.906354 153.055003 
L 230.885955 152.97226 
L 230.78396 152.766532 
L 230.722763 152.749673 
L 230.722763 152.680006 
L 230.620767 152.47349 
L 230.55957 152.503043 
L 230.55957 152.386601 
L 230.457575 152.132593 
L 230.396378 152.115404 
L 230.375979 152.055136 
L 230.273984 151.917186 
L 230.212787 151.853021 
L 230.212787 151.829587 
L 230.131191 151.775171 
L 230.110792 151.785015 
L 229.988398 151.726745 
L 229.886403 151.658517 
L 229.866004 151.66837 
L 229.866004 151.597824 
L 229.825206 151.570472 
L 229.72321 151.384184 
L 229.641614 151.400004 
L 229.641614 151.305637 
L 229.580417 151.075317 
L 229.539619 151.095002 
L 229.478422 151.077229 
L 229.458023 151.016075 
L 229.417225 150.893647 
L 229.356028 150.923177 
L 229.31523 150.895456 
L 229.31523 150.824301 
L 229.213235 150.46956 
L 229.152038 150.499063 
L 229.152038 150.380011 
L 229.050043 149.999669 
L 229.009245 149.995407 
L 229.009245 149.899758 
L 228.988846 149.909574 
L 228.907249 149.924928 
L 228.88685 149.838994 
L 228.784855 149.792267 
L 228.784855 149.768295 
L 228.68286 149.601449 
L 228.642062 149.500952 
L 228.580865 149.53041 
L 228.519668 149.415539 
L 228.47887 149.435181 
L 228.417673 149.392413 
L 228.458471 149.372768 
L 228.417673 149.34423 
L 228.417673 149.271925 
L 228.315678 149.272801 
L 228.234082 149.215571 
L 228.234082 149.191426 
L 228.132087 149.023029 
L 228.091288 149.018482 
L 228.091288 148.921665 
L 227.989293 148.752651 
L 227.928096 148.782108 
L 227.928096 148.660763 
L 227.826101 148.345117 
L 227.744505 148.335639 
L 227.724106 148.272347 
L 227.64251 148.018747 
L 227.622111 148.028547 
L 227.479318 148.02386 
L 227.479318 147.974951 
L 227.377323 147.754634 
L 227.356924 147.764435 
L 227.356924 147.641822 
L 227.275328 147.26327 
L 227.254929 147.273052 
L 227.132534 147.208639 
L 227.030539 147.010931 
L 226.887746 146.980631 
L 226.785751 146.856457 
L 226.683756 146.806365 
L 226.60216 146.746401 
L 226.581761 146.756195 
L 226.561362 146.69158 
L 226.500165 146.696151 
L 226.398169 146.521562 
L 226.336972 146.526081 
L 226.336972 146.451448 
L 226.255376 146.366137 
L 226.234977 146.375931 
L 226.153381 146.315424 
L 226.071785 146.080032 
L 226.051386 146.089822 
L 226.030987 146.099614 
L 226.030987 145.999623 
L 225.949391 145.913674 
L 225.96979 146.00398 
L 225.928992 145.923462 
L 225.867795 145.952837 
L 225.847396 145.862439 
L 225.786199 145.691192 
L 225.745401 145.710765 
L 225.725002 145.720555 
L 225.725002 145.620122 
L 225.663805 145.624361 
L 225.623007 145.543395 
L 225.521011 145.491708 
L 225.419016 145.389544 
L 225.296622 145.347441 
L 225.194627 145.244953 
L 225.113031 145.208331 
L 225.113031 145.18305 
L 225.051834 144.908679 
L 225.011036 144.928255 
L 224.847844 144.905174 
L 224.786647 144.706013 
L 224.745849 144.725598 
L 224.664252 144.688496 
L 224.664252 144.663057 
L 224.582656 144.524014 
L 224.562257 144.533807 
L 224.480661 144.471023 
L 224.378666 144.264703 
L 224.276671 144.236973 
L 224.276671 144.211396 
L 224.174676 144.132399 
L 224.09308 144.171593 
L 224.09308 144.069101 
L 223.991085 143.887172 
L 223.868691 143.843171 
L 223.766695 143.634823 
L 223.725897 143.654411 
L 223.725897 143.55133 
L 223.623902 143.36804 
L 223.562705 143.345732 
L 223.562705 143.294042 
L 223.501508 142.909157 
L 223.46071 142.928696 
L 223.379114 142.941856 
L 223.379114 142.864014 
L 223.277119 142.783034 
L 223.113927 142.75726 
L 223.011932 142.36316 
L 222.991533 142.372927 
L 222.991533 142.268484 
L 222.930335 142.271651 
L 222.889537 142.055811 
L 222.807941 141.990093 
L 222.726345 141.635548 
L 222.705946 141.645291 
L 222.522355 141.627862 
L 222.440759 141.350786 
L 222.42036 141.36053 
L 222.399961 141.317519 
L 222.318365 141.30372 
L 222.257168 141.25374 
L 222.257168 141.306564 
L 222.21637 141.27324 
L 222.134773 141.31226 
L 222.134773 141.206519 
L 222.032778 141.043535 
L 221.971581 141.07279 
L 221.951182 140.976523 
L 221.910384 140.836833 
L 221.849187 140.866075 
L 221.808389 140.885578 
L 221.808389 140.779323 
L 221.726793 140.658763 
L 221.706394 140.66851 
L 221.584 140.62051 
L 221.482005 140.242344 
L 221.461606 140.252081 
L 221.461606 140.145146 
L 221.359611 139.738356 
L 221.257615 139.733256 
L 221.237216 139.689262 
L 221.176019 139.557136 
L 221.135221 139.576568 
L 221.053625 139.615453 
L 221.012827 139.527233 
L 220.95163 139.367758 
L 220.910832 139.387195 
L 220.870034 139.406638 
L 220.849635 139.308424 
L 220.849635 139.281427 
L 220.74764 139.330036 
L 220.74764 139.303027 
L 220.727241 139.312752 
L 220.727241 139.204658 
L 220.706842 139.214379 
L 220.645645 139.027077 
L 220.604847 139.04651 
L 220.584448 139.002051 
L 220.31926 139.074282 
L 220.237664 138.841688 
L 220.258063 139.076368 
L 220.217265 138.851417 
L 220.11527 138.791288 
L 220.033674 138.530552 
L 220.013275 138.540275 
L 219.992876 138.49544 
L 219.829684 138.51867 
L 219.727689 138.293955 
L 219.605295 138.242802 
L 219.503299 138.04464 
L 219.462501 138.064092 
L 219.462501 137.954243 
L 219.380905 137.52527 
L 219.360506 137.534972 
L 219.27891 137.54622 
L 219.258511 137.473166 
L 219.176915 137.235724 
L 219.156516 137.245421 
L 219.136117 137.144452 
L 219.07492 137.173538 
L 218.993324 136.8242 
L 218.972925 136.833883 
L 218.952526 136.843567 
L 218.952526 136.732471 
L 218.850531 136.586209 
L 218.789334 136.587408 
L 218.768935 136.513542 
L 218.666939 136.003609 
L 218.544545 135.977588 
L 218.544545 135.949591 
L 218.524146 135.903233 
L 218.44255 135.91384 
L 218.279358 135.878976 
L 218.177363 135.702625 
L 218.014171 135.667442 
L 217.912176 135.462221 
L 217.891777 135.471885 
L 217.891777 135.359034 
L 217.81018 135.030236 
L 217.789781 135.039879 
L 217.708185 135.050159 
L 217.687786 134.97484 
L 217.585791 134.824582 
L 217.279806 134.855772 
L 217.177811 134.6195 
L 217.075816 134.582281 
L 217.157412 134.572165 
L 217.075816 134.553765 
L 217.014618 134.554216 
L 216.97382 134.402247 
L 216.933022 134.392986 
L 216.912623 134.31689 
L 216.851426 133.973628 
L 216.810628 133.992898 
L 216.667835 133.974326 
L 216.667835 133.945623 
L 216.56584 133.648885 
L 216.545441 133.658516 
L 216.545441 133.543342 
L 216.525042 133.552967 
L 216.443446 133.418508 
L 216.423047 133.428132 
L 216.321052 133.389681 
L 216.321052 133.360804 
L 216.219057 133.206604 
L 216.178259 133.225853 
L 216.157859 133.119705 
L 216.076263 132.781225 
L 216.055864 132.79083 
L 215.913071 132.741876 
L 215.851874 132.596155 
L 215.811076 132.615371 
L 215.627485 132.585361 
L 215.52549 132.341567 
L 215.382697 132.291902 
L 215.280701 132.222895 
L 215.178706 132.183085 
L 215.178706 132.153769 
L 215.09711 131.898707 
L 215.076711 131.908314 
L 215.056312 131.829737 
L 214.995115 131.829145 
L 214.89312 131.700555 
L 214.831923 131.699912 
L 214.831923 131.611475 
L 214.791125 131.512674 
L 214.729928 131.54148 
L 214.587135 131.520135 
L 214.587135 131.490581 
L 214.48514 131.272327 
L 214.077159 131.375748 
L 214.077159 131.346071 
L 213.995563 131.206383 
L 213.975164 131.216011 
L 213.954765 131.225642 
L 213.934366 131.116314 
L 213.913967 131.12594 
L 213.832371 130.955992 
L 213.811972 130.965614 
L 213.750775 130.93486 
L 213.791573 130.915614 
L 213.750775 130.875205 
L 213.64878 130.594703 
L 213.526385 130.562602 
L 213.526385 130.532662 
L 213.42439 130.400922 
L 213.240799 130.427456 
L 213.240799 130.367408 
L 213.138804 130.38548 
L 213.138804 130.325377 
L 212.996011 130.27244 
L 212.894016 130.13986 
L 212.832819 130.138591 
L 212.832819 130.048106 
L 212.730823 129.521729 
L 212.608429 129.458045 
L 212.506434 129.26313 
L 212.486035 129.27272 
L 212.486035 129.151109 
L 212.404439 128.976345 
L 212.38404 128.985921 
L 212.343242 128.974606 
L 212.343242 128.883146 
L 212.282045 128.606551 
L 212.241247 128.62567 
L 212.078055 128.579842 
L 211.97606 128.32122 
L 211.833266 128.296056 
L 211.772069 128.109576 
L 211.731271 128.128689 
L 211.608877 128.093712 
L 211.506882 128.110745 
L 211.506882 127.98744 
L 211.323291 127.980982 
L 211.241695 127.988404 
L 211.221296 127.905277 
L 211.200897 127.822083 
L 211.1397 127.850802 
L 211.078503 127.569775 
L 211.037704 127.5889 
L 210.813315 127.601086 
L 210.71132 127.33804 
L 210.690921 127.285336 
L 210.650123 127.273318 
L 210.588926 127.146149 
L 210.548128 127.165274 
L 210.466532 127.203549 
L 210.446133 127.119475 
L 210.425734 126.941566 
L 210.344138 126.979808 
L 210.282941 127.008509 
L 210.262542 126.924203 
L 210.160546 126.75271 
L 210.058551 126.706399 
L 209.956556 126.314034 
L 209.752566 126.314985 
L 209.650571 126.236567 
L 209.528177 126.230759 
L 209.528177 126.199163 
L 209.528177 126.16756 
L 209.446581 126.205806 
L 209.426182 126.183753 
L 209.324186 126.199965 
L 209.303787 126.146239 
L 209.283388 126.029125 
L 209.201792 126.035697 
L 209.099797 125.988401 
L 208.997802 125.813932 
L 208.895807 125.766358 
L 208.895807 125.734536 
L 208.793812 125.782391 
L 208.671418 125.808029 
L 208.671418 125.744303 
L 208.569423 125.664656 
L 208.426629 125.635975 
L 208.426629 125.604029 
L 208.345033 125.64239 
L 208.324634 125.62002 
L 208.100245 125.629662 
L 207.99825 125.292962 
L 207.835058 125.273354 
L 207.753462 125.11874 
L 207.733063 125.128334 
L 207.631067 125.07969 
L 207.56987 125.044015 
L 207.529072 125.063218 
L 207.345481 125.052886 
L 207.304683 125.007513 
L 207.243486 125.036363 
L 207.202688 125.055607 
L 207.202688 124.958611 
L 207.141491 124.760863 
L 207.100693 124.780079 
L 206.998698 124.828155 
L 206.978299 124.7405 
L 206.876304 124.561304 
L 206.815107 124.525122 
L 206.855905 124.505906 
L 206.815107 124.492603 
L 206.73351 124.237988 
L 206.713111 124.247583 
L 206.611116 124.197734 
L 206.509121 123.951717 
L 206.386727 123.943828 
L 206.386727 123.911095 
L 206.284732 123.828029 
L 206.243934 123.814433 
L 206.223535 123.758433 
L 206.141939 123.566947 
L 206.12154 123.576529 
L 205.978747 123.544988 
L 205.876751 123.428305 
L 205.591165 123.529751 
L 205.591165 123.463756 
L 205.509569 123.370094 
L 205.48917 123.379703 
L 205.28518 123.376658 
L 205.264781 123.28697 
L 205.183185 123.325454 
L 205.08119 123.307317 
L 205.08119 123.274163 
L 204.979194 123.089964 
L 204.938396 123.075981 
L 204.938396 123.009504 
L 204.836401 122.791324 
L 204.754805 122.79644 
L 204.734406 122.739371 
L 204.65281 122.343564 
L 204.632411 122.35315 
L 204.612012 122.362738 
L 204.612012 122.262337 
L 204.591613 122.271919 
L 204.510017 122.176251 
L 204.489618 122.185834 
L 204.387623 122.166694 
L 204.387623 122.133142 
L 204.285628 122.013165 
L 204.204031 121.984271 
L 204.204031 121.950638 
L 204.122435 121.719586 
L 204.102036 121.729159 
L 204.02044 121.666285 
L 203.918445 121.47774 
L 203.755253 121.452831 
L 203.694056 121.379972 
L 203.653258 121.399122 
L 203.530864 121.388816 
L 203.632859 121.34092 
L 203.530864 121.354902 
L 203.449268 121.01959 
L 203.428869 121.029152 
L 203.40847 121.038716 
L 203.40847 120.970673 
L 203.388071 120.946198 
L 203.286075 120.584865 
L 203.265676 120.526102 
L 203.224878 120.511009 
L 203.122883 120.387701 
L 203.020888 120.332655 
L 202.918893 120.105958 
L 202.816898 120.119257 
L 202.816898 120.050541 
L 202.735302 119.813412 
L 202.714903 119.822926 
L 202.531312 119.805222 
L 202.470114 119.523056 
L 202.429316 119.542075 
L 202.34772 119.510965 
L 202.34772 119.476368 
L 202.245725 119.038603 
L 202.164129 119.041817 
L 202.164129 118.972323 
L 202.102932 118.792067 
L 202.062134 118.811017 
L 201.898942 118.782356 
L 201.817346 118.645865 
L 201.796947 118.655346 
L 201.694952 118.667852 
L 201.674553 118.607455 
L 201.572557 118.409962 
L 201.429764 118.441308 
L 201.429764 118.371198 
L 201.368567 118.083703 
L 201.327769 118.102635 
L 201.225774 118.079664 
L 201.225774 118.044484 
L 201.225774 117.974101 
L 201.123779 118.021448 
L 201.001385 118.007857 
L 201.001385 117.972607 
L 200.89939 117.631598 
L 200.695399 117.620095 
L 200.593404 117.454801 
L 200.26702 117.535439 
L 200.26702 117.499904 
L 200.165025 117.26269 
L 200.042631 117.248298 
L 200.042631 117.212643 
L 199.940635 116.902938 
L 199.920236 116.840872 
L 199.777443 116.871327 
L 199.675448 116.703662 
L 199.655049 116.641375 
L 199.512256 116.671727 
L 199.410261 116.431433 
L 199.308266 116.406715 
L 199.308266 116.370689 
L 199.247069 116.110499 
L 199.206271 116.129385 
L 199.083876 116.077672 
L 199.063477 116.014793 
L 198.981881 116.05259 
L 198.839088 116.082608 
L 198.839088 116.010164 
L 198.757492 115.794121 
L 198.737093 115.803569 
L 198.696295 115.822471 
L 198.696295 115.713507 
L 198.675896 115.722953 
L 198.5943 115.50611 
L 198.573901 115.515545 
L 198.431108 115.508767 
L 198.431108 115.472315 
L 198.349512 115.364158 
L 198.329113 115.373596 
L 198.308714 115.383037 
L 198.308714 115.310005 
L 198.288315 115.282911 
L 198.206718 115.137823 
L 198.186319 115.147252 
L 198.084324 115.121196 
L 198.084324 115.084567 
L 198.002728 114.865585 
L 197.982329 114.875005 
L 197.921132 114.829825 
L 197.921132 114.793088 
L 197.839536 114.646898 
L 197.819137 114.65631 
L 197.635546 114.667439 
L 197.635546 114.63059 
L 197.55395 114.483864 
L 197.533551 114.49328 
L 197.390757 114.44842 
L 197.370358 114.383903 
L 197.288762 114.421598 
L 197.064373 114.414319 
L 197.023575 114.321995 
L 196.962378 114.350316 
L 196.799186 114.314539 
L 196.799186 114.27739 
L 196.697191 114.324659 
L 196.635994 114.353046 
L 196.595196 114.260387 
L 196.513599 114.074748 
L 196.4932 114.084199 
L 196.350407 114.038475 
L 196.330008 113.935903 
L 196.248412 113.973722 
L 196.166816 113.974189 
L 196.146417 113.908849 
L 196.044422 113.618974 
L 196.024023 113.55338 
L 195.860831 113.591395 
L 195.840432 113.375299 
L 195.758836 113.413055 
L 195.514047 113.48886 
L 195.493648 113.422945 
L 195.45285 113.366442 
L 195.391653 113.394832 
L 195.106067 113.414201 
L 195.04487 113.329184 
L 195.004072 113.348157 
L 194.759283 113.348474 
L 194.759283 113.196735 
L 194.657288 113.206251 
L 194.636889 113.215752 
L 194.636889 113.101767 
L 194.596091 113.120756 
L 194.494096 112.977997 
L 194.351303 112.930149 
L 194.351303 112.892017 
L 194.249308 112.939512 
L 194.188111 112.891691 
L 194.228909 112.872686 
L 194.188111 112.853505 
L 194.167712 112.786602 
L 194.086116 112.824606 
L 194.00452 112.824403 
L 193.98412 112.757394 
L 193.882125 112.421637 
L 193.861726 112.431122 
L 193.861726 112.315939 
L 193.841327 112.210141 
L 193.759731 112.248029 
L 193.637337 112.189469 
L 193.555741 111.996155 
L 193.535342 112.005624 
L 193.412948 111.946664 
L 193.331352 111.7526 
L 193.310953 111.762063 
L 193.004967 111.787995 
L 193.004967 111.749216 
L 192.902972 111.796663 
L 192.902972 111.757858 
L 192.596987 111.783858 
L 192.596987 111.744963 
L 192.494992 111.79255 
L 192.433795 111.82113 
L 192.413396 111.713824 
L 192.311401 111.644486 
L 192.291002 111.536941 
L 192.127809 111.613127 
L 192.025814 111.465283 
L 191.923819 111.47379 
L 191.90342 111.404983 
L 191.801425 111.060203 
L 191.597435 111.037336 
L 191.49544 110.887953 
L 191.393444 110.817166 
L 191.291449 110.508967 
L 191.27105 110.439282 
L 191.107858 110.475603 
L 191.026262 110.315242 
L 191.005863 110.324734 
L 190.985464 110.334228 
L 190.985464 110.215064 
L 190.985464 110.095812 
L 190.883469 110.143206 
L 190.679479 110.118662 
L 190.577483 109.886858 
L 190.475488 109.814388 
L 190.393892 109.772318 
L 190.373493 109.781804 
L 190.169503 109.756563 
L 190.067508 109.643572 
L 189.985912 109.681573 
L 189.985912 109.561039 
L 189.985912 109.480633 
L 189.883917 109.528092 
L 189.863518 109.4571 
L 189.577931 109.549909 
L 189.516734 109.417086 
L 189.475936 109.436117 
L 189.353542 109.372022 
L 189.292345 109.279224 
L 189.251547 109.298261 
L 189.210749 109.276816 
L 189.210749 109.195802 
L 189.149552 109.021587 
L 189.108754 109.040595 
L 189.067956 109.059613 
L 189.067956 108.937785 
L 189.027158 108.95679 
L 188.925163 108.515795 
L 188.721172 108.488129 
L 188.619177 108.412935 
L 188.537581 108.409967 
L 188.537581 108.369044 
L 188.496783 108.306121 
L 188.435586 108.334573 
L 188.35399 108.290551 
L 188.313192 108.227488 
L 188.251995 108.255956 
L 188.088803 108.249801 
L 188.027606 108.072648 
L 187.986807 108.091635 
L 187.823615 108.085258 
L 187.742019 107.958274 
L 187.72162 107.967776 
L 187.252443 108.145604 
L 187.252443 108.104214 
L 187.150447 107.944785 
L 186.987255 107.938179 
L 186.905659 107.768593 
L 186.88526 107.778137 
L 186.864861 107.704466 
L 186.824063 107.72355 
L 186.783265 107.659351 
L 186.722068 107.687986 
L 186.579275 107.713182 
L 186.579275 107.671468 
L 186.518078 107.324142 
L 186.47728 107.343202 
L 186.25289 107.364426 
L 186.171294 107.192926 
L 186.150895 107.202467 
L 185.865309 107.252214 
L 185.783713 107.122135 
L 185.763314 107.131698 
L 185.64092 107.146977 
L 185.64092 107.104817 
L 185.538925 106.983867 
L 185.457328 107.022151 
L 185.457328 106.937636 
L 185.41653 106.872201 
L 185.355333 106.900904 
L 185.151343 106.912012 
L 185.090146 106.643805 
L 185.049348 106.662941 
L 185.028949 106.587537 
L 184.988151 106.606671 
L 184.947353 106.413099 
L 184.886156 106.441768 
L 184.865757 106.366133 
L 184.80456 106.394806 
L 184.722964 106.262426 
L 184.702565 106.271982 
L 184.539372 106.305787 
L 184.539372 106.263049 
L 184.457776 106.215795 
L 184.437377 106.225366 
L 184.274185 106.259192 
L 184.274185 106.216353 
L 184.212988 105.987767 
L 184.17219 106.006901 
L 184.151791 106.016472 
L 184.151791 105.930574 
L 184.131392 105.940139 
L 184.029397 105.643753 
L 184.008998 105.653298 
L 184.008998 105.567116 
L 183.947801 105.336842 
L 183.907003 105.355884 
L 183.805008 105.403531 
L 183.805008 105.317081 
L 183.74381 105.085971 
L 183.703012 105.104992 
L 183.641815 105.133542 
L 183.641815 105.04684 
L 183.560219 104.954714 
L 183.53982 104.964224 
L 183.478623 104.949329 
L 183.478623 104.90588 
L 183.478623 104.862419 
L 183.376628 104.909974 
L 183.376628 104.86648 
L 183.254234 104.836525 
L 183.254234 104.749403 
L 183.152239 104.796984 
L 183.070643 104.791475 
L 183.070643 104.747845 
L 183.009446 104.645427 
L 182.968648 104.664467 
L 182.825854 104.643715 
L 182.785056 104.443856 
L 182.723859 104.472407 
L 182.601465 104.441846 
L 182.519869 104.304296 
L 182.49947 104.313816 
L 182.377076 104.283017 
L 182.336278 104.170003 
L 182.275081 104.198571 
L 182.132288 104.177118 
L 182.071091 104.11746 
L 182.030292 104.136532 
L 181.989494 104.155614 
L 181.989494 104.067256 
L 181.989494 103.978851 
L 181.887499 103.982264 
L 181.8671 103.991799 
L 181.8671 103.903268 
L 181.805903 103.754599 
L 181.765105 103.773635 
L 181.642711 103.742029 
L 181.561115 103.513434 
L 181.540716 103.522944 
L 181.438721 103.481473 
L 181.438721 103.347796 
L 181.336726 103.350723 
L 181.173533 103.382217 
L 181.173533 103.337549 
L 181.091937 103.062502 
L 181.071538 103.072 
L 180.887947 103.067923 
L 180.887947 103.023068 
L 180.785952 103.07064 
L 180.643159 103.137348 
L 180.643159 103.047488 
L 180.62276 102.877134 
L 180.541164 102.915205 
L 180.459568 102.863225 
L 180.398371 102.801638 
L 180.357573 102.820686 
L 180.316774 102.839745 
L 180.316774 102.749488 
L 180.235178 102.606861 
L 180.214779 102.616375 
L 180.112784 102.573487 
L 180.010789 102.439869 
L 179.827198 102.434804 
L 179.725203 102.164162 
L 179.643607 102.111107 
L 179.541612 101.976228 
L 179.378419 101.960928 
L 179.317222 101.760743 
L 179.276424 101.779733 
L 178.970439 101.876627 
L 178.970439 101.830747 
L 178.970439 101.784854 
L 178.868444 101.832497 
L 178.603256 101.910679 
L 178.603256 101.864672 
L 178.562458 101.607423 
L 178.501261 101.636037 
L 178.297271 101.639233 
L 178.297271 101.593036 
L 178.195276 101.640836 
L 178.032084 101.671176 
L 178.032084 101.624887 
L 177.950488 101.524214 
L 177.930089 101.533788 
L 177.766896 101.564071 
L 177.766896 101.517651 
L 177.705699 101.314055 
L 177.664901 101.333199 
L 177.379315 101.420906 
L 177.379315 101.374298 
L 177.297719 101.226083 
L 177.27732 101.235676 
L 177.236522 101.208161 
L 177.236522 101.161439 
L 177.154926 101.106293 
L 177.134527 101.115884 
L 176.971335 101.099037 
L 176.889738 100.762101 
L 176.869339 100.771674 
L 176.767344 100.77257 
L 176.767344 100.725545 
L 176.665349 100.255031 
L 176.44096 100.312789 
L 176.44096 100.265508 
L 176.359364 100.01964 
L 176.338965 100.029172 
L 176.23697 100.029446 
L 176.23697 99.982004 
L 176.175773 99.915669 
L 176.134975 99.934742 
L 176.114576 99.849241 
L 175.951383 99.925575 
L 175.951383 99.877991 
L 175.849388 99.925761 
L 175.747393 99.878283 
L 175.665797 99.582375 
L 175.645398 99.591913 
L 175.6046 99.610996 
L 175.584201 99.524896 
L 175.523004 99.457783 
L 175.482206 99.476856 
L 175.319014 99.457358 
L 175.217018 99.313073 
L 175.135422 99.303188 
L 175.135422 99.255101 
L 175.033427 99.062063 
L 174.951831 99.003743 
L 174.931432 98.916753 
L 174.849836 98.954851 
L 174.727442 98.915395 
L 174.645846 98.759932 
L 174.625447 98.769457 
L 174.441856 98.758299 
L 174.380659 98.59268 
L 174.33986 98.611737 
L 174.197067 98.581213 
L 174.176668 98.493376 
L 174.095072 98.53152 
L 174.013476 98.472184 
L 173.93188 98.315063 
L 173.911481 98.324594 
L 173.748289 98.3031 
L 173.748289 98.254158 
L 173.646294 98.30188 
L 173.462702 98.289866 
L 173.360707 98.141265 
L 173.29951 98.071594 
L 173.217914 98.011373 
L 173.197515 98.020926 
L 173.115919 98.059168 
L 173.115919 97.960599 
L 173.013924 97.860358 
L 172.871131 97.877864 
L 172.871131 97.828431 
L 172.789535 97.767732 
L 172.769136 97.777292 
L 172.748737 97.687816 
L 172.66714 97.726048 
L 172.565145 97.575439 
L 172.299958 97.600408 
L 172.197963 97.498932 
L 172.095968 97.496982 
L 172.095968 97.447107 
L 171.993973 97.19529 
L 171.932776 97.173944 
L 171.932776 97.123904 
L 171.891978 97.042865 
L 171.830781 97.071515 
L 171.687987 97.088308 
L 171.687987 97.038136 
L 171.585992 96.683833 
L 171.463598 96.640293 
L 171.361603 96.385174 
L 171.137214 96.388767 
L 171.035219 96.183048 
L 170.831228 96.176731 
L 170.749632 96.11317 
L 170.729233 96.1227 
L 170.545642 96.10671 
L 170.464046 96.042915 
L 170.443647 96.05246 
L 170.280455 96.026752 
L 170.198859 95.962722 
L 170.17846 95.972279 
L 169.974469 95.965529 
L 169.892873 95.747257 
L 169.872474 95.756813 
L 169.790878 95.692258 
L 169.790878 95.64083 
L 169.688883 95.688618 
L 169.607287 95.623884 
L 169.505292 95.362123 
L 169.036114 95.478686 
L 168.954518 95.257618 
L 168.934119 95.267193 
L 168.791326 95.282307 
L 168.791326 95.230299 
L 168.791326 95.126234 
L 168.689331 95.174126 
L 168.566937 95.127421 
L 168.485341 94.956969 
L 168.464942 94.966546 
L 168.424144 94.93344 
L 168.424144 94.881156 
L 168.383345 94.690952 
L 168.322148 94.719619 
L 168.301749 94.624356 
L 168.220153 94.662578 
L 168.118158 94.552886 
L 167.975365 94.514655 
L 167.893769 94.394937 
L 167.87337 94.404494 
L 167.812173 94.380458 
L 167.812173 94.327716 
L 167.812173 94.222185 
L 167.710178 94.269926 
L 167.66938 94.289043 
L 167.66938 94.183353 
L 167.628582 93.990825 
L 167.567385 94.01942 
L 167.342995 94.018392 
L 167.322596 93.868653 
L 167.241 93.906827 
L 167.016611 93.905569 
L 166.914616 93.740148 
L 166.771823 93.70027 
L 166.669827 93.42698 
L 166.649428 93.382929 
L 166.40464 93.443855 
L 166.343443 93.149943 
L 166.302645 93.169008 
L 166.282246 93.178545 
L 166.282246 93.070831 
L 166.241448 93.089886 
L 166.20065 93.001116 
L 166.139453 93.029698 
L 165.915064 93.026627 
L 165.813068 92.912034 
L 165.588679 92.962968 
L 165.56828 92.918277 
L 165.466285 92.63999 
L 165.262295 92.681044 
L 165.241896 92.636093 
L 165.221497 92.536555 
L 165.139901 92.574769 
L 164.752319 92.647451 
L 164.711521 92.337666 
L 164.650324 92.366378 
L 164.568728 92.404702 
L 164.548329 92.304369 
L 164.466733 92.177596 
L 164.446334 92.187163 
L 164.405536 92.206308 
L 164.405536 92.096109 
L 164.364738 92.115237 
L 164.283142 91.987966 
L 164.262743 91.997525 
L 164.160748 92.045365 
L 164.160748 91.934813 
L 164.119949 91.510905 
L 164.058752 91.539443 
L 163.69157 91.600006 
L 163.589575 91.369211 
L 163.528378 91.397833 
L 163.528378 91.286213 
L 163.467181 91.035338 
L 163.426383 91.054348 
L 163.161195 91.066071 
L 163.0592 91.001483 
L 162.834811 90.994007 
L 162.794013 90.844133 
L 162.732816 90.872755 
L 162.528826 90.855417 
L 162.44723 90.724035 
L 162.42683 90.733587 
L 162.406431 90.629918 
L 162.141244 90.754222 
L 162.100446 90.546256 
L 162.039249 90.574943 
L 161.896456 90.641989 
L 161.896456 90.528152 
L 161.81486 90.395483 
L 161.794461 90.405047 
L 161.774062 90.414614 
L 161.774062 90.300496 
L 161.692466 90.052953 
L 161.672067 90.062481 
L 161.631269 90.081547 
L 161.631269 89.967055 
L 161.61087 89.976576 
L 161.529273 89.613098 
L 161.508874 89.62258 
L 161.488475 89.632065 
L 161.488475 89.51712 
L 161.468076 89.526593 
L 161.366081 89.343692 
L 161.223288 89.352292 
L 161.202889 89.304057 
L 161.202889 89.246329 
L 161.100894 89.293663 
L 161.060096 89.196993 
L 160.937702 89.253839 
L 160.835707 88.895375 
L 160.794909 88.798083 
L 160.733712 88.826396 
L 160.733712 88.76825 
L 160.631716 88.815461 
L 160.529721 88.804504 
L 160.611317 88.766698 
L 160.529721 88.746238 
L 160.529721 88.687951 
L 160.427726 88.735198 
L 160.264534 88.752546 
L 160.264534 88.694114 
L 160.264534 88.518699 
L 160.162539 88.565946 
L 159.672962 88.676324 
L 159.632164 88.57773 
L 159.570967 88.606267 
L 159.530169 88.507509 
L 159.387376 88.574136 
L 159.285381 88.326474 
L 159.264982 88.27684 
L 159.040593 88.322266 
L 158.958996 88.123049 
L 158.938597 88.132555 
L 158.387824 88.27118 
L 158.387824 88.211513 
L 158.285829 88.259405 
L 158.224632 88.288179 
L 158.183834 88.187812 
L 158.122636 87.977098 
L 158.081838 87.996227 
L 157.877848 88.032043 
L 157.877848 87.971995 
L 157.83705 87.810848 
L 157.775853 87.839555 
L 157.469868 87.923228 
L 157.449469 87.872509 
L 157.347474 87.799775 
L 157.327075 87.809385 
L 157.306675 87.698058 
L 157.20468 87.624974 
L 157.061887 87.570908 
L 156.959892 87.254221 
L 156.817099 87.260332 
L 156.817099 87.199384 
L 156.715104 87.064172 
L 156.674306 86.961085 
L 156.613109 86.989747 
L 156.613109 86.928581 
L 156.511114 86.976373 
L 156.347921 86.991708 
L 156.327522 86.939959 
L 156.327522 86.878601 
L 156.225527 86.926492 
L 156.041936 87.012908 
L 156.041936 86.951401 
L 155.980739 86.857106 
L 155.939941 86.876312 
L 155.75635 86.901207 
L 155.695153 86.806584 
L 155.654355 86.82583 
L 155.552359 86.874005 
L 155.53196 86.821783 
L 155.429965 86.684141 
L 155.225975 86.718486 
L 155.205576 86.479503 
L 155.12398 86.518002 
L 155.021985 86.503904 
L 154.91999 86.302539 
L 154.879192 86.321784 
L 154.858793 86.268926 
L 154.858793 86.018762 
L 154.756797 86.066714 
L 154.715999 86.085919 
L 154.715999 86.023256 
L 154.6956 85.719153 
L 154.614004 85.75739 
L 154.450812 85.771105 
L 154.348817 85.503877 
L 154.328418 85.513431 
L 154.328418 85.450316 
L 154.226423 85.371696 
L 153.818442 85.499856 
L 153.716447 85.293789 
L 153.430861 85.364559 
L 153.430861 85.300808 
L 153.328866 85.34891 
L 153.288068 85.368175 
L 153.267669 85.31396 
L 153.165674 84.850097 
L 153.145275 84.859667 
L 153.145275 84.795545 
L 153.145275 84.731399 
L 153.043279 84.779201 
L 152.880087 84.791566 
L 152.798491 84.701194 
L 152.778092 84.710777 
L 152.472107 84.790372 
L 152.41091 84.689996 
L 152.370112 84.709239 
L 152.20692 84.721578 
L 152.20692 84.65678 
L 152.104924 84.704989 
L 152.064126 84.724298 
L 152.064126 84.659405 
L 152.064126 84.594488 
L 151.962131 84.64272 
L 151.921333 84.662037 
L 151.921333 84.597025 
L 151.880535 84.421093 
L 151.819338 84.449995 
L 151.717343 84.498236 
L 151.717343 84.433024 
L 151.635747 84.275737 
L 151.615348 84.285369 
L 151.452156 84.362553 
L 151.452156 84.29711 
L 151.452156 84.166152 
L 151.350161 84.214353 
L 151.329761 84.224004 
L 151.329761 84.158425 
L 151.309362 84.16807 
L 151.268564 83.793197 
L 151.207367 83.821984 
L 151.186968 83.831587 
L 151.186968 83.765764 
L 151.166569 83.77536 
L 151.125771 83.596851 
L 151.064574 83.625587 
L 150.982978 83.597926 
L 150.901382 83.239369 
L 150.880983 83.248909 
L 150.860584 83.192189 
L 150.758589 83.23991 
L 150.73819 83.05033 
L 150.656594 83.088458 
L 150.636195 83.031517 
L 150.5342 83.079221 
L 150.493401 82.965139 
L 150.432204 82.993762 
L 150.248613 83.013064 
L 150.167017 82.650004 
L 150.146618 82.659523 
L 150.003825 82.659189 
L 149.963027 82.476841 
L 149.90183 82.505387 
L 149.616243 82.571651 
L 149.616243 82.504246 
L 149.514248 82.552039 
L 149.289859 82.589897 
L 149.228662 82.483343 
L 149.187864 82.502522 
L 149.167465 82.512117 
L 149.167465 82.444364 
L 149.106268 82.337487 
L 149.06547 82.356643 
L 148.963475 82.336654 
L 148.86148 82.112389 
L 148.841081 82.053812 
L 148.800283 82.072929 
L 148.739085 81.828581 
L 148.698287 81.847644 
L 148.514696 81.865156 
L 148.453499 81.688222 
L 148.412701 81.707297 
L 148.392302 81.648212 
L 148.310706 81.686376 
L 148.208711 81.458973 
L 148.188312 81.399619 
L 147.984322 81.494934 
L 147.882326 81.266265 
L 147.698735 81.352116 
L 147.698735 81.282827 
L 147.637538 80.964451 
L 147.59674 80.983452 
L 147.576341 80.992958 
L 147.576341 80.923436 
L 147.494745 80.682903 
L 147.474346 80.692369 
L 147.433548 80.711311 
L 147.413149 80.651036 
L 147.372351 80.390599 
L 147.311154 80.418896 
L 147.147962 80.424475 
L 147.086765 80.312617 
L 147.045966 80.33151 
L 146.841976 80.426203 
L 146.821577 80.365374 
L 146.821577 80.295027 
L 146.719582 80.342413 
L 146.413597 80.414516 
L 146.3524 80.160235 
L 146.311602 80.17923 
L 146.066813 80.222552 
L 145.985217 80.047511 
L 145.964818 80.057025 
L 145.944419 79.995393 
L 145.801626 80.062042 
L 145.699631 79.609869 
L 145.597636 79.585661 
L 145.51604 79.193139 
L 145.495641 79.202554 
L 145.352847 79.196626 
L 145.29165 78.864598 
L 145.250852 78.883365 
L 145.230453 78.820561 
L 145.026463 78.914533 
L 145.026463 78.842184 
L 144.924468 78.889249 
L 144.720478 78.911096 
L 144.700079 78.775291 
L 144.618483 78.813026 
L 144.475689 78.806398 
L 144.434891 78.60662 
L 144.373694 78.634911 
L 144.169704 78.656338 
L 144.128906 78.455629 
L 144.067709 78.483937 
L 144.026911 78.502829 
L 144.006512 78.438928 
L 143.924916 78.182803 
L 143.904517 78.192208 
L 143.761724 78.184492 
L 143.680128 77.92705 
L 143.659728 77.936435 
L 143.41494 77.975324 
L 143.353743 77.706982 
L 143.312945 77.725747 
L 143.272147 77.744528 
L 143.272147 77.670242 
L 143.21095 77.549657 
L 143.170152 77.568396 
L 143.00696 77.568954 
L 142.945763 77.373174 
L 142.904965 77.391905 
L 142.700974 77.410916 
L 142.639777 77.064031 
L 142.598979 77.082716 
L 142.456186 77.148236 
L 142.435787 77.082362 
L 142.354191 76.818313 
L 142.333792 76.827639 
L 142.313393 76.836969 
L 142.313393 76.761478 
L 142.292994 76.770798 
L 142.190999 76.590543 
L 141.96661 76.693078 
L 141.96661 76.617222 
L 141.96661 76.541335 
L 141.864614 76.587958 
L 141.762619 76.634681 
L 141.74222 76.567962 
L 141.721821 76.425034 
L 141.640225 76.462345 
L 141.53823 76.509073 
L 141.53823 76.43276 
L 141.517831 76.289351 
L 141.436235 76.32665 
L 141.293442 76.315494 
L 141.191447 76.132119 
L 141.10985 76.092601 
L 141.10985 76.015726 
L 141.007855 76.062326 
L 140.885461 76.041312 
L 140.783466 75.779173 
L 140.640673 75.766973 
L 140.640673 75.612061 
L 140.538678 75.658537 
L 140.436683 75.627461 
L 140.436683 75.549774 
L 140.334688 75.596304 
L 140.049101 75.727122 
L 140.028702 75.658481 
L 139.967505 75.374003 
L 139.926707 75.39264 
L 139.763515 75.388968 
L 139.702318 75.181527 
L 139.66152 75.200149 
L 139.620722 75.218787 
L 139.620722 75.140165 
L 139.559525 75.010671 
L 139.518727 75.029258 
L 139.335135 75.113105 
L 139.335135 75.034168 
L 139.23314 74.764418 
L 139.192342 74.782983 
L 139.171943 74.71304 
L 139.171943 74.475135 
L 139.069948 74.521333 
L 138.82516 74.552989 
L 138.723165 74.360112 
L 138.315184 74.465908 
L 138.233588 74.101563 
L 138.213189 74.110827 
L 138.172391 74.129366 
L 138.151992 74.058137 
L 138.151992 73.977596 
L 138.049997 74.023878 
L 138.029598 73.952475 
L 137.9888 73.970993 
L 137.9888 73.890253 
L 137.886805 73.936541 
L 137.78481 73.982932 
L 137.764411 73.911271 
L 137.764411 73.830284 
L 137.662415 73.876639 
L 137.315632 73.953647 
L 137.254435 73.818711 
L 137.213637 73.837352 
L 136.764858 73.961589 
L 136.764858 73.879624 
L 136.662863 73.926602 
L 136.458873 74.020878 
L 136.458873 73.938628 
L 136.356878 73.821066 
L 136.336479 73.830489 
L 136.336479 73.748028 
L 136.31608 73.757438 
L 136.214085 73.63932 
L 135.928498 73.688443 
L 135.826503 72.987068 
L 135.602114 73.006216 
L 135.500119 72.718014 
L 135.296129 72.727184 
L 135.234932 72.334266 
L 135.194134 72.352772 
L 135.132936 72.380563 
L 135.132936 72.296178 
L 135.092138 72.061197 
L 135.030941 72.088844 
L 134.806552 72.105721 
L 134.765754 71.869422 
L 134.704557 71.897063 
L 134.602562 71.943217 
L 134.602562 71.858059 
L 134.602562 71.772862 
L 134.500567 71.818946 
L 134.357774 71.798195 
L 134.357774 71.712703 
L 134.255778 71.758869 
L 134.194581 71.78662 
L 134.194581 71.700945 
L 134.194581 71.61523 
L 134.092586 71.661389 
L 134.072187 71.670634 
L 134.072187 71.58477 
L 134.051788 71.594001 
L 133.990591 71.191432 
L 133.949793 71.209752 
L 133.868197 71.246445 
L 133.868197 71.160156 
L 133.827399 71.005718 
L 133.766202 71.033145 
L 133.501015 71.065704 
L 133.460217 70.910405 
L 133.399019 70.937901 
L 133.317423 70.88759 
L 133.256226 70.740822 
L 133.215428 70.759124 
L 133.113433 70.717612 
L 133.093034 70.464437 
L 133.011438 70.500899 
L 132.827847 70.583194 
L 132.827847 70.49542 
L 132.807448 70.328855 
L 132.725852 70.365336 
L 132.54226 70.359508 
L 132.440265 69.963364 
L 132.277073 69.947441 
L 132.215876 69.619389 
L 132.175078 69.637453 
L 131.93029 69.746208 
L 131.93029 69.656991 
L 131.93029 69.567731 
L 131.828295 69.613037 
L 131.807896 69.532691 
L 131.583506 69.632588 
L 131.50191 69.489484 
L 131.481511 69.498571 
L 131.277521 69.499616 
L 131.277521 69.409505 
L 131.175526 69.45503 
L 131.155127 69.373874 
L 131.09393 69.401196 
L 131.053132 69.057489 
L 130.991935 69.084638 
L 130.828742 69.066411 
L 130.726747 68.838794 
L 130.66555 68.865915 
L 130.66555 68.774753 
L 130.66555 68.683546 
L 130.563555 68.728632 
L 130.420762 68.700443 
L 130.420762 68.608899 
L 130.318767 68.65405 
L 129.727195 68.825865 
L 129.686397 68.474372 
L 129.6252 68.501626 
L 129.502806 68.463502 
L 129.502806 68.370697 
L 129.400811 68.41614 
L 128.890835 68.551597 
L 128.890835 68.458059 
L 128.78884 68.503984 
L 128.299263 68.631847 
L 128.299263 68.537587 
L 128.197268 68.583979 
L 127.95248 68.601126 
L 127.932081 68.420901 
L 127.850485 68.458086 
L 127.442504 68.549785 
L 127.442504 68.454353 
L 127.340509 68.501204 
L 127.32011 68.414973 
L 127.279312 68.433712 
L 127.177317 68.193027 
L 126.973327 68.190385 
L 126.891731 67.745646 
L 126.871332 67.754911 
L 126.565346 67.894477 
L 126.565346 67.797517 
L 126.463351 67.552632 
L 126.177765 67.58533 
L 126.177765 67.194382 
L 126.07577 67.240568 
L 125.892179 67.225815 
L 125.892179 67.127566 
L 125.790184 67.17386 
L 124.851828 67.506098 
L 124.831429 67.216606 
L 124.749833 67.254288 
L 124.362252 67.434399 
L 124.362252 67.334068 
L 124.260257 66.87856 
L 124.076666 66.862409 
L 123.995069 66.5965 
L 123.97467 66.605875 
L 123.811478 66.681057 
L 123.811478 66.579499 
L 123.750281 66.404267 
L 123.709483 66.422993 
L 123.689084 66.330485 
L 123.648286 66.349191 
L 123.56669 65.977977 
L 123.546291 65.987256 
L 123.423897 65.940543 
L 123.383099 65.753866 
L 123.321902 65.781624 
L 123.036315 65.808616 
L 122.93432 65.648463 
L 122.485542 65.749841 
L 122.424345 65.465249 
L 122.383547 65.483868 
L 121.975566 65.566267 
L 121.975566 65.461257 
L 121.873571 65.508155 
L 121.649182 65.506296 
L 121.608384 65.313857 
L 121.547187 65.342023 
L 121.098408 65.443619 
L 121.037211 65.152195 
L 120.996413 65.171046 
L 120.64963 65.224868 
L 120.608831 65.028982 
L 120.547634 65.057357 
L 120.22125 65.101445 
L 120.180452 64.795717 
L 120.119255 64.824095 
L 119.894866 64.928572 
L 119.874467 64.829279 
L 119.874467 64.72039 
L 119.772471 64.767839 
L 119.731673 64.786858 
L 119.731673 64.6777 
L 119.711274 64.687189 
L 119.629678 64.506397 
L 119.609279 64.515855 
L 119.568481 64.534787 
L 119.568481 64.425201 
L 119.548082 64.434646 
L 119.446087 64.152275 
L 119.425688 64.161664 
L 119.425688 64.051612 
L 119.38489 64.070347 
L 119.38489 63.96017 
L 119.282895 64.006957 
L 119.262496 64.016331 
L 119.262496 63.905909 
L 119.221698 63.924613 
L 119.221698 63.814066 
L 119.119703 63.860774 
L 118.874914 63.973442 
L 118.834116 63.881111 
L 118.732121 63.593779 
L 118.487333 63.706263 
L 118.466934 63.603667 
L 118.466934 63.379453 
L 118.364939 63.426125 
L 118.160949 63.407219 
L 118.14055 63.190978 
L 118.058953 63.228292 
L 117.834564 63.217988 
L 117.834564 63.104536 
L 117.732569 63.151302 
L 117.202194 63.282286 
L 117.181795 63.062474 
L 117.100199 63.100226 
L 116.549426 63.241738 
L 116.46783 62.815764 
L 116.447431 62.825234 
L 116.365834 62.863173 
L 116.345435 62.756211 
L 116.284238 62.551302 
L 116.24344 62.570154 
L 116.121046 62.626851 
L 116.100647 62.519238 
L 116.019051 61.969846 
L 115.998652 61.979143 
L 115.305085 62.179869 
L 115.284686 61.951311 
L 115.20309 61.988971 
L 115.162292 61.888499 
L 114.917504 62.001779 
L 114.917504 61.76203 
L 114.815509 61.809133 
L 114.774711 61.707779 
L 114.652316 61.764361 
L 114.591119 61.430591 
L 114.550321 61.449322 
L 114.142341 61.516299 
L 114.040346 61.319726 
L 113.591567 61.405441 
L 113.571168 61.168842 
L 113.489572 61.206674 
L 113.428375 61.235113 
L 113.32638 61.035296 
L 113.285582 61.054199 
L 113.285582 60.930331 
L 113.183587 60.977508 
L 113.020395 61.053315 
L 113.020395 60.928872 
L 112.918399 60.976265 
L 112.836803 61.014294 
L 112.836803 60.889423 
L 112.734808 60.936909 
L 112.673611 60.965476 
L 112.592015 60.627155 
L 112.571616 60.636599 
L 112.530818 60.655507 
L 112.510419 60.161169 
L 112.428823 60.19846 
L 112.367626 60.226494 
L 112.367626 60.100057 
L 112.265631 60.146709 
L 112.245232 60.156058 
L 112.184035 59.803255 
L 112.143237 59.821772 
L 112.041241 59.868174 
L 111.980044 59.513229 
L 111.939246 59.531631 
L 111.85765 59.56851 
L 111.85765 59.440474 
L 111.755655 59.486511 
L 111.531266 59.588348 
L 111.44967 59.367608 
L 111.429271 59.376847 
L 111.306877 59.432416 
L 111.306877 59.303015 
L 111.204881 59.349291 
L 111.123285 59.386426 
L 111.123285 59.256563 
L 111.02129 59.302919 
L 110.898896 59.358757 
L 110.796901 59.144133 
L 110.40932 59.321506 
L 110.40932 59.189897 
L 110.307324 59.236753 
L 110.205329 59.283772 
L 110.205329 59.151642 
L 110.103334 59.198611 
L 109.878945 59.302526 
L 109.858546 59.046002 
L 109.77695 59.083667 
L 109.674955 59.130898 
L 109.674955 58.997358 
L 109.57296 59.044536 
L 109.511762 59.072924 
L 109.491363 58.81424 
L 109.409767 58.851856 
L 109.226176 58.936886 
L 109.226176 58.802084 
L 109.124181 58.849335 
L 109.022186 58.896756 
L 109.022186 58.761407 
L 108.920191 58.808772 
L 108.369417 59.067512 
L 108.369417 58.930604 
L 108.267422 58.978845 
L 108.226624 58.99819 
L 108.226624 58.860858 
L 108.124629 58.909113 
L 107.941038 58.996416 
L 107.941038 58.858329 
L 107.839042 58.906845 
L 107.635052 59.004411 
L 107.533057 58.775091 
L 107.227072 58.921901 
L 107.206673 58.511103 
L 107.125077 58.549976 
L 106.43151 58.88513 
L 106.370313 58.487461 
L 106.329515 58.507188 
L 106.309116 58.517063 
L 106.268318 58.25069 
L 106.207121 58.280101 
L 105.941933 58.408327 
L 105.901135 58.139755 
L 105.839938 58.169264 
L 105.554352 58.307871 
L 105.533953 58.027113 
L 105.452357 58.066603 
L 105.431958 58.076494 
L 105.329963 57.54119 
L 105.187169 57.609434 
L 105.16677 57.325246 
L 105.085174 57.364013 
L 104.75879 57.520294 
L 104.75879 57.223717 
L 104.656795 57.272414 
L 104.33041 57.429535 
L 104.248814 56.869079 
L 104.228415 56.878775 
L 104.044824 56.966379 
L 103.963228 56.551876 
L 103.942829 56.56151 
L 103.840834 56.609799 
L 103.840834 56.458004 
L 103.738839 56.506201 
L 103.636844 56.554591 
L 103.636844 56.249493 
L 103.534848 56.297503 
L 102.861681 56.619282 
L 102.861681 56.464331 
L 102.759686 56.513546 
L 102.596493 56.59271 
L 102.596493 56.280878 
L 102.494498 56.330019 
L 102.474099 56.339872 
L 102.4537 56.036543 
L 102.372104 56.075582 
L 102.147715 56.183609 
L 102.066119 55.748894 
L 102.04572 55.758612 
L 101.882528 55.836643 
L 101.780532 55.567115 
L 101.270557 55.812238 
L 101.270557 55.651172 
L 101.168562 55.7005 
L 101.086966 55.740113 
L 101.046168 55.436012 
L 100.98497 55.465472 
L 100.882975 55.51474 
L 100.882975 55.352033 
L 100.78098 55.401185 
L 100.373 55.599916 
L 100.352601 55.28067 
L 100.271005 55.320328 
L 100.087413 55.410062 
L 100.087413 55.244336 
L 99.985418 55.294153 
L 99.965019 55.304143 
L 99.863024 54.853922 
L 99.842625 54.863758 
L 99.801827 54.548779 
L 99.74063 54.577975 
L 99.679433 54.607249 
L 99.679433 54.439273 
L 99.577438 54.487886 
L 99.495842 54.526931 
L 99.495842 54.358177 
L 99.393847 54.406826 
L 98.985866 54.603596 
L 98.985866 54.432914 
L 98.883871 54.482297 
L 98.761477 54.54185 
L 98.761477 54.370219 
L 98.659482 54.419728 
L 98.414693 54.539465 
L 98.414693 54.193243 
L 98.312698 54.242777 
L 98.251501 54.272606 
L 98.169905 53.789304 
L 98.149506 53.799077 
L 97.86392 53.93683 
L 97.802723 53.614246 
L 97.761925 53.633818 
L 97.517136 53.752013 
L 97.43554 53.43593 
L 97.415141 53.445719 
L 96.966363 53.663419 
L 96.945964 53.313181 
L 96.864368 53.352643 
L 96.619579 53.471929 
L 96.619579 53.29026 
L 96.517584 53.339956 
L 96.354392 53.419963 
L 96.354392 53.053969 
L 96.252397 53.103456 
L 96.1912 53.133263 
L 96.1912 52.949338 
L 96.089205 52.998787 
L 96.028008 53.028571 
L 96.028008 52.658846 
L 95.926013 52.707832 
L 95.864815 52.737338 
L 95.864815 52.551528 
L 95.76282 52.600468 
L 95.742421 52.610284 
L 95.742421 52.237095 
L 95.640426 52.285459 
L 95.55883 52.324321 
L 95.55883 51.948844 
L 95.456835 51.996763 
L 95.171249 52.132193 
L 95.110052 51.781361 
L 95.069254 51.800562 
L 94.844864 51.90685 
L 94.844864 51.715349 
L 94.742869 51.763594 
L 94.72247 51.773272 
L 94.72247 51.581034 
L 94.620475 51.629111 
L 94.51848 51.677431 
L 94.51848 51.290538 
L 94.416485 51.338174 
L 94.171696 51.453486 
L 94.069701 51.110149 
L 94.008504 51.138775 
L 94.008504 50.942291 
L 93.906509 50.989718 
L 93.539327 51.162485 
L 93.539327 50.963576 
L 93.437332 51.011648 
L 93.233341 51.108543 
L 93.233341 50.907949 
L 93.131346 50.956278 
L 93.090548 50.97568 
L 93.070149 50.379954 
L 92.988553 50.417711 
L 92.804962 50.503247 
L 92.804962 50.299687 
L 92.702967 50.347046 
L 92.458178 50.461735 
L 92.41738 50.069288 
L 92.356183 50.097622 
L 92.274587 50.135543 
L 92.172592 49.560151 
L 92.111395 49.587891 
L 92.111395 49.379449 
L 92.0094 49.425344 
L 91.825809 49.508584 
L 91.825809 49.2984 
L 91.723814 49.344449 
L 91.560621 49.418653 
L 91.560621 49.206808 
L 91.458626 49.25296 
L 91.111843 49.411792 
L 91.091444 48.991658 
L 91.009848 49.028594 
L 90.928252 49.065695 
L 90.928252 48.849633 
L 90.826257 48.895664 
L 90.561069 49.016559 
L 90.561069 48.798154 
L 90.459074 48.844534 
L 89.765507 49.167013 
L 89.765507 48.943653 
L 89.663512 48.991528 
L 89.418724 49.107566 
L 89.418724 48.881828 
L 89.316729 48.930026 
L 88.908748 49.125669 
L 88.908748 48.896467 
L 88.806753 48.945452 
L 88.561965 49.064213 
L 88.45997 48.416242 
L 87.909196 48.680439 
L 87.807201 47.778189 
L 86.522062 48.397323 
L 86.481264 47.920894 
L 86.420067 47.950784 
L 86.379269 47.970775 
L 86.379269 47.721078 
L 86.277274 47.770507 
L 85.808097 48.002049 
L 85.706102 47.542527 
L 85.685703 47.552497 
L 85.665303 47.049701 
L 85.583707 47.088462 
L 85.400116 47.176428 
L 85.400116 46.917392 
L 85.298121 46.965886 
L 85.11453 47.053998 
L 85.11453 46.792266 
L 85.012535 46.840829 
L 84.930939 46.879917 
L 84.930939 46.616295 
L 84.828944 46.664591 
L 84.563756 46.791708 
L 84.563756 46.52459 
L 84.461761 46.573202 
L 84.176175 46.711111 
L 84.176175 46.440222 
L 84.07418 46.489218 
L 83.910987 46.568326 
L 83.910987 46.294674 
L 83.808992 46.34364 
L 82.952233 46.768993 
L 82.952233 46.485941 
L 82.850238 46.537319 
L 82.666647 46.630749 
L 82.666647 46.344476 
L 82.564652 46.395901 
L 82.319864 46.520881 
L 82.319864 46.230689 
L 82.217868 46.28238 
L 82.156671 46.31358 
L 82.054676 45.484471 
L 82.034277 45.49434 
L 82.034277 45.199431 
L 81.932282 45.247921 
L 81.381508 45.516246 
L 81.361109 44.920628 
L 81.279513 44.959578 
L 81.055124 45.067951 
L 81.055124 44.760902 
L 80.953129 44.809613 
L 80.647144 44.958076 
L 80.647144 44.645792 
L 80.545148 44.694862 
L 80.055572 44.935974 
L 80.055572 44.616013 
L 79.953577 44.666168 
L 79.688389 44.79852 
L 79.688389 44.473396 
L 79.586394 44.523751 
L 79.076419 44.781963 
L 79.05602 44.123936 
L 78.974424 44.164127 
L 78.586842 44.35886 
L 78.586842 44.017195 
L 78.484847 44.068067 
L 78.260458 44.181568 
L 78.260458 43.834605 
L 78.158463 43.885434 
L 78.01567 43.957358 
L 78.01567 43.606157 
L 77.913674 43.656553 
L 77.036516 44.109418 
L 77.036516 43.742246 
L 76.934521 43.795605 
L 76.628536 43.958737 
L 76.628536 43.584057 
L 76.526541 43.637732 
L 76.383748 43.713749 
L 76.383748 43.334121 
L 76.281752 43.38726 
L 74.160254 44.622795 
L 74.139855 44.636025 
L 74.139855 44.211743 
L 74.03786 44.276087 
L 73.874668 44.380509 
L 73.874668 43.517363 
L 73.772673 43.578931 
L 72.977111 44.08362 
L 72.977111 43.629199 
L 72.875115 43.694649 
L 72.528332 43.922997 
L 72.528332 43.455942 
L 72.426337 43.522157 
L 71.651174 44.052537 
L 71.651174 43.559828 
L 71.549179 43.630383 
L 71.283992 43.818068 
L 71.283992 43.313009 
L 71.181997 43.383701 
L 70.631223 43.781836 
L 70.631223 43.254327 
L 70.529228 43.327779 
L 70.325238 43.477706 
L 70.325238 42.938185 
L 70.223242 43.011076 
L 70.121247 43.084982 
L 70.121247 42.536637 
L 70.019252 42.607834 
L 69.835661 42.738542 
L 69.815262 41.628999 
L 69.733666 41.68205 
L 69.386882 41.914489 
L 69.386882 40.749543 
L 69.284887 40.811682 
L 69.162493 40.887479 
L 69.162493 40.292951 
L 69.060498 40.35276 
L 68.224138 40.879642 
L 68.224138 40.239886 
L 68.122143 40.303849 
L 67.55097 40.682242 
L 67.55097 40.004902 
L 67.448975 40.070591 
L 66.367827 40.843672 
L 66.367827 40.09052 
L 66.265832 40.164485 
L 65.87825 40.459018 
L 65.87825 39.667438 
L 65.776255 39.740865 
L 64.491117 40.811682 
L 63.491564 41.88809 
L 63.491564 40.855732 
L 63.389569 40.967901 
L 63.205978 41.177488 
L 63.205978 40.101 
L 63.103983 40.207393 
L 62.675604 40.688316 
L 62.675604 39.524902 
L 62.573608 39.631272 
L 62.430815 39.785638 
L 62.430815 38.573212 
L 62.32882 38.669099 
L 61.900441 39.106609 
L 61.900441 37.782801 
L 61.798446 37.874067 
L 60.880489 38.859736 
L 60.105327 40.01795 
L 59.432159 41.422722 
L 58.820188 43.239755 
L 58.820188 40.584288 
L 58.718193 40.870518 
L 58.228616 42.579235 
L 58.228616 39.243052 
L 58.126621 39.545925 
L 57.800237 40.724944 
L 57.800237 36.604903 
L 57.698242 36.836045 
L 57.290261 38.086163 
L 56.943478 39.876842 
L 56.637492 42.753272 
L 56.392704 47.355559 
L 56.249911 52.590661 
L 56.249911 32.398125 
L 56.147916 32.398125 
L 55.86233 32.398125 
L 55.86233 32.398125 
" clip-path="url(#p1650925c7f)" style="fill: none; stroke: #1f77b4; stroke-width: 1.5; stroke-linecap: square"/>
   </g>
   <g id="patch_3">
    <path d="M 45.716875 244.078125 
L 45.716875 22.318125 
" style="fill: none; stroke: #000000; stroke-width: 0.8; stroke-linejoin: miter; stroke-linecap: square"/>
   </g>
   <g id="patch_4">
    <path d="M 268.916875 244.078125 
L 268.916875 22.318125 
" style="fill: none; stroke: #000000; stroke-width: 0.8; stroke-linejoin: miter; stroke-linecap: square"/>
   </g>
   <g id="patch_5">
    <path d="M 45.716875 244.078125 
L 268.916875 244.078125 
" style="fill: none; stroke: #000000; stroke-width: 0.8; stroke-linejoin: miter; stroke-linecap: square"/>
   </g>
   <g id="patch_6">
    <path d="M 45.716875 22.318125 
L 268.916875 22.318125 
" style="fill: none; stroke: #000000; stroke-width: 0.8; stroke-linejoin: miter; stroke-linecap: square"/>
   </g>
   <g id="text_15">
    <!-- PR Curve: Logistic Regression -->
    <g transform="translate(68.441875 16.318125)scale(0.12 -0.12)">
     <defs>
      <path id="DejaVuSans-20" transform="scale(0.015625)"/>
      <path id="DejaVuSans-43" d="M 4122 4306 
L 4122 3641 
Q 3803 3938 3442 4084 
Q 3081 4231 2675 4231 
Q 1875 4231 1450 3742 
Q 1025 3253 1025 2328 
Q 1025 1406 1450 917 
Q 1875 428 2675 428 
Q 3081 428 3442 575 
Q 3803 722 4122 1019 
L 4122 359 
Q 3791 134 3420 21 
Q 3050 -91 2638 -91 
Q 1578 -91 968 557 
Q 359 1206 359 2328 
Q 359 3453 968 4101 
Q 1578 4750 2638 4750 
Q 3056 4750 3426 4639 
Q 3797 4528 4122 4306 
z
" transform="scale(0.015625)"/>
      <path id="DejaVuSans-75" d="M 544 1381 
L 544 3500 
L 1119 3500 
L 1119 1403 
Q 1119 906 1312 657 
Q 1506 409 1894 409 
Q 2359 409 2629 706 
Q 2900 1003 2900 1516 
L 2900 3500 
L 3475 3500 
L 3475 0 
L 2900 0 
L 2900 538 
Q 2691 219 2414 64 
Q 2138 -91 1772 -91 
Q 1169 -91 856 284 
Q 544 659 544 1381 
z
M 1991 3584 
L 1991 3584 
z
" transform="scale(0.015625)"/>
      <path id="DejaVuSans-76" d="M 191 3500 
L 800 3500 
L 1894 563 
L 2988 3500 
L 3597 3500 
L 2284 0 
L 1503 0 
L 191 3500 
z
" transform="scale(0.015625)"/>
      <path id="DejaVuSans-3a" d="M 750 794 
L 1409 794 
L 1409 0 
L 750 0 
L 750 794 
z
M 750 3309 
L 1409 3309 
L 1409 2516 
L 750 2516 
L 750 3309 
z
" transform="scale(0.015625)"/>
      <path id="DejaVuSans-4c" d="M 628 4666 
L 1259 4666 
L 1259 531 
L 3531 531 
L 3531 0 
L 628 0 
L 628 4666 
z
" transform="scale(0.015625)"/>
      <path id="DejaVuSans-67" d="M 2906 1791 
Q 2906 2416 2648 2759 
Q 2391 3103 1925 3103 
Q 1463 3103 1205 2759 
Q 947 2416 947 1791 
Q 947 1169 1205 825 
Q 1463 481 1925 481 
Q 2391 481 2648 825 
Q 2906 1169 2906 1791 
z
M 3481 434 
Q 3481 -459 3084 -895 
Q 2688 -1331 1869 -1331 
Q 1566 -1331 1297 -1286 
Q 1028 -1241 775 -1147 
L 775 -588 
Q 1028 -725 1275 -790 
Q 1522 -856 1778 -856 
Q 2344 -856 2625 -561 
Q 2906 -266 2906 331 
L 2906 616 
Q 2728 306 2450 153 
Q 2172 0 1784 0 
Q 1141 0 747 490 
Q 353 981 353 1791 
Q 353 2603 747 3093 
Q 1141 3584 1784 3584 
Q 2172 3584 2450 3431 
Q 2728 3278 2906 2969 
L 2906 3500 
L 3481 3500 
L 3481 434 
z
" transform="scale(0.015625)"/>
      <path id="DejaVuSans-74" d="M 1172 4494 
L 1172 3500 
L 2356 3500 
L 2356 3053 
L 1172 3053 
L 1172 1153 
Q 1172 725 1289 603 
Q 1406 481 1766 481 
L 2356 481 
L 2356 0 
L 1766 0 
Q 1100 0 847 248 
Q 594 497 594 1153 
L 594 3053 
L 172 3053 
L 172 3500 
L 594 3500 
L 594 4494 
L 1172 4494 
z
" transform="scale(0.015625)"/>
     </defs>
     <use xlink:href="#DejaVuSans-50"/>
     <use xlink:href="#DejaVuSans-52" x="60.302734"/>
     <use xlink:href="#DejaVuSans-20" x="129.785156"/>
     <use xlink:href="#DejaVuSans-43" x="161.572266"/>
     <use xlink:href="#DejaVuSans-75" x="231.396484"/>
     <use xlink:href="#DejaVuSans-72" x="294.775391"/>
     <use xlink:href="#DejaVuSans-76" x="335.888672"/>
     <use xlink:href="#DejaVuSans-65" x="395.068359"/>
     <use xlink:href="#DejaVuSans-3a" x="456.591797"/>
     <use xlink:href="#DejaVuSans-20" x="490.283203"/>
     <use xlink:href="#DejaVuSans-4c" x="522.070312"/>
     <use xlink:href="#DejaVuSans-6f" x="576.033203"/>
     <use xlink:href="#DejaVuSans-67" x="637.214844"/>
     <use xlink:href="#DejaVuSans-69" x="700.691406"/>
     <use xlink:href="#DejaVuSans-73" x="728.474609"/>
     <use xlink:href="#DejaVuSans-74" x="780.574219"/>
     <use xlink:href="#DejaVuSans-69" x="819.783203"/>
     <use xlink:href="#DejaVuSans-63" x="847.566406"/>
     <use xlink:href="#DejaVuSans-20" x="902.546875"/>
     <use xlink:href="#DejaVuSans-52" x="934.333984"/>
     <use xlink:href="#DejaVuSans-65" x="999.316406"/>
     <use xlink:href="#DejaVuSans-67" x="1060.839844"/>
     <use xlink:href="#DejaVuSans-72" x="1124.316406"/>
     <use xlink:href="#DejaVuSans-65" x="1163.179688"/>
     <use xlink:href="#DejaVuSans-73" x="1224.703125"/>
     <use xlink:href="#DejaVuSans-73" x="1276.802734"/>
     <use xlink:href="#DejaVuSans-69" x="1328.902344"/>
     <use xlink:href="#DejaVuSans-6f" x="1356.685547"/>
     <use xlink:href="#DejaVuSans-6e" x="1417.867188"/>
    </g>
   </g>
   <g id="legend_1">
    <g id="patch_7">
     <path d="M 52.716875 239.078125 
L 197.591875 239.078125 
Q 199.591875 239.078125 199.591875 237.078125 
L 199.591875 223.4 
Q 199.591875 221.4 197.591875 221.4 
L 52.716875 221.4 
Q 50.716875 221.4 50.716875 223.4 
L 50.716875 237.078125 
Q 50.716875 239.078125 52.716875 239.078125 
z
" style="fill: #ffffff; opacity: 0.8; stroke: #cccccc; stroke-linejoin: miter"/>
    </g>
    <g id="line2d_26">
     <path d="M 54.716875 229.498437 
L 64.716875 229.498437 
L 74.716875 229.498437 
" style="fill: none; stroke: #1f77b4; stroke-width: 1.5; stroke-linecap: square"/>
    </g>
    <g id="text_16">
     <!-- PR Curve (AP = 0.842) -->
     <g transform="translate(82.716875 232.998437)scale(0.1 -0.1)">
      <defs>
       <path id="DejaVuSans-28" d="M 1984 4856 
Q 1566 4138 1362 3434 
Q 1159 2731 1159 2009 
Q 1159 1288 1364 580 
Q 1569 -128 1984 -844 
L 1484 -844 
Q 1016 -109 783 600 
Q 550 1309 550 2009 
Q 550 2706 781 3412 
Q 1013 4119 1484 4856 
L 1984 4856 
z
" transform="scale(0.015625)"/>
       <path id="DejaVuSans-41" d="M 2188 4044 
L 1331 1722 
L 3047 1722 
L 2188 4044 
z
M 1831 4666 
L 2547 4666 
L 4325 0 
L 3669 0 
L 3244 1197 
L 1141 1197 
L 716 0 
L 50 0 
L 1831 4666 
z
" transform="scale(0.015625)"/>
       <path id="DejaVuSans-3d" d="M 678 2906 
L 4684 2906 
L 4684 2381 
L 678 2381 
L 678 2906 
z
M 678 1631 
L 4684 1631 
L 4684 1100 
L 678 1100 
L 678 1631 
z
" transform="scale(0.015625)"/>
       <path id="DejaVuSans-29" d="M 513 4856 
L 1013 4856 
Q 1481 4119 1714 3412 
Q 1947 2706 1947 2009 
Q 1947 1309 1714 600 
Q 1481 -109 1013 -844 
L 513 -844 
Q 928 -128 1133 580 
Q 1338 1288 1338 2009 
Q 1338 2731 1133 3434 
Q 928 4138 513 4856 
z
" transform="scale(0.015625)"/>
      </defs>
      <use xlink:href="#DejaVuSans-50"/>
      <use xlink:href="#DejaVuSans-52" x="60.302734"/>
      <use xlink:href="#DejaVuSans-20" x="129.785156"/>
      <use xlink:href="#DejaVuSans-43" x="161.572266"/>
      <use xlink:href="#DejaVuSans-75" x="231.396484"/>
      <use xlink:href="#DejaVuSans-72" x="294.775391"/>
      <use xlink:href="#DejaVuSans-76" x="335.888672"/>
      <use xlink:href="#DejaVuSans-65" x="395.068359"/>
      <use xlink:href="#DejaVuSans-20" x="456.591797"/>
      <use xlink:href="#DejaVuSans-28" x="488.378906"/>
      <use xlink:href="#DejaVuSans-41" x="527.392578"/>
      <use xlink:href="#DejaVuSans-50" x="595.800781"/>
      <use xlink:href="#DejaVuSans-20" x="656.103516"/>
      <use xlink:href="#DejaVuSans-3d" x="687.890625"/>
      <use xlink:href="#DejaVuSans-20" x="771.679688"/>
      <use xlink:href="#DejaVuSans-30" x="803.466797"/>
      <use xlink:href="#DejaVuSans-2e" x="867.089844"/>
      <use xlink:href="#DejaVuSans-38" x="898.876953"/>
      <use xlink:href="#DejaVuSans-34" x="962.5"/>
      <use xlink:href="#DejaVuSans-32" x="1026.123047"/>
      <use xlink:href="#DejaVuSans-29" x="1089.746094"/>
     </g>
    </g>
   </g>
  </g>
 </g>
 <defs>
  <clipPath id="p1650925c7f">
   <rect x="45.716875" y="22.318125" width="223.2" height="221.76"/>
  </clipPath>
 </defs>
</svg>
