<?xml version="1.0" encoding="utf-8" standalone="no"?>
<!DOCTYPE svg PUBLIC "-//W3C//DTD SVG 1.1//EN"
  "http://www.w3.org/Graphics/SVG/1.1/DTD/svg11.dtd">
<svg xmlns:xlink="http://www.w3.org/1999/xlink" width="276.116875pt" height="283.57pt" viewBox="0 0 276.116875 283.57" xmlns="http://www.w3.org/2000/svg" version="1.1">
 <metadata>
  <rdf:RDF xmlns:dc="http://purl.org/dc/elements/1.1/" xmlns:cc="http://creativecommons.org/ns#" xmlns:rdf="http://www.w3.org/1999/02/22-rdf-syntax-ns#">
   <cc:Work>
    <dc:type rdf:resource="http://purl.org/dc/dcmitype/StillImage"/>
    <dc:date>2025-02-17T13:01:31.064354</dc:date>
    <dc:format>image/svg+xml</dc:format>
    <dc:creator>
     <cc:Agent>
      <dc:title>Matplotlib v3.5.3, https://matplotlib.org/</dc:title>
     </cc:Agent>
    </dc:creator>
   </cc:Work>
  </rdf:RDF>
 </metadata>
 <defs>
  <style type="text/css">*{stroke-linejoin: round; stroke-linecap: butt}</style>
 </defs>
 <g id="figure_1">
  <g id="patch_1">
   <path d="M 0 283.57 
L 276.116875 283.57 
L 276.116875 0 
L 0 0 
z
" style="fill: #ffffff"/>
  </g>
  <g id="axes_1">
   <g id="patch_2">
    <path d="M 45.716875 244.078125 
L 268.916875 244.078125 
L 268.916875 22.318125 
L 45.716875 22.318125 
z
" style="fill: #ffffff"/>
   </g>
   <g id="matplotlib.axis_1">
    <g id="xtick_1">
     <g id="line2d_1">
      <path d="M 55.86233 244.078125 
L 55.86233 22.318125 
" clip-path="url(#p89d0631c67)" style="fill: none; stroke: #b0b0b0; stroke-width: 0.8; stroke-linecap: square"/>
     </g>
     <g id="line2d_2">
      <defs>
       <path id="mc42881494d" d="M 0 0 
L 0 3.5 
" style="stroke: #000000; stroke-width: 0.8"/>
      </defs>
      <g>
       <use xlink:href="#mc42881494d" x="55.86233" y="244.078125" style="stroke: #000000; stroke-width: 0.8"/>
      </g>
     </g>
     <g id="text_1">
      <!-- 0.0 -->
      <g transform="translate(47.910767 258.676562)scale(0.1 -0.1)">
       <defs>
        <path id="DejaVuSans-30" d="M 2034 4250 
Q 1547 4250 1301 3770 
Q 1056 3291 1056 2328 
Q 1056 1369 1301 889 
Q 1547 409 2034 409 
Q 2525 409 2770 889 
Q 3016 1369 3016 2328 
Q 3016 3291 2770 3770 
Q 2525 4250 2034 4250 
z
M 2034 4750 
Q 2819 4750 3233 4129 
Q 3647 3509 3647 2328 
Q 3647 1150 3233 529 
Q 2819 -91 2034 -91 
Q 1250 -91 836 529 
Q 422 1150 422 2328 
Q 422 3509 836 4129 
Q 1250 4750 2034 4750 
z
" transform="scale(0.015625)"/>
        <path id="DejaVuSans-2e" d="M 684 794 
L 1344 794 
L 1344 0 
L 684 0 
L 684 794 
z
" transform="scale(0.015625)"/>
       </defs>
       <use xlink:href="#DejaVuSans-30"/>
       <use xlink:href="#DejaVuSans-2e" x="63.623047"/>
       <use xlink:href="#DejaVuSans-30" x="95.410156"/>
      </g>
     </g>
    </g>
    <g id="xtick_2">
     <g id="line2d_3">
      <path d="M 96.444148 244.078125 
L 96.444148 22.318125 
" clip-path="url(#p89d0631c67)" style="fill: none; stroke: #b0b0b0; stroke-width: 0.8; stroke-linecap: square"/>
     </g>
     <g id="line2d_4">
      <g>
       <use xlink:href="#mc42881494d" x="96.444148" y="244.078125" style="stroke: #000000; stroke-width: 0.8"/>
      </g>
     </g>
     <g id="text_2">
      <!-- 0.2 -->
      <g transform="translate(88.492585 258.676562)scale(0.1 -0.1)">
       <defs>
        <path id="DejaVuSans-32" d="M 1228 531 
L 3431 531 
L 3431 0 
L 469 0 
L 469 531 
Q 828 903 1448 1529 
Q 2069 2156 2228 2338 
Q 2531 2678 2651 2914 
Q 2772 3150 2772 3378 
Q 2772 3750 2511 3984 
Q 2250 4219 1831 4219 
Q 1534 4219 1204 4116 
Q 875 4013 500 3803 
L 500 4441 
Q 881 4594 1212 4672 
Q 1544 4750 1819 4750 
Q 2544 4750 2975 4387 
Q 3406 4025 3406 3419 
Q 3406 3131 3298 2873 
Q 3191 2616 2906 2266 
Q 2828 2175 2409 1742 
Q 1991 1309 1228 531 
z
" transform="scale(0.015625)"/>
       </defs>
       <use xlink:href="#DejaVuSans-30"/>
       <use xlink:href="#DejaVuSans-2e" x="63.623047"/>
       <use xlink:href="#DejaVuSans-32" x="95.410156"/>
      </g>
     </g>
    </g>
    <g id="xtick_3">
     <g id="line2d_5">
      <path d="M 137.025966 244.078125 
L 137.025966 22.318125 
" clip-path="url(#p89d0631c67)" style="fill: none; stroke: #b0b0b0; stroke-width: 0.8; stroke-linecap: square"/>
     </g>
     <g id="line2d_6">
      <g>
       <use xlink:href="#mc42881494d" x="137.025966" y="244.078125" style="stroke: #000000; stroke-width: 0.8"/>
      </g>
     </g>
     <g id="text_3">
      <!-- 0.4 -->
      <g transform="translate(129.074403 258.676562)scale(0.1 -0.1)">
       <defs>
        <path id="DejaVuSans-34" d="M 2419 4116 
L 825 1625 
L 2419 1625 
L 2419 4116 
z
M 2253 4666 
L 3047 4666 
L 3047 1625 
L 3713 1625 
L 3713 1100 
L 3047 1100 
L 3047 0 
L 2419 0 
L 2419 1100 
L 313 1100 
L 313 1709 
L 2253 4666 
z
" transform="scale(0.015625)"/>
       </defs>
       <use xlink:href="#DejaVuSans-30"/>
       <use xlink:href="#DejaVuSans-2e" x="63.623047"/>
       <use xlink:href="#DejaVuSans-34" x="95.410156"/>
      </g>
     </g>
    </g>
    <g id="xtick_4">
     <g id="line2d_7">
      <path d="M 177.607784 244.078125 
L 177.607784 22.318125 
" clip-path="url(#p89d0631c67)" style="fill: none; stroke: #b0b0b0; stroke-width: 0.8; stroke-linecap: square"/>
     </g>
     <g id="line2d_8">
      <g>
       <use xlink:href="#mc42881494d" x="177.607784" y="244.078125" style="stroke: #000000; stroke-width: 0.8"/>
      </g>
     </g>
     <g id="text_4">
      <!-- 0.6 -->
      <g transform="translate(169.656222 258.676562)scale(0.1 -0.1)">
       <defs>
        <path id="DejaVuSans-36" d="M 2113 2584 
Q 1688 2584 1439 2293 
Q 1191 2003 1191 1497 
Q 1191 994 1439 701 
Q 1688 409 2113 409 
Q 2538 409 2786 701 
Q 3034 994 3034 1497 
Q 3034 2003 2786 2293 
Q 2538 2584 2113 2584 
z
M 3366 4563 
L 3366 3988 
Q 3128 4100 2886 4159 
Q 2644 4219 2406 4219 
Q 1781 4219 1451 3797 
Q 1122 3375 1075 2522 
Q 1259 2794 1537 2939 
Q 1816 3084 2150 3084 
Q 2853 3084 3261 2657 
Q 3669 2231 3669 1497 
Q 3669 778 3244 343 
Q 2819 -91 2113 -91 
Q 1303 -91 875 529 
Q 447 1150 447 2328 
Q 447 3434 972 4092 
Q 1497 4750 2381 4750 
Q 2619 4750 2861 4703 
Q 3103 4656 3366 4563 
z
" transform="scale(0.015625)"/>
       </defs>
       <use xlink:href="#DejaVuSans-30"/>
       <use xlink:href="#DejaVuSans-2e" x="63.623047"/>
       <use xlink:href="#DejaVuSans-36" x="95.410156"/>
      </g>
     </g>
    </g>
    <g id="xtick_5">
     <g id="line2d_9">
      <path d="M 218.189602 244.078125 
L 218.189602 22.318125 
" clip-path="url(#p89d0631c67)" style="fill: none; stroke: #b0b0b0; stroke-width: 0.8; stroke-linecap: square"/>
     </g>
     <g id="line2d_10">
      <g>
       <use xlink:href="#mc42881494d" x="218.189602" y="244.078125" style="stroke: #000000; stroke-width: 0.8"/>
      </g>
     </g>
     <g id="text_5">
      <!-- 0.8 -->
      <g transform="translate(210.23804 258.676562)scale(0.1 -0.1)">
       <defs>
        <path id="DejaVuSans-38" d="M 2034 2216 
Q 1584 2216 1326 1975 
Q 1069 1734 1069 1313 
Q 1069 891 1326 650 
Q 1584 409 2034 409 
Q 2484 409 2743 651 
Q 3003 894 3003 1313 
Q 3003 1734 2745 1975 
Q 2488 2216 2034 2216 
z
M 1403 2484 
Q 997 2584 770 2862 
Q 544 3141 544 3541 
Q 544 4100 942 4425 
Q 1341 4750 2034 4750 
Q 2731 4750 3128 4425 
Q 3525 4100 3525 3541 
Q 3525 3141 3298 2862 
Q 3072 2584 2669 2484 
Q 3125 2378 3379 2068 
Q 3634 1759 3634 1313 
Q 3634 634 3220 271 
Q 2806 -91 2034 -91 
Q 1263 -91 848 271 
Q 434 634 434 1313 
Q 434 1759 690 2068 
Q 947 2378 1403 2484 
z
M 1172 3481 
Q 1172 3119 1398 2916 
Q 1625 2713 2034 2713 
Q 2441 2713 2670 2916 
Q 2900 3119 2900 3481 
Q 2900 3844 2670 4047 
Q 2441 4250 2034 4250 
Q 1625 4250 1398 4047 
Q 1172 3844 1172 3481 
z
" transform="scale(0.015625)"/>
       </defs>
       <use xlink:href="#DejaVuSans-30"/>
       <use xlink:href="#DejaVuSans-2e" x="63.623047"/>
       <use xlink:href="#DejaVuSans-38" x="95.410156"/>
      </g>
     </g>
    </g>
    <g id="xtick_6">
     <g id="line2d_11">
      <path d="M 258.77142 244.078125 
L 258.77142 22.318125 
" clip-path="url(#p89d0631c67)" style="fill: none; stroke: #b0b0b0; stroke-width: 0.8; stroke-linecap: square"/>
     </g>
     <g id="line2d_12">
      <g>
       <use xlink:href="#mc42881494d" x="258.77142" y="244.078125" style="stroke: #000000; stroke-width: 0.8"/>
      </g>
     </g>
     <g id="text_6">
      <!-- 1.0 -->
      <g transform="translate(250.819858 258.676562)scale(0.1 -0.1)">
       <defs>
        <path id="DejaVuSans-31" d="M 794 531 
L 1825 531 
L 1825 4091 
L 703 3866 
L 703 4441 
L 1819 4666 
L 2450 4666 
L 2450 531 
L 3481 531 
L 3481 0 
L 794 0 
L 794 531 
z
" transform="scale(0.015625)"/>
       </defs>
       <use xlink:href="#DejaVuSans-31"/>
       <use xlink:href="#DejaVuSans-2e" x="63.623047"/>
       <use xlink:href="#DejaVuSans-30" x="95.410156"/>
      </g>
     </g>
    </g>
    <g id="text_7">
     <!-- False Positive Rate -->
     <g transform="translate(101.557187 273.874375)scale(0.12 -0.12)">
      <defs>
       <path id="DejaVuSans-46" d="M 628 4666 
L 3309 4666 
L 3309 4134 
L 1259 4134 
L 1259 2759 
L 3109 2759 
L 3109 2228 
L 1259 2228 
L 1259 0 
L 628 0 
L 628 4666 
z
" transform="scale(0.015625)"/>
       <path id="DejaVuSans-61" d="M 2194 1759 
Q 1497 1759 1228 1600 
Q 959 1441 959 1056 
Q 959 750 1161 570 
Q 1363 391 1709 391 
Q 2188 391 2477 730 
Q 2766 1069 2766 1631 
L 2766 1759 
L 2194 1759 
z
M 3341 1997 
L 3341 0 
L 2766 0 
L 2766 531 
Q 2569 213 2275 61 
Q 1981 -91 1556 -91 
Q 1019 -91 701 211 
Q 384 513 384 1019 
Q 384 1609 779 1909 
Q 1175 2209 1959 2209 
L 2766 2209 
L 2766 2266 
Q 2766 2663 2505 2880 
Q 2244 3097 1772 3097 
Q 1472 3097 1187 3025 
Q 903 2953 641 2809 
L 641 3341 
Q 956 3463 1253 3523 
Q 1550 3584 1831 3584 
Q 2591 3584 2966 3190 
Q 3341 2797 3341 1997 
z
" transform="scale(0.015625)"/>
       <path id="DejaVuSans-6c" d="M 603 4863 
L 1178 4863 
L 1178 0 
L 603 0 
L 603 4863 
z
" transform="scale(0.015625)"/>
       <path id="DejaVuSans-73" d="M 2834 3397 
L 2834 2853 
Q 2591 2978 2328 3040 
Q 2066 3103 1784 3103 
Q 1356 3103 1142 2972 
Q 928 2841 928 2578 
Q 928 2378 1081 2264 
Q 1234 2150 1697 2047 
L 1894 2003 
Q 2506 1872 2764 1633 
Q 3022 1394 3022 966 
Q 3022 478 2636 193 
Q 2250 -91 1575 -91 
Q 1294 -91 989 -36 
Q 684 19 347 128 
L 347 722 
Q 666 556 975 473 
Q 1284 391 1588 391 
Q 1994 391 2212 530 
Q 2431 669 2431 922 
Q 2431 1156 2273 1281 
Q 2116 1406 1581 1522 
L 1381 1569 
Q 847 1681 609 1914 
Q 372 2147 372 2553 
Q 372 3047 722 3315 
Q 1072 3584 1716 3584 
Q 2034 3584 2315 3537 
Q 2597 3491 2834 3397 
z
" transform="scale(0.015625)"/>
       <path id="DejaVuSans-65" d="M 3597 1894 
L 3597 1613 
L 953 1613 
Q 991 1019 1311 708 
Q 1631 397 2203 397 
Q 2534 397 2845 478 
Q 3156 559 3463 722 
L 3463 178 
Q 3153 47 2828 -22 
Q 2503 -91 2169 -91 
Q 1331 -91 842 396 
Q 353 884 353 1716 
Q 353 2575 817 3079 
Q 1281 3584 2069 3584 
Q 2775 3584 3186 3129 
Q 3597 2675 3597 1894 
z
M 3022 2063 
Q 3016 2534 2758 2815 
Q 2500 3097 2075 3097 
Q 1594 3097 1305 2825 
Q 1016 2553 972 2059 
L 3022 2063 
z
" transform="scale(0.015625)"/>
       <path id="DejaVuSans-20" transform="scale(0.015625)"/>
       <path id="DejaVuSans-50" d="M 1259 4147 
L 1259 2394 
L 2053 2394 
Q 2494 2394 2734 2622 
Q 2975 2850 2975 3272 
Q 2975 3691 2734 3919 
Q 2494 4147 2053 4147 
L 1259 4147 
z
M 628 4666 
L 2053 4666 
Q 2838 4666 3239 4311 
Q 3641 3956 3641 3272 
Q 3641 2581 3239 2228 
Q 2838 1875 2053 1875 
L 1259 1875 
L 1259 0 
L 628 0 
L 628 4666 
z
" transform="scale(0.015625)"/>
       <path id="DejaVuSans-6f" d="M 1959 3097 
Q 1497 3097 1228 2736 
Q 959 2375 959 1747 
Q 959 1119 1226 758 
Q 1494 397 1959 397 
Q 2419 397 2687 759 
Q 2956 1122 2956 1747 
Q 2956 2369 2687 2733 
Q 2419 3097 1959 3097 
z
M 1959 3584 
Q 2709 3584 3137 3096 
Q 3566 2609 3566 1747 
Q 3566 888 3137 398 
Q 2709 -91 1959 -91 
Q 1206 -91 779 398 
Q 353 888 353 1747 
Q 353 2609 779 3096 
Q 1206 3584 1959 3584 
z
" transform="scale(0.015625)"/>
       <path id="DejaVuSans-69" d="M 603 3500 
L 1178 3500 
L 1178 0 
L 603 0 
L 603 3500 
z
M 603 4863 
L 1178 4863 
L 1178 4134 
L 603 4134 
L 603 4863 
z
" transform="scale(0.015625)"/>
       <path id="DejaVuSans-74" d="M 1172 4494 
L 1172 3500 
L 2356 3500 
L 2356 3053 
L 1172 3053 
L 1172 1153 
Q 1172 725 1289 603 
Q 1406 481 1766 481 
L 2356 481 
L 2356 0 
L 1766 0 
Q 1100 0 847 248 
Q 594 497 594 1153 
L 594 3053 
L 172 3053 
L 172 3500 
L 594 3500 
L 594 4494 
L 1172 4494 
z
" transform="scale(0.015625)"/>
       <path id="DejaVuSans-76" d="M 191 3500 
L 800 3500 
L 1894 563 
L 2988 3500 
L 3597 3500 
L 2284 0 
L 1503 0 
L 191 3500 
z
" transform="scale(0.015625)"/>
       <path id="DejaVuSans-52" d="M 2841 2188 
Q 3044 2119 3236 1894 
Q 3428 1669 3622 1275 
L 4263 0 
L 3584 0 
L 2988 1197 
Q 2756 1666 2539 1819 
Q 2322 1972 1947 1972 
L 1259 1972 
L 1259 0 
L 628 0 
L 628 4666 
L 2053 4666 
Q 2853 4666 3247 4331 
Q 3641 3997 3641 3322 
Q 3641 2881 3436 2590 
Q 3231 2300 2841 2188 
z
M 1259 4147 
L 1259 2491 
L 2053 2491 
Q 2509 2491 2742 2702 
Q 2975 2913 2975 3322 
Q 2975 3731 2742 3939 
Q 2509 4147 2053 4147 
L 1259 4147 
z
" transform="scale(0.015625)"/>
      </defs>
      <use xlink:href="#DejaVuSans-46"/>
      <use xlink:href="#DejaVuSans-61" x="48.394531"/>
      <use xlink:href="#DejaVuSans-6c" x="109.673828"/>
      <use xlink:href="#DejaVuSans-73" x="137.457031"/>
      <use xlink:href="#DejaVuSans-65" x="189.556641"/>
      <use xlink:href="#DejaVuSans-20" x="251.080078"/>
      <use xlink:href="#DejaVuSans-50" x="282.867188"/>
      <use xlink:href="#DejaVuSans-6f" x="339.544922"/>
      <use xlink:href="#DejaVuSans-73" x="400.726562"/>
      <use xlink:href="#DejaVuSans-69" x="452.826172"/>
      <use xlink:href="#DejaVuSans-74" x="480.609375"/>
      <use xlink:href="#DejaVuSans-69" x="519.818359"/>
      <use xlink:href="#DejaVuSans-76" x="547.601562"/>
      <use xlink:href="#DejaVuSans-65" x="606.78125"/>
      <use xlink:href="#DejaVuSans-20" x="668.304688"/>
      <use xlink:href="#DejaVuSans-52" x="700.091797"/>
      <use xlink:href="#DejaVuSans-61" x="767.324219"/>
      <use xlink:href="#DejaVuSans-74" x="828.603516"/>
      <use xlink:href="#DejaVuSans-65" x="867.8125"/>
     </g>
    </g>
   </g>
   <g id="matplotlib.axis_2">
    <g id="ytick_1">
     <g id="line2d_13">
      <path d="M 45.716875 233.998125 
L 268.916875 233.998125 
" clip-path="url(#p89d0631c67)" style="fill: none; stroke: #b0b0b0; stroke-width: 0.8; stroke-linecap: square"/>
     </g>
     <g id="line2d_14">
      <defs>
       <path id="mf47286ebf9" d="M 0 0 
L -3.5 0 
" style="stroke: #000000; stroke-width: 0.8"/>
      </defs>
      <g>
       <use xlink:href="#mf47286ebf9" x="45.716875" y="233.998125" style="stroke: #000000; stroke-width: 0.8"/>
      </g>
     </g>
     <g id="text_8">
      <!-- 0.0 -->
      <g transform="translate(22.81375 237.797344)scale(0.1 -0.1)">
       <use xlink:href="#DejaVuSans-30"/>
       <use xlink:href="#DejaVuSans-2e" x="63.623047"/>
       <use xlink:href="#DejaVuSans-30" x="95.410156"/>
      </g>
     </g>
    </g>
    <g id="ytick_2">
     <g id="line2d_15">
      <path d="M 45.716875 193.678125 
L 268.916875 193.678125 
" clip-path="url(#p89d0631c67)" style="fill: none; stroke: #b0b0b0; stroke-width: 0.8; stroke-linecap: square"/>
     </g>
     <g id="line2d_16">
      <g>
       <use xlink:href="#mf47286ebf9" x="45.716875" y="193.678125" style="stroke: #000000; stroke-width: 0.8"/>
      </g>
     </g>
     <g id="text_9">
      <!-- 0.2 -->
      <g transform="translate(22.81375 197.477344)scale(0.1 -0.1)">
       <use xlink:href="#DejaVuSans-30"/>
       <use xlink:href="#DejaVuSans-2e" x="63.623047"/>
       <use xlink:href="#DejaVuSans-32" x="95.410156"/>
      </g>
     </g>
    </g>
    <g id="ytick_3">
     <g id="line2d_17">
      <path d="M 45.716875 153.358125 
L 268.916875 153.358125 
" clip-path="url(#p89d0631c67)" style="fill: none; stroke: #b0b0b0; stroke-width: 0.8; stroke-linecap: square"/>
     </g>
     <g id="line2d_18">
      <g>
       <use xlink:href="#mf47286ebf9" x="45.716875" y="153.358125" style="stroke: #000000; stroke-width: 0.8"/>
      </g>
     </g>
     <g id="text_10">
      <!-- 0.4 -->
      <g transform="translate(22.81375 157.157344)scale(0.1 -0.1)">
       <use xlink:href="#DejaVuSans-30"/>
       <use xlink:href="#DejaVuSans-2e" x="63.623047"/>
       <use xlink:href="#DejaVuSans-34" x="95.410156"/>
      </g>
     </g>
    </g>
    <g id="ytick_4">
     <g id="line2d_19">
      <path d="M 45.716875 113.038125 
L 268.916875 113.038125 
" clip-path="url(#p89d0631c67)" style="fill: none; stroke: #b0b0b0; stroke-width: 0.8; stroke-linecap: square"/>
     </g>
     <g id="line2d_20">
      <g>
       <use xlink:href="#mf47286ebf9" x="45.716875" y="113.038125" style="stroke: #000000; stroke-width: 0.8"/>
      </g>
     </g>
     <g id="text_11">
      <!-- 0.6 -->
      <g transform="translate(22.81375 116.837344)scale(0.1 -0.1)">
       <use xlink:href="#DejaVuSans-30"/>
       <use xlink:href="#DejaVuSans-2e" x="63.623047"/>
       <use xlink:href="#DejaVuSans-36" x="95.410156"/>
      </g>
     </g>
    </g>
    <g id="ytick_5">
     <g id="line2d_21">
      <path d="M 45.716875 72.718125 
L 268.916875 72.718125 
" clip-path="url(#p89d0631c67)" style="fill: none; stroke: #b0b0b0; stroke-width: 0.8; stroke-linecap: square"/>
     </g>
     <g id="line2d_22">
      <g>
       <use xlink:href="#mf47286ebf9" x="45.716875" y="72.718125" style="stroke: #000000; stroke-width: 0.8"/>
      </g>
     </g>
     <g id="text_12">
      <!-- 0.8 -->
      <g transform="translate(22.81375 76.517344)scale(0.1 -0.1)">
       <use xlink:href="#DejaVuSans-30"/>
       <use xlink:href="#DejaVuSans-2e" x="63.623047"/>
       <use xlink:href="#DejaVuSans-38" x="95.410156"/>
      </g>
     </g>
    </g>
    <g id="ytick_6">
     <g id="line2d_23">
      <path d="M 45.716875 32.398125 
L 268.916875 32.398125 
" clip-path="url(#p89d0631c67)" style="fill: none; stroke: #b0b0b0; stroke-width: 0.8; stroke-linecap: square"/>
     </g>
     <g id="line2d_24">
      <g>
       <use xlink:href="#mf47286ebf9" x="45.716875" y="32.398125" style="stroke: #000000; stroke-width: 0.8"/>
      </g>
     </g>
     <g id="text_13">
      <!-- 1.0 -->
      <g transform="translate(22.81375 36.197344)scale(0.1 -0.1)">
       <use xlink:href="#DejaVuSans-31"/>
       <use xlink:href="#DejaVuSans-2e" x="63.623047"/>
       <use xlink:href="#DejaVuSans-30" x="95.410156"/>
      </g>
     </g>
    </g>
    <g id="text_14">
     <!-- True Positive Rate -->
     <g transform="translate(16.318125 186.63375)rotate(-90)scale(0.12 -0.12)">
      <defs>
       <path id="DejaVuSans-54" d="M -19 4666 
L 3928 4666 
L 3928 4134 
L 2272 4134 
L 2272 0 
L 1638 0 
L 1638 4134 
L -19 4134 
L -19 4666 
z
" transform="scale(0.015625)"/>
       <path id="DejaVuSans-72" d="M 2631 2963 
Q 2534 3019 2420 3045 
Q 2306 3072 2169 3072 
Q 1681 3072 1420 2755 
Q 1159 2438 1159 1844 
L 1159 0 
L 581 0 
L 581 3500 
L 1159 3500 
L 1159 2956 
Q 1341 3275 1631 3429 
Q 1922 3584 2338 3584 
Q 2397 3584 2469 3576 
Q 2541 3569 2628 3553 
L 2631 2963 
z
" transform="scale(0.015625)"/>
       <path id="DejaVuSans-75" d="M 544 1381 
L 544 3500 
L 1119 3500 
L 1119 1403 
Q 1119 906 1312 657 
Q 1506 409 1894 409 
Q 2359 409 2629 706 
Q 2900 1003 2900 1516 
L 2900 3500 
L 3475 3500 
L 3475 0 
L 2900 0 
L 2900 538 
Q 2691 219 2414 64 
Q 2138 -91 1772 -91 
Q 1169 -91 856 284 
Q 544 659 544 1381 
z
M 1991 3584 
L 1991 3584 
z
" transform="scale(0.015625)"/>
      </defs>
      <use xlink:href="#DejaVuSans-54"/>
      <use xlink:href="#DejaVuSans-72" x="46.333984"/>
      <use xlink:href="#DejaVuSans-75" x="87.447266"/>
      <use xlink:href="#DejaVuSans-65" x="150.826172"/>
      <use xlink:href="#DejaVuSans-20" x="212.349609"/>
      <use xlink:href="#DejaVuSans-50" x="244.136719"/>
      <use xlink:href="#DejaVuSans-6f" x="300.814453"/>
      <use xlink:href="#DejaVuSans-73" x="361.996094"/>
      <use xlink:href="#DejaVuSans-69" x="414.095703"/>
      <use xlink:href="#DejaVuSans-74" x="441.878906"/>
      <use xlink:href="#DejaVuSans-69" x="481.087891"/>
      <use xlink:href="#DejaVuSans-76" x="508.871094"/>
      <use xlink:href="#DejaVuSans-65" x="568.050781"/>
      <use xlink:href="#DejaVuSans-20" x="629.574219"/>
      <use xlink:href="#DejaVuSans-52" x="661.361328"/>
      <use xlink:href="#DejaVuSans-61" x="728.59375"/>
      <use xlink:href="#DejaVuSans-74" x="789.873047"/>
      <use xlink:href="#DejaVuSans-65" x="829.082031"/>
     </g>
    </g>
   </g>
   <g id="line2d_25">
    <path d="M 55.86233 233.998125 
L 55.963249 227.472017 
L 55.983433 227.472017 
L 56.084353 222.384895 
L 56.104537 222.384895 
L 56.205456 220.114944 
L 56.22564 220.114944 
L 56.32656 217.439645 
L 56.346744 217.439645 
L 56.447664 213.365894 
L 56.467848 213.365894 
L 56.568767 210.933804 
L 56.588951 210.933804 
L 56.689871 208.643586 
L 56.710055 208.643586 
L 56.810974 207.366739 
L 56.831158 207.366739 
L 56.932078 204.934649 
L 56.952262 204.934649 
L 57.053182 203.678069 
L 57.09355 203.576732 
L 57.194469 201.610792 
L 57.255021 201.509455 
L 57.355941 198.996295 
L 57.396309 198.976028 
L 57.497228 197.820785 
L 57.517412 197.820785 
L 57.618332 197.010088 
L 57.638516 197.010088 
L 57.739435 195.591369 
L 57.779803 195.591369 
L 57.860539 194.557731 
L 57.900907 194.557731 
L 58.001827 193.929441 
L 58.022011 193.929441 
L 58.12293 192.693129 
L 58.163298 192.612059 
L 58.264218 191.720292 
L 58.304586 191.720292 
L 58.405505 190.301573 
L 58.445873 190.281306 
L 58.546793 189.267935 
L 58.566977 189.267935 
L 58.667896 188.092425 
L 58.728448 188.011355 
L 58.829368 186.531834 
L 58.869736 186.531834 
L 58.970655 185.863009 
L 59.031207 185.842741 
L 59.132127 184.829371 
L 59.192679 184.748301 
L 59.293598 183.876802 
L 59.333966 183.816 
L 59.434886 182.660757 
L 59.475254 182.55942 
L 59.576173 180.715085 
L 59.616541 180.694817 
L 59.717461 179.41797 
L 59.757829 179.316633 
L 59.858749 178.24246 
L 59.9193 178.181658 
L 60.02022 177.69524 
L 60.100956 177.634437 
L 60.201875 176.90481 
L 60.242243 176.803473 
L 60.343163 175.790102 
L 60.363347 175.790102 
L 60.444083 175.323952 
L 60.48445 175.323952 
L 60.58537 174.188977 
L 60.68629 174.128174 
L 60.767026 173.743093 
L 60.827577 173.702558 
L 60.928497 172.304107 
L 60.948681 172.304107 
L 61.049601 171.777154 
L 61.069785 171.777154 
L 61.170704 171.006992 
L 61.190888 171.006992 
L 61.291808 170.702981 
L 61.332176 170.642178 
L 61.433095 170.054423 
L 61.473463 170.054423 
L 61.574383 169.223459 
L 61.614751 169.182924 
L 61.71567 168.088484 
L 61.735854 168.088484 
L 61.836774 167.25752 
L 61.856958 167.25752 
L 61.957878 166.7103 
L 62.038613 166.608962 
L 62.139533 166.223882 
L 62.179901 166.183347 
L 62.260637 165.940138 
L 62.301005 165.940138 
L 62.401924 164.379547 
L 62.422108 164.379547 
L 62.523028 163.852594 
L 62.603764 163.751257 
L 62.704683 163.244571 
L 62.745051 163.143234 
L 62.845971 162.39334 
L 62.906523 162.31227 
L 63.007442 160.751679 
L 63.067994 160.650342 
L 63.168914 159.677506 
L 63.249649 159.576169 
L 63.330385 159.25189 
L 63.390937 159.191088 
L 63.491857 158.420926 
L 63.532225 158.420926 
L 63.633144 157.91424 
L 63.734064 157.812903 
L 63.834984 157.245416 
L 63.895535 157.204881 
L 63.996455 156.698195 
L 64.016639 156.698195 
L 64.097375 156.353649 
L 64.198294 156.292847 
L 64.27903 155.765894 
L 64.319398 155.765894 
L 64.420318 155.238941 
L 64.541421 155.137604 
L 64.622157 154.85386 
L 64.682709 154.772791 
L 64.783628 154.509314 
L 64.884548 154.448512 
L 64.985468 153.921559 
L 65.025836 153.921559 
L 65.126755 152.624444 
L 65.167123 152.604177 
L 65.247859 152.158294 
L 65.348779 152.077224 
L 65.449698 151.225993 
L 65.550618 151.16519 
L 65.651538 150.78011 
L 65.712089 150.69904 
L 65.813009 150.374761 
L 65.873561 150.354494 
L 65.974481 149.624867 
L 66.055216 149.52353 
L 66.135952 149.118181 
L 66.196504 149.037112 
L 66.297424 148.652031 
L 66.317607 148.652031 
L 66.418527 148.10481 
L 66.499263 148.003473 
L 66.600183 147.739997 
L 66.660734 147.63866 
L 66.761654 147.152242 
L 66.822206 147.071172 
L 66.902942 146.746893 
L 66.983677 146.665824 
L 67.084597 146.402347 
L 67.124965 146.30101 
L 67.205701 145.956464 
L 67.266252 145.855127 
L 67.367172 145.145768 
L 67.468092 145.084965 
L 67.548827 144.862024 
L 67.629563 144.780954 
L 67.730483 144.679617 
L 67.770851 144.639082 
L 67.87177 144.091862 
L 67.97269 143.990525 
L 68.07361 143.078491 
L 68.174529 143.017689 
L 68.275449 142.815015 
L 68.396553 142.754212 
L 68.497472 142.247527 
L 68.578208 142.14619 
L 68.679128 141.720574 
L 68.780047 141.619237 
L 68.880967 141.35576 
L 68.941519 141.294958 
L 69.042439 140.504529 
L 69.123174 140.403192 
L 69.224094 140.220785 
L 69.264462 140.159983 
L 69.365382 139.7141 
L 69.405749 139.612763 
L 69.486485 139.491158 
L 69.547037 139.450623 
L 69.627773 139.207414 
L 69.76906 139.146612 
L 69.849796 138.761531 
L 69.910348 138.761531 
L 69.991084 138.416985 
L 70.031451 138.416985 
L 70.132371 137.687358 
L 70.172739 137.606288 
L 70.273659 137.302277 
L 70.414946 137.20094 
L 70.515866 136.673987 
L 70.556234 136.633452 
L 70.616785 136.147034 
L 70.717705 136.045697 
L 70.778257 135.782221 
L 70.858993 135.782221 
L 70.959912 135.579547 
L 71.040648 135.478209 
L 71.141568 135.214733 
L 71.161752 135.214733 
L 71.262671 134.748582 
L 71.303039 134.647245 
L 71.403959 134.039223 
L 71.424143 134.039223 
L 71.504879 133.694677 
L 71.585614 133.654142 
L 71.686534 133.451468 
L 71.747086 133.350131 
L 71.848005 133.066387 
L 71.888373 133.046119 
L 71.989293 132.519167 
L 72.009477 132.519167 
L 72.090213 132.296225 
L 72.130581 132.296225 
L 72.2315 131.526063 
L 72.271868 131.485528 
L 72.372788 131.140982 
L 72.413156 131.140982 
L 72.514075 130.431623 
L 72.534259 130.431623 
L 72.635179 130.006007 
L 72.695731 129.924937 
L 72.79665 129.661461 
L 72.89757 129.600658 
L 72.99849 129.175043 
L 73.079225 129.073706 
L 73.180145 128.952101 
L 73.361801 128.850764 
L 73.46272 128.668357 
L 73.543456 128.64809 
L 73.624192 128.141404 
L 73.684743 128.10087 
L 73.765479 127.756323 
L 73.866399 127.654986 
L 73.947135 127.087499 
L 74.088422 127.026696 
L 74.189342 126.641615 
L 74.22971 126.641615 
L 74.330629 126.398406 
L 74.431549 126.398406 
L 74.532469 126.094395 
L 74.633388 125.993058 
L 74.69394 125.810651 
L 74.754492 125.810651 
L 74.855412 125.202629 
L 74.936147 125.101292 
L 75.037067 124.756746 
L 75.097619 124.655409 
L 75.178355 124.290595 
L 75.319642 124.189258 
L 75.380194 123.905514 
L 75.501298 123.804177 
L 75.561849 123.560968 
L 75.622401 123.560968 
L 75.723321 123.15562 
L 75.763689 123.054283 
L 75.783873 122.912411 
L 75.884792 122.912411 
L 75.985712 122.608399 
L 76.046264 122.507062 
L 76.127 122.284121 
L 76.187551 122.203051 
L 76.288471 122.101714 
L 76.369207 122.020644 
L 76.470126 121.676098 
L 76.550862 121.574761 
L 76.651782 121.068076 
L 76.752701 120.987006 
L 76.853621 120.703262 
L 76.954541 120.622193 
L 77.035277 120.277646 
L 77.075644 120.277646 
L 77.176564 119.770961 
L 77.196748 119.770961 
L 77.297668 119.507485 
L 77.35822 119.426415 
L 77.459139 119.142671 
L 77.539875 119.041334 
L 77.600427 118.91973 
L 77.72153 118.91973 
L 77.82245 118.615718 
L 77.963738 118.514381 
L 78.064657 118.068498 
L 78.125209 118.007696 
L 78.226129 117.744219 
L 78.28668 117.683417 
L 78.3876 117.399673 
L 78.448152 117.298336 
L 78.549072 117.075395 
L 78.589439 116.994325 
L 78.690359 116.649779 
L 78.771095 116.568709 
L 78.872015 116.203896 
L 78.95275 116.143093 
L 79.05367 115.839082 
L 79.094038 115.839082 
L 79.194958 115.575606 
L 79.295877 115.494536 
L 79.396797 115.271594 
L 79.437165 115.170257 
L 79.538084 114.927048 
L 79.699556 114.825711 
L 79.780292 114.400095 
L 79.840843 114.359561 
L 79.901395 114.197421 
L 79.982131 114.197421 
L 80.083051 113.913677 
L 80.264706 113.81234 
L 80.325258 113.731271 
L 80.426178 113.670468 
L 80.527097 113.386725 
L 80.607833 113.285387 
L 80.708753 112.880039 
L 80.789488 112.880039 
L 80.890408 112.494958 
L 80.910592 112.494958 
L 80.991328 112.069342 
L 81.112431 112.049075 
L 81.193167 111.339715 
L 81.294087 111.278913 
L 81.395006 111.015437 
L 81.51611 110.934367 
L 81.596846 110.691158 
L 81.657398 110.650623 
L 81.758317 110.427682 
L 81.879421 110.346612 
L 81.960157 110.042601 
L 82.08126 110.022333 
L 82.161996 109.556183 
L 82.303283 109.49538 
L 82.404203 109.211637 
L 82.464755 109.1103 
L 82.565675 109.008962 
L 82.606042 108.927893 
L 82.666594 108.806288 
L 82.74733 108.786021 
L 82.84825 108.542812 
L 82.908801 108.441475 
L 83.009721 108.157731 
L 83.090457 108.076661 
L 83.171193 107.85372 
L 83.272112 107.752383 
L 83.373032 107.428104 
L 83.453768 107.347034 
L 83.554687 107.043023 
L 83.675791 106.941686 
L 83.716159 106.880884 
L 83.796895 106.880884 
L 83.897814 106.678209 
L 84.018918 106.617407 
L 84.119837 106.536338 
L 84.240941 106.455268 
L 84.341861 106.151257 
L 84.382229 106.151257 
L 84.483148 105.826978 
L 84.584068 105.725641 
L 84.664804 105.604036 
L 84.806091 105.543234 
L 84.866643 105.239223 
L 84.967563 105.137886 
L 85.048298 104.914944 
L 85.129034 104.833874 
L 85.229954 104.448794 
L 85.290506 104.367724 
L 85.351057 104.16505 
L 85.532713 104.104247 
L 85.633633 103.779969 
L 85.734552 103.698899 
L 85.835472 103.45569 
L 85.896024 103.354353 
L 85.976759 102.786865 
L 86.037311 102.685528 
L 86.138231 102.563924 
L 86.158415 102.563924 
L 86.259335 102.178843 
L 86.34007 102.097773 
L 86.44099 101.793762 
L 86.683197 101.692425 
L 86.763933 101.530285 
L 86.925404 101.428948 
L 87.026324 101.206007 
L 87.10706 101.145205 
L 87.167612 100.739856 
L 87.288715 100.658787 
L 87.389635 100.39531 
L 87.430003 100.334508 
L 87.510738 100.152101 
L 87.652026 100.050764 
L 87.712578 99.746753 
L 87.914417 99.665683 
L 88.015337 99.422474 
L 88.176808 99.341404 
L 88.277728 99.158998 
L 88.33828 99.13873 
L 88.398832 98.936056 
L 88.600671 98.834719 
L 88.701591 98.611777 
L 88.762142 98.611777 
L 88.863062 98.328034 
L 88.943798 98.307766 
L 89.044717 97.740278 
L 89.085085 97.720011 
L 89.165821 97.33493 
L 89.307109 97.25386 
L 89.408028 97.111988 
L 89.488764 97.010651 
L 89.529132 96.889047 
L 89.771339 96.78771 
L 89.872259 96.585036 
L 89.973178 96.524233 
L 90.053914 96.260757 
L 90.154834 96.15942 
L 90.23557 95.997281 
L 90.336489 95.916211 
L 90.437409 95.551397 
L 90.477777 95.510863 
L 90.578696 95.085247 
L 90.59888 95.085247 
L 90.619064 94.90284 
L 90.740168 94.862305 
L 90.841088 94.679898 
L 91.002559 94.598829 
L 91.103479 94.335352 
L 91.184214 94.234015 
L 91.285134 94.132678 
L 91.325502 94.132678 
L 91.426422 93.72733 
L 91.46679 93.707062 
L 91.567709 93.362516 
L 91.628261 93.301714 
L 91.708997 93.139575 
L 91.789732 93.078772 
L 91.850284 92.855831 
L 92.03194 92.754494 
L 92.132859 92.612622 
L 92.193411 92.531552 
L 92.274147 92.47075 
L 92.375067 92.409948 
L 92.475986 92.166739 
L 92.657642 92.085669 
L 92.69801 91.943797 
L 92.859481 91.903262 
L 92.960401 91.538449 
L 93.16224 91.457379 
L 93.202608 91.356042 
L 93.343895 91.274972 
L 93.444815 91.031763 
L 93.545735 90.991228 
L 93.646654 90.808822 
L 93.82831 90.707485 
L 93.92923 90.525078 
L 94.050333 90.444008 
L 94.151253 90.11973 
L 94.252172 90.058927 
L 94.29254 89.856253 
L 94.49438 89.795451 
L 94.595299 89.511707 
L 94.736587 89.41037 
L 94.756771 89.369835 
L 94.877874 89.309033 
L 94.978794 89.126626 
L 95.079714 89.086091 
L 95.180633 88.842882 
L 95.241185 88.78208 
L 95.301737 88.640208 
L 95.503576 88.538871 
L 95.503576 88.498336 
L 95.765968 88.396999 
L 95.826519 88.275395 
L 95.967807 88.214592 
L 96.068727 87.991651 
L 96.270566 87.890314 
L 96.351302 87.788977 
L 96.492589 87.687639 
L 96.573325 87.545768 
L 96.775164 87.464698 
L 96.876084 87.403896 
L 97.037555 87.302558 
L 97.037555 87.282291 
L 97.199027 87.180954 
L 97.299947 86.937745 
L 97.42105 86.836408 
L 97.52197 86.694536 
L 97.703625 86.613466 
L 97.784361 86.43106 
L 97.905465 86.390525 
L 97.9862 86.208118 
L 98.288959 86.106781 
L 98.389879 85.964909 
L 98.591718 85.863572 
L 98.672454 85.782502 
L 98.793558 85.701433 
L 98.894477 85.377154 
L 98.955029 85.275817 
L 99.055949 84.951538 
L 99.156868 84.850201 
L 99.21742 84.688062 
L 99.399076 84.586725 
L 99.479811 84.444853 
L 99.560547 84.38405 
L 99.661467 84.242178 
L 99.802754 84.140841 
L 99.903674 84.019237 
L 100.125697 83.9179 
L 100.206433 83.83683 
L 100.246801 83.83683 
L 100.347721 83.634156 
L 100.468824 83.532819 
L 100.569744 83.20854 
L 100.65048 83.147738 
L 100.751399 83.005866 
L 100.811951 82.924796 
L 100.912871 82.762657 
L 101.094526 82.701855 
L 101.195446 82.357309 
L 101.276182 82.276239 
L 101.377101 81.95196 
L 101.478021 81.850623 
L 101.578941 81.749286 
L 101.67986 81.647949 
L 101.760596 81.526345 
L 101.821148 81.445275 
L 101.922067 81.202066 
L 102.002803 81.100729 
L 102.063355 80.898055 
L 102.34593 80.796718 
L 102.44685 80.654846 
L 102.608321 80.573776 
L 102.648689 80.411637 
L 102.789977 80.391369 
L 102.890896 80.188695 
L 103.11292 80.087358 
L 103.213839 79.783347 
L 103.415679 79.722544 
L 103.516598 79.621207 
L 103.556966 79.540138 
L 103.617518 79.357731 
L 103.718438 79.256394 
L 103.778989 79.094254 
L 103.920277 79.033452 
L 104.001013 78.851045 
L 104.24322 78.749708 
L 104.323956 78.567302 
L 104.586347 78.465965 
L 104.667083 78.384895 
L 104.889106 78.303825 
L 104.949658 78.182221 
L 105.333152 78.101151 
L 105.37352 78.040349 
L 105.555176 77.939012 
L 105.656095 77.756605 
L 105.716647 77.736338 
L 105.817567 77.452594 
L 105.958854 77.351257 
L 106.019406 77.229652 
L 106.281797 77.128315 
L 106.342349 77.006711 
L 106.544188 76.925641 
L 106.60474 76.804036 
L 106.70566 76.763501 
L 106.766212 76.337886 
L 106.988235 76.236549 
L 107.028603 76.054142 
L 107.210258 75.952805 
L 107.311178 75.8312 
L 107.533201 75.729863 
L 107.613937 75.648794 
L 107.714857 75.547456 
L 107.815776 75.36505 
L 108.017616 75.263713 
L 108.098351 75.040771 
L 108.239639 74.939434 
L 108.340559 74.797562 
L 108.643318 74.716492 
L 108.744237 74.57462 
L 108.865341 74.513818 
L 108.966261 74.371946 
L 109.26902 74.270609 
L 109.329571 74.149005 
L 109.410307 74.047668 
L 109.410307 74.0274 
L 109.753434 73.926063 
L 109.854354 73.824726 
L 110.015825 73.723389 
L 110.116745 73.622052 
L 110.157113 73.622052 
L 110.258032 73.297773 
L 110.439688 73.196436 
L 110.459872 73.095099 
L 110.883734 72.993762 
L 110.984654 72.85189 
L 111.06539 72.811355 
L 111.166309 72.649216 
L 111.247045 72.588414 
L 111.347965 72.365472 
L 111.448884 72.264135 
L 111.549804 72.183065 
L 111.933299 72.101996 
L 112.034219 71.960124 
L 112.215874 71.879054 
L 112.215874 71.838519 
L 112.65992 71.737182 
L 112.720472 71.635845 
L 112.841576 71.534508 
L 112.841576 71.493973 
L 113.285622 71.412903 
L 113.386542 71.311566 
L 113.487462 71.250764 
L 113.568198 71.129159 
L 113.709485 71.04809 
L 113.770037 70.88595 
L 113.99206 70.804881 
L 114.072796 70.683276 
L 114.274635 70.602207 
L 114.355371 70.277928 
L 114.617762 70.176591 
L 114.718682 69.973917 
L 114.940705 69.87258 
L 115.021441 69.690173 
L 115.142544 69.588836 
L 115.243464 69.528034 
L 115.687511 69.426696 
L 115.727878 69.365894 
L 115.970086 69.264557 
L 116.071005 69.122685 
L 116.192109 69.021348 
L 116.212293 68.980813 
L 116.414132 68.879476 
L 116.474684 68.798406 
L 116.615972 68.798406 
L 116.716891 68.53493 
L 116.979282 68.433593 
L 117.080202 68.210651 
L 117.423329 68.109314 
L 117.483881 68.028245 
L 117.806824 67.926908 
L 117.847192 67.886373 
L 118.109583 67.785036 
L 118.210502 67.622896 
L 118.331606 67.562094 
L 118.35179 67.44049 
L 118.755469 67.339152 
L 118.856388 67.258083 
L 119.058228 67.177013 
L 119.098596 67.095943 
L 119.280251 67.014874 
L 119.360987 66.913537 
L 119.562826 66.852734 
L 119.623378 66.670328 
L 119.764665 66.568991 
L 119.845401 66.487921 
L 120.027056 66.406851 
L 120.107792 66.285247 
L 120.24908 66.224444 
L 120.329816 66.143375 
L 120.450919 66.082573 
L 120.511471 65.900166 
L 120.834414 65.798829 
L 120.91515 65.656957 
L 121.036253 65.55562 
L 121.137173 65.434015 
L 121.298644 65.332678 
L 121.318828 65.231341 
L 121.520668 65.130004 
L 121.601403 65.089469 
L 121.742691 64.988132 
L 121.843611 64.886795 
L 122.085818 64.785458 
L 122.186737 64.663853 
L 122.348209 64.562516 
L 122.449129 64.481447 
L 122.590416 64.400377 
L 122.691336 64.21797 
L 122.812439 64.116633 
L 122.913359 64.015296 
L 123.054647 63.913959 
L 123.115198 63.832889 
L 123.27667 63.731552 
L 123.296854 63.67075 
L 123.821636 63.569413 
L 123.922556 63.488343 
L 124.023475 63.407273 
L 124.063843 63.305936 
L 124.366602 63.204599 
L 124.40697 63.12353 
L 124.790465 63.04246 
L 124.871201 62.900588 
L 125.194144 62.799251 
L 125.295063 62.697914 
L 125.395983 62.616844 
L 125.496903 62.515507 
L 125.597822 62.434437 
L 125.678558 62.3331 
L 125.84003 62.231763 
L 125.900581 62.191228 
L 126.122605 62.089891 
L 126.162973 61.968287 
L 126.445548 61.86695 
L 126.506099 61.826415 
L 126.929962 61.725078 
L 126.929962 61.664276 
L 127.212537 61.562939 
L 127.293273 61.502136 
L 127.53548 61.400799 
L 127.596032 61.339997 
L 127.757503 61.258927 
L 127.777687 61.198125 
L 128.040078 61.096788 
L 128.120814 60.954916 
L 128.241918 60.853579 
L 128.322653 60.752242 
L 128.484125 60.671172 
L 128.564861 60.590102 
L 128.847436 60.509033 
L 128.887804 60.427963 
L 129.109827 60.326626 
L 129.130011 60.265824 
L 129.473138 60.205022 
L 129.53369 60.103684 
L 129.735529 60.002347 
L 129.836449 59.799673 
L 130.018104 59.718604 
L 130.09884 59.596999 
L 130.199759 59.495662 
L 130.260311 59.43486 
L 130.502518 59.35379 
L 130.542886 59.292988 
L 130.724542 59.232186 
L 130.785093 59.130848 
L 131.067669 59.029511 
L 131.148404 58.928174 
L 131.572267 58.847105 
L 131.673187 58.705233 
L 131.854842 58.624163 
L 131.854842 58.583628 
L 132.238337 58.563361 
L 132.319072 58.401221 
L 132.601648 58.320152 
L 132.682383 58.218815 
L 133.186982 58.117478 
L 133.267717 57.854001 
L 133.509925 57.752664 
L 133.570476 57.610792 
L 133.772316 57.509455 
L 133.873235 57.428385 
L 134.15581 57.327048 
L 134.216362 57.286513 
L 134.498937 57.185176 
L 134.599857 57.124374 
L 134.902616 57.063572 
L 135.003536 56.901433 
L 135.144823 56.800095 
L 135.144823 56.779828 
L 135.508134 56.678491 
L 135.548502 56.536619 
L 136.0531 56.435282 
L 136.0531 56.415015 
L 136.456779 56.333945 
L 136.557699 56.232608 
L 136.759538 56.131271 
L 136.860458 56.050201 
L 137.021929 55.948864 
L 137.102665 55.867794 
L 137.38524 55.766457 
L 137.425608 55.705655 
L 137.687999 55.624585 
L 137.788919 55.482713 
L 138.313701 55.381376 
L 138.414621 55.320574 
L 138.697196 55.219237 
L 138.777931 55.158435 
L 138.959587 55.097632 
L 139.060506 54.854423 
L 139.363265 54.753086 
L 139.444001 54.692284 
L 139.625657 54.651749 
L 139.726576 54.449075 
L 140.271543 54.347738 
L 140.372462 54.286936 
L 140.614669 54.205866 
L 140.695405 54.145064 
L 140.877061 54.084262 
L 140.917428 53.962657 
L 141.361475 53.86132 
L 141.462395 53.820785 
L 142.007361 53.719448 
L 142.088097 53.618111 
L 142.249568 53.516774 
L 142.269752 53.476239 
L 142.956006 53.374902 
L 143.016558 53.334367 
L 143.238581 53.253297 
L 143.278949 53.192495 
L 143.64226 53.091158 
L 143.662443 53.010088 
L 143.884467 52.949286 
L 143.884467 52.888484 
L 144.368881 52.787147 
L 144.368881 52.726345 
L 144.792744 52.645275 
L 144.792744 52.60474 
L 145.156055 52.503403 
L 145.176239 52.442601 
L 145.539549 52.341264 
L 145.539549 52.320996 
L 145.882676 52.219659 
L 145.983596 52.179124 
L 146.145067 52.098055 
L 146.245987 52.037252 
L 146.710218 51.935915 
L 146.790953 51.834578 
L 147.012977 51.733241 
L 147.093712 51.591369 
L 147.436839 51.490032 
L 147.517575 51.388695 
L 147.820334 51.307625 
L 147.921254 51.186021 
L 148.304748 51.104951 
L 148.405668 50.88201 
L 148.56714 50.821207 
L 148.607507 50.71987 
L 149.253393 50.618533 
L 149.253393 50.598266 
L 149.556152 50.496929 
L 149.616704 50.415859 
L 150.020383 50.314522 
L 150.080935 50.25372 
L 150.464429 50.192917 
L 150.524981 50.051045 
L 150.888292 49.949708 
L 150.969028 49.888906 
L 151.211235 49.787569 
L 151.211235 49.767302 
L 151.59473 49.665965 
L 151.655281 49.62543 
L 151.917673 49.584895 
L 152.018592 49.443023 
L 152.200248 49.361953 
L 152.301167 49.260616 
L 152.684662 49.159279 
L 152.785582 49.098477 
L 153.169077 48.99714 
L 153.169077 48.976872 
L 153.754411 48.875535 
L 153.754411 48.855268 
L 154.158089 48.774198 
L 154.198457 48.652594 
L 154.581952 48.551257 
L 154.602136 48.470187 
L 154.763607 48.409385 
L 154.844343 48.267513 
L 154.985631 48.166176 
L 155.08655 48.105373 
L 155.308574 48.024304 
L 155.389309 47.902699 
L 155.692068 47.82163 
L 155.792988 47.760827 
L 155.974643 47.679758 
L 156.035195 47.578421 
L 156.438874 47.477083 
L 156.479242 47.375746 
L 157.08476 47.274409 
L 157.125128 47.213607 
L 157.589358 47.11227 
L 157.670094 47.010933 
L 158.295796 46.909596 
L 158.396715 46.787991 
L 158.679291 46.727189 
L 158.739842 46.646119 
L 159.224257 46.56505 
L 159.224257 46.524515 
L 159.930694 46.423178 
L 159.930694 46.40291 
L 160.77842 46.301573 
L 160.859155 46.261038 
L 161.222466 46.159701 
L 161.283018 46.119167 
L 161.787616 46.017829 
L 161.888536 45.977295 
L 162.029824 45.875958 
L 162.090375 45.835423 
L 162.615158 45.734086 
L 162.695893 45.693551 
L 163.018836 45.612481 
L 163.119756 45.450342 
L 163.402331 45.389539 
L 163.462883 45.288202 
L 163.846378 45.207133 
L 163.90693 45.105796 
L 164.350976 45.004459 
L 164.431712 44.943656 
L 164.875758 44.842319 
L 164.875758 44.822052 
L 165.299621 44.720715 
L 165.400541 44.659912 
L 165.763851 44.558575 
L 165.763851 44.538308 
L 166.248266 44.457238 
L 166.288634 44.396436 
L 166.873968 44.295099 
L 166.954704 44.234297 
L 167.378566 44.13296 
L 167.439118 44.072157 
L 168.266659 43.97082 
L 168.307027 43.910018 
L 168.932729 43.808681 
L 168.932729 43.788414 
L 169.538247 43.687076 
L 169.639167 43.606007 
L 170.042846 43.50467 
L 170.042846 43.464135 
L 170.52726 43.362798 
L 170.52726 43.322263 
L 170.910755 43.220926 
L 171.011674 43.160124 
L 171.536457 43.058787 
L 171.617192 42.997984 
L 171.919951 42.896647 
L 172.020871 42.79531 
L 172.343814 42.693973 
L 172.343814 42.673706 
L 172.908964 42.612903 
L 172.969516 42.511566 
L 173.413563 42.410229 
L 173.494298 42.369694 
L 174.180552 42.268357 
L 174.261288 42.187288 
L 174.604415 42.08595 
L 174.664966 42.045416 
L 175.270485 41.944079 
L 175.310852 41.903544 
L 175.593427 41.802207 
L 175.694347 41.741404 
L 176.380601 41.640067 
L 176.380601 41.599532 
L 176.743912 41.498195 
L 176.743912 41.477928 
L 177.470533 41.376591 
L 177.571453 41.295521 
L 178.136603 41.194184 
L 178.136603 41.173917 
L 178.782489 41.07258 
L 178.883409 41.011777 
L 179.509111 40.91044 
L 179.589846 40.869905 
L 180.094445 40.768568 
L 180.154997 40.728034 
L 180.518307 40.626696 
L 180.518307 40.586162 
L 181.144009 40.505092 
L 181.184377 40.424022 
L 181.588056 40.322685 
L 181.60824 40.28215 
L 182.314678 40.180813 
L 182.334861 40.140278 
L 183.162403 40.038941 
L 183.222955 39.998406 
L 183.566081 39.917337 
L 183.667001 39.795732 
L 184.53491 39.694395 
L 184.615646 39.593058 
L 185.120244 39.491721 
L 185.120244 39.471454 
L 186.210177 39.370117 
L 186.210177 39.349849 
L 187.239558 39.248512 
L 187.239558 39.228245 
L 188.087283 39.126908 
L 188.147835 39.086373 
L 189.076296 38.985036 
L 189.177215 38.944501 
L 190.004757 38.843164 
L 190.004757 38.802629 
L 190.267148 38.741827 
L 190.267148 38.681024 
L 190.89285 38.579687 
L 190.89285 38.518885 
L 191.498368 38.417548 
L 191.538736 38.377013 
L 192.12407 38.275676 
L 192.164437 38.235141 
L 192.527748 38.133804 
L 192.547932 38.052734 
L 193.799336 37.951397 
L 193.859888 37.890595 
L 194.303934 37.809525 
L 194.404854 37.748723 
L 195.15166 37.647386 
L 195.192028 37.606851 
L 195.837913 37.546049 
L 195.837913 37.485247 
L 196.867294 37.38391 
L 196.968214 37.30284 
L 197.51318 37.201503 
L 197.573732 37.160968 
L 199.067343 37.059631 
L 199.148079 36.998829 
L 200.762793 36.897492 
L 200.863713 36.796155 
L 201.812358 36.694817 
L 201.812358 36.67455 
L 202.761003 36.573213 
L 202.761003 36.552946 
L 203.891303 36.451608 
L 203.992223 36.411074 
L 205.183075 36.309737 
L 205.243627 36.269202 
L 206.394111 36.167865 
L 206.394111 36.147597 
L 207.504227 36.04626 
L 207.564779 36.005725 
L 208.69508 35.904388 
L 208.715264 35.863853 
L 210.572185 35.762516 
L 210.572185 35.721981 
L 211.763038 35.620644 
L 211.843773 35.58011 
L 212.792418 35.478772 
L 212.792418 35.458505 
L 214.164926 35.357168 
L 214.164926 35.336901 
L 215.234674 35.235563 
L 215.275042 35.174761 
L 216.062216 35.073424 
L 216.102583 35.012622 
L 217.273252 34.911285 
L 217.353987 34.830215 
L 218.887966 34.728878 
L 218.988886 34.668076 
L 220.361394 34.566739 
L 220.421945 34.505936 
L 220.926544 34.404599 
L 220.926544 34.384332 
L 222.097212 34.282995 
L 222.097212 34.24246 
L 223.025673 34.16139 
L 223.126593 34.039786 
L 224.176157 33.938449 
L 224.176157 33.918181 
L 226.880804 33.837112 
L 226.96154 33.776309 
L 227.829449 33.674972 
L 227.930369 33.634437 
L 230.6552 33.5331 
L 230.715752 33.492566 
L 233.319479 33.391228 
L 233.319479 33.370961 
L 233.88463 33.289891 
L 233.924997 33.229089 
L 235.862655 33.127752 
L 235.862655 33.107485 
L 237.881049 33.006148 
L 237.881049 32.98588 
L 241.07011 32.884543 
L 241.07011 32.864276 
L 243.411446 32.762939 
L 243.411446 32.742671 
L 250.677663 32.641334 
L 250.677663 32.621067 
L 253.38231 32.51973 
L 253.38231 32.499462 
L 258.77142 32.398125 
L 258.77142 32.398125 
" clip-path="url(#p89d0631c67)" style="fill: none; stroke: #1f77b4; stroke-width: 1.5; stroke-linecap: square"/>
   </g>
   <g id="line2d_26">
    <path d="M 55.86233 233.998125 
L 258.77142 32.398125 
" clip-path="url(#p89d0631c67)" style="fill: none; stroke-dasharray: 7.4,3.2; stroke-dashoffset: 0; stroke: #808080; stroke-width: 2"/>
   </g>
   <g id="patch_3">
    <path d="M 45.716875 244.078125 
L 45.716875 22.318125 
" style="fill: none; stroke: #000000; stroke-width: 0.8; stroke-linejoin: miter; stroke-linecap: square"/>
   </g>
   <g id="patch_4">
    <path d="M 268.916875 244.078125 
L 268.916875 22.318125 
" style="fill: none; stroke: #000000; stroke-width: 0.8; stroke-linejoin: miter; stroke-linecap: square"/>
   </g>
   <g id="patch_5">
    <path d="M 45.716875 244.078125 
L 268.916875 244.078125 
" style="fill: none; stroke: #000000; stroke-width: 0.8; stroke-linejoin: miter; stroke-linecap: square"/>
   </g>
   <g id="patch_6">
    <path d="M 45.716875 22.318125 
L 268.916875 22.318125 
" style="fill: none; stroke: #000000; stroke-width: 0.8; stroke-linejoin: miter; stroke-linecap: square"/>
   </g>
   <g id="text_15">
    <!-- ROC Curve: Logistic Regression -->
    <g transform="translate(63.146875 16.318125)scale(0.12 -0.12)">
     <defs>
      <path id="DejaVuSans-4f" d="M 2522 4238 
Q 1834 4238 1429 3725 
Q 1025 3213 1025 2328 
Q 1025 1447 1429 934 
Q 1834 422 2522 422 
Q 3209 422 3611 934 
Q 4013 1447 4013 2328 
Q 4013 3213 3611 3725 
Q 3209 4238 2522 4238 
z
M 2522 4750 
Q 3503 4750 4090 4092 
Q 4678 3434 4678 2328 
Q 4678 1225 4090 567 
Q 3503 -91 2522 -91 
Q 1538 -91 948 565 
Q 359 1222 359 2328 
Q 359 3434 948 4092 
Q 1538 4750 2522 4750 
z
" transform="scale(0.015625)"/>
      <path id="DejaVuSans-43" d="M 4122 4306 
L 4122 3641 
Q 3803 3938 3442 4084 
Q 3081 4231 2675 4231 
Q 1875 4231 1450 3742 
Q 1025 3253 1025 2328 
Q 1025 1406 1450 917 
Q 1875 428 2675 428 
Q 3081 428 3442 575 
Q 3803 722 4122 1019 
L 4122 359 
Q 3791 134 3420 21 
Q 3050 -91 2638 -91 
Q 1578 -91 968 557 
Q 359 1206 359 2328 
Q 359 3453 968 4101 
Q 1578 4750 2638 4750 
Q 3056 4750 3426 4639 
Q 3797 4528 4122 4306 
z
" transform="scale(0.015625)"/>
      <path id="DejaVuSans-3a" d="M 750 794 
L 1409 794 
L 1409 0 
L 750 0 
L 750 794 
z
M 750 3309 
L 1409 3309 
L 1409 2516 
L 750 2516 
L 750 3309 
z
" transform="scale(0.015625)"/>
      <path id="DejaVuSans-4c" d="M 628 4666 
L 1259 4666 
L 1259 531 
L 3531 531 
L 3531 0 
L 628 0 
L 628 4666 
z
" transform="scale(0.015625)"/>
      <path id="DejaVuSans-67" d="M 2906 1791 
Q 2906 2416 2648 2759 
Q 2391 3103 1925 3103 
Q 1463 3103 1205 2759 
Q 947 2416 947 1791 
Q 947 1169 1205 825 
Q 1463 481 1925 481 
Q 2391 481 2648 825 
Q 2906 1169 2906 1791 
z
M 3481 434 
Q 3481 -459 3084 -895 
Q 2688 -1331 1869 -1331 
Q 1566 -1331 1297 -1286 
Q 1028 -1241 775 -1147 
L 775 -588 
Q 1028 -725 1275 -790 
Q 1522 -856 1778 -856 
Q 2344 -856 2625 -561 
Q 2906 -266 2906 331 
L 2906 616 
Q 2728 306 2450 153 
Q 2172 0 1784 0 
Q 1141 0 747 490 
Q 353 981 353 1791 
Q 353 2603 747 3093 
Q 1141 3584 1784 3584 
Q 2172 3584 2450 3431 
Q 2728 3278 2906 2969 
L 2906 3500 
L 3481 3500 
L 3481 434 
z
" transform="scale(0.015625)"/>
      <path id="DejaVuSans-63" d="M 3122 3366 
L 3122 2828 
Q 2878 2963 2633 3030 
Q 2388 3097 2138 3097 
Q 1578 3097 1268 2742 
Q 959 2388 959 1747 
Q 959 1106 1268 751 
Q 1578 397 2138 397 
Q 2388 397 2633 464 
Q 2878 531 3122 666 
L 3122 134 
Q 2881 22 2623 -34 
Q 2366 -91 2075 -91 
Q 1284 -91 818 406 
Q 353 903 353 1747 
Q 353 2603 823 3093 
Q 1294 3584 2113 3584 
Q 2378 3584 2631 3529 
Q 2884 3475 3122 3366 
z
" transform="scale(0.015625)"/>
      <path id="DejaVuSans-6e" d="M 3513 2113 
L 3513 0 
L 2938 0 
L 2938 2094 
Q 2938 2591 2744 2837 
Q 2550 3084 2163 3084 
Q 1697 3084 1428 2787 
Q 1159 2491 1159 1978 
L 1159 0 
L 581 0 
L 581 3500 
L 1159 3500 
L 1159 2956 
Q 1366 3272 1645 3428 
Q 1925 3584 2291 3584 
Q 2894 3584 3203 3211 
Q 3513 2838 3513 2113 
z
" transform="scale(0.015625)"/>
     </defs>
     <use xlink:href="#DejaVuSans-52"/>
     <use xlink:href="#DejaVuSans-4f" x="69.482422"/>
     <use xlink:href="#DejaVuSans-43" x="148.193359"/>
     <use xlink:href="#DejaVuSans-20" x="218.017578"/>
     <use xlink:href="#DejaVuSans-43" x="249.804688"/>
     <use xlink:href="#DejaVuSans-75" x="319.628906"/>
     <use xlink:href="#DejaVuSans-72" x="383.007812"/>
     <use xlink:href="#DejaVuSans-76" x="424.121094"/>
     <use xlink:href="#DejaVuSans-65" x="483.300781"/>
     <use xlink:href="#DejaVuSans-3a" x="544.824219"/>
     <use xlink:href="#DejaVuSans-20" x="578.515625"/>
     <use xlink:href="#DejaVuSans-4c" x="610.302734"/>
     <use xlink:href="#DejaVuSans-6f" x="664.265625"/>
     <use xlink:href="#DejaVuSans-67" x="725.447266"/>
     <use xlink:href="#DejaVuSans-69" x="788.923828"/>
     <use xlink:href="#DejaVuSans-73" x="816.707031"/>
     <use xlink:href="#DejaVuSans-74" x="868.806641"/>
     <use xlink:href="#DejaVuSans-69" x="908.015625"/>
     <use xlink:href="#DejaVuSans-63" x="935.798828"/>
     <use xlink:href="#DejaVuSans-20" x="990.779297"/>
     <use xlink:href="#DejaVuSans-52" x="1022.566406"/>
     <use xlink:href="#DejaVuSans-65" x="1087.548828"/>
     <use xlink:href="#DejaVuSans-67" x="1149.072266"/>
     <use xlink:href="#DejaVuSans-72" x="1212.548828"/>
     <use xlink:href="#DejaVuSans-65" x="1251.412109"/>
     <use xlink:href="#DejaVuSans-73" x="1312.935547"/>
     <use xlink:href="#DejaVuSans-73" x="1365.035156"/>
     <use xlink:href="#DejaVuSans-69" x="1417.134766"/>
     <use xlink:href="#DejaVuSans-6f" x="1444.917969"/>
     <use xlink:href="#DejaVuSans-6e" x="1506.099609"/>
    </g>
   </g>
   <g id="legend_1">
    <g id="patch_7">
     <path d="M 154.684062 239.078125 
L 261.916875 239.078125 
Q 263.916875 239.078125 263.916875 237.078125 
L 263.916875 208.721875 
Q 263.916875 206.721875 261.916875 206.721875 
L 154.684062 206.721875 
Q 152.684062 206.721875 152.684062 208.721875 
L 152.684062 237.078125 
Q 152.684062 239.078125 154.684062 239.078125 
z
" style="fill: #ffffff; opacity: 0.8; stroke: #cccccc; stroke-linejoin: miter"/>
    </g>
    <g id="line2d_27">
     <path d="M 156.684062 214.820312 
L 166.684062 214.820312 
L 176.684062 214.820312 
" style="fill: none; stroke: #1f77b4; stroke-width: 1.5; stroke-linecap: square"/>
    </g>
    <g id="text_16">
     <!-- ROC Curve -->
     <g transform="translate(184.684062 218.320312)scale(0.1 -0.1)">
      <use xlink:href="#DejaVuSans-52"/>
      <use xlink:href="#DejaVuSans-4f" x="69.482422"/>
      <use xlink:href="#DejaVuSans-43" x="148.193359"/>
      <use xlink:href="#DejaVuSans-20" x="218.017578"/>
      <use xlink:href="#DejaVuSans-43" x="249.804688"/>
      <use xlink:href="#DejaVuSans-75" x="319.628906"/>
      <use xlink:href="#DejaVuSans-72" x="383.007812"/>
      <use xlink:href="#DejaVuSans-76" x="424.121094"/>
      <use xlink:href="#DejaVuSans-65" x="483.300781"/>
     </g>
    </g>
    <g id="line2d_28">
     <path d="M 156.684062 229.498437 
L 166.684062 229.498437 
L 176.684062 229.498437 
" style="fill: none; stroke-dasharray: 7.4,3.2; stroke-dashoffset: 0; stroke: #808080; stroke-width: 2"/>
    </g>
    <g id="text_17">
     <!-- Random Guess -->
     <g transform="translate(184.684062 232.998437)scale(0.1 -0.1)">
      <defs>
       <path id="DejaVuSans-64" d="M 2906 2969 
L 2906 4863 
L 3481 4863 
L 3481 0 
L 2906 0 
L 2906 525 
Q 2725 213 2448 61 
Q 2172 -91 1784 -91 
Q 1150 -91 751 415 
Q 353 922 353 1747 
Q 353 2572 751 3078 
Q 1150 3584 1784 3584 
Q 2172 3584 2448 3432 
Q 2725 3281 2906 2969 
z
M 947 1747 
Q 947 1113 1208 752 
Q 1469 391 1925 391 
Q 2381 391 2643 752 
Q 2906 1113 2906 1747 
Q 2906 2381 2643 2742 
Q 2381 3103 1925 3103 
Q 1469 3103 1208 2742 
Q 947 2381 947 1747 
z
" transform="scale(0.015625)"/>
       <path id="DejaVuSans-6d" d="M 3328 2828 
Q 3544 3216 3844 3400 
Q 4144 3584 4550 3584 
Q 5097 3584 5394 3201 
Q 5691 2819 5691 2113 
L 5691 0 
L 5113 0 
L 5113 2094 
Q 5113 2597 4934 2840 
Q 4756 3084 4391 3084 
Q 3944 3084 3684 2787 
Q 3425 2491 3425 1978 
L 3425 0 
L 2847 0 
L 2847 2094 
Q 2847 2600 2669 2842 
Q 2491 3084 2119 3084 
Q 1678 3084 1418 2786 
Q 1159 2488 1159 1978 
L 1159 0 
L 581 0 
L 581 3500 
L 1159 3500 
L 1159 2956 
Q 1356 3278 1631 3431 
Q 1906 3584 2284 3584 
Q 2666 3584 2933 3390 
Q 3200 3197 3328 2828 
z
" transform="scale(0.015625)"/>
       <path id="DejaVuSans-47" d="M 3809 666 
L 3809 1919 
L 2778 1919 
L 2778 2438 
L 4434 2438 
L 4434 434 
Q 4069 175 3628 42 
Q 3188 -91 2688 -91 
Q 1594 -91 976 548 
Q 359 1188 359 2328 
Q 359 3472 976 4111 
Q 1594 4750 2688 4750 
Q 3144 4750 3555 4637 
Q 3966 4525 4313 4306 
L 4313 3634 
Q 3963 3931 3569 4081 
Q 3175 4231 2741 4231 
Q 1884 4231 1454 3753 
Q 1025 3275 1025 2328 
Q 1025 1384 1454 906 
Q 1884 428 2741 428 
Q 3075 428 3337 486 
Q 3600 544 3809 666 
z
" transform="scale(0.015625)"/>
      </defs>
      <use xlink:href="#DejaVuSans-52"/>
      <use xlink:href="#DejaVuSans-61" x="67.232422"/>
      <use xlink:href="#DejaVuSans-6e" x="128.511719"/>
      <use xlink:href="#DejaVuSans-64" x="191.890625"/>
      <use xlink:href="#DejaVuSans-6f" x="255.367188"/>
      <use xlink:href="#DejaVuSans-6d" x="316.548828"/>
      <use xlink:href="#DejaVuSans-20" x="413.960938"/>
      <use xlink:href="#DejaVuSans-47" x="445.748047"/>
      <use xlink:href="#DejaVuSans-75" x="523.238281"/>
      <use xlink:href="#DejaVuSans-65" x="586.617188"/>
      <use xlink:href="#DejaVuSans-73" x="648.140625"/>
      <use xlink:href="#DejaVuSans-73" x="700.240234"/>
     </g>
    </g>
   </g>
  </g>
 </g>
 <defs>
  <clipPath id="p89d0631c67">
   <rect x="45.716875" y="22.318125" width="223.2" height="221.76"/>
  </clipPath>
 </defs>
</svg>
