<?xml version="1.0" encoding="utf-8" standalone="no"?>
<!DOCTYPE svg PUBLIC "-//W3C//DTD SVG 1.1//EN"
  "http://www.w3.org/Graphics/SVG/1.1/DTD/svg11.dtd">
<svg xmlns:xlink="http://www.w3.org/1999/xlink" width="842.759062pt" height="626.024063pt" viewBox="0 0 842.759062 626.024063" xmlns="http://www.w3.org/2000/svg" version="1.1">
 <metadata>
  <rdf:RDF xmlns:dc="http://purl.org/dc/elements/1.1/" xmlns:cc="http://creativecommons.org/ns#" xmlns:rdf="http://www.w3.org/1999/02/22-rdf-syntax-ns#">
   <cc:Work>
    <dc:type rdf:resource="http://purl.org/dc/dcmitype/StillImage"/>
    <dc:date>2025-03-17T20:33:20.373412</dc:date>
    <dc:format>image/svg+xml</dc:format>
    <dc:creator>
     <cc:Agent>
      <dc:title>Matplotlib v3.9.2, https://matplotlib.org/</dc:title>
     </cc:Agent>
    </dc:creator>
   </cc:Work>
  </rdf:RDF>
 </metadata>
 <defs>
  <style type="text/css">*{stroke-linejoin: round; stroke-linecap: butt}</style>
 </defs>
 <g id="figure_1">
  <g id="patch_1">
   <path d="M 0 626.024063 
L 842.759062 626.024063 
L 842.759062 0 
L 0 0 
z
" style="fill: #ffffff"/>
  </g>
  <g id="axes_1">
   <g id="patch_2">
    <path d="M 54.359063 579.7575 
L 835.559063 579.7575 
L 835.559063 25.3575 
L 54.359063 25.3575 
z
" style="fill: #ffffff"/>
   </g>
   <g id="matplotlib.axis_1">
    <g id="xtick_1">
     <g id="line2d_1">
      <path d="M 89.868153 579.7575 
L 89.868153 25.3575 
" clip-path="url(#pae806e08d1)" style="fill: none; stroke: #b0b0b0; stroke-width: 0.8; stroke-linecap: square"/>
     </g>
     <g id="line2d_2">
      <defs>
       <path id="m53c0bd3f03" d="M 0 0 
L 0 3.5 
" style="stroke: #000000; stroke-width: 0.8"/>
      </defs>
      <g>
       <use xlink:href="#m53c0bd3f03" x="89.868153" y="579.7575" style="stroke: #000000; stroke-width: 0.8"/>
      </g>
     </g>
     <g id="text_1">
      <!-- 0.0 -->
      <g transform="translate(79.531122 596.635469) scale(0.13 -0.13)">
       <defs>
        <path id="DejaVuSans-30" d="M 2034 4250 
Q 1547 4250 1301 3770 
Q 1056 3291 1056 2328 
Q 1056 1369 1301 889 
Q 1547 409 2034 409 
Q 2525 409 2770 889 
Q 3016 1369 3016 2328 
Q 3016 3291 2770 3770 
Q 2525 4250 2034 4250 
z
M 2034 4750 
Q 2819 4750 3233 4129 
Q 3647 3509 3647 2328 
Q 3647 1150 3233 529 
Q 2819 -91 2034 -91 
Q 1250 -91 836 529 
Q 422 1150 422 2328 
Q 422 3509 836 4129 
Q 1250 4750 2034 4750 
z
" transform="scale(0.015625)"/>
        <path id="DejaVuSans-2e" d="M 684 794 
L 1344 794 
L 1344 0 
L 684 0 
L 684 794 
z
" transform="scale(0.015625)"/>
       </defs>
       <use xlink:href="#DejaVuSans-30"/>
       <use xlink:href="#DejaVuSans-2e" x="63.623047"/>
       <use xlink:href="#DejaVuSans-30" x="95.410156"/>
      </g>
     </g>
    </g>
    <g id="xtick_2">
     <g id="line2d_3">
      <path d="M 231.904517 579.7575 
L 231.904517 25.3575 
" clip-path="url(#pae806e08d1)" style="fill: none; stroke: #b0b0b0; stroke-width: 0.8; stroke-linecap: square"/>
     </g>
     <g id="line2d_4">
      <g>
       <use xlink:href="#m53c0bd3f03" x="231.904517" y="579.7575" style="stroke: #000000; stroke-width: 0.8"/>
      </g>
     </g>
     <g id="text_2">
      <!-- 0.2 -->
      <g transform="translate(221.567486 596.635469) scale(0.13 -0.13)">
       <defs>
        <path id="DejaVuSans-32" d="M 1228 531 
L 3431 531 
L 3431 0 
L 469 0 
L 469 531 
Q 828 903 1448 1529 
Q 2069 2156 2228 2338 
Q 2531 2678 2651 2914 
Q 2772 3150 2772 3378 
Q 2772 3750 2511 3984 
Q 2250 4219 1831 4219 
Q 1534 4219 1204 4116 
Q 875 4013 500 3803 
L 500 4441 
Q 881 4594 1212 4672 
Q 1544 4750 1819 4750 
Q 2544 4750 2975 4387 
Q 3406 4025 3406 3419 
Q 3406 3131 3298 2873 
Q 3191 2616 2906 2266 
Q 2828 2175 2409 1742 
Q 1991 1309 1228 531 
z
" transform="scale(0.015625)"/>
       </defs>
       <use xlink:href="#DejaVuSans-30"/>
       <use xlink:href="#DejaVuSans-2e" x="63.623047"/>
       <use xlink:href="#DejaVuSans-32" x="95.410156"/>
      </g>
     </g>
    </g>
    <g id="xtick_3">
     <g id="line2d_5">
      <path d="M 373.940881 579.7575 
L 373.940881 25.3575 
" clip-path="url(#pae806e08d1)" style="fill: none; stroke: #b0b0b0; stroke-width: 0.8; stroke-linecap: square"/>
     </g>
     <g id="line2d_6">
      <g>
       <use xlink:href="#m53c0bd3f03" x="373.940881" y="579.7575" style="stroke: #000000; stroke-width: 0.8"/>
      </g>
     </g>
     <g id="text_3">
      <!-- 0.4 -->
      <g transform="translate(363.603849 596.635469) scale(0.13 -0.13)">
       <defs>
        <path id="DejaVuSans-34" d="M 2419 4116 
L 825 1625 
L 2419 1625 
L 2419 4116 
z
M 2253 4666 
L 3047 4666 
L 3047 1625 
L 3713 1625 
L 3713 1100 
L 3047 1100 
L 3047 0 
L 2419 0 
L 2419 1100 
L 313 1100 
L 313 1709 
L 2253 4666 
z
" transform="scale(0.015625)"/>
       </defs>
       <use xlink:href="#DejaVuSans-30"/>
       <use xlink:href="#DejaVuSans-2e" x="63.623047"/>
       <use xlink:href="#DejaVuSans-34" x="95.410156"/>
      </g>
     </g>
    </g>
    <g id="xtick_4">
     <g id="line2d_7">
      <path d="M 515.977244 579.7575 
L 515.977244 25.3575 
" clip-path="url(#pae806e08d1)" style="fill: none; stroke: #b0b0b0; stroke-width: 0.8; stroke-linecap: square"/>
     </g>
     <g id="line2d_8">
      <g>
       <use xlink:href="#m53c0bd3f03" x="515.977244" y="579.7575" style="stroke: #000000; stroke-width: 0.8"/>
      </g>
     </g>
     <g id="text_4">
      <!-- 0.6 -->
      <g transform="translate(505.640213 596.635469) scale(0.13 -0.13)">
       <defs>
        <path id="DejaVuSans-36" d="M 2113 2584 
Q 1688 2584 1439 2293 
Q 1191 2003 1191 1497 
Q 1191 994 1439 701 
Q 1688 409 2113 409 
Q 2538 409 2786 701 
Q 3034 994 3034 1497 
Q 3034 2003 2786 2293 
Q 2538 2584 2113 2584 
z
M 3366 4563 
L 3366 3988 
Q 3128 4100 2886 4159 
Q 2644 4219 2406 4219 
Q 1781 4219 1451 3797 
Q 1122 3375 1075 2522 
Q 1259 2794 1537 2939 
Q 1816 3084 2150 3084 
Q 2853 3084 3261 2657 
Q 3669 2231 3669 1497 
Q 3669 778 3244 343 
Q 2819 -91 2113 -91 
Q 1303 -91 875 529 
Q 447 1150 447 2328 
Q 447 3434 972 4092 
Q 1497 4750 2381 4750 
Q 2619 4750 2861 4703 
Q 3103 4656 3366 4563 
z
" transform="scale(0.015625)"/>
       </defs>
       <use xlink:href="#DejaVuSans-30"/>
       <use xlink:href="#DejaVuSans-2e" x="63.623047"/>
       <use xlink:href="#DejaVuSans-36" x="95.410156"/>
      </g>
     </g>
    </g>
    <g id="xtick_5">
     <g id="line2d_9">
      <path d="M 658.013608 579.7575 
L 658.013608 25.3575 
" clip-path="url(#pae806e08d1)" style="fill: none; stroke: #b0b0b0; stroke-width: 0.8; stroke-linecap: square"/>
     </g>
     <g id="line2d_10">
      <g>
       <use xlink:href="#m53c0bd3f03" x="658.013608" y="579.7575" style="stroke: #000000; stroke-width: 0.8"/>
      </g>
     </g>
     <g id="text_5">
      <!-- 0.8 -->
      <g transform="translate(647.676577 596.635469) scale(0.13 -0.13)">
       <defs>
        <path id="DejaVuSans-38" d="M 2034 2216 
Q 1584 2216 1326 1975 
Q 1069 1734 1069 1313 
Q 1069 891 1326 650 
Q 1584 409 2034 409 
Q 2484 409 2743 651 
Q 3003 894 3003 1313 
Q 3003 1734 2745 1975 
Q 2488 2216 2034 2216 
z
M 1403 2484 
Q 997 2584 770 2862 
Q 544 3141 544 3541 
Q 544 4100 942 4425 
Q 1341 4750 2034 4750 
Q 2731 4750 3128 4425 
Q 3525 4100 3525 3541 
Q 3525 3141 3298 2862 
Q 3072 2584 2669 2484 
Q 3125 2378 3379 2068 
Q 3634 1759 3634 1313 
Q 3634 634 3220 271 
Q 2806 -91 2034 -91 
Q 1263 -91 848 271 
Q 434 634 434 1313 
Q 434 1759 690 2068 
Q 947 2378 1403 2484 
z
M 1172 3481 
Q 1172 3119 1398 2916 
Q 1625 2713 2034 2713 
Q 2441 2713 2670 2916 
Q 2900 3119 2900 3481 
Q 2900 3844 2670 4047 
Q 2441 4250 2034 4250 
Q 1625 4250 1398 4047 
Q 1172 3844 1172 3481 
z
" transform="scale(0.015625)"/>
       </defs>
       <use xlink:href="#DejaVuSans-30"/>
       <use xlink:href="#DejaVuSans-2e" x="63.623047"/>
       <use xlink:href="#DejaVuSans-38" x="95.410156"/>
      </g>
     </g>
    </g>
    <g id="xtick_6">
     <g id="line2d_11">
      <path d="M 800.049972 579.7575 
L 800.049972 25.3575 
" clip-path="url(#pae806e08d1)" style="fill: none; stroke: #b0b0b0; stroke-width: 0.8; stroke-linecap: square"/>
     </g>
     <g id="line2d_12">
      <g>
       <use xlink:href="#m53c0bd3f03" x="800.049972" y="579.7575" style="stroke: #000000; stroke-width: 0.8"/>
      </g>
     </g>
     <g id="text_6">
      <!-- 1.0 -->
      <g transform="translate(789.71294 596.635469) scale(0.13 -0.13)">
       <defs>
        <path id="DejaVuSans-31" d="M 794 531 
L 1825 531 
L 1825 4091 
L 703 3866 
L 703 4441 
L 1819 4666 
L 2450 4666 
L 2450 531 
L 3481 531 
L 3481 0 
L 794 0 
L 794 531 
z
" transform="scale(0.015625)"/>
       </defs>
       <use xlink:href="#DejaVuSans-31"/>
       <use xlink:href="#DejaVuSans-2e" x="63.623047"/>
       <use xlink:href="#DejaVuSans-30" x="95.410156"/>
      </g>
     </g>
    </g>
    <g id="text_7">
     <!-- Mean Predicted Probability -->
     <g transform="translate(338.237813 615.496563) scale(0.16 -0.16)">
      <defs>
       <path id="DejaVuSans-4d" d="M 628 4666 
L 1569 4666 
L 2759 1491 
L 3956 4666 
L 4897 4666 
L 4897 0 
L 4281 0 
L 4281 4097 
L 3078 897 
L 2444 897 
L 1241 4097 
L 1241 0 
L 628 0 
L 628 4666 
z
" transform="scale(0.015625)"/>
       <path id="DejaVuSans-65" d="M 3597 1894 
L 3597 1613 
L 953 1613 
Q 991 1019 1311 708 
Q 1631 397 2203 397 
Q 2534 397 2845 478 
Q 3156 559 3463 722 
L 3463 178 
Q 3153 47 2828 -22 
Q 2503 -91 2169 -91 
Q 1331 -91 842 396 
Q 353 884 353 1716 
Q 353 2575 817 3079 
Q 1281 3584 2069 3584 
Q 2775 3584 3186 3129 
Q 3597 2675 3597 1894 
z
M 3022 2063 
Q 3016 2534 2758 2815 
Q 2500 3097 2075 3097 
Q 1594 3097 1305 2825 
Q 1016 2553 972 2059 
L 3022 2063 
z
" transform="scale(0.015625)"/>
       <path id="DejaVuSans-61" d="M 2194 1759 
Q 1497 1759 1228 1600 
Q 959 1441 959 1056 
Q 959 750 1161 570 
Q 1363 391 1709 391 
Q 2188 391 2477 730 
Q 2766 1069 2766 1631 
L 2766 1759 
L 2194 1759 
z
M 3341 1997 
L 3341 0 
L 2766 0 
L 2766 531 
Q 2569 213 2275 61 
Q 1981 -91 1556 -91 
Q 1019 -91 701 211 
Q 384 513 384 1019 
Q 384 1609 779 1909 
Q 1175 2209 1959 2209 
L 2766 2209 
L 2766 2266 
Q 2766 2663 2505 2880 
Q 2244 3097 1772 3097 
Q 1472 3097 1187 3025 
Q 903 2953 641 2809 
L 641 3341 
Q 956 3463 1253 3523 
Q 1550 3584 1831 3584 
Q 2591 3584 2966 3190 
Q 3341 2797 3341 1997 
z
" transform="scale(0.015625)"/>
       <path id="DejaVuSans-6e" d="M 3513 2113 
L 3513 0 
L 2938 0 
L 2938 2094 
Q 2938 2591 2744 2837 
Q 2550 3084 2163 3084 
Q 1697 3084 1428 2787 
Q 1159 2491 1159 1978 
L 1159 0 
L 581 0 
L 581 3500 
L 1159 3500 
L 1159 2956 
Q 1366 3272 1645 3428 
Q 1925 3584 2291 3584 
Q 2894 3584 3203 3211 
Q 3513 2838 3513 2113 
z
" transform="scale(0.015625)"/>
       <path id="DejaVuSans-20" transform="scale(0.015625)"/>
       <path id="DejaVuSans-50" d="M 1259 4147 
L 1259 2394 
L 2053 2394 
Q 2494 2394 2734 2622 
Q 2975 2850 2975 3272 
Q 2975 3691 2734 3919 
Q 2494 4147 2053 4147 
L 1259 4147 
z
M 628 4666 
L 2053 4666 
Q 2838 4666 3239 4311 
Q 3641 3956 3641 3272 
Q 3641 2581 3239 2228 
Q 2838 1875 2053 1875 
L 1259 1875 
L 1259 0 
L 628 0 
L 628 4666 
z
" transform="scale(0.015625)"/>
       <path id="DejaVuSans-72" d="M 2631 2963 
Q 2534 3019 2420 3045 
Q 2306 3072 2169 3072 
Q 1681 3072 1420 2755 
Q 1159 2438 1159 1844 
L 1159 0 
L 581 0 
L 581 3500 
L 1159 3500 
L 1159 2956 
Q 1341 3275 1631 3429 
Q 1922 3584 2338 3584 
Q 2397 3584 2469 3576 
Q 2541 3569 2628 3553 
L 2631 2963 
z
" transform="scale(0.015625)"/>
       <path id="DejaVuSans-64" d="M 2906 2969 
L 2906 4863 
L 3481 4863 
L 3481 0 
L 2906 0 
L 2906 525 
Q 2725 213 2448 61 
Q 2172 -91 1784 -91 
Q 1150 -91 751 415 
Q 353 922 353 1747 
Q 353 2572 751 3078 
Q 1150 3584 1784 3584 
Q 2172 3584 2448 3432 
Q 2725 3281 2906 2969 
z
M 947 1747 
Q 947 1113 1208 752 
Q 1469 391 1925 391 
Q 2381 391 2643 752 
Q 2906 1113 2906 1747 
Q 2906 2381 2643 2742 
Q 2381 3103 1925 3103 
Q 1469 3103 1208 2742 
Q 947 2381 947 1747 
z
" transform="scale(0.015625)"/>
       <path id="DejaVuSans-69" d="M 603 3500 
L 1178 3500 
L 1178 0 
L 603 0 
L 603 3500 
z
M 603 4863 
L 1178 4863 
L 1178 4134 
L 603 4134 
L 603 4863 
z
" transform="scale(0.015625)"/>
       <path id="DejaVuSans-63" d="M 3122 3366 
L 3122 2828 
Q 2878 2963 2633 3030 
Q 2388 3097 2138 3097 
Q 1578 3097 1268 2742 
Q 959 2388 959 1747 
Q 959 1106 1268 751 
Q 1578 397 2138 397 
Q 2388 397 2633 464 
Q 2878 531 3122 666 
L 3122 134 
Q 2881 22 2623 -34 
Q 2366 -91 2075 -91 
Q 1284 -91 818 406 
Q 353 903 353 1747 
Q 353 2603 823 3093 
Q 1294 3584 2113 3584 
Q 2378 3584 2631 3529 
Q 2884 3475 3122 3366 
z
" transform="scale(0.015625)"/>
       <path id="DejaVuSans-74" d="M 1172 4494 
L 1172 3500 
L 2356 3500 
L 2356 3053 
L 1172 3053 
L 1172 1153 
Q 1172 725 1289 603 
Q 1406 481 1766 481 
L 2356 481 
L 2356 0 
L 1766 0 
Q 1100 0 847 248 
Q 594 497 594 1153 
L 594 3053 
L 172 3053 
L 172 3500 
L 594 3500 
L 594 4494 
L 1172 4494 
z
" transform="scale(0.015625)"/>
       <path id="DejaVuSans-6f" d="M 1959 3097 
Q 1497 3097 1228 2736 
Q 959 2375 959 1747 
Q 959 1119 1226 758 
Q 1494 397 1959 397 
Q 2419 397 2687 759 
Q 2956 1122 2956 1747 
Q 2956 2369 2687 2733 
Q 2419 3097 1959 3097 
z
M 1959 3584 
Q 2709 3584 3137 3096 
Q 3566 2609 3566 1747 
Q 3566 888 3137 398 
Q 2709 -91 1959 -91 
Q 1206 -91 779 398 
Q 353 888 353 1747 
Q 353 2609 779 3096 
Q 1206 3584 1959 3584 
z
" transform="scale(0.015625)"/>
       <path id="DejaVuSans-62" d="M 3116 1747 
Q 3116 2381 2855 2742 
Q 2594 3103 2138 3103 
Q 1681 3103 1420 2742 
Q 1159 2381 1159 1747 
Q 1159 1113 1420 752 
Q 1681 391 2138 391 
Q 2594 391 2855 752 
Q 3116 1113 3116 1747 
z
M 1159 2969 
Q 1341 3281 1617 3432 
Q 1894 3584 2278 3584 
Q 2916 3584 3314 3078 
Q 3713 2572 3713 1747 
Q 3713 922 3314 415 
Q 2916 -91 2278 -91 
Q 1894 -91 1617 61 
Q 1341 213 1159 525 
L 1159 0 
L 581 0 
L 581 4863 
L 1159 4863 
L 1159 2969 
z
" transform="scale(0.015625)"/>
       <path id="DejaVuSans-6c" d="M 603 4863 
L 1178 4863 
L 1178 0 
L 603 0 
L 603 4863 
z
" transform="scale(0.015625)"/>
       <path id="DejaVuSans-79" d="M 2059 -325 
Q 1816 -950 1584 -1140 
Q 1353 -1331 966 -1331 
L 506 -1331 
L 506 -850 
L 844 -850 
Q 1081 -850 1212 -737 
Q 1344 -625 1503 -206 
L 1606 56 
L 191 3500 
L 800 3500 
L 1894 763 
L 2988 3500 
L 3597 3500 
L 2059 -325 
z
" transform="scale(0.015625)"/>
      </defs>
      <use xlink:href="#DejaVuSans-4d"/>
      <use xlink:href="#DejaVuSans-65" x="86.279297"/>
      <use xlink:href="#DejaVuSans-61" x="147.802734"/>
      <use xlink:href="#DejaVuSans-6e" x="209.082031"/>
      <use xlink:href="#DejaVuSans-20" x="272.460938"/>
      <use xlink:href="#DejaVuSans-50" x="304.248047"/>
      <use xlink:href="#DejaVuSans-72" x="362.800781"/>
      <use xlink:href="#DejaVuSans-65" x="401.664062"/>
      <use xlink:href="#DejaVuSans-64" x="463.1875"/>
      <use xlink:href="#DejaVuSans-69" x="526.664062"/>
      <use xlink:href="#DejaVuSans-63" x="554.447266"/>
      <use xlink:href="#DejaVuSans-74" x="609.427734"/>
      <use xlink:href="#DejaVuSans-65" x="648.636719"/>
      <use xlink:href="#DejaVuSans-64" x="710.160156"/>
      <use xlink:href="#DejaVuSans-20" x="773.636719"/>
      <use xlink:href="#DejaVuSans-50" x="805.423828"/>
      <use xlink:href="#DejaVuSans-72" x="863.976562"/>
      <use xlink:href="#DejaVuSans-6f" x="902.839844"/>
      <use xlink:href="#DejaVuSans-62" x="964.021484"/>
      <use xlink:href="#DejaVuSans-61" x="1027.498047"/>
      <use xlink:href="#DejaVuSans-62" x="1088.777344"/>
      <use xlink:href="#DejaVuSans-69" x="1152.253906"/>
      <use xlink:href="#DejaVuSans-6c" x="1180.037109"/>
      <use xlink:href="#DejaVuSans-69" x="1207.820312"/>
      <use xlink:href="#DejaVuSans-74" x="1235.603516"/>
      <use xlink:href="#DejaVuSans-79" x="1274.8125"/>
     </g>
    </g>
   </g>
   <g id="matplotlib.axis_2">
    <g id="ytick_1">
     <g id="line2d_13">
      <path d="M 54.359063 554.5575 
L 835.559063 554.5575 
" clip-path="url(#pae806e08d1)" style="fill: none; stroke: #b0b0b0; stroke-width: 0.8; stroke-linecap: square"/>
     </g>
     <g id="line2d_14">
      <defs>
       <path id="mb0999bd8fd" d="M 0 0 
L -3.5 0 
" style="stroke: #000000; stroke-width: 0.8"/>
      </defs>
      <g>
       <use xlink:href="#mb0999bd8fd" x="54.359063" y="554.5575" style="stroke: #000000; stroke-width: 0.8"/>
      </g>
     </g>
     <g id="text_8">
      <!-- 0.0 -->
      <g transform="translate(26.685 559.496484) scale(0.13 -0.13)">
       <use xlink:href="#DejaVuSans-30"/>
       <use xlink:href="#DejaVuSans-2e" x="63.623047"/>
       <use xlink:href="#DejaVuSans-30" x="95.410156"/>
      </g>
     </g>
    </g>
    <g id="ytick_2">
     <g id="line2d_15">
      <path d="M 54.359063 453.7575 
L 835.559063 453.7575 
" clip-path="url(#pae806e08d1)" style="fill: none; stroke: #b0b0b0; stroke-width: 0.8; stroke-linecap: square"/>
     </g>
     <g id="line2d_16">
      <g>
       <use xlink:href="#mb0999bd8fd" x="54.359063" y="453.7575" style="stroke: #000000; stroke-width: 0.8"/>
      </g>
     </g>
     <g id="text_9">
      <!-- 0.2 -->
      <g transform="translate(26.685 458.696484) scale(0.13 -0.13)">
       <use xlink:href="#DejaVuSans-30"/>
       <use xlink:href="#DejaVuSans-2e" x="63.623047"/>
       <use xlink:href="#DejaVuSans-32" x="95.410156"/>
      </g>
     </g>
    </g>
    <g id="ytick_3">
     <g id="line2d_17">
      <path d="M 54.359063 352.9575 
L 835.559063 352.9575 
" clip-path="url(#pae806e08d1)" style="fill: none; stroke: #b0b0b0; stroke-width: 0.8; stroke-linecap: square"/>
     </g>
     <g id="line2d_18">
      <g>
       <use xlink:href="#mb0999bd8fd" x="54.359063" y="352.9575" style="stroke: #000000; stroke-width: 0.8"/>
      </g>
     </g>
     <g id="text_10">
      <!-- 0.4 -->
      <g transform="translate(26.685 357.896484) scale(0.13 -0.13)">
       <use xlink:href="#DejaVuSans-30"/>
       <use xlink:href="#DejaVuSans-2e" x="63.623047"/>
       <use xlink:href="#DejaVuSans-34" x="95.410156"/>
      </g>
     </g>
    </g>
    <g id="ytick_4">
     <g id="line2d_19">
      <path d="M 54.359063 252.1575 
L 835.559063 252.1575 
" clip-path="url(#pae806e08d1)" style="fill: none; stroke: #b0b0b0; stroke-width: 0.8; stroke-linecap: square"/>
     </g>
     <g id="line2d_20">
      <g>
       <use xlink:href="#mb0999bd8fd" x="54.359063" y="252.1575" style="stroke: #000000; stroke-width: 0.8"/>
      </g>
     </g>
     <g id="text_11">
      <!-- 0.6 -->
      <g transform="translate(26.685 257.096484) scale(0.13 -0.13)">
       <use xlink:href="#DejaVuSans-30"/>
       <use xlink:href="#DejaVuSans-2e" x="63.623047"/>
       <use xlink:href="#DejaVuSans-36" x="95.410156"/>
      </g>
     </g>
    </g>
    <g id="ytick_5">
     <g id="line2d_21">
      <path d="M 54.359063 151.3575 
L 835.559063 151.3575 
" clip-path="url(#pae806e08d1)" style="fill: none; stroke: #b0b0b0; stroke-width: 0.8; stroke-linecap: square"/>
     </g>
     <g id="line2d_22">
      <g>
       <use xlink:href="#mb0999bd8fd" x="54.359063" y="151.3575" style="stroke: #000000; stroke-width: 0.8"/>
      </g>
     </g>
     <g id="text_12">
      <!-- 0.8 -->
      <g transform="translate(26.685 156.296484) scale(0.13 -0.13)">
       <use xlink:href="#DejaVuSans-30"/>
       <use xlink:href="#DejaVuSans-2e" x="63.623047"/>
       <use xlink:href="#DejaVuSans-38" x="95.410156"/>
      </g>
     </g>
    </g>
    <g id="ytick_6">
     <g id="line2d_23">
      <path d="M 54.359063 50.5575 
L 835.559063 50.5575 
" clip-path="url(#pae806e08d1)" style="fill: none; stroke: #b0b0b0; stroke-width: 0.8; stroke-linecap: square"/>
     </g>
     <g id="line2d_24">
      <g>
       <use xlink:href="#mb0999bd8fd" x="54.359063" y="50.5575" style="stroke: #000000; stroke-width: 0.8"/>
      </g>
     </g>
     <g id="text_13">
      <!-- 1.0 -->
      <g transform="translate(26.685 55.496484) scale(0.13 -0.13)">
       <use xlink:href="#DejaVuSans-31"/>
       <use xlink:href="#DejaVuSans-2e" x="63.623047"/>
       <use xlink:href="#DejaVuSans-30" x="95.410156"/>
      </g>
     </g>
    </g>
    <g id="text_14">
     <!-- Fraction of Positives -->
     <g transform="translate(19.3575 382.29125) rotate(-90) scale(0.16 -0.16)">
      <defs>
       <path id="DejaVuSans-46" d="M 628 4666 
L 3309 4666 
L 3309 4134 
L 1259 4134 
L 1259 2759 
L 3109 2759 
L 3109 2228 
L 1259 2228 
L 1259 0 
L 628 0 
L 628 4666 
z
" transform="scale(0.015625)"/>
       <path id="DejaVuSans-66" d="M 2375 4863 
L 2375 4384 
L 1825 4384 
Q 1516 4384 1395 4259 
Q 1275 4134 1275 3809 
L 1275 3500 
L 2222 3500 
L 2222 3053 
L 1275 3053 
L 1275 0 
L 697 0 
L 697 3053 
L 147 3053 
L 147 3500 
L 697 3500 
L 697 3744 
Q 697 4328 969 4595 
Q 1241 4863 1831 4863 
L 2375 4863 
z
" transform="scale(0.015625)"/>
       <path id="DejaVuSans-73" d="M 2834 3397 
L 2834 2853 
Q 2591 2978 2328 3040 
Q 2066 3103 1784 3103 
Q 1356 3103 1142 2972 
Q 928 2841 928 2578 
Q 928 2378 1081 2264 
Q 1234 2150 1697 2047 
L 1894 2003 
Q 2506 1872 2764 1633 
Q 3022 1394 3022 966 
Q 3022 478 2636 193 
Q 2250 -91 1575 -91 
Q 1294 -91 989 -36 
Q 684 19 347 128 
L 347 722 
Q 666 556 975 473 
Q 1284 391 1588 391 
Q 1994 391 2212 530 
Q 2431 669 2431 922 
Q 2431 1156 2273 1281 
Q 2116 1406 1581 1522 
L 1381 1569 
Q 847 1681 609 1914 
Q 372 2147 372 2553 
Q 372 3047 722 3315 
Q 1072 3584 1716 3584 
Q 2034 3584 2315 3537 
Q 2597 3491 2834 3397 
z
" transform="scale(0.015625)"/>
       <path id="DejaVuSans-76" d="M 191 3500 
L 800 3500 
L 1894 563 
L 2988 3500 
L 3597 3500 
L 2284 0 
L 1503 0 
L 191 3500 
z
" transform="scale(0.015625)"/>
      </defs>
      <use xlink:href="#DejaVuSans-46"/>
      <use xlink:href="#DejaVuSans-72" x="50.269531"/>
      <use xlink:href="#DejaVuSans-61" x="91.382812"/>
      <use xlink:href="#DejaVuSans-63" x="152.662109"/>
      <use xlink:href="#DejaVuSans-74" x="207.642578"/>
      <use xlink:href="#DejaVuSans-69" x="246.851562"/>
      <use xlink:href="#DejaVuSans-6f" x="274.634766"/>
      <use xlink:href="#DejaVuSans-6e" x="335.816406"/>
      <use xlink:href="#DejaVuSans-20" x="399.195312"/>
      <use xlink:href="#DejaVuSans-6f" x="430.982422"/>
      <use xlink:href="#DejaVuSans-66" x="492.164062"/>
      <use xlink:href="#DejaVuSans-20" x="527.369141"/>
      <use xlink:href="#DejaVuSans-50" x="559.15625"/>
      <use xlink:href="#DejaVuSans-6f" x="615.833984"/>
      <use xlink:href="#DejaVuSans-73" x="677.015625"/>
      <use xlink:href="#DejaVuSans-69" x="729.115234"/>
      <use xlink:href="#DejaVuSans-74" x="756.898438"/>
      <use xlink:href="#DejaVuSans-69" x="796.107422"/>
      <use xlink:href="#DejaVuSans-76" x="823.890625"/>
      <use xlink:href="#DejaVuSans-65" x="883.070312"/>
      <use xlink:href="#DejaVuSans-73" x="944.59375"/>
     </g>
    </g>
   </g>
   <g id="line2d_25">
    <path d="M 117.853465 528.031184 
L 206.513903 459.610842 
L 262.094653 446.101804 
L 332.199657 401.542063 
L 420.621016 346.484106 
L 473.914057 321.224167 
L 532.553751 263.464421 
L 611.026543 152.81837 
L 663.750782 55.36666 
" clip-path="url(#pae806e08d1)" style="fill: none; stroke: #1f77b4; stroke-width: 2; stroke-linecap: square"/>
    <defs>
     <path id="m37fd71abd4" d="M 0 3 
C 0.795609 3 1.55874 2.683901 2.12132 2.12132 
C 2.683901 1.55874 3 0.795609 3 0 
C 3 -0.795609 2.683901 -1.55874 2.12132 -2.12132 
C 1.55874 -2.683901 0.795609 -3 0 -3 
C -0.795609 -3 -1.55874 -2.683901 -2.12132 -2.12132 
C -2.683901 -1.55874 -3 -0.795609 -3 0 
C -3 0.795609 -2.683901 1.55874 -2.12132 2.12132 
C -1.55874 2.683901 -0.795609 3 0 3 
z
" style="stroke: #1f77b4"/>
    </defs>
    <g clip-path="url(#pae806e08d1)">
     <use xlink:href="#m37fd71abd4" x="117.853465" y="528.031184" style="fill: #1f77b4; stroke: #1f77b4"/>
     <use xlink:href="#m37fd71abd4" x="206.513903" y="459.610842" style="fill: #1f77b4; stroke: #1f77b4"/>
     <use xlink:href="#m37fd71abd4" x="262.094653" y="446.101804" style="fill: #1f77b4; stroke: #1f77b4"/>
     <use xlink:href="#m37fd71abd4" x="332.199657" y="401.542063" style="fill: #1f77b4; stroke: #1f77b4"/>
     <use xlink:href="#m37fd71abd4" x="420.621016" y="346.484106" style="fill: #1f77b4; stroke: #1f77b4"/>
     <use xlink:href="#m37fd71abd4" x="473.914057" y="321.224167" style="fill: #1f77b4; stroke: #1f77b4"/>
     <use xlink:href="#m37fd71abd4" x="532.553751" y="263.464421" style="fill: #1f77b4; stroke: #1f77b4"/>
     <use xlink:href="#m37fd71abd4" x="611.026543" y="152.81837" style="fill: #1f77b4; stroke: #1f77b4"/>
     <use xlink:href="#m37fd71abd4" x="663.750782" y="55.36666" style="fill: #1f77b4; stroke: #1f77b4"/>
    </g>
   </g>
   <g id="line2d_26">
    <path d="M 120.953971 543.644114 
L 207.349072 496.122717 
L 271.032403 506.5575 
L 321.738394 458.287837 
L 422.783994 518.5575 
L 473.93025 391.976855 
L 533.980376 228.439853 
L 607.474023 352.9575 
L 663.626537 50.5575 
" clip-path="url(#pae806e08d1)" style="fill: none; stroke: #ff7f0e; stroke-width: 2; stroke-linecap: square"/>
    <defs>
     <path id="m4ca6411c95" d="M 0 3 
C 0.795609 3 1.55874 2.683901 2.12132 2.12132 
C 2.683901 1.55874 3 0.795609 3 0 
C 3 -0.795609 2.683901 -1.55874 2.12132 -2.12132 
C 1.55874 -2.683901 0.795609 -3 0 -3 
C -0.795609 -3 -1.55874 -2.683901 -2.12132 -2.12132 
C -2.683901 -1.55874 -3 -0.795609 -3 0 
C -3 0.795609 -2.683901 1.55874 -2.12132 2.12132 
C -1.55874 2.683901 -0.795609 3 0 3 
z
" style="stroke: #ff7f0e"/>
    </defs>
    <g clip-path="url(#pae806e08d1)">
     <use xlink:href="#m4ca6411c95" x="120.953971" y="543.644114" style="fill: #ff7f0e; stroke: #ff7f0e"/>
     <use xlink:href="#m4ca6411c95" x="207.349072" y="496.122717" style="fill: #ff7f0e; stroke: #ff7f0e"/>
     <use xlink:href="#m4ca6411c95" x="271.032403" y="506.5575" style="fill: #ff7f0e; stroke: #ff7f0e"/>
     <use xlink:href="#m4ca6411c95" x="321.738394" y="458.287837" style="fill: #ff7f0e; stroke: #ff7f0e"/>
     <use xlink:href="#m4ca6411c95" x="422.783994" y="518.5575" style="fill: #ff7f0e; stroke: #ff7f0e"/>
     <use xlink:href="#m4ca6411c95" x="473.93025" y="391.976855" style="fill: #ff7f0e; stroke: #ff7f0e"/>
     <use xlink:href="#m4ca6411c95" x="533.980376" y="228.439853" style="fill: #ff7f0e; stroke: #ff7f0e"/>
     <use xlink:href="#m4ca6411c95" x="607.474023" y="352.9575" style="fill: #ff7f0e; stroke: #ff7f0e"/>
     <use xlink:href="#m4ca6411c95" x="663.626537" y="50.5575" style="fill: #ff7f0e; stroke: #ff7f0e"/>
    </g>
   </g>
   <g id="line2d_27">
    <path d="M 117.881836 533.381029 
L 205.044242 472.084773 
L 259.795255 252.1575 
L 332.661637 413.906337 
L 427.093855 504.1575 
L 474.649737 314.5575 
L 532.239013 230.5575 
L 599.894118 283.172885 
L 663.478145 50.5575 
" clip-path="url(#pae806e08d1)" style="fill: none; stroke: #2ca02c; stroke-width: 2; stroke-linecap: square"/>
    <defs>
     <path id="m10114574f0" d="M 0 3 
C 0.795609 3 1.55874 2.683901 2.12132 2.12132 
C 2.683901 1.55874 3 0.795609 3 0 
C 3 -0.795609 2.683901 -1.55874 2.12132 -2.12132 
C 1.55874 -2.683901 0.795609 -3 0 -3 
C -0.795609 -3 -1.55874 -2.683901 -2.12132 -2.12132 
C -2.683901 -1.55874 -3 -0.795609 -3 0 
C -3 0.795609 -2.683901 1.55874 -2.12132 2.12132 
C -1.55874 2.683901 -0.795609 3 0 3 
z
" style="stroke: #2ca02c"/>
    </defs>
    <g clip-path="url(#pae806e08d1)">
     <use xlink:href="#m10114574f0" x="117.881836" y="533.381029" style="fill: #2ca02c; stroke: #2ca02c"/>
     <use xlink:href="#m10114574f0" x="205.044242" y="472.084773" style="fill: #2ca02c; stroke: #2ca02c"/>
     <use xlink:href="#m10114574f0" x="259.795255" y="252.1575" style="fill: #2ca02c; stroke: #2ca02c"/>
     <use xlink:href="#m10114574f0" x="332.661637" y="413.906337" style="fill: #2ca02c; stroke: #2ca02c"/>
     <use xlink:href="#m10114574f0" x="427.093855" y="504.1575" style="fill: #2ca02c; stroke: #2ca02c"/>
     <use xlink:href="#m10114574f0" x="474.649737" y="314.5575" style="fill: #2ca02c; stroke: #2ca02c"/>
     <use xlink:href="#m10114574f0" x="532.239013" y="230.5575" style="fill: #2ca02c; stroke: #2ca02c"/>
     <use xlink:href="#m10114574f0" x="599.894118" y="283.172885" style="fill: #2ca02c; stroke: #2ca02c"/>
     <use xlink:href="#m10114574f0" x="663.478145" y="50.5575" style="fill: #2ca02c; stroke: #2ca02c"/>
    </g>
   </g>
   <g id="line2d_28">
    <path d="M 120.799362 524.910441 
L 216.089519 487.3575 
L 259.795255 470.5575 
L 329.661626 508.739318 
L 470.503991 554.5575 
L 532.239013 554.5575 
L 663.882852 50.5575 
" clip-path="url(#pae806e08d1)" style="fill: none; stroke: #d62728; stroke-width: 2; stroke-linecap: square"/>
    <defs>
     <path id="m8f60b91584" d="M 0 3 
C 0.795609 3 1.55874 2.683901 2.12132 2.12132 
C 2.683901 1.55874 3 0.795609 3 0 
C 3 -0.795609 2.683901 -1.55874 2.12132 -2.12132 
C 1.55874 -2.683901 0.795609 -3 0 -3 
C -0.795609 -3 -1.55874 -2.683901 -2.12132 -2.12132 
C -2.683901 -1.55874 -3 -0.795609 -3 0 
C -3 0.795609 -2.683901 1.55874 -2.12132 2.12132 
C -1.55874 2.683901 -0.795609 3 0 3 
z
" style="stroke: #d62728"/>
    </defs>
    <g clip-path="url(#pae806e08d1)">
     <use xlink:href="#m8f60b91584" x="120.799362" y="524.910441" style="fill: #d62728; stroke: #d62728"/>
     <use xlink:href="#m8f60b91584" x="216.089519" y="487.3575" style="fill: #d62728; stroke: #d62728"/>
     <use xlink:href="#m8f60b91584" x="259.795255" y="470.5575" style="fill: #d62728; stroke: #d62728"/>
     <use xlink:href="#m8f60b91584" x="329.661626" y="508.739318" style="fill: #d62728; stroke: #d62728"/>
     <use xlink:href="#m8f60b91584" x="470.503991" y="554.5575" style="fill: #d62728; stroke: #d62728"/>
     <use xlink:href="#m8f60b91584" x="532.239013" y="554.5575" style="fill: #d62728; stroke: #d62728"/>
     <use xlink:href="#m8f60b91584" x="663.882852" y="50.5575" style="fill: #d62728; stroke: #d62728"/>
    </g>
   </g>
   <g id="line2d_29">
    <path d="M 116.264942 545.048066 
L 212.087869 518.5575 
L 322.037782 462.921136 
L 429.560762 386.5575 
L 470.503991 554.5575 
L 532.239013 50.5575 
L 618.616706 50.5575 
L 663.882852 50.5575 
" clip-path="url(#pae806e08d1)" style="fill: none; stroke: #9467bd; stroke-width: 2; stroke-linecap: square"/>
    <defs>
     <path id="mfad211352e" d="M 0 3 
C 0.795609 3 1.55874 2.683901 2.12132 2.12132 
C 2.683901 1.55874 3 0.795609 3 0 
C 3 -0.795609 2.683901 -1.55874 2.12132 -2.12132 
C 1.55874 -2.683901 0.795609 -3 0 -3 
C -0.795609 -3 -1.55874 -2.683901 -2.12132 -2.12132 
C -2.683901 -1.55874 -3 -0.795609 -3 0 
C -3 0.795609 -2.683901 1.55874 -2.12132 2.12132 
C -1.55874 2.683901 -0.795609 3 0 3 
z
" style="stroke: #9467bd"/>
    </defs>
    <g clip-path="url(#pae806e08d1)">
     <use xlink:href="#mfad211352e" x="116.264942" y="545.048066" style="fill: #9467bd; stroke: #9467bd"/>
     <use xlink:href="#mfad211352e" x="212.087869" y="518.5575" style="fill: #9467bd; stroke: #9467bd"/>
     <use xlink:href="#mfad211352e" x="322.037782" y="462.921136" style="fill: #9467bd; stroke: #9467bd"/>
     <use xlink:href="#mfad211352e" x="429.560762" y="386.5575" style="fill: #9467bd; stroke: #9467bd"/>
     <use xlink:href="#mfad211352e" x="470.503991" y="554.5575" style="fill: #9467bd; stroke: #9467bd"/>
     <use xlink:href="#mfad211352e" x="532.239013" y="50.5575" style="fill: #9467bd; stroke: #9467bd"/>
     <use xlink:href="#mfad211352e" x="618.616706" y="50.5575" style="fill: #9467bd; stroke: #9467bd"/>
     <use xlink:href="#mfad211352e" x="663.882852" y="50.5575" style="fill: #9467bd; stroke: #9467bd"/>
    </g>
   </g>
   <g id="line2d_30">
    <path d="M 89.868153 554.5575 
L 800.049972 50.5575 
" clip-path="url(#pae806e08d1)" style="fill: none; stroke-dasharray: 5.55,2.4; stroke-dashoffset: 0; stroke: #000000; stroke-width: 1.5"/>
   </g>
   <g id="patch_3">
    <path d="M 54.359063 579.7575 
L 54.359063 25.3575 
" style="fill: none; stroke: #000000; stroke-width: 0.8; stroke-linejoin: miter; stroke-linecap: square"/>
   </g>
   <g id="patch_4">
    <path d="M 835.559063 579.7575 
L 835.559063 25.3575 
" style="fill: none; stroke: #000000; stroke-width: 0.8; stroke-linejoin: miter; stroke-linecap: square"/>
   </g>
   <g id="patch_5">
    <path d="M 54.359063 579.7575 
L 835.559063 579.7575 
" style="fill: none; stroke: #000000; stroke-width: 0.8; stroke-linejoin: miter; stroke-linecap: square"/>
   </g>
   <g id="patch_6">
    <path d="M 54.359063 25.3575 
L 835.559063 25.3575 
" style="fill: none; stroke: #000000; stroke-width: 0.8; stroke-linejoin: miter; stroke-linecap: square"/>
   </g>
   <g id="text_15">
    <!-- Calibration Curve: Random Forest Classifier -->
    <g transform="translate(270.786563 19.3575) scale(0.16 -0.16)">
     <defs>
      <path id="DejaVuSans-43" d="M 4122 4306 
L 4122 3641 
Q 3803 3938 3442 4084 
Q 3081 4231 2675 4231 
Q 1875 4231 1450 3742 
Q 1025 3253 1025 2328 
Q 1025 1406 1450 917 
Q 1875 428 2675 428 
Q 3081 428 3442 575 
Q 3803 722 4122 1019 
L 4122 359 
Q 3791 134 3420 21 
Q 3050 -91 2638 -91 
Q 1578 -91 968 557 
Q 359 1206 359 2328 
Q 359 3453 968 4101 
Q 1578 4750 2638 4750 
Q 3056 4750 3426 4639 
Q 3797 4528 4122 4306 
z
" transform="scale(0.015625)"/>
      <path id="DejaVuSans-75" d="M 544 1381 
L 544 3500 
L 1119 3500 
L 1119 1403 
Q 1119 906 1312 657 
Q 1506 409 1894 409 
Q 2359 409 2629 706 
Q 2900 1003 2900 1516 
L 2900 3500 
L 3475 3500 
L 3475 0 
L 2900 0 
L 2900 538 
Q 2691 219 2414 64 
Q 2138 -91 1772 -91 
Q 1169 -91 856 284 
Q 544 659 544 1381 
z
M 1991 3584 
L 1991 3584 
z
" transform="scale(0.015625)"/>
      <path id="DejaVuSans-3a" d="M 750 794 
L 1409 794 
L 1409 0 
L 750 0 
L 750 794 
z
M 750 3309 
L 1409 3309 
L 1409 2516 
L 750 2516 
L 750 3309 
z
" transform="scale(0.015625)"/>
      <path id="DejaVuSans-52" d="M 2841 2188 
Q 3044 2119 3236 1894 
Q 3428 1669 3622 1275 
L 4263 0 
L 3584 0 
L 2988 1197 
Q 2756 1666 2539 1819 
Q 2322 1972 1947 1972 
L 1259 1972 
L 1259 0 
L 628 0 
L 628 4666 
L 2053 4666 
Q 2853 4666 3247 4331 
Q 3641 3997 3641 3322 
Q 3641 2881 3436 2590 
Q 3231 2300 2841 2188 
z
M 1259 4147 
L 1259 2491 
L 2053 2491 
Q 2509 2491 2742 2702 
Q 2975 2913 2975 3322 
Q 2975 3731 2742 3939 
Q 2509 4147 2053 4147 
L 1259 4147 
z
" transform="scale(0.015625)"/>
      <path id="DejaVuSans-6d" d="M 3328 2828 
Q 3544 3216 3844 3400 
Q 4144 3584 4550 3584 
Q 5097 3584 5394 3201 
Q 5691 2819 5691 2113 
L 5691 0 
L 5113 0 
L 5113 2094 
Q 5113 2597 4934 2840 
Q 4756 3084 4391 3084 
Q 3944 3084 3684 2787 
Q 3425 2491 3425 1978 
L 3425 0 
L 2847 0 
L 2847 2094 
Q 2847 2600 2669 2842 
Q 2491 3084 2119 3084 
Q 1678 3084 1418 2786 
Q 1159 2488 1159 1978 
L 1159 0 
L 581 0 
L 581 3500 
L 1159 3500 
L 1159 2956 
Q 1356 3278 1631 3431 
Q 1906 3584 2284 3584 
Q 2666 3584 2933 3390 
Q 3200 3197 3328 2828 
z
" transform="scale(0.015625)"/>
     </defs>
     <use xlink:href="#DejaVuSans-43"/>
     <use xlink:href="#DejaVuSans-61" x="69.824219"/>
     <use xlink:href="#DejaVuSans-6c" x="131.103516"/>
     <use xlink:href="#DejaVuSans-69" x="158.886719"/>
     <use xlink:href="#DejaVuSans-62" x="186.669922"/>
     <use xlink:href="#DejaVuSans-72" x="250.146484"/>
     <use xlink:href="#DejaVuSans-61" x="291.259766"/>
     <use xlink:href="#DejaVuSans-74" x="352.539062"/>
     <use xlink:href="#DejaVuSans-69" x="391.748047"/>
     <use xlink:href="#DejaVuSans-6f" x="419.53125"/>
     <use xlink:href="#DejaVuSans-6e" x="480.712891"/>
     <use xlink:href="#DejaVuSans-20" x="544.091797"/>
     <use xlink:href="#DejaVuSans-43" x="575.878906"/>
     <use xlink:href="#DejaVuSans-75" x="645.703125"/>
     <use xlink:href="#DejaVuSans-72" x="709.082031"/>
     <use xlink:href="#DejaVuSans-76" x="750.195312"/>
     <use xlink:href="#DejaVuSans-65" x="809.375"/>
     <use xlink:href="#DejaVuSans-3a" x="870.898438"/>
     <use xlink:href="#DejaVuSans-20" x="904.589844"/>
     <use xlink:href="#DejaVuSans-52" x="936.376953"/>
     <use xlink:href="#DejaVuSans-61" x="1003.609375"/>
     <use xlink:href="#DejaVuSans-6e" x="1064.888672"/>
     <use xlink:href="#DejaVuSans-64" x="1128.267578"/>
     <use xlink:href="#DejaVuSans-6f" x="1191.744141"/>
     <use xlink:href="#DejaVuSans-6d" x="1252.925781"/>
     <use xlink:href="#DejaVuSans-20" x="1350.337891"/>
     <use xlink:href="#DejaVuSans-46" x="1382.125"/>
     <use xlink:href="#DejaVuSans-6f" x="1436.019531"/>
     <use xlink:href="#DejaVuSans-72" x="1497.201172"/>
     <use xlink:href="#DejaVuSans-65" x="1536.064453"/>
     <use xlink:href="#DejaVuSans-73" x="1597.587891"/>
     <use xlink:href="#DejaVuSans-74" x="1649.6875"/>
     <use xlink:href="#DejaVuSans-20" x="1688.896484"/>
     <use xlink:href="#DejaVuSans-43" x="1720.683594"/>
     <use xlink:href="#DejaVuSans-6c" x="1790.507812"/>
     <use xlink:href="#DejaVuSans-61" x="1818.291016"/>
     <use xlink:href="#DejaVuSans-73" x="1879.570312"/>
     <use xlink:href="#DejaVuSans-73" x="1931.669922"/>
     <use xlink:href="#DejaVuSans-69" x="1983.769531"/>
     <use xlink:href="#DejaVuSans-66" x="2011.552734"/>
     <use xlink:href="#DejaVuSans-69" x="2046.757812"/>
     <use xlink:href="#DejaVuSans-65" x="2074.541016"/>
     <use xlink:href="#DejaVuSans-72" x="2136.064453"/>
    </g>
   </g>
   <g id="legend_1">
    <g id="patch_7">
     <path d="M 63.459063 150.246875 
L 334.661406 150.246875 
Q 337.261406 150.246875 337.261406 147.646875 
L 337.261406 34.4575 
Q 337.261406 31.8575 334.661406 31.8575 
L 63.459063 31.8575 
Q 60.859063 31.8575 60.859063 34.4575 
L 60.859063 147.646875 
Q 60.859063 150.246875 63.459063 150.246875 
z
" style="fill: #ffffff; opacity: 0.8; stroke: #cccccc; stroke-linejoin: miter"/>
    </g>
    <g id="line2d_31">
     <path d="M 66.059063 42.385469 
L 79.059063 42.385469 
L 92.059063 42.385469 
" style="fill: none; stroke: #1f77b4; stroke-width: 2; stroke-linecap: square"/>
     <g>
      <use xlink:href="#m37fd71abd4" x="79.059063" y="42.385469" style="fill: #1f77b4; stroke: #1f77b4"/>
     </g>
    </g>
    <g id="text_16">
     <!-- White (Brier: 0.1254) -->
     <g transform="translate(102.459063 46.935469) scale(0.13 -0.13)">
      <defs>
       <path id="DejaVuSans-57" d="M 213 4666 
L 850 4666 
L 1831 722 
L 2809 4666 
L 3519 4666 
L 4500 722 
L 5478 4666 
L 6119 4666 
L 4947 0 
L 4153 0 
L 3169 4050 
L 2175 0 
L 1381 0 
L 213 4666 
z
" transform="scale(0.015625)"/>
       <path id="DejaVuSans-68" d="M 3513 2113 
L 3513 0 
L 2938 0 
L 2938 2094 
Q 2938 2591 2744 2837 
Q 2550 3084 2163 3084 
Q 1697 3084 1428 2787 
Q 1159 2491 1159 1978 
L 1159 0 
L 581 0 
L 581 4863 
L 1159 4863 
L 1159 2956 
Q 1366 3272 1645 3428 
Q 1925 3584 2291 3584 
Q 2894 3584 3203 3211 
Q 3513 2838 3513 2113 
z
" transform="scale(0.015625)"/>
       <path id="DejaVuSans-28" d="M 1984 4856 
Q 1566 4138 1362 3434 
Q 1159 2731 1159 2009 
Q 1159 1288 1364 580 
Q 1569 -128 1984 -844 
L 1484 -844 
Q 1016 -109 783 600 
Q 550 1309 550 2009 
Q 550 2706 781 3412 
Q 1013 4119 1484 4856 
L 1984 4856 
z
" transform="scale(0.015625)"/>
       <path id="DejaVuSans-42" d="M 1259 2228 
L 1259 519 
L 2272 519 
Q 2781 519 3026 730 
Q 3272 941 3272 1375 
Q 3272 1813 3026 2020 
Q 2781 2228 2272 2228 
L 1259 2228 
z
M 1259 4147 
L 1259 2741 
L 2194 2741 
Q 2656 2741 2882 2914 
Q 3109 3088 3109 3444 
Q 3109 3797 2882 3972 
Q 2656 4147 2194 4147 
L 1259 4147 
z
M 628 4666 
L 2241 4666 
Q 2963 4666 3353 4366 
Q 3744 4066 3744 3513 
Q 3744 3084 3544 2831 
Q 3344 2578 2956 2516 
Q 3422 2416 3680 2098 
Q 3938 1781 3938 1306 
Q 3938 681 3513 340 
Q 3088 0 2303 0 
L 628 0 
L 628 4666 
z
" transform="scale(0.015625)"/>
       <path id="DejaVuSans-35" d="M 691 4666 
L 3169 4666 
L 3169 4134 
L 1269 4134 
L 1269 2991 
Q 1406 3038 1543 3061 
Q 1681 3084 1819 3084 
Q 2600 3084 3056 2656 
Q 3513 2228 3513 1497 
Q 3513 744 3044 326 
Q 2575 -91 1722 -91 
Q 1428 -91 1123 -41 
Q 819 9 494 109 
L 494 744 
Q 775 591 1075 516 
Q 1375 441 1709 441 
Q 2250 441 2565 725 
Q 2881 1009 2881 1497 
Q 2881 1984 2565 2268 
Q 2250 2553 1709 2553 
Q 1456 2553 1204 2497 
Q 953 2441 691 2322 
L 691 4666 
z
" transform="scale(0.015625)"/>
       <path id="DejaVuSans-29" d="M 513 4856 
L 1013 4856 
Q 1481 4119 1714 3412 
Q 1947 2706 1947 2009 
Q 1947 1309 1714 600 
Q 1481 -109 1013 -844 
L 513 -844 
Q 928 -128 1133 580 
Q 1338 1288 1338 2009 
Q 1338 2731 1133 3434 
Q 928 4138 513 4856 
z
" transform="scale(0.015625)"/>
      </defs>
      <use xlink:href="#DejaVuSans-57"/>
      <use xlink:href="#DejaVuSans-68" x="98.876953"/>
      <use xlink:href="#DejaVuSans-69" x="162.255859"/>
      <use xlink:href="#DejaVuSans-74" x="190.039062"/>
      <use xlink:href="#DejaVuSans-65" x="229.248047"/>
      <use xlink:href="#DejaVuSans-20" x="290.771484"/>
      <use xlink:href="#DejaVuSans-28" x="322.558594"/>
      <use xlink:href="#DejaVuSans-42" x="361.572266"/>
      <use xlink:href="#DejaVuSans-72" x="430.175781"/>
      <use xlink:href="#DejaVuSans-69" x="471.289062"/>
      <use xlink:href="#DejaVuSans-65" x="499.072266"/>
      <use xlink:href="#DejaVuSans-72" x="560.595703"/>
      <use xlink:href="#DejaVuSans-3a" x="599.958984"/>
      <use xlink:href="#DejaVuSans-20" x="633.650391"/>
      <use xlink:href="#DejaVuSans-30" x="665.4375"/>
      <use xlink:href="#DejaVuSans-2e" x="729.060547"/>
      <use xlink:href="#DejaVuSans-31" x="760.847656"/>
      <use xlink:href="#DejaVuSans-32" x="824.470703"/>
      <use xlink:href="#DejaVuSans-35" x="888.09375"/>
      <use xlink:href="#DejaVuSans-34" x="951.716797"/>
      <use xlink:href="#DejaVuSans-29" x="1015.339844"/>
     </g>
    </g>
    <g id="line2d_32">
     <path d="M 66.059063 61.467031 
L 79.059063 61.467031 
L 92.059063 61.467031 
" style="fill: none; stroke: #ff7f0e; stroke-width: 2; stroke-linecap: square"/>
     <g>
      <use xlink:href="#m4ca6411c95" x="79.059063" y="61.467031" style="fill: #ff7f0e; stroke: #ff7f0e"/>
     </g>
    </g>
    <g id="text_17">
     <!-- Black (Brier: 0.0765) -->
     <g transform="translate(102.459063 66.017031) scale(0.13 -0.13)">
      <defs>
       <path id="DejaVuSans-6b" d="M 581 4863 
L 1159 4863 
L 1159 1991 
L 2875 3500 
L 3609 3500 
L 1753 1863 
L 3688 0 
L 2938 0 
L 1159 1709 
L 1159 0 
L 581 0 
L 581 4863 
z
" transform="scale(0.015625)"/>
       <path id="DejaVuSans-37" d="M 525 4666 
L 3525 4666 
L 3525 4397 
L 1831 0 
L 1172 0 
L 2766 4134 
L 525 4134 
L 525 4666 
z
" transform="scale(0.015625)"/>
      </defs>
      <use xlink:href="#DejaVuSans-42"/>
      <use xlink:href="#DejaVuSans-6c" x="68.603516"/>
      <use xlink:href="#DejaVuSans-61" x="96.386719"/>
      <use xlink:href="#DejaVuSans-63" x="157.666016"/>
      <use xlink:href="#DejaVuSans-6b" x="212.646484"/>
      <use xlink:href="#DejaVuSans-20" x="270.556641"/>
      <use xlink:href="#DejaVuSans-28" x="302.34375"/>
      <use xlink:href="#DejaVuSans-42" x="341.357422"/>
      <use xlink:href="#DejaVuSans-72" x="409.960938"/>
      <use xlink:href="#DejaVuSans-69" x="451.074219"/>
      <use xlink:href="#DejaVuSans-65" x="478.857422"/>
      <use xlink:href="#DejaVuSans-72" x="540.380859"/>
      <use xlink:href="#DejaVuSans-3a" x="579.744141"/>
      <use xlink:href="#DejaVuSans-20" x="613.435547"/>
      <use xlink:href="#DejaVuSans-30" x="645.222656"/>
      <use xlink:href="#DejaVuSans-2e" x="708.845703"/>
      <use xlink:href="#DejaVuSans-30" x="740.632812"/>
      <use xlink:href="#DejaVuSans-37" x="804.255859"/>
      <use xlink:href="#DejaVuSans-36" x="867.878906"/>
      <use xlink:href="#DejaVuSans-35" x="931.501953"/>
      <use xlink:href="#DejaVuSans-29" x="995.125"/>
     </g>
    </g>
    <g id="line2d_33">
     <path d="M 66.059063 80.548594 
L 79.059063 80.548594 
L 92.059063 80.548594 
" style="fill: none; stroke: #2ca02c; stroke-width: 2; stroke-linecap: square"/>
     <g>
      <use xlink:href="#m10114574f0" x="79.059063" y="80.548594" style="fill: #2ca02c; stroke: #2ca02c"/>
     </g>
    </g>
    <g id="text_18">
     <!-- Asian-Pac-Islander (Brier: 0.1263) -->
     <g transform="translate(102.459063 85.098594) scale(0.13 -0.13)">
      <defs>
       <path id="DejaVuSans-41" d="M 2188 4044 
L 1331 1722 
L 3047 1722 
L 2188 4044 
z
M 1831 4666 
L 2547 4666 
L 4325 0 
L 3669 0 
L 3244 1197 
L 1141 1197 
L 716 0 
L 50 0 
L 1831 4666 
z
" transform="scale(0.015625)"/>
       <path id="DejaVuSans-2d" d="M 313 2009 
L 1997 2009 
L 1997 1497 
L 313 1497 
L 313 2009 
z
" transform="scale(0.015625)"/>
       <path id="DejaVuSans-49" d="M 628 4666 
L 1259 4666 
L 1259 0 
L 628 0 
L 628 4666 
z
" transform="scale(0.015625)"/>
       <path id="DejaVuSans-33" d="M 2597 2516 
Q 3050 2419 3304 2112 
Q 3559 1806 3559 1356 
Q 3559 666 3084 287 
Q 2609 -91 1734 -91 
Q 1441 -91 1130 -33 
Q 819 25 488 141 
L 488 750 
Q 750 597 1062 519 
Q 1375 441 1716 441 
Q 2309 441 2620 675 
Q 2931 909 2931 1356 
Q 2931 1769 2642 2001 
Q 2353 2234 1838 2234 
L 1294 2234 
L 1294 2753 
L 1863 2753 
Q 2328 2753 2575 2939 
Q 2822 3125 2822 3475 
Q 2822 3834 2567 4026 
Q 2313 4219 1838 4219 
Q 1578 4219 1281 4162 
Q 984 4106 628 3988 
L 628 4550 
Q 988 4650 1302 4700 
Q 1616 4750 1894 4750 
Q 2613 4750 3031 4423 
Q 3450 4097 3450 3541 
Q 3450 3153 3228 2886 
Q 3006 2619 2597 2516 
z
" transform="scale(0.015625)"/>
      </defs>
      <use xlink:href="#DejaVuSans-41"/>
      <use xlink:href="#DejaVuSans-73" x="68.408203"/>
      <use xlink:href="#DejaVuSans-69" x="120.507812"/>
      <use xlink:href="#DejaVuSans-61" x="148.291016"/>
      <use xlink:href="#DejaVuSans-6e" x="209.570312"/>
      <use xlink:href="#DejaVuSans-2d" x="272.949219"/>
      <use xlink:href="#DejaVuSans-50" x="309.033203"/>
      <use xlink:href="#DejaVuSans-61" x="364.835938"/>
      <use xlink:href="#DejaVuSans-63" x="426.115234"/>
      <use xlink:href="#DejaVuSans-2d" x="481.095703"/>
      <use xlink:href="#DejaVuSans-49" x="517.179688"/>
      <use xlink:href="#DejaVuSans-73" x="546.671875"/>
      <use xlink:href="#DejaVuSans-6c" x="598.771484"/>
      <use xlink:href="#DejaVuSans-61" x="626.554688"/>
      <use xlink:href="#DejaVuSans-6e" x="687.833984"/>
      <use xlink:href="#DejaVuSans-64" x="751.212891"/>
      <use xlink:href="#DejaVuSans-65" x="814.689453"/>
      <use xlink:href="#DejaVuSans-72" x="876.212891"/>
      <use xlink:href="#DejaVuSans-20" x="917.326172"/>
      <use xlink:href="#DejaVuSans-28" x="949.113281"/>
      <use xlink:href="#DejaVuSans-42" x="988.126953"/>
      <use xlink:href="#DejaVuSans-72" x="1056.730469"/>
      <use xlink:href="#DejaVuSans-69" x="1097.84375"/>
      <use xlink:href="#DejaVuSans-65" x="1125.626953"/>
      <use xlink:href="#DejaVuSans-72" x="1187.150391"/>
      <use xlink:href="#DejaVuSans-3a" x="1226.513672"/>
      <use xlink:href="#DejaVuSans-20" x="1260.205078"/>
      <use xlink:href="#DejaVuSans-30" x="1291.992188"/>
      <use xlink:href="#DejaVuSans-2e" x="1355.615234"/>
      <use xlink:href="#DejaVuSans-31" x="1387.402344"/>
      <use xlink:href="#DejaVuSans-32" x="1451.025391"/>
      <use xlink:href="#DejaVuSans-36" x="1514.648438"/>
      <use xlink:href="#DejaVuSans-33" x="1578.271484"/>
      <use xlink:href="#DejaVuSans-29" x="1641.894531"/>
     </g>
    </g>
    <g id="line2d_34">
     <path d="M 66.059063 99.630156 
L 79.059063 99.630156 
L 92.059063 99.630156 
" style="fill: none; stroke: #d62728; stroke-width: 2; stroke-linecap: square"/>
     <g>
      <use xlink:href="#m8f60b91584" x="79.059063" y="99.630156" style="fill: #d62728; stroke: #d62728"/>
     </g>
    </g>
    <g id="text_19">
     <!-- Amer-Indian-Eskimo (Brier: 0.1006) -->
     <g transform="translate(102.459063 104.180156) scale(0.13 -0.13)">
      <defs>
       <path id="DejaVuSans-45" d="M 628 4666 
L 3578 4666 
L 3578 4134 
L 1259 4134 
L 1259 2753 
L 3481 2753 
L 3481 2222 
L 1259 2222 
L 1259 531 
L 3634 531 
L 3634 0 
L 628 0 
L 628 4666 
z
" transform="scale(0.015625)"/>
      </defs>
      <use xlink:href="#DejaVuSans-41"/>
      <use xlink:href="#DejaVuSans-6d" x="68.408203"/>
      <use xlink:href="#DejaVuSans-65" x="165.820312"/>
      <use xlink:href="#DejaVuSans-72" x="227.34375"/>
      <use xlink:href="#DejaVuSans-2d" x="262.082031"/>
      <use xlink:href="#DejaVuSans-49" x="298.166016"/>
      <use xlink:href="#DejaVuSans-6e" x="327.658203"/>
      <use xlink:href="#DejaVuSans-64" x="391.037109"/>
      <use xlink:href="#DejaVuSans-69" x="454.513672"/>
      <use xlink:href="#DejaVuSans-61" x="482.296875"/>
      <use xlink:href="#DejaVuSans-6e" x="543.576172"/>
      <use xlink:href="#DejaVuSans-2d" x="606.955078"/>
      <use xlink:href="#DejaVuSans-45" x="643.039062"/>
      <use xlink:href="#DejaVuSans-73" x="706.222656"/>
      <use xlink:href="#DejaVuSans-6b" x="758.322266"/>
      <use xlink:href="#DejaVuSans-69" x="816.232422"/>
      <use xlink:href="#DejaVuSans-6d" x="844.015625"/>
      <use xlink:href="#DejaVuSans-6f" x="941.427734"/>
      <use xlink:href="#DejaVuSans-20" x="1002.609375"/>
      <use xlink:href="#DejaVuSans-28" x="1034.396484"/>
      <use xlink:href="#DejaVuSans-42" x="1073.410156"/>
      <use xlink:href="#DejaVuSans-72" x="1142.013672"/>
      <use xlink:href="#DejaVuSans-69" x="1183.126953"/>
      <use xlink:href="#DejaVuSans-65" x="1210.910156"/>
      <use xlink:href="#DejaVuSans-72" x="1272.433594"/>
      <use xlink:href="#DejaVuSans-3a" x="1311.796875"/>
      <use xlink:href="#DejaVuSans-20" x="1345.488281"/>
      <use xlink:href="#DejaVuSans-30" x="1377.275391"/>
      <use xlink:href="#DejaVuSans-2e" x="1440.898438"/>
      <use xlink:href="#DejaVuSans-31" x="1472.685547"/>
      <use xlink:href="#DejaVuSans-30" x="1536.308594"/>
      <use xlink:href="#DejaVuSans-30" x="1599.931641"/>
      <use xlink:href="#DejaVuSans-36" x="1663.554688"/>
      <use xlink:href="#DejaVuSans-29" x="1727.177734"/>
     </g>
    </g>
    <g id="line2d_35">
     <path d="M 66.059063 118.711719 
L 79.059063 118.711719 
L 92.059063 118.711719 
" style="fill: none; stroke: #9467bd; stroke-width: 2; stroke-linecap: square"/>
     <g>
      <use xlink:href="#mfad211352e" x="79.059063" y="118.711719" style="fill: #9467bd; stroke: #9467bd"/>
     </g>
    </g>
    <g id="text_20">
     <!-- Other (Brier: 0.0615) -->
     <g transform="translate(102.459063 123.261719) scale(0.13 -0.13)">
      <defs>
       <path id="DejaVuSans-4f" d="M 2522 4238 
Q 1834 4238 1429 3725 
Q 1025 3213 1025 2328 
Q 1025 1447 1429 934 
Q 1834 422 2522 422 
Q 3209 422 3611 934 
Q 4013 1447 4013 2328 
Q 4013 3213 3611 3725 
Q 3209 4238 2522 4238 
z
M 2522 4750 
Q 3503 4750 4090 4092 
Q 4678 3434 4678 2328 
Q 4678 1225 4090 567 
Q 3503 -91 2522 -91 
Q 1538 -91 948 565 
Q 359 1222 359 2328 
Q 359 3434 948 4092 
Q 1538 4750 2522 4750 
z
" transform="scale(0.015625)"/>
      </defs>
      <use xlink:href="#DejaVuSans-4f"/>
      <use xlink:href="#DejaVuSans-74" x="78.710938"/>
      <use xlink:href="#DejaVuSans-68" x="117.919922"/>
      <use xlink:href="#DejaVuSans-65" x="181.298828"/>
      <use xlink:href="#DejaVuSans-72" x="242.822266"/>
      <use xlink:href="#DejaVuSans-20" x="283.935547"/>
      <use xlink:href="#DejaVuSans-28" x="315.722656"/>
      <use xlink:href="#DejaVuSans-42" x="354.736328"/>
      <use xlink:href="#DejaVuSans-72" x="423.339844"/>
      <use xlink:href="#DejaVuSans-69" x="464.453125"/>
      <use xlink:href="#DejaVuSans-65" x="492.236328"/>
      <use xlink:href="#DejaVuSans-72" x="553.759766"/>
      <use xlink:href="#DejaVuSans-3a" x="593.123047"/>
      <use xlink:href="#DejaVuSans-20" x="626.814453"/>
      <use xlink:href="#DejaVuSans-30" x="658.601562"/>
      <use xlink:href="#DejaVuSans-2e" x="722.224609"/>
      <use xlink:href="#DejaVuSans-30" x="754.011719"/>
      <use xlink:href="#DejaVuSans-36" x="817.634766"/>
      <use xlink:href="#DejaVuSans-31" x="881.257812"/>
      <use xlink:href="#DejaVuSans-35" x="944.880859"/>
      <use xlink:href="#DejaVuSans-29" x="1008.503906"/>
     </g>
    </g>
    <g id="line2d_36">
     <path d="M 66.059063 137.793281 
L 79.059063 137.793281 
L 92.059063 137.793281 
" style="fill: none; stroke-dasharray: 5.55,2.4; stroke-dashoffset: 0; stroke: #000000; stroke-width: 1.5"/>
    </g>
    <g id="text_21">
     <!-- Perfectly Calibrated -->
     <g transform="translate(102.459063 142.343281) scale(0.13 -0.13)">
      <use xlink:href="#DejaVuSans-50"/>
      <use xlink:href="#DejaVuSans-65" x="56.677734"/>
      <use xlink:href="#DejaVuSans-72" x="118.201172"/>
      <use xlink:href="#DejaVuSans-66" x="159.314453"/>
      <use xlink:href="#DejaVuSans-65" x="194.519531"/>
      <use xlink:href="#DejaVuSans-63" x="256.042969"/>
      <use xlink:href="#DejaVuSans-74" x="311.023438"/>
      <use xlink:href="#DejaVuSans-6c" x="350.232422"/>
      <use xlink:href="#DejaVuSans-79" x="378.015625"/>
      <use xlink:href="#DejaVuSans-20" x="437.195312"/>
      <use xlink:href="#DejaVuSans-43" x="468.982422"/>
      <use xlink:href="#DejaVuSans-61" x="538.806641"/>
      <use xlink:href="#DejaVuSans-6c" x="600.085938"/>
      <use xlink:href="#DejaVuSans-69" x="627.869141"/>
      <use xlink:href="#DejaVuSans-62" x="655.652344"/>
      <use xlink:href="#DejaVuSans-72" x="719.128906"/>
      <use xlink:href="#DejaVuSans-61" x="760.242188"/>
      <use xlink:href="#DejaVuSans-74" x="821.521484"/>
      <use xlink:href="#DejaVuSans-65" x="860.730469"/>
      <use xlink:href="#DejaVuSans-64" x="922.253906"/>
     </g>
    </g>
   </g>
  </g>
 </g>
 <defs>
  <clipPath id="pae806e08d1">
   <rect x="54.359063" y="25.3575" width="781.2" height="554.4"/>
  </clipPath>
 </defs>
</svg>
