<?xml version="1.0" encoding="utf-8" standalone="no"?>
<!DOCTYPE svg PUBLIC "-//W3C//DTD SVG 1.1//EN"
  "http://www.w3.org/Graphics/SVG/1.1/DTD/svg11.dtd">
<svg xmlns:xlink="http://www.w3.org/1999/xlink" width="722.516875pt" height="508.122875pt" viewBox="0 0 722.516875 508.122875" xmlns="http://www.w3.org/2000/svg" version="1.1">
 <metadata>
  <rdf:RDF xmlns:dc="http://purl.org/dc/elements/1.1/" xmlns:cc="http://creativecommons.org/ns#" xmlns:rdf="http://www.w3.org/1999/02/22-rdf-syntax-ns#">
   <cc:Work>
    <dc:type rdf:resource="http://purl.org/dc/dcmitype/StillImage"/>
    <dc:date>2025-03-14T10:42:36.445911</dc:date>
    <dc:format>image/svg+xml</dc:format>
    <dc:creator>
     <cc:Agent>
      <dc:title>Matplotlib v3.9.2, https://matplotlib.org/</dc:title>
     </cc:Agent>
    </dc:creator>
   </cc:Work>
  </rdf:RDF>
 </metadata>
 <defs>
  <style type="text/css">*{stroke-linejoin: round; stroke-linecap: butt}</style>
 </defs>
 <g id="figure_1">
  <g id="patch_1">
   <path d="M 0 508.122875 
L 722.516875 508.122875 
L 722.516875 -0 
L 0 -0 
z
" style="fill: #ffffff"/>
  </g>
  <g id="axes_1">
   <g id="patch_2">
    <path d="M 45.716875 354.958125 
L 715.316875 354.958125 
L 715.316875 22.318125 
L 45.716875 22.318125 
z
" style="fill: #ffffff"/>
   </g>
   <g id="matplotlib.axis_1">
    <g id="xtick_1">
     <g id="line2d_1">
      <path d="M 76.153239 354.958125 
L 76.153239 22.318125 
" clip-path="url(#p3676ba7977)" style="fill: none; stroke: #b0b0b0; stroke-width: 0.8; stroke-linecap: square"/>
     </g>
     <g id="line2d_2">
      <defs>
       <path id="m6405565d76" d="M 0 0 
L 0 3.5 
" style="stroke: #000000; stroke-width: 0.8"/>
      </defs>
      <g>
       <use xlink:href="#m6405565d76" x="76.153239" y="354.958125" style="stroke: #000000; stroke-width: 0.8"/>
      </g>
     </g>
     <g id="text_1">
      <!-- 0.0 -->
      <g transform="translate(68.201676 369.556563) scale(0.1 -0.1)">
       <defs>
        <path id="DejaVuSans-30" d="M 2034 4250 
Q 1547 4250 1301 3770 
Q 1056 3291 1056 2328 
Q 1056 1369 1301 889 
Q 1547 409 2034 409 
Q 2525 409 2770 889 
Q 3016 1369 3016 2328 
Q 3016 3291 2770 3770 
Q 2525 4250 2034 4250 
z
M 2034 4750 
Q 2819 4750 3233 4129 
Q 3647 3509 3647 2328 
Q 3647 1150 3233 529 
Q 2819 -91 2034 -91 
Q 1250 -91 836 529 
Q 422 1150 422 2328 
Q 422 3509 836 4129 
Q 1250 4750 2034 4750 
z
" transform="scale(0.015625)"/>
        <path id="DejaVuSans-2e" d="M 684 794 
L 1344 794 
L 1344 0 
L 684 0 
L 684 794 
z
" transform="scale(0.015625)"/>
       </defs>
       <use xlink:href="#DejaVuSans-30"/>
       <use xlink:href="#DejaVuSans-2e" x="63.623047"/>
       <use xlink:href="#DejaVuSans-30" x="95.410156"/>
      </g>
     </g>
    </g>
    <g id="xtick_2">
     <g id="line2d_3">
      <path d="M 197.898693 354.958125 
L 197.898693 22.318125 
" clip-path="url(#p3676ba7977)" style="fill: none; stroke: #b0b0b0; stroke-width: 0.8; stroke-linecap: square"/>
     </g>
     <g id="line2d_4">
      <g>
       <use xlink:href="#m6405565d76" x="197.898693" y="354.958125" style="stroke: #000000; stroke-width: 0.8"/>
      </g>
     </g>
     <g id="text_2">
      <!-- 0.2 -->
      <g transform="translate(189.947131 369.556563) scale(0.1 -0.1)">
       <defs>
        <path id="DejaVuSans-32" d="M 1228 531 
L 3431 531 
L 3431 0 
L 469 0 
L 469 531 
Q 828 903 1448 1529 
Q 2069 2156 2228 2338 
Q 2531 2678 2651 2914 
Q 2772 3150 2772 3378 
Q 2772 3750 2511 3984 
Q 2250 4219 1831 4219 
Q 1534 4219 1204 4116 
Q 875 4013 500 3803 
L 500 4441 
Q 881 4594 1212 4672 
Q 1544 4750 1819 4750 
Q 2544 4750 2975 4387 
Q 3406 4025 3406 3419 
Q 3406 3131 3298 2873 
Q 3191 2616 2906 2266 
Q 2828 2175 2409 1742 
Q 1991 1309 1228 531 
z
" transform="scale(0.015625)"/>
       </defs>
       <use xlink:href="#DejaVuSans-30"/>
       <use xlink:href="#DejaVuSans-2e" x="63.623047"/>
       <use xlink:href="#DejaVuSans-32" x="95.410156"/>
      </g>
     </g>
    </g>
    <g id="xtick_3">
     <g id="line2d_5">
      <path d="M 319.644148 354.958125 
L 319.644148 22.318125 
" clip-path="url(#p3676ba7977)" style="fill: none; stroke: #b0b0b0; stroke-width: 0.8; stroke-linecap: square"/>
     </g>
     <g id="line2d_6">
      <g>
       <use xlink:href="#m6405565d76" x="319.644148" y="354.958125" style="stroke: #000000; stroke-width: 0.8"/>
      </g>
     </g>
     <g id="text_3">
      <!-- 0.4 -->
      <g transform="translate(311.692585 369.556563) scale(0.1 -0.1)">
       <defs>
        <path id="DejaVuSans-34" d="M 2419 4116 
L 825 1625 
L 2419 1625 
L 2419 4116 
z
M 2253 4666 
L 3047 4666 
L 3047 1625 
L 3713 1625 
L 3713 1100 
L 3047 1100 
L 3047 0 
L 2419 0 
L 2419 1100 
L 313 1100 
L 313 1709 
L 2253 4666 
z
" transform="scale(0.015625)"/>
       </defs>
       <use xlink:href="#DejaVuSans-30"/>
       <use xlink:href="#DejaVuSans-2e" x="63.623047"/>
       <use xlink:href="#DejaVuSans-34" x="95.410156"/>
      </g>
     </g>
    </g>
    <g id="xtick_4">
     <g id="line2d_7">
      <path d="M 441.389602 354.958125 
L 441.389602 22.318125 
" clip-path="url(#p3676ba7977)" style="fill: none; stroke: #b0b0b0; stroke-width: 0.8; stroke-linecap: square"/>
     </g>
     <g id="line2d_8">
      <g>
       <use xlink:href="#m6405565d76" x="441.389602" y="354.958125" style="stroke: #000000; stroke-width: 0.8"/>
      </g>
     </g>
     <g id="text_4">
      <!-- 0.6 -->
      <g transform="translate(433.43804 369.556563) scale(0.1 -0.1)">
       <defs>
        <path id="DejaVuSans-36" d="M 2113 2584 
Q 1688 2584 1439 2293 
Q 1191 2003 1191 1497 
Q 1191 994 1439 701 
Q 1688 409 2113 409 
Q 2538 409 2786 701 
Q 3034 994 3034 1497 
Q 3034 2003 2786 2293 
Q 2538 2584 2113 2584 
z
M 3366 4563 
L 3366 3988 
Q 3128 4100 2886 4159 
Q 2644 4219 2406 4219 
Q 1781 4219 1451 3797 
Q 1122 3375 1075 2522 
Q 1259 2794 1537 2939 
Q 1816 3084 2150 3084 
Q 2853 3084 3261 2657 
Q 3669 2231 3669 1497 
Q 3669 778 3244 343 
Q 2819 -91 2113 -91 
Q 1303 -91 875 529 
Q 447 1150 447 2328 
Q 447 3434 972 4092 
Q 1497 4750 2381 4750 
Q 2619 4750 2861 4703 
Q 3103 4656 3366 4563 
z
" transform="scale(0.015625)"/>
       </defs>
       <use xlink:href="#DejaVuSans-30"/>
       <use xlink:href="#DejaVuSans-2e" x="63.623047"/>
       <use xlink:href="#DejaVuSans-36" x="95.410156"/>
      </g>
     </g>
    </g>
    <g id="xtick_5">
     <g id="line2d_9">
      <path d="M 563.135057 354.958125 
L 563.135057 22.318125 
" clip-path="url(#p3676ba7977)" style="fill: none; stroke: #b0b0b0; stroke-width: 0.8; stroke-linecap: square"/>
     </g>
     <g id="line2d_10">
      <g>
       <use xlink:href="#m6405565d76" x="563.135057" y="354.958125" style="stroke: #000000; stroke-width: 0.8"/>
      </g>
     </g>
     <g id="text_5">
      <!-- 0.8 -->
      <g transform="translate(555.183494 369.556563) scale(0.1 -0.1)">
       <defs>
        <path id="DejaVuSans-38" d="M 2034 2216 
Q 1584 2216 1326 1975 
Q 1069 1734 1069 1313 
Q 1069 891 1326 650 
Q 1584 409 2034 409 
Q 2484 409 2743 651 
Q 3003 894 3003 1313 
Q 3003 1734 2745 1975 
Q 2488 2216 2034 2216 
z
M 1403 2484 
Q 997 2584 770 2862 
Q 544 3141 544 3541 
Q 544 4100 942 4425 
Q 1341 4750 2034 4750 
Q 2731 4750 3128 4425 
Q 3525 4100 3525 3541 
Q 3525 3141 3298 2862 
Q 3072 2584 2669 2484 
Q 3125 2378 3379 2068 
Q 3634 1759 3634 1313 
Q 3634 634 3220 271 
Q 2806 -91 2034 -91 
Q 1263 -91 848 271 
Q 434 634 434 1313 
Q 434 1759 690 2068 
Q 947 2378 1403 2484 
z
M 1172 3481 
Q 1172 3119 1398 2916 
Q 1625 2713 2034 2713 
Q 2441 2713 2670 2916 
Q 2900 3119 2900 3481 
Q 2900 3844 2670 4047 
Q 2441 4250 2034 4250 
Q 1625 4250 1398 4047 
Q 1172 3844 1172 3481 
z
" transform="scale(0.015625)"/>
       </defs>
       <use xlink:href="#DejaVuSans-30"/>
       <use xlink:href="#DejaVuSans-2e" x="63.623047"/>
       <use xlink:href="#DejaVuSans-38" x="95.410156"/>
      </g>
     </g>
    </g>
    <g id="xtick_6">
     <g id="line2d_11">
      <path d="M 684.880511 354.958125 
L 684.880511 22.318125 
" clip-path="url(#p3676ba7977)" style="fill: none; stroke: #b0b0b0; stroke-width: 0.8; stroke-linecap: square"/>
     </g>
     <g id="line2d_12">
      <g>
       <use xlink:href="#m6405565d76" x="684.880511" y="354.958125" style="stroke: #000000; stroke-width: 0.8"/>
      </g>
     </g>
     <g id="text_6">
      <!-- 1.0 -->
      <g transform="translate(676.928949 369.556563) scale(0.1 -0.1)">
       <defs>
        <path id="DejaVuSans-31" d="M 794 531 
L 1825 531 
L 1825 4091 
L 703 3866 
L 703 4441 
L 1819 4666 
L 2450 4666 
L 2450 531 
L 3481 531 
L 3481 0 
L 794 0 
L 794 531 
z
" transform="scale(0.015625)"/>
       </defs>
       <use xlink:href="#DejaVuSans-31"/>
       <use xlink:href="#DejaVuSans-2e" x="63.623047"/>
       <use xlink:href="#DejaVuSans-30" x="95.410156"/>
      </g>
     </g>
    </g>
    <g id="text_7">
     <!-- False Positive Rate -->
     <g transform="translate(324.757188 384.754375) scale(0.12 -0.12)">
      <defs>
       <path id="DejaVuSans-46" d="M 628 4666 
L 3309 4666 
L 3309 4134 
L 1259 4134 
L 1259 2759 
L 3109 2759 
L 3109 2228 
L 1259 2228 
L 1259 0 
L 628 0 
L 628 4666 
z
" transform="scale(0.015625)"/>
       <path id="DejaVuSans-61" d="M 2194 1759 
Q 1497 1759 1228 1600 
Q 959 1441 959 1056 
Q 959 750 1161 570 
Q 1363 391 1709 391 
Q 2188 391 2477 730 
Q 2766 1069 2766 1631 
L 2766 1759 
L 2194 1759 
z
M 3341 1997 
L 3341 0 
L 2766 0 
L 2766 531 
Q 2569 213 2275 61 
Q 1981 -91 1556 -91 
Q 1019 -91 701 211 
Q 384 513 384 1019 
Q 384 1609 779 1909 
Q 1175 2209 1959 2209 
L 2766 2209 
L 2766 2266 
Q 2766 2663 2505 2880 
Q 2244 3097 1772 3097 
Q 1472 3097 1187 3025 
Q 903 2953 641 2809 
L 641 3341 
Q 956 3463 1253 3523 
Q 1550 3584 1831 3584 
Q 2591 3584 2966 3190 
Q 3341 2797 3341 1997 
z
" transform="scale(0.015625)"/>
       <path id="DejaVuSans-6c" d="M 603 4863 
L 1178 4863 
L 1178 0 
L 603 0 
L 603 4863 
z
" transform="scale(0.015625)"/>
       <path id="DejaVuSans-73" d="M 2834 3397 
L 2834 2853 
Q 2591 2978 2328 3040 
Q 2066 3103 1784 3103 
Q 1356 3103 1142 2972 
Q 928 2841 928 2578 
Q 928 2378 1081 2264 
Q 1234 2150 1697 2047 
L 1894 2003 
Q 2506 1872 2764 1633 
Q 3022 1394 3022 966 
Q 3022 478 2636 193 
Q 2250 -91 1575 -91 
Q 1294 -91 989 -36 
Q 684 19 347 128 
L 347 722 
Q 666 556 975 473 
Q 1284 391 1588 391 
Q 1994 391 2212 530 
Q 2431 669 2431 922 
Q 2431 1156 2273 1281 
Q 2116 1406 1581 1522 
L 1381 1569 
Q 847 1681 609 1914 
Q 372 2147 372 2553 
Q 372 3047 722 3315 
Q 1072 3584 1716 3584 
Q 2034 3584 2315 3537 
Q 2597 3491 2834 3397 
z
" transform="scale(0.015625)"/>
       <path id="DejaVuSans-65" d="M 3597 1894 
L 3597 1613 
L 953 1613 
Q 991 1019 1311 708 
Q 1631 397 2203 397 
Q 2534 397 2845 478 
Q 3156 559 3463 722 
L 3463 178 
Q 3153 47 2828 -22 
Q 2503 -91 2169 -91 
Q 1331 -91 842 396 
Q 353 884 353 1716 
Q 353 2575 817 3079 
Q 1281 3584 2069 3584 
Q 2775 3584 3186 3129 
Q 3597 2675 3597 1894 
z
M 3022 2063 
Q 3016 2534 2758 2815 
Q 2500 3097 2075 3097 
Q 1594 3097 1305 2825 
Q 1016 2553 972 2059 
L 3022 2063 
z
" transform="scale(0.015625)"/>
       <path id="DejaVuSans-20" transform="scale(0.015625)"/>
       <path id="DejaVuSans-50" d="M 1259 4147 
L 1259 2394 
L 2053 2394 
Q 2494 2394 2734 2622 
Q 2975 2850 2975 3272 
Q 2975 3691 2734 3919 
Q 2494 4147 2053 4147 
L 1259 4147 
z
M 628 4666 
L 2053 4666 
Q 2838 4666 3239 4311 
Q 3641 3956 3641 3272 
Q 3641 2581 3239 2228 
Q 2838 1875 2053 1875 
L 1259 1875 
L 1259 0 
L 628 0 
L 628 4666 
z
" transform="scale(0.015625)"/>
       <path id="DejaVuSans-6f" d="M 1959 3097 
Q 1497 3097 1228 2736 
Q 959 2375 959 1747 
Q 959 1119 1226 758 
Q 1494 397 1959 397 
Q 2419 397 2687 759 
Q 2956 1122 2956 1747 
Q 2956 2369 2687 2733 
Q 2419 3097 1959 3097 
z
M 1959 3584 
Q 2709 3584 3137 3096 
Q 3566 2609 3566 1747 
Q 3566 888 3137 398 
Q 2709 -91 1959 -91 
Q 1206 -91 779 398 
Q 353 888 353 1747 
Q 353 2609 779 3096 
Q 1206 3584 1959 3584 
z
" transform="scale(0.015625)"/>
       <path id="DejaVuSans-69" d="M 603 3500 
L 1178 3500 
L 1178 0 
L 603 0 
L 603 3500 
z
M 603 4863 
L 1178 4863 
L 1178 4134 
L 603 4134 
L 603 4863 
z
" transform="scale(0.015625)"/>
       <path id="DejaVuSans-74" d="M 1172 4494 
L 1172 3500 
L 2356 3500 
L 2356 3053 
L 1172 3053 
L 1172 1153 
Q 1172 725 1289 603 
Q 1406 481 1766 481 
L 2356 481 
L 2356 0 
L 1766 0 
Q 1100 0 847 248 
Q 594 497 594 1153 
L 594 3053 
L 172 3053 
L 172 3500 
L 594 3500 
L 594 4494 
L 1172 4494 
z
" transform="scale(0.015625)"/>
       <path id="DejaVuSans-76" d="M 191 3500 
L 800 3500 
L 1894 563 
L 2988 3500 
L 3597 3500 
L 2284 0 
L 1503 0 
L 191 3500 
z
" transform="scale(0.015625)"/>
       <path id="DejaVuSans-52" d="M 2841 2188 
Q 3044 2119 3236 1894 
Q 3428 1669 3622 1275 
L 4263 0 
L 3584 0 
L 2988 1197 
Q 2756 1666 2539 1819 
Q 2322 1972 1947 1972 
L 1259 1972 
L 1259 0 
L 628 0 
L 628 4666 
L 2053 4666 
Q 2853 4666 3247 4331 
Q 3641 3997 3641 3322 
Q 3641 2881 3436 2590 
Q 3231 2300 2841 2188 
z
M 1259 4147 
L 1259 2491 
L 2053 2491 
Q 2509 2491 2742 2702 
Q 2975 2913 2975 3322 
Q 2975 3731 2742 3939 
Q 2509 4147 2053 4147 
L 1259 4147 
z
" transform="scale(0.015625)"/>
      </defs>
      <use xlink:href="#DejaVuSans-46"/>
      <use xlink:href="#DejaVuSans-61" x="48.394531"/>
      <use xlink:href="#DejaVuSans-6c" x="109.673828"/>
      <use xlink:href="#DejaVuSans-73" x="137.457031"/>
      <use xlink:href="#DejaVuSans-65" x="189.556641"/>
      <use xlink:href="#DejaVuSans-20" x="251.080078"/>
      <use xlink:href="#DejaVuSans-50" x="282.867188"/>
      <use xlink:href="#DejaVuSans-6f" x="339.544922"/>
      <use xlink:href="#DejaVuSans-73" x="400.726562"/>
      <use xlink:href="#DejaVuSans-69" x="452.826172"/>
      <use xlink:href="#DejaVuSans-74" x="480.609375"/>
      <use xlink:href="#DejaVuSans-69" x="519.818359"/>
      <use xlink:href="#DejaVuSans-76" x="547.601562"/>
      <use xlink:href="#DejaVuSans-65" x="606.78125"/>
      <use xlink:href="#DejaVuSans-20" x="668.304688"/>
      <use xlink:href="#DejaVuSans-52" x="700.091797"/>
      <use xlink:href="#DejaVuSans-61" x="767.324219"/>
      <use xlink:href="#DejaVuSans-74" x="828.603516"/>
      <use xlink:href="#DejaVuSans-65" x="867.8125"/>
     </g>
    </g>
   </g>
   <g id="matplotlib.axis_2">
    <g id="ytick_1">
     <g id="line2d_13">
      <path d="M 45.716875 339.838125 
L 715.316875 339.838125 
" clip-path="url(#p3676ba7977)" style="fill: none; stroke: #b0b0b0; stroke-width: 0.8; stroke-linecap: square"/>
     </g>
     <g id="line2d_14">
      <defs>
       <path id="m0b06e26763" d="M 0 0 
L -3.5 0 
" style="stroke: #000000; stroke-width: 0.8"/>
      </defs>
      <g>
       <use xlink:href="#m0b06e26763" x="45.716875" y="339.838125" style="stroke: #000000; stroke-width: 0.8"/>
      </g>
     </g>
     <g id="text_8">
      <!-- 0.0 -->
      <g transform="translate(22.81375 343.637344) scale(0.1 -0.1)">
       <use xlink:href="#DejaVuSans-30"/>
       <use xlink:href="#DejaVuSans-2e" x="63.623047"/>
       <use xlink:href="#DejaVuSans-30" x="95.410156"/>
      </g>
     </g>
    </g>
    <g id="ytick_2">
     <g id="line2d_15">
      <path d="M 45.716875 279.358125 
L 715.316875 279.358125 
" clip-path="url(#p3676ba7977)" style="fill: none; stroke: #b0b0b0; stroke-width: 0.8; stroke-linecap: square"/>
     </g>
     <g id="line2d_16">
      <g>
       <use xlink:href="#m0b06e26763" x="45.716875" y="279.358125" style="stroke: #000000; stroke-width: 0.8"/>
      </g>
     </g>
     <g id="text_9">
      <!-- 0.2 -->
      <g transform="translate(22.81375 283.157344) scale(0.1 -0.1)">
       <use xlink:href="#DejaVuSans-30"/>
       <use xlink:href="#DejaVuSans-2e" x="63.623047"/>
       <use xlink:href="#DejaVuSans-32" x="95.410156"/>
      </g>
     </g>
    </g>
    <g id="ytick_3">
     <g id="line2d_17">
      <path d="M 45.716875 218.878125 
L 715.316875 218.878125 
" clip-path="url(#p3676ba7977)" style="fill: none; stroke: #b0b0b0; stroke-width: 0.8; stroke-linecap: square"/>
     </g>
     <g id="line2d_18">
      <g>
       <use xlink:href="#m0b06e26763" x="45.716875" y="218.878125" style="stroke: #000000; stroke-width: 0.8"/>
      </g>
     </g>
     <g id="text_10">
      <!-- 0.4 -->
      <g transform="translate(22.81375 222.677344) scale(0.1 -0.1)">
       <use xlink:href="#DejaVuSans-30"/>
       <use xlink:href="#DejaVuSans-2e" x="63.623047"/>
       <use xlink:href="#DejaVuSans-34" x="95.410156"/>
      </g>
     </g>
    </g>
    <g id="ytick_4">
     <g id="line2d_19">
      <path d="M 45.716875 158.398125 
L 715.316875 158.398125 
" clip-path="url(#p3676ba7977)" style="fill: none; stroke: #b0b0b0; stroke-width: 0.8; stroke-linecap: square"/>
     </g>
     <g id="line2d_20">
      <g>
       <use xlink:href="#m0b06e26763" x="45.716875" y="158.398125" style="stroke: #000000; stroke-width: 0.8"/>
      </g>
     </g>
     <g id="text_11">
      <!-- 0.6 -->
      <g transform="translate(22.81375 162.197344) scale(0.1 -0.1)">
       <use xlink:href="#DejaVuSans-30"/>
       <use xlink:href="#DejaVuSans-2e" x="63.623047"/>
       <use xlink:href="#DejaVuSans-36" x="95.410156"/>
      </g>
     </g>
    </g>
    <g id="ytick_5">
     <g id="line2d_21">
      <path d="M 45.716875 97.918125 
L 715.316875 97.918125 
" clip-path="url(#p3676ba7977)" style="fill: none; stroke: #b0b0b0; stroke-width: 0.8; stroke-linecap: square"/>
     </g>
     <g id="line2d_22">
      <g>
       <use xlink:href="#m0b06e26763" x="45.716875" y="97.918125" style="stroke: #000000; stroke-width: 0.8"/>
      </g>
     </g>
     <g id="text_12">
      <!-- 0.8 -->
      <g transform="translate(22.81375 101.717344) scale(0.1 -0.1)">
       <use xlink:href="#DejaVuSans-30"/>
       <use xlink:href="#DejaVuSans-2e" x="63.623047"/>
       <use xlink:href="#DejaVuSans-38" x="95.410156"/>
      </g>
     </g>
    </g>
    <g id="ytick_6">
     <g id="line2d_23">
      <path d="M 45.716875 37.438125 
L 715.316875 37.438125 
" clip-path="url(#p3676ba7977)" style="fill: none; stroke: #b0b0b0; stroke-width: 0.8; stroke-linecap: square"/>
     </g>
     <g id="line2d_24">
      <g>
       <use xlink:href="#m0b06e26763" x="45.716875" y="37.438125" style="stroke: #000000; stroke-width: 0.8"/>
      </g>
     </g>
     <g id="text_13">
      <!-- 1.0 -->
      <g transform="translate(22.81375 41.237344) scale(0.1 -0.1)">
       <use xlink:href="#DejaVuSans-31"/>
       <use xlink:href="#DejaVuSans-2e" x="63.623047"/>
       <use xlink:href="#DejaVuSans-30" x="95.410156"/>
      </g>
     </g>
    </g>
    <g id="text_14">
     <!-- True Positive Rate -->
     <g transform="translate(16.318125 242.07375) rotate(-90) scale(0.12 -0.12)">
      <defs>
       <path id="DejaVuSans-54" d="M -19 4666 
L 3928 4666 
L 3928 4134 
L 2272 4134 
L 2272 0 
L 1638 0 
L 1638 4134 
L -19 4134 
L -19 4666 
z
" transform="scale(0.015625)"/>
       <path id="DejaVuSans-72" d="M 2631 2963 
Q 2534 3019 2420 3045 
Q 2306 3072 2169 3072 
Q 1681 3072 1420 2755 
Q 1159 2438 1159 1844 
L 1159 0 
L 581 0 
L 581 3500 
L 1159 3500 
L 1159 2956 
Q 1341 3275 1631 3429 
Q 1922 3584 2338 3584 
Q 2397 3584 2469 3576 
Q 2541 3569 2628 3553 
L 2631 2963 
z
" transform="scale(0.015625)"/>
       <path id="DejaVuSans-75" d="M 544 1381 
L 544 3500 
L 1119 3500 
L 1119 1403 
Q 1119 906 1312 657 
Q 1506 409 1894 409 
Q 2359 409 2629 706 
Q 2900 1003 2900 1516 
L 2900 3500 
L 3475 3500 
L 3475 0 
L 2900 0 
L 2900 538 
Q 2691 219 2414 64 
Q 2138 -91 1772 -91 
Q 1169 -91 856 284 
Q 544 659 544 1381 
z
M 1991 3584 
L 1991 3584 
z
" transform="scale(0.015625)"/>
      </defs>
      <use xlink:href="#DejaVuSans-54"/>
      <use xlink:href="#DejaVuSans-72" x="46.333984"/>
      <use xlink:href="#DejaVuSans-75" x="87.447266"/>
      <use xlink:href="#DejaVuSans-65" x="150.826172"/>
      <use xlink:href="#DejaVuSans-20" x="212.349609"/>
      <use xlink:href="#DejaVuSans-50" x="244.136719"/>
      <use xlink:href="#DejaVuSans-6f" x="300.814453"/>
      <use xlink:href="#DejaVuSans-73" x="361.996094"/>
      <use xlink:href="#DejaVuSans-69" x="414.095703"/>
      <use xlink:href="#DejaVuSans-74" x="441.878906"/>
      <use xlink:href="#DejaVuSans-69" x="481.087891"/>
      <use xlink:href="#DejaVuSans-76" x="508.871094"/>
      <use xlink:href="#DejaVuSans-65" x="568.050781"/>
      <use xlink:href="#DejaVuSans-20" x="629.574219"/>
      <use xlink:href="#DejaVuSans-52" x="661.361328"/>
      <use xlink:href="#DejaVuSans-61" x="728.59375"/>
      <use xlink:href="#DejaVuSans-74" x="789.873047"/>
      <use xlink:href="#DejaVuSans-65" x="829.082031"/>
     </g>
    </g>
   </g>
   <g id="line2d_25">
    <path d="M 76.153239 339.838125 
L 76.25112 281.651608 
L 76.349002 281.651608 
L 76.446884 264.521271 
L 76.544766 264.521271 
L 76.642648 260.698799 
L 76.74053 260.698799 
L 76.838412 258.150485 
L 76.936293 258.150485 
L 76.936293 257.301046 
L 77.229939 257.301046 
L 77.327821 256.451608 
L 77.425703 256.451608 
L 77.523585 255.743743 
L 77.621467 255.743743 
L 77.719348 254.752732 
L 77.81723 254.752732 
L 77.915112 252.204417 
L 78.012994 252.204417 
L 78.012994 250.363968 
L 78.208758 250.363968 
L 78.30664 249.656103 
L 78.502403 249.656103 
L 78.502403 249.372956 
L 78.796049 249.372956 
L 78.796049 249.231383 
L 78.991813 249.231383 
L 79.089694 246.399923 
L 79.187576 246.116777 
L 79.285458 244.134754 
L 79.38334 244.134754 
L 79.481222 243.426889 
L 79.579104 243.426889 
L 79.676986 242.294305 
L 79.774867 242.294305 
L 79.774867 242.152732 
L 79.970631 242.152732 
L 80.068513 241.020147 
L 80.166395 241.020147 
L 80.264277 239.74599 
L 80.362159 239.74599 
L 80.851568 239.038125 
L 80.94945 237.905541 
L 81.047332 237.905541 
L 81.047332 237.480822 
L 81.634623 237.480822 
L 81.732505 235.923518 
L 81.830386 235.923518 
L 81.928268 233.799923 
L 82.02615 233.516777 
L 82.319796 233.516777 
L 82.515559 233.233631 
L 82.515559 232.950485 
L 82.711323 232.950485 
L 82.809205 232.525765 
L 83.004969 232.242619 
L 83.004969 231.393181 
L 83.200732 231.393181 
L 83.200732 231.110035 
L 83.396496 230.826889 
L 83.494378 230.260597 
L 83.59226 230.260597 
L 83.59226 230.119024 
L 83.788024 230.119024 
L 83.885905 229.552732 
L 84.375315 229.552732 
L 84.473197 229.411159 
L 84.571078 228.420147 
L 84.66896 228.420147 
L 84.766842 227.570709 
L 84.864724 227.570709 
L 84.962606 227.004417 
L 85.060488 227.004417 
L 85.060488 226.862844 
L 85.15837 226.862844 
L 85.647779 226.438125 
L 85.745661 225.447114 
L 85.941424 225.447114 
L 86.039306 224.880822 
L 86.137188 224.880822 
L 86.23507 224.172956 
L 86.528716 224.172956 
L 86.626597 223.323518 
L 86.822361 223.323518 
L 86.822361 222.47408 
L 87.018125 222.332507 
L 87.213889 222.332507 
L 87.213889 222.190934 
L 87.31177 222.190934 
L 87.605416 221.907788 
L 87.703298 220.916777 
L 88.290589 220.916777 
L 88.388471 220.067338 
L 88.584235 220.067338 
L 88.584235 219.784192 
L 88.87788 219.359473 
L 88.975762 218.651608 
L 89.073644 218.651608 
L 89.171526 218.226889 
L 89.269408 218.226889 
L 89.856699 217.377451 
L 89.954581 216.952732 
L 90.541872 216.103294 
L 90.835517 215.961721 
L 90.933399 215.537001 
L 91.031281 215.537001 
L 91.031281 215.253855 
L 91.227045 215.253855 
L 91.227045 214.54599 
L 91.324927 214.54599 
L 91.618572 214.121271 
L 91.716454 212.988687 
L 91.814336 212.988687 
L 91.912218 212.422395 
L 92.0101 212.422395 
L 92.107981 211.997676 
L 92.401627 211.997676 
L 92.499509 211.572956 
L 92.695273 211.572956 
L 92.793154 210.157226 
L 92.891036 210.157226 
L 92.988918 209.307788 
L 93.184682 209.307788 
L 93.282564 208.883069 
L 93.380446 208.883069 
L 93.380446 208.741496 
L 93.576209 208.741496 
L 93.576209 208.599923 
L 93.869855 208.599923 
L 93.869855 208.45835 
L 94.750792 208.45835 
L 94.848673 208.175204 
L 95.533846 208.175204 
L 95.631728 207.750485 
L 95.827492 207.750485 
L 95.925374 206.901046 
L 96.121138 206.901046 
L 96.121138 206.759473 
L 96.316901 206.759473 
L 96.316901 206.6179 
L 96.512665 206.6179 
L 96.708429 206.051608 
L 97.099956 206.051608 
L 97.197838 205.626889 
L 97.491484 205.626889 
L 97.589365 205.343743 
L 97.687247 205.343743 
L 97.687247 204.777451 
L 97.883011 204.777451 
L 97.980893 204.494305 
L 98.078775 204.494305 
L 98.176657 202.937001 
L 98.274538 202.937001 
L 98.274538 202.795428 
L 98.37242 202.795428 
L 98.86183 202.087563 
L 99.155475 202.087563 
L 99.155475 201.804417 
L 99.547003 201.804417 
L 99.644884 201.379698 
L 100.036412 201.379698 
L 100.330057 201.096552 
L 100.427939 199.822395 
L 100.819467 199.822395 
L 100.819467 199.539249 
L 101.01523 199.539249 
L 101.01523 199.114529 
L 101.308876 199.114529 
L 101.308876 198.831383 
L 101.700403 198.548237 
L 101.700403 198.406664 
L 101.896167 198.406664 
L 101.896167 198.123518 
L 101.994049 198.123518 
L 102.287695 198.123518 
L 102.287695 197.840372 
L 102.483458 197.840372 
L 102.483458 197.698799 
L 102.679222 197.698799 
L 102.679222 197.557226 
L 102.874986 197.557226 
L 102.972868 197.132507 
L 103.070749 197.132507 
L 103.070749 196.707788 
L 103.755922 196.707788 
L 103.853804 195.999923 
L 103.951686 195.999923 
L 103.951686 195.85835 
L 104.14745 195.85835 
L 104.14745 195.716777 
L 104.343214 195.716777 
L 104.441095 195.292058 
L 104.538977 195.150485 
L 104.734741 195.150485 
L 104.832623 193.876327 
L 105.22415 193.026889 
L 105.517796 193.026889 
L 105.517796 192.60217 
L 105.71356 192.60217 
L 106.007205 192.035878 
L 106.202969 192.035878 
L 106.692378 191.469586 
L 106.79026 190.478574 
L 106.888142 190.478574 
L 107.377551 189.912282 
L 107.573315 189.770709 
L 107.573315 189.629136 
L 107.671197 189.629136 
L 107.866961 189.204417 
L 107.964842 189.204417 
L 108.160606 189.062844 
L 108.160606 188.921271 
L 108.552134 188.921271 
L 108.552134 188.779698 
L 109.237307 188.779698 
L 109.237307 188.496552 
L 109.628834 188.071833 
L 109.726716 186.939249 
L 109.824598 186.939249 
L 109.824598 186.797676 
L 110.216125 186.797676 
L 110.216125 186.372956 
L 110.314007 186.372956 
L 110.607653 186.08981 
L 110.705534 186.08981 
L 110.705534 185.523518 
L 111.097062 185.523518 
L 111.194944 184.249361 
L 111.684353 184.249361 
L 111.782235 183.824642 
L 112.07588 183.824642 
L 112.07588 183.541496 
L 112.271644 183.541496 
L 112.271644 183.399923 
L 112.467408 183.399923 
L 112.467408 183.25835 
L 112.761053 183.25835 
L 112.956817 183.116777 
L 113.054699 182.692058 
L 113.152581 182.692058 
L 113.250463 182.125765 
L 113.348345 181.984192 
L 113.739872 181.984192 
L 113.837754 181.701046 
L 114.033518 181.701046 
L 114.033518 181.559473 
L 114.229281 181.559473 
L 114.327163 180.710035 
L 114.425045 180.710035 
L 114.425045 180.568462 
L 114.620809 180.568462 
L 114.620809 180.285316 
L 114.914454 180.285316 
L 115.305982 179.577451 
L 115.305982 179.435878 
L 115.599627 179.435878 
L 115.599627 179.294305 
L 115.893273 179.294305 
L 115.991155 178.728013 
L 116.089037 178.728013 
L 116.186918 178.58644 
L 116.77421 178.58644 
L 116.77421 178.161721 
L 116.969973 178.161721 
L 117.067855 177.878574 
L 117.361501 177.878574 
L 117.361501 177.737001 
L 117.557264 177.737001 
L 117.557264 177.170709 
L 117.85091 177.170709 
L 118.046674 176.887563 
L 118.046674 176.604417 
L 118.340319 176.604417 
L 118.340319 176.462844 
L 119.319138 176.462844 
L 119.319138 175.896552 
L 119.514902 175.896552 
L 119.612783 175.613406 
L 119.710665 175.613406 
L 119.710665 175.33026 
L 120.102193 175.33026 
L 120.102193 174.622395 
L 120.395838 174.622395 
L 120.395838 174.056103 
L 120.49372 174.056103 
L 120.591602 173.914529 
L 120.591602 173.48981 
L 120.885248 173.48981 
L 120.983129 172.781945 
L 121.374657 172.781945 
L 121.472539 172.498799 
L 121.570421 172.498799 
L 121.668302 172.07408 
L 121.864066 172.07408 
L 121.961948 171.790934 
L 122.255594 171.790934 
L 122.255594 171.649361 
L 122.745003 171.649361 
L 122.745003 171.507788 
L 122.842885 171.507788 
L 123.038648 171.507788 
L 123.13653 171.224642 
L 123.332294 171.224642 
L 123.430176 170.941496 
L 123.62594 170.941496 
L 123.62594 170.65835 
L 123.821703 170.65835 
L 123.919585 170.375204 
L 124.017467 170.375204 
L 124.115349 170.092058 
L 124.506876 170.092058 
L 124.506876 169.950485 
L 124.70264 169.950485 
L 124.800522 169.242619 
L 124.996286 169.242619 
L 124.996286 168.8179 
L 125.192049 168.8179 
L 125.192049 168.676327 
L 125.387813 168.676327 
L 125.387813 168.534754 
L 125.877222 168.534754 
L 125.877222 168.393181 
L 126.072986 168.393181 
L 126.072986 168.251608 
L 126.366632 168.251608 
L 126.366632 167.968462 
L 126.660277 167.968462 
L 126.660277 167.826889 
L 126.856041 167.826889 
L 126.856041 167.685316 
L 127.149686 167.685316 
L 127.149686 167.40217 
L 127.736978 167.40217 
L 127.736978 167.260597 
L 127.932741 167.260597 
L 127.932741 166.269586 
L 128.030623 166.269586 
L 128.324269 166.269586 
L 128.324269 165.844867 
L 128.520032 165.844867 
L 128.617914 165.561721 
L 128.813678 165.561721 
L 128.91156 164.995428 
L 129.303087 164.995428 
L 129.400969 164.429136 
L 129.498851 164.429136 
L 129.498851 164.287563 
L 129.792497 164.287563 
L 129.890378 163.862844 
L 130.281906 163.862844 
L 130.281906 163.579698 
L 130.771315 163.579698 
L 130.771315 163.438125 
L 131.162843 163.438125 
L 131.358606 163.296552 
L 131.652252 163.296552 
L 131.750134 163.013406 
L 131.848016 163.013406 
L 131.848016 162.305541 
L 132.043779 162.305541 
L 132.043779 162.163968 
L 132.141661 162.163968 
L 132.533189 162.163968 
L 132.631071 161.880822 
L 132.826834 161.880822 
L 132.826834 161.031383 
L 133.022598 161.031383 
L 133.12048 160.323518 
L 133.609889 160.323518 
L 133.609889 160.181945 
L 133.903535 160.181945 
L 133.903535 160.040372 
L 134.295062 160.040372 
L 134.392944 159.898799 
L 134.784471 159.898799 
L 134.784471 159.615653 
L 134.980235 159.615653 
L 134.980235 159.47408 
L 135.175999 159.47408 
L 135.273881 159.190934 
L 135.567526 159.190934 
L 135.665408 158.907788 
L 136.056936 158.907788 
L 136.056936 158.766215 
L 136.154817 158.766215 
L 136.448463 158.766215 
L 136.546345 158.341496 
L 136.937872 158.341496 
L 137.035754 157.916777 
L 137.133636 157.916777 
L 137.231518 157.775204 
L 137.427282 157.775204 
L 137.427282 157.633631 
L 137.916691 157.633631 
L 137.916691 157.350485 
L 138.210336 157.350485 
L 138.308218 156.925765 
L 138.4061 156.925765 
L 138.503982 156.359473 
L 138.601864 156.359473 
L 138.699746 155.651608 
L 139.091273 155.651608 
L 139.189155 155.368462 
L 139.384919 155.368462 
L 139.678564 154.660597 
L 139.97221 154.660597 
L 140.070092 154.235878 
L 140.265855 154.235878 
L 140.265855 154.094305 
L 140.461619 154.094305 
L 140.657383 153.811159 
L 140.853147 153.811159 
L 140.853147 153.669586 
L 141.146792 153.669586 
L 141.146792 153.528013 
L 141.342556 153.528013 
L 141.440438 153.103294 
L 141.636201 153.103294 
L 141.636201 152.820147 
L 141.831965 152.820147 
L 141.831965 152.678574 
L 141.929847 152.678574 
L 142.027729 152.537001 
L 142.419256 152.537001 
L 142.517138 152.112282 
L 142.61502 152.112282 
L 142.712902 151.829136 
L 143.104429 151.262844 
L 143.202311 150.838125 
L 143.495957 150.838125 
L 143.789602 150.413406 
L 144.083248 150.413406 
L 144.083248 150.271833 
L 144.279012 150.271833 
L 144.376893 149.988687 
L 145.159948 149.988687 
L 145.159948 149.705541 
L 145.747239 149.705541 
L 145.845121 149.422395 
L 146.530294 149.422395 
L 146.530294 149.280822 
L 146.82394 149.280822 
L 146.921822 148.856103 
L 147.117585 148.856103 
L 147.215467 148.572956 
L 147.313349 148.431383 
L 147.509113 148.431383 
L 147.704877 148.28981 
L 148.096404 148.28981 
L 148.096404 148.148237 
L 148.487931 147.865091 
L 148.487931 147.723518 
L 148.781577 147.723518 
L 148.977341 147.581945 
L 149.173104 147.581945 
L 149.173104 147.440372 
L 149.270986 147.440372 
L 149.368868 147.298799 
L 149.46675 146.732507 
L 149.858277 146.732507 
L 149.858277 146.590934 
L 150.641332 146.590934 
L 150.641332 146.449361 
L 150.739214 146.449361 
L 151.130742 146.024642 
L 151.522269 146.024642 
L 151.620151 145.45835 
L 152.598969 145.45835 
L 152.598969 144.467338 
L 152.892615 144.467338 
L 152.892615 144.184192 
L 153.284142 144.184192 
L 153.284142 144.042619 
L 153.773552 144.042619 
L 153.773552 143.901046 
L 153.969315 143.901046 
L 153.969315 143.759473 
L 154.165079 143.759473 
L 154.458725 143.334754 
L 154.654488 143.334754 
L 154.75237 143.193181 
L 154.75237 142.768462 
L 155.046016 142.768462 
L 155.143898 142.626889 
L 155.731189 142.626889 
L 155.731189 142.343743 
L 155.926953 142.060597 
L 156.416362 142.060597 
L 156.416362 141.919024 
L 156.612126 141.919024 
L 157.199417 140.928013 
L 157.688826 140.928013 
L 157.786708 140.503294 
L 157.88459 140.503294 
L 157.982472 140.220147 
L 158.080353 140.220147 
L 158.178235 139.937001 
L 158.373999 139.937001 
L 158.373999 139.370709 
L 158.569763 139.370709 
L 158.667645 138.94599 
L 158.765526 138.94599 
L 158.863408 138.804417 
L 159.352818 138.804417 
L 159.450699 138.379698 
L 159.744345 138.238125 
L 159.744345 137.954979 
L 159.940109 137.954979 
L 159.940109 137.671833 
L 160.135873 137.671833 
L 160.233754 137.388687 
L 160.821046 137.388687 
L 160.821046 137.105541 
L 160.918927 137.105541 
L 161.212573 137.105541 
L 161.212573 136.963968 
L 162.191392 136.963968 
L 162.289273 136.539249 
L 162.680801 136.539249 
L 162.680801 136.397676 
L 163.072328 136.397676 
L 163.072328 136.256103 
L 163.17021 136.256103 
L 164.246911 135.831383 
L 164.246911 135.548237 
L 164.442674 135.548237 
L 164.442674 135.406664 
L 164.540556 135.406664 
L 164.638438 135.265091 
L 165.029965 135.265091 
L 165.127847 134.840372 
L 165.81302 134.840372 
L 165.81302 134.698799 
L 166.106666 134.698799 
L 166.106666 134.557226 
L 166.791839 134.557226 
L 166.791839 134.415653 
L 167.183366 134.415653 
L 167.281248 134.132507 
L 167.672776 134.132507 
L 167.672776 133.990934 
L 167.868539 133.990934 
L 167.868539 133.849361 
L 168.45583 133.849361 
L 168.45583 133.566215 
L 169.238885 133.566215 
L 169.238885 133.424642 
L 169.336767 133.424642 
L 169.532531 133.283069 
L 170.119822 133.283069 
L 170.119822 133.141496 
L 170.707113 133.141496 
L 170.804995 132.716777 
L 171.098641 132.716777 
L 171.098641 132.575204 
L 171.392286 132.575204 
L 171.783814 132.150485 
L 172.077459 132.150485 
L 172.077459 132.008912 
L 172.762632 132.008912 
L 172.860514 131.584192 
L 172.958396 131.584192 
L 173.056278 131.159473 
L 173.252041 131.159473 
L 174.132978 129.885316 
L 174.622387 129.885316 
L 174.622387 129.460597 
L 175.111797 129.460597 
L 175.111797 129.319024 
L 175.30756 129.319024 
L 175.30756 129.177451 
L 175.601206 129.177451 
L 175.601206 129.035878 
L 176.090615 129.035878 
L 176.090615 128.894305 
L 177.363079 128.894305 
L 177.363079 128.611159 
L 178.146134 128.611159 
L 178.146134 128.469586 
L 178.43978 128.469586 
L 178.43978 128.328013 
L 178.537662 128.328013 
L 178.733425 127.903294 
L 179.222835 127.903294 
L 179.222835 127.761721 
L 179.320717 127.761721 
L 179.51648 127.478574 
L 180.886826 127.478574 
L 180.886826 127.053855 
L 181.474117 127.053855 
L 181.474117 126.912282 
L 182.15929 126.912282 
L 182.15929 126.629136 
L 182.550818 126.629136 
L 182.550818 126.487563 
L 183.040227 126.487563 
L 183.138109 125.921271 
L 183.431755 125.921271 
L 183.431755 125.779698 
L 183.823282 125.779698 
L 183.823282 125.638125 
L 184.214809 125.638125 
L 184.214809 125.354979 
L 184.410573 125.354979 
L 184.410573 125.213406 
L 184.508455 125.213406 
L 184.704219 125.213406 
L 184.704219 125.071833 
L 185.487274 125.071833 
L 185.487274 124.93026 
L 185.878801 124.93026 
L 185.878801 124.788687 
L 186.36821 124.788687 
L 186.466092 124.505541 
L 186.661856 124.505541 
L 186.661856 124.222395 
L 187.151265 124.222395 
L 187.151265 123.939249 
L 187.444911 123.939249 
L 187.444911 123.797676 
L 187.738556 123.797676 
L 187.738556 123.656103 
L 188.423729 123.656103 
L 188.521611 122.948237 
L 189.206784 122.948237 
L 189.304666 122.665091 
L 189.598312 122.665091 
L 189.696194 122.240372 
L 189.891957 122.240372 
L 189.891957 122.098799 
L 190.087721 122.098799 
L 190.185603 121.815653 
L 190.381367 121.815653 
L 190.479248 121.532507 
L 190.772894 121.532507 
L 190.870776 120.966215 
L 191.06654 120.966215 
L 191.06654 120.824642 
L 191.360185 120.824642 
L 191.360185 120.399923 
L 191.458067 120.399923 
L 191.653831 120.25835 
L 191.849594 120.25835 
L 191.849594 120.116777 
L 192.14324 120.116777 
L 192.241122 119.550485 
L 192.534767 119.550485 
L 192.534767 119.408912 
L 192.828413 119.408912 
L 192.926295 118.842619 
L 193.70935 118.842619 
L 193.70935 118.701046 
L 193.905113 118.559473 
L 194.198759 118.559473 
L 194.198759 118.4179 
L 194.590286 118.4179 
L 194.688168 118.134754 
L 194.883932 118.134754 
L 194.883932 117.993181 
L 195.079696 117.993181 
L 195.275459 117.710035 
L 195.471223 117.710035 
L 195.471223 117.568462 
L 195.862751 117.568462 
L 195.862751 117.426889 
L 196.35216 117.426889 
L 196.35216 117.143743 
L 196.450042 117.143743 
L 196.645805 117.143743 
L 196.645805 117.00217 
L 196.841569 117.00217 
L 196.841569 116.719024 
L 197.037333 116.719024 
L 197.135215 116.152732 
L 197.42886 116.152732 
L 197.526742 115.869586 
L 197.624624 115.869586 
L 197.722506 115.728013 
L 198.114033 115.728013 
L 198.114033 115.58644 
L 198.505561 115.58644 
L 198.505561 115.444867 
L 198.799206 115.444867 
L 198.799206 114.878574 
L 199.973789 114.878574 
L 199.973789 114.737001 
L 200.07167 114.737001 
L 200.463198 114.737001 
L 200.463198 114.595428 
L 201.148371 114.595428 
L 201.246253 114.453855 
L 201.539898 114.453855 
L 201.833544 114.312282 
L 202.225071 114.312282 
L 202.225071 114.170709 
L 203.791181 114.170709 
L 204.965763 113.604417 
L 204.965763 113.462844 
L 205.161527 113.462844 
L 205.161527 113.321271 
L 205.748818 113.321271 
L 205.748818 112.896552 
L 206.531873 112.896552 
L 206.9234 112.471833 
L 208.000101 111.905541 
L 208.000101 111.763968 
L 208.293746 111.763968 
L 208.293746 111.622395 
L 208.391628 111.622395 
L 208.48951 111.480822 
L 208.881038 111.197676 
L 209.468329 111.197676 
L 209.468329 110.914529 
L 209.664092 110.914529 
L 210.251384 110.48981 
L 211.13232 110.48981 
L 211.13232 110.348237 
L 211.328084 110.348237 
L 211.425966 109.923518 
L 211.62173 109.923518 
L 211.817493 109.781945 
L 212.404784 109.781945 
L 212.600548 109.640372 
L 212.600548 109.498799 
L 213.187839 108.932507 
L 213.77513 108.932507 
L 213.77513 108.790934 
L 214.460303 108.790934 
L 214.460303 108.507788 
L 214.656067 108.507788 
L 214.656067 108.366215 
L 215.145476 108.366215 
L 215.243358 108.224642 
L 215.732768 108.224642 
L 215.732768 108.083069 
L 216.124295 108.083069 
L 216.711586 107.65835 
L 217.690405 107.65835 
L 217.788287 107.233631 
L 218.081932 107.233631 
L 218.081932 107.092058 
L 218.277696 107.092058 
L 218.277696 106.950485 
L 219.158633 106.950485 
L 219.158633 106.808912 
L 219.843806 106.808912 
L 219.843806 106.667338 
L 220.039569 106.667338 
L 220.039569 106.525765 
L 220.528979 106.525765 
L 220.528979 106.384192 
L 220.822624 106.384192 
L 220.822624 106.242619 
L 221.801443 106.242619 
L 222.19297 105.8179 
L 222.388734 105.8179 
L 222.486616 105.534754 
L 222.584498 105.534754 
L 222.68238 105.393181 
L 223.563316 105.393181 
L 223.563316 105.251608 
L 223.661198 105.251608 
L 224.248489 105.110035 
L 224.346371 104.685316 
L 224.737899 104.685316 
L 224.737899 104.119024 
L 224.83578 104.119024 
L 225.227308 104.119024 
L 225.227308 103.977451 
L 225.423072 103.835878 
L 225.618835 103.835878 
L 225.912481 103.552732 
L 226.206126 103.552732 
L 226.304008 103.269586 
L 226.499772 103.269586 
L 226.499772 103.128013 
L 226.793418 103.128013 
L 227.184945 102.703294 
L 227.282827 102.703294 
L 227.380709 102.561721 
L 227.772236 102.561721 
L 227.772236 102.420147 
L 229.827755 102.420147 
L 230.219283 102.137001 
L 230.317164 101.287563 
L 230.806574 101.287563 
L 230.806574 100.862844 
L 231.100219 100.862844 
L 231.295983 100.721271 
L 231.295983 100.579698 
L 232.666329 100.579698 
L 232.666329 100.438125 
L 233.449384 100.438125 
L 233.449384 100.296552 
L 233.840911 100.296552 
L 233.840911 100.154979 
L 234.134557 100.154979 
L 234.232439 99.73026 
L 234.81973 99.447114 
L 234.81973 99.305541 
L 235.015494 99.305541 
L 235.015494 99.163968 
L 235.407021 99.163968 
L 235.602785 98.739249 
L 235.89643 98.739249 
L 235.89643 98.597676 
L 235.994312 98.597676 
L 236.190076 98.314529 
L 236.483721 98.314529 
L 236.483721 98.172956 
L 236.973131 98.172956 
L 236.973131 98.031383 
L 237.756186 98.031383 
L 237.756186 97.88981 
L 238.245595 97.88981 
L 239.224413 97.323518 
L 239.518059 97.323518 
L 239.518059 97.181945 
L 240.398996 97.181945 
L 240.398996 96.757226 
L 240.594759 96.757226 
L 240.790523 96.049361 
L 240.986287 95.624642 
L 241.67146 95.624642 
L 241.67146 95.483069 
L 241.769342 95.483069 
L 241.965105 95.483069 
L 242.160869 95.341496 
L 242.356633 95.341496 
L 242.650278 95.199923 
L 242.650278 95.05835 
L 242.74816 95.05835 
L 242.943924 95.05835 
L 243.139688 94.775204 
L 243.531215 94.775204 
L 243.531215 94.633631 
L 244.31427 94.633631 
L 244.412152 94.350485 
L 244.901561 94.350485 
L 245.097325 94.208912 
L 245.488852 94.208912 
L 245.488852 94.067338 
L 245.684616 94.067338 
L 246.174025 93.642619 
L 246.467671 93.642619 
L 246.467671 93.501046 
L 246.663435 93.501046 
L 246.761317 93.2179 
L 247.642253 93.2179 
L 247.642253 93.076327 
L 247.740135 93.076327 
L 248.033781 93.076327 
L 248.131663 92.934754 
L 249.110481 92.934754 
L 249.502009 92.651608 
L 249.697772 92.651608 
L 249.697772 92.510035 
L 249.795654 92.510035 
L 250.480827 92.510035 
L 250.774473 92.226889 
L 251.851173 91.80217 
L 254.004574 91.80217 
L 254.200338 91.660597 
L 254.200338 91.519024 
L 254.396101 91.519024 
L 254.493983 91.235878 
L 254.885511 91.235878 
L 254.983393 91.094305 
L 255.277038 91.094305 
L 255.37492 90.811159 
L 255.570684 90.811159 
L 255.766447 90.669586 
L 256.060093 90.528013 
L 256.060093 90.38644 
L 256.45162 90.38644 
L 256.45162 90.103294 
L 257.234675 90.103294 
L 257.332557 89.820147 
L 257.528321 89.820147 
L 257.528321 89.537001 
L 257.919848 89.537001 
L 258.01773 89.395428 
L 259.094431 89.395428 
L 259.094431 89.253855 
L 259.681722 89.253855 
L 259.681722 88.687563 
L 260.856304 88.687563 
L 260.954186 88.262844 
L 264.380051 86.988687 
L 264.380051 86.705541 
L 264.771578 86.705541 
L 266.924979 86.422395 
L 266.924979 86.280822 
L 267.414388 85.997676 
L 267.903798 85.997676 
L 267.903798 85.856103 
L 268.295325 85.856103 
L 268.784734 85.572956 
L 269.959317 85.148237 
L 270.350844 85.148237 
L 270.938135 85.006664 
L 270.938135 84.865091 
L 271.329663 84.865091 
L 272.993654 83.87408 
L 274.461882 83.87408 
L 274.755528 83.590934 
L 275.538583 83.590934 
L 275.93011 83.307788 
L 276.517401 83.307788 
L 276.713165 82.741496 
L 278.964448 82.741496 
L 278.964448 82.599923 
L 279.649621 82.316777 
L 279.747503 82.316777 
L 279.845384 82.033631 
L 280.041148 82.033631 
L 280.236912 81.892058 
L 280.530557 81.750485 
L 280.824203 81.750485 
L 281.411494 81.608912 
L 281.411494 81.467338 
L 281.509376 81.467338 
L 281.803022 81.325765 
L 282.194549 81.325765 
L 282.78184 80.901046 
L 282.879722 80.901046 
L 283.369131 80.759473 
L 283.369131 80.6179 
L 283.760659 80.334754 
L 284.837359 80.334754 
L 284.837359 80.193181 
L 285.326768 80.193181 
L 285.91406 79.910035 
L 288.06746 78.635878 
L 288.458988 78.635878 
L 288.458988 78.352732 
L 288.654752 78.352732 
L 288.752633 78.211159 
L 290.514507 78.211159 
L 292.863671 77.78644 
L 293.646726 77.503294 
L 294.234017 77.503294 
L 294.234017 77.361721 
L 295.017072 77.220147 
L 295.017072 77.078574 
L 295.114954 77.078574 
L 295.310718 76.937001 
L 295.310718 76.795428 
L 295.4086 76.795428 
L 295.800127 76.795428 
L 296.093773 76.653855 
L 296.876828 76.653855 
L 296.876828 76.512282 
L 297.072591 76.512282 
L 297.072591 76.370709 
L 297.268355 76.370709 
L 297.659882 76.229136 
L 298.736583 76.229136 
L 298.834465 75.804417 
L 298.932347 75.804417 
L 298.932347 75.662844 
L 299.12811 75.662844 
L 299.12811 75.521271 
L 299.715402 75.521271 
L 299.715402 75.379698 
L 300.204811 75.096552 
L 301.183629 75.096552 
L 301.183629 74.954979 
L 301.673039 74.954979 
L 301.673039 74.813406 
L 302.064566 74.813406 
L 303.532794 74.671833 
L 303.532794 74.247114 
L 303.728558 74.247114 
L 304.511613 73.963968 
L 304.511613 73.822395 
L 305.97984 73.822395 
L 306.567132 73.680822 
L 306.567132 73.397676 
L 307.154423 73.397676 
L 307.154423 73.114529 
L 307.741714 73.114529 
L 307.741714 72.831383 
L 307.839596 72.831383 
L 308.916296 72.831383 
L 308.916296 72.68981 
L 309.405705 72.68981 
L 309.503587 72.548237 
L 309.797233 72.548237 
L 309.797233 72.406664 
L 310.18876 72.406664 
L 310.482406 72.265091 
L 310.580288 71.415653 
L 310.67817 71.415653 
L 310.67817 71.132507 
L 310.873933 71.132507 
L 310.971815 70.990934 
L 311.461224 70.990934 
L 311.559106 70.566215 
L 312.635807 70.566215 
L 312.635807 70.424642 
L 313.712507 70.424642 
L 313.712507 70.141496 
L 315.180735 70.141496 
L 315.376499 69.85835 
L 316.942608 69.85835 
L 317.138372 69.716777 
L 317.5299 69.716777 
L 317.725663 69.575204 
L 318.019309 69.575204 
L 318.019309 69.433631 
L 318.900246 69.150485 
L 321.836701 69.150485 
L 321.934583 68.725765 
L 322.130347 68.725765 
L 322.130347 68.584192 
L 323.109165 68.584192 
L 323.207047 68.159473 
L 323.598575 68.159473 
L 323.696457 67.876327 
L 324.871039 67.876327 
L 324.871039 67.734754 
L 325.262566 67.734754 
L 325.262566 67.593181 
L 325.360448 67.593181 
L 325.556212 67.168462 
L 326.535031 67.168462 
L 326.535031 67.026889 
L 326.632912 67.026889 
L 326.926558 67.026889 
L 326.926558 66.885316 
L 327.122322 66.885316 
L 327.122322 66.743743 
L 327.709613 66.743743 
L 327.709613 66.319024 
L 328.786313 66.319024 
L 328.786313 66.177451 
L 329.66725 66.177451 
L 329.66725 66.035878 
L 330.058777 66.035878 
L 330.058777 65.894305 
L 331.429123 65.894305 
L 331.527005 65.752732 
L 331.820651 65.752732 
L 332.016415 65.611159 
L 333.87617 65.611159 
L 334.071934 65.469586 
L 334.95287 65.469586 
L 334.95287 65.328013 
L 335.540161 65.328013 
L 335.540161 65.18644 
L 336.029571 65.18644 
L 336.029571 65.044867 
L 336.616862 65.044867 
L 336.616862 64.761721 
L 337.302035 64.761721 
L 337.497799 64.478574 
L 338.182972 64.478574 
L 338.182972 64.337001 
L 339.553318 64.337001 
L 339.651199 64.195428 
L 339.944845 64.195428 
L 339.944845 63.912282 
L 340.825782 63.912282 
L 341.021545 63.770709 
L 341.315191 63.770709 
L 341.315191 63.629136 
L 341.413073 63.629136 
L 342.196128 63.34599 
L 343.566474 63.34599 
L 343.566474 63.204417 
L 344.251647 63.204417 
L 344.251647 63.062844 
L 345.132583 63.062844 
L 345.132583 62.921271 
L 345.230465 62.921271 
L 345.915638 62.921271 
L 345.915638 62.779698 
L 346.698693 62.779698 
L 346.796575 62.213406 
L 347.188102 62.213406 
L 347.188102 62.071833 
L 347.481748 62.071833 
L 347.481748 61.93026 
L 347.57963 61.93026 
L 347.971157 61.93026 
L 348.166921 61.788687 
L 348.754212 61.788687 
L 349.14574 61.647114 
L 349.537267 61.647114 
L 349.537267 61.505541 
L 349.830913 61.505541 
L 349.830913 61.363968 
L 350.418204 61.363968 
L 350.418204 61.222395 
L 350.613967 61.222395 
L 350.613967 60.939249 
L 350.809731 60.939249 
L 350.809731 60.797676 
L 351.886432 60.797676 
L 352.082195 60.656103 
L 353.35466 60.656103 
L 353.35466 60.514529 
L 353.550423 60.514529 
L 353.648305 60.372956 
L 354.235596 60.372956 
L 354.43136 60.08981 
L 355.312297 60.08981 
L 355.99747 59.806664 
L 356.291115 59.806664 
L 356.388997 59.665091 
L 356.584761 59.665091 
L 356.584761 59.523518 
L 357.367816 59.523518 
L 357.661461 59.381945 
L 358.836044 59.381945 
L 358.933925 59.098799 
L 360.304271 59.098799 
L 360.402153 58.957226 
L 361.087326 58.957226 
L 361.380972 58.815653 
L 362.261909 58.815653 
L 362.261909 58.67408 
L 362.947082 58.67408 
L 363.044963 58.532507 
L 363.632255 58.532507 
L 363.632255 58.390934 
L 364.611073 58.390934 
L 364.611073 58.249361 
L 365.394128 58.249361 
L 365.49201 58.107788 
L 366.177183 58.107788 
L 366.960238 57.966215 
L 367.547529 57.966215 
L 367.547529 57.824642 
L 368.232702 57.824642 
L 368.428466 57.683069 
L 370.092457 57.683069 
L 370.092457 57.399923 
L 370.77763 57.399923 
L 370.77763 57.116777 
L 371.560685 57.116777 
L 371.560685 56.975204 
L 371.854331 56.975204 
L 371.952212 56.833631 
L 372.833149 56.833631 
L 372.833149 56.692058 
L 373.126795 56.692058 
L 373.126795 56.550485 
L 373.616204 56.550485 
L 373.616204 56.408912 
L 373.714086 56.408912 
L 376.454778 56.408912 
L 376.650542 56.267338 
L 377.237833 56.267338 
L 377.237833 56.125765 
L 377.923006 56.125765 
L 378.020888 55.984192 
L 378.901824 55.984192 
L 378.901824 55.842619 
L 381.055225 55.842619 
L 381.740398 55.559473 
L 382.719217 55.4179 
L 382.719217 55.134754 
L 384.774736 55.134754 
L 384.774736 54.851608 
L 384.872618 54.851608 
L 385.851436 54.851608 
L 386.0472 54.710035 
L 386.438727 54.710035 
L 386.536609 54.568462 
L 387.026019 54.568462 
L 387.026019 54.426889 
L 387.417546 54.426889 
L 387.515428 54.285316 
L 388.200601 54.285316 
L 388.200601 54.143743 
L 392.213757 54.143743 
L 392.213757 54.00217 
L 394.171394 54.00217 
L 394.171394 53.860597 
L 394.954449 53.860597 
L 394.954449 53.719024 
L 396.129031 53.719024 
L 396.324795 53.577451 
L 397.695141 53.577451 
L 397.793023 53.294305 
L 397.890905 53.294305 
L 397.890905 53.152732 
L 398.67396 53.152732 
L 398.67396 53.011159 
L 399.065487 53.011159 
L 399.065487 52.869586 
L 399.261251 52.869586 
L 399.261251 52.728013 
L 402.980761 52.728013 
L 403.078643 52.444867 
L 403.470171 52.444867 
L 403.470171 52.303294 
L 404.448989 52.303294 
L 404.546871 51.878574 
L 405.329926 51.878574 
L 405.623571 51.595428 
L 406.015099 51.595428 
L 406.015099 51.312282 
L 406.406626 51.312282 
L 406.406626 51.170709 
L 406.504508 51.170709 
L 407.091799 51.170709 
L 407.189681 50.887563 
L 408.560027 50.887563 
L 408.755791 50.74599 
L 409.2452 50.74599 
L 409.2452 50.604417 
L 412.37742 50.604417 
L 412.475302 50.462844 
L 413.649884 50.462844 
L 413.649884 50.321271 
L 414.824466 50.321271 
L 414.824466 50.179698 
L 415.509639 50.179698 
L 415.607521 50.038125 
L 416.292694 50.038125 
L 416.292694 49.896552 
L 418.348213 49.896552 
L 418.446095 49.754979 
L 421.088905 49.754979 
L 421.186787 49.471833 
L 421.480432 49.471833 
L 421.578314 49.33026 
L 421.87196 49.33026 
L 421.87196 49.188687 
L 423.242306 49.188687 
L 423.340188 49.047114 
L 424.319006 49.047114 
L 424.416888 48.905541 
L 425.199943 48.905541 
L 425.297825 48.763968 
L 426.472407 48.763968 
L 426.472407 48.622395 
L 427.744871 48.622395 
L 427.842753 48.480822 
L 428.72369 48.480822 
L 428.821572 48.339249 
L 432.93261 48.339249 
L 432.93261 48.197676 
L 433.324137 48.197676 
L 433.324137 48.056103 
L 434.205074 48.056103 
L 434.205074 47.914529 
L 434.792365 47.914529 
L 434.988129 47.772956 
L 435.477538 47.772956 
L 435.477538 47.631383 
L 437.826703 47.631383 
L 437.924585 47.48981 
L 439.294931 47.48981 
L 439.294931 47.348237 
L 440.469513 47.348237 
L 440.469513 47.206664 
L 441.35045 47.206664 
L 441.35045 47.065091 
L 441.448331 47.065091 
L 441.644095 47.065091 
L 441.644095 46.923518 
L 441.839859 46.923518 
L 441.937741 46.781945 
L 442.818677 46.781945 
L 442.818677 46.640372 
L 442.916559 46.640372 
L 452.019572 46.640372 
L 452.019572 46.498799 
L 453.389918 46.498799 
L 453.879327 46.357226 
L 454.172973 46.357226 
L 454.172973 46.07408 
L 454.270855 46.07408 
L 455.543319 46.07408 
L 455.543319 45.932507 
L 456.913665 45.932507 
L 456.913665 45.790934 
L 457.20731 45.790934 
L 457.20731 45.649361 
L 458.969184 45.649361 
L 458.969184 45.507788 
L 459.067066 45.507788 
L 460.143766 45.507788 
L 460.143766 45.366215 
L 461.318348 45.366215 
L 461.318348 45.083069 
L 463.275986 45.083069 
L 463.373868 44.941496 
L 463.863277 44.941496 
L 463.863277 44.799923 
L 466.016678 44.799923 
L 466.016678 44.65835 
L 466.11456 44.65835 
L 469.344661 44.65835 
L 469.344661 44.516777 
L 469.638306 44.516777 
L 469.638306 44.375204 
L 470.127716 44.375204 
L 470.127716 44.233631 
L 470.812889 44.233631 
L 470.812889 44.092058 
L 471.595944 44.092058 
L 471.595944 43.950485 
L 473.651463 43.950485 
L 473.651463 43.808912 
L 473.749344 43.808912 
L 474.04299 43.808912 
L 474.04299 43.667338 
L 475.804863 43.667338 
L 475.804863 43.525765 
L 478.447674 43.525765 
L 478.447674 43.384192 
L 478.545555 43.384192 
L 479.915901 43.384192 
L 480.111665 43.101046 
L 480.698956 43.101046 
L 480.698956 42.959473 
L 485.299404 42.959473 
L 485.397285 42.8179 
L 487.257041 42.8179 
L 487.354923 42.676327 
L 488.529505 42.676327 
L 488.529505 42.534754 
L 488.921032 42.534754 
L 488.921032 42.393181 
L 490.487142 42.393181 
L 490.487142 42.251608 
L 491.857488 42.251608 
L 492.151134 42.110035 
L 494.696062 42.110035 
L 494.696062 41.968462 
L 496.555817 41.968462 
L 496.555817 41.826889 
L 498.121927 41.826889 
L 498.121927 41.685316 
L 498.219809 41.685316 
L 502.624492 41.685316 
L 502.624492 41.543743 
L 503.701193 41.543743 
L 503.799075 41.260597 
L 503.994838 41.260597 
L 503.994838 41.119024 
L 504.875775 41.119024 
L 504.875775 40.977451 
L 507.322822 40.977451 
L 507.322822 40.835878 
L 508.497404 40.835878 
L 508.497404 40.552732 
L 509.476222 40.552732 
L 511.923269 40.411159 
L 515.349134 40.411159 
L 515.349134 40.269586 
L 516.230071 40.269586 
L 516.230071 40.128013 
L 517.404653 40.128013 
L 517.404653 39.98644 
L 517.502535 39.98644 
L 521.515691 39.98644 
L 521.515691 39.844867 
L 522.0051 39.844867 
L 522.200864 39.703294 
L 524.354265 39.703294 
L 525.235202 39.561721 
L 535.317033 39.561721 
L 535.317033 39.420147 
L 540.602653 39.420147 
L 540.602653 39.278574 
L 541.581472 39.278574 
L 541.875117 39.137001 
L 542.168763 39.137001 
L 542.266645 38.995428 
L 546.377683 38.995428 
L 546.573447 38.853855 
L 547.748029 38.853855 
L 547.748029 38.712282 
L 547.845911 38.712282 
L 548.726847 38.712282 
L 548.922611 38.570709 
L 559.787497 38.570709 
L 559.787497 38.429136 
L 561.647253 38.429136 
L 561.940898 38.14599 
L 565.366763 38.14599 
L 565.366763 38.004417 
L 570.848147 38.004417 
L 571.141793 37.862844 
L 576.035886 37.862844 
L 576.035886 37.721271 
L 580.636333 37.721271 
L 581.125742 37.579698 
L 592.773683 37.579698 
L 593.067329 37.438125 
L 684.880511 37.438125 
L 684.880511 37.438125 
" clip-path="url(#p3676ba7977)" style="fill: none; stroke: #1f77b4; stroke-width: 1.5; stroke-linecap: square"/>
   </g>
   <g id="line2d_26">
    <path d="M 76.153239 339.838125 
L 76.153239 259.383079 
L 76.889305 259.383079 
L 76.889305 251.060143 
L 79.097506 251.060143 
L 79.833573 248.285831 
L 81.305706 248.285831 
L 81.305706 226.091336 
L 82.77784 226.091336 
L 82.77784 214.994088 
L 89.402442 214.994088 
L 89.402442 212.219776 
L 90.138509 212.219776 
L 90.138509 203.896841 
L 90.874575 203.896841 
L 90.874575 201.122529 
L 92.346709 201.122529 
L 92.346709 198.348217 
L 95.290976 198.348217 
L 95.290976 192.799593 
L 98.235244 192.799593 
L 98.235244 190.025281 
L 100.443444 190.025281 
L 100.443444 187.250969 
L 104.123778 187.250969 
L 104.123778 181.702345 
L 112.95658 181.702345 
L 112.95658 178.928033 
L 123.997583 178.928033 
L 123.997583 176.153721 
L 127.677917 176.153721 
L 127.677917 173.379409 
L 129.886118 173.379409 
L 129.886118 170.605097 
L 140.191053 170.605097 
L 140.191053 165.056474 
L 140.92712 165.056474 
L 140.92712 162.282162 
L 143.135321 162.282162 
L 143.135321 159.50785 
L 145.343521 159.50785 
L 145.343521 156.733538 
L 149.759922 156.733538 
L 149.759922 153.959226 
L 150.495989 153.959226 
L 151.232056 151.184914 
L 154.91239 151.184914 
L 154.91239 148.410602 
L 157.120591 148.410602 
L 158.592724 145.63629 
L 158.592724 140.087666 
L 163.009125 140.087666 
L 163.009125 137.313354 
L 164.481259 137.313354 
L 164.481259 134.539042 
L 168.161593 134.539042 
L 169.633727 131.764731 
L 177.730462 131.764731 
L 177.730462 128.990419 
L 191.715732 128.990419 
L 191.715732 123.441795 
L 192.451799 123.441795 
L 192.451799 120.667483 
L 201.284601 120.667483 
L 201.284601 117.893171 
L 204.228868 117.893171 
L 204.228868 115.118859 
L 207.173135 115.118859 
L 210.853469 106.795923 
L 215.26987 106.795923 
L 215.26987 104.021611 
L 217.478071 104.021611 
L 218.214138 101.247299 
L 218.214138 98.472987 
L 221.894472 98.472987 
L 221.894472 95.698675 
L 222.630539 92.924364 
L 229.991207 92.924364 
L 229.991207 90.150052 
L 233.671541 90.150052 
L 233.671541 87.37574 
L 235.879742 87.37574 
L 235.879742 84.601428 
L 237.351876 84.601428 
L 238.087942 81.827116 
L 250.601079 81.827116 
L 250.601079 79.052804 
L 295.501156 79.052804 
L 296.237222 76.278492 
L 304.333958 76.278492 
L 304.333958 73.50418 
L 305.070024 73.50418 
L 305.070024 70.729868 
L 328.624163 70.729868 
L 328.624163 67.955556 
L 330.832364 67.955556 
L 330.832364 65.181244 
L 370.579973 65.181244 
L 370.579973 62.406932 
L 381.620975 62.406932 
L 381.620975 59.63262 
L 383.093109 59.63262 
L 383.093109 56.858308 
L 388.245577 56.858308 
L 388.245577 54.083997 
L 403.70298 54.083997 
L 403.70298 51.309685 
L 411.799715 51.309685 
L 411.799715 48.535373 
L 415.48005 48.535373 
L 415.48005 45.761061 
L 422.104651 45.761061 
L 422.104651 42.986749 
L 441.242389 42.986749 
L 441.242389 40.212437 
L 450.075191 40.212437 
L 450.811258 37.438125 
L 684.880511 37.438125 
L 684.880511 37.438125 
" clip-path="url(#p3676ba7977)" style="fill: none; stroke: #ff7f0e; stroke-width: 1.5; stroke-linecap: square"/>
   </g>
   <g id="line2d_27">
    <path d="M 76.153239 339.838125 
L 76.153239 335.806125 
L 76.153239 255.166125 
L 78.870771 255.166125 
L 78.870771 243.070125 
L 84.305836 243.070125 
L 84.305836 239.038125 
L 87.023369 239.038125 
L 87.023369 230.974125 
L 87.023369 222.910125 
L 92.458433 222.910125 
L 92.458433 210.814125 
L 95.175966 210.814125 
L 95.175966 206.782125 
L 100.611031 206.782125 
L 100.611031 198.718125 
L 103.328563 198.718125 
L 103.328563 194.686125 
L 111.481161 194.686125 
L 111.481161 190.654125 
L 114.198693 190.654125 
L 114.198693 186.622125 
L 119.633758 186.622125 
L 125.068823 182.590125 
L 125.068823 178.558125 
L 127.786356 178.558125 
L 127.786356 174.526125 
L 130.503888 174.526125 
L 130.503888 170.494125 
L 138.656485 170.494125 
L 138.656485 162.430125 
L 141.374018 162.430125 
L 141.374018 158.398125 
L 152.244148 158.398125 
L 152.244148 154.366125 
L 154.96168 154.366125 
L 154.96168 150.334125 
L 160.396745 150.334125 
L 160.396745 146.302125 
L 182.137005 146.302125 
L 182.137005 142.270125 
L 193.007135 142.270125 
L 193.007135 134.206125 
L 212.029862 134.206125 
L 212.029862 126.142125 
L 217.464927 126.142125 
L 220.182459 122.110125 
L 222.899992 122.110125 
L 222.899992 118.078125 
L 247.357784 118.078125 
L 247.357784 105.982125 
L 269.098044 105.982125 
L 269.098044 93.886125 
L 271.815576 93.886125 
L 271.815576 85.822125 
L 288.120771 85.822125 
L 293.555836 85.822125 
L 293.555836 81.790125 
L 315.296096 81.790125 
L 315.296096 77.758125 
L 323.448693 77.758125 
L 331.601291 77.758125 
L 331.601291 73.726125 
L 334.318823 73.726125 
L 334.318823 69.694125 
L 350.624018 69.694125 
L 350.624018 65.662125 
L 358.776615 65.662125 
L 364.21168 65.662125 
L 364.21168 61.630125 
L 377.799343 61.630125 
L 377.799343 57.598125 
L 448.455187 57.598125 
L 448.455187 53.566125 
L 464.760381 53.566125 
L 464.760381 49.534125 
L 486.500641 49.534125 
L 491.935706 49.534125 
L 513.675966 49.534125 
L 513.675966 45.502125 
L 521.828563 45.502125 
L 532.698693 45.502125 
L 557.156485 45.502125 
L 557.156485 41.470125 
L 589.766875 41.470125 
L 589.766875 37.438125 
L 606.07207 37.438125 
L 611.507135 37.438125 
L 684.880511 37.438125 
" clip-path="url(#p3676ba7977)" style="fill: none; stroke: #2ca02c; stroke-width: 1.5; stroke-linecap: square"/>
   </g>
   <g id="line2d_28">
    <path d="M 76.153239 339.838125 
L 76.153239 302.038125 
L 98.155429 302.038125 
L 112.823556 302.038125 
L 149.493874 302.038125 
L 149.493874 264.238125 
L 237.502636 264.238125 
L 237.502636 226.438125 
L 259.504827 226.438125 
L 259.504827 188.638125 
L 274.172954 188.638125 
L 354.847653 188.638125 
L 354.847653 150.838125 
L 362.181716 150.838125 
L 362.181716 113.038125 
L 435.522351 113.038125 
L 435.522351 75.238125 
L 501.528923 75.238125 
L 516.19705 75.238125 
L 560.201431 75.238125 
L 560.201431 37.438125 
L 684.880511 37.438125 
" clip-path="url(#p3676ba7977)" style="fill: none; stroke: #d62728; stroke-width: 1.5; stroke-linecap: square"/>
   </g>
   <g id="line2d_29">
    <path d="M 76.153239 339.838125 
L 76.153239 309.598125 
L 76.153239 188.638125 
L 91.76163 188.638125 
L 91.76163 158.398125 
L 99.565826 158.398125 
L 99.565826 128.158125 
L 154.195197 128.158125 
L 154.195197 97.918125 
L 161.999392 97.918125 
L 161.999392 67.678125 
L 240.041351 67.678125 
L 240.041351 37.438125 
L 684.880511 37.438125 
" clip-path="url(#p3676ba7977)" style="fill: none; stroke: #9467bd; stroke-width: 1.5; stroke-linecap: square"/>
   </g>
   <g id="line2d_30">
    <path d="M 76.153239 339.838125 
L 684.880511 37.438125 
" clip-path="url(#p3676ba7977)" style="fill: none; stroke-dasharray: 7.4,3.2; stroke-dashoffset: 0; stroke: #808080; stroke-width: 2"/>
   </g>
   <g id="patch_3">
    <path d="M 45.716875 354.958125 
L 45.716875 22.318125 
" style="fill: none; stroke: #000000; stroke-width: 0.8; stroke-linejoin: miter; stroke-linecap: square"/>
   </g>
   <g id="patch_4">
    <path d="M 715.316875 354.958125 
L 715.316875 22.318125 
" style="fill: none; stroke: #000000; stroke-width: 0.8; stroke-linejoin: miter; stroke-linecap: square"/>
   </g>
   <g id="patch_5">
    <path d="M 45.716875 354.958125 
L 715.316875 354.958125 
" style="fill: none; stroke: #000000; stroke-width: 0.8; stroke-linejoin: miter; stroke-linecap: square"/>
   </g>
   <g id="patch_6">
    <path d="M 45.716875 22.318125 
L 715.316875 22.318125 
" style="fill: none; stroke: #000000; stroke-width: 0.8; stroke-linejoin: miter; stroke-linecap: square"/>
   </g>
   <g id="text_15">
    <!-- ROC Curve: Decision Tree Classifier -->
    <g transform="translate(274.65625 16.318125) scale(0.12 -0.12)">
     <defs>
      <path id="DejaVuSans-4f" d="M 2522 4238 
Q 1834 4238 1429 3725 
Q 1025 3213 1025 2328 
Q 1025 1447 1429 934 
Q 1834 422 2522 422 
Q 3209 422 3611 934 
Q 4013 1447 4013 2328 
Q 4013 3213 3611 3725 
Q 3209 4238 2522 4238 
z
M 2522 4750 
Q 3503 4750 4090 4092 
Q 4678 3434 4678 2328 
Q 4678 1225 4090 567 
Q 3503 -91 2522 -91 
Q 1538 -91 948 565 
Q 359 1222 359 2328 
Q 359 3434 948 4092 
Q 1538 4750 2522 4750 
z
" transform="scale(0.015625)"/>
      <path id="DejaVuSans-43" d="M 4122 4306 
L 4122 3641 
Q 3803 3938 3442 4084 
Q 3081 4231 2675 4231 
Q 1875 4231 1450 3742 
Q 1025 3253 1025 2328 
Q 1025 1406 1450 917 
Q 1875 428 2675 428 
Q 3081 428 3442 575 
Q 3803 722 4122 1019 
L 4122 359 
Q 3791 134 3420 21 
Q 3050 -91 2638 -91 
Q 1578 -91 968 557 
Q 359 1206 359 2328 
Q 359 3453 968 4101 
Q 1578 4750 2638 4750 
Q 3056 4750 3426 4639 
Q 3797 4528 4122 4306 
z
" transform="scale(0.015625)"/>
      <path id="DejaVuSans-3a" d="M 750 794 
L 1409 794 
L 1409 0 
L 750 0 
L 750 794 
z
M 750 3309 
L 1409 3309 
L 1409 2516 
L 750 2516 
L 750 3309 
z
" transform="scale(0.015625)"/>
      <path id="DejaVuSans-44" d="M 1259 4147 
L 1259 519 
L 2022 519 
Q 2988 519 3436 956 
Q 3884 1394 3884 2338 
Q 3884 3275 3436 3711 
Q 2988 4147 2022 4147 
L 1259 4147 
z
M 628 4666 
L 1925 4666 
Q 3281 4666 3915 4102 
Q 4550 3538 4550 2338 
Q 4550 1131 3912 565 
Q 3275 0 1925 0 
L 628 0 
L 628 4666 
z
" transform="scale(0.015625)"/>
      <path id="DejaVuSans-63" d="M 3122 3366 
L 3122 2828 
Q 2878 2963 2633 3030 
Q 2388 3097 2138 3097 
Q 1578 3097 1268 2742 
Q 959 2388 959 1747 
Q 959 1106 1268 751 
Q 1578 397 2138 397 
Q 2388 397 2633 464 
Q 2878 531 3122 666 
L 3122 134 
Q 2881 22 2623 -34 
Q 2366 -91 2075 -91 
Q 1284 -91 818 406 
Q 353 903 353 1747 
Q 353 2603 823 3093 
Q 1294 3584 2113 3584 
Q 2378 3584 2631 3529 
Q 2884 3475 3122 3366 
z
" transform="scale(0.015625)"/>
      <path id="DejaVuSans-6e" d="M 3513 2113 
L 3513 0 
L 2938 0 
L 2938 2094 
Q 2938 2591 2744 2837 
Q 2550 3084 2163 3084 
Q 1697 3084 1428 2787 
Q 1159 2491 1159 1978 
L 1159 0 
L 581 0 
L 581 3500 
L 1159 3500 
L 1159 2956 
Q 1366 3272 1645 3428 
Q 1925 3584 2291 3584 
Q 2894 3584 3203 3211 
Q 3513 2838 3513 2113 
z
" transform="scale(0.015625)"/>
      <path id="DejaVuSans-66" d="M 2375 4863 
L 2375 4384 
L 1825 4384 
Q 1516 4384 1395 4259 
Q 1275 4134 1275 3809 
L 1275 3500 
L 2222 3500 
L 2222 3053 
L 1275 3053 
L 1275 0 
L 697 0 
L 697 3053 
L 147 3053 
L 147 3500 
L 697 3500 
L 697 3744 
Q 697 4328 969 4595 
Q 1241 4863 1831 4863 
L 2375 4863 
z
" transform="scale(0.015625)"/>
     </defs>
     <use xlink:href="#DejaVuSans-52"/>
     <use xlink:href="#DejaVuSans-4f" x="69.482422"/>
     <use xlink:href="#DejaVuSans-43" x="148.193359"/>
     <use xlink:href="#DejaVuSans-20" x="218.017578"/>
     <use xlink:href="#DejaVuSans-43" x="249.804688"/>
     <use xlink:href="#DejaVuSans-75" x="319.628906"/>
     <use xlink:href="#DejaVuSans-72" x="383.007812"/>
     <use xlink:href="#DejaVuSans-76" x="424.121094"/>
     <use xlink:href="#DejaVuSans-65" x="483.300781"/>
     <use xlink:href="#DejaVuSans-3a" x="544.824219"/>
     <use xlink:href="#DejaVuSans-20" x="578.515625"/>
     <use xlink:href="#DejaVuSans-44" x="610.302734"/>
     <use xlink:href="#DejaVuSans-65" x="687.304688"/>
     <use xlink:href="#DejaVuSans-63" x="748.828125"/>
     <use xlink:href="#DejaVuSans-69" x="803.808594"/>
     <use xlink:href="#DejaVuSans-73" x="831.591797"/>
     <use xlink:href="#DejaVuSans-69" x="883.691406"/>
     <use xlink:href="#DejaVuSans-6f" x="911.474609"/>
     <use xlink:href="#DejaVuSans-6e" x="972.65625"/>
     <use xlink:href="#DejaVuSans-20" x="1036.035156"/>
     <use xlink:href="#DejaVuSans-54" x="1067.822266"/>
     <use xlink:href="#DejaVuSans-72" x="1114.15625"/>
     <use xlink:href="#DejaVuSans-65" x="1153.019531"/>
     <use xlink:href="#DejaVuSans-65" x="1214.542969"/>
     <use xlink:href="#DejaVuSans-20" x="1276.066406"/>
     <use xlink:href="#DejaVuSans-43" x="1307.853516"/>
     <use xlink:href="#DejaVuSans-6c" x="1377.677734"/>
     <use xlink:href="#DejaVuSans-61" x="1405.460938"/>
     <use xlink:href="#DejaVuSans-73" x="1466.740234"/>
     <use xlink:href="#DejaVuSans-73" x="1518.839844"/>
     <use xlink:href="#DejaVuSans-69" x="1570.939453"/>
     <use xlink:href="#DejaVuSans-66" x="1598.722656"/>
     <use xlink:href="#DejaVuSans-69" x="1633.927734"/>
     <use xlink:href="#DejaVuSans-65" x="1661.710938"/>
     <use xlink:href="#DejaVuSans-72" x="1723.234375"/>
    </g>
   </g>
   <g id="legend_1">
    <g id="patch_7">
     <path d="M 201.384063 500.922875 
L 559.649688 500.922875 
Q 561.649688 500.922875 561.649688 498.922875 
L 561.649688 411.854125 
Q 561.649688 409.854125 559.649688 409.854125 
L 201.384063 409.854125 
Q 199.384063 409.854125 199.384063 411.854125 
L 199.384063 498.922875 
Q 199.384063 500.922875 201.384063 500.922875 
z
" style="fill: #ffffff; opacity: 0.8; stroke: #cccccc; stroke-linejoin: miter"/>
    </g>
    <g id="line2d_31">
     <path d="M 203.384063 417.952562 
L 213.384063 417.952562 
L 223.384063 417.952562 
" style="fill: none; stroke: #1f77b4; stroke-width: 1.5; stroke-linecap: square"/>
    </g>
    <g id="text_16">
     <!-- AUC for White = 0.86, Count: 8,355, Pos: 2,136, Neg: 6,219 -->
     <g transform="translate(231.384063 421.452562) scale(0.1 -0.1)">
      <defs>
       <path id="DejaVuSans-41" d="M 2188 4044 
L 1331 1722 
L 3047 1722 
L 2188 4044 
z
M 1831 4666 
L 2547 4666 
L 4325 0 
L 3669 0 
L 3244 1197 
L 1141 1197 
L 716 0 
L 50 0 
L 1831 4666 
z
" transform="scale(0.015625)"/>
       <path id="DejaVuSans-55" d="M 556 4666 
L 1191 4666 
L 1191 1831 
Q 1191 1081 1462 751 
Q 1734 422 2344 422 
Q 2950 422 3222 751 
Q 3494 1081 3494 1831 
L 3494 4666 
L 4128 4666 
L 4128 1753 
Q 4128 841 3676 375 
Q 3225 -91 2344 -91 
Q 1459 -91 1007 375 
Q 556 841 556 1753 
L 556 4666 
z
" transform="scale(0.015625)"/>
       <path id="DejaVuSans-57" d="M 213 4666 
L 850 4666 
L 1831 722 
L 2809 4666 
L 3519 4666 
L 4500 722 
L 5478 4666 
L 6119 4666 
L 4947 0 
L 4153 0 
L 3169 4050 
L 2175 0 
L 1381 0 
L 213 4666 
z
" transform="scale(0.015625)"/>
       <path id="DejaVuSans-68" d="M 3513 2113 
L 3513 0 
L 2938 0 
L 2938 2094 
Q 2938 2591 2744 2837 
Q 2550 3084 2163 3084 
Q 1697 3084 1428 2787 
Q 1159 2491 1159 1978 
L 1159 0 
L 581 0 
L 581 4863 
L 1159 4863 
L 1159 2956 
Q 1366 3272 1645 3428 
Q 1925 3584 2291 3584 
Q 2894 3584 3203 3211 
Q 3513 2838 3513 2113 
z
" transform="scale(0.015625)"/>
       <path id="DejaVuSans-3d" d="M 678 2906 
L 4684 2906 
L 4684 2381 
L 678 2381 
L 678 2906 
z
M 678 1631 
L 4684 1631 
L 4684 1100 
L 678 1100 
L 678 1631 
z
" transform="scale(0.015625)"/>
       <path id="DejaVuSans-2c" d="M 750 794 
L 1409 794 
L 1409 256 
L 897 -744 
L 494 -744 
L 750 256 
L 750 794 
z
" transform="scale(0.015625)"/>
       <path id="DejaVuSans-33" d="M 2597 2516 
Q 3050 2419 3304 2112 
Q 3559 1806 3559 1356 
Q 3559 666 3084 287 
Q 2609 -91 1734 -91 
Q 1441 -91 1130 -33 
Q 819 25 488 141 
L 488 750 
Q 750 597 1062 519 
Q 1375 441 1716 441 
Q 2309 441 2620 675 
Q 2931 909 2931 1356 
Q 2931 1769 2642 2001 
Q 2353 2234 1838 2234 
L 1294 2234 
L 1294 2753 
L 1863 2753 
Q 2328 2753 2575 2939 
Q 2822 3125 2822 3475 
Q 2822 3834 2567 4026 
Q 2313 4219 1838 4219 
Q 1578 4219 1281 4162 
Q 984 4106 628 3988 
L 628 4550 
Q 988 4650 1302 4700 
Q 1616 4750 1894 4750 
Q 2613 4750 3031 4423 
Q 3450 4097 3450 3541 
Q 3450 3153 3228 2886 
Q 3006 2619 2597 2516 
z
" transform="scale(0.015625)"/>
       <path id="DejaVuSans-35" d="M 691 4666 
L 3169 4666 
L 3169 4134 
L 1269 4134 
L 1269 2991 
Q 1406 3038 1543 3061 
Q 1681 3084 1819 3084 
Q 2600 3084 3056 2656 
Q 3513 2228 3513 1497 
Q 3513 744 3044 326 
Q 2575 -91 1722 -91 
Q 1428 -91 1123 -41 
Q 819 9 494 109 
L 494 744 
Q 775 591 1075 516 
Q 1375 441 1709 441 
Q 2250 441 2565 725 
Q 2881 1009 2881 1497 
Q 2881 1984 2565 2268 
Q 2250 2553 1709 2553 
Q 1456 2553 1204 2497 
Q 953 2441 691 2322 
L 691 4666 
z
" transform="scale(0.015625)"/>
       <path id="DejaVuSans-4e" d="M 628 4666 
L 1478 4666 
L 3547 763 
L 3547 4666 
L 4159 4666 
L 4159 0 
L 3309 0 
L 1241 3903 
L 1241 0 
L 628 0 
L 628 4666 
z
" transform="scale(0.015625)"/>
       <path id="DejaVuSans-67" d="M 2906 1791 
Q 2906 2416 2648 2759 
Q 2391 3103 1925 3103 
Q 1463 3103 1205 2759 
Q 947 2416 947 1791 
Q 947 1169 1205 825 
Q 1463 481 1925 481 
Q 2391 481 2648 825 
Q 2906 1169 2906 1791 
z
M 3481 434 
Q 3481 -459 3084 -895 
Q 2688 -1331 1869 -1331 
Q 1566 -1331 1297 -1286 
Q 1028 -1241 775 -1147 
L 775 -588 
Q 1028 -725 1275 -790 
Q 1522 -856 1778 -856 
Q 2344 -856 2625 -561 
Q 2906 -266 2906 331 
L 2906 616 
Q 2728 306 2450 153 
Q 2172 0 1784 0 
Q 1141 0 747 490 
Q 353 981 353 1791 
Q 353 2603 747 3093 
Q 1141 3584 1784 3584 
Q 2172 3584 2450 3431 
Q 2728 3278 2906 2969 
L 2906 3500 
L 3481 3500 
L 3481 434 
z
" transform="scale(0.015625)"/>
       <path id="DejaVuSans-39" d="M 703 97 
L 703 672 
Q 941 559 1184 500 
Q 1428 441 1663 441 
Q 2288 441 2617 861 
Q 2947 1281 2994 2138 
Q 2813 1869 2534 1725 
Q 2256 1581 1919 1581 
Q 1219 1581 811 2004 
Q 403 2428 403 3163 
Q 403 3881 828 4315 
Q 1253 4750 1959 4750 
Q 2769 4750 3195 4129 
Q 3622 3509 3622 2328 
Q 3622 1225 3098 567 
Q 2575 -91 1691 -91 
Q 1453 -91 1209 -44 
Q 966 3 703 97 
z
M 1959 2075 
Q 2384 2075 2632 2365 
Q 2881 2656 2881 3163 
Q 2881 3666 2632 3958 
Q 2384 4250 1959 4250 
Q 1534 4250 1286 3958 
Q 1038 3666 1038 3163 
Q 1038 2656 1286 2365 
Q 1534 2075 1959 2075 
z
" transform="scale(0.015625)"/>
      </defs>
      <use xlink:href="#DejaVuSans-41"/>
      <use xlink:href="#DejaVuSans-55" x="68.408203"/>
      <use xlink:href="#DejaVuSans-43" x="141.601562"/>
      <use xlink:href="#DejaVuSans-20" x="211.425781"/>
      <use xlink:href="#DejaVuSans-66" x="243.212891"/>
      <use xlink:href="#DejaVuSans-6f" x="278.417969"/>
      <use xlink:href="#DejaVuSans-72" x="339.599609"/>
      <use xlink:href="#DejaVuSans-20" x="380.712891"/>
      <use xlink:href="#DejaVuSans-57" x="412.5"/>
      <use xlink:href="#DejaVuSans-68" x="511.376953"/>
      <use xlink:href="#DejaVuSans-69" x="574.755859"/>
      <use xlink:href="#DejaVuSans-74" x="602.539062"/>
      <use xlink:href="#DejaVuSans-65" x="641.748047"/>
      <use xlink:href="#DejaVuSans-20" x="703.271484"/>
      <use xlink:href="#DejaVuSans-3d" x="735.058594"/>
      <use xlink:href="#DejaVuSans-20" x="818.847656"/>
      <use xlink:href="#DejaVuSans-30" x="850.634766"/>
      <use xlink:href="#DejaVuSans-2e" x="914.257812"/>
      <use xlink:href="#DejaVuSans-38" x="946.044922"/>
      <use xlink:href="#DejaVuSans-36" x="1009.667969"/>
      <use xlink:href="#DejaVuSans-2c" x="1073.291016"/>
      <use xlink:href="#DejaVuSans-20" x="1105.078125"/>
      <use xlink:href="#DejaVuSans-43" x="1136.865234"/>
      <use xlink:href="#DejaVuSans-6f" x="1206.689453"/>
      <use xlink:href="#DejaVuSans-75" x="1267.871094"/>
      <use xlink:href="#DejaVuSans-6e" x="1331.25"/>
      <use xlink:href="#DejaVuSans-74" x="1394.628906"/>
      <use xlink:href="#DejaVuSans-3a" x="1433.837891"/>
      <use xlink:href="#DejaVuSans-20" x="1467.529297"/>
      <use xlink:href="#DejaVuSans-38" x="1499.316406"/>
      <use xlink:href="#DejaVuSans-2c" x="1562.939453"/>
      <use xlink:href="#DejaVuSans-33" x="1594.726562"/>
      <use xlink:href="#DejaVuSans-35" x="1658.349609"/>
      <use xlink:href="#DejaVuSans-35" x="1721.972656"/>
      <use xlink:href="#DejaVuSans-2c" x="1785.595703"/>
      <use xlink:href="#DejaVuSans-20" x="1817.382812"/>
      <use xlink:href="#DejaVuSans-50" x="1849.169922"/>
      <use xlink:href="#DejaVuSans-6f" x="1905.847656"/>
      <use xlink:href="#DejaVuSans-73" x="1967.029297"/>
      <use xlink:href="#DejaVuSans-3a" x="2019.128906"/>
      <use xlink:href="#DejaVuSans-20" x="2052.820312"/>
      <use xlink:href="#DejaVuSans-32" x="2084.607422"/>
      <use xlink:href="#DejaVuSans-2c" x="2148.230469"/>
      <use xlink:href="#DejaVuSans-31" x="2180.017578"/>
      <use xlink:href="#DejaVuSans-33" x="2243.640625"/>
      <use xlink:href="#DejaVuSans-36" x="2307.263672"/>
      <use xlink:href="#DejaVuSans-2c" x="2370.886719"/>
      <use xlink:href="#DejaVuSans-20" x="2402.673828"/>
      <use xlink:href="#DejaVuSans-4e" x="2434.460938"/>
      <use xlink:href="#DejaVuSans-65" x="2509.265625"/>
      <use xlink:href="#DejaVuSans-67" x="2570.789062"/>
      <use xlink:href="#DejaVuSans-3a" x="2634.265625"/>
      <use xlink:href="#DejaVuSans-20" x="2667.957031"/>
      <use xlink:href="#DejaVuSans-36" x="2699.744141"/>
      <use xlink:href="#DejaVuSans-2c" x="2763.367188"/>
      <use xlink:href="#DejaVuSans-32" x="2795.154297"/>
      <use xlink:href="#DejaVuSans-31" x="2858.777344"/>
      <use xlink:href="#DejaVuSans-39" x="2922.400391"/>
     </g>
    </g>
    <g id="line2d_32">
     <path d="M 203.384063 432.630688 
L 213.384063 432.630688 
L 223.384063 432.630688 
" style="fill: none; stroke: #ff7f0e; stroke-width: 1.5; stroke-linecap: square"/>
    </g>
    <g id="text_17">
     <!-- AUC for Black = 0.87, Count: 936, Pos: 109, Neg: 827 -->
     <g transform="translate(231.384063 436.130688) scale(0.1 -0.1)">
      <defs>
       <path id="DejaVuSans-42" d="M 1259 2228 
L 1259 519 
L 2272 519 
Q 2781 519 3026 730 
Q 3272 941 3272 1375 
Q 3272 1813 3026 2020 
Q 2781 2228 2272 2228 
L 1259 2228 
z
M 1259 4147 
L 1259 2741 
L 2194 2741 
Q 2656 2741 2882 2914 
Q 3109 3088 3109 3444 
Q 3109 3797 2882 3972 
Q 2656 4147 2194 4147 
L 1259 4147 
z
M 628 4666 
L 2241 4666 
Q 2963 4666 3353 4366 
Q 3744 4066 3744 3513 
Q 3744 3084 3544 2831 
Q 3344 2578 2956 2516 
Q 3422 2416 3680 2098 
Q 3938 1781 3938 1306 
Q 3938 681 3513 340 
Q 3088 0 2303 0 
L 628 0 
L 628 4666 
z
" transform="scale(0.015625)"/>
       <path id="DejaVuSans-6b" d="M 581 4863 
L 1159 4863 
L 1159 1991 
L 2875 3500 
L 3609 3500 
L 1753 1863 
L 3688 0 
L 2938 0 
L 1159 1709 
L 1159 0 
L 581 0 
L 581 4863 
z
" transform="scale(0.015625)"/>
       <path id="DejaVuSans-37" d="M 525 4666 
L 3525 4666 
L 3525 4397 
L 1831 0 
L 1172 0 
L 2766 4134 
L 525 4134 
L 525 4666 
z
" transform="scale(0.015625)"/>
      </defs>
      <use xlink:href="#DejaVuSans-41"/>
      <use xlink:href="#DejaVuSans-55" x="68.408203"/>
      <use xlink:href="#DejaVuSans-43" x="141.601562"/>
      <use xlink:href="#DejaVuSans-20" x="211.425781"/>
      <use xlink:href="#DejaVuSans-66" x="243.212891"/>
      <use xlink:href="#DejaVuSans-6f" x="278.417969"/>
      <use xlink:href="#DejaVuSans-72" x="339.599609"/>
      <use xlink:href="#DejaVuSans-20" x="380.712891"/>
      <use xlink:href="#DejaVuSans-42" x="412.5"/>
      <use xlink:href="#DejaVuSans-6c" x="481.103516"/>
      <use xlink:href="#DejaVuSans-61" x="508.886719"/>
      <use xlink:href="#DejaVuSans-63" x="570.166016"/>
      <use xlink:href="#DejaVuSans-6b" x="625.146484"/>
      <use xlink:href="#DejaVuSans-20" x="683.056641"/>
      <use xlink:href="#DejaVuSans-3d" x="714.84375"/>
      <use xlink:href="#DejaVuSans-20" x="798.632812"/>
      <use xlink:href="#DejaVuSans-30" x="830.419922"/>
      <use xlink:href="#DejaVuSans-2e" x="894.042969"/>
      <use xlink:href="#DejaVuSans-38" x="925.830078"/>
      <use xlink:href="#DejaVuSans-37" x="989.453125"/>
      <use xlink:href="#DejaVuSans-2c" x="1053.076172"/>
      <use xlink:href="#DejaVuSans-20" x="1084.863281"/>
      <use xlink:href="#DejaVuSans-43" x="1116.650391"/>
      <use xlink:href="#DejaVuSans-6f" x="1186.474609"/>
      <use xlink:href="#DejaVuSans-75" x="1247.65625"/>
      <use xlink:href="#DejaVuSans-6e" x="1311.035156"/>
      <use xlink:href="#DejaVuSans-74" x="1374.414062"/>
      <use xlink:href="#DejaVuSans-3a" x="1413.623047"/>
      <use xlink:href="#DejaVuSans-20" x="1447.314453"/>
      <use xlink:href="#DejaVuSans-39" x="1479.101562"/>
      <use xlink:href="#DejaVuSans-33" x="1542.724609"/>
      <use xlink:href="#DejaVuSans-36" x="1606.347656"/>
      <use xlink:href="#DejaVuSans-2c" x="1669.970703"/>
      <use xlink:href="#DejaVuSans-20" x="1701.757812"/>
      <use xlink:href="#DejaVuSans-50" x="1733.544922"/>
      <use xlink:href="#DejaVuSans-6f" x="1790.222656"/>
      <use xlink:href="#DejaVuSans-73" x="1851.404297"/>
      <use xlink:href="#DejaVuSans-3a" x="1903.503906"/>
      <use xlink:href="#DejaVuSans-20" x="1937.195312"/>
      <use xlink:href="#DejaVuSans-31" x="1968.982422"/>
      <use xlink:href="#DejaVuSans-30" x="2032.605469"/>
      <use xlink:href="#DejaVuSans-39" x="2096.228516"/>
      <use xlink:href="#DejaVuSans-2c" x="2159.851562"/>
      <use xlink:href="#DejaVuSans-20" x="2191.638672"/>
      <use xlink:href="#DejaVuSans-4e" x="2223.425781"/>
      <use xlink:href="#DejaVuSans-65" x="2298.230469"/>
      <use xlink:href="#DejaVuSans-67" x="2359.753906"/>
      <use xlink:href="#DejaVuSans-3a" x="2423.230469"/>
      <use xlink:href="#DejaVuSans-20" x="2456.921875"/>
      <use xlink:href="#DejaVuSans-38" x="2488.708984"/>
      <use xlink:href="#DejaVuSans-32" x="2552.332031"/>
      <use xlink:href="#DejaVuSans-37" x="2615.955078"/>
     </g>
    </g>
    <g id="line2d_33">
     <path d="M 203.384063 447.308813 
L 213.384063 447.308813 
L 223.384063 447.308813 
" style="fill: none; stroke: #2ca02c; stroke-width: 1.5; stroke-linecap: square"/>
    </g>
    <g id="text_18">
     <!-- AUC for Asian-Pac-Islander = 0.84, Count: 299, Pos: 75, Neg: 224 -->
     <g transform="translate(231.384063 450.808813) scale(0.1 -0.1)">
      <defs>
       <path id="DejaVuSans-2d" d="M 313 2009 
L 1997 2009 
L 1997 1497 
L 313 1497 
L 313 2009 
z
" transform="scale(0.015625)"/>
       <path id="DejaVuSans-49" d="M 628 4666 
L 1259 4666 
L 1259 0 
L 628 0 
L 628 4666 
z
" transform="scale(0.015625)"/>
       <path id="DejaVuSans-64" d="M 2906 2969 
L 2906 4863 
L 3481 4863 
L 3481 0 
L 2906 0 
L 2906 525 
Q 2725 213 2448 61 
Q 2172 -91 1784 -91 
Q 1150 -91 751 415 
Q 353 922 353 1747 
Q 353 2572 751 3078 
Q 1150 3584 1784 3584 
Q 2172 3584 2448 3432 
Q 2725 3281 2906 2969 
z
M 947 1747 
Q 947 1113 1208 752 
Q 1469 391 1925 391 
Q 2381 391 2643 752 
Q 2906 1113 2906 1747 
Q 2906 2381 2643 2742 
Q 2381 3103 1925 3103 
Q 1469 3103 1208 2742 
Q 947 2381 947 1747 
z
" transform="scale(0.015625)"/>
      </defs>
      <use xlink:href="#DejaVuSans-41"/>
      <use xlink:href="#DejaVuSans-55" x="68.408203"/>
      <use xlink:href="#DejaVuSans-43" x="141.601562"/>
      <use xlink:href="#DejaVuSans-20" x="211.425781"/>
      <use xlink:href="#DejaVuSans-66" x="243.212891"/>
      <use xlink:href="#DejaVuSans-6f" x="278.417969"/>
      <use xlink:href="#DejaVuSans-72" x="339.599609"/>
      <use xlink:href="#DejaVuSans-20" x="380.712891"/>
      <use xlink:href="#DejaVuSans-41" x="412.5"/>
      <use xlink:href="#DejaVuSans-73" x="480.908203"/>
      <use xlink:href="#DejaVuSans-69" x="533.007812"/>
      <use xlink:href="#DejaVuSans-61" x="560.791016"/>
      <use xlink:href="#DejaVuSans-6e" x="622.070312"/>
      <use xlink:href="#DejaVuSans-2d" x="685.449219"/>
      <use xlink:href="#DejaVuSans-50" x="721.533203"/>
      <use xlink:href="#DejaVuSans-61" x="777.335938"/>
      <use xlink:href="#DejaVuSans-63" x="838.615234"/>
      <use xlink:href="#DejaVuSans-2d" x="893.595703"/>
      <use xlink:href="#DejaVuSans-49" x="929.679688"/>
      <use xlink:href="#DejaVuSans-73" x="959.171875"/>
      <use xlink:href="#DejaVuSans-6c" x="1011.271484"/>
      <use xlink:href="#DejaVuSans-61" x="1039.054688"/>
      <use xlink:href="#DejaVuSans-6e" x="1100.333984"/>
      <use xlink:href="#DejaVuSans-64" x="1163.712891"/>
      <use xlink:href="#DejaVuSans-65" x="1227.189453"/>
      <use xlink:href="#DejaVuSans-72" x="1288.712891"/>
      <use xlink:href="#DejaVuSans-20" x="1329.826172"/>
      <use xlink:href="#DejaVuSans-3d" x="1361.613281"/>
      <use xlink:href="#DejaVuSans-20" x="1445.402344"/>
      <use xlink:href="#DejaVuSans-30" x="1477.189453"/>
      <use xlink:href="#DejaVuSans-2e" x="1540.8125"/>
      <use xlink:href="#DejaVuSans-38" x="1572.599609"/>
      <use xlink:href="#DejaVuSans-34" x="1636.222656"/>
      <use xlink:href="#DejaVuSans-2c" x="1699.845703"/>
      <use xlink:href="#DejaVuSans-20" x="1731.632812"/>
      <use xlink:href="#DejaVuSans-43" x="1763.419922"/>
      <use xlink:href="#DejaVuSans-6f" x="1833.244141"/>
      <use xlink:href="#DejaVuSans-75" x="1894.425781"/>
      <use xlink:href="#DejaVuSans-6e" x="1957.804688"/>
      <use xlink:href="#DejaVuSans-74" x="2021.183594"/>
      <use xlink:href="#DejaVuSans-3a" x="2060.392578"/>
      <use xlink:href="#DejaVuSans-20" x="2094.083984"/>
      <use xlink:href="#DejaVuSans-32" x="2125.871094"/>
      <use xlink:href="#DejaVuSans-39" x="2189.494141"/>
      <use xlink:href="#DejaVuSans-39" x="2253.117188"/>
      <use xlink:href="#DejaVuSans-2c" x="2316.740234"/>
      <use xlink:href="#DejaVuSans-20" x="2348.527344"/>
      <use xlink:href="#DejaVuSans-50" x="2380.314453"/>
      <use xlink:href="#DejaVuSans-6f" x="2436.992188"/>
      <use xlink:href="#DejaVuSans-73" x="2498.173828"/>
      <use xlink:href="#DejaVuSans-3a" x="2550.273438"/>
      <use xlink:href="#DejaVuSans-20" x="2583.964844"/>
      <use xlink:href="#DejaVuSans-37" x="2615.751953"/>
      <use xlink:href="#DejaVuSans-35" x="2679.375"/>
      <use xlink:href="#DejaVuSans-2c" x="2742.998047"/>
      <use xlink:href="#DejaVuSans-20" x="2774.785156"/>
      <use xlink:href="#DejaVuSans-4e" x="2806.572266"/>
      <use xlink:href="#DejaVuSans-65" x="2881.376953"/>
      <use xlink:href="#DejaVuSans-67" x="2942.900391"/>
      <use xlink:href="#DejaVuSans-3a" x="3006.376953"/>
      <use xlink:href="#DejaVuSans-20" x="3040.068359"/>
      <use xlink:href="#DejaVuSans-32" x="3071.855469"/>
      <use xlink:href="#DejaVuSans-32" x="3135.478516"/>
      <use xlink:href="#DejaVuSans-34" x="3199.101562"/>
     </g>
    </g>
    <g id="line2d_34">
     <path d="M 203.384063 461.986938 
L 213.384063 461.986938 
L 223.384063 461.986938 
" style="fill: none; stroke: #d62728; stroke-width: 1.5; stroke-linecap: square"/>
    </g>
    <g id="text_19">
     <!-- AUC for Amer-Indian-Eskimo = 0.62, Count: 91, Pos: 8, Neg: 83 -->
     <g transform="translate(231.384063 465.486938) scale(0.1 -0.1)">
      <defs>
       <path id="DejaVuSans-6d" d="M 3328 2828 
Q 3544 3216 3844 3400 
Q 4144 3584 4550 3584 
Q 5097 3584 5394 3201 
Q 5691 2819 5691 2113 
L 5691 0 
L 5113 0 
L 5113 2094 
Q 5113 2597 4934 2840 
Q 4756 3084 4391 3084 
Q 3944 3084 3684 2787 
Q 3425 2491 3425 1978 
L 3425 0 
L 2847 0 
L 2847 2094 
Q 2847 2600 2669 2842 
Q 2491 3084 2119 3084 
Q 1678 3084 1418 2786 
Q 1159 2488 1159 1978 
L 1159 0 
L 581 0 
L 581 3500 
L 1159 3500 
L 1159 2956 
Q 1356 3278 1631 3431 
Q 1906 3584 2284 3584 
Q 2666 3584 2933 3390 
Q 3200 3197 3328 2828 
z
" transform="scale(0.015625)"/>
       <path id="DejaVuSans-45" d="M 628 4666 
L 3578 4666 
L 3578 4134 
L 1259 4134 
L 1259 2753 
L 3481 2753 
L 3481 2222 
L 1259 2222 
L 1259 531 
L 3634 531 
L 3634 0 
L 628 0 
L 628 4666 
z
" transform="scale(0.015625)"/>
      </defs>
      <use xlink:href="#DejaVuSans-41"/>
      <use xlink:href="#DejaVuSans-55" x="68.408203"/>
      <use xlink:href="#DejaVuSans-43" x="141.601562"/>
      <use xlink:href="#DejaVuSans-20" x="211.425781"/>
      <use xlink:href="#DejaVuSans-66" x="243.212891"/>
      <use xlink:href="#DejaVuSans-6f" x="278.417969"/>
      <use xlink:href="#DejaVuSans-72" x="339.599609"/>
      <use xlink:href="#DejaVuSans-20" x="380.712891"/>
      <use xlink:href="#DejaVuSans-41" x="412.5"/>
      <use xlink:href="#DejaVuSans-6d" x="480.908203"/>
      <use xlink:href="#DejaVuSans-65" x="578.320312"/>
      <use xlink:href="#DejaVuSans-72" x="639.84375"/>
      <use xlink:href="#DejaVuSans-2d" x="674.582031"/>
      <use xlink:href="#DejaVuSans-49" x="710.666016"/>
      <use xlink:href="#DejaVuSans-6e" x="740.158203"/>
      <use xlink:href="#DejaVuSans-64" x="803.537109"/>
      <use xlink:href="#DejaVuSans-69" x="867.013672"/>
      <use xlink:href="#DejaVuSans-61" x="894.796875"/>
      <use xlink:href="#DejaVuSans-6e" x="956.076172"/>
      <use xlink:href="#DejaVuSans-2d" x="1019.455078"/>
      <use xlink:href="#DejaVuSans-45" x="1055.539062"/>
      <use xlink:href="#DejaVuSans-73" x="1118.722656"/>
      <use xlink:href="#DejaVuSans-6b" x="1170.822266"/>
      <use xlink:href="#DejaVuSans-69" x="1228.732422"/>
      <use xlink:href="#DejaVuSans-6d" x="1256.515625"/>
      <use xlink:href="#DejaVuSans-6f" x="1353.927734"/>
      <use xlink:href="#DejaVuSans-20" x="1415.109375"/>
      <use xlink:href="#DejaVuSans-3d" x="1446.896484"/>
      <use xlink:href="#DejaVuSans-20" x="1530.685547"/>
      <use xlink:href="#DejaVuSans-30" x="1562.472656"/>
      <use xlink:href="#DejaVuSans-2e" x="1626.095703"/>
      <use xlink:href="#DejaVuSans-36" x="1657.882812"/>
      <use xlink:href="#DejaVuSans-32" x="1721.505859"/>
      <use xlink:href="#DejaVuSans-2c" x="1785.128906"/>
      <use xlink:href="#DejaVuSans-20" x="1816.916016"/>
      <use xlink:href="#DejaVuSans-43" x="1848.703125"/>
      <use xlink:href="#DejaVuSans-6f" x="1918.527344"/>
      <use xlink:href="#DejaVuSans-75" x="1979.708984"/>
      <use xlink:href="#DejaVuSans-6e" x="2043.087891"/>
      <use xlink:href="#DejaVuSans-74" x="2106.466797"/>
      <use xlink:href="#DejaVuSans-3a" x="2145.675781"/>
      <use xlink:href="#DejaVuSans-20" x="2179.367188"/>
      <use xlink:href="#DejaVuSans-39" x="2211.154297"/>
      <use xlink:href="#DejaVuSans-31" x="2274.777344"/>
      <use xlink:href="#DejaVuSans-2c" x="2338.400391"/>
      <use xlink:href="#DejaVuSans-20" x="2370.1875"/>
      <use xlink:href="#DejaVuSans-50" x="2401.974609"/>
      <use xlink:href="#DejaVuSans-6f" x="2458.652344"/>
      <use xlink:href="#DejaVuSans-73" x="2519.833984"/>
      <use xlink:href="#DejaVuSans-3a" x="2571.933594"/>
      <use xlink:href="#DejaVuSans-20" x="2605.625"/>
      <use xlink:href="#DejaVuSans-38" x="2637.412109"/>
      <use xlink:href="#DejaVuSans-2c" x="2701.035156"/>
      <use xlink:href="#DejaVuSans-20" x="2732.822266"/>
      <use xlink:href="#DejaVuSans-4e" x="2764.609375"/>
      <use xlink:href="#DejaVuSans-65" x="2839.414062"/>
      <use xlink:href="#DejaVuSans-67" x="2900.9375"/>
      <use xlink:href="#DejaVuSans-3a" x="2964.414062"/>
      <use xlink:href="#DejaVuSans-20" x="2998.105469"/>
      <use xlink:href="#DejaVuSans-38" x="3029.892578"/>
      <use xlink:href="#DejaVuSans-33" x="3093.515625"/>
     </g>
    </g>
    <g id="line2d_35">
     <path d="M 203.384063 476.665063 
L 213.384063 476.665063 
L 223.384063 476.665063 
" style="fill: none; stroke: #9467bd; stroke-width: 1.5; stroke-linecap: square"/>
    </g>
    <g id="text_20">
     <!-- AUC for Other = 0.94, Count: 88, Pos: 10, Neg: 78 -->
     <g transform="translate(231.384063 480.165063) scale(0.1 -0.1)">
      <use xlink:href="#DejaVuSans-41"/>
      <use xlink:href="#DejaVuSans-55" x="68.408203"/>
      <use xlink:href="#DejaVuSans-43" x="141.601562"/>
      <use xlink:href="#DejaVuSans-20" x="211.425781"/>
      <use xlink:href="#DejaVuSans-66" x="243.212891"/>
      <use xlink:href="#DejaVuSans-6f" x="278.417969"/>
      <use xlink:href="#DejaVuSans-72" x="339.599609"/>
      <use xlink:href="#DejaVuSans-20" x="380.712891"/>
      <use xlink:href="#DejaVuSans-4f" x="412.5"/>
      <use xlink:href="#DejaVuSans-74" x="491.210938"/>
      <use xlink:href="#DejaVuSans-68" x="530.419922"/>
      <use xlink:href="#DejaVuSans-65" x="593.798828"/>
      <use xlink:href="#DejaVuSans-72" x="655.322266"/>
      <use xlink:href="#DejaVuSans-20" x="696.435547"/>
      <use xlink:href="#DejaVuSans-3d" x="728.222656"/>
      <use xlink:href="#DejaVuSans-20" x="812.011719"/>
      <use xlink:href="#DejaVuSans-30" x="843.798828"/>
      <use xlink:href="#DejaVuSans-2e" x="907.421875"/>
      <use xlink:href="#DejaVuSans-39" x="939.208984"/>
      <use xlink:href="#DejaVuSans-34" x="1002.832031"/>
      <use xlink:href="#DejaVuSans-2c" x="1066.455078"/>
      <use xlink:href="#DejaVuSans-20" x="1098.242188"/>
      <use xlink:href="#DejaVuSans-43" x="1130.029297"/>
      <use xlink:href="#DejaVuSans-6f" x="1199.853516"/>
      <use xlink:href="#DejaVuSans-75" x="1261.035156"/>
      <use xlink:href="#DejaVuSans-6e" x="1324.414062"/>
      <use xlink:href="#DejaVuSans-74" x="1387.792969"/>
      <use xlink:href="#DejaVuSans-3a" x="1427.001953"/>
      <use xlink:href="#DejaVuSans-20" x="1460.693359"/>
      <use xlink:href="#DejaVuSans-38" x="1492.480469"/>
      <use xlink:href="#DejaVuSans-38" x="1556.103516"/>
      <use xlink:href="#DejaVuSans-2c" x="1619.726562"/>
      <use xlink:href="#DejaVuSans-20" x="1651.513672"/>
      <use xlink:href="#DejaVuSans-50" x="1683.300781"/>
      <use xlink:href="#DejaVuSans-6f" x="1739.978516"/>
      <use xlink:href="#DejaVuSans-73" x="1801.160156"/>
      <use xlink:href="#DejaVuSans-3a" x="1853.259766"/>
      <use xlink:href="#DejaVuSans-20" x="1886.951172"/>
      <use xlink:href="#DejaVuSans-31" x="1918.738281"/>
      <use xlink:href="#DejaVuSans-30" x="1982.361328"/>
      <use xlink:href="#DejaVuSans-2c" x="2045.984375"/>
      <use xlink:href="#DejaVuSans-20" x="2077.771484"/>
      <use xlink:href="#DejaVuSans-4e" x="2109.558594"/>
      <use xlink:href="#DejaVuSans-65" x="2184.363281"/>
      <use xlink:href="#DejaVuSans-67" x="2245.886719"/>
      <use xlink:href="#DejaVuSans-3a" x="2309.363281"/>
      <use xlink:href="#DejaVuSans-20" x="2343.054688"/>
      <use xlink:href="#DejaVuSans-37" x="2374.841797"/>
      <use xlink:href="#DejaVuSans-38" x="2438.464844"/>
     </g>
    </g>
    <g id="line2d_36">
     <path d="M 203.384063 491.343187 
L 213.384063 491.343187 
L 223.384063 491.343187 
" style="fill: none; stroke-dasharray: 7.4,3.2; stroke-dashoffset: 0; stroke: #808080; stroke-width: 2"/>
    </g>
    <g id="text_21">
     <!-- Random Guess -->
     <g transform="translate(231.384063 494.843187) scale(0.1 -0.1)">
      <defs>
       <path id="DejaVuSans-47" d="M 3809 666 
L 3809 1919 
L 2778 1919 
L 2778 2438 
L 4434 2438 
L 4434 434 
Q 4069 175 3628 42 
Q 3188 -91 2688 -91 
Q 1594 -91 976 548 
Q 359 1188 359 2328 
Q 359 3472 976 4111 
Q 1594 4750 2688 4750 
Q 3144 4750 3555 4637 
Q 3966 4525 4313 4306 
L 4313 3634 
Q 3963 3931 3569 4081 
Q 3175 4231 2741 4231 
Q 1884 4231 1454 3753 
Q 1025 3275 1025 2328 
Q 1025 1384 1454 906 
Q 1884 428 2741 428 
Q 3075 428 3337 486 
Q 3600 544 3809 666 
z
" transform="scale(0.015625)"/>
      </defs>
      <use xlink:href="#DejaVuSans-52"/>
      <use xlink:href="#DejaVuSans-61" x="67.232422"/>
      <use xlink:href="#DejaVuSans-6e" x="128.511719"/>
      <use xlink:href="#DejaVuSans-64" x="191.890625"/>
      <use xlink:href="#DejaVuSans-6f" x="255.367188"/>
      <use xlink:href="#DejaVuSans-6d" x="316.548828"/>
      <use xlink:href="#DejaVuSans-20" x="413.960938"/>
      <use xlink:href="#DejaVuSans-47" x="445.748047"/>
      <use xlink:href="#DejaVuSans-75" x="523.238281"/>
      <use xlink:href="#DejaVuSans-65" x="586.617188"/>
      <use xlink:href="#DejaVuSans-73" x="648.140625"/>
      <use xlink:href="#DejaVuSans-73" x="700.240234"/>
     </g>
    </g>
   </g>
  </g>
 </g>
 <defs>
  <clipPath id="p3676ba7977">
   <rect x="45.716875" y="22.318125" width="669.6" height="332.64"/>
  </clipPath>
 </defs>
</svg>
