<?xml version="1.0" encoding="utf-8" standalone="no"?>
<!DOCTYPE svg PUBLIC "-//W3C//DTD SVG 1.1//EN"
  "http://www.w3.org/Graphics/SVG/1.1/DTD/svg11.dtd">
<svg xmlns:xlink="http://www.w3.org/1999/xlink" width="722.516875pt" height="635.634875pt" viewBox="0 0 722.516875 635.634875" xmlns="http://www.w3.org/2000/svg" version="1.1">
 <metadata>
  <rdf:RDF xmlns:dc="http://purl.org/dc/elements/1.1/" xmlns:cc="http://creativecommons.org/ns#" xmlns:rdf="http://www.w3.org/1999/02/22-rdf-syntax-ns#">
   <cc:Work>
    <dc:type rdf:resource="http://purl.org/dc/dcmitype/StillImage"/>
    <dc:date>2025-03-14T08:53:11.898430</dc:date>
    <dc:format>image/svg+xml</dc:format>
    <dc:creator>
     <cc:Agent>
      <dc:title>Matplotlib v3.9.2, https://matplotlib.org/</dc:title>
     </cc:Agent>
    </dc:creator>
   </cc:Work>
  </rdf:RDF>
 </metadata>
 <defs>
  <style type="text/css">*{stroke-linejoin: round; stroke-linecap: butt}</style>
 </defs>
 <g id="figure_1">
  <g id="patch_1">
   <path d="M 0 635.634875 
L 722.516875 635.634875 
L 722.516875 0 
L 0 0 
z
" style="fill: #ffffff"/>
  </g>
  <g id="axes_1">
   <g id="patch_2">
    <path d="M 45.716875 465.838125 
L 715.316875 465.838125 
L 715.316875 22.318125 
L 45.716875 22.318125 
z
" style="fill: #ffffff"/>
   </g>
   <g id="matplotlib.axis_1">
    <g id="xtick_1">
     <g id="line2d_1">
      <path d="M 76.153239 465.838125 
L 76.153239 22.318125 
" clip-path="url(#pd131422d51)" style="fill: none; stroke: #b0b0b0; stroke-width: 0.8; stroke-linecap: square"/>
     </g>
     <g id="line2d_2">
      <defs>
       <path id="mcd99b2df22" d="M 0 0 
L 0 3.5 
" style="stroke: #000000; stroke-width: 0.8"/>
      </defs>
      <g>
       <use xlink:href="#mcd99b2df22" x="76.153239" y="465.838125" style="stroke: #000000; stroke-width: 0.8"/>
      </g>
     </g>
     <g id="text_1">
      <!-- 0.0 -->
      <g transform="translate(68.201676 480.436562) scale(0.1 -0.1)">
       <defs>
        <path id="DejaVuSans-30" d="M 2034 4250 
Q 1547 4250 1301 3770 
Q 1056 3291 1056 2328 
Q 1056 1369 1301 889 
Q 1547 409 2034 409 
Q 2525 409 2770 889 
Q 3016 1369 3016 2328 
Q 3016 3291 2770 3770 
Q 2525 4250 2034 4250 
z
M 2034 4750 
Q 2819 4750 3233 4129 
Q 3647 3509 3647 2328 
Q 3647 1150 3233 529 
Q 2819 -91 2034 -91 
Q 1250 -91 836 529 
Q 422 1150 422 2328 
Q 422 3509 836 4129 
Q 1250 4750 2034 4750 
z
" transform="scale(0.015625)"/>
        <path id="DejaVuSans-2e" d="M 684 794 
L 1344 794 
L 1344 0 
L 684 0 
L 684 794 
z
" transform="scale(0.015625)"/>
       </defs>
       <use xlink:href="#DejaVuSans-30"/>
       <use xlink:href="#DejaVuSans-2e" x="63.623047"/>
       <use xlink:href="#DejaVuSans-30" x="95.410156"/>
      </g>
     </g>
    </g>
    <g id="xtick_2">
     <g id="line2d_3">
      <path d="M 197.898693 465.838125 
L 197.898693 22.318125 
" clip-path="url(#pd131422d51)" style="fill: none; stroke: #b0b0b0; stroke-width: 0.8; stroke-linecap: square"/>
     </g>
     <g id="line2d_4">
      <g>
       <use xlink:href="#mcd99b2df22" x="197.898693" y="465.838125" style="stroke: #000000; stroke-width: 0.8"/>
      </g>
     </g>
     <g id="text_2">
      <!-- 0.2 -->
      <g transform="translate(189.947131 480.436562) scale(0.1 -0.1)">
       <defs>
        <path id="DejaVuSans-32" d="M 1228 531 
L 3431 531 
L 3431 0 
L 469 0 
L 469 531 
Q 828 903 1448 1529 
Q 2069 2156 2228 2338 
Q 2531 2678 2651 2914 
Q 2772 3150 2772 3378 
Q 2772 3750 2511 3984 
Q 2250 4219 1831 4219 
Q 1534 4219 1204 4116 
Q 875 4013 500 3803 
L 500 4441 
Q 881 4594 1212 4672 
Q 1544 4750 1819 4750 
Q 2544 4750 2975 4387 
Q 3406 4025 3406 3419 
Q 3406 3131 3298 2873 
Q 3191 2616 2906 2266 
Q 2828 2175 2409 1742 
Q 1991 1309 1228 531 
z
" transform="scale(0.015625)"/>
       </defs>
       <use xlink:href="#DejaVuSans-30"/>
       <use xlink:href="#DejaVuSans-2e" x="63.623047"/>
       <use xlink:href="#DejaVuSans-32" x="95.410156"/>
      </g>
     </g>
    </g>
    <g id="xtick_3">
     <g id="line2d_5">
      <path d="M 319.644148 465.838125 
L 319.644148 22.318125 
" clip-path="url(#pd131422d51)" style="fill: none; stroke: #b0b0b0; stroke-width: 0.8; stroke-linecap: square"/>
     </g>
     <g id="line2d_6">
      <g>
       <use xlink:href="#mcd99b2df22" x="319.644148" y="465.838125" style="stroke: #000000; stroke-width: 0.8"/>
      </g>
     </g>
     <g id="text_3">
      <!-- 0.4 -->
      <g transform="translate(311.692585 480.436562) scale(0.1 -0.1)">
       <defs>
        <path id="DejaVuSans-34" d="M 2419 4116 
L 825 1625 
L 2419 1625 
L 2419 4116 
z
M 2253 4666 
L 3047 4666 
L 3047 1625 
L 3713 1625 
L 3713 1100 
L 3047 1100 
L 3047 0 
L 2419 0 
L 2419 1100 
L 313 1100 
L 313 1709 
L 2253 4666 
z
" transform="scale(0.015625)"/>
       </defs>
       <use xlink:href="#DejaVuSans-30"/>
       <use xlink:href="#DejaVuSans-2e" x="63.623047"/>
       <use xlink:href="#DejaVuSans-34" x="95.410156"/>
      </g>
     </g>
    </g>
    <g id="xtick_4">
     <g id="line2d_7">
      <path d="M 441.389602 465.838125 
L 441.389602 22.318125 
" clip-path="url(#pd131422d51)" style="fill: none; stroke: #b0b0b0; stroke-width: 0.8; stroke-linecap: square"/>
     </g>
     <g id="line2d_8">
      <g>
       <use xlink:href="#mcd99b2df22" x="441.389602" y="465.838125" style="stroke: #000000; stroke-width: 0.8"/>
      </g>
     </g>
     <g id="text_4">
      <!-- 0.6 -->
      <g transform="translate(433.43804 480.436562) scale(0.1 -0.1)">
       <defs>
        <path id="DejaVuSans-36" d="M 2113 2584 
Q 1688 2584 1439 2293 
Q 1191 2003 1191 1497 
Q 1191 994 1439 701 
Q 1688 409 2113 409 
Q 2538 409 2786 701 
Q 3034 994 3034 1497 
Q 3034 2003 2786 2293 
Q 2538 2584 2113 2584 
z
M 3366 4563 
L 3366 3988 
Q 3128 4100 2886 4159 
Q 2644 4219 2406 4219 
Q 1781 4219 1451 3797 
Q 1122 3375 1075 2522 
Q 1259 2794 1537 2939 
Q 1816 3084 2150 3084 
Q 2853 3084 3261 2657 
Q 3669 2231 3669 1497 
Q 3669 778 3244 343 
Q 2819 -91 2113 -91 
Q 1303 -91 875 529 
Q 447 1150 447 2328 
Q 447 3434 972 4092 
Q 1497 4750 2381 4750 
Q 2619 4750 2861 4703 
Q 3103 4656 3366 4563 
z
" transform="scale(0.015625)"/>
       </defs>
       <use xlink:href="#DejaVuSans-30"/>
       <use xlink:href="#DejaVuSans-2e" x="63.623047"/>
       <use xlink:href="#DejaVuSans-36" x="95.410156"/>
      </g>
     </g>
    </g>
    <g id="xtick_5">
     <g id="line2d_9">
      <path d="M 563.135057 465.838125 
L 563.135057 22.318125 
" clip-path="url(#pd131422d51)" style="fill: none; stroke: #b0b0b0; stroke-width: 0.8; stroke-linecap: square"/>
     </g>
     <g id="line2d_10">
      <g>
       <use xlink:href="#mcd99b2df22" x="563.135057" y="465.838125" style="stroke: #000000; stroke-width: 0.8"/>
      </g>
     </g>
     <g id="text_5">
      <!-- 0.8 -->
      <g transform="translate(555.183494 480.436562) scale(0.1 -0.1)">
       <defs>
        <path id="DejaVuSans-38" d="M 2034 2216 
Q 1584 2216 1326 1975 
Q 1069 1734 1069 1313 
Q 1069 891 1326 650 
Q 1584 409 2034 409 
Q 2484 409 2743 651 
Q 3003 894 3003 1313 
Q 3003 1734 2745 1975 
Q 2488 2216 2034 2216 
z
M 1403 2484 
Q 997 2584 770 2862 
Q 544 3141 544 3541 
Q 544 4100 942 4425 
Q 1341 4750 2034 4750 
Q 2731 4750 3128 4425 
Q 3525 4100 3525 3541 
Q 3525 3141 3298 2862 
Q 3072 2584 2669 2484 
Q 3125 2378 3379 2068 
Q 3634 1759 3634 1313 
Q 3634 634 3220 271 
Q 2806 -91 2034 -91 
Q 1263 -91 848 271 
Q 434 634 434 1313 
Q 434 1759 690 2068 
Q 947 2378 1403 2484 
z
M 1172 3481 
Q 1172 3119 1398 2916 
Q 1625 2713 2034 2713 
Q 2441 2713 2670 2916 
Q 2900 3119 2900 3481 
Q 2900 3844 2670 4047 
Q 2441 4250 2034 4250 
Q 1625 4250 1398 4047 
Q 1172 3844 1172 3481 
z
" transform="scale(0.015625)"/>
       </defs>
       <use xlink:href="#DejaVuSans-30"/>
       <use xlink:href="#DejaVuSans-2e" x="63.623047"/>
       <use xlink:href="#DejaVuSans-38" x="95.410156"/>
      </g>
     </g>
    </g>
    <g id="xtick_6">
     <g id="line2d_11">
      <path d="M 684.880511 465.838125 
L 684.880511 22.318125 
" clip-path="url(#pd131422d51)" style="fill: none; stroke: #b0b0b0; stroke-width: 0.8; stroke-linecap: square"/>
     </g>
     <g id="line2d_12">
      <g>
       <use xlink:href="#mcd99b2df22" x="684.880511" y="465.838125" style="stroke: #000000; stroke-width: 0.8"/>
      </g>
     </g>
     <g id="text_6">
      <!-- 1.0 -->
      <g transform="translate(676.928949 480.436562) scale(0.1 -0.1)">
       <defs>
        <path id="DejaVuSans-31" d="M 794 531 
L 1825 531 
L 1825 4091 
L 703 3866 
L 703 4441 
L 1819 4666 
L 2450 4666 
L 2450 531 
L 3481 531 
L 3481 0 
L 794 0 
L 794 531 
z
" transform="scale(0.015625)"/>
       </defs>
       <use xlink:href="#DejaVuSans-31"/>
       <use xlink:href="#DejaVuSans-2e" x="63.623047"/>
       <use xlink:href="#DejaVuSans-30" x="95.410156"/>
      </g>
     </g>
    </g>
    <g id="text_7">
     <!-- False Positive Rate -->
     <g transform="translate(324.757188 495.634375) scale(0.12 -0.12)">
      <defs>
       <path id="DejaVuSans-46" d="M 628 4666 
L 3309 4666 
L 3309 4134 
L 1259 4134 
L 1259 2759 
L 3109 2759 
L 3109 2228 
L 1259 2228 
L 1259 0 
L 628 0 
L 628 4666 
z
" transform="scale(0.015625)"/>
       <path id="DejaVuSans-61" d="M 2194 1759 
Q 1497 1759 1228 1600 
Q 959 1441 959 1056 
Q 959 750 1161 570 
Q 1363 391 1709 391 
Q 2188 391 2477 730 
Q 2766 1069 2766 1631 
L 2766 1759 
L 2194 1759 
z
M 3341 1997 
L 3341 0 
L 2766 0 
L 2766 531 
Q 2569 213 2275 61 
Q 1981 -91 1556 -91 
Q 1019 -91 701 211 
Q 384 513 384 1019 
Q 384 1609 779 1909 
Q 1175 2209 1959 2209 
L 2766 2209 
L 2766 2266 
Q 2766 2663 2505 2880 
Q 2244 3097 1772 3097 
Q 1472 3097 1187 3025 
Q 903 2953 641 2809 
L 641 3341 
Q 956 3463 1253 3523 
Q 1550 3584 1831 3584 
Q 2591 3584 2966 3190 
Q 3341 2797 3341 1997 
z
" transform="scale(0.015625)"/>
       <path id="DejaVuSans-6c" d="M 603 4863 
L 1178 4863 
L 1178 0 
L 603 0 
L 603 4863 
z
" transform="scale(0.015625)"/>
       <path id="DejaVuSans-73" d="M 2834 3397 
L 2834 2853 
Q 2591 2978 2328 3040 
Q 2066 3103 1784 3103 
Q 1356 3103 1142 2972 
Q 928 2841 928 2578 
Q 928 2378 1081 2264 
Q 1234 2150 1697 2047 
L 1894 2003 
Q 2506 1872 2764 1633 
Q 3022 1394 3022 966 
Q 3022 478 2636 193 
Q 2250 -91 1575 -91 
Q 1294 -91 989 -36 
Q 684 19 347 128 
L 347 722 
Q 666 556 975 473 
Q 1284 391 1588 391 
Q 1994 391 2212 530 
Q 2431 669 2431 922 
Q 2431 1156 2273 1281 
Q 2116 1406 1581 1522 
L 1381 1569 
Q 847 1681 609 1914 
Q 372 2147 372 2553 
Q 372 3047 722 3315 
Q 1072 3584 1716 3584 
Q 2034 3584 2315 3537 
Q 2597 3491 2834 3397 
z
" transform="scale(0.015625)"/>
       <path id="DejaVuSans-65" d="M 3597 1894 
L 3597 1613 
L 953 1613 
Q 991 1019 1311 708 
Q 1631 397 2203 397 
Q 2534 397 2845 478 
Q 3156 559 3463 722 
L 3463 178 
Q 3153 47 2828 -22 
Q 2503 -91 2169 -91 
Q 1331 -91 842 396 
Q 353 884 353 1716 
Q 353 2575 817 3079 
Q 1281 3584 2069 3584 
Q 2775 3584 3186 3129 
Q 3597 2675 3597 1894 
z
M 3022 2063 
Q 3016 2534 2758 2815 
Q 2500 3097 2075 3097 
Q 1594 3097 1305 2825 
Q 1016 2553 972 2059 
L 3022 2063 
z
" transform="scale(0.015625)"/>
       <path id="DejaVuSans-20" transform="scale(0.015625)"/>
       <path id="DejaVuSans-50" d="M 1259 4147 
L 1259 2394 
L 2053 2394 
Q 2494 2394 2734 2622 
Q 2975 2850 2975 3272 
Q 2975 3691 2734 3919 
Q 2494 4147 2053 4147 
L 1259 4147 
z
M 628 4666 
L 2053 4666 
Q 2838 4666 3239 4311 
Q 3641 3956 3641 3272 
Q 3641 2581 3239 2228 
Q 2838 1875 2053 1875 
L 1259 1875 
L 1259 0 
L 628 0 
L 628 4666 
z
" transform="scale(0.015625)"/>
       <path id="DejaVuSans-6f" d="M 1959 3097 
Q 1497 3097 1228 2736 
Q 959 2375 959 1747 
Q 959 1119 1226 758 
Q 1494 397 1959 397 
Q 2419 397 2687 759 
Q 2956 1122 2956 1747 
Q 2956 2369 2687 2733 
Q 2419 3097 1959 3097 
z
M 1959 3584 
Q 2709 3584 3137 3096 
Q 3566 2609 3566 1747 
Q 3566 888 3137 398 
Q 2709 -91 1959 -91 
Q 1206 -91 779 398 
Q 353 888 353 1747 
Q 353 2609 779 3096 
Q 1206 3584 1959 3584 
z
" transform="scale(0.015625)"/>
       <path id="DejaVuSans-69" d="M 603 3500 
L 1178 3500 
L 1178 0 
L 603 0 
L 603 3500 
z
M 603 4863 
L 1178 4863 
L 1178 4134 
L 603 4134 
L 603 4863 
z
" transform="scale(0.015625)"/>
       <path id="DejaVuSans-74" d="M 1172 4494 
L 1172 3500 
L 2356 3500 
L 2356 3053 
L 1172 3053 
L 1172 1153 
Q 1172 725 1289 603 
Q 1406 481 1766 481 
L 2356 481 
L 2356 0 
L 1766 0 
Q 1100 0 847 248 
Q 594 497 594 1153 
L 594 3053 
L 172 3053 
L 172 3500 
L 594 3500 
L 594 4494 
L 1172 4494 
z
" transform="scale(0.015625)"/>
       <path id="DejaVuSans-76" d="M 191 3500 
L 800 3500 
L 1894 563 
L 2988 3500 
L 3597 3500 
L 2284 0 
L 1503 0 
L 191 3500 
z
" transform="scale(0.015625)"/>
       <path id="DejaVuSans-52" d="M 2841 2188 
Q 3044 2119 3236 1894 
Q 3428 1669 3622 1275 
L 4263 0 
L 3584 0 
L 2988 1197 
Q 2756 1666 2539 1819 
Q 2322 1972 1947 1972 
L 1259 1972 
L 1259 0 
L 628 0 
L 628 4666 
L 2053 4666 
Q 2853 4666 3247 4331 
Q 3641 3997 3641 3322 
Q 3641 2881 3436 2590 
Q 3231 2300 2841 2188 
z
M 1259 4147 
L 1259 2491 
L 2053 2491 
Q 2509 2491 2742 2702 
Q 2975 2913 2975 3322 
Q 2975 3731 2742 3939 
Q 2509 4147 2053 4147 
L 1259 4147 
z
" transform="scale(0.015625)"/>
      </defs>
      <use xlink:href="#DejaVuSans-46"/>
      <use xlink:href="#DejaVuSans-61" x="48.394531"/>
      <use xlink:href="#DejaVuSans-6c" x="109.673828"/>
      <use xlink:href="#DejaVuSans-73" x="137.457031"/>
      <use xlink:href="#DejaVuSans-65" x="189.556641"/>
      <use xlink:href="#DejaVuSans-20" x="251.080078"/>
      <use xlink:href="#DejaVuSans-50" x="282.867188"/>
      <use xlink:href="#DejaVuSans-6f" x="339.544922"/>
      <use xlink:href="#DejaVuSans-73" x="400.726562"/>
      <use xlink:href="#DejaVuSans-69" x="452.826172"/>
      <use xlink:href="#DejaVuSans-74" x="480.609375"/>
      <use xlink:href="#DejaVuSans-69" x="519.818359"/>
      <use xlink:href="#DejaVuSans-76" x="547.601562"/>
      <use xlink:href="#DejaVuSans-65" x="606.78125"/>
      <use xlink:href="#DejaVuSans-20" x="668.304688"/>
      <use xlink:href="#DejaVuSans-52" x="700.091797"/>
      <use xlink:href="#DejaVuSans-61" x="767.324219"/>
      <use xlink:href="#DejaVuSans-74" x="828.603516"/>
      <use xlink:href="#DejaVuSans-65" x="867.8125"/>
     </g>
    </g>
   </g>
   <g id="matplotlib.axis_2">
    <g id="ytick_1">
     <g id="line2d_13">
      <path d="M 45.716875 445.678125 
L 715.316875 445.678125 
" clip-path="url(#pd131422d51)" style="fill: none; stroke: #b0b0b0; stroke-width: 0.8; stroke-linecap: square"/>
     </g>
     <g id="line2d_14">
      <defs>
       <path id="m2c6429f722" d="M 0 0 
L -3.5 0 
" style="stroke: #000000; stroke-width: 0.8"/>
      </defs>
      <g>
       <use xlink:href="#m2c6429f722" x="45.716875" y="445.678125" style="stroke: #000000; stroke-width: 0.8"/>
      </g>
     </g>
     <g id="text_8">
      <!-- 0.0 -->
      <g transform="translate(22.81375 449.477344) scale(0.1 -0.1)">
       <use xlink:href="#DejaVuSans-30"/>
       <use xlink:href="#DejaVuSans-2e" x="63.623047"/>
       <use xlink:href="#DejaVuSans-30" x="95.410156"/>
      </g>
     </g>
    </g>
    <g id="ytick_2">
     <g id="line2d_15">
      <path d="M 45.716875 365.038125 
L 715.316875 365.038125 
" clip-path="url(#pd131422d51)" style="fill: none; stroke: #b0b0b0; stroke-width: 0.8; stroke-linecap: square"/>
     </g>
     <g id="line2d_16">
      <g>
       <use xlink:href="#m2c6429f722" x="45.716875" y="365.038125" style="stroke: #000000; stroke-width: 0.8"/>
      </g>
     </g>
     <g id="text_9">
      <!-- 0.2 -->
      <g transform="translate(22.81375 368.837344) scale(0.1 -0.1)">
       <use xlink:href="#DejaVuSans-30"/>
       <use xlink:href="#DejaVuSans-2e" x="63.623047"/>
       <use xlink:href="#DejaVuSans-32" x="95.410156"/>
      </g>
     </g>
    </g>
    <g id="ytick_3">
     <g id="line2d_17">
      <path d="M 45.716875 284.398125 
L 715.316875 284.398125 
" clip-path="url(#pd131422d51)" style="fill: none; stroke: #b0b0b0; stroke-width: 0.8; stroke-linecap: square"/>
     </g>
     <g id="line2d_18">
      <g>
       <use xlink:href="#m2c6429f722" x="45.716875" y="284.398125" style="stroke: #000000; stroke-width: 0.8"/>
      </g>
     </g>
     <g id="text_10">
      <!-- 0.4 -->
      <g transform="translate(22.81375 288.197344) scale(0.1 -0.1)">
       <use xlink:href="#DejaVuSans-30"/>
       <use xlink:href="#DejaVuSans-2e" x="63.623047"/>
       <use xlink:href="#DejaVuSans-34" x="95.410156"/>
      </g>
     </g>
    </g>
    <g id="ytick_4">
     <g id="line2d_19">
      <path d="M 45.716875 203.758125 
L 715.316875 203.758125 
" clip-path="url(#pd131422d51)" style="fill: none; stroke: #b0b0b0; stroke-width: 0.8; stroke-linecap: square"/>
     </g>
     <g id="line2d_20">
      <g>
       <use xlink:href="#m2c6429f722" x="45.716875" y="203.758125" style="stroke: #000000; stroke-width: 0.8"/>
      </g>
     </g>
     <g id="text_11">
      <!-- 0.6 -->
      <g transform="translate(22.81375 207.557344) scale(0.1 -0.1)">
       <use xlink:href="#DejaVuSans-30"/>
       <use xlink:href="#DejaVuSans-2e" x="63.623047"/>
       <use xlink:href="#DejaVuSans-36" x="95.410156"/>
      </g>
     </g>
    </g>
    <g id="ytick_5">
     <g id="line2d_21">
      <path d="M 45.716875 123.118125 
L 715.316875 123.118125 
" clip-path="url(#pd131422d51)" style="fill: none; stroke: #b0b0b0; stroke-width: 0.8; stroke-linecap: square"/>
     </g>
     <g id="line2d_22">
      <g>
       <use xlink:href="#m2c6429f722" x="45.716875" y="123.118125" style="stroke: #000000; stroke-width: 0.8"/>
      </g>
     </g>
     <g id="text_12">
      <!-- 0.8 -->
      <g transform="translate(22.81375 126.917344) scale(0.1 -0.1)">
       <use xlink:href="#DejaVuSans-30"/>
       <use xlink:href="#DejaVuSans-2e" x="63.623047"/>
       <use xlink:href="#DejaVuSans-38" x="95.410156"/>
      </g>
     </g>
    </g>
    <g id="ytick_6">
     <g id="line2d_23">
      <path d="M 45.716875 42.478125 
L 715.316875 42.478125 
" clip-path="url(#pd131422d51)" style="fill: none; stroke: #b0b0b0; stroke-width: 0.8; stroke-linecap: square"/>
     </g>
     <g id="line2d_24">
      <g>
       <use xlink:href="#m2c6429f722" x="45.716875" y="42.478125" style="stroke: #000000; stroke-width: 0.8"/>
      </g>
     </g>
     <g id="text_13">
      <!-- 1.0 -->
      <g transform="translate(22.81375 46.277344) scale(0.1 -0.1)">
       <use xlink:href="#DejaVuSans-31"/>
       <use xlink:href="#DejaVuSans-2e" x="63.623047"/>
       <use xlink:href="#DejaVuSans-30" x="95.410156"/>
      </g>
     </g>
    </g>
    <g id="text_14">
     <!-- True Positive Rate -->
     <g transform="translate(16.318125 297.51375) rotate(-90) scale(0.12 -0.12)">
      <defs>
       <path id="DejaVuSans-54" d="M -19 4666 
L 3928 4666 
L 3928 4134 
L 2272 4134 
L 2272 0 
L 1638 0 
L 1638 4134 
L -19 4134 
L -19 4666 
z
" transform="scale(0.015625)"/>
       <path id="DejaVuSans-72" d="M 2631 2963 
Q 2534 3019 2420 3045 
Q 2306 3072 2169 3072 
Q 1681 3072 1420 2755 
Q 1159 2438 1159 1844 
L 1159 0 
L 581 0 
L 581 3500 
L 1159 3500 
L 1159 2956 
Q 1341 3275 1631 3429 
Q 1922 3584 2338 3584 
Q 2397 3584 2469 3576 
Q 2541 3569 2628 3553 
L 2631 2963 
z
" transform="scale(0.015625)"/>
       <path id="DejaVuSans-75" d="M 544 1381 
L 544 3500 
L 1119 3500 
L 1119 1403 
Q 1119 906 1312 657 
Q 1506 409 1894 409 
Q 2359 409 2629 706 
Q 2900 1003 2900 1516 
L 2900 3500 
L 3475 3500 
L 3475 0 
L 2900 0 
L 2900 538 
Q 2691 219 2414 64 
Q 2138 -91 1772 -91 
Q 1169 -91 856 284 
Q 544 659 544 1381 
z
M 1991 3584 
L 1991 3584 
z
" transform="scale(0.015625)"/>
      </defs>
      <use xlink:href="#DejaVuSans-54"/>
      <use xlink:href="#DejaVuSans-72" x="46.333984"/>
      <use xlink:href="#DejaVuSans-75" x="87.447266"/>
      <use xlink:href="#DejaVuSans-65" x="150.826172"/>
      <use xlink:href="#DejaVuSans-20" x="212.349609"/>
      <use xlink:href="#DejaVuSans-50" x="244.136719"/>
      <use xlink:href="#DejaVuSans-6f" x="300.814453"/>
      <use xlink:href="#DejaVuSans-73" x="361.996094"/>
      <use xlink:href="#DejaVuSans-69" x="414.095703"/>
      <use xlink:href="#DejaVuSans-74" x="441.878906"/>
      <use xlink:href="#DejaVuSans-69" x="481.087891"/>
      <use xlink:href="#DejaVuSans-76" x="508.871094"/>
      <use xlink:href="#DejaVuSans-65" x="568.050781"/>
      <use xlink:href="#DejaVuSans-20" x="629.574219"/>
      <use xlink:href="#DejaVuSans-52" x="661.361328"/>
      <use xlink:href="#DejaVuSans-61" x="728.59375"/>
      <use xlink:href="#DejaVuSans-74" x="789.873047"/>
      <use xlink:href="#DejaVuSans-65" x="829.082031"/>
     </g>
    </g>
   </g>
   <g id="line2d_25">
    <path d="M 76.153239 445.678125 
L 76.25112 368.096103 
L 76.349002 368.096103 
L 76.446884 345.255653 
L 76.544766 345.255653 
L 76.642648 340.159024 
L 76.74053 340.159024 
L 76.838412 336.761271 
L 76.936293 336.761271 
L 76.936293 335.628687 
L 77.229939 335.628687 
L 77.327821 334.496103 
L 77.425703 334.496103 
L 77.523585 333.552282 
L 77.621467 333.552282 
L 77.719348 332.230934 
L 77.81723 332.230934 
L 77.915112 328.833181 
L 78.012994 328.833181 
L 78.012994 326.379249 
L 78.208758 326.379249 
L 78.30664 325.435428 
L 78.502403 325.435428 
L 78.502403 325.0579 
L 78.796049 325.0579 
L 78.796049 324.869136 
L 78.991813 324.869136 
L 79.089694 321.093855 
L 79.187576 320.716327 
L 79.285458 318.073631 
L 79.38334 318.073631 
L 79.481222 317.12981 
L 79.579104 317.12981 
L 79.676986 315.619698 
L 79.774867 315.619698 
L 79.774867 315.430934 
L 79.970631 315.430934 
L 80.068513 313.920822 
L 80.166395 313.920822 
L 80.264277 312.221945 
L 80.362159 312.221945 
L 80.851568 311.278125 
L 80.94945 309.768013 
L 81.047332 309.768013 
L 81.047332 309.201721 
L 81.634623 309.201721 
L 81.732505 307.125316 
L 81.830386 307.125316 
L 81.928268 304.293855 
L 82.02615 303.916327 
L 82.319796 303.916327 
L 82.515559 303.538799 
L 82.515559 303.161271 
L 82.711323 303.161271 
L 82.809205 302.594979 
L 83.004969 302.217451 
L 83.004969 301.084867 
L 83.200732 301.084867 
L 83.200732 300.707338 
L 83.396496 300.32981 
L 83.494378 299.574754 
L 83.59226 299.574754 
L 83.59226 299.38599 
L 83.788024 299.38599 
L 83.885905 298.630934 
L 84.375315 298.630934 
L 84.473197 298.44217 
L 84.571078 297.120822 
L 84.66896 297.120822 
L 84.766842 295.988237 
L 84.864724 295.988237 
L 84.962606 295.233181 
L 85.060488 295.233181 
L 85.060488 295.044417 
L 85.15837 295.044417 
L 85.647779 294.478125 
L 85.745661 293.156777 
L 85.941424 293.156777 
L 86.039306 292.401721 
L 86.137188 292.401721 
L 86.23507 291.4579 
L 86.528716 291.4579 
L 86.626597 290.325316 
L 86.822361 290.325316 
L 86.822361 289.192732 
L 87.018125 289.003968 
L 87.213889 289.003968 
L 87.213889 288.815204 
L 87.31177 288.815204 
L 87.605416 288.437676 
L 87.703298 287.116327 
L 88.290589 287.116327 
L 88.388471 285.983743 
L 88.584235 285.983743 
L 88.584235 285.606215 
L 88.87788 285.228687 
L 88.975762 284.096103 
L 89.073644 284.096103 
L 89.171526 283.52981 
L 89.269408 283.52981 
L 89.856699 282.397226 
L 89.954581 281.830934 
L 90.541872 280.69835 
L 90.835517 280.509586 
L 90.933399 279.943294 
L 91.031281 279.943294 
L 91.031281 279.565765 
L 91.227045 279.565765 
L 91.227045 278.621945 
L 91.324927 278.621945 
L 91.618572 278.055653 
L 91.716454 276.545541 
L 91.814336 276.545541 
L 91.912218 275.790485 
L 92.0101 275.790485 
L 92.107981 275.224192 
L 92.401627 275.224192 
L 92.499509 274.6579 
L 92.695273 274.6579 
L 92.793154 272.77026 
L 92.891036 272.77026 
L 92.988918 271.637676 
L 93.184682 271.637676 
L 93.282564 271.071383 
L 93.380446 271.071383 
L 93.380446 270.882619 
L 93.576209 270.882619 
L 93.576209 270.693855 
L 93.869855 270.693855 
L 93.869855 270.505091 
L 94.750792 270.505091 
L 94.848673 270.127563 
L 95.533846 270.127563 
L 95.631728 269.561271 
L 95.827492 269.561271 
L 95.925374 268.428687 
L 96.121138 268.428687 
L 96.121138 268.239923 
L 96.316901 268.239923 
L 96.316901 268.051159 
L 96.512665 268.051159 
L 96.708429 267.296103 
L 97.099956 267.296103 
L 97.197838 266.72981 
L 97.491484 266.72981 
L 97.589365 266.352282 
L 97.687247 266.352282 
L 97.687247 265.597226 
L 97.883011 265.597226 
L 97.980893 265.219698 
L 98.078775 265.219698 
L 98.176657 263.143294 
L 98.274538 263.143294 
L 98.274538 262.954529 
L 98.37242 262.954529 
L 98.86183 262.010709 
L 99.155475 262.010709 
L 99.155475 261.633181 
L 99.547003 261.633181 
L 99.644884 261.066889 
L 100.036412 261.066889 
L 100.330057 260.689361 
L 100.427939 258.990485 
L 100.819467 258.990485 
L 100.819467 258.612956 
L 101.01523 258.612956 
L 101.01523 258.046664 
L 101.308876 258.046664 
L 101.308876 257.669136 
L 101.700403 257.291608 
L 101.700403 257.102844 
L 101.896167 257.102844 
L 101.896167 256.725316 
L 101.994049 256.725316 
L 102.287695 256.725316 
L 102.287695 256.347788 
L 102.483458 256.347788 
L 102.483458 256.159024 
L 102.679222 256.159024 
L 102.679222 255.97026 
L 102.874986 255.97026 
L 102.972868 255.403968 
L 103.070749 255.403968 
L 103.070749 254.837676 
L 103.755922 254.837676 
L 103.853804 253.893855 
L 103.951686 253.893855 
L 103.951686 253.705091 
L 104.14745 253.705091 
L 104.14745 253.516327 
L 104.343214 253.516327 
L 104.441095 252.950035 
L 104.538977 252.761271 
L 104.734741 252.761271 
L 104.832623 251.062395 
L 105.22415 249.92981 
L 105.517796 249.92981 
L 105.517796 249.363518 
L 105.71356 249.363518 
L 106.007205 248.608462 
L 106.202969 248.608462 
L 106.692378 247.853406 
L 106.79026 246.532058 
L 106.888142 246.532058 
L 107.377551 245.777001 
L 107.573315 245.588237 
L 107.573315 245.399473 
L 107.671197 245.399473 
L 107.866961 244.833181 
L 107.964842 244.833181 
L 108.160606 244.644417 
L 108.160606 244.455653 
L 108.552134 244.455653 
L 108.552134 244.266889 
L 109.237307 244.266889 
L 109.237307 243.889361 
L 109.628834 243.323069 
L 109.726716 241.812956 
L 109.824598 241.812956 
L 109.824598 241.624192 
L 110.216125 241.624192 
L 110.216125 241.0579 
L 110.314007 241.0579 
L 110.607653 240.680372 
L 110.705534 240.680372 
L 110.705534 239.925316 
L 111.097062 239.925316 
L 111.194944 238.22644 
L 111.684353 238.22644 
L 111.782235 237.660147 
L 112.07588 237.660147 
L 112.07588 237.282619 
L 112.271644 237.282619 
L 112.271644 237.093855 
L 112.467408 237.093855 
L 112.467408 236.905091 
L 112.761053 236.905091 
L 112.956817 236.716327 
L 113.054699 236.150035 
L 113.152581 236.150035 
L 113.250463 235.394979 
L 113.348345 235.206215 
L 113.739872 235.206215 
L 113.837754 234.828687 
L 114.033518 234.828687 
L 114.033518 234.639923 
L 114.229281 234.639923 
L 114.327163 233.507338 
L 114.425045 233.507338 
L 114.425045 233.318574 
L 114.620809 233.318574 
L 114.620809 232.941046 
L 114.914454 232.941046 
L 115.305982 231.997226 
L 115.305982 231.808462 
L 115.599627 231.808462 
L 115.599627 231.619698 
L 115.893273 231.619698 
L 115.991155 230.864642 
L 116.089037 230.864642 
L 116.186918 230.675878 
L 116.77421 230.675878 
L 116.77421 230.109586 
L 116.969973 230.109586 
L 117.067855 229.732058 
L 117.361501 229.732058 
L 117.361501 229.543294 
L 117.557264 229.543294 
L 117.557264 228.788237 
L 117.85091 228.788237 
L 118.046674 228.410709 
L 118.046674 228.033181 
L 118.340319 228.033181 
L 118.340319 227.844417 
L 119.319138 227.844417 
L 119.319138 227.089361 
L 119.514902 227.089361 
L 119.612783 226.711833 
L 119.710665 226.711833 
L 119.710665 226.334305 
L 120.102193 226.334305 
L 120.102193 225.390485 
L 120.395838 225.390485 
L 120.395838 224.635428 
L 120.49372 224.635428 
L 120.591602 224.446664 
L 120.591602 223.880372 
L 120.885248 223.880372 
L 120.983129 222.936552 
L 121.374657 222.936552 
L 121.472539 222.559024 
L 121.570421 222.559024 
L 121.668302 221.992732 
L 121.864066 221.992732 
L 121.961948 221.615204 
L 122.255594 221.615204 
L 122.255594 221.42644 
L 122.745003 221.42644 
L 122.745003 221.237676 
L 122.842885 221.237676 
L 123.038648 221.237676 
L 123.13653 220.860147 
L 123.332294 220.860147 
L 123.430176 220.482619 
L 123.62594 220.482619 
L 123.62594 220.105091 
L 123.821703 220.105091 
L 123.919585 219.727563 
L 124.017467 219.727563 
L 124.115349 219.350035 
L 124.506876 219.350035 
L 124.506876 219.161271 
L 124.70264 219.161271 
L 124.800522 218.217451 
L 124.996286 218.217451 
L 124.996286 217.651159 
L 125.192049 217.651159 
L 125.192049 217.462395 
L 125.387813 217.462395 
L 125.387813 217.273631 
L 125.877222 217.273631 
L 125.877222 217.084867 
L 126.072986 217.084867 
L 126.072986 216.896103 
L 126.366632 216.896103 
L 126.366632 216.518574 
L 126.660277 216.518574 
L 126.660277 216.32981 
L 126.856041 216.32981 
L 126.856041 216.141046 
L 127.149686 216.141046 
L 127.149686 215.763518 
L 127.736978 215.763518 
L 127.736978 215.574754 
L 127.932741 215.574754 
L 127.932741 214.253406 
L 128.030623 214.253406 
L 128.324269 214.253406 
L 128.324269 213.687114 
L 128.520032 213.687114 
L 128.617914 213.309586 
L 128.813678 213.309586 
L 128.91156 212.554529 
L 129.303087 212.554529 
L 129.400969 211.799473 
L 129.498851 211.799473 
L 129.498851 211.610709 
L 129.792497 211.610709 
L 129.890378 211.044417 
L 130.281906 211.044417 
L 130.281906 210.666889 
L 130.771315 210.666889 
L 130.771315 210.478125 
L 131.162843 210.478125 
L 131.358606 210.289361 
L 131.652252 210.289361 
L 131.750134 209.911833 
L 131.848016 209.911833 
L 131.848016 208.968013 
L 132.043779 208.968013 
L 132.043779 208.779249 
L 132.141661 208.779249 
L 132.533189 208.779249 
L 132.631071 208.401721 
L 132.826834 208.401721 
L 132.826834 207.269136 
L 133.022598 207.269136 
L 133.12048 206.325316 
L 133.609889 206.325316 
L 133.609889 206.136552 
L 133.903535 206.136552 
L 133.903535 205.947788 
L 134.295062 205.947788 
L 134.392944 205.759024 
L 134.784471 205.759024 
L 134.784471 205.381496 
L 134.980235 205.381496 
L 134.980235 205.192732 
L 135.175999 205.192732 
L 135.273881 204.815204 
L 135.567526 204.815204 
L 135.665408 204.437676 
L 136.056936 204.437676 
L 136.056936 204.248912 
L 136.154817 204.248912 
L 136.448463 204.248912 
L 136.546345 203.682619 
L 136.937872 203.682619 
L 137.035754 203.116327 
L 137.133636 203.116327 
L 137.231518 202.927563 
L 137.427282 202.927563 
L 137.427282 202.738799 
L 137.916691 202.738799 
L 137.916691 202.361271 
L 138.210336 202.361271 
L 138.308218 201.794979 
L 138.4061 201.794979 
L 138.503982 201.039923 
L 138.601864 201.039923 
L 138.699746 200.096103 
L 139.091273 200.096103 
L 139.189155 199.718574 
L 139.384919 199.718574 
L 139.678564 198.774754 
L 139.97221 198.774754 
L 140.070092 198.208462 
L 140.265855 198.208462 
L 140.265855 198.019698 
L 140.461619 198.019698 
L 140.657383 197.64217 
L 140.853147 197.64217 
L 140.853147 197.453406 
L 141.146792 197.453406 
L 141.146792 197.264642 
L 141.342556 197.264642 
L 141.440438 196.69835 
L 141.636201 196.69835 
L 141.636201 196.320822 
L 141.831965 196.320822 
L 141.831965 196.132058 
L 141.929847 196.132058 
L 142.027729 195.943294 
L 142.419256 195.943294 
L 142.517138 195.377001 
L 142.61502 195.377001 
L 142.712902 194.999473 
L 143.104429 194.244417 
L 143.202311 193.678125 
L 143.495957 193.678125 
L 143.789602 193.111833 
L 144.083248 193.111833 
L 144.083248 192.923069 
L 144.279012 192.923069 
L 144.376893 192.545541 
L 145.159948 192.545541 
L 145.159948 192.168013 
L 145.747239 192.168013 
L 145.845121 191.790485 
L 146.530294 191.790485 
L 146.530294 191.601721 
L 146.82394 191.601721 
L 146.921822 191.035428 
L 147.117585 191.035428 
L 147.215467 190.6579 
L 147.313349 190.469136 
L 147.509113 190.469136 
L 147.704877 190.280372 
L 148.096404 190.280372 
L 148.096404 190.091608 
L 148.487931 189.71408 
L 148.487931 189.525316 
L 148.781577 189.525316 
L 148.977341 189.336552 
L 149.173104 189.336552 
L 149.173104 189.147788 
L 149.270986 189.147788 
L 149.368868 188.959024 
L 149.46675 188.203968 
L 149.858277 188.203968 
L 149.858277 188.015204 
L 150.641332 188.015204 
L 150.641332 187.82644 
L 150.739214 187.82644 
L 151.130742 187.260147 
L 151.522269 187.260147 
L 151.620151 186.505091 
L 152.598969 186.505091 
L 152.598969 185.183743 
L 152.892615 185.183743 
L 152.892615 184.806215 
L 153.284142 184.806215 
L 153.284142 184.617451 
L 153.773552 184.617451 
L 153.773552 184.428687 
L 153.969315 184.428687 
L 153.969315 184.239923 
L 154.165079 184.239923 
L 154.458725 183.673631 
L 154.654488 183.673631 
L 154.75237 183.484867 
L 154.75237 182.918574 
L 155.046016 182.918574 
L 155.143898 182.72981 
L 155.731189 182.72981 
L 155.731189 182.352282 
L 155.926953 181.974754 
L 156.416362 181.974754 
L 156.416362 181.78599 
L 156.612126 181.78599 
L 157.199417 180.464642 
L 157.688826 180.464642 
L 157.786708 179.89835 
L 157.88459 179.89835 
L 157.982472 179.520822 
L 158.080353 179.520822 
L 158.178235 179.143294 
L 158.373999 179.143294 
L 158.373999 178.388237 
L 158.569763 178.388237 
L 158.667645 177.821945 
L 158.765526 177.821945 
L 158.863408 177.633181 
L 159.352818 177.633181 
L 159.450699 177.066889 
L 159.744345 176.878125 
L 159.744345 176.500597 
L 159.940109 176.500597 
L 159.940109 176.123069 
L 160.135873 176.123069 
L 160.233754 175.745541 
L 160.821046 175.745541 
L 160.821046 175.368013 
L 160.918927 175.368013 
L 161.212573 175.368013 
L 161.212573 175.179249 
L 162.191392 175.179249 
L 162.289273 174.612956 
L 162.680801 174.612956 
L 162.680801 174.424192 
L 163.072328 174.424192 
L 163.072328 174.235428 
L 163.17021 174.235428 
L 163.757501 174.046664 
L 163.855383 174.046664 
L 163.855383 173.8579 
L 164.051147 173.8579 
L 164.051147 173.669136 
L 164.246911 173.669136 
L 164.246911 173.291608 
L 164.442674 173.291608 
L 164.442674 173.102844 
L 164.540556 173.102844 
L 164.638438 172.91408 
L 165.029965 172.91408 
L 165.127847 172.347788 
L 165.81302 172.347788 
L 165.81302 172.159024 
L 166.106666 172.159024 
L 166.106666 171.97026 
L 166.791839 171.97026 
L 166.791839 171.781496 
L 167.183366 171.781496 
L 167.281248 171.403968 
L 167.672776 171.403968 
L 167.672776 171.215204 
L 167.868539 171.215204 
L 167.868539 171.02644 
L 168.45583 171.02644 
L 168.45583 170.648912 
L 169.238885 170.648912 
L 169.238885 170.460147 
L 169.336767 170.460147 
L 169.532531 170.271383 
L 170.119822 170.271383 
L 170.119822 170.082619 
L 170.707113 170.082619 
L 170.804995 169.516327 
L 171.098641 169.516327 
L 171.098641 169.327563 
L 171.392286 169.327563 
L 171.783814 168.761271 
L 172.077459 168.761271 
L 172.077459 168.572507 
L 172.762632 168.572507 
L 172.860514 168.006215 
L 172.958396 168.006215 
L 173.056278 167.439923 
L 173.252041 167.439923 
L 174.132978 165.741046 
L 174.622387 165.741046 
L 174.622387 165.174754 
L 175.111797 165.174754 
L 175.111797 164.98599 
L 175.30756 164.98599 
L 175.30756 164.797226 
L 175.601206 164.797226 
L 175.601206 164.608462 
L 176.090615 164.608462 
L 176.090615 164.419698 
L 177.363079 164.419698 
L 177.363079 164.04217 
L 178.146134 164.04217 
L 178.146134 163.853406 
L 178.43978 163.853406 
L 178.43978 163.664642 
L 178.537662 163.664642 
L 178.733425 163.09835 
L 179.222835 163.09835 
L 179.222835 162.909586 
L 179.320717 162.909586 
L 179.51648 162.532058 
L 180.886826 162.532058 
L 180.886826 161.965765 
L 181.474117 161.965765 
L 181.474117 161.777001 
L 182.15929 161.777001 
L 182.15929 161.399473 
L 182.550818 161.399473 
L 182.550818 161.210709 
L 183.040227 161.210709 
L 183.138109 160.455653 
L 183.431755 160.455653 
L 183.431755 160.266889 
L 183.823282 160.266889 
L 183.823282 160.078125 
L 184.214809 160.078125 
L 184.214809 159.700597 
L 184.410573 159.700597 
L 184.410573 159.511833 
L 184.508455 159.511833 
L 184.704219 159.511833 
L 184.704219 159.323069 
L 185.487274 159.323069 
L 185.487274 159.134305 
L 185.878801 159.134305 
L 185.878801 158.945541 
L 186.36821 158.945541 
L 186.466092 158.568013 
L 186.661856 158.568013 
L 186.661856 158.190485 
L 187.151265 158.190485 
L 187.151265 157.812956 
L 187.444911 157.812956 
L 187.444911 157.624192 
L 187.738556 157.624192 
L 187.738556 157.435428 
L 188.423729 157.435428 
L 188.521611 156.491608 
L 189.206784 156.491608 
L 189.304666 156.11408 
L 189.598312 156.11408 
L 189.696194 155.547788 
L 189.891957 155.547788 
L 189.891957 155.359024 
L 190.087721 155.359024 
L 190.185603 154.981496 
L 190.381367 154.981496 
L 190.479248 154.603968 
L 190.772894 154.603968 
L 190.870776 153.848912 
L 191.06654 153.848912 
L 191.06654 153.660147 
L 191.360185 153.660147 
L 191.360185 153.093855 
L 191.458067 153.093855 
L 191.653831 152.905091 
L 191.849594 152.905091 
L 191.849594 152.716327 
L 192.14324 152.716327 
L 192.241122 151.961271 
L 192.534767 151.961271 
L 192.534767 151.772507 
L 192.828413 151.772507 
L 192.926295 151.017451 
L 193.70935 151.017451 
L 193.70935 150.828687 
L 193.905113 150.639923 
L 194.198759 150.639923 
L 194.198759 150.451159 
L 194.590286 150.451159 
L 194.688168 150.073631 
L 194.883932 150.073631 
L 194.883932 149.884867 
L 195.079696 149.884867 
L 195.275459 149.507338 
L 195.471223 149.507338 
L 195.471223 149.318574 
L 195.862751 149.318574 
L 195.862751 149.12981 
L 196.35216 149.12981 
L 196.35216 148.752282 
L 196.450042 148.752282 
L 196.645805 148.752282 
L 196.645805 148.563518 
L 196.841569 148.563518 
L 196.841569 148.18599 
L 197.037333 148.18599 
L 197.135215 147.430934 
L 197.42886 147.430934 
L 197.526742 147.053406 
L 197.624624 147.053406 
L 197.722506 146.864642 
L 198.114033 146.864642 
L 198.114033 146.675878 
L 198.505561 146.675878 
L 198.505561 146.487114 
L 198.799206 146.487114 
L 198.799206 145.732058 
L 199.973789 145.732058 
L 199.973789 145.543294 
L 200.07167 145.543294 
L 200.463198 145.543294 
L 200.463198 145.354529 
L 201.148371 145.354529 
L 201.246253 145.165765 
L 201.539898 145.165765 
L 201.833544 144.977001 
L 202.225071 144.977001 
L 202.225071 144.788237 
L 203.791181 144.788237 
L 204.965763 144.033181 
L 204.965763 143.844417 
L 205.161527 143.844417 
L 205.161527 143.655653 
L 205.748818 143.655653 
L 205.748818 143.089361 
L 206.531873 143.089361 
L 206.9234 142.523069 
L 208.000101 141.768013 
L 208.000101 141.579249 
L 208.293746 141.579249 
L 208.293746 141.390485 
L 208.391628 141.390485 
L 208.48951 141.201721 
L 208.881038 140.824192 
L 209.468329 140.824192 
L 209.468329 140.446664 
L 209.664092 140.446664 
L 210.251384 139.880372 
L 211.13232 139.880372 
L 211.13232 139.691608 
L 211.328084 139.691608 
L 211.425966 139.125316 
L 211.62173 139.125316 
L 211.817493 138.936552 
L 212.404784 138.936552 
L 212.600548 138.747788 
L 212.600548 138.559024 
L 213.187839 137.803968 
L 213.77513 137.803968 
L 213.77513 137.615204 
L 214.460303 137.615204 
L 214.460303 137.237676 
L 214.656067 137.237676 
L 214.656067 137.048912 
L 215.145476 137.048912 
L 215.243358 136.860147 
L 215.732768 136.860147 
L 215.732768 136.671383 
L 216.124295 136.671383 
L 216.515823 136.105091 
L 217.690405 136.105091 
L 217.788287 135.538799 
L 218.081932 135.538799 
L 218.081932 135.350035 
L 218.277696 135.350035 
L 218.277696 135.161271 
L 219.158633 135.161271 
L 219.158633 134.972507 
L 219.843806 134.972507 
L 219.843806 134.783743 
L 220.039569 134.783743 
L 220.039569 134.594979 
L 220.528979 134.594979 
L 220.528979 134.406215 
L 220.822624 134.406215 
L 220.822624 134.217451 
L 221.801443 134.217451 
L 222.19297 133.651159 
L 222.388734 133.651159 
L 222.486616 133.273631 
L 222.584498 133.273631 
L 222.68238 133.084867 
L 223.563316 133.084867 
L 223.563316 132.896103 
L 223.661198 132.896103 
L 224.248489 132.707338 
L 224.346371 132.141046 
L 224.737899 132.141046 
L 224.737899 131.38599 
L 224.83578 131.38599 
L 225.227308 131.38599 
L 225.227308 131.197226 
L 225.423072 131.008462 
L 225.618835 131.008462 
L 225.912481 130.630934 
L 226.206126 130.630934 
L 226.304008 130.253406 
L 226.499772 130.253406 
L 226.499772 130.064642 
L 226.793418 130.064642 
L 227.184945 129.49835 
L 227.282827 129.49835 
L 227.380709 129.309586 
L 227.772236 129.309586 
L 227.772236 129.120822 
L 229.827755 129.120822 
L 230.219283 128.743294 
L 230.317164 127.610709 
L 230.806574 127.610709 
L 230.806574 127.044417 
L 231.100219 127.044417 
L 231.295983 126.855653 
L 231.295983 126.666889 
L 232.666329 126.666889 
L 232.666329 126.478125 
L 233.449384 126.478125 
L 233.449384 126.289361 
L 233.840911 126.289361 
L 233.840911 126.100597 
L 234.134557 126.100597 
L 234.232439 125.534305 
L 234.81973 125.156777 
L 234.81973 124.968013 
L 235.015494 124.968013 
L 235.015494 124.779249 
L 235.407021 124.779249 
L 235.602785 124.212956 
L 235.89643 124.212956 
L 235.89643 124.024192 
L 235.994312 124.024192 
L 236.190076 123.646664 
L 236.483721 123.646664 
L 236.483721 123.4579 
L 236.973131 123.4579 
L 236.973131 123.269136 
L 237.756186 123.269136 
L 237.756186 123.080372 
L 238.245595 123.080372 
L 239.224413 122.325316 
L 239.518059 122.325316 
L 239.518059 122.136552 
L 240.398996 122.136552 
L 240.398996 121.57026 
L 240.594759 121.57026 
L 240.790523 120.62644 
L 240.986287 120.060147 
L 241.67146 120.060147 
L 241.67146 119.871383 
L 241.769342 119.871383 
L 241.965105 119.871383 
L 242.160869 119.682619 
L 242.356633 119.682619 
L 242.650278 119.493855 
L 242.650278 119.305091 
L 242.74816 119.305091 
L 242.943924 119.305091 
L 243.139688 118.927563 
L 243.531215 118.927563 
L 243.531215 118.738799 
L 244.31427 118.738799 
L 244.412152 118.361271 
L 244.901561 118.361271 
L 245.097325 118.172507 
L 245.488852 118.172507 
L 245.488852 117.983743 
L 245.684616 117.983743 
L 245.978262 117.606215 
L 245.978262 117.417451 
L 246.467671 117.417451 
L 246.467671 117.228687 
L 246.663435 117.228687 
L 246.761317 116.851159 
L 247.642253 116.851159 
L 247.642253 116.662395 
L 247.740135 116.662395 
L 248.033781 116.662395 
L 248.131663 116.473631 
L 249.110481 116.473631 
L 249.502009 116.096103 
L 249.697772 116.096103 
L 249.697772 115.907338 
L 249.795654 115.907338 
L 250.480827 115.907338 
L 250.774473 115.52981 
L 251.361764 115.341046 
L 251.361764 115.152282 
L 251.851173 115.152282 
L 251.851173 114.963518 
L 254.004574 114.963518 
L 254.200338 114.774754 
L 254.200338 114.58599 
L 254.396101 114.58599 
L 254.493983 114.208462 
L 254.885511 114.208462 
L 254.983393 114.019698 
L 255.277038 114.019698 
L 255.37492 113.64217 
L 255.570684 113.64217 
L 255.766447 113.453406 
L 256.060093 113.264642 
L 256.060093 113.075878 
L 256.45162 113.075878 
L 256.45162 112.69835 
L 257.234675 112.69835 
L 257.332557 112.320822 
L 257.528321 112.320822 
L 257.528321 111.943294 
L 257.919848 111.943294 
L 258.01773 111.754529 
L 259.094431 111.754529 
L 259.094431 111.565765 
L 259.681722 111.565765 
L 259.681722 110.810709 
L 260.856304 110.810709 
L 260.954186 110.244417 
L 264.380051 108.545541 
L 264.380051 108.168013 
L 264.771578 108.168013 
L 266.924979 107.790485 
L 266.924979 107.601721 
L 267.414388 107.224192 
L 267.903798 107.224192 
L 267.903798 107.035428 
L 268.295325 107.035428 
L 268.784734 106.846664 
L 268.784734 106.6579 
L 269.959317 106.091608 
L 270.350844 106.091608 
L 270.938135 105.902844 
L 270.938135 105.71408 
L 271.329663 105.71408 
L 272.993654 104.392732 
L 274.461882 104.392732 
L 274.755528 104.015204 
L 275.538583 104.015204 
L 275.93011 103.637676 
L 276.517401 103.637676 
L 276.713165 102.882619 
L 278.964448 102.882619 
L 278.964448 102.693855 
L 279.453857 102.316327 
L 279.747503 102.316327 
L 279.845384 101.938799 
L 280.041148 101.938799 
L 280.236912 101.750035 
L 280.530557 101.561271 
L 280.824203 101.561271 
L 281.411494 101.372507 
L 281.411494 101.183743 
L 281.509376 101.183743 
L 281.803022 100.994979 
L 282.194549 100.994979 
L 282.488195 100.617451 
L 282.488195 100.428687 
L 282.586076 100.428687 
L 282.879722 100.428687 
L 283.369131 100.239923 
L 283.369131 100.051159 
L 283.760659 99.673631 
L 284.837359 99.673631 
L 284.837359 99.484867 
L 285.326768 99.484867 
L 285.91406 99.107338 
L 288.06746 97.408462 
L 288.458988 97.408462 
L 288.458988 97.030934 
L 288.654752 97.030934 
L 288.752633 96.84217 
L 290.514507 96.84217 
L 292.570026 96.464642 
L 292.570026 96.275878 
L 292.863671 96.275878 
L 293.646726 95.89835 
L 294.234017 95.89835 
L 294.234017 95.709586 
L 295.017072 95.520822 
L 295.017072 95.332058 
L 295.114954 95.332058 
L 295.310718 95.143294 
L 295.310718 94.954529 
L 295.4086 94.954529 
L 295.800127 94.954529 
L 296.093773 94.765765 
L 296.876828 94.765765 
L 296.876828 94.577001 
L 297.072591 94.577001 
L 297.072591 94.388237 
L 297.268355 94.388237 
L 297.659882 94.199473 
L 298.736583 94.199473 
L 298.834465 93.633181 
L 298.932347 93.633181 
L 298.932347 93.444417 
L 299.12811 93.444417 
L 299.12811 93.255653 
L 299.715402 93.255653 
L 299.715402 93.066889 
L 300.204811 92.878125 
L 300.204811 92.689361 
L 301.183629 92.689361 
L 301.183629 92.500597 
L 301.673039 92.500597 
L 301.673039 92.311833 
L 302.064566 92.311833 
L 303.532794 92.123069 
L 303.532794 91.556777 
L 303.728558 91.556777 
L 304.315849 91.368013 
L 304.315849 91.179249 
L 304.511613 91.179249 
L 304.511613 90.990485 
L 305.97984 90.990485 
L 306.567132 90.801721 
L 306.567132 90.424192 
L 307.154423 90.424192 
L 307.154423 90.046664 
L 307.741714 90.046664 
L 307.741714 89.669136 
L 307.839596 89.669136 
L 308.916296 89.669136 
L 308.916296 89.480372 
L 309.405705 89.480372 
L 309.503587 89.291608 
L 309.797233 89.291608 
L 309.797233 89.102844 
L 310.18876 89.102844 
L 310.482406 88.91408 
L 310.580288 87.781496 
L 310.67817 87.781496 
L 310.67817 87.403968 
L 310.873933 87.403968 
L 310.971815 87.215204 
L 311.461224 87.215204 
L 311.559106 86.648912 
L 312.635807 86.648912 
L 312.635807 86.460147 
L 313.712507 86.460147 
L 313.712507 86.082619 
L 315.180735 86.082619 
L 315.376499 85.705091 
L 316.942608 85.705091 
L 317.138372 85.516327 
L 317.5299 85.516327 
L 317.725663 85.327563 
L 318.019309 85.327563 
L 318.019309 85.138799 
L 318.900246 84.761271 
L 321.836701 84.761271 
L 321.934583 84.194979 
L 322.130347 84.194979 
L 322.130347 84.006215 
L 323.109165 84.006215 
L 323.207047 83.439923 
L 323.598575 83.439923 
L 323.696457 83.062395 
L 324.871039 83.062395 
L 324.871039 82.873631 
L 325.262566 82.873631 
L 325.262566 82.684867 
L 325.360448 82.684867 
L 325.556212 82.118574 
L 326.535031 82.118574 
L 326.535031 81.92981 
L 326.632912 81.92981 
L 326.926558 81.92981 
L 326.926558 81.741046 
L 327.122322 81.741046 
L 327.122322 81.552282 
L 327.709613 81.552282 
L 327.709613 80.98599 
L 328.786313 80.98599 
L 328.786313 80.797226 
L 329.66725 80.797226 
L 329.66725 80.608462 
L 330.058777 80.608462 
L 330.058777 80.419698 
L 331.429123 80.419698 
L 331.527005 80.230934 
L 331.820651 80.230934 
L 332.016415 80.04217 
L 333.87617 80.04217 
L 334.071934 79.853406 
L 334.95287 79.853406 
L 334.95287 79.664642 
L 335.540161 79.664642 
L 335.540161 79.475878 
L 336.029571 79.475878 
L 336.029571 79.287114 
L 336.616862 79.287114 
L 336.616862 78.909586 
L 337.302035 78.909586 
L 337.497799 78.532058 
L 338.182972 78.532058 
L 338.182972 78.343294 
L 339.553318 78.343294 
L 339.651199 78.154529 
L 339.944845 78.154529 
L 339.944845 77.777001 
L 340.825782 77.777001 
L 341.021545 77.588237 
L 341.315191 77.588237 
L 341.315191 77.399473 
L 341.413073 77.399473 
L 342.196128 77.021945 
L 343.566474 77.021945 
L 343.566474 76.833181 
L 344.251647 76.833181 
L 344.251647 76.644417 
L 345.132583 76.644417 
L 345.132583 76.455653 
L 345.230465 76.455653 
L 345.915638 76.455653 
L 345.915638 76.266889 
L 346.698693 76.266889 
L 346.796575 75.511833 
L 347.188102 75.511833 
L 347.188102 75.323069 
L 347.481748 75.323069 
L 347.481748 75.134305 
L 347.57963 75.134305 
L 347.971157 75.134305 
L 348.166921 74.945541 
L 348.754212 74.945541 
L 349.14574 74.756777 
L 349.537267 74.756777 
L 349.537267 74.568013 
L 349.830913 74.568013 
L 349.830913 74.379249 
L 350.418204 74.379249 
L 350.418204 74.190485 
L 350.613967 74.190485 
L 350.613967 73.812956 
L 350.809731 73.812956 
L 350.809731 73.624192 
L 351.886432 73.624192 
L 352.082195 73.435428 
L 353.35466 73.435428 
L 353.35466 73.246664 
L 353.550423 73.246664 
L 353.648305 73.0579 
L 354.235596 73.0579 
L 354.43136 72.680372 
L 355.312297 72.680372 
L 355.99747 72.302844 
L 356.291115 72.302844 
L 356.388997 72.11408 
L 356.584761 72.11408 
L 356.584761 71.925316 
L 357.367816 71.925316 
L 357.661461 71.736552 
L 358.836044 71.736552 
L 358.933925 71.359024 
L 360.304271 71.359024 
L 360.402153 71.17026 
L 361.087326 71.17026 
L 361.380972 70.981496 
L 362.261909 70.981496 
L 362.261909 70.792732 
L 362.947082 70.792732 
L 363.044963 70.603968 
L 363.632255 70.603968 
L 363.632255 70.415204 
L 364.611073 70.415204 
L 364.611073 70.22644 
L 365.394128 70.22644 
L 365.49201 70.037676 
L 366.177183 70.037676 
L 366.960238 69.848912 
L 367.547529 69.848912 
L 367.547529 69.660147 
L 368.232702 69.660147 
L 368.428466 69.471383 
L 370.092457 69.471383 
L 370.092457 69.093855 
L 370.77763 69.093855 
L 370.77763 68.716327 
L 371.560685 68.716327 
L 371.560685 68.527563 
L 371.854331 68.527563 
L 371.952212 68.338799 
L 372.833149 68.338799 
L 372.833149 68.150035 
L 373.126795 68.150035 
L 373.126795 67.961271 
L 373.616204 67.961271 
L 373.616204 67.772507 
L 373.714086 67.772507 
L 376.454778 67.772507 
L 376.650542 67.583743 
L 377.237833 67.583743 
L 377.237833 67.394979 
L 377.923006 67.394979 
L 378.020888 67.206215 
L 378.901824 67.206215 
L 378.901824 67.017451 
L 381.055225 67.017451 
L 381.544635 66.639923 
L 381.740398 66.639923 
L 382.719217 66.451159 
L 382.719217 66.073631 
L 384.774736 66.073631 
L 384.774736 65.696103 
L 384.872618 65.696103 
L 385.851436 65.696103 
L 386.0472 65.507338 
L 386.438727 65.507338 
L 386.536609 65.318574 
L 387.026019 65.318574 
L 387.026019 65.12981 
L 387.417546 65.12981 
L 387.515428 64.941046 
L 388.200601 64.941046 
L 388.200601 64.752282 
L 392.213757 64.752282 
L 392.213757 64.563518 
L 394.171394 64.563518 
L 394.171394 64.374754 
L 394.954449 64.374754 
L 394.954449 64.18599 
L 396.129031 64.18599 
L 396.324795 63.997226 
L 397.695141 63.997226 
L 397.793023 63.619698 
L 397.890905 63.619698 
L 397.890905 63.430934 
L 398.67396 63.430934 
L 398.67396 63.24217 
L 399.065487 63.24217 
L 399.065487 63.053406 
L 399.261251 63.053406 
L 399.261251 62.864642 
L 402.980761 62.864642 
L 403.078643 62.487114 
L 403.470171 62.487114 
L 403.470171 62.29835 
L 404.448989 62.29835 
L 404.546871 61.732058 
L 405.329926 61.732058 
L 405.623571 61.354529 
L 406.015099 61.354529 
L 406.015099 60.977001 
L 406.406626 60.977001 
L 406.406626 60.788237 
L 406.504508 60.788237 
L 407.091799 60.788237 
L 407.189681 60.410709 
L 408.560027 60.410709 
L 408.755791 60.221945 
L 409.2452 60.221945 
L 409.2452 60.033181 
L 412.37742 60.033181 
L 412.475302 59.844417 
L 413.649884 59.844417 
L 413.649884 59.655653 
L 414.824466 59.655653 
L 414.824466 59.466889 
L 415.509639 59.466889 
L 415.607521 59.278125 
L 416.292694 59.278125 
L 416.292694 59.089361 
L 418.348213 59.089361 
L 418.446095 58.900597 
L 421.088905 58.900597 
L 421.186787 58.523069 
L 421.480432 58.523069 
L 421.578314 58.334305 
L 421.87196 58.334305 
L 421.87196 58.145541 
L 423.242306 58.145541 
L 423.340188 57.956777 
L 424.319006 57.956777 
L 424.416888 57.768013 
L 425.199943 57.768013 
L 425.297825 57.579249 
L 426.472407 57.579249 
L 426.472407 57.390485 
L 427.744871 57.390485 
L 427.842753 57.201721 
L 428.72369 57.201721 
L 428.821572 57.012956 
L 432.93261 57.012956 
L 432.93261 56.824192 
L 433.324137 56.824192 
L 433.324137 56.635428 
L 434.205074 56.635428 
L 434.205074 56.446664 
L 434.792365 56.446664 
L 434.988129 56.2579 
L 435.477538 56.2579 
L 435.477538 56.069136 
L 437.826703 56.069136 
L 437.924585 55.880372 
L 439.294931 55.880372 
L 439.294931 55.691608 
L 440.469513 55.691608 
L 440.469513 55.502844 
L 441.35045 55.502844 
L 441.35045 55.31408 
L 441.448331 55.31408 
L 441.644095 55.31408 
L 441.644095 55.125316 
L 441.839859 55.125316 
L 441.937741 54.936552 
L 442.818677 54.936552 
L 442.818677 54.747788 
L 442.916559 54.747788 
L 452.019572 54.747788 
L 452.019572 54.559024 
L 453.389918 54.559024 
L 453.879327 54.37026 
L 454.172973 54.37026 
L 454.172973 53.992732 
L 454.270855 53.992732 
L 455.543319 53.992732 
L 455.543319 53.803968 
L 456.913665 53.803968 
L 456.913665 53.615204 
L 457.20731 53.615204 
L 457.20731 53.42644 
L 458.969184 53.42644 
L 458.969184 53.237676 
L 459.067066 53.237676 
L 460.143766 53.237676 
L 460.143766 53.048912 
L 461.318348 53.048912 
L 461.318348 52.671383 
L 463.275986 52.671383 
L 463.373868 52.482619 
L 463.863277 52.482619 
L 463.863277 52.293855 
L 466.016678 52.293855 
L 466.016678 52.105091 
L 466.11456 52.105091 
L 469.344661 52.105091 
L 469.344661 51.916327 
L 469.638306 51.916327 
L 469.638306 51.727563 
L 470.127716 51.727563 
L 470.127716 51.538799 
L 470.812889 51.538799 
L 470.812889 51.350035 
L 471.595944 51.350035 
L 471.595944 51.161271 
L 473.651463 51.161271 
L 473.651463 50.972507 
L 473.749344 50.972507 
L 474.04299 50.972507 
L 474.04299 50.783743 
L 475.804863 50.783743 
L 475.804863 50.594979 
L 478.447674 50.594979 
L 478.447674 50.406215 
L 478.545555 50.406215 
L 479.915901 50.406215 
L 480.111665 50.028687 
L 480.698956 50.028687 
L 480.698956 49.839923 
L 485.299404 49.839923 
L 485.397285 49.651159 
L 487.257041 49.651159 
L 487.354923 49.462395 
L 488.529505 49.462395 
L 488.529505 49.273631 
L 488.921032 49.273631 
L 488.921032 49.084867 
L 490.487142 49.084867 
L 490.487142 48.896103 
L 491.857488 48.896103 
L 492.151134 48.707338 
L 494.696062 48.707338 
L 494.696062 48.518574 
L 496.555817 48.518574 
L 496.555817 48.32981 
L 498.121927 48.32981 
L 498.121927 48.141046 
L 498.219809 48.141046 
L 502.624492 48.141046 
L 502.624492 47.952282 
L 503.701193 47.952282 
L 503.799075 47.574754 
L 503.994838 47.574754 
L 503.994838 47.38599 
L 504.875775 47.38599 
L 504.875775 47.197226 
L 507.322822 47.197226 
L 507.322822 47.008462 
L 508.497404 47.008462 
L 508.497404 46.630934 
L 509.476222 46.630934 
L 511.531741 46.44217 
L 515.349134 46.44217 
L 515.349134 46.253406 
L 516.230071 46.253406 
L 516.230071 46.064642 
L 517.404653 46.064642 
L 517.404653 45.875878 
L 517.502535 45.875878 
L 521.515691 45.875878 
L 521.515691 45.687114 
L 522.0051 45.687114 
L 522.200864 45.49835 
L 524.354265 45.49835 
L 525.039438 45.309586 
L 535.317033 45.309586 
L 535.317033 45.120822 
L 540.602653 45.120822 
L 540.602653 44.932058 
L 541.581472 44.932058 
L 541.875117 44.743294 
L 542.168763 44.743294 
L 542.266645 44.554529 
L 546.377683 44.554529 
L 546.573447 44.365765 
L 547.748029 44.365765 
L 547.748029 44.177001 
L 547.845911 44.177001 
L 548.726847 44.177001 
L 548.922611 43.988237 
L 559.787497 43.988237 
L 559.787497 43.799473 
L 561.647253 43.799473 
L 561.940898 43.421945 
L 565.366763 43.421945 
L 565.366763 43.233181 
L 570.848147 43.233181 
L 571.141793 43.044417 
L 576.035886 43.044417 
L 576.035886 42.855653 
L 580.636333 42.855653 
L 581.125742 42.666889 
L 592.773683 42.666889 
L 593.067329 42.478125 
L 684.880511 42.478125 
L 684.880511 42.478125 
" clip-path="url(#pd131422d51)" style="fill: none; stroke: #1f77b4; stroke-width: 1.5; stroke-linecap: square"/>
   </g>
   <g id="line2d_26">
    <path d="M 76.153239 445.678125 
L 76.153239 338.404731 
L 76.889305 338.404731 
L 76.889305 327.307483 
L 79.097506 327.307483 
L 79.833573 323.6084 
L 81.305706 323.6084 
L 81.305706 294.01574 
L 82.77784 294.01574 
L 82.77784 279.219409 
L 89.402442 279.219409 
L 89.402442 275.520327 
L 90.138509 275.520327 
L 90.138509 264.423079 
L 90.874575 264.423079 
L 90.874575 260.723997 
L 92.346709 260.723997 
L 92.346709 257.024914 
L 95.290976 257.024914 
L 95.290976 249.626749 
L 98.235244 249.626749 
L 98.235244 245.927666 
L 100.443444 245.927666 
L 100.443444 242.228584 
L 104.123778 242.228584 
L 104.123778 234.830419 
L 112.95658 234.830419 
L 112.95658 231.131336 
L 123.997583 231.131336 
L 123.997583 227.432253 
L 127.677917 227.432253 
L 127.677917 223.733171 
L 129.886118 223.733171 
L 129.886118 220.034088 
L 140.191053 220.034088 
L 140.191053 212.635923 
L 140.92712 212.635923 
L 140.92712 208.936841 
L 143.135321 208.936841 
L 143.135321 205.237758 
L 145.343521 205.237758 
L 145.343521 201.538675 
L 149.759922 201.538675 
L 149.759922 197.839593 
L 150.495989 197.839593 
L 151.232056 194.14051 
L 154.91239 194.14051 
L 154.91239 190.441428 
L 157.120591 190.441428 
L 158.592724 186.742345 
L 158.592724 179.34418 
L 163.009125 179.34418 
L 163.009125 175.645097 
L 164.481259 175.645097 
L 164.481259 171.946015 
L 168.161593 171.946015 
L 169.633727 168.246932 
L 177.730462 168.246932 
L 177.730462 164.54785 
L 191.715732 164.54785 
L 191.715732 157.149685 
L 192.451799 157.149685 
L 192.451799 153.450602 
L 201.284601 153.450602 
L 201.284601 149.751519 
L 204.228868 149.751519 
L 204.228868 146.052437 
L 207.173135 146.052437 
L 210.853469 134.955189 
L 215.26987 134.955189 
L 215.26987 131.256107 
L 217.478071 131.256107 
L 218.214138 127.557024 
L 218.214138 123.857942 
L 221.894472 123.857942 
L 221.894472 120.158859 
L 222.630539 116.459776 
L 229.991207 116.459776 
L 229.991207 112.760694 
L 233.671541 112.760694 
L 233.671541 109.061611 
L 235.879742 109.061611 
L 235.879742 105.362529 
L 237.351876 105.362529 
L 238.087942 101.663446 
L 250.601079 101.663446 
L 250.601079 97.964364 
L 295.501156 97.964364 
L 296.237222 94.265281 
L 304.333958 94.265281 
L 304.333958 90.566198 
L 305.070024 90.566198 
L 305.070024 86.867116 
L 328.624163 86.867116 
L 328.624163 83.168033 
L 330.832364 83.168033 
L 330.832364 79.468951 
L 370.579973 79.468951 
L 370.579973 75.769868 
L 381.620975 75.769868 
L 381.620975 72.070786 
L 383.093109 72.070786 
L 383.093109 68.371703 
L 388.245577 68.371703 
L 388.245577 64.67262 
L 403.70298 64.67262 
L 403.70298 60.973538 
L 411.799715 60.973538 
L 411.799715 57.274455 
L 415.48005 57.274455 
L 415.48005 53.575373 
L 422.104651 53.575373 
L 422.104651 49.87629 
L 441.242389 49.87629 
L 441.242389 46.177208 
L 450.075191 46.177208 
L 450.811258 42.478125 
L 684.880511 42.478125 
L 684.880511 42.478125 
" clip-path="url(#pd131422d51)" style="fill: none; stroke: #ff7f0e; stroke-width: 1.5; stroke-linecap: square"/>
   </g>
   <g id="line2d_27">
    <path d="M 76.153239 445.678125 
L 76.153239 440.302125 
L 76.153239 332.782125 
L 78.870771 332.782125 
L 78.870771 316.654125 
L 84.305836 316.654125 
L 84.305836 311.278125 
L 87.023369 311.278125 
L 87.023369 300.526125 
L 87.023369 289.774125 
L 92.458433 289.774125 
L 92.458433 273.646125 
L 95.175966 273.646125 
L 95.175966 268.270125 
L 100.611031 268.270125 
L 100.611031 257.518125 
L 103.328563 257.518125 
L 103.328563 252.142125 
L 111.481161 252.142125 
L 111.481161 246.766125 
L 114.198693 246.766125 
L 114.198693 241.390125 
L 119.633758 241.390125 
L 125.068823 236.014125 
L 125.068823 230.638125 
L 127.786356 230.638125 
L 127.786356 225.262125 
L 130.503888 225.262125 
L 130.503888 219.886125 
L 138.656485 219.886125 
L 138.656485 209.134125 
L 141.374018 209.134125 
L 141.374018 203.758125 
L 152.244148 203.758125 
L 152.244148 198.382125 
L 154.96168 198.382125 
L 154.96168 193.006125 
L 160.396745 193.006125 
L 160.396745 187.630125 
L 182.137005 187.630125 
L 182.137005 182.254125 
L 193.007135 182.254125 
L 193.007135 171.502125 
L 212.029862 171.502125 
L 212.029862 160.750125 
L 217.464927 160.750125 
L 220.182459 155.374125 
L 222.899992 155.374125 
L 222.899992 149.998125 
L 247.357784 149.998125 
L 247.357784 133.870125 
L 269.098044 133.870125 
L 269.098044 117.742125 
L 271.815576 117.742125 
L 271.815576 106.990125 
L 288.120771 106.990125 
L 293.555836 106.990125 
L 293.555836 101.614125 
L 315.296096 101.614125 
L 315.296096 96.238125 
L 323.448693 96.238125 
L 331.601291 96.238125 
L 331.601291 90.862125 
L 334.318823 90.862125 
L 334.318823 85.486125 
L 350.624018 85.486125 
L 350.624018 80.110125 
L 358.776615 80.110125 
L 364.21168 80.110125 
L 364.21168 74.734125 
L 377.799343 74.734125 
L 377.799343 69.358125 
L 448.455187 69.358125 
L 448.455187 63.982125 
L 464.760381 63.982125 
L 464.760381 58.606125 
L 486.500641 58.606125 
L 491.935706 58.606125 
L 513.675966 58.606125 
L 513.675966 53.230125 
L 521.828563 53.230125 
L 532.698693 53.230125 
L 557.156485 53.230125 
L 557.156485 47.854125 
L 589.766875 47.854125 
L 589.766875 42.478125 
L 606.07207 42.478125 
L 611.507135 42.478125 
L 684.880511 42.478125 
" clip-path="url(#pd131422d51)" style="fill: none; stroke: #2ca02c; stroke-width: 1.5; stroke-linecap: square"/>
   </g>
   <g id="line2d_28">
    <path d="M 76.153239 445.678125 
L 76.153239 395.278125 
L 98.155429 395.278125 
L 112.823556 395.278125 
L 149.493874 395.278125 
L 149.493874 344.878125 
L 237.502636 344.878125 
L 237.502636 294.478125 
L 259.504827 294.478125 
L 259.504827 244.078125 
L 274.172954 244.078125 
L 354.847653 244.078125 
L 354.847653 193.678125 
L 362.181716 193.678125 
L 362.181716 143.278125 
L 435.522351 143.278125 
L 435.522351 92.878125 
L 501.528923 92.878125 
L 516.19705 92.878125 
L 560.201431 92.878125 
L 560.201431 42.478125 
L 684.880511 42.478125 
" clip-path="url(#pd131422d51)" style="fill: none; stroke: #d62728; stroke-width: 1.5; stroke-linecap: square"/>
   </g>
   <g id="line2d_29">
    <path d="M 76.153239 445.678125 
L 76.153239 405.358125 
L 76.153239 244.078125 
L 91.76163 244.078125 
L 91.76163 203.758125 
L 99.565826 203.758125 
L 99.565826 163.438125 
L 154.195197 163.438125 
L 154.195197 123.118125 
L 161.999392 123.118125 
L 161.999392 82.798125 
L 240.041351 82.798125 
L 240.041351 42.478125 
L 684.880511 42.478125 
" clip-path="url(#pd131422d51)" style="fill: none; stroke: #9467bd; stroke-width: 1.5; stroke-linecap: square"/>
   </g>
   <g id="line2d_30">
    <path d="M 76.153239 445.678125 
L 684.880511 42.478125 
" clip-path="url(#pd131422d51)" style="fill: none; stroke-dasharray: 7.4,3.2; stroke-dashoffset: 0; stroke: #808080; stroke-width: 2"/>
   </g>
   <g id="patch_3">
    <path d="M 45.716875 465.838125 
L 45.716875 22.318125 
" style="fill: none; stroke: #000000; stroke-width: 0.8; stroke-linejoin: miter; stroke-linecap: square"/>
   </g>
   <g id="patch_4">
    <path d="M 715.316875 465.838125 
L 715.316875 22.318125 
" style="fill: none; stroke: #000000; stroke-width: 0.8; stroke-linejoin: miter; stroke-linecap: square"/>
   </g>
   <g id="patch_5">
    <path d="M 45.716875 465.838125 
L 715.316875 465.838125 
" style="fill: none; stroke: #000000; stroke-width: 0.8; stroke-linejoin: miter; stroke-linecap: square"/>
   </g>
   <g id="patch_6">
    <path d="M 45.716875 22.318125 
L 715.316875 22.318125 
" style="fill: none; stroke: #000000; stroke-width: 0.8; stroke-linejoin: miter; stroke-linecap: square"/>
   </g>
   <g id="text_15">
    <!-- ROC Curve: Decision Tree Classifier -->
    <g transform="translate(274.65625 16.318125) scale(0.12 -0.12)">
     <defs>
      <path id="DejaVuSans-4f" d="M 2522 4238 
Q 1834 4238 1429 3725 
Q 1025 3213 1025 2328 
Q 1025 1447 1429 934 
Q 1834 422 2522 422 
Q 3209 422 3611 934 
Q 4013 1447 4013 2328 
Q 4013 3213 3611 3725 
Q 3209 4238 2522 4238 
z
M 2522 4750 
Q 3503 4750 4090 4092 
Q 4678 3434 4678 2328 
Q 4678 1225 4090 567 
Q 3503 -91 2522 -91 
Q 1538 -91 948 565 
Q 359 1222 359 2328 
Q 359 3434 948 4092 
Q 1538 4750 2522 4750 
z
" transform="scale(0.015625)"/>
      <path id="DejaVuSans-43" d="M 4122 4306 
L 4122 3641 
Q 3803 3938 3442 4084 
Q 3081 4231 2675 4231 
Q 1875 4231 1450 3742 
Q 1025 3253 1025 2328 
Q 1025 1406 1450 917 
Q 1875 428 2675 428 
Q 3081 428 3442 575 
Q 3803 722 4122 1019 
L 4122 359 
Q 3791 134 3420 21 
Q 3050 -91 2638 -91 
Q 1578 -91 968 557 
Q 359 1206 359 2328 
Q 359 3453 968 4101 
Q 1578 4750 2638 4750 
Q 3056 4750 3426 4639 
Q 3797 4528 4122 4306 
z
" transform="scale(0.015625)"/>
      <path id="DejaVuSans-3a" d="M 750 794 
L 1409 794 
L 1409 0 
L 750 0 
L 750 794 
z
M 750 3309 
L 1409 3309 
L 1409 2516 
L 750 2516 
L 750 3309 
z
" transform="scale(0.015625)"/>
      <path id="DejaVuSans-44" d="M 1259 4147 
L 1259 519 
L 2022 519 
Q 2988 519 3436 956 
Q 3884 1394 3884 2338 
Q 3884 3275 3436 3711 
Q 2988 4147 2022 4147 
L 1259 4147 
z
M 628 4666 
L 1925 4666 
Q 3281 4666 3915 4102 
Q 4550 3538 4550 2338 
Q 4550 1131 3912 565 
Q 3275 0 1925 0 
L 628 0 
L 628 4666 
z
" transform="scale(0.015625)"/>
      <path id="DejaVuSans-63" d="M 3122 3366 
L 3122 2828 
Q 2878 2963 2633 3030 
Q 2388 3097 2138 3097 
Q 1578 3097 1268 2742 
Q 959 2388 959 1747 
Q 959 1106 1268 751 
Q 1578 397 2138 397 
Q 2388 397 2633 464 
Q 2878 531 3122 666 
L 3122 134 
Q 2881 22 2623 -34 
Q 2366 -91 2075 -91 
Q 1284 -91 818 406 
Q 353 903 353 1747 
Q 353 2603 823 3093 
Q 1294 3584 2113 3584 
Q 2378 3584 2631 3529 
Q 2884 3475 3122 3366 
z
" transform="scale(0.015625)"/>
      <path id="DejaVuSans-6e" d="M 3513 2113 
L 3513 0 
L 2938 0 
L 2938 2094 
Q 2938 2591 2744 2837 
Q 2550 3084 2163 3084 
Q 1697 3084 1428 2787 
Q 1159 2491 1159 1978 
L 1159 0 
L 581 0 
L 581 3500 
L 1159 3500 
L 1159 2956 
Q 1366 3272 1645 3428 
Q 1925 3584 2291 3584 
Q 2894 3584 3203 3211 
Q 3513 2838 3513 2113 
z
" transform="scale(0.015625)"/>
      <path id="DejaVuSans-66" d="M 2375 4863 
L 2375 4384 
L 1825 4384 
Q 1516 4384 1395 4259 
Q 1275 4134 1275 3809 
L 1275 3500 
L 2222 3500 
L 2222 3053 
L 1275 3053 
L 1275 0 
L 697 0 
L 697 3053 
L 147 3053 
L 147 3500 
L 697 3500 
L 697 3744 
Q 697 4328 969 4595 
Q 1241 4863 1831 4863 
L 2375 4863 
z
" transform="scale(0.015625)"/>
     </defs>
     <use xlink:href="#DejaVuSans-52"/>
     <use xlink:href="#DejaVuSans-4f" x="69.482422"/>
     <use xlink:href="#DejaVuSans-43" x="148.193359"/>
     <use xlink:href="#DejaVuSans-20" x="218.017578"/>
     <use xlink:href="#DejaVuSans-43" x="249.804688"/>
     <use xlink:href="#DejaVuSans-75" x="319.628906"/>
     <use xlink:href="#DejaVuSans-72" x="383.007812"/>
     <use xlink:href="#DejaVuSans-76" x="424.121094"/>
     <use xlink:href="#DejaVuSans-65" x="483.300781"/>
     <use xlink:href="#DejaVuSans-3a" x="544.824219"/>
     <use xlink:href="#DejaVuSans-20" x="578.515625"/>
     <use xlink:href="#DejaVuSans-44" x="610.302734"/>
     <use xlink:href="#DejaVuSans-65" x="687.304688"/>
     <use xlink:href="#DejaVuSans-63" x="748.828125"/>
     <use xlink:href="#DejaVuSans-69" x="803.808594"/>
     <use xlink:href="#DejaVuSans-73" x="831.591797"/>
     <use xlink:href="#DejaVuSans-69" x="883.691406"/>
     <use xlink:href="#DejaVuSans-6f" x="911.474609"/>
     <use xlink:href="#DejaVuSans-6e" x="972.65625"/>
     <use xlink:href="#DejaVuSans-20" x="1036.035156"/>
     <use xlink:href="#DejaVuSans-54" x="1067.822266"/>
     <use xlink:href="#DejaVuSans-72" x="1114.15625"/>
     <use xlink:href="#DejaVuSans-65" x="1153.019531"/>
     <use xlink:href="#DejaVuSans-65" x="1214.542969"/>
     <use xlink:href="#DejaVuSans-20" x="1276.066406"/>
     <use xlink:href="#DejaVuSans-43" x="1307.853516"/>
     <use xlink:href="#DejaVuSans-6c" x="1377.677734"/>
     <use xlink:href="#DejaVuSans-61" x="1405.460938"/>
     <use xlink:href="#DejaVuSans-73" x="1466.740234"/>
     <use xlink:href="#DejaVuSans-73" x="1518.839844"/>
     <use xlink:href="#DejaVuSans-69" x="1570.939453"/>
     <use xlink:href="#DejaVuSans-66" x="1598.722656"/>
     <use xlink:href="#DejaVuSans-69" x="1633.927734"/>
     <use xlink:href="#DejaVuSans-65" x="1661.710938"/>
     <use xlink:href="#DejaVuSans-72" x="1723.234375"/>
    </g>
   </g>
   <g id="legend_1">
    <g id="patch_7">
     <path d="M 201.384063 628.434875 
L 559.649688 628.434875 
Q 561.649688 628.434875 561.649688 626.434875 
L 561.649688 539.366125 
Q 561.649688 537.366125 559.649688 537.366125 
L 201.384063 537.366125 
Q 199.384063 537.366125 199.384063 539.366125 
L 199.384063 626.434875 
Q 199.384063 628.434875 201.384063 628.434875 
z
" style="fill: #ffffff; opacity: 0.8; stroke: #cccccc; stroke-linejoin: miter"/>
    </g>
    <g id="line2d_31">
     <path d="M 203.384063 545.464562 
L 213.384063 545.464562 
L 223.384063 545.464562 
" style="fill: none; stroke: #1f77b4; stroke-width: 1.5; stroke-linecap: square"/>
    </g>
    <g id="text_16">
     <!-- AUC for White = 0.86, Count: 8,355, Pos: 2,136, Neg: 6,219 -->
     <g transform="translate(231.384063 548.964562) scale(0.1 -0.1)">
      <defs>
       <path id="DejaVuSans-41" d="M 2188 4044 
L 1331 1722 
L 3047 1722 
L 2188 4044 
z
M 1831 4666 
L 2547 4666 
L 4325 0 
L 3669 0 
L 3244 1197 
L 1141 1197 
L 716 0 
L 50 0 
L 1831 4666 
z
" transform="scale(0.015625)"/>
       <path id="DejaVuSans-55" d="M 556 4666 
L 1191 4666 
L 1191 1831 
Q 1191 1081 1462 751 
Q 1734 422 2344 422 
Q 2950 422 3222 751 
Q 3494 1081 3494 1831 
L 3494 4666 
L 4128 4666 
L 4128 1753 
Q 4128 841 3676 375 
Q 3225 -91 2344 -91 
Q 1459 -91 1007 375 
Q 556 841 556 1753 
L 556 4666 
z
" transform="scale(0.015625)"/>
       <path id="DejaVuSans-57" d="M 213 4666 
L 850 4666 
L 1831 722 
L 2809 4666 
L 3519 4666 
L 4500 722 
L 5478 4666 
L 6119 4666 
L 4947 0 
L 4153 0 
L 3169 4050 
L 2175 0 
L 1381 0 
L 213 4666 
z
" transform="scale(0.015625)"/>
       <path id="DejaVuSans-68" d="M 3513 2113 
L 3513 0 
L 2938 0 
L 2938 2094 
Q 2938 2591 2744 2837 
Q 2550 3084 2163 3084 
Q 1697 3084 1428 2787 
Q 1159 2491 1159 1978 
L 1159 0 
L 581 0 
L 581 4863 
L 1159 4863 
L 1159 2956 
Q 1366 3272 1645 3428 
Q 1925 3584 2291 3584 
Q 2894 3584 3203 3211 
Q 3513 2838 3513 2113 
z
" transform="scale(0.015625)"/>
       <path id="DejaVuSans-3d" d="M 678 2906 
L 4684 2906 
L 4684 2381 
L 678 2381 
L 678 2906 
z
M 678 1631 
L 4684 1631 
L 4684 1100 
L 678 1100 
L 678 1631 
z
" transform="scale(0.015625)"/>
       <path id="DejaVuSans-2c" d="M 750 794 
L 1409 794 
L 1409 256 
L 897 -744 
L 494 -744 
L 750 256 
L 750 794 
z
" transform="scale(0.015625)"/>
       <path id="DejaVuSans-33" d="M 2597 2516 
Q 3050 2419 3304 2112 
Q 3559 1806 3559 1356 
Q 3559 666 3084 287 
Q 2609 -91 1734 -91 
Q 1441 -91 1130 -33 
Q 819 25 488 141 
L 488 750 
Q 750 597 1062 519 
Q 1375 441 1716 441 
Q 2309 441 2620 675 
Q 2931 909 2931 1356 
Q 2931 1769 2642 2001 
Q 2353 2234 1838 2234 
L 1294 2234 
L 1294 2753 
L 1863 2753 
Q 2328 2753 2575 2939 
Q 2822 3125 2822 3475 
Q 2822 3834 2567 4026 
Q 2313 4219 1838 4219 
Q 1578 4219 1281 4162 
Q 984 4106 628 3988 
L 628 4550 
Q 988 4650 1302 4700 
Q 1616 4750 1894 4750 
Q 2613 4750 3031 4423 
Q 3450 4097 3450 3541 
Q 3450 3153 3228 2886 
Q 3006 2619 2597 2516 
z
" transform="scale(0.015625)"/>
       <path id="DejaVuSans-35" d="M 691 4666 
L 3169 4666 
L 3169 4134 
L 1269 4134 
L 1269 2991 
Q 1406 3038 1543 3061 
Q 1681 3084 1819 3084 
Q 2600 3084 3056 2656 
Q 3513 2228 3513 1497 
Q 3513 744 3044 326 
Q 2575 -91 1722 -91 
Q 1428 -91 1123 -41 
Q 819 9 494 109 
L 494 744 
Q 775 591 1075 516 
Q 1375 441 1709 441 
Q 2250 441 2565 725 
Q 2881 1009 2881 1497 
Q 2881 1984 2565 2268 
Q 2250 2553 1709 2553 
Q 1456 2553 1204 2497 
Q 953 2441 691 2322 
L 691 4666 
z
" transform="scale(0.015625)"/>
       <path id="DejaVuSans-4e" d="M 628 4666 
L 1478 4666 
L 3547 763 
L 3547 4666 
L 4159 4666 
L 4159 0 
L 3309 0 
L 1241 3903 
L 1241 0 
L 628 0 
L 628 4666 
z
" transform="scale(0.015625)"/>
       <path id="DejaVuSans-67" d="M 2906 1791 
Q 2906 2416 2648 2759 
Q 2391 3103 1925 3103 
Q 1463 3103 1205 2759 
Q 947 2416 947 1791 
Q 947 1169 1205 825 
Q 1463 481 1925 481 
Q 2391 481 2648 825 
Q 2906 1169 2906 1791 
z
M 3481 434 
Q 3481 -459 3084 -895 
Q 2688 -1331 1869 -1331 
Q 1566 -1331 1297 -1286 
Q 1028 -1241 775 -1147 
L 775 -588 
Q 1028 -725 1275 -790 
Q 1522 -856 1778 -856 
Q 2344 -856 2625 -561 
Q 2906 -266 2906 331 
L 2906 616 
Q 2728 306 2450 153 
Q 2172 0 1784 0 
Q 1141 0 747 490 
Q 353 981 353 1791 
Q 353 2603 747 3093 
Q 1141 3584 1784 3584 
Q 2172 3584 2450 3431 
Q 2728 3278 2906 2969 
L 2906 3500 
L 3481 3500 
L 3481 434 
z
" transform="scale(0.015625)"/>
       <path id="DejaVuSans-39" d="M 703 97 
L 703 672 
Q 941 559 1184 500 
Q 1428 441 1663 441 
Q 2288 441 2617 861 
Q 2947 1281 2994 2138 
Q 2813 1869 2534 1725 
Q 2256 1581 1919 1581 
Q 1219 1581 811 2004 
Q 403 2428 403 3163 
Q 403 3881 828 4315 
Q 1253 4750 1959 4750 
Q 2769 4750 3195 4129 
Q 3622 3509 3622 2328 
Q 3622 1225 3098 567 
Q 2575 -91 1691 -91 
Q 1453 -91 1209 -44 
Q 966 3 703 97 
z
M 1959 2075 
Q 2384 2075 2632 2365 
Q 2881 2656 2881 3163 
Q 2881 3666 2632 3958 
Q 2384 4250 1959 4250 
Q 1534 4250 1286 3958 
Q 1038 3666 1038 3163 
Q 1038 2656 1286 2365 
Q 1534 2075 1959 2075 
z
" transform="scale(0.015625)"/>
      </defs>
      <use xlink:href="#DejaVuSans-41"/>
      <use xlink:href="#DejaVuSans-55" x="68.408203"/>
      <use xlink:href="#DejaVuSans-43" x="141.601562"/>
      <use xlink:href="#DejaVuSans-20" x="211.425781"/>
      <use xlink:href="#DejaVuSans-66" x="243.212891"/>
      <use xlink:href="#DejaVuSans-6f" x="278.417969"/>
      <use xlink:href="#DejaVuSans-72" x="339.599609"/>
      <use xlink:href="#DejaVuSans-20" x="380.712891"/>
      <use xlink:href="#DejaVuSans-57" x="412.5"/>
      <use xlink:href="#DejaVuSans-68" x="511.376953"/>
      <use xlink:href="#DejaVuSans-69" x="574.755859"/>
      <use xlink:href="#DejaVuSans-74" x="602.539062"/>
      <use xlink:href="#DejaVuSans-65" x="641.748047"/>
      <use xlink:href="#DejaVuSans-20" x="703.271484"/>
      <use xlink:href="#DejaVuSans-3d" x="735.058594"/>
      <use xlink:href="#DejaVuSans-20" x="818.847656"/>
      <use xlink:href="#DejaVuSans-30" x="850.634766"/>
      <use xlink:href="#DejaVuSans-2e" x="914.257812"/>
      <use xlink:href="#DejaVuSans-38" x="946.044922"/>
      <use xlink:href="#DejaVuSans-36" x="1009.667969"/>
      <use xlink:href="#DejaVuSans-2c" x="1073.291016"/>
      <use xlink:href="#DejaVuSans-20" x="1105.078125"/>
      <use xlink:href="#DejaVuSans-43" x="1136.865234"/>
      <use xlink:href="#DejaVuSans-6f" x="1206.689453"/>
      <use xlink:href="#DejaVuSans-75" x="1267.871094"/>
      <use xlink:href="#DejaVuSans-6e" x="1331.25"/>
      <use xlink:href="#DejaVuSans-74" x="1394.628906"/>
      <use xlink:href="#DejaVuSans-3a" x="1433.837891"/>
      <use xlink:href="#DejaVuSans-20" x="1467.529297"/>
      <use xlink:href="#DejaVuSans-38" x="1499.316406"/>
      <use xlink:href="#DejaVuSans-2c" x="1562.939453"/>
      <use xlink:href="#DejaVuSans-33" x="1594.726562"/>
      <use xlink:href="#DejaVuSans-35" x="1658.349609"/>
      <use xlink:href="#DejaVuSans-35" x="1721.972656"/>
      <use xlink:href="#DejaVuSans-2c" x="1785.595703"/>
      <use xlink:href="#DejaVuSans-20" x="1817.382812"/>
      <use xlink:href="#DejaVuSans-50" x="1849.169922"/>
      <use xlink:href="#DejaVuSans-6f" x="1905.847656"/>
      <use xlink:href="#DejaVuSans-73" x="1967.029297"/>
      <use xlink:href="#DejaVuSans-3a" x="2019.128906"/>
      <use xlink:href="#DejaVuSans-20" x="2052.820312"/>
      <use xlink:href="#DejaVuSans-32" x="2084.607422"/>
      <use xlink:href="#DejaVuSans-2c" x="2148.230469"/>
      <use xlink:href="#DejaVuSans-31" x="2180.017578"/>
      <use xlink:href="#DejaVuSans-33" x="2243.640625"/>
      <use xlink:href="#DejaVuSans-36" x="2307.263672"/>
      <use xlink:href="#DejaVuSans-2c" x="2370.886719"/>
      <use xlink:href="#DejaVuSans-20" x="2402.673828"/>
      <use xlink:href="#DejaVuSans-4e" x="2434.460938"/>
      <use xlink:href="#DejaVuSans-65" x="2509.265625"/>
      <use xlink:href="#DejaVuSans-67" x="2570.789062"/>
      <use xlink:href="#DejaVuSans-3a" x="2634.265625"/>
      <use xlink:href="#DejaVuSans-20" x="2667.957031"/>
      <use xlink:href="#DejaVuSans-36" x="2699.744141"/>
      <use xlink:href="#DejaVuSans-2c" x="2763.367188"/>
      <use xlink:href="#DejaVuSans-32" x="2795.154297"/>
      <use xlink:href="#DejaVuSans-31" x="2858.777344"/>
      <use xlink:href="#DejaVuSans-39" x="2922.400391"/>
     </g>
    </g>
    <g id="line2d_32">
     <path d="M 203.384063 560.142687 
L 213.384063 560.142687 
L 223.384063 560.142687 
" style="fill: none; stroke: #ff7f0e; stroke-width: 1.5; stroke-linecap: square"/>
    </g>
    <g id="text_17">
     <!-- AUC for Black = 0.87, Count: 936, Pos: 109, Neg: 827 -->
     <g transform="translate(231.384063 563.642687) scale(0.1 -0.1)">
      <defs>
       <path id="DejaVuSans-42" d="M 1259 2228 
L 1259 519 
L 2272 519 
Q 2781 519 3026 730 
Q 3272 941 3272 1375 
Q 3272 1813 3026 2020 
Q 2781 2228 2272 2228 
L 1259 2228 
z
M 1259 4147 
L 1259 2741 
L 2194 2741 
Q 2656 2741 2882 2914 
Q 3109 3088 3109 3444 
Q 3109 3797 2882 3972 
Q 2656 4147 2194 4147 
L 1259 4147 
z
M 628 4666 
L 2241 4666 
Q 2963 4666 3353 4366 
Q 3744 4066 3744 3513 
Q 3744 3084 3544 2831 
Q 3344 2578 2956 2516 
Q 3422 2416 3680 2098 
Q 3938 1781 3938 1306 
Q 3938 681 3513 340 
Q 3088 0 2303 0 
L 628 0 
L 628 4666 
z
" transform="scale(0.015625)"/>
       <path id="DejaVuSans-6b" d="M 581 4863 
L 1159 4863 
L 1159 1991 
L 2875 3500 
L 3609 3500 
L 1753 1863 
L 3688 0 
L 2938 0 
L 1159 1709 
L 1159 0 
L 581 0 
L 581 4863 
z
" transform="scale(0.015625)"/>
       <path id="DejaVuSans-37" d="M 525 4666 
L 3525 4666 
L 3525 4397 
L 1831 0 
L 1172 0 
L 2766 4134 
L 525 4134 
L 525 4666 
z
" transform="scale(0.015625)"/>
      </defs>
      <use xlink:href="#DejaVuSans-41"/>
      <use xlink:href="#DejaVuSans-55" x="68.408203"/>
      <use xlink:href="#DejaVuSans-43" x="141.601562"/>
      <use xlink:href="#DejaVuSans-20" x="211.425781"/>
      <use xlink:href="#DejaVuSans-66" x="243.212891"/>
      <use xlink:href="#DejaVuSans-6f" x="278.417969"/>
      <use xlink:href="#DejaVuSans-72" x="339.599609"/>
      <use xlink:href="#DejaVuSans-20" x="380.712891"/>
      <use xlink:href="#DejaVuSans-42" x="412.5"/>
      <use xlink:href="#DejaVuSans-6c" x="481.103516"/>
      <use xlink:href="#DejaVuSans-61" x="508.886719"/>
      <use xlink:href="#DejaVuSans-63" x="570.166016"/>
      <use xlink:href="#DejaVuSans-6b" x="625.146484"/>
      <use xlink:href="#DejaVuSans-20" x="683.056641"/>
      <use xlink:href="#DejaVuSans-3d" x="714.84375"/>
      <use xlink:href="#DejaVuSans-20" x="798.632812"/>
      <use xlink:href="#DejaVuSans-30" x="830.419922"/>
      <use xlink:href="#DejaVuSans-2e" x="894.042969"/>
      <use xlink:href="#DejaVuSans-38" x="925.830078"/>
      <use xlink:href="#DejaVuSans-37" x="989.453125"/>
      <use xlink:href="#DejaVuSans-2c" x="1053.076172"/>
      <use xlink:href="#DejaVuSans-20" x="1084.863281"/>
      <use xlink:href="#DejaVuSans-43" x="1116.650391"/>
      <use xlink:href="#DejaVuSans-6f" x="1186.474609"/>
      <use xlink:href="#DejaVuSans-75" x="1247.65625"/>
      <use xlink:href="#DejaVuSans-6e" x="1311.035156"/>
      <use xlink:href="#DejaVuSans-74" x="1374.414062"/>
      <use xlink:href="#DejaVuSans-3a" x="1413.623047"/>
      <use xlink:href="#DejaVuSans-20" x="1447.314453"/>
      <use xlink:href="#DejaVuSans-39" x="1479.101562"/>
      <use xlink:href="#DejaVuSans-33" x="1542.724609"/>
      <use xlink:href="#DejaVuSans-36" x="1606.347656"/>
      <use xlink:href="#DejaVuSans-2c" x="1669.970703"/>
      <use xlink:href="#DejaVuSans-20" x="1701.757812"/>
      <use xlink:href="#DejaVuSans-50" x="1733.544922"/>
      <use xlink:href="#DejaVuSans-6f" x="1790.222656"/>
      <use xlink:href="#DejaVuSans-73" x="1851.404297"/>
      <use xlink:href="#DejaVuSans-3a" x="1903.503906"/>
      <use xlink:href="#DejaVuSans-20" x="1937.195312"/>
      <use xlink:href="#DejaVuSans-31" x="1968.982422"/>
      <use xlink:href="#DejaVuSans-30" x="2032.605469"/>
      <use xlink:href="#DejaVuSans-39" x="2096.228516"/>
      <use xlink:href="#DejaVuSans-2c" x="2159.851562"/>
      <use xlink:href="#DejaVuSans-20" x="2191.638672"/>
      <use xlink:href="#DejaVuSans-4e" x="2223.425781"/>
      <use xlink:href="#DejaVuSans-65" x="2298.230469"/>
      <use xlink:href="#DejaVuSans-67" x="2359.753906"/>
      <use xlink:href="#DejaVuSans-3a" x="2423.230469"/>
      <use xlink:href="#DejaVuSans-20" x="2456.921875"/>
      <use xlink:href="#DejaVuSans-38" x="2488.708984"/>
      <use xlink:href="#DejaVuSans-32" x="2552.332031"/>
      <use xlink:href="#DejaVuSans-37" x="2615.955078"/>
     </g>
    </g>
    <g id="line2d_33">
     <path d="M 203.384063 574.820812 
L 213.384063 574.820812 
L 223.384063 574.820812 
" style="fill: none; stroke: #2ca02c; stroke-width: 1.5; stroke-linecap: square"/>
    </g>
    <g id="text_18">
     <!-- AUC for Asian-Pac-Islander = 0.84, Count: 299, Pos: 75, Neg: 224 -->
     <g transform="translate(231.384063 578.320812) scale(0.1 -0.1)">
      <defs>
       <path id="DejaVuSans-2d" d="M 313 2009 
L 1997 2009 
L 1997 1497 
L 313 1497 
L 313 2009 
z
" transform="scale(0.015625)"/>
       <path id="DejaVuSans-49" d="M 628 4666 
L 1259 4666 
L 1259 0 
L 628 0 
L 628 4666 
z
" transform="scale(0.015625)"/>
       <path id="DejaVuSans-64" d="M 2906 2969 
L 2906 4863 
L 3481 4863 
L 3481 0 
L 2906 0 
L 2906 525 
Q 2725 213 2448 61 
Q 2172 -91 1784 -91 
Q 1150 -91 751 415 
Q 353 922 353 1747 
Q 353 2572 751 3078 
Q 1150 3584 1784 3584 
Q 2172 3584 2448 3432 
Q 2725 3281 2906 2969 
z
M 947 1747 
Q 947 1113 1208 752 
Q 1469 391 1925 391 
Q 2381 391 2643 752 
Q 2906 1113 2906 1747 
Q 2906 2381 2643 2742 
Q 2381 3103 1925 3103 
Q 1469 3103 1208 2742 
Q 947 2381 947 1747 
z
" transform="scale(0.015625)"/>
      </defs>
      <use xlink:href="#DejaVuSans-41"/>
      <use xlink:href="#DejaVuSans-55" x="68.408203"/>
      <use xlink:href="#DejaVuSans-43" x="141.601562"/>
      <use xlink:href="#DejaVuSans-20" x="211.425781"/>
      <use xlink:href="#DejaVuSans-66" x="243.212891"/>
      <use xlink:href="#DejaVuSans-6f" x="278.417969"/>
      <use xlink:href="#DejaVuSans-72" x="339.599609"/>
      <use xlink:href="#DejaVuSans-20" x="380.712891"/>
      <use xlink:href="#DejaVuSans-41" x="412.5"/>
      <use xlink:href="#DejaVuSans-73" x="480.908203"/>
      <use xlink:href="#DejaVuSans-69" x="533.007812"/>
      <use xlink:href="#DejaVuSans-61" x="560.791016"/>
      <use xlink:href="#DejaVuSans-6e" x="622.070312"/>
      <use xlink:href="#DejaVuSans-2d" x="685.449219"/>
      <use xlink:href="#DejaVuSans-50" x="721.533203"/>
      <use xlink:href="#DejaVuSans-61" x="777.335938"/>
      <use xlink:href="#DejaVuSans-63" x="838.615234"/>
      <use xlink:href="#DejaVuSans-2d" x="893.595703"/>
      <use xlink:href="#DejaVuSans-49" x="929.679688"/>
      <use xlink:href="#DejaVuSans-73" x="959.171875"/>
      <use xlink:href="#DejaVuSans-6c" x="1011.271484"/>
      <use xlink:href="#DejaVuSans-61" x="1039.054688"/>
      <use xlink:href="#DejaVuSans-6e" x="1100.333984"/>
      <use xlink:href="#DejaVuSans-64" x="1163.712891"/>
      <use xlink:href="#DejaVuSans-65" x="1227.189453"/>
      <use xlink:href="#DejaVuSans-72" x="1288.712891"/>
      <use xlink:href="#DejaVuSans-20" x="1329.826172"/>
      <use xlink:href="#DejaVuSans-3d" x="1361.613281"/>
      <use xlink:href="#DejaVuSans-20" x="1445.402344"/>
      <use xlink:href="#DejaVuSans-30" x="1477.189453"/>
      <use xlink:href="#DejaVuSans-2e" x="1540.8125"/>
      <use xlink:href="#DejaVuSans-38" x="1572.599609"/>
      <use xlink:href="#DejaVuSans-34" x="1636.222656"/>
      <use xlink:href="#DejaVuSans-2c" x="1699.845703"/>
      <use xlink:href="#DejaVuSans-20" x="1731.632812"/>
      <use xlink:href="#DejaVuSans-43" x="1763.419922"/>
      <use xlink:href="#DejaVuSans-6f" x="1833.244141"/>
      <use xlink:href="#DejaVuSans-75" x="1894.425781"/>
      <use xlink:href="#DejaVuSans-6e" x="1957.804688"/>
      <use xlink:href="#DejaVuSans-74" x="2021.183594"/>
      <use xlink:href="#DejaVuSans-3a" x="2060.392578"/>
      <use xlink:href="#DejaVuSans-20" x="2094.083984"/>
      <use xlink:href="#DejaVuSans-32" x="2125.871094"/>
      <use xlink:href="#DejaVuSans-39" x="2189.494141"/>
      <use xlink:href="#DejaVuSans-39" x="2253.117188"/>
      <use xlink:href="#DejaVuSans-2c" x="2316.740234"/>
      <use xlink:href="#DejaVuSans-20" x="2348.527344"/>
      <use xlink:href="#DejaVuSans-50" x="2380.314453"/>
      <use xlink:href="#DejaVuSans-6f" x="2436.992188"/>
      <use xlink:href="#DejaVuSans-73" x="2498.173828"/>
      <use xlink:href="#DejaVuSans-3a" x="2550.273438"/>
      <use xlink:href="#DejaVuSans-20" x="2583.964844"/>
      <use xlink:href="#DejaVuSans-37" x="2615.751953"/>
      <use xlink:href="#DejaVuSans-35" x="2679.375"/>
      <use xlink:href="#DejaVuSans-2c" x="2742.998047"/>
      <use xlink:href="#DejaVuSans-20" x="2774.785156"/>
      <use xlink:href="#DejaVuSans-4e" x="2806.572266"/>
      <use xlink:href="#DejaVuSans-65" x="2881.376953"/>
      <use xlink:href="#DejaVuSans-67" x="2942.900391"/>
      <use xlink:href="#DejaVuSans-3a" x="3006.376953"/>
      <use xlink:href="#DejaVuSans-20" x="3040.068359"/>
      <use xlink:href="#DejaVuSans-32" x="3071.855469"/>
      <use xlink:href="#DejaVuSans-32" x="3135.478516"/>
      <use xlink:href="#DejaVuSans-34" x="3199.101562"/>
     </g>
    </g>
    <g id="line2d_34">
     <path d="M 203.384063 589.498938 
L 213.384063 589.498938 
L 223.384063 589.498938 
" style="fill: none; stroke: #d62728; stroke-width: 1.5; stroke-linecap: square"/>
    </g>
    <g id="text_19">
     <!-- AUC for Amer-Indian-Eskimo = 0.62, Count: 91, Pos: 8, Neg: 83 -->
     <g transform="translate(231.384063 592.998938) scale(0.1 -0.1)">
      <defs>
       <path id="DejaVuSans-6d" d="M 3328 2828 
Q 3544 3216 3844 3400 
Q 4144 3584 4550 3584 
Q 5097 3584 5394 3201 
Q 5691 2819 5691 2113 
L 5691 0 
L 5113 0 
L 5113 2094 
Q 5113 2597 4934 2840 
Q 4756 3084 4391 3084 
Q 3944 3084 3684 2787 
Q 3425 2491 3425 1978 
L 3425 0 
L 2847 0 
L 2847 2094 
Q 2847 2600 2669 2842 
Q 2491 3084 2119 3084 
Q 1678 3084 1418 2786 
Q 1159 2488 1159 1978 
L 1159 0 
L 581 0 
L 581 3500 
L 1159 3500 
L 1159 2956 
Q 1356 3278 1631 3431 
Q 1906 3584 2284 3584 
Q 2666 3584 2933 3390 
Q 3200 3197 3328 2828 
z
" transform="scale(0.015625)"/>
       <path id="DejaVuSans-45" d="M 628 4666 
L 3578 4666 
L 3578 4134 
L 1259 4134 
L 1259 2753 
L 3481 2753 
L 3481 2222 
L 1259 2222 
L 1259 531 
L 3634 531 
L 3634 0 
L 628 0 
L 628 4666 
z
" transform="scale(0.015625)"/>
      </defs>
      <use xlink:href="#DejaVuSans-41"/>
      <use xlink:href="#DejaVuSans-55" x="68.408203"/>
      <use xlink:href="#DejaVuSans-43" x="141.601562"/>
      <use xlink:href="#DejaVuSans-20" x="211.425781"/>
      <use xlink:href="#DejaVuSans-66" x="243.212891"/>
      <use xlink:href="#DejaVuSans-6f" x="278.417969"/>
      <use xlink:href="#DejaVuSans-72" x="339.599609"/>
      <use xlink:href="#DejaVuSans-20" x="380.712891"/>
      <use xlink:href="#DejaVuSans-41" x="412.5"/>
      <use xlink:href="#DejaVuSans-6d" x="480.908203"/>
      <use xlink:href="#DejaVuSans-65" x="578.320312"/>
      <use xlink:href="#DejaVuSans-72" x="639.84375"/>
      <use xlink:href="#DejaVuSans-2d" x="674.582031"/>
      <use xlink:href="#DejaVuSans-49" x="710.666016"/>
      <use xlink:href="#DejaVuSans-6e" x="740.158203"/>
      <use xlink:href="#DejaVuSans-64" x="803.537109"/>
      <use xlink:href="#DejaVuSans-69" x="867.013672"/>
      <use xlink:href="#DejaVuSans-61" x="894.796875"/>
      <use xlink:href="#DejaVuSans-6e" x="956.076172"/>
      <use xlink:href="#DejaVuSans-2d" x="1019.455078"/>
      <use xlink:href="#DejaVuSans-45" x="1055.539062"/>
      <use xlink:href="#DejaVuSans-73" x="1118.722656"/>
      <use xlink:href="#DejaVuSans-6b" x="1170.822266"/>
      <use xlink:href="#DejaVuSans-69" x="1228.732422"/>
      <use xlink:href="#DejaVuSans-6d" x="1256.515625"/>
      <use xlink:href="#DejaVuSans-6f" x="1353.927734"/>
      <use xlink:href="#DejaVuSans-20" x="1415.109375"/>
      <use xlink:href="#DejaVuSans-3d" x="1446.896484"/>
      <use xlink:href="#DejaVuSans-20" x="1530.685547"/>
      <use xlink:href="#DejaVuSans-30" x="1562.472656"/>
      <use xlink:href="#DejaVuSans-2e" x="1626.095703"/>
      <use xlink:href="#DejaVuSans-36" x="1657.882812"/>
      <use xlink:href="#DejaVuSans-32" x="1721.505859"/>
      <use xlink:href="#DejaVuSans-2c" x="1785.128906"/>
      <use xlink:href="#DejaVuSans-20" x="1816.916016"/>
      <use xlink:href="#DejaVuSans-43" x="1848.703125"/>
      <use xlink:href="#DejaVuSans-6f" x="1918.527344"/>
      <use xlink:href="#DejaVuSans-75" x="1979.708984"/>
      <use xlink:href="#DejaVuSans-6e" x="2043.087891"/>
      <use xlink:href="#DejaVuSans-74" x="2106.466797"/>
      <use xlink:href="#DejaVuSans-3a" x="2145.675781"/>
      <use xlink:href="#DejaVuSans-20" x="2179.367188"/>
      <use xlink:href="#DejaVuSans-39" x="2211.154297"/>
      <use xlink:href="#DejaVuSans-31" x="2274.777344"/>
      <use xlink:href="#DejaVuSans-2c" x="2338.400391"/>
      <use xlink:href="#DejaVuSans-20" x="2370.1875"/>
      <use xlink:href="#DejaVuSans-50" x="2401.974609"/>
      <use xlink:href="#DejaVuSans-6f" x="2458.652344"/>
      <use xlink:href="#DejaVuSans-73" x="2519.833984"/>
      <use xlink:href="#DejaVuSans-3a" x="2571.933594"/>
      <use xlink:href="#DejaVuSans-20" x="2605.625"/>
      <use xlink:href="#DejaVuSans-38" x="2637.412109"/>
      <use xlink:href="#DejaVuSans-2c" x="2701.035156"/>
      <use xlink:href="#DejaVuSans-20" x="2732.822266"/>
      <use xlink:href="#DejaVuSans-4e" x="2764.609375"/>
      <use xlink:href="#DejaVuSans-65" x="2839.414062"/>
      <use xlink:href="#DejaVuSans-67" x="2900.9375"/>
      <use xlink:href="#DejaVuSans-3a" x="2964.414062"/>
      <use xlink:href="#DejaVuSans-20" x="2998.105469"/>
      <use xlink:href="#DejaVuSans-38" x="3029.892578"/>
      <use xlink:href="#DejaVuSans-33" x="3093.515625"/>
     </g>
    </g>
    <g id="line2d_35">
     <path d="M 203.384063 604.177063 
L 213.384063 604.177063 
L 223.384063 604.177063 
" style="fill: none; stroke: #9467bd; stroke-width: 1.5; stroke-linecap: square"/>
    </g>
    <g id="text_20">
     <!-- AUC for Other = 0.94, Count: 88, Pos: 10, Neg: 78 -->
     <g transform="translate(231.384063 607.677063) scale(0.1 -0.1)">
      <use xlink:href="#DejaVuSans-41"/>
      <use xlink:href="#DejaVuSans-55" x="68.408203"/>
      <use xlink:href="#DejaVuSans-43" x="141.601562"/>
      <use xlink:href="#DejaVuSans-20" x="211.425781"/>
      <use xlink:href="#DejaVuSans-66" x="243.212891"/>
      <use xlink:href="#DejaVuSans-6f" x="278.417969"/>
      <use xlink:href="#DejaVuSans-72" x="339.599609"/>
      <use xlink:href="#DejaVuSans-20" x="380.712891"/>
      <use xlink:href="#DejaVuSans-4f" x="412.5"/>
      <use xlink:href="#DejaVuSans-74" x="491.210938"/>
      <use xlink:href="#DejaVuSans-68" x="530.419922"/>
      <use xlink:href="#DejaVuSans-65" x="593.798828"/>
      <use xlink:href="#DejaVuSans-72" x="655.322266"/>
      <use xlink:href="#DejaVuSans-20" x="696.435547"/>
      <use xlink:href="#DejaVuSans-3d" x="728.222656"/>
      <use xlink:href="#DejaVuSans-20" x="812.011719"/>
      <use xlink:href="#DejaVuSans-30" x="843.798828"/>
      <use xlink:href="#DejaVuSans-2e" x="907.421875"/>
      <use xlink:href="#DejaVuSans-39" x="939.208984"/>
      <use xlink:href="#DejaVuSans-34" x="1002.832031"/>
      <use xlink:href="#DejaVuSans-2c" x="1066.455078"/>
      <use xlink:href="#DejaVuSans-20" x="1098.242188"/>
      <use xlink:href="#DejaVuSans-43" x="1130.029297"/>
      <use xlink:href="#DejaVuSans-6f" x="1199.853516"/>
      <use xlink:href="#DejaVuSans-75" x="1261.035156"/>
      <use xlink:href="#DejaVuSans-6e" x="1324.414062"/>
      <use xlink:href="#DejaVuSans-74" x="1387.792969"/>
      <use xlink:href="#DejaVuSans-3a" x="1427.001953"/>
      <use xlink:href="#DejaVuSans-20" x="1460.693359"/>
      <use xlink:href="#DejaVuSans-38" x="1492.480469"/>
      <use xlink:href="#DejaVuSans-38" x="1556.103516"/>
      <use xlink:href="#DejaVuSans-2c" x="1619.726562"/>
      <use xlink:href="#DejaVuSans-20" x="1651.513672"/>
      <use xlink:href="#DejaVuSans-50" x="1683.300781"/>
      <use xlink:href="#DejaVuSans-6f" x="1739.978516"/>
      <use xlink:href="#DejaVuSans-73" x="1801.160156"/>
      <use xlink:href="#DejaVuSans-3a" x="1853.259766"/>
      <use xlink:href="#DejaVuSans-20" x="1886.951172"/>
      <use xlink:href="#DejaVuSans-31" x="1918.738281"/>
      <use xlink:href="#DejaVuSans-30" x="1982.361328"/>
      <use xlink:href="#DejaVuSans-2c" x="2045.984375"/>
      <use xlink:href="#DejaVuSans-20" x="2077.771484"/>
      <use xlink:href="#DejaVuSans-4e" x="2109.558594"/>
      <use xlink:href="#DejaVuSans-65" x="2184.363281"/>
      <use xlink:href="#DejaVuSans-67" x="2245.886719"/>
      <use xlink:href="#DejaVuSans-3a" x="2309.363281"/>
      <use xlink:href="#DejaVuSans-20" x="2343.054688"/>
      <use xlink:href="#DejaVuSans-37" x="2374.841797"/>
      <use xlink:href="#DejaVuSans-38" x="2438.464844"/>
     </g>
    </g>
    <g id="line2d_36">
     <path d="M 203.384063 618.855187 
L 213.384063 618.855187 
L 223.384063 618.855187 
" style="fill: none; stroke-dasharray: 7.4,3.2; stroke-dashoffset: 0; stroke: #808080; stroke-width: 2"/>
    </g>
    <g id="text_21">
     <!-- Random Guess -->
     <g transform="translate(231.384063 622.355187) scale(0.1 -0.1)">
      <defs>
       <path id="DejaVuSans-47" d="M 3809 666 
L 3809 1919 
L 2778 1919 
L 2778 2438 
L 4434 2438 
L 4434 434 
Q 4069 175 3628 42 
Q 3188 -91 2688 -91 
Q 1594 -91 976 548 
Q 359 1188 359 2328 
Q 359 3472 976 4111 
Q 1594 4750 2688 4750 
Q 3144 4750 3555 4637 
Q 3966 4525 4313 4306 
L 4313 3634 
Q 3963 3931 3569 4081 
Q 3175 4231 2741 4231 
Q 1884 4231 1454 3753 
Q 1025 3275 1025 2328 
Q 1025 1384 1454 906 
Q 1884 428 2741 428 
Q 3075 428 3337 486 
Q 3600 544 3809 666 
z
" transform="scale(0.015625)"/>
      </defs>
      <use xlink:href="#DejaVuSans-52"/>
      <use xlink:href="#DejaVuSans-61" x="67.232422"/>
      <use xlink:href="#DejaVuSans-6e" x="128.511719"/>
      <use xlink:href="#DejaVuSans-64" x="191.890625"/>
      <use xlink:href="#DejaVuSans-6f" x="255.367188"/>
      <use xlink:href="#DejaVuSans-6d" x="316.548828"/>
      <use xlink:href="#DejaVuSans-20" x="413.960938"/>
      <use xlink:href="#DejaVuSans-47" x="445.748047"/>
      <use xlink:href="#DejaVuSans-75" x="523.238281"/>
      <use xlink:href="#DejaVuSans-65" x="586.617188"/>
      <use xlink:href="#DejaVuSans-73" x="648.140625"/>
      <use xlink:href="#DejaVuSans-73" x="700.240234"/>
     </g>
    </g>
   </g>
  </g>
 </g>
 <defs>
  <clipPath id="pd131422d51">
   <rect x="45.716875" y="22.318125" width="669.6" height="443.52"/>
  </clipPath>
 </defs>
</svg>
