<?xml version="1.0" encoding="utf-8" standalone="no"?>
<!DOCTYPE svg PUBLIC "-//W3C//DTD SVG 1.1//EN"
  "http://www.w3.org/Graphics/SVG/1.1/DTD/svg11.dtd">
<svg xmlns:xlink="http://www.w3.org/1999/xlink" width="610.916875pt" height="508.122875pt" viewBox="0 0 610.916875 508.122875" xmlns="http://www.w3.org/2000/svg" version="1.1">
 <metadata>
  <rdf:RDF xmlns:dc="http://purl.org/dc/elements/1.1/" xmlns:cc="http://creativecommons.org/ns#" xmlns:rdf="http://www.w3.org/1999/02/22-rdf-syntax-ns#">
   <cc:Work>
    <dc:type rdf:resource="http://purl.org/dc/dcmitype/StillImage"/>
    <dc:date>2025-03-14T17:39:02.712416</dc:date>
    <dc:format>image/svg+xml</dc:format>
    <dc:creator>
     <cc:Agent>
      <dc:title>Matplotlib v3.9.2, https://matplotlib.org/</dc:title>
     </cc:Agent>
    </dc:creator>
   </cc:Work>
  </rdf:RDF>
 </metadata>
 <defs>
  <style type="text/css">*{stroke-linejoin: round; stroke-linecap: butt}</style>
 </defs>
 <g id="figure_1">
  <g id="patch_1">
   <path d="M 0 508.122875 
L 610.916875 508.122875 
L 610.916875 -0 
L 0 -0 
z
" style="fill: #ffffff"/>
  </g>
  <g id="axes_1">
   <g id="patch_2">
    <path d="M 45.716875 354.958125 
L 603.716875 354.958125 
L 603.716875 22.318125 
L 45.716875 22.318125 
z
" style="fill: #ffffff"/>
   </g>
   <g id="matplotlib.axis_1">
    <g id="xtick_1">
     <g id="line2d_1">
      <path d="M 71.080511 354.958125 
L 71.080511 22.318125 
" clip-path="url(#pd1e7740711)" style="fill: none; stroke: #b0b0b0; stroke-width: 0.8; stroke-linecap: square"/>
     </g>
     <g id="line2d_2">
      <defs>
       <path id="mdaf0da821a" d="M 0 0 
L 0 3.5 
" style="stroke: #000000; stroke-width: 0.8"/>
      </defs>
      <g>
       <use xlink:href="#mdaf0da821a" x="71.080511" y="354.958125" style="stroke: #000000; stroke-width: 0.8"/>
      </g>
     </g>
     <g id="text_1">
      <!-- 0.0 -->
      <g transform="translate(63.128949 369.556563) scale(0.1 -0.1)">
       <defs>
        <path id="DejaVuSans-30" d="M 2034 4250 
Q 1547 4250 1301 3770 
Q 1056 3291 1056 2328 
Q 1056 1369 1301 889 
Q 1547 409 2034 409 
Q 2525 409 2770 889 
Q 3016 1369 3016 2328 
Q 3016 3291 2770 3770 
Q 2525 4250 2034 4250 
z
M 2034 4750 
Q 2819 4750 3233 4129 
Q 3647 3509 3647 2328 
Q 3647 1150 3233 529 
Q 2819 -91 2034 -91 
Q 1250 -91 836 529 
Q 422 1150 422 2328 
Q 422 3509 836 4129 
Q 1250 4750 2034 4750 
z
" transform="scale(0.015625)"/>
        <path id="DejaVuSans-2e" d="M 684 794 
L 1344 794 
L 1344 0 
L 684 0 
L 684 794 
z
" transform="scale(0.015625)"/>
       </defs>
       <use xlink:href="#DejaVuSans-30"/>
       <use xlink:href="#DejaVuSans-2e" x="63.623047"/>
       <use xlink:href="#DejaVuSans-30" x="95.410156"/>
      </g>
     </g>
    </g>
    <g id="xtick_2">
     <g id="line2d_3">
      <path d="M 172.535057 354.958125 
L 172.535057 22.318125 
" clip-path="url(#pd1e7740711)" style="fill: none; stroke: #b0b0b0; stroke-width: 0.8; stroke-linecap: square"/>
     </g>
     <g id="line2d_4">
      <g>
       <use xlink:href="#mdaf0da821a" x="172.535057" y="354.958125" style="stroke: #000000; stroke-width: 0.8"/>
      </g>
     </g>
     <g id="text_2">
      <!-- 0.2 -->
      <g transform="translate(164.583494 369.556563) scale(0.1 -0.1)">
       <defs>
        <path id="DejaVuSans-32" d="M 1228 531 
L 3431 531 
L 3431 0 
L 469 0 
L 469 531 
Q 828 903 1448 1529 
Q 2069 2156 2228 2338 
Q 2531 2678 2651 2914 
Q 2772 3150 2772 3378 
Q 2772 3750 2511 3984 
Q 2250 4219 1831 4219 
Q 1534 4219 1204 4116 
Q 875 4013 500 3803 
L 500 4441 
Q 881 4594 1212 4672 
Q 1544 4750 1819 4750 
Q 2544 4750 2975 4387 
Q 3406 4025 3406 3419 
Q 3406 3131 3298 2873 
Q 3191 2616 2906 2266 
Q 2828 2175 2409 1742 
Q 1991 1309 1228 531 
z
" transform="scale(0.015625)"/>
       </defs>
       <use xlink:href="#DejaVuSans-30"/>
       <use xlink:href="#DejaVuSans-2e" x="63.623047"/>
       <use xlink:href="#DejaVuSans-32" x="95.410156"/>
      </g>
     </g>
    </g>
    <g id="xtick_3">
     <g id="line2d_5">
      <path d="M 273.989602 354.958125 
L 273.989602 22.318125 
" clip-path="url(#pd1e7740711)" style="fill: none; stroke: #b0b0b0; stroke-width: 0.8; stroke-linecap: square"/>
     </g>
     <g id="line2d_6">
      <g>
       <use xlink:href="#mdaf0da821a" x="273.989602" y="354.958125" style="stroke: #000000; stroke-width: 0.8"/>
      </g>
     </g>
     <g id="text_3">
      <!-- 0.4 -->
      <g transform="translate(266.03804 369.556563) scale(0.1 -0.1)">
       <defs>
        <path id="DejaVuSans-34" d="M 2419 4116 
L 825 1625 
L 2419 1625 
L 2419 4116 
z
M 2253 4666 
L 3047 4666 
L 3047 1625 
L 3713 1625 
L 3713 1100 
L 3047 1100 
L 3047 0 
L 2419 0 
L 2419 1100 
L 313 1100 
L 313 1709 
L 2253 4666 
z
" transform="scale(0.015625)"/>
       </defs>
       <use xlink:href="#DejaVuSans-30"/>
       <use xlink:href="#DejaVuSans-2e" x="63.623047"/>
       <use xlink:href="#DejaVuSans-34" x="95.410156"/>
      </g>
     </g>
    </g>
    <g id="xtick_4">
     <g id="line2d_7">
      <path d="M 375.444148 354.958125 
L 375.444148 22.318125 
" clip-path="url(#pd1e7740711)" style="fill: none; stroke: #b0b0b0; stroke-width: 0.8; stroke-linecap: square"/>
     </g>
     <g id="line2d_8">
      <g>
       <use xlink:href="#mdaf0da821a" x="375.444148" y="354.958125" style="stroke: #000000; stroke-width: 0.8"/>
      </g>
     </g>
     <g id="text_4">
      <!-- 0.6 -->
      <g transform="translate(367.492585 369.556563) scale(0.1 -0.1)">
       <defs>
        <path id="DejaVuSans-36" d="M 2113 2584 
Q 1688 2584 1439 2293 
Q 1191 2003 1191 1497 
Q 1191 994 1439 701 
Q 1688 409 2113 409 
Q 2538 409 2786 701 
Q 3034 994 3034 1497 
Q 3034 2003 2786 2293 
Q 2538 2584 2113 2584 
z
M 3366 4563 
L 3366 3988 
Q 3128 4100 2886 4159 
Q 2644 4219 2406 4219 
Q 1781 4219 1451 3797 
Q 1122 3375 1075 2522 
Q 1259 2794 1537 2939 
Q 1816 3084 2150 3084 
Q 2853 3084 3261 2657 
Q 3669 2231 3669 1497 
Q 3669 778 3244 343 
Q 2819 -91 2113 -91 
Q 1303 -91 875 529 
Q 447 1150 447 2328 
Q 447 3434 972 4092 
Q 1497 4750 2381 4750 
Q 2619 4750 2861 4703 
Q 3103 4656 3366 4563 
z
" transform="scale(0.015625)"/>
       </defs>
       <use xlink:href="#DejaVuSans-30"/>
       <use xlink:href="#DejaVuSans-2e" x="63.623047"/>
       <use xlink:href="#DejaVuSans-36" x="95.410156"/>
      </g>
     </g>
    </g>
    <g id="xtick_5">
     <g id="line2d_9">
      <path d="M 476.898693 354.958125 
L 476.898693 22.318125 
" clip-path="url(#pd1e7740711)" style="fill: none; stroke: #b0b0b0; stroke-width: 0.8; stroke-linecap: square"/>
     </g>
     <g id="line2d_10">
      <g>
       <use xlink:href="#mdaf0da821a" x="476.898693" y="354.958125" style="stroke: #000000; stroke-width: 0.8"/>
      </g>
     </g>
     <g id="text_5">
      <!-- 0.8 -->
      <g transform="translate(468.947131 369.556563) scale(0.1 -0.1)">
       <defs>
        <path id="DejaVuSans-38" d="M 2034 2216 
Q 1584 2216 1326 1975 
Q 1069 1734 1069 1313 
Q 1069 891 1326 650 
Q 1584 409 2034 409 
Q 2484 409 2743 651 
Q 3003 894 3003 1313 
Q 3003 1734 2745 1975 
Q 2488 2216 2034 2216 
z
M 1403 2484 
Q 997 2584 770 2862 
Q 544 3141 544 3541 
Q 544 4100 942 4425 
Q 1341 4750 2034 4750 
Q 2731 4750 3128 4425 
Q 3525 4100 3525 3541 
Q 3525 3141 3298 2862 
Q 3072 2584 2669 2484 
Q 3125 2378 3379 2068 
Q 3634 1759 3634 1313 
Q 3634 634 3220 271 
Q 2806 -91 2034 -91 
Q 1263 -91 848 271 
Q 434 634 434 1313 
Q 434 1759 690 2068 
Q 947 2378 1403 2484 
z
M 1172 3481 
Q 1172 3119 1398 2916 
Q 1625 2713 2034 2713 
Q 2441 2713 2670 2916 
Q 2900 3119 2900 3481 
Q 2900 3844 2670 4047 
Q 2441 4250 2034 4250 
Q 1625 4250 1398 4047 
Q 1172 3844 1172 3481 
z
" transform="scale(0.015625)"/>
       </defs>
       <use xlink:href="#DejaVuSans-30"/>
       <use xlink:href="#DejaVuSans-2e" x="63.623047"/>
       <use xlink:href="#DejaVuSans-38" x="95.410156"/>
      </g>
     </g>
    </g>
    <g id="xtick_6">
     <g id="line2d_11">
      <path d="M 578.353239 354.958125 
L 578.353239 22.318125 
" clip-path="url(#pd1e7740711)" style="fill: none; stroke: #b0b0b0; stroke-width: 0.8; stroke-linecap: square"/>
     </g>
     <g id="line2d_12">
      <g>
       <use xlink:href="#mdaf0da821a" x="578.353239" y="354.958125" style="stroke: #000000; stroke-width: 0.8"/>
      </g>
     </g>
     <g id="text_6">
      <!-- 1.0 -->
      <g transform="translate(570.401676 369.556563) scale(0.1 -0.1)">
       <defs>
        <path id="DejaVuSans-31" d="M 794 531 
L 1825 531 
L 1825 4091 
L 703 3866 
L 703 4441 
L 1819 4666 
L 2450 4666 
L 2450 531 
L 3481 531 
L 3481 0 
L 794 0 
L 794 531 
z
" transform="scale(0.015625)"/>
       </defs>
       <use xlink:href="#DejaVuSans-31"/>
       <use xlink:href="#DejaVuSans-2e" x="63.623047"/>
       <use xlink:href="#DejaVuSans-30" x="95.410156"/>
      </g>
     </g>
    </g>
    <g id="text_7">
     <!-- False Positive Rate -->
     <g transform="translate(268.957188 384.754375) scale(0.12 -0.12)">
      <defs>
       <path id="DejaVuSans-46" d="M 628 4666 
L 3309 4666 
L 3309 4134 
L 1259 4134 
L 1259 2759 
L 3109 2759 
L 3109 2228 
L 1259 2228 
L 1259 0 
L 628 0 
L 628 4666 
z
" transform="scale(0.015625)"/>
       <path id="DejaVuSans-61" d="M 2194 1759 
Q 1497 1759 1228 1600 
Q 959 1441 959 1056 
Q 959 750 1161 570 
Q 1363 391 1709 391 
Q 2188 391 2477 730 
Q 2766 1069 2766 1631 
L 2766 1759 
L 2194 1759 
z
M 3341 1997 
L 3341 0 
L 2766 0 
L 2766 531 
Q 2569 213 2275 61 
Q 1981 -91 1556 -91 
Q 1019 -91 701 211 
Q 384 513 384 1019 
Q 384 1609 779 1909 
Q 1175 2209 1959 2209 
L 2766 2209 
L 2766 2266 
Q 2766 2663 2505 2880 
Q 2244 3097 1772 3097 
Q 1472 3097 1187 3025 
Q 903 2953 641 2809 
L 641 3341 
Q 956 3463 1253 3523 
Q 1550 3584 1831 3584 
Q 2591 3584 2966 3190 
Q 3341 2797 3341 1997 
z
" transform="scale(0.015625)"/>
       <path id="DejaVuSans-6c" d="M 603 4863 
L 1178 4863 
L 1178 0 
L 603 0 
L 603 4863 
z
" transform="scale(0.015625)"/>
       <path id="DejaVuSans-73" d="M 2834 3397 
L 2834 2853 
Q 2591 2978 2328 3040 
Q 2066 3103 1784 3103 
Q 1356 3103 1142 2972 
Q 928 2841 928 2578 
Q 928 2378 1081 2264 
Q 1234 2150 1697 2047 
L 1894 2003 
Q 2506 1872 2764 1633 
Q 3022 1394 3022 966 
Q 3022 478 2636 193 
Q 2250 -91 1575 -91 
Q 1294 -91 989 -36 
Q 684 19 347 128 
L 347 722 
Q 666 556 975 473 
Q 1284 391 1588 391 
Q 1994 391 2212 530 
Q 2431 669 2431 922 
Q 2431 1156 2273 1281 
Q 2116 1406 1581 1522 
L 1381 1569 
Q 847 1681 609 1914 
Q 372 2147 372 2553 
Q 372 3047 722 3315 
Q 1072 3584 1716 3584 
Q 2034 3584 2315 3537 
Q 2597 3491 2834 3397 
z
" transform="scale(0.015625)"/>
       <path id="DejaVuSans-65" d="M 3597 1894 
L 3597 1613 
L 953 1613 
Q 991 1019 1311 708 
Q 1631 397 2203 397 
Q 2534 397 2845 478 
Q 3156 559 3463 722 
L 3463 178 
Q 3153 47 2828 -22 
Q 2503 -91 2169 -91 
Q 1331 -91 842 396 
Q 353 884 353 1716 
Q 353 2575 817 3079 
Q 1281 3584 2069 3584 
Q 2775 3584 3186 3129 
Q 3597 2675 3597 1894 
z
M 3022 2063 
Q 3016 2534 2758 2815 
Q 2500 3097 2075 3097 
Q 1594 3097 1305 2825 
Q 1016 2553 972 2059 
L 3022 2063 
z
" transform="scale(0.015625)"/>
       <path id="DejaVuSans-20" transform="scale(0.015625)"/>
       <path id="DejaVuSans-50" d="M 1259 4147 
L 1259 2394 
L 2053 2394 
Q 2494 2394 2734 2622 
Q 2975 2850 2975 3272 
Q 2975 3691 2734 3919 
Q 2494 4147 2053 4147 
L 1259 4147 
z
M 628 4666 
L 2053 4666 
Q 2838 4666 3239 4311 
Q 3641 3956 3641 3272 
Q 3641 2581 3239 2228 
Q 2838 1875 2053 1875 
L 1259 1875 
L 1259 0 
L 628 0 
L 628 4666 
z
" transform="scale(0.015625)"/>
       <path id="DejaVuSans-6f" d="M 1959 3097 
Q 1497 3097 1228 2736 
Q 959 2375 959 1747 
Q 959 1119 1226 758 
Q 1494 397 1959 397 
Q 2419 397 2687 759 
Q 2956 1122 2956 1747 
Q 2956 2369 2687 2733 
Q 2419 3097 1959 3097 
z
M 1959 3584 
Q 2709 3584 3137 3096 
Q 3566 2609 3566 1747 
Q 3566 888 3137 398 
Q 2709 -91 1959 -91 
Q 1206 -91 779 398 
Q 353 888 353 1747 
Q 353 2609 779 3096 
Q 1206 3584 1959 3584 
z
" transform="scale(0.015625)"/>
       <path id="DejaVuSans-69" d="M 603 3500 
L 1178 3500 
L 1178 0 
L 603 0 
L 603 3500 
z
M 603 4863 
L 1178 4863 
L 1178 4134 
L 603 4134 
L 603 4863 
z
" transform="scale(0.015625)"/>
       <path id="DejaVuSans-74" d="M 1172 4494 
L 1172 3500 
L 2356 3500 
L 2356 3053 
L 1172 3053 
L 1172 1153 
Q 1172 725 1289 603 
Q 1406 481 1766 481 
L 2356 481 
L 2356 0 
L 1766 0 
Q 1100 0 847 248 
Q 594 497 594 1153 
L 594 3053 
L 172 3053 
L 172 3500 
L 594 3500 
L 594 4494 
L 1172 4494 
z
" transform="scale(0.015625)"/>
       <path id="DejaVuSans-76" d="M 191 3500 
L 800 3500 
L 1894 563 
L 2988 3500 
L 3597 3500 
L 2284 0 
L 1503 0 
L 191 3500 
z
" transform="scale(0.015625)"/>
       <path id="DejaVuSans-52" d="M 2841 2188 
Q 3044 2119 3236 1894 
Q 3428 1669 3622 1275 
L 4263 0 
L 3584 0 
L 2988 1197 
Q 2756 1666 2539 1819 
Q 2322 1972 1947 1972 
L 1259 1972 
L 1259 0 
L 628 0 
L 628 4666 
L 2053 4666 
Q 2853 4666 3247 4331 
Q 3641 3997 3641 3322 
Q 3641 2881 3436 2590 
Q 3231 2300 2841 2188 
z
M 1259 4147 
L 1259 2491 
L 2053 2491 
Q 2509 2491 2742 2702 
Q 2975 2913 2975 3322 
Q 2975 3731 2742 3939 
Q 2509 4147 2053 4147 
L 1259 4147 
z
" transform="scale(0.015625)"/>
      </defs>
      <use xlink:href="#DejaVuSans-46"/>
      <use xlink:href="#DejaVuSans-61" x="48.394531"/>
      <use xlink:href="#DejaVuSans-6c" x="109.673828"/>
      <use xlink:href="#DejaVuSans-73" x="137.457031"/>
      <use xlink:href="#DejaVuSans-65" x="189.556641"/>
      <use xlink:href="#DejaVuSans-20" x="251.080078"/>
      <use xlink:href="#DejaVuSans-50" x="282.867188"/>
      <use xlink:href="#DejaVuSans-6f" x="339.544922"/>
      <use xlink:href="#DejaVuSans-73" x="400.726562"/>
      <use xlink:href="#DejaVuSans-69" x="452.826172"/>
      <use xlink:href="#DejaVuSans-74" x="480.609375"/>
      <use xlink:href="#DejaVuSans-69" x="519.818359"/>
      <use xlink:href="#DejaVuSans-76" x="547.601562"/>
      <use xlink:href="#DejaVuSans-65" x="606.78125"/>
      <use xlink:href="#DejaVuSans-20" x="668.304688"/>
      <use xlink:href="#DejaVuSans-52" x="700.091797"/>
      <use xlink:href="#DejaVuSans-61" x="767.324219"/>
      <use xlink:href="#DejaVuSans-74" x="828.603516"/>
      <use xlink:href="#DejaVuSans-65" x="867.8125"/>
     </g>
    </g>
   </g>
   <g id="matplotlib.axis_2">
    <g id="ytick_1">
     <g id="line2d_13">
      <path d="M 45.716875 339.838125 
L 603.716875 339.838125 
" clip-path="url(#pd1e7740711)" style="fill: none; stroke: #b0b0b0; stroke-width: 0.8; stroke-linecap: square"/>
     </g>
     <g id="line2d_14">
      <defs>
       <path id="mb530e1bda8" d="M 0 0 
L -3.5 0 
" style="stroke: #000000; stroke-width: 0.8"/>
      </defs>
      <g>
       <use xlink:href="#mb530e1bda8" x="45.716875" y="339.838125" style="stroke: #000000; stroke-width: 0.8"/>
      </g>
     </g>
     <g id="text_8">
      <!-- 0.0 -->
      <g transform="translate(22.81375 343.637344) scale(0.1 -0.1)">
       <use xlink:href="#DejaVuSans-30"/>
       <use xlink:href="#DejaVuSans-2e" x="63.623047"/>
       <use xlink:href="#DejaVuSans-30" x="95.410156"/>
      </g>
     </g>
    </g>
    <g id="ytick_2">
     <g id="line2d_15">
      <path d="M 45.716875 279.358125 
L 603.716875 279.358125 
" clip-path="url(#pd1e7740711)" style="fill: none; stroke: #b0b0b0; stroke-width: 0.8; stroke-linecap: square"/>
     </g>
     <g id="line2d_16">
      <g>
       <use xlink:href="#mb530e1bda8" x="45.716875" y="279.358125" style="stroke: #000000; stroke-width: 0.8"/>
      </g>
     </g>
     <g id="text_9">
      <!-- 0.2 -->
      <g transform="translate(22.81375 283.157344) scale(0.1 -0.1)">
       <use xlink:href="#DejaVuSans-30"/>
       <use xlink:href="#DejaVuSans-2e" x="63.623047"/>
       <use xlink:href="#DejaVuSans-32" x="95.410156"/>
      </g>
     </g>
    </g>
    <g id="ytick_3">
     <g id="line2d_17">
      <path d="M 45.716875 218.878125 
L 603.716875 218.878125 
" clip-path="url(#pd1e7740711)" style="fill: none; stroke: #b0b0b0; stroke-width: 0.8; stroke-linecap: square"/>
     </g>
     <g id="line2d_18">
      <g>
       <use xlink:href="#mb530e1bda8" x="45.716875" y="218.878125" style="stroke: #000000; stroke-width: 0.8"/>
      </g>
     </g>
     <g id="text_10">
      <!-- 0.4 -->
      <g transform="translate(22.81375 222.677344) scale(0.1 -0.1)">
       <use xlink:href="#DejaVuSans-30"/>
       <use xlink:href="#DejaVuSans-2e" x="63.623047"/>
       <use xlink:href="#DejaVuSans-34" x="95.410156"/>
      </g>
     </g>
    </g>
    <g id="ytick_4">
     <g id="line2d_19">
      <path d="M 45.716875 158.398125 
L 603.716875 158.398125 
" clip-path="url(#pd1e7740711)" style="fill: none; stroke: #b0b0b0; stroke-width: 0.8; stroke-linecap: square"/>
     </g>
     <g id="line2d_20">
      <g>
       <use xlink:href="#mb530e1bda8" x="45.716875" y="158.398125" style="stroke: #000000; stroke-width: 0.8"/>
      </g>
     </g>
     <g id="text_11">
      <!-- 0.6 -->
      <g transform="translate(22.81375 162.197344) scale(0.1 -0.1)">
       <use xlink:href="#DejaVuSans-30"/>
       <use xlink:href="#DejaVuSans-2e" x="63.623047"/>
       <use xlink:href="#DejaVuSans-36" x="95.410156"/>
      </g>
     </g>
    </g>
    <g id="ytick_5">
     <g id="line2d_21">
      <path d="M 45.716875 97.918125 
L 603.716875 97.918125 
" clip-path="url(#pd1e7740711)" style="fill: none; stroke: #b0b0b0; stroke-width: 0.8; stroke-linecap: square"/>
     </g>
     <g id="line2d_22">
      <g>
       <use xlink:href="#mb530e1bda8" x="45.716875" y="97.918125" style="stroke: #000000; stroke-width: 0.8"/>
      </g>
     </g>
     <g id="text_12">
      <!-- 0.8 -->
      <g transform="translate(22.81375 101.717344) scale(0.1 -0.1)">
       <use xlink:href="#DejaVuSans-30"/>
       <use xlink:href="#DejaVuSans-2e" x="63.623047"/>
       <use xlink:href="#DejaVuSans-38" x="95.410156"/>
      </g>
     </g>
    </g>
    <g id="ytick_6">
     <g id="line2d_23">
      <path d="M 45.716875 37.438125 
L 603.716875 37.438125 
" clip-path="url(#pd1e7740711)" style="fill: none; stroke: #b0b0b0; stroke-width: 0.8; stroke-linecap: square"/>
     </g>
     <g id="line2d_24">
      <g>
       <use xlink:href="#mb530e1bda8" x="45.716875" y="37.438125" style="stroke: #000000; stroke-width: 0.8"/>
      </g>
     </g>
     <g id="text_13">
      <!-- 1.0 -->
      <g transform="translate(22.81375 41.237344) scale(0.1 -0.1)">
       <use xlink:href="#DejaVuSans-31"/>
       <use xlink:href="#DejaVuSans-2e" x="63.623047"/>
       <use xlink:href="#DejaVuSans-30" x="95.410156"/>
      </g>
     </g>
    </g>
    <g id="text_14">
     <!-- True Positive Rate -->
     <g transform="translate(16.318125 242.07375) rotate(-90) scale(0.12 -0.12)">
      <defs>
       <path id="DejaVuSans-54" d="M -19 4666 
L 3928 4666 
L 3928 4134 
L 2272 4134 
L 2272 0 
L 1638 0 
L 1638 4134 
L -19 4134 
L -19 4666 
z
" transform="scale(0.015625)"/>
       <path id="DejaVuSans-72" d="M 2631 2963 
Q 2534 3019 2420 3045 
Q 2306 3072 2169 3072 
Q 1681 3072 1420 2755 
Q 1159 2438 1159 1844 
L 1159 0 
L 581 0 
L 581 3500 
L 1159 3500 
L 1159 2956 
Q 1341 3275 1631 3429 
Q 1922 3584 2338 3584 
Q 2397 3584 2469 3576 
Q 2541 3569 2628 3553 
L 2631 2963 
z
" transform="scale(0.015625)"/>
       <path id="DejaVuSans-75" d="M 544 1381 
L 544 3500 
L 1119 3500 
L 1119 1403 
Q 1119 906 1312 657 
Q 1506 409 1894 409 
Q 2359 409 2629 706 
Q 2900 1003 2900 1516 
L 2900 3500 
L 3475 3500 
L 3475 0 
L 2900 0 
L 2900 538 
Q 2691 219 2414 64 
Q 2138 -91 1772 -91 
Q 1169 -91 856 284 
Q 544 659 544 1381 
z
M 1991 3584 
L 1991 3584 
z
" transform="scale(0.015625)"/>
      </defs>
      <use xlink:href="#DejaVuSans-54"/>
      <use xlink:href="#DejaVuSans-72" x="46.333984"/>
      <use xlink:href="#DejaVuSans-75" x="87.447266"/>
      <use xlink:href="#DejaVuSans-65" x="150.826172"/>
      <use xlink:href="#DejaVuSans-20" x="212.349609"/>
      <use xlink:href="#DejaVuSans-50" x="244.136719"/>
      <use xlink:href="#DejaVuSans-6f" x="300.814453"/>
      <use xlink:href="#DejaVuSans-73" x="361.996094"/>
      <use xlink:href="#DejaVuSans-69" x="414.095703"/>
      <use xlink:href="#DejaVuSans-74" x="441.878906"/>
      <use xlink:href="#DejaVuSans-69" x="481.087891"/>
      <use xlink:href="#DejaVuSans-76" x="508.871094"/>
      <use xlink:href="#DejaVuSans-65" x="568.050781"/>
      <use xlink:href="#DejaVuSans-20" x="629.574219"/>
      <use xlink:href="#DejaVuSans-52" x="661.361328"/>
      <use xlink:href="#DejaVuSans-61" x="728.59375"/>
      <use xlink:href="#DejaVuSans-74" x="789.873047"/>
      <use xlink:href="#DejaVuSans-65" x="829.082031"/>
     </g>
    </g>
   </g>
   <g id="line2d_25">
    <path d="M 71.080511 339.838125 
L 71.16208 281.651608 
L 71.243648 281.651608 
L 71.325216 264.521271 
L 71.406784 264.521271 
L 71.488352 260.698799 
L 71.569921 260.698799 
L 71.651489 258.150485 
L 71.733057 258.150485 
L 71.733057 257.301046 
L 71.977762 257.301046 
L 72.05933 256.451608 
L 72.140898 256.451608 
L 72.222466 255.743743 
L 72.304035 255.743743 
L 72.385603 254.752732 
L 72.467171 254.752732 
L 72.548739 252.204417 
L 72.630307 252.204417 
L 72.630307 250.363968 
L 72.793444 250.363968 
L 72.875012 249.656103 
L 73.038149 249.656103 
L 73.038149 249.372956 
L 73.282853 249.372956 
L 73.282853 249.231383 
L 73.44599 249.231383 
L 73.527558 246.399923 
L 73.609126 246.116777 
L 73.690694 244.134754 
L 73.772262 244.134754 
L 73.853831 243.426889 
L 73.935399 243.426889 
L 74.016967 242.294305 
L 74.098535 242.294305 
L 74.098535 242.152732 
L 74.261672 242.152732 
L 74.34324 241.020147 
L 74.424808 241.020147 
L 74.506376 239.74599 
L 74.587945 239.74599 
L 74.995786 239.038125 
L 75.077354 237.905541 
L 75.158922 237.905541 
L 75.158922 237.480822 
L 75.648331 237.480822 
L 75.7299 235.923518 
L 75.811468 235.923518 
L 75.893036 233.799923 
L 75.974604 233.516777 
L 76.219309 233.516777 
L 76.382445 233.233631 
L 76.382445 232.950485 
L 76.545582 232.950485 
L 76.62715 232.525765 
L 76.790286 232.242619 
L 76.790286 231.393181 
L 76.953423 231.393181 
L 76.953423 231.110035 
L 77.116559 230.826889 
L 77.198127 230.260597 
L 77.279696 230.260597 
L 77.279696 230.119024 
L 77.442832 230.119024 
L 77.5244 229.552732 
L 77.932241 229.552732 
L 78.01381 229.411159 
L 78.095378 228.420147 
L 78.176946 228.420147 
L 78.258514 227.570709 
L 78.340082 227.570709 
L 78.421651 227.004417 
L 78.503219 227.004417 
L 78.503219 226.862844 
L 78.584787 226.862844 
L 78.992628 226.438125 
L 79.074196 225.447114 
L 79.237333 225.447114 
L 79.318901 224.880822 
L 79.400469 224.880822 
L 79.482037 224.172956 
L 79.726742 224.172956 
L 79.80831 223.323518 
L 79.971447 223.323518 
L 79.971447 222.47408 
L 80.623992 221.907788 
L 80.705561 220.916777 
L 81.19497 220.916777 
L 81.276538 220.067338 
L 81.439675 220.067338 
L 81.439675 219.784192 
L 81.684379 219.359473 
L 81.765947 218.651608 
L 81.847516 218.651608 
L 81.929084 218.226889 
L 82.010652 218.226889 
L 82.500061 217.377451 
L 82.58163 216.952732 
L 83.071039 216.103294 
L 83.315744 215.961721 
L 83.397312 215.537001 
L 83.47888 215.537001 
L 83.47888 215.253855 
L 83.642016 215.253855 
L 83.642016 214.54599 
L 83.723585 214.54599 
L 83.968289 214.121271 
L 84.049858 212.988687 
L 84.131426 212.988687 
L 84.212994 212.422395 
L 84.294562 212.422395 
L 84.37613 211.997676 
L 84.620835 211.997676 
L 84.702403 211.572956 
L 84.86554 211.572956 
L 84.947108 210.157226 
L 85.028676 210.157226 
L 85.110244 209.307788 
L 85.273381 209.307788 
L 85.354949 208.883069 
L 85.436517 208.883069 
L 85.436517 208.741496 
L 85.599654 208.741496 
L 85.599654 208.599923 
L 85.844358 208.599923 
L 85.844358 208.45835 
L 86.578472 208.45835 
L 86.66004 208.175204 
L 87.231018 208.175204 
L 87.312586 207.750485 
L 87.475723 207.750485 
L 87.557291 206.901046 
L 87.720427 206.901046 
L 87.720427 206.759473 
L 87.883564 206.759473 
L 87.883564 206.6179 
L 88.0467 206.6179 
L 88.372973 206.051608 
L 88.536109 206.051608 
L 88.617678 205.626889 
L 88.862382 205.626889 
L 88.94395 205.343743 
L 89.025519 205.343743 
L 89.025519 204.777451 
L 89.188655 204.777451 
L 89.270223 204.494305 
L 89.351791 204.494305 
L 89.43336 202.937001 
L 89.514928 202.937001 
L 89.514928 202.795428 
L 89.596496 202.795428 
L 90.004337 202.087563 
L 90.249042 202.087563 
L 90.249042 201.804417 
L 90.575315 201.804417 
L 90.656883 201.379698 
L 90.983156 201.379698 
L 91.22786 201.096552 
L 91.309429 199.822395 
L 91.635701 199.822395 
L 91.635701 199.539249 
L 91.798838 199.539249 
L 91.798838 199.114529 
L 92.043543 199.114529 
L 92.043543 198.831383 
L 92.532952 198.406664 
L 92.532952 198.123518 
L 92.61452 198.123518 
L 92.859225 198.123518 
L 92.859225 197.840372 
L 93.022361 197.840372 
L 93.022361 197.698799 
L 93.185498 197.698799 
L 93.185498 197.557226 
L 93.348634 197.557226 
L 93.430202 197.132507 
L 93.51177 197.132507 
L 93.51177 196.707788 
L 94.082748 196.707788 
L 94.164316 195.999923 
L 94.245884 195.999923 
L 94.245884 195.85835 
L 94.409021 195.85835 
L 94.409021 195.716777 
L 94.572157 195.716777 
L 94.653725 195.292058 
L 94.735294 195.150485 
L 94.89843 195.150485 
L 94.979998 193.876327 
L 95.306271 193.026889 
L 95.550976 193.026889 
L 95.550976 192.60217 
L 95.714112 192.60217 
L 95.958817 192.035878 
L 96.121953 192.035878 
L 96.529794 191.469586 
L 96.611363 190.478574 
L 96.692931 190.478574 
L 97.100772 189.912282 
L 97.345476 189.629136 
L 97.508613 189.204417 
L 97.590181 189.204417 
L 98.07959 188.779698 
L 98.650568 188.779698 
L 98.650568 188.496552 
L 98.976841 188.071833 
L 99.058409 186.939249 
L 99.139977 186.939249 
L 99.139977 186.797676 
L 99.46625 186.797676 
L 99.46625 186.372956 
L 99.547818 186.372956 
L 99.792523 186.08981 
L 99.874091 186.08981 
L 99.874091 185.523518 
L 100.200364 185.523518 
L 100.281932 184.249361 
L 100.689773 184.249361 
L 100.771342 183.824642 
L 101.016046 183.824642 
L 101.016046 183.541496 
L 101.179183 183.541496 
L 101.179183 183.399923 
L 101.342319 183.399923 
L 101.342319 183.25835 
L 101.587024 183.25835 
L 101.75016 183.116777 
L 101.831728 182.692058 
L 101.913297 182.692058 
L 101.994865 182.125765 
L 102.076433 181.984192 
L 102.402706 181.984192 
L 102.484274 181.701046 
L 102.64741 181.701046 
L 102.64741 181.559473 
L 102.810547 181.559473 
L 102.892115 180.710035 
L 102.973683 180.710035 
L 102.973683 180.568462 
L 103.13682 180.568462 
L 103.13682 180.285316 
L 103.381524 180.285316 
L 103.707797 179.577451 
L 103.707797 179.435878 
L 103.952502 179.435878 
L 103.952502 179.294305 
L 104.197207 179.294305 
L 104.278775 178.728013 
L 104.360343 178.728013 
L 104.441911 178.58644 
L 104.93132 178.58644 
L 104.93132 178.161721 
L 105.094457 178.161721 
L 105.176025 177.878574 
L 105.42073 177.878574 
L 105.42073 177.737001 
L 105.583866 177.737001 
L 105.583866 177.170709 
L 105.828571 177.170709 
L 105.991707 176.887563 
L 105.991707 176.604417 
L 106.236412 176.604417 
L 106.236412 176.462844 
L 107.052094 176.462844 
L 107.052094 175.896552 
L 107.21523 175.896552 
L 107.296799 175.613406 
L 107.378367 175.613406 
L 107.378367 175.33026 
L 107.70464 175.33026 
L 107.70464 174.622395 
L 107.949344 174.622395 
L 107.949344 174.056103 
L 108.030913 174.056103 
L 108.112481 173.914529 
L 108.112481 173.48981 
L 108.357185 173.48981 
L 108.438754 172.781945 
L 108.765027 172.781945 
L 108.846595 172.498799 
L 108.928163 172.498799 
L 109.009731 172.07408 
L 109.172868 172.07408 
L 109.254436 171.790934 
L 109.49914 171.790934 
L 109.49914 171.649361 
L 109.906982 171.649361 
L 109.906982 171.507788 
L 109.98855 171.507788 
L 110.151686 171.507788 
L 110.233254 171.224642 
L 110.396391 171.224642 
L 110.477959 170.941496 
L 110.641095 170.941496 
L 110.641095 170.65835 
L 110.804232 170.65835 
L 110.8858 170.375204 
L 110.967368 170.375204 
L 111.048937 170.092058 
L 111.375209 170.092058 
L 111.375209 169.950485 
L 111.538346 169.950485 
L 111.619914 169.242619 
L 111.783051 169.242619 
L 111.783051 168.8179 
L 111.946187 168.8179 
L 111.946187 168.676327 
L 112.109323 168.676327 
L 112.109323 168.534754 
L 112.517164 168.534754 
L 112.517164 168.393181 
L 112.680301 168.393181 
L 112.680301 168.251608 
L 112.925006 168.251608 
L 112.925006 167.968462 
L 113.16971 167.968462 
L 113.16971 167.826889 
L 113.332847 167.826889 
L 113.332847 167.685316 
L 113.577551 167.685316 
L 113.577551 167.40217 
L 114.066961 167.40217 
L 114.066961 167.260597 
L 114.230097 167.260597 
L 114.230097 166.269586 
L 114.311665 166.269586 
L 114.55637 166.269586 
L 114.55637 165.844867 
L 114.719506 165.844867 
L 114.801074 165.561721 
L 114.964211 165.561721 
L 115.045779 164.995428 
L 115.372052 164.995428 
L 115.45362 164.429136 
L 115.535188 164.429136 
L 115.535188 164.287563 
L 115.779893 164.287563 
L 115.861461 163.862844 
L 116.187734 163.862844 
L 116.187734 163.579698 
L 116.595575 163.579698 
L 116.595575 163.438125 
L 116.921848 163.438125 
L 117.084984 163.296552 
L 117.329689 163.296552 
L 117.411257 163.013406 
L 117.492826 163.013406 
L 117.492826 162.305541 
L 117.655962 162.305541 
L 117.655962 162.163968 
L 117.73753 162.163968 
L 118.063803 162.163968 
L 118.145371 161.880822 
L 118.308508 161.880822 
L 118.308508 161.031383 
L 118.471644 161.031383 
L 118.553212 160.323518 
L 118.961053 160.323518 
L 118.961053 160.181945 
L 119.205758 160.181945 
L 119.205758 160.040372 
L 119.532031 160.040372 
L 119.613599 159.898799 
L 119.939872 159.898799 
L 119.939872 159.615653 
L 120.103008 159.615653 
L 120.103008 159.47408 
L 120.266145 159.47408 
L 120.347713 159.190934 
L 120.592418 159.190934 
L 120.673986 158.907788 
L 121.000259 158.907788 
L 121.000259 158.766215 
L 121.081827 158.766215 
L 121.326532 158.766215 
L 121.4081 158.341496 
L 121.734373 158.341496 
L 121.815941 157.916777 
L 121.897509 157.916777 
L 121.979077 157.775204 
L 122.142214 157.775204 
L 122.142214 157.633631 
L 122.550055 157.633631 
L 122.550055 157.350485 
L 122.794759 157.350485 
L 122.876328 156.925765 
L 122.957896 156.925765 
L 123.039464 156.359473 
L 123.121032 156.359473 
L 123.202601 155.651608 
L 123.528873 155.651608 
L 123.610442 155.368462 
L 123.773578 155.368462 
L 124.018283 154.660597 
L 124.262987 154.660597 
L 124.344556 154.235878 
L 124.507692 154.235878 
L 124.507692 154.094305 
L 124.670828 154.094305 
L 124.833965 153.811159 
L 124.997101 153.811159 
L 124.997101 153.669586 
L 125.241806 153.669586 
L 125.241806 153.528013 
L 125.404942 153.528013 
L 125.486511 153.103294 
L 125.649647 153.103294 
L 125.649647 152.820147 
L 125.812783 152.820147 
L 125.812783 152.678574 
L 125.894352 152.678574 
L 125.97592 152.537001 
L 126.302193 152.537001 
L 126.383761 152.112282 
L 126.465329 152.112282 
L 126.546897 151.829136 
L 126.87317 151.262844 
L 126.954738 150.838125 
L 127.199443 150.838125 
L 127.444148 150.413406 
L 127.688852 150.413406 
L 127.688852 150.271833 
L 127.851989 150.271833 
L 127.933557 149.988687 
L 128.586103 149.988687 
L 128.586103 149.705541 
L 129.075512 149.705541 
L 129.15708 149.422395 
L 129.728058 149.422395 
L 129.728058 149.280822 
L 129.972762 149.280822 
L 130.054331 148.856103 
L 130.217467 148.856103 
L 130.299035 148.572956 
L 130.380603 148.431383 
L 130.54374 148.431383 
L 130.706876 148.28981 
L 131.033149 148.28981 
L 131.033149 148.148237 
L 131.767263 147.581945 
L 131.9304 147.581945 
L 131.9304 147.440372 
L 132.011968 147.440372 
L 132.093536 147.298799 
L 132.175104 146.732507 
L 132.501377 146.732507 
L 132.501377 146.590934 
L 133.153923 146.590934 
L 133.153923 146.449361 
L 133.235491 146.449361 
L 133.561764 146.024642 
L 133.888037 146.024642 
L 133.969605 145.45835 
L 134.785287 145.45835 
L 134.785287 144.467338 
L 135.029992 144.467338 
L 135.029992 144.184192 
L 135.356265 144.184192 
L 135.356265 144.042619 
L 135.764106 144.042619 
L 135.764106 143.901046 
L 135.927242 143.901046 
L 135.927242 143.759473 
L 136.090378 143.759473 
L 136.335083 143.334754 
L 136.49822 143.334754 
L 136.579788 143.193181 
L 136.579788 142.768462 
L 136.824492 142.768462 
L 136.906061 142.626889 
L 137.39547 142.626889 
L 137.39547 142.343743 
L 137.558606 142.060597 
L 137.966447 142.060597 
L 137.966447 141.919024 
L 138.129584 141.919024 
L 138.618993 140.928013 
L 139.026834 140.928013 
L 139.108402 140.503294 
L 139.189971 140.503294 
L 139.271539 140.220147 
L 139.353107 140.220147 
L 139.434675 139.937001 
L 139.597812 139.937001 
L 139.597812 139.370709 
L 139.760948 139.370709 
L 139.842516 138.94599 
L 139.924085 138.94599 
L 140.005653 138.804417 
L 140.413494 138.804417 
L 140.495062 138.379698 
L 140.739767 138.238125 
L 140.739767 137.954979 
L 140.902903 137.954979 
L 140.902903 137.671833 
L 141.06604 137.671833 
L 141.147608 137.388687 
L 141.637017 137.388687 
L 141.637017 137.105541 
L 141.718585 137.105541 
L 141.96329 137.105541 
L 141.96329 136.963968 
L 142.778972 136.963968 
L 142.86054 136.539249 
L 143.186813 136.539249 
L 143.186813 136.397676 
L 143.513086 136.397676 
L 143.513086 136.256103 
L 143.594654 136.256103 
L 144.491905 135.831383 
L 144.491905 135.548237 
L 144.655041 135.548237 
L 144.655041 135.406664 
L 144.736609 135.406664 
L 144.818177 135.265091 
L 145.14445 135.265091 
L 145.226019 134.840372 
L 145.796996 134.840372 
L 145.796996 134.698799 
L 146.041701 134.698799 
L 146.041701 134.557226 
L 146.612678 134.557226 
L 146.612678 134.415653 
L 146.938951 134.415653 
L 147.020519 134.132507 
L 147.346792 134.132507 
L 147.346792 133.990934 
L 147.509929 133.990934 
L 147.509929 133.849361 
L 147.999338 133.849361 
L 147.999338 133.566215 
L 148.651884 133.566215 
L 148.651884 133.424642 
L 148.733452 133.424642 
L 148.896588 133.283069 
L 149.385997 133.283069 
L 149.385997 133.141496 
L 149.875407 133.141496 
L 149.956975 132.716777 
L 150.20168 132.716777 
L 150.20168 132.575204 
L 150.446384 132.575204 
L 150.772657 132.150485 
L 151.017362 132.150485 
L 151.017362 132.008912 
L 151.588339 132.008912 
L 151.669907 131.584192 
L 151.751476 131.584192 
L 151.833044 131.159473 
L 151.99618 131.159473 
L 152.730294 129.885316 
L 153.138135 129.885316 
L 153.138135 129.460597 
L 153.545976 129.460597 
L 153.545976 129.319024 
L 153.709113 129.319024 
L 153.709113 129.177451 
L 153.953818 129.177451 
L 153.953818 129.035878 
L 154.361659 129.035878 
L 154.361659 128.894305 
L 155.422045 128.894305 
L 155.422045 128.611159 
L 156.074591 128.611159 
L 156.074591 128.469586 
L 156.319296 128.469586 
L 156.319296 128.328013 
L 156.400864 128.328013 
L 156.564 127.903294 
L 156.971841 127.903294 
L 156.971841 127.761721 
L 157.05341 127.761721 
L 157.216546 127.478574 
L 158.358501 127.478574 
L 158.358501 127.053855 
L 158.84791 127.053855 
L 158.84791 126.912282 
L 159.418888 126.912282 
L 159.418888 126.629136 
L 159.745161 126.629136 
L 159.745161 126.487563 
L 160.153002 126.487563 
L 160.23457 125.921271 
L 160.479275 125.921271 
L 160.479275 125.779698 
L 160.805548 125.779698 
L 160.805548 125.638125 
L 161.13182 125.638125 
L 161.13182 125.354979 
L 161.294957 125.354979 
L 161.294957 125.213406 
L 161.376525 125.213406 
L 161.539661 125.213406 
L 161.539661 125.071833 
L 162.192207 125.071833 
L 162.192207 124.93026 
L 162.51848 124.93026 
L 162.51848 124.788687 
L 162.926321 124.788687 
L 163.007889 124.505541 
L 163.171026 124.505541 
L 163.171026 124.222395 
L 163.578867 124.222395 
L 163.578867 123.939249 
L 163.823571 123.939249 
L 163.823571 123.797676 
L 164.068276 123.797676 
L 164.068276 123.656103 
L 164.639254 123.656103 
L 164.720822 122.948237 
L 165.291799 122.948237 
L 165.373368 122.665091 
L 165.618072 122.665091 
L 165.69964 122.240372 
L 165.862777 122.240372 
L 165.862777 122.098799 
L 166.025913 122.098799 
L 166.107481 121.815653 
L 166.270618 121.815653 
L 166.352186 121.532507 
L 166.596891 121.532507 
L 166.678459 120.966215 
L 166.841595 120.966215 
L 166.841595 120.824642 
L 167.0863 120.824642 
L 167.0863 120.399923 
L 167.167868 120.399923 
L 167.494141 120.116777 
L 167.738846 120.116777 
L 167.820414 119.550485 
L 168.065119 119.550485 
L 168.065119 119.408912 
L 168.309823 119.408912 
L 168.391392 118.842619 
L 169.043937 118.842619 
L 169.043937 118.701046 
L 169.207074 118.559473 
L 169.451778 118.559473 
L 169.451778 118.4179 
L 169.778051 118.4179 
L 169.859619 118.134754 
L 170.022756 118.134754 
L 170.022756 117.993181 
L 170.185892 117.993181 
L 170.349029 117.710035 
L 170.512165 117.710035 
L 170.512165 117.568462 
L 170.838438 117.568462 
L 170.838438 117.426889 
L 171.246279 117.426889 
L 171.246279 117.143743 
L 171.327847 117.143743 
L 171.490984 117.143743 
L 171.490984 117.00217 
L 171.65412 117.00217 
L 171.65412 116.719024 
L 171.817257 116.719024 
L 171.898825 116.152732 
L 172.143529 116.152732 
L 172.225098 115.869586 
L 172.306666 115.869586 
L 172.388234 115.728013 
L 172.714507 115.728013 
L 172.714507 115.58644 
L 173.04078 115.58644 
L 173.04078 115.444867 
L 173.285484 115.444867 
L 173.285484 114.878574 
L 174.264303 114.878574 
L 174.264303 114.737001 
L 174.345871 114.737001 
L 174.672144 114.737001 
L 174.672144 114.595428 
L 175.243122 114.595428 
L 175.32469 114.453855 
L 175.569394 114.453855 
L 175.814099 114.312282 
L 176.140372 114.312282 
L 176.140372 114.170709 
L 177.445463 114.170709 
L 178.424282 113.604417 
L 178.424282 113.462844 
L 178.587418 113.462844 
L 178.587418 113.321271 
L 179.076828 113.321271 
L 179.076828 112.896552 
L 179.729373 112.896552 
L 180.055646 112.471833 
L 180.952897 111.905541 
L 180.952897 111.763968 
L 181.197601 111.763968 
L 181.197601 111.622395 
L 181.279169 111.622395 
L 181.360738 111.480822 
L 181.687011 111.197676 
L 182.17642 111.197676 
L 182.17642 110.914529 
L 182.339556 110.914529 
L 182.828966 110.48981 
L 183.563079 110.48981 
L 183.563079 110.348237 
L 183.726216 110.348237 
L 183.807784 109.923518 
L 183.970921 109.923518 
L 184.134057 109.781945 
L 184.623466 109.781945 
L 184.786603 109.498799 
L 185.276012 108.932507 
L 185.765421 108.932507 
L 185.765421 108.790934 
L 186.336399 108.790934 
L 186.336399 108.507788 
L 186.499535 108.507788 
L 186.499535 108.366215 
L 186.907376 108.366215 
L 186.988944 108.224642 
L 187.396786 108.224642 
L 187.396786 108.083069 
L 187.723058 108.083069 
L 188.212468 107.65835 
L 189.02815 107.65835 
L 189.109718 107.233631 
L 189.354423 107.233631 
L 189.354423 107.092058 
L 189.517559 107.092058 
L 189.517559 106.950485 
L 190.251673 106.950485 
L 190.251673 106.808912 
L 190.822651 106.808912 
L 190.822651 106.667338 
L 190.985787 106.667338 
L 190.985787 106.525765 
L 191.393628 106.525765 
L 191.393628 106.384192 
L 191.638333 106.384192 
L 191.638333 106.242619 
L 192.454015 106.242619 
L 192.780288 105.8179 
L 192.943424 105.8179 
L 193.024992 105.534754 
L 193.106561 105.534754 
L 193.188129 105.393181 
L 193.922243 105.393181 
L 193.922243 105.251608 
L 194.003811 105.251608 
L 194.49322 105.110035 
L 194.574788 104.685316 
L 194.901061 104.685316 
L 194.901061 104.119024 
L 194.98263 104.119024 
L 195.308902 104.119024 
L 195.308902 103.977451 
L 195.798312 103.694305 
L 195.87988 103.694305 
L 195.87988 103.552732 
L 196.124585 103.552732 
L 196.206153 103.269586 
L 196.369289 103.269586 
L 196.369289 103.128013 
L 196.613994 103.128013 
L 196.940267 102.703294 
L 197.021835 102.703294 
L 197.103403 102.561721 
L 197.429676 102.561721 
L 197.429676 102.420147 
L 199.142608 102.420147 
L 199.468881 102.137001 
L 199.55045 101.287563 
L 199.958291 101.287563 
L 199.958291 100.862844 
L 200.202995 100.862844 
L 200.366132 100.579698 
L 201.508087 100.579698 
L 201.508087 100.438125 
L 202.160632 100.438125 
L 202.160632 100.296552 
L 202.486905 100.296552 
L 202.486905 100.154979 
L 202.73161 100.154979 
L 202.813178 99.73026 
L 203.302587 99.447114 
L 203.302587 99.305541 
L 203.465724 99.305541 
L 203.465724 99.163968 
L 203.791997 99.163968 
L 203.955133 98.739249 
L 204.199838 98.739249 
L 204.199838 98.597676 
L 204.281406 98.597676 
L 204.444542 98.314529 
L 204.689247 98.314529 
L 204.689247 98.172956 
L 205.097088 98.172956 
L 205.097088 98.031383 
L 205.749634 98.031383 
L 205.749634 97.88981 
L 206.157475 97.88981 
L 206.973157 97.323518 
L 207.217862 97.323518 
L 207.217862 97.181945 
L 207.951976 97.181945 
L 207.951976 96.757226 
L 208.115112 96.757226 
L 208.278249 96.049361 
L 208.441385 95.624642 
L 209.012362 95.624642 
L 209.012362 95.483069 
L 209.093931 95.483069 
L 209.257067 95.483069 
L 209.58334 95.341496 
L 209.828045 95.199923 
L 209.828045 95.05835 
L 209.909613 95.05835 
L 210.072749 95.05835 
L 210.235886 94.775204 
L 210.562159 94.775204 
L 210.562159 94.633631 
L 211.214704 94.633631 
L 211.296272 94.350485 
L 211.704114 94.350485 
L 211.86725 94.208912 
L 212.193523 94.208912 
L 212.193523 94.067338 
L 212.356659 94.067338 
L 212.7645 93.642619 
L 213.009205 93.642619 
L 213.009205 93.501046 
L 213.172341 93.501046 
L 213.25391 93.2179 
L 213.988024 93.2179 
L 213.988024 93.076327 
L 214.069592 93.076327 
L 214.314296 93.076327 
L 214.395865 92.934754 
L 215.211547 92.934754 
L 215.782524 92.510035 
L 216.353502 92.510035 
L 216.598206 92.226889 
L 217.495457 91.80217 
L 219.289957 91.80217 
L 219.697799 91.377451 
L 219.697799 91.235878 
L 220.024071 91.235878 
L 220.10564 91.094305 
L 220.350344 91.094305 
L 220.431912 90.811159 
L 220.595049 90.811159 
L 220.758185 90.669586 
L 221.00289 90.528013 
L 221.00289 90.38644 
L 221.329163 90.38644 
L 221.329163 90.103294 
L 221.981709 90.103294 
L 222.063277 89.820147 
L 222.226413 89.820147 
L 222.226413 89.537001 
L 222.552686 89.537001 
L 222.634254 89.395428 
L 223.531505 89.395428 
L 223.531505 89.253855 
L 224.020914 89.253855 
L 224.020914 88.687563 
L 224.999733 88.687563 
L 225.081301 88.262844 
L 227.936188 86.988687 
L 227.936188 86.705541 
L 228.262461 86.705541 
L 230.056962 86.422395 
L 230.056962 86.280822 
L 230.464803 85.997676 
L 230.872644 85.997676 
L 230.872644 85.856103 
L 231.198917 85.856103 
L 231.606758 85.572956 
L 232.585576 85.148237 
L 232.911849 85.148237 
L 233.401259 85.006664 
L 233.401259 84.865091 
L 233.727531 84.865091 
L 235.114191 83.87408 
L 236.337714 83.87408 
L 236.582419 83.590934 
L 237.234965 83.590934 
L 237.724374 83.307788 
L 238.050647 83.307788 
L 238.213783 82.741496 
L 240.089852 82.741496 
L 240.089852 82.599923 
L 240.66083 82.316777 
L 240.742398 82.316777 
L 240.823966 82.033631 
L 240.987103 82.033631 
L 241.150239 81.892058 
L 241.394944 81.750485 
L 241.639648 81.750485 
L 242.129058 81.608912 
L 242.129058 81.467338 
L 242.210626 81.467338 
L 242.45533 81.325765 
L 242.781603 81.325765 
L 243.271013 80.901046 
L 243.352581 80.901046 
L 243.760422 80.759473 
L 243.760422 80.6179 
L 244.086695 80.334754 
L 244.983945 80.334754 
L 244.983945 80.193181 
L 245.391786 80.193181 
L 245.881195 79.910035 
L 247.675696 78.635878 
L 248.001969 78.635878 
L 248.001969 78.352732 
L 248.165105 78.352732 
L 248.246674 78.211159 
L 249.714902 78.211159 
L 251.672539 77.78644 
L 252.325084 77.503294 
L 252.814494 77.503294 
L 252.814494 77.361721 
L 253.467039 77.220147 
L 253.467039 77.078574 
L 253.548608 77.078574 
L 254.038017 76.795428 
L 254.119585 76.795428 
L 254.36429 76.653855 
L 255.016836 76.653855 
L 255.016836 76.512282 
L 255.179972 76.512282 
L 255.179972 76.370709 
L 255.343108 76.370709 
L 255.669381 76.229136 
L 256.566632 76.229136 
L 256.6482 75.804417 
L 256.729768 75.804417 
L 256.729768 75.662844 
L 256.892904 75.662844 
L 256.892904 75.521271 
L 257.382314 75.521271 
L 257.382314 75.379698 
L 257.790155 75.096552 
L 258.605837 75.096552 
L 258.605837 74.954979 
L 259.013678 74.954979 
L 259.013678 74.813406 
L 259.339951 74.813406 
L 260.563474 74.671833 
L 260.563474 74.247114 
L 260.726611 74.247114 
L 261.379156 73.963968 
L 261.379156 73.822395 
L 262.602679 73.822395 
L 263.092089 73.680822 
L 263.092089 73.397676 
L 263.581498 73.397676 
L 263.581498 73.114529 
L 264.070907 73.114529 
L 264.070907 72.831383 
L 264.152476 72.831383 
L 265.049726 72.831383 
L 265.049726 72.68981 
L 265.457567 72.68981 
L 265.539135 72.548237 
L 265.78384 72.548237 
L 265.78384 72.406664 
L 266.110113 72.406664 
L 266.354817 72.265091 
L 266.436386 71.415653 
L 266.517954 71.415653 
L 266.517954 71.132507 
L 266.68109 71.132507 
L 266.762658 70.990934 
L 267.1705 70.990934 
L 267.252068 70.566215 
L 268.149318 70.566215 
L 268.149318 70.424642 
L 269.046568 70.424642 
L 269.046568 70.141496 
L 270.270092 70.141496 
L 270.433228 69.85835 
L 271.73832 69.85835 
L 271.901456 69.716777 
L 272.227729 69.716777 
L 272.390865 69.575204 
L 272.63557 69.575204 
L 272.63557 69.433631 
L 273.369684 69.150485 
L 275.81673 69.150485 
L 275.898298 68.725765 
L 276.061435 68.725765 
L 276.061435 68.584192 
L 276.877117 68.584192 
L 276.958685 68.159473 
L 277.284958 68.159473 
L 277.366526 67.876327 
L 278.345345 67.876327 
L 278.345345 67.734754 
L 278.671618 67.734754 
L 278.671618 67.593181 
L 278.753186 67.593181 
L 278.916322 67.168462 
L 279.732005 67.168462 
L 279.732005 67.026889 
L 279.813573 67.026889 
L 280.058277 67.026889 
L 280.058277 66.885316 
L 280.221414 66.885316 
L 280.221414 66.743743 
L 280.710823 66.743743 
L 280.710823 66.319024 
L 281.608074 66.319024 
L 281.608074 66.177451 
L 282.342187 66.177451 
L 282.342187 66.035878 
L 282.66846 66.035878 
L 282.66846 65.894305 
L 283.810415 65.894305 
L 283.891984 65.752732 
L 284.136688 65.752732 
L 284.299825 65.611159 
L 285.849621 65.611159 
L 286.012757 65.469586 
L 286.746871 65.469586 
L 286.746871 65.328013 
L 287.23628 65.328013 
L 287.23628 65.18644 
L 287.644121 65.18644 
L 287.644121 65.044867 
L 288.133531 65.044867 
L 288.133531 64.761721 
L 288.704508 64.761721 
L 288.867645 64.478574 
L 289.438622 64.478574 
L 289.438622 64.337001 
L 290.580577 64.337001 
L 290.662145 64.195428 
L 290.90685 64.195428 
L 290.90685 63.912282 
L 291.640964 63.912282 
L 291.967237 63.770709 
L 292.048805 63.770709 
L 292.048805 63.629136 
L 292.130373 63.629136 
L 292.782919 63.34599 
L 293.924874 63.34599 
L 293.924874 63.204417 
L 294.495851 63.204417 
L 294.495851 63.062844 
L 295.229965 63.062844 
L 295.229965 62.921271 
L 295.311534 62.921271 
L 295.882511 62.921271 
L 295.882511 62.779698 
L 296.535057 62.779698 
L 296.616625 62.213406 
L 296.942898 62.213406 
L 296.942898 62.071833 
L 297.187603 62.071833 
L 297.187603 61.93026 
L 297.269171 61.93026 
L 297.595444 61.93026 
L 297.75858 61.788687 
L 298.247989 61.788687 
L 298.574262 61.647114 
L 298.900535 61.647114 
L 298.900535 61.505541 
L 299.14524 61.505541 
L 299.14524 61.363968 
L 299.634649 61.363968 
L 299.634649 61.222395 
L 299.797785 61.222395 
L 299.797785 60.939249 
L 299.960922 60.939249 
L 299.960922 60.797676 
L 300.858172 60.797676 
L 301.021309 60.656103 
L 302.081695 60.656103 
L 302.081695 60.514529 
L 302.244832 60.514529 
L 302.3264 60.372956 
L 302.815809 60.372956 
L 302.978946 60.08981 
L 303.71306 60.08981 
L 305.018151 59.523518 
L 305.425992 59.523518 
L 305.670697 59.381945 
L 306.649515 59.381945 
L 306.731084 59.098799 
L 307.873039 59.098799 
L 307.954607 58.957226 
L 308.525584 58.957226 
L 308.770289 58.815653 
L 309.504403 58.815653 
L 309.504403 58.67408 
L 310.07538 58.67408 
L 310.156949 58.532507 
L 310.646358 58.532507 
L 310.646358 58.390934 
L 311.46204 58.390934 
L 311.46204 58.249361 
L 312.114586 58.249361 
L 312.196154 58.107788 
L 312.767132 58.107788 
L 313.419677 57.966215 
L 313.909087 57.966215 
L 313.909087 57.824642 
L 314.480064 57.824642 
L 314.6432 57.683069 
L 316.02986 57.683069 
L 316.02986 57.399923 
L 316.600838 57.399923 
L 316.600838 57.116777 
L 317.253383 57.116777 
L 317.253383 56.975204 
L 317.498088 56.975204 
L 317.579656 56.833631 
L 318.31377 56.833631 
L 318.31377 56.692058 
L 318.558475 56.692058 
L 318.558475 56.550485 
L 318.966316 56.550485 
L 318.966316 56.408912 
L 319.047884 56.408912 
L 321.331794 56.408912 
L 321.494931 56.267338 
L 321.98434 56.267338 
L 321.98434 56.125765 
L 322.555317 56.125765 
L 322.636886 55.984192 
L 323.370999 55.984192 
L 323.370999 55.842619 
L 325.1655 55.842619 
L 325.736478 55.559473 
L 326.55216 55.4179 
L 326.55216 55.134754 
L 328.265092 55.134754 
L 328.265092 54.851608 
L 328.346661 54.851608 
L 329.162343 54.851608 
L 329.325479 54.710035 
L 329.651752 54.710035 
L 329.73332 54.568462 
L 330.141161 54.568462 
L 330.141161 54.426889 
L 330.467434 54.426889 
L 330.549002 54.285316 
L 331.11998 54.285316 
L 331.11998 54.143743 
L 334.464277 54.143743 
L 334.464277 54.00217 
L 336.095641 54.00217 
L 336.095641 53.860597 
L 336.748187 53.860597 
L 336.748187 53.719024 
L 337.727005 53.719024 
L 337.890142 53.577451 
L 339.032097 53.577451 
L 339.113665 53.294305 
L 339.195233 53.294305 
L 339.195233 53.152732 
L 339.847779 53.152732 
L 339.847779 53.011159 
L 340.174052 53.011159 
L 340.174052 52.869586 
L 340.337188 52.869586 
L 340.337188 52.728013 
L 343.43678 52.728013 
L 343.518348 52.444867 
L 343.844621 52.444867 
L 343.844621 52.303294 
L 344.660303 52.303294 
L 344.741872 51.878574 
L 345.394417 51.878574 
L 345.639122 51.595428 
L 345.965395 51.595428 
L 345.965395 51.312282 
L 346.291668 51.312282 
L 346.291668 51.170709 
L 346.373236 51.170709 
L 346.862645 51.170709 
L 346.944214 50.887563 
L 348.086169 50.887563 
L 348.249305 50.74599 
L 348.657146 50.74599 
L 348.657146 50.604417 
L 351.267329 50.604417 
L 351.348897 50.462844 
L 352.327716 50.462844 
L 352.327716 50.321271 
L 353.306534 50.321271 
L 353.306534 50.179698 
L 353.877512 50.179698 
L 353.95908 50.038125 
L 354.530057 50.038125 
L 354.530057 49.896552 
L 356.24299 49.896552 
L 356.324558 49.754979 
L 358.5269 49.754979 
L 358.608468 49.471833 
L 358.853173 49.471833 
L 358.934741 49.33026 
L 359.179446 49.33026 
L 359.179446 49.188687 
L 360.321401 49.188687 
L 360.402969 49.047114 
L 361.218651 49.047114 
L 361.300219 48.905541 
L 361.952765 48.905541 
L 362.034333 48.763968 
L 363.013152 48.763968 
L 363.013152 48.622395 
L 364.073539 48.622395 
L 364.155107 48.480822 
L 364.889221 48.480822 
L 364.970789 48.339249 
L 368.396654 48.339249 
L 368.396654 48.197676 
L 368.722927 48.197676 
L 368.722927 48.056103 
L 369.457041 48.056103 
L 369.457041 47.914529 
L 369.94645 47.914529 
L 370.109586 47.772956 
L 370.517428 47.772956 
L 370.517428 47.631383 
L 372.475065 47.631383 
L 372.556633 47.48981 
L 373.698588 47.48981 
L 373.698588 47.348237 
L 374.677407 47.348237 
L 374.677407 47.206664 
L 375.41152 47.206664 
L 375.41152 47.065091 
L 375.493089 47.065091 
L 375.656225 47.065091 
L 375.656225 46.923518 
L 375.819362 46.923518 
L 375.90093 46.781945 
L 376.635044 46.781945 
L 376.635044 46.640372 
L 376.716612 46.640372 
L 384.302456 46.640372 
L 384.302456 46.498799 
L 385.444411 46.498799 
L 385.852252 46.357226 
L 386.096957 46.357226 
L 386.096957 46.07408 
L 386.178525 46.07408 
L 387.238912 46.07408 
L 387.238912 45.932507 
L 388.380867 45.932507 
L 388.380867 45.790934 
L 388.625571 45.790934 
L 388.625571 45.649361 
L 390.093799 45.649361 
L 390.093799 45.507788 
L 390.175367 45.507788 
L 391.072618 45.507788 
L 391.072618 45.366215 
L 392.051436 45.366215 
L 392.051436 45.083069 
L 393.682801 45.083069 
L 393.764369 44.941496 
L 394.17221 44.941496 
L 394.17221 44.799923 
L 395.966711 44.799923 
L 395.966711 44.65835 
L 396.048279 44.65835 
L 398.74003 44.65835 
L 398.74003 44.516777 
L 398.984734 44.516777 
L 398.984734 44.375204 
L 399.392576 44.375204 
L 399.392576 44.233631 
L 399.963553 44.233631 
L 399.963553 44.092058 
L 400.616099 44.092058 
L 400.616099 43.950485 
L 402.329031 43.950485 
L 402.329031 43.808912 
L 402.4106 43.808912 
L 402.655304 43.808912 
L 402.655304 43.667338 
L 404.123532 43.667338 
L 404.123532 43.525765 
L 406.325874 43.525765 
L 406.325874 43.384192 
L 406.407442 43.384192 
L 407.549397 43.384192 
L 407.712533 43.101046 
L 408.201943 43.101046 
L 408.201943 42.959473 
L 412.035649 42.959473 
L 412.117217 42.8179 
L 413.667013 42.8179 
L 413.748581 42.676327 
L 414.7274 42.676327 
L 414.7274 42.534754 
L 415.053673 42.534754 
L 415.053673 42.393181 
L 416.358764 42.393181 
L 416.358764 42.251608 
L 417.500719 42.251608 
L 417.745424 42.110035 
L 419.866197 42.110035 
L 419.866197 41.968462 
L 421.415994 41.968462 
L 421.415994 41.826889 
L 422.721085 41.826889 
L 422.721085 41.685316 
L 422.802653 41.685316 
L 426.473223 41.685316 
L 426.473223 41.543743 
L 427.370473 41.543743 
L 427.452041 41.260597 
L 427.615178 41.260597 
L 427.615178 41.119024 
L 428.349292 41.119024 
L 428.349292 40.977451 
L 430.388497 40.977451 
L 430.388497 40.835878 
L 431.367316 40.835878 
L 431.367316 40.552732 
L 432.182998 40.552732 
L 434.222203 40.411159 
L 437.077091 40.411159 
L 437.077091 40.269586 
L 437.811205 40.269586 
L 437.811205 40.128013 
L 438.790023 40.128013 
L 438.790023 39.98644 
L 438.871591 39.98644 
L 442.215888 39.98644 
L 442.215888 39.844867 
L 442.623729 39.844867 
L 442.786866 39.703294 
L 444.581367 39.703294 
L 445.31548 39.561721 
L 453.717007 39.561721 
L 453.717007 39.420147 
L 458.12169 39.420147 
L 458.12169 39.278574 
L 458.937372 39.278574 
L 459.182077 39.137001 
L 459.426782 39.137001 
L 459.50835 38.995428 
L 462.934215 38.995428 
L 463.097351 38.853855 
L 464.07617 38.853855 
L 464.07617 38.712282 
L 464.157738 38.712282 
L 464.891852 38.712282 
L 465.054988 38.570709 
L 474.10906 38.570709 
L 474.10906 38.429136 
L 475.658856 38.429136 
L 475.903561 38.14599 
L 478.758448 38.14599 
L 478.758448 38.004417 
L 483.326269 38.004417 
L 483.570973 37.862844 
L 487.649384 37.862844 
L 487.649384 37.721271 
L 491.48309 37.721271 
L 491.890931 37.579698 
L 501.597549 37.579698 
L 501.842253 37.438125 
L 578.353239 37.438125 
L 578.353239 37.438125 
" clip-path="url(#pd1e7740711)" style="fill: none; stroke: #1f77b4; stroke-width: 1.5; stroke-linecap: square"/>
   </g>
   <g id="line2d_26">
    <path d="M 71.080511 339.838125 
L 71.080511 259.383079 
L 71.6939 259.383079 
L 71.6939 251.060143 
L 73.534067 251.060143 
L 74.147457 248.285831 
L 75.374235 248.285831 
L 75.374235 226.091336 
L 76.601013 226.091336 
L 76.601013 214.994088 
L 82.121514 214.994088 
L 82.121514 212.219776 
L 82.734903 212.219776 
L 82.734903 203.896841 
L 83.348292 203.896841 
L 83.348292 201.122529 
L 84.57507 201.122529 
L 84.57507 198.348217 
L 87.028626 198.348217 
L 87.028626 192.799593 
L 89.482182 192.799593 
L 89.482182 190.025281 
L 91.322349 190.025281 
L 91.322349 187.250969 
L 94.389294 187.250969 
L 94.389294 181.702345 
L 101.749963 181.702345 
L 101.749963 178.928033 
L 110.950798 178.928033 
L 110.950798 176.153721 
L 114.017743 176.153721 
L 114.017743 173.379409 
L 115.857911 173.379409 
L 115.857911 170.605097 
L 124.445357 170.605097 
L 124.445357 165.056474 
L 125.058746 165.056474 
L 125.058746 162.282162 
L 126.898913 162.282162 
L 126.898913 159.50785 
L 128.73908 159.50785 
L 128.73908 156.733538 
L 132.419414 156.733538 
L 132.419414 153.959226 
L 133.032803 153.959226 
L 133.646192 151.184914 
L 136.713138 151.184914 
L 136.713138 148.410602 
L 138.553305 148.410602 
L 139.780083 145.63629 
L 139.780083 140.087666 
L 143.460417 140.087666 
L 143.460417 137.313354 
L 144.687195 137.313354 
L 144.687195 134.539042 
L 147.75414 134.539042 
L 148.980918 131.764731 
L 155.728197 131.764731 
L 155.728197 128.990419 
L 167.382589 128.990419 
L 167.382589 123.441795 
L 167.995978 123.441795 
L 167.995978 120.667483 
L 175.356646 120.667483 
L 175.356646 117.893171 
L 177.810202 117.893171 
L 177.810202 115.118859 
L 180.263759 115.118859 
L 183.330704 106.795923 
L 187.011038 106.795923 
L 187.011038 104.021611 
L 188.851205 104.021611 
L 189.464594 101.247299 
L 189.464594 98.472987 
L 192.531539 98.472987 
L 192.531539 95.698675 
L 193.144928 92.924364 
L 199.278818 92.924364 
L 199.278818 90.150052 
L 202.345764 90.150052 
L 202.345764 87.37574 
L 204.185931 87.37574 
L 204.185931 84.601428 
L 205.412709 84.601428 
L 206.026098 81.827116 
L 216.453711 81.827116 
L 216.453711 79.052804 
L 253.870442 79.052804 
L 254.483831 76.278492 
L 261.23111 76.278492 
L 261.23111 73.50418 
L 261.844499 73.50418 
L 261.844499 70.729868 
L 281.472948 70.729868 
L 281.472948 67.955556 
L 283.313116 67.955556 
L 283.313116 65.181244 
L 316.436123 65.181244 
L 316.436123 62.406932 
L 325.636959 62.406932 
L 325.636959 59.63262 
L 326.863737 59.63262 
L 326.863737 56.858308 
L 331.15746 56.858308 
L 331.15746 54.083997 
L 344.038629 54.083997 
L 344.038629 51.309685 
L 350.785909 51.309685 
L 350.785909 48.535373 
L 353.852854 48.535373 
L 353.852854 45.761061 
L 359.373355 45.761061 
L 359.373355 42.986749 
L 375.32147 42.986749 
L 375.32147 40.212437 
L 382.682138 40.212437 
L 383.295527 37.438125 
L 578.353239 37.438125 
L 578.353239 37.438125 
" clip-path="url(#pd1e7740711)" style="fill: none; stroke: #ff7f0e; stroke-width: 1.5; stroke-linecap: square"/>
   </g>
   <g id="line2d_27">
    <path d="M 71.080511 339.838125 
L 71.080511 335.806125 
L 71.080511 255.166125 
L 73.345122 255.166125 
L 73.345122 243.070125 
L 77.874343 243.070125 
L 77.874343 239.038125 
L 80.138953 239.038125 
L 80.138953 230.974125 
L 80.138953 222.910125 
L 84.668174 222.910125 
L 84.668174 210.814125 
L 86.932784 210.814125 
L 86.932784 206.782125 
L 91.462005 206.782125 
L 91.462005 198.718125 
L 93.726615 198.718125 
L 93.726615 194.686125 
L 100.520446 194.686125 
L 100.520446 190.654125 
L 102.785057 190.654125 
L 102.785057 186.622125 
L 107.314278 186.622125 
L 111.843498 182.590125 
L 111.843498 178.558125 
L 114.108109 178.558125 
L 114.108109 174.526125 
L 116.372719 174.526125 
L 116.372719 170.494125 
L 123.16655 170.494125 
L 123.16655 162.430125 
L 125.431161 162.430125 
L 125.431161 158.398125 
L 134.489602 158.398125 
L 134.489602 154.366125 
L 136.754213 154.366125 
L 136.754213 150.334125 
L 141.283433 150.334125 
L 141.283433 146.302125 
L 159.400317 146.302125 
L 159.400317 142.270125 
L 168.458758 142.270125 
L 168.458758 134.206125 
L 184.311031 134.206125 
L 184.311031 126.142125 
L 188.840252 126.142125 
L 191.104862 122.110125 
L 193.369472 122.110125 
L 193.369472 118.078125 
L 213.750966 118.078125 
L 213.750966 105.982125 
L 231.867849 105.982125 
L 231.867849 93.886125 
L 234.132459 93.886125 
L 234.132459 85.822125 
L 247.720122 85.822125 
L 252.249343 85.822125 
L 252.249343 81.790125 
L 270.366226 81.790125 
L 270.366226 77.758125 
L 277.160057 77.758125 
L 283.953888 77.758125 
L 283.953888 73.726125 
L 286.218498 73.726125 
L 286.218498 69.694125 
L 299.806161 69.694125 
L 299.806161 65.662125 
L 306.599992 65.662125 
L 311.129213 65.662125 
L 311.129213 61.630125 
L 322.452265 61.630125 
L 322.452265 57.598125 
L 381.332135 57.598125 
L 381.332135 53.566125 
L 394.919797 53.566125 
L 394.919797 49.534125 
L 413.03668 49.534125 
L 417.565901 49.534125 
L 435.682784 49.534125 
L 435.682784 45.502125 
L 442.476615 45.502125 
L 451.535057 45.502125 
L 471.91655 45.502125 
L 471.91655 41.470125 
L 499.091875 41.470125 
L 499.091875 37.438125 
L 512.679537 37.438125 
L 517.208758 37.438125 
L 578.353239 37.438125 
" clip-path="url(#pd1e7740711)" style="fill: none; stroke: #2ca02c; stroke-width: 1.5; stroke-linecap: square"/>
   </g>
   <g id="line2d_28">
    <path d="M 71.080511 339.838125 
L 71.080511 302.038125 
L 89.41567 302.038125 
L 101.639109 302.038125 
L 132.197707 302.038125 
L 132.197707 264.238125 
L 205.538343 264.238125 
L 205.538343 226.438125 
L 223.873502 226.438125 
L 223.873502 188.638125 
L 236.096941 188.638125 
L 303.325856 188.638125 
L 303.325856 150.838125 
L 309.437576 150.838125 
L 309.437576 113.038125 
L 370.554772 113.038125 
L 370.554772 75.238125 
L 425.560248 75.238125 
L 437.783688 75.238125 
L 474.454005 75.238125 
L 474.454005 37.438125 
L 578.353239 37.438125 
" clip-path="url(#pd1e7740711)" style="fill: none; stroke: #d62728; stroke-width: 1.5; stroke-linecap: square"/>
   </g>
   <g id="line2d_29">
    <path d="M 71.080511 339.838125 
L 71.080511 309.598125 
L 71.080511 188.638125 
L 84.087504 188.638125 
L 84.087504 158.398125 
L 90.591001 158.398125 
L 90.591001 128.158125 
L 136.115476 128.158125 
L 136.115476 97.918125 
L 142.618973 97.918125 
L 142.618973 67.678125 
L 207.653938 67.678125 
L 207.653938 37.438125 
L 578.353239 37.438125 
" clip-path="url(#pd1e7740711)" style="fill: none; stroke: #9467bd; stroke-width: 1.5; stroke-linecap: square"/>
   </g>
   <g id="line2d_30">
    <path d="M 71.080511 339.838125 
L 578.353239 37.438125 
" clip-path="url(#pd1e7740711)" style="fill: none; stroke-dasharray: 7.4,3.2; stroke-dashoffset: 0; stroke: #808080; stroke-width: 2"/>
   </g>
   <g id="patch_3">
    <path d="M 45.716875 354.958125 
L 45.716875 22.318125 
" style="fill: none; stroke: #000000; stroke-width: 0.8; stroke-linejoin: miter; stroke-linecap: square"/>
   </g>
   <g id="patch_4">
    <path d="M 603.716875 354.958125 
L 603.716875 22.318125 
" style="fill: none; stroke: #000000; stroke-width: 0.8; stroke-linejoin: miter; stroke-linecap: square"/>
   </g>
   <g id="patch_5">
    <path d="M 45.716875 354.958125 
L 603.716875 354.958125 
" style="fill: none; stroke: #000000; stroke-width: 0.8; stroke-linejoin: miter; stroke-linecap: square"/>
   </g>
   <g id="patch_6">
    <path d="M 45.716875 22.318125 
L 603.716875 22.318125 
" style="fill: none; stroke: #000000; stroke-width: 0.8; stroke-linejoin: miter; stroke-linecap: square"/>
   </g>
   <g id="text_15">
    <!-- ROC Curve: Decision Tree Classifier -->
    <g transform="translate(218.85625 16.318125) scale(0.12 -0.12)">
     <defs>
      <path id="DejaVuSans-4f" d="M 2522 4238 
Q 1834 4238 1429 3725 
Q 1025 3213 1025 2328 
Q 1025 1447 1429 934 
Q 1834 422 2522 422 
Q 3209 422 3611 934 
Q 4013 1447 4013 2328 
Q 4013 3213 3611 3725 
Q 3209 4238 2522 4238 
z
M 2522 4750 
Q 3503 4750 4090 4092 
Q 4678 3434 4678 2328 
Q 4678 1225 4090 567 
Q 3503 -91 2522 -91 
Q 1538 -91 948 565 
Q 359 1222 359 2328 
Q 359 3434 948 4092 
Q 1538 4750 2522 4750 
z
" transform="scale(0.015625)"/>
      <path id="DejaVuSans-43" d="M 4122 4306 
L 4122 3641 
Q 3803 3938 3442 4084 
Q 3081 4231 2675 4231 
Q 1875 4231 1450 3742 
Q 1025 3253 1025 2328 
Q 1025 1406 1450 917 
Q 1875 428 2675 428 
Q 3081 428 3442 575 
Q 3803 722 4122 1019 
L 4122 359 
Q 3791 134 3420 21 
Q 3050 -91 2638 -91 
Q 1578 -91 968 557 
Q 359 1206 359 2328 
Q 359 3453 968 4101 
Q 1578 4750 2638 4750 
Q 3056 4750 3426 4639 
Q 3797 4528 4122 4306 
z
" transform="scale(0.015625)"/>
      <path id="DejaVuSans-3a" d="M 750 794 
L 1409 794 
L 1409 0 
L 750 0 
L 750 794 
z
M 750 3309 
L 1409 3309 
L 1409 2516 
L 750 2516 
L 750 3309 
z
" transform="scale(0.015625)"/>
      <path id="DejaVuSans-44" d="M 1259 4147 
L 1259 519 
L 2022 519 
Q 2988 519 3436 956 
Q 3884 1394 3884 2338 
Q 3884 3275 3436 3711 
Q 2988 4147 2022 4147 
L 1259 4147 
z
M 628 4666 
L 1925 4666 
Q 3281 4666 3915 4102 
Q 4550 3538 4550 2338 
Q 4550 1131 3912 565 
Q 3275 0 1925 0 
L 628 0 
L 628 4666 
z
" transform="scale(0.015625)"/>
      <path id="DejaVuSans-63" d="M 3122 3366 
L 3122 2828 
Q 2878 2963 2633 3030 
Q 2388 3097 2138 3097 
Q 1578 3097 1268 2742 
Q 959 2388 959 1747 
Q 959 1106 1268 751 
Q 1578 397 2138 397 
Q 2388 397 2633 464 
Q 2878 531 3122 666 
L 3122 134 
Q 2881 22 2623 -34 
Q 2366 -91 2075 -91 
Q 1284 -91 818 406 
Q 353 903 353 1747 
Q 353 2603 823 3093 
Q 1294 3584 2113 3584 
Q 2378 3584 2631 3529 
Q 2884 3475 3122 3366 
z
" transform="scale(0.015625)"/>
      <path id="DejaVuSans-6e" d="M 3513 2113 
L 3513 0 
L 2938 0 
L 2938 2094 
Q 2938 2591 2744 2837 
Q 2550 3084 2163 3084 
Q 1697 3084 1428 2787 
Q 1159 2491 1159 1978 
L 1159 0 
L 581 0 
L 581 3500 
L 1159 3500 
L 1159 2956 
Q 1366 3272 1645 3428 
Q 1925 3584 2291 3584 
Q 2894 3584 3203 3211 
Q 3513 2838 3513 2113 
z
" transform="scale(0.015625)"/>
      <path id="DejaVuSans-66" d="M 2375 4863 
L 2375 4384 
L 1825 4384 
Q 1516 4384 1395 4259 
Q 1275 4134 1275 3809 
L 1275 3500 
L 2222 3500 
L 2222 3053 
L 1275 3053 
L 1275 0 
L 697 0 
L 697 3053 
L 147 3053 
L 147 3500 
L 697 3500 
L 697 3744 
Q 697 4328 969 4595 
Q 1241 4863 1831 4863 
L 2375 4863 
z
" transform="scale(0.015625)"/>
     </defs>
     <use xlink:href="#DejaVuSans-52"/>
     <use xlink:href="#DejaVuSans-4f" x="69.482422"/>
     <use xlink:href="#DejaVuSans-43" x="148.193359"/>
     <use xlink:href="#DejaVuSans-20" x="218.017578"/>
     <use xlink:href="#DejaVuSans-43" x="249.804688"/>
     <use xlink:href="#DejaVuSans-75" x="319.628906"/>
     <use xlink:href="#DejaVuSans-72" x="383.007812"/>
     <use xlink:href="#DejaVuSans-76" x="424.121094"/>
     <use xlink:href="#DejaVuSans-65" x="483.300781"/>
     <use xlink:href="#DejaVuSans-3a" x="544.824219"/>
     <use xlink:href="#DejaVuSans-20" x="578.515625"/>
     <use xlink:href="#DejaVuSans-44" x="610.302734"/>
     <use xlink:href="#DejaVuSans-65" x="687.304688"/>
     <use xlink:href="#DejaVuSans-63" x="748.828125"/>
     <use xlink:href="#DejaVuSans-69" x="803.808594"/>
     <use xlink:href="#DejaVuSans-73" x="831.591797"/>
     <use xlink:href="#DejaVuSans-69" x="883.691406"/>
     <use xlink:href="#DejaVuSans-6f" x="911.474609"/>
     <use xlink:href="#DejaVuSans-6e" x="972.65625"/>
     <use xlink:href="#DejaVuSans-20" x="1036.035156"/>
     <use xlink:href="#DejaVuSans-54" x="1067.822266"/>
     <use xlink:href="#DejaVuSans-72" x="1114.15625"/>
     <use xlink:href="#DejaVuSans-65" x="1153.019531"/>
     <use xlink:href="#DejaVuSans-65" x="1214.542969"/>
     <use xlink:href="#DejaVuSans-20" x="1276.066406"/>
     <use xlink:href="#DejaVuSans-43" x="1307.853516"/>
     <use xlink:href="#DejaVuSans-6c" x="1377.677734"/>
     <use xlink:href="#DejaVuSans-61" x="1405.460938"/>
     <use xlink:href="#DejaVuSans-73" x="1466.740234"/>
     <use xlink:href="#DejaVuSans-73" x="1518.839844"/>
     <use xlink:href="#DejaVuSans-69" x="1570.939453"/>
     <use xlink:href="#DejaVuSans-66" x="1598.722656"/>
     <use xlink:href="#DejaVuSans-69" x="1633.927734"/>
     <use xlink:href="#DejaVuSans-65" x="1661.710938"/>
     <use xlink:href="#DejaVuSans-72" x="1723.234375"/>
    </g>
   </g>
   <g id="legend_1">
    <g id="patch_7">
     <path d="M 145.584063 500.922875 
L 503.849688 500.922875 
Q 505.849688 500.922875 505.849688 498.922875 
L 505.849688 411.854125 
Q 505.849688 409.854125 503.849688 409.854125 
L 145.584063 409.854125 
Q 143.584063 409.854125 143.584063 411.854125 
L 143.584063 498.922875 
Q 143.584063 500.922875 145.584063 500.922875 
z
" style="fill: #ffffff; opacity: 0.8; stroke: #cccccc; stroke-linejoin: miter"/>
    </g>
    <g id="line2d_31">
     <path d="M 147.584063 417.952562 
L 157.584063 417.952562 
L 167.584063 417.952562 
" style="fill: none; stroke: #1f77b4; stroke-width: 1.5; stroke-linecap: square"/>
    </g>
    <g id="text_16">
     <!-- AUC for White = 0.86, Count: 8,355, Pos: 2,136, Neg: 6,219 -->
     <g transform="translate(175.584063 421.452562) scale(0.1 -0.1)">
      <defs>
       <path id="DejaVuSans-41" d="M 2188 4044 
L 1331 1722 
L 3047 1722 
L 2188 4044 
z
M 1831 4666 
L 2547 4666 
L 4325 0 
L 3669 0 
L 3244 1197 
L 1141 1197 
L 716 0 
L 50 0 
L 1831 4666 
z
" transform="scale(0.015625)"/>
       <path id="DejaVuSans-55" d="M 556 4666 
L 1191 4666 
L 1191 1831 
Q 1191 1081 1462 751 
Q 1734 422 2344 422 
Q 2950 422 3222 751 
Q 3494 1081 3494 1831 
L 3494 4666 
L 4128 4666 
L 4128 1753 
Q 4128 841 3676 375 
Q 3225 -91 2344 -91 
Q 1459 -91 1007 375 
Q 556 841 556 1753 
L 556 4666 
z
" transform="scale(0.015625)"/>
       <path id="DejaVuSans-57" d="M 213 4666 
L 850 4666 
L 1831 722 
L 2809 4666 
L 3519 4666 
L 4500 722 
L 5478 4666 
L 6119 4666 
L 4947 0 
L 4153 0 
L 3169 4050 
L 2175 0 
L 1381 0 
L 213 4666 
z
" transform="scale(0.015625)"/>
       <path id="DejaVuSans-68" d="M 3513 2113 
L 3513 0 
L 2938 0 
L 2938 2094 
Q 2938 2591 2744 2837 
Q 2550 3084 2163 3084 
Q 1697 3084 1428 2787 
Q 1159 2491 1159 1978 
L 1159 0 
L 581 0 
L 581 4863 
L 1159 4863 
L 1159 2956 
Q 1366 3272 1645 3428 
Q 1925 3584 2291 3584 
Q 2894 3584 3203 3211 
Q 3513 2838 3513 2113 
z
" transform="scale(0.015625)"/>
       <path id="DejaVuSans-3d" d="M 678 2906 
L 4684 2906 
L 4684 2381 
L 678 2381 
L 678 2906 
z
M 678 1631 
L 4684 1631 
L 4684 1100 
L 678 1100 
L 678 1631 
z
" transform="scale(0.015625)"/>
       <path id="DejaVuSans-2c" d="M 750 794 
L 1409 794 
L 1409 256 
L 897 -744 
L 494 -744 
L 750 256 
L 750 794 
z
" transform="scale(0.015625)"/>
       <path id="DejaVuSans-33" d="M 2597 2516 
Q 3050 2419 3304 2112 
Q 3559 1806 3559 1356 
Q 3559 666 3084 287 
Q 2609 -91 1734 -91 
Q 1441 -91 1130 -33 
Q 819 25 488 141 
L 488 750 
Q 750 597 1062 519 
Q 1375 441 1716 441 
Q 2309 441 2620 675 
Q 2931 909 2931 1356 
Q 2931 1769 2642 2001 
Q 2353 2234 1838 2234 
L 1294 2234 
L 1294 2753 
L 1863 2753 
Q 2328 2753 2575 2939 
Q 2822 3125 2822 3475 
Q 2822 3834 2567 4026 
Q 2313 4219 1838 4219 
Q 1578 4219 1281 4162 
Q 984 4106 628 3988 
L 628 4550 
Q 988 4650 1302 4700 
Q 1616 4750 1894 4750 
Q 2613 4750 3031 4423 
Q 3450 4097 3450 3541 
Q 3450 3153 3228 2886 
Q 3006 2619 2597 2516 
z
" transform="scale(0.015625)"/>
       <path id="DejaVuSans-35" d="M 691 4666 
L 3169 4666 
L 3169 4134 
L 1269 4134 
L 1269 2991 
Q 1406 3038 1543 3061 
Q 1681 3084 1819 3084 
Q 2600 3084 3056 2656 
Q 3513 2228 3513 1497 
Q 3513 744 3044 326 
Q 2575 -91 1722 -91 
Q 1428 -91 1123 -41 
Q 819 9 494 109 
L 494 744 
Q 775 591 1075 516 
Q 1375 441 1709 441 
Q 2250 441 2565 725 
Q 2881 1009 2881 1497 
Q 2881 1984 2565 2268 
Q 2250 2553 1709 2553 
Q 1456 2553 1204 2497 
Q 953 2441 691 2322 
L 691 4666 
z
" transform="scale(0.015625)"/>
       <path id="DejaVuSans-4e" d="M 628 4666 
L 1478 4666 
L 3547 763 
L 3547 4666 
L 4159 4666 
L 4159 0 
L 3309 0 
L 1241 3903 
L 1241 0 
L 628 0 
L 628 4666 
z
" transform="scale(0.015625)"/>
       <path id="DejaVuSans-67" d="M 2906 1791 
Q 2906 2416 2648 2759 
Q 2391 3103 1925 3103 
Q 1463 3103 1205 2759 
Q 947 2416 947 1791 
Q 947 1169 1205 825 
Q 1463 481 1925 481 
Q 2391 481 2648 825 
Q 2906 1169 2906 1791 
z
M 3481 434 
Q 3481 -459 3084 -895 
Q 2688 -1331 1869 -1331 
Q 1566 -1331 1297 -1286 
Q 1028 -1241 775 -1147 
L 775 -588 
Q 1028 -725 1275 -790 
Q 1522 -856 1778 -856 
Q 2344 -856 2625 -561 
Q 2906 -266 2906 331 
L 2906 616 
Q 2728 306 2450 153 
Q 2172 0 1784 0 
Q 1141 0 747 490 
Q 353 981 353 1791 
Q 353 2603 747 3093 
Q 1141 3584 1784 3584 
Q 2172 3584 2450 3431 
Q 2728 3278 2906 2969 
L 2906 3500 
L 3481 3500 
L 3481 434 
z
" transform="scale(0.015625)"/>
       <path id="DejaVuSans-39" d="M 703 97 
L 703 672 
Q 941 559 1184 500 
Q 1428 441 1663 441 
Q 2288 441 2617 861 
Q 2947 1281 2994 2138 
Q 2813 1869 2534 1725 
Q 2256 1581 1919 1581 
Q 1219 1581 811 2004 
Q 403 2428 403 3163 
Q 403 3881 828 4315 
Q 1253 4750 1959 4750 
Q 2769 4750 3195 4129 
Q 3622 3509 3622 2328 
Q 3622 1225 3098 567 
Q 2575 -91 1691 -91 
Q 1453 -91 1209 -44 
Q 966 3 703 97 
z
M 1959 2075 
Q 2384 2075 2632 2365 
Q 2881 2656 2881 3163 
Q 2881 3666 2632 3958 
Q 2384 4250 1959 4250 
Q 1534 4250 1286 3958 
Q 1038 3666 1038 3163 
Q 1038 2656 1286 2365 
Q 1534 2075 1959 2075 
z
" transform="scale(0.015625)"/>
      </defs>
      <use xlink:href="#DejaVuSans-41"/>
      <use xlink:href="#DejaVuSans-55" x="68.408203"/>
      <use xlink:href="#DejaVuSans-43" x="141.601562"/>
      <use xlink:href="#DejaVuSans-20" x="211.425781"/>
      <use xlink:href="#DejaVuSans-66" x="243.212891"/>
      <use xlink:href="#DejaVuSans-6f" x="278.417969"/>
      <use xlink:href="#DejaVuSans-72" x="339.599609"/>
      <use xlink:href="#DejaVuSans-20" x="380.712891"/>
      <use xlink:href="#DejaVuSans-57" x="412.5"/>
      <use xlink:href="#DejaVuSans-68" x="511.376953"/>
      <use xlink:href="#DejaVuSans-69" x="574.755859"/>
      <use xlink:href="#DejaVuSans-74" x="602.539062"/>
      <use xlink:href="#DejaVuSans-65" x="641.748047"/>
      <use xlink:href="#DejaVuSans-20" x="703.271484"/>
      <use xlink:href="#DejaVuSans-3d" x="735.058594"/>
      <use xlink:href="#DejaVuSans-20" x="818.847656"/>
      <use xlink:href="#DejaVuSans-30" x="850.634766"/>
      <use xlink:href="#DejaVuSans-2e" x="914.257812"/>
      <use xlink:href="#DejaVuSans-38" x="946.044922"/>
      <use xlink:href="#DejaVuSans-36" x="1009.667969"/>
      <use xlink:href="#DejaVuSans-2c" x="1073.291016"/>
      <use xlink:href="#DejaVuSans-20" x="1105.078125"/>
      <use xlink:href="#DejaVuSans-43" x="1136.865234"/>
      <use xlink:href="#DejaVuSans-6f" x="1206.689453"/>
      <use xlink:href="#DejaVuSans-75" x="1267.871094"/>
      <use xlink:href="#DejaVuSans-6e" x="1331.25"/>
      <use xlink:href="#DejaVuSans-74" x="1394.628906"/>
      <use xlink:href="#DejaVuSans-3a" x="1433.837891"/>
      <use xlink:href="#DejaVuSans-20" x="1467.529297"/>
      <use xlink:href="#DejaVuSans-38" x="1499.316406"/>
      <use xlink:href="#DejaVuSans-2c" x="1562.939453"/>
      <use xlink:href="#DejaVuSans-33" x="1594.726562"/>
      <use xlink:href="#DejaVuSans-35" x="1658.349609"/>
      <use xlink:href="#DejaVuSans-35" x="1721.972656"/>
      <use xlink:href="#DejaVuSans-2c" x="1785.595703"/>
      <use xlink:href="#DejaVuSans-20" x="1817.382812"/>
      <use xlink:href="#DejaVuSans-50" x="1849.169922"/>
      <use xlink:href="#DejaVuSans-6f" x="1905.847656"/>
      <use xlink:href="#DejaVuSans-73" x="1967.029297"/>
      <use xlink:href="#DejaVuSans-3a" x="2019.128906"/>
      <use xlink:href="#DejaVuSans-20" x="2052.820312"/>
      <use xlink:href="#DejaVuSans-32" x="2084.607422"/>
      <use xlink:href="#DejaVuSans-2c" x="2148.230469"/>
      <use xlink:href="#DejaVuSans-31" x="2180.017578"/>
      <use xlink:href="#DejaVuSans-33" x="2243.640625"/>
      <use xlink:href="#DejaVuSans-36" x="2307.263672"/>
      <use xlink:href="#DejaVuSans-2c" x="2370.886719"/>
      <use xlink:href="#DejaVuSans-20" x="2402.673828"/>
      <use xlink:href="#DejaVuSans-4e" x="2434.460938"/>
      <use xlink:href="#DejaVuSans-65" x="2509.265625"/>
      <use xlink:href="#DejaVuSans-67" x="2570.789062"/>
      <use xlink:href="#DejaVuSans-3a" x="2634.265625"/>
      <use xlink:href="#DejaVuSans-20" x="2667.957031"/>
      <use xlink:href="#DejaVuSans-36" x="2699.744141"/>
      <use xlink:href="#DejaVuSans-2c" x="2763.367188"/>
      <use xlink:href="#DejaVuSans-32" x="2795.154297"/>
      <use xlink:href="#DejaVuSans-31" x="2858.777344"/>
      <use xlink:href="#DejaVuSans-39" x="2922.400391"/>
     </g>
    </g>
    <g id="line2d_32">
     <path d="M 147.584063 432.630688 
L 157.584063 432.630688 
L 167.584063 432.630688 
" style="fill: none; stroke: #ff7f0e; stroke-width: 1.5; stroke-linecap: square"/>
    </g>
    <g id="text_17">
     <!-- AUC for Black = 0.87, Count: 936, Pos: 109, Neg: 827 -->
     <g transform="translate(175.584063 436.130688) scale(0.1 -0.1)">
      <defs>
       <path id="DejaVuSans-42" d="M 1259 2228 
L 1259 519 
L 2272 519 
Q 2781 519 3026 730 
Q 3272 941 3272 1375 
Q 3272 1813 3026 2020 
Q 2781 2228 2272 2228 
L 1259 2228 
z
M 1259 4147 
L 1259 2741 
L 2194 2741 
Q 2656 2741 2882 2914 
Q 3109 3088 3109 3444 
Q 3109 3797 2882 3972 
Q 2656 4147 2194 4147 
L 1259 4147 
z
M 628 4666 
L 2241 4666 
Q 2963 4666 3353 4366 
Q 3744 4066 3744 3513 
Q 3744 3084 3544 2831 
Q 3344 2578 2956 2516 
Q 3422 2416 3680 2098 
Q 3938 1781 3938 1306 
Q 3938 681 3513 340 
Q 3088 0 2303 0 
L 628 0 
L 628 4666 
z
" transform="scale(0.015625)"/>
       <path id="DejaVuSans-6b" d="M 581 4863 
L 1159 4863 
L 1159 1991 
L 2875 3500 
L 3609 3500 
L 1753 1863 
L 3688 0 
L 2938 0 
L 1159 1709 
L 1159 0 
L 581 0 
L 581 4863 
z
" transform="scale(0.015625)"/>
       <path id="DejaVuSans-37" d="M 525 4666 
L 3525 4666 
L 3525 4397 
L 1831 0 
L 1172 0 
L 2766 4134 
L 525 4134 
L 525 4666 
z
" transform="scale(0.015625)"/>
      </defs>
      <use xlink:href="#DejaVuSans-41"/>
      <use xlink:href="#DejaVuSans-55" x="68.408203"/>
      <use xlink:href="#DejaVuSans-43" x="141.601562"/>
      <use xlink:href="#DejaVuSans-20" x="211.425781"/>
      <use xlink:href="#DejaVuSans-66" x="243.212891"/>
      <use xlink:href="#DejaVuSans-6f" x="278.417969"/>
      <use xlink:href="#DejaVuSans-72" x="339.599609"/>
      <use xlink:href="#DejaVuSans-20" x="380.712891"/>
      <use xlink:href="#DejaVuSans-42" x="412.5"/>
      <use xlink:href="#DejaVuSans-6c" x="481.103516"/>
      <use xlink:href="#DejaVuSans-61" x="508.886719"/>
      <use xlink:href="#DejaVuSans-63" x="570.166016"/>
      <use xlink:href="#DejaVuSans-6b" x="625.146484"/>
      <use xlink:href="#DejaVuSans-20" x="683.056641"/>
      <use xlink:href="#DejaVuSans-3d" x="714.84375"/>
      <use xlink:href="#DejaVuSans-20" x="798.632812"/>
      <use xlink:href="#DejaVuSans-30" x="830.419922"/>
      <use xlink:href="#DejaVuSans-2e" x="894.042969"/>
      <use xlink:href="#DejaVuSans-38" x="925.830078"/>
      <use xlink:href="#DejaVuSans-37" x="989.453125"/>
      <use xlink:href="#DejaVuSans-2c" x="1053.076172"/>
      <use xlink:href="#DejaVuSans-20" x="1084.863281"/>
      <use xlink:href="#DejaVuSans-43" x="1116.650391"/>
      <use xlink:href="#DejaVuSans-6f" x="1186.474609"/>
      <use xlink:href="#DejaVuSans-75" x="1247.65625"/>
      <use xlink:href="#DejaVuSans-6e" x="1311.035156"/>
      <use xlink:href="#DejaVuSans-74" x="1374.414062"/>
      <use xlink:href="#DejaVuSans-3a" x="1413.623047"/>
      <use xlink:href="#DejaVuSans-20" x="1447.314453"/>
      <use xlink:href="#DejaVuSans-39" x="1479.101562"/>
      <use xlink:href="#DejaVuSans-33" x="1542.724609"/>
      <use xlink:href="#DejaVuSans-36" x="1606.347656"/>
      <use xlink:href="#DejaVuSans-2c" x="1669.970703"/>
      <use xlink:href="#DejaVuSans-20" x="1701.757812"/>
      <use xlink:href="#DejaVuSans-50" x="1733.544922"/>
      <use xlink:href="#DejaVuSans-6f" x="1790.222656"/>
      <use xlink:href="#DejaVuSans-73" x="1851.404297"/>
      <use xlink:href="#DejaVuSans-3a" x="1903.503906"/>
      <use xlink:href="#DejaVuSans-20" x="1937.195312"/>
      <use xlink:href="#DejaVuSans-31" x="1968.982422"/>
      <use xlink:href="#DejaVuSans-30" x="2032.605469"/>
      <use xlink:href="#DejaVuSans-39" x="2096.228516"/>
      <use xlink:href="#DejaVuSans-2c" x="2159.851562"/>
      <use xlink:href="#DejaVuSans-20" x="2191.638672"/>
      <use xlink:href="#DejaVuSans-4e" x="2223.425781"/>
      <use xlink:href="#DejaVuSans-65" x="2298.230469"/>
      <use xlink:href="#DejaVuSans-67" x="2359.753906"/>
      <use xlink:href="#DejaVuSans-3a" x="2423.230469"/>
      <use xlink:href="#DejaVuSans-20" x="2456.921875"/>
      <use xlink:href="#DejaVuSans-38" x="2488.708984"/>
      <use xlink:href="#DejaVuSans-32" x="2552.332031"/>
      <use xlink:href="#DejaVuSans-37" x="2615.955078"/>
     </g>
    </g>
    <g id="line2d_33">
     <path d="M 147.584063 447.308813 
L 157.584063 447.308813 
L 167.584063 447.308813 
" style="fill: none; stroke: #2ca02c; stroke-width: 1.5; stroke-linecap: square"/>
    </g>
    <g id="text_18">
     <!-- AUC for Asian-Pac-Islander = 0.84, Count: 299, Pos: 75, Neg: 224 -->
     <g transform="translate(175.584063 450.808813) scale(0.1 -0.1)">
      <defs>
       <path id="DejaVuSans-2d" d="M 313 2009 
L 1997 2009 
L 1997 1497 
L 313 1497 
L 313 2009 
z
" transform="scale(0.015625)"/>
       <path id="DejaVuSans-49" d="M 628 4666 
L 1259 4666 
L 1259 0 
L 628 0 
L 628 4666 
z
" transform="scale(0.015625)"/>
       <path id="DejaVuSans-64" d="M 2906 2969 
L 2906 4863 
L 3481 4863 
L 3481 0 
L 2906 0 
L 2906 525 
Q 2725 213 2448 61 
Q 2172 -91 1784 -91 
Q 1150 -91 751 415 
Q 353 922 353 1747 
Q 353 2572 751 3078 
Q 1150 3584 1784 3584 
Q 2172 3584 2448 3432 
Q 2725 3281 2906 2969 
z
M 947 1747 
Q 947 1113 1208 752 
Q 1469 391 1925 391 
Q 2381 391 2643 752 
Q 2906 1113 2906 1747 
Q 2906 2381 2643 2742 
Q 2381 3103 1925 3103 
Q 1469 3103 1208 2742 
Q 947 2381 947 1747 
z
" transform="scale(0.015625)"/>
      </defs>
      <use xlink:href="#DejaVuSans-41"/>
      <use xlink:href="#DejaVuSans-55" x="68.408203"/>
      <use xlink:href="#DejaVuSans-43" x="141.601562"/>
      <use xlink:href="#DejaVuSans-20" x="211.425781"/>
      <use xlink:href="#DejaVuSans-66" x="243.212891"/>
      <use xlink:href="#DejaVuSans-6f" x="278.417969"/>
      <use xlink:href="#DejaVuSans-72" x="339.599609"/>
      <use xlink:href="#DejaVuSans-20" x="380.712891"/>
      <use xlink:href="#DejaVuSans-41" x="412.5"/>
      <use xlink:href="#DejaVuSans-73" x="480.908203"/>
      <use xlink:href="#DejaVuSans-69" x="533.007812"/>
      <use xlink:href="#DejaVuSans-61" x="560.791016"/>
      <use xlink:href="#DejaVuSans-6e" x="622.070312"/>
      <use xlink:href="#DejaVuSans-2d" x="685.449219"/>
      <use xlink:href="#DejaVuSans-50" x="721.533203"/>
      <use xlink:href="#DejaVuSans-61" x="777.335938"/>
      <use xlink:href="#DejaVuSans-63" x="838.615234"/>
      <use xlink:href="#DejaVuSans-2d" x="893.595703"/>
      <use xlink:href="#DejaVuSans-49" x="929.679688"/>
      <use xlink:href="#DejaVuSans-73" x="959.171875"/>
      <use xlink:href="#DejaVuSans-6c" x="1011.271484"/>
      <use xlink:href="#DejaVuSans-61" x="1039.054688"/>
      <use xlink:href="#DejaVuSans-6e" x="1100.333984"/>
      <use xlink:href="#DejaVuSans-64" x="1163.712891"/>
      <use xlink:href="#DejaVuSans-65" x="1227.189453"/>
      <use xlink:href="#DejaVuSans-72" x="1288.712891"/>
      <use xlink:href="#DejaVuSans-20" x="1329.826172"/>
      <use xlink:href="#DejaVuSans-3d" x="1361.613281"/>
      <use xlink:href="#DejaVuSans-20" x="1445.402344"/>
      <use xlink:href="#DejaVuSans-30" x="1477.189453"/>
      <use xlink:href="#DejaVuSans-2e" x="1540.8125"/>
      <use xlink:href="#DejaVuSans-38" x="1572.599609"/>
      <use xlink:href="#DejaVuSans-34" x="1636.222656"/>
      <use xlink:href="#DejaVuSans-2c" x="1699.845703"/>
      <use xlink:href="#DejaVuSans-20" x="1731.632812"/>
      <use xlink:href="#DejaVuSans-43" x="1763.419922"/>
      <use xlink:href="#DejaVuSans-6f" x="1833.244141"/>
      <use xlink:href="#DejaVuSans-75" x="1894.425781"/>
      <use xlink:href="#DejaVuSans-6e" x="1957.804688"/>
      <use xlink:href="#DejaVuSans-74" x="2021.183594"/>
      <use xlink:href="#DejaVuSans-3a" x="2060.392578"/>
      <use xlink:href="#DejaVuSans-20" x="2094.083984"/>
      <use xlink:href="#DejaVuSans-32" x="2125.871094"/>
      <use xlink:href="#DejaVuSans-39" x="2189.494141"/>
      <use xlink:href="#DejaVuSans-39" x="2253.117188"/>
      <use xlink:href="#DejaVuSans-2c" x="2316.740234"/>
      <use xlink:href="#DejaVuSans-20" x="2348.527344"/>
      <use xlink:href="#DejaVuSans-50" x="2380.314453"/>
      <use xlink:href="#DejaVuSans-6f" x="2436.992188"/>
      <use xlink:href="#DejaVuSans-73" x="2498.173828"/>
      <use xlink:href="#DejaVuSans-3a" x="2550.273438"/>
      <use xlink:href="#DejaVuSans-20" x="2583.964844"/>
      <use xlink:href="#DejaVuSans-37" x="2615.751953"/>
      <use xlink:href="#DejaVuSans-35" x="2679.375"/>
      <use xlink:href="#DejaVuSans-2c" x="2742.998047"/>
      <use xlink:href="#DejaVuSans-20" x="2774.785156"/>
      <use xlink:href="#DejaVuSans-4e" x="2806.572266"/>
      <use xlink:href="#DejaVuSans-65" x="2881.376953"/>
      <use xlink:href="#DejaVuSans-67" x="2942.900391"/>
      <use xlink:href="#DejaVuSans-3a" x="3006.376953"/>
      <use xlink:href="#DejaVuSans-20" x="3040.068359"/>
      <use xlink:href="#DejaVuSans-32" x="3071.855469"/>
      <use xlink:href="#DejaVuSans-32" x="3135.478516"/>
      <use xlink:href="#DejaVuSans-34" x="3199.101562"/>
     </g>
    </g>
    <g id="line2d_34">
     <path d="M 147.584063 461.986938 
L 157.584063 461.986938 
L 167.584063 461.986938 
" style="fill: none; stroke: #d62728; stroke-width: 1.5; stroke-linecap: square"/>
    </g>
    <g id="text_19">
     <!-- AUC for Amer-Indian-Eskimo = 0.62, Count: 91, Pos: 8, Neg: 83 -->
     <g transform="translate(175.584063 465.486938) scale(0.1 -0.1)">
      <defs>
       <path id="DejaVuSans-6d" d="M 3328 2828 
Q 3544 3216 3844 3400 
Q 4144 3584 4550 3584 
Q 5097 3584 5394 3201 
Q 5691 2819 5691 2113 
L 5691 0 
L 5113 0 
L 5113 2094 
Q 5113 2597 4934 2840 
Q 4756 3084 4391 3084 
Q 3944 3084 3684 2787 
Q 3425 2491 3425 1978 
L 3425 0 
L 2847 0 
L 2847 2094 
Q 2847 2600 2669 2842 
Q 2491 3084 2119 3084 
Q 1678 3084 1418 2786 
Q 1159 2488 1159 1978 
L 1159 0 
L 581 0 
L 581 3500 
L 1159 3500 
L 1159 2956 
Q 1356 3278 1631 3431 
Q 1906 3584 2284 3584 
Q 2666 3584 2933 3390 
Q 3200 3197 3328 2828 
z
" transform="scale(0.015625)"/>
       <path id="DejaVuSans-45" d="M 628 4666 
L 3578 4666 
L 3578 4134 
L 1259 4134 
L 1259 2753 
L 3481 2753 
L 3481 2222 
L 1259 2222 
L 1259 531 
L 3634 531 
L 3634 0 
L 628 0 
L 628 4666 
z
" transform="scale(0.015625)"/>
      </defs>
      <use xlink:href="#DejaVuSans-41"/>
      <use xlink:href="#DejaVuSans-55" x="68.408203"/>
      <use xlink:href="#DejaVuSans-43" x="141.601562"/>
      <use xlink:href="#DejaVuSans-20" x="211.425781"/>
      <use xlink:href="#DejaVuSans-66" x="243.212891"/>
      <use xlink:href="#DejaVuSans-6f" x="278.417969"/>
      <use xlink:href="#DejaVuSans-72" x="339.599609"/>
      <use xlink:href="#DejaVuSans-20" x="380.712891"/>
      <use xlink:href="#DejaVuSans-41" x="412.5"/>
      <use xlink:href="#DejaVuSans-6d" x="480.908203"/>
      <use xlink:href="#DejaVuSans-65" x="578.320312"/>
      <use xlink:href="#DejaVuSans-72" x="639.84375"/>
      <use xlink:href="#DejaVuSans-2d" x="674.582031"/>
      <use xlink:href="#DejaVuSans-49" x="710.666016"/>
      <use xlink:href="#DejaVuSans-6e" x="740.158203"/>
      <use xlink:href="#DejaVuSans-64" x="803.537109"/>
      <use xlink:href="#DejaVuSans-69" x="867.013672"/>
      <use xlink:href="#DejaVuSans-61" x="894.796875"/>
      <use xlink:href="#DejaVuSans-6e" x="956.076172"/>
      <use xlink:href="#DejaVuSans-2d" x="1019.455078"/>
      <use xlink:href="#DejaVuSans-45" x="1055.539062"/>
      <use xlink:href="#DejaVuSans-73" x="1118.722656"/>
      <use xlink:href="#DejaVuSans-6b" x="1170.822266"/>
      <use xlink:href="#DejaVuSans-69" x="1228.732422"/>
      <use xlink:href="#DejaVuSans-6d" x="1256.515625"/>
      <use xlink:href="#DejaVuSans-6f" x="1353.927734"/>
      <use xlink:href="#DejaVuSans-20" x="1415.109375"/>
      <use xlink:href="#DejaVuSans-3d" x="1446.896484"/>
      <use xlink:href="#DejaVuSans-20" x="1530.685547"/>
      <use xlink:href="#DejaVuSans-30" x="1562.472656"/>
      <use xlink:href="#DejaVuSans-2e" x="1626.095703"/>
      <use xlink:href="#DejaVuSans-36" x="1657.882812"/>
      <use xlink:href="#DejaVuSans-32" x="1721.505859"/>
      <use xlink:href="#DejaVuSans-2c" x="1785.128906"/>
      <use xlink:href="#DejaVuSans-20" x="1816.916016"/>
      <use xlink:href="#DejaVuSans-43" x="1848.703125"/>
      <use xlink:href="#DejaVuSans-6f" x="1918.527344"/>
      <use xlink:href="#DejaVuSans-75" x="1979.708984"/>
      <use xlink:href="#DejaVuSans-6e" x="2043.087891"/>
      <use xlink:href="#DejaVuSans-74" x="2106.466797"/>
      <use xlink:href="#DejaVuSans-3a" x="2145.675781"/>
      <use xlink:href="#DejaVuSans-20" x="2179.367188"/>
      <use xlink:href="#DejaVuSans-39" x="2211.154297"/>
      <use xlink:href="#DejaVuSans-31" x="2274.777344"/>
      <use xlink:href="#DejaVuSans-2c" x="2338.400391"/>
      <use xlink:href="#DejaVuSans-20" x="2370.1875"/>
      <use xlink:href="#DejaVuSans-50" x="2401.974609"/>
      <use xlink:href="#DejaVuSans-6f" x="2458.652344"/>
      <use xlink:href="#DejaVuSans-73" x="2519.833984"/>
      <use xlink:href="#DejaVuSans-3a" x="2571.933594"/>
      <use xlink:href="#DejaVuSans-20" x="2605.625"/>
      <use xlink:href="#DejaVuSans-38" x="2637.412109"/>
      <use xlink:href="#DejaVuSans-2c" x="2701.035156"/>
      <use xlink:href="#DejaVuSans-20" x="2732.822266"/>
      <use xlink:href="#DejaVuSans-4e" x="2764.609375"/>
      <use xlink:href="#DejaVuSans-65" x="2839.414062"/>
      <use xlink:href="#DejaVuSans-67" x="2900.9375"/>
      <use xlink:href="#DejaVuSans-3a" x="2964.414062"/>
      <use xlink:href="#DejaVuSans-20" x="2998.105469"/>
      <use xlink:href="#DejaVuSans-38" x="3029.892578"/>
      <use xlink:href="#DejaVuSans-33" x="3093.515625"/>
     </g>
    </g>
    <g id="line2d_35">
     <path d="M 147.584063 476.665063 
L 157.584063 476.665063 
L 167.584063 476.665063 
" style="fill: none; stroke: #9467bd; stroke-width: 1.5; stroke-linecap: square"/>
    </g>
    <g id="text_20">
     <!-- AUC for Other = 0.94, Count: 88, Pos: 10, Neg: 78 -->
     <g transform="translate(175.584063 480.165063) scale(0.1 -0.1)">
      <use xlink:href="#DejaVuSans-41"/>
      <use xlink:href="#DejaVuSans-55" x="68.408203"/>
      <use xlink:href="#DejaVuSans-43" x="141.601562"/>
      <use xlink:href="#DejaVuSans-20" x="211.425781"/>
      <use xlink:href="#DejaVuSans-66" x="243.212891"/>
      <use xlink:href="#DejaVuSans-6f" x="278.417969"/>
      <use xlink:href="#DejaVuSans-72" x="339.599609"/>
      <use xlink:href="#DejaVuSans-20" x="380.712891"/>
      <use xlink:href="#DejaVuSans-4f" x="412.5"/>
      <use xlink:href="#DejaVuSans-74" x="491.210938"/>
      <use xlink:href="#DejaVuSans-68" x="530.419922"/>
      <use xlink:href="#DejaVuSans-65" x="593.798828"/>
      <use xlink:href="#DejaVuSans-72" x="655.322266"/>
      <use xlink:href="#DejaVuSans-20" x="696.435547"/>
      <use xlink:href="#DejaVuSans-3d" x="728.222656"/>
      <use xlink:href="#DejaVuSans-20" x="812.011719"/>
      <use xlink:href="#DejaVuSans-30" x="843.798828"/>
      <use xlink:href="#DejaVuSans-2e" x="907.421875"/>
      <use xlink:href="#DejaVuSans-39" x="939.208984"/>
      <use xlink:href="#DejaVuSans-34" x="1002.832031"/>
      <use xlink:href="#DejaVuSans-2c" x="1066.455078"/>
      <use xlink:href="#DejaVuSans-20" x="1098.242188"/>
      <use xlink:href="#DejaVuSans-43" x="1130.029297"/>
      <use xlink:href="#DejaVuSans-6f" x="1199.853516"/>
      <use xlink:href="#DejaVuSans-75" x="1261.035156"/>
      <use xlink:href="#DejaVuSans-6e" x="1324.414062"/>
      <use xlink:href="#DejaVuSans-74" x="1387.792969"/>
      <use xlink:href="#DejaVuSans-3a" x="1427.001953"/>
      <use xlink:href="#DejaVuSans-20" x="1460.693359"/>
      <use xlink:href="#DejaVuSans-38" x="1492.480469"/>
      <use xlink:href="#DejaVuSans-38" x="1556.103516"/>
      <use xlink:href="#DejaVuSans-2c" x="1619.726562"/>
      <use xlink:href="#DejaVuSans-20" x="1651.513672"/>
      <use xlink:href="#DejaVuSans-50" x="1683.300781"/>
      <use xlink:href="#DejaVuSans-6f" x="1739.978516"/>
      <use xlink:href="#DejaVuSans-73" x="1801.160156"/>
      <use xlink:href="#DejaVuSans-3a" x="1853.259766"/>
      <use xlink:href="#DejaVuSans-20" x="1886.951172"/>
      <use xlink:href="#DejaVuSans-31" x="1918.738281"/>
      <use xlink:href="#DejaVuSans-30" x="1982.361328"/>
      <use xlink:href="#DejaVuSans-2c" x="2045.984375"/>
      <use xlink:href="#DejaVuSans-20" x="2077.771484"/>
      <use xlink:href="#DejaVuSans-4e" x="2109.558594"/>
      <use xlink:href="#DejaVuSans-65" x="2184.363281"/>
      <use xlink:href="#DejaVuSans-67" x="2245.886719"/>
      <use xlink:href="#DejaVuSans-3a" x="2309.363281"/>
      <use xlink:href="#DejaVuSans-20" x="2343.054688"/>
      <use xlink:href="#DejaVuSans-37" x="2374.841797"/>
      <use xlink:href="#DejaVuSans-38" x="2438.464844"/>
     </g>
    </g>
    <g id="line2d_36">
     <path d="M 147.584063 491.343187 
L 157.584063 491.343187 
L 167.584063 491.343187 
" style="fill: none; stroke-dasharray: 7.4,3.2; stroke-dashoffset: 0; stroke: #808080; stroke-width: 2"/>
    </g>
    <g id="text_21">
     <!-- Random Guess -->
     <g transform="translate(175.584063 494.843187) scale(0.1 -0.1)">
      <defs>
       <path id="DejaVuSans-47" d="M 3809 666 
L 3809 1919 
L 2778 1919 
L 2778 2438 
L 4434 2438 
L 4434 434 
Q 4069 175 3628 42 
Q 3188 -91 2688 -91 
Q 1594 -91 976 548 
Q 359 1188 359 2328 
Q 359 3472 976 4111 
Q 1594 4750 2688 4750 
Q 3144 4750 3555 4637 
Q 3966 4525 4313 4306 
L 4313 3634 
Q 3963 3931 3569 4081 
Q 3175 4231 2741 4231 
Q 1884 4231 1454 3753 
Q 1025 3275 1025 2328 
Q 1025 1384 1454 906 
Q 1884 428 2741 428 
Q 3075 428 3337 486 
Q 3600 544 3809 666 
z
" transform="scale(0.015625)"/>
      </defs>
      <use xlink:href="#DejaVuSans-52"/>
      <use xlink:href="#DejaVuSans-61" x="67.232422"/>
      <use xlink:href="#DejaVuSans-6e" x="128.511719"/>
      <use xlink:href="#DejaVuSans-64" x="191.890625"/>
      <use xlink:href="#DejaVuSans-6f" x="255.367188"/>
      <use xlink:href="#DejaVuSans-6d" x="316.548828"/>
      <use xlink:href="#DejaVuSans-20" x="413.960938"/>
      <use xlink:href="#DejaVuSans-47" x="445.748047"/>
      <use xlink:href="#DejaVuSans-75" x="523.238281"/>
      <use xlink:href="#DejaVuSans-65" x="586.617188"/>
      <use xlink:href="#DejaVuSans-73" x="648.140625"/>
      <use xlink:href="#DejaVuSans-73" x="700.240234"/>
     </g>
    </g>
   </g>
  </g>
 </g>
 <defs>
  <clipPath id="pd1e7740711">
   <rect x="45.716875" y="22.318125" width="558" height="332.64"/>
  </clipPath>
 </defs>
</svg>
