<?xml version="1.0" encoding="utf-8" standalone="no"?>
<!DOCTYPE svg PUBLIC "-//W3C//DTD SVG 1.1//EN"
  "http://www.w3.org/Graphics/SVG/1.1/DTD/svg11.dtd">
<svg xmlns:xlink="http://www.w3.org/1999/xlink" width="499.316875pt" height="394.45pt" viewBox="0 0 499.316875 394.45" xmlns="http://www.w3.org/2000/svg" version="1.1">
 <metadata>
  <rdf:RDF xmlns:dc="http://purl.org/dc/elements/1.1/" xmlns:cc="http://creativecommons.org/ns#" xmlns:rdf="http://www.w3.org/1999/02/22-rdf-syntax-ns#">
   <cc:Work>
    <dc:type rdf:resource="http://purl.org/dc/dcmitype/StillImage"/>
    <dc:date>2025-02-24T10:04:26.067159</dc:date>
    <dc:format>image/svg+xml</dc:format>
    <dc:creator>
     <cc:Agent>
      <dc:title>Matplotlib v3.9.2, https://matplotlib.org/</dc:title>
     </cc:Agent>
    </dc:creator>
   </cc:Work>
  </rdf:RDF>
 </metadata>
 <defs>
  <style type="text/css">*{stroke-linejoin: round; stroke-linecap: butt}</style>
 </defs>
 <g id="figure_1">
  <g id="patch_1">
   <path d="M 0 394.45 
L 499.316875 394.45 
L 499.316875 0 
L 0 0 
z
" style="fill: #ffffff"/>
  </g>
  <g id="axes_1">
   <g id="patch_2">
    <path d="M 45.716875 354.958125 
L 492.116875 354.958125 
L 492.116875 22.318125 
L 45.716875 22.318125 
z
" style="fill: #ffffff"/>
   </g>
   <g id="matplotlib.axis_1">
    <g id="xtick_1">
     <g id="line2d_1">
      <path d="M 66.007784 354.958125 
L 66.007784 22.318125 
" clip-path="url(#pd0611aa103)" style="fill: none; stroke: #b0b0b0; stroke-width: 0.8; stroke-linecap: square"/>
     </g>
     <g id="line2d_2">
      <defs>
       <path id="mefeb917794" d="M 0 0 
L 0 3.5 
" style="stroke: #000000; stroke-width: 0.8"/>
      </defs>
      <g>
       <use xlink:href="#mefeb917794" x="66.007784" y="354.958125" style="stroke: #000000; stroke-width: 0.8"/>
      </g>
     </g>
     <g id="text_1">
      <!-- 0.0 -->
      <g transform="translate(58.056222 369.556562) scale(0.1 -0.1)">
       <defs>
        <path id="DejaVuSans-30" d="M 2034 4250 
Q 1547 4250 1301 3770 
Q 1056 3291 1056 2328 
Q 1056 1369 1301 889 
Q 1547 409 2034 409 
Q 2525 409 2770 889 
Q 3016 1369 3016 2328 
Q 3016 3291 2770 3770 
Q 2525 4250 2034 4250 
z
M 2034 4750 
Q 2819 4750 3233 4129 
Q 3647 3509 3647 2328 
Q 3647 1150 3233 529 
Q 2819 -91 2034 -91 
Q 1250 -91 836 529 
Q 422 1150 422 2328 
Q 422 3509 836 4129 
Q 1250 4750 2034 4750 
z
" transform="scale(0.015625)"/>
        <path id="DejaVuSans-2e" d="M 684 794 
L 1344 794 
L 1344 0 
L 684 0 
L 684 794 
z
" transform="scale(0.015625)"/>
       </defs>
       <use xlink:href="#DejaVuSans-30"/>
       <use xlink:href="#DejaVuSans-2e" x="63.623047"/>
       <use xlink:href="#DejaVuSans-30" x="95.410156"/>
      </g>
     </g>
    </g>
    <g id="xtick_2">
     <g id="line2d_3">
      <path d="M 147.17142 354.958125 
L 147.17142 22.318125 
" clip-path="url(#pd0611aa103)" style="fill: none; stroke: #b0b0b0; stroke-width: 0.8; stroke-linecap: square"/>
     </g>
     <g id="line2d_4">
      <g>
       <use xlink:href="#mefeb917794" x="147.17142" y="354.958125" style="stroke: #000000; stroke-width: 0.8"/>
      </g>
     </g>
     <g id="text_2">
      <!-- 0.2 -->
      <g transform="translate(139.219858 369.556562) scale(0.1 -0.1)">
       <defs>
        <path id="DejaVuSans-32" d="M 1228 531 
L 3431 531 
L 3431 0 
L 469 0 
L 469 531 
Q 828 903 1448 1529 
Q 2069 2156 2228 2338 
Q 2531 2678 2651 2914 
Q 2772 3150 2772 3378 
Q 2772 3750 2511 3984 
Q 2250 4219 1831 4219 
Q 1534 4219 1204 4116 
Q 875 4013 500 3803 
L 500 4441 
Q 881 4594 1212 4672 
Q 1544 4750 1819 4750 
Q 2544 4750 2975 4387 
Q 3406 4025 3406 3419 
Q 3406 3131 3298 2873 
Q 3191 2616 2906 2266 
Q 2828 2175 2409 1742 
Q 1991 1309 1228 531 
z
" transform="scale(0.015625)"/>
       </defs>
       <use xlink:href="#DejaVuSans-30"/>
       <use xlink:href="#DejaVuSans-2e" x="63.623047"/>
       <use xlink:href="#DejaVuSans-32" x="95.410156"/>
      </g>
     </g>
    </g>
    <g id="xtick_3">
     <g id="line2d_5">
      <path d="M 228.335057 354.958125 
L 228.335057 22.318125 
" clip-path="url(#pd0611aa103)" style="fill: none; stroke: #b0b0b0; stroke-width: 0.8; stroke-linecap: square"/>
     </g>
     <g id="line2d_6">
      <g>
       <use xlink:href="#mefeb917794" x="228.335057" y="354.958125" style="stroke: #000000; stroke-width: 0.8"/>
      </g>
     </g>
     <g id="text_3">
      <!-- 0.4 -->
      <g transform="translate(220.383494 369.556562) scale(0.1 -0.1)">
       <defs>
        <path id="DejaVuSans-34" d="M 2419 4116 
L 825 1625 
L 2419 1625 
L 2419 4116 
z
M 2253 4666 
L 3047 4666 
L 3047 1625 
L 3713 1625 
L 3713 1100 
L 3047 1100 
L 3047 0 
L 2419 0 
L 2419 1100 
L 313 1100 
L 313 1709 
L 2253 4666 
z
" transform="scale(0.015625)"/>
       </defs>
       <use xlink:href="#DejaVuSans-30"/>
       <use xlink:href="#DejaVuSans-2e" x="63.623047"/>
       <use xlink:href="#DejaVuSans-34" x="95.410156"/>
      </g>
     </g>
    </g>
    <g id="xtick_4">
     <g id="line2d_7">
      <path d="M 309.498693 354.958125 
L 309.498693 22.318125 
" clip-path="url(#pd0611aa103)" style="fill: none; stroke: #b0b0b0; stroke-width: 0.8; stroke-linecap: square"/>
     </g>
     <g id="line2d_8">
      <g>
       <use xlink:href="#mefeb917794" x="309.498693" y="354.958125" style="stroke: #000000; stroke-width: 0.8"/>
      </g>
     </g>
     <g id="text_4">
      <!-- 0.6 -->
      <g transform="translate(301.547131 369.556562) scale(0.1 -0.1)">
       <defs>
        <path id="DejaVuSans-36" d="M 2113 2584 
Q 1688 2584 1439 2293 
Q 1191 2003 1191 1497 
Q 1191 994 1439 701 
Q 1688 409 2113 409 
Q 2538 409 2786 701 
Q 3034 994 3034 1497 
Q 3034 2003 2786 2293 
Q 2538 2584 2113 2584 
z
M 3366 4563 
L 3366 3988 
Q 3128 4100 2886 4159 
Q 2644 4219 2406 4219 
Q 1781 4219 1451 3797 
Q 1122 3375 1075 2522 
Q 1259 2794 1537 2939 
Q 1816 3084 2150 3084 
Q 2853 3084 3261 2657 
Q 3669 2231 3669 1497 
Q 3669 778 3244 343 
Q 2819 -91 2113 -91 
Q 1303 -91 875 529 
Q 447 1150 447 2328 
Q 447 3434 972 4092 
Q 1497 4750 2381 4750 
Q 2619 4750 2861 4703 
Q 3103 4656 3366 4563 
z
" transform="scale(0.015625)"/>
       </defs>
       <use xlink:href="#DejaVuSans-30"/>
       <use xlink:href="#DejaVuSans-2e" x="63.623047"/>
       <use xlink:href="#DejaVuSans-36" x="95.410156"/>
      </g>
     </g>
    </g>
    <g id="xtick_5">
     <g id="line2d_9">
      <path d="M 390.66233 354.958125 
L 390.66233 22.318125 
" clip-path="url(#pd0611aa103)" style="fill: none; stroke: #b0b0b0; stroke-width: 0.8; stroke-linecap: square"/>
     </g>
     <g id="line2d_10">
      <g>
       <use xlink:href="#mefeb917794" x="390.66233" y="354.958125" style="stroke: #000000; stroke-width: 0.8"/>
      </g>
     </g>
     <g id="text_5">
      <!-- 0.8 -->
      <g transform="translate(382.710767 369.556562) scale(0.1 -0.1)">
       <defs>
        <path id="DejaVuSans-38" d="M 2034 2216 
Q 1584 2216 1326 1975 
Q 1069 1734 1069 1313 
Q 1069 891 1326 650 
Q 1584 409 2034 409 
Q 2484 409 2743 651 
Q 3003 894 3003 1313 
Q 3003 1734 2745 1975 
Q 2488 2216 2034 2216 
z
M 1403 2484 
Q 997 2584 770 2862 
Q 544 3141 544 3541 
Q 544 4100 942 4425 
Q 1341 4750 2034 4750 
Q 2731 4750 3128 4425 
Q 3525 4100 3525 3541 
Q 3525 3141 3298 2862 
Q 3072 2584 2669 2484 
Q 3125 2378 3379 2068 
Q 3634 1759 3634 1313 
Q 3634 634 3220 271 
Q 2806 -91 2034 -91 
Q 1263 -91 848 271 
Q 434 634 434 1313 
Q 434 1759 690 2068 
Q 947 2378 1403 2484 
z
M 1172 3481 
Q 1172 3119 1398 2916 
Q 1625 2713 2034 2713 
Q 2441 2713 2670 2916 
Q 2900 3119 2900 3481 
Q 2900 3844 2670 4047 
Q 2441 4250 2034 4250 
Q 1625 4250 1398 4047 
Q 1172 3844 1172 3481 
z
" transform="scale(0.015625)"/>
       </defs>
       <use xlink:href="#DejaVuSans-30"/>
       <use xlink:href="#DejaVuSans-2e" x="63.623047"/>
       <use xlink:href="#DejaVuSans-38" x="95.410156"/>
      </g>
     </g>
    </g>
    <g id="xtick_6">
     <g id="line2d_11">
      <path d="M 471.825966 354.958125 
L 471.825966 22.318125 
" clip-path="url(#pd0611aa103)" style="fill: none; stroke: #b0b0b0; stroke-width: 0.8; stroke-linecap: square"/>
     </g>
     <g id="line2d_12">
      <g>
       <use xlink:href="#mefeb917794" x="471.825966" y="354.958125" style="stroke: #000000; stroke-width: 0.8"/>
      </g>
     </g>
     <g id="text_6">
      <!-- 1.0 -->
      <g transform="translate(463.874403 369.556562) scale(0.1 -0.1)">
       <defs>
        <path id="DejaVuSans-31" d="M 794 531 
L 1825 531 
L 1825 4091 
L 703 3866 
L 703 4441 
L 1819 4666 
L 2450 4666 
L 2450 531 
L 3481 531 
L 3481 0 
L 794 0 
L 794 531 
z
" transform="scale(0.015625)"/>
       </defs>
       <use xlink:href="#DejaVuSans-31"/>
       <use xlink:href="#DejaVuSans-2e" x="63.623047"/>
       <use xlink:href="#DejaVuSans-30" x="95.410156"/>
      </g>
     </g>
    </g>
    <g id="text_7">
     <!-- Recall -->
     <g transform="translate(251.01625 384.754375) scale(0.12 -0.12)">
      <defs>
       <path id="DejaVuSans-52" d="M 2841 2188 
Q 3044 2119 3236 1894 
Q 3428 1669 3622 1275 
L 4263 0 
L 3584 0 
L 2988 1197 
Q 2756 1666 2539 1819 
Q 2322 1972 1947 1972 
L 1259 1972 
L 1259 0 
L 628 0 
L 628 4666 
L 2053 4666 
Q 2853 4666 3247 4331 
Q 3641 3997 3641 3322 
Q 3641 2881 3436 2590 
Q 3231 2300 2841 2188 
z
M 1259 4147 
L 1259 2491 
L 2053 2491 
Q 2509 2491 2742 2702 
Q 2975 2913 2975 3322 
Q 2975 3731 2742 3939 
Q 2509 4147 2053 4147 
L 1259 4147 
z
" transform="scale(0.015625)"/>
       <path id="DejaVuSans-65" d="M 3597 1894 
L 3597 1613 
L 953 1613 
Q 991 1019 1311 708 
Q 1631 397 2203 397 
Q 2534 397 2845 478 
Q 3156 559 3463 722 
L 3463 178 
Q 3153 47 2828 -22 
Q 2503 -91 2169 -91 
Q 1331 -91 842 396 
Q 353 884 353 1716 
Q 353 2575 817 3079 
Q 1281 3584 2069 3584 
Q 2775 3584 3186 3129 
Q 3597 2675 3597 1894 
z
M 3022 2063 
Q 3016 2534 2758 2815 
Q 2500 3097 2075 3097 
Q 1594 3097 1305 2825 
Q 1016 2553 972 2059 
L 3022 2063 
z
" transform="scale(0.015625)"/>
       <path id="DejaVuSans-63" d="M 3122 3366 
L 3122 2828 
Q 2878 2963 2633 3030 
Q 2388 3097 2138 3097 
Q 1578 3097 1268 2742 
Q 959 2388 959 1747 
Q 959 1106 1268 751 
Q 1578 397 2138 397 
Q 2388 397 2633 464 
Q 2878 531 3122 666 
L 3122 134 
Q 2881 22 2623 -34 
Q 2366 -91 2075 -91 
Q 1284 -91 818 406 
Q 353 903 353 1747 
Q 353 2603 823 3093 
Q 1294 3584 2113 3584 
Q 2378 3584 2631 3529 
Q 2884 3475 3122 3366 
z
" transform="scale(0.015625)"/>
       <path id="DejaVuSans-61" d="M 2194 1759 
Q 1497 1759 1228 1600 
Q 959 1441 959 1056 
Q 959 750 1161 570 
Q 1363 391 1709 391 
Q 2188 391 2477 730 
Q 2766 1069 2766 1631 
L 2766 1759 
L 2194 1759 
z
M 3341 1997 
L 3341 0 
L 2766 0 
L 2766 531 
Q 2569 213 2275 61 
Q 1981 -91 1556 -91 
Q 1019 -91 701 211 
Q 384 513 384 1019 
Q 384 1609 779 1909 
Q 1175 2209 1959 2209 
L 2766 2209 
L 2766 2266 
Q 2766 2663 2505 2880 
Q 2244 3097 1772 3097 
Q 1472 3097 1187 3025 
Q 903 2953 641 2809 
L 641 3341 
Q 956 3463 1253 3523 
Q 1550 3584 1831 3584 
Q 2591 3584 2966 3190 
Q 3341 2797 3341 1997 
z
" transform="scale(0.015625)"/>
       <path id="DejaVuSans-6c" d="M 603 4863 
L 1178 4863 
L 1178 0 
L 603 0 
L 603 4863 
z
" transform="scale(0.015625)"/>
      </defs>
      <use xlink:href="#DejaVuSans-52"/>
      <use xlink:href="#DejaVuSans-65" x="64.982422"/>
      <use xlink:href="#DejaVuSans-63" x="126.505859"/>
      <use xlink:href="#DejaVuSans-61" x="181.486328"/>
      <use xlink:href="#DejaVuSans-6c" x="242.765625"/>
      <use xlink:href="#DejaVuSans-6c" x="270.548828"/>
     </g>
    </g>
   </g>
   <g id="matplotlib.axis_2">
    <g id="ytick_1">
     <g id="line2d_13">
      <path d="M 45.716875 343.722912 
L 492.116875 343.722912 
" clip-path="url(#pd0611aa103)" style="fill: none; stroke: #b0b0b0; stroke-width: 0.8; stroke-linecap: square"/>
     </g>
     <g id="line2d_14">
      <defs>
       <path id="mcbc9517bf5" d="M 0 0 
L -3.5 0 
" style="stroke: #000000; stroke-width: 0.8"/>
      </defs>
      <g>
       <use xlink:href="#mcbc9517bf5" x="45.716875" y="343.722912" style="stroke: #000000; stroke-width: 0.8"/>
      </g>
     </g>
     <g id="text_8">
      <!-- 0.0 -->
      <g transform="translate(22.81375 347.522131) scale(0.1 -0.1)">
       <use xlink:href="#DejaVuSans-30"/>
       <use xlink:href="#DejaVuSans-2e" x="63.623047"/>
       <use xlink:href="#DejaVuSans-30" x="95.410156"/>
      </g>
     </g>
    </g>
    <g id="ytick_2">
     <g id="line2d_15">
      <path d="M 45.716875 282.465955 
L 492.116875 282.465955 
" clip-path="url(#pd0611aa103)" style="fill: none; stroke: #b0b0b0; stroke-width: 0.8; stroke-linecap: square"/>
     </g>
     <g id="line2d_16">
      <g>
       <use xlink:href="#mcbc9517bf5" x="45.716875" y="282.465955" style="stroke: #000000; stroke-width: 0.8"/>
      </g>
     </g>
     <g id="text_9">
      <!-- 0.2 -->
      <g transform="translate(22.81375 286.265173) scale(0.1 -0.1)">
       <use xlink:href="#DejaVuSans-30"/>
       <use xlink:href="#DejaVuSans-2e" x="63.623047"/>
       <use xlink:href="#DejaVuSans-32" x="95.410156"/>
      </g>
     </g>
    </g>
    <g id="ytick_3">
     <g id="line2d_17">
      <path d="M 45.716875 221.208997 
L 492.116875 221.208997 
" clip-path="url(#pd0611aa103)" style="fill: none; stroke: #b0b0b0; stroke-width: 0.8; stroke-linecap: square"/>
     </g>
     <g id="line2d_18">
      <g>
       <use xlink:href="#mcbc9517bf5" x="45.716875" y="221.208997" style="stroke: #000000; stroke-width: 0.8"/>
      </g>
     </g>
     <g id="text_10">
      <!-- 0.4 -->
      <g transform="translate(22.81375 225.008216) scale(0.1 -0.1)">
       <use xlink:href="#DejaVuSans-30"/>
       <use xlink:href="#DejaVuSans-2e" x="63.623047"/>
       <use xlink:href="#DejaVuSans-34" x="95.410156"/>
      </g>
     </g>
    </g>
    <g id="ytick_4">
     <g id="line2d_19">
      <path d="M 45.716875 159.95204 
L 492.116875 159.95204 
" clip-path="url(#pd0611aa103)" style="fill: none; stroke: #b0b0b0; stroke-width: 0.8; stroke-linecap: square"/>
     </g>
     <g id="line2d_20">
      <g>
       <use xlink:href="#mcbc9517bf5" x="45.716875" y="159.95204" style="stroke: #000000; stroke-width: 0.8"/>
      </g>
     </g>
     <g id="text_11">
      <!-- 0.6 -->
      <g transform="translate(22.81375 163.751259) scale(0.1 -0.1)">
       <use xlink:href="#DejaVuSans-30"/>
       <use xlink:href="#DejaVuSans-2e" x="63.623047"/>
       <use xlink:href="#DejaVuSans-36" x="95.410156"/>
      </g>
     </g>
    </g>
    <g id="ytick_5">
     <g id="line2d_21">
      <path d="M 45.716875 98.695082 
L 492.116875 98.695082 
" clip-path="url(#pd0611aa103)" style="fill: none; stroke: #b0b0b0; stroke-width: 0.8; stroke-linecap: square"/>
     </g>
     <g id="line2d_22">
      <g>
       <use xlink:href="#mcbc9517bf5" x="45.716875" y="98.695082" style="stroke: #000000; stroke-width: 0.8"/>
      </g>
     </g>
     <g id="text_12">
      <!-- 0.8 -->
      <g transform="translate(22.81375 102.494301) scale(0.1 -0.1)">
       <use xlink:href="#DejaVuSans-30"/>
       <use xlink:href="#DejaVuSans-2e" x="63.623047"/>
       <use xlink:href="#DejaVuSans-38" x="95.410156"/>
      </g>
     </g>
    </g>
    <g id="ytick_6">
     <g id="line2d_23">
      <path d="M 45.716875 37.438125 
L 492.116875 37.438125 
" clip-path="url(#pd0611aa103)" style="fill: none; stroke: #b0b0b0; stroke-width: 0.8; stroke-linecap: square"/>
     </g>
     <g id="line2d_24">
      <g>
       <use xlink:href="#mcbc9517bf5" x="45.716875" y="37.438125" style="stroke: #000000; stroke-width: 0.8"/>
      </g>
     </g>
     <g id="text_13">
      <!-- 1.0 -->
      <g transform="translate(22.81375 41.237344) scale(0.1 -0.1)">
       <use xlink:href="#DejaVuSans-31"/>
       <use xlink:href="#DejaVuSans-2e" x="63.623047"/>
       <use xlink:href="#DejaVuSans-30" x="95.410156"/>
      </g>
     </g>
    </g>
    <g id="text_14">
     <!-- Precision -->
     <g transform="translate(16.318125 215.406562) rotate(-90) scale(0.12 -0.12)">
      <defs>
       <path id="DejaVuSans-50" d="M 1259 4147 
L 1259 2394 
L 2053 2394 
Q 2494 2394 2734 2622 
Q 2975 2850 2975 3272 
Q 2975 3691 2734 3919 
Q 2494 4147 2053 4147 
L 1259 4147 
z
M 628 4666 
L 2053 4666 
Q 2838 4666 3239 4311 
Q 3641 3956 3641 3272 
Q 3641 2581 3239 2228 
Q 2838 1875 2053 1875 
L 1259 1875 
L 1259 0 
L 628 0 
L 628 4666 
z
" transform="scale(0.015625)"/>
       <path id="DejaVuSans-72" d="M 2631 2963 
Q 2534 3019 2420 3045 
Q 2306 3072 2169 3072 
Q 1681 3072 1420 2755 
Q 1159 2438 1159 1844 
L 1159 0 
L 581 0 
L 581 3500 
L 1159 3500 
L 1159 2956 
Q 1341 3275 1631 3429 
Q 1922 3584 2338 3584 
Q 2397 3584 2469 3576 
Q 2541 3569 2628 3553 
L 2631 2963 
z
" transform="scale(0.015625)"/>
       <path id="DejaVuSans-69" d="M 603 3500 
L 1178 3500 
L 1178 0 
L 603 0 
L 603 3500 
z
M 603 4863 
L 1178 4863 
L 1178 4134 
L 603 4134 
L 603 4863 
z
" transform="scale(0.015625)"/>
       <path id="DejaVuSans-73" d="M 2834 3397 
L 2834 2853 
Q 2591 2978 2328 3040 
Q 2066 3103 1784 3103 
Q 1356 3103 1142 2972 
Q 928 2841 928 2578 
Q 928 2378 1081 2264 
Q 1234 2150 1697 2047 
L 1894 2003 
Q 2506 1872 2764 1633 
Q 3022 1394 3022 966 
Q 3022 478 2636 193 
Q 2250 -91 1575 -91 
Q 1294 -91 989 -36 
Q 684 19 347 128 
L 347 722 
Q 666 556 975 473 
Q 1284 391 1588 391 
Q 1994 391 2212 530 
Q 2431 669 2431 922 
Q 2431 1156 2273 1281 
Q 2116 1406 1581 1522 
L 1381 1569 
Q 847 1681 609 1914 
Q 372 2147 372 2553 
Q 372 3047 722 3315 
Q 1072 3584 1716 3584 
Q 2034 3584 2315 3537 
Q 2597 3491 2834 3397 
z
" transform="scale(0.015625)"/>
       <path id="DejaVuSans-6f" d="M 1959 3097 
Q 1497 3097 1228 2736 
Q 959 2375 959 1747 
Q 959 1119 1226 758 
Q 1494 397 1959 397 
Q 2419 397 2687 759 
Q 2956 1122 2956 1747 
Q 2956 2369 2687 2733 
Q 2419 3097 1959 3097 
z
M 1959 3584 
Q 2709 3584 3137 3096 
Q 3566 2609 3566 1747 
Q 3566 888 3137 398 
Q 2709 -91 1959 -91 
Q 1206 -91 779 398 
Q 353 888 353 1747 
Q 353 2609 779 3096 
Q 1206 3584 1959 3584 
z
" transform="scale(0.015625)"/>
       <path id="DejaVuSans-6e" d="M 3513 2113 
L 3513 0 
L 2938 0 
L 2938 2094 
Q 2938 2591 2744 2837 
Q 2550 3084 2163 3084 
Q 1697 3084 1428 2787 
Q 1159 2491 1159 1978 
L 1159 0 
L 581 0 
L 581 3500 
L 1159 3500 
L 1159 2956 
Q 1366 3272 1645 3428 
Q 1925 3584 2291 3584 
Q 2894 3584 3203 3211 
Q 3513 2838 3513 2113 
z
" transform="scale(0.015625)"/>
      </defs>
      <use xlink:href="#DejaVuSans-50"/>
      <use xlink:href="#DejaVuSans-72" x="58.552734"/>
      <use xlink:href="#DejaVuSans-65" x="97.416016"/>
      <use xlink:href="#DejaVuSans-63" x="158.939453"/>
      <use xlink:href="#DejaVuSans-69" x="213.919922"/>
      <use xlink:href="#DejaVuSans-73" x="241.703125"/>
      <use xlink:href="#DejaVuSans-69" x="293.802734"/>
      <use xlink:href="#DejaVuSans-6f" x="321.585938"/>
      <use xlink:href="#DejaVuSans-6e" x="382.767578"/>
     </g>
    </g>
   </g>
   <g id="line2d_25">
    <path d="M 471.825966 206.558581 
L 471.825966 205.443424 
L 471.597593 205.486119 
L 471.597593 205.380648 
L 471.597593 204.388439 
L 471.369221 204.395517 
L 471.369221 204.288314 
L 471.369221 203.85785 
L 470.684103 203.878376 
L 470.684103 203.842334 
L 470.684103 203.0082 
L 470.227357 203.05761 
L 470.227357 202.984575 
L 470.227357 202.911464 
L 469.998985 202.954456 
L 469.998985 202.917873 
L 469.998985 202.587776 
L 469.54224 202.563491 
L 469.54224 202.416066 
L 469.313867 202.459153 
L 469.313867 202.348387 
L 469.313867 200.930163 
L 468.857122 201.016529 
L 468.857122 200.941103 
L 468.857122 200.486866 
L 468.628749 200.530104 
L 468.628749 200.454119 
L 468.628749 200.339991 
L 468.400376 200.383259 
L 468.400376 200.307075 
L 468.400376 199.771513 
L 467.943631 199.511776 
L 467.943631 199.047328 
L 466.801768 199.070113 
L 466.801768 198.992217 
L 466.801768 198.326699 
L 466.573395 198.370229 
L 466.573395 198.291532 
L 466.573395 198.133883 
L 466.345023 198.177444 
L 466.345023 198.098493 
L 466.345023 198.058986 
L 466.11665 198.102574 
L 466.11665 198.023497 
L 466.11665 197.706328 
L 465.659905 197.714092 
L 465.659905 197.554824 
L 465.431532 197.598501 
L 465.431532 197.518738 
L 465.431532 197.118617 
L 465.203159 197.16233 
L 465.203159 197.082044 
L 465.203159 196.193067 
L 464.974787 196.196162 
L 464.974787 196.114768 
L 464.974787 195.992508 
L 464.746414 196.036296 
L 464.746414 195.954678 
L 464.746414 195.504165 
L 464.518041 195.547987 
L 464.518041 195.465782 
L 464.518041 195.053384 
L 464.289669 195.097239 
L 464.289669 195.014485 
L 464.289669 194.72412 
L 464.061296 194.768006 
L 464.061296 194.684837 
L 464.061296 194.643218 
L 463.832923 194.68713 
L 463.832923 194.603823 
L 463.832923 194.562135 
L 463.604551 194.606074 
L 463.604551 194.522628 
L 463.604551 194.187911 
L 463.376178 194.23188 
L 463.376178 194.147967 
L 463.376178 193.811371 
L 462.919433 193.857214 
L 462.919433 193.81501 
L 462.919433 193.518917 
L 462.234315 193.566341 
L 462.234315 193.311334 
L 462.005942 193.355466 
L 462.005942 193.270272 
L 462.005942 193.099594 
L 461.549197 193.145208 
L 461.549197 193.102455 
L 461.549197 193.016875 
L 460.635707 193.19387 
L 460.635707 193.151045 
L 460.635707 191.374002 
L 460.178961 191.374917 
L 460.178961 191.331 
L 459.950589 191.375375 
L 459.950589 191.287466 
L 459.950589 191.199454 
L 459.722216 191.243855 
L 459.722216 191.155743 
L 459.722216 191.067528 
L 459.493843 191.111955 
L 459.493843 191.023639 
L 459.493843 190.846699 
L 459.265471 190.846853 
L 459.265471 190.802528 
L 459.265471 190.134559 
L 459.037098 190.044743 
L 459.037098 189.550312 
L 458.808725 189.594816 
L 458.808725 189.504577 
L 458.808725 188.960916 
L 458.580353 189.005442 
L 458.580353 188.914459 
L 458.580353 188.595172 
L 458.35198 188.639722 
L 458.35198 188.548254 
L 458.35198 188.135312 
L 458.123607 188.179884 
L 458.123607 188.133865 
L 458.123607 187.85718 
L 457.895235 187.901775 
L 457.895235 187.809327 
L 457.895235 187.763062 
L 457.666862 187.66872 
L 457.666862 187.483052 
L 457.43849 187.388152 
L 457.43849 187.201706 
L 456.981744 187.197672 
L 456.524999 187.10001 
L 456.524999 186.865474 
L 456.296626 186.769179 
L 456.296626 186.533512 
L 455.839881 186.434064 
L 455.839881 185.290145 
L 455.611508 185.334962 
L 455.611508 185.286937 
L 455.611508 185.142685 
L 455.383136 185.187526 
L 455.383136 185.09121 
L 455.383136 184.753182 
L 455.154763 184.798041 
L 455.154763 184.701194 
L 455.154763 184.507147 
L 454.241273 184.589618 
L 454.241273 184.492289 
L 453.784527 184.582285 
L 453.784527 184.484832 
L 453.784527 184.338429 
L 453.556155 184.383463 
L 453.556155 184.285708 
L 453.556155 184.236786 
L 453.327782 184.281844 
L 453.327782 184.183907 
L 453.327782 183.938538 
L 452.871037 183.930356 
L 452.871037 183.831871 
L 452.642664 183.876998 
L 452.642664 183.778389 
L 452.642664 183.630246 
L 452.185919 183.720572 
L 452.185919 183.621652 
L 452.185919 183.274469 
L 451.957546 183.170403 
L 451.957546 182.92102 
L 451.729174 182.966229 
L 451.729174 182.866256 
L 451.729174 182.766159 
L 451.500801 182.81139 
L 451.500801 182.711165 
L 451.500801 181.651213 
L 451.044056 181.640002 
L 451.044056 181.538191 
L 450.815683 181.583463 
L 450.815683 181.481521 
L 450.358938 181.367858 
L 450.358938 181.265523 
L 449.902192 181.305017 
L 449.902192 181.202481 
L 449.902192 180.532824 
L 449.67382 180.267244 
L 449.217075 180.097992 
L 449.217075 179.941563 
L 448.760329 179.927984 
L 448.760329 179.771043 
L 448.303584 179.757215 
L 448.303584 178.913933 
L 448.075211 178.959424 
L 448.075211 178.853398 
L 448.075211 178.640938 
L 447.618466 178.731977 
L 447.618466 178.625532 
L 447.618466 178.358815 
L 447.390093 178.404362 
L 447.390093 178.297429 
L 447.390093 177.652914 
L 447.161721 177.320142 
L 447.161721 177.211736 
L 446.933348 177.040033 
L 446.704975 177.085595 
L 446.704975 176.976753 
L 446.704975 176.758641 
L 446.476603 176.804216 
L 446.476603 176.69494 
L 446.476603 176.475959 
L 446.24823 176.521545 
L 446.24823 176.466707 
L 446.24823 176.356922 
L 446.019858 176.402529 
L 446.019858 176.292595 
L 446.019858 175.796096 
L 445.791485 175.841699 
L 445.791485 175.730959 
L 445.791485 175.509041 
L 445.563112 175.554654 
L 445.563112 175.443469 
L 445.563112 175.332136 
L 445.33474 175.266279 
L 445.33474 175.042862 
L 445.106367 175.088502 
L 445.106367 174.976564 
L 443.964504 174.530214 
L 443.964504 174.417193 
L 443.736131 174.46296 
L 443.736131 174.34978 
L 443.736131 174.122966 
L 443.051013 174.260384 
L 443.051013 174.203575 
L 443.051013 174.032918 
L 442.822641 174.07877 
L 442.822641 174.021804 
L 442.822641 173.907758 
L 442.594268 173.839423 
L 442.594268 173.667823 
L 442.365895 173.713707 
L 442.365895 173.541749 
L 442.137523 173.587653 
L 442.137523 173.530252 
L 442.137523 173.472813 
L 441.90915 173.518739 
L 441.90915 173.461257 
L 441.90915 173.057794 
L 441.680777 173.10372 
L 441.680777 173.045922 
L 441.680777 172.930209 
L 440.995659 173.068138 
L 440.995659 173.01021 
L 440.995659 172.952243 
L 440.767287 172.998274 
L 440.767287 172.940263 
L 440.767287 172.649619 
L 440.538914 172.579113 
L 439.853796 172.659044 
L 439.853796 172.483774 
L 439.397051 172.576081 
L 439.397051 172.51757 
L 439.397051 172.459018 
L 439.168678 172.50521 
L 439.168678 172.446614 
L 439.168678 171.622038 
L 438.711933 171.714387 
L 438.711933 171.655176 
L 438.711933 171.595924 
L 438.48356 171.642138 
L 438.48356 171.58284 
L 438.48356 171.523502 
L 438.255188 171.569739 
L 438.255188 171.510355 
L 438.255188 171.09352 
L 438.026815 171.020275 
L 438.026815 170.840751 
L 437.798443 170.886991 
L 437.798443 170.40639 
L 437.57007 170.332046 
L 437.57007 169.544181 
L 437.113325 169.575684 
L 437.113325 169.331609 
L 436.884952 169.377839 
L 436.884952 169.071755 
L 436.428207 169.102903 
L 436.428207 168.733858 
L 436.199834 168.780121 
L 436.199834 168.718457 
L 436.199834 168.533201 
L 435.971461 168.579476 
L 435.971461 168.517631 
L 435.971461 168.269816 
L 435.057971 168.330915 
L 435.057971 168.206523 
L 435.057971 168.081955 
L 434.829598 168.128332 
L 434.829598 168.065976 
L 434.829598 167.753531 
L 434.601226 167.799906 
L 434.601226 167.737278 
L 434.601226 167.611887 
L 434.14448 167.704703 
L 434.14448 167.641929 
L 434.14448 167.390385 
L 433.459362 167.529769 
L 433.459362 167.466752 
L 433.459362 166.57977 
L 433.23099 166.626207 
L 433.23099 166.562503 
L 433.23099 166.434958 
L 433.002617 166.353668 
L 432.317499 166.429228 
L 432.317499 165.593543 
L 432.089126 165.640027 
L 432.089126 165.575411 
L 432.089126 165.38128 
L 431.632381 165.474296 
L 431.632381 165.409478 
L 431.632381 165.01958 
L 430.947263 165.094047 
L 430.947263 164.832894 
L 429.348655 165.159667 
L 429.348655 165.094211 
L 429.120282 165.075512 
L 429.120282 164.878692 
L 428.663537 164.906647 
L 428.663537 164.840881 
L 428.435164 164.887755 
L 428.435164 164.821934 
L 428.435164 164.425989 
L 427.750046 164.500488 
L 427.750046 164.235268 
L 427.064928 164.309704 
L 427.064928 163.575498 
L 426.836556 163.622442 
L 426.37981 163.313284 
L 425.923065 163.407326 
L 425.694693 163.252078 
L 425.694693 163.184536 
L 425.46632 163.231615 
L 425.46632 163.164015 
L 425.46632 163.028664 
L 425.237947 163.075754 
L 425.237947 163.007995 
L 425.237947 162.736447 
L 425.009575 162.783534 
L 425.009575 162.715512 
L 424.781202 162.626412 
L 424.324457 162.720716 
L 424.324457 162.652516 
L 424.324457 162.379202 
L 424.096084 162.426368 
L 424.096084 162.357902 
L 424.096084 162.289385 
L 423.410966 162.431047 
L 423.410966 162.362454 
L 423.410966 162.087561 
L 423.182594 161.928071 
L 423.182594 161.789981 
L 422.954221 161.837227 
L 422.954221 161.768096 
L 422.954221 161.698911 
L 422.725848 161.746177 
L 422.725848 161.676931 
L 422.725848 161.468879 
L 422.269103 161.493977 
L 421.812358 160.820766 
L 421.355612 160.915421 
L 420.898867 160.164656 
L 420.898867 159.596584 
L 420.670494 159.501272 
L 420.670494 159.429896 
L 420.442122 159.47718 
L 418.158395 159.08994 
L 417.473278 159.088252 
L 417.473278 159.015903 
L 417.473278 158.798515 
L 416.78816 158.941517 
L 416.331414 158.746194 
L 416.331414 158.67334 
L 415.874669 158.695982 
L 415.874669 158.549947 
L 415.417924 158.572488 
L 415.189551 158.327251 
L 415.189551 158.253827 
L 414.961178 158.154651 
L 414.961178 158.081042 
L 414.504433 158.176828 
L 414.504433 158.10314 
L 414.504433 157.955589 
L 413.819315 157.80353 
L 413.819315 157.506652 
L 412.905825 157.624275 
L 412.905825 157.549806 
L 412.905825 157.32604 
L 412.449079 157.122903 
L 412.449079 157.047933 
L 412.220707 157.096008 
L 412.220707 157.020967 
L 412.220707 156.41846 
L 411.992334 156.466474 
L 411.992334 156.390876 
L 410.393726 156.04414 
L 410.393726 155.585454 
L 409.708608 155.345877 
L 409.480235 155.394081 
L 409.480235 155.317055 
L 409.480235 154.543315 
L 408.338372 154.628639 
L 408.338372 154.550726 
L 408.338372 154.316602 
L 408.109999 153.658864 
L 407.653254 153.676441 
L 404.68441 153.114293 
L 404.68441 152.954185 
L 404.227664 152.971117 
L 404.227664 152.890868 
L 403.999292 152.939459 
L 403.999292 152.859129 
L 403.999292 152.214046 
L 403.542546 152.067994 
L 403.542546 151.661429 
L 403.085801 151.676886 
L 403.085801 151.595268 
L 402.400683 151.659272 
L 402.400683 151.577473 
L 401.715565 151.723493 
L 401.715565 151.641582 
L 401.715565 151.559601 
L 401.25882 151.57502 
L 401.25882 151.49287 
L 401.030447 151.541653 
L 401.030447 151.459419 
L 401.030447 151.377115 
L 400.573702 151.474749 
L 400.573702 151.392345 
L 400.573702 150.481218 
L 399.888584 150.544155 
L 399.660212 150.42612 
L 399.660212 150.25898 
L 398.975094 150.070172 
L 398.975094 149.564991 
L 398.746721 149.613763 
L 398.746721 149.529294 
L 398.746721 149.275446 
L 398.518348 149.324198 
L 398.518348 149.069638 
L 398.289976 149.118386 
L 398.289976 149.033369 
L 398.289976 148.948277 
L 397.604858 149.009466 
L 397.376485 148.973032 
L 396.691367 149.119853 
L 396.691367 149.034426 
L 396.691367 148.948924 
L 396.234622 148.704065 
L 396.006249 148.753081 
L 396.006249 148.667153 
L 396.006249 148.236376 
L 395.777877 148.285337 
L 395.777877 148.198937 
L 395.777877 148.025907 
L 395.092759 148.08622 
L 394.636013 147.923797 
L 394.636013 147.836775 
L 394.407641 147.885863 
L 394.407641 147.798747 
L 394.407641 147.711553 
L 393.722523 147.684255 
L 392.58066 147.843106 
L 392.58066 147.667744 
L 391.895542 147.815968 
L 391.895542 147.728118 
L 391.895542 147.28768 
L 391.667169 147.337073 
L 391.667169 147.24873 
L 390.753679 147.180959 
L 390.753679 146.914522 
L 390.525306 146.964014 
L 390.525306 146.875023 
L 390.525306 146.6968 
L 390.296933 146.746283 
L 390.296933 146.657032 
L 390.296933 146.5677 
L 390.068561 146.617192 
L 390.068561 146.527761 
L 389.383443 146.497237 
L 389.383443 146.407508 
L 388.926697 146.416903 
L 387.556462 146.264588 
L 387.099716 146.364337 
L 387.099716 146.273847 
L 387.099716 146.183274 
L 386.871344 146.23318 
L 386.871344 146.142505 
L 386.871344 145.596703 
L 386.414598 145.60509 
L 386.414598 145.055526 
L 385.957853 145.063196 
L 385.957853 144.971181 
L 385.272735 145.12081 
L 385.272735 145.028651 
L 385.272735 144.659159 
L 384.359245 144.858919 
L 384.359245 144.208429 
L 384.130872 144.258345 
L 384.130872 144.16505 
L 384.130872 144.071668 
L 383.902499 144.12159 
L 383.902499 144.0281 
L 383.902499 143.934522 
L 382.760636 144.090863 
L 382.760636 143.903063 
L 382.532264 143.953164 
L 382.303891 143.815075 
L 381.847146 143.821137 
L 381.847146 143.726755 
L 381.618773 143.493217 
L 381.618773 143.303605 
L 380.933655 143.454196 
L 380.933655 143.359192 
L 380.933655 143.264098 
L 380.47691 143.364645 
L 380.248537 143.033452 
L 379.335047 143.139271 
L 378.878301 143.144443 
L 378.878301 143.048518 
L 378.878301 142.6639 
L 378.649929 142.714344 
L 378.649929 142.617937 
L 378.649929 142.521437 
L 378.421556 142.571885 
L 378.421556 142.475271 
L 378.421556 142.378564 
L 377.964811 142.479517 
L 377.964811 142.188702 
L 377.736438 142.239185 
L 377.736438 142.142037 
L 377.736438 141.752509 
L 377.279693 141.75573 
L 377.279693 141.462173 
L 377.05132 141.512597 
L 377.05132 141.414532 
L 377.05132 140.824138 
L 376.13783 140.926841 
L 376.13783 140.827917 
L 375.909457 140.878375 
L 375.909457 140.77933 
L 375.909457 140.680188 
L 374.995966 140.782992 
L 374.995966 140.484404 
L 374.767594 140.534967 
L 374.767594 140.435218 
L 374.767594 140.135384 
L 374.539221 140.185899 
L 373.854103 139.936193 
L 373.854103 139.633988 
L 373.397358 139.634138 
L 373.397358 139.533054 
L 372.940613 139.330284 
L 372.940613 139.025372 
L 372.71224 138.872081 
L 371.570377 138.715886 
L 371.570377 138.407759 
L 370.656886 138.404366 
L 370.428514 138.455129 
L 370.428514 138.351875 
L 370.428514 138.145056 
L 369.743396 137.673966 
L 369.28665 137.67114 
L 369.28665 137.566705 
L 369.058278 137.61748 
L 369.058278 137.512911 
L 369.058278 137.408236 
L 368.37316 137.560707 
L 368.37316 137.455843 
L 368.37316 137.350872 
L 368.144787 137.401744 
L 367.459669 136.921931 
L 367.459669 136.285293 
L 367.231297 136.336036 
L 367.231297 136.22952 
L 367.231297 136.016159 
L 367.002924 136.066868 
L 366.774551 135.79659 
L 366.774551 135.689356 
L 366.546179 135.740054 
L 366.546179 135.63268 
L 366.546179 134.986102 
L 366.317806 135.036645 
L 366.317806 134.928462 
L 366.317806 134.820166 
L 365.861061 134.921289 
L 365.861061 134.812821 
L 365.861061 134.050375 
L 364.719198 134.193361 
L 364.719198 134.083717 
L 364.262452 133.855162 
L 364.262452 133.744995 
L 363.348962 133.837232 
L 363.348962 133.283444 
L 362.663844 133.435418 
L 362.663844 133.324214 
L 362.663844 132.989894 
L 362.435471 133.040531 
L 362.435471 132.928822 
L 361.978726 132.9183 
L 361.978726 132.694159 
L 361.065235 132.897156 
L 361.065235 132.784775 
L 361.065235 132.559654 
L 360.60849 132.66128 
L 360.60849 132.435546 
L 359.923372 132.475044 
L 359.923372 132.248384 
L 359.695 132.299275 
L 359.695 132.185728 
L 359.695 132.07206 
L 358.553136 132.21304 
L 358.553136 132.098957 
L 358.096391 132.086908 
L 357.639646 132.189287 
L 357.639646 131.730677 
L 357.1829 131.71797 
L 356.954528 131.769181 
L 356.954528 131.653989 
L 356.497783 131.756509 
L 356.497783 131.40997 
L 356.26941 131.461208 
L 356.26941 131.345408 
L 356.041037 131.396668 
L 356.041037 131.164617 
L 355.355919 131.318519 
L 355.355919 131.085748 
L 355.127547 131.137089 
L 355.127547 131.020476 
L 354.899174 131.071839 
L 354.899174 130.838156 
L 354.214056 130.992366 
L 354.214056 130.405362 
L 353.985684 130.456696 
L 353.985684 130.220913 
L 353.757311 130.272231 
L 353.757311 130.035851 
L 353.300566 130.13851 
L 353.300566 129.663878 
L 353.072193 129.715143 
L 353.072193 129.596117 
L 352.387075 129.750142 
L 352.387075 129.152452 
L 352.158702 129.203718 
L 352.158702 128.240128 
L 351.701957 128.34221 
L 351.701957 127.856845 
L 350.788467 128.061066 
L 350.788467 127.572867 
L 350.331721 127.675003 
L 350.331721 126.69129 
L 349.874976 126.793003 
L 349.874976 126.173203 
L 349.646603 126.223938 
L 349.646603 125.974941 
L 349.189858 126.076416 
L 349.189858 125.701594 
L 348.961485 125.752291 
L 348.276368 125.653789 
L 348.276368 124.89748 
L 347.819622 124.998706 
L 347.819622 124.109067 
L 347.59125 124.159457 
L 347.59125 123.775829 
L 347.134504 123.876514 
L 347.134504 123.619834 
L 346.906132 123.670174 
L 346.906132 123.412802 
L 346.677759 123.463109 
L 346.677759 122.946371 
L 346.449386 122.996551 
L 345.764268 122.757739 
L 345.307523 122.858352 
L 345.307523 122.728048 
L 344.622405 122.879271 
L 344.394033 122.799151 
L 343.708915 122.950949 
L 343.708915 122.820005 
L 343.252169 122.921409 
L 343.252169 122.527355 
L 342.795424 122.628712 
L 342.795424 122.365034 
L 342.567051 122.415706 
L 342.567051 122.283582 
L 342.338679 122.201936 
L 342.110306 122.252632 
L 342.110306 121.854543 
L 341.881934 121.905153 
L 341.881934 121.371937 
L 341.653561 121.422408 
L 341.653561 120.886421 
L 341.425188 120.802301 
L 341.425188 120.53291 
L 341.196816 120.583149 
L 341.196816 120.448158 
L 340.968443 120.498406 
L 340.968443 119.820736 
L 340.74007 119.870786 
L 340.74007 119.462048 
L 340.511698 119.512002 
L 340.511698 118.414274 
L 340.283325 118.463862 
L 340.283325 118.325835 
L 339.598207 118.4748 
L 339.369835 118.386163 
L 339.369835 117.969901 
L 339.141462 117.880369 
L 339.141462 117.741046 
L 338.913089 117.790615 
L 338.913089 117.651065 
L 338.684717 117.70064 
L 338.684717 117.42091 
L 338.456344 117.189898 
L 338.227971 117.239372 
L 338.227971 116.958026 
L 337.999599 117.007448 
L 337.999599 116.725288 
L 337.314481 116.873581 
L 337.314481 115.163661 
L 336.857735 115.261429 
L 336.857735 114.685234 
L 335.4875 114.978577 
L 335.4875 114.833711 
L 335.030754 114.641338 
L 335.030754 114.204159 
L 334.802382 114.253024 
L 334.574009 114.155729 
L 333.888891 114.302698 
L 333.888891 114.156104 
L 331.376792 114.699152 
L 331.376792 114.256166 
L 331.148419 114.305726 
L 330.920047 114.20718 
L 330.463302 114.306493 
L 330.463302 114.009322 
L 330.234929 114.058947 
L 330.234929 113.910008 
L 330.006556 113.959632 
L 330.006556 113.661045 
L 329.778184 113.411109 
L 329.321438 113.510161 
L 329.321438 112.908298 
L 329.093066 112.957657 
L 329.093066 112.806633 
L 328.407948 112.954899 
L 328.407948 112.803476 
L 328.179575 112.852961 
L 327.72283 112.800303 
L 327.72283 112.64828 
L 327.494457 112.697826 
L 327.494457 112.545535 
L 327.266085 112.595078 
L 327.266085 112.136794 
L 327.037712 112.186198 
L 327.037712 111.725886 
L 326.580967 111.824477 
L 326.580967 111.361913 
L 325.895849 111.509662 
L 325.895849 111.354854 
L 325.210731 111.502983 
L 325.210731 110.568497 
L 324.982358 110.617577 
L 324.982358 110.461026 
L 324.753986 110.5101 
L 324.753986 110.19622 
L 324.525613 110.245216 
L 324.068868 109.870338 
L 324.068868 109.712223 
L 323.840495 109.761123 
L 323.840495 109.12622 
L 323.612122 109.174888 
L 323.612122 108.855992 
L 323.38375 108.904575 
L 323.38375 108.744726 
L 322.470259 108.93942 
L 322.470259 108.135367 
L 322.241887 108.183823 
L 321.785141 107.63278 
L 321.556769 107.681124 
L 321.556769 107.518448 
L 321.328396 107.403801 
L 321.328396 107.077168 
L 321.100023 106.961592 
L 320.186533 107.154579 
L 320.186533 106.825783 
L 319.95816 106.874036 
L 319.95816 106.544163 
L 319.501415 106.640545 
L 319.501415 106.309425 
L 319.04467 106.405748 
L 319.04467 105.906834 
L 318.816297 105.954848 
L 318.816297 105.620904 
L 318.587924 105.668819 
L 318.587924 105.333767 
L 318.359552 105.381581 
L 318.359552 105.045416 
L 318.131179 104.924603 
L 318.131179 104.586841 
L 316.989316 104.825126 
L 316.760943 104.703227 
L 316.532571 104.751069 
L 316.532571 104.580982 
L 316.304198 104.628805 
L 316.304198 104.458388 
L 316.075825 104.506192 
L 315.847453 104.383228 
L 315.61908 104.431081 
L 315.61908 103.916843 
L 315.390707 103.792505 
L 315.390707 103.620265 
L 315.162335 103.66781 
L 315.162335 103.495232 
L 314.705589 103.590347 
L 314.705589 103.417341 
L 314.020471 103.560256 
L 314.020471 103.212949 
L 313.563726 103.308206 
L 313.563726 103.133992 
L 313.335354 103.181633 
L 313.335354 102.832263 
L 312.421863 103.022777 
L 312.421863 102.671646 
L 311.508372 102.862527 
L 311.508372 102.155674 
L 311.28 102.20319 
L 311.28 101.848014 
L 309.681391 102.181251 
L 309.681391 102.002596 
L 309.224646 102.098247 
L 309.224646 101.919133 
L 308.767901 102.014873 
L 308.767901 101.655456 
L 308.311155 101.751088 
L 308.311155 100.665201 
L 308.082783 100.712527 
L 308.082783 100.530497 
L 307.85441 100.395388 
L 307.85441 100.21271 
L 307.397665 100.307108 
L 307.397665 99.756808 
L 307.169292 99.803806 
L 307.169292 99.250701 
L 306.94092 99.297458 
L 306.94092 98.555651 
L 306.484174 98.648535 
L 306.484174 98.462166 
L 306.255802 98.508608 
L 306.255802 98.321849 
L 305.570684 98.461277 
L 305.570684 97.710093 
L 305.342311 97.756278 
L 305.342311 97.189535 
L 305.113938 97.235462 
L 305.113938 96.855959 
L 304.428821 96.9935 
L 304.428821 96.802976 
L 302.830212 97.125611 
L 302.830212 96.549897 
L 302.373467 96.642043 
L 302.373467 96.062948 
L 301.231604 96.292849 
L 301.003231 95.755134 
L 301.003231 95.168459 
L 300.774858 95.214024 
L 300.774858 94.821125 
L 300.318113 94.911992 
L 300.318113 94.319585 
L 299.861368 94.410017 
L 299.861368 94.013022 
L 299.17625 94.148477 
L 299.17625 93.749477 
L 298.491132 93.884841 
L 298.491132 93.483816 
L 298.034387 93.573922 
L 298.034387 93.372676 
L 297.577641 93.46282 
L 297.577641 93.058849 
L 295.979033 93.374876 
L 295.979033 93.171506 
L 295.75066 93.216818 
L 295.75066 92.808828 
L 295.293915 92.899155 
L 295.293915 92.489312 
L 294.608797 92.624573 
L 294.608797 92.418755 
L 294.380424 92.463858 
L 294.380424 92.25757 
L 294.152052 92.302614 
L 294.152052 92.095854 
L 293.923679 92.14084 
L 293.923679 91.933606 
L 293.238561 92.068607 
L 293.238561 91.860628 
L 292.553443 91.995896 
L 292.553443 91.787167 
L 292.325071 91.83227 
L 292.325071 91.623058 
L 292.096698 91.458404 
L 291.868325 91.503383 
L 291.868325 91.2932 
L 291.41158 91.383108 
L 291.41158 90.961135 
L 290.954835 91.050789 
L 290.954835 90.201471 
L 290.726462 90.245847 
L 290.726462 89.818758 
L 290.269717 89.907164 
L 290.269717 89.692793 
L 289.127854 89.914399 
L 289.127854 89.698942 
L 288.899481 89.743344 
L 288.899481 89.527374 
L 288.442736 89.616113 
L 288.442736 88.747371 
L 287.757618 88.879272 
L 287.757618 88.660709 
L 286.844127 88.837035 
L 286.844127 88.397577 
L 286.159009 88.52971 
L 286.159009 88.087817 
L 285.245519 88.263837 
L 285.245519 87.819174 
L 284.560401 87.951061 
L 284.560401 86.604893 
L 284.332028 86.64806 
L 284.332028 86.422159 
L 283.418538 86.594943 
L 283.418538 86.367998 
L 282.73342 86.497901 
L 282.73342 86.270066 
L 282.505047 86.313357 
L 282.505047 85.856146 
L 282.276674 85.899185 
L 282.048302 85.712753 
L 281.363184 85.84206 
L 281.363184 85.380735 
L 280.221321 85.59611 
L 280.221321 85.131436 
L 279.536203 85.260569 
L 279.536203 84.793187 
L 279.079457 84.878975 
L 279.079457 84.173678 
L 277.480849 84.472718 
L 277.480849 83.9979 
L 277.024104 84.083331 
L 276.795731 83.887564 
L 276.795731 83.169125 
L 275.653868 83.380843 
L 275.653868 83.139562 
L 275.425495 83.181957 
L 275.425495 82.69768 
L 275.197123 82.739782 
L 274.96875 82.538774 
L 274.96875 82.051035 
L 274.283632 82.176352 
L 274.283632 81.931229 
L 273.826887 82.014784 
L 273.826887 81.768818 
L 273.370141 81.852303 
L 273.370141 81.605488 
L 272.228278 81.814614 
L 272.228278 81.317634 
L 271.314788 81.484794 
L 271.086415 81.276596 
L 270.172925 81.44456 
L 270.172925 80.941147 
L 269.487807 81.066757 
L 269.031061 80.643515 
L 268.117571 80.81114 
L 268.117571 80.555886 
L 267.20408 80.723987 
L 267.20408 79.694637 
L 266.975708 79.736024 
L 266.975708 79.477213 
L 266.518962 79.039799 
L 266.29059 79.080786 
L 266.062217 78.598926 
L 265.833844 78.639639 
L 265.605472 78.417755 
L 265.377099 78.458409 
L 265.377099 78.194988 
L 265.148726 77.971336 
L 263.778491 78.214778 
L 263.550118 77.989371 
L 263.550118 77.72257 
L 262.865 77.844275 
L 262.636627 77.616755 
L 262.636627 77.078623 
L 261.951509 76.657518 
L 261.723137 76.697416 
L 260.124528 76.705405 
L 258.982665 76.632463 
L 258.52592 76.713527 
L 258.52592 76.43712 
L 258.069175 76.51803 
L 258.069175 76.240559 
L 257.840802 76.280894 
L 257.840802 76.002599 
L 256.927311 76.163788 
L 256.927311 75.322407 
L 256.470566 75.401996 
L 256.470566 75.11985 
L 256.242193 75.159515 
L 256.242193 74.876518 
L 256.013821 74.91601 
L 256.013821 74.632159 
L 255.328703 74.750361 
L 255.328703 74.46513 
L 254.871958 74.543827 
L 254.871958 73.970496 
L 254.415212 74.048473 
L 254.415212 73.471629 
L 253.958467 73.548872 
L 253.958467 73.258985 
L 253.273349 73.374661 
L 253.273349 73.083337 
L 252.588231 73.198943 
L 252.588231 72.906169 
L 250.532877 73.255035 
L 250.532877 72.959118 
L 250.304505 72.701176 
L 250.304505 72.403677 
L 249.391014 72.55788 
L 249.391014 71.95862 
L 249.162642 71.996807 
L 249.162642 71.695892 
L 248.477524 71.810084 
L 248.477524 71.507623 
L 245.508679 72.007514 
L 245.508679 71.700491 
L 244.138444 71.934364 
L 244.138444 71.31455 
L 243.910071 71.353221 
L 243.910071 71.041942 
L 243.453326 71.118926 
L 243.453326 70.806307 
L 242.539835 70.960077 
L 242.539835 70.645472 
L 242.311462 70.683818 
L 242.311462 70.051783 
L 241.397972 70.203474 
L 241.397972 69.885058 
L 240.712854 69.998774 
L 240.712854 68.713684 
L 240.484481 68.750436 
L 240.484481 68.426939 
L 240.256109 68.463439 
L 240.256109 67.487342 
L 239.342618 67.630093 
L 239.342618 66.972729 
L 238.885873 67.043218 
L 238.885873 66.712657 
L 236.602146 67.066641 
L 236.602146 66.731706 
L 236.373774 66.767214 
L 236.373774 66.094174 
L 235.917028 66.163982 
L 235.917028 65.825496 
L 235.688656 65.860157 
L 235.688656 65.520471 
L 235.460283 65.554844 
L 235.231911 65.248032 
L 234.775165 65.316445 
L 234.775165 64.97358 
L 233.404929 65.178559 
L 233.404929 64.832541 
L 232.719812 64.935014 
L 232.719812 64.586964 
L 231.806321 64.723219 
L 231.806321 64.372717 
L 231.577948 64.406597 
L 231.577948 64.054813 
L 231.349576 64.088378 
L 231.349576 63.735304 
L 231.121203 63.768549 
L 230.89283 63.091419 
L 230.89283 62.734835 
L 230.436085 62.799286 
L 230.207712 62.472897 
L 230.207712 62.113242 
L 229.065849 62.272027 
L 229.065849 61.909332 
L 228.609104 61.972565 
L 228.152359 61.670774 
L 227.923986 61.702244 
L 227.695613 61.366624 
L 227.467241 61.397822 
L 227.467241 61.029251 
L 227.010496 61.091008 
L 227.010496 60.720586 
L 226.097005 60.843287 
L 226.097005 60.470094 
L 225.64026 60.155937 
L 225.183514 60.216276 
L 225.183514 59.839273 
L 224.041651 59.989214 
L 224.041651 58.845126 
L 222.21467 59.077811 
L 221.986297 58.719493 
L 221.757925 58.748526 
L 221.757925 58.359217 
L 220.616062 58.503103 
L 220.616062 58.110239 
L 219.702571 58.224766 
L 219.702571 57.82879 
L 219.474198 57.857111 
L 219.474198 57.459523 
L 216.276981 57.857111 
L 215.820236 57.099773 
L 215.820236 56.690312 
L 214.221628 56.884778 
L 214.221628 56.470272 
L 212.851392 56.636734 
L 212.851392 56.21763 
L 212.394647 56.272621 
L 212.166274 55.878178 
L 212.166274 55.454877 
L 211.937901 55.056276 
L 211.252783 55.134579 
L 211.252783 54.706407 
L 210.796038 54.7578 
L 210.796038 54.327152 
L 210.567665 53.485981 
L 209.882547 53.558377 
L 209.654175 53.145037 
L 209.19743 53.192562 
L 209.19743 52.752364 
L 207.827194 52.892862 
L 207.142076 52.516761 
L 206.913703 52.539994 
L 206.913703 52.090638 
L 206.000213 52.181647 
L 206.000213 51.728239 
L 205.77184 51.750498 
L 205.543467 51.316654 
L 205.543467 50.40002 
L 205.315095 50.420369 
L 205.086722 49.978919 
L 202.574623 50.199991 
L 202.574623 49.256188 
L 201.204387 49.371299 
L 201.204387 48.892678 
L 200.519269 48.948828 
L 200.519269 47.982355 
L 198.235543 48.158093 
L 198.235543 47.664662 
L 197.550425 47.716138 
L 197.322052 47.235113 
L 197.322052 46.735134 
L 194.581581 46.927155 
L 194.581581 46.415438 
L 192.754599 46.540995 
L 192.754599 46.020536 
L 191.841109 46.081082 
L 191.841109 45.555213 
L 191.612736 45.56958 
L 191.612736 45.040939 
L 185.218302 45.438101 
L 185.218302 44.880559 
L 184.533184 44.922528 
L 184.533184 43.794979 
L 180.879222 43.992858 
L 180.879222 43.408589 
L 178.13875 43.551594 
L 178.13875 42.951251 
L 176.768515 43.018212 
L 176.768515 42.408264 
L 175.169906 42.47985 
L 174.941534 41.867864 
L 173.114552 41.942313 
L 173.114552 41.306985 
L 172.201062 41.339842 
L 172.201062 40.696474 
L 170.830826 40.738608 
L 170.830826 40.084214 
L 167.176864 40.178928 
L 167.176864 39.498337 
L 165.806628 39.52643 
L 165.806628 38.8335 
L 163.751274 38.862705 
L 163.751274 38.152076 
L 142.055873 38.355145 
L 142.055873 37.438125 
L 66.007784 37.438125 
L 66.007784 37.438125 
" clip-path="url(#pd0611aa103)" style="fill: none; stroke: #1f77b4; stroke-width: 1.5; stroke-linecap: square"/>
   </g>
   <g id="line2d_26">
    <path d="M 471.825966 310.858689 
L 471.825966 307.186057 
L 470.317348 307.305732 
L 470.317348 307.208533 
L 470.317348 304.7465 
L 468.80873 304.873488 
L 468.80873 304.762436 
L 468.80873 302.211218 
L 467.300113 302.345688 
L 467.300113 302.240349 
L 467.300113 300.661732 
L 465.791495 300.80093 
L 465.791495 300.709945 
L 465.791495 299.418617 
L 464.282877 299.561698 
L 464.282877 299.465012 
L 464.282877 297.171856 
L 462.774259 297.321473 
L 462.774259 297.21431 
L 462.774259 295.313718 
L 461.265641 295.468784 
L 461.265641 295.381578 
L 461.265641 294.702378 
L 459.757024 294.85963 
L 459.757024 294.769863 
L 459.757024 293.477576 
L 458.248406 293.638607 
L 458.248406 293.54393 
L 458.248406 293.193696 
L 456.739788 293.35608 
L 456.739788 293.25996 
L 456.739788 292.311532 
L 455.23117 292.476819 
L 455.23117 292.376924 
L 455.23117 291.216949 
L 453.722553 291.385684 
L 453.722553 291.28108 
L 453.722553 287.457587 
L 452.213935 287.636427 
L 452.213935 287.556074 
L 452.213935 287.069079 
L 450.705317 287.208715 
L 450.705317 287.12681 
L 450.705317 285.087311 
L 449.196699 285.273373 
L 449.196699 285.185413 
L 449.196699 285.097188 
L 447.688081 285.283959 
L 447.688081 285.195683 
L 447.688081 284.884604 
L 446.179464 285.072634 
L 446.179464 284.983364 
L 446.179464 284.938627 
L 444.670846 285.127271 
L 444.670846 285.037812 
L 444.670846 284.948079 
L 443.162228 285.137452 
L 443.162228 285.047665 
L 443.162228 283.619932 
L 441.65361 283.813319 
L 441.65361 283.719047 
L 441.65361 283.002441 
L 440.144993 283.198109 
L 440.144993 283.101502 
L 440.144993 282.564597 
L 437.127757 282.861799 
L 437.127757 282.465955 
L 435.619139 282.665326 
L 435.619139 282.565803 
L 435.619139 280.928123 
L 434.110522 281.132051 
L 434.110522 281.027033 
L 434.110522 280.22802 
L 431.093286 280.587547 
L 431.093286 280.533723 
L 431.093286 279.71521 
L 429.584668 279.924612 
L 429.584668 279.814138 
L 429.584668 277.993051 
L 428.07605 278.20745 
L 428.07605 278.149006 
L 428.07605 277.973047 
L 426.567433 278.188387 
L 426.567433 278.129665 
L 426.567433 277.115028 
L 423.550197 277.491621 
L 422.041579 277.529497 
L 422.041579 277.468824 
L 422.041579 276.794014 
L 420.532962 276.953965 
L 420.532962 276.642833 
L 419.024344 276.803547 
L 419.024344 276.741005 
L 419.024344 274.609469 
L 417.515726 274.838399 
L 417.515726 274.771844 
L 417.515726 271.34527 
L 414.49849 271.747545 
L 414.49849 271.082475 
L 412.989873 271.322603 
L 412.989873 269.413312 
L 411.481255 269.65827 
L 411.481255 269.579977 
L 411.481255 265.091504 
L 409.972637 265.347007 
L 409.972637 265.258944 
L 409.972637 263.913848 
L 408.464019 264.172973 
L 408.464019 264.081851 
L 408.464019 262.309977 
L 406.955402 262.573602 
L 406.955402 262.478356 
L 406.955402 259.410656 
L 405.446784 259.681355 
L 405.446784 256.710188 
L 403.938166 256.987397 
L 403.938166 256.877605 
L 403.938166 255.764204 
L 402.429548 256.044468 
L 402.429548 255.931771 
L 402.429548 254.788657 
L 400.92093 255.072035 
L 400.92093 250.833263 
L 399.412313 251.125186 
L 399.412313 250.871145 
L 397.903695 251.164323 
L 397.903695 251.037007 
L 394.886459 251.626245 
L 394.886459 248.063767 
L 393.377842 248.365955 
L 393.377842 247.537964 
L 391.869224 247.842457 
L 391.869224 246.43245 
L 390.360606 246.740247 
L 390.360606 246.597205 
L 388.851988 246.906155 
L 388.851988 245.601738 
L 387.34337 245.913827 
L 387.34337 245.471919 
L 385.834753 245.785695 
L 385.834753 242.582141 
L 384.326135 242.902179 
L 384.326135 241.304386 
L 382.817517 241.627983 
L 382.817517 234.890754 
L 381.308899 235.22542 
L 381.308899 234.484822 
L 379.800282 234.63518 
L 379.800282 233.693144 
L 378.291664 234.032686 
L 378.291664 233.268294 
L 376.783046 233.610057 
L 376.783046 233.030515 
L 375.274428 233.374263 
L 375.274428 231.800664 
L 373.76581 232.14774 
L 373.76581 231.345041 
L 372.257193 231.694422 
L 372.257193 229.218655 
L 370.748575 229.572493 
L 370.748575 229.149714 
L 367.731339 229.862396 
L 367.731339 228.578255 
L 364.714104 229.299539 
L 364.714104 226.874381 
L 363.205486 227.240088 
L 363.205486 223.046706 
L 361.696868 223.418667 
L 361.696868 218.656624 
L 358.679633 219.41486 
L 358.679633 216.758705 
L 357.171015 217.14269 
L 357.171015 213.80431 
L 354.153779 214.582969 
L 354.153779 212.556109 
L 352.645162 212.949632 
L 352.645162 212.359234 
L 351.136544 212.754983 
L 351.136544 210.952672 
L 349.627926 211.351556 
L 349.627926 210.43231 
L 346.61069 211.236934 
L 346.61069 209.678276 
L 345.102073 210.084503 
L 345.102073 204.843781 
L 343.593455 205.255097 
L 343.593455 203.53286 
L 342.084837 203.947062 
L 342.084837 203.597622 
L 340.576219 204.014062 
L 340.576219 202.241107 
L 339.067602 202.660453 
L 339.067602 201.575357 
L 334.541748 202.847739 
L 334.541748 201.003823 
L 333.03313 201.433129 
L 333.03313 200.68226 
L 331.524513 201.114122 
L 331.524513 200.355565 
L 330.015895 200.790011 
L 330.015895 193.583311 
L 328.507277 194.021921 
L 328.507277 191.889428 
L 326.998659 192.330717 
L 326.998659 191.021851 
L 325.490042 191.465735 
L 325.490042 190.134039 
L 323.981424 190.580519 
L 323.981424 189.225276 
L 322.472806 189.674351 
L 322.472806 188.757395 
L 320.964188 189.209094 
L 320.964188 188.281083 
L 319.455571 188.735429 
L 319.455571 185.882899 
L 317.946953 186.339652 
L 317.946953 183.379466 
L 316.438335 183.838401 
L 316.438335 177.56842 
L 314.929717 177.482814 
L 314.929717 176.934167 
L 313.421099 177.396074 
L 313.421099 176.287228 
L 311.912482 176.751607 
L 310.403864 174.953744 
L 307.386628 175.318905 
L 307.386628 174.738202 
L 305.878011 175.213289 
L 305.878011 174.628186 
L 304.369393 175.1062 
L 304.369393 173.922925 
L 302.860775 174.403505 
L 302.860775 172.595825 
L 301.352157 173.078531 
L 301.352157 169.975906 
L 299.843539 170.45962 
L 299.843539 169.185625 
L 298.334922 169.671778 
L 298.334922 165.730998 
L 296.826304 166.216956 
L 296.826304 163.486095 
L 295.317686 163.972767 
L 295.317686 159.709917 
L 293.809068 160.195123 
L 293.809068 154.951472 
L 292.300451 155.433084 
L 292.300451 152.29492 
L 290.791833 152.775492 
L 290.791833 151.164122 
L 289.283215 151.646012 
L 289.283215 146.63531 
L 287.774597 147.112154 
L 287.774597 143.616851 
L 286.265979 144.090863 
L 286.265979 140.46119 
L 284.757362 140.931615 
L 284.757362 140.001379 
L 278.722891 141.91845 
L 278.722891 140.971011 
L 277.214273 141.459373 
L 277.214273 140.500778 
L 275.705655 140.991553 
L 275.705655 139.042213 
L 274.197037 139.533054 
L 274.197037 137.540958 
L 272.688419 138.031658 
L 272.688419 135.995111 
L 271.179802 136.485444 
L 269.671184 135.941775 
L 269.671184 133.832322 
L 268.162566 134.324129 
L 268.162566 131.069226 
L 266.653948 131.556888 
L 266.653948 124.712822 
L 263.636713 124.469868 
L 263.636713 119.570358 
L 262.128095 120.031775 
L 262.128095 116.19707 
L 259.110859 117.107578 
L 259.110859 113.108484 
L 257.602242 113.556238 
L 257.602242 112.186198 
L 256.093624 112.633791 
L 256.093624 109.832711 
L 254.585006 108.84194 
L 254.585006 104.437922 
L 251.567771 105.286021 
L 251.567771 103.767315 
L 247.041917 105.059442 
L 247.041917 98.695082 
L 245.533299 97.453387 
L 245.533299 87.047633 
L 242.516064 87.75634 
L 242.516064 85.914854 
L 237.990211 86.984193 
L 237.990211 81.193095 
L 236.481593 81.524572 
L 236.481593 79.523058 
L 234.972975 79.846788 
L 233.464357 78.116573 
L 233.464357 76.025185 
L 231.955739 76.331431 
L 231.955739 74.192299 
L 227.429886 75.096091 
L 227.429886 72.876034 
L 224.412651 73.471629 
L 224.412651 71.181364 
L 221.395415 71.763144 
L 221.395415 69.398277 
L 219.886797 69.678629 
L 219.886797 64.784981 
L 213.852326 65.797828 
L 213.852326 63.200397 
L 212.343708 63.443437 
L 212.343708 49.568216 
L 204.80062 50.199991 
L 204.80062 43.954823 
L 201.783384 44.09649 
L 201.783384 37.438125 
L 66.007784 37.438125 
L 66.007784 37.438125 
" clip-path="url(#pd0611aa103)" style="fill: none; stroke: #ff7f0e; stroke-width: 1.5; stroke-linecap: square"/>
   </g>
   <g id="line2d_27">
    <path d="M 471.825966 327.159124 
L 471.825966 324.869529 
L 464.706349 325.180265 
L 464.706349 325.07949 
L 464.706349 323.424749 
L 457.586731 323.763595 
L 457.586731 323.692397 
L 457.586731 319.058691 
L 450.467114 319.471624 
L 450.467114 319.364475 
L 450.467114 316.653553 
L 443.347497 317.111283 
L 443.347497 317.023745 
L 443.347497 304.701052 
L 436.22788 305.252359 
L 436.22788 305.15921 
L 436.22788 301.251422 
L 429.108263 301.956805 
L 429.108263 296.954876 
L 421.988645 297.734205 
L 421.988645 291.810236 
L 414.869028 292.675448 
L 414.869028 282.214902 
L 407.749411 283.222213 
L 407.749411 275.023521 
L 400.629794 276.138945 
L 400.629794 274.845472 
L 393.510176 275.986853 
L 393.510176 265.012855 
L 386.390559 266.291365 
L 386.390559 262.167791 
L 379.270942 263.505468 
L 379.270942 262.046969 
L 372.151325 263.416535 
L 372.151325 260.366926 
L 357.91209 263.224987 
L 357.91209 261.106621 
L 350.792473 262.587869 
L 350.792473 259.230557 
L 343.672856 260.770782 
L 343.672856 253.229679 
L 336.553239 254.876943 
L 336.553239 254.193513 
L 329.433621 255.873787 
L 329.433621 250.833263 
L 322.314004 252.59686 
L 322.314004 248.669013 
L 315.194387 250.505803 
L 315.194387 249.688109 
L 308.07477 251.566427 
L 308.07477 246.398774 
L 293.835535 250.378977 
L 293.835535 241.627983 
L 286.715918 243.77735 
L 286.715918 240.518256 
L 279.596301 242.749905 
L 279.596301 238.107468 
L 272.476684 240.440833 
L 272.476684 239.225749 
L 265.357066 241.627983 
L 265.357066 235.166279 
L 258.237449 236.32435 
L 258.237449 234.911211 
L 251.117832 237.544186 
L 251.117832 229.959991 
L 243.998215 232.750163 
L 243.998215 204.502554 
L 236.878597 207.59634 
L 236.878597 199.588895 
L 229.75898 202.83191 
L 229.75898 187.177354 
L 222.639363 190.580519 
L 222.639363 179.374978 
L 215.519746 182.923399 
L 215.519746 159.95204 
L 208.400129 163.55539 
L 201.280511 167.377126 
L 201.280511 149.742547 
L 194.160894 153.615113 
L 194.160894 146.825549 
L 187.041277 150.876935 
L 187.041277 117.338504 
L 179.92166 120.97034 
L 179.92166 85.798881 
L 172.802042 88.48559 
L 172.802042 73.471629 
L 165.682425 75.723723 
L 165.682425 57.857111 
L 158.562808 59.31561 
L 151.443191 60.998493 
L 144.323574 62.961857 
L 137.203956 65.282197 
L 130.084339 68.066604 
L 122.964722 71.469768 
L 115.845105 75.723723 
L 115.845105 37.438125 
L 66.007784 37.438125 
L 66.007784 37.438125 
" clip-path="url(#pd0611aa103)" style="fill: none; stroke: #2ca02c; stroke-width: 1.5; stroke-linecap: square"/>
   </g>
   <g id="line2d_28">
    <path d="M 471.825966 197.736705 
L 471.825966 190.580519 
L 467.847356 191.334915 
L 467.847356 186.29409 
L 465.858051 186.673825 
L 465.858051 184.644767 
L 463.868747 185.026131 
L 463.868747 182.520393 
L 461.879442 182.903195 
L 461.879442 181.620059 
L 459.890137 182.004544 
L 459.890137 179.819161 
L 457.900832 180.205018 
L 457.900832 177.043069 
L 453.922223 177.818652 
L 453.922223 175.481973 
L 449.943613 176.264091 
L 449.943613 174.828729 
L 447.954308 175.222399 
L 447.954308 173.761412 
L 445.965003 174.156552 
L 445.965003 169.094869 
L 441.986394 169.8856 
L 441.986394 168.835224 
L 438.007784 169.633991 
L 438.007784 167.491358 
L 436.018479 167.892757 
L 436.018479 166.249484 
L 434.029174 166.65202 
L 434.029174 164.410616 
L 430.050565 165.219358 
L 430.050565 164.649059 
L 426.071955 165.467136 
L 426.071955 164.313377 
L 424.08265 164.725309 
L 424.08265 163.55539 
L 418.114736 164.804076 
L 418.114736 163.615247 
L 416.125431 164.035837 
L 416.125431 160.368754 
L 414.136126 160.788312 
L 414.136126 156.310892 
L 410.157517 157.148024 
L 410.157517 155.824798 
L 402.200297 157.528203 
L 402.200297 156.85602 
L 398.221688 157.724514 
L 398.221688 157.045688 
L 396.232383 157.483811 
L 396.232383 156.109352 
L 394.243078 156.548876 
L 394.243078 153.01729 
L 390.264469 153.896219 
L 390.264469 152.441608 
L 388.275164 152.883929 
L 388.275164 151.404557 
L 386.285859 151.848007 
L 386.285859 151.098495 
L 380.317945 152.446247 
L 380.317945 148.589862 
L 378.32864 149.039869 
L 378.32864 148.248475 
L 374.35003 149.156756 
L 374.35003 148.356073 
L 372.360725 148.814411 
L 372.360725 146.367861 
L 368.382116 147.287099 
L 368.382116 146.454744 
L 366.392811 146.918645 
L 366.392811 137.254149 
L 364.403506 137.701755 
L 364.403506 133.938811 
L 362.414201 134.381475 
L 362.414201 133.416768 
L 360.424896 133.861114 
L 360.424896 130.905314 
L 358.435592 130.339672 
L 358.435592 119.72359 
L 356.446287 120.135017 
L 356.446287 119.01146 
L 354.456982 119.423447 
L 354.456982 118.284871 
L 350.478372 119.114068 
L 348.489068 117.199788 
L 342.521153 118.465846 
L 342.521153 117.267671 
L 330.585324 119.899414 
L 330.585324 116.148182 
L 328.596019 116.590373 
L 328.596019 111.368936 
L 316.660191 114.009322 
L 316.660191 112.633791 
L 312.681581 113.545254 
L 312.681581 112.141732 
L 310.692276 112.600036 
L 310.692276 111.173352 
L 306.713666 112.095042 
L 306.713666 110.638263 
L 300.745752 112.045958 
L 298.756447 111.026028 
L 296.767142 111.506995 
L 296.767142 109.979259 
L 288.809923 111.93983 
L 288.809923 108.764719 
L 280.852704 110.773919 
L 280.852704 109.121799 
L 278.863399 109.633825 
L 278.863399 106.241229 
L 276.874094 106.743442 
L 276.874094 103.232635 
L 270.90618 104.727965 
L 270.90618 102.903576 
L 262.948961 104.96548 
L 262.948961 103.070579 
L 260.959656 103.595639 
L 260.959656 93.590336 
L 251.013132 96.031736 
L 245.045217 97.601208 
L 245.045217 93.126268 
L 241.066608 94.15753 
L 241.066608 84.558861 
L 239.077303 85.016344 
L 239.077303 79.893442 
L 235.098693 80.751125 
L 235.098693 78.06774 
L 227.141474 79.796659 
L 227.141474 74.059132 
L 221.173559 75.293548 
L 221.173559 69.122758 
L 211.227035 71.054748 
L 205.259121 72.331329 
L 205.259121 68.851949 
L 203.269816 69.259921 
L 203.269816 65.648566 
L 199.291207 66.41101 
L 199.291207 58.707902 
L 191.333987 59.959065 
L 189.344682 56.000839 
L 187.355378 56.28642 
L 187.355378 51.795224 
L 177.408854 53.011928 
L 177.408854 37.438125 
L 66.007784 37.438125 
L 66.007784 37.438125 
" clip-path="url(#pd0611aa103)" style="fill: none; stroke: #d62728; stroke-width: 1.5; stroke-linecap: square"/>
   </g>
   <g id="line2d_29">
    <path d="M 471.825966 332.017761 
L 471.825966 260.190697 
L 438.007784 265.37099 
L 438.007784 261.548945 
L 404.189602 267.151715 
L 404.189602 248.008916 
L 370.37142 254.801522 
L 370.37142 223.872343 
L 336.553239 232.346626 
L 302.735057 236.523237 
L 302.735057 200.790011 
L 268.916875 212.458003 
L 268.916875 81.193095 
L 235.098693 88.48559 
L 235.098693 37.438125 
L 66.007784 37.438125 
L 66.007784 37.438125 
" clip-path="url(#pd0611aa103)" style="fill: none; stroke: #9467bd; stroke-width: 1.5; stroke-linecap: square"/>
   </g>
   <g id="line2d_30">
    <path d="M 471.825966 339.838125 
L 471.825966 335.288983 
L 450.467114 335.721278 
L 450.467114 335.615374 
L 450.467114 327.11711 
L 429.108263 327.992273 
L 429.108263 327.896646 
L 429.108263 313.625563 
L 407.749411 315.231304 
L 407.749411 311.69313 
L 386.390559 313.49744 
L 386.390559 301.956805 
L 365.031708 304.383582 
L 365.031708 286.549752 
L 343.672856 289.916125 
L 343.672856 265.650319 
L 322.314004 270.214563 
L 322.314004 262.046969 
L 300.955153 267.151715 
L 300.955153 257.334895 
L 279.596301 263.121652 
L 279.596301 238.107468 
L 258.237449 245.27423 
L 258.237449 233.460389 
L 236.878597 241.627983 
L 236.878597 155.239966 
L 215.519746 165.056786 
L 215.519746 148.814411 
L 194.160894 159.95204 
L 194.160894 139.533054 
L 172.802042 152.29492 
L 172.802042 37.438125 
L 66.007784 37.438125 
L 66.007784 37.438125 
" clip-path="url(#pd0611aa103)" style="fill: none; stroke: #8c564b; stroke-width: 1.5; stroke-linecap: square"/>
   </g>
   <g id="patch_3">
    <path d="M 45.716875 354.958125 
L 45.716875 22.318125 
" style="fill: none; stroke: #000000; stroke-width: 0.8; stroke-linejoin: miter; stroke-linecap: square"/>
   </g>
   <g id="patch_4">
    <path d="M 492.116875 354.958125 
L 492.116875 22.318125 
" style="fill: none; stroke: #000000; stroke-width: 0.8; stroke-linejoin: miter; stroke-linecap: square"/>
   </g>
   <g id="patch_5">
    <path d="M 45.716875 354.958125 
L 492.116875 354.958125 
" style="fill: none; stroke: #000000; stroke-width: 0.8; stroke-linejoin: miter; stroke-linecap: square"/>
   </g>
   <g id="patch_6">
    <path d="M 45.716875 22.318125 
L 492.116875 22.318125 
" style="fill: none; stroke: #000000; stroke-width: 0.8; stroke-linejoin: miter; stroke-linecap: square"/>
   </g>
   <g id="text_15">
    <!-- PR Curve: Decision Tree Classifier -->
    <g transform="translate(168.35125 16.318125) scale(0.12 -0.12)">
     <defs>
      <path id="DejaVuSans-20" transform="scale(0.015625)"/>
      <path id="DejaVuSans-43" d="M 4122 4306 
L 4122 3641 
Q 3803 3938 3442 4084 
Q 3081 4231 2675 4231 
Q 1875 4231 1450 3742 
Q 1025 3253 1025 2328 
Q 1025 1406 1450 917 
Q 1875 428 2675 428 
Q 3081 428 3442 575 
Q 3803 722 4122 1019 
L 4122 359 
Q 3791 134 3420 21 
Q 3050 -91 2638 -91 
Q 1578 -91 968 557 
Q 359 1206 359 2328 
Q 359 3453 968 4101 
Q 1578 4750 2638 4750 
Q 3056 4750 3426 4639 
Q 3797 4528 4122 4306 
z
" transform="scale(0.015625)"/>
      <path id="DejaVuSans-75" d="M 544 1381 
L 544 3500 
L 1119 3500 
L 1119 1403 
Q 1119 906 1312 657 
Q 1506 409 1894 409 
Q 2359 409 2629 706 
Q 2900 1003 2900 1516 
L 2900 3500 
L 3475 3500 
L 3475 0 
L 2900 0 
L 2900 538 
Q 2691 219 2414 64 
Q 2138 -91 1772 -91 
Q 1169 -91 856 284 
Q 544 659 544 1381 
z
M 1991 3584 
L 1991 3584 
z
" transform="scale(0.015625)"/>
      <path id="DejaVuSans-76" d="M 191 3500 
L 800 3500 
L 1894 563 
L 2988 3500 
L 3597 3500 
L 2284 0 
L 1503 0 
L 191 3500 
z
" transform="scale(0.015625)"/>
      <path id="DejaVuSans-3a" d="M 750 794 
L 1409 794 
L 1409 0 
L 750 0 
L 750 794 
z
M 750 3309 
L 1409 3309 
L 1409 2516 
L 750 2516 
L 750 3309 
z
" transform="scale(0.015625)"/>
      <path id="DejaVuSans-44" d="M 1259 4147 
L 1259 519 
L 2022 519 
Q 2988 519 3436 956 
Q 3884 1394 3884 2338 
Q 3884 3275 3436 3711 
Q 2988 4147 2022 4147 
L 1259 4147 
z
M 628 4666 
L 1925 4666 
Q 3281 4666 3915 4102 
Q 4550 3538 4550 2338 
Q 4550 1131 3912 565 
Q 3275 0 1925 0 
L 628 0 
L 628 4666 
z
" transform="scale(0.015625)"/>
      <path id="DejaVuSans-54" d="M -19 4666 
L 3928 4666 
L 3928 4134 
L 2272 4134 
L 2272 0 
L 1638 0 
L 1638 4134 
L -19 4134 
L -19 4666 
z
" transform="scale(0.015625)"/>
      <path id="DejaVuSans-66" d="M 2375 4863 
L 2375 4384 
L 1825 4384 
Q 1516 4384 1395 4259 
Q 1275 4134 1275 3809 
L 1275 3500 
L 2222 3500 
L 2222 3053 
L 1275 3053 
L 1275 0 
L 697 0 
L 697 3053 
L 147 3053 
L 147 3500 
L 697 3500 
L 697 3744 
Q 697 4328 969 4595 
Q 1241 4863 1831 4863 
L 2375 4863 
z
" transform="scale(0.015625)"/>
     </defs>
     <use xlink:href="#DejaVuSans-50"/>
     <use xlink:href="#DejaVuSans-52" x="60.302734"/>
     <use xlink:href="#DejaVuSans-20" x="129.785156"/>
     <use xlink:href="#DejaVuSans-43" x="161.572266"/>
     <use xlink:href="#DejaVuSans-75" x="231.396484"/>
     <use xlink:href="#DejaVuSans-72" x="294.775391"/>
     <use xlink:href="#DejaVuSans-76" x="335.888672"/>
     <use xlink:href="#DejaVuSans-65" x="395.068359"/>
     <use xlink:href="#DejaVuSans-3a" x="456.591797"/>
     <use xlink:href="#DejaVuSans-20" x="490.283203"/>
     <use xlink:href="#DejaVuSans-44" x="522.070312"/>
     <use xlink:href="#DejaVuSans-65" x="599.072266"/>
     <use xlink:href="#DejaVuSans-63" x="660.595703"/>
     <use xlink:href="#DejaVuSans-69" x="715.576172"/>
     <use xlink:href="#DejaVuSans-73" x="743.359375"/>
     <use xlink:href="#DejaVuSans-69" x="795.458984"/>
     <use xlink:href="#DejaVuSans-6f" x="823.242188"/>
     <use xlink:href="#DejaVuSans-6e" x="884.423828"/>
     <use xlink:href="#DejaVuSans-20" x="947.802734"/>
     <use xlink:href="#DejaVuSans-54" x="979.589844"/>
     <use xlink:href="#DejaVuSans-72" x="1025.923828"/>
     <use xlink:href="#DejaVuSans-65" x="1064.787109"/>
     <use xlink:href="#DejaVuSans-65" x="1126.310547"/>
     <use xlink:href="#DejaVuSans-20" x="1187.833984"/>
     <use xlink:href="#DejaVuSans-43" x="1219.621094"/>
     <use xlink:href="#DejaVuSans-6c" x="1289.445312"/>
     <use xlink:href="#DejaVuSans-61" x="1317.228516"/>
     <use xlink:href="#DejaVuSans-73" x="1378.507812"/>
     <use xlink:href="#DejaVuSans-73" x="1430.607422"/>
     <use xlink:href="#DejaVuSans-69" x="1482.707031"/>
     <use xlink:href="#DejaVuSans-66" x="1510.490234"/>
     <use xlink:href="#DejaVuSans-69" x="1545.695312"/>
     <use xlink:href="#DejaVuSans-65" x="1573.478516"/>
     <use xlink:href="#DejaVuSans-72" x="1635.001953"/>
    </g>
   </g>
   <g id="legend_1">
    <g id="patch_7">
     <path d="M 52.716875 349.958125 
L 401.13875 349.958125 
Q 403.13875 349.958125 403.13875 347.958125 
L 403.13875 260.889375 
Q 403.13875 258.889375 401.13875 258.889375 
L 52.716875 258.889375 
Q 50.716875 258.889375 50.716875 260.889375 
L 50.716875 347.958125 
Q 50.716875 349.958125 52.716875 349.958125 
z
" style="fill: #ffffff; opacity: 0.8; stroke: #cccccc; stroke-linejoin: miter"/>
    </g>
    <g id="line2d_31">
     <path d="M 54.716875 266.987813 
L 64.716875 266.987813 
L 74.716875 266.987813 
" style="fill: none; stroke: #1f77b4; stroke-width: 1.5; stroke-linecap: square"/>
    </g>
    <g id="text_16">
     <!-- AP for Husband = 0.82, Count: 3,968, Pos: 1,777, Neg: 2,191 -->
     <g transform="translate(82.716875 270.487813) scale(0.1 -0.1)">
      <defs>
       <path id="DejaVuSans-41" d="M 2188 4044 
L 1331 1722 
L 3047 1722 
L 2188 4044 
z
M 1831 4666 
L 2547 4666 
L 4325 0 
L 3669 0 
L 3244 1197 
L 1141 1197 
L 716 0 
L 50 0 
L 1831 4666 
z
" transform="scale(0.015625)"/>
       <path id="DejaVuSans-48" d="M 628 4666 
L 1259 4666 
L 1259 2753 
L 3553 2753 
L 3553 4666 
L 4184 4666 
L 4184 0 
L 3553 0 
L 3553 2222 
L 1259 2222 
L 1259 0 
L 628 0 
L 628 4666 
z
" transform="scale(0.015625)"/>
       <path id="DejaVuSans-62" d="M 3116 1747 
Q 3116 2381 2855 2742 
Q 2594 3103 2138 3103 
Q 1681 3103 1420 2742 
Q 1159 2381 1159 1747 
Q 1159 1113 1420 752 
Q 1681 391 2138 391 
Q 2594 391 2855 752 
Q 3116 1113 3116 1747 
z
M 1159 2969 
Q 1341 3281 1617 3432 
Q 1894 3584 2278 3584 
Q 2916 3584 3314 3078 
Q 3713 2572 3713 1747 
Q 3713 922 3314 415 
Q 2916 -91 2278 -91 
Q 1894 -91 1617 61 
Q 1341 213 1159 525 
L 1159 0 
L 581 0 
L 581 4863 
L 1159 4863 
L 1159 2969 
z
" transform="scale(0.015625)"/>
       <path id="DejaVuSans-64" d="M 2906 2969 
L 2906 4863 
L 3481 4863 
L 3481 0 
L 2906 0 
L 2906 525 
Q 2725 213 2448 61 
Q 2172 -91 1784 -91 
Q 1150 -91 751 415 
Q 353 922 353 1747 
Q 353 2572 751 3078 
Q 1150 3584 1784 3584 
Q 2172 3584 2448 3432 
Q 2725 3281 2906 2969 
z
M 947 1747 
Q 947 1113 1208 752 
Q 1469 391 1925 391 
Q 2381 391 2643 752 
Q 2906 1113 2906 1747 
Q 2906 2381 2643 2742 
Q 2381 3103 1925 3103 
Q 1469 3103 1208 2742 
Q 947 2381 947 1747 
z
" transform="scale(0.015625)"/>
       <path id="DejaVuSans-3d" d="M 678 2906 
L 4684 2906 
L 4684 2381 
L 678 2381 
L 678 2906 
z
M 678 1631 
L 4684 1631 
L 4684 1100 
L 678 1100 
L 678 1631 
z
" transform="scale(0.015625)"/>
       <path id="DejaVuSans-2c" d="M 750 794 
L 1409 794 
L 1409 256 
L 897 -744 
L 494 -744 
L 750 256 
L 750 794 
z
" transform="scale(0.015625)"/>
       <path id="DejaVuSans-74" d="M 1172 4494 
L 1172 3500 
L 2356 3500 
L 2356 3053 
L 1172 3053 
L 1172 1153 
Q 1172 725 1289 603 
Q 1406 481 1766 481 
L 2356 481 
L 2356 0 
L 1766 0 
Q 1100 0 847 248 
Q 594 497 594 1153 
L 594 3053 
L 172 3053 
L 172 3500 
L 594 3500 
L 594 4494 
L 1172 4494 
z
" transform="scale(0.015625)"/>
       <path id="DejaVuSans-33" d="M 2597 2516 
Q 3050 2419 3304 2112 
Q 3559 1806 3559 1356 
Q 3559 666 3084 287 
Q 2609 -91 1734 -91 
Q 1441 -91 1130 -33 
Q 819 25 488 141 
L 488 750 
Q 750 597 1062 519 
Q 1375 441 1716 441 
Q 2309 441 2620 675 
Q 2931 909 2931 1356 
Q 2931 1769 2642 2001 
Q 2353 2234 1838 2234 
L 1294 2234 
L 1294 2753 
L 1863 2753 
Q 2328 2753 2575 2939 
Q 2822 3125 2822 3475 
Q 2822 3834 2567 4026 
Q 2313 4219 1838 4219 
Q 1578 4219 1281 4162 
Q 984 4106 628 3988 
L 628 4550 
Q 988 4650 1302 4700 
Q 1616 4750 1894 4750 
Q 2613 4750 3031 4423 
Q 3450 4097 3450 3541 
Q 3450 3153 3228 2886 
Q 3006 2619 2597 2516 
z
" transform="scale(0.015625)"/>
       <path id="DejaVuSans-39" d="M 703 97 
L 703 672 
Q 941 559 1184 500 
Q 1428 441 1663 441 
Q 2288 441 2617 861 
Q 2947 1281 2994 2138 
Q 2813 1869 2534 1725 
Q 2256 1581 1919 1581 
Q 1219 1581 811 2004 
Q 403 2428 403 3163 
Q 403 3881 828 4315 
Q 1253 4750 1959 4750 
Q 2769 4750 3195 4129 
Q 3622 3509 3622 2328 
Q 3622 1225 3098 567 
Q 2575 -91 1691 -91 
Q 1453 -91 1209 -44 
Q 966 3 703 97 
z
M 1959 2075 
Q 2384 2075 2632 2365 
Q 2881 2656 2881 3163 
Q 2881 3666 2632 3958 
Q 2384 4250 1959 4250 
Q 1534 4250 1286 3958 
Q 1038 3666 1038 3163 
Q 1038 2656 1286 2365 
Q 1534 2075 1959 2075 
z
" transform="scale(0.015625)"/>
       <path id="DejaVuSans-37" d="M 525 4666 
L 3525 4666 
L 3525 4397 
L 1831 0 
L 1172 0 
L 2766 4134 
L 525 4134 
L 525 4666 
z
" transform="scale(0.015625)"/>
       <path id="DejaVuSans-4e" d="M 628 4666 
L 1478 4666 
L 3547 763 
L 3547 4666 
L 4159 4666 
L 4159 0 
L 3309 0 
L 1241 3903 
L 1241 0 
L 628 0 
L 628 4666 
z
" transform="scale(0.015625)"/>
       <path id="DejaVuSans-67" d="M 2906 1791 
Q 2906 2416 2648 2759 
Q 2391 3103 1925 3103 
Q 1463 3103 1205 2759 
Q 947 2416 947 1791 
Q 947 1169 1205 825 
Q 1463 481 1925 481 
Q 2391 481 2648 825 
Q 2906 1169 2906 1791 
z
M 3481 434 
Q 3481 -459 3084 -895 
Q 2688 -1331 1869 -1331 
Q 1566 -1331 1297 -1286 
Q 1028 -1241 775 -1147 
L 775 -588 
Q 1028 -725 1275 -790 
Q 1522 -856 1778 -856 
Q 2344 -856 2625 -561 
Q 2906 -266 2906 331 
L 2906 616 
Q 2728 306 2450 153 
Q 2172 0 1784 0 
Q 1141 0 747 490 
Q 353 981 353 1791 
Q 353 2603 747 3093 
Q 1141 3584 1784 3584 
Q 2172 3584 2450 3431 
Q 2728 3278 2906 2969 
L 2906 3500 
L 3481 3500 
L 3481 434 
z
" transform="scale(0.015625)"/>
      </defs>
      <use xlink:href="#DejaVuSans-41"/>
      <use xlink:href="#DejaVuSans-50" x="68.408203"/>
      <use xlink:href="#DejaVuSans-20" x="128.710938"/>
      <use xlink:href="#DejaVuSans-66" x="160.498047"/>
      <use xlink:href="#DejaVuSans-6f" x="195.703125"/>
      <use xlink:href="#DejaVuSans-72" x="256.884766"/>
      <use xlink:href="#DejaVuSans-20" x="297.998047"/>
      <use xlink:href="#DejaVuSans-48" x="329.785156"/>
      <use xlink:href="#DejaVuSans-75" x="404.980469"/>
      <use xlink:href="#DejaVuSans-73" x="468.359375"/>
      <use xlink:href="#DejaVuSans-62" x="520.458984"/>
      <use xlink:href="#DejaVuSans-61" x="583.935547"/>
      <use xlink:href="#DejaVuSans-6e" x="645.214844"/>
      <use xlink:href="#DejaVuSans-64" x="708.59375"/>
      <use xlink:href="#DejaVuSans-20" x="772.070312"/>
      <use xlink:href="#DejaVuSans-3d" x="803.857422"/>
      <use xlink:href="#DejaVuSans-20" x="887.646484"/>
      <use xlink:href="#DejaVuSans-30" x="919.433594"/>
      <use xlink:href="#DejaVuSans-2e" x="983.056641"/>
      <use xlink:href="#DejaVuSans-38" x="1014.84375"/>
      <use xlink:href="#DejaVuSans-32" x="1078.466797"/>
      <use xlink:href="#DejaVuSans-2c" x="1142.089844"/>
      <use xlink:href="#DejaVuSans-20" x="1173.876953"/>
      <use xlink:href="#DejaVuSans-43" x="1205.664062"/>
      <use xlink:href="#DejaVuSans-6f" x="1275.488281"/>
      <use xlink:href="#DejaVuSans-75" x="1336.669922"/>
      <use xlink:href="#DejaVuSans-6e" x="1400.048828"/>
      <use xlink:href="#DejaVuSans-74" x="1463.427734"/>
      <use xlink:href="#DejaVuSans-3a" x="1502.636719"/>
      <use xlink:href="#DejaVuSans-20" x="1536.328125"/>
      <use xlink:href="#DejaVuSans-33" x="1568.115234"/>
      <use xlink:href="#DejaVuSans-2c" x="1631.738281"/>
      <use xlink:href="#DejaVuSans-39" x="1663.525391"/>
      <use xlink:href="#DejaVuSans-36" x="1727.148438"/>
      <use xlink:href="#DejaVuSans-38" x="1790.771484"/>
      <use xlink:href="#DejaVuSans-2c" x="1854.394531"/>
      <use xlink:href="#DejaVuSans-20" x="1886.181641"/>
      <use xlink:href="#DejaVuSans-50" x="1917.96875"/>
      <use xlink:href="#DejaVuSans-6f" x="1974.646484"/>
      <use xlink:href="#DejaVuSans-73" x="2035.828125"/>
      <use xlink:href="#DejaVuSans-3a" x="2087.927734"/>
      <use xlink:href="#DejaVuSans-20" x="2121.619141"/>
      <use xlink:href="#DejaVuSans-31" x="2153.40625"/>
      <use xlink:href="#DejaVuSans-2c" x="2217.029297"/>
      <use xlink:href="#DejaVuSans-37" x="2248.816406"/>
      <use xlink:href="#DejaVuSans-37" x="2312.439453"/>
      <use xlink:href="#DejaVuSans-37" x="2376.0625"/>
      <use xlink:href="#DejaVuSans-2c" x="2439.685547"/>
      <use xlink:href="#DejaVuSans-20" x="2471.472656"/>
      <use xlink:href="#DejaVuSans-4e" x="2503.259766"/>
      <use xlink:href="#DejaVuSans-65" x="2578.064453"/>
      <use xlink:href="#DejaVuSans-67" x="2639.587891"/>
      <use xlink:href="#DejaVuSans-3a" x="2703.064453"/>
      <use xlink:href="#DejaVuSans-20" x="2736.755859"/>
      <use xlink:href="#DejaVuSans-32" x="2768.542969"/>
      <use xlink:href="#DejaVuSans-2c" x="2832.166016"/>
      <use xlink:href="#DejaVuSans-31" x="2863.953125"/>
      <use xlink:href="#DejaVuSans-39" x="2927.576172"/>
      <use xlink:href="#DejaVuSans-31" x="2991.199219"/>
     </g>
    </g>
    <g id="line2d_32">
     <path d="M 54.716875 281.665937 
L 64.716875 281.665937 
L 74.716875 281.665937 
" style="fill: none; stroke: #ff7f0e; stroke-width: 1.5; stroke-linecap: square"/>
    </g>
    <g id="text_17">
     <!-- AP for Not-in-family = 0.67, Count: 2,507, Pos: 269, Neg: 2,238 -->
     <g transform="translate(82.716875 285.165937) scale(0.1 -0.1)">
      <defs>
       <path id="DejaVuSans-2d" d="M 313 2009 
L 1997 2009 
L 1997 1497 
L 313 1497 
L 313 2009 
z
" transform="scale(0.015625)"/>
       <path id="DejaVuSans-6d" d="M 3328 2828 
Q 3544 3216 3844 3400 
Q 4144 3584 4550 3584 
Q 5097 3584 5394 3201 
Q 5691 2819 5691 2113 
L 5691 0 
L 5113 0 
L 5113 2094 
Q 5113 2597 4934 2840 
Q 4756 3084 4391 3084 
Q 3944 3084 3684 2787 
Q 3425 2491 3425 1978 
L 3425 0 
L 2847 0 
L 2847 2094 
Q 2847 2600 2669 2842 
Q 2491 3084 2119 3084 
Q 1678 3084 1418 2786 
Q 1159 2488 1159 1978 
L 1159 0 
L 581 0 
L 581 3500 
L 1159 3500 
L 1159 2956 
Q 1356 3278 1631 3431 
Q 1906 3584 2284 3584 
Q 2666 3584 2933 3390 
Q 3200 3197 3328 2828 
z
" transform="scale(0.015625)"/>
       <path id="DejaVuSans-79" d="M 2059 -325 
Q 1816 -950 1584 -1140 
Q 1353 -1331 966 -1331 
L 506 -1331 
L 506 -850 
L 844 -850 
Q 1081 -850 1212 -737 
Q 1344 -625 1503 -206 
L 1606 56 
L 191 3500 
L 800 3500 
L 1894 763 
L 2988 3500 
L 3597 3500 
L 2059 -325 
z
" transform="scale(0.015625)"/>
       <path id="DejaVuSans-35" d="M 691 4666 
L 3169 4666 
L 3169 4134 
L 1269 4134 
L 1269 2991 
Q 1406 3038 1543 3061 
Q 1681 3084 1819 3084 
Q 2600 3084 3056 2656 
Q 3513 2228 3513 1497 
Q 3513 744 3044 326 
Q 2575 -91 1722 -91 
Q 1428 -91 1123 -41 
Q 819 9 494 109 
L 494 744 
Q 775 591 1075 516 
Q 1375 441 1709 441 
Q 2250 441 2565 725 
Q 2881 1009 2881 1497 
Q 2881 1984 2565 2268 
Q 2250 2553 1709 2553 
Q 1456 2553 1204 2497 
Q 953 2441 691 2322 
L 691 4666 
z
" transform="scale(0.015625)"/>
      </defs>
      <use xlink:href="#DejaVuSans-41"/>
      <use xlink:href="#DejaVuSans-50" x="68.408203"/>
      <use xlink:href="#DejaVuSans-20" x="128.710938"/>
      <use xlink:href="#DejaVuSans-66" x="160.498047"/>
      <use xlink:href="#DejaVuSans-6f" x="195.703125"/>
      <use xlink:href="#DejaVuSans-72" x="256.884766"/>
      <use xlink:href="#DejaVuSans-20" x="297.998047"/>
      <use xlink:href="#DejaVuSans-4e" x="329.785156"/>
      <use xlink:href="#DejaVuSans-6f" x="404.589844"/>
      <use xlink:href="#DejaVuSans-74" x="465.771484"/>
      <use xlink:href="#DejaVuSans-2d" x="504.980469"/>
      <use xlink:href="#DejaVuSans-69" x="541.064453"/>
      <use xlink:href="#DejaVuSans-6e" x="568.847656"/>
      <use xlink:href="#DejaVuSans-2d" x="632.226562"/>
      <use xlink:href="#DejaVuSans-66" x="668.310547"/>
      <use xlink:href="#DejaVuSans-61" x="703.515625"/>
      <use xlink:href="#DejaVuSans-6d" x="764.794922"/>
      <use xlink:href="#DejaVuSans-69" x="862.207031"/>
      <use xlink:href="#DejaVuSans-6c" x="889.990234"/>
      <use xlink:href="#DejaVuSans-79" x="917.773438"/>
      <use xlink:href="#DejaVuSans-20" x="976.953125"/>
      <use xlink:href="#DejaVuSans-3d" x="1008.740234"/>
      <use xlink:href="#DejaVuSans-20" x="1092.529297"/>
      <use xlink:href="#DejaVuSans-30" x="1124.316406"/>
      <use xlink:href="#DejaVuSans-2e" x="1187.939453"/>
      <use xlink:href="#DejaVuSans-36" x="1219.726562"/>
      <use xlink:href="#DejaVuSans-37" x="1283.349609"/>
      <use xlink:href="#DejaVuSans-2c" x="1346.972656"/>
      <use xlink:href="#DejaVuSans-20" x="1378.759766"/>
      <use xlink:href="#DejaVuSans-43" x="1410.546875"/>
      <use xlink:href="#DejaVuSans-6f" x="1480.371094"/>
      <use xlink:href="#DejaVuSans-75" x="1541.552734"/>
      <use xlink:href="#DejaVuSans-6e" x="1604.931641"/>
      <use xlink:href="#DejaVuSans-74" x="1668.310547"/>
      <use xlink:href="#DejaVuSans-3a" x="1707.519531"/>
      <use xlink:href="#DejaVuSans-20" x="1741.210938"/>
      <use xlink:href="#DejaVuSans-32" x="1772.998047"/>
      <use xlink:href="#DejaVuSans-2c" x="1836.621094"/>
      <use xlink:href="#DejaVuSans-35" x="1868.408203"/>
      <use xlink:href="#DejaVuSans-30" x="1932.03125"/>
      <use xlink:href="#DejaVuSans-37" x="1995.654297"/>
      <use xlink:href="#DejaVuSans-2c" x="2059.277344"/>
      <use xlink:href="#DejaVuSans-20" x="2091.064453"/>
      <use xlink:href="#DejaVuSans-50" x="2122.851562"/>
      <use xlink:href="#DejaVuSans-6f" x="2179.529297"/>
      <use xlink:href="#DejaVuSans-73" x="2240.710938"/>
      <use xlink:href="#DejaVuSans-3a" x="2292.810547"/>
      <use xlink:href="#DejaVuSans-20" x="2326.501953"/>
      <use xlink:href="#DejaVuSans-32" x="2358.289062"/>
      <use xlink:href="#DejaVuSans-36" x="2421.912109"/>
      <use xlink:href="#DejaVuSans-39" x="2485.535156"/>
      <use xlink:href="#DejaVuSans-2c" x="2549.158203"/>
      <use xlink:href="#DejaVuSans-20" x="2580.945312"/>
      <use xlink:href="#DejaVuSans-4e" x="2612.732422"/>
      <use xlink:href="#DejaVuSans-65" x="2687.537109"/>
      <use xlink:href="#DejaVuSans-67" x="2749.060547"/>
      <use xlink:href="#DejaVuSans-3a" x="2812.537109"/>
      <use xlink:href="#DejaVuSans-20" x="2846.228516"/>
      <use xlink:href="#DejaVuSans-32" x="2878.015625"/>
      <use xlink:href="#DejaVuSans-2c" x="2941.638672"/>
      <use xlink:href="#DejaVuSans-32" x="2973.425781"/>
      <use xlink:href="#DejaVuSans-33" x="3037.048828"/>
      <use xlink:href="#DejaVuSans-38" x="3100.671875"/>
     </g>
    </g>
    <g id="line2d_33">
     <path d="M 54.716875 296.344063 
L 64.716875 296.344063 
L 74.716875 296.344063 
" style="fill: none; stroke: #2ca02c; stroke-width: 1.5; stroke-linecap: square"/>
    </g>
    <g id="text_18">
     <!-- AP for Unmarried = 0.50, Count: 1,054, Pos: 57, Neg: 997 -->
     <g transform="translate(82.716875 299.844063) scale(0.1 -0.1)">
      <defs>
       <path id="DejaVuSans-55" d="M 556 4666 
L 1191 4666 
L 1191 1831 
Q 1191 1081 1462 751 
Q 1734 422 2344 422 
Q 2950 422 3222 751 
Q 3494 1081 3494 1831 
L 3494 4666 
L 4128 4666 
L 4128 1753 
Q 4128 841 3676 375 
Q 3225 -91 2344 -91 
Q 1459 -91 1007 375 
Q 556 841 556 1753 
L 556 4666 
z
" transform="scale(0.015625)"/>
      </defs>
      <use xlink:href="#DejaVuSans-41"/>
      <use xlink:href="#DejaVuSans-50" x="68.408203"/>
      <use xlink:href="#DejaVuSans-20" x="128.710938"/>
      <use xlink:href="#DejaVuSans-66" x="160.498047"/>
      <use xlink:href="#DejaVuSans-6f" x="195.703125"/>
      <use xlink:href="#DejaVuSans-72" x="256.884766"/>
      <use xlink:href="#DejaVuSans-20" x="297.998047"/>
      <use xlink:href="#DejaVuSans-55" x="329.785156"/>
      <use xlink:href="#DejaVuSans-6e" x="402.978516"/>
      <use xlink:href="#DejaVuSans-6d" x="466.357422"/>
      <use xlink:href="#DejaVuSans-61" x="563.769531"/>
      <use xlink:href="#DejaVuSans-72" x="625.048828"/>
      <use xlink:href="#DejaVuSans-72" x="664.412109"/>
      <use xlink:href="#DejaVuSans-69" x="705.525391"/>
      <use xlink:href="#DejaVuSans-65" x="733.308594"/>
      <use xlink:href="#DejaVuSans-64" x="794.832031"/>
      <use xlink:href="#DejaVuSans-20" x="858.308594"/>
      <use xlink:href="#DejaVuSans-3d" x="890.095703"/>
      <use xlink:href="#DejaVuSans-20" x="973.884766"/>
      <use xlink:href="#DejaVuSans-30" x="1005.671875"/>
      <use xlink:href="#DejaVuSans-2e" x="1069.294922"/>
      <use xlink:href="#DejaVuSans-35" x="1101.082031"/>
      <use xlink:href="#DejaVuSans-30" x="1164.705078"/>
      <use xlink:href="#DejaVuSans-2c" x="1228.328125"/>
      <use xlink:href="#DejaVuSans-20" x="1260.115234"/>
      <use xlink:href="#DejaVuSans-43" x="1291.902344"/>
      <use xlink:href="#DejaVuSans-6f" x="1361.726562"/>
      <use xlink:href="#DejaVuSans-75" x="1422.908203"/>
      <use xlink:href="#DejaVuSans-6e" x="1486.287109"/>
      <use xlink:href="#DejaVuSans-74" x="1549.666016"/>
      <use xlink:href="#DejaVuSans-3a" x="1588.875"/>
      <use xlink:href="#DejaVuSans-20" x="1622.566406"/>
      <use xlink:href="#DejaVuSans-31" x="1654.353516"/>
      <use xlink:href="#DejaVuSans-2c" x="1717.976562"/>
      <use xlink:href="#DejaVuSans-30" x="1749.763672"/>
      <use xlink:href="#DejaVuSans-35" x="1813.386719"/>
      <use xlink:href="#DejaVuSans-34" x="1877.009766"/>
      <use xlink:href="#DejaVuSans-2c" x="1940.632812"/>
      <use xlink:href="#DejaVuSans-20" x="1972.419922"/>
      <use xlink:href="#DejaVuSans-50" x="2004.207031"/>
      <use xlink:href="#DejaVuSans-6f" x="2060.884766"/>
      <use xlink:href="#DejaVuSans-73" x="2122.066406"/>
      <use xlink:href="#DejaVuSans-3a" x="2174.166016"/>
      <use xlink:href="#DejaVuSans-20" x="2207.857422"/>
      <use xlink:href="#DejaVuSans-35" x="2239.644531"/>
      <use xlink:href="#DejaVuSans-37" x="2303.267578"/>
      <use xlink:href="#DejaVuSans-2c" x="2366.890625"/>
      <use xlink:href="#DejaVuSans-20" x="2398.677734"/>
      <use xlink:href="#DejaVuSans-4e" x="2430.464844"/>
      <use xlink:href="#DejaVuSans-65" x="2505.269531"/>
      <use xlink:href="#DejaVuSans-67" x="2566.792969"/>
      <use xlink:href="#DejaVuSans-3a" x="2630.269531"/>
      <use xlink:href="#DejaVuSans-20" x="2663.960938"/>
      <use xlink:href="#DejaVuSans-39" x="2695.748047"/>
      <use xlink:href="#DejaVuSans-39" x="2759.371094"/>
      <use xlink:href="#DejaVuSans-37" x="2822.994141"/>
     </g>
    </g>
    <g id="line2d_34">
     <path d="M 54.716875 311.022187 
L 64.716875 311.022187 
L 74.716875 311.022187 
" style="fill: none; stroke: #d62728; stroke-width: 1.5; stroke-linecap: square"/>
    </g>
    <g id="text_19">
     <!-- AP for Wife = 0.80, Count: 428, Pos: 204, Neg: 224 -->
     <g transform="translate(82.716875 314.522187) scale(0.1 -0.1)">
      <defs>
       <path id="DejaVuSans-57" d="M 213 4666 
L 850 4666 
L 1831 722 
L 2809 4666 
L 3519 4666 
L 4500 722 
L 5478 4666 
L 6119 4666 
L 4947 0 
L 4153 0 
L 3169 4050 
L 2175 0 
L 1381 0 
L 213 4666 
z
" transform="scale(0.015625)"/>
      </defs>
      <use xlink:href="#DejaVuSans-41"/>
      <use xlink:href="#DejaVuSans-50" x="68.408203"/>
      <use xlink:href="#DejaVuSans-20" x="128.710938"/>
      <use xlink:href="#DejaVuSans-66" x="160.498047"/>
      <use xlink:href="#DejaVuSans-6f" x="195.703125"/>
      <use xlink:href="#DejaVuSans-72" x="256.884766"/>
      <use xlink:href="#DejaVuSans-20" x="297.998047"/>
      <use xlink:href="#DejaVuSans-57" x="329.785156"/>
      <use xlink:href="#DejaVuSans-69" x="426.412109"/>
      <use xlink:href="#DejaVuSans-66" x="454.195312"/>
      <use xlink:href="#DejaVuSans-65" x="489.400391"/>
      <use xlink:href="#DejaVuSans-20" x="550.923828"/>
      <use xlink:href="#DejaVuSans-3d" x="582.710938"/>
      <use xlink:href="#DejaVuSans-20" x="666.5"/>
      <use xlink:href="#DejaVuSans-30" x="698.287109"/>
      <use xlink:href="#DejaVuSans-2e" x="761.910156"/>
      <use xlink:href="#DejaVuSans-38" x="793.697266"/>
      <use xlink:href="#DejaVuSans-30" x="857.320312"/>
      <use xlink:href="#DejaVuSans-2c" x="920.943359"/>
      <use xlink:href="#DejaVuSans-20" x="952.730469"/>
      <use xlink:href="#DejaVuSans-43" x="984.517578"/>
      <use xlink:href="#DejaVuSans-6f" x="1054.341797"/>
      <use xlink:href="#DejaVuSans-75" x="1115.523438"/>
      <use xlink:href="#DejaVuSans-6e" x="1178.902344"/>
      <use xlink:href="#DejaVuSans-74" x="1242.28125"/>
      <use xlink:href="#DejaVuSans-3a" x="1281.490234"/>
      <use xlink:href="#DejaVuSans-20" x="1315.181641"/>
      <use xlink:href="#DejaVuSans-34" x="1346.96875"/>
      <use xlink:href="#DejaVuSans-32" x="1410.591797"/>
      <use xlink:href="#DejaVuSans-38" x="1474.214844"/>
      <use xlink:href="#DejaVuSans-2c" x="1537.837891"/>
      <use xlink:href="#DejaVuSans-20" x="1569.625"/>
      <use xlink:href="#DejaVuSans-50" x="1601.412109"/>
      <use xlink:href="#DejaVuSans-6f" x="1658.089844"/>
      <use xlink:href="#DejaVuSans-73" x="1719.271484"/>
      <use xlink:href="#DejaVuSans-3a" x="1771.371094"/>
      <use xlink:href="#DejaVuSans-20" x="1805.0625"/>
      <use xlink:href="#DejaVuSans-32" x="1836.849609"/>
      <use xlink:href="#DejaVuSans-30" x="1900.472656"/>
      <use xlink:href="#DejaVuSans-34" x="1964.095703"/>
      <use xlink:href="#DejaVuSans-2c" x="2027.71875"/>
      <use xlink:href="#DejaVuSans-20" x="2059.505859"/>
      <use xlink:href="#DejaVuSans-4e" x="2091.292969"/>
      <use xlink:href="#DejaVuSans-65" x="2166.097656"/>
      <use xlink:href="#DejaVuSans-67" x="2227.621094"/>
      <use xlink:href="#DejaVuSans-3a" x="2291.097656"/>
      <use xlink:href="#DejaVuSans-20" x="2324.789062"/>
      <use xlink:href="#DejaVuSans-32" x="2356.576172"/>
      <use xlink:href="#DejaVuSans-32" x="2420.199219"/>
      <use xlink:href="#DejaVuSans-34" x="2483.822266"/>
     </g>
    </g>
    <g id="line2d_35">
     <path d="M 54.716875 325.700312 
L 64.716875 325.700312 
L 74.716875 325.700312 
" style="fill: none; stroke: #9467bd; stroke-width: 1.5; stroke-linecap: square"/>
    </g>
    <g id="text_20">
     <!-- AP for Other-relative = 0.66, Count: 314, Pos: 12, Neg: 302 -->
     <g transform="translate(82.716875 329.200312) scale(0.1 -0.1)">
      <defs>
       <path id="DejaVuSans-4f" d="M 2522 4238 
Q 1834 4238 1429 3725 
Q 1025 3213 1025 2328 
Q 1025 1447 1429 934 
Q 1834 422 2522 422 
Q 3209 422 3611 934 
Q 4013 1447 4013 2328 
Q 4013 3213 3611 3725 
Q 3209 4238 2522 4238 
z
M 2522 4750 
Q 3503 4750 4090 4092 
Q 4678 3434 4678 2328 
Q 4678 1225 4090 567 
Q 3503 -91 2522 -91 
Q 1538 -91 948 565 
Q 359 1222 359 2328 
Q 359 3434 948 4092 
Q 1538 4750 2522 4750 
z
" transform="scale(0.015625)"/>
       <path id="DejaVuSans-68" d="M 3513 2113 
L 3513 0 
L 2938 0 
L 2938 2094 
Q 2938 2591 2744 2837 
Q 2550 3084 2163 3084 
Q 1697 3084 1428 2787 
Q 1159 2491 1159 1978 
L 1159 0 
L 581 0 
L 581 4863 
L 1159 4863 
L 1159 2956 
Q 1366 3272 1645 3428 
Q 1925 3584 2291 3584 
Q 2894 3584 3203 3211 
Q 3513 2838 3513 2113 
z
" transform="scale(0.015625)"/>
      </defs>
      <use xlink:href="#DejaVuSans-41"/>
      <use xlink:href="#DejaVuSans-50" x="68.408203"/>
      <use xlink:href="#DejaVuSans-20" x="128.710938"/>
      <use xlink:href="#DejaVuSans-66" x="160.498047"/>
      <use xlink:href="#DejaVuSans-6f" x="195.703125"/>
      <use xlink:href="#DejaVuSans-72" x="256.884766"/>
      <use xlink:href="#DejaVuSans-20" x="297.998047"/>
      <use xlink:href="#DejaVuSans-4f" x="329.785156"/>
      <use xlink:href="#DejaVuSans-74" x="408.496094"/>
      <use xlink:href="#DejaVuSans-68" x="447.705078"/>
      <use xlink:href="#DejaVuSans-65" x="511.083984"/>
      <use xlink:href="#DejaVuSans-72" x="572.607422"/>
      <use xlink:href="#DejaVuSans-2d" x="607.345703"/>
      <use xlink:href="#DejaVuSans-72" x="643.429688"/>
      <use xlink:href="#DejaVuSans-65" x="682.292969"/>
      <use xlink:href="#DejaVuSans-6c" x="743.816406"/>
      <use xlink:href="#DejaVuSans-61" x="771.599609"/>
      <use xlink:href="#DejaVuSans-74" x="832.878906"/>
      <use xlink:href="#DejaVuSans-69" x="872.087891"/>
      <use xlink:href="#DejaVuSans-76" x="899.871094"/>
      <use xlink:href="#DejaVuSans-65" x="959.050781"/>
      <use xlink:href="#DejaVuSans-20" x="1020.574219"/>
      <use xlink:href="#DejaVuSans-3d" x="1052.361328"/>
      <use xlink:href="#DejaVuSans-20" x="1136.150391"/>
      <use xlink:href="#DejaVuSans-30" x="1167.9375"/>
      <use xlink:href="#DejaVuSans-2e" x="1231.560547"/>
      <use xlink:href="#DejaVuSans-36" x="1263.347656"/>
      <use xlink:href="#DejaVuSans-36" x="1326.970703"/>
      <use xlink:href="#DejaVuSans-2c" x="1390.59375"/>
      <use xlink:href="#DejaVuSans-20" x="1422.380859"/>
      <use xlink:href="#DejaVuSans-43" x="1454.167969"/>
      <use xlink:href="#DejaVuSans-6f" x="1523.992188"/>
      <use xlink:href="#DejaVuSans-75" x="1585.173828"/>
      <use xlink:href="#DejaVuSans-6e" x="1648.552734"/>
      <use xlink:href="#DejaVuSans-74" x="1711.931641"/>
      <use xlink:href="#DejaVuSans-3a" x="1751.140625"/>
      <use xlink:href="#DejaVuSans-20" x="1784.832031"/>
      <use xlink:href="#DejaVuSans-33" x="1816.619141"/>
      <use xlink:href="#DejaVuSans-31" x="1880.242188"/>
      <use xlink:href="#DejaVuSans-34" x="1943.865234"/>
      <use xlink:href="#DejaVuSans-2c" x="2007.488281"/>
      <use xlink:href="#DejaVuSans-20" x="2039.275391"/>
      <use xlink:href="#DejaVuSans-50" x="2071.0625"/>
      <use xlink:href="#DejaVuSans-6f" x="2127.740234"/>
      <use xlink:href="#DejaVuSans-73" x="2188.921875"/>
      <use xlink:href="#DejaVuSans-3a" x="2241.021484"/>
      <use xlink:href="#DejaVuSans-20" x="2274.712891"/>
      <use xlink:href="#DejaVuSans-31" x="2306.5"/>
      <use xlink:href="#DejaVuSans-32" x="2370.123047"/>
      <use xlink:href="#DejaVuSans-2c" x="2433.746094"/>
      <use xlink:href="#DejaVuSans-20" x="2465.533203"/>
      <use xlink:href="#DejaVuSans-4e" x="2497.320312"/>
      <use xlink:href="#DejaVuSans-65" x="2572.125"/>
      <use xlink:href="#DejaVuSans-67" x="2633.648438"/>
      <use xlink:href="#DejaVuSans-3a" x="2697.125"/>
      <use xlink:href="#DejaVuSans-20" x="2730.816406"/>
      <use xlink:href="#DejaVuSans-33" x="2762.603516"/>
      <use xlink:href="#DejaVuSans-30" x="2826.226562"/>
      <use xlink:href="#DejaVuSans-32" x="2889.849609"/>
     </g>
    </g>
    <g id="line2d_36">
     <path d="M 54.716875 340.378438 
L 64.716875 340.378438 
L 74.716875 340.378438 
" style="fill: none; stroke: #8c564b; stroke-width: 1.5; stroke-linecap: square"/>
    </g>
    <g id="text_21">
     <!-- AP for Own-child = 0.48, Count: 1,498, Pos: 19, Neg: 1,479 -->
     <g transform="translate(82.716875 343.878438) scale(0.1 -0.1)">
      <defs>
       <path id="DejaVuSans-77" d="M 269 3500 
L 844 3500 
L 1563 769 
L 2278 3500 
L 2956 3500 
L 3675 769 
L 4391 3500 
L 4966 3500 
L 4050 0 
L 3372 0 
L 2619 2869 
L 1863 0 
L 1184 0 
L 269 3500 
z
" transform="scale(0.015625)"/>
      </defs>
      <use xlink:href="#DejaVuSans-41"/>
      <use xlink:href="#DejaVuSans-50" x="68.408203"/>
      <use xlink:href="#DejaVuSans-20" x="128.710938"/>
      <use xlink:href="#DejaVuSans-66" x="160.498047"/>
      <use xlink:href="#DejaVuSans-6f" x="195.703125"/>
      <use xlink:href="#DejaVuSans-72" x="256.884766"/>
      <use xlink:href="#DejaVuSans-20" x="297.998047"/>
      <use xlink:href="#DejaVuSans-4f" x="329.785156"/>
      <use xlink:href="#DejaVuSans-77" x="408.496094"/>
      <use xlink:href="#DejaVuSans-6e" x="490.283203"/>
      <use xlink:href="#DejaVuSans-2d" x="553.662109"/>
      <use xlink:href="#DejaVuSans-63" x="589.746094"/>
      <use xlink:href="#DejaVuSans-68" x="644.726562"/>
      <use xlink:href="#DejaVuSans-69" x="708.105469"/>
      <use xlink:href="#DejaVuSans-6c" x="735.888672"/>
      <use xlink:href="#DejaVuSans-64" x="763.671875"/>
      <use xlink:href="#DejaVuSans-20" x="827.148438"/>
      <use xlink:href="#DejaVuSans-3d" x="858.935547"/>
      <use xlink:href="#DejaVuSans-20" x="942.724609"/>
      <use xlink:href="#DejaVuSans-30" x="974.511719"/>
      <use xlink:href="#DejaVuSans-2e" x="1038.134766"/>
      <use xlink:href="#DejaVuSans-34" x="1069.921875"/>
      <use xlink:href="#DejaVuSans-38" x="1133.544922"/>
      <use xlink:href="#DejaVuSans-2c" x="1197.167969"/>
      <use xlink:href="#DejaVuSans-20" x="1228.955078"/>
      <use xlink:href="#DejaVuSans-43" x="1260.742188"/>
      <use xlink:href="#DejaVuSans-6f" x="1330.566406"/>
      <use xlink:href="#DejaVuSans-75" x="1391.748047"/>
      <use xlink:href="#DejaVuSans-6e" x="1455.126953"/>
      <use xlink:href="#DejaVuSans-74" x="1518.505859"/>
      <use xlink:href="#DejaVuSans-3a" x="1557.714844"/>
      <use xlink:href="#DejaVuSans-20" x="1591.40625"/>
      <use xlink:href="#DejaVuSans-31" x="1623.193359"/>
      <use xlink:href="#DejaVuSans-2c" x="1686.816406"/>
      <use xlink:href="#DejaVuSans-34" x="1718.603516"/>
      <use xlink:href="#DejaVuSans-39" x="1782.226562"/>
      <use xlink:href="#DejaVuSans-38" x="1845.849609"/>
      <use xlink:href="#DejaVuSans-2c" x="1909.472656"/>
      <use xlink:href="#DejaVuSans-20" x="1941.259766"/>
      <use xlink:href="#DejaVuSans-50" x="1973.046875"/>
      <use xlink:href="#DejaVuSans-6f" x="2029.724609"/>
      <use xlink:href="#DejaVuSans-73" x="2090.90625"/>
      <use xlink:href="#DejaVuSans-3a" x="2143.005859"/>
      <use xlink:href="#DejaVuSans-20" x="2176.697266"/>
      <use xlink:href="#DejaVuSans-31" x="2208.484375"/>
      <use xlink:href="#DejaVuSans-39" x="2272.107422"/>
      <use xlink:href="#DejaVuSans-2c" x="2335.730469"/>
      <use xlink:href="#DejaVuSans-20" x="2367.517578"/>
      <use xlink:href="#DejaVuSans-4e" x="2399.304688"/>
      <use xlink:href="#DejaVuSans-65" x="2474.109375"/>
      <use xlink:href="#DejaVuSans-67" x="2535.632812"/>
      <use xlink:href="#DejaVuSans-3a" x="2599.109375"/>
      <use xlink:href="#DejaVuSans-20" x="2632.800781"/>
      <use xlink:href="#DejaVuSans-31" x="2664.587891"/>
      <use xlink:href="#DejaVuSans-2c" x="2728.210938"/>
      <use xlink:href="#DejaVuSans-34" x="2759.998047"/>
      <use xlink:href="#DejaVuSans-37" x="2823.621094"/>
      <use xlink:href="#DejaVuSans-39" x="2887.244141"/>
     </g>
    </g>
   </g>
  </g>
 </g>
 <defs>
  <clipPath id="pd0611aa103">
   <rect x="45.716875" y="22.318125" width="446.4" height="332.64"/>
  </clipPath>
 </defs>
</svg>
