<?xml version="1.0" encoding="utf-8" standalone="no"?>
<!DOCTYPE svg PUBLIC "-//W3C//DTD SVG 1.1//EN"
  "http://www.w3.org/Graphics/SVG/1.1/DTD/svg11.dtd">
<svg xmlns:xlink="http://www.w3.org/1999/xlink" width="443.177812pt" height="327.922pt" viewBox="0 0 443.177812 327.922" xmlns="http://www.w3.org/2000/svg" version="1.1">
 <metadata>
  <rdf:RDF xmlns:dc="http://purl.org/dc/elements/1.1/" xmlns:cc="http://creativecommons.org/ns#" xmlns:rdf="http://www.w3.org/1999/02/22-rdf-syntax-ns#">
   <cc:Work>
    <dc:type rdf:resource="http://purl.org/dc/dcmitype/StillImage"/>
    <dc:date>2025-02-24T10:03:22.391993</dc:date>
    <dc:format>image/svg+xml</dc:format>
    <dc:creator>
     <cc:Agent>
      <dc:title>Matplotlib v3.9.2, https://matplotlib.org/</dc:title>
     </cc:Agent>
    </dc:creator>
   </cc:Work>
  </rdf:RDF>
 </metadata>
 <defs>
  <style type="text/css">*{stroke-linejoin: round; stroke-linecap: butt}</style>
 </defs>
 <g id="figure_1">
  <g id="patch_1">
   <path d="M 0 327.922 
L 443.177812 327.922 
L 443.177812 0 
L 0 0 
z
" style="fill: #ffffff"/>
  </g>
  <g id="axes_1">
   <g id="patch_2">
    <path d="M 45.716875 288.430125 
L 402.836875 288.430125 
L 402.836875 22.318125 
L 45.716875 22.318125 
z
" style="fill: #ffffff"/>
   </g>
   <g id="matplotlib.axis_1">
    <g id="xtick_1">
     <g id="line2d_1">
      <path d="M 61.949602 288.430125 
L 61.949602 22.318125 
" clip-path="url(#p1d6bca034e)" style="fill: none; stroke: #b0b0b0; stroke-width: 0.8; stroke-linecap: square"/>
     </g>
     <g id="line2d_2">
      <defs>
       <path id="me28df7f73e" d="M 0 0 
L 0 3.5 
" style="stroke: #000000; stroke-width: 0.8"/>
      </defs>
      <g>
       <use xlink:href="#me28df7f73e" x="61.949602" y="288.430125" style="stroke: #000000; stroke-width: 0.8"/>
      </g>
     </g>
     <g id="text_1">
      <!-- 0.0 -->
      <g transform="translate(53.99804 303.028562) scale(0.1 -0.1)">
       <defs>
        <path id="DejaVuSans-30" d="M 2034 4250 
Q 1547 4250 1301 3770 
Q 1056 3291 1056 2328 
Q 1056 1369 1301 889 
Q 1547 409 2034 409 
Q 2525 409 2770 889 
Q 3016 1369 3016 2328 
Q 3016 3291 2770 3770 
Q 2525 4250 2034 4250 
z
M 2034 4750 
Q 2819 4750 3233 4129 
Q 3647 3509 3647 2328 
Q 3647 1150 3233 529 
Q 2819 -91 2034 -91 
Q 1250 -91 836 529 
Q 422 1150 422 2328 
Q 422 3509 836 4129 
Q 1250 4750 2034 4750 
z
" transform="scale(0.015625)"/>
        <path id="DejaVuSans-2e" d="M 684 794 
L 1344 794 
L 1344 0 
L 684 0 
L 684 794 
z
" transform="scale(0.015625)"/>
       </defs>
       <use xlink:href="#DejaVuSans-30"/>
       <use xlink:href="#DejaVuSans-2e" x="63.623047"/>
       <use xlink:href="#DejaVuSans-30" x="95.410156"/>
      </g>
     </g>
    </g>
    <g id="xtick_2">
     <g id="line2d_3">
      <path d="M 126.880511 288.430125 
L 126.880511 22.318125 
" clip-path="url(#p1d6bca034e)" style="fill: none; stroke: #b0b0b0; stroke-width: 0.8; stroke-linecap: square"/>
     </g>
     <g id="line2d_4">
      <g>
       <use xlink:href="#me28df7f73e" x="126.880511" y="288.430125" style="stroke: #000000; stroke-width: 0.8"/>
      </g>
     </g>
     <g id="text_2">
      <!-- 0.2 -->
      <g transform="translate(118.928949 303.028562) scale(0.1 -0.1)">
       <defs>
        <path id="DejaVuSans-32" d="M 1228 531 
L 3431 531 
L 3431 0 
L 469 0 
L 469 531 
Q 828 903 1448 1529 
Q 2069 2156 2228 2338 
Q 2531 2678 2651 2914 
Q 2772 3150 2772 3378 
Q 2772 3750 2511 3984 
Q 2250 4219 1831 4219 
Q 1534 4219 1204 4116 
Q 875 4013 500 3803 
L 500 4441 
Q 881 4594 1212 4672 
Q 1544 4750 1819 4750 
Q 2544 4750 2975 4387 
Q 3406 4025 3406 3419 
Q 3406 3131 3298 2873 
Q 3191 2616 2906 2266 
Q 2828 2175 2409 1742 
Q 1991 1309 1228 531 
z
" transform="scale(0.015625)"/>
       </defs>
       <use xlink:href="#DejaVuSans-30"/>
       <use xlink:href="#DejaVuSans-2e" x="63.623047"/>
       <use xlink:href="#DejaVuSans-32" x="95.410156"/>
      </g>
     </g>
    </g>
    <g id="xtick_3">
     <g id="line2d_5">
      <path d="M 191.81142 288.430125 
L 191.81142 22.318125 
" clip-path="url(#p1d6bca034e)" style="fill: none; stroke: #b0b0b0; stroke-width: 0.8; stroke-linecap: square"/>
     </g>
     <g id="line2d_6">
      <g>
       <use xlink:href="#me28df7f73e" x="191.81142" y="288.430125" style="stroke: #000000; stroke-width: 0.8"/>
      </g>
     </g>
     <g id="text_3">
      <!-- 0.4 -->
      <g transform="translate(183.859858 303.028562) scale(0.1 -0.1)">
       <defs>
        <path id="DejaVuSans-34" d="M 2419 4116 
L 825 1625 
L 2419 1625 
L 2419 4116 
z
M 2253 4666 
L 3047 4666 
L 3047 1625 
L 3713 1625 
L 3713 1100 
L 3047 1100 
L 3047 0 
L 2419 0 
L 2419 1100 
L 313 1100 
L 313 1709 
L 2253 4666 
z
" transform="scale(0.015625)"/>
       </defs>
       <use xlink:href="#DejaVuSans-30"/>
       <use xlink:href="#DejaVuSans-2e" x="63.623047"/>
       <use xlink:href="#DejaVuSans-34" x="95.410156"/>
      </g>
     </g>
    </g>
    <g id="xtick_4">
     <g id="line2d_7">
      <path d="M 256.74233 288.430125 
L 256.74233 22.318125 
" clip-path="url(#p1d6bca034e)" style="fill: none; stroke: #b0b0b0; stroke-width: 0.8; stroke-linecap: square"/>
     </g>
     <g id="line2d_8">
      <g>
       <use xlink:href="#me28df7f73e" x="256.74233" y="288.430125" style="stroke: #000000; stroke-width: 0.8"/>
      </g>
     </g>
     <g id="text_4">
      <!-- 0.6 -->
      <g transform="translate(248.790767 303.028562) scale(0.1 -0.1)">
       <defs>
        <path id="DejaVuSans-36" d="M 2113 2584 
Q 1688 2584 1439 2293 
Q 1191 2003 1191 1497 
Q 1191 994 1439 701 
Q 1688 409 2113 409 
Q 2538 409 2786 701 
Q 3034 994 3034 1497 
Q 3034 2003 2786 2293 
Q 2538 2584 2113 2584 
z
M 3366 4563 
L 3366 3988 
Q 3128 4100 2886 4159 
Q 2644 4219 2406 4219 
Q 1781 4219 1451 3797 
Q 1122 3375 1075 2522 
Q 1259 2794 1537 2939 
Q 1816 3084 2150 3084 
Q 2853 3084 3261 2657 
Q 3669 2231 3669 1497 
Q 3669 778 3244 343 
Q 2819 -91 2113 -91 
Q 1303 -91 875 529 
Q 447 1150 447 2328 
Q 447 3434 972 4092 
Q 1497 4750 2381 4750 
Q 2619 4750 2861 4703 
Q 3103 4656 3366 4563 
z
" transform="scale(0.015625)"/>
       </defs>
       <use xlink:href="#DejaVuSans-30"/>
       <use xlink:href="#DejaVuSans-2e" x="63.623047"/>
       <use xlink:href="#DejaVuSans-36" x="95.410156"/>
      </g>
     </g>
    </g>
    <g id="xtick_5">
     <g id="line2d_9">
      <path d="M 321.673239 288.430125 
L 321.673239 22.318125 
" clip-path="url(#p1d6bca034e)" style="fill: none; stroke: #b0b0b0; stroke-width: 0.8; stroke-linecap: square"/>
     </g>
     <g id="line2d_10">
      <g>
       <use xlink:href="#me28df7f73e" x="321.673239" y="288.430125" style="stroke: #000000; stroke-width: 0.8"/>
      </g>
     </g>
     <g id="text_5">
      <!-- 0.8 -->
      <g transform="translate(313.721676 303.028562) scale(0.1 -0.1)">
       <defs>
        <path id="DejaVuSans-38" d="M 2034 2216 
Q 1584 2216 1326 1975 
Q 1069 1734 1069 1313 
Q 1069 891 1326 650 
Q 1584 409 2034 409 
Q 2484 409 2743 651 
Q 3003 894 3003 1313 
Q 3003 1734 2745 1975 
Q 2488 2216 2034 2216 
z
M 1403 2484 
Q 997 2584 770 2862 
Q 544 3141 544 3541 
Q 544 4100 942 4425 
Q 1341 4750 2034 4750 
Q 2731 4750 3128 4425 
Q 3525 4100 3525 3541 
Q 3525 3141 3298 2862 
Q 3072 2584 2669 2484 
Q 3125 2378 3379 2068 
Q 3634 1759 3634 1313 
Q 3634 634 3220 271 
Q 2806 -91 2034 -91 
Q 1263 -91 848 271 
Q 434 634 434 1313 
Q 434 1759 690 2068 
Q 947 2378 1403 2484 
z
M 1172 3481 
Q 1172 3119 1398 2916 
Q 1625 2713 2034 2713 
Q 2441 2713 2670 2916 
Q 2900 3119 2900 3481 
Q 2900 3844 2670 4047 
Q 2441 4250 2034 4250 
Q 1625 4250 1398 4047 
Q 1172 3844 1172 3481 
z
" transform="scale(0.015625)"/>
       </defs>
       <use xlink:href="#DejaVuSans-30"/>
       <use xlink:href="#DejaVuSans-2e" x="63.623047"/>
       <use xlink:href="#DejaVuSans-38" x="95.410156"/>
      </g>
     </g>
    </g>
    <g id="xtick_6">
     <g id="line2d_11">
      <path d="M 386.604148 288.430125 
L 386.604148 22.318125 
" clip-path="url(#p1d6bca034e)" style="fill: none; stroke: #b0b0b0; stroke-width: 0.8; stroke-linecap: square"/>
     </g>
     <g id="line2d_12">
      <g>
       <use xlink:href="#me28df7f73e" x="386.604148" y="288.430125" style="stroke: #000000; stroke-width: 0.8"/>
      </g>
     </g>
     <g id="text_6">
      <!-- 1.0 -->
      <g transform="translate(378.652585 303.028562) scale(0.1 -0.1)">
       <defs>
        <path id="DejaVuSans-31" d="M 794 531 
L 1825 531 
L 1825 4091 
L 703 3866 
L 703 4441 
L 1819 4666 
L 2450 4666 
L 2450 531 
L 3481 531 
L 3481 0 
L 794 0 
L 794 531 
z
" transform="scale(0.015625)"/>
       </defs>
       <use xlink:href="#DejaVuSans-31"/>
       <use xlink:href="#DejaVuSans-2e" x="63.623047"/>
       <use xlink:href="#DejaVuSans-30" x="95.410156"/>
      </g>
     </g>
    </g>
    <g id="text_7">
     <!-- False Positive Rate -->
     <g transform="translate(168.517188 318.226375) scale(0.12 -0.12)">
      <defs>
       <path id="DejaVuSans-46" d="M 628 4666 
L 3309 4666 
L 3309 4134 
L 1259 4134 
L 1259 2759 
L 3109 2759 
L 3109 2228 
L 1259 2228 
L 1259 0 
L 628 0 
L 628 4666 
z
" transform="scale(0.015625)"/>
       <path id="DejaVuSans-61" d="M 2194 1759 
Q 1497 1759 1228 1600 
Q 959 1441 959 1056 
Q 959 750 1161 570 
Q 1363 391 1709 391 
Q 2188 391 2477 730 
Q 2766 1069 2766 1631 
L 2766 1759 
L 2194 1759 
z
M 3341 1997 
L 3341 0 
L 2766 0 
L 2766 531 
Q 2569 213 2275 61 
Q 1981 -91 1556 -91 
Q 1019 -91 701 211 
Q 384 513 384 1019 
Q 384 1609 779 1909 
Q 1175 2209 1959 2209 
L 2766 2209 
L 2766 2266 
Q 2766 2663 2505 2880 
Q 2244 3097 1772 3097 
Q 1472 3097 1187 3025 
Q 903 2953 641 2809 
L 641 3341 
Q 956 3463 1253 3523 
Q 1550 3584 1831 3584 
Q 2591 3584 2966 3190 
Q 3341 2797 3341 1997 
z
" transform="scale(0.015625)"/>
       <path id="DejaVuSans-6c" d="M 603 4863 
L 1178 4863 
L 1178 0 
L 603 0 
L 603 4863 
z
" transform="scale(0.015625)"/>
       <path id="DejaVuSans-73" d="M 2834 3397 
L 2834 2853 
Q 2591 2978 2328 3040 
Q 2066 3103 1784 3103 
Q 1356 3103 1142 2972 
Q 928 2841 928 2578 
Q 928 2378 1081 2264 
Q 1234 2150 1697 2047 
L 1894 2003 
Q 2506 1872 2764 1633 
Q 3022 1394 3022 966 
Q 3022 478 2636 193 
Q 2250 -91 1575 -91 
Q 1294 -91 989 -36 
Q 684 19 347 128 
L 347 722 
Q 666 556 975 473 
Q 1284 391 1588 391 
Q 1994 391 2212 530 
Q 2431 669 2431 922 
Q 2431 1156 2273 1281 
Q 2116 1406 1581 1522 
L 1381 1569 
Q 847 1681 609 1914 
Q 372 2147 372 2553 
Q 372 3047 722 3315 
Q 1072 3584 1716 3584 
Q 2034 3584 2315 3537 
Q 2597 3491 2834 3397 
z
" transform="scale(0.015625)"/>
       <path id="DejaVuSans-65" d="M 3597 1894 
L 3597 1613 
L 953 1613 
Q 991 1019 1311 708 
Q 1631 397 2203 397 
Q 2534 397 2845 478 
Q 3156 559 3463 722 
L 3463 178 
Q 3153 47 2828 -22 
Q 2503 -91 2169 -91 
Q 1331 -91 842 396 
Q 353 884 353 1716 
Q 353 2575 817 3079 
Q 1281 3584 2069 3584 
Q 2775 3584 3186 3129 
Q 3597 2675 3597 1894 
z
M 3022 2063 
Q 3016 2534 2758 2815 
Q 2500 3097 2075 3097 
Q 1594 3097 1305 2825 
Q 1016 2553 972 2059 
L 3022 2063 
z
" transform="scale(0.015625)"/>
       <path id="DejaVuSans-20" transform="scale(0.015625)"/>
       <path id="DejaVuSans-50" d="M 1259 4147 
L 1259 2394 
L 2053 2394 
Q 2494 2394 2734 2622 
Q 2975 2850 2975 3272 
Q 2975 3691 2734 3919 
Q 2494 4147 2053 4147 
L 1259 4147 
z
M 628 4666 
L 2053 4666 
Q 2838 4666 3239 4311 
Q 3641 3956 3641 3272 
Q 3641 2581 3239 2228 
Q 2838 1875 2053 1875 
L 1259 1875 
L 1259 0 
L 628 0 
L 628 4666 
z
" transform="scale(0.015625)"/>
       <path id="DejaVuSans-6f" d="M 1959 3097 
Q 1497 3097 1228 2736 
Q 959 2375 959 1747 
Q 959 1119 1226 758 
Q 1494 397 1959 397 
Q 2419 397 2687 759 
Q 2956 1122 2956 1747 
Q 2956 2369 2687 2733 
Q 2419 3097 1959 3097 
z
M 1959 3584 
Q 2709 3584 3137 3096 
Q 3566 2609 3566 1747 
Q 3566 888 3137 398 
Q 2709 -91 1959 -91 
Q 1206 -91 779 398 
Q 353 888 353 1747 
Q 353 2609 779 3096 
Q 1206 3584 1959 3584 
z
" transform="scale(0.015625)"/>
       <path id="DejaVuSans-69" d="M 603 3500 
L 1178 3500 
L 1178 0 
L 603 0 
L 603 3500 
z
M 603 4863 
L 1178 4863 
L 1178 4134 
L 603 4134 
L 603 4863 
z
" transform="scale(0.015625)"/>
       <path id="DejaVuSans-74" d="M 1172 4494 
L 1172 3500 
L 2356 3500 
L 2356 3053 
L 1172 3053 
L 1172 1153 
Q 1172 725 1289 603 
Q 1406 481 1766 481 
L 2356 481 
L 2356 0 
L 1766 0 
Q 1100 0 847 248 
Q 594 497 594 1153 
L 594 3053 
L 172 3053 
L 172 3500 
L 594 3500 
L 594 4494 
L 1172 4494 
z
" transform="scale(0.015625)"/>
       <path id="DejaVuSans-76" d="M 191 3500 
L 800 3500 
L 1894 563 
L 2988 3500 
L 3597 3500 
L 2284 0 
L 1503 0 
L 191 3500 
z
" transform="scale(0.015625)"/>
       <path id="DejaVuSans-52" d="M 2841 2188 
Q 3044 2119 3236 1894 
Q 3428 1669 3622 1275 
L 4263 0 
L 3584 0 
L 2988 1197 
Q 2756 1666 2539 1819 
Q 2322 1972 1947 1972 
L 1259 1972 
L 1259 0 
L 628 0 
L 628 4666 
L 2053 4666 
Q 2853 4666 3247 4331 
Q 3641 3997 3641 3322 
Q 3641 2881 3436 2590 
Q 3231 2300 2841 2188 
z
M 1259 4147 
L 1259 2491 
L 2053 2491 
Q 2509 2491 2742 2702 
Q 2975 2913 2975 3322 
Q 2975 3731 2742 3939 
Q 2509 4147 2053 4147 
L 1259 4147 
z
" transform="scale(0.015625)"/>
      </defs>
      <use xlink:href="#DejaVuSans-46"/>
      <use xlink:href="#DejaVuSans-61" x="48.394531"/>
      <use xlink:href="#DejaVuSans-6c" x="109.673828"/>
      <use xlink:href="#DejaVuSans-73" x="137.457031"/>
      <use xlink:href="#DejaVuSans-65" x="189.556641"/>
      <use xlink:href="#DejaVuSans-20" x="251.080078"/>
      <use xlink:href="#DejaVuSans-50" x="282.867188"/>
      <use xlink:href="#DejaVuSans-6f" x="339.544922"/>
      <use xlink:href="#DejaVuSans-73" x="400.726562"/>
      <use xlink:href="#DejaVuSans-69" x="452.826172"/>
      <use xlink:href="#DejaVuSans-74" x="480.609375"/>
      <use xlink:href="#DejaVuSans-69" x="519.818359"/>
      <use xlink:href="#DejaVuSans-76" x="547.601562"/>
      <use xlink:href="#DejaVuSans-65" x="606.78125"/>
      <use xlink:href="#DejaVuSans-20" x="668.304688"/>
      <use xlink:href="#DejaVuSans-52" x="700.091797"/>
      <use xlink:href="#DejaVuSans-61" x="767.324219"/>
      <use xlink:href="#DejaVuSans-74" x="828.603516"/>
      <use xlink:href="#DejaVuSans-65" x="867.8125"/>
     </g>
    </g>
   </g>
   <g id="matplotlib.axis_2">
    <g id="ytick_1">
     <g id="line2d_13">
      <path d="M 45.716875 276.334125 
L 402.836875 276.334125 
" clip-path="url(#p1d6bca034e)" style="fill: none; stroke: #b0b0b0; stroke-width: 0.8; stroke-linecap: square"/>
     </g>
     <g id="line2d_14">
      <defs>
       <path id="m6f113d8951" d="M 0 0 
L -3.5 0 
" style="stroke: #000000; stroke-width: 0.8"/>
      </defs>
      <g>
       <use xlink:href="#m6f113d8951" x="45.716875" y="276.334125" style="stroke: #000000; stroke-width: 0.8"/>
      </g>
     </g>
     <g id="text_8">
      <!-- 0.0 -->
      <g transform="translate(22.81375 280.133344) scale(0.1 -0.1)">
       <use xlink:href="#DejaVuSans-30"/>
       <use xlink:href="#DejaVuSans-2e" x="63.623047"/>
       <use xlink:href="#DejaVuSans-30" x="95.410156"/>
      </g>
     </g>
    </g>
    <g id="ytick_2">
     <g id="line2d_15">
      <path d="M 45.716875 227.950125 
L 402.836875 227.950125 
" clip-path="url(#p1d6bca034e)" style="fill: none; stroke: #b0b0b0; stroke-width: 0.8; stroke-linecap: square"/>
     </g>
     <g id="line2d_16">
      <g>
       <use xlink:href="#m6f113d8951" x="45.716875" y="227.950125" style="stroke: #000000; stroke-width: 0.8"/>
      </g>
     </g>
     <g id="text_9">
      <!-- 0.2 -->
      <g transform="translate(22.81375 231.749344) scale(0.1 -0.1)">
       <use xlink:href="#DejaVuSans-30"/>
       <use xlink:href="#DejaVuSans-2e" x="63.623047"/>
       <use xlink:href="#DejaVuSans-32" x="95.410156"/>
      </g>
     </g>
    </g>
    <g id="ytick_3">
     <g id="line2d_17">
      <path d="M 45.716875 179.566125 
L 402.836875 179.566125 
" clip-path="url(#p1d6bca034e)" style="fill: none; stroke: #b0b0b0; stroke-width: 0.8; stroke-linecap: square"/>
     </g>
     <g id="line2d_18">
      <g>
       <use xlink:href="#m6f113d8951" x="45.716875" y="179.566125" style="stroke: #000000; stroke-width: 0.8"/>
      </g>
     </g>
     <g id="text_10">
      <!-- 0.4 -->
      <g transform="translate(22.81375 183.365344) scale(0.1 -0.1)">
       <use xlink:href="#DejaVuSans-30"/>
       <use xlink:href="#DejaVuSans-2e" x="63.623047"/>
       <use xlink:href="#DejaVuSans-34" x="95.410156"/>
      </g>
     </g>
    </g>
    <g id="ytick_4">
     <g id="line2d_19">
      <path d="M 45.716875 131.182125 
L 402.836875 131.182125 
" clip-path="url(#p1d6bca034e)" style="fill: none; stroke: #b0b0b0; stroke-width: 0.8; stroke-linecap: square"/>
     </g>
     <g id="line2d_20">
      <g>
       <use xlink:href="#m6f113d8951" x="45.716875" y="131.182125" style="stroke: #000000; stroke-width: 0.8"/>
      </g>
     </g>
     <g id="text_11">
      <!-- 0.6 -->
      <g transform="translate(22.81375 134.981344) scale(0.1 -0.1)">
       <use xlink:href="#DejaVuSans-30"/>
       <use xlink:href="#DejaVuSans-2e" x="63.623047"/>
       <use xlink:href="#DejaVuSans-36" x="95.410156"/>
      </g>
     </g>
    </g>
    <g id="ytick_5">
     <g id="line2d_21">
      <path d="M 45.716875 82.798125 
L 402.836875 82.798125 
" clip-path="url(#p1d6bca034e)" style="fill: none; stroke: #b0b0b0; stroke-width: 0.8; stroke-linecap: square"/>
     </g>
     <g id="line2d_22">
      <g>
       <use xlink:href="#m6f113d8951" x="45.716875" y="82.798125" style="stroke: #000000; stroke-width: 0.8"/>
      </g>
     </g>
     <g id="text_12">
      <!-- 0.8 -->
      <g transform="translate(22.81375 86.597344) scale(0.1 -0.1)">
       <use xlink:href="#DejaVuSans-30"/>
       <use xlink:href="#DejaVuSans-2e" x="63.623047"/>
       <use xlink:href="#DejaVuSans-38" x="95.410156"/>
      </g>
     </g>
    </g>
    <g id="ytick_6">
     <g id="line2d_23">
      <path d="M 45.716875 34.414125 
L 402.836875 34.414125 
" clip-path="url(#p1d6bca034e)" style="fill: none; stroke: #b0b0b0; stroke-width: 0.8; stroke-linecap: square"/>
     </g>
     <g id="line2d_24">
      <g>
       <use xlink:href="#m6f113d8951" x="45.716875" y="34.414125" style="stroke: #000000; stroke-width: 0.8"/>
      </g>
     </g>
     <g id="text_13">
      <!-- 1.0 -->
      <g transform="translate(22.81375 38.213344) scale(0.1 -0.1)">
       <use xlink:href="#DejaVuSans-31"/>
       <use xlink:href="#DejaVuSans-2e" x="63.623047"/>
       <use xlink:href="#DejaVuSans-30" x="95.410156"/>
      </g>
     </g>
    </g>
    <g id="text_14">
     <!-- True Positive Rate -->
     <g transform="translate(16.318125 208.80975) rotate(-90) scale(0.12 -0.12)">
      <defs>
       <path id="DejaVuSans-54" d="M -19 4666 
L 3928 4666 
L 3928 4134 
L 2272 4134 
L 2272 0 
L 1638 0 
L 1638 4134 
L -19 4134 
L -19 4666 
z
" transform="scale(0.015625)"/>
       <path id="DejaVuSans-72" d="M 2631 2963 
Q 2534 3019 2420 3045 
Q 2306 3072 2169 3072 
Q 1681 3072 1420 2755 
Q 1159 2438 1159 1844 
L 1159 0 
L 581 0 
L 581 3500 
L 1159 3500 
L 1159 2956 
Q 1341 3275 1631 3429 
Q 1922 3584 2338 3584 
Q 2397 3584 2469 3576 
Q 2541 3569 2628 3553 
L 2631 2963 
z
" transform="scale(0.015625)"/>
       <path id="DejaVuSans-75" d="M 544 1381 
L 544 3500 
L 1119 3500 
L 1119 1403 
Q 1119 906 1312 657 
Q 1506 409 1894 409 
Q 2359 409 2629 706 
Q 2900 1003 2900 1516 
L 2900 3500 
L 3475 3500 
L 3475 0 
L 2900 0 
L 2900 538 
Q 2691 219 2414 64 
Q 2138 -91 1772 -91 
Q 1169 -91 856 284 
Q 544 659 544 1381 
z
M 1991 3584 
L 1991 3584 
z
" transform="scale(0.015625)"/>
      </defs>
      <use xlink:href="#DejaVuSans-54"/>
      <use xlink:href="#DejaVuSans-72" x="46.333984"/>
      <use xlink:href="#DejaVuSans-75" x="87.447266"/>
      <use xlink:href="#DejaVuSans-65" x="150.826172"/>
      <use xlink:href="#DejaVuSans-20" x="212.349609"/>
      <use xlink:href="#DejaVuSans-50" x="244.136719"/>
      <use xlink:href="#DejaVuSans-6f" x="300.814453"/>
      <use xlink:href="#DejaVuSans-73" x="361.996094"/>
      <use xlink:href="#DejaVuSans-69" x="414.095703"/>
      <use xlink:href="#DejaVuSans-74" x="441.878906"/>
      <use xlink:href="#DejaVuSans-69" x="481.087891"/>
      <use xlink:href="#DejaVuSans-76" x="508.871094"/>
      <use xlink:href="#DejaVuSans-65" x="568.050781"/>
      <use xlink:href="#DejaVuSans-20" x="629.574219"/>
      <use xlink:href="#DejaVuSans-52" x="661.361328"/>
      <use xlink:href="#DejaVuSans-61" x="728.59375"/>
      <use xlink:href="#DejaVuSans-74" x="789.873047"/>
      <use xlink:href="#DejaVuSans-65" x="829.082031"/>
     </g>
    </g>
   </g>
   <g id="line2d_25">
    <path d="M 61.949602 276.334125 
L 61.949602 230.999651 
L 62.097779 230.999651 
L 62.097779 218.066393 
L 62.245955 218.066393 
L 62.245955 216.841137 
L 62.394132 216.841137 
L 62.394132 216.024299 
L 62.542308 216.024299 
L 62.542308 213.846066 
L 62.690484 213.846066 
L 62.690484 213.029229 
L 62.838661 213.029229 
L 62.838661 212.484671 
L 62.986837 212.484671 
L 62.986837 211.395554 
L 63.135014 211.259415 
L 63.135014 210.306438 
L 63.28319 210.306438 
L 63.28319 209.489601 
L 63.431367 209.489601 
L 63.431367 207.855926 
L 63.579543 207.855926 
L 63.579543 205.677693 
L 63.875896 205.677693 
L 63.875896 205.269274 
L 64.024072 205.269274 
L 64.024072 201.457366 
L 64.172249 201.457366 
L 64.172249 201.321227 
L 64.320425 201.321227 
L 64.320425 200.776669 
L 64.468601 200.776669 
L 64.468601 199.687552 
L 64.616778 199.687552 
L 64.616778 198.053877 
L 64.764954 198.053877 
L 64.913131 197.917738 
L 64.913131 197.509319 
L 65.061307 197.509319 
L 65.061307 196.147924 
L 65.35766 196.147924 
L 65.35766 195.739505 
L 65.505836 195.739505 
L 65.505836 194.922667 
L 65.802189 194.922667 
L 65.802189 193.425132 
L 66.543071 192.608295 
L 66.543071 192.336016 
L 66.691248 192.336016 
L 66.691248 192.199876 
L 66.839424 191.519178 
L 66.839424 190.97462 
L 66.987601 190.97462 
L 66.987601 190.702341 
L 67.135777 190.566202 
L 67.135777 190.157783 
L 67.580306 190.021643 
L 67.580306 189.749364 
L 67.728483 189.749364 
L 67.728483 189.340945 
L 68.321189 188.796387 
L 68.321189 187.97955 
L 68.469365 187.97955 
L 68.469365 187.026573 
L 68.617541 187.026573 
L 68.913894 186.754294 
L 68.913894 184.84834 
L 69.062071 184.84834 
L 69.062071 184.7122 
L 69.210247 184.7122 
L 69.210247 184.167642 
L 69.358423 184.167642 
L 69.358423 183.486944 
L 69.5066 183.486944 
L 69.5066 183.350805 
L 69.654776 183.214665 
L 69.654776 182.125549 
L 70.099306 182.125549 
L 70.099306 181.444851 
L 70.247482 181.444851 
L 70.247482 181.172572 
L 70.395658 180.900293 
L 70.543835 180.900293 
L 70.543835 180.355734 
L 70.692011 180.355734 
L 70.692011 180.083455 
L 70.840188 180.083455 
L 70.840188 179.947316 
L 70.988364 179.675037 
L 71.136541 179.402758 
L 71.136541 179.130478 
L 71.284717 179.130478 
L 71.284717 178.449781 
L 71.432893 178.449781 
L 71.58107 178.313641 
L 71.58107 178.041362 
L 71.729246 178.041362 
L 72.025599 177.905222 
L 72.025599 177.769083 
L 72.173776 177.769083 
L 72.173776 177.632943 
L 72.321952 177.632943 
L 72.321952 177.496804 
L 72.470128 177.496804 
L 72.470128 176.952245 
L 72.618305 176.952245 
L 72.618305 176.543827 
L 72.766481 176.543827 
L 72.766481 175.726989 
L 72.914658 175.726989 
L 72.914658 175.45471 
L 73.359187 175.046292 
L 73.359187 174.774012 
L 73.65554 174.774012 
L 73.65554 174.637873 
L 73.803716 174.637873 
L 73.803716 173.276477 
L 73.951893 173.276477 
L 73.951893 173.004198 
L 74.248245 173.004198 
L 74.248245 172.45964 
L 74.692775 172.45964 
L 74.692775 172.3235 
L 74.840951 172.3235 
L 74.840951 172.187361 
L 75.433657 172.187361 
L 75.433657 171.778942 
L 75.581833 171.778942 
L 75.581833 171.234384 
L 75.878186 171.234384 
L 75.878186 171.098244 
L 76.026363 171.098244 
L 76.026363 170.553686 
L 76.174539 170.553686 
L 76.174539 170.281407 
L 76.322715 170.281407 
L 76.322715 170.145267 
L 76.619068 170.145267 
L 76.619068 169.32843 
L 76.767245 169.32843 
L 76.767245 167.558616 
L 76.915421 167.558616 
L 76.915421 167.150197 
L 77.063598 167.150197 
L 77.063598 167.014057 
L 77.35995 167.014057 
L 77.35995 166.469499 
L 77.508127 166.469499 
L 77.80448 166.33336 
L 77.80448 165.108104 
L 77.952656 165.108104 
L 77.952656 164.699685 
L 78.100833 164.699685 
L 78.100833 164.291266 
L 78.249009 164.291266 
L 78.249009 164.018987 
L 78.545362 164.018987 
L 78.545362 163.746708 
L 78.841715 163.746708 
L 78.841715 163.474429 
L 78.989891 163.474429 
L 78.989891 163.06601 
L 79.138067 163.06601 
L 79.138067 162.929871 
L 79.286244 162.929871 
L 79.286244 162.793731 
L 79.43442 162.793731 
L 79.43442 162.521452 
L 79.87895 162.521452 
L 79.87895 161.976894 
L 80.027126 161.976894 
L 80.027126 161.840754 
L 80.175302 161.840754 
L 80.175302 161.568475 
L 80.323479 161.568475 
L 80.323479 161.160056 
L 80.619832 159.662521 
L 80.619832 159.526382 
L 80.916185 159.117963 
L 81.212537 159.117963 
L 81.360714 158.981823 
L 81.360714 158.573405 
L 81.50889 158.573405 
L 81.657067 158.437265 
L 81.657067 157.620428 
L 82.842478 156.395172 
L 83.435184 156.395172 
L 83.435184 155.850613 
L 83.58336 155.850613 
L 83.58336 155.306055 
L 83.879713 155.033776 
L 83.879713 154.625357 
L 84.176066 154.625357 
L 84.176066 154.080799 
L 84.324242 153.80852 
L 84.324242 153.400101 
L 84.620595 153.400101 
L 84.620595 152.719404 
L 84.768772 152.719404 
L 84.768772 152.447124 
L 84.916948 152.447124 
L 84.916948 152.174845 
L 85.065124 152.174845 
L 85.065124 151.766427 
L 85.361477 151.766427 
L 85.954183 151.085729 
L 85.954183 150.67731 
L 86.398712 150.67731 
L 86.546889 150.541171 
L 86.546889 150.268891 
L 86.843242 150.268891 
L 86.843242 149.315915 
L 87.287771 149.315915 
L 87.287771 149.043635 
L 87.584124 149.043635 
L 87.584124 148.635217 
L 87.880477 148.635217 
L 87.880477 147.954519 
L 88.176829 147.954519 
L 88.176829 147.5461 
L 88.769535 147.137682 
L 88.769535 146.729263 
L 88.917711 146.729263 
L 88.917711 146.184705 
L 89.065888 146.184705 
L 89.065888 146.048565 
L 89.954946 146.048565 
L 89.954946 145.640146 
L 90.251299 145.640146 
L 90.251299 145.095588 
L 90.547652 145.095588 
L 90.547652 144.687169 
L 90.844005 144.687169 
L 90.844005 144.142611 
L 90.992181 144.142611 
L 90.992181 143.734193 
L 91.584887 143.734193 
L 91.584887 143.461913 
L 91.733064 143.461913 
L 91.733064 143.325774 
L 91.88124 143.325774 
L 91.88124 142.645076 
L 92.029416 142.645076 
L 92.029416 142.372797 
L 92.325769 142.372797 
L 92.325769 142.236657 
L 92.918475 142.236657 
L 92.918475 141.964378 
L 93.214828 141.964378 
L 93.214828 141.692099 
L 93.363004 141.692099 
L 93.363004 141.55596 
L 93.807533 141.28368 
L 93.807533 140.875262 
L 93.95571 140.875262 
L 93.95571 140.466843 
L 94.103886 140.466843 
L 94.103886 140.330704 
L 94.252063 140.330704 
L 94.252063 140.194564 
L 94.400239 140.194564 
L 94.400239 140.058424 
L 94.548416 140.058424 
L 94.548416 139.650006 
L 94.844768 139.650006 
L 94.844768 139.377727 
L 95.141121 139.377727 
L 95.141121 139.241587 
L 95.289298 139.241587 
L 95.289298 138.28861 
L 95.585651 138.28861 
L 95.585651 138.016331 
L 95.733827 138.016331 
L 95.733827 137.744052 
L 96.03018 137.744052 
L 96.03018 137.335633 
L 96.326533 137.335633 
L 96.326533 136.927214 
L 96.622886 136.927214 
L 96.622886 136.654935 
L 97.067415 136.654935 
L 97.067415 136.382656 
L 97.363768 136.382656 
L 97.363768 136.246517 
L 97.956473 136.246517 
L 98.252826 136.110377 
L 98.252826 135.429679 
L 98.697355 135.429679 
L 98.697355 135.1574 
L 99.141885 135.1574 
L 99.141885 134.204423 
L 99.290061 134.204423 
L 99.290061 133.796005 
L 99.586414 133.796005 
L 99.586414 133.659865 
L 100.030943 133.659865 
L 100.030943 133.523725 
L 100.623649 133.523725 
L 100.623649 133.115307 
L 100.771825 133.115307 
L 100.771825 132.979167 
L 100.920002 132.979167 
L 100.920002 132.706888 
L 101.512708 132.706888 
L 101.512708 132.570749 
L 101.957237 132.570749 
L 101.957237 132.434609 
L 102.401766 132.434609 
L 102.401766 132.16233 
L 102.549943 132.16233 
L 102.846295 131.890051 
L 103.735354 131.890051 
L 103.735354 131.617772 
L 104.031707 131.617772 
L 104.031707 131.345492 
L 104.179883 131.345492 
L 104.179883 131.073213 
L 104.32806 131.073213 
L 104.32806 130.120236 
L 104.624412 130.120236 
L 104.624412 129.984097 
L 105.217118 129.984097 
L 105.217118 129.439539 
L 105.513471 129.439539 
L 105.513471 128.89498 
L 105.809824 128.89498 
L 105.809824 128.758841 
L 105.958 128.758841 
L 105.958 128.486562 
L 106.254353 128.486562 
L 106.254353 128.078143 
L 106.40253 128.078143 
L 106.40253 127.805864 
L 106.550706 127.805864 
L 106.550706 127.669724 
L 106.698882 127.669724 
L 106.847059 127.533585 
L 107.291588 127.533585 
L 107.291588 127.397445 
L 107.884294 126.716747 
L 107.884294 126.03605 
L 108.180647 126.03605 
L 108.328823 125.89991 
L 108.625176 125.89991 
L 108.625176 125.76377 
L 108.921529 125.76377 
L 108.921529 125.627631 
L 109.217882 125.627631 
L 109.217882 125.491491 
L 109.662411 125.491491 
L 109.662411 125.219212 
L 109.958764 125.219212 
L 109.958764 124.946933 
L 110.255117 124.946933 
L 110.255117 124.810794 
L 110.551469 124.810794 
L 110.551469 124.266235 
L 110.699646 124.130096 
L 110.995999 124.130096 
L 111.292352 123.857817 
L 111.885057 123.585537 
L 111.885057 123.449398 
L 112.625939 123.449398 
L 112.625939 122.90484 
L 112.774116 122.90484 
L 112.774116 122.7687 
L 113.070469 122.7687 
L 113.070469 122.632561 
L 113.663174 122.632561 
L 113.663174 122.496421 
L 113.811351 122.496421 
L 114.25588 122.224142 
L 114.25588 122.088002 
L 114.552233 122.088002 
L 114.552233 121.951863 
L 114.700409 121.951863 
L 114.700409 121.815723 
L 115.589468 121.815723 
L 115.589468 121.407305 
L 115.737644 121.407305 
L 115.737644 120.998886 
L 116.182174 120.998886 
L 116.182174 120.726607 
L 116.626703 120.726607 
L 116.626703 120.590467 
L 117.071232 120.590467 
L 117.071232 120.454328 
L 117.219409 120.454328 
L 117.219409 120.318188 
L 117.367585 120.318188 
L 117.663938 119.909769 
L 117.663938 119.501351 
L 117.812114 119.501351 
L 117.812114 119.365211 
L 118.40482 119.365211 
L 118.40482 119.092932 
L 118.701173 118.956792 
L 118.997526 118.956792 
L 118.997526 118.820653 
L 119.145702 118.820653 
L 119.145702 118.684513 
L 119.442055 118.684513 
L 119.442055 118.412234 
L 119.590231 118.139955 
L 120.034761 118.139955 
L 120.034761 116.64242 
L 120.182937 116.64242 
L 120.182937 116.234001 
L 120.331113 115.961722 
L 120.775643 115.961722 
L 121.220172 115.689443 
L 121.220172 114.872606 
L 121.812878 114.872606 
L 121.812878 114.600326 
L 123.590995 114.600326 
L 123.590995 114.191908 
L 123.887348 114.191908 
L 123.887348 114.055768 
L 124.1837 114.055768 
L 124.1837 113.919629 
L 124.480053 113.783489 
L 124.776406 113.783489 
L 124.776406 113.64735 
L 124.924583 113.64735 
L 124.924583 113.51121 
L 125.072759 113.51121 
L 125.220935 113.37507 
L 125.665465 113.37507 
L 125.813641 113.238931 
L 125.813641 112.830512 
L 125.961818 112.830512 
L 125.961818 112.694373 
L 127.147229 112.694373 
L 127.147229 112.558233 
L 127.591758 112.558233 
L 127.591758 112.422093 
L 128.33264 112.422093 
L 128.33264 112.285954 
L 128.480817 112.285954 
L 128.480817 112.149814 
L 128.77717 112.149814 
L 128.925346 112.013675 
L 129.518052 112.013675 
L 129.518052 111.877535 
L 130.110757 111.877535 
L 130.110757 111.741396 
L 130.555287 111.741396 
L 130.555287 111.605256 
L 130.85164 111.332977 
L 131.147992 111.332977 
L 131.147992 111.060698 
L 131.592522 111.060698 
L 131.592522 110.788419 
L 131.740698 110.788419 
L 131.740698 110.38 
L 131.888875 110.243861 
L 131.888875 109.835442 
L 132.037051 109.835442 
L 132.037051 109.563163 
L 132.48158 109.018604 
L 133.074286 109.018604 
L 133.074286 108.882465 
L 133.370639 108.882465 
L 133.370639 108.746325 
L 133.666992 108.746325 
L 133.666992 108.474046 
L 134.111521 108.474046 
L 134.111521 108.337907 
L 135.148756 108.337907 
L 135.148756 108.065628 
L 136.185991 108.065628 
L 136.185991 107.929488 
L 136.334167 107.521069 
L 136.778697 107.521069 
L 136.778697 107.24879 
L 137.075049 107.24879 
L 137.075049 107.112651 
L 137.815931 107.112651 
L 137.815931 106.840371 
L 139.001343 106.840371 
L 139.001343 106.568092 
L 139.594049 106.568092 
L 139.594049 106.023534 
L 140.186754 106.023534 
L 140.186754 105.751255 
L 141.372166 105.751255 
L 141.372166 105.615115 
L 142.113048 105.615115 
L 142.113048 105.206697 
L 142.261224 105.206697 
L 142.261224 105.070557 
L 142.85393 105.070557 
L 142.85393 104.798278 
L 143.150283 104.798278 
L 143.150283 104.662139 
L 143.446636 104.662139 
L 143.446636 104.525999 
L 144.187518 104.525999 
L 144.187518 104.11758 
L 144.483871 104.11758 
L 144.483871 103.981441 
L 144.632047 103.981441 
L 144.632047 103.845301 
L 144.9284 103.845301 
L 144.9284 103.436882 
L 145.224753 103.436882 
L 145.224753 103.300743 
L 145.372929 103.300743 
L 145.372929 103.164603 
L 145.817458 103.164603 
L 145.817458 102.892324 
L 145.965635 102.892324 
L 145.965635 102.620045 
L 146.261988 102.483906 
L 146.706517 102.483906 
L 146.706517 102.075487 
L 147.00287 101.939347 
L 147.00287 101.530929 
L 147.151046 101.530929 
L 147.151046 101.258649 
L 147.447399 101.258649 
L 147.447399 101.12251 
L 147.743752 101.12251 
L 147.743752 100.98637 
L 147.891928 100.98637 
L 147.891928 100.714091 
L 148.188281 100.714091 
L 148.188281 100.441812 
L 148.63281 100.441812 
L 148.63281 99.897254 
L 148.929163 99.897254 
L 149.07734 99.624975 
L 149.225516 99.624975 
L 149.225516 99.488835 
L 149.818222 99.488835 
L 149.818222 99.080417 
L 150.559104 99.080417 
L 150.559104 98.944277 
L 150.70728 98.944277 
L 150.70728 98.535858 
L 151.15181 98.535858 
L 151.15181 98.399719 
L 151.596339 97.9913 
L 151.596339 97.582881 
L 152.78175 97.582881 
L 152.78175 97.310602 
L 153.078103 97.310602 
L 153.078103 97.174463 
L 154.115338 97.174463 
L 154.115338 97.038323 
L 154.411691 97.038323 
L 154.708044 96.902184 
L 154.708044 96.766044 
L 155.152573 96.766044 
L 155.152573 96.629904 
L 156.189808 96.629904 
L 156.93069 96.221486 
L 156.93069 96.085346 
L 157.227043 96.085346 
L 157.227043 95.676927 
L 157.523396 95.676927 
L 157.523396 95.540788 
L 157.671572 95.540788 
L 158.116102 95.132369 
L 158.708807 94.86009 
L 159.153337 94.86009 
L 159.153337 94.587811 
L 159.449689 94.179392 
L 160.042395 94.179392 
L 160.042395 93.907113 
L 160.190572 93.907113 
L 160.486924 93.498694 
L 160.783277 93.362555 
L 161.524159 93.362555 
L 161.524159 93.226415 
L 161.968689 92.817997 
L 162.413218 92.817997 
L 162.709571 92.681857 
L 163.302276 92.273438 
L 163.598629 92.273438 
L 163.598629 92.137299 
L 164.043159 92.137299 
L 164.043159 91.72888 
L 164.191335 91.72888 
L 164.191335 91.592741 
L 164.487688 91.592741 
L 164.487688 91.456601 
L 164.635864 91.456601 
L 164.635864 91.320462 
L 164.784041 90.912043 
L 165.821276 90.912043 
L 165.821276 90.775903 
L 166.265805 90.775903 
L 166.265805 90.639764 
L 166.413981 90.639764 
L 166.413981 90.503624 
L 167.154863 90.503624 
L 167.154863 90.367485 
L 167.599393 90.367485 
L 167.599393 90.095205 
L 167.895746 90.095205 
L 167.895746 89.959066 
L 168.192098 89.959066 
L 168.192098 89.822926 
L 168.932981 89.822926 
L 169.229333 89.414508 
L 169.229333 89.006089 
L 169.37751 89.006089 
L 169.822039 88.869949 
L 169.822039 88.59767 
L 170.118392 88.59767 
L 170.118392 88.189252 
L 170.562921 88.189252 
L 171.155627 87.916972 
L 171.155627 87.780833 
L 171.45198 87.644693 
L 171.45198 87.508554 
L 171.748333 87.508554 
L 171.748333 86.963996 
L 171.896509 86.963996 
L 171.896509 86.827856 
L 172.192862 86.827856 
L 172.192862 86.691716 
L 172.489215 86.691716 
L 172.489215 86.555577 
L 173.52645 86.555577 
L 173.52645 86.011019 
L 174.267332 86.011019 
L 174.267332 85.6026 
L 174.415508 85.6026 
L 174.563685 85.330321 
L 175.452743 85.330321 
L 175.452743 85.194181 
L 175.60092 85.194181 
L 175.60092 85.058042 
L 176.638155 85.058042 
L 176.638155 84.921902 
L 176.934507 84.921902 
L 176.934507 84.513483 
L 177.23086 84.377344 
L 177.23086 84.105065 
L 177.379037 84.105065 
L 177.379037 83.968925 
L 177.527213 83.968925 
L 178.712625 82.879809 
L 179.157154 82.879809 
L 179.157154 82.743669 
L 179.601683 82.743669 
L 180.046212 82.199111 
L 180.194389 82.199111 
L 180.194389 82.062971 
L 181.083447 82.062971 
L 181.083447 81.654553 
L 181.3798 81.654553 
L 181.3798 81.518413 
L 181.527977 80.837715 
L 181.824329 80.565436 
L 182.120682 80.565436 
L 182.120682 80.429297 
L 182.268859 80.429297 
L 182.861564 79.748599 
L 183.306094 79.748599 
L 183.306094 79.612459 
L 184.195152 79.612459 
L 184.195152 79.47632 
L 184.491505 79.34018 
L 184.787858 79.204041 
L 185.084211 79.204041 
L 185.084211 78.795622 
L 185.232387 78.659482 
L 185.232387 78.387203 
L 185.380564 78.387203 
L 185.380564 78.251064 
L 185.676916 78.251064 
L 185.676916 78.114924 
L 186.121446 78.114924 
L 186.121446 77.978785 
L 186.714151 77.978785 
L 186.714151 77.842645 
L 187.751386 77.842645 
L 188.195916 77.434226 
L 188.640445 77.434226 
L 188.936798 77.025808 
L 188.936798 76.889668 
L 190.714915 76.889668 
L 190.714915 76.617389 
L 191.011268 76.617389 
L 191.011268 76.481249 
L 191.159444 76.481249 
L 191.159444 76.34511 
L 191.307621 76.34511 
L 191.307621 76.20897 
L 191.603973 76.20897 
L 191.603973 75.800552 
L 191.75215 75.800552 
L 192.048503 75.255993 
L 192.196679 75.255993 
L 192.196679 75.119854 
L 193.085738 75.119854 
L 193.085738 74.983714 
L 193.233914 74.983714 
L 193.530267 74.847575 
L 194.715678 74.847575 
L 194.715678 74.711435 
L 194.863855 74.711435 
L 194.863855 74.575296 
L 195.012031 74.575296 
L 195.012031 74.439156 
L 195.604737 74.439156 
L 197.679207 72.397063 
L 199.753677 72.124783 
L 199.753677 71.988644 
L 199.901853 71.580225 
L 201.531794 71.580225 
L 201.531794 71.444086 
L 202.420852 71.035667 
L 203.309911 71.035667 
L 204.643499 69.94655 
L 205.977087 69.94655 
L 205.977087 69.810411 
L 206.273439 69.810411 
L 206.717969 69.538132 
L 207.310674 69.538132 
L 207.458851 68.993574 
L 208.347909 68.993574 
L 208.347909 68.857434 
L 208.644262 68.585155 
L 209.088792 68.585155 
L 209.088792 68.312876 
L 209.385144 68.312876 
L 209.533321 68.176736 
L 209.829674 68.176736 
L 210.274203 68.040597 
L 210.274203 67.904457 
L 210.422379 67.904457 
L 210.422379 67.768317 
L 210.718732 67.768317 
L 211.163261 67.496038 
L 211.607791 67.223759 
L 211.607791 66.815341 
L 212.200496 66.815341 
L 212.200496 66.679201 
L 212.348673 66.679201 
L 212.496849 66.406922 
L 212.645026 66.406922 
L 212.645026 66.270782 
L 214.719496 64.773247 
L 216.053083 64.773247 
L 217.683024 64.500968 
L 217.683024 64.228689 
L 218.423906 64.092549 
L 219.312965 63.95641 
L 219.312965 63.82027 
L 219.609318 63.684131 
L 220.053847 63.684131 
L 220.053847 63.547991 
L 220.3502 63.547991 
L 220.3502 63.411852 
L 220.794729 63.411852 
L 221.091082 63.275712 
L 221.831964 63.275712 
L 221.831964 62.867293 
L 222.128317 62.867293 
L 222.128317 62.731154 
L 222.869199 62.731154 
L 222.869199 62.458875 
L 223.313728 62.186595 
L 224.05461 62.186595 
L 224.05461 62.050456 
L 224.49914 62.050456 
L 224.49914 61.914316 
L 224.795492 61.914316 
L 225.091845 61.778177 
L 225.091845 61.369758 
L 225.388198 61.369758 
L 225.980904 61.233619 
L 225.980904 61.097479 
L 227.610845 61.097479 
L 227.759021 60.961339 
L 227.759021 60.68906 
L 228.351727 60.68906 
L 228.351727 60.552921 
L 228.499903 60.552921 
L 228.499903 60.280642 
L 229.537138 60.280642 
L 229.537138 60.144502 
L 229.685314 60.144502 
L 229.685314 60.008362 
L 229.833491 60.008362 
L 229.833491 59.872223 
L 230.27802 59.872223 
L 230.574373 59.736083 
L 230.574373 58.783106 
L 231.167079 58.783106 
L 231.167079 58.510827 
L 231.315255 58.510827 
L 231.315255 58.374688 
L 232.35249 58.374688 
L 232.35249 58.102409 
L 232.945196 58.102409 
L 232.945196 57.966269 
L 234.871489 57.966269 
L 234.871489 57.69399 
L 235.019666 57.69399 
L 235.019666 57.55785 
L 235.316019 57.421711 
L 235.760548 57.421711 
L 235.760548 57.285571 
L 237.983194 57.285571 
L 237.983194 56.877153 
L 238.724076 56.877153 
L 238.724076 56.604873 
L 239.168606 56.604873 
L 239.168606 56.468734 
L 240.057664 56.468734 
L 240.057664 56.332594 
L 240.65037 56.332594 
L 240.65037 56.196455 
L 240.946723 55.788036 
L 241.687605 55.788036 
L 241.687605 55.651897 
L 242.280311 55.651897 
L 242.280311 55.515757 
L 243.169369 55.515757 
L 243.169369 55.379617 
L 243.317546 55.379617 
L 243.317546 55.243478 
L 244.058428 55.243478 
L 244.058428 55.107338 
L 244.651133 55.107338 
L 244.651133 54.971199 
L 244.79931 54.971199 
L 244.79931 54.835059 
L 246.87378 54.835059 
L 247.021956 54.69892 
L 248.207368 54.69892 
L 248.207368 54.56278 
L 248.651897 54.56278 
L 248.94825 54.42664 
L 250.133661 54.42664 
L 250.133661 54.290501 
L 250.430014 54.290501 
L 250.430014 54.154361 
L 250.726367 54.154361 
L 250.726367 53.882082 
L 252.949013 53.882082 
L 252.949013 53.745943 
L 253.245366 53.745943 
L 253.245366 53.473664 
L 253.689895 53.473664 
L 253.689895 53.337524 
L 254.134424 52.929105 
L 255.023483 52.929105 
L 255.023483 52.792966 
L 255.319836 52.792966 
L 255.319836 52.384547 
L 255.764365 52.384547 
L 255.764365 52.248407 
L 256.949777 52.248407 
L 256.949777 52.112268 
L 257.246129 52.112268 
L 257.246129 51.976128 
L 257.690659 51.976128 
L 257.690659 51.839989 
L 258.283364 51.839989 
L 258.431541 51.703849 
L 258.87607 51.703849 
L 258.87607 51.56771 
L 259.468776 51.56771 
L 259.468776 51.159291 
L 260.357834 51.159291 
L 260.357834 51.023151 
L 261.098716 51.023151 
L 261.098716 50.887012 
L 261.246893 50.887012 
L 261.246893 50.750872 
L 261.543246 50.750872 
L 261.543246 50.614733 
L 261.839599 50.614733 
L 262.432304 50.342454 
L 262.728657 50.342454 
L 262.728657 50.206314 
L 263.321363 50.206314 
L 263.617716 50.070175 
L 264.210421 50.070175 
L 264.210421 49.934035 
L 265.09948 49.934035 
L 265.09948 49.797895 
L 266.729421 49.797895 
L 266.729421 49.661756 
L 267.17395 49.661756 
L 267.17395 49.525616 
L 268.063008 49.525616 
L 268.063008 49.389477 
L 268.952067 49.389477 
L 268.952067 49.253337 
L 269.544773 49.117198 
L 270.137478 49.117198 
L 271.32289 48.981058 
L 272.95283 48.981058 
L 272.95283 48.844918 
L 273.990065 48.844918 
L 273.990065 48.572639 
L 274.879124 48.572639 
L 274.879124 48.4365 
L 277.249947 48.4365 
L 277.249947 48.30036 
L 277.5463 48.30036 
L 277.5463 48.164221 
L 277.990829 48.164221 
L 278.287182 47.891942 
L 279.028064 47.891942 
L 279.620769 47.619662 
L 280.361652 47.483523 
L 282.584298 47.483523 
L 282.732474 47.211244 
L 283.32518 47.211244 
L 283.32518 47.075104 
L 283.473356 47.075104 
L 283.621533 46.938965 
L 283.917886 46.938965 
L 283.917886 46.802825 
L 284.214239 46.802825 
L 284.214239 46.666685 
L 284.510591 46.666685 
L 284.510591 46.530546 
L 287.918649 46.530546 
L 287.918649 46.394406 
L 288.511355 46.394406 
L 288.511355 46.258267 
L 289.54859 46.258267 
L 289.696766 46.122127 
L 291.030354 46.122127 
L 291.030354 45.849848 
L 291.771236 45.849848 
L 291.771236 45.713709 
L 292.067589 45.713709 
L 292.067589 45.577569 
L 292.363942 45.577569 
L 292.363942 45.441429 
L 293.401177 45.441429 
L 293.401177 45.30529 
L 293.845706 45.30529 
L 293.845706 45.16915 
L 294.586588 45.16915 
L 294.586588 44.896871 
L 294.882941 44.896871 
L 294.882941 44.760732 
L 295.031118 44.760732 
L 295.031118 44.624592 
L 295.179294 44.624592 
L 295.179294 44.352313 
L 296.068353 44.352313 
L 296.068353 44.216173 
L 297.40194 44.216173 
L 297.40194 44.080034 
L 297.994646 44.080034 
L 297.994646 43.943894 
L 301.847233 43.943894 
L 301.847233 43.807755 
L 301.99541 43.807755 
L 302.143586 43.671615 
L 303.180821 43.671615 
L 303.328997 43.535476 
L 304.218056 43.535476 
L 304.218056 43.399336 
L 304.514409 43.399336 
L 304.958938 42.990917 
L 305.847997 42.990917 
L 305.996173 42.854778 
L 306.885231 42.854778 
L 307.033408 42.718638 
L 307.477937 42.718638 
L 307.477937 42.582499 
L 308.515172 42.582499 
L 308.515172 42.446359 
L 310.145113 42.446359 
L 310.145113 42.31022 
L 311.478701 42.31022 
L 311.478701 42.17408 
L 313.553171 42.17408 
L 313.553171 42.03794 
L 315.479464 42.03794 
L 315.627641 41.901801 
L 317.998463 41.901801 
L 318.14664 41.765661 
L 319.035698 41.765661 
L 319.035698 41.629522 
L 319.628404 41.629522 
L 319.628404 41.493382 
L 320.22111 41.493382 
L 320.22111 41.357243 
L 320.369286 41.357243 
L 320.369286 41.221103 
L 320.665639 41.221103 
L 320.665639 41.084963 
L 326.889049 41.084963 
L 326.889049 40.540405 
L 327.333578 40.540405 
L 327.333578 40.404266 
L 327.481754 40.404266 
L 327.481754 40.268126 
L 328.370813 40.268126 
L 328.370813 40.131987 
L 329.259872 40.131987 
L 329.259872 39.995847 
L 329.556224 39.995847 
L 329.556224 39.723568 
L 330.741636 39.723568 
L 330.741636 39.587428 
L 330.889812 39.587428 
L 330.889812 39.451289 
L 332.371576 39.451289 
L 332.371576 39.315149 
L 333.853341 39.315149 
L 333.853341 39.17901 
L 334.29787 39.17901 
L 334.29787 39.04287 
L 334.742399 39.04287 
L 334.742399 38.906731 
L 336.075987 38.906731 
L 336.075987 38.770591 
L 337.854104 38.770591 
L 337.854104 38.634451 
L 339.780398 38.634451 
L 339.780398 38.498312 
L 340.52128 38.498312 
L 340.669456 38.362172 
L 344.22569 38.362172 
L 344.22569 38.226033 
L 346.003807 38.226033 
L 346.003807 38.089893 
L 346.596513 38.089893 
L 346.596513 37.953754 
L 346.892866 37.953754 
L 346.892866 37.817614 
L 348.37463 37.817614 
L 348.37463 37.681474 
L 348.81916 37.681474 
L 348.81916 37.545335 
L 349.708218 37.545335 
L 349.708218 37.409195 
L 352.52357 37.409195 
L 352.52357 37.273056 
L 352.968099 37.273056 
L 352.968099 37.000777 
L 353.116276 37.000777 
L 353.116276 36.864637 
L 353.264452 36.728498 
L 355.487099 36.728498 
L 355.487099 36.592358 
L 355.931628 36.592358 
L 356.376157 36.456218 
L 358.74698 36.456218 
L 358.74698 36.320079 
L 359.487862 36.320079 
L 359.487862 36.183939 
L 361.562332 36.183939 
L 361.562332 35.91166 
L 367.637565 35.91166 
L 367.637565 35.775521 
L 368.230271 35.775521 
L 368.6748 35.503241 
L 370.156565 35.503241 
L 370.156565 35.367102 
L 370.74927 35.367102 
L 370.74927 35.230962 
L 370.897447 35.230962 
L 370.897447 35.094823 
L 374.453681 35.094823 
L 374.453681 34.958683 
L 374.750034 34.958683 
L 374.89821 34.686404 
L 377.120857 34.686404 
L 377.269033 34.550265 
L 381.862502 34.550265 
L 381.862502 34.414125 
L 386.604148 34.414125 
L 386.604148 34.414125 
" clip-path="url(#p1d6bca034e)" style="fill: none; stroke: #1f77b4; stroke-width: 1.5; stroke-linecap: square"/>
   </g>
   <g id="line2d_26">
    <path d="M 61.949602 276.334125 
L 61.949602 195.394348 
L 62.239731 195.394348 
L 62.239731 193.595686 
L 62.529861 193.595686 
L 62.529861 189.099032 
L 63.255184 189.099032 
L 63.255184 188.199701 
L 63.400248 188.199701 
L 63.400248 184.602378 
L 63.690377 184.602378 
L 63.690377 183.703047 
L 63.835442 183.703047 
L 63.835442 181.904385 
L 63.980506 181.904385 
L 63.980506 180.105724 
L 64.125571 180.105724 
L 64.125571 177.407731 
L 64.270636 177.407731 
L 64.270636 176.5084 
L 64.4157 176.5084 
L 64.560765 175.609069 
L 64.560765 174.709738 
L 64.705829 174.709738 
L 64.705829 173.810408 
L 65.141023 173.810408 
L 65.141023 171.112415 
L 65.286088 171.112415 
L 65.286088 169.313753 
L 66.156475 169.313753 
L 66.30154 168.414422 
L 66.881798 168.414422 
L 66.881798 165.71643 
L 67.026863 165.71643 
L 67.026863 163.917768 
L 67.462057 163.917768 
L 67.607121 163.018437 
L 67.89725 163.018437 
L 67.89725 162.119106 
L 68.042315 162.119106 
L 68.042315 161.219776 
L 68.477509 161.219776 
L 68.477509 159.421114 
L 68.912702 159.421114 
L 68.912702 158.521783 
L 69.492961 158.521783 
L 69.638025 156.723121 
L 70.508413 156.723121 
L 70.508413 155.82379 
L 70.943607 155.82379 
L 70.943607 154.92446 
L 71.233736 154.92446 
L 71.3788 154.025129 
L 71.3788 153.125798 
L 71.66893 153.125798 
L 71.66893 152.226467 
L 71.959059 152.226467 
L 71.959059 151.327136 
L 72.249188 151.327136 
L 72.249188 150.427805 
L 72.394253 150.427805 
L 72.394253 149.528474 
L 72.539317 149.528474 
L 72.539317 145.931151 
L 72.684382 145.931151 
L 72.684382 145.03182 
L 73.26464 145.03182 
L 73.26464 144.132489 
L 73.844898 144.132489 
L 73.844898 143.233158 
L 74.715286 143.233158 
L 74.715286 142.333828 
L 75.005415 142.333828 
L 75.005415 141.434497 
L 75.585673 141.434497 
L 75.585673 140.535166 
L 76.601126 140.535166 
L 76.601126 139.635835 
L 77.471513 139.635835 
L 77.471513 138.736504 
L 78.051771 138.736504 
L 78.051771 137.837173 
L 78.922159 137.837173 
L 78.922159 136.937842 
L 79.212288 136.937842 
L 79.212288 136.038512 
L 79.937611 136.038512 
L 79.937611 135.139181 
L 80.372805 135.139181 
L 80.372805 134.23985 
L 80.662934 134.23985 
L 80.662934 133.340519 
L 80.807999 133.340519 
L 80.807999 132.441188 
L 80.953063 132.441188 
L 81.098128 130.642526 
L 81.678386 129.743196 
L 81.678386 128.843865 
L 81.968515 128.843865 
L 81.968515 127.944534 
L 82.11358 127.944534 
L 82.258644 127.045203 
L 83.999419 127.045203 
L 83.999419 126.145872 
L 84.869807 126.145872 
L 84.869807 125.246541 
L 85.740195 125.246541 
L 85.740195 124.347211 
L 86.030324 124.347211 
L 86.030324 123.44788 
L 86.320453 123.44788 
L 86.320453 122.548549 
L 86.755647 122.548549 
L 86.755647 121.649218 
L 87.19084 121.649218 
L 87.19084 120.749887 
L 87.626034 120.749887 
L 87.626034 119.850556 
L 88.351357 119.850556 
L 88.351357 118.951225 
L 90.96252 118.951225 
L 90.96252 118.051895 
L 91.252649 118.051895 
L 91.252649 117.152564 
L 91.542778 117.152564 
L 91.542778 116.253233 
L 92.268101 116.253233 
L 92.268101 113.55524 
L 92.703295 113.55524 
L 92.703295 112.655909 
L 93.428618 112.655909 
L 93.428618 111.756579 
L 93.573682 111.756579 
L 93.573682 110.857248 
L 94.299005 110.857248 
L 94.299005 109.957917 
L 96.620039 109.957917 
L 96.620039 109.058586 
L 97.345361 109.058586 
L 97.345361 107.259924 
L 97.780555 107.259924 
L 97.780555 106.360593 
L 98.650943 106.360593 
L 98.650943 105.461263 
L 98.941072 105.461263 
L 98.941072 104.561932 
L 99.956524 104.561932 
L 99.956524 102.76327 
L 101.697299 102.76327 
L 101.697299 101.863939 
L 103.147945 101.863939 
L 103.147945 100.065277 
L 105.904172 100.065277 
L 105.904172 99.165947 
L 108.515335 99.165947 
L 108.515335 98.266616 
L 110.111045 98.266616 
L 110.111045 96.467954 
L 110.981433 96.467954 
L 110.981433 94.669292 
L 111.271562 94.669292 
L 111.271562 93.769961 
L 113.012337 93.769961 
L 113.012337 92.870631 
L 113.592595 92.870631 
L 113.592595 91.9713 
L 114.753112 91.9713 
L 114.753112 91.071969 
L 115.188306 91.071969 
L 115.188306 90.172638 
L 115.768564 90.172638 
L 115.768564 89.273307 
L 116.493887 89.273307 
L 116.638952 88.373976 
L 117.21921 88.373976 
L 117.21921 87.474645 
L 122.876729 87.474645 
L 122.876729 86.575315 
L 124.327375 86.575315 
L 124.327375 85.675984 
L 127.373731 85.675984 
L 127.373731 84.776653 
L 127.808925 84.776653 
L 127.808925 83.877322 
L 129.114506 83.877322 
L 129.114506 82.977991 
L 129.259571 82.977991 
L 129.259571 82.07866 
L 130.710216 82.07866 
L 130.710216 81.179329 
L 131.580604 81.179329 
L 131.580604 80.279999 
L 135.497348 80.279999 
L 135.497348 78.481337 
L 135.642412 78.481337 
L 135.642412 77.582006 
L 135.932542 77.582006 
L 135.932542 76.682675 
L 141.009802 76.682675 
L 141.009802 75.783344 
L 142.605513 75.783344 
L 142.605513 74.884013 
L 144.201223 74.884013 
L 144.201223 73.984683 
L 148.263031 73.984683 
L 148.263031 73.085352 
L 152.905098 73.085352 
L 152.905098 72.186021 
L 155.80639 72.186021 
L 155.80639 71.28669 
L 158.127423 71.28669 
L 158.127423 70.387359 
L 166.105976 70.387359 
L 166.105976 69.488028 
L 169.73259 69.488028 
L 169.73259 68.588697 
L 171.038172 68.588697 
L 171.038172 67.689367 
L 171.183236 67.689367 
L 171.183236 66.790036 
L 178.436466 66.790036 
L 178.436466 65.890705 
L 183.368661 65.890705 
L 183.513726 64.991374 
L 184.239049 64.991374 
L 184.384114 64.092043 
L 186.124889 64.092043 
L 186.560082 63.192712 
L 186.705147 62.293382 
L 186.705147 61.394051 
L 189.31631 61.394051 
L 189.31631 60.49472 
L 189.896568 60.49472 
L 189.896568 59.595389 
L 194.828764 59.595389 
L 194.828764 58.696058 
L 197.149797 58.696058 
L 197.149797 57.796727 
L 197.294862 57.796727 
L 197.294862 56.897396 
L 199.76096 56.897396 
L 199.76096 55.998066 
L 204.693156 55.998066 
L 204.693156 55.098735 
L 205.853672 55.098735 
L 205.853672 54.199404 
L 206.143802 54.199404 
L 206.143802 53.300073 
L 208.029641 53.300073 
L 208.029641 52.400742 
L 210.495739 52.400742 
L 210.495739 51.501411 
L 215.282871 51.501411 
L 215.282871 50.60208 
L 215.863129 50.60208 
L 215.863129 49.70275 
L 216.298323 49.70275 
L 216.298323 48.803419 
L 217.603904 48.803419 
L 217.603904 47.904088 
L 218.184162 47.904088 
L 218.184162 47.004757 
L 225.437392 47.004757 
L 225.582456 46.105426 
L 227.61336 46.105426 
L 227.61336 45.206095 
L 242.845142 45.206095 
L 242.845142 44.306764 
L 248.212532 44.306764 
L 248.212532 43.407434 
L 252.854599 43.407434 
L 252.854599 42.508103 
L 254.885503 42.508103 
L 254.885503 41.608772 
L 261.413409 41.608772 
L 261.413409 40.709441 
L 265.185089 40.709441 
L 265.185089 39.81011 
L 275.629739 39.81011 
L 275.629739 38.910779 
L 289.26581 38.910779 
L 289.26581 38.011448 
L 297.824621 38.011448 
L 297.824621 37.112118 
L 308.994594 37.112118 
L 308.994594 36.212787 
L 328.578313 36.212787 
L 328.578313 35.313456 
L 350.047872 35.313456 
L 350.047872 34.414125 
L 386.604148 34.414125 
L 386.604148 34.414125 
" clip-path="url(#p1d6bca034e)" style="fill: none; stroke: #ff7f0e; stroke-width: 1.5; stroke-linecap: square"/>
   </g>
   <g id="line2d_27">
    <path d="M 61.949602 276.334125 
L 61.949602 246.624651 
L 62.275234 246.624651 
L 62.275234 216.915178 
L 62.600865 216.915178 
L 62.600865 212.670967 
L 62.926497 212.670967 
L 62.926497 208.426757 
L 63.903391 208.426757 
L 63.903391 204.182546 
L 65.205917 204.182546 
L 65.205917 199.938336 
L 65.531548 199.938336 
L 65.531548 195.694125 
L 66.508442 195.694125 
L 66.508442 187.205704 
L 68.1366 187.205704 
L 68.1366 182.961493 
L 69.113494 182.961493 
L 69.113494 178.717283 
L 70.741651 178.717283 
L 70.741651 174.473072 
L 71.718545 174.473072 
L 71.718545 170.228862 
L 76.277386 170.228862 
L 76.277386 165.984651 
L 77.905543 165.984651 
L 77.905543 161.740441 
L 78.231174 161.740441 
L 78.556806 157.49623 
L 80.184963 157.49623 
L 80.184963 153.25202 
L 80.510594 153.25202 
L 80.510594 149.007809 
L 81.81312 149.007809 
L 81.81312 144.763599 
L 82.790014 144.763599 
L 82.790014 140.519388 
L 85.720697 140.519388 
L 85.720697 132.030967 
L 87.674486 132.030967 
L 87.674486 127.786757 
L 88.000117 127.786757 
L 88.000117 123.542546 
L 89.628275 123.542546 
L 89.628275 119.298336 
L 91.907695 119.298336 
L 91.907695 115.054125 
L 92.233326 115.054125 
L 92.233326 110.809914 
L 96.140903 110.809914 
L 96.140903 106.565704 
L 98.094692 106.565704 
L 98.094692 102.321493 
L 99.397218 102.321493 
L 99.397218 93.833072 
L 101.351006 93.833072 
L 101.351006 89.588862 
L 102.327901 89.588862 
L 102.327901 85.344651 
L 105.258584 85.344651 
L 105.258584 81.100441 
L 114.701896 81.100441 
L 114.701896 76.85623 
L 116.004421 76.85623 
L 116.004421 72.61202 
L 125.447733 72.61202 
L 125.447733 68.367809 
L 141.729305 68.367809 
L 141.729305 64.123599 
L 154.1033 64.123599 
L 154.1033 59.879388 
L 167.128557 59.879388 
L 167.128557 55.635178 
L 179.828183 55.635178 
L 180.153815 51.390967 
L 243.326314 51.390967 
L 243.326314 47.146757 
L 266.446146 47.146757 
L 266.446146 42.902546 
L 318.872808 42.902546 
L 318.872808 38.658336 
L 344.923323 38.658336 
L 344.923323 34.414125 
L 386.604148 34.414125 
L 386.604148 34.414125 
" clip-path="url(#p1d6bca034e)" style="fill: none; stroke: #2ca02c; stroke-width: 1.5; stroke-linecap: square"/>
   </g>
   <g id="line2d_28">
    <path d="M 61.949602 276.334125 
L 61.949602 209.924713 
L 66.297654 209.924713 
L 66.297654 203.995301 
L 67.747005 203.995301 
L 67.747005 202.809419 
L 69.196356 201.623537 
L 69.196356 196.880007 
L 72.095057 196.880007 
L 72.095057 194.508243 
L 73.544407 194.508243 
L 73.544407 193.32236 
L 74.993758 193.32236 
L 74.993758 183.835301 
L 77.892459 183.835301 
L 77.892459 180.277654 
L 80.791161 180.277654 
L 80.791161 175.534125 
L 82.240511 175.534125 
L 82.240511 173.16236 
L 85.139213 173.16236 
L 85.139213 171.976478 
L 90.936615 171.976478 
L 90.936615 169.604713 
L 93.835317 169.604713 
L 93.835317 160.117654 
L 101.08207 160.117654 
L 101.08207 158.931772 
L 102.53142 158.931772 
L 102.53142 154.188243 
L 103.980771 154.188243 
L 103.980771 150.630596 
L 106.879472 150.630596 
L 106.879472 149.444713 
L 109.778174 149.444713 
L 109.778174 148.258831 
L 111.227524 148.258831 
L 111.227524 143.515301 
L 114.126226 143.515301 
L 114.126226 138.771772 
L 115.575576 138.771772 
L 115.575576 137.58589 
L 117.024927 136.400007 
L 117.024927 132.84236 
L 118.474278 132.84236 
L 118.474278 130.470596 
L 119.923628 130.470596 
L 119.923628 129.284713 
L 121.372979 129.284713 
L 121.372979 126.912949 
L 122.82233 126.912949 
L 122.82233 119.797654 
L 128.619732 119.797654 
L 128.619732 118.611772 
L 132.967784 118.611772 
L 132.967784 111.496478 
L 134.417135 111.496478 
L 134.417135 107.938831 
L 137.315836 106.752949 
L 137.315836 104.381184 
L 138.765187 104.381184 
L 138.765187 103.195301 
L 140.214537 103.195301 
L 140.214537 102.009419 
L 154.708044 102.009419 
L 156.157394 100.823537 
L 160.505446 100.823537 
L 160.505446 99.637654 
L 161.954797 99.637654 
L 161.954797 98.451772 
L 167.7522 98.451772 
L 167.7522 97.26589 
L 183.695057 97.26589 
L 183.695057 96.080007 
L 185.144407 96.080007 
L 185.144407 93.708243 
L 189.492459 93.708243 
L 189.492459 92.52236 
L 190.94181 92.52236 
L 190.94181 90.150596 
L 192.391161 90.150596 
L 192.391161 88.964713 
L 199.637914 88.964713 
L 199.637914 85.407066 
L 201.087265 85.407066 
L 201.087265 84.221184 
L 203.985966 84.221184 
L 203.985966 83.035301 
L 206.884667 83.035301 
L 206.884667 80.663537 
L 214.13142 80.663537 
L 214.13142 79.477654 
L 217.030122 79.477654 
L 217.030122 78.291772 
L 218.479472 78.291772 
L 218.479472 75.920007 
L 219.928823 75.920007 
L 219.928823 71.176478 
L 222.827524 71.176478 
L 222.827524 68.804713 
L 232.972979 68.804713 
L 232.972979 67.618831 
L 241.669083 67.618831 
L 241.669083 66.432949 
L 244.567784 66.432949 
L 244.567784 62.875301 
L 247.466485 62.875301 
L 247.466485 61.689419 
L 250.365187 61.689419 
L 250.365187 59.317654 
L 251.814537 59.317654 
L 251.814537 56.94589 
L 257.61194 56.94589 
L 257.61194 55.760007 
L 261.959992 55.760007 
L 261.959992 54.574125 
L 267.757394 54.574125 
L 267.757394 52.20236 
L 270.656096 52.20236 
L 270.656096 49.830596 
L 285.149602 49.830596 
L 285.149602 48.644713 
L 289.497654 48.644713 
L 289.497654 47.458831 
L 293.845706 47.458831 
L 293.845706 45.087066 
L 301.092459 45.087066 
L 301.092459 42.715301 
L 311.237914 42.715301 
L 311.237914 41.529419 
L 318.484667 41.529419 
L 318.484667 40.343537 
L 322.832719 40.343537 
L 322.832719 39.157654 
L 331.528823 39.157654 
L 331.528823 37.971772 
L 338.775576 37.971772 
L 338.775576 36.78589 
L 357.617135 36.78589 
L 357.617135 34.414125 
L 386.604148 34.414125 
L 386.604148 34.414125 
" clip-path="url(#p1d6bca034e)" style="fill: none; stroke: #d62728; stroke-width: 1.5; stroke-linecap: square"/>
   </g>
   <g id="line2d_29">
    <path d="M 61.949602 276.334125 
L 61.949602 256.174125 
L 61.949602 175.534125 
L 63.024617 175.534125 
L 63.024617 155.374125 
L 70.549723 155.374125 
L 70.549723 135.214125 
L 75.924798 135.214125 
L 76.999813 115.054125 
L 76.999813 94.894125 
L 80.224858 94.894125 
L 82.374888 94.894125 
L 85.599933 94.894125 
L 85.599933 74.734125 
L 94.200054 74.734125 
L 94.200054 54.574125 
L 96.350084 54.574125 
L 96.350084 34.414125 
L 104.950204 34.414125 
L 108.175249 34.414125 
L 109.250265 34.414125 
L 111.400295 34.414125 
L 125.37549 34.414125 
L 127.52552 34.414125 
L 158.700957 34.414125 
L 160.850987 34.414125 
L 173.751168 34.414125 
L 175.901198 34.414125 
L 186.651348 34.414125 
L 188.801378 34.414125 
L 261.902402 34.414125 
L 264.052432 34.414125 
L 381.229072 34.414125 
L 385.529133 34.414125 
L 386.604148 34.414125 
" clip-path="url(#p1d6bca034e)" style="fill: none; stroke: #9467bd; stroke-width: 1.5; stroke-linecap: square"/>
   </g>
   <g id="line2d_30">
    <path d="M 61.949602 276.334125 
L 61.949602 212.670967 
L 62.608131 212.670967 
L 62.608131 199.938336 
L 62.82764 199.938336 
L 62.82764 187.205704 
L 63.04715 187.205704 
L 63.04715 174.473072 
L 65.461754 174.473072 
L 65.461754 161.740441 
L 66.120283 161.740441 
L 66.120283 149.007809 
L 68.095868 149.007809 
L 68.095868 136.275178 
L 69.193416 136.275178 
L 69.193416 123.542546 
L 70.290963 123.542546 
L 70.290963 110.809914 
L 75.339682 110.809914 
L 75.339682 98.077283 
L 82.803004 98.077283 
L 82.803004 85.344651 
L 92.022403 85.344651 
L 92.022403 72.61202 
L 96.193084 72.61202 
L 96.193084 59.879388 
L 130.875584 59.879388 
L 130.875584 47.146757 
L 209.240474 47.146757 
L 209.240474 34.414125 
L 386.604148 34.414125 
L 386.604148 34.414125 
" clip-path="url(#p1d6bca034e)" style="fill: none; stroke: #8c564b; stroke-width: 1.5; stroke-linecap: square"/>
   </g>
   <g id="line2d_31">
    <path d="M 61.949602 276.334125 
L 386.604148 34.414125 
" clip-path="url(#p1d6bca034e)" style="fill: none; stroke-dasharray: 7.4,3.2; stroke-dashoffset: 0; stroke: #808080; stroke-width: 2"/>
   </g>
   <g id="patch_3">
    <path d="M 45.716875 288.430125 
L 45.716875 22.318125 
" style="fill: none; stroke: #000000; stroke-width: 0.8; stroke-linejoin: miter; stroke-linecap: square"/>
   </g>
   <g id="patch_4">
    <path d="M 402.836875 288.430125 
L 402.836875 22.318125 
" style="fill: none; stroke: #000000; stroke-width: 0.8; stroke-linejoin: miter; stroke-linecap: square"/>
   </g>
   <g id="patch_5">
    <path d="M 45.716875 288.430125 
L 402.836875 288.430125 
" style="fill: none; stroke: #000000; stroke-width: 0.8; stroke-linejoin: miter; stroke-linecap: square"/>
   </g>
   <g id="patch_6">
    <path d="M 45.716875 22.318125 
L 402.836875 22.318125 
" style="fill: none; stroke: #000000; stroke-width: 0.8; stroke-linejoin: miter; stroke-linecap: square"/>
   </g>
   <g id="text_15">
    <!-- ROC Curve: Decision Tree Classifier -->
    <g transform="translate(118.41625 16.318125) scale(0.12 -0.12)">
     <defs>
      <path id="DejaVuSans-4f" d="M 2522 4238 
Q 1834 4238 1429 3725 
Q 1025 3213 1025 2328 
Q 1025 1447 1429 934 
Q 1834 422 2522 422 
Q 3209 422 3611 934 
Q 4013 1447 4013 2328 
Q 4013 3213 3611 3725 
Q 3209 4238 2522 4238 
z
M 2522 4750 
Q 3503 4750 4090 4092 
Q 4678 3434 4678 2328 
Q 4678 1225 4090 567 
Q 3503 -91 2522 -91 
Q 1538 -91 948 565 
Q 359 1222 359 2328 
Q 359 3434 948 4092 
Q 1538 4750 2522 4750 
z
" transform="scale(0.015625)"/>
      <path id="DejaVuSans-43" d="M 4122 4306 
L 4122 3641 
Q 3803 3938 3442 4084 
Q 3081 4231 2675 4231 
Q 1875 4231 1450 3742 
Q 1025 3253 1025 2328 
Q 1025 1406 1450 917 
Q 1875 428 2675 428 
Q 3081 428 3442 575 
Q 3803 722 4122 1019 
L 4122 359 
Q 3791 134 3420 21 
Q 3050 -91 2638 -91 
Q 1578 -91 968 557 
Q 359 1206 359 2328 
Q 359 3453 968 4101 
Q 1578 4750 2638 4750 
Q 3056 4750 3426 4639 
Q 3797 4528 4122 4306 
z
" transform="scale(0.015625)"/>
      <path id="DejaVuSans-3a" d="M 750 794 
L 1409 794 
L 1409 0 
L 750 0 
L 750 794 
z
M 750 3309 
L 1409 3309 
L 1409 2516 
L 750 2516 
L 750 3309 
z
" transform="scale(0.015625)"/>
      <path id="DejaVuSans-44" d="M 1259 4147 
L 1259 519 
L 2022 519 
Q 2988 519 3436 956 
Q 3884 1394 3884 2338 
Q 3884 3275 3436 3711 
Q 2988 4147 2022 4147 
L 1259 4147 
z
M 628 4666 
L 1925 4666 
Q 3281 4666 3915 4102 
Q 4550 3538 4550 2338 
Q 4550 1131 3912 565 
Q 3275 0 1925 0 
L 628 0 
L 628 4666 
z
" transform="scale(0.015625)"/>
      <path id="DejaVuSans-63" d="M 3122 3366 
L 3122 2828 
Q 2878 2963 2633 3030 
Q 2388 3097 2138 3097 
Q 1578 3097 1268 2742 
Q 959 2388 959 1747 
Q 959 1106 1268 751 
Q 1578 397 2138 397 
Q 2388 397 2633 464 
Q 2878 531 3122 666 
L 3122 134 
Q 2881 22 2623 -34 
Q 2366 -91 2075 -91 
Q 1284 -91 818 406 
Q 353 903 353 1747 
Q 353 2603 823 3093 
Q 1294 3584 2113 3584 
Q 2378 3584 2631 3529 
Q 2884 3475 3122 3366 
z
" transform="scale(0.015625)"/>
      <path id="DejaVuSans-6e" d="M 3513 2113 
L 3513 0 
L 2938 0 
L 2938 2094 
Q 2938 2591 2744 2837 
Q 2550 3084 2163 3084 
Q 1697 3084 1428 2787 
Q 1159 2491 1159 1978 
L 1159 0 
L 581 0 
L 581 3500 
L 1159 3500 
L 1159 2956 
Q 1366 3272 1645 3428 
Q 1925 3584 2291 3584 
Q 2894 3584 3203 3211 
Q 3513 2838 3513 2113 
z
" transform="scale(0.015625)"/>
      <path id="DejaVuSans-66" d="M 2375 4863 
L 2375 4384 
L 1825 4384 
Q 1516 4384 1395 4259 
Q 1275 4134 1275 3809 
L 1275 3500 
L 2222 3500 
L 2222 3053 
L 1275 3053 
L 1275 0 
L 697 0 
L 697 3053 
L 147 3053 
L 147 3500 
L 697 3500 
L 697 3744 
Q 697 4328 969 4595 
Q 1241 4863 1831 4863 
L 2375 4863 
z
" transform="scale(0.015625)"/>
     </defs>
     <use xlink:href="#DejaVuSans-52"/>
     <use xlink:href="#DejaVuSans-4f" x="69.482422"/>
     <use xlink:href="#DejaVuSans-43" x="148.193359"/>
     <use xlink:href="#DejaVuSans-20" x="218.017578"/>
     <use xlink:href="#DejaVuSans-43" x="249.804688"/>
     <use xlink:href="#DejaVuSans-75" x="319.628906"/>
     <use xlink:href="#DejaVuSans-72" x="383.007812"/>
     <use xlink:href="#DejaVuSans-76" x="424.121094"/>
     <use xlink:href="#DejaVuSans-65" x="483.300781"/>
     <use xlink:href="#DejaVuSans-3a" x="544.824219"/>
     <use xlink:href="#DejaVuSans-20" x="578.515625"/>
     <use xlink:href="#DejaVuSans-44" x="610.302734"/>
     <use xlink:href="#DejaVuSans-65" x="687.304688"/>
     <use xlink:href="#DejaVuSans-63" x="748.828125"/>
     <use xlink:href="#DejaVuSans-69" x="803.808594"/>
     <use xlink:href="#DejaVuSans-73" x="831.591797"/>
     <use xlink:href="#DejaVuSans-69" x="883.691406"/>
     <use xlink:href="#DejaVuSans-6f" x="911.474609"/>
     <use xlink:href="#DejaVuSans-6e" x="972.65625"/>
     <use xlink:href="#DejaVuSans-20" x="1036.035156"/>
     <use xlink:href="#DejaVuSans-54" x="1067.822266"/>
     <use xlink:href="#DejaVuSans-72" x="1114.15625"/>
     <use xlink:href="#DejaVuSans-65" x="1153.019531"/>
     <use xlink:href="#DejaVuSans-65" x="1214.542969"/>
     <use xlink:href="#DejaVuSans-20" x="1276.066406"/>
     <use xlink:href="#DejaVuSans-43" x="1307.853516"/>
     <use xlink:href="#DejaVuSans-6c" x="1377.677734"/>
     <use xlink:href="#DejaVuSans-61" x="1405.460938"/>
     <use xlink:href="#DejaVuSans-73" x="1466.740234"/>
     <use xlink:href="#DejaVuSans-73" x="1518.839844"/>
     <use xlink:href="#DejaVuSans-69" x="1570.939453"/>
     <use xlink:href="#DejaVuSans-66" x="1598.722656"/>
     <use xlink:href="#DejaVuSans-69" x="1633.927734"/>
     <use xlink:href="#DejaVuSans-65" x="1661.710938"/>
     <use xlink:href="#DejaVuSans-72" x="1723.234375"/>
    </g>
   </g>
   <g id="legend_1">
    <g id="patch_7">
     <path d="M 52.716875 283.430125 
L 433.977813 283.430125 
Q 435.977813 283.430125 435.977813 281.430125 
L 435.977813 179.68325 
Q 435.977813 177.68325 433.977813 177.68325 
L 52.716875 177.68325 
Q 50.716875 177.68325 50.716875 179.68325 
L 50.716875 281.430125 
Q 50.716875 283.430125 52.716875 283.430125 
z
" style="fill: #ffffff; opacity: 0.8; stroke: #cccccc; stroke-linejoin: miter"/>
    </g>
    <g id="line2d_32">
     <path d="M 54.716875 185.781687 
L 64.716875 185.781687 
L 74.716875 185.781687 
" style="fill: none; stroke: #1f77b4; stroke-width: 1.5; stroke-linecap: square"/>
    </g>
    <g id="text_16">
     <!-- AUC for Husband = 0.82, Count = 3,968, Pos = 1,777, Neg = 2,191 -->
     <g transform="translate(82.716875 189.281687) scale(0.1 -0.1)">
      <defs>
       <path id="DejaVuSans-41" d="M 2188 4044 
L 1331 1722 
L 3047 1722 
L 2188 4044 
z
M 1831 4666 
L 2547 4666 
L 4325 0 
L 3669 0 
L 3244 1197 
L 1141 1197 
L 716 0 
L 50 0 
L 1831 4666 
z
" transform="scale(0.015625)"/>
       <path id="DejaVuSans-55" d="M 556 4666 
L 1191 4666 
L 1191 1831 
Q 1191 1081 1462 751 
Q 1734 422 2344 422 
Q 2950 422 3222 751 
Q 3494 1081 3494 1831 
L 3494 4666 
L 4128 4666 
L 4128 1753 
Q 4128 841 3676 375 
Q 3225 -91 2344 -91 
Q 1459 -91 1007 375 
Q 556 841 556 1753 
L 556 4666 
z
" transform="scale(0.015625)"/>
       <path id="DejaVuSans-48" d="M 628 4666 
L 1259 4666 
L 1259 2753 
L 3553 2753 
L 3553 4666 
L 4184 4666 
L 4184 0 
L 3553 0 
L 3553 2222 
L 1259 2222 
L 1259 0 
L 628 0 
L 628 4666 
z
" transform="scale(0.015625)"/>
       <path id="DejaVuSans-62" d="M 3116 1747 
Q 3116 2381 2855 2742 
Q 2594 3103 2138 3103 
Q 1681 3103 1420 2742 
Q 1159 2381 1159 1747 
Q 1159 1113 1420 752 
Q 1681 391 2138 391 
Q 2594 391 2855 752 
Q 3116 1113 3116 1747 
z
M 1159 2969 
Q 1341 3281 1617 3432 
Q 1894 3584 2278 3584 
Q 2916 3584 3314 3078 
Q 3713 2572 3713 1747 
Q 3713 922 3314 415 
Q 2916 -91 2278 -91 
Q 1894 -91 1617 61 
Q 1341 213 1159 525 
L 1159 0 
L 581 0 
L 581 4863 
L 1159 4863 
L 1159 2969 
z
" transform="scale(0.015625)"/>
       <path id="DejaVuSans-64" d="M 2906 2969 
L 2906 4863 
L 3481 4863 
L 3481 0 
L 2906 0 
L 2906 525 
Q 2725 213 2448 61 
Q 2172 -91 1784 -91 
Q 1150 -91 751 415 
Q 353 922 353 1747 
Q 353 2572 751 3078 
Q 1150 3584 1784 3584 
Q 2172 3584 2448 3432 
Q 2725 3281 2906 2969 
z
M 947 1747 
Q 947 1113 1208 752 
Q 1469 391 1925 391 
Q 2381 391 2643 752 
Q 2906 1113 2906 1747 
Q 2906 2381 2643 2742 
Q 2381 3103 1925 3103 
Q 1469 3103 1208 2742 
Q 947 2381 947 1747 
z
" transform="scale(0.015625)"/>
       <path id="DejaVuSans-3d" d="M 678 2906 
L 4684 2906 
L 4684 2381 
L 678 2381 
L 678 2906 
z
M 678 1631 
L 4684 1631 
L 4684 1100 
L 678 1100 
L 678 1631 
z
" transform="scale(0.015625)"/>
       <path id="DejaVuSans-2c" d="M 750 794 
L 1409 794 
L 1409 256 
L 897 -744 
L 494 -744 
L 750 256 
L 750 794 
z
" transform="scale(0.015625)"/>
       <path id="DejaVuSans-33" d="M 2597 2516 
Q 3050 2419 3304 2112 
Q 3559 1806 3559 1356 
Q 3559 666 3084 287 
Q 2609 -91 1734 -91 
Q 1441 -91 1130 -33 
Q 819 25 488 141 
L 488 750 
Q 750 597 1062 519 
Q 1375 441 1716 441 
Q 2309 441 2620 675 
Q 2931 909 2931 1356 
Q 2931 1769 2642 2001 
Q 2353 2234 1838 2234 
L 1294 2234 
L 1294 2753 
L 1863 2753 
Q 2328 2753 2575 2939 
Q 2822 3125 2822 3475 
Q 2822 3834 2567 4026 
Q 2313 4219 1838 4219 
Q 1578 4219 1281 4162 
Q 984 4106 628 3988 
L 628 4550 
Q 988 4650 1302 4700 
Q 1616 4750 1894 4750 
Q 2613 4750 3031 4423 
Q 3450 4097 3450 3541 
Q 3450 3153 3228 2886 
Q 3006 2619 2597 2516 
z
" transform="scale(0.015625)"/>
       <path id="DejaVuSans-39" d="M 703 97 
L 703 672 
Q 941 559 1184 500 
Q 1428 441 1663 441 
Q 2288 441 2617 861 
Q 2947 1281 2994 2138 
Q 2813 1869 2534 1725 
Q 2256 1581 1919 1581 
Q 1219 1581 811 2004 
Q 403 2428 403 3163 
Q 403 3881 828 4315 
Q 1253 4750 1959 4750 
Q 2769 4750 3195 4129 
Q 3622 3509 3622 2328 
Q 3622 1225 3098 567 
Q 2575 -91 1691 -91 
Q 1453 -91 1209 -44 
Q 966 3 703 97 
z
M 1959 2075 
Q 2384 2075 2632 2365 
Q 2881 2656 2881 3163 
Q 2881 3666 2632 3958 
Q 2384 4250 1959 4250 
Q 1534 4250 1286 3958 
Q 1038 3666 1038 3163 
Q 1038 2656 1286 2365 
Q 1534 2075 1959 2075 
z
" transform="scale(0.015625)"/>
       <path id="DejaVuSans-37" d="M 525 4666 
L 3525 4666 
L 3525 4397 
L 1831 0 
L 1172 0 
L 2766 4134 
L 525 4134 
L 525 4666 
z
" transform="scale(0.015625)"/>
       <path id="DejaVuSans-4e" d="M 628 4666 
L 1478 4666 
L 3547 763 
L 3547 4666 
L 4159 4666 
L 4159 0 
L 3309 0 
L 1241 3903 
L 1241 0 
L 628 0 
L 628 4666 
z
" transform="scale(0.015625)"/>
       <path id="DejaVuSans-67" d="M 2906 1791 
Q 2906 2416 2648 2759 
Q 2391 3103 1925 3103 
Q 1463 3103 1205 2759 
Q 947 2416 947 1791 
Q 947 1169 1205 825 
Q 1463 481 1925 481 
Q 2391 481 2648 825 
Q 2906 1169 2906 1791 
z
M 3481 434 
Q 3481 -459 3084 -895 
Q 2688 -1331 1869 -1331 
Q 1566 -1331 1297 -1286 
Q 1028 -1241 775 -1147 
L 775 -588 
Q 1028 -725 1275 -790 
Q 1522 -856 1778 -856 
Q 2344 -856 2625 -561 
Q 2906 -266 2906 331 
L 2906 616 
Q 2728 306 2450 153 
Q 2172 0 1784 0 
Q 1141 0 747 490 
Q 353 981 353 1791 
Q 353 2603 747 3093 
Q 1141 3584 1784 3584 
Q 2172 3584 2450 3431 
Q 2728 3278 2906 2969 
L 2906 3500 
L 3481 3500 
L 3481 434 
z
" transform="scale(0.015625)"/>
      </defs>
      <use xlink:href="#DejaVuSans-41"/>
      <use xlink:href="#DejaVuSans-55" x="68.408203"/>
      <use xlink:href="#DejaVuSans-43" x="141.601562"/>
      <use xlink:href="#DejaVuSans-20" x="211.425781"/>
      <use xlink:href="#DejaVuSans-66" x="243.212891"/>
      <use xlink:href="#DejaVuSans-6f" x="278.417969"/>
      <use xlink:href="#DejaVuSans-72" x="339.599609"/>
      <use xlink:href="#DejaVuSans-20" x="380.712891"/>
      <use xlink:href="#DejaVuSans-48" x="412.5"/>
      <use xlink:href="#DejaVuSans-75" x="487.695312"/>
      <use xlink:href="#DejaVuSans-73" x="551.074219"/>
      <use xlink:href="#DejaVuSans-62" x="603.173828"/>
      <use xlink:href="#DejaVuSans-61" x="666.650391"/>
      <use xlink:href="#DejaVuSans-6e" x="727.929688"/>
      <use xlink:href="#DejaVuSans-64" x="791.308594"/>
      <use xlink:href="#DejaVuSans-20" x="854.785156"/>
      <use xlink:href="#DejaVuSans-3d" x="886.572266"/>
      <use xlink:href="#DejaVuSans-20" x="970.361328"/>
      <use xlink:href="#DejaVuSans-30" x="1002.148438"/>
      <use xlink:href="#DejaVuSans-2e" x="1065.771484"/>
      <use xlink:href="#DejaVuSans-38" x="1097.558594"/>
      <use xlink:href="#DejaVuSans-32" x="1161.181641"/>
      <use xlink:href="#DejaVuSans-2c" x="1224.804688"/>
      <use xlink:href="#DejaVuSans-20" x="1256.591797"/>
      <use xlink:href="#DejaVuSans-43" x="1288.378906"/>
      <use xlink:href="#DejaVuSans-6f" x="1358.203125"/>
      <use xlink:href="#DejaVuSans-75" x="1419.384766"/>
      <use xlink:href="#DejaVuSans-6e" x="1482.763672"/>
      <use xlink:href="#DejaVuSans-74" x="1546.142578"/>
      <use xlink:href="#DejaVuSans-20" x="1585.351562"/>
      <use xlink:href="#DejaVuSans-3d" x="1617.138672"/>
      <use xlink:href="#DejaVuSans-20" x="1700.927734"/>
      <use xlink:href="#DejaVuSans-33" x="1732.714844"/>
      <use xlink:href="#DejaVuSans-2c" x="1796.337891"/>
      <use xlink:href="#DejaVuSans-39" x="1828.125"/>
      <use xlink:href="#DejaVuSans-36" x="1891.748047"/>
      <use xlink:href="#DejaVuSans-38" x="1955.371094"/>
      <use xlink:href="#DejaVuSans-2c" x="2018.994141"/>
      <use xlink:href="#DejaVuSans-20" x="2050.78125"/>
      <use xlink:href="#DejaVuSans-50" x="2082.568359"/>
      <use xlink:href="#DejaVuSans-6f" x="2139.246094"/>
      <use xlink:href="#DejaVuSans-73" x="2200.427734"/>
      <use xlink:href="#DejaVuSans-20" x="2252.527344"/>
      <use xlink:href="#DejaVuSans-3d" x="2284.314453"/>
      <use xlink:href="#DejaVuSans-20" x="2368.103516"/>
      <use xlink:href="#DejaVuSans-31" x="2399.890625"/>
      <use xlink:href="#DejaVuSans-2c" x="2463.513672"/>
      <use xlink:href="#DejaVuSans-37" x="2495.300781"/>
      <use xlink:href="#DejaVuSans-37" x="2558.923828"/>
      <use xlink:href="#DejaVuSans-37" x="2622.546875"/>
      <use xlink:href="#DejaVuSans-2c" x="2686.169922"/>
      <use xlink:href="#DejaVuSans-20" x="2717.957031"/>
      <use xlink:href="#DejaVuSans-4e" x="2749.744141"/>
      <use xlink:href="#DejaVuSans-65" x="2824.548828"/>
      <use xlink:href="#DejaVuSans-67" x="2886.072266"/>
      <use xlink:href="#DejaVuSans-20" x="2949.548828"/>
      <use xlink:href="#DejaVuSans-3d" x="2981.335938"/>
      <use xlink:href="#DejaVuSans-20" x="3065.125"/>
      <use xlink:href="#DejaVuSans-32" x="3096.912109"/>
      <use xlink:href="#DejaVuSans-2c" x="3160.535156"/>
      <use xlink:href="#DejaVuSans-31" x="3192.322266"/>
      <use xlink:href="#DejaVuSans-39" x="3255.945312"/>
      <use xlink:href="#DejaVuSans-31" x="3319.568359"/>
     </g>
    </g>
    <g id="line2d_33">
     <path d="M 54.716875 200.459812 
L 64.716875 200.459812 
L 74.716875 200.459812 
" style="fill: none; stroke: #ff7f0e; stroke-width: 1.5; stroke-linecap: square"/>
    </g>
    <g id="text_17">
     <!-- AUC for Not-in-family = 0.88, Count = 2,507, Pos = 269, Neg = 2,238 -->
     <g transform="translate(82.716875 203.959812) scale(0.1 -0.1)">
      <defs>
       <path id="DejaVuSans-2d" d="M 313 2009 
L 1997 2009 
L 1997 1497 
L 313 1497 
L 313 2009 
z
" transform="scale(0.015625)"/>
       <path id="DejaVuSans-6d" d="M 3328 2828 
Q 3544 3216 3844 3400 
Q 4144 3584 4550 3584 
Q 5097 3584 5394 3201 
Q 5691 2819 5691 2113 
L 5691 0 
L 5113 0 
L 5113 2094 
Q 5113 2597 4934 2840 
Q 4756 3084 4391 3084 
Q 3944 3084 3684 2787 
Q 3425 2491 3425 1978 
L 3425 0 
L 2847 0 
L 2847 2094 
Q 2847 2600 2669 2842 
Q 2491 3084 2119 3084 
Q 1678 3084 1418 2786 
Q 1159 2488 1159 1978 
L 1159 0 
L 581 0 
L 581 3500 
L 1159 3500 
L 1159 2956 
Q 1356 3278 1631 3431 
Q 1906 3584 2284 3584 
Q 2666 3584 2933 3390 
Q 3200 3197 3328 2828 
z
" transform="scale(0.015625)"/>
       <path id="DejaVuSans-79" d="M 2059 -325 
Q 1816 -950 1584 -1140 
Q 1353 -1331 966 -1331 
L 506 -1331 
L 506 -850 
L 844 -850 
Q 1081 -850 1212 -737 
Q 1344 -625 1503 -206 
L 1606 56 
L 191 3500 
L 800 3500 
L 1894 763 
L 2988 3500 
L 3597 3500 
L 2059 -325 
z
" transform="scale(0.015625)"/>
       <path id="DejaVuSans-35" d="M 691 4666 
L 3169 4666 
L 3169 4134 
L 1269 4134 
L 1269 2991 
Q 1406 3038 1543 3061 
Q 1681 3084 1819 3084 
Q 2600 3084 3056 2656 
Q 3513 2228 3513 1497 
Q 3513 744 3044 326 
Q 2575 -91 1722 -91 
Q 1428 -91 1123 -41 
Q 819 9 494 109 
L 494 744 
Q 775 591 1075 516 
Q 1375 441 1709 441 
Q 2250 441 2565 725 
Q 2881 1009 2881 1497 
Q 2881 1984 2565 2268 
Q 2250 2553 1709 2553 
Q 1456 2553 1204 2497 
Q 953 2441 691 2322 
L 691 4666 
z
" transform="scale(0.015625)"/>
      </defs>
      <use xlink:href="#DejaVuSans-41"/>
      <use xlink:href="#DejaVuSans-55" x="68.408203"/>
      <use xlink:href="#DejaVuSans-43" x="141.601562"/>
      <use xlink:href="#DejaVuSans-20" x="211.425781"/>
      <use xlink:href="#DejaVuSans-66" x="243.212891"/>
      <use xlink:href="#DejaVuSans-6f" x="278.417969"/>
      <use xlink:href="#DejaVuSans-72" x="339.599609"/>
      <use xlink:href="#DejaVuSans-20" x="380.712891"/>
      <use xlink:href="#DejaVuSans-4e" x="412.5"/>
      <use xlink:href="#DejaVuSans-6f" x="487.304688"/>
      <use xlink:href="#DejaVuSans-74" x="548.486328"/>
      <use xlink:href="#DejaVuSans-2d" x="587.695312"/>
      <use xlink:href="#DejaVuSans-69" x="623.779297"/>
      <use xlink:href="#DejaVuSans-6e" x="651.5625"/>
      <use xlink:href="#DejaVuSans-2d" x="714.941406"/>
      <use xlink:href="#DejaVuSans-66" x="751.025391"/>
      <use xlink:href="#DejaVuSans-61" x="786.230469"/>
      <use xlink:href="#DejaVuSans-6d" x="847.509766"/>
      <use xlink:href="#DejaVuSans-69" x="944.921875"/>
      <use xlink:href="#DejaVuSans-6c" x="972.705078"/>
      <use xlink:href="#DejaVuSans-79" x="1000.488281"/>
      <use xlink:href="#DejaVuSans-20" x="1059.667969"/>
      <use xlink:href="#DejaVuSans-3d" x="1091.455078"/>
      <use xlink:href="#DejaVuSans-20" x="1175.244141"/>
      <use xlink:href="#DejaVuSans-30" x="1207.03125"/>
      <use xlink:href="#DejaVuSans-2e" x="1270.654297"/>
      <use xlink:href="#DejaVuSans-38" x="1302.441406"/>
      <use xlink:href="#DejaVuSans-38" x="1366.064453"/>
      <use xlink:href="#DejaVuSans-2c" x="1429.6875"/>
      <use xlink:href="#DejaVuSans-20" x="1461.474609"/>
      <use xlink:href="#DejaVuSans-43" x="1493.261719"/>
      <use xlink:href="#DejaVuSans-6f" x="1563.085938"/>
      <use xlink:href="#DejaVuSans-75" x="1624.267578"/>
      <use xlink:href="#DejaVuSans-6e" x="1687.646484"/>
      <use xlink:href="#DejaVuSans-74" x="1751.025391"/>
      <use xlink:href="#DejaVuSans-20" x="1790.234375"/>
      <use xlink:href="#DejaVuSans-3d" x="1822.021484"/>
      <use xlink:href="#DejaVuSans-20" x="1905.810547"/>
      <use xlink:href="#DejaVuSans-32" x="1937.597656"/>
      <use xlink:href="#DejaVuSans-2c" x="2001.220703"/>
      <use xlink:href="#DejaVuSans-35" x="2033.007812"/>
      <use xlink:href="#DejaVuSans-30" x="2096.630859"/>
      <use xlink:href="#DejaVuSans-37" x="2160.253906"/>
      <use xlink:href="#DejaVuSans-2c" x="2223.876953"/>
      <use xlink:href="#DejaVuSans-20" x="2255.664062"/>
      <use xlink:href="#DejaVuSans-50" x="2287.451172"/>
      <use xlink:href="#DejaVuSans-6f" x="2344.128906"/>
      <use xlink:href="#DejaVuSans-73" x="2405.310547"/>
      <use xlink:href="#DejaVuSans-20" x="2457.410156"/>
      <use xlink:href="#DejaVuSans-3d" x="2489.197266"/>
      <use xlink:href="#DejaVuSans-20" x="2572.986328"/>
      <use xlink:href="#DejaVuSans-32" x="2604.773438"/>
      <use xlink:href="#DejaVuSans-36" x="2668.396484"/>
      <use xlink:href="#DejaVuSans-39" x="2732.019531"/>
      <use xlink:href="#DejaVuSans-2c" x="2795.642578"/>
      <use xlink:href="#DejaVuSans-20" x="2827.429688"/>
      <use xlink:href="#DejaVuSans-4e" x="2859.216797"/>
      <use xlink:href="#DejaVuSans-65" x="2934.021484"/>
      <use xlink:href="#DejaVuSans-67" x="2995.544922"/>
      <use xlink:href="#DejaVuSans-20" x="3059.021484"/>
      <use xlink:href="#DejaVuSans-3d" x="3090.808594"/>
      <use xlink:href="#DejaVuSans-20" x="3174.597656"/>
      <use xlink:href="#DejaVuSans-32" x="3206.384766"/>
      <use xlink:href="#DejaVuSans-2c" x="3270.007812"/>
      <use xlink:href="#DejaVuSans-32" x="3301.794922"/>
      <use xlink:href="#DejaVuSans-33" x="3365.417969"/>
      <use xlink:href="#DejaVuSans-38" x="3429.041016"/>
     </g>
    </g>
    <g id="line2d_34">
     <path d="M 54.716875 215.137937 
L 64.716875 215.137937 
L 74.716875 215.137937 
" style="fill: none; stroke: #2ca02c; stroke-width: 1.5; stroke-linecap: square"/>
    </g>
    <g id="text_18">
     <!-- AUC for Unmarried = 0.89, Count = 1,054, Pos = 57, Neg = 997 -->
     <g transform="translate(82.716875 218.637937) scale(0.1 -0.1)">
      <use xlink:href="#DejaVuSans-41"/>
      <use xlink:href="#DejaVuSans-55" x="68.408203"/>
      <use xlink:href="#DejaVuSans-43" x="141.601562"/>
      <use xlink:href="#DejaVuSans-20" x="211.425781"/>
      <use xlink:href="#DejaVuSans-66" x="243.212891"/>
      <use xlink:href="#DejaVuSans-6f" x="278.417969"/>
      <use xlink:href="#DejaVuSans-72" x="339.599609"/>
      <use xlink:href="#DejaVuSans-20" x="380.712891"/>
      <use xlink:href="#DejaVuSans-55" x="412.5"/>
      <use xlink:href="#DejaVuSans-6e" x="485.693359"/>
      <use xlink:href="#DejaVuSans-6d" x="549.072266"/>
      <use xlink:href="#DejaVuSans-61" x="646.484375"/>
      <use xlink:href="#DejaVuSans-72" x="707.763672"/>
      <use xlink:href="#DejaVuSans-72" x="747.126953"/>
      <use xlink:href="#DejaVuSans-69" x="788.240234"/>
      <use xlink:href="#DejaVuSans-65" x="816.023438"/>
      <use xlink:href="#DejaVuSans-64" x="877.546875"/>
      <use xlink:href="#DejaVuSans-20" x="941.023438"/>
      <use xlink:href="#DejaVuSans-3d" x="972.810547"/>
      <use xlink:href="#DejaVuSans-20" x="1056.599609"/>
      <use xlink:href="#DejaVuSans-30" x="1088.386719"/>
      <use xlink:href="#DejaVuSans-2e" x="1152.009766"/>
      <use xlink:href="#DejaVuSans-38" x="1183.796875"/>
      <use xlink:href="#DejaVuSans-39" x="1247.419922"/>
      <use xlink:href="#DejaVuSans-2c" x="1311.042969"/>
      <use xlink:href="#DejaVuSans-20" x="1342.830078"/>
      <use xlink:href="#DejaVuSans-43" x="1374.617188"/>
      <use xlink:href="#DejaVuSans-6f" x="1444.441406"/>
      <use xlink:href="#DejaVuSans-75" x="1505.623047"/>
      <use xlink:href="#DejaVuSans-6e" x="1569.001953"/>
      <use xlink:href="#DejaVuSans-74" x="1632.380859"/>
      <use xlink:href="#DejaVuSans-20" x="1671.589844"/>
      <use xlink:href="#DejaVuSans-3d" x="1703.376953"/>
      <use xlink:href="#DejaVuSans-20" x="1787.166016"/>
      <use xlink:href="#DejaVuSans-31" x="1818.953125"/>
      <use xlink:href="#DejaVuSans-2c" x="1882.576172"/>
      <use xlink:href="#DejaVuSans-30" x="1914.363281"/>
      <use xlink:href="#DejaVuSans-35" x="1977.986328"/>
      <use xlink:href="#DejaVuSans-34" x="2041.609375"/>
      <use xlink:href="#DejaVuSans-2c" x="2105.232422"/>
      <use xlink:href="#DejaVuSans-20" x="2137.019531"/>
      <use xlink:href="#DejaVuSans-50" x="2168.806641"/>
      <use xlink:href="#DejaVuSans-6f" x="2225.484375"/>
      <use xlink:href="#DejaVuSans-73" x="2286.666016"/>
      <use xlink:href="#DejaVuSans-20" x="2338.765625"/>
      <use xlink:href="#DejaVuSans-3d" x="2370.552734"/>
      <use xlink:href="#DejaVuSans-20" x="2454.341797"/>
      <use xlink:href="#DejaVuSans-35" x="2486.128906"/>
      <use xlink:href="#DejaVuSans-37" x="2549.751953"/>
      <use xlink:href="#DejaVuSans-2c" x="2613.375"/>
      <use xlink:href="#DejaVuSans-20" x="2645.162109"/>
      <use xlink:href="#DejaVuSans-4e" x="2676.949219"/>
      <use xlink:href="#DejaVuSans-65" x="2751.753906"/>
      <use xlink:href="#DejaVuSans-67" x="2813.277344"/>
      <use xlink:href="#DejaVuSans-20" x="2876.753906"/>
      <use xlink:href="#DejaVuSans-3d" x="2908.541016"/>
      <use xlink:href="#DejaVuSans-20" x="2992.330078"/>
      <use xlink:href="#DejaVuSans-39" x="3024.117188"/>
      <use xlink:href="#DejaVuSans-39" x="3087.740234"/>
      <use xlink:href="#DejaVuSans-37" x="3151.363281"/>
     </g>
    </g>
    <g id="line2d_35">
     <path d="M 54.716875 229.816062 
L 64.716875 229.816062 
L 74.716875 229.816062 
" style="fill: none; stroke: #d62728; stroke-width: 1.5; stroke-linecap: square"/>
    </g>
    <g id="text_19">
     <!-- AUC for Wife = 0.79, Count = 428, Pos = 204, Neg = 224 -->
     <g transform="translate(82.716875 233.316062) scale(0.1 -0.1)">
      <defs>
       <path id="DejaVuSans-57" d="M 213 4666 
L 850 4666 
L 1831 722 
L 2809 4666 
L 3519 4666 
L 4500 722 
L 5478 4666 
L 6119 4666 
L 4947 0 
L 4153 0 
L 3169 4050 
L 2175 0 
L 1381 0 
L 213 4666 
z
" transform="scale(0.015625)"/>
      </defs>
      <use xlink:href="#DejaVuSans-41"/>
      <use xlink:href="#DejaVuSans-55" x="68.408203"/>
      <use xlink:href="#DejaVuSans-43" x="141.601562"/>
      <use xlink:href="#DejaVuSans-20" x="211.425781"/>
      <use xlink:href="#DejaVuSans-66" x="243.212891"/>
      <use xlink:href="#DejaVuSans-6f" x="278.417969"/>
      <use xlink:href="#DejaVuSans-72" x="339.599609"/>
      <use xlink:href="#DejaVuSans-20" x="380.712891"/>
      <use xlink:href="#DejaVuSans-57" x="412.5"/>
      <use xlink:href="#DejaVuSans-69" x="509.126953"/>
      <use xlink:href="#DejaVuSans-66" x="536.910156"/>
      <use xlink:href="#DejaVuSans-65" x="572.115234"/>
      <use xlink:href="#DejaVuSans-20" x="633.638672"/>
      <use xlink:href="#DejaVuSans-3d" x="665.425781"/>
      <use xlink:href="#DejaVuSans-20" x="749.214844"/>
      <use xlink:href="#DejaVuSans-30" x="781.001953"/>
      <use xlink:href="#DejaVuSans-2e" x="844.625"/>
      <use xlink:href="#DejaVuSans-37" x="876.412109"/>
      <use xlink:href="#DejaVuSans-39" x="940.035156"/>
      <use xlink:href="#DejaVuSans-2c" x="1003.658203"/>
      <use xlink:href="#DejaVuSans-20" x="1035.445312"/>
      <use xlink:href="#DejaVuSans-43" x="1067.232422"/>
      <use xlink:href="#DejaVuSans-6f" x="1137.056641"/>
      <use xlink:href="#DejaVuSans-75" x="1198.238281"/>
      <use xlink:href="#DejaVuSans-6e" x="1261.617188"/>
      <use xlink:href="#DejaVuSans-74" x="1324.996094"/>
      <use xlink:href="#DejaVuSans-20" x="1364.205078"/>
      <use xlink:href="#DejaVuSans-3d" x="1395.992188"/>
      <use xlink:href="#DejaVuSans-20" x="1479.78125"/>
      <use xlink:href="#DejaVuSans-34" x="1511.568359"/>
      <use xlink:href="#DejaVuSans-32" x="1575.191406"/>
      <use xlink:href="#DejaVuSans-38" x="1638.814453"/>
      <use xlink:href="#DejaVuSans-2c" x="1702.4375"/>
      <use xlink:href="#DejaVuSans-20" x="1734.224609"/>
      <use xlink:href="#DejaVuSans-50" x="1766.011719"/>
      <use xlink:href="#DejaVuSans-6f" x="1822.689453"/>
      <use xlink:href="#DejaVuSans-73" x="1883.871094"/>
      <use xlink:href="#DejaVuSans-20" x="1935.970703"/>
      <use xlink:href="#DejaVuSans-3d" x="1967.757812"/>
      <use xlink:href="#DejaVuSans-20" x="2051.546875"/>
      <use xlink:href="#DejaVuSans-32" x="2083.333984"/>
      <use xlink:href="#DejaVuSans-30" x="2146.957031"/>
      <use xlink:href="#DejaVuSans-34" x="2210.580078"/>
      <use xlink:href="#DejaVuSans-2c" x="2274.203125"/>
      <use xlink:href="#DejaVuSans-20" x="2305.990234"/>
      <use xlink:href="#DejaVuSans-4e" x="2337.777344"/>
      <use xlink:href="#DejaVuSans-65" x="2412.582031"/>
      <use xlink:href="#DejaVuSans-67" x="2474.105469"/>
      <use xlink:href="#DejaVuSans-20" x="2537.582031"/>
      <use xlink:href="#DejaVuSans-3d" x="2569.369141"/>
      <use xlink:href="#DejaVuSans-20" x="2653.158203"/>
      <use xlink:href="#DejaVuSans-32" x="2684.945312"/>
      <use xlink:href="#DejaVuSans-32" x="2748.568359"/>
      <use xlink:href="#DejaVuSans-34" x="2812.191406"/>
     </g>
    </g>
    <g id="line2d_36">
     <path d="M 54.716875 244.494187 
L 64.716875 244.494187 
L 74.716875 244.494187 
" style="fill: none; stroke: #9467bd; stroke-width: 1.5; stroke-linecap: square"/>
    </g>
    <g id="text_20">
     <!-- AUC for Other-relative = 0.97, Count = 314, Pos = 12, Neg = 302 -->
     <g transform="translate(82.716875 247.994187) scale(0.1 -0.1)">
      <defs>
       <path id="DejaVuSans-68" d="M 3513 2113 
L 3513 0 
L 2938 0 
L 2938 2094 
Q 2938 2591 2744 2837 
Q 2550 3084 2163 3084 
Q 1697 3084 1428 2787 
Q 1159 2491 1159 1978 
L 1159 0 
L 581 0 
L 581 4863 
L 1159 4863 
L 1159 2956 
Q 1366 3272 1645 3428 
Q 1925 3584 2291 3584 
Q 2894 3584 3203 3211 
Q 3513 2838 3513 2113 
z
" transform="scale(0.015625)"/>
      </defs>
      <use xlink:href="#DejaVuSans-41"/>
      <use xlink:href="#DejaVuSans-55" x="68.408203"/>
      <use xlink:href="#DejaVuSans-43" x="141.601562"/>
      <use xlink:href="#DejaVuSans-20" x="211.425781"/>
      <use xlink:href="#DejaVuSans-66" x="243.212891"/>
      <use xlink:href="#DejaVuSans-6f" x="278.417969"/>
      <use xlink:href="#DejaVuSans-72" x="339.599609"/>
      <use xlink:href="#DejaVuSans-20" x="380.712891"/>
      <use xlink:href="#DejaVuSans-4f" x="412.5"/>
      <use xlink:href="#DejaVuSans-74" x="491.210938"/>
      <use xlink:href="#DejaVuSans-68" x="530.419922"/>
      <use xlink:href="#DejaVuSans-65" x="593.798828"/>
      <use xlink:href="#DejaVuSans-72" x="655.322266"/>
      <use xlink:href="#DejaVuSans-2d" x="690.060547"/>
      <use xlink:href="#DejaVuSans-72" x="726.144531"/>
      <use xlink:href="#DejaVuSans-65" x="765.007812"/>
      <use xlink:href="#DejaVuSans-6c" x="826.53125"/>
      <use xlink:href="#DejaVuSans-61" x="854.314453"/>
      <use xlink:href="#DejaVuSans-74" x="915.59375"/>
      <use xlink:href="#DejaVuSans-69" x="954.802734"/>
      <use xlink:href="#DejaVuSans-76" x="982.585938"/>
      <use xlink:href="#DejaVuSans-65" x="1041.765625"/>
      <use xlink:href="#DejaVuSans-20" x="1103.289062"/>
      <use xlink:href="#DejaVuSans-3d" x="1135.076172"/>
      <use xlink:href="#DejaVuSans-20" x="1218.865234"/>
      <use xlink:href="#DejaVuSans-30" x="1250.652344"/>
      <use xlink:href="#DejaVuSans-2e" x="1314.275391"/>
      <use xlink:href="#DejaVuSans-39" x="1346.0625"/>
      <use xlink:href="#DejaVuSans-37" x="1409.685547"/>
      <use xlink:href="#DejaVuSans-2c" x="1473.308594"/>
      <use xlink:href="#DejaVuSans-20" x="1505.095703"/>
      <use xlink:href="#DejaVuSans-43" x="1536.882812"/>
      <use xlink:href="#DejaVuSans-6f" x="1606.707031"/>
      <use xlink:href="#DejaVuSans-75" x="1667.888672"/>
      <use xlink:href="#DejaVuSans-6e" x="1731.267578"/>
      <use xlink:href="#DejaVuSans-74" x="1794.646484"/>
      <use xlink:href="#DejaVuSans-20" x="1833.855469"/>
      <use xlink:href="#DejaVuSans-3d" x="1865.642578"/>
      <use xlink:href="#DejaVuSans-20" x="1949.431641"/>
      <use xlink:href="#DejaVuSans-33" x="1981.21875"/>
      <use xlink:href="#DejaVuSans-31" x="2044.841797"/>
      <use xlink:href="#DejaVuSans-34" x="2108.464844"/>
      <use xlink:href="#DejaVuSans-2c" x="2172.087891"/>
      <use xlink:href="#DejaVuSans-20" x="2203.875"/>
      <use xlink:href="#DejaVuSans-50" x="2235.662109"/>
      <use xlink:href="#DejaVuSans-6f" x="2292.339844"/>
      <use xlink:href="#DejaVuSans-73" x="2353.521484"/>
      <use xlink:href="#DejaVuSans-20" x="2405.621094"/>
      <use xlink:href="#DejaVuSans-3d" x="2437.408203"/>
      <use xlink:href="#DejaVuSans-20" x="2521.197266"/>
      <use xlink:href="#DejaVuSans-31" x="2552.984375"/>
      <use xlink:href="#DejaVuSans-32" x="2616.607422"/>
      <use xlink:href="#DejaVuSans-2c" x="2680.230469"/>
      <use xlink:href="#DejaVuSans-20" x="2712.017578"/>
      <use xlink:href="#DejaVuSans-4e" x="2743.804688"/>
      <use xlink:href="#DejaVuSans-65" x="2818.609375"/>
      <use xlink:href="#DejaVuSans-67" x="2880.132812"/>
      <use xlink:href="#DejaVuSans-20" x="2943.609375"/>
      <use xlink:href="#DejaVuSans-3d" x="2975.396484"/>
      <use xlink:href="#DejaVuSans-20" x="3059.185547"/>
      <use xlink:href="#DejaVuSans-33" x="3090.972656"/>
      <use xlink:href="#DejaVuSans-30" x="3154.595703"/>
      <use xlink:href="#DejaVuSans-32" x="3218.21875"/>
     </g>
    </g>
    <g id="line2d_37">
     <path d="M 54.716875 259.172312 
L 64.716875 259.172312 
L 74.716875 259.172312 
" style="fill: none; stroke: #8c564b; stroke-width: 1.5; stroke-linecap: square"/>
    </g>
    <g id="text_21">
     <!-- AUC for Own-child = 0.94, Count = 1,498, Pos = 19, Neg = 1,479 -->
     <g transform="translate(82.716875 262.672312) scale(0.1 -0.1)">
      <defs>
       <path id="DejaVuSans-77" d="M 269 3500 
L 844 3500 
L 1563 769 
L 2278 3500 
L 2956 3500 
L 3675 769 
L 4391 3500 
L 4966 3500 
L 4050 0 
L 3372 0 
L 2619 2869 
L 1863 0 
L 1184 0 
L 269 3500 
z
" transform="scale(0.015625)"/>
      </defs>
      <use xlink:href="#DejaVuSans-41"/>
      <use xlink:href="#DejaVuSans-55" x="68.408203"/>
      <use xlink:href="#DejaVuSans-43" x="141.601562"/>
      <use xlink:href="#DejaVuSans-20" x="211.425781"/>
      <use xlink:href="#DejaVuSans-66" x="243.212891"/>
      <use xlink:href="#DejaVuSans-6f" x="278.417969"/>
      <use xlink:href="#DejaVuSans-72" x="339.599609"/>
      <use xlink:href="#DejaVuSans-20" x="380.712891"/>
      <use xlink:href="#DejaVuSans-4f" x="412.5"/>
      <use xlink:href="#DejaVuSans-77" x="491.210938"/>
      <use xlink:href="#DejaVuSans-6e" x="572.998047"/>
      <use xlink:href="#DejaVuSans-2d" x="636.376953"/>
      <use xlink:href="#DejaVuSans-63" x="672.460938"/>
      <use xlink:href="#DejaVuSans-68" x="727.441406"/>
      <use xlink:href="#DejaVuSans-69" x="790.820312"/>
      <use xlink:href="#DejaVuSans-6c" x="818.603516"/>
      <use xlink:href="#DejaVuSans-64" x="846.386719"/>
      <use xlink:href="#DejaVuSans-20" x="909.863281"/>
      <use xlink:href="#DejaVuSans-3d" x="941.650391"/>
      <use xlink:href="#DejaVuSans-20" x="1025.439453"/>
      <use xlink:href="#DejaVuSans-30" x="1057.226562"/>
      <use xlink:href="#DejaVuSans-2e" x="1120.849609"/>
      <use xlink:href="#DejaVuSans-39" x="1152.636719"/>
      <use xlink:href="#DejaVuSans-34" x="1216.259766"/>
      <use xlink:href="#DejaVuSans-2c" x="1279.882812"/>
      <use xlink:href="#DejaVuSans-20" x="1311.669922"/>
      <use xlink:href="#DejaVuSans-43" x="1343.457031"/>
      <use xlink:href="#DejaVuSans-6f" x="1413.28125"/>
      <use xlink:href="#DejaVuSans-75" x="1474.462891"/>
      <use xlink:href="#DejaVuSans-6e" x="1537.841797"/>
      <use xlink:href="#DejaVuSans-74" x="1601.220703"/>
      <use xlink:href="#DejaVuSans-20" x="1640.429688"/>
      <use xlink:href="#DejaVuSans-3d" x="1672.216797"/>
      <use xlink:href="#DejaVuSans-20" x="1756.005859"/>
      <use xlink:href="#DejaVuSans-31" x="1787.792969"/>
      <use xlink:href="#DejaVuSans-2c" x="1851.416016"/>
      <use xlink:href="#DejaVuSans-34" x="1883.203125"/>
      <use xlink:href="#DejaVuSans-39" x="1946.826172"/>
      <use xlink:href="#DejaVuSans-38" x="2010.449219"/>
      <use xlink:href="#DejaVuSans-2c" x="2074.072266"/>
      <use xlink:href="#DejaVuSans-20" x="2105.859375"/>
      <use xlink:href="#DejaVuSans-50" x="2137.646484"/>
      <use xlink:href="#DejaVuSans-6f" x="2194.324219"/>
      <use xlink:href="#DejaVuSans-73" x="2255.505859"/>
      <use xlink:href="#DejaVuSans-20" x="2307.605469"/>
      <use xlink:href="#DejaVuSans-3d" x="2339.392578"/>
      <use xlink:href="#DejaVuSans-20" x="2423.181641"/>
      <use xlink:href="#DejaVuSans-31" x="2454.96875"/>
      <use xlink:href="#DejaVuSans-39" x="2518.591797"/>
      <use xlink:href="#DejaVuSans-2c" x="2582.214844"/>
      <use xlink:href="#DejaVuSans-20" x="2614.001953"/>
      <use xlink:href="#DejaVuSans-4e" x="2645.789062"/>
      <use xlink:href="#DejaVuSans-65" x="2720.59375"/>
      <use xlink:href="#DejaVuSans-67" x="2782.117188"/>
      <use xlink:href="#DejaVuSans-20" x="2845.59375"/>
      <use xlink:href="#DejaVuSans-3d" x="2877.380859"/>
      <use xlink:href="#DejaVuSans-20" x="2961.169922"/>
      <use xlink:href="#DejaVuSans-31" x="2992.957031"/>
      <use xlink:href="#DejaVuSans-2c" x="3056.580078"/>
      <use xlink:href="#DejaVuSans-34" x="3088.367188"/>
      <use xlink:href="#DejaVuSans-37" x="3151.990234"/>
      <use xlink:href="#DejaVuSans-39" x="3215.613281"/>
     </g>
    </g>
    <g id="line2d_38">
     <path d="M 54.716875 273.850437 
L 64.716875 273.850437 
L 74.716875 273.850437 
" style="fill: none; stroke-dasharray: 7.4,3.2; stroke-dashoffset: 0; stroke: #808080; stroke-width: 2"/>
    </g>
    <g id="text_22">
     <!-- Random Guess -->
     <g transform="translate(82.716875 277.350437) scale(0.1 -0.1)">
      <defs>
       <path id="DejaVuSans-47" d="M 3809 666 
L 3809 1919 
L 2778 1919 
L 2778 2438 
L 4434 2438 
L 4434 434 
Q 4069 175 3628 42 
Q 3188 -91 2688 -91 
Q 1594 -91 976 548 
Q 359 1188 359 2328 
Q 359 3472 976 4111 
Q 1594 4750 2688 4750 
Q 3144 4750 3555 4637 
Q 3966 4525 4313 4306 
L 4313 3634 
Q 3963 3931 3569 4081 
Q 3175 4231 2741 4231 
Q 1884 4231 1454 3753 
Q 1025 3275 1025 2328 
Q 1025 1384 1454 906 
Q 1884 428 2741 428 
Q 3075 428 3337 486 
Q 3600 544 3809 666 
z
" transform="scale(0.015625)"/>
      </defs>
      <use xlink:href="#DejaVuSans-52"/>
      <use xlink:href="#DejaVuSans-61" x="67.232422"/>
      <use xlink:href="#DejaVuSans-6e" x="128.511719"/>
      <use xlink:href="#DejaVuSans-64" x="191.890625"/>
      <use xlink:href="#DejaVuSans-6f" x="255.367188"/>
      <use xlink:href="#DejaVuSans-6d" x="316.548828"/>
      <use xlink:href="#DejaVuSans-20" x="413.960938"/>
      <use xlink:href="#DejaVuSans-47" x="445.748047"/>
      <use xlink:href="#DejaVuSans-75" x="523.238281"/>
      <use xlink:href="#DejaVuSans-65" x="586.617188"/>
      <use xlink:href="#DejaVuSans-73" x="648.140625"/>
      <use xlink:href="#DejaVuSans-73" x="700.240234"/>
     </g>
    </g>
   </g>
  </g>
 </g>
 <defs>
  <clipPath id="p1d6bca034e">
   <rect x="45.716875" y="22.318125" width="357.12" height="266.112"/>
  </clipPath>
 </defs>
</svg>
