<?xml version="1.0" encoding="utf-8" standalone="no"?>
<!DOCTYPE svg PUBLIC "-//W3C//DTD SVG 1.1//EN"
  "http://www.w3.org/Graphics/SVG/1.1/DTD/svg11.dtd">
<svg xmlns:xlink="http://www.w3.org/1999/xlink" width="610.916875pt" height="283.57pt" viewBox="0 0 610.916875 283.57" xmlns="http://www.w3.org/2000/svg" version="1.1">
 <metadata>
  <rdf:RDF xmlns:dc="http://purl.org/dc/elements/1.1/" xmlns:cc="http://creativecommons.org/ns#" xmlns:rdf="http://www.w3.org/1999/02/22-rdf-syntax-ns#">
   <cc:Work>
    <dc:type rdf:resource="http://purl.org/dc/dcmitype/StillImage"/>
    <dc:date>2025-02-23T14:29:56.464798</dc:date>
    <dc:format>image/svg+xml</dc:format>
    <dc:creator>
     <cc:Agent>
      <dc:title>Matplotlib v3.9.2, https://matplotlib.org/</dc:title>
     </cc:Agent>
    </dc:creator>
   </cc:Work>
  </rdf:RDF>
 </metadata>
 <defs>
  <style type="text/css">*{stroke-linejoin: round; stroke-linecap: butt}</style>
 </defs>
 <g id="figure_1">
  <g id="patch_1">
   <path d="M 0 283.57 
L 610.916875 283.57 
L 610.916875 0 
L 0 0 
z
" style="fill: #ffffff"/>
  </g>
  <g id="axes_1">
   <g id="patch_2">
    <path d="M 45.716875 244.078125 
L 603.716875 244.078125 
L 603.716875 22.318125 
L 45.716875 22.318125 
z
" style="fill: #ffffff"/>
   </g>
   <g id="matplotlib.axis_1">
    <g id="xtick_1">
     <g id="line2d_1">
      <path d="M 71.080511 244.078125 
L 71.080511 22.318125 
" clip-path="url(#pc91ca19c4b)" style="fill: none; stroke: #b0b0b0; stroke-width: 0.8; stroke-linecap: square"/>
     </g>
     <g id="line2d_2">
      <defs>
       <path id="m68d3b7248b" d="M 0 0 
L 0 3.5 
" style="stroke: #000000; stroke-width: 0.8"/>
      </defs>
      <g>
       <use xlink:href="#m68d3b7248b" x="71.080511" y="244.078125" style="stroke: #000000; stroke-width: 0.8"/>
      </g>
     </g>
     <g id="text_1">
      <!-- 0.0 -->
      <g transform="translate(63.128949 258.676562) scale(0.1 -0.1)">
       <defs>
        <path id="DejaVuSans-30" d="M 2034 4250 
Q 1547 4250 1301 3770 
Q 1056 3291 1056 2328 
Q 1056 1369 1301 889 
Q 1547 409 2034 409 
Q 2525 409 2770 889 
Q 3016 1369 3016 2328 
Q 3016 3291 2770 3770 
Q 2525 4250 2034 4250 
z
M 2034 4750 
Q 2819 4750 3233 4129 
Q 3647 3509 3647 2328 
Q 3647 1150 3233 529 
Q 2819 -91 2034 -91 
Q 1250 -91 836 529 
Q 422 1150 422 2328 
Q 422 3509 836 4129 
Q 1250 4750 2034 4750 
z
" transform="scale(0.015625)"/>
        <path id="DejaVuSans-2e" d="M 684 794 
L 1344 794 
L 1344 0 
L 684 0 
L 684 794 
z
" transform="scale(0.015625)"/>
       </defs>
       <use xlink:href="#DejaVuSans-30"/>
       <use xlink:href="#DejaVuSans-2e" x="63.623047"/>
       <use xlink:href="#DejaVuSans-30" x="95.410156"/>
      </g>
     </g>
    </g>
    <g id="xtick_2">
     <g id="line2d_3">
      <path d="M 172.535057 244.078125 
L 172.535057 22.318125 
" clip-path="url(#pc91ca19c4b)" style="fill: none; stroke: #b0b0b0; stroke-width: 0.8; stroke-linecap: square"/>
     </g>
     <g id="line2d_4">
      <g>
       <use xlink:href="#m68d3b7248b" x="172.535057" y="244.078125" style="stroke: #000000; stroke-width: 0.8"/>
      </g>
     </g>
     <g id="text_2">
      <!-- 0.2 -->
      <g transform="translate(164.583494 258.676562) scale(0.1 -0.1)">
       <defs>
        <path id="DejaVuSans-32" d="M 1228 531 
L 3431 531 
L 3431 0 
L 469 0 
L 469 531 
Q 828 903 1448 1529 
Q 2069 2156 2228 2338 
Q 2531 2678 2651 2914 
Q 2772 3150 2772 3378 
Q 2772 3750 2511 3984 
Q 2250 4219 1831 4219 
Q 1534 4219 1204 4116 
Q 875 4013 500 3803 
L 500 4441 
Q 881 4594 1212 4672 
Q 1544 4750 1819 4750 
Q 2544 4750 2975 4387 
Q 3406 4025 3406 3419 
Q 3406 3131 3298 2873 
Q 3191 2616 2906 2266 
Q 2828 2175 2409 1742 
Q 1991 1309 1228 531 
z
" transform="scale(0.015625)"/>
       </defs>
       <use xlink:href="#DejaVuSans-30"/>
       <use xlink:href="#DejaVuSans-2e" x="63.623047"/>
       <use xlink:href="#DejaVuSans-32" x="95.410156"/>
      </g>
     </g>
    </g>
    <g id="xtick_3">
     <g id="line2d_5">
      <path d="M 273.989602 244.078125 
L 273.989602 22.318125 
" clip-path="url(#pc91ca19c4b)" style="fill: none; stroke: #b0b0b0; stroke-width: 0.8; stroke-linecap: square"/>
     </g>
     <g id="line2d_6">
      <g>
       <use xlink:href="#m68d3b7248b" x="273.989602" y="244.078125" style="stroke: #000000; stroke-width: 0.8"/>
      </g>
     </g>
     <g id="text_3">
      <!-- 0.4 -->
      <g transform="translate(266.03804 258.676562) scale(0.1 -0.1)">
       <defs>
        <path id="DejaVuSans-34" d="M 2419 4116 
L 825 1625 
L 2419 1625 
L 2419 4116 
z
M 2253 4666 
L 3047 4666 
L 3047 1625 
L 3713 1625 
L 3713 1100 
L 3047 1100 
L 3047 0 
L 2419 0 
L 2419 1100 
L 313 1100 
L 313 1709 
L 2253 4666 
z
" transform="scale(0.015625)"/>
       </defs>
       <use xlink:href="#DejaVuSans-30"/>
       <use xlink:href="#DejaVuSans-2e" x="63.623047"/>
       <use xlink:href="#DejaVuSans-34" x="95.410156"/>
      </g>
     </g>
    </g>
    <g id="xtick_4">
     <g id="line2d_7">
      <path d="M 375.444148 244.078125 
L 375.444148 22.318125 
" clip-path="url(#pc91ca19c4b)" style="fill: none; stroke: #b0b0b0; stroke-width: 0.8; stroke-linecap: square"/>
     </g>
     <g id="line2d_8">
      <g>
       <use xlink:href="#m68d3b7248b" x="375.444148" y="244.078125" style="stroke: #000000; stroke-width: 0.8"/>
      </g>
     </g>
     <g id="text_4">
      <!-- 0.6 -->
      <g transform="translate(367.492585 258.676562) scale(0.1 -0.1)">
       <defs>
        <path id="DejaVuSans-36" d="M 2113 2584 
Q 1688 2584 1439 2293 
Q 1191 2003 1191 1497 
Q 1191 994 1439 701 
Q 1688 409 2113 409 
Q 2538 409 2786 701 
Q 3034 994 3034 1497 
Q 3034 2003 2786 2293 
Q 2538 2584 2113 2584 
z
M 3366 4563 
L 3366 3988 
Q 3128 4100 2886 4159 
Q 2644 4219 2406 4219 
Q 1781 4219 1451 3797 
Q 1122 3375 1075 2522 
Q 1259 2794 1537 2939 
Q 1816 3084 2150 3084 
Q 2853 3084 3261 2657 
Q 3669 2231 3669 1497 
Q 3669 778 3244 343 
Q 2819 -91 2113 -91 
Q 1303 -91 875 529 
Q 447 1150 447 2328 
Q 447 3434 972 4092 
Q 1497 4750 2381 4750 
Q 2619 4750 2861 4703 
Q 3103 4656 3366 4563 
z
" transform="scale(0.015625)"/>
       </defs>
       <use xlink:href="#DejaVuSans-30"/>
       <use xlink:href="#DejaVuSans-2e" x="63.623047"/>
       <use xlink:href="#DejaVuSans-36" x="95.410156"/>
      </g>
     </g>
    </g>
    <g id="xtick_5">
     <g id="line2d_9">
      <path d="M 476.898693 244.078125 
L 476.898693 22.318125 
" clip-path="url(#pc91ca19c4b)" style="fill: none; stroke: #b0b0b0; stroke-width: 0.8; stroke-linecap: square"/>
     </g>
     <g id="line2d_10">
      <g>
       <use xlink:href="#m68d3b7248b" x="476.898693" y="244.078125" style="stroke: #000000; stroke-width: 0.8"/>
      </g>
     </g>
     <g id="text_5">
      <!-- 0.8 -->
      <g transform="translate(468.947131 258.676562) scale(0.1 -0.1)">
       <defs>
        <path id="DejaVuSans-38" d="M 2034 2216 
Q 1584 2216 1326 1975 
Q 1069 1734 1069 1313 
Q 1069 891 1326 650 
Q 1584 409 2034 409 
Q 2484 409 2743 651 
Q 3003 894 3003 1313 
Q 3003 1734 2745 1975 
Q 2488 2216 2034 2216 
z
M 1403 2484 
Q 997 2584 770 2862 
Q 544 3141 544 3541 
Q 544 4100 942 4425 
Q 1341 4750 2034 4750 
Q 2731 4750 3128 4425 
Q 3525 4100 3525 3541 
Q 3525 3141 3298 2862 
Q 3072 2584 2669 2484 
Q 3125 2378 3379 2068 
Q 3634 1759 3634 1313 
Q 3634 634 3220 271 
Q 2806 -91 2034 -91 
Q 1263 -91 848 271 
Q 434 634 434 1313 
Q 434 1759 690 2068 
Q 947 2378 1403 2484 
z
M 1172 3481 
Q 1172 3119 1398 2916 
Q 1625 2713 2034 2713 
Q 2441 2713 2670 2916 
Q 2900 3119 2900 3481 
Q 2900 3844 2670 4047 
Q 2441 4250 2034 4250 
Q 1625 4250 1398 4047 
Q 1172 3844 1172 3481 
z
" transform="scale(0.015625)"/>
       </defs>
       <use xlink:href="#DejaVuSans-30"/>
       <use xlink:href="#DejaVuSans-2e" x="63.623047"/>
       <use xlink:href="#DejaVuSans-38" x="95.410156"/>
      </g>
     </g>
    </g>
    <g id="xtick_6">
     <g id="line2d_11">
      <path d="M 578.353239 244.078125 
L 578.353239 22.318125 
" clip-path="url(#pc91ca19c4b)" style="fill: none; stroke: #b0b0b0; stroke-width: 0.8; stroke-linecap: square"/>
     </g>
     <g id="line2d_12">
      <g>
       <use xlink:href="#m68d3b7248b" x="578.353239" y="244.078125" style="stroke: #000000; stroke-width: 0.8"/>
      </g>
     </g>
     <g id="text_6">
      <!-- 1.0 -->
      <g transform="translate(570.401676 258.676562) scale(0.1 -0.1)">
       <defs>
        <path id="DejaVuSans-31" d="M 794 531 
L 1825 531 
L 1825 4091 
L 703 3866 
L 703 4441 
L 1819 4666 
L 2450 4666 
L 2450 531 
L 3481 531 
L 3481 0 
L 794 0 
L 794 531 
z
" transform="scale(0.015625)"/>
       </defs>
       <use xlink:href="#DejaVuSans-31"/>
       <use xlink:href="#DejaVuSans-2e" x="63.623047"/>
       <use xlink:href="#DejaVuSans-30" x="95.410156"/>
      </g>
     </g>
    </g>
    <g id="text_7">
     <!-- False Positive Rate -->
     <g transform="translate(268.957188 273.874375) scale(0.12 -0.12)">
      <defs>
       <path id="DejaVuSans-46" d="M 628 4666 
L 3309 4666 
L 3309 4134 
L 1259 4134 
L 1259 2759 
L 3109 2759 
L 3109 2228 
L 1259 2228 
L 1259 0 
L 628 0 
L 628 4666 
z
" transform="scale(0.015625)"/>
       <path id="DejaVuSans-61" d="M 2194 1759 
Q 1497 1759 1228 1600 
Q 959 1441 959 1056 
Q 959 750 1161 570 
Q 1363 391 1709 391 
Q 2188 391 2477 730 
Q 2766 1069 2766 1631 
L 2766 1759 
L 2194 1759 
z
M 3341 1997 
L 3341 0 
L 2766 0 
L 2766 531 
Q 2569 213 2275 61 
Q 1981 -91 1556 -91 
Q 1019 -91 701 211 
Q 384 513 384 1019 
Q 384 1609 779 1909 
Q 1175 2209 1959 2209 
L 2766 2209 
L 2766 2266 
Q 2766 2663 2505 2880 
Q 2244 3097 1772 3097 
Q 1472 3097 1187 3025 
Q 903 2953 641 2809 
L 641 3341 
Q 956 3463 1253 3523 
Q 1550 3584 1831 3584 
Q 2591 3584 2966 3190 
Q 3341 2797 3341 1997 
z
" transform="scale(0.015625)"/>
       <path id="DejaVuSans-6c" d="M 603 4863 
L 1178 4863 
L 1178 0 
L 603 0 
L 603 4863 
z
" transform="scale(0.015625)"/>
       <path id="DejaVuSans-73" d="M 2834 3397 
L 2834 2853 
Q 2591 2978 2328 3040 
Q 2066 3103 1784 3103 
Q 1356 3103 1142 2972 
Q 928 2841 928 2578 
Q 928 2378 1081 2264 
Q 1234 2150 1697 2047 
L 1894 2003 
Q 2506 1872 2764 1633 
Q 3022 1394 3022 966 
Q 3022 478 2636 193 
Q 2250 -91 1575 -91 
Q 1294 -91 989 -36 
Q 684 19 347 128 
L 347 722 
Q 666 556 975 473 
Q 1284 391 1588 391 
Q 1994 391 2212 530 
Q 2431 669 2431 922 
Q 2431 1156 2273 1281 
Q 2116 1406 1581 1522 
L 1381 1569 
Q 847 1681 609 1914 
Q 372 2147 372 2553 
Q 372 3047 722 3315 
Q 1072 3584 1716 3584 
Q 2034 3584 2315 3537 
Q 2597 3491 2834 3397 
z
" transform="scale(0.015625)"/>
       <path id="DejaVuSans-65" d="M 3597 1894 
L 3597 1613 
L 953 1613 
Q 991 1019 1311 708 
Q 1631 397 2203 397 
Q 2534 397 2845 478 
Q 3156 559 3463 722 
L 3463 178 
Q 3153 47 2828 -22 
Q 2503 -91 2169 -91 
Q 1331 -91 842 396 
Q 353 884 353 1716 
Q 353 2575 817 3079 
Q 1281 3584 2069 3584 
Q 2775 3584 3186 3129 
Q 3597 2675 3597 1894 
z
M 3022 2063 
Q 3016 2534 2758 2815 
Q 2500 3097 2075 3097 
Q 1594 3097 1305 2825 
Q 1016 2553 972 2059 
L 3022 2063 
z
" transform="scale(0.015625)"/>
       <path id="DejaVuSans-20" transform="scale(0.015625)"/>
       <path id="DejaVuSans-50" d="M 1259 4147 
L 1259 2394 
L 2053 2394 
Q 2494 2394 2734 2622 
Q 2975 2850 2975 3272 
Q 2975 3691 2734 3919 
Q 2494 4147 2053 4147 
L 1259 4147 
z
M 628 4666 
L 2053 4666 
Q 2838 4666 3239 4311 
Q 3641 3956 3641 3272 
Q 3641 2581 3239 2228 
Q 2838 1875 2053 1875 
L 1259 1875 
L 1259 0 
L 628 0 
L 628 4666 
z
" transform="scale(0.015625)"/>
       <path id="DejaVuSans-6f" d="M 1959 3097 
Q 1497 3097 1228 2736 
Q 959 2375 959 1747 
Q 959 1119 1226 758 
Q 1494 397 1959 397 
Q 2419 397 2687 759 
Q 2956 1122 2956 1747 
Q 2956 2369 2687 2733 
Q 2419 3097 1959 3097 
z
M 1959 3584 
Q 2709 3584 3137 3096 
Q 3566 2609 3566 1747 
Q 3566 888 3137 398 
Q 2709 -91 1959 -91 
Q 1206 -91 779 398 
Q 353 888 353 1747 
Q 353 2609 779 3096 
Q 1206 3584 1959 3584 
z
" transform="scale(0.015625)"/>
       <path id="DejaVuSans-69" d="M 603 3500 
L 1178 3500 
L 1178 0 
L 603 0 
L 603 3500 
z
M 603 4863 
L 1178 4863 
L 1178 4134 
L 603 4134 
L 603 4863 
z
" transform="scale(0.015625)"/>
       <path id="DejaVuSans-74" d="M 1172 4494 
L 1172 3500 
L 2356 3500 
L 2356 3053 
L 1172 3053 
L 1172 1153 
Q 1172 725 1289 603 
Q 1406 481 1766 481 
L 2356 481 
L 2356 0 
L 1766 0 
Q 1100 0 847 248 
Q 594 497 594 1153 
L 594 3053 
L 172 3053 
L 172 3500 
L 594 3500 
L 594 4494 
L 1172 4494 
z
" transform="scale(0.015625)"/>
       <path id="DejaVuSans-76" d="M 191 3500 
L 800 3500 
L 1894 563 
L 2988 3500 
L 3597 3500 
L 2284 0 
L 1503 0 
L 191 3500 
z
" transform="scale(0.015625)"/>
       <path id="DejaVuSans-52" d="M 2841 2188 
Q 3044 2119 3236 1894 
Q 3428 1669 3622 1275 
L 4263 0 
L 3584 0 
L 2988 1197 
Q 2756 1666 2539 1819 
Q 2322 1972 1947 1972 
L 1259 1972 
L 1259 0 
L 628 0 
L 628 4666 
L 2053 4666 
Q 2853 4666 3247 4331 
Q 3641 3997 3641 3322 
Q 3641 2881 3436 2590 
Q 3231 2300 2841 2188 
z
M 1259 4147 
L 1259 2491 
L 2053 2491 
Q 2509 2491 2742 2702 
Q 2975 2913 2975 3322 
Q 2975 3731 2742 3939 
Q 2509 4147 2053 4147 
L 1259 4147 
z
" transform="scale(0.015625)"/>
      </defs>
      <use xlink:href="#DejaVuSans-46"/>
      <use xlink:href="#DejaVuSans-61" x="48.394531"/>
      <use xlink:href="#DejaVuSans-6c" x="109.673828"/>
      <use xlink:href="#DejaVuSans-73" x="137.457031"/>
      <use xlink:href="#DejaVuSans-65" x="189.556641"/>
      <use xlink:href="#DejaVuSans-20" x="251.080078"/>
      <use xlink:href="#DejaVuSans-50" x="282.867188"/>
      <use xlink:href="#DejaVuSans-6f" x="339.544922"/>
      <use xlink:href="#DejaVuSans-73" x="400.726562"/>
      <use xlink:href="#DejaVuSans-69" x="452.826172"/>
      <use xlink:href="#DejaVuSans-74" x="480.609375"/>
      <use xlink:href="#DejaVuSans-69" x="519.818359"/>
      <use xlink:href="#DejaVuSans-76" x="547.601562"/>
      <use xlink:href="#DejaVuSans-65" x="606.78125"/>
      <use xlink:href="#DejaVuSans-20" x="668.304688"/>
      <use xlink:href="#DejaVuSans-52" x="700.091797"/>
      <use xlink:href="#DejaVuSans-61" x="767.324219"/>
      <use xlink:href="#DejaVuSans-74" x="828.603516"/>
      <use xlink:href="#DejaVuSans-65" x="867.8125"/>
     </g>
    </g>
   </g>
   <g id="matplotlib.axis_2">
    <g id="ytick_1">
     <g id="line2d_13">
      <path d="M 45.716875 233.998125 
L 603.716875 233.998125 
" clip-path="url(#pc91ca19c4b)" style="fill: none; stroke: #b0b0b0; stroke-width: 0.8; stroke-linecap: square"/>
     </g>
     <g id="line2d_14">
      <defs>
       <path id="m5120bbbd05" d="M 0 0 
L -3.5 0 
" style="stroke: #000000; stroke-width: 0.8"/>
      </defs>
      <g>
       <use xlink:href="#m5120bbbd05" x="45.716875" y="233.998125" style="stroke: #000000; stroke-width: 0.8"/>
      </g>
     </g>
     <g id="text_8">
      <!-- 0.0 -->
      <g transform="translate(22.81375 237.797344) scale(0.1 -0.1)">
       <use xlink:href="#DejaVuSans-30"/>
       <use xlink:href="#DejaVuSans-2e" x="63.623047"/>
       <use xlink:href="#DejaVuSans-30" x="95.410156"/>
      </g>
     </g>
    </g>
    <g id="ytick_2">
     <g id="line2d_15">
      <path d="M 45.716875 193.678125 
L 603.716875 193.678125 
" clip-path="url(#pc91ca19c4b)" style="fill: none; stroke: #b0b0b0; stroke-width: 0.8; stroke-linecap: square"/>
     </g>
     <g id="line2d_16">
      <g>
       <use xlink:href="#m5120bbbd05" x="45.716875" y="193.678125" style="stroke: #000000; stroke-width: 0.8"/>
      </g>
     </g>
     <g id="text_9">
      <!-- 0.2 -->
      <g transform="translate(22.81375 197.477344) scale(0.1 -0.1)">
       <use xlink:href="#DejaVuSans-30"/>
       <use xlink:href="#DejaVuSans-2e" x="63.623047"/>
       <use xlink:href="#DejaVuSans-32" x="95.410156"/>
      </g>
     </g>
    </g>
    <g id="ytick_3">
     <g id="line2d_17">
      <path d="M 45.716875 153.358125 
L 603.716875 153.358125 
" clip-path="url(#pc91ca19c4b)" style="fill: none; stroke: #b0b0b0; stroke-width: 0.8; stroke-linecap: square"/>
     </g>
     <g id="line2d_18">
      <g>
       <use xlink:href="#m5120bbbd05" x="45.716875" y="153.358125" style="stroke: #000000; stroke-width: 0.8"/>
      </g>
     </g>
     <g id="text_10">
      <!-- 0.4 -->
      <g transform="translate(22.81375 157.157344) scale(0.1 -0.1)">
       <use xlink:href="#DejaVuSans-30"/>
       <use xlink:href="#DejaVuSans-2e" x="63.623047"/>
       <use xlink:href="#DejaVuSans-34" x="95.410156"/>
      </g>
     </g>
    </g>
    <g id="ytick_4">
     <g id="line2d_19">
      <path d="M 45.716875 113.038125 
L 603.716875 113.038125 
" clip-path="url(#pc91ca19c4b)" style="fill: none; stroke: #b0b0b0; stroke-width: 0.8; stroke-linecap: square"/>
     </g>
     <g id="line2d_20">
      <g>
       <use xlink:href="#m5120bbbd05" x="45.716875" y="113.038125" style="stroke: #000000; stroke-width: 0.8"/>
      </g>
     </g>
     <g id="text_11">
      <!-- 0.6 -->
      <g transform="translate(22.81375 116.837344) scale(0.1 -0.1)">
       <use xlink:href="#DejaVuSans-30"/>
       <use xlink:href="#DejaVuSans-2e" x="63.623047"/>
       <use xlink:href="#DejaVuSans-36" x="95.410156"/>
      </g>
     </g>
    </g>
    <g id="ytick_5">
     <g id="line2d_21">
      <path d="M 45.716875 72.718125 
L 603.716875 72.718125 
" clip-path="url(#pc91ca19c4b)" style="fill: none; stroke: #b0b0b0; stroke-width: 0.8; stroke-linecap: square"/>
     </g>
     <g id="line2d_22">
      <g>
       <use xlink:href="#m5120bbbd05" x="45.716875" y="72.718125" style="stroke: #000000; stroke-width: 0.8"/>
      </g>
     </g>
     <g id="text_12">
      <!-- 0.8 -->
      <g transform="translate(22.81375 76.517344) scale(0.1 -0.1)">
       <use xlink:href="#DejaVuSans-30"/>
       <use xlink:href="#DejaVuSans-2e" x="63.623047"/>
       <use xlink:href="#DejaVuSans-38" x="95.410156"/>
      </g>
     </g>
    </g>
    <g id="ytick_6">
     <g id="line2d_23">
      <path d="M 45.716875 32.398125 
L 603.716875 32.398125 
" clip-path="url(#pc91ca19c4b)" style="fill: none; stroke: #b0b0b0; stroke-width: 0.8; stroke-linecap: square"/>
     </g>
     <g id="line2d_24">
      <g>
       <use xlink:href="#m5120bbbd05" x="45.716875" y="32.398125" style="stroke: #000000; stroke-width: 0.8"/>
      </g>
     </g>
     <g id="text_13">
      <!-- 1.0 -->
      <g transform="translate(22.81375 36.197344) scale(0.1 -0.1)">
       <use xlink:href="#DejaVuSans-31"/>
       <use xlink:href="#DejaVuSans-2e" x="63.623047"/>
       <use xlink:href="#DejaVuSans-30" x="95.410156"/>
      </g>
     </g>
    </g>
    <g id="text_14">
     <!-- True Positive Rate -->
     <g transform="translate(16.318125 186.63375) rotate(-90) scale(0.12 -0.12)">
      <defs>
       <path id="DejaVuSans-54" d="M -19 4666 
L 3928 4666 
L 3928 4134 
L 2272 4134 
L 2272 0 
L 1638 0 
L 1638 4134 
L -19 4134 
L -19 4666 
z
" transform="scale(0.015625)"/>
       <path id="DejaVuSans-72" d="M 2631 2963 
Q 2534 3019 2420 3045 
Q 2306 3072 2169 3072 
Q 1681 3072 1420 2755 
Q 1159 2438 1159 1844 
L 1159 0 
L 581 0 
L 581 3500 
L 1159 3500 
L 1159 2956 
Q 1341 3275 1631 3429 
Q 1922 3584 2338 3584 
Q 2397 3584 2469 3576 
Q 2541 3569 2628 3553 
L 2631 2963 
z
" transform="scale(0.015625)"/>
       <path id="DejaVuSans-75" d="M 544 1381 
L 544 3500 
L 1119 3500 
L 1119 1403 
Q 1119 906 1312 657 
Q 1506 409 1894 409 
Q 2359 409 2629 706 
Q 2900 1003 2900 1516 
L 2900 3500 
L 3475 3500 
L 3475 0 
L 2900 0 
L 2900 538 
Q 2691 219 2414 64 
Q 2138 -91 1772 -91 
Q 1169 -91 856 284 
Q 544 659 544 1381 
z
M 1991 3584 
L 1991 3584 
z
" transform="scale(0.015625)"/>
      </defs>
      <use xlink:href="#DejaVuSans-54"/>
      <use xlink:href="#DejaVuSans-72" x="46.333984"/>
      <use xlink:href="#DejaVuSans-75" x="87.447266"/>
      <use xlink:href="#DejaVuSans-65" x="150.826172"/>
      <use xlink:href="#DejaVuSans-20" x="212.349609"/>
      <use xlink:href="#DejaVuSans-50" x="244.136719"/>
      <use xlink:href="#DejaVuSans-6f" x="300.814453"/>
      <use xlink:href="#DejaVuSans-73" x="361.996094"/>
      <use xlink:href="#DejaVuSans-69" x="414.095703"/>
      <use xlink:href="#DejaVuSans-74" x="441.878906"/>
      <use xlink:href="#DejaVuSans-69" x="481.087891"/>
      <use xlink:href="#DejaVuSans-76" x="508.871094"/>
      <use xlink:href="#DejaVuSans-65" x="568.050781"/>
      <use xlink:href="#DejaVuSans-20" x="629.574219"/>
      <use xlink:href="#DejaVuSans-52" x="661.361328"/>
      <use xlink:href="#DejaVuSans-61" x="728.59375"/>
      <use xlink:href="#DejaVuSans-74" x="789.873047"/>
      <use xlink:href="#DejaVuSans-65" x="829.082031"/>
     </g>
    </g>
   </g>
   <g id="line2d_25">
    <path d="M 71.080511 233.998125 
L 71.148776 194.85082 
L 71.21704 194.85082 
L 71.285305 184.589742 
L 71.353569 184.589742 
L 71.421833 183.210101 
L 71.490098 183.210101 
L 71.558362 180.537047 
L 71.626627 180.537047 
L 71.694891 179.071179 
L 71.899684 179.071179 
L 71.967949 178.553814 
L 72.036213 178.553814 
L 72.104477 178.122676 
L 72.172742 178.122676 
L 72.172742 178.036448 
L 72.241006 177.519083 
L 72.30927 177.519083 
L 72.377535 175.794532 
L 72.445799 175.794532 
L 72.445799 174.673574 
L 72.582328 174.673574 
L 72.650592 174.156209 
L 72.855386 174.156209 
L 72.855386 173.897526 
L 73.060179 173.897526 
L 73.060179 173.638844 
L 73.196708 173.638844 
L 73.264972 171.828065 
L 73.333236 171.65561 
L 73.401501 170.620879 
L 73.53803 170.620879 
L 73.606294 170.189742 
L 73.674558 170.189742 
L 73.742823 169.672376 
L 73.811087 169.672376 
L 73.879352 169.241239 
L 74.01588 169.241239 
L 74.084145 168.551418 
L 74.152409 168.551418 
L 74.220674 167.861598 
L 74.288938 167.861598 
L 74.288938 167.689143 
L 74.357202 167.689143 
L 74.63026 167.171778 
L 74.698524 166.826868 
L 74.766789 166.826868 
L 74.835053 166.05082 
L 75.24464 166.05082 
L 75.312904 165.016089 
L 75.449433 165.016089 
L 75.517697 163.808903 
L 75.654226 163.722676 
L 75.72249 163.550221 
L 76.063812 163.463993 
L 76.132077 163.205311 
L 76.268605 163.205311 
L 76.33687 162.946628 
L 76.541663 162.51549 
L 76.609927 162.17058 
L 76.746456 162.17058 
L 76.746456 161.998125 
L 76.882985 161.82567 
L 76.882985 161.566987 
L 77.360836 161.13585 
L 77.360836 160.963394 
L 77.4291 160.963394 
L 77.770422 160.790939 
L 77.838687 160.101119 
L 77.906951 160.101119 
L 77.975215 159.583754 
L 78.04348 159.583754 
L 78.111744 159.066388 
L 78.248273 158.980161 
L 78.589595 158.635251 
L 78.657859 158.031658 
L 78.862653 157.94543 
L 78.930917 157.428065 
L 79.067446 157.341838 
L 79.13571 156.824472 
L 79.340503 156.824472 
L 79.408768 156.307107 
L 79.545296 156.307107 
L 79.545296 155.789742 
L 80.159676 155.358604 
L 80.22794 154.668784 
L 80.637527 154.668784 
L 80.705791 154.151418 
L 80.84232 154.151418 
L 80.84232 153.978963 
L 81.115378 153.720281 
L 81.183642 153.289143 
L 81.251906 153.289143 
L 81.320171 153.03046 
L 81.524964 152.944233 
L 81.524964 152.858005 
L 82.071079 152.081957 
L 82.071079 151.909502 
L 82.139344 151.909502 
L 82.958516 150.702317 
L 82.958516 150.616089 
L 83.026781 150.616089 
L 83.231574 150.184951 
L 83.299838 149.667586 
L 83.368103 149.667586 
L 83.368103 149.581359 
L 83.504631 149.322676 
L 83.572896 148.891538 
L 83.914218 148.805311 
L 83.914218 148.632856 
L 84.119011 148.632856 
L 84.187275 147.77058 
L 84.323804 147.684353 
L 84.323804 147.253215 
L 84.460333 147.253215 
L 84.528597 146.994532 
L 84.596862 146.994532 
L 84.596862 146.822077 
L 84.938184 146.73585 
L 84.938184 146.649622 
L 85.620828 146.563394 
L 85.689092 146.390939 
L 86.235207 146.304712 
L 86.235207 146.132257 
L 86.371736 146.132257 
L 86.44 145.528664 
L 86.781322 145.442436 
L 86.781322 145.356209 
L 86.917851 145.356209 
L 87.190909 145.011299 
L 87.327438 145.011299 
L 87.395702 144.752616 
L 87.737024 144.666388 
L 87.805288 144.235251 
L 88.078346 144.149023 
L 88.078346 144.062796 
L 88.283139 143.976568 
L 88.283139 143.54543 
L 88.351404 143.54543 
L 88.487932 143.459203 
L 88.556197 143.028065 
L 88.692726 142.941838 
L 88.692726 142.85561 
L 88.897519 142.769382 
L 88.897519 142.683155 
L 89.307105 142.596927 
L 89.307105 142.424472 
L 89.648427 142.424472 
L 89.648427 142.338245 
L 90.058013 141.993335 
L 90.194542 141.907107 
L 90.262807 141.562197 
L 90.331071 141.562197 
L 90.399335 141.131059 
L 90.672393 141.131059 
L 90.740657 140.872376 
L 90.877186 140.872376 
L 90.877186 140.613694 
L 91.150244 140.613694 
L 91.150244 140.441239 
L 91.55983 140.182556 
L 91.55983 140.010101 
L 91.628095 140.010101 
L 91.832888 140.010101 
L 91.832888 139.837646 
L 91.969417 139.837646 
L 91.969417 139.665191 
L 92.310739 139.578963 
L 92.379003 139.320281 
L 92.447267 139.320281 
L 92.447267 139.061598 
L 92.925118 139.061598 
L 92.993383 138.544233 
L 93.198176 138.458005 
L 93.198176 138.371778 
L 93.334704 138.371778 
L 93.402969 138.113095 
L 93.607762 137.768185 
L 93.812555 137.164592 
L 94.290406 136.474772 
L 94.495199 136.388544 
L 94.495199 136.216089 
L 94.631728 136.216089 
L 94.836521 135.871179 
L 95.177843 135.784951 
L 95.246108 135.612496 
L 95.382636 135.526269 
L 95.58743 135.267586 
L 95.655694 134.663993 
L 95.723958 134.663993 
L 97.020982 133.629263 
L 97.703626 133.543035 
L 97.703626 133.37058 
L 97.976683 132.853215 
L 97.976683 132.68076 
L 98.249741 132.422077 
L 98.318005 132.249622 
L 98.591063 132.249622 
L 98.591063 132.163394 
L 98.591063 131.990939 
L 98.659327 131.990939 
L 98.932385 131.646029 
L 98.932385 131.387347 
L 99.205443 131.387347 
L 99.273707 130.783754 
L 99.341971 130.783754 
L 99.341971 130.611299 
L 99.683293 130.611299 
L 99.751558 130.352616 
L 99.956351 130.352616 
L 99.956351 130.180161 
L 100.161144 130.093933 
L 100.229408 129.921478 
L 100.638995 129.835251 
L 100.638995 129.662796 
L 100.843788 129.576568 
L 100.912052 129.231658 
L 101.79949 128.541838 
L 101.867754 128.1107 
L 102.072547 128.024472 
L 102.072547 127.852017 
L 102.140812 127.852017 
L 102.482134 127.76579 
L 102.482134 127.679562 
L 102.686927 127.593335 
L 102.755191 127.248424 
L 103.096513 127.162197 
L 103.096513 127.075969 
L 103.301306 126.989742 
L 103.301306 126.817287 
L 103.369571 126.817287 
L 103.437835 126.731059 
L 103.98395 126.731059 
L 103.98395 126.472376 
L 104.325272 126.386149 
L 104.325272 126.299921 
L 104.666594 126.213694 
L 104.734859 125.868784 
L 104.871387 125.782556 
L 104.871387 125.696329 
L 104.939652 125.696329 
L 105.144445 125.437646 
L 105.144445 125.178963 
L 106.168411 125.092736 
L 106.168411 124.747826 
L 106.30494 124.747826 
L 106.30494 124.661598 
L 106.441469 124.402915 
L 106.714526 124.402915 
L 106.714526 123.971778 
L 106.987584 123.971778 
L 106.987584 123.626868 
L 107.055848 123.626868 
L 107.124112 123.54064 
L 107.124112 123.281957 
L 107.601963 123.19573 
L 107.670228 122.85082 
L 107.943285 122.764592 
L 108.01155 122.592137 
L 108.148078 122.505909 
L 108.148078 122.333454 
L 108.352872 122.247227 
L 108.352872 122.160999 
L 108.898987 122.074772 
L 108.898987 121.988544 
L 108.967251 121.988544 
L 109.240309 121.902317 
L 109.240309 121.816089 
L 109.445102 121.729862 
L 109.445102 121.643634 
L 109.71816 121.643634 
L 109.71816 121.471179 
L 109.922953 121.384951 
L 109.922953 121.298724 
L 109.991217 121.298724 
L 110.059482 121.126269 
L 110.332539 121.126269 
L 110.332539 120.953814 
L 110.469068 120.953814 
L 110.469068 120.522676 
L 110.81039 120.436448 
L 110.81039 120.177766 
L 111.083447 120.091538 
L 111.083447 120.005311 
L 111.697827 119.919083 
L 111.697827 119.832856 
L 111.90262 119.832856 
L 111.90262 119.6604 
L 112.243942 119.574173 
L 112.243942 119.487945 
L 112.585264 119.487945 
L 112.585264 119.31549 
L 113.199644 119.229263 
L 113.267908 118.62567 
L 113.540966 118.62567 
L 113.540966 118.366987 
L 113.745759 118.28076 
L 113.745759 118.194532 
L 113.950552 118.108305 
L 113.950552 117.849622 
L 114.22361 117.849622 
L 114.291874 117.504712 
L 114.564932 117.418484 
L 114.564932 117.332257 
L 114.70146 117.332257 
L 114.70146 117.159802 
L 115.042782 117.159802 
L 115.042782 116.987347 
L 115.657162 116.901119 
L 116.135013 116.642436 
L 116.339806 116.642436 
L 116.339806 116.211299 
L 116.817657 116.125071 
L 116.885921 115.952616 
L 117.158979 115.952616 
L 117.158979 115.866388 
L 117.227243 115.780161 
L 117.295508 115.349023 
L 117.500301 115.262796 
L 117.500301 114.831658 
L 118.11468 114.74543 
L 118.11468 114.659203 
L 118.933853 114.572975 
L 119.002117 114.314293 
L 119.275175 114.228065 
L 119.343439 114.05561 
L 119.616497 113.969382 
L 119.616497 113.883155 
L 120.230877 113.796927 
L 120.230877 113.624472 
L 120.640463 113.538245 
L 120.640463 113.36579 
L 120.708727 113.36579 
L 120.913521 113.193335 
L 121.5279 113.107107 
L 121.5279 112.934652 
L 121.800958 112.934652 
L 121.800958 112.762197 
L 122.005751 112.675969 
L 122.074015 112.331059 
L 122.210544 112.244832 
L 122.210544 111.899921 
L 122.483602 111.899921 
L 122.483602 111.813694 
L 122.893188 111.555011 
L 122.961452 111.296329 
L 123.302774 111.296329 
L 123.371039 110.951418 
L 123.644096 110.865191 
L 123.917154 110.606508 
L 124.32674 110.520281 
L 124.395005 110.261598 
L 124.599798 110.261598 
L 124.599798 110.089143 
L 124.804591 110.002915 
L 125.009384 109.916688 
L 125.214177 109.83046 
L 126.101615 108.79573 
L 126.374672 108.709502 
L 126.374672 108.623275 
L 126.715994 108.537047 
L 126.784259 108.364592 
L 127.398638 108.364592 
L 127.398638 108.192137 
L 128.013018 108.105909 
L 128.013018 108.019682 
L 128.695662 107.933454 
L 128.763926 107.674772 
L 128.968719 107.588544 
L 129.036984 107.416089 
L 129.651363 107.329862 
L 129.651363 107.243634 
L 130.675329 106.726269 
L 130.743594 106.381359 
L 131.016651 106.295131 
L 131.016651 106.122676 
L 131.699295 106.036448 
L 131.972353 105.777766 
L 132.24541 105.777766 
L 132.313675 105.432856 
L 133.132847 105.346628 
L 133.201112 104.743035 
L 133.405905 104.743035 
L 133.405905 104.57058 
L 134.088549 104.484353 
L 134.088549 104.398125 
L 134.361607 104.311897 
L 134.634664 104.053215 
L 134.839457 103.966987 
L 134.907722 103.708305 
L 135.65863 103.622077 
L 135.65863 103.449622 
L 135.726894 103.449622 
L 135.863423 103.277167 
L 136.409538 103.190939 
L 136.887389 102.587347 
L 137.296976 102.501119 
L 137.36524 102.242436 
L 137.501769 102.156209 
L 137.570033 101.983754 
L 137.774826 101.897526 
L 137.774826 101.638844 
L 138.047884 101.552616 
L 138.116148 101.293933 
L 138.252677 101.121478 
L 138.662263 101.035251 
L 139.413172 100.172975 
L 139.754494 100.172975 
L 139.754494 100.00052 
L 139.822758 100.00052 
L 140.710195 99.914293 
L 140.77846 99.65561 
L 141.529368 99.569382 
L 141.597633 99.396927 
L 142.416805 99.138245 
L 142.416805 98.96579 
L 142.689863 98.879562 
L 142.758127 98.793335 
L 143.099449 98.707107 
L 143.167714 98.448424 
L 143.986886 98.362197 
L 143.986886 98.275969 
L 144.737795 98.189742 
L 144.806059 98.017287 
L 145.215646 97.931059 
L 145.215646 97.844832 
L 145.693496 97.758604 
L 145.693496 97.672376 
L 146.307876 97.586149 
L 146.444405 97.499921 
L 147.263577 97.413694 
L 147.331842 97.155011 
L 147.741428 97.068784 
L 147.877957 96.896329 
L 148.355808 96.810101 
L 148.355808 96.723874 
L 148.833658 96.723874 
L 148.833658 96.637646 
L 149.925889 95.344233 
L 150.335475 95.344233 
L 150.335475 95.08555 
L 150.949855 94.999323 
L 150.949855 94.913095 
L 151.49597 94.826868 
L 151.49597 94.74064 
L 152.519936 94.74064 
L 152.519936 94.568185 
L 153.475637 94.481957 
L 153.475637 94.39573 
L 153.543902 94.39573 
L 153.680431 94.137047 
L 154.090017 94.05082 
L 154.29481 93.878365 
L 155.318776 93.878365 
L 155.318776 93.619682 
L 156.274478 93.533454 
L 156.274478 93.360999 
L 156.957122 93.274772 
L 157.025386 92.843634 
L 157.503237 92.757406 
L 157.503237 92.671179 
L 157.776294 92.671179 
L 157.776294 92.412496 
L 158.185881 92.326269 
L 158.185881 92.240041 
L 159.073318 92.153814 
L 159.073318 92.067586 
L 159.41464 92.067586 
L 159.482904 91.808903 
L 159.619433 91.808903 
L 159.619433 91.636448 
L 160.029019 91.636448 
L 160.029019 91.463993 
L 160.438606 91.377766 
L 160.438606 91.291538 
L 160.984721 91.291538 
L 160.984721 91.032856 
L 161.12125 91.032856 
L 161.12125 90.8604 
L 161.667365 90.774173 
L 161.667365 90.687945 
L 161.940423 90.687945 
L 162.008687 90.429263 
L 162.281745 90.343035 
L 162.281745 90.256808 
L 162.623067 90.17058 
L 162.691331 89.998125 
L 162.896124 89.998125 
L 162.964388 89.653215 
L 163.30571 89.566987 
L 163.30571 89.222077 
L 163.373975 89.222077 
L 164.466205 88.532257 
L 164.466205 88.273574 
L 164.53447 88.273574 
L 165.01232 88.273574 
L 165.01232 88.187347 
L 165.421907 88.014891 
L 165.899758 87.928664 
L 165.899758 87.756209 
L 166.172815 87.669981 
L 167.060252 87.325071 
L 167.265045 87.325071 
L 167.401574 87.066388 
L 167.674632 86.980161 
L 167.674632 86.807706 
L 167.879425 86.721478 
L 167.879425 86.462796 
L 168.289011 86.376568 
L 168.289011 86.290341 
L 168.357276 86.290341 
L 168.562069 86.204113 
L 168.971655 86.117885 
L 168.971655 86.031658 
L 169.381242 85.94543 
L 169.381242 85.60052 
L 170.200414 85.514293 
L 170.200414 85.428065 
L 170.678265 85.341838 
L 170.678265 85.25561 
L 171.497438 85.169382 
L 171.975289 84.9107 
L 173.54537 84.824472 
L 174.910658 84.307107 
L 174.910658 84.048424 
L 175.456773 83.962197 
L 175.798095 83.703514 
L 177.026854 83.272376 
L 177.026854 83.186149 
L 177.095118 83.186149 
L 177.163383 83.099921 
L 177.572969 82.841239 
L 177.982556 82.841239 
L 177.982556 82.668784 
L 178.119084 82.668784 
L 178.528671 82.323874 
L 179.279579 82.237646 
L 179.347844 81.978963 
L 179.552637 81.892736 
L 179.552637 81.806508 
L 180.303545 81.720281 
L 180.303545 81.634053 
L 180.371809 81.634053 
L 180.986189 81.289143 
L 181.873626 81.202915 
L 181.873626 81.03046 
L 182.488006 80.944233 
L 182.55627 80.858005 
L 183.034121 80.771778 
L 183.034121 80.68555 
L 183.375443 80.68555 
L 184.126351 80.34064 
L 184.87726 80.34064 
L 184.945524 80.081957 
L 185.286846 79.99573 
L 185.286846 79.909502 
L 186.379076 79.823275 
L 186.379076 79.737047 
L 186.856927 79.65082 
L 186.856927 79.564592 
L 187.812629 79.478365 
L 188.153951 79.219682 
L 188.358744 79.133454 
L 188.358744 79.047227 
L 188.427008 79.047227 
L 188.631801 78.960999 
L 189.177917 78.874772 
L 189.655767 78.788544 
L 189.724032 78.529862 
L 189.997089 78.529862 
L 189.997089 78.184951 
L 190.065354 78.184951 
L 190.338411 78.184951 
L 190.338411 78.098724 
L 190.816262 77.840041 
L 191.021055 77.753814 
L 191.908492 77.408903 
L 191.908492 77.322676 
L 192.249814 77.150221 
L 193.137252 77.063993 
L 193.137252 76.977766 
L 194.434275 76.891538 
L 194.502539 76.287945 
L 195.048655 76.287945 
L 195.048655 76.029263 
L 195.458241 75.943035 
L 195.458241 75.856808 
L 196.687 75.77058 
L 196.687 75.684353 
L 197.30138 75.598125 
L 197.30138 75.511897 
L 197.710966 75.42567 
L 197.77923 75.253215 
L 197.915759 75.253215 
L 197.915759 75.08076 
L 198.325346 74.822077 
L 198.325346 74.73585 
L 198.871461 74.649622 
L 199.417576 73.959802 
L 200.031956 73.873574 
L 200.031956 73.787347 
L 201.19245 73.701119 
L 202.284681 73.269981 
L 203.035589 73.183754 
L 203.035589 73.011299 
L 203.172118 73.011299 
L 203.172118 72.925071 
L 203.376911 72.493933 
L 203.649969 72.235251 
L 204.400877 72.149023 
L 204.742199 72.062796 
L 205.151785 71.890341 
L 205.288314 71.717885 
L 206.31228 71.631658 
L 206.380544 71.459203 
L 207.40451 71.372975 
L 207.40451 71.286748 
L 207.541039 71.286748 
L 208.565005 70.683155 
L 209.179385 70.596927 
L 209.179385 70.5107 
L 209.247649 70.5107 
L 210.271615 70.424472 
L 210.749466 70.079562 
L 211.43211 69.993335 
L 211.43211 69.907107 
L 212.046489 69.820879 
L 212.046489 69.734652 
L 214.504008 69.648424 
L 215.32318 69.217287 
L 215.527973 69.217287 
L 215.527973 69.044832 
L 215.596238 69.044832 
L 216.347146 68.699921 
L 216.347146 68.613694 
L 216.688468 68.527466 
L 216.688468 68.441239 
L 217.371112 68.355011 
L 217.371112 68.268784 
L 217.507641 68.268784 
L 217.507641 68.096329 
L 217.985492 68.010101 
L 218.053756 67.923874 
L 219.419044 67.837646 
L 219.487308 67.492736 
L 220.511274 67.406508 
L 220.647803 67.147826 
L 223.583172 66.026868 
L 223.583172 65.94064 
L 225.631104 65.854412 
L 225.835897 65.681957 
L 226.177219 65.423275 
L 226.928128 65.337047 
L 227.405978 65.164592 
L 228.225151 64.905909 
L 228.907795 64.819682 
L 228.907795 64.733454 
L 229.180853 64.733454 
L 230.682669 63.957406 
L 231.7749 63.957406 
L 232.184486 63.612496 
L 232.662337 63.612496 
L 233.344981 63.440041 
L 233.618038 63.440041 
L 234.027625 63.095131 
L 235.870764 63.008903 
L 237.37258 62.319083 
L 237.918695 62.146628 
L 238.328282 62.0604 
L 238.464811 62.0604 
L 239.898363 61.37058 
L 241.127122 61.284353 
L 241.331915 61.111897 
L 241.741502 61.02567 
L 244.472077 59.818484 
L 245.496043 59.818484 
L 247.407446 59.559802 
L 247.407446 59.473574 
L 248.363148 59.301119 
L 248.499677 59.301119 
L 248.499677 59.214891 
L 249.250585 59.042436 
L 249.660172 58.869981 
L 250.547609 58.783754 
L 250.547609 58.697526 
L 250.820666 58.611299 
L 251.093724 58.525071 
L 251.981161 58.525071 
L 251.981161 58.438844 
L 252.185954 58.180161 
L 253.005127 58.093933 
L 253.005127 57.921478 
L 253.8243 57.749023 
L 254.643472 57.662796 
L 254.643472 57.576568 
L 256.213554 57.490341 
L 256.281818 57.231658 
L 257.100991 57.14543 
L 257.100991 57.059203 
L 258.398014 56.972975 
L 258.875865 56.886748 
L 258.875865 56.714293 
L 259.353716 56.714293 
L 259.353716 56.541838 
L 259.763302 56.541838 
L 259.763302 56.369382 
L 259.831567 56.369382 
L 261.060326 56.283155 
L 261.12859 56.196927 
L 261.674705 56.1107 
L 262.084292 55.76579 
L 262.152556 55.334652 
L 262.8352 55.248424 
L 262.903464 54.989742 
L 264.54181 54.903514 
L 264.54181 54.731059 
L 265.702305 54.644832 
L 265.702305 54.558604 
L 267.818501 54.472376 
L 268.569409 54.127466 
L 271.573043 54.041239 
L 271.641307 53.782556 
L 272.597009 53.696329 
L 272.665273 53.437646 
L 273.074859 53.351418 
L 273.074859 53.265191 
L 274.303618 53.178963 
L 274.303618 53.092736 
L 274.371883 53.092736 
L 274.781469 52.834053 
L 275.600642 52.747826 
L 275.600642 52.661598 
L 275.668906 52.661598 
L 276.010228 52.575371 
L 276.010228 52.489143 
L 276.556344 52.402915 
L 276.556344 52.23046 
L 278.194689 52.144233 
L 278.194689 52.058005 
L 279.76477 51.971778 
L 280.37915 51.799323 
L 281.949231 51.713095 
L 282.154024 51.626868 
L 283.17799 51.54064 
L 283.17799 51.454412 
L 283.997163 51.368185 
L 283.997163 51.19573 
L 284.748071 51.109502 
L 284.748071 51.023275 
L 286.454681 50.937047 
L 286.59121 50.764592 
L 286.796003 50.764592 
L 286.796003 50.592137 
L 287.888233 50.505909 
L 288.024762 50.419682 
L 288.502613 50.333454 
L 288.843935 50.247227 
L 290.209223 50.160999 
L 290.209223 50.074772 
L 290.823602 50.074772 
L 290.823602 49.902317 
L 291.574511 49.816089 
L 291.779304 49.729862 
L 292.666741 49.643634 
L 292.735005 49.298724 
L 293.554178 49.212496 
L 293.554178 49.126269 
L 293.622443 49.126269 
L 294.578144 49.040041 
L 294.919466 48.953814 
L 295.60211 48.867586 
L 295.875168 48.781359 
L 296.421283 48.695131 
L 296.489547 48.436448 
L 297.30872 48.350221 
L 297.445249 48.263993 
L 298.674008 48.177766 
L 298.674008 48.091538 
L 299.424916 48.005311 
L 300.175825 47.832856 
L 300.380618 47.832856 
L 301.541113 47.487945 
L 303.452516 47.401718 
L 303.52078 47.229263 
L 305.159126 47.143035 
L 305.363919 47.056808 
L 306.31962 46.97058 
L 306.31962 46.884353 
L 307.070529 46.798125 
L 307.070529 46.711897 
L 307.957966 46.711897 
L 307.957966 46.62567 
L 309.869369 46.366987 
L 311.098128 46.28076 
L 311.43945 46.194532 
L 312.53168 46.194532 
L 312.53168 46.022077 
L 313.214324 46.022077 
L 313.214324 45.849622 
L 314.033497 45.763394 
L 314.101761 45.677167 
L 315.398785 45.590939 
L 315.398785 45.504712 
L 318.197625 45.418484 
L 318.334154 45.332257 
L 319.289856 45.246029 
L 319.35812 45.159802 
L 322.088696 45.073574 
L 322.77134 44.901119 
L 323.86357 44.728664 
L 323.86357 44.642436 
L 325.843238 44.642436 
L 325.979766 44.469981 
L 327.481583 44.383754 
L 327.549847 44.297526 
L 328.300756 44.211299 
L 328.36902 44.125071 
L 332.533148 44.038844 
L 332.533148 43.952616 
L 334.103229 43.866388 
L 334.103229 43.780161 
L 335.878104 43.693933 
L 336.014633 43.607706 
L 337.106863 43.521478 
L 337.106863 43.435251 
L 338.062564 43.349023 
L 338.062564 43.262796 
L 338.540415 43.176568 
L 338.540415 43.090341 
L 340.31529 43.004113 
L 340.31529 42.917885 
L 341.680577 42.831658 
L 341.680577 42.659203 
L 342.909337 42.572975 
L 342.977601 42.40052 
L 343.660245 42.314293 
L 343.933302 42.05561 
L 344.274624 42.05561 
L 344.274624 41.883155 
L 345.29859 41.796927 
L 345.366855 41.624472 
L 347.414787 41.538245 
L 347.414787 41.452017 
L 350.896271 41.36579 
L 350.964535 41.279562 
L 352.466352 41.193335 
L 352.671145 41.020879 
L 354.855606 40.934652 
L 355.265192 40.848424 
L 356.971802 40.762197 
L 356.971802 40.675969 
L 357.586182 40.589742 
L 357.586182 40.503514 
L 358.678412 40.417287 
L 358.746676 40.331059 
L 360.180229 40.244832 
L 360.180229 40.158604 
L 361.477252 40.072376 
L 361.477252 39.986149 
L 363.183862 39.899921 
L 363.320391 39.813694 
L 367.006668 39.727466 
L 367.006668 39.641239 
L 368.235428 39.555011 
L 368.235428 39.468784 
L 369.191129 39.382556 
L 369.259393 39.296329 
L 372.331291 39.210101 
L 372.331291 39.123874 
L 373.969637 39.037646 
L 373.969637 38.951418 
L 374.037901 38.951418 
L 374.379223 38.865191 
L 374.447488 38.778963 
L 377.041535 38.692736 
L 377.109799 38.606508 
L 384.141032 38.520281 
L 384.618883 38.434053 
L 384.89194 38.434053 
L 384.89194 38.261598 
L 384.960205 38.261598 
L 385.233262 38.175371 
L 385.98417 38.089143 
L 385.98417 38.002915 
L 387.349458 37.916688 
L 387.349458 37.83046 
L 389.875241 37.744233 
L 389.875241 37.658005 
L 391.104 37.658005 
L 391.104 37.571778 
L 391.104 37.399323 
L 392.947139 37.313095 
L 392.947139 37.226868 
L 397.31606 37.14064 
L 397.31606 37.054412 
L 397.998704 36.968185 
L 397.998704 36.881957 
L 399.227463 36.79573 
L 399.227463 36.709502 
L 401.411924 36.623275 
L 401.411924 36.537047 
L 401.480188 36.537047 
L 405.371259 36.45082 
L 405.371259 36.364592 
L 405.439523 36.364592 
L 406.463489 36.364592 
L 406.668282 36.192137 
L 411.44679 36.105909 
L 411.788112 36.019682 
L 414.382159 35.933454 
L 414.382159 35.847227 
L 416.293562 35.760999 
L 416.293562 35.674772 
L 419.97984 35.588544 
L 419.97984 35.502317 
L 423.188266 35.416089 
L 423.188266 35.329862 
L 423.256531 35.329862 
L 427.011073 35.243634 
L 427.011073 35.157406 
L 427.966774 35.071179 
L 427.966774 34.984951 
L 428.922476 34.898724 
L 428.99074 34.812496 
L 432.267431 34.726269 
L 432.267431 34.553814 
L 432.335695 34.553814 
L 438.61602 34.467586 
L 438.61602 34.381359 
L 440.390894 34.295131 
L 440.390894 34.208903 
L 440.459159 34.208903 
L 444.2137 34.122676 
L 444.350229 34.036448 
L 447.695185 33.950221 
L 447.695185 33.863993 
L 456.910878 33.777766 
L 456.910878 33.691538 
L 459.436661 33.605311 
L 460.528891 33.432856 
L 464.829548 33.346628 
L 464.829548 33.2604 
L 475.000943 33.174173 
L 475.000943 33.087945 
L 476.571024 33.001718 
L 476.844082 32.829263 
L 484.42143 32.743035 
L 484.694487 32.656808 
L 492.886215 32.57058 
L 493.227537 32.484353 
L 578.353239 32.398125 
L 578.353239 32.398125 
" clip-path="url(#pc91ca19c4b)" style="fill: none; stroke: #1f77b4; stroke-width: 1.5; stroke-linecap: square"/>
   </g>
   <g id="line2d_26">
    <path d="M 71.080511 233.998125 
L 578.353239 32.398125 
" clip-path="url(#pc91ca19c4b)" style="fill: none; stroke-dasharray: 7.4,3.2; stroke-dashoffset: 0; stroke: #808080; stroke-width: 2"/>
   </g>
   <g id="patch_3">
    <path d="M 45.716875 244.078125 
L 45.716875 22.318125 
" style="fill: none; stroke: #000000; stroke-width: 0.8; stroke-linejoin: miter; stroke-linecap: square"/>
   </g>
   <g id="patch_4">
    <path d="M 603.716875 244.078125 
L 603.716875 22.318125 
" style="fill: none; stroke: #000000; stroke-width: 0.8; stroke-linejoin: miter; stroke-linecap: square"/>
   </g>
   <g id="patch_5">
    <path d="M 45.716875 244.078125 
L 603.716875 244.078125 
" style="fill: none; stroke: #000000; stroke-width: 0.8; stroke-linejoin: miter; stroke-linecap: square"/>
   </g>
   <g id="patch_6">
    <path d="M 45.716875 22.318125 
L 603.716875 22.318125 
" style="fill: none; stroke: #000000; stroke-width: 0.8; stroke-linejoin: miter; stroke-linecap: square"/>
   </g>
   <g id="text_15">
    <!-- ROC Curve: Decision Tree Classifier -->
    <g transform="translate(218.85625 16.318125) scale(0.12 -0.12)">
     <defs>
      <path id="DejaVuSans-4f" d="M 2522 4238 
Q 1834 4238 1429 3725 
Q 1025 3213 1025 2328 
Q 1025 1447 1429 934 
Q 1834 422 2522 422 
Q 3209 422 3611 934 
Q 4013 1447 4013 2328 
Q 4013 3213 3611 3725 
Q 3209 4238 2522 4238 
z
M 2522 4750 
Q 3503 4750 4090 4092 
Q 4678 3434 4678 2328 
Q 4678 1225 4090 567 
Q 3503 -91 2522 -91 
Q 1538 -91 948 565 
Q 359 1222 359 2328 
Q 359 3434 948 4092 
Q 1538 4750 2522 4750 
z
" transform="scale(0.015625)"/>
      <path id="DejaVuSans-43" d="M 4122 4306 
L 4122 3641 
Q 3803 3938 3442 4084 
Q 3081 4231 2675 4231 
Q 1875 4231 1450 3742 
Q 1025 3253 1025 2328 
Q 1025 1406 1450 917 
Q 1875 428 2675 428 
Q 3081 428 3442 575 
Q 3803 722 4122 1019 
L 4122 359 
Q 3791 134 3420 21 
Q 3050 -91 2638 -91 
Q 1578 -91 968 557 
Q 359 1206 359 2328 
Q 359 3453 968 4101 
Q 1578 4750 2638 4750 
Q 3056 4750 3426 4639 
Q 3797 4528 4122 4306 
z
" transform="scale(0.015625)"/>
      <path id="DejaVuSans-3a" d="M 750 794 
L 1409 794 
L 1409 0 
L 750 0 
L 750 794 
z
M 750 3309 
L 1409 3309 
L 1409 2516 
L 750 2516 
L 750 3309 
z
" transform="scale(0.015625)"/>
      <path id="DejaVuSans-44" d="M 1259 4147 
L 1259 519 
L 2022 519 
Q 2988 519 3436 956 
Q 3884 1394 3884 2338 
Q 3884 3275 3436 3711 
Q 2988 4147 2022 4147 
L 1259 4147 
z
M 628 4666 
L 1925 4666 
Q 3281 4666 3915 4102 
Q 4550 3538 4550 2338 
Q 4550 1131 3912 565 
Q 3275 0 1925 0 
L 628 0 
L 628 4666 
z
" transform="scale(0.015625)"/>
      <path id="DejaVuSans-63" d="M 3122 3366 
L 3122 2828 
Q 2878 2963 2633 3030 
Q 2388 3097 2138 3097 
Q 1578 3097 1268 2742 
Q 959 2388 959 1747 
Q 959 1106 1268 751 
Q 1578 397 2138 397 
Q 2388 397 2633 464 
Q 2878 531 3122 666 
L 3122 134 
Q 2881 22 2623 -34 
Q 2366 -91 2075 -91 
Q 1284 -91 818 406 
Q 353 903 353 1747 
Q 353 2603 823 3093 
Q 1294 3584 2113 3584 
Q 2378 3584 2631 3529 
Q 2884 3475 3122 3366 
z
" transform="scale(0.015625)"/>
      <path id="DejaVuSans-6e" d="M 3513 2113 
L 3513 0 
L 2938 0 
L 2938 2094 
Q 2938 2591 2744 2837 
Q 2550 3084 2163 3084 
Q 1697 3084 1428 2787 
Q 1159 2491 1159 1978 
L 1159 0 
L 581 0 
L 581 3500 
L 1159 3500 
L 1159 2956 
Q 1366 3272 1645 3428 
Q 1925 3584 2291 3584 
Q 2894 3584 3203 3211 
Q 3513 2838 3513 2113 
z
" transform="scale(0.015625)"/>
      <path id="DejaVuSans-66" d="M 2375 4863 
L 2375 4384 
L 1825 4384 
Q 1516 4384 1395 4259 
Q 1275 4134 1275 3809 
L 1275 3500 
L 2222 3500 
L 2222 3053 
L 1275 3053 
L 1275 0 
L 697 0 
L 697 3053 
L 147 3053 
L 147 3500 
L 697 3500 
L 697 3744 
Q 697 4328 969 4595 
Q 1241 4863 1831 4863 
L 2375 4863 
z
" transform="scale(0.015625)"/>
     </defs>
     <use xlink:href="#DejaVuSans-52"/>
     <use xlink:href="#DejaVuSans-4f" x="69.482422"/>
     <use xlink:href="#DejaVuSans-43" x="148.193359"/>
     <use xlink:href="#DejaVuSans-20" x="218.017578"/>
     <use xlink:href="#DejaVuSans-43" x="249.804688"/>
     <use xlink:href="#DejaVuSans-75" x="319.628906"/>
     <use xlink:href="#DejaVuSans-72" x="383.007812"/>
     <use xlink:href="#DejaVuSans-76" x="424.121094"/>
     <use xlink:href="#DejaVuSans-65" x="483.300781"/>
     <use xlink:href="#DejaVuSans-3a" x="544.824219"/>
     <use xlink:href="#DejaVuSans-20" x="578.515625"/>
     <use xlink:href="#DejaVuSans-44" x="610.302734"/>
     <use xlink:href="#DejaVuSans-65" x="687.304688"/>
     <use xlink:href="#DejaVuSans-63" x="748.828125"/>
     <use xlink:href="#DejaVuSans-69" x="803.808594"/>
     <use xlink:href="#DejaVuSans-73" x="831.591797"/>
     <use xlink:href="#DejaVuSans-69" x="883.691406"/>
     <use xlink:href="#DejaVuSans-6f" x="911.474609"/>
     <use xlink:href="#DejaVuSans-6e" x="972.65625"/>
     <use xlink:href="#DejaVuSans-20" x="1036.035156"/>
     <use xlink:href="#DejaVuSans-54" x="1067.822266"/>
     <use xlink:href="#DejaVuSans-72" x="1114.15625"/>
     <use xlink:href="#DejaVuSans-65" x="1153.019531"/>
     <use xlink:href="#DejaVuSans-65" x="1214.542969"/>
     <use xlink:href="#DejaVuSans-20" x="1276.066406"/>
     <use xlink:href="#DejaVuSans-43" x="1307.853516"/>
     <use xlink:href="#DejaVuSans-6c" x="1377.677734"/>
     <use xlink:href="#DejaVuSans-61" x="1405.460938"/>
     <use xlink:href="#DejaVuSans-73" x="1466.740234"/>
     <use xlink:href="#DejaVuSans-73" x="1518.839844"/>
     <use xlink:href="#DejaVuSans-69" x="1570.939453"/>
     <use xlink:href="#DejaVuSans-66" x="1598.722656"/>
     <use xlink:href="#DejaVuSans-69" x="1633.927734"/>
     <use xlink:href="#DejaVuSans-65" x="1661.710938"/>
     <use xlink:href="#DejaVuSans-72" x="1723.234375"/>
    </g>
   </g>
   <g id="legend_1">
    <g id="patch_7">
     <path d="M 415.6575 239.078125 
L 596.716875 239.078125 
Q 598.716875 239.078125 598.716875 237.078125 
L 598.716875 208.721875 
Q 598.716875 206.721875 596.716875 206.721875 
L 415.6575 206.721875 
Q 413.6575 206.721875 413.6575 208.721875 
L 413.6575 237.078125 
Q 413.6575 239.078125 415.6575 239.078125 
z
" style="fill: #ffffff; opacity: 0.8; stroke: #cccccc; stroke-linejoin: miter"/>
    </g>
    <g id="line2d_27">
     <path d="M 417.6575 214.820312 
L 427.6575 214.820312 
L 437.6575 214.820312 
" style="fill: none; stroke: #1f77b4; stroke-width: 1.5; stroke-linecap: square"/>
    </g>
    <g id="text_16">
     <!-- ROC Curve (AUC = 0.865557) -->
     <g transform="translate(445.6575 218.320312) scale(0.1 -0.1)">
      <defs>
       <path id="DejaVuSans-28" d="M 1984 4856 
Q 1566 4138 1362 3434 
Q 1159 2731 1159 2009 
Q 1159 1288 1364 580 
Q 1569 -128 1984 -844 
L 1484 -844 
Q 1016 -109 783 600 
Q 550 1309 550 2009 
Q 550 2706 781 3412 
Q 1013 4119 1484 4856 
L 1984 4856 
z
" transform="scale(0.015625)"/>
       <path id="DejaVuSans-41" d="M 2188 4044 
L 1331 1722 
L 3047 1722 
L 2188 4044 
z
M 1831 4666 
L 2547 4666 
L 4325 0 
L 3669 0 
L 3244 1197 
L 1141 1197 
L 716 0 
L 50 0 
L 1831 4666 
z
" transform="scale(0.015625)"/>
       <path id="DejaVuSans-55" d="M 556 4666 
L 1191 4666 
L 1191 1831 
Q 1191 1081 1462 751 
Q 1734 422 2344 422 
Q 2950 422 3222 751 
Q 3494 1081 3494 1831 
L 3494 4666 
L 4128 4666 
L 4128 1753 
Q 4128 841 3676 375 
Q 3225 -91 2344 -91 
Q 1459 -91 1007 375 
Q 556 841 556 1753 
L 556 4666 
z
" transform="scale(0.015625)"/>
       <path id="DejaVuSans-3d" d="M 678 2906 
L 4684 2906 
L 4684 2381 
L 678 2381 
L 678 2906 
z
M 678 1631 
L 4684 1631 
L 4684 1100 
L 678 1100 
L 678 1631 
z
" transform="scale(0.015625)"/>
       <path id="DejaVuSans-35" d="M 691 4666 
L 3169 4666 
L 3169 4134 
L 1269 4134 
L 1269 2991 
Q 1406 3038 1543 3061 
Q 1681 3084 1819 3084 
Q 2600 3084 3056 2656 
Q 3513 2228 3513 1497 
Q 3513 744 3044 326 
Q 2575 -91 1722 -91 
Q 1428 -91 1123 -41 
Q 819 9 494 109 
L 494 744 
Q 775 591 1075 516 
Q 1375 441 1709 441 
Q 2250 441 2565 725 
Q 2881 1009 2881 1497 
Q 2881 1984 2565 2268 
Q 2250 2553 1709 2553 
Q 1456 2553 1204 2497 
Q 953 2441 691 2322 
L 691 4666 
z
" transform="scale(0.015625)"/>
       <path id="DejaVuSans-37" d="M 525 4666 
L 3525 4666 
L 3525 4397 
L 1831 0 
L 1172 0 
L 2766 4134 
L 525 4134 
L 525 4666 
z
" transform="scale(0.015625)"/>
       <path id="DejaVuSans-29" d="M 513 4856 
L 1013 4856 
Q 1481 4119 1714 3412 
Q 1947 2706 1947 2009 
Q 1947 1309 1714 600 
Q 1481 -109 1013 -844 
L 513 -844 
Q 928 -128 1133 580 
Q 1338 1288 1338 2009 
Q 1338 2731 1133 3434 
Q 928 4138 513 4856 
z
" transform="scale(0.015625)"/>
      </defs>
      <use xlink:href="#DejaVuSans-52"/>
      <use xlink:href="#DejaVuSans-4f" x="69.482422"/>
      <use xlink:href="#DejaVuSans-43" x="148.193359"/>
      <use xlink:href="#DejaVuSans-20" x="218.017578"/>
      <use xlink:href="#DejaVuSans-43" x="249.804688"/>
      <use xlink:href="#DejaVuSans-75" x="319.628906"/>
      <use xlink:href="#DejaVuSans-72" x="383.007812"/>
      <use xlink:href="#DejaVuSans-76" x="424.121094"/>
      <use xlink:href="#DejaVuSans-65" x="483.300781"/>
      <use xlink:href="#DejaVuSans-20" x="544.824219"/>
      <use xlink:href="#DejaVuSans-28" x="576.611328"/>
      <use xlink:href="#DejaVuSans-41" x="615.625"/>
      <use xlink:href="#DejaVuSans-55" x="684.033203"/>
      <use xlink:href="#DejaVuSans-43" x="757.226562"/>
      <use xlink:href="#DejaVuSans-20" x="827.050781"/>
      <use xlink:href="#DejaVuSans-3d" x="858.837891"/>
      <use xlink:href="#DejaVuSans-20" x="942.626953"/>
      <use xlink:href="#DejaVuSans-30" x="974.414062"/>
      <use xlink:href="#DejaVuSans-2e" x="1038.037109"/>
      <use xlink:href="#DejaVuSans-38" x="1069.824219"/>
      <use xlink:href="#DejaVuSans-36" x="1133.447266"/>
      <use xlink:href="#DejaVuSans-35" x="1197.070312"/>
      <use xlink:href="#DejaVuSans-35" x="1260.693359"/>
      <use xlink:href="#DejaVuSans-35" x="1324.316406"/>
      <use xlink:href="#DejaVuSans-37" x="1387.939453"/>
      <use xlink:href="#DejaVuSans-29" x="1451.5625"/>
     </g>
    </g>
    <g id="line2d_28">
     <path d="M 417.6575 229.498437 
L 427.6575 229.498437 
L 437.6575 229.498437 
" style="fill: none; stroke-dasharray: 7.4,3.2; stroke-dashoffset: 0; stroke: #808080; stroke-width: 2"/>
    </g>
    <g id="text_17">
     <!-- Random Guess -->
     <g transform="translate(445.6575 232.998437) scale(0.1 -0.1)">
      <defs>
       <path id="DejaVuSans-64" d="M 2906 2969 
L 2906 4863 
L 3481 4863 
L 3481 0 
L 2906 0 
L 2906 525 
Q 2725 213 2448 61 
Q 2172 -91 1784 -91 
Q 1150 -91 751 415 
Q 353 922 353 1747 
Q 353 2572 751 3078 
Q 1150 3584 1784 3584 
Q 2172 3584 2448 3432 
Q 2725 3281 2906 2969 
z
M 947 1747 
Q 947 1113 1208 752 
Q 1469 391 1925 391 
Q 2381 391 2643 752 
Q 2906 1113 2906 1747 
Q 2906 2381 2643 2742 
Q 2381 3103 1925 3103 
Q 1469 3103 1208 2742 
Q 947 2381 947 1747 
z
" transform="scale(0.015625)"/>
       <path id="DejaVuSans-6d" d="M 3328 2828 
Q 3544 3216 3844 3400 
Q 4144 3584 4550 3584 
Q 5097 3584 5394 3201 
Q 5691 2819 5691 2113 
L 5691 0 
L 5113 0 
L 5113 2094 
Q 5113 2597 4934 2840 
Q 4756 3084 4391 3084 
Q 3944 3084 3684 2787 
Q 3425 2491 3425 1978 
L 3425 0 
L 2847 0 
L 2847 2094 
Q 2847 2600 2669 2842 
Q 2491 3084 2119 3084 
Q 1678 3084 1418 2786 
Q 1159 2488 1159 1978 
L 1159 0 
L 581 0 
L 581 3500 
L 1159 3500 
L 1159 2956 
Q 1356 3278 1631 3431 
Q 1906 3584 2284 3584 
Q 2666 3584 2933 3390 
Q 3200 3197 3328 2828 
z
" transform="scale(0.015625)"/>
       <path id="DejaVuSans-47" d="M 3809 666 
L 3809 1919 
L 2778 1919 
L 2778 2438 
L 4434 2438 
L 4434 434 
Q 4069 175 3628 42 
Q 3188 -91 2688 -91 
Q 1594 -91 976 548 
Q 359 1188 359 2328 
Q 359 3472 976 4111 
Q 1594 4750 2688 4750 
Q 3144 4750 3555 4637 
Q 3966 4525 4313 4306 
L 4313 3634 
Q 3963 3931 3569 4081 
Q 3175 4231 2741 4231 
Q 1884 4231 1454 3753 
Q 1025 3275 1025 2328 
Q 1025 1384 1454 906 
Q 1884 428 2741 428 
Q 3075 428 3337 486 
Q 3600 544 3809 666 
z
" transform="scale(0.015625)"/>
      </defs>
      <use xlink:href="#DejaVuSans-52"/>
      <use xlink:href="#DejaVuSans-61" x="67.232422"/>
      <use xlink:href="#DejaVuSans-6e" x="128.511719"/>
      <use xlink:href="#DejaVuSans-64" x="191.890625"/>
      <use xlink:href="#DejaVuSans-6f" x="255.367188"/>
      <use xlink:href="#DejaVuSans-6d" x="316.548828"/>
      <use xlink:href="#DejaVuSans-20" x="413.960938"/>
      <use xlink:href="#DejaVuSans-47" x="445.748047"/>
      <use xlink:href="#DejaVuSans-75" x="523.238281"/>
      <use xlink:href="#DejaVuSans-65" x="586.617188"/>
      <use xlink:href="#DejaVuSans-73" x="648.140625"/>
      <use xlink:href="#DejaVuSans-73" x="700.240234"/>
     </g>
    </g>
   </g>
  </g>
 </g>
 <defs>
  <clipPath id="pc91ca19c4b">
   <rect x="45.716875" y="22.318125" width="558" height="221.76"/>
  </clipPath>
 </defs>
</svg>
