<?xml version="1.0" encoding="utf-8" standalone="no"?>
<!DOCTYPE svg PUBLIC "-//W3C//DTD SVG 1.1//EN"
  "http://www.w3.org/Graphics/SVG/1.1/DTD/svg11.dtd">
<svg xmlns:xlink="http://www.w3.org/1999/xlink" width="499.316875pt" height="478.326625pt" viewBox="0 0 499.316875 478.326625" xmlns="http://www.w3.org/2000/svg" version="1.1">
 <metadata>
  <rdf:RDF xmlns:dc="http://purl.org/dc/elements/1.1/" xmlns:cc="http://creativecommons.org/ns#" xmlns:rdf="http://www.w3.org/1999/02/22-rdf-syntax-ns#">
   <cc:Work>
    <dc:type rdf:resource="http://purl.org/dc/dcmitype/StillImage"/>
    <dc:date>2025-03-17T16:45:15.244839</dc:date>
    <dc:format>image/svg+xml</dc:format>
    <dc:creator>
     <cc:Agent>
      <dc:title>Matplotlib v3.9.2, https://matplotlib.org/</dc:title>
     </cc:Agent>
    </dc:creator>
   </cc:Work>
  </rdf:RDF>
 </metadata>
 <defs>
  <style type="text/css">*{stroke-linejoin: round; stroke-linecap: butt}</style>
 </defs>
 <g id="figure_1">
  <g id="patch_1">
   <path d="M 0 478.326625 
L 499.316875 478.326625 
L 499.316875 0 
L 0 0 
z
" style="fill: #ffffff"/>
  </g>
  <g id="axes_1">
   <g id="patch_2">
    <path d="M 45.716875 339.84 
L 492.116875 339.84 
L 492.116875 7.2 
L 45.716875 7.2 
z
" style="fill: #ffffff"/>
   </g>
   <g id="matplotlib.axis_1">
    <g id="xtick_1">
     <g id="line2d_1">
      <path d="M 66.007784 339.84 
L 66.007784 7.2 
" clip-path="url(#p2120ba971a)" style="fill: none; stroke: #b0b0b0; stroke-width: 0.8; stroke-linecap: square"/>
     </g>
     <g id="line2d_2">
      <defs>
       <path id="mb028a8114b" d="M 0 0 
L 0 3.5 
" style="stroke: #000000; stroke-width: 0.8"/>
      </defs>
      <g>
       <use xlink:href="#mb028a8114b" x="66.007784" y="339.84" style="stroke: #000000; stroke-width: 0.8"/>
      </g>
     </g>
     <g id="text_1">
      <!-- 0.0 -->
      <g transform="translate(58.056222 354.438437) scale(0.1 -0.1)">
       <defs>
        <path id="DejaVuSans-30" d="M 2034 4250 
Q 1547 4250 1301 3770 
Q 1056 3291 1056 2328 
Q 1056 1369 1301 889 
Q 1547 409 2034 409 
Q 2525 409 2770 889 
Q 3016 1369 3016 2328 
Q 3016 3291 2770 3770 
Q 2525 4250 2034 4250 
z
M 2034 4750 
Q 2819 4750 3233 4129 
Q 3647 3509 3647 2328 
Q 3647 1150 3233 529 
Q 2819 -91 2034 -91 
Q 1250 -91 836 529 
Q 422 1150 422 2328 
Q 422 3509 836 4129 
Q 1250 4750 2034 4750 
z
" transform="scale(0.015625)"/>
        <path id="DejaVuSans-2e" d="M 684 794 
L 1344 794 
L 1344 0 
L 684 0 
L 684 794 
z
" transform="scale(0.015625)"/>
       </defs>
       <use xlink:href="#DejaVuSans-30"/>
       <use xlink:href="#DejaVuSans-2e" x="63.623047"/>
       <use xlink:href="#DejaVuSans-30" x="95.410156"/>
      </g>
     </g>
    </g>
    <g id="xtick_2">
     <g id="line2d_3">
      <path d="M 147.17142 339.84 
L 147.17142 7.2 
" clip-path="url(#p2120ba971a)" style="fill: none; stroke: #b0b0b0; stroke-width: 0.8; stroke-linecap: square"/>
     </g>
     <g id="line2d_4">
      <g>
       <use xlink:href="#mb028a8114b" x="147.17142" y="339.84" style="stroke: #000000; stroke-width: 0.8"/>
      </g>
     </g>
     <g id="text_2">
      <!-- 0.2 -->
      <g transform="translate(139.219858 354.438437) scale(0.1 -0.1)">
       <defs>
        <path id="DejaVuSans-32" d="M 1228 531 
L 3431 531 
L 3431 0 
L 469 0 
L 469 531 
Q 828 903 1448 1529 
Q 2069 2156 2228 2338 
Q 2531 2678 2651 2914 
Q 2772 3150 2772 3378 
Q 2772 3750 2511 3984 
Q 2250 4219 1831 4219 
Q 1534 4219 1204 4116 
Q 875 4013 500 3803 
L 500 4441 
Q 881 4594 1212 4672 
Q 1544 4750 1819 4750 
Q 2544 4750 2975 4387 
Q 3406 4025 3406 3419 
Q 3406 3131 3298 2873 
Q 3191 2616 2906 2266 
Q 2828 2175 2409 1742 
Q 1991 1309 1228 531 
z
" transform="scale(0.015625)"/>
       </defs>
       <use xlink:href="#DejaVuSans-30"/>
       <use xlink:href="#DejaVuSans-2e" x="63.623047"/>
       <use xlink:href="#DejaVuSans-32" x="95.410156"/>
      </g>
     </g>
    </g>
    <g id="xtick_3">
     <g id="line2d_5">
      <path d="M 228.335057 339.84 
L 228.335057 7.2 
" clip-path="url(#p2120ba971a)" style="fill: none; stroke: #b0b0b0; stroke-width: 0.8; stroke-linecap: square"/>
     </g>
     <g id="line2d_6">
      <g>
       <use xlink:href="#mb028a8114b" x="228.335057" y="339.84" style="stroke: #000000; stroke-width: 0.8"/>
      </g>
     </g>
     <g id="text_3">
      <!-- 0.4 -->
      <g transform="translate(220.383494 354.438437) scale(0.1 -0.1)">
       <defs>
        <path id="DejaVuSans-34" d="M 2419 4116 
L 825 1625 
L 2419 1625 
L 2419 4116 
z
M 2253 4666 
L 3047 4666 
L 3047 1625 
L 3713 1625 
L 3713 1100 
L 3047 1100 
L 3047 0 
L 2419 0 
L 2419 1100 
L 313 1100 
L 313 1709 
L 2253 4666 
z
" transform="scale(0.015625)"/>
       </defs>
       <use xlink:href="#DejaVuSans-30"/>
       <use xlink:href="#DejaVuSans-2e" x="63.623047"/>
       <use xlink:href="#DejaVuSans-34" x="95.410156"/>
      </g>
     </g>
    </g>
    <g id="xtick_4">
     <g id="line2d_7">
      <path d="M 309.498693 339.84 
L 309.498693 7.2 
" clip-path="url(#p2120ba971a)" style="fill: none; stroke: #b0b0b0; stroke-width: 0.8; stroke-linecap: square"/>
     </g>
     <g id="line2d_8">
      <g>
       <use xlink:href="#mb028a8114b" x="309.498693" y="339.84" style="stroke: #000000; stroke-width: 0.8"/>
      </g>
     </g>
     <g id="text_4">
      <!-- 0.6 -->
      <g transform="translate(301.547131 354.438437) scale(0.1 -0.1)">
       <defs>
        <path id="DejaVuSans-36" d="M 2113 2584 
Q 1688 2584 1439 2293 
Q 1191 2003 1191 1497 
Q 1191 994 1439 701 
Q 1688 409 2113 409 
Q 2538 409 2786 701 
Q 3034 994 3034 1497 
Q 3034 2003 2786 2293 
Q 2538 2584 2113 2584 
z
M 3366 4563 
L 3366 3988 
Q 3128 4100 2886 4159 
Q 2644 4219 2406 4219 
Q 1781 4219 1451 3797 
Q 1122 3375 1075 2522 
Q 1259 2794 1537 2939 
Q 1816 3084 2150 3084 
Q 2853 3084 3261 2657 
Q 3669 2231 3669 1497 
Q 3669 778 3244 343 
Q 2819 -91 2113 -91 
Q 1303 -91 875 529 
Q 447 1150 447 2328 
Q 447 3434 972 4092 
Q 1497 4750 2381 4750 
Q 2619 4750 2861 4703 
Q 3103 4656 3366 4563 
z
" transform="scale(0.015625)"/>
       </defs>
       <use xlink:href="#DejaVuSans-30"/>
       <use xlink:href="#DejaVuSans-2e" x="63.623047"/>
       <use xlink:href="#DejaVuSans-36" x="95.410156"/>
      </g>
     </g>
    </g>
    <g id="xtick_5">
     <g id="line2d_9">
      <path d="M 390.66233 339.84 
L 390.66233 7.2 
" clip-path="url(#p2120ba971a)" style="fill: none; stroke: #b0b0b0; stroke-width: 0.8; stroke-linecap: square"/>
     </g>
     <g id="line2d_10">
      <g>
       <use xlink:href="#mb028a8114b" x="390.66233" y="339.84" style="stroke: #000000; stroke-width: 0.8"/>
      </g>
     </g>
     <g id="text_5">
      <!-- 0.8 -->
      <g transform="translate(382.710767 354.438437) scale(0.1 -0.1)">
       <defs>
        <path id="DejaVuSans-38" d="M 2034 2216 
Q 1584 2216 1326 1975 
Q 1069 1734 1069 1313 
Q 1069 891 1326 650 
Q 1584 409 2034 409 
Q 2484 409 2743 651 
Q 3003 894 3003 1313 
Q 3003 1734 2745 1975 
Q 2488 2216 2034 2216 
z
M 1403 2484 
Q 997 2584 770 2862 
Q 544 3141 544 3541 
Q 544 4100 942 4425 
Q 1341 4750 2034 4750 
Q 2731 4750 3128 4425 
Q 3525 4100 3525 3541 
Q 3525 3141 3298 2862 
Q 3072 2584 2669 2484 
Q 3125 2378 3379 2068 
Q 3634 1759 3634 1313 
Q 3634 634 3220 271 
Q 2806 -91 2034 -91 
Q 1263 -91 848 271 
Q 434 634 434 1313 
Q 434 1759 690 2068 
Q 947 2378 1403 2484 
z
M 1172 3481 
Q 1172 3119 1398 2916 
Q 1625 2713 2034 2713 
Q 2441 2713 2670 2916 
Q 2900 3119 2900 3481 
Q 2900 3844 2670 4047 
Q 2441 4250 2034 4250 
Q 1625 4250 1398 4047 
Q 1172 3844 1172 3481 
z
" transform="scale(0.015625)"/>
       </defs>
       <use xlink:href="#DejaVuSans-30"/>
       <use xlink:href="#DejaVuSans-2e" x="63.623047"/>
       <use xlink:href="#DejaVuSans-38" x="95.410156"/>
      </g>
     </g>
    </g>
    <g id="xtick_6">
     <g id="line2d_11">
      <path d="M 471.825966 339.84 
L 471.825966 7.2 
" clip-path="url(#p2120ba971a)" style="fill: none; stroke: #b0b0b0; stroke-width: 0.8; stroke-linecap: square"/>
     </g>
     <g id="line2d_12">
      <g>
       <use xlink:href="#mb028a8114b" x="471.825966" y="339.84" style="stroke: #000000; stroke-width: 0.8"/>
      </g>
     </g>
     <g id="text_6">
      <!-- 1.0 -->
      <g transform="translate(463.874403 354.438437) scale(0.1 -0.1)">
       <defs>
        <path id="DejaVuSans-31" d="M 794 531 
L 1825 531 
L 1825 4091 
L 703 3866 
L 703 4441 
L 1819 4666 
L 2450 4666 
L 2450 531 
L 3481 531 
L 3481 0 
L 794 0 
L 794 531 
z
" transform="scale(0.015625)"/>
       </defs>
       <use xlink:href="#DejaVuSans-31"/>
       <use xlink:href="#DejaVuSans-2e" x="63.623047"/>
       <use xlink:href="#DejaVuSans-30" x="95.410156"/>
      </g>
     </g>
    </g>
    <g id="text_7">
     <!-- Recall -->
     <g transform="translate(251.01625 369.63625) scale(0.12 -0.12)">
      <defs>
       <path id="DejaVuSans-52" d="M 2841 2188 
Q 3044 2119 3236 1894 
Q 3428 1669 3622 1275 
L 4263 0 
L 3584 0 
L 2988 1197 
Q 2756 1666 2539 1819 
Q 2322 1972 1947 1972 
L 1259 1972 
L 1259 0 
L 628 0 
L 628 4666 
L 2053 4666 
Q 2853 4666 3247 4331 
Q 3641 3997 3641 3322 
Q 3641 2881 3436 2590 
Q 3231 2300 2841 2188 
z
M 1259 4147 
L 1259 2491 
L 2053 2491 
Q 2509 2491 2742 2702 
Q 2975 2913 2975 3322 
Q 2975 3731 2742 3939 
Q 2509 4147 2053 4147 
L 1259 4147 
z
" transform="scale(0.015625)"/>
       <path id="DejaVuSans-65" d="M 3597 1894 
L 3597 1613 
L 953 1613 
Q 991 1019 1311 708 
Q 1631 397 2203 397 
Q 2534 397 2845 478 
Q 3156 559 3463 722 
L 3463 178 
Q 3153 47 2828 -22 
Q 2503 -91 2169 -91 
Q 1331 -91 842 396 
Q 353 884 353 1716 
Q 353 2575 817 3079 
Q 1281 3584 2069 3584 
Q 2775 3584 3186 3129 
Q 3597 2675 3597 1894 
z
M 3022 2063 
Q 3016 2534 2758 2815 
Q 2500 3097 2075 3097 
Q 1594 3097 1305 2825 
Q 1016 2553 972 2059 
L 3022 2063 
z
" transform="scale(0.015625)"/>
       <path id="DejaVuSans-63" d="M 3122 3366 
L 3122 2828 
Q 2878 2963 2633 3030 
Q 2388 3097 2138 3097 
Q 1578 3097 1268 2742 
Q 959 2388 959 1747 
Q 959 1106 1268 751 
Q 1578 397 2138 397 
Q 2388 397 2633 464 
Q 2878 531 3122 666 
L 3122 134 
Q 2881 22 2623 -34 
Q 2366 -91 2075 -91 
Q 1284 -91 818 406 
Q 353 903 353 1747 
Q 353 2603 823 3093 
Q 1294 3584 2113 3584 
Q 2378 3584 2631 3529 
Q 2884 3475 3122 3366 
z
" transform="scale(0.015625)"/>
       <path id="DejaVuSans-61" d="M 2194 1759 
Q 1497 1759 1228 1600 
Q 959 1441 959 1056 
Q 959 750 1161 570 
Q 1363 391 1709 391 
Q 2188 391 2477 730 
Q 2766 1069 2766 1631 
L 2766 1759 
L 2194 1759 
z
M 3341 1997 
L 3341 0 
L 2766 0 
L 2766 531 
Q 2569 213 2275 61 
Q 1981 -91 1556 -91 
Q 1019 -91 701 211 
Q 384 513 384 1019 
Q 384 1609 779 1909 
Q 1175 2209 1959 2209 
L 2766 2209 
L 2766 2266 
Q 2766 2663 2505 2880 
Q 2244 3097 1772 3097 
Q 1472 3097 1187 3025 
Q 903 2953 641 2809 
L 641 3341 
Q 956 3463 1253 3523 
Q 1550 3584 1831 3584 
Q 2591 3584 2966 3190 
Q 3341 2797 3341 1997 
z
" transform="scale(0.015625)"/>
       <path id="DejaVuSans-6c" d="M 603 4863 
L 1178 4863 
L 1178 0 
L 603 0 
L 603 4863 
z
" transform="scale(0.015625)"/>
      </defs>
      <use xlink:href="#DejaVuSans-52"/>
      <use xlink:href="#DejaVuSans-65" x="64.982422"/>
      <use xlink:href="#DejaVuSans-63" x="126.505859"/>
      <use xlink:href="#DejaVuSans-61" x="181.486328"/>
      <use xlink:href="#DejaVuSans-6c" x="242.765625"/>
      <use xlink:href="#DejaVuSans-6c" x="270.548828"/>
     </g>
    </g>
   </g>
   <g id="matplotlib.axis_2">
    <g id="ytick_1">
     <g id="line2d_13">
      <path d="M 45.716875 286.232727 
L 492.116875 286.232727 
" clip-path="url(#p2120ba971a)" style="fill: none; stroke: #b0b0b0; stroke-width: 0.8; stroke-linecap: square"/>
     </g>
     <g id="line2d_14">
      <defs>
       <path id="mcfa9f698bc" d="M 0 0 
L -3.5 0 
" style="stroke: #000000; stroke-width: 0.8"/>
      </defs>
      <g>
       <use xlink:href="#mcfa9f698bc" x="45.716875" y="286.232727" style="stroke: #000000; stroke-width: 0.8"/>
      </g>
     </g>
     <g id="text_8">
      <!-- 0.2 -->
      <g transform="translate(22.81375 290.031946) scale(0.1 -0.1)">
       <use xlink:href="#DejaVuSans-30"/>
       <use xlink:href="#DejaVuSans-2e" x="63.623047"/>
       <use xlink:href="#DejaVuSans-32" x="95.410156"/>
      </g>
     </g>
    </g>
    <g id="ytick_2">
     <g id="line2d_15">
      <path d="M 45.716875 220.254545 
L 492.116875 220.254545 
" clip-path="url(#p2120ba971a)" style="fill: none; stroke: #b0b0b0; stroke-width: 0.8; stroke-linecap: square"/>
     </g>
     <g id="line2d_16">
      <g>
       <use xlink:href="#mcfa9f698bc" x="45.716875" y="220.254545" style="stroke: #000000; stroke-width: 0.8"/>
      </g>
     </g>
     <g id="text_9">
      <!-- 0.4 -->
      <g transform="translate(22.81375 224.053764) scale(0.1 -0.1)">
       <use xlink:href="#DejaVuSans-30"/>
       <use xlink:href="#DejaVuSans-2e" x="63.623047"/>
       <use xlink:href="#DejaVuSans-34" x="95.410156"/>
      </g>
     </g>
    </g>
    <g id="ytick_3">
     <g id="line2d_17">
      <path d="M 45.716875 154.276364 
L 492.116875 154.276364 
" clip-path="url(#p2120ba971a)" style="fill: none; stroke: #b0b0b0; stroke-width: 0.8; stroke-linecap: square"/>
     </g>
     <g id="line2d_18">
      <g>
       <use xlink:href="#mcfa9f698bc" x="45.716875" y="154.276364" style="stroke: #000000; stroke-width: 0.8"/>
      </g>
     </g>
     <g id="text_10">
      <!-- 0.6 -->
      <g transform="translate(22.81375 158.075582) scale(0.1 -0.1)">
       <use xlink:href="#DejaVuSans-30"/>
       <use xlink:href="#DejaVuSans-2e" x="63.623047"/>
       <use xlink:href="#DejaVuSans-36" x="95.410156"/>
      </g>
     </g>
    </g>
    <g id="ytick_4">
     <g id="line2d_19">
      <path d="M 45.716875 88.298182 
L 492.116875 88.298182 
" clip-path="url(#p2120ba971a)" style="fill: none; stroke: #b0b0b0; stroke-width: 0.8; stroke-linecap: square"/>
     </g>
     <g id="line2d_20">
      <g>
       <use xlink:href="#mcfa9f698bc" x="45.716875" y="88.298182" style="stroke: #000000; stroke-width: 0.8"/>
      </g>
     </g>
     <g id="text_11">
      <!-- 0.8 -->
      <g transform="translate(22.81375 92.097401) scale(0.1 -0.1)">
       <use xlink:href="#DejaVuSans-30"/>
       <use xlink:href="#DejaVuSans-2e" x="63.623047"/>
       <use xlink:href="#DejaVuSans-38" x="95.410156"/>
      </g>
     </g>
    </g>
    <g id="ytick_5">
     <g id="line2d_21">
      <path d="M 45.716875 22.32 
L 492.116875 22.32 
" clip-path="url(#p2120ba971a)" style="fill: none; stroke: #b0b0b0; stroke-width: 0.8; stroke-linecap: square"/>
     </g>
     <g id="line2d_22">
      <g>
       <use xlink:href="#mcfa9f698bc" x="45.716875" y="22.32" style="stroke: #000000; stroke-width: 0.8"/>
      </g>
     </g>
     <g id="text_12">
      <!-- 1.0 -->
      <g transform="translate(22.81375 26.119219) scale(0.1 -0.1)">
       <use xlink:href="#DejaVuSans-31"/>
       <use xlink:href="#DejaVuSans-2e" x="63.623047"/>
       <use xlink:href="#DejaVuSans-30" x="95.410156"/>
      </g>
     </g>
    </g>
    <g id="text_13">
     <!-- Precision -->
     <g transform="translate(16.318125 200.288437) rotate(-90) scale(0.12 -0.12)">
      <defs>
       <path id="DejaVuSans-50" d="M 1259 4147 
L 1259 2394 
L 2053 2394 
Q 2494 2394 2734 2622 
Q 2975 2850 2975 3272 
Q 2975 3691 2734 3919 
Q 2494 4147 2053 4147 
L 1259 4147 
z
M 628 4666 
L 2053 4666 
Q 2838 4666 3239 4311 
Q 3641 3956 3641 3272 
Q 3641 2581 3239 2228 
Q 2838 1875 2053 1875 
L 1259 1875 
L 1259 0 
L 628 0 
L 628 4666 
z
" transform="scale(0.015625)"/>
       <path id="DejaVuSans-72" d="M 2631 2963 
Q 2534 3019 2420 3045 
Q 2306 3072 2169 3072 
Q 1681 3072 1420 2755 
Q 1159 2438 1159 1844 
L 1159 0 
L 581 0 
L 581 3500 
L 1159 3500 
L 1159 2956 
Q 1341 3275 1631 3429 
Q 1922 3584 2338 3584 
Q 2397 3584 2469 3576 
Q 2541 3569 2628 3553 
L 2631 2963 
z
" transform="scale(0.015625)"/>
       <path id="DejaVuSans-69" d="M 603 3500 
L 1178 3500 
L 1178 0 
L 603 0 
L 603 3500 
z
M 603 4863 
L 1178 4863 
L 1178 4134 
L 603 4134 
L 603 4863 
z
" transform="scale(0.015625)"/>
       <path id="DejaVuSans-73" d="M 2834 3397 
L 2834 2853 
Q 2591 2978 2328 3040 
Q 2066 3103 1784 3103 
Q 1356 3103 1142 2972 
Q 928 2841 928 2578 
Q 928 2378 1081 2264 
Q 1234 2150 1697 2047 
L 1894 2003 
Q 2506 1872 2764 1633 
Q 3022 1394 3022 966 
Q 3022 478 2636 193 
Q 2250 -91 1575 -91 
Q 1294 -91 989 -36 
Q 684 19 347 128 
L 347 722 
Q 666 556 975 473 
Q 1284 391 1588 391 
Q 1994 391 2212 530 
Q 2431 669 2431 922 
Q 2431 1156 2273 1281 
Q 2116 1406 1581 1522 
L 1381 1569 
Q 847 1681 609 1914 
Q 372 2147 372 2553 
Q 372 3047 722 3315 
Q 1072 3584 1716 3584 
Q 2034 3584 2315 3537 
Q 2597 3491 2834 3397 
z
" transform="scale(0.015625)"/>
       <path id="DejaVuSans-6f" d="M 1959 3097 
Q 1497 3097 1228 2736 
Q 959 2375 959 1747 
Q 959 1119 1226 758 
Q 1494 397 1959 397 
Q 2419 397 2687 759 
Q 2956 1122 2956 1747 
Q 2956 2369 2687 2733 
Q 2419 3097 1959 3097 
z
M 1959 3584 
Q 2709 3584 3137 3096 
Q 3566 2609 3566 1747 
Q 3566 888 3137 398 
Q 2709 -91 1959 -91 
Q 1206 -91 779 398 
Q 353 888 353 1747 
Q 353 2609 779 3096 
Q 1206 3584 1959 3584 
z
" transform="scale(0.015625)"/>
       <path id="DejaVuSans-6e" d="M 3513 2113 
L 3513 0 
L 2938 0 
L 2938 2094 
Q 2938 2591 2744 2837 
Q 2550 3084 2163 3084 
Q 1697 3084 1428 2787 
Q 1159 2491 1159 1978 
L 1159 0 
L 581 0 
L 581 3500 
L 1159 3500 
L 1159 2956 
Q 1366 3272 1645 3428 
Q 1925 3584 2291 3584 
Q 2894 3584 3203 3211 
Q 3513 2838 3513 2113 
z
" transform="scale(0.015625)"/>
      </defs>
      <use xlink:href="#DejaVuSans-50"/>
      <use xlink:href="#DejaVuSans-72" x="58.552734"/>
      <use xlink:href="#DejaVuSans-65" x="97.416016"/>
      <use xlink:href="#DejaVuSans-63" x="158.939453"/>
      <use xlink:href="#DejaVuSans-69" x="213.919922"/>
      <use xlink:href="#DejaVuSans-73" x="241.703125"/>
      <use xlink:href="#DejaVuSans-69" x="293.802734"/>
      <use xlink:href="#DejaVuSans-6f" x="321.585938"/>
      <use xlink:href="#DejaVuSans-6e" x="382.767578"/>
     </g>
    </g>
   </g>
   <g id="line2d_23">
    <path d="M 471.825966 267.872551 
L 471.825966 257.193786 
L 471.635976 257.199835 
L 471.635976 257.110033 
L 471.635976 255.623266 
L 471.445986 255.522652 
L 471.445986 254.988536 
L 471.255997 255.020673 
L 471.255997 254.913162 
L 471.255997 254.344802 
L 471.066007 254.227151 
L 471.066007 253.567512 
L 470.876017 253.59995 
L 470.876017 253.489167 
L 470.876017 253.113429 
L 470.496037 253.136604 
L 470.496037 253.038677 
L 470.496037 252.870351 
L 470.306048 252.902965 
L 470.306048 252.790451 
L 470.306048 251.31872 
L 470.116058 251.322633 
L 470.116058 251.220989 
L 470.116058 251.177365 
L 469.926068 251.210323 
L 469.926068 251.108405 
L 469.926068 251.03548 
L 469.736078 251.039285 
L 469.736078 250.980847 
L 469.736078 250.422295 
L 469.356099 250.385029 
L 469.356099 250.355412 
L 469.356099 250.236768 
L 469.166109 250.269958 
L 469.166109 250.18081 
L 469.166109 249.461972 
L 468.976119 249.495316 
L 468.976119 249.389657 
L 468.976119 247.856156 
L 468.786129 247.702731 
L 468.786129 247.452262 
L 468.40615 247.425524 
L 468.40615 247.378359 
L 468.40615 246.761325 
L 468.21616 246.795203 
L 468.21616 246.683702 
L 468.21616 246.603915 
L 468.02617 246.637835 
L 468.02617 246.525949 
L 468.02617 246.493937 
L 467.83618 246.527893 
L 467.83618 246.41572 
L 467.83618 245.786371 
L 467.646191 245.478527 
L 467.646191 245.4295 
L 467.266211 245.497844 
L 467.266211 245.399687 
L 467.266211 245.301349 
L 467.076221 245.33557 
L 467.076221 245.269922 
L 467.076221 244.923941 
L 466.886231 244.958241 
L 466.886231 244.858994 
L 466.886231 244.809302 
L 466.316262 244.862624 
L 466.316262 244.812864 
L 466.316262 244.679946 
L 466.126272 244.714351 
L 466.126272 244.614463 
L 466.126272 243.943766 
L 465.936283 243.978309 
L 465.936283 243.876999 
L 465.936283 243.707727 
L 465.746293 243.742325 
L 465.746293 243.640524 
L 465.746293 243.419299 
L 465.556303 243.453959 
L 465.556303 243.351568 
L 465.556303 242.991674 
L 465.366313 242.992026 
L 465.366313 242.888713 
L 465.366313 242.750658 
L 465.176323 242.785459 
L 465.176323 242.681706 
L 465.176323 242.508345 
L 464.796344 242.508593 
L 464.796344 242.473822 
L 464.796344 242.299636 
L 464.606354 242.317113 
L 464.606354 242.247273 
L 464.606354 241.984579 
L 464.416364 242.002014 
L 464.416364 241.896567 
L 464.416364 241.170582 
L 464.226374 241.205716 
L 464.226374 241.098689 
L 463.846395 241.133314 
L 463.846395 241.026045 
L 463.846395 240.864751 
L 463.656405 240.899983 
L 463.656405 240.792211 
L 463.656405 240.413358 
L 463.466415 240.448677 
L 463.466415 240.339977 
L 463.466415 240.12194 
L 463.086436 240.119867 
L 463.086436 240.083409 
L 463.086436 239.735868 
L 462.896446 239.771342 
L 462.896446 239.661161 
L 462.896446 239.624386 
L 462.706456 239.659893 
L 462.706456 239.549441 
L 462.706456 239.531011 
L 462.326477 239.509888 
L 462.326477 239.491427 
L 462.326477 239.454488 
L 462.136487 239.490072 
L 462.136487 239.379127 
L 462.136487 238.858479 
L 461.946497 238.89417 
L 461.946497 238.800705 
L 461.946497 238.481769 
L 461.566517 238.440349 
L 461.566517 238.062185 
L 461.186538 238.13392 
L 461.186538 238.076995 
L 461.186538 237.90588 
L 460.996548 237.941799 
L 460.996548 237.865594 
L 460.996548 237.712879 
L 460.806558 237.748844 
L 460.806558 237.653204 
L 460.806558 237.40379 
L 460.426579 237.418162 
L 460.426579 237.379667 
L 460.426579 237.148152 
L 460.236589 237.184252 
L 460.236589 237.087526 
L 460.236589 236.913008 
L 459.856609 236.985323 
L 459.856609 236.888168 
L 459.66662 236.768591 
L 459.66662 236.59285 
L 459.47663 236.6291 
L 459.47663 236.531249 
L 459.47663 234.761352 
L 459.28664 234.797879 
L 459.28664 234.696853 
L 459.28664 234.615906 
L 458.716671 234.60406 
L 458.716671 234.563478 
L 458.716671 234.42122 
L 458.526681 234.457865 
L 458.526681 234.356056 
L 458.526681 234.213226 
L 458.336691 234.249917 
L 458.336691 234.168156 
L 458.336691 233.963256 
L 458.146701 233.979474 
L 458.146701 233.876735 
L 458.146701 233.484695 
L 457.956712 233.521522 
L 457.956712 233.417936 
L 457.766722 233.309484 
L 457.766722 233.288697 
L 457.576732 233.325586 
L 457.576732 233.221556 
L 457.576732 233.138201 
L 457.196752 233.128619 
L 457.196752 233.107739 
L 457.196752 232.245282 
L 457.006763 232.261176 
L 457.006763 232.155119 
L 457.006763 232.070139 
L 456.816773 232.086002 
L 456.816773 231.979584 
L 456.816773 231.808922 
L 456.626783 231.846098 
L 456.626783 231.739202 
L 456.626783 231.589229 
L 456.436793 231.604999 
L 456.436793 231.497622 
L 456.436793 231.433104 
L 456.246803 231.448848 
L 456.246803 231.34114 
L 456.246803 231.23324 
L 456.056814 231.248945 
L 456.056814 231.140828 
L 456.056814 230.945728 
L 455.676834 230.933574 
L 455.676834 230.911832 
L 455.676834 230.868324 
L 455.296855 230.921393 
L 455.296855 230.834275 
L 455.296855 230.33091 
L 455.106865 230.346446 
L 455.106865 230.23644 
L 455.106865 229.883083 
L 454.916875 229.920672 
L 454.916875 229.809841 
L 454.916875 229.765453 
L 454.726885 229.780871 
L 454.726885 229.669733 
L 454.726885 229.625221 
L 454.536895 229.662878 
L 454.536895 229.551471 
L 454.536895 229.39516 
L 454.346906 229.432865 
L 454.346906 229.320984 
L 454.346906 229.164008 
L 454.156916 229.179305 
L 454.156916 229.089402 
L 454.156916 228.456387 
L 453.966926 228.494245 
L 453.966926 228.426044 
L 453.966926 228.357768 
L 453.776936 228.372883 
L 453.776936 228.281709 
L 453.776936 228.053184 
L 453.396957 228.106193 
L 453.396957 228.037462 
L 453.396957 227.945702 
L 452.826987 227.967866 
L 452.826987 227.875868 
L 452.447008 227.882929 
L 452.447008 227.859888 
L 452.447008 227.698363 
L 451.877038 227.789658 
L 451.877038 227.720304 
L 451.877038 227.558177 
L 451.497059 227.541761 
L 451.497059 227.518537 
L 451.307069 227.55677 
L 451.307069 227.463797 
L 451.307069 226.667887 
L 450.92709 226.697485 
L 450.92709 226.650326 
L 450.92709 226.603132 
L 450.7371 226.641531 
L 450.7371 226.547047 
L 450.7371 226.452421 
L 450.16713 226.520421 
L 450.16713 226.473036 
L 450.16713 226.18797 
L 449.977141 226.083492 
L 449.977141 225.892317 
L 449.787151 225.930895 
L 449.787151 225.835101 
L 449.787151 225.739162 
L 449.597161 225.777776 
L 449.597161 225.681702 
L 449.597161 225.295942 
L 449.407171 225.334627 
L 449.407171 225.23783 
L 449.407171 224.335409 
L 449.217181 224.374221 
L 449.217181 224.275904 
L 449.217181 224.202067 
L 448.837202 224.156549 
L 448.837202 224.131876 
L 448.837202 224.033088 
L 448.647212 224.047273 
L 448.647212 223.948305 
L 448.457222 223.838514 
L 448.457222 223.664568 
L 448.077243 223.742548 
L 448.077243 223.64296 
L 448.077243 223.217983 
L 447.697263 223.296138 
L 447.697263 223.220867 
L 447.507273 223.033658 
L 447.127294 222.884905 
L 447.127294 222.428371 
L 446.937304 222.467623 
L 446.937304 222.365744 
L 446.937304 222.238169 
L 446.747314 222.251919 
L 446.747314 222.200805 
L 446.747314 222.072842 
L 446.557324 222.112171 
L 446.557324 222.03528 
L 446.557324 221.932618 
L 446.367335 221.946294 
L 446.367335 221.84344 
L 446.367335 221.196904 
L 446.177345 221.236364 
L 446.177345 221.132333 
L 446.177345 221.1063 
L 445.797365 221.107146 
L 445.797365 221.081077 
L 445.797365 220.872146 
L 445.417386 220.846573 
L 445.417386 220.820373 
L 445.417386 220.636684 
L 445.037406 220.715931 
L 445.037406 220.610756 
L 445.037406 220.531765 
L 444.657427 220.611113 
L 444.657427 220.505664 
L 444.657427 220.161786 
L 444.467437 220.042226 
L 444.467437 219.96243 
L 444.277447 220.002213 
L 444.277447 219.948968 
L 444.277447 219.788974 
L 444.087457 219.561301 
L 444.087457 219.480843 
L 443.897467 219.493875 
L 443.897467 219.467025 
L 443.897467 219.278774 
L 443.707478 219.318685 
L 443.707478 219.210883 
L 443.707478 219.048853 
L 443.517488 219.088806 
L 443.517488 218.980576 
L 443.517488 218.926396 
L 443.327498 218.939277 
L 443.327498 218.830749 
L 443.327498 218.749238 
L 443.137508 218.78926 
L 443.137508 218.680433 
L 443.137508 218.54415 
L 442.947519 218.392965 
L 442.947519 218.310835 
L 442.757529 218.323543 
L 442.757529 218.213844 
L 442.757529 217.938809 
L 442.377549 217.991585 
L 442.377549 217.908835 
L 442.377549 217.659974 
L 442.187559 217.61705 
L 442.187559 217.39481 
L 441.80758 217.391856 
L 441.80758 217.363995 
L 441.80758 217.308238 
L 441.4276 217.109472 
L 441.4276 216.941261 
L 441.047621 216.965913 
L 441.047621 216.937819 
L 441.047621 216.797173 
L 440.667641 216.793575 
L 440.667641 216.737175 
L 440.667641 216.397783 
L 440.477651 216.409952 
L 440.477651 216.32481 
L 440.477651 216.097243 
L 439.907682 216.162018 
L 439.907682 216.133502 
L 439.907682 216.104974 
L 439.717692 216.145609 
L 439.717692 216.059961 
L 439.717692 215.974206 
L 439.337713 215.969708 
L 439.337713 215.855075 
L 439.147723 215.694739 
L 439.147723 215.579584 
L 438.957733 215.59153 
L 438.957733 215.562702 
L 438.957733 215.447265 
L 438.577753 215.442183 
L 438.577753 215.326425 
L 437.817794 215.46096 
L 437.817794 215.403003 
L 437.817794 215.228836 
L 437.627805 215.269776 
L 437.627805 215.240708 
L 437.627805 215.036883 
L 437.437815 215.077861 
L 437.437815 214.990329 
L 437.437815 214.81493 
L 437.247825 214.855947 
L 437.247825 214.768087 
L 437.247825 214.650765 
L 437.057835 214.691817 
L 437.057835 214.603702 
L 437.057835 214.220559 
L 436.487866 214.107158 
L 436.487866 214.047835 
L 436.297876 213.940504 
L 436.297876 213.76186 
L 435.917896 213.844343 
L 435.917896 213.754863 
L 435.727907 213.766288 
L 435.727907 213.67666 
L 435.727907 213.347031 
L 435.537917 213.388361 
L 435.537917 213.298197 
L 435.537917 213.177796 
L 435.157937 213.200274 
L 435.157937 213.17012 
L 435.157937 212.98892 
L 434.777958 213.071784 
L 434.777958 212.981021 
L 434.777958 212.89014 
L 434.587968 212.931613 
L 434.587968 212.840621 
L 434.587968 212.779893 
L 434.397978 212.821397 
L 434.397978 212.730213 
L 434.397978 212.63891 
L 434.207988 212.680446 
L 434.207988 212.589031 
L 434.207988 212.40584 
L 434.017999 212.294401 
L 434.017999 211.802495 
L 433.638019 211.669538 
L 433.638019 211.266129 
L 433.448029 211.307857 
L 433.448029 211.214441 
L 433.448029 211.183275 
L 433.258039 211.225031 
L 433.258039 210.943934 
L 433.06805 210.985729 
L 433.06805 210.640666 
L 432.49808 210.766241 
L 432.49808 210.67186 
L 432.49808 210.577354 
L 432.118101 210.598126 
L 432.118101 210.566573 
L 432.118101 210.471827 
L 431.928111 210.513788 
L 431.928111 210.418923 
L 431.928111 210.197076 
L 431.168152 210.269936 
L 431.168152 210.174545 
L 431.168152 210.14272 
L 430.978162 210.184814 
L 430.978162 210.089259 
L 430.978162 209.801822 
L 430.598182 209.854117 
L 430.598182 209.790064 
L 430.598182 209.725954 
L 430.028213 209.82051 
L 430.028213 209.659943 
L 430.028213 209.499014 
L 429.268254 209.571511 
L 429.268254 208.564492 
L 429.078264 208.606917 
L 429.078264 208.508715 
L 428.888274 208.387208 
L 428.698285 208.429689 
L 428.698285 208.331141 
L 428.508295 208.307879 
L 428.508295 208.17616 
L 428.318305 208.053722 
L 428.318305 207.623007 
L 427.938325 207.641739 
L 427.938325 207.141153 
L 427.558346 207.226521 
L 427.558346 207.126 
L 427.558346 206.857262 
L 427.368356 206.899999 
L 427.368356 206.798972 
L 427.368356 206.528878 
L 426.798387 206.62345 
L 426.798387 206.589608 
L 426.798387 206.454084 
L 425.278468 206.62778 
L 424.898489 206.611861 
L 424.898489 206.475659 
L 424.708499 206.518737 
L 424.708499 206.416425 
L 424.518509 206.425395 
L 424.518509 206.322898 
L 424.518509 206.254486 
L 424.32852 206.297622 
L 424.32852 206.229151 
L 424.32852 205.885826 
L 423.94854 205.97221 
L 423.94854 205.903359 
L 423.94854 205.765463 
L 423.56856 205.851953 
L 423.56856 205.748373 
L 423.56856 205.644646 
L 423.188581 205.731242 
L 423.188581 205.662018 
L 422.998591 205.497295 
L 422.998591 205.044476 
L 422.618611 205.061376 
L 422.618611 205.026398 
L 422.238632 204.868019 
L 421.858652 204.955029 
L 421.858652 204.849671 
L 421.668663 204.328777 
L 421.478673 204.372372 
L 421.478673 204.266065 
L 421.478673 204.195108 
L 421.288683 204.238734 
L 421.288683 204.132176 
L 421.288683 203.882946 
L 421.098693 203.926612 
L 421.098693 203.890941 
L 420.908703 203.791781 
L 420.718714 203.835499 
L 420.718714 203.728188 
L 420.718714 203.620722 
L 420.148744 203.644431 
L 419.768765 203.696191 
L 419.768765 203.58839 
L 419.768765 203.264044 
L 419.198795 202.961165 
L 419.198795 202.852117 
L 419.008806 202.750458 
L 419.008806 202.604536 
L 418.438836 202.627033 
L 418.248846 202.378046 
L 418.058857 202.422167 
L 418.058857 202.348724 
L 418.058857 202.164799 
L 417.488887 201.854126 
L 417.108908 201.0484 
L 417.108908 200.559566 
L 416.538938 200.579437 
L 416.538938 200.541652 
L 416.538938 200.428184 
L 414.449051 199.812943 
L 414.449051 199.659238 
L 414.259061 199.703964 
L 414.259061 199.626999 
L 414.259061 199.279691 
L 413.499102 199.071195 
L 413.499102 198.954503 
L 413.309112 198.999379 
L 412.929132 198.89434 
L 412.929132 198.777185 
L 412.549153 198.749798 
L 411.979183 198.256182 
L 411.599204 198.306943 
L 411.599204 198.26746 
L 411.599204 198.188434 
L 411.029235 197.967374 
L 411.029235 197.209126 
L 410.269275 197.310073 
L 410.269275 197.229751 
L 410.269275 197.068857 
L 409.889296 196.958037 
L 409.889296 196.67495 
L 409.509316 196.563006 
L 409.509316 195.99227 
L 408.179388 195.571434 
L 408.179388 195.488797 
L 407.989398 195.534488 
L 407.799408 195.33178 
L 407.799408 195.082568 
L 407.229439 194.802813 
L 407.039449 194.84865 
L 407.039449 194.80682 
L 406.849459 194.55926 
L 406.849459 194.517253 
L 406.659469 194.563148 
L 406.659469 194.479069 
L 406.659469 194.352783 
L 405.89951 194.114248 
L 405.89951 193.944662 
L 405.709521 193.265895 
L 405.329541 193.358074 
L 403.619633 192.261074 
L 403.049664 192.356642 
L 403.049664 192.312966 
L 403.049664 191.830949 
L 402.289704 192.01697 
L 402.289704 191.929024 
L 402.289704 191.752841 
L 402.099715 191.799414 
L 402.099715 191.711179 
L 402.099715 191.312917 
L 401.909725 191.31515 
L 401.909725 191.226331 
L 401.909725 191.137414 
L 401.339755 191.188383 
L 401.339755 191.14384 
L 401.149766 191.190554 
L 401.149766 191.101395 
L 401.149766 190.833326 
L 400.769786 190.926841 
L 400.769786 190.837288 
L 400.769786 190.747636 
L 400.579796 190.794435 
L 400.009827 190.575397 
L 399.819837 190.622304 
L 399.819837 190.532157 
L 399.819837 190.487045 
L 399.629847 190.488844 
L 399.629847 190.398497 
L 399.629847 190.308048 
L 399.249868 190.35674 
L 399.249868 190.311453 
L 399.249868 190.266142 
L 398.869888 190.269505 
L 398.869888 189.265075 
L 398.679898 189.312155 
L 398.679898 189.266203 
L 398.679898 189.082137 
L 398.489909 189.129245 
L 398.489909 189.083164 
L 398.109929 188.854164 
L 397.919939 188.855065 
L 397.919939 188.808749 
L 397.919939 188.483802 
L 397.72995 188.531021 
L 397.72995 188.437941 
L 397.34997 188.252589 
L 397.34997 187.877934 
L 397.15998 187.878284 
L 397.15998 187.831305 
L 397.15998 187.690207 
L 396.96999 187.737537 
L 396.96999 187.643336 
L 396.96999 187.312785 
L 396.590011 187.360196 
L 396.590011 187.312839 
L 396.590011 187.265455 
L 396.400021 187.312866 
L 396.400021 187.075535 
L 396.210031 187.122974 
L 395.640062 186.979752 
L 395.640062 186.83653 
L 395.450072 186.692727 
L 395.450072 186.548923 
L 395.070093 186.500046 
L 395.070093 186.211184 
L 394.880103 186.258813 
L 394.880103 186.162301 
L 394.880103 186.017322 
L 394.500123 186.064279 
L 394.500123 185.967429 
L 394.500123 185.918961 
L 394.310133 185.966671 
L 393.930154 185.722105 
L 393.930154 185.575934 
L 393.740164 185.623726 
L 393.740164 185.574945 
L 393.740164 185.281658 
L 391.650276 185.514854 
L 391.650276 185.367292 
L 391.650276 185.071383 
L 391.460287 185.119505 
L 391.460287 185.020635 
L 391.460287 184.971156 
L 390.700328 184.567863 
L 390.700328 184.418182 
L 390.510338 184.46644 
L 390.510338 184.366503 
L 390.510338 184.065975 
L 390.320348 184.114258 
L 390.320348 184.064065 
L 390.320348 183.862992 
L 390.130358 183.911301 
L 390.130358 183.810583 
L 390.130358 183.760178 
L 389.560389 183.652788 
L 389.560389 183.6022 
L 388.990419 183.646273 
L 388.990419 183.443366 
L 388.61044 183.43876 
L 388.61044 183.336998 
L 388.42045 183.385555 
L 388.42045 183.334628 
L 388.23046 183.230244 
L 387.660491 183.325119 
L 387.660491 183.274034 
L 387.660491 183.171772 
L 387.470501 183.220471 
L 387.470501 183.118083 
L 387.470501 183.015572 
L 387.280511 183.064297 
L 387.280511 182.961659 
L 387.280511 182.652998 
L 387.090522 182.701746 
L 387.090522 182.598607 
L 387.090522 181.977127 
L 386.710542 181.97066 
L 386.710542 181.814381 
L 386.140573 181.96093 
L 386.140573 181.856578 
L 386.140573 181.69981 
L 384.810644 181.990446 
L 384.810644 181.938087 
L 384.620654 181.724914 
L 384.620654 180.720812 
L 384.430665 180.769928 
L 384.430665 180.663542 
L 384.430665 180.557024 
L 383.670705 180.433394 
L 383.670705 180.272754 
L 383.290726 180.264025 
L 383.290726 180.210341 
L 383.100736 180.259651 
L 383.100736 180.152182 
L 383.100736 180.098397 
L 382.910746 180.147733 
L 382.910746 180.093913 
L 382.340777 179.810293 
L 382.340777 179.647804 
L 381.580818 179.845763 
L 381.580818 179.737255 
L 381.580818 179.62861 
L 381.010848 179.72301 
L 380.820859 179.391043 
L 380.630869 179.440718 
L 380.630869 179.331369 
L 380.630869 178.947558 
L 380.0609 178.821506 
L 379.49093 178.694811 
L 379.49093 178.195564 
L 379.30094 178.245412 
L 379.30094 178.134074 
L 379.30094 178.078352 
L 379.110951 178.128226 
L 379.110951 178.016671 
L 379.110951 177.849069 
L 378.730971 177.836973 
L 378.730971 177.444113 
L 378.540981 177.494056 
L 378.540981 177.381481 
L 378.540981 176.986322 
L 378.161002 176.973029 
L 378.161002 176.802895 
L 377.781022 176.84616 
L 377.591032 176.896233 
L 377.591032 176.78254 
L 377.591032 176.211855 
L 377.021063 176.132846 
L 377.021063 175.902904 
L 376.831073 175.953062 
L 376.831073 175.89548 
L 376.831073 175.664777 
L 376.641083 175.657182 
L 376.641083 175.36775 
L 376.451094 175.417946 
L 376.451094 175.301902 
L 376.071114 175.402382 
L 376.071114 175.344298 
L 376.071114 174.99499 
L 375.881124 175.045261 
L 375.881124 174.986906 
L 375.881124 174.694554 
L 375.121165 174.543743 
L 374.931175 174.594148 
L 374.741186 174.467962 
L 374.741186 174.113658 
L 374.551196 174.045682 
L 374.551196 173.986413 
L 374.171216 174.028074 
L 373.981226 174.078609 
L 373.981226 174.019252 
L 373.981226 173.959855 
L 373.791237 174.010418 
L 373.791237 173.950978 
L 373.791237 173.474029 
L 373.221267 173.206345 
L 373.221267 173.146257 
L 372.841288 173.247584 
L 372.841288 173.187449 
L 372.841288 172.886164 
L 372.271318 172.675411 
L 372.081329 172.72619 
L 372.081329 172.665553 
L 372.081329 172.544156 
L 371.701349 172.58503 
L 371.701349 172.524222 
L 370.94139 171.994807 
L 370.56141 172.035397 
L 370.56141 171.542946 
L 369.991441 171.696048 
L 369.991441 171.634291 
L 369.991441 171.324873 
L 369.801451 171.375954 
L 369.801451 171.313939 
L 369.801451 171.251882 
L 369.611461 171.302991 
L 368.851502 170.634214 
L 368.851502 169.752162 
L 368.661512 169.803336 
L 368.661512 169.74 
L 368.661512 169.549728 
L 368.471523 169.282895 
L 368.471523 169.219157 
L 368.281533 169.142742 
L 368.281533 168.758817 
L 368.091543 168.810019 
L 368.091543 168.74587 
L 368.091543 168.488827 
L 367.901553 168.540042 
L 367.901553 168.475664 
L 367.901553 167.764514 
L 367.141594 167.96951 
L 367.141594 167.904568 
L 367.141594 167.774545 
L 366.951604 167.82587 
L 366.951604 167.760786 
L 366.951604 167.565255 
L 366.761615 167.616597 
L 366.761615 167.551323 
L 366.761615 167.355224 
L 366.191645 167.247234 
L 366.191645 167.115868 
L 365.431686 167.256063 
L 365.431686 167.124376 
L 365.051706 167.227549 
L 365.051706 167.161625 
L 365.051706 167.095654 
L 364.861717 167.147286 
L 364.861717 166.949074 
L 364.481737 167.052417 
L 364.481737 166.986242 
L 364.481737 166.721067 
L 364.291747 166.772768 
L 364.291747 166.706351 
L 364.291747 166.506812 
L 364.101758 166.558529 
L 364.101758 166.491915 
L 364.101758 166.425254 
L 363.721778 166.328473 
L 363.721778 166.261609 
L 363.531788 166.313405 
L 363.531788 166.246487 
L 363.531788 166.179521 
L 363.151809 166.216179 
L 363.151809 165.947594 
L 362.961819 165.999464 
L 362.961819 165.932191 
L 362.961819 165.7975 
L 362.771829 165.714492 
L 362.581839 165.766409 
L 362.581839 165.698881 
L 362.581839 165.224813 
L 361.82188 165.36473 
L 361.82188 165.160601 
L 361.63189 165.212638 
L 361.63189 165.14449 
L 361.63189 165.008045 
L 360.871931 165.148179 
L 360.871931 164.942917 
L 360.681941 164.995102 
L 360.681941 164.926575 
L 360.681941 164.857998 
L 360.301962 164.75639 
L 359.921982 164.860969 
L 359.921982 164.792166 
L 359.921982 164.654409 
L 359.731992 164.706738 
L 359.731992 164.637777 
L 359.731992 164.568766 
L 359.352013 164.60444 
L 358.972033 164.709331 
L 358.972033 164.640193 
L 358.972033 164.501765 
L 358.592054 164.53747 
L 358.592054 164.398709 
L 358.212074 164.434366 
L 358.212074 164.295273 
L 358.022084 164.347876 
L 358.022084 164.278245 
L 358.022084 164.208563 
L 357.452115 164.296815 
L 357.452115 164.087246 
L 357.072135 164.122754 
L 357.072135 163.631479 
L 356.122187 163.825188 
L 356.122187 163.330737 
L 355.932197 163.38363 
L 355.932197 163.312775 
L 355.932197 163.170906 
L 355.742207 163.223818 
L 355.742207 163.152797 
L 355.742207 163.010595 
L 355.362227 163.116496 
L 355.362227 163.045301 
L 355.362227 162.759984 
L 354.982248 162.865976 
L 354.982248 162.794498 
L 354.982248 162.722966 
L 354.602268 162.614129 
L 354.602268 162.398678 
L 354.412278 162.451758 
L 354.412278 162.379825 
L 354.412278 162.163698 
L 354.222289 162.21679 
L 354.222289 162.144631 
L 354.222289 161.637981 
L 354.032299 161.691055 
L 354.032299 161.473068 
L 353.842309 161.52616 
L 353.842309 161.45338 
L 353.842309 161.380544 
L 353.46233 161.486818 
L 353.46233 161.413912 
L 353.46233 161.194856 
L 353.27234 161.248025 
L 353.27234 161.174887 
L 353.27234 160.955137 
L 353.08235 161.008315 
L 353.08235 160.788035 
L 352.322391 160.927492 
L 352.322391 160.558789 
L 352.132401 160.612101 
L 352.132401 160.538182 
L 352.132401 160.316081 
L 351.752421 160.422766 
L 351.752421 160.348602 
L 351.752421 159.90241 
L 351.562432 159.955757 
L 351.562432 159.881182 
L 351.562432 159.507436 
L 350.992462 159.667577 
L 350.992462 159.592628 
L 350.992462 158.612958 
L 350.802473 158.666301 
L 350.802473 158.59052 
L 350.422493 158.469563 
L 350.422493 158.165058 
L 350.232503 158.218456 
L 350.232503 158.142171 
L 349.662534 158.149787 
L 349.662534 157.920129 
L 349.472544 157.973641 
L 349.472544 157.896959 
L 349.472544 157.35848 
L 349.092564 157.465483 
L 349.092564 157.388295 
L 349.092564 156.457243 
L 348.902575 156.510685 
L 348.902575 156.120065 
L 348.712585 156.1735 
L 348.712585 156.095179 
L 348.712585 155.938349 
L 348.522595 155.991796 
L 348.522595 155.913277 
L 348.522595 155.834695 
L 348.332605 155.888165 
L 348.332605 155.80951 
L 348.332605 155.494259 
L 347.762636 155.654775 
L 347.762636 155.25913 
L 347.572646 155.31267 
L 347.572646 155.23334 
L 346.052728 154.945514 
L 346.052728 154.865455 
L 345.482759 154.946874 
L 345.482759 154.866652 
L 344.912789 154.948239 
L 344.912789 154.384171 
L 344.722799 154.438141 
L 344.722799 154.357285 
L 344.722799 154.195376 
L 344.53281 154.08716 
L 344.53281 154.005961 
L 344.15283 154.032702 
L 344.15283 153.78844 
L 343.96284 153.842475 
L 343.96284 153.760909 
L 343.96284 153.597576 
L 343.392871 153.678045 
L 343.392871 153.185815 
L 343.202881 153.239914 
L 343.202881 153.157627 
L 343.202881 152.662469 
L 342.822902 152.522062 
L 342.822902 151.939636 
L 342.442922 152.047743 
L 342.442922 151.964237 
L 342.442922 151.545661 
L 342.252932 151.599708 
L 342.252932 151.51577 
L 342.252932 151.431762 
L 342.062942 151.485829 
L 342.062942 151.401738 
L 342.062942 151.149042 
L 341.682963 151.172812 
L 341.682963 150.834506 
L 341.492973 150.888595 
L 341.492973 150.803828 
L 341.492973 150.293721 
L 341.302983 150.347764 
L 341.302983 150.262482 
L 341.302983 150.091701 
L 341.112993 150.14575 
L 341.112993 150.060238 
L 341.112993 149.545641 
L 340.543024 149.621719 
L 340.543024 149.27674 
L 340.163045 149.125337 
L 340.163045 149.038659 
L 339.783065 149.146919 
L 339.783065 148.973286 
L 339.593075 149.027458 
L 339.593075 148.940516 
L 339.593075 148.853499 
L 339.403085 148.907689 
L 339.403085 148.820584 
L 339.403085 148.64615 
L 339.213096 148.262875 
L 339.023106 148.317044 
L 339.023106 148.22931 
L 339.023106 147.965654 
L 338.833116 148.019812 
L 338.833116 147.931761 
L 338.833116 147.66715 
L 338.263147 147.741327 
L 338.263147 146.853102 
L 338.073157 146.907223 
L 338.073157 146.81796 
L 338.073157 146.549707 
L 337.693177 146.657968 
L 337.693177 146.119166 
L 337.313198 146.137323 
L 337.313198 145.956873 
L 336.933218 146.065231 
L 336.933218 145.884402 
L 336.553239 145.992887 
L 336.553239 145.902321 
L 336.363249 145.775217 
L 335.793279 145.847433 
L 335.793279 145.391884 
L 335.03332 145.151721 
L 334.273361 145.369895 
L 334.273361 145.278007 
L 334.273361 145.186036 
L 333.893382 145.203263 
L 333.893382 145.111095 
L 333.513402 145.128252 
L 333.513402 145.035887 
L 332.943433 145.107814 
L 332.943433 144.644081 
L 332.373463 144.715595 
L 331.613504 144.468796 
L 331.613504 144.281472 
L 331.423514 144.336484 
L 331.423514 144.242678 
L 331.423514 143.866605 
L 330.853545 143.843022 
L 330.663555 143.898109 
L 330.663555 143.803636 
L 330.663555 143.329983 
L 330.473566 143.194912 
L 330.473566 143.004465 
L 329.713606 143.129365 
L 329.713606 142.938248 
L 329.523617 142.993401 
L 329.523617 142.897693 
L 329.143637 142.72035 
L 329.143637 142.624254 
L 328.953647 142.679464 
L 328.953647 142.583261 
L 328.953647 142.486969 
L 328.763657 142.542193 
L 328.763657 142.445793 
L 328.763657 142.059307 
L 328.573668 142.114487 
L 328.573668 142.017624 
L 328.573668 141.726497 
L 328.193688 141.836854 
L 328.193688 141.739594 
L 328.193688 141.544803 
L 326.86376 141.932256 
L 326.86376 141.834589 
L 326.86376 140.951479 
L 326.1038 141.074558 
L 326.1038 140.678987 
L 325.913811 140.73445 
L 325.913811 140.635305 
L 325.343841 140.304513 
L 325.343841 139.604162 
L 325.153852 139.659563 
L 325.153852 139.559113 
L 325.153852 139.257194 
L 324.393892 139.378065 
L 324.013913 139.185776 
L 324.013913 139.084432 
L 323.823923 138.835331 
L 323.823923 138.631728 
L 323.633933 138.687247 
L 323.253954 138.389803 
L 323.063964 138.445392 
L 323.063964 138.342965 
L 323.063964 137.932273 
L 322.873974 137.781818 
L 322.873974 137.678678 
L 321.734035 137.286822 
L 321.734035 137.182743 
L 321.544046 137.238393 
L 321.544046 137.134189 
L 321.544046 136.506839 
L 321.164066 136.513007 
L 321.164066 135.88108 
L 320.784086 135.992087 
L 320.784086 135.143338 
L 320.404107 135.147554 
L 320.404107 134.934014 
L 320.214117 134.989435 
L 320.214117 134.882482 
L 320.214117 134.668259 
L 319.834138 134.67179 
L 319.834138 134.564364 
L 319.644148 134.404597 
L 319.644148 134.188947 
L 319.074178 134.247273 
L 317.55426 133.932267 
L 317.36427 133.988073 
L 317.36427 133.878907 
L 317.36427 133.550752 
L 316.984291 133.333013 
L 316.984291 133.223024 
L 316.604311 133.334597 
L 316.604311 133.224443 
L 316.604311 133.114177 
L 316.034342 133.171335 
L 316.034342 132.950083 
L 315.844352 133.005985 
L 315.844352 132.895163 
L 315.844352 132.673184 
L 315.654362 132.729059 
L 315.654362 132.617872 
L 315.654362 132.506573 
L 315.464372 132.562449 
L 315.464372 132.451009 
L 315.274383 132.283636 
L 315.274383 132.171828 
L 315.084393 132.227704 
L 315.084393 132.115753 
L 315.084393 132.003688 
L 314.514424 132.059221 
L 314.514424 131.721737 
L 313.944454 131.776891 
L 313.944454 131.663964 
L 313.564475 131.66301 
L 313.564475 131.436459 
L 313.184495 131.207782 
L 313.184495 130.979944 
L 312.234546 131.146474 
L 312.234546 131.03211 
L 311.474587 131.142935 
L 311.474587 131.028213 
L 310.904618 131.082785 
L 310.904618 130.737273 
L 310.524638 130.850325 
L 310.524638 130.734853 
L 310.524638 130.271756 
L 310.334648 130.328216 
L 310.334648 130.095878 
L 310.144658 129.919447 
L 309.954669 129.859241 
L 309.574689 129.972262 
L 309.574689 129.504145 
L 309.384699 129.560617 
L 309.384699 129.443247 
L 309.00472 129.556306 
L 309.00472 129.085329 
L 308.81473 129.141818 
L 308.81473 128.668713 
L 308.62474 128.725131 
L 308.62474 128.606508 
L 308.43475 128.662954 
L 308.43475 128.306228 
L 308.244761 128.362634 
L 308.244761 128.243439 
L 308.054771 128.299871 
L 308.054771 128.061033 
L 307.864781 128.117458 
L 307.864781 127.878042 
L 307.484801 127.990938 
L 307.484801 127.510295 
L 307.294812 127.44618 
L 307.294812 126.962815 
L 307.104822 127.019105 
L 307.104822 126.65511 
L 306.914832 126.711355 
L 306.914832 126.101897 
L 306.154873 126.326776 
L 306.154873 126.204346 
L 305.964883 126.260682 
L 305.964883 126.015351 
L 304.824944 126.354225 
L 304.824944 126.107925 
L 304.634955 126.164547 
L 304.634955 126.041159 
L 304.444965 126.097806 
L 304.444965 125.478658 
L 304.254975 125.535183 
L 304.254975 125.286499 
L 303.305026 125.569685 
L 303.305026 125.444951 
L 303.115036 125.501738 
L 303.115036 125.376829 
L 302.925047 125.433641 
L 302.925047 125.057975 
L 302.735057 124.737709 
L 302.735057 124.359428 
L 302.545067 124.416022 
L 302.545067 123.782554 
L 302.165087 123.895542 
L 302.165087 123.385909 
L 301.785108 123.498832 
L 301.785108 123.370988 
L 301.595118 123.427505 
L 301.595118 123.042995 
L 301.405128 123.099454 
L 301.405128 122.970956 
L 301.215139 123.027438 
L 301.025149 122.95526 
L 300.645169 123.068461 
L 300.645169 122.551793 
L 300.0752 122.721581 
L 300.0752 122.591926 
L 299.88521 122.648609 
L 299.88521 122.388776 
L 299.69522 122.44544 
L 299.69522 122.315261 
L 299.50523 122.371948 
L 299.50523 122.111064 
L 298.935261 122.281259 
L 298.935261 121.757203 
L 297.605333 122.155407 
L 297.605333 121.891884 
L 297.415343 121.948945 
L 297.415343 121.154482 
L 297.035363 121.268281 
L 297.035363 120.868726 
L 296.845373 120.925592 
L 296.845373 120.658365 
L 296.655384 120.715208 
L 296.655384 120.313073 
L 296.275404 120.426688 
L 296.275404 120.022882 
L 296.085414 120.079653 
L 296.085414 119.809576 
L 295.895425 119.866322 
L 295.895425 119.188142 
L 295.705435 119.244724 
L 295.705435 118.972249 
L 295.515445 119.028804 
L 295.515445 118.755597 
L 294.945476 118.925378 
L 294.945476 118.651247 
L 294.755486 118.707879 
L 294.755486 118.570524 
L 293.995527 118.79753 
L 293.995527 118.521953 
L 293.805537 118.578777 
L 293.805537 118.025474 
L 293.425557 118.000104 
L 293.425557 117.861106 
L 293.235568 117.917841 
L 293.235568 117.778629 
L 293.045578 117.835382 
L 293.045578 117.556364 
L 292.665598 117.669875 
L 292.665598 117.389993 
L 292.475608 117.446752 
L 292.475608 117.30651 
L 292.285619 117.363286 
L 292.285619 117.0822 
L 292.095629 117.138944 
L 292.095629 116.998098 
L 291.905639 117.054859 
L 291.905639 116.631155 
L 291.715649 116.687832 
L 291.715649 115.977998 
L 291.525659 116.034486 
L 291.525659 115.606372 
L 291.33567 115.662772 
L 291.33567 115.51967 
L 291.14568 115.576086 
L 291.14568 115.289256 
L 290.7657 115.402083 
L 290.7657 115.258301 
L 290.575711 115.314764 
L 290.575711 115.170754 
L 290.385721 115.227233 
L 290.385721 115.082995 
L 290.195731 115.139488 
L 290.195731 114.560559 
L 289.625762 114.729808 
L 289.625762 114.584471 
L 289.245782 114.69754 
L 289.245782 114.260131 
L 288.675813 114.429762 
L 288.485823 114.340063 
L 288.485823 114.1935 
L 287.725864 114.420489 
L 287.725864 113.979046 
L 286.775915 114.263525 
L 286.775915 113.671247 
L 286.395935 113.785081 
L 286.395935 113.636436 
L 286.205945 113.544515 
L 286.015956 113.601495 
L 286.015956 113.303046 
L 285.255997 113.531217 
L 285.255997 112.025351 
L 285.066007 112.081983 
L 285.066007 111.626331 
L 284.686027 111.739448 
L 284.686027 111.587058 
L 284.496037 111.643664 
L 284.306048 111.547636 
L 284.306048 111.088355 
L 283.546088 111.314805 
L 283.546088 111.007147 
L 283.356099 111.063816 
L 283.356099 110.600666 
L 283.166109 110.65722 
L 282.976119 110.558941 
L 282.976119 110.248534 
L 282.40615 110.41828 
L 282.40615 109.481099 
L 282.21616 109.380473 
L 282.21616 109.223301 
L 281.646191 109.392374 
L 281.646191 109.234801 
L 281.456201 109.29124 
L 281.456201 108.817096 
L 281.266211 108.873409 
L 281.266211 108.39721 
L 280.696242 108.565989 
L 280.696242 108.40664 
L 280.506252 108.46298 
L 280.506252 108.14352 
L 280.316262 108.199797 
L 280.126272 108.095968 
L 280.126272 107.614163 
L 279.746293 107.72654 
L 279.746293 107.404001 
L 279.556303 107.460162 
L 279.556303 107.298504 
L 278.986334 107.467223 
L 278.796344 107.36146 
L 278.416364 107.474322 
L 278.416364 107.149091 
L 278.226374 107.205493 
L 278.226374 106.879254 
L 278.036385 106.93559 
L 278.036385 106.772073 
L 277.846395 106.828412 
L 277.846395 106.17187 
L 277.656405 106.063238 
L 277.466415 106.119366 
L 277.466415 105.954315 
L 276.896446 106.122933 
L 276.896446 105.95744 
L 276.706456 106.013723 
L 276.706456 105.847934 
L 276.326477 105.960581 
L 276.136487 105.684324 
L 276.136487 105.183593 
L 275.946497 105.239734 
L 275.946497 104.904631 
L 275.756507 104.960696 
L 275.756507 104.62453 
L 275.376528 104.736585 
L 275.376528 104.230158 
L 275.186538 104.286069 
L 275.186538 104.116721 
L 274.806558 104.228618 
L 274.806558 103.377615 
L 274.046599 103.600761 
L 274.046599 103.429542 
L 273.09665 103.70981 
L 273.09665 103.020964 
L 272.336691 103.245289 
L 272.336691 103.072156 
L 272.146701 102.954895 
L 272.146701 102.781197 
L 271.956712 102.663285 
L 271.956712 102.48902 
L 271.386742 102.657324 
L 271.386742 101.956823 
L 271.196752 102.012748 
L 271.196752 101.836923 
L 271.006763 101.892842 
L 270.816773 101.772599 
L 269.676834 102.109739 
L 269.676834 101.932739 
L 269.486844 101.989122 
L 269.486844 101.811785 
L 269.106865 101.568847 
L 268.726885 101.681656 
L 268.726885 100.427218 
L 268.536895 100.483129 
L 268.536895 99.760292 
L 268.346906 99.815925 
L 267.966926 99.199339 
L 267.586947 99.127572 
L 267.586947 98.944444 
L 267.396957 98.999929 
L 267.016977 98.37485 
L 266.826987 98.430202 
L 266.826987 98.245366 
L 266.447008 97.985263 
L 266.447008 97.799426 
L 266.257018 97.854641 
L 266.257018 97.668436 
L 265.117079 98.000856 
L 265.117079 97.813799 
L 264.92709 97.681962 
L 264.7371 97.737538 
L 264.7371 97.549735 
L 264.35712 97.284107 
L 264.35712 96.906158 
L 263.597161 96.557746 
L 263.597161 96.176174 
L 263.027192 96.341894 
L 263.027192 95.766477 
L 261.887253 95.324559 
L 260.177345 95.629091 
L 260.177345 95.433674 
L 260.177345 95.23796 
L 259.987355 95.09746 
L 259.797365 95.153058 
L 259.797365 94.95653 
L 259.417386 95.067766 
L 259.417386 94.673374 
L 259.227396 94.728903 
L 259.227396 94.333081 
L 259.037406 94.388476 
L 259.037406 94.189998 
L 258.847416 94.245368 
L 258.847416 94.046474 
L 258.087457 94.268365 
L 258.087457 92.864323 
L 257.517488 93.029275 
L 257.517488 92.827105 
L 257.327498 92.882146 
L 257.327498 92.679545 
L 256.947519 92.789654 
L 256.947519 92.383038 
L 256.757529 92.437989 
L 256.757529 92.029862 
L 256.567539 92.084666 
L 256.567539 91.675018 
L 256.187559 91.784411 
L 256.187559 90.960276 
L 255.80758 91.069056 
L 255.80758 90.654545 
L 255.61759 90.708822 
L 255.61759 90.500951 
L 255.4276 90.555192 
L 255.4276 90.346867 
L 255.23761 89.983179 
L 254.857631 90.091354 
L 254.857631 89.461259 
L 254.287662 89.623045 
L 254.287662 89.200538 
L 253.907682 89.308323 
L 253.907682 88.458194 
L 252.957733 88.726612 
L 252.957733 88.512571 
L 252.197774 88.728357 
L 252.197774 88.513445 
L 252.007784 88.567481 
L 252.007784 88.352086 
L 251.817794 88.190198 
L 251.817794 87.323135 
L 251.627805 87.376547 
L 251.437815 87.212121 
L 251.247825 87.265574 
L 251.247825 86.389722 
L 250.867845 86.495798 
L 250.867845 85.834266 
L 250.677856 85.887019 
L 250.677856 85.665636 
L 250.487866 85.718336 
L 250.297876 85.549091 
L 250.297876 85.103913 
L 250.107886 85.156364 
L 249.917896 84.98547 
L 249.917896 84.761663 
L 249.727907 84.814003 
L 249.727907 84.589677 
L 248.777958 84.851975 
L 248.777958 84.626546 
L 247.638019 84.943359 
L 247.638019 84.716669 
L 247.448029 84.769637 
L 247.448029 84.542414 
L 247.258039 84.595325 
L 247.258039 84.139421 
L 246.49808 84.350769 
L 246.49808 84.121633 
L 246.308091 84.174545 
L 246.308091 83.944866 
L 246.118101 83.997717 
L 246.118101 83.305852 
L 245.928111 83.126765 
L 245.548131 83.231695 
L 245.548131 82.300165 
L 245.358142 82.352141 
L 244.788172 82.039155 
L 244.788172 81.568062 
L 244.598182 81.619762 
L 244.598182 81.146701 
L 244.408193 81.198168 
L 244.408193 80.723123 
L 244.028213 80.587199 
L 243.268254 80.792727 
L 243.268254 80.31319 
L 242.888274 80.415833 
L 242.888274 80.175093 
L 242.698285 80.226383 
L 242.698285 78.527996 
L 242.508295 78.578182 
L 242.508295 78.333649 
L 242.318305 78.38375 
L 242.318305 76.161528 
L 242.128315 76.210121 
L 242.128315 75.460798 
L 241.938325 75.508933 
L 241.938325 75.006751 
L 241.748336 75.054605 
L 241.748336 74.802645 
L 241.558346 74.8504 
L 241.558346 74.597794 
L 241.178366 74.693192 
L 241.178366 74.185847 
L 240.228417 74.423982 
L 240.228417 74.168663 
L 240.038428 74.216362 
L 240.038428 73.960382 
L 238.708499 74.295398 
L 238.708499 74.037591 
L 238.13853 74.18192 
L 238.13853 73.663692 
L 237.75855 73.759572 
L 237.75855 73.499337 
L 237.56856 73.547213 
L 237.56856 72.762981 
L 237.188581 72.857799 
L 237.188581 72.595002 
L 236.998591 72.642342 
L 236.998591 72.378847 
L 236.618611 72.473387 
L 236.428622 72.256183 
L 236.238632 72.303471 
L 236.238632 72.038156 
L 236.048642 72.085327 
L 236.048642 71.819301 
L 234.718714 72.150558 
L 234.718714 71.882558 
L 234.338734 71.977596 
L 234.338734 71.708658 
L 234.148744 71.486434 
L 234.148744 71.216246 
L 233.198795 71.452689 
L 233.198795 70.908584 
L 232.818816 71.00293 
L 232.818816 70.729647 
L 232.438836 70.823921 
L 232.438836 70.549665 
L 232.248846 70.596718 
L 232.058857 69.539679 
L 231.868867 69.586018 
L 231.488887 69.122257 
L 231.488887 68.843077 
L 231.108908 68.93502 
L 231.108908 68.654826 
L 230.918918 68.419721 
L 230.728928 68.465455 
L 230.728928 68.183682 
L 230.348949 68.274953 
L 230.348949 67.992148 
L 229.968969 67.799466 
L 229.588989 67.034129 
L 229.399 67.079068 
L 229.20901 66.837001 
L 229.20901 66.549326 
L 229.01902 66.593957 
L 229.01902 66.305455 
L 228.63904 66.394494 
L 228.63904 66.104913 
L 228.259061 66.193816 
L 228.259061 65.903149 
L 227.499102 66.081039 
L 227.119122 65.290406 
L 226.739143 65.378731 
L 226.739143 64.787934 
L 226.359163 64.875587 
L 226.359163 64.578753 
L 225.599204 64.7541 
L 225.599204 62.953745 
L 225.219224 63.038752 
L 224.649255 62.863316 
L 224.269275 62.94867 
L 223.889296 62.116364 
L 223.889296 61.80906 
L 223.699306 61.850936 
L 223.699306 61.233805 
L 223.509316 60.654871 
L 222.369378 60.901662 
L 222.369378 60.275191 
L 221.989398 60.042154 
L 221.229439 60.20563 
L 221.229439 59.253439 
L 220.46948 59.41472 
L 220.46948 59.094724 
L 220.27949 59.134959 
L 220.27949 58.813956 
L 220.0895 58.853971 
L 220.0895 58.531955 
L 219.519531 58.651598 
L 219.519531 58.003564 
L 218.759572 58.161806 
L 218.759572 57.835447 
L 217.999612 57.993822 
L 217.999612 57.336353 
L 217.809623 57.045359 
L 217.429643 55.792584 
L 217.239653 55.830363 
L 217.239653 55.49547 
L 216.669684 55.608312 
L 216.669684 55.271646 
L 216.479694 55.309091 
L 216.479694 54.971319 
L 215.529745 55.158111 
L 215.529745 54.817844 
L 214.959776 54.929906 
L 214.959776 54.58781 
L 214.199817 54.737026 
L 214.009827 54.429891 
L 214.009827 52.694571 
L 213.439858 52.801148 
L 213.439858 52.450551 
L 213.249868 52.485874 
L 213.249868 51.781468 
L 213.059878 51.816128 
L 213.059878 51.462306 
L 212.869888 51.141638 
L 212.299919 51.244084 
L 211.919939 50.596364 
L 211.53996 50.663849 
L 211.53996 49.942445 
L 210.400021 50.142125 
L 210.020041 49.478089 
L 209.830052 49.511008 
L 209.830052 49.143654 
L 209.450072 49.208918 
L 209.450072 48.469889 
L 209.070093 48.533825 
L 209.070093 48.162128 
L 208.880103 48.193797 
L 208.690113 47.852097 
L 208.690113 46.726232 
L 208.500123 46.756364 
L 208.310133 46.408569 
L 206.030256 46.771713 
L 205.840266 46.417825 
L 205.460287 46.478678 
L 205.460287 46.092164 
L 204.130358 46.304416 
L 204.130358 45.91373 
L 203.370399 46.034879 
L 203.370399 43.658351 
L 202.80043 43.741488 
L 202.80043 43.340357 
L 201.660491 43.505655 
L 201.660491 43.10053 
L 201.280511 43.155215 
L 201.280511 42.748027 
L 200.900532 42.801998 
L 200.710542 42.419314 
L 200.710542 42.008449 
L 200.330562 41.233745 
L 200.330562 40.818556 
L 199.760593 40.892947 
L 199.760593 40.47507 
L 198.620654 40.622473 
L 198.620654 40.200266 
L 198.240675 40.248854 
L 197.860695 39.872177 
L 197.100736 39.968485 
L 197.100736 39.109496 
L 196.910746 39.132622 
L 196.910746 38.70079 
L 196.150787 38.791668 
L 196.150787 38.356364 
L 195.390828 38.445952 
L 195.390828 38.00712 
L 195.010848 38.051123 
L 195.010848 37.609888 
L 194.440879 37.674584 
L 194.440879 37.230324 
L 194.0609 37.272562 
L 194.0609 36.825841 
L 191.781022 37.077025 
L 191.401043 36.663083 
L 189.881124 36.83133 
L 189.881124 36.368218 
L 187.601247 36.620204 
L 187.601247 35.673905 
L 187.411257 35.693956 
L 187.411257 34.261752 
L 187.031277 34.297885 
L 187.031277 33.33305 
L 186.651298 33.366575 
L 186.651298 32.880532 
L 186.081329 32.929049 
L 186.081329 31.948152 
L 183.611461 32.144337 
L 183.611461 31.641878 
L 181.141594 31.836084 
L 181.141594 31.321839 
L 180.191645 31.394669 
L 180.191645 30.874708 
L 179.621676 30.916506 
L 179.621676 30.392371 
L 178.861717 30.445392 
L 178.861717 29.916172 
L 178.481737 29.941242 
L 178.481737 29.408565 
L 177.911768 29.44389 
L 177.911768 28.90684 
L 177.721778 28.917818 
L 177.531788 28.388227 
L 176.771829 28.429091 
L 176.771829 26.785528 
L 175.63189 26.831329 
L 175.63189 26.274172 
L 173.921982 26.336063 
L 173.921982 25.768337 
L 172.212074 25.823266 
L 172.212074 25.244565 
L 168.222289 25.35767 
L 168.222289 24.754619 
L 167.08235 24.781872 
L 167.08235 24.169856 
L 164.992462 24.208688 
L 164.992462 23.581533 
L 144.093586 23.917535 
L 144.093586 23.120706 
L 119.964883 23.477512 
L 115.405128 23.58395 
L 115.405128 22.32 
L 66.007784 22.32 
L 66.007784 22.32 
" clip-path="url(#p2120ba971a)" style="fill: none; stroke: #1f77b4; stroke-width: 1.5; stroke-linecap: square"/>
   </g>
   <g id="line2d_24">
    <path d="M 471.825966 313.794126 
L 471.825966 294.026267 
L 468.102863 294.372893 
L 468.102863 293.223793 
L 464.379761 293.673053 
L 464.379761 293.575814 
L 464.379761 291.035299 
L 460.656658 291.501818 
L 460.656658 291.396237 
L 460.656658 290.538182 
L 456.933556 291.012066 
L 456.933556 290.903749 
L 456.933556 290.466621 
L 453.210453 290.945455 
L 453.210453 290.835856 
L 453.210453 289.717914 
L 449.48735 290.205866 
L 449.48735 287.735077 
L 445.764248 288.239668 
L 445.764248 287.376858 
L 442.041145 287.88855 
L 442.041145 287.639239 
L 438.318043 288.154422 
L 438.318043 286.232727 
L 434.59494 286.76161 
L 434.59494 278.819448 
L 430.871837 279.39715 
L 430.871837 278.901818 
L 427.148735 279.484959 
L 427.148735 273.780963 
L 423.425632 274.398803 
L 423.425632 274.207147 
L 419.70253 274.829091 
L 419.70253 272.668685 
L 415.979427 273.104416 
L 415.979427 258.525878 
L 412.256325 259.241653 
L 412.256325 254.192204 
L 408.533222 254.622602 
L 408.533222 253.990962 
L 404.810119 254.74314 
L 404.810119 253.784441 
L 401.087017 254.545837 
L 401.087017 252.912642 
L 397.363914 253.686443 
L 397.363914 250.265455 
L 393.640812 250.706014 
L 389.917709 251.507368 
L 389.917709 249.709091 
L 386.194606 250.524106 
L 382.471504 250.980847 
L 382.471504 249.872488 
L 378.748401 250.706014 
L 378.748401 248.425005 
L 367.579094 249.040393 
L 367.579094 247.422032 
L 363.855991 248.308261 
L 363.855991 246.645818 
L 360.132888 247.546725 
L 360.132888 242.247273 
L 356.409786 243.179168 
L 356.409786 242.715203 
L 348.963581 244.607007 
L 348.963581 235.05339 
L 345.240478 236.052138 
L 345.240478 229.726661 
L 341.517375 229.537908 
L 341.517375 226.376232 
L 337.794273 227.433519 
L 337.794273 226.126949 
L 334.07117 227.199617 
L 334.07117 223.123162 
L 326.624965 225.32979 
L 322.901862 225.046257 
L 322.901862 222.878678 
L 319.17876 224.024727 
L 319.17876 220.254545 
L 315.455657 220.647273 
L 315.455657 219.859467 
L 311.732555 221.049463 
L 311.732555 216.130909 
L 308.009452 217.349846 
L 308.009452 214.756364 
L 304.28635 215.997889 
L 304.28635 213.309474 
L 300.563247 214.574305 
L 300.563247 213.656727 
L 293.117042 216.242359 
L 293.117042 202.036689 
L 289.393939 203.387943 
L 289.393939 199.953566 
L 285.670837 201.330571 
L 285.670837 195.246686 
L 281.947734 196.652594 
L 281.947734 175.047273 
L 278.224631 176.47463 
L 278.224631 154.276364 
L 270.778426 157.114135 
L 270.778426 146.029091 
L 267.055324 147.451034 
L 267.055324 140.138182 
L 263.332221 141.557678 
L 263.332221 130.891692 
L 255.886016 133.711736 
L 255.886016 121.739178 
L 252.162913 123.12 
L 252.162913 116.574545 
L 248.439811 117.940553 
L 248.439811 114.495401 
L 240.993606 117.288595 
L 237.270503 118.74965 
L 237.270503 115.101818 
L 233.5474 116.574545 
L 233.5474 77.301818 
L 226.101195 79.416503 
L 218.65499 81.700364 
L 218.65499 70.429091 
L 211.208785 72.520791 
L 200.039477 76.023171 
L 192.593272 78.642838 
L 188.870169 80.050909 
L 188.870169 65.726699 
L 185.147067 58.974545 
L 185.147067 32.316694 
L 173.977759 33.316364 
L 173.977759 22.32 
L 66.007784 22.32 
L 66.007784 22.32 
" clip-path="url(#p2120ba971a)" style="fill: none; stroke: #ff7f0e; stroke-width: 1.5; stroke-linecap: square"/>
   </g>
   <g id="line2d_25">
    <path d="M 471.825966 269.462353 
L 471.825966 258.491901 
L 466.415057 259.389893 
L 466.415057 254.952235 
L 461.004148 255.882764 
L 461.004148 249.296224 
L 455.593239 250.270371 
L 455.593239 241.735814 
L 450.18233 242.761121 
L 450.18233 239.603916 
L 444.77142 240.653597 
L 444.77142 224.62879 
L 439.360511 225.752727 
L 439.360511 222.139636 
L 433.949602 223.288025 
L 433.949602 219.473739 
L 428.538693 220.647273 
L 428.538693 215.774545 
L 423.127784 216.976126 
L 423.127784 216.130909 
L 417.716875 217.349846 
L 417.716875 212.061176 
L 412.305966 213.309474 
L 412.305966 205.592727 
L 406.895057 206.874355 
L 406.895057 198.261818 
L 396.073239 200.90756 
L 396.073239 199.761322 
L 379.840511 203.887865 
L 379.840511 194.081382 
L 363.607784 198.448197 
L 363.607784 185.752193 
L 358.196875 187.265455 
L 358.196875 185.723908 
L 352.785966 185.694545 
L 352.785966 182.461218 
L 341.964148 185.632331 
L 341.964148 173.227544 
L 331.14233 176.508142 
L 331.14233 168.521653 
L 325.73142 170.202132 
L 325.73142 151.770863 
L 320.320511 153.43049 
L 320.320511 148.199426 
L 314.909602 149.877818 
L 314.909602 147.143587 
L 309.498693 148.853499 
L 309.498693 137.064664 
L 304.087784 138.752086 
L 304.087784 135.566133 
L 293.265966 139.050629 
L 293.265966 128.736422 
L 287.855057 130.480954 
L 287.855057 126.785455 
L 282.444148 128.556055 
L 282.444148 124.699937 
L 277.033239 126.496077 
L 271.62233 120.065455 
L 271.62233 111.136783 
L 266.21142 112.878289 
L 266.21142 108.091636 
L 260.800511 109.842078 
L 260.800511 94.035415 
L 255.389602 95.629091 
L 255.389602 89.797686 
L 244.567784 93.010909 
L 244.567784 80.050909 
L 239.156875 81.531189 
L 239.156875 74.408038 
L 228.335057 77.301818 
L 222.924148 78.872727 
L 222.924148 62.306777 
L 212.10233 64.886569 
L 201.280511 67.822194 
L 201.280511 57.665455 
L 195.869602 58.974545 
L 195.869602 35.515636 
L 185.047784 36.663083 
L 179.636875 37.315041 
L 179.636875 22.32 
L 66.007784 22.32 
L 66.007784 22.32 
" clip-path="url(#p2120ba971a)" style="fill: none; stroke: #2ca02c; stroke-width: 1.5; stroke-linecap: square"/>
   </g>
   <g id="line2d_26">
    <path d="M 471.825966 323.20951 
L 471.825966 322.887273 
L 471.825966 322.557794 
L 471.825966 322.220826 
L 471.825966 321.876113 
L 471.825966 321.523383 
L 471.825966 321.162353 
L 471.825966 320.792727 
L 471.825966 320.414195 
L 471.825966 320.02643 
L 471.825966 319.629091 
L 471.825966 319.221818 
L 471.825966 318.804235 
L 471.825966 318.375944 
L 471.825966 317.936529 
L 471.825966 317.48555 
L 471.825966 317.022545 
L 471.825966 316.547027 
L 421.098693 320.577534 
L 421.098693 320.138182 
L 421.098693 319.686453 
L 421.098693 319.221818 
L 421.098693 318.743715 
L 421.098693 318.251551 
L 421.098693 317.744695 
L 421.098693 316.684196 
L 421.098693 316.129091 
L 421.098693 315.556364 
L 421.098693 314.965161 
L 421.098693 314.354575 
L 421.098693 313.723636 
L 421.098693 313.07131 
L 421.098693 312.396489 
L 421.098693 311.69799 
L 421.098693 310.974545 
L 370.37142 316.22281 
L 370.37142 315.556364 
L 370.37142 314.864768 
L 370.37142 314.146573 
L 370.37142 313.400214 
L 370.37142 312.624 
L 370.37142 311.816104 
L 370.37142 310.974545 
L 370.37142 310.097176 
L 370.37142 309.18166 
L 370.37142 308.225455 
L 319.644148 314.723306 
L 319.644148 313.851501 
L 268.916875 320.792727 
L 268.916875 320.02643 
L 268.916875 319.221818 
L 268.916875 318.375944 
L 268.916875 317.48555 
L 268.916875 316.547027 
L 268.916875 315.556364 
L 268.916875 314.509091 
L 268.916875 313.400214 
L 268.916875 312.224132 
L 268.916875 310.974545 
L 268.916875 309.64434 
L 268.916875 306.708715 
L 218.189602 316.865455 
L 218.189602 315.556364 
L 218.189602 314.146573 
L 218.189602 312.624 
L 167.46233 324.72 
L 167.46233 323.524743 
L 167.46233 322.220826 
L 167.46233 320.792727 
L 167.46233 319.221818 
L 167.46233 317.48555 
L 167.46233 315.556364 
L 167.46233 313.400214 
L 167.46233 310.974545 
L 167.46233 308.225455 
L 167.46233 305.083636 
L 167.46233 301.458462 
L 167.46233 297.229091 
L 116.735057 322.220826 
L 116.735057 319.221818 
L 116.735057 315.556364 
L 116.735057 310.974545 
L 116.735057 305.083636 
L 116.735057 297.229091 
L 116.735057 269.738182 
L 116.735057 242.247273 
L 116.735057 187.265455 
L 116.735057 22.32 
L 66.007784 22.32 
" clip-path="url(#p2120ba971a)" style="fill: none; stroke: #d62728; stroke-width: 1.5; stroke-linecap: square"/>
   </g>
   <g id="line2d_27">
    <path d="M 471.825966 314.723306 
L 471.825966 314.292414 
L 471.825966 313.851501 
L 471.825966 313.400214 
L 471.825966 312.938182 
L 471.825966 312.465016 
L 471.825966 311.98031 
L 471.825966 311.483636 
L 471.825966 310.974545 
L 471.825966 310.452566 
L 471.825966 309.917203 
L 471.825966 309.367934 
L 471.825966 308.804211 
L 471.825966 308.225455 
L 471.825966 307.631057 
L 471.825966 307.020374 
L 471.825966 306.392727 
L 471.825966 305.747401 
L 471.825966 305.083636 
L 471.825966 304.400632 
L 471.825966 303.69754 
L 471.825966 302.97346 
L 471.825966 302.227438 
L 471.825966 301.458462 
L 471.825966 300.665455 
L 471.825966 299.847273 
L 471.825966 299.002698 
L 471.825966 298.130432 
L 471.825966 297.229091 
L 471.825966 296.297196 
L 471.825966 295.333166 
L 471.825966 294.335311 
L 471.825966 293.301818 
L 471.825966 292.230744 
L 471.825966 291.12 
L 471.825966 289.967341 
L 471.825966 288.77035 
L 471.825966 287.526417 
L 471.825966 286.232727 
L 471.825966 284.886234 
L 471.825966 283.483636 
L 471.825966 282.021354 
L 471.825966 280.495494 
L 471.825966 278.901818 
L 471.825966 277.235702 
L 471.825966 275.492093 
L 471.825966 273.665455 
L 471.825966 271.749712 
L 471.825966 269.738182 
L 471.825966 267.623497 
L 471.825966 265.397512 
L 471.825966 263.051204 
L 471.825966 260.574545 
L 471.825966 257.956364 
L 471.825966 255.184171 
L 471.825966 252.243967 
L 471.825966 249.12 
L 471.825966 245.794487 
L 431.244148 253.243636 
L 431.244148 249.830972 
L 431.244148 246.174545 
L 431.244148 242.247273 
L 431.244148 238.017902 
L 431.244148 233.450182 
L 431.244148 228.501818 
L 431.244148 223.123162 
L 431.244148 217.255537 
L 431.244148 210.829091 
L 431.244148 203.76 
L 390.66233 213.309474 
L 390.66233 205.592727 
L 350.080511 216.373476 
L 350.080511 207.883636 
L 350.080511 198.261818 
L 350.080511 187.265455 
L 350.080511 174.577343 
L 350.080511 159.774545 
L 350.080511 142.280331 
L 350.080511 121.287273 
L 309.498693 132.283636 
L 309.498693 104.792727 
L 268.916875 116.574545 
L 268.916875 77.301818 
L 268.916875 22.32 
L 228.335057 22.32 
L 187.753239 22.32 
L 147.17142 22.32 
L 106.589602 22.32 
L 66.007784 22.32 
" clip-path="url(#p2120ba971a)" style="fill: none; stroke: #9467bd; stroke-width: 1.5; stroke-linecap: square"/>
   </g>
   <g id="patch_3">
    <path d="M 45.716875 339.84 
L 45.716875 7.2 
" style="fill: none; stroke: #000000; stroke-width: 0.8; stroke-linejoin: miter; stroke-linecap: square"/>
   </g>
   <g id="patch_4">
    <path d="M 492.116875 339.84 
L 492.116875 7.2 
" style="fill: none; stroke: #000000; stroke-width: 0.8; stroke-linejoin: miter; stroke-linecap: square"/>
   </g>
   <g id="patch_5">
    <path d="M 45.716875 339.84 
L 492.116875 339.84 
" style="fill: none; stroke: #000000; stroke-width: 0.8; stroke-linejoin: miter; stroke-linecap: square"/>
   </g>
   <g id="patch_6">
    <path d="M 45.716875 7.2 
L 492.116875 7.2 
" style="fill: none; stroke: #000000; stroke-width: 0.8; stroke-linejoin: miter; stroke-linecap: square"/>
   </g>
   <g id="legend_1">
    <g id="patch_7">
     <path d="M 83.295 471.126625 
L 454.53875 471.126625 
Q 456.53875 471.126625 456.53875 469.126625 
L 456.53875 396.736 
Q 456.53875 394.736 454.53875 394.736 
L 83.295 394.736 
Q 81.295 394.736 81.295 396.736 
L 81.295 469.126625 
Q 81.295 471.126625 83.295 471.126625 
z
" style="fill: #ffffff; opacity: 0.8; stroke: #cccccc; stroke-linejoin: miter"/>
    </g>
    <g id="line2d_28">
     <path d="M 85.295 402.834437 
L 95.295 402.834437 
L 105.295 402.834437 
" style="fill: none; stroke: #1f77b4; stroke-width: 1.5; stroke-linecap: square"/>
    </g>
    <g id="text_14">
     <!-- AUCPR for White = 0.75, Count: 8,355, Pos: 2,136, Neg: 6,219 -->
     <g transform="translate(113.295 406.334437) scale(0.1 -0.1)">
      <defs>
       <path id="DejaVuSans-41" d="M 2188 4044 
L 1331 1722 
L 3047 1722 
L 2188 4044 
z
M 1831 4666 
L 2547 4666 
L 4325 0 
L 3669 0 
L 3244 1197 
L 1141 1197 
L 716 0 
L 50 0 
L 1831 4666 
z
" transform="scale(0.015625)"/>
       <path id="DejaVuSans-55" d="M 556 4666 
L 1191 4666 
L 1191 1831 
Q 1191 1081 1462 751 
Q 1734 422 2344 422 
Q 2950 422 3222 751 
Q 3494 1081 3494 1831 
L 3494 4666 
L 4128 4666 
L 4128 1753 
Q 4128 841 3676 375 
Q 3225 -91 2344 -91 
Q 1459 -91 1007 375 
Q 556 841 556 1753 
L 556 4666 
z
" transform="scale(0.015625)"/>
       <path id="DejaVuSans-43" d="M 4122 4306 
L 4122 3641 
Q 3803 3938 3442 4084 
Q 3081 4231 2675 4231 
Q 1875 4231 1450 3742 
Q 1025 3253 1025 2328 
Q 1025 1406 1450 917 
Q 1875 428 2675 428 
Q 3081 428 3442 575 
Q 3803 722 4122 1019 
L 4122 359 
Q 3791 134 3420 21 
Q 3050 -91 2638 -91 
Q 1578 -91 968 557 
Q 359 1206 359 2328 
Q 359 3453 968 4101 
Q 1578 4750 2638 4750 
Q 3056 4750 3426 4639 
Q 3797 4528 4122 4306 
z
" transform="scale(0.015625)"/>
       <path id="DejaVuSans-20" transform="scale(0.015625)"/>
       <path id="DejaVuSans-66" d="M 2375 4863 
L 2375 4384 
L 1825 4384 
Q 1516 4384 1395 4259 
Q 1275 4134 1275 3809 
L 1275 3500 
L 2222 3500 
L 2222 3053 
L 1275 3053 
L 1275 0 
L 697 0 
L 697 3053 
L 147 3053 
L 147 3500 
L 697 3500 
L 697 3744 
Q 697 4328 969 4595 
Q 1241 4863 1831 4863 
L 2375 4863 
z
" transform="scale(0.015625)"/>
       <path id="DejaVuSans-57" d="M 213 4666 
L 850 4666 
L 1831 722 
L 2809 4666 
L 3519 4666 
L 4500 722 
L 5478 4666 
L 6119 4666 
L 4947 0 
L 4153 0 
L 3169 4050 
L 2175 0 
L 1381 0 
L 213 4666 
z
" transform="scale(0.015625)"/>
       <path id="DejaVuSans-68" d="M 3513 2113 
L 3513 0 
L 2938 0 
L 2938 2094 
Q 2938 2591 2744 2837 
Q 2550 3084 2163 3084 
Q 1697 3084 1428 2787 
Q 1159 2491 1159 1978 
L 1159 0 
L 581 0 
L 581 4863 
L 1159 4863 
L 1159 2956 
Q 1366 3272 1645 3428 
Q 1925 3584 2291 3584 
Q 2894 3584 3203 3211 
Q 3513 2838 3513 2113 
z
" transform="scale(0.015625)"/>
       <path id="DejaVuSans-74" d="M 1172 4494 
L 1172 3500 
L 2356 3500 
L 2356 3053 
L 1172 3053 
L 1172 1153 
Q 1172 725 1289 603 
Q 1406 481 1766 481 
L 2356 481 
L 2356 0 
L 1766 0 
Q 1100 0 847 248 
Q 594 497 594 1153 
L 594 3053 
L 172 3053 
L 172 3500 
L 594 3500 
L 594 4494 
L 1172 4494 
z
" transform="scale(0.015625)"/>
       <path id="DejaVuSans-3d" d="M 678 2906 
L 4684 2906 
L 4684 2381 
L 678 2381 
L 678 2906 
z
M 678 1631 
L 4684 1631 
L 4684 1100 
L 678 1100 
L 678 1631 
z
" transform="scale(0.015625)"/>
       <path id="DejaVuSans-37" d="M 525 4666 
L 3525 4666 
L 3525 4397 
L 1831 0 
L 1172 0 
L 2766 4134 
L 525 4134 
L 525 4666 
z
" transform="scale(0.015625)"/>
       <path id="DejaVuSans-35" d="M 691 4666 
L 3169 4666 
L 3169 4134 
L 1269 4134 
L 1269 2991 
Q 1406 3038 1543 3061 
Q 1681 3084 1819 3084 
Q 2600 3084 3056 2656 
Q 3513 2228 3513 1497 
Q 3513 744 3044 326 
Q 2575 -91 1722 -91 
Q 1428 -91 1123 -41 
Q 819 9 494 109 
L 494 744 
Q 775 591 1075 516 
Q 1375 441 1709 441 
Q 2250 441 2565 725 
Q 2881 1009 2881 1497 
Q 2881 1984 2565 2268 
Q 2250 2553 1709 2553 
Q 1456 2553 1204 2497 
Q 953 2441 691 2322 
L 691 4666 
z
" transform="scale(0.015625)"/>
       <path id="DejaVuSans-2c" d="M 750 794 
L 1409 794 
L 1409 256 
L 897 -744 
L 494 -744 
L 750 256 
L 750 794 
z
" transform="scale(0.015625)"/>
       <path id="DejaVuSans-75" d="M 544 1381 
L 544 3500 
L 1119 3500 
L 1119 1403 
Q 1119 906 1312 657 
Q 1506 409 1894 409 
Q 2359 409 2629 706 
Q 2900 1003 2900 1516 
L 2900 3500 
L 3475 3500 
L 3475 0 
L 2900 0 
L 2900 538 
Q 2691 219 2414 64 
Q 2138 -91 1772 -91 
Q 1169 -91 856 284 
Q 544 659 544 1381 
z
M 1991 3584 
L 1991 3584 
z
" transform="scale(0.015625)"/>
       <path id="DejaVuSans-3a" d="M 750 794 
L 1409 794 
L 1409 0 
L 750 0 
L 750 794 
z
M 750 3309 
L 1409 3309 
L 1409 2516 
L 750 2516 
L 750 3309 
z
" transform="scale(0.015625)"/>
       <path id="DejaVuSans-33" d="M 2597 2516 
Q 3050 2419 3304 2112 
Q 3559 1806 3559 1356 
Q 3559 666 3084 287 
Q 2609 -91 1734 -91 
Q 1441 -91 1130 -33 
Q 819 25 488 141 
L 488 750 
Q 750 597 1062 519 
Q 1375 441 1716 441 
Q 2309 441 2620 675 
Q 2931 909 2931 1356 
Q 2931 1769 2642 2001 
Q 2353 2234 1838 2234 
L 1294 2234 
L 1294 2753 
L 1863 2753 
Q 2328 2753 2575 2939 
Q 2822 3125 2822 3475 
Q 2822 3834 2567 4026 
Q 2313 4219 1838 4219 
Q 1578 4219 1281 4162 
Q 984 4106 628 3988 
L 628 4550 
Q 988 4650 1302 4700 
Q 1616 4750 1894 4750 
Q 2613 4750 3031 4423 
Q 3450 4097 3450 3541 
Q 3450 3153 3228 2886 
Q 3006 2619 2597 2516 
z
" transform="scale(0.015625)"/>
       <path id="DejaVuSans-4e" d="M 628 4666 
L 1478 4666 
L 3547 763 
L 3547 4666 
L 4159 4666 
L 4159 0 
L 3309 0 
L 1241 3903 
L 1241 0 
L 628 0 
L 628 4666 
z
" transform="scale(0.015625)"/>
       <path id="DejaVuSans-67" d="M 2906 1791 
Q 2906 2416 2648 2759 
Q 2391 3103 1925 3103 
Q 1463 3103 1205 2759 
Q 947 2416 947 1791 
Q 947 1169 1205 825 
Q 1463 481 1925 481 
Q 2391 481 2648 825 
Q 2906 1169 2906 1791 
z
M 3481 434 
Q 3481 -459 3084 -895 
Q 2688 -1331 1869 -1331 
Q 1566 -1331 1297 -1286 
Q 1028 -1241 775 -1147 
L 775 -588 
Q 1028 -725 1275 -790 
Q 1522 -856 1778 -856 
Q 2344 -856 2625 -561 
Q 2906 -266 2906 331 
L 2906 616 
Q 2728 306 2450 153 
Q 2172 0 1784 0 
Q 1141 0 747 490 
Q 353 981 353 1791 
Q 353 2603 747 3093 
Q 1141 3584 1784 3584 
Q 2172 3584 2450 3431 
Q 2728 3278 2906 2969 
L 2906 3500 
L 3481 3500 
L 3481 434 
z
" transform="scale(0.015625)"/>
       <path id="DejaVuSans-39" d="M 703 97 
L 703 672 
Q 941 559 1184 500 
Q 1428 441 1663 441 
Q 2288 441 2617 861 
Q 2947 1281 2994 2138 
Q 2813 1869 2534 1725 
Q 2256 1581 1919 1581 
Q 1219 1581 811 2004 
Q 403 2428 403 3163 
Q 403 3881 828 4315 
Q 1253 4750 1959 4750 
Q 2769 4750 3195 4129 
Q 3622 3509 3622 2328 
Q 3622 1225 3098 567 
Q 2575 -91 1691 -91 
Q 1453 -91 1209 -44 
Q 966 3 703 97 
z
M 1959 2075 
Q 2384 2075 2632 2365 
Q 2881 2656 2881 3163 
Q 2881 3666 2632 3958 
Q 2384 4250 1959 4250 
Q 1534 4250 1286 3958 
Q 1038 3666 1038 3163 
Q 1038 2656 1286 2365 
Q 1534 2075 1959 2075 
z
" transform="scale(0.015625)"/>
      </defs>
      <use xlink:href="#DejaVuSans-41"/>
      <use xlink:href="#DejaVuSans-55" x="68.408203"/>
      <use xlink:href="#DejaVuSans-43" x="141.601562"/>
      <use xlink:href="#DejaVuSans-50" x="211.425781"/>
      <use xlink:href="#DejaVuSans-52" x="271.728516"/>
      <use xlink:href="#DejaVuSans-20" x="341.210938"/>
      <use xlink:href="#DejaVuSans-66" x="372.998047"/>
      <use xlink:href="#DejaVuSans-6f" x="408.203125"/>
      <use xlink:href="#DejaVuSans-72" x="469.384766"/>
      <use xlink:href="#DejaVuSans-20" x="510.498047"/>
      <use xlink:href="#DejaVuSans-57" x="542.285156"/>
      <use xlink:href="#DejaVuSans-68" x="641.162109"/>
      <use xlink:href="#DejaVuSans-69" x="704.541016"/>
      <use xlink:href="#DejaVuSans-74" x="732.324219"/>
      <use xlink:href="#DejaVuSans-65" x="771.533203"/>
      <use xlink:href="#DejaVuSans-20" x="833.056641"/>
      <use xlink:href="#DejaVuSans-3d" x="864.84375"/>
      <use xlink:href="#DejaVuSans-20" x="948.632812"/>
      <use xlink:href="#DejaVuSans-30" x="980.419922"/>
      <use xlink:href="#DejaVuSans-2e" x="1044.042969"/>
      <use xlink:href="#DejaVuSans-37" x="1075.830078"/>
      <use xlink:href="#DejaVuSans-35" x="1139.453125"/>
      <use xlink:href="#DejaVuSans-2c" x="1203.076172"/>
      <use xlink:href="#DejaVuSans-20" x="1234.863281"/>
      <use xlink:href="#DejaVuSans-43" x="1266.650391"/>
      <use xlink:href="#DejaVuSans-6f" x="1336.474609"/>
      <use xlink:href="#DejaVuSans-75" x="1397.65625"/>
      <use xlink:href="#DejaVuSans-6e" x="1461.035156"/>
      <use xlink:href="#DejaVuSans-74" x="1524.414062"/>
      <use xlink:href="#DejaVuSans-3a" x="1563.623047"/>
      <use xlink:href="#DejaVuSans-20" x="1597.314453"/>
      <use xlink:href="#DejaVuSans-38" x="1629.101562"/>
      <use xlink:href="#DejaVuSans-2c" x="1692.724609"/>
      <use xlink:href="#DejaVuSans-33" x="1724.511719"/>
      <use xlink:href="#DejaVuSans-35" x="1788.134766"/>
      <use xlink:href="#DejaVuSans-35" x="1851.757812"/>
      <use xlink:href="#DejaVuSans-2c" x="1915.380859"/>
      <use xlink:href="#DejaVuSans-20" x="1947.167969"/>
      <use xlink:href="#DejaVuSans-50" x="1978.955078"/>
      <use xlink:href="#DejaVuSans-6f" x="2035.632812"/>
      <use xlink:href="#DejaVuSans-73" x="2096.814453"/>
      <use xlink:href="#DejaVuSans-3a" x="2148.914062"/>
      <use xlink:href="#DejaVuSans-20" x="2182.605469"/>
      <use xlink:href="#DejaVuSans-32" x="2214.392578"/>
      <use xlink:href="#DejaVuSans-2c" x="2278.015625"/>
      <use xlink:href="#DejaVuSans-31" x="2309.802734"/>
      <use xlink:href="#DejaVuSans-33" x="2373.425781"/>
      <use xlink:href="#DejaVuSans-36" x="2437.048828"/>
      <use xlink:href="#DejaVuSans-2c" x="2500.671875"/>
      <use xlink:href="#DejaVuSans-20" x="2532.458984"/>
      <use xlink:href="#DejaVuSans-4e" x="2564.246094"/>
      <use xlink:href="#DejaVuSans-65" x="2639.050781"/>
      <use xlink:href="#DejaVuSans-67" x="2700.574219"/>
      <use xlink:href="#DejaVuSans-3a" x="2764.050781"/>
      <use xlink:href="#DejaVuSans-20" x="2797.742188"/>
      <use xlink:href="#DejaVuSans-36" x="2829.529297"/>
      <use xlink:href="#DejaVuSans-2c" x="2893.152344"/>
      <use xlink:href="#DejaVuSans-32" x="2924.939453"/>
      <use xlink:href="#DejaVuSans-31" x="2988.5625"/>
      <use xlink:href="#DejaVuSans-39" x="3052.185547"/>
     </g>
    </g>
    <g id="line2d_29">
     <path d="M 85.295 417.512563 
L 95.295 417.512563 
L 105.295 417.512563 
" style="fill: none; stroke: #ff7f0e; stroke-width: 1.5; stroke-linecap: square"/>
    </g>
    <g id="text_15">
     <!-- AUCPR for Black = 0.62, Count: 936, Pos: 109, Neg: 827 -->
     <g transform="translate(113.295 421.012563) scale(0.1 -0.1)">
      <defs>
       <path id="DejaVuSans-42" d="M 1259 2228 
L 1259 519 
L 2272 519 
Q 2781 519 3026 730 
Q 3272 941 3272 1375 
Q 3272 1813 3026 2020 
Q 2781 2228 2272 2228 
L 1259 2228 
z
M 1259 4147 
L 1259 2741 
L 2194 2741 
Q 2656 2741 2882 2914 
Q 3109 3088 3109 3444 
Q 3109 3797 2882 3972 
Q 2656 4147 2194 4147 
L 1259 4147 
z
M 628 4666 
L 2241 4666 
Q 2963 4666 3353 4366 
Q 3744 4066 3744 3513 
Q 3744 3084 3544 2831 
Q 3344 2578 2956 2516 
Q 3422 2416 3680 2098 
Q 3938 1781 3938 1306 
Q 3938 681 3513 340 
Q 3088 0 2303 0 
L 628 0 
L 628 4666 
z
" transform="scale(0.015625)"/>
       <path id="DejaVuSans-6b" d="M 581 4863 
L 1159 4863 
L 1159 1991 
L 2875 3500 
L 3609 3500 
L 1753 1863 
L 3688 0 
L 2938 0 
L 1159 1709 
L 1159 0 
L 581 0 
L 581 4863 
z
" transform="scale(0.015625)"/>
      </defs>
      <use xlink:href="#DejaVuSans-41"/>
      <use xlink:href="#DejaVuSans-55" x="68.408203"/>
      <use xlink:href="#DejaVuSans-43" x="141.601562"/>
      <use xlink:href="#DejaVuSans-50" x="211.425781"/>
      <use xlink:href="#DejaVuSans-52" x="271.728516"/>
      <use xlink:href="#DejaVuSans-20" x="341.210938"/>
      <use xlink:href="#DejaVuSans-66" x="372.998047"/>
      <use xlink:href="#DejaVuSans-6f" x="408.203125"/>
      <use xlink:href="#DejaVuSans-72" x="469.384766"/>
      <use xlink:href="#DejaVuSans-20" x="510.498047"/>
      <use xlink:href="#DejaVuSans-42" x="542.285156"/>
      <use xlink:href="#DejaVuSans-6c" x="610.888672"/>
      <use xlink:href="#DejaVuSans-61" x="638.671875"/>
      <use xlink:href="#DejaVuSans-63" x="699.951172"/>
      <use xlink:href="#DejaVuSans-6b" x="754.931641"/>
      <use xlink:href="#DejaVuSans-20" x="812.841797"/>
      <use xlink:href="#DejaVuSans-3d" x="844.628906"/>
      <use xlink:href="#DejaVuSans-20" x="928.417969"/>
      <use xlink:href="#DejaVuSans-30" x="960.205078"/>
      <use xlink:href="#DejaVuSans-2e" x="1023.828125"/>
      <use xlink:href="#DejaVuSans-36" x="1055.615234"/>
      <use xlink:href="#DejaVuSans-32" x="1119.238281"/>
      <use xlink:href="#DejaVuSans-2c" x="1182.861328"/>
      <use xlink:href="#DejaVuSans-20" x="1214.648438"/>
      <use xlink:href="#DejaVuSans-43" x="1246.435547"/>
      <use xlink:href="#DejaVuSans-6f" x="1316.259766"/>
      <use xlink:href="#DejaVuSans-75" x="1377.441406"/>
      <use xlink:href="#DejaVuSans-6e" x="1440.820312"/>
      <use xlink:href="#DejaVuSans-74" x="1504.199219"/>
      <use xlink:href="#DejaVuSans-3a" x="1543.408203"/>
      <use xlink:href="#DejaVuSans-20" x="1577.099609"/>
      <use xlink:href="#DejaVuSans-39" x="1608.886719"/>
      <use xlink:href="#DejaVuSans-33" x="1672.509766"/>
      <use xlink:href="#DejaVuSans-36" x="1736.132812"/>
      <use xlink:href="#DejaVuSans-2c" x="1799.755859"/>
      <use xlink:href="#DejaVuSans-20" x="1831.542969"/>
      <use xlink:href="#DejaVuSans-50" x="1863.330078"/>
      <use xlink:href="#DejaVuSans-6f" x="1920.007812"/>
      <use xlink:href="#DejaVuSans-73" x="1981.189453"/>
      <use xlink:href="#DejaVuSans-3a" x="2033.289062"/>
      <use xlink:href="#DejaVuSans-20" x="2066.980469"/>
      <use xlink:href="#DejaVuSans-31" x="2098.767578"/>
      <use xlink:href="#DejaVuSans-30" x="2162.390625"/>
      <use xlink:href="#DejaVuSans-39" x="2226.013672"/>
      <use xlink:href="#DejaVuSans-2c" x="2289.636719"/>
      <use xlink:href="#DejaVuSans-20" x="2321.423828"/>
      <use xlink:href="#DejaVuSans-4e" x="2353.210938"/>
      <use xlink:href="#DejaVuSans-65" x="2428.015625"/>
      <use xlink:href="#DejaVuSans-67" x="2489.539062"/>
      <use xlink:href="#DejaVuSans-3a" x="2553.015625"/>
      <use xlink:href="#DejaVuSans-20" x="2586.707031"/>
      <use xlink:href="#DejaVuSans-38" x="2618.494141"/>
      <use xlink:href="#DejaVuSans-32" x="2682.117188"/>
      <use xlink:href="#DejaVuSans-37" x="2745.740234"/>
     </g>
    </g>
    <g id="line2d_30">
     <path d="M 85.295 432.190687 
L 95.295 432.190687 
L 105.295 432.190687 
" style="fill: none; stroke: #2ca02c; stroke-width: 1.5; stroke-linecap: square"/>
    </g>
    <g id="text_16">
     <!-- AUCPR for Asian-Pac-Islander = 0.72, Count: 299, Pos: 75, Neg: 224 -->
     <g transform="translate(113.295 435.690687) scale(0.1 -0.1)">
      <defs>
       <path id="DejaVuSans-2d" d="M 313 2009 
L 1997 2009 
L 1997 1497 
L 313 1497 
L 313 2009 
z
" transform="scale(0.015625)"/>
       <path id="DejaVuSans-49" d="M 628 4666 
L 1259 4666 
L 1259 0 
L 628 0 
L 628 4666 
z
" transform="scale(0.015625)"/>
       <path id="DejaVuSans-64" d="M 2906 2969 
L 2906 4863 
L 3481 4863 
L 3481 0 
L 2906 0 
L 2906 525 
Q 2725 213 2448 61 
Q 2172 -91 1784 -91 
Q 1150 -91 751 415 
Q 353 922 353 1747 
Q 353 2572 751 3078 
Q 1150 3584 1784 3584 
Q 2172 3584 2448 3432 
Q 2725 3281 2906 2969 
z
M 947 1747 
Q 947 1113 1208 752 
Q 1469 391 1925 391 
Q 2381 391 2643 752 
Q 2906 1113 2906 1747 
Q 2906 2381 2643 2742 
Q 2381 3103 1925 3103 
Q 1469 3103 1208 2742 
Q 947 2381 947 1747 
z
" transform="scale(0.015625)"/>
      </defs>
      <use xlink:href="#DejaVuSans-41"/>
      <use xlink:href="#DejaVuSans-55" x="68.408203"/>
      <use xlink:href="#DejaVuSans-43" x="141.601562"/>
      <use xlink:href="#DejaVuSans-50" x="211.425781"/>
      <use xlink:href="#DejaVuSans-52" x="271.728516"/>
      <use xlink:href="#DejaVuSans-20" x="341.210938"/>
      <use xlink:href="#DejaVuSans-66" x="372.998047"/>
      <use xlink:href="#DejaVuSans-6f" x="408.203125"/>
      <use xlink:href="#DejaVuSans-72" x="469.384766"/>
      <use xlink:href="#DejaVuSans-20" x="510.498047"/>
      <use xlink:href="#DejaVuSans-41" x="542.285156"/>
      <use xlink:href="#DejaVuSans-73" x="610.693359"/>
      <use xlink:href="#DejaVuSans-69" x="662.792969"/>
      <use xlink:href="#DejaVuSans-61" x="690.576172"/>
      <use xlink:href="#DejaVuSans-6e" x="751.855469"/>
      <use xlink:href="#DejaVuSans-2d" x="815.234375"/>
      <use xlink:href="#DejaVuSans-50" x="851.318359"/>
      <use xlink:href="#DejaVuSans-61" x="907.121094"/>
      <use xlink:href="#DejaVuSans-63" x="968.400391"/>
      <use xlink:href="#DejaVuSans-2d" x="1023.380859"/>
      <use xlink:href="#DejaVuSans-49" x="1059.464844"/>
      <use xlink:href="#DejaVuSans-73" x="1088.957031"/>
      <use xlink:href="#DejaVuSans-6c" x="1141.056641"/>
      <use xlink:href="#DejaVuSans-61" x="1168.839844"/>
      <use xlink:href="#DejaVuSans-6e" x="1230.119141"/>
      <use xlink:href="#DejaVuSans-64" x="1293.498047"/>
      <use xlink:href="#DejaVuSans-65" x="1356.974609"/>
      <use xlink:href="#DejaVuSans-72" x="1418.498047"/>
      <use xlink:href="#DejaVuSans-20" x="1459.611328"/>
      <use xlink:href="#DejaVuSans-3d" x="1491.398438"/>
      <use xlink:href="#DejaVuSans-20" x="1575.1875"/>
      <use xlink:href="#DejaVuSans-30" x="1606.974609"/>
      <use xlink:href="#DejaVuSans-2e" x="1670.597656"/>
      <use xlink:href="#DejaVuSans-37" x="1702.384766"/>
      <use xlink:href="#DejaVuSans-32" x="1766.007812"/>
      <use xlink:href="#DejaVuSans-2c" x="1829.630859"/>
      <use xlink:href="#DejaVuSans-20" x="1861.417969"/>
      <use xlink:href="#DejaVuSans-43" x="1893.205078"/>
      <use xlink:href="#DejaVuSans-6f" x="1963.029297"/>
      <use xlink:href="#DejaVuSans-75" x="2024.210938"/>
      <use xlink:href="#DejaVuSans-6e" x="2087.589844"/>
      <use xlink:href="#DejaVuSans-74" x="2150.96875"/>
      <use xlink:href="#DejaVuSans-3a" x="2190.177734"/>
      <use xlink:href="#DejaVuSans-20" x="2223.869141"/>
      <use xlink:href="#DejaVuSans-32" x="2255.65625"/>
      <use xlink:href="#DejaVuSans-39" x="2319.279297"/>
      <use xlink:href="#DejaVuSans-39" x="2382.902344"/>
      <use xlink:href="#DejaVuSans-2c" x="2446.525391"/>
      <use xlink:href="#DejaVuSans-20" x="2478.3125"/>
      <use xlink:href="#DejaVuSans-50" x="2510.099609"/>
      <use xlink:href="#DejaVuSans-6f" x="2566.777344"/>
      <use xlink:href="#DejaVuSans-73" x="2627.958984"/>
      <use xlink:href="#DejaVuSans-3a" x="2680.058594"/>
      <use xlink:href="#DejaVuSans-20" x="2713.75"/>
      <use xlink:href="#DejaVuSans-37" x="2745.537109"/>
      <use xlink:href="#DejaVuSans-35" x="2809.160156"/>
      <use xlink:href="#DejaVuSans-2c" x="2872.783203"/>
      <use xlink:href="#DejaVuSans-20" x="2904.570312"/>
      <use xlink:href="#DejaVuSans-4e" x="2936.357422"/>
      <use xlink:href="#DejaVuSans-65" x="3011.162109"/>
      <use xlink:href="#DejaVuSans-67" x="3072.685547"/>
      <use xlink:href="#DejaVuSans-3a" x="3136.162109"/>
      <use xlink:href="#DejaVuSans-20" x="3169.853516"/>
      <use xlink:href="#DejaVuSans-32" x="3201.640625"/>
      <use xlink:href="#DejaVuSans-32" x="3265.263672"/>
      <use xlink:href="#DejaVuSans-34" x="3328.886719"/>
     </g>
    </g>
    <g id="line2d_31">
     <path d="M 85.295 446.868812 
L 95.295 446.868812 
L 105.295 446.868812 
" style="fill: none; stroke: #d62728; stroke-width: 1.5; stroke-linecap: square"/>
    </g>
    <g id="text_17">
     <!-- AUCPR for Amer-Indian-Eskimo = 0.23, Count: 91, Pos: 8, Neg: 83 -->
     <g transform="translate(113.295 450.368812) scale(0.1 -0.1)">
      <defs>
       <path id="DejaVuSans-6d" d="M 3328 2828 
Q 3544 3216 3844 3400 
Q 4144 3584 4550 3584 
Q 5097 3584 5394 3201 
Q 5691 2819 5691 2113 
L 5691 0 
L 5113 0 
L 5113 2094 
Q 5113 2597 4934 2840 
Q 4756 3084 4391 3084 
Q 3944 3084 3684 2787 
Q 3425 2491 3425 1978 
L 3425 0 
L 2847 0 
L 2847 2094 
Q 2847 2600 2669 2842 
Q 2491 3084 2119 3084 
Q 1678 3084 1418 2786 
Q 1159 2488 1159 1978 
L 1159 0 
L 581 0 
L 581 3500 
L 1159 3500 
L 1159 2956 
Q 1356 3278 1631 3431 
Q 1906 3584 2284 3584 
Q 2666 3584 2933 3390 
Q 3200 3197 3328 2828 
z
" transform="scale(0.015625)"/>
       <path id="DejaVuSans-45" d="M 628 4666 
L 3578 4666 
L 3578 4134 
L 1259 4134 
L 1259 2753 
L 3481 2753 
L 3481 2222 
L 1259 2222 
L 1259 531 
L 3634 531 
L 3634 0 
L 628 0 
L 628 4666 
z
" transform="scale(0.015625)"/>
      </defs>
      <use xlink:href="#DejaVuSans-41"/>
      <use xlink:href="#DejaVuSans-55" x="68.408203"/>
      <use xlink:href="#DejaVuSans-43" x="141.601562"/>
      <use xlink:href="#DejaVuSans-50" x="211.425781"/>
      <use xlink:href="#DejaVuSans-52" x="271.728516"/>
      <use xlink:href="#DejaVuSans-20" x="341.210938"/>
      <use xlink:href="#DejaVuSans-66" x="372.998047"/>
      <use xlink:href="#DejaVuSans-6f" x="408.203125"/>
      <use xlink:href="#DejaVuSans-72" x="469.384766"/>
      <use xlink:href="#DejaVuSans-20" x="510.498047"/>
      <use xlink:href="#DejaVuSans-41" x="542.285156"/>
      <use xlink:href="#DejaVuSans-6d" x="610.693359"/>
      <use xlink:href="#DejaVuSans-65" x="708.105469"/>
      <use xlink:href="#DejaVuSans-72" x="769.628906"/>
      <use xlink:href="#DejaVuSans-2d" x="804.367188"/>
      <use xlink:href="#DejaVuSans-49" x="840.451172"/>
      <use xlink:href="#DejaVuSans-6e" x="869.943359"/>
      <use xlink:href="#DejaVuSans-64" x="933.322266"/>
      <use xlink:href="#DejaVuSans-69" x="996.798828"/>
      <use xlink:href="#DejaVuSans-61" x="1024.582031"/>
      <use xlink:href="#DejaVuSans-6e" x="1085.861328"/>
      <use xlink:href="#DejaVuSans-2d" x="1149.240234"/>
      <use xlink:href="#DejaVuSans-45" x="1185.324219"/>
      <use xlink:href="#DejaVuSans-73" x="1248.507812"/>
      <use xlink:href="#DejaVuSans-6b" x="1300.607422"/>
      <use xlink:href="#DejaVuSans-69" x="1358.517578"/>
      <use xlink:href="#DejaVuSans-6d" x="1386.300781"/>
      <use xlink:href="#DejaVuSans-6f" x="1483.712891"/>
      <use xlink:href="#DejaVuSans-20" x="1544.894531"/>
      <use xlink:href="#DejaVuSans-3d" x="1576.681641"/>
      <use xlink:href="#DejaVuSans-20" x="1660.470703"/>
      <use xlink:href="#DejaVuSans-30" x="1692.257812"/>
      <use xlink:href="#DejaVuSans-2e" x="1755.880859"/>
      <use xlink:href="#DejaVuSans-32" x="1787.667969"/>
      <use xlink:href="#DejaVuSans-33" x="1851.291016"/>
      <use xlink:href="#DejaVuSans-2c" x="1914.914062"/>
      <use xlink:href="#DejaVuSans-20" x="1946.701172"/>
      <use xlink:href="#DejaVuSans-43" x="1978.488281"/>
      <use xlink:href="#DejaVuSans-6f" x="2048.3125"/>
      <use xlink:href="#DejaVuSans-75" x="2109.494141"/>
      <use xlink:href="#DejaVuSans-6e" x="2172.873047"/>
      <use xlink:href="#DejaVuSans-74" x="2236.251953"/>
      <use xlink:href="#DejaVuSans-3a" x="2275.460938"/>
      <use xlink:href="#DejaVuSans-20" x="2309.152344"/>
      <use xlink:href="#DejaVuSans-39" x="2340.939453"/>
      <use xlink:href="#DejaVuSans-31" x="2404.5625"/>
      <use xlink:href="#DejaVuSans-2c" x="2468.185547"/>
      <use xlink:href="#DejaVuSans-20" x="2499.972656"/>
      <use xlink:href="#DejaVuSans-50" x="2531.759766"/>
      <use xlink:href="#DejaVuSans-6f" x="2588.4375"/>
      <use xlink:href="#DejaVuSans-73" x="2649.619141"/>
      <use xlink:href="#DejaVuSans-3a" x="2701.71875"/>
      <use xlink:href="#DejaVuSans-20" x="2735.410156"/>
      <use xlink:href="#DejaVuSans-38" x="2767.197266"/>
      <use xlink:href="#DejaVuSans-2c" x="2830.820312"/>
      <use xlink:href="#DejaVuSans-20" x="2862.607422"/>
      <use xlink:href="#DejaVuSans-4e" x="2894.394531"/>
      <use xlink:href="#DejaVuSans-65" x="2969.199219"/>
      <use xlink:href="#DejaVuSans-67" x="3030.722656"/>
      <use xlink:href="#DejaVuSans-3a" x="3094.199219"/>
      <use xlink:href="#DejaVuSans-20" x="3127.890625"/>
      <use xlink:href="#DejaVuSans-38" x="3159.677734"/>
      <use xlink:href="#DejaVuSans-33" x="3223.300781"/>
     </g>
    </g>
    <g id="line2d_32">
     <path d="M 85.295 461.546938 
L 95.295 461.546938 
L 105.295 461.546938 
" style="fill: none; stroke: #9467bd; stroke-width: 1.5; stroke-linecap: square"/>
    </g>
    <g id="text_18">
     <!-- AUCPR for Other = 0.76, Count: 88, Pos: 10, Neg: 78 -->
     <g transform="translate(113.295 465.046938) scale(0.1 -0.1)">
      <defs>
       <path id="DejaVuSans-4f" d="M 2522 4238 
Q 1834 4238 1429 3725 
Q 1025 3213 1025 2328 
Q 1025 1447 1429 934 
Q 1834 422 2522 422 
Q 3209 422 3611 934 
Q 4013 1447 4013 2328 
Q 4013 3213 3611 3725 
Q 3209 4238 2522 4238 
z
M 2522 4750 
Q 3503 4750 4090 4092 
Q 4678 3434 4678 2328 
Q 4678 1225 4090 567 
Q 3503 -91 2522 -91 
Q 1538 -91 948 565 
Q 359 1222 359 2328 
Q 359 3434 948 4092 
Q 1538 4750 2522 4750 
z
" transform="scale(0.015625)"/>
      </defs>
      <use xlink:href="#DejaVuSans-41"/>
      <use xlink:href="#DejaVuSans-55" x="68.408203"/>
      <use xlink:href="#DejaVuSans-43" x="141.601562"/>
      <use xlink:href="#DejaVuSans-50" x="211.425781"/>
      <use xlink:href="#DejaVuSans-52" x="271.728516"/>
      <use xlink:href="#DejaVuSans-20" x="341.210938"/>
      <use xlink:href="#DejaVuSans-66" x="372.998047"/>
      <use xlink:href="#DejaVuSans-6f" x="408.203125"/>
      <use xlink:href="#DejaVuSans-72" x="469.384766"/>
      <use xlink:href="#DejaVuSans-20" x="510.498047"/>
      <use xlink:href="#DejaVuSans-4f" x="542.285156"/>
      <use xlink:href="#DejaVuSans-74" x="620.996094"/>
      <use xlink:href="#DejaVuSans-68" x="660.205078"/>
      <use xlink:href="#DejaVuSans-65" x="723.583984"/>
      <use xlink:href="#DejaVuSans-72" x="785.107422"/>
      <use xlink:href="#DejaVuSans-20" x="826.220703"/>
      <use xlink:href="#DejaVuSans-3d" x="858.007812"/>
      <use xlink:href="#DejaVuSans-20" x="941.796875"/>
      <use xlink:href="#DejaVuSans-30" x="973.583984"/>
      <use xlink:href="#DejaVuSans-2e" x="1037.207031"/>
      <use xlink:href="#DejaVuSans-37" x="1068.994141"/>
      <use xlink:href="#DejaVuSans-36" x="1132.617188"/>
      <use xlink:href="#DejaVuSans-2c" x="1196.240234"/>
      <use xlink:href="#DejaVuSans-20" x="1228.027344"/>
      <use xlink:href="#DejaVuSans-43" x="1259.814453"/>
      <use xlink:href="#DejaVuSans-6f" x="1329.638672"/>
      <use xlink:href="#DejaVuSans-75" x="1390.820312"/>
      <use xlink:href="#DejaVuSans-6e" x="1454.199219"/>
      <use xlink:href="#DejaVuSans-74" x="1517.578125"/>
      <use xlink:href="#DejaVuSans-3a" x="1556.787109"/>
      <use xlink:href="#DejaVuSans-20" x="1590.478516"/>
      <use xlink:href="#DejaVuSans-38" x="1622.265625"/>
      <use xlink:href="#DejaVuSans-38" x="1685.888672"/>
      <use xlink:href="#DejaVuSans-2c" x="1749.511719"/>
      <use xlink:href="#DejaVuSans-20" x="1781.298828"/>
      <use xlink:href="#DejaVuSans-50" x="1813.085938"/>
      <use xlink:href="#DejaVuSans-6f" x="1869.763672"/>
      <use xlink:href="#DejaVuSans-73" x="1930.945312"/>
      <use xlink:href="#DejaVuSans-3a" x="1983.044922"/>
      <use xlink:href="#DejaVuSans-20" x="2016.736328"/>
      <use xlink:href="#DejaVuSans-31" x="2048.523438"/>
      <use xlink:href="#DejaVuSans-30" x="2112.146484"/>
      <use xlink:href="#DejaVuSans-2c" x="2175.769531"/>
      <use xlink:href="#DejaVuSans-20" x="2207.556641"/>
      <use xlink:href="#DejaVuSans-4e" x="2239.34375"/>
      <use xlink:href="#DejaVuSans-65" x="2314.148438"/>
      <use xlink:href="#DejaVuSans-67" x="2375.671875"/>
      <use xlink:href="#DejaVuSans-3a" x="2439.148438"/>
      <use xlink:href="#DejaVuSans-20" x="2472.839844"/>
      <use xlink:href="#DejaVuSans-37" x="2504.626953"/>
      <use xlink:href="#DejaVuSans-38" x="2568.25"/>
     </g>
    </g>
   </g>
  </g>
 </g>
 <defs>
  <clipPath id="p2120ba971a">
   <rect x="45.716875" y="7.2" width="446.4" height="332.64"/>
  </clipPath>
 </defs>
</svg>
