<?xml version="1.0" encoding="utf-8" standalone="no"?>
<!DOCTYPE svg PUBLIC "-//W3C//DTD SVG 1.1//EN"
  "http://www.w3.org/Graphics/SVG/1.1/DTD/svg11.dtd">
<svg xmlns:xlink="http://www.w3.org/1999/xlink" width="666.716875pt" height="394.45pt" viewBox="0 0 666.716875 394.45" xmlns="http://www.w3.org/2000/svg" version="1.1">
 <metadata>
  <rdf:RDF xmlns:dc="http://purl.org/dc/elements/1.1/" xmlns:cc="http://creativecommons.org/ns#" xmlns:rdf="http://www.w3.org/1999/02/22-rdf-syntax-ns#">
   <cc:Work>
    <dc:type rdf:resource="http://purl.org/dc/dcmitype/StillImage"/>
    <dc:date>2025-03-14T11:07:01.027350</dc:date>
    <dc:format>image/svg+xml</dc:format>
    <dc:creator>
     <cc:Agent>
      <dc:title>Matplotlib v3.9.2, https://matplotlib.org/</dc:title>
     </cc:Agent>
    </dc:creator>
   </cc:Work>
  </rdf:RDF>
 </metadata>
 <defs>
  <style type="text/css">*{stroke-linejoin: round; stroke-linecap: butt}</style>
 </defs>
 <g id="figure_1">
  <g id="patch_1">
   <path d="M 0 394.45 
L 666.716875 394.45 
L 666.716875 0 
L 0 0 
z
" style="fill: #ffffff"/>
  </g>
  <g id="axes_1">
   <g id="patch_2">
    <path d="M 45.716875 354.958125 
L 659.516875 354.958125 
L 659.516875 22.318125 
L 45.716875 22.318125 
z
" style="fill: #ffffff"/>
   </g>
   <g id="matplotlib.axis_1">
    <g id="xtick_1">
     <g id="line2d_1">
      <path d="M 73.616875 354.958125 
L 73.616875 22.318125 
" clip-path="url(#pc17d4a16a4)" style="fill: none; stroke: #b0b0b0; stroke-width: 0.8; stroke-linecap: square"/>
     </g>
     <g id="line2d_2">
      <defs>
       <path id="m2a7517cf4a" d="M 0 0 
L 0 3.5 
" style="stroke: #000000; stroke-width: 0.8"/>
      </defs>
      <g>
       <use xlink:href="#m2a7517cf4a" x="73.616875" y="354.958125" style="stroke: #000000; stroke-width: 0.8"/>
      </g>
     </g>
     <g id="text_1">
      <!-- 0.0 -->
      <g transform="translate(65.665313 369.556562) scale(0.1 -0.1)">
       <defs>
        <path id="DejaVuSans-30" d="M 2034 4250 
Q 1547 4250 1301 3770 
Q 1056 3291 1056 2328 
Q 1056 1369 1301 889 
Q 1547 409 2034 409 
Q 2525 409 2770 889 
Q 3016 1369 3016 2328 
Q 3016 3291 2770 3770 
Q 2525 4250 2034 4250 
z
M 2034 4750 
Q 2819 4750 3233 4129 
Q 3647 3509 3647 2328 
Q 3647 1150 3233 529 
Q 2819 -91 2034 -91 
Q 1250 -91 836 529 
Q 422 1150 422 2328 
Q 422 3509 836 4129 
Q 1250 4750 2034 4750 
z
" transform="scale(0.015625)"/>
        <path id="DejaVuSans-2e" d="M 684 794 
L 1344 794 
L 1344 0 
L 684 0 
L 684 794 
z
" transform="scale(0.015625)"/>
       </defs>
       <use xlink:href="#DejaVuSans-30"/>
       <use xlink:href="#DejaVuSans-2e" x="63.623047"/>
       <use xlink:href="#DejaVuSans-30" x="95.410156"/>
      </g>
     </g>
    </g>
    <g id="xtick_2">
     <g id="line2d_3">
      <path d="M 185.216875 354.958125 
L 185.216875 22.318125 
" clip-path="url(#pc17d4a16a4)" style="fill: none; stroke: #b0b0b0; stroke-width: 0.8; stroke-linecap: square"/>
     </g>
     <g id="line2d_4">
      <g>
       <use xlink:href="#m2a7517cf4a" x="185.216875" y="354.958125" style="stroke: #000000; stroke-width: 0.8"/>
      </g>
     </g>
     <g id="text_2">
      <!-- 0.2 -->
      <g transform="translate(177.265313 369.556562) scale(0.1 -0.1)">
       <defs>
        <path id="DejaVuSans-32" d="M 1228 531 
L 3431 531 
L 3431 0 
L 469 0 
L 469 531 
Q 828 903 1448 1529 
Q 2069 2156 2228 2338 
Q 2531 2678 2651 2914 
Q 2772 3150 2772 3378 
Q 2772 3750 2511 3984 
Q 2250 4219 1831 4219 
Q 1534 4219 1204 4116 
Q 875 4013 500 3803 
L 500 4441 
Q 881 4594 1212 4672 
Q 1544 4750 1819 4750 
Q 2544 4750 2975 4387 
Q 3406 4025 3406 3419 
Q 3406 3131 3298 2873 
Q 3191 2616 2906 2266 
Q 2828 2175 2409 1742 
Q 1991 1309 1228 531 
z
" transform="scale(0.015625)"/>
       </defs>
       <use xlink:href="#DejaVuSans-30"/>
       <use xlink:href="#DejaVuSans-2e" x="63.623047"/>
       <use xlink:href="#DejaVuSans-32" x="95.410156"/>
      </g>
     </g>
    </g>
    <g id="xtick_3">
     <g id="line2d_5">
      <path d="M 296.816875 354.958125 
L 296.816875 22.318125 
" clip-path="url(#pc17d4a16a4)" style="fill: none; stroke: #b0b0b0; stroke-width: 0.8; stroke-linecap: square"/>
     </g>
     <g id="line2d_6">
      <g>
       <use xlink:href="#m2a7517cf4a" x="296.816875" y="354.958125" style="stroke: #000000; stroke-width: 0.8"/>
      </g>
     </g>
     <g id="text_3">
      <!-- 0.4 -->
      <g transform="translate(288.865313 369.556562) scale(0.1 -0.1)">
       <defs>
        <path id="DejaVuSans-34" d="M 2419 4116 
L 825 1625 
L 2419 1625 
L 2419 4116 
z
M 2253 4666 
L 3047 4666 
L 3047 1625 
L 3713 1625 
L 3713 1100 
L 3047 1100 
L 3047 0 
L 2419 0 
L 2419 1100 
L 313 1100 
L 313 1709 
L 2253 4666 
z
" transform="scale(0.015625)"/>
       </defs>
       <use xlink:href="#DejaVuSans-30"/>
       <use xlink:href="#DejaVuSans-2e" x="63.623047"/>
       <use xlink:href="#DejaVuSans-34" x="95.410156"/>
      </g>
     </g>
    </g>
    <g id="xtick_4">
     <g id="line2d_7">
      <path d="M 408.416875 354.958125 
L 408.416875 22.318125 
" clip-path="url(#pc17d4a16a4)" style="fill: none; stroke: #b0b0b0; stroke-width: 0.8; stroke-linecap: square"/>
     </g>
     <g id="line2d_8">
      <g>
       <use xlink:href="#m2a7517cf4a" x="408.416875" y="354.958125" style="stroke: #000000; stroke-width: 0.8"/>
      </g>
     </g>
     <g id="text_4">
      <!-- 0.6 -->
      <g transform="translate(400.465313 369.556562) scale(0.1 -0.1)">
       <defs>
        <path id="DejaVuSans-36" d="M 2113 2584 
Q 1688 2584 1439 2293 
Q 1191 2003 1191 1497 
Q 1191 994 1439 701 
Q 1688 409 2113 409 
Q 2538 409 2786 701 
Q 3034 994 3034 1497 
Q 3034 2003 2786 2293 
Q 2538 2584 2113 2584 
z
M 3366 4563 
L 3366 3988 
Q 3128 4100 2886 4159 
Q 2644 4219 2406 4219 
Q 1781 4219 1451 3797 
Q 1122 3375 1075 2522 
Q 1259 2794 1537 2939 
Q 1816 3084 2150 3084 
Q 2853 3084 3261 2657 
Q 3669 2231 3669 1497 
Q 3669 778 3244 343 
Q 2819 -91 2113 -91 
Q 1303 -91 875 529 
Q 447 1150 447 2328 
Q 447 3434 972 4092 
Q 1497 4750 2381 4750 
Q 2619 4750 2861 4703 
Q 3103 4656 3366 4563 
z
" transform="scale(0.015625)"/>
       </defs>
       <use xlink:href="#DejaVuSans-30"/>
       <use xlink:href="#DejaVuSans-2e" x="63.623047"/>
       <use xlink:href="#DejaVuSans-36" x="95.410156"/>
      </g>
     </g>
    </g>
    <g id="xtick_5">
     <g id="line2d_9">
      <path d="M 520.016875 354.958125 
L 520.016875 22.318125 
" clip-path="url(#pc17d4a16a4)" style="fill: none; stroke: #b0b0b0; stroke-width: 0.8; stroke-linecap: square"/>
     </g>
     <g id="line2d_10">
      <g>
       <use xlink:href="#m2a7517cf4a" x="520.016875" y="354.958125" style="stroke: #000000; stroke-width: 0.8"/>
      </g>
     </g>
     <g id="text_5">
      <!-- 0.8 -->
      <g transform="translate(512.065313 369.556562) scale(0.1 -0.1)">
       <defs>
        <path id="DejaVuSans-38" d="M 2034 2216 
Q 1584 2216 1326 1975 
Q 1069 1734 1069 1313 
Q 1069 891 1326 650 
Q 1584 409 2034 409 
Q 2484 409 2743 651 
Q 3003 894 3003 1313 
Q 3003 1734 2745 1975 
Q 2488 2216 2034 2216 
z
M 1403 2484 
Q 997 2584 770 2862 
Q 544 3141 544 3541 
Q 544 4100 942 4425 
Q 1341 4750 2034 4750 
Q 2731 4750 3128 4425 
Q 3525 4100 3525 3541 
Q 3525 3141 3298 2862 
Q 3072 2584 2669 2484 
Q 3125 2378 3379 2068 
Q 3634 1759 3634 1313 
Q 3634 634 3220 271 
Q 2806 -91 2034 -91 
Q 1263 -91 848 271 
Q 434 634 434 1313 
Q 434 1759 690 2068 
Q 947 2378 1403 2484 
z
M 1172 3481 
Q 1172 3119 1398 2916 
Q 1625 2713 2034 2713 
Q 2441 2713 2670 2916 
Q 2900 3119 2900 3481 
Q 2900 3844 2670 4047 
Q 2441 4250 2034 4250 
Q 1625 4250 1398 4047 
Q 1172 3844 1172 3481 
z
" transform="scale(0.015625)"/>
       </defs>
       <use xlink:href="#DejaVuSans-30"/>
       <use xlink:href="#DejaVuSans-2e" x="63.623047"/>
       <use xlink:href="#DejaVuSans-38" x="95.410156"/>
      </g>
     </g>
    </g>
    <g id="xtick_6">
     <g id="line2d_11">
      <path d="M 631.616875 354.958125 
L 631.616875 22.318125 
" clip-path="url(#pc17d4a16a4)" style="fill: none; stroke: #b0b0b0; stroke-width: 0.8; stroke-linecap: square"/>
     </g>
     <g id="line2d_12">
      <g>
       <use xlink:href="#m2a7517cf4a" x="631.616875" y="354.958125" style="stroke: #000000; stroke-width: 0.8"/>
      </g>
     </g>
     <g id="text_6">
      <!-- 1.0 -->
      <g transform="translate(623.665313 369.556562) scale(0.1 -0.1)">
       <defs>
        <path id="DejaVuSans-31" d="M 794 531 
L 1825 531 
L 1825 4091 
L 703 3866 
L 703 4441 
L 1819 4666 
L 2450 4666 
L 2450 531 
L 3481 531 
L 3481 0 
L 794 0 
L 794 531 
z
" transform="scale(0.015625)"/>
       </defs>
       <use xlink:href="#DejaVuSans-31"/>
       <use xlink:href="#DejaVuSans-2e" x="63.623047"/>
       <use xlink:href="#DejaVuSans-30" x="95.410156"/>
      </g>
     </g>
    </g>
    <g id="text_7">
     <!-- False Positive Rate -->
     <g transform="translate(296.857188 384.754375) scale(0.12 -0.12)">
      <defs>
       <path id="DejaVuSans-46" d="M 628 4666 
L 3309 4666 
L 3309 4134 
L 1259 4134 
L 1259 2759 
L 3109 2759 
L 3109 2228 
L 1259 2228 
L 1259 0 
L 628 0 
L 628 4666 
z
" transform="scale(0.015625)"/>
       <path id="DejaVuSans-61" d="M 2194 1759 
Q 1497 1759 1228 1600 
Q 959 1441 959 1056 
Q 959 750 1161 570 
Q 1363 391 1709 391 
Q 2188 391 2477 730 
Q 2766 1069 2766 1631 
L 2766 1759 
L 2194 1759 
z
M 3341 1997 
L 3341 0 
L 2766 0 
L 2766 531 
Q 2569 213 2275 61 
Q 1981 -91 1556 -91 
Q 1019 -91 701 211 
Q 384 513 384 1019 
Q 384 1609 779 1909 
Q 1175 2209 1959 2209 
L 2766 2209 
L 2766 2266 
Q 2766 2663 2505 2880 
Q 2244 3097 1772 3097 
Q 1472 3097 1187 3025 
Q 903 2953 641 2809 
L 641 3341 
Q 956 3463 1253 3523 
Q 1550 3584 1831 3584 
Q 2591 3584 2966 3190 
Q 3341 2797 3341 1997 
z
" transform="scale(0.015625)"/>
       <path id="DejaVuSans-6c" d="M 603 4863 
L 1178 4863 
L 1178 0 
L 603 0 
L 603 4863 
z
" transform="scale(0.015625)"/>
       <path id="DejaVuSans-73" d="M 2834 3397 
L 2834 2853 
Q 2591 2978 2328 3040 
Q 2066 3103 1784 3103 
Q 1356 3103 1142 2972 
Q 928 2841 928 2578 
Q 928 2378 1081 2264 
Q 1234 2150 1697 2047 
L 1894 2003 
Q 2506 1872 2764 1633 
Q 3022 1394 3022 966 
Q 3022 478 2636 193 
Q 2250 -91 1575 -91 
Q 1294 -91 989 -36 
Q 684 19 347 128 
L 347 722 
Q 666 556 975 473 
Q 1284 391 1588 391 
Q 1994 391 2212 530 
Q 2431 669 2431 922 
Q 2431 1156 2273 1281 
Q 2116 1406 1581 1522 
L 1381 1569 
Q 847 1681 609 1914 
Q 372 2147 372 2553 
Q 372 3047 722 3315 
Q 1072 3584 1716 3584 
Q 2034 3584 2315 3537 
Q 2597 3491 2834 3397 
z
" transform="scale(0.015625)"/>
       <path id="DejaVuSans-65" d="M 3597 1894 
L 3597 1613 
L 953 1613 
Q 991 1019 1311 708 
Q 1631 397 2203 397 
Q 2534 397 2845 478 
Q 3156 559 3463 722 
L 3463 178 
Q 3153 47 2828 -22 
Q 2503 -91 2169 -91 
Q 1331 -91 842 396 
Q 353 884 353 1716 
Q 353 2575 817 3079 
Q 1281 3584 2069 3584 
Q 2775 3584 3186 3129 
Q 3597 2675 3597 1894 
z
M 3022 2063 
Q 3016 2534 2758 2815 
Q 2500 3097 2075 3097 
Q 1594 3097 1305 2825 
Q 1016 2553 972 2059 
L 3022 2063 
z
" transform="scale(0.015625)"/>
       <path id="DejaVuSans-20" transform="scale(0.015625)"/>
       <path id="DejaVuSans-50" d="M 1259 4147 
L 1259 2394 
L 2053 2394 
Q 2494 2394 2734 2622 
Q 2975 2850 2975 3272 
Q 2975 3691 2734 3919 
Q 2494 4147 2053 4147 
L 1259 4147 
z
M 628 4666 
L 2053 4666 
Q 2838 4666 3239 4311 
Q 3641 3956 3641 3272 
Q 3641 2581 3239 2228 
Q 2838 1875 2053 1875 
L 1259 1875 
L 1259 0 
L 628 0 
L 628 4666 
z
" transform="scale(0.015625)"/>
       <path id="DejaVuSans-6f" d="M 1959 3097 
Q 1497 3097 1228 2736 
Q 959 2375 959 1747 
Q 959 1119 1226 758 
Q 1494 397 1959 397 
Q 2419 397 2687 759 
Q 2956 1122 2956 1747 
Q 2956 2369 2687 2733 
Q 2419 3097 1959 3097 
z
M 1959 3584 
Q 2709 3584 3137 3096 
Q 3566 2609 3566 1747 
Q 3566 888 3137 398 
Q 2709 -91 1959 -91 
Q 1206 -91 779 398 
Q 353 888 353 1747 
Q 353 2609 779 3096 
Q 1206 3584 1959 3584 
z
" transform="scale(0.015625)"/>
       <path id="DejaVuSans-69" d="M 603 3500 
L 1178 3500 
L 1178 0 
L 603 0 
L 603 3500 
z
M 603 4863 
L 1178 4863 
L 1178 4134 
L 603 4134 
L 603 4863 
z
" transform="scale(0.015625)"/>
       <path id="DejaVuSans-74" d="M 1172 4494 
L 1172 3500 
L 2356 3500 
L 2356 3053 
L 1172 3053 
L 1172 1153 
Q 1172 725 1289 603 
Q 1406 481 1766 481 
L 2356 481 
L 2356 0 
L 1766 0 
Q 1100 0 847 248 
Q 594 497 594 1153 
L 594 3053 
L 172 3053 
L 172 3500 
L 594 3500 
L 594 4494 
L 1172 4494 
z
" transform="scale(0.015625)"/>
       <path id="DejaVuSans-76" d="M 191 3500 
L 800 3500 
L 1894 563 
L 2988 3500 
L 3597 3500 
L 2284 0 
L 1503 0 
L 191 3500 
z
" transform="scale(0.015625)"/>
       <path id="DejaVuSans-52" d="M 2841 2188 
Q 3044 2119 3236 1894 
Q 3428 1669 3622 1275 
L 4263 0 
L 3584 0 
L 2988 1197 
Q 2756 1666 2539 1819 
Q 2322 1972 1947 1972 
L 1259 1972 
L 1259 0 
L 628 0 
L 628 4666 
L 2053 4666 
Q 2853 4666 3247 4331 
Q 3641 3997 3641 3322 
Q 3641 2881 3436 2590 
Q 3231 2300 2841 2188 
z
M 1259 4147 
L 1259 2491 
L 2053 2491 
Q 2509 2491 2742 2702 
Q 2975 2913 2975 3322 
Q 2975 3731 2742 3939 
Q 2509 4147 2053 4147 
L 1259 4147 
z
" transform="scale(0.015625)"/>
      </defs>
      <use xlink:href="#DejaVuSans-46"/>
      <use xlink:href="#DejaVuSans-61" x="48.394531"/>
      <use xlink:href="#DejaVuSans-6c" x="109.673828"/>
      <use xlink:href="#DejaVuSans-73" x="137.457031"/>
      <use xlink:href="#DejaVuSans-65" x="189.556641"/>
      <use xlink:href="#DejaVuSans-20" x="251.080078"/>
      <use xlink:href="#DejaVuSans-50" x="282.867188"/>
      <use xlink:href="#DejaVuSans-6f" x="339.544922"/>
      <use xlink:href="#DejaVuSans-73" x="400.726562"/>
      <use xlink:href="#DejaVuSans-69" x="452.826172"/>
      <use xlink:href="#DejaVuSans-74" x="480.609375"/>
      <use xlink:href="#DejaVuSans-69" x="519.818359"/>
      <use xlink:href="#DejaVuSans-76" x="547.601562"/>
      <use xlink:href="#DejaVuSans-65" x="606.78125"/>
      <use xlink:href="#DejaVuSans-20" x="668.304688"/>
      <use xlink:href="#DejaVuSans-52" x="700.091797"/>
      <use xlink:href="#DejaVuSans-61" x="767.324219"/>
      <use xlink:href="#DejaVuSans-74" x="828.603516"/>
      <use xlink:href="#DejaVuSans-65" x="867.8125"/>
     </g>
    </g>
   </g>
   <g id="matplotlib.axis_2">
    <g id="ytick_1">
     <g id="line2d_13">
      <path d="M 45.716875 339.838125 
L 659.516875 339.838125 
" clip-path="url(#pc17d4a16a4)" style="fill: none; stroke: #b0b0b0; stroke-width: 0.8; stroke-linecap: square"/>
     </g>
     <g id="line2d_14">
      <defs>
       <path id="m124a9211fb" d="M 0 0 
L -3.5 0 
" style="stroke: #000000; stroke-width: 0.8"/>
      </defs>
      <g>
       <use xlink:href="#m124a9211fb" x="45.716875" y="339.838125" style="stroke: #000000; stroke-width: 0.8"/>
      </g>
     </g>
     <g id="text_8">
      <!-- 0.0 -->
      <g transform="translate(22.81375 343.637344) scale(0.1 -0.1)">
       <use xlink:href="#DejaVuSans-30"/>
       <use xlink:href="#DejaVuSans-2e" x="63.623047"/>
       <use xlink:href="#DejaVuSans-30" x="95.410156"/>
      </g>
     </g>
    </g>
    <g id="ytick_2">
     <g id="line2d_15">
      <path d="M 45.716875 279.358125 
L 659.516875 279.358125 
" clip-path="url(#pc17d4a16a4)" style="fill: none; stroke: #b0b0b0; stroke-width: 0.8; stroke-linecap: square"/>
     </g>
     <g id="line2d_16">
      <g>
       <use xlink:href="#m124a9211fb" x="45.716875" y="279.358125" style="stroke: #000000; stroke-width: 0.8"/>
      </g>
     </g>
     <g id="text_9">
      <!-- 0.2 -->
      <g transform="translate(22.81375 283.157344) scale(0.1 -0.1)">
       <use xlink:href="#DejaVuSans-30"/>
       <use xlink:href="#DejaVuSans-2e" x="63.623047"/>
       <use xlink:href="#DejaVuSans-32" x="95.410156"/>
      </g>
     </g>
    </g>
    <g id="ytick_3">
     <g id="line2d_17">
      <path d="M 45.716875 218.878125 
L 659.516875 218.878125 
" clip-path="url(#pc17d4a16a4)" style="fill: none; stroke: #b0b0b0; stroke-width: 0.8; stroke-linecap: square"/>
     </g>
     <g id="line2d_18">
      <g>
       <use xlink:href="#m124a9211fb" x="45.716875" y="218.878125" style="stroke: #000000; stroke-width: 0.8"/>
      </g>
     </g>
     <g id="text_10">
      <!-- 0.4 -->
      <g transform="translate(22.81375 222.677344) scale(0.1 -0.1)">
       <use xlink:href="#DejaVuSans-30"/>
       <use xlink:href="#DejaVuSans-2e" x="63.623047"/>
       <use xlink:href="#DejaVuSans-34" x="95.410156"/>
      </g>
     </g>
    </g>
    <g id="ytick_4">
     <g id="line2d_19">
      <path d="M 45.716875 158.398125 
L 659.516875 158.398125 
" clip-path="url(#pc17d4a16a4)" style="fill: none; stroke: #b0b0b0; stroke-width: 0.8; stroke-linecap: square"/>
     </g>
     <g id="line2d_20">
      <g>
       <use xlink:href="#m124a9211fb" x="45.716875" y="158.398125" style="stroke: #000000; stroke-width: 0.8"/>
      </g>
     </g>
     <g id="text_11">
      <!-- 0.6 -->
      <g transform="translate(22.81375 162.197344) scale(0.1 -0.1)">
       <use xlink:href="#DejaVuSans-30"/>
       <use xlink:href="#DejaVuSans-2e" x="63.623047"/>
       <use xlink:href="#DejaVuSans-36" x="95.410156"/>
      </g>
     </g>
    </g>
    <g id="ytick_5">
     <g id="line2d_21">
      <path d="M 45.716875 97.918125 
L 659.516875 97.918125 
" clip-path="url(#pc17d4a16a4)" style="fill: none; stroke: #b0b0b0; stroke-width: 0.8; stroke-linecap: square"/>
     </g>
     <g id="line2d_22">
      <g>
       <use xlink:href="#m124a9211fb" x="45.716875" y="97.918125" style="stroke: #000000; stroke-width: 0.8"/>
      </g>
     </g>
     <g id="text_12">
      <!-- 0.8 -->
      <g transform="translate(22.81375 101.717344) scale(0.1 -0.1)">
       <use xlink:href="#DejaVuSans-30"/>
       <use xlink:href="#DejaVuSans-2e" x="63.623047"/>
       <use xlink:href="#DejaVuSans-38" x="95.410156"/>
      </g>
     </g>
    </g>
    <g id="ytick_6">
     <g id="line2d_23">
      <path d="M 45.716875 37.438125 
L 659.516875 37.438125 
" clip-path="url(#pc17d4a16a4)" style="fill: none; stroke: #b0b0b0; stroke-width: 0.8; stroke-linecap: square"/>
     </g>
     <g id="line2d_24">
      <g>
       <use xlink:href="#m124a9211fb" x="45.716875" y="37.438125" style="stroke: #000000; stroke-width: 0.8"/>
      </g>
     </g>
     <g id="text_13">
      <!-- 1.0 -->
      <g transform="translate(22.81375 41.237344) scale(0.1 -0.1)">
       <use xlink:href="#DejaVuSans-31"/>
       <use xlink:href="#DejaVuSans-2e" x="63.623047"/>
       <use xlink:href="#DejaVuSans-30" x="95.410156"/>
      </g>
     </g>
    </g>
    <g id="text_14">
     <!-- True Positive Rate -->
     <g transform="translate(16.318125 242.07375) rotate(-90) scale(0.12 -0.12)">
      <defs>
       <path id="DejaVuSans-54" d="M -19 4666 
L 3928 4666 
L 3928 4134 
L 2272 4134 
L 2272 0 
L 1638 0 
L 1638 4134 
L -19 4134 
L -19 4666 
z
" transform="scale(0.015625)"/>
       <path id="DejaVuSans-72" d="M 2631 2963 
Q 2534 3019 2420 3045 
Q 2306 3072 2169 3072 
Q 1681 3072 1420 2755 
Q 1159 2438 1159 1844 
L 1159 0 
L 581 0 
L 581 3500 
L 1159 3500 
L 1159 2956 
Q 1341 3275 1631 3429 
Q 1922 3584 2338 3584 
Q 2397 3584 2469 3576 
Q 2541 3569 2628 3553 
L 2631 2963 
z
" transform="scale(0.015625)"/>
       <path id="DejaVuSans-75" d="M 544 1381 
L 544 3500 
L 1119 3500 
L 1119 1403 
Q 1119 906 1312 657 
Q 1506 409 1894 409 
Q 2359 409 2629 706 
Q 2900 1003 2900 1516 
L 2900 3500 
L 3475 3500 
L 3475 0 
L 2900 0 
L 2900 538 
Q 2691 219 2414 64 
Q 2138 -91 1772 -91 
Q 1169 -91 856 284 
Q 544 659 544 1381 
z
M 1991 3584 
L 1991 3584 
z
" transform="scale(0.015625)"/>
      </defs>
      <use xlink:href="#DejaVuSans-54"/>
      <use xlink:href="#DejaVuSans-72" x="46.333984"/>
      <use xlink:href="#DejaVuSans-75" x="87.447266"/>
      <use xlink:href="#DejaVuSans-65" x="150.826172"/>
      <use xlink:href="#DejaVuSans-20" x="212.349609"/>
      <use xlink:href="#DejaVuSans-50" x="244.136719"/>
      <use xlink:href="#DejaVuSans-6f" x="300.814453"/>
      <use xlink:href="#DejaVuSans-73" x="361.996094"/>
      <use xlink:href="#DejaVuSans-69" x="414.095703"/>
      <use xlink:href="#DejaVuSans-74" x="441.878906"/>
      <use xlink:href="#DejaVuSans-69" x="481.087891"/>
      <use xlink:href="#DejaVuSans-76" x="508.871094"/>
      <use xlink:href="#DejaVuSans-65" x="568.050781"/>
      <use xlink:href="#DejaVuSans-20" x="629.574219"/>
      <use xlink:href="#DejaVuSans-52" x="661.361328"/>
      <use xlink:href="#DejaVuSans-61" x="728.59375"/>
      <use xlink:href="#DejaVuSans-74" x="789.873047"/>
      <use xlink:href="#DejaVuSans-65" x="829.082031"/>
     </g>
    </g>
   </g>
   <g id="line2d_25">
    <path d="M 73.616875 339.838125 
L 73.691966 281.117167 
L 73.767057 281.117167 
L 73.842148 265.72555 
L 73.917238 265.72555 
L 73.992329 263.656089 
L 74.06742 263.656089 
L 74.142511 259.646508 
L 74.217602 259.646508 
L 74.292693 257.447706 
L 74.517965 257.447706 
L 74.593056 256.671658 
L 74.668147 256.671658 
L 74.743238 256.024951 
L 74.818328 256.024951 
L 74.893419 255.119562 
L 74.96851 255.119562 
L 75.043601 252.532736 
L 75.118692 252.532736 
L 75.118692 250.851299 
L 75.268873 250.851299 
L 75.343964 250.075251 
L 75.569237 250.075251 
L 75.569237 249.687227 
L 75.794509 249.687227 
L 75.794509 249.299203 
L 75.944691 249.299203 
L 76.019782 246.583035 
L 76.094873 246.324353 
L 76.169963 244.772257 
L 76.320145 244.772257 
L 76.395236 244.12555 
L 76.470327 244.12555 
L 76.545418 243.349502 
L 76.620508 243.349502 
L 76.695599 242.702796 
L 76.845781 242.702796 
L 76.920872 241.668065 
L 76.995963 241.668065 
L 77.071053 240.633335 
L 77.146144 240.633335 
L 77.146144 240.374652 
L 77.221235 240.374652 
L 77.521598 239.986628 
L 77.596689 239.081239 
L 77.67178 239.081239 
L 77.746871 237.917167 
L 78.197416 237.917167 
L 78.272507 236.365071 
L 78.422688 236.365071 
L 78.497779 234.554293 
L 78.57287 234.554293 
L 78.57287 234.424951 
L 78.647961 234.424951 
L 78.723052 234.166269 
L 79.023415 234.166269 
L 79.173597 233.907586 
L 79.173597 233.648903 
L 79.323779 233.648903 
L 79.398869 233.260879 
L 79.624142 232.872856 
L 79.699233 232.096808 
L 79.849414 232.096808 
L 79.849414 231.838125 
L 79.999596 231.579442 
L 79.999596 231.191418 
L 80.525232 230.803394 
L 80.525232 230.286029 
L 80.600323 230.286029 
L 80.975777 230.027347 
L 81.050868 228.992616 
L 81.125959 228.992616 
L 81.201049 228.216568 
L 81.27614 228.216568 
L 81.351231 227.44052 
L 81.426322 227.44052 
L 81.426322 227.311179 
L 81.501413 227.311179 
L 81.876867 226.923155 
L 81.951958 225.888424 
L 82.027049 225.888424 
L 82.027049 225.759083 
L 82.17723 225.759083 
L 82.252321 224.983035 
L 82.327412 224.983035 
L 82.402503 224.206987 
L 82.477594 224.206987 
L 82.477594 224.077646 
L 82.702866 224.077646 
L 82.777957 223.301598 
L 82.928139 223.301598 
L 82.928139 222.52555 
L 83.603956 221.878844 
L 83.679047 220.844113 
L 84.129592 220.844113 
L 84.204683 220.068065 
L 84.354865 220.068065 
L 84.354865 219.809382 
L 84.655228 219.421359 
L 84.730319 218.774652 
L 84.80541 218.774652 
L 84.8805 218.386628 
L 84.955591 218.386628 
L 85.105773 218.127945 
L 85.481227 217.481239 
L 85.556318 217.093215 
L 85.931772 216.446508 
L 85.931772 216.187826 
L 86.006863 216.187826 
L 86.232135 216.058484 
L 86.307226 215.67046 
L 86.382317 215.67046 
L 86.382317 215.411778 
L 86.532499 215.411778 
L 86.532499 215.282436 
L 86.68268 215.282436 
L 86.68268 214.765071 
L 86.757771 214.765071 
L 86.983044 214.377047 
L 87.058135 213.342317 
L 87.133225 213.342317 
L 87.208316 212.824951 
L 87.283407 212.824951 
L 87.358498 212.178245 
L 87.658861 212.178245 
L 87.733952 211.790221 
L 87.959225 211.790221 
L 88.034315 210.496808 
L 88.109406 210.496808 
L 88.184497 209.72076 
L 88.334679 209.72076 
L 88.40977 209.332736 
L 88.48486 209.332736 
L 88.48486 209.074053 
L 88.635042 209.074053 
L 88.635042 208.944712 
L 88.860315 208.944712 
L 88.860315 208.815371 
L 89.461041 208.815371 
L 89.461041 208.686029 
L 89.611223 208.686029 
L 89.686314 208.427347 
L 90.21195 208.427347 
L 90.287041 208.039323 
L 90.437222 208.039323 
L 90.512313 207.133933 
L 90.737586 207.133933 
L 90.737586 207.004592 
L 90.887767 207.004592 
L 90.887767 206.875251 
L 91.037949 206.875251 
L 91.338312 206.357885 
L 91.488494 206.357885 
L 91.563585 205.969862 
L 91.788857 205.969862 
L 91.788857 205.84052 
L 91.939039 205.84052 
L 92.01413 205.193814 
L 92.164311 205.193814 
L 92.164311 205.064472 
L 92.314493 205.064472 
L 92.314493 204.935131 
L 92.464675 204.935131 
L 92.539766 204.159083 
L 92.614856 204.159083 
L 92.765038 204.029742 
L 92.840129 203.383035 
L 92.91522 203.383035 
L 93.215583 202.86567 
L 93.365765 202.86567 
L 93.365765 202.736329 
L 93.666128 202.736329 
L 93.666128 202.477646 
L 94.041582 202.477646 
L 94.116673 202.089622 
L 94.266855 202.089622 
L 94.492127 201.830939 
L 94.567218 201.830939 
L 94.642309 201.442915 
L 94.7174 201.442915 
L 94.792491 200.666868 
L 94.867581 200.666868 
L 94.867581 200.537526 
L 95.167945 200.537526 
L 95.243036 200.149502 
L 95.393217 200.149502 
L 95.393217 199.761478 
L 95.693581 199.761478 
L 95.693581 199.502796 
L 96.144126 199.114772 
L 96.144126 198.856089 
L 96.219217 198.856089 
L 96.444489 198.856089 
L 96.444489 198.597406 
L 96.594671 198.597406 
L 96.594671 198.338724 
L 96.819943 198.338724 
L 96.819943 198.209382 
L 96.970125 198.209382 
L 97.045216 197.821359 
L 97.120307 197.821359 
L 97.120307 197.433335 
L 97.645942 197.433335 
L 97.721033 196.657287 
L 97.796124 196.657287 
L 97.796124 196.527945 
L 97.946306 196.527945 
L 97.946306 196.398604 
L 98.096487 196.398604 
L 98.171578 196.01058 
L 98.246669 195.881239 
L 98.396851 195.881239 
L 98.396851 195.493215 
L 98.622123 194.587826 
L 99.147759 193.553095 
L 99.373032 193.553095 
L 99.373032 193.165071 
L 99.523213 193.165071 
L 99.748486 192.647706 
L 100.048849 192.647706 
L 100.574485 191.742317 
L 100.649576 190.836927 
L 100.724667 190.836927 
L 102.151393 189.284832 
L 102.301574 189.284832 
L 102.301574 189.15549 
L 102.902301 189.15549 
L 102.902301 188.896808 
L 103.202664 188.508784 
L 103.202664 187.862077 
L 103.427937 187.603394 
L 103.503028 187.344712 
L 103.578118 187.215371 
L 103.878482 187.215371 
L 103.878482 186.827347 
L 103.953573 186.827347 
L 104.178845 186.568664 
L 104.253936 186.568664 
L 104.253936 185.921957 
L 104.554299 185.921957 
L 104.62939 185.016568 
L 104.704481 185.016568 
L 104.704481 184.757885 
L 105.079935 184.757885 
L 105.155026 184.369862 
L 105.380298 184.369862 
L 105.380298 184.111179 
L 105.53048 184.111179 
L 105.605571 183.852496 
L 105.680662 183.852496 
L 105.680662 183.723155 
L 105.981025 183.723155 
L 106.131207 183.593814 
L 106.131207 183.335131 
L 106.281389 183.335131 
L 106.356479 182.817766 
L 106.43157 182.817766 
L 106.43157 182.688424 
L 107.407751 181.912376 
L 107.482842 181.006987 
L 107.557933 181.006987 
L 107.557933 180.877646 
L 107.708114 180.877646 
L 107.708114 180.618963 
L 107.783205 180.618963 
L 108.083569 180.618963 
L 108.383932 179.972257 
L 108.459023 179.713574 
L 108.609204 179.713574 
L 108.609204 179.584233 
L 108.834477 179.584233 
L 108.834477 179.454891 
L 108.984659 179.454891 
L 109.059749 179.066868 
L 109.13484 179.066868 
L 109.209931 178.937526 
L 109.810658 178.937526 
L 109.810658 178.549502 
L 110.111021 178.549502 
L 110.186112 178.29082 
L 110.411384 178.29082 
L 110.411384 178.161478 
L 110.561566 178.161478 
L 110.636657 177.644113 
L 110.711748 177.644113 
L 110.786839 177.38543 
L 110.86193 177.38543 
L 111.087202 176.997406 
L 111.087202 176.609382 
L 111.312475 176.609382 
L 111.312475 176.480041 
L 112.213565 176.480041 
L 112.213565 175.962676 
L 112.363746 175.962676 
L 112.438837 175.703993 
L 112.513928 175.703993 
L 112.513928 175.445311 
L 112.814291 175.445311 
L 112.814291 174.798604 
L 113.114655 174.798604 
L 113.114655 174.281239 
L 113.189745 174.281239 
L 113.264836 174.151897 
L 113.264836 173.763874 
L 113.715381 173.763874 
L 113.790472 173.505191 
L 113.865563 173.505191 
L 113.865563 173.117167 
L 114.090835 173.117167 
L 114.165926 172.858484 
L 114.241017 172.858484 
L 114.316108 172.599802 
L 114.391199 172.599802 
L 114.391199 172.341119 
L 114.54138 172.341119 
L 114.616471 172.082436 
L 114.841744 172.082436 
L 114.841744 171.953095 
L 115.217198 171.953095 
L 115.217198 171.823754 
L 115.292289 171.823754 
L 115.517561 171.823754 
L 115.592652 171.565071 
L 115.742834 171.565071 
L 115.817925 171.306388 
L 116.118288 171.306388 
L 116.118288 171.047706 
L 116.26847 171.047706 
L 116.343561 170.789023 
L 116.418651 170.789023 
L 116.493742 170.530341 
L 116.794106 170.530341 
L 116.794106 170.271658 
L 116.944287 170.271658 
L 116.944287 169.624951 
L 117.16956 169.624951 
L 117.16956 169.49561 
L 117.319741 169.49561 
L 117.319741 169.107586 
L 117.469923 169.107586 
L 117.469923 168.978245 
L 117.620105 168.978245 
L 117.620105 168.848903 
L 118.145741 168.848903 
L 118.145741 168.719562 
L 118.295922 168.719562 
L 118.295922 168.590221 
L 118.521195 168.590221 
L 118.521195 168.331538 
L 118.746467 168.331538 
L 118.746467 168.202197 
L 118.896649 168.202197 
L 118.896649 168.072856 
L 119.272103 168.072856 
L 119.272103 167.814173 
L 119.797739 167.814173 
L 119.797739 167.684832 
L 119.947921 167.684832 
L 120.023011 166.779442 
L 120.323375 166.779442 
L 120.323375 166.391418 
L 120.473556 166.391418 
L 120.548647 166.132736 
L 120.698829 166.132736 
L 120.77392 165.615371 
L 121.074283 165.615371 
L 121.149374 165.098005 
L 121.224465 165.098005 
L 121.224465 164.968664 
L 121.449737 164.968664 
L 121.449737 164.839323 
L 121.599919 164.839323 
L 121.599919 164.58064 
L 121.975373 164.58064 
L 121.975373 164.321957 
L 122.350827 164.321957 
L 122.350827 164.192616 
L 122.651191 164.192616 
L 122.801372 164.063275 
L 123.026645 164.063275 
L 123.026645 163.933933 
L 123.176827 163.933933 
L 123.176827 163.804592 
L 123.402099 163.804592 
L 123.402099 163.157885 
L 123.552281 163.157885 
L 123.552281 163.028544 
L 123.627372 163.028544 
L 123.927735 163.028544 
L 124.002826 162.769862 
L 124.303189 162.769862 
L 124.37828 161.864472 
L 124.603552 161.864472 
L 124.678643 161.088424 
L 125.054097 161.088424 
L 125.054097 160.959083 
L 125.354461 160.959083 
L 125.354461 160.829742 
L 125.805006 160.829742 
L 125.880097 160.7004 
L 126.255551 160.7004 
L 126.330642 160.312376 
L 126.480823 160.312376 
L 126.480823 160.183035 
L 126.631005 160.183035 
L 126.706096 159.924353 
L 126.931368 159.924353 
L 127.006459 159.66567 
L 127.381913 159.66567 
L 127.381913 159.536329 
L 127.457004 159.536329 
L 127.682277 159.536329 
L 127.682277 159.277646 
L 127.832458 159.277646 
L 127.832458 159.148305 
L 128.132822 159.148305 
L 128.132822 158.889622 
L 128.207913 158.889622 
L 128.433185 158.630939 
L 128.658458 158.630939 
L 128.658458 158.501598 
L 129.109003 158.501598 
L 129.109003 158.242915 
L 129.409366 158.242915 
L 129.409366 157.984233 
L 129.559548 157.984233 
L 129.634638 157.72555 
L 129.709729 157.72555 
L 129.78482 157.208185 
L 129.859911 157.208185 
L 129.859911 156.69082 
L 130.160274 156.69082 
L 130.160274 156.561478 
L 130.610819 156.173454 
L 130.68591 155.78543 
L 131.061364 155.78543 
L 131.136455 155.268065 
L 131.286637 155.268065 
L 131.286637 155.138724 
L 131.436818 155.138724 
L 131.587 154.880041 
L 131.737182 154.880041 
L 131.737182 154.7507 
L 131.962454 154.7507 
L 131.962454 154.621359 
L 132.187727 154.621359 
L 132.262818 154.233335 
L 132.48809 154.233335 
L 132.48809 153.974652 
L 132.638272 153.974652 
L 132.638272 153.845311 
L 132.713363 153.845311 
L 132.788454 153.715969 
L 133.163908 153.715969 
L 133.238999 153.327945 
L 133.314089 153.327945 
L 133.38918 153.069263 
L 133.464271 152.939921 
L 133.614453 152.939921 
L 133.689544 152.681239 
L 133.764634 152.551897 
L 133.839725 152.163874 
L 134.064998 152.163874 
L 134.140089 152.034532 
L 134.29027 152.034532 
L 134.29027 151.905191 
L 134.440452 151.905191 
L 134.440452 151.77585 
L 134.665724 151.77585 
L 134.665724 151.646508 
L 134.815906 151.646508 
L 134.890997 151.387826 
L 135.566814 151.387826 
L 135.566814 151.129143 
L 136.167541 151.129143 
L 136.242632 150.87046 
L 136.768268 150.87046 
L 136.768268 150.741119 
L 136.99354 150.741119 
L 137.068631 150.353095 
L 137.218813 150.353095 
L 137.293904 150.094412 
L 137.368994 149.965071 
L 137.594267 149.965071 
L 137.744449 149.83573 
L 138.044812 149.83573 
L 138.044812 149.706388 
L 139.171175 148.930341 
L 139.246265 148.412975 
L 139.471538 148.412975 
L 139.546629 148.024951 
L 140.222446 148.024951 
L 140.222446 147.89561 
L 140.297537 147.89561 
L 140.5979 147.507586 
L 140.898264 147.507586 
L 140.973355 146.990221 
L 141.048445 146.990221 
L 141.048445 146.860879 
L 141.874445 146.860879 
L 141.949535 145.95549 
L 142.174808 145.95549 
L 142.174808 145.696808 
L 142.550262 145.696808 
L 142.550262 145.567466 
L 142.925716 145.567466 
L 142.925716 145.438125 
L 143.075898 145.438125 
L 143.075898 145.308784 
L 143.22608 145.308784 
L 143.526443 144.92076 
L 143.676625 144.92076 
L 143.751716 144.791418 
L 143.826806 144.403394 
L 144.052079 144.403394 
L 144.12717 144.274053 
L 144.652806 144.274053 
L 144.652806 144.015371 
L 144.727896 144.015371 
L 144.878078 143.756688 
L 145.328623 143.756688 
L 145.328623 143.627347 
L 145.478805 143.627347 
L 145.553896 143.498005 
L 145.704077 143.498005 
L 145.779168 143.239323 
L 145.854259 143.239323 
L 146.004441 142.851299 
L 146.004441 142.721957 
L 146.379895 142.721957 
L 146.454986 142.333933 
L 146.530076 142.333933 
L 146.605167 142.075251 
L 146.680258 142.075251 
L 146.755349 141.816568 
L 146.905531 141.816568 
L 146.980621 141.299203 
L 147.130803 141.299203 
L 147.356076 141.04052 
L 147.356076 140.781838 
L 147.506257 140.523155 
L 147.956802 140.523155 
L 148.031893 140.135131 
L 148.257166 140.00579 
L 148.257166 139.617766 
L 148.407347 139.617766 
L 148.407347 139.359083 
L 148.557529 139.359083 
L 148.63262 139.1004 
L 149.158256 139.1004 
L 149.158256 138.841718 
L 149.233347 138.841718 
L 149.458619 138.841718 
L 149.458619 138.712376 
L 150.209527 138.712376 
L 150.284618 138.324353 
L 150.660072 138.324353 
L 150.660072 138.195011 
L 151.110617 138.195011 
L 151.185708 137.936329 
L 152.086798 137.548305 
L 152.086798 137.289622 
L 152.312071 137.289622 
L 152.312071 137.160281 
L 152.387162 137.160281 
L 152.462252 137.030939 
L 152.762616 137.030939 
L 152.912797 136.772257 
L 152.912797 136.513574 
L 153.513524 136.513574 
L 153.513524 136.384233 
L 153.813888 136.384233 
L 153.813888 136.254891 
L 154.339523 136.254891 
L 154.339523 136.12555 
L 154.639887 136.12555 
L 154.714978 135.866868 
L 155.015341 135.866868 
L 155.015341 135.737526 
L 155.165523 135.737526 
L 155.165523 135.608185 
L 155.616068 135.608185 
L 155.691158 135.349502 
L 156.291885 135.349502 
L 156.291885 135.220161 
L 156.366976 135.220161 
L 156.517158 135.09082 
L 156.967703 135.09082 
L 156.967703 134.961478 
L 157.418248 134.961478 
L 157.493338 134.573454 
L 157.718611 134.573454 
L 157.718611 134.444113 
L 157.943883 134.444113 
L 158.094065 134.18543 
L 158.319338 134.18543 
L 158.394428 134.056089 
L 158.619701 134.056089 
L 158.619701 133.926748 
L 159.145337 133.926748 
L 159.220428 133.538724 
L 159.370609 133.538724 
L 159.4457 133.1507 
L 159.595882 133.1507 
L 159.896245 132.633335 
L 159.896245 132.374652 
L 160.647154 131.857287 
L 160.797335 131.857287 
L 160.797335 131.469263 
L 161.172789 131.469263 
L 161.172789 131.339921 
L 161.473153 131.339921 
L 161.473153 131.21058 
L 161.698425 131.21058 
L 161.698425 131.081239 
L 162.073879 131.081239 
L 162.073879 130.951897 
L 163.200242 130.951897 
L 163.200242 130.693215 
L 163.95115 130.693215 
L 163.95115 130.563874 
L 164.251514 130.563874 
L 164.251514 130.434532 
L 164.326605 130.434532 
L 164.476786 130.046508 
L 164.85224 130.046508 
L 164.85224 129.917167 
L 164.927331 129.917167 
L 165.002422 129.787826 
L 165.152604 129.787826 
L 165.152604 129.658484 
L 166.278966 129.658484 
L 166.278966 129.27046 
L 166.729511 129.27046 
L 166.729511 129.141119 
L 167.330238 129.141119 
L 167.330238 128.882436 
L 167.630601 128.882436 
L 167.630601 128.753095 
L 168.081146 128.753095 
L 168.156237 128.106388 
L 168.38151 128.106388 
L 168.38151 127.977047 
L 168.681873 127.977047 
L 168.681873 127.847706 
L 168.982236 127.847706 
L 168.982236 127.459682 
L 169.132418 127.459682 
L 169.132418 127.330341 
L 169.207509 127.330341 
L 169.432781 127.330341 
L 169.432781 127.200999 
L 170.108599 127.200999 
L 170.108599 127.071658 
L 170.408962 127.071658 
L 170.408962 126.942317 
L 170.784416 126.942317 
L 170.859507 126.554293 
L 171.009689 126.554293 
L 171.009689 126.29561 
L 171.460234 126.29561 
L 171.460234 126.036927 
L 171.685506 126.036927 
L 171.685506 125.907586 
L 171.910779 125.907586 
L 171.910779 125.778245 
L 172.511506 125.778245 
L 172.511506 125.390221 
L 172.661687 125.390221 
L 172.661687 125.131538 
L 173.187323 125.131538 
L 173.262414 124.872856 
L 173.562777 124.872856 
L 173.637868 124.484832 
L 173.78805 124.484832 
L 173.78805 124.35549 
L 173.938231 124.35549 
L 173.938231 124.226149 
L 174.088413 124.226149 
L 174.088413 124.096808 
L 174.313686 124.096808 
L 174.388776 123.838125 
L 174.614049 123.838125 
L 174.68914 123.32076 
L 174.839322 123.32076 
L 174.839322 123.191418 
L 175.064594 123.191418 
L 175.064594 122.674053 
L 175.139685 122.674053 
L 175.440048 122.415371 
L 175.665321 122.415371 
L 175.665321 122.156688 
L 175.815502 122.156688 
L 175.815502 121.898005 
L 176.040775 121.898005 
L 176.040775 121.768664 
L 176.266047 121.768664 
L 176.341138 121.251299 
L 176.941865 121.251299 
L 176.941865 121.121957 
L 177.167137 120.992616 
L 177.39241 120.992616 
L 177.39241 120.863275 
L 177.842955 120.863275 
L 177.918046 120.475251 
L 178.068227 120.475251 
L 178.068227 120.345909 
L 178.218409 120.345909 
L 178.744045 119.957885 
L 179.044408 119.957885 
L 179.044408 119.828544 
L 179.419862 119.828544 
L 179.570044 119.44052 
L 179.720226 119.44052 
L 179.720226 119.311179 
L 179.870407 119.311179 
L 179.870407 119.052496 
L 180.020589 119.052496 
L 180.09568 118.535131 
L 180.396043 118.535131 
L 180.396043 118.40579 
L 180.546225 118.40579 
L 180.546225 118.276448 
L 180.621316 118.276448 
L 180.846588 118.147107 
L 181.222043 118.147107 
L 181.297133 117.888424 
L 181.522406 117.888424 
L 181.522406 117.759083 
L 181.747678 117.759083 
L 181.747678 117.241718 
L 182.573678 117.241718 
L 182.648768 116.983035 
L 182.79895 116.983035 
L 182.79895 116.853694 
L 182.874041 116.853694 
L 183.174404 116.853694 
L 183.174404 116.724353 
L 183.775131 116.724353 
L 183.850222 116.595011 
L 184.075494 116.595011 
L 184.60113 116.206987 
L 184.826403 116.206987 
L 184.826403 116.077646 
L 186.328219 116.077646 
L 187.229309 115.560281 
L 187.229309 115.430939 
L 187.379491 115.430939 
L 187.379491 115.301598 
L 187.830036 115.301598 
L 187.830036 114.913574 
L 188.280581 114.913574 
L 188.505854 114.52555 
L 188.731126 114.52555 
L 188.731126 114.396209 
L 188.806217 114.396209 
L 189.932579 113.878844 
L 189.932579 113.749502 
L 190.157852 113.749502 
L 190.157852 113.620161 
L 190.232943 113.620161 
L 190.308034 113.49082 
L 190.758579 113.102796 
L 191.209124 113.102796 
L 191.209124 112.844113 
L 191.359305 112.844113 
L 191.80985 112.326748 
L 192.485668 112.326748 
L 192.485668 112.197406 
L 192.63585 112.197406 
L 192.71094 111.809382 
L 192.861122 111.809382 
L 193.086395 111.5507 
L 193.61203 111.5507 
L 194.663302 110.774652 
L 194.963665 110.774652 
L 194.963665 110.645311 
L 195.489301 110.645311 
L 195.489301 110.386628 
L 195.714574 110.386628 
L 195.714574 110.257287 
L 196.165119 110.257287 
L 196.24021 110.127945 
L 196.540573 110.127945 
L 196.540573 109.998604 
L 196.615664 109.998604 
L 196.765846 109.998604 
L 196.765846 109.869263 
L 197.1413 109.869263 
L 197.967299 109.351897 
L 198.793298 109.351897 
L 198.868389 108.963874 
L 199.093661 108.963874 
L 199.093661 108.834532 
L 199.243843 108.834532 
L 199.243843 108.705191 
L 199.919661 108.705191 
L 199.919661 108.57585 
L 200.445296 108.57585 
L 200.445296 108.446508 
L 200.595478 108.446508 
L 200.595478 108.317167 
L 200.970932 108.317167 
L 200.970932 108.187826 
L 201.271296 108.187826 
L 201.271296 108.058484 
L 202.022204 108.058484 
L 202.097295 107.929143 
L 202.923294 107.282436 
L 203.44893 107.282436 
L 203.44893 107.153095 
L 203.524021 107.153095 
L 204.049657 107.023754 
L 204.124747 106.63573 
L 204.425111 106.63573 
L 204.425111 106.118365 
L 204.500202 106.118365 
L 204.800565 106.118365 
L 204.800565 105.989023 
L 205.25111 105.730341 
L 205.326201 105.730341 
L 205.326201 105.600999 
L 205.551473 105.600999 
L 205.551473 105.471658 
L 205.851837 105.342317 
L 205.851837 105.212975 
L 206.1522 105.212975 
L 206.1522 105.083634 
L 206.377472 105.083634 
L 206.677836 104.69561 
L 206.828018 104.69561 
L 206.903108 104.566269 
L 207.278563 104.566269 
L 207.278563 104.436927 
L 207.879289 104.436927 
L 207.879289 104.307586 
L 209.005652 104.307586 
L 209.306015 104.048903 
L 209.381106 103.272856 
L 209.981833 103.272856 
L 209.981833 102.884832 
L 210.207105 102.884832 
L 210.432378 102.75549 
L 210.432378 102.626149 
L 211.708922 102.626149 
L 211.784013 102.367466 
L 212.384739 102.367466 
L 212.45983 102.108784 
L 212.760194 102.108784 
L 212.760194 101.979442 
L 212.910375 101.979442 
L 212.985466 101.72076 
L 213.135648 101.72076 
L 213.135648 101.462077 
L 213.511102 101.203394 
L 213.586193 100.944712 
L 213.811465 100.944712 
L 213.811465 100.815371 
L 214.186919 100.815371 
L 214.337101 100.686029 
L 214.337101 100.298005 
L 214.412192 100.298005 
L 214.787646 99.78064 
L 215.012919 99.78064 
L 215.012919 99.651299 
L 215.463464 99.651299 
L 215.463464 99.521957 
L 216.214372 99.521957 
L 216.214372 99.392616 
L 216.289463 99.392616 
L 216.740008 99.392616 
L 217.641098 98.875251 
L 217.941461 98.875251 
L 217.941461 98.745909 
L 218.69237 98.745909 
L 218.76746 98.616568 
L 218.76746 98.357885 
L 218.917642 98.357885 
L 218.917642 98.228544 
L 219.142915 97.581838 
L 219.443278 97.193814 
L 219.968914 97.193814 
L 219.968914 97.064472 
L 220.269277 97.064472 
L 220.419459 96.935131 
L 220.644731 96.935131 
L 220.870004 96.80579 
L 220.870004 96.676448 
L 220.945095 96.676448 
L 221.095276 96.676448 
L 221.245458 96.417766 
L 221.545821 96.417766 
L 221.620912 96.288424 
L 222.37182 96.288424 
L 222.446911 96.029742 
L 223.047638 96.029742 
L 223.19782 95.9004 
L 223.573274 95.9004 
L 223.573274 95.771059 
L 223.723456 95.771059 
L 224.849818 94.86567 
L 225.225272 94.86567 
L 225.225272 94.736329 
L 225.525636 94.736329 
L 225.525636 94.606987 
L 225.600726 94.606987 
L 225.825999 94.606987 
L 225.90109 94.477646 
L 226.727089 94.477646 
L 227.027452 94.089622 
L 227.177634 94.089622 
L 227.177634 93.960281 
L 227.252725 93.960281 
L 227.853452 93.960281 
L 228.153815 93.701598 
L 229.205087 93.313574 
L 231.382721 93.313574 
L 231.758175 92.92555 
L 231.758175 92.796209 
L 232.20872 92.796209 
L 232.283811 92.666868 
L 232.509083 92.666868 
L 232.509083 92.408185 
L 232.584174 92.408185 
L 233.184901 92.149502 
L 233.410173 91.761478 
L 233.710537 91.761478 
L 233.785628 91.502796 
L 234.461445 91.502796 
L 234.536536 91.244113 
L 234.686718 91.244113 
L 234.686718 90.98543 
L 235.137263 90.98543 
L 235.137263 90.856089 
L 235.212353 90.856089 
L 235.287444 90.726748 
L 236.338716 90.726748 
L 236.338716 90.597406 
L 236.789261 90.597406 
L 236.864352 90.080041 
L 237.389988 90.080041 
L 237.465078 89.9507 
L 237.990714 89.9507 
L 238.140896 89.562676 
L 241.369802 87.881239 
L 241.369802 87.751897 
L 241.670165 87.751897 
L 243.8478 87.493215 
L 243.8478 87.363874 
L 244.223254 86.97585 
L 244.673799 86.97585 
L 244.673799 86.846508 
L 245.049253 86.846508 
L 245.574889 86.587826 
L 246.475979 86.199802 
L 246.776342 86.199802 
L 247.226887 86.07046 
L 247.226887 85.941119 
L 247.52725 85.941119 
L 249.104158 84.777047 
L 250.380702 84.777047 
L 250.605975 84.389023 
L 250.906338 84.259682 
L 251.356883 84.259682 
L 252.107791 84.000999 
L 252.408155 84.000999 
L 252.8587 83.483634 
L 254.811062 83.483634 
L 254.811062 83.354293 
L 254.886152 83.354293 
L 255.411788 83.09561 
L 255.486879 83.09561 
L 255.56197 82.836927 
L 255.637061 82.836927 
L 255.637061 82.707586 
L 255.787242 82.707586 
L 256.012515 82.448903 
L 256.312878 82.319562 
L 256.538151 82.319562 
L 257.063787 82.190221 
L 257.063787 82.060879 
L 257.138877 82.060879 
L 257.439241 81.931538 
L 257.739604 81.931538 
L 259.316512 80.896808 
L 260.292693 80.896808 
L 260.292693 80.767466 
L 260.668147 80.767466 
L 260.893419 80.508784 
L 261.118692 80.508784 
L 261.343964 80.379442 
L 264.197416 78.568664 
L 265.47396 78.568664 
L 267.576504 78.18064 
L 267.576504 78.051299 
L 268.327412 77.792616 
L 268.777957 77.792616 
L 268.777957 77.663275 
L 269.528865 77.533933 
L 269.528865 77.404592 
L 269.603956 77.404592 
L 270.054501 77.145909 
L 270.204683 77.145909 
L 270.429955 77.016568 
L 271.030682 77.016568 
L 271.030682 76.887227 
L 271.180864 76.887227 
L 271.180864 76.757885 
L 271.331045 76.757885 
L 271.631409 76.628544 
L 272.60759 76.628544 
L 272.68268 76.24052 
L 272.832862 76.24052 
L 272.832862 76.111179 
L 273.058135 76.111179 
L 273.058135 75.981838 
L 273.733952 75.981838 
L 273.733952 75.723155 
L 274.635042 75.464472 
L 275.010496 75.464472 
L 275.010496 75.335131 
L 275.085587 75.335131 
L 275.536132 75.335131 
L 275.536132 75.20579 
L 275.911586 75.20579 
L 277.263221 75.076448 
L 277.338312 74.688424 
L 277.638676 74.688424 
L 278.539766 74.429742 
L 278.539766 74.3004 
L 279.666128 74.3004 
L 280.191764 74.171059 
L 280.191764 73.912376 
L 280.7174 73.912376 
L 280.7174 73.653694 
L 281.167945 73.653694 
L 281.167945 73.395011 
L 281.243036 73.395011 
L 282.219217 73.395011 
L 282.219217 73.26567 
L 282.594671 73.26567 
L 282.669762 73.136329 
L 282.895034 73.136329 
L 282.895034 73.006987 
L 283.270488 73.006987 
L 283.495761 72.877646 
L 283.645942 72.877646 
L 283.721033 72.101598 
L 283.796124 72.101598 
L 283.796124 71.842915 
L 283.946306 71.842915 
L 284.32176 71.713574 
L 284.547032 71.713574 
L 284.622123 71.32555 
L 285.523213 71.32555 
L 285.523213 71.196209 
L 286.424303 71.196209 
L 286.424303 70.937526 
L 287.550666 70.937526 
L 287.700848 70.678844 
L 289.503028 70.678844 
L 289.7283 70.549502 
L 290.028663 70.549502 
L 290.404118 70.161478 
L 291.380298 69.902796 
L 294.158659 69.902796 
L 294.23375 69.514772 
L 294.383932 69.514772 
L 294.383932 69.38543 
L 295.285022 69.38543 
L 295.360113 68.997406 
L 295.735567 68.997406 
L 295.810658 68.738724 
L 296.86193 68.738724 
L 296.86193 68.609382 
L 297.162293 68.609382 
L 297.162293 68.480041 
L 297.237384 68.480041 
L 297.687929 68.092017 
L 298.363746 68.092017 
L 298.363746 67.962676 
L 298.589019 67.962676 
L 298.589019 67.833335 
L 298.66411 67.833335 
L 298.889382 67.833335 
L 298.889382 67.703993 
L 299.039564 67.703993 
L 299.039564 67.574652 
L 299.5652 67.574652 
L 299.64029 67.186628 
L 300.616471 67.186628 
L 300.616471 67.057287 
L 301.44247 67.057287 
L 301.44247 66.927945 
L 301.817925 66.927945 
L 301.817925 66.798604 
L 303.16956 66.798604 
L 303.394832 66.669263 
L 303.695196 66.669263 
L 303.845377 66.539921 
L 305.046831 66.539921 
L 305.121921 66.41058 
L 305.572466 66.41058 
L 305.797739 66.281239 
L 306.473556 66.281239 
L 306.473556 66.151897 
L 306.924101 66.151897 
L 306.924101 66.022556 
L 307.374646 66.022556 
L 307.374646 65.893215 
L 307.825192 65.893215 
L 307.825192 65.634532 
L 308.425918 65.634532 
L 308.651191 65.37585 
L 309.251917 65.37585 
L 309.251917 65.246508 
L 310.528462 65.246508 
L 310.678643 64.987826 
L 310.903916 64.987826 
L 310.903916 64.729143 
L 311.654824 64.729143 
L 312.030278 64.599802 
L 312.105369 64.599802 
L 312.255551 64.47046 
L 312.405732 64.47046 
L 312.931368 64.211778 
L 314.057731 64.211778 
L 314.057731 64.082436 
L 314.658458 64.082436 
L 314.658458 63.953095 
L 315.334275 63.953095 
L 315.334275 63.694412 
L 316.010093 63.694412 
L 316.010093 63.565071 
L 316.160274 63.565071 
L 316.385547 63.43573 
L 316.68591 63.43573 
L 316.68591 63.306388 
L 317.361728 63.306388 
L 317.436818 62.789023 
L 317.737182 62.789023 
L 317.737182 62.659682 
L 318.337909 62.659682 
L 318.337909 62.530341 
L 318.412999 62.530341 
L 318.713363 62.530341 
L 318.863544 62.400999 
L 319.464271 62.400999 
L 319.839725 62.271658 
L 320.365361 62.271658 
L 320.365361 62.142317 
L 320.590634 62.142317 
L 320.890997 62.012975 
L 321.341542 62.012975 
L 321.341542 61.883634 
L 321.491724 61.883634 
L 321.566814 61.49561 
L 321.641905 61.49561 
L 321.641905 61.366269 
L 322.467904 61.366269 
L 322.618086 61.236927 
L 322.768268 61.236927 
L 322.918449 61.107586 
L 323.969721 61.107586 
L 323.969721 60.978245 
L 324.119903 60.978245 
L 324.194994 60.848903 
L 324.79572 60.848903 
L 325.62172 60.590221 
L 325.846992 60.590221 
L 326.372628 60.331538 
L 326.672991 60.331538 
L 326.748082 60.202197 
L 326.898264 60.202197 
L 326.898264 60.072856 
L 327.724263 60.072856 
L 328.099717 59.943514 
L 329.22608 59.943514 
L 329.301171 59.684832 
L 330.427533 59.684832 
L 330.502624 59.55549 
L 331.103351 59.55549 
L 331.328623 59.426149 
L 332.079531 59.426149 
L 332.079531 59.296808 
L 332.379895 59.296808 
L 332.379895 59.167466 
L 332.605167 59.167466 
L 332.755349 59.038125 
L 333.205894 59.038125 
L 333.205894 58.908784 
L 334.182075 58.908784 
L 334.182075 58.779442 
L 336.059346 58.391418 
L 336.810254 58.391418 
L 336.810254 58.262077 
L 336.885345 58.262077 
L 337.636253 58.262077 
L 337.786435 58.132736 
L 339.213161 58.132736 
L 339.213161 57.874053 
L 339.964069 57.874053 
L 339.964069 57.615371 
L 340.639887 57.615371 
L 340.639887 57.486029 
L 340.865159 57.486029 
L 340.94025 57.356688 
L 342.066613 57.356688 
L 342.066613 57.227347 
L 342.141703 57.227347 
L 342.366976 57.227347 
L 342.366976 57.098005 
L 342.817521 57.098005 
L 342.967703 56.968664 
L 345.4457 56.968664 
L 345.595882 56.839323 
L 346.046427 56.839323 
L 346.046427 56.709981 
L 346.647154 56.709981 
L 346.722244 56.58064 
L 347.623334 56.58064 
L 347.623334 56.451299 
L 349.725878 56.451299 
L 350.476786 56.192616 
L 351.67824 55.933933 
L 351.67824 55.804592 
L 353.855874 55.804592 
L 354.006055 55.545909 
L 354.982236 55.545909 
L 355.132418 55.416568 
L 355.658054 55.416568 
L 355.733145 55.287227 
L 356.18369 55.287227 
L 356.18369 55.157885 
L 356.258781 55.157885 
L 356.559144 55.157885 
L 356.634235 55.028544 
L 357.535325 55.028544 
L 357.535325 54.899203 
L 361.214776 54.899203 
L 361.214776 54.769862 
L 361.965684 54.769862 
L 361.965684 54.64052 
L 362.941865 54.64052 
L 362.941865 54.511179 
L 363.918046 54.511179 
L 363.918046 54.381838 
L 364.894227 54.381838 
L 365.044408 54.252496 
L 366.170771 54.252496 
L 366.245862 53.993814 
L 366.396043 53.993814 
L 366.396043 53.864472 
L 367.297133 53.864472 
L 367.297133 53.735131 
L 367.672588 53.735131 
L 367.672588 53.60579 
L 367.822769 53.60579 
L 367.822769 53.476448 
L 368.423496 53.476448 
L 368.423496 53.347107 
L 368.498587 53.347107 
L 369.775131 53.347107 
L 369.775131 53.217766 
L 371.126766 53.217766 
L 371.126766 53.088424 
L 371.276948 53.088424 
L 371.276948 52.829742 
L 371.652402 52.829742 
L 371.652402 52.7004 
L 371.727493 52.7004 
L 372.628583 52.7004 
L 372.703674 52.441718 
L 372.778764 52.441718 
L 372.778764 52.312376 
L 373.454582 52.312376 
L 373.754945 51.924353 
L 374.130399 51.924353 
L 374.130399 51.66567 
L 374.505854 51.66567 
L 374.505854 51.536329 
L 374.580944 51.536329 
L 375.256762 51.536329 
L 375.331853 51.277646 
L 376.83367 51.277646 
L 376.983851 51.148305 
L 377.584578 51.148305 
L 377.584578 51.018963 
L 380.287848 51.018963 
L 380.362939 50.889622 
L 381.41421 50.889622 
L 381.489301 50.760281 
L 382.540573 50.760281 
L 382.540573 50.630939 
L 383.1413 50.630939 
L 383.366572 50.372257 
L 383.817117 50.372257 
L 383.817117 50.242915 
L 383.892208 50.242915 
L 385.769479 50.242915 
L 385.994751 50.113574 
L 388.022204 50.113574 
L 388.097295 49.854891 
L 388.322567 49.854891 
L 388.622931 49.72555 
L 388.773112 49.72555 
L 388.773112 49.596209 
L 389.373839 49.596209 
L 389.373839 49.466868 
L 389.974566 49.466868 
L 390.049657 49.337526 
L 391.100928 49.337526 
L 391.25111 49.208185 
L 391.626564 49.208185 
L 391.626564 49.078844 
L 392.002018 49.078844 
L 392.077109 48.949502 
L 393.05329 48.949502 
L 393.05329 48.820161 
L 394.104562 48.820161 
L 394.179653 48.69082 
L 394.930561 48.69082 
L 395.080743 48.561478 
L 397.108195 48.561478 
L 397.108195 48.432137 
L 399.135648 48.432137 
L 399.135648 48.302796 
L 399.661284 48.302796 
L 399.661284 48.173454 
L 400.487283 48.173454 
L 400.487283 48.044113 
L 400.937828 48.044113 
L 401.088009 47.914772 
L 401.538554 47.914772 
L 401.613645 47.78543 
L 403.716189 47.78543 
L 403.79128 47.656089 
L 404.992733 47.656089 
L 404.992733 47.526748 
L 405.968914 47.526748 
L 405.968914 47.397406 
L 406.794913 47.397406 
L 406.794913 47.268065 
L 406.870004 47.268065 
L 407.020185 47.268065 
L 407.095276 47.138724 
L 407.245458 47.138724 
L 407.320549 47.009382 
L 408.221639 47.009382 
L 408.221639 46.880041 
L 408.29673 46.880041 
L 410.174001 46.880041 
L 410.249091 46.7507 
L 416.781994 46.7507 
L 416.781994 46.621359 
L 417.983447 46.621359 
L 418.509083 46.492017 
L 418.809447 46.492017 
L 418.809447 46.233335 
L 418.884537 46.233335 
L 419.184901 46.103993 
L 419.635446 46.103993 
L 419.635446 45.974652 
L 420.0109 45.974652 
L 420.0109 45.845311 
L 421.137263 45.845311 
L 421.137263 45.715969 
L 421.512717 45.715969 
L 421.512717 45.586628 
L 423.014533 45.586628 
L 423.014533 45.457287 
L 424.291078 45.457287 
L 424.291078 45.327945 
L 425.642713 45.327945 
L 425.642713 44.939921 
L 427.21962 44.939921 
L 427.294711 44.81058 
L 427.670165 44.81058 
L 427.670165 44.681239 
L 429.622527 44.681239 
L 429.622527 44.551897 
L 429.697618 44.551897 
L 432.475979 44.551897 
L 432.475979 44.422556 
L 432.701251 44.422556 
L 432.851433 44.293215 
L 433.226887 44.293215 
L 433.226887 44.163874 
L 433.902705 44.163874 
L 433.902705 44.034532 
L 434.578522 44.034532 
L 434.578522 43.905191 
L 436.681066 43.905191 
L 436.681066 43.77585 
L 436.756156 43.77585 
L 436.981429 43.77585 
L 436.981429 43.646508 
L 437.05652 43.646508 
L 438.8587 43.646508 
L 438.8587 43.517167 
L 441.336697 43.517167 
L 441.336697 43.387826 
L 441.411788 43.387826 
L 442.538151 43.387826 
L 442.763423 43.129143 
L 443.36415 43.129143 
L 443.36415 42.999802 
L 448.019782 42.999802 
L 448.395236 42.87046 
L 450.047234 42.87046 
L 450.122325 42.741119 
L 451.248688 42.741119 
L 451.248688 42.611778 
L 451.549051 42.611778 
L 451.549051 42.482436 
L 453.351231 42.482436 
L 453.351231 42.353095 
L 454.702866 42.353095 
L 454.928139 42.223754 
L 457.406136 42.223754 
L 457.406136 42.094412 
L 459.283407 42.094412 
L 459.283407 41.965071 
L 460.935405 41.965071 
L 460.935405 41.83573 
L 461.010496 41.83573 
L 463.338312 41.83573 
L 463.338312 41.706388 
L 465.140492 41.706388 
L 465.140492 41.577047 
L 466.041582 41.577047 
L 466.041582 41.447706 
L 466.191764 41.447706 
L 466.191764 41.318365 
L 466.341946 41.318365 
L 466.341946 41.189023 
L 467.243036 41.189023 
L 467.318127 41.059682 
L 469.721033 41.059682 
L 469.721033 40.930341 
L 470.922487 40.930341 
L 470.922487 40.671658 
L 470.997577 40.671658 
L 471.898667 40.671658 
L 473.92612 40.542317 
L 477.905934 40.542317 
L 477.905934 40.412975 
L 478.656843 40.412975 
L 478.731934 40.283634 
L 479.858296 40.283634 
L 479.858296 40.154293 
L 479.933387 40.154293 
L 483.687929 40.154293 
L 483.687929 40.024951 
L 484.063383 40.024951 
L 484.213565 39.89561 
L 486.241017 39.89561 
L 487.067016 39.766269 
L 487.893015 39.766269 
L 487.893015 39.636927 
L 495.627372 39.636927 
L 495.627372 39.507586 
L 498.030278 39.507586 
L 498.030278 39.378245 
L 500.057731 39.378245 
L 500.057731 39.248903 
L 500.808639 39.248903 
L 501.78482 38.990221 
L 505.464271 38.990221 
L 505.614453 38.860879 
L 506.740815 38.860879 
L 506.740815 38.731538 
L 507.566814 38.731538 
L 507.792087 38.602197 
L 517.92935 38.602197 
L 517.92935 38.472856 
L 518.980621 38.472856 
L 518.980621 38.343514 
L 519.656439 38.343514 
L 519.956802 38.084832 
L 523.260799 38.084832 
L 523.260799 37.95549 
L 528.291885 37.95549 
L 528.592248 37.826149 
L 533.322971 37.826149 
L 533.322971 37.696808 
L 537.603149 37.696808 
L 537.978603 37.567466 
L 548.641502 37.567466 
L 548.941865 37.438125 
L 631.616875 37.438125 
L 631.616875 37.438125 
" clip-path="url(#pc17d4a16a4)" style="fill: none; stroke: #1f77b4; stroke-width: 1.5; stroke-linecap: square"/>
   </g>
   <g id="line2d_26">
    <path d="M 73.616875 339.838125 
L 631.616875 37.438125 
" clip-path="url(#pc17d4a16a4)" style="fill: none; stroke-dasharray: 7.4,3.2; stroke-dashoffset: 0; stroke: #808080; stroke-width: 2"/>
   </g>
   <g id="patch_3">
    <path d="M 45.716875 354.958125 
L 45.716875 22.318125 
" style="fill: none; stroke: #000000; stroke-width: 0.8; stroke-linejoin: miter; stroke-linecap: square"/>
   </g>
   <g id="patch_4">
    <path d="M 659.516875 354.958125 
L 659.516875 22.318125 
" style="fill: none; stroke: #000000; stroke-width: 0.8; stroke-linejoin: miter; stroke-linecap: square"/>
   </g>
   <g id="patch_5">
    <path d="M 45.716875 354.958125 
L 659.516875 354.958125 
" style="fill: none; stroke: #000000; stroke-width: 0.8; stroke-linejoin: miter; stroke-linecap: square"/>
   </g>
   <g id="patch_6">
    <path d="M 45.716875 22.318125 
L 659.516875 22.318125 
" style="fill: none; stroke: #000000; stroke-width: 0.8; stroke-linejoin: miter; stroke-linecap: square"/>
   </g>
   <g id="text_15">
    <!-- ROC Curve: e -->
    <g transform="translate(312.30625 16.318125) scale(0.12 -0.12)">
     <defs>
      <path id="DejaVuSans-4f" d="M 2522 4238 
Q 1834 4238 1429 3725 
Q 1025 3213 1025 2328 
Q 1025 1447 1429 934 
Q 1834 422 2522 422 
Q 3209 422 3611 934 
Q 4013 1447 4013 2328 
Q 4013 3213 3611 3725 
Q 3209 4238 2522 4238 
z
M 2522 4750 
Q 3503 4750 4090 4092 
Q 4678 3434 4678 2328 
Q 4678 1225 4090 567 
Q 3503 -91 2522 -91 
Q 1538 -91 948 565 
Q 359 1222 359 2328 
Q 359 3434 948 4092 
Q 1538 4750 2522 4750 
z
" transform="scale(0.015625)"/>
      <path id="DejaVuSans-43" d="M 4122 4306 
L 4122 3641 
Q 3803 3938 3442 4084 
Q 3081 4231 2675 4231 
Q 1875 4231 1450 3742 
Q 1025 3253 1025 2328 
Q 1025 1406 1450 917 
Q 1875 428 2675 428 
Q 3081 428 3442 575 
Q 3803 722 4122 1019 
L 4122 359 
Q 3791 134 3420 21 
Q 3050 -91 2638 -91 
Q 1578 -91 968 557 
Q 359 1206 359 2328 
Q 359 3453 968 4101 
Q 1578 4750 2638 4750 
Q 3056 4750 3426 4639 
Q 3797 4528 4122 4306 
z
" transform="scale(0.015625)"/>
      <path id="DejaVuSans-3a" d="M 750 794 
L 1409 794 
L 1409 0 
L 750 0 
L 750 794 
z
M 750 3309 
L 1409 3309 
L 1409 2516 
L 750 2516 
L 750 3309 
z
" transform="scale(0.015625)"/>
     </defs>
     <use xlink:href="#DejaVuSans-52"/>
     <use xlink:href="#DejaVuSans-4f" x="69.482422"/>
     <use xlink:href="#DejaVuSans-43" x="148.193359"/>
     <use xlink:href="#DejaVuSans-20" x="218.017578"/>
     <use xlink:href="#DejaVuSans-43" x="249.804688"/>
     <use xlink:href="#DejaVuSans-75" x="319.628906"/>
     <use xlink:href="#DejaVuSans-72" x="383.007812"/>
     <use xlink:href="#DejaVuSans-76" x="424.121094"/>
     <use xlink:href="#DejaVuSans-65" x="483.300781"/>
     <use xlink:href="#DejaVuSans-3a" x="544.824219"/>
     <use xlink:href="#DejaVuSans-20" x="578.515625"/>
     <use xlink:href="#DejaVuSans-65" x="610.302734"/>
    </g>
   </g>
   <g id="legend_1">
    <g id="patch_7">
     <path d="M 545.284063 349.958125 
L 652.516875 349.958125 
Q 654.516875 349.958125 654.516875 347.958125 
L 654.516875 319.601875 
Q 654.516875 317.601875 652.516875 317.601875 
L 545.284063 317.601875 
Q 543.284063 317.601875 543.284063 319.601875 
L 543.284063 347.958125 
Q 543.284063 349.958125 545.284063 349.958125 
z
" style="fill: #ffffff; opacity: 0.8; stroke: #cccccc; stroke-linejoin: miter"/>
    </g>
    <g id="line2d_27">
     <path d="M 547.284063 325.700312 
L 557.284063 325.700312 
L 567.284063 325.700312 
" style="fill: none; stroke: #1f77b4; stroke-width: 1.5; stroke-linecap: square"/>
    </g>
    <g id="text_16">
     <!-- AUC = 0.87 -->
     <g transform="translate(575.284063 329.200312) scale(0.1 -0.1)">
      <defs>
       <path id="DejaVuSans-41" d="M 2188 4044 
L 1331 1722 
L 3047 1722 
L 2188 4044 
z
M 1831 4666 
L 2547 4666 
L 4325 0 
L 3669 0 
L 3244 1197 
L 1141 1197 
L 716 0 
L 50 0 
L 1831 4666 
z
" transform="scale(0.015625)"/>
       <path id="DejaVuSans-55" d="M 556 4666 
L 1191 4666 
L 1191 1831 
Q 1191 1081 1462 751 
Q 1734 422 2344 422 
Q 2950 422 3222 751 
Q 3494 1081 3494 1831 
L 3494 4666 
L 4128 4666 
L 4128 1753 
Q 4128 841 3676 375 
Q 3225 -91 2344 -91 
Q 1459 -91 1007 375 
Q 556 841 556 1753 
L 556 4666 
z
" transform="scale(0.015625)"/>
       <path id="DejaVuSans-3d" d="M 678 2906 
L 4684 2906 
L 4684 2381 
L 678 2381 
L 678 2906 
z
M 678 1631 
L 4684 1631 
L 4684 1100 
L 678 1100 
L 678 1631 
z
" transform="scale(0.015625)"/>
       <path id="DejaVuSans-37" d="M 525 4666 
L 3525 4666 
L 3525 4397 
L 1831 0 
L 1172 0 
L 2766 4134 
L 525 4134 
L 525 4666 
z
" transform="scale(0.015625)"/>
      </defs>
      <use xlink:href="#DejaVuSans-41"/>
      <use xlink:href="#DejaVuSans-55" x="68.408203"/>
      <use xlink:href="#DejaVuSans-43" x="141.601562"/>
      <use xlink:href="#DejaVuSans-20" x="211.425781"/>
      <use xlink:href="#DejaVuSans-3d" x="243.212891"/>
      <use xlink:href="#DejaVuSans-20" x="327.001953"/>
      <use xlink:href="#DejaVuSans-30" x="358.789062"/>
      <use xlink:href="#DejaVuSans-2e" x="422.412109"/>
      <use xlink:href="#DejaVuSans-38" x="454.199219"/>
      <use xlink:href="#DejaVuSans-37" x="517.822266"/>
     </g>
    </g>
    <g id="line2d_28">
     <path d="M 547.284063 340.378438 
L 557.284063 340.378438 
L 567.284063 340.378438 
" style="fill: none; stroke-dasharray: 7.4,3.2; stroke-dashoffset: 0; stroke: #808080; stroke-width: 2"/>
    </g>
    <g id="text_17">
     <!-- Random Guess -->
     <g transform="translate(575.284063 343.878438) scale(0.1 -0.1)">
      <defs>
       <path id="DejaVuSans-6e" d="M 3513 2113 
L 3513 0 
L 2938 0 
L 2938 2094 
Q 2938 2591 2744 2837 
Q 2550 3084 2163 3084 
Q 1697 3084 1428 2787 
Q 1159 2491 1159 1978 
L 1159 0 
L 581 0 
L 581 3500 
L 1159 3500 
L 1159 2956 
Q 1366 3272 1645 3428 
Q 1925 3584 2291 3584 
Q 2894 3584 3203 3211 
Q 3513 2838 3513 2113 
z
" transform="scale(0.015625)"/>
       <path id="DejaVuSans-64" d="M 2906 2969 
L 2906 4863 
L 3481 4863 
L 3481 0 
L 2906 0 
L 2906 525 
Q 2725 213 2448 61 
Q 2172 -91 1784 -91 
Q 1150 -91 751 415 
Q 353 922 353 1747 
Q 353 2572 751 3078 
Q 1150 3584 1784 3584 
Q 2172 3584 2448 3432 
Q 2725 3281 2906 2969 
z
M 947 1747 
Q 947 1113 1208 752 
Q 1469 391 1925 391 
Q 2381 391 2643 752 
Q 2906 1113 2906 1747 
Q 2906 2381 2643 2742 
Q 2381 3103 1925 3103 
Q 1469 3103 1208 2742 
Q 947 2381 947 1747 
z
" transform="scale(0.015625)"/>
       <path id="DejaVuSans-6d" d="M 3328 2828 
Q 3544 3216 3844 3400 
Q 4144 3584 4550 3584 
Q 5097 3584 5394 3201 
Q 5691 2819 5691 2113 
L 5691 0 
L 5113 0 
L 5113 2094 
Q 5113 2597 4934 2840 
Q 4756 3084 4391 3084 
Q 3944 3084 3684 2787 
Q 3425 2491 3425 1978 
L 3425 0 
L 2847 0 
L 2847 2094 
Q 2847 2600 2669 2842 
Q 2491 3084 2119 3084 
Q 1678 3084 1418 2786 
Q 1159 2488 1159 1978 
L 1159 0 
L 581 0 
L 581 3500 
L 1159 3500 
L 1159 2956 
Q 1356 3278 1631 3431 
Q 1906 3584 2284 3584 
Q 2666 3584 2933 3390 
Q 3200 3197 3328 2828 
z
" transform="scale(0.015625)"/>
       <path id="DejaVuSans-47" d="M 3809 666 
L 3809 1919 
L 2778 1919 
L 2778 2438 
L 4434 2438 
L 4434 434 
Q 4069 175 3628 42 
Q 3188 -91 2688 -91 
Q 1594 -91 976 548 
Q 359 1188 359 2328 
Q 359 3472 976 4111 
Q 1594 4750 2688 4750 
Q 3144 4750 3555 4637 
Q 3966 4525 4313 4306 
L 4313 3634 
Q 3963 3931 3569 4081 
Q 3175 4231 2741 4231 
Q 1884 4231 1454 3753 
Q 1025 3275 1025 2328 
Q 1025 1384 1454 906 
Q 1884 428 2741 428 
Q 3075 428 3337 486 
Q 3600 544 3809 666 
z
" transform="scale(0.015625)"/>
      </defs>
      <use xlink:href="#DejaVuSans-52"/>
      <use xlink:href="#DejaVuSans-61" x="67.232422"/>
      <use xlink:href="#DejaVuSans-6e" x="128.511719"/>
      <use xlink:href="#DejaVuSans-64" x="191.890625"/>
      <use xlink:href="#DejaVuSans-6f" x="255.367188"/>
      <use xlink:href="#DejaVuSans-6d" x="316.548828"/>
      <use xlink:href="#DejaVuSans-20" x="413.960938"/>
      <use xlink:href="#DejaVuSans-47" x="445.748047"/>
      <use xlink:href="#DejaVuSans-75" x="523.238281"/>
      <use xlink:href="#DejaVuSans-65" x="586.617188"/>
      <use xlink:href="#DejaVuSans-73" x="648.140625"/>
      <use xlink:href="#DejaVuSans-73" x="700.240234"/>
     </g>
    </g>
   </g>
  </g>
 </g>
 <defs>
  <clipPath id="pc17d4a16a4">
   <rect x="45.716875" y="22.318125" width="613.8" height="332.64"/>
  </clipPath>
 </defs>
</svg>
