<?xml version="1.0" encoding="utf-8" standalone="no"?>
<!DOCTYPE svg PUBLIC "-//W3C//DTD SVG 1.1//EN"
  "http://www.w3.org/Graphics/SVG/1.1/DTD/svg11.dtd">
<svg xmlns:xlink="http://www.w3.org/1999/xlink" width="410.036875pt" height="327.922pt" viewBox="0 0 410.036875 327.922" xmlns="http://www.w3.org/2000/svg" version="1.1">
 <metadata>
  <rdf:RDF xmlns:dc="http://purl.org/dc/elements/1.1/" xmlns:cc="http://creativecommons.org/ns#" xmlns:rdf="http://www.w3.org/1999/02/22-rdf-syntax-ns#">
   <cc:Work>
    <dc:type rdf:resource="http://purl.org/dc/dcmitype/StillImage"/>
    <dc:date>2025-02-23T21:31:47.981964</dc:date>
    <dc:format>image/svg+xml</dc:format>
    <dc:creator>
     <cc:Agent>
      <dc:title>Matplotlib v3.9.2, https://matplotlib.org/</dc:title>
     </cc:Agent>
    </dc:creator>
   </cc:Work>
  </rdf:RDF>
 </metadata>
 <defs>
  <style type="text/css">*{stroke-linejoin: round; stroke-linecap: butt}</style>
 </defs>
 <g id="figure_1">
  <g id="patch_1">
   <path d="M 0 327.922 
L 410.036875 327.922 
L 410.036875 0 
L 0 0 
z
" style="fill: #ffffff"/>
  </g>
  <g id="axes_1">
   <g id="patch_2">
    <path d="M 45.716875 288.430125 
L 402.836875 288.430125 
L 402.836875 22.318125 
L 45.716875 22.318125 
z
" style="fill: #ffffff"/>
   </g>
   <g id="matplotlib.axis_1">
    <g id="xtick_1">
     <g id="line2d_1">
      <path d="M 61.949602 288.430125 
L 61.949602 22.318125 
" clip-path="url(#p5200f543dd)" style="fill: none; stroke: #b0b0b0; stroke-width: 0.8; stroke-linecap: square"/>
     </g>
     <g id="line2d_2">
      <defs>
       <path id="meddaec37f2" d="M 0 0 
L 0 3.5 
" style="stroke: #000000; stroke-width: 0.8"/>
      </defs>
      <g>
       <use xlink:href="#meddaec37f2" x="61.949602" y="288.430125" style="stroke: #000000; stroke-width: 0.8"/>
      </g>
     </g>
     <g id="text_1">
      <!-- 0.0 -->
      <g transform="translate(53.99804 303.028562) scale(0.1 -0.1)">
       <defs>
        <path id="DejaVuSans-30" d="M 2034 4250 
Q 1547 4250 1301 3770 
Q 1056 3291 1056 2328 
Q 1056 1369 1301 889 
Q 1547 409 2034 409 
Q 2525 409 2770 889 
Q 3016 1369 3016 2328 
Q 3016 3291 2770 3770 
Q 2525 4250 2034 4250 
z
M 2034 4750 
Q 2819 4750 3233 4129 
Q 3647 3509 3647 2328 
Q 3647 1150 3233 529 
Q 2819 -91 2034 -91 
Q 1250 -91 836 529 
Q 422 1150 422 2328 
Q 422 3509 836 4129 
Q 1250 4750 2034 4750 
z
" transform="scale(0.015625)"/>
        <path id="DejaVuSans-2e" d="M 684 794 
L 1344 794 
L 1344 0 
L 684 0 
L 684 794 
z
" transform="scale(0.015625)"/>
       </defs>
       <use xlink:href="#DejaVuSans-30"/>
       <use xlink:href="#DejaVuSans-2e" x="63.623047"/>
       <use xlink:href="#DejaVuSans-30" x="95.410156"/>
      </g>
     </g>
    </g>
    <g id="xtick_2">
     <g id="line2d_3">
      <path d="M 126.880511 288.430125 
L 126.880511 22.318125 
" clip-path="url(#p5200f543dd)" style="fill: none; stroke: #b0b0b0; stroke-width: 0.8; stroke-linecap: square"/>
     </g>
     <g id="line2d_4">
      <g>
       <use xlink:href="#meddaec37f2" x="126.880511" y="288.430125" style="stroke: #000000; stroke-width: 0.8"/>
      </g>
     </g>
     <g id="text_2">
      <!-- 0.2 -->
      <g transform="translate(118.928949 303.028562) scale(0.1 -0.1)">
       <defs>
        <path id="DejaVuSans-32" d="M 1228 531 
L 3431 531 
L 3431 0 
L 469 0 
L 469 531 
Q 828 903 1448 1529 
Q 2069 2156 2228 2338 
Q 2531 2678 2651 2914 
Q 2772 3150 2772 3378 
Q 2772 3750 2511 3984 
Q 2250 4219 1831 4219 
Q 1534 4219 1204 4116 
Q 875 4013 500 3803 
L 500 4441 
Q 881 4594 1212 4672 
Q 1544 4750 1819 4750 
Q 2544 4750 2975 4387 
Q 3406 4025 3406 3419 
Q 3406 3131 3298 2873 
Q 3191 2616 2906 2266 
Q 2828 2175 2409 1742 
Q 1991 1309 1228 531 
z
" transform="scale(0.015625)"/>
       </defs>
       <use xlink:href="#DejaVuSans-30"/>
       <use xlink:href="#DejaVuSans-2e" x="63.623047"/>
       <use xlink:href="#DejaVuSans-32" x="95.410156"/>
      </g>
     </g>
    </g>
    <g id="xtick_3">
     <g id="line2d_5">
      <path d="M 191.81142 288.430125 
L 191.81142 22.318125 
" clip-path="url(#p5200f543dd)" style="fill: none; stroke: #b0b0b0; stroke-width: 0.8; stroke-linecap: square"/>
     </g>
     <g id="line2d_6">
      <g>
       <use xlink:href="#meddaec37f2" x="191.81142" y="288.430125" style="stroke: #000000; stroke-width: 0.8"/>
      </g>
     </g>
     <g id="text_3">
      <!-- 0.4 -->
      <g transform="translate(183.859858 303.028562) scale(0.1 -0.1)">
       <defs>
        <path id="DejaVuSans-34" d="M 2419 4116 
L 825 1625 
L 2419 1625 
L 2419 4116 
z
M 2253 4666 
L 3047 4666 
L 3047 1625 
L 3713 1625 
L 3713 1100 
L 3047 1100 
L 3047 0 
L 2419 0 
L 2419 1100 
L 313 1100 
L 313 1709 
L 2253 4666 
z
" transform="scale(0.015625)"/>
       </defs>
       <use xlink:href="#DejaVuSans-30"/>
       <use xlink:href="#DejaVuSans-2e" x="63.623047"/>
       <use xlink:href="#DejaVuSans-34" x="95.410156"/>
      </g>
     </g>
    </g>
    <g id="xtick_4">
     <g id="line2d_7">
      <path d="M 256.74233 288.430125 
L 256.74233 22.318125 
" clip-path="url(#p5200f543dd)" style="fill: none; stroke: #b0b0b0; stroke-width: 0.8; stroke-linecap: square"/>
     </g>
     <g id="line2d_8">
      <g>
       <use xlink:href="#meddaec37f2" x="256.74233" y="288.430125" style="stroke: #000000; stroke-width: 0.8"/>
      </g>
     </g>
     <g id="text_4">
      <!-- 0.6 -->
      <g transform="translate(248.790767 303.028562) scale(0.1 -0.1)">
       <defs>
        <path id="DejaVuSans-36" d="M 2113 2584 
Q 1688 2584 1439 2293 
Q 1191 2003 1191 1497 
Q 1191 994 1439 701 
Q 1688 409 2113 409 
Q 2538 409 2786 701 
Q 3034 994 3034 1497 
Q 3034 2003 2786 2293 
Q 2538 2584 2113 2584 
z
M 3366 4563 
L 3366 3988 
Q 3128 4100 2886 4159 
Q 2644 4219 2406 4219 
Q 1781 4219 1451 3797 
Q 1122 3375 1075 2522 
Q 1259 2794 1537 2939 
Q 1816 3084 2150 3084 
Q 2853 3084 3261 2657 
Q 3669 2231 3669 1497 
Q 3669 778 3244 343 
Q 2819 -91 2113 -91 
Q 1303 -91 875 529 
Q 447 1150 447 2328 
Q 447 3434 972 4092 
Q 1497 4750 2381 4750 
Q 2619 4750 2861 4703 
Q 3103 4656 3366 4563 
z
" transform="scale(0.015625)"/>
       </defs>
       <use xlink:href="#DejaVuSans-30"/>
       <use xlink:href="#DejaVuSans-2e" x="63.623047"/>
       <use xlink:href="#DejaVuSans-36" x="95.410156"/>
      </g>
     </g>
    </g>
    <g id="xtick_5">
     <g id="line2d_9">
      <path d="M 321.673239 288.430125 
L 321.673239 22.318125 
" clip-path="url(#p5200f543dd)" style="fill: none; stroke: #b0b0b0; stroke-width: 0.8; stroke-linecap: square"/>
     </g>
     <g id="line2d_10">
      <g>
       <use xlink:href="#meddaec37f2" x="321.673239" y="288.430125" style="stroke: #000000; stroke-width: 0.8"/>
      </g>
     </g>
     <g id="text_5">
      <!-- 0.8 -->
      <g transform="translate(313.721676 303.028562) scale(0.1 -0.1)">
       <defs>
        <path id="DejaVuSans-38" d="M 2034 2216 
Q 1584 2216 1326 1975 
Q 1069 1734 1069 1313 
Q 1069 891 1326 650 
Q 1584 409 2034 409 
Q 2484 409 2743 651 
Q 3003 894 3003 1313 
Q 3003 1734 2745 1975 
Q 2488 2216 2034 2216 
z
M 1403 2484 
Q 997 2584 770 2862 
Q 544 3141 544 3541 
Q 544 4100 942 4425 
Q 1341 4750 2034 4750 
Q 2731 4750 3128 4425 
Q 3525 4100 3525 3541 
Q 3525 3141 3298 2862 
Q 3072 2584 2669 2484 
Q 3125 2378 3379 2068 
Q 3634 1759 3634 1313 
Q 3634 634 3220 271 
Q 2806 -91 2034 -91 
Q 1263 -91 848 271 
Q 434 634 434 1313 
Q 434 1759 690 2068 
Q 947 2378 1403 2484 
z
M 1172 3481 
Q 1172 3119 1398 2916 
Q 1625 2713 2034 2713 
Q 2441 2713 2670 2916 
Q 2900 3119 2900 3481 
Q 2900 3844 2670 4047 
Q 2441 4250 2034 4250 
Q 1625 4250 1398 4047 
Q 1172 3844 1172 3481 
z
" transform="scale(0.015625)"/>
       </defs>
       <use xlink:href="#DejaVuSans-30"/>
       <use xlink:href="#DejaVuSans-2e" x="63.623047"/>
       <use xlink:href="#DejaVuSans-38" x="95.410156"/>
      </g>
     </g>
    </g>
    <g id="xtick_6">
     <g id="line2d_11">
      <path d="M 386.604148 288.430125 
L 386.604148 22.318125 
" clip-path="url(#p5200f543dd)" style="fill: none; stroke: #b0b0b0; stroke-width: 0.8; stroke-linecap: square"/>
     </g>
     <g id="line2d_12">
      <g>
       <use xlink:href="#meddaec37f2" x="386.604148" y="288.430125" style="stroke: #000000; stroke-width: 0.8"/>
      </g>
     </g>
     <g id="text_6">
      <!-- 1.0 -->
      <g transform="translate(378.652585 303.028562) scale(0.1 -0.1)">
       <defs>
        <path id="DejaVuSans-31" d="M 794 531 
L 1825 531 
L 1825 4091 
L 703 3866 
L 703 4441 
L 1819 4666 
L 2450 4666 
L 2450 531 
L 3481 531 
L 3481 0 
L 794 0 
L 794 531 
z
" transform="scale(0.015625)"/>
       </defs>
       <use xlink:href="#DejaVuSans-31"/>
       <use xlink:href="#DejaVuSans-2e" x="63.623047"/>
       <use xlink:href="#DejaVuSans-30" x="95.410156"/>
      </g>
     </g>
    </g>
    <g id="text_7">
     <!-- False Positive Rate -->
     <g transform="translate(168.517188 318.226375) scale(0.12 -0.12)">
      <defs>
       <path id="DejaVuSans-46" d="M 628 4666 
L 3309 4666 
L 3309 4134 
L 1259 4134 
L 1259 2759 
L 3109 2759 
L 3109 2228 
L 1259 2228 
L 1259 0 
L 628 0 
L 628 4666 
z
" transform="scale(0.015625)"/>
       <path id="DejaVuSans-61" d="M 2194 1759 
Q 1497 1759 1228 1600 
Q 959 1441 959 1056 
Q 959 750 1161 570 
Q 1363 391 1709 391 
Q 2188 391 2477 730 
Q 2766 1069 2766 1631 
L 2766 1759 
L 2194 1759 
z
M 3341 1997 
L 3341 0 
L 2766 0 
L 2766 531 
Q 2569 213 2275 61 
Q 1981 -91 1556 -91 
Q 1019 -91 701 211 
Q 384 513 384 1019 
Q 384 1609 779 1909 
Q 1175 2209 1959 2209 
L 2766 2209 
L 2766 2266 
Q 2766 2663 2505 2880 
Q 2244 3097 1772 3097 
Q 1472 3097 1187 3025 
Q 903 2953 641 2809 
L 641 3341 
Q 956 3463 1253 3523 
Q 1550 3584 1831 3584 
Q 2591 3584 2966 3190 
Q 3341 2797 3341 1997 
z
" transform="scale(0.015625)"/>
       <path id="DejaVuSans-6c" d="M 603 4863 
L 1178 4863 
L 1178 0 
L 603 0 
L 603 4863 
z
" transform="scale(0.015625)"/>
       <path id="DejaVuSans-73" d="M 2834 3397 
L 2834 2853 
Q 2591 2978 2328 3040 
Q 2066 3103 1784 3103 
Q 1356 3103 1142 2972 
Q 928 2841 928 2578 
Q 928 2378 1081 2264 
Q 1234 2150 1697 2047 
L 1894 2003 
Q 2506 1872 2764 1633 
Q 3022 1394 3022 966 
Q 3022 478 2636 193 
Q 2250 -91 1575 -91 
Q 1294 -91 989 -36 
Q 684 19 347 128 
L 347 722 
Q 666 556 975 473 
Q 1284 391 1588 391 
Q 1994 391 2212 530 
Q 2431 669 2431 922 
Q 2431 1156 2273 1281 
Q 2116 1406 1581 1522 
L 1381 1569 
Q 847 1681 609 1914 
Q 372 2147 372 2553 
Q 372 3047 722 3315 
Q 1072 3584 1716 3584 
Q 2034 3584 2315 3537 
Q 2597 3491 2834 3397 
z
" transform="scale(0.015625)"/>
       <path id="DejaVuSans-65" d="M 3597 1894 
L 3597 1613 
L 953 1613 
Q 991 1019 1311 708 
Q 1631 397 2203 397 
Q 2534 397 2845 478 
Q 3156 559 3463 722 
L 3463 178 
Q 3153 47 2828 -22 
Q 2503 -91 2169 -91 
Q 1331 -91 842 396 
Q 353 884 353 1716 
Q 353 2575 817 3079 
Q 1281 3584 2069 3584 
Q 2775 3584 3186 3129 
Q 3597 2675 3597 1894 
z
M 3022 2063 
Q 3016 2534 2758 2815 
Q 2500 3097 2075 3097 
Q 1594 3097 1305 2825 
Q 1016 2553 972 2059 
L 3022 2063 
z
" transform="scale(0.015625)"/>
       <path id="DejaVuSans-20" transform="scale(0.015625)"/>
       <path id="DejaVuSans-50" d="M 1259 4147 
L 1259 2394 
L 2053 2394 
Q 2494 2394 2734 2622 
Q 2975 2850 2975 3272 
Q 2975 3691 2734 3919 
Q 2494 4147 2053 4147 
L 1259 4147 
z
M 628 4666 
L 2053 4666 
Q 2838 4666 3239 4311 
Q 3641 3956 3641 3272 
Q 3641 2581 3239 2228 
Q 2838 1875 2053 1875 
L 1259 1875 
L 1259 0 
L 628 0 
L 628 4666 
z
" transform="scale(0.015625)"/>
       <path id="DejaVuSans-6f" d="M 1959 3097 
Q 1497 3097 1228 2736 
Q 959 2375 959 1747 
Q 959 1119 1226 758 
Q 1494 397 1959 397 
Q 2419 397 2687 759 
Q 2956 1122 2956 1747 
Q 2956 2369 2687 2733 
Q 2419 3097 1959 3097 
z
M 1959 3584 
Q 2709 3584 3137 3096 
Q 3566 2609 3566 1747 
Q 3566 888 3137 398 
Q 2709 -91 1959 -91 
Q 1206 -91 779 398 
Q 353 888 353 1747 
Q 353 2609 779 3096 
Q 1206 3584 1959 3584 
z
" transform="scale(0.015625)"/>
       <path id="DejaVuSans-69" d="M 603 3500 
L 1178 3500 
L 1178 0 
L 603 0 
L 603 3500 
z
M 603 4863 
L 1178 4863 
L 1178 4134 
L 603 4134 
L 603 4863 
z
" transform="scale(0.015625)"/>
       <path id="DejaVuSans-74" d="M 1172 4494 
L 1172 3500 
L 2356 3500 
L 2356 3053 
L 1172 3053 
L 1172 1153 
Q 1172 725 1289 603 
Q 1406 481 1766 481 
L 2356 481 
L 2356 0 
L 1766 0 
Q 1100 0 847 248 
Q 594 497 594 1153 
L 594 3053 
L 172 3053 
L 172 3500 
L 594 3500 
L 594 4494 
L 1172 4494 
z
" transform="scale(0.015625)"/>
       <path id="DejaVuSans-76" d="M 191 3500 
L 800 3500 
L 1894 563 
L 2988 3500 
L 3597 3500 
L 2284 0 
L 1503 0 
L 191 3500 
z
" transform="scale(0.015625)"/>
       <path id="DejaVuSans-52" d="M 2841 2188 
Q 3044 2119 3236 1894 
Q 3428 1669 3622 1275 
L 4263 0 
L 3584 0 
L 2988 1197 
Q 2756 1666 2539 1819 
Q 2322 1972 1947 1972 
L 1259 1972 
L 1259 0 
L 628 0 
L 628 4666 
L 2053 4666 
Q 2853 4666 3247 4331 
Q 3641 3997 3641 3322 
Q 3641 2881 3436 2590 
Q 3231 2300 2841 2188 
z
M 1259 4147 
L 1259 2491 
L 2053 2491 
Q 2509 2491 2742 2702 
Q 2975 2913 2975 3322 
Q 2975 3731 2742 3939 
Q 2509 4147 2053 4147 
L 1259 4147 
z
" transform="scale(0.015625)"/>
      </defs>
      <use xlink:href="#DejaVuSans-46"/>
      <use xlink:href="#DejaVuSans-61" x="48.394531"/>
      <use xlink:href="#DejaVuSans-6c" x="109.673828"/>
      <use xlink:href="#DejaVuSans-73" x="137.457031"/>
      <use xlink:href="#DejaVuSans-65" x="189.556641"/>
      <use xlink:href="#DejaVuSans-20" x="251.080078"/>
      <use xlink:href="#DejaVuSans-50" x="282.867188"/>
      <use xlink:href="#DejaVuSans-6f" x="339.544922"/>
      <use xlink:href="#DejaVuSans-73" x="400.726562"/>
      <use xlink:href="#DejaVuSans-69" x="452.826172"/>
      <use xlink:href="#DejaVuSans-74" x="480.609375"/>
      <use xlink:href="#DejaVuSans-69" x="519.818359"/>
      <use xlink:href="#DejaVuSans-76" x="547.601562"/>
      <use xlink:href="#DejaVuSans-65" x="606.78125"/>
      <use xlink:href="#DejaVuSans-20" x="668.304688"/>
      <use xlink:href="#DejaVuSans-52" x="700.091797"/>
      <use xlink:href="#DejaVuSans-61" x="767.324219"/>
      <use xlink:href="#DejaVuSans-74" x="828.603516"/>
      <use xlink:href="#DejaVuSans-65" x="867.8125"/>
     </g>
    </g>
   </g>
   <g id="matplotlib.axis_2">
    <g id="ytick_1">
     <g id="line2d_13">
      <path d="M 45.716875 276.334125 
L 402.836875 276.334125 
" clip-path="url(#p5200f543dd)" style="fill: none; stroke: #b0b0b0; stroke-width: 0.8; stroke-linecap: square"/>
     </g>
     <g id="line2d_14">
      <defs>
       <path id="m32dda5097f" d="M 0 0 
L -3.5 0 
" style="stroke: #000000; stroke-width: 0.8"/>
      </defs>
      <g>
       <use xlink:href="#m32dda5097f" x="45.716875" y="276.334125" style="stroke: #000000; stroke-width: 0.8"/>
      </g>
     </g>
     <g id="text_8">
      <!-- 0.0 -->
      <g transform="translate(22.81375 280.133344) scale(0.1 -0.1)">
       <use xlink:href="#DejaVuSans-30"/>
       <use xlink:href="#DejaVuSans-2e" x="63.623047"/>
       <use xlink:href="#DejaVuSans-30" x="95.410156"/>
      </g>
     </g>
    </g>
    <g id="ytick_2">
     <g id="line2d_15">
      <path d="M 45.716875 227.950125 
L 402.836875 227.950125 
" clip-path="url(#p5200f543dd)" style="fill: none; stroke: #b0b0b0; stroke-width: 0.8; stroke-linecap: square"/>
     </g>
     <g id="line2d_16">
      <g>
       <use xlink:href="#m32dda5097f" x="45.716875" y="227.950125" style="stroke: #000000; stroke-width: 0.8"/>
      </g>
     </g>
     <g id="text_9">
      <!-- 0.2 -->
      <g transform="translate(22.81375 231.749344) scale(0.1 -0.1)">
       <use xlink:href="#DejaVuSans-30"/>
       <use xlink:href="#DejaVuSans-2e" x="63.623047"/>
       <use xlink:href="#DejaVuSans-32" x="95.410156"/>
      </g>
     </g>
    </g>
    <g id="ytick_3">
     <g id="line2d_17">
      <path d="M 45.716875 179.566125 
L 402.836875 179.566125 
" clip-path="url(#p5200f543dd)" style="fill: none; stroke: #b0b0b0; stroke-width: 0.8; stroke-linecap: square"/>
     </g>
     <g id="line2d_18">
      <g>
       <use xlink:href="#m32dda5097f" x="45.716875" y="179.566125" style="stroke: #000000; stroke-width: 0.8"/>
      </g>
     </g>
     <g id="text_10">
      <!-- 0.4 -->
      <g transform="translate(22.81375 183.365344) scale(0.1 -0.1)">
       <use xlink:href="#DejaVuSans-30"/>
       <use xlink:href="#DejaVuSans-2e" x="63.623047"/>
       <use xlink:href="#DejaVuSans-34" x="95.410156"/>
      </g>
     </g>
    </g>
    <g id="ytick_4">
     <g id="line2d_19">
      <path d="M 45.716875 131.182125 
L 402.836875 131.182125 
" clip-path="url(#p5200f543dd)" style="fill: none; stroke: #b0b0b0; stroke-width: 0.8; stroke-linecap: square"/>
     </g>
     <g id="line2d_20">
      <g>
       <use xlink:href="#m32dda5097f" x="45.716875" y="131.182125" style="stroke: #000000; stroke-width: 0.8"/>
      </g>
     </g>
     <g id="text_11">
      <!-- 0.6 -->
      <g transform="translate(22.81375 134.981344) scale(0.1 -0.1)">
       <use xlink:href="#DejaVuSans-30"/>
       <use xlink:href="#DejaVuSans-2e" x="63.623047"/>
       <use xlink:href="#DejaVuSans-36" x="95.410156"/>
      </g>
     </g>
    </g>
    <g id="ytick_5">
     <g id="line2d_21">
      <path d="M 45.716875 82.798125 
L 402.836875 82.798125 
" clip-path="url(#p5200f543dd)" style="fill: none; stroke: #b0b0b0; stroke-width: 0.8; stroke-linecap: square"/>
     </g>
     <g id="line2d_22">
      <g>
       <use xlink:href="#m32dda5097f" x="45.716875" y="82.798125" style="stroke: #000000; stroke-width: 0.8"/>
      </g>
     </g>
     <g id="text_12">
      <!-- 0.8 -->
      <g transform="translate(22.81375 86.597344) scale(0.1 -0.1)">
       <use xlink:href="#DejaVuSans-30"/>
       <use xlink:href="#DejaVuSans-2e" x="63.623047"/>
       <use xlink:href="#DejaVuSans-38" x="95.410156"/>
      </g>
     </g>
    </g>
    <g id="ytick_6">
     <g id="line2d_23">
      <path d="M 45.716875 34.414125 
L 402.836875 34.414125 
" clip-path="url(#p5200f543dd)" style="fill: none; stroke: #b0b0b0; stroke-width: 0.8; stroke-linecap: square"/>
     </g>
     <g id="line2d_24">
      <g>
       <use xlink:href="#m32dda5097f" x="45.716875" y="34.414125" style="stroke: #000000; stroke-width: 0.8"/>
      </g>
     </g>
     <g id="text_13">
      <!-- 1.0 -->
      <g transform="translate(22.81375 38.213344) scale(0.1 -0.1)">
       <use xlink:href="#DejaVuSans-31"/>
       <use xlink:href="#DejaVuSans-2e" x="63.623047"/>
       <use xlink:href="#DejaVuSans-30" x="95.410156"/>
      </g>
     </g>
    </g>
    <g id="text_14">
     <!-- True Positive Rate -->
     <g transform="translate(16.318125 208.80975) rotate(-90) scale(0.12 -0.12)">
      <defs>
       <path id="DejaVuSans-54" d="M -19 4666 
L 3928 4666 
L 3928 4134 
L 2272 4134 
L 2272 0 
L 1638 0 
L 1638 4134 
L -19 4134 
L -19 4666 
z
" transform="scale(0.015625)"/>
       <path id="DejaVuSans-72" d="M 2631 2963 
Q 2534 3019 2420 3045 
Q 2306 3072 2169 3072 
Q 1681 3072 1420 2755 
Q 1159 2438 1159 1844 
L 1159 0 
L 581 0 
L 581 3500 
L 1159 3500 
L 1159 2956 
Q 1341 3275 1631 3429 
Q 1922 3584 2338 3584 
Q 2397 3584 2469 3576 
Q 2541 3569 2628 3553 
L 2631 2963 
z
" transform="scale(0.015625)"/>
       <path id="DejaVuSans-75" d="M 544 1381 
L 544 3500 
L 1119 3500 
L 1119 1403 
Q 1119 906 1312 657 
Q 1506 409 1894 409 
Q 2359 409 2629 706 
Q 2900 1003 2900 1516 
L 2900 3500 
L 3475 3500 
L 3475 0 
L 2900 0 
L 2900 538 
Q 2691 219 2414 64 
Q 2138 -91 1772 -91 
Q 1169 -91 856 284 
Q 544 659 544 1381 
z
M 1991 3584 
L 1991 3584 
z
" transform="scale(0.015625)"/>
      </defs>
      <use xlink:href="#DejaVuSans-54"/>
      <use xlink:href="#DejaVuSans-72" x="46.333984"/>
      <use xlink:href="#DejaVuSans-75" x="87.447266"/>
      <use xlink:href="#DejaVuSans-65" x="150.826172"/>
      <use xlink:href="#DejaVuSans-20" x="212.349609"/>
      <use xlink:href="#DejaVuSans-50" x="244.136719"/>
      <use xlink:href="#DejaVuSans-6f" x="300.814453"/>
      <use xlink:href="#DejaVuSans-73" x="361.996094"/>
      <use xlink:href="#DejaVuSans-69" x="414.095703"/>
      <use xlink:href="#DejaVuSans-74" x="441.878906"/>
      <use xlink:href="#DejaVuSans-69" x="481.087891"/>
      <use xlink:href="#DejaVuSans-76" x="508.871094"/>
      <use xlink:href="#DejaVuSans-65" x="568.050781"/>
      <use xlink:href="#DejaVuSans-20" x="629.574219"/>
      <use xlink:href="#DejaVuSans-52" x="661.361328"/>
      <use xlink:href="#DejaVuSans-61" x="728.59375"/>
      <use xlink:href="#DejaVuSans-74" x="789.873047"/>
      <use xlink:href="#DejaVuSans-65" x="829.082031"/>
     </g>
    </g>
   </g>
   <g id="line2d_25">
    <path d="M 61.949602 276.334125 
L 62.021492 256.71899 
L 62.093382 256.71899 
L 62.165272 255.992503 
L 62.237162 255.992503 
L 62.309052 252.481152 
L 62.452831 252.481152 
L 62.524721 247.637909 
L 62.596611 247.637909 
L 62.668501 246.306017 
L 62.81228 246.306017 
L 62.88417 243.521152 
L 62.95606 243.521152 
L 63.02795 241.583855 
L 63.09984 241.583855 
L 63.17173 240.130882 
L 63.24362 240.130882 
L 63.24362 239.162233 
L 63.387399 239.162233 
L 63.459289 238.556828 
L 63.603069 238.556828 
L 63.674959 236.740611 
L 63.746848 236.740611 
L 63.818738 234.803314 
L 63.890628 234.803314 
L 63.890628 234.440071 
L 64.034408 234.440071 
L 64.106298 233.834666 
L 64.250077 233.834666 
L 64.321967 232.13953 
L 64.465747 232.13953 
L 64.465747 231.897368 
L 64.753306 231.897368 
L 64.825196 231.655206 
L 64.968976 231.655206 
L 65.040866 230.686557 
L 65.184645 230.686557 
L 65.256535 229.354666 
L 65.472205 229.354666 
L 65.544095 228.870341 
L 65.615984 228.870341 
L 65.615984 228.386017 
L 65.831654 228.386017 
L 65.903544 225.35899 
L 65.975434 225.35899 
L 65.975434 224.995747 
L 66.119213 224.995747 
L 66.191103 224.632503 
L 66.334883 224.632503 
L 66.406773 223.663855 
L 66.478663 223.663855 
L 66.550552 222.210882 
L 66.622442 222.210882 
L 66.694332 221.363314 
L 66.766222 221.363314 
L 66.838112 220.636828 
L 66.981892 220.636828 
L 67.053781 220.152503 
L 67.269451 220.152503 
L 67.341341 219.668179 
L 67.413231 219.668179 
L 67.48512 218.336287 
L 67.55701 218.336287 
L 67.55701 218.215206 
L 67.70079 218.215206 
L 67.77268 217.609801 
L 67.84457 217.609801 
L 67.84457 216.277909 
L 67.988349 216.277909 
L 68.060239 214.340611 
L 68.132129 214.340611 
L 68.132129 213.493044 
L 68.275909 213.493044 
L 68.347799 212.282233 
L 68.419688 212.282233 
L 68.491578 212.040071 
L 68.563468 212.040071 
L 68.635358 211.676828 
L 68.707248 211.676828 
L 68.779138 210.950341 
L 68.851028 210.950341 
L 68.922917 210.223855 
L 69.210477 210.223855 
L 69.210477 210.102774 
L 69.354256 210.102774 
L 69.426146 209.134125 
L 69.569926 209.134125 
L 69.569926 208.891963 
L 69.713706 208.891963 
L 69.785596 208.52872 
L 69.857485 208.52872 
L 69.929375 208.044395 
L 70.001265 208.044395 
L 70.073155 206.833584 
L 70.145045 206.833584 
L 70.216935 206.228179 
L 70.288824 206.228179 
L 70.360714 205.501693 
L 70.432604 205.501693 
L 70.432604 205.380611 
L 70.576384 205.380611 
L 70.648274 203.322233 
L 70.720164 203.322233 
L 70.792053 203.080071 
L 70.863943 203.080071 
L 70.935833 201.86926 
L 71.007723 201.86926 
L 71.007723 201.627098 
L 71.151503 201.627098 
L 71.151503 201.506017 
L 71.295282 201.506017 
L 71.367172 200.416287 
L 71.510952 200.416287 
L 71.582842 199.447639 
L 71.726621 199.447639 
L 71.798511 198.842233 
L 71.870401 198.842233 
L 71.870401 198.600071 
L 72.15796 198.600071 
L 72.22985 196.904936 
L 72.30174 196.904936 
L 72.37363 196.29953 
L 72.44552 196.29953 
L 72.44552 196.178449 
L 72.5893 196.178449 
L 72.661189 194.362233 
L 72.733079 194.362233 
L 72.804969 193.99899 
L 73.092528 193.99899 
L 73.164418 193.514666 
L 73.236308 193.514666 
L 73.308198 192.667098 
L 73.380088 192.667098 
L 73.451978 191.093044 
L 73.523868 191.093044 
L 73.523868 190.60872 
L 73.667647 190.60872 
L 73.739537 189.882233 
L 73.811427 189.882233 
L 73.811427 188.913584 
L 73.955207 188.913584 
L 73.955207 188.550341 
L 74.098986 188.550341 
L 74.170876 188.066017 
L 74.314656 188.066017 
L 74.386546 187.702774 
L 74.458436 187.702774 
L 74.458436 187.581693 
L 74.674105 187.581693 
L 74.745995 187.218449 
L 74.817885 187.218449 
L 74.817885 186.855206 
L 75.033554 186.855206 
L 75.105444 186.370882 
L 75.249224 186.370882 
L 75.249224 186.12872 
L 75.464893 186.12872 
L 75.536783 185.765476 
L 75.608673 185.765476 
L 75.680563 185.523314 
L 75.752453 185.523314 
L 75.752453 185.402233 
L 75.968122 185.402233 
L 76.040012 184.917909 
L 76.111902 184.917909 
L 76.183792 184.675747 
L 76.255682 184.675747 
L 76.327572 184.312503 
L 76.471351 184.312503 
L 76.471351 184.191422 
L 76.687021 184.191422 
L 76.758911 183.222774 
L 77.11836 183.222774 
L 77.11836 183.101693 
L 77.405919 183.101693 
L 77.477809 182.617368 
L 77.621589 182.617368 
L 77.621589 182.496287 
L 77.765368 182.496287 
L 77.837258 182.254125 
L 77.909148 182.254125 
L 77.981038 181.769801 
L 78.124818 181.769801 
L 78.196708 181.285476 
L 78.268597 181.285476 
L 78.268597 181.164395 
L 78.556157 181.164395 
L 78.628047 180.074666 
L 78.699936 180.074666 
L 78.771826 179.590341 
L 78.843716 179.590341 
L 78.843716 179.348179 
L 78.987496 179.348179 
L 79.059386 178.621693 
L 79.346945 178.621693 
L 79.418835 178.258449 
L 79.778284 178.258449 
L 79.778284 178.137368 
L 80.065844 178.137368 
L 80.137733 177.895206 
L 80.281513 177.895206 
L 80.353403 177.047639 
L 80.425293 177.047639 
L 80.425293 176.926557 
L 80.640962 176.926557 
L 80.640962 176.805476 
L 80.856632 176.805476 
L 80.928522 176.200071 
L 81.000412 176.200071 
L 81.072301 175.473584 
L 81.144191 175.473584 
L 81.144191 175.352503 
L 81.359861 175.352503 
L 81.359861 175.110341 
L 81.50364 175.110341 
L 81.57553 174.626017 
L 81.64742 174.626017 
L 81.64742 174.504936 
L 81.7912 174.504936 
L 81.86309 174.020611 
L 81.93498 174.020611 
L 81.93498 173.657368 
L 82.078759 173.657368 
L 82.150649 173.294125 
L 82.294429 173.294125 
L 82.366319 172.930882 
L 82.510098 172.930882 
L 82.581988 172.204395 
L 82.653878 172.204395 
L 82.725768 171.962233 
L 83.013327 171.962233 
L 83.085217 171.720071 
L 83.372776 171.720071 
L 83.444666 171.477909 
L 83.516556 171.477909 
L 83.588446 171.114666 
L 83.660336 171.114666 
L 83.660336 170.872503 
L 83.804116 170.872503 
L 83.804116 170.50926 
L 83.947895 170.50926 
L 84.019785 169.661693 
L 84.091675 169.661693 
L 84.163565 168.935206 
L 84.235455 168.935206 
L 84.307344 168.450882 
L 84.379234 168.450882 
L 84.451124 168.087639 
L 84.523014 168.087639 
L 84.523014 167.724395 
L 84.666794 167.724395 
L 84.666794 167.603314 
L 84.810573 167.603314 
L 84.810573 167.482233 
L 84.954353 167.482233 
L 85.026243 167.11899 
L 85.098133 167.11899 
L 85.170023 166.876828 
L 85.241912 166.876828 
L 85.241912 166.634666 
L 85.385692 166.634666 
L 85.385692 166.513584 
L 85.529472 166.513584 
L 85.601362 166.02926 
L 85.673252 166.02926 
L 85.745141 165.302774 
L 85.817031 165.302774 
L 85.817031 164.818449 
L 86.032701 164.818449 
L 86.104591 164.213044 
L 86.17648 164.213044 
L 86.24837 163.607639 
L 86.46404 163.607639 
L 86.53593 162.63899 
L 86.751599 162.63899 
L 86.751599 162.517909 
L 86.895379 162.517909 
L 86.967269 162.154666 
L 87.111048 162.154666 
L 87.111048 162.033584 
L 87.326718 162.033584 
L 87.398608 161.428179 
L 87.470498 161.428179 
L 87.542388 160.580611 
L 87.973727 160.580611 
L 87.973727 160.45953 
L 88.117506 160.45953 
L 88.117506 160.338449 
L 88.261286 160.338449 
L 88.333176 160.096287 
L 88.476956 160.096287 
L 88.548845 159.733044 
L 88.692625 159.733044 
L 88.692625 159.611963 
L 88.836405 159.611963 
L 88.908295 159.006557 
L 88.980184 159.006557 
L 89.052074 158.522233 
L 89.123964 158.522233 
L 89.123964 158.15899 
L 89.267744 158.15899 
L 89.267744 157.795747 
L 89.555303 157.795747 
L 89.627193 157.553584 
L 89.699083 157.553584 
L 89.770973 157.311422 
L 89.914752 157.311422 
L 89.986642 156.827098 
L 90.058532 156.827098 
L 90.058532 156.584936 
L 90.202312 156.584936 
L 90.274202 156.100611 
L 90.346092 156.100611 
L 90.417981 155.858449 
L 90.705541 155.858449 
L 90.705541 155.737368 
L 90.84932 155.737368 
L 90.92121 155.495206 
L 91.13688 155.495206 
L 91.20877 154.889801 
L 91.28066 154.889801 
L 91.352549 154.647639 
L 91.568219 154.647639 
L 91.640109 154.163314 
L 91.855778 154.163314 
L 91.855778 153.921152 
L 92.071448 153.921152 
L 92.143338 153.194666 
L 92.359007 153.194666 
L 92.359007 152.831422 
L 92.502787 152.831422 
L 92.574677 152.347098 
L 92.790346 152.347098 
L 92.862236 151.620611 
L 93.006016 151.620611 
L 93.077906 151.257368 
L 93.293575 151.257368 
L 93.365465 151.015206 
L 93.437355 151.015206 
L 93.509245 150.651963 
L 93.796804 150.651963 
L 93.796804 150.530882 
L 94.300033 150.530882 
L 94.371923 150.28872 
L 94.443813 150.28872 
L 94.515703 149.683314 
L 94.803262 149.683314 
L 94.875152 148.956828 
L 95.378381 148.956828 
L 95.378381 148.714666 
L 95.52216 148.714666 
L 95.59405 147.382774 
L 95.66594 147.382774 
L 95.73783 146.777368 
L 96.241059 146.777368 
L 96.241059 146.656287 
L 96.456728 146.656287 
L 96.456728 146.535206 
L 96.672398 146.535206 
L 96.672398 146.414125 
L 97.031847 146.414125 
L 97.103737 145.929801 
L 97.175627 145.929801 
L 97.175627 145.324395 
L 97.319407 145.324395 
L 97.391296 144.597909 
L 97.463186 144.597909 
L 97.535076 144.234666 
L 97.750746 144.234666 
L 97.822636 143.992503 
L 98.038305 143.992503 
L 98.038305 143.871422 
L 98.325864 143.871422 
L 98.325864 143.750341 
L 98.829093 143.750341 
L 98.829093 143.62926 
L 99.116653 143.62926 
L 99.116653 143.387098 
L 99.260432 143.387098 
L 99.260432 142.902774 
L 99.404212 142.902774 
L 99.476102 141.32872 
L 99.835551 141.32872 
L 99.835551 141.207639 
L 100.051221 141.207639 
L 100.051221 141.086557 
L 100.195 141.086557 
L 100.195 140.844395 
L 100.33878 140.844395 
L 100.33878 140.723314 
L 100.48256 140.723314 
L 100.48256 140.23899 
L 100.698229 140.23899 
L 100.698229 139.754666 
L 101.129568 139.754666 
L 101.129568 139.512503 
L 101.345238 139.512503 
L 101.417128 139.270341 
L 101.704687 139.270341 
L 101.704687 139.14926 
L 101.848467 139.14926 
L 101.848467 138.180611 
L 102.207916 138.180611 
L 102.279806 137.333044 
L 102.495476 137.333044 
L 102.495476 137.090882 
L 102.639255 137.090882 
L 102.639255 136.969801 
L 102.783035 136.969801 
L 102.783035 136.84872 
L 102.998704 136.84872 
L 103.070594 136.606557 
L 103.142484 136.606557 
L 103.142484 136.485476 
L 103.358154 136.485476 
L 103.358154 136.243314 
L 103.501933 136.243314 
L 103.501933 136.001152 
L 103.645713 136.001152 
L 103.645713 135.637909 
L 103.789493 135.637909 
L 103.789493 135.274666 
L 103.933272 135.274666 
L 103.933272 135.153584 
L 104.292722 135.153584 
L 104.292722 134.66926 
L 104.724061 134.66926 
L 104.795951 133.942774 
L 105.371069 133.942774 
L 105.371069 133.57953 
L 105.586739 133.57953 
L 105.586739 133.458449 
L 105.946188 133.458449 
L 105.946188 133.095206 
L 106.089968 133.095206 
L 106.089968 132.853044 
L 106.233748 132.853044 
L 106.233748 132.731963 
L 106.449417 132.731963 
L 106.449417 132.610882 
L 106.665087 132.610882 
L 106.736976 132.247639 
L 106.808866 132.247639 
L 106.880756 131.763314 
L 106.952646 131.763314 
L 106.952646 131.642233 
L 107.455875 131.642233 
L 107.455875 131.400071 
L 107.671544 131.400071 
L 107.743434 131.157909 
L 107.887214 131.157909 
L 107.887214 131.036828 
L 108.030994 131.036828 
L 108.102884 130.673584 
L 108.174773 130.673584 
L 108.174773 130.431422 
L 108.318553 130.431422 
L 108.318553 130.310341 
L 108.965562 130.310341 
L 109.037452 129.826017 
L 109.396901 129.826017 
L 109.396901 129.704936 
L 110.403359 129.704936 
L 110.403359 129.462774 
L 110.619028 129.462774 
L 110.619028 129.341693 
L 110.978477 129.341693 
L 110.978477 129.220611 
L 111.122257 129.220611 
L 111.194147 128.978449 
L 111.841156 128.978449 
L 111.913045 128.736287 
L 112.200605 128.736287 
L 112.272495 128.494125 
L 112.344384 128.494125 
L 112.344384 128.251963 
L 112.919503 128.251963 
L 112.919503 127.88872 
L 113.063283 127.88872 
L 113.135173 127.646557 
L 113.207063 127.646557 
L 113.278952 127.404395 
L 113.422732 127.404395 
L 113.494622 126.920071 
L 113.638402 126.920071 
L 113.638402 126.677909 
L 113.782181 126.677909 
L 113.782181 126.435747 
L 114.50108 126.435747 
L 114.57297 126.072503 
L 114.64486 126.072503 
L 114.64486 125.951422 
L 114.860529 125.951422 
L 114.932419 125.346017 
L 115.004309 125.346017 
L 115.004309 125.103855 
L 115.148088 125.103855 
L 115.219978 124.740611 
L 115.435648 124.740611 
L 115.507538 124.256287 
L 115.579428 124.256287 
L 115.579428 124.135206 
L 115.795097 124.135206 
L 115.866987 123.529801 
L 115.938877 123.529801 
L 116.010767 123.287639 
L 116.082656 123.287639 
L 116.154546 123.045476 
L 116.226436 123.045476 
L 116.226436 122.924395 
L 116.370216 122.924395 
L 116.370216 122.803314 
L 116.513996 122.803314 
L 116.585885 122.197909 
L 116.657775 122.197909 
L 116.729665 121.955747 
L 116.945335 121.955747 
L 116.945335 121.834666 
L 117.161004 121.834666 
L 117.232894 121.592503 
L 117.304784 121.592503 
L 117.376674 121.22926 
L 117.448564 121.22926 
L 117.448564 121.108179 
L 117.879903 121.108179 
L 117.879903 120.987098 
L 118.095572 120.987098 
L 118.167462 120.744936 
L 118.239352 120.744936 
L 118.239352 120.623855 
L 118.383132 120.623855 
L 118.455021 120.260611 
L 118.526911 120.260611 
L 118.526911 120.13953 
L 119.17392 120.13953 
L 119.17392 119.655206 
L 119.461479 119.655206 
L 119.533369 119.291963 
L 119.892818 119.291963 
L 119.892818 119.170882 
L 120.036598 119.170882 
L 120.108488 118.807639 
L 120.396047 118.807639 
L 120.467937 117.960071 
L 120.539827 117.960071 
L 120.539827 117.717909 
L 120.971166 117.717909 
L 121.043056 117.475747 
L 121.114946 117.475747 
L 121.186836 117.233584 
L 121.258725 117.233584 
L 121.258725 116.991422 
L 121.402505 116.991422 
L 121.402505 116.870341 
L 121.546285 116.870341 
L 121.618175 116.628179 
L 121.833844 116.628179 
L 121.833844 116.143855 
L 122.265183 116.143855 
L 122.337073 115.65953 
L 122.408963 115.65953 
L 122.480853 115.054125 
L 122.552743 115.054125 
L 122.624632 114.811963 
L 122.696522 114.811963 
L 122.696522 114.690882 
L 122.840302 114.690882 
L 122.912192 114.327639 
L 123.055972 114.327639 
L 123.127861 114.085476 
L 123.199751 114.085476 
L 123.199751 113.964395 
L 123.343531 113.964395 
L 123.343531 113.843314 
L 123.487311 113.843314 
L 123.487311 113.722233 
L 123.84676 113.722233 
L 123.84676 113.480071 
L 124.062429 113.480071 
L 124.134319 113.116828 
L 124.278099 113.116828 
L 124.278099 112.995747 
L 124.853218 112.995747 
L 124.853218 112.753584 
L 125.068887 112.753584 
L 125.140777 112.511422 
L 125.212667 112.511422 
L 125.212667 112.390341 
L 125.428336 112.390341 
L 125.428336 112.26926 
L 125.572116 112.26926 
L 125.644006 111.906017 
L 125.715896 111.906017 
L 125.715896 111.784936 
L 125.931565 111.784936 
L 125.931565 111.663855 
L 126.506684 111.663855 
L 126.578574 110.937368 
L 126.722354 110.937368 
L 126.794244 110.574125 
L 126.866133 110.574125 
L 126.866133 110.453044 
L 127.009913 110.453044 
L 127.081803 110.089801 
L 127.369362 110.089801 
L 127.369362 109.847639 
L 127.872591 109.847639 
L 127.944481 109.484395 
L 128.088261 109.484395 
L 128.088261 109.242233 
L 128.44771 109.242233 
L 128.44771 109.121152 
L 128.66338 109.121152 
L 128.66338 109.000071 
L 129.310388 109.000071 
L 129.310388 108.757909 
L 129.454168 108.757909 
L 129.526058 108.394666 
L 130.029287 108.394666 
L 130.101176 108.031422 
L 130.173066 108.031422 
L 130.173066 107.910341 
L 130.460626 107.910341 
L 130.460626 107.78926 
L 130.604405 107.78926 
L 130.604405 107.668179 
L 130.748185 107.668179 
L 130.820075 107.304936 
L 130.891965 107.304936 
L 130.963855 107.062774 
L 131.323304 107.062774 
L 131.323304 106.336287 
L 131.610863 106.336287 
L 131.610863 106.215206 
L 132.042202 106.215206 
L 132.114092 105.851963 
L 132.545431 105.851963 
L 132.545431 105.730882 
L 132.761101 105.730882 
L 132.761101 105.609801 
L 132.90488 105.609801 
L 132.90488 105.48872 
L 133.33622 105.48872 
L 133.33622 105.004395 
L 133.551889 105.004395 
L 133.551889 104.883314 
L 133.839448 104.883314 
L 133.839448 104.520071 
L 134.055118 104.520071 
L 134.055118 104.39899 
L 134.198898 104.39899 
L 134.270788 104.156828 
L 134.414567 104.156828 
L 134.414567 103.914666 
L 134.558347 103.914666 
L 134.558347 103.551422 
L 134.702127 103.551422 
L 134.774016 103.188179 
L 135.349135 103.188179 
L 135.349135 103.067098 
L 135.492915 103.067098 
L 135.492915 102.824936 
L 135.780474 102.824936 
L 135.780474 102.703855 
L 135.924254 102.703855 
L 135.924254 102.461693 
L 136.427483 102.461693 
L 136.427483 102.340611 
L 137.074492 102.340611 
L 137.146381 102.098449 
L 137.433941 102.098449 
L 137.505831 101.493044 
L 137.93717 101.493044 
L 138.00906 101.250882 
L 138.152839 101.250882 
L 138.152839 101.00872 
L 138.512288 101.00872 
L 138.584178 100.645476 
L 138.656068 100.645476 
L 138.656068 100.524395 
L 138.871738 100.524395 
L 138.871738 100.403314 
L 139.231187 100.403314 
L 139.231187 100.282233 
L 139.374967 100.282233 
L 139.374967 100.161152 
L 139.590636 100.161152 
L 139.662526 99.797909 
L 139.806306 99.797909 
L 139.806306 99.676828 
L 140.381424 99.676828 
L 140.381424 99.555747 
L 140.525204 99.555747 
L 140.597094 99.313584 
L 140.668984 99.313584 
L 140.668984 99.192503 
L 141.028433 99.192503 
L 141.028433 99.071422 
L 141.531662 99.071422 
L 141.531662 98.708179 
L 141.819221 98.708179 
L 141.819221 98.466017 
L 142.178671 98.466017 
L 142.178671 98.344936 
L 142.32245 98.344936 
L 142.32245 98.223855 
L 142.969459 98.223855 
L 143.041349 97.618449 
L 143.113239 97.618449 
L 143.185128 97.376287 
L 143.400798 97.376287 
L 143.472688 96.649801 
L 143.616468 96.649801 
L 143.688357 96.407639 
L 143.760247 96.407639 
L 143.760247 96.286557 
L 143.904027 96.286557 
L 143.904027 96.165476 
L 144.047807 96.165476 
L 144.047807 96.044395 
L 144.263476 96.044395 
L 144.335366 95.802233 
L 144.407256 95.802233 
L 144.479146 95.43899 
L 144.838595 95.43899 
L 144.838595 95.317909 
L 145.198044 95.317909 
L 145.198044 95.196828 
L 145.341824 95.196828 
L 145.341824 94.954666 
L 145.916943 94.954666 
L 145.916943 94.833584 
L 146.99529 94.833584 
L 146.99529 94.712503 
L 147.28285 94.712503 
L 147.35474 94.228179 
L 147.426629 94.228179 
L 147.498519 93.864936 
L 147.570409 93.864936 
L 147.570409 93.622774 
L 147.786079 93.622774 
L 147.786079 93.501693 
L 148.001748 93.501693 
L 148.073638 93.25953 
L 148.361197 93.25953 
L 148.433087 93.017368 
L 148.504977 93.017368 
L 148.576867 92.654125 
L 149.080096 92.654125 
L 149.080096 92.533044 
L 149.655215 92.533044 
L 149.655215 92.411963 
L 149.870884 92.411963 
L 149.870884 92.290882 
L 150.230333 92.290882 
L 150.230333 92.169801 
L 150.446003 92.169801 
L 150.446003 91.564395 
L 150.949232 91.564395 
L 151.021122 91.322233 
L 151.093012 91.201152 
L 151.308681 91.201152 
L 151.380571 90.837909 
L 151.95569 90.837909 
L 152.02758 90.474666 
L 152.458919 90.474666 
L 152.458919 90.353584 
L 152.746478 90.353584 
L 152.746478 90.232503 
L 153.177817 90.232503 
L 153.177817 90.111422 
L 153.752936 90.111422 
L 153.824826 89.748179 
L 153.896716 89.748179 
L 153.896716 89.627098 
L 154.040495 89.627098 
L 154.040495 89.384936 
L 154.615614 89.384936 
L 154.615614 89.021693 
L 154.831284 89.021693 
L 154.831284 88.900611 
L 154.975063 88.900611 
L 154.975063 88.658449 
L 155.262623 88.658449 
L 155.334512 88.295206 
L 155.478292 88.295206 
L 155.478292 88.174125 
L 155.622072 88.174125 
L 155.622072 88.053044 
L 155.981521 88.053044 
L 155.981521 87.689801 
L 156.62853 87.689801 
L 156.70042 87.205476 
L 156.987979 87.205476 
L 156.987979 86.963314 
L 157.131759 86.963314 
L 157.131759 86.842233 
L 157.275538 86.842233 
L 157.275538 86.721152 
L 157.491208 86.721152 
L 157.491208 86.600071 
L 157.778767 86.600071 
L 157.850657 86.115747 
L 157.994437 86.115747 
L 158.066327 85.994666 
L 158.066327 85.752503 
L 158.210106 85.752503 
L 158.210106 85.631422 
L 158.425776 85.631422 
L 158.425776 85.38926 
L 158.569556 85.38926 
L 158.569556 85.268179 
L 158.785225 85.268179 
L 158.857115 85.026017 
L 159.000895 85.026017 
L 159.000895 84.904936 
L 159.360344 84.904936 
L 159.432234 84.662774 
L 160.079242 84.662774 
L 160.079242 84.29953 
L 160.223022 84.29953 
L 160.223022 84.178449 
L 160.654361 84.178449 
L 160.654361 84.057368 
L 161.0857 84.057368 
L 161.15759 83.694125 
L 161.37326 83.694125 
L 161.37326 83.573044 
L 161.732709 83.573044 
L 161.804599 83.209801 
L 162.307828 83.209801 
L 162.307828 83.08872 
L 162.523497 83.08872 
L 162.595387 82.725476 
L 162.882946 82.725476 
L 162.954836 82.483314 
L 163.026726 82.483314 
L 163.098616 82.241152 
L 163.314285 82.241152 
L 163.314285 82.120071 
L 163.817514 82.120071 
L 163.889404 81.635747 
L 164.176964 81.635747 
L 164.248853 81.393584 
L 164.823972 81.393584 
L 164.823972 81.272503 
L 165.183421 81.272503 
L 165.255311 80.90926 
L 165.470981 80.90926 
L 165.470981 80.667098 
L 165.83043 80.667098 
L 165.90232 80.424936 
L 165.97421 80.424936 
L 165.97421 80.303855 
L 166.693108 80.303855 
L 166.693108 80.182774 
L 166.836888 80.182774 
L 166.836888 80.061693 
L 167.052557 80.061693 
L 167.052557 79.940611 
L 167.340117 79.940611 
L 167.340117 79.81953 
L 167.483896 79.81953 
L 167.483896 79.698449 
L 168.274685 79.698449 
L 168.346575 79.335206 
L 168.490354 79.335206 
L 168.490354 79.214125 
L 168.921693 79.214125 
L 168.993583 78.971963 
L 169.137363 78.971963 
L 169.209253 78.729801 
L 169.281143 78.729801 
L 169.281143 78.487639 
L 169.712482 78.487639 
L 169.712482 78.366557 
L 169.856261 78.366557 
L 169.856261 78.245476 
L 170.143821 78.245476 
L 170.143821 78.124395 
L 170.64705 78.124395 
L 170.64705 78.003314 
L 171.078389 78.003314 
L 171.078389 77.882233 
L 171.797287 77.882233 
L 171.797287 77.51899 
L 172.228626 77.51899 
L 172.300516 77.276828 
L 172.588076 77.276828 
L 172.659965 77.034666 
L 173.235084 77.034666 
L 173.306974 76.913584 
L 173.522644 76.913584 
L 173.522644 76.792503 
L 173.953983 76.792503 
L 173.953983 76.671422 
L 174.097762 76.671422 
L 174.169652 76.42926 
L 174.241542 76.42926 
L 174.241542 76.187098 
L 174.672881 76.187098 
L 174.672881 76.066017 
L 174.960441 76.066017 
L 175.03233 75.823855 
L 175.17611 75.823855 
L 175.17611 75.702774 
L 175.679339 75.702774 
L 175.679339 75.581693 
L 175.823119 75.581693 
L 175.823119 75.460611 
L 176.038788 75.460611 
L 176.038788 75.218449 
L 176.254458 75.218449 
L 176.254458 74.976287 
L 176.398237 74.976287 
L 176.398237 74.734125 
L 176.973356 74.734125 
L 176.973356 74.613044 
L 177.117136 74.613044 
L 177.117136 74.491963 
L 177.260916 74.491963 
L 177.260916 74.370882 
L 178.267373 74.370882 
L 178.267373 74.007639 
L 178.626823 74.007639 
L 178.626823 73.886557 
L 178.986272 73.886557 
L 178.986272 73.765476 
L 179.561391 73.765476 
L 179.561391 73.644395 
L 179.70517 73.644395 
L 179.70517 73.523314 
L 180.208399 73.523314 
L 180.208399 73.402233 
L 181.071077 73.402233 
L 181.071077 73.281152 
L 181.574306 73.281152 
L 181.574306 73.160071 
L 181.861866 73.160071 
L 181.861866 73.03899 
L 182.077535 73.03899 
L 182.149425 72.796828 
L 182.580764 72.796828 
L 182.652654 72.433584 
L 182.724544 72.433584 
L 182.796434 72.191422 
L 183.012103 72.191422 
L 183.012103 72.070341 
L 183.731002 72.070341 
L 183.731002 71.94926 
L 183.946671 71.94926 
L 183.946671 71.707098 
L 184.090451 71.707098 
L 184.090451 71.464936 
L 184.4499 71.464936 
L 184.4499 71.343855 
L 184.59368 71.343855 
L 184.66557 70.980611 
L 185.815807 70.980611 
L 185.887697 70.617368 
L 186.031477 70.617368 
L 186.031477 70.496287 
L 186.534706 70.496287 
L 186.606596 70.254125 
L 187.109825 70.254125 
L 187.109825 70.133044 
L 188.116282 70.133044 
L 188.188172 69.769801 
L 188.260062 69.769801 
L 188.260062 69.64872 
L 189.19463 69.64872 
L 189.19463 69.527639 
L 189.697859 69.527639 
L 189.697859 69.164395 
L 189.841639 69.164395 
L 189.841639 69.043314 
L 190.129198 69.043314 
L 190.129198 68.922233 
L 190.488647 68.922233 
L 190.488647 68.801152 
L 190.776207 68.801152 
L 190.776207 68.680071 
L 191.135656 68.680071 
L 191.207546 68.437909 
L 191.710775 68.437909 
L 191.710775 68.316828 
L 191.926444 68.316828 
L 191.998334 68.195747 
L 193.579911 68.195747 
L 193.579911 68.074666 
L 194.155029 68.074666 
L 194.155029 67.832503 
L 194.586369 67.832503 
L 194.586369 67.711422 
L 194.873928 67.711422 
L 194.873928 67.590341 
L 195.089597 67.590341 
L 195.089597 67.46926 
L 195.305267 67.46926 
L 195.305267 67.348179 
L 195.449047 67.348179 
L 195.449047 67.227098 
L 195.664716 67.227098 
L 195.664716 67.106017 
L 195.880386 67.106017 
L 195.880386 66.984936 
L 197.461962 66.984936 
L 197.461962 66.863855 
L 197.605742 66.863855 
L 197.605742 66.742774 
L 198.827869 66.742774 
L 198.827869 66.500611 
L 199.115429 66.500611 
L 199.115429 66.37953 
L 199.474878 66.37953 
L 199.474878 66.258449 
L 199.906217 66.258449 
L 199.906217 66.137368 
L 200.409446 66.137368 
L 200.481336 65.895206 
L 201.200234 65.895206 
L 201.200234 65.653044 
L 202.206692 65.653044 
L 202.206692 65.531963 
L 202.422362 65.531963 
L 202.494252 65.289801 
L 202.925591 65.289801 
L 202.925591 65.16872 
L 203.42882 65.16872 
L 203.500709 64.926557 
L 203.572599 64.926557 
L 203.644489 64.684395 
L 203.716379 64.684395 
L 203.788269 64.442233 
L 204.435277 64.442233 
L 204.435277 64.321152 
L 204.866617 64.321152 
L 204.866617 64.200071 
L 206.088744 64.200071 
L 206.088744 63.957909 
L 206.304413 63.957909 
L 206.304413 63.836828 
L 207.095202 63.836828 
L 207.095202 63.715747 
L 207.382761 63.715747 
L 207.382761 63.594666 
L 207.74221 63.594666 
L 207.8141 63.352503 
L 208.461109 63.352503 
L 208.461109 63.110341 
L 208.604889 63.110341 
L 208.604889 62.868179 
L 208.892448 62.868179 
L 208.892448 62.626017 
L 209.251897 62.626017 
L 209.251897 62.504936 
L 209.539457 62.504936 
L 209.539457 62.262774 
L 209.683236 62.262774 
L 209.683236 62.141693 
L 209.970796 62.141693 
L 209.970796 62.020611 
L 210.114575 62.020611 
L 210.186465 61.778449 
L 210.330245 61.778449 
L 210.402135 61.415206 
L 211.480482 61.415206 
L 211.480482 61.294125 
L 211.624262 61.294125 
L 211.624262 61.173044 
L 211.768042 61.173044 
L 211.768042 61.051963 
L 212.127491 61.051963 
L 212.127491 60.930882 
L 212.271271 60.930882 
L 212.271271 60.68872 
L 212.41505 60.68872 
L 212.41505 60.567639 
L 212.7745 60.567639 
L 212.7745 60.446557 
L 213.421508 60.446557 
L 213.493398 60.204395 
L 213.780957 60.204395 
L 213.780957 60.083314 
L 214.068517 60.083314 
L 214.068517 59.962233 
L 214.499856 59.962233 
L 214.571746 59.59899 
L 215.146865 59.59899 
L 215.146865 59.477909 
L 215.865763 59.477909 
L 215.865763 59.356828 
L 216.225212 59.356828 
L 216.225212 59.235747 
L 216.512772 59.235747 
L 216.512772 59.114666 
L 216.728441 59.114666 
L 216.728441 58.993584 
L 216.944111 58.993584 
L 216.944111 58.872503 
L 217.663009 58.872503 
L 217.734899 58.630341 
L 217.806789 58.630341 
L 217.878679 58.388179 
L 218.022458 58.388179 
L 218.022458 58.267098 
L 218.238128 58.267098 
L 218.310018 58.024936 
L 218.525687 58.024936 
L 218.525687 57.903855 
L 218.885137 57.903855 
L 218.885137 57.782774 
L 220.610493 57.782774 
L 220.610493 57.661693 
L 220.826162 57.661693 
L 220.826162 57.540611 
L 221.329391 57.540611 
L 221.329391 57.298449 
L 221.688841 57.298449 
L 221.688841 57.177368 
L 221.83262 57.177368 
L 221.90451 56.814125 
L 222.335849 56.814125 
L 222.407739 56.450882 
L 222.479629 56.450882 
L 222.551519 56.20872 
L 222.839078 56.20872 
L 222.839078 56.087639 
L 223.845536 56.087639 
L 223.845536 55.845476 
L 224.133095 55.845476 
L 224.133095 55.724395 
L 225.499002 55.724395 
L 225.499002 55.603314 
L 225.714672 55.603314 
L 225.714672 55.482233 
L 225.858452 55.482233 
L 225.858452 55.361152 
L 226.074121 55.361152 
L 226.074121 55.11899 
L 226.289791 55.11899 
L 226.289791 54.997909 
L 226.57735 54.997909 
L 226.57735 54.876828 
L 226.79302 54.876828 
L 226.79302 54.513584 
L 227.080579 54.513584 
L 227.080579 54.150341 
L 227.368138 54.150341 
L 227.368138 54.02926 
L 227.799477 54.02926 
L 227.799477 53.787098 
L 228.087037 53.787098 
L 228.087037 53.544936 
L 228.374596 53.544936 
L 228.374596 53.423855 
L 228.949715 53.423855 
L 229.021605 53.181693 
L 229.956173 53.181693 
L 230.028063 52.93953 
L 230.099953 52.93953 
L 230.099953 52.818449 
L 230.603181 52.818449 
L 230.675071 52.576287 
L 231.1783 52.576287 
L 231.25019 52.455206 
L 231.39397 52.455206 
L 231.39397 52.334125 
L 231.969089 52.334125 
L 231.969089 52.213044 
L 232.831767 52.213044 
L 232.831767 52.091963 
L 232.975546 52.091963 
L 232.975546 51.970882 
L 233.406885 51.970882 
L 233.478775 51.607639 
L 233.694445 51.607639 
L 233.694445 51.365476 
L 235.276021 51.365476 
L 235.276021 51.244395 
L 235.85114 51.244395 
L 235.92303 50.881152 
L 236.06681 50.881152 
L 236.06681 50.760071 
L 237.145157 50.760071 
L 237.145157 50.63899 
L 237.792166 50.63899 
L 237.792166 50.517909 
L 237.935946 50.517909 
L 237.935946 50.396828 
L 238.439175 50.396828 
L 238.439175 50.275747 
L 238.582954 50.275747 
L 238.582954 50.033584 
L 238.726734 50.033584 
L 238.726734 49.912503 
L 238.870514 49.912503 
L 238.870514 49.791422 
L 239.517522 49.791422 
L 239.517522 49.670341 
L 239.876972 49.670341 
L 239.876972 49.54926 
L 241.170989 49.54926 
L 241.170989 49.428179 
L 241.314769 49.428179 
L 241.314769 49.307098 
L 241.602328 49.307098 
L 241.602328 49.186017 
L 241.961777 49.186017 
L 241.961777 49.064936 
L 242.465006 49.064936 
L 242.465006 48.943855 
L 243.327684 48.943855 
L 243.327684 48.822774 
L 244.118473 48.822774 
L 244.118473 48.701693 
L 244.334142 48.701693 
L 244.334142 48.580611 
L 244.981151 48.580611 
L 244.981151 48.45953 
L 245.12493 48.45953 
L 245.12493 48.338449 
L 245.628159 48.338449 
L 245.628159 48.096287 
L 246.059498 48.096287 
L 246.059498 47.975206 
L 246.418948 47.975206 
L 246.418948 47.854125 
L 246.850287 47.854125 
L 246.850287 47.733044 
L 248.216194 47.733044 
L 248.288084 47.490882 
L 248.431863 47.490882 
L 248.431863 47.369801 
L 248.575643 47.369801 
L 248.575643 47.24872 
L 250.08533 47.24872 
L 250.08533 47.127639 
L 250.588559 47.127639 
L 250.588559 47.006557 
L 250.876118 47.006557 
L 250.876118 46.885476 
L 252.673364 46.885476 
L 252.673364 46.764395 
L 252.817144 46.764395 
L 252.817144 46.643314 
L 253.967381 46.643314 
L 254.039271 46.280071 
L 254.68628 46.280071 
L 254.68628 46.15899 
L 255.261399 46.15899 
L 255.261399 46.037909 
L 255.405178 46.037909 
L 255.405178 45.916828 
L 255.836517 45.916828 
L 255.836517 45.795747 
L 256.699196 45.795747 
L 256.699196 45.674666 
L 258.280772 45.674666 
L 258.280772 45.553584 
L 259.071561 45.553584 
L 259.071561 45.432503 
L 261.228256 45.432503 
L 261.228256 45.311422 
L 261.587705 45.311422 
L 261.587705 45.190341 
L 261.731485 45.190341 
L 261.803375 44.827098 
L 262.090934 44.827098 
L 262.090934 44.584936 
L 262.378493 44.584936 
L 262.378493 44.342774 
L 264.03196 44.342774 
L 264.03196 44.221693 
L 264.750858 44.221693 
L 264.750858 44.100611 
L 264.966528 44.100611 
L 264.966528 43.97953 
L 266.404325 43.97953 
L 266.404325 43.858449 
L 266.979444 43.858449 
L 266.979444 43.737368 
L 268.057791 43.737368 
L 268.057791 43.616287 
L 268.77669 43.616287 
L 268.77669 43.495206 
L 269.495588 43.495206 
L 269.495588 43.374125 
L 269.639368 43.374125 
L 269.639368 43.253044 
L 270.861495 43.253044 
L 270.861495 43.131963 
L 271.436614 43.131963 
L 271.436614 43.010882 
L 272.155513 43.010882 
L 272.227402 42.76872 
L 272.371182 42.76872 
L 272.371182 42.647639 
L 274.024649 42.647639 
L 274.024649 42.526557 
L 276.325124 42.526557 
L 276.397013 42.284395 
L 277.403471 42.284395 
L 277.403471 42.163314 
L 278.985048 42.163314 
L 278.985048 42.042233 
L 279.488277 42.042233 
L 279.488277 41.921152 
L 279.703946 41.921152 
L 279.703946 41.557909 
L 280.135286 41.557909 
L 280.135286 41.436828 
L 280.854184 41.436828 
L 280.854184 41.315747 
L 281.716862 41.315747 
L 281.716862 41.194666 
L 282.148201 41.194666 
L 282.148201 41.073584 
L 282.72332 41.073584 
L 282.72332 40.952503 
L 283.585998 40.952503 
L 283.585998 40.831422 
L 284.233007 40.831422 
L 284.233007 40.58926 
L 285.670804 40.58926 
L 285.742694 40.347098 
L 287.108601 40.347098 
L 287.108601 40.226017 
L 288.402618 40.226017 
L 288.402618 40.104936 
L 289.193406 40.104936 
L 289.193406 39.862774 
L 289.337186 39.862774 
L 289.337186 39.741693 
L 290.127974 39.741693 
L 290.127974 39.620611 
L 290.846873 39.620611 
L 290.846873 39.378449 
L 291.350102 39.378449 
L 291.350102 39.257368 
L 291.493881 39.257368 
L 291.493881 39.136287 
L 295.519713 39.136287 
L 295.519713 39.015206 
L 296.238611 39.015206 
L 296.238611 38.894125 
L 298.467196 38.894125 
L 298.467196 38.773044 
L 301.055231 38.773044 
L 301.055231 38.651963 
L 301.917909 38.651963 
L 301.917909 38.530882 
L 306.01563 38.530882 
L 306.01563 38.409801 
L 306.878308 38.409801 
L 306.878308 38.28872 
L 307.669097 38.28872 
L 307.669097 38.167639 
L 307.740986 38.167639 
L 313.707844 38.167639 
L 313.707844 38.046557 
L 314.426742 38.046557 
L 314.426742 37.925476 
L 314.858081 37.925476 
L 314.858081 37.804395 
L 315.36131 37.804395 
L 315.36131 37.683314 
L 316.223988 37.683314 
L 316.223988 37.562233 
L 317.733675 37.562233 
L 317.733675 37.441152 
L 320.537379 37.441152 
L 320.537379 37.320071 
L 322.765964 37.320071 
L 322.765964 37.19899 
L 325.353999 37.19899 
L 325.353999 37.077909 
L 326.216677 37.077909 
L 326.216677 36.835747 
L 327.726364 36.835747 
L 327.726364 36.714666 
L 330.242508 36.714666 
L 330.242508 36.593584 
L 330.745737 36.593584 
L 330.745737 36.472503 
L 332.255424 36.472503 
L 332.255424 36.351422 
L 333.477551 36.351422 
L 333.477551 36.230341 
L 333.765111 36.230341 
L 333.765111 36.10926 
L 334.627789 36.10926 
L 334.627789 35.988179 
L 335.131018 35.988179 
L 335.131018 35.867098 
L 337.647162 35.867098 
L 337.647162 35.746017 
L 337.862832 35.746017 
L 337.862832 35.624936 
L 341.888663 35.624936 
L 341.888663 35.503855 
L 349.005758 35.503855 
L 349.005758 35.382774 
L 350.227886 35.382774 
L 350.227886 35.261693 
L 350.874894 35.261693 
L 350.874894 35.140611 
L 352.528361 35.140611 
L 352.528361 35.01953 
L 357.848209 35.01953 
L 357.848209 34.898449 
L 359.286006 34.898449 
L 359.286006 34.777368 
L 361.514591 34.777368 
L 361.514591 34.656287 
L 363.455617 34.656287 
L 363.455617 34.535206 
L 370.572712 34.535206 
L 370.572712 34.414125 
L 386.604148 34.414125 
L 386.604148 34.414125 
" clip-path="url(#p5200f543dd)" style="fill: none; stroke: #1f77b4; stroke-width: 1.5; stroke-linecap: square"/>
   </g>
   <g id="line2d_26">
    <path d="M 61.949602 276.334125 
L 61.949602 271.353419 
L 62.060976 271.353419 
L 62.060976 250.719066 
L 62.17235 250.719066 
L 62.17235 237.911537 
L 62.283724 237.911537 
L 62.283724 235.776949 
L 62.506471 235.776949 
L 62.506471 234.35389 
L 62.617845 234.35389 
L 62.617845 233.64236 
L 62.840592 233.64236 
L 62.840592 232.219301 
L 62.951966 232.219301 
L 62.951966 231.507772 
L 63.174714 231.507772 
L 63.174714 227.950125 
L 63.508835 227.950125 
L 63.508835 227.238596 
L 63.620209 227.238596 
L 63.620209 226.527066 
L 63.731583 226.527066 
L 63.731583 223.680949 
L 63.95433 223.680949 
L 63.95433 222.969419 
L 64.065704 222.969419 
L 64.065704 220.834831 
L 64.399825 220.834831 
L 64.399825 219.411772 
L 64.622573 219.411772 
L 64.622573 218.700243 
L 64.84532 218.700243 
L 64.84532 214.431066 
L 65.068068 214.431066 
L 65.068068 213.719537 
L 65.179442 213.719537 
L 65.179442 211.584949 
L 65.847684 211.584949 
L 65.847684 210.873419 
L 65.959058 210.873419 
L 65.959058 209.45036 
L 66.070432 209.45036 
L 66.070432 208.027301 
L 66.293179 208.027301 
L 66.293179 207.315772 
L 66.627301 207.315772 
L 66.627301 206.604243 
L 66.850048 206.604243 
L 66.850048 203.758125 
L 66.961422 203.758125 
L 66.961422 202.335066 
L 67.072796 202.335066 
L 67.072796 201.623537 
L 67.741038 201.623537 
L 67.741038 200.912007 
L 67.852412 200.912007 
L 67.852412 200.200478 
L 67.963786 200.200478 
L 67.963786 199.488949 
L 68.07516 199.488949 
L 68.07516 198.777419 
L 68.186534 198.777419 
L 68.186534 197.35436 
L 68.297907 197.35436 
L 68.297907 196.642831 
L 68.409281 196.642831 
L 68.409281 195.219772 
L 68.520655 195.219772 
L 68.520655 194.508243 
L 68.632029 194.508243 
L 68.632029 193.796713 
L 69.188897 193.796713 
L 69.188897 193.085184 
L 69.300271 193.085184 
L 69.300271 192.373654 
L 70.079888 192.373654 
L 70.079888 190.950596 
L 70.191261 190.950596 
L 70.191261 190.239066 
L 70.859504 190.239066 
L 70.859504 188.104478 
L 71.082252 188.104478 
L 71.082252 187.392949 
L 71.304999 187.392949 
L 71.304999 186.681419 
L 71.63912 186.681419 
L 71.63912 185.96989 
L 71.750494 185.96989 
L 71.750494 185.25836 
L 71.861868 185.25836 
L 71.861868 184.546831 
L 71.973242 184.546831 
L 71.973242 183.835301 
L 72.307363 183.835301 
L 72.307363 183.123772 
L 72.530111 183.123772 
L 72.530111 182.412243 
L 72.752858 182.412243 
L 72.752858 180.989184 
L 73.086979 180.989184 
L 73.086979 179.566125 
L 74.200717 179.566125 
L 74.200717 178.854596 
L 74.423465 178.854596 
L 74.423465 178.143066 
L 74.534839 178.143066 
L 74.534839 177.431537 
L 74.646212 177.431537 
L 74.646212 176.720007 
L 75.314455 176.720007 
L 75.314455 176.008478 
L 75.537202 176.008478 
L 75.537202 175.296949 
L 76.316819 175.296949 
L 76.316819 174.585419 
L 76.428193 174.585419 
L 76.428193 173.87389 
L 76.65094 173.87389 
L 76.65094 173.16236 
L 76.873688 173.16236 
L 76.873688 172.450831 
L 76.985061 172.450831 
L 76.985061 171.739301 
L 77.096435 171.739301 
L 77.096435 171.027772 
L 77.430557 171.027772 
L 77.430557 170.316243 
L 77.653304 170.316243 
L 77.653304 168.893184 
L 78.210173 168.893184 
L 78.210173 168.181654 
L 78.432921 168.181654 
L 78.432921 167.470125 
L 78.655668 167.470125 
L 78.655668 166.758596 
L 78.767042 166.758596 
L 78.767042 166.047066 
L 79.212537 166.047066 
L 79.212537 164.624007 
L 79.769406 164.624007 
L 79.769406 163.912478 
L 80.326275 163.912478 
L 80.326275 163.200949 
L 80.437648 163.200949 
L 80.437648 162.489419 
L 80.660396 162.489419 
L 80.660396 161.77789 
L 80.77177 161.77789 
L 80.77177 161.06636 
L 81.440012 161.06636 
L 81.440012 160.354831 
L 82.55375 160.354831 
L 82.55375 159.643301 
L 84.781226 159.643301 
L 84.781226 158.220243 
L 84.892599 158.220243 
L 84.892599 156.797184 
L 85.449468 156.797184 
L 85.449468 156.085654 
L 86.785953 156.085654 
L 86.785953 154.662596 
L 86.897327 154.662596 
L 86.897327 153.951066 
L 88.122439 153.951066 
L 88.122439 152.528007 
L 88.233812 152.528007 
L 88.233812 151.816478 
L 88.679308 151.816478 
L 88.679308 151.104949 
L 89.013429 151.104949 
L 89.013429 150.393419 
L 89.904419 150.393419 
L 89.904419 149.68189 
L 90.127167 149.68189 
L 90.127167 148.97036 
L 90.349914 148.97036 
L 90.349914 148.258831 
L 90.906783 148.258831 
L 90.906783 147.547301 
L 91.352278 147.547301 
L 91.352278 146.124243 
L 95.695855 146.124243 
L 95.695855 145.412713 
L 96.698219 145.412713 
L 96.698219 143.989654 
L 96.809593 143.989654 
L 96.809593 143.278125 
L 97.03234 143.278125 
L 97.03234 142.566596 
L 97.477836 142.566596 
L 97.477836 141.855066 
L 98.480199 141.855066 
L 98.480199 141.143537 
L 103.157898 141.143537 
L 103.157898 140.432007 
L 105.162626 140.432007 
L 105.162626 139.720478 
L 106.276364 139.720478 
L 106.276364 139.008949 
L 106.944606 139.008949 
L 106.944606 138.297419 
L 107.612849 138.297419 
L 107.612849 137.58589 
L 107.724223 137.58589 
L 107.724223 135.451301 
L 108.169718 135.451301 
L 108.169718 134.739772 
L 108.726587 134.739772 
L 108.726587 134.028243 
L 108.83796 134.028243 
L 108.83796 133.316713 
L 110.285819 133.316713 
L 110.285819 132.605184 
L 110.842688 132.605184 
L 110.842688 131.893654 
L 111.399557 131.893654 
L 111.399557 130.470596 
L 111.733678 130.470596 
L 111.733678 129.759066 
L 112.847416 129.759066 
L 112.847416 129.047537 
L 113.292911 129.047537 
L 113.292911 127.624478 
L 114.183901 127.624478 
L 114.183901 126.912949 
L 114.74077 126.912949 
L 114.74077 126.201419 
L 116.634124 126.201419 
L 116.634124 125.48989 
L 117.190993 125.48989 
L 117.190993 124.77836 
L 117.525115 124.77836 
L 117.525115 124.066831 
L 118.193357 124.066831 
L 118.193357 122.643772 
L 119.975337 122.643772 
L 119.975337 121.932243 
L 120.420833 121.932243 
L 120.420833 121.220713 
L 120.977701 121.220713 
L 120.977701 120.509184 
L 121.311823 120.509184 
L 121.311823 119.797654 
L 121.423197 119.797654 
L 121.423197 119.086125 
L 123.205177 119.086125 
L 123.205177 118.374596 
L 125.432652 118.374596 
L 125.432652 117.663066 
L 130.221725 117.663066 
L 130.221725 116.951537 
L 131.446836 116.951537 
L 131.446836 116.240007 
L 131.780957 116.240007 
L 131.780957 115.528478 
L 132.115079 115.528478 
L 132.115079 114.816949 
L 133.34019 114.816949 
L 133.34019 114.105419 
L 134.008433 114.105419 
L 134.008433 113.39389 
L 134.119807 113.39389 
L 134.119807 112.68236 
L 134.23118 112.68236 
L 134.23118 111.970831 
L 134.788049 111.970831 
L 134.788049 111.259301 
L 135.679039 111.259301 
L 135.679039 110.547772 
L 136.347282 110.547772 
L 136.347282 109.836243 
L 136.904151 109.836243 
L 136.904151 108.413184 
L 137.683767 108.413184 
L 137.683767 106.990125 
L 138.017889 106.990125 
L 138.017889 105.567066 
L 138.240636 105.567066 
L 138.240636 104.855537 
L 139.688495 104.855537 
L 139.688495 104.144007 
L 140.690859 104.144007 
L 140.690859 103.432478 
L 144.588941 103.432478 
L 144.588941 102.720949 
L 144.811689 102.720949 
L 144.811689 102.009419 
L 147.373285 102.009419 
L 147.373285 101.29789 
L 147.930154 101.29789 
L 147.930154 100.58636 
L 148.598397 100.58636 
L 148.598397 99.874831 
L 149.378013 99.874831 
L 149.378013 99.163301 
L 150.714499 99.163301 
L 150.714499 98.451772 
L 151.93961 98.451772 
L 151.93961 97.740243 
L 152.273731 97.740243 
L 152.273731 97.028713 
L 154.055712 97.028713 
L 154.055712 96.317184 
L 157.174177 96.317184 
L 157.174177 95.605654 
L 158.287915 95.605654 
L 158.287915 94.894125 
L 159.513027 94.894125 
L 159.513027 94.182596 
L 163.74523 94.182596 
L 163.74523 93.471066 
L 164.413473 93.471066 
L 164.413473 92.759537 
L 166.529574 92.759537 
L 166.529574 92.048007 
L 166.752322 92.048007 
L 166.752322 91.336478 
L 167.086443 91.336478 
L 167.086443 90.624949 
L 167.420564 90.624949 
L 167.420564 89.913419 
L 168.088807 89.913419 
L 168.088807 89.20189 
L 168.200181 89.20189 
L 168.200181 88.49036 
L 169.536666 88.49036 
L 169.536666 87.778831 
L 169.870787 87.778831 
L 169.870787 87.067301 
L 174.882607 87.067301 
L 174.882607 85.644243 
L 175.439476 85.644243 
L 175.439476 84.932713 
L 175.662224 84.932713 
L 175.662224 84.221184 
L 176.553214 84.221184 
L 176.553214 83.509654 
L 179.11481 83.509654 
L 179.11481 82.798125 
L 179.337558 82.798125 
L 179.337558 82.086596 
L 179.894427 82.086596 
L 179.894427 81.375066 
L 182.456024 81.375066 
L 182.456024 80.663537 
L 183.458388 80.663537 
L 183.458388 79.952007 
L 185.351742 79.952007 
L 185.351742 79.240478 
L 185.908611 79.240478 
L 185.908611 77.817419 
L 188.24746 77.817419 
L 188.24746 77.10589 
L 188.915702 77.10589 
L 188.915702 76.39436 
L 189.027076 76.39436 
L 189.027076 75.682831 
L 190.140814 75.682831 
L 190.140814 74.971301 
L 190.697683 74.971301 
L 190.697683 74.259772 
L 193.704775 74.259772 
L 193.704775 73.548243 
L 197.71423 73.548243 
L 197.71423 72.836713 
L 199.162089 72.836713 
L 199.162089 72.125184 
L 202.391929 72.125184 
L 202.391929 71.413654 
L 208.962981 71.413654 
L 208.962981 70.702125 
L 211.858699 70.702125 
L 211.858699 69.990596 
L 218.318378 69.990596 
L 218.318378 69.279066 
L 219.654863 69.279066 
L 219.654863 68.567537 
L 220.323106 68.567537 
L 220.323106 67.856007 
L 220.879975 67.856007 
L 220.879975 66.432949 
L 222.327834 66.432949 
L 222.327834 65.721419 
L 223.330198 65.721419 
L 223.330198 65.00989 
L 223.552945 65.00989 
L 223.552945 64.29836 
L 224.109814 64.29836 
L 224.109814 63.586831 
L 225.223552 63.586831 
L 225.223552 62.875301 
L 226.114542 62.875301 
L 226.114542 62.163772 
L 227.005532 62.163772 
L 227.005532 61.452243 
L 227.116906 61.452243 
L 227.116906 60.740713 
L 227.673775 60.740713 
L 227.673775 60.029184 
L 229.455755 60.029184 
L 229.455755 59.317654 
L 229.678503 59.317654 
L 229.678503 58.606125 
L 230.346746 58.606125 
L 230.346746 57.894596 
L 231.237736 57.894596 
L 231.237736 57.183066 
L 233.465211 57.183066 
L 233.465211 55.760007 
L 233.910706 55.760007 
L 233.910706 55.048478 
L 234.133454 55.048478 
L 234.133454 54.336949 
L 234.244828 54.336949 
L 234.244828 53.625419 
L 240.481759 53.625419 
L 240.481759 52.91389 
L 243.488851 52.91389 
L 243.488851 52.20236 
L 245.939074 52.20236 
L 245.939074 51.490831 
L 249.837156 51.490831 
L 249.837156 50.779301 
L 253.178369 50.779301 
L 253.178369 50.067772 
L 254.069359 50.067772 
L 254.069359 49.356243 
L 255.628592 49.356243 
L 255.628592 48.644713 
L 258.52431 48.644713 
L 258.52431 47.933184 
L 259.526674 47.933184 
L 259.526674 47.221654 
L 263.758877 47.221654 
L 263.758877 46.510125 
L 267.211464 46.510125 
L 267.211464 45.798596 
L 272.891526 45.798596 
L 272.891526 45.087066 
L 277.457851 45.087066 
L 277.457851 44.375537 
L 279.128458 44.375537 
L 279.128458 43.664007 
L 285.031268 43.664007 
L 285.031268 42.952478 
L 285.922258 42.952478 
L 285.922258 42.240949 
L 295.611776 42.240949 
L 295.611776 41.529419 
L 296.725514 41.529419 
L 296.725514 40.81789 
L 297.171009 40.81789 
L 297.171009 40.10636 
L 302.51695 40.10636 
L 302.51695 39.394831 
L 308.976629 39.394831 
L 308.976629 38.683301 
L 315.659055 38.683301 
L 315.659055 37.971772 
L 319.557137 37.971772 
L 319.557137 37.260243 
L 326.12819 37.260243 
L 326.12819 36.548713 
L 331.140009 36.548713 
L 331.140009 35.837184 
L 333.256111 35.837184 
L 333.256111 35.125654 
L 366.445495 35.125654 
L 366.445495 34.414125 
L 386.604148 34.414125 
L 386.604148 34.414125 
" clip-path="url(#p5200f543dd)" style="fill: none; stroke: #ff7f0e; stroke-width: 1.5; stroke-linecap: square"/>
   </g>
   <g id="line2d_27">
    <path d="M 61.949602 276.334125 
L 386.604148 34.414125 
" clip-path="url(#p5200f543dd)" style="fill: none; stroke-dasharray: 7.4,3.2; stroke-dashoffset: 0; stroke: #808080; stroke-width: 2"/>
   </g>
   <g id="patch_3">
    <path d="M 45.716875 288.430125 
L 45.716875 22.318125 
" style="fill: none; stroke: #000000; stroke-width: 0.8; stroke-linejoin: miter; stroke-linecap: square"/>
   </g>
   <g id="patch_4">
    <path d="M 402.836875 288.430125 
L 402.836875 22.318125 
" style="fill: none; stroke: #000000; stroke-width: 0.8; stroke-linejoin: miter; stroke-linecap: square"/>
   </g>
   <g id="patch_5">
    <path d="M 45.716875 288.430125 
L 402.836875 288.430125 
" style="fill: none; stroke: #000000; stroke-width: 0.8; stroke-linejoin: miter; stroke-linecap: square"/>
   </g>
   <g id="patch_6">
    <path d="M 45.716875 22.318125 
L 402.836875 22.318125 
" style="fill: none; stroke: #000000; stroke-width: 0.8; stroke-linejoin: miter; stroke-linecap: square"/>
   </g>
   <g id="text_15">
    <!-- ROC Curve: L -->
    <g transform="translate(184.315 16.318125) scale(0.12 -0.12)">
     <defs>
      <path id="DejaVuSans-4f" d="M 2522 4238 
Q 1834 4238 1429 3725 
Q 1025 3213 1025 2328 
Q 1025 1447 1429 934 
Q 1834 422 2522 422 
Q 3209 422 3611 934 
Q 4013 1447 4013 2328 
Q 4013 3213 3611 3725 
Q 3209 4238 2522 4238 
z
M 2522 4750 
Q 3503 4750 4090 4092 
Q 4678 3434 4678 2328 
Q 4678 1225 4090 567 
Q 3503 -91 2522 -91 
Q 1538 -91 948 565 
Q 359 1222 359 2328 
Q 359 3434 948 4092 
Q 1538 4750 2522 4750 
z
" transform="scale(0.015625)"/>
      <path id="DejaVuSans-43" d="M 4122 4306 
L 4122 3641 
Q 3803 3938 3442 4084 
Q 3081 4231 2675 4231 
Q 1875 4231 1450 3742 
Q 1025 3253 1025 2328 
Q 1025 1406 1450 917 
Q 1875 428 2675 428 
Q 3081 428 3442 575 
Q 3803 722 4122 1019 
L 4122 359 
Q 3791 134 3420 21 
Q 3050 -91 2638 -91 
Q 1578 -91 968 557 
Q 359 1206 359 2328 
Q 359 3453 968 4101 
Q 1578 4750 2638 4750 
Q 3056 4750 3426 4639 
Q 3797 4528 4122 4306 
z
" transform="scale(0.015625)"/>
      <path id="DejaVuSans-3a" d="M 750 794 
L 1409 794 
L 1409 0 
L 750 0 
L 750 794 
z
M 750 3309 
L 1409 3309 
L 1409 2516 
L 750 2516 
L 750 3309 
z
" transform="scale(0.015625)"/>
      <path id="DejaVuSans-4c" d="M 628 4666 
L 1259 4666 
L 1259 531 
L 3531 531 
L 3531 0 
L 628 0 
L 628 4666 
z
" transform="scale(0.015625)"/>
     </defs>
     <use xlink:href="#DejaVuSans-52"/>
     <use xlink:href="#DejaVuSans-4f" x="69.482422"/>
     <use xlink:href="#DejaVuSans-43" x="148.193359"/>
     <use xlink:href="#DejaVuSans-20" x="218.017578"/>
     <use xlink:href="#DejaVuSans-43" x="249.804688"/>
     <use xlink:href="#DejaVuSans-75" x="319.628906"/>
     <use xlink:href="#DejaVuSans-72" x="383.007812"/>
     <use xlink:href="#DejaVuSans-76" x="424.121094"/>
     <use xlink:href="#DejaVuSans-65" x="483.300781"/>
     <use xlink:href="#DejaVuSans-3a" x="544.824219"/>
     <use xlink:href="#DejaVuSans-20" x="578.515625"/>
     <use xlink:href="#DejaVuSans-4c" x="610.302734"/>
    </g>
   </g>
   <g id="legend_1">
    <g id="patch_7">
     <path d="M 168.65875 283.430125 
L 395.836875 283.430125 
Q 397.836875 283.430125 397.836875 281.430125 
L 397.836875 238.39575 
Q 397.836875 236.39575 395.836875 236.39575 
L 168.65875 236.39575 
Q 166.65875 236.39575 166.65875 238.39575 
L 166.65875 281.430125 
Q 166.65875 283.430125 168.65875 283.430125 
z
" style="fill: #ffffff; opacity: 0.8; stroke: #cccccc; stroke-linejoin: miter"/>
    </g>
    <g id="line2d_28">
     <path d="M 170.65875 244.494187 
L 180.65875 244.494187 
L 190.65875 244.494187 
" style="fill: none; stroke: #1f77b4; stroke-width: 1.5; stroke-linecap: square"/>
    </g>
    <g id="text_16">
     <!-- ROC Curve - Male (AUC = 0.830588) -->
     <g transform="translate(198.65875 247.994187) scale(0.1 -0.1)">
      <defs>
       <path id="DejaVuSans-2d" d="M 313 2009 
L 1997 2009 
L 1997 1497 
L 313 1497 
L 313 2009 
z
" transform="scale(0.015625)"/>
       <path id="DejaVuSans-4d" d="M 628 4666 
L 1569 4666 
L 2759 1491 
L 3956 4666 
L 4897 4666 
L 4897 0 
L 4281 0 
L 4281 4097 
L 3078 897 
L 2444 897 
L 1241 4097 
L 1241 0 
L 628 0 
L 628 4666 
z
" transform="scale(0.015625)"/>
       <path id="DejaVuSans-28" d="M 1984 4856 
Q 1566 4138 1362 3434 
Q 1159 2731 1159 2009 
Q 1159 1288 1364 580 
Q 1569 -128 1984 -844 
L 1484 -844 
Q 1016 -109 783 600 
Q 550 1309 550 2009 
Q 550 2706 781 3412 
Q 1013 4119 1484 4856 
L 1984 4856 
z
" transform="scale(0.015625)"/>
       <path id="DejaVuSans-41" d="M 2188 4044 
L 1331 1722 
L 3047 1722 
L 2188 4044 
z
M 1831 4666 
L 2547 4666 
L 4325 0 
L 3669 0 
L 3244 1197 
L 1141 1197 
L 716 0 
L 50 0 
L 1831 4666 
z
" transform="scale(0.015625)"/>
       <path id="DejaVuSans-55" d="M 556 4666 
L 1191 4666 
L 1191 1831 
Q 1191 1081 1462 751 
Q 1734 422 2344 422 
Q 2950 422 3222 751 
Q 3494 1081 3494 1831 
L 3494 4666 
L 4128 4666 
L 4128 1753 
Q 4128 841 3676 375 
Q 3225 -91 2344 -91 
Q 1459 -91 1007 375 
Q 556 841 556 1753 
L 556 4666 
z
" transform="scale(0.015625)"/>
       <path id="DejaVuSans-3d" d="M 678 2906 
L 4684 2906 
L 4684 2381 
L 678 2381 
L 678 2906 
z
M 678 1631 
L 4684 1631 
L 4684 1100 
L 678 1100 
L 678 1631 
z
" transform="scale(0.015625)"/>
       <path id="DejaVuSans-33" d="M 2597 2516 
Q 3050 2419 3304 2112 
Q 3559 1806 3559 1356 
Q 3559 666 3084 287 
Q 2609 -91 1734 -91 
Q 1441 -91 1130 -33 
Q 819 25 488 141 
L 488 750 
Q 750 597 1062 519 
Q 1375 441 1716 441 
Q 2309 441 2620 675 
Q 2931 909 2931 1356 
Q 2931 1769 2642 2001 
Q 2353 2234 1838 2234 
L 1294 2234 
L 1294 2753 
L 1863 2753 
Q 2328 2753 2575 2939 
Q 2822 3125 2822 3475 
Q 2822 3834 2567 4026 
Q 2313 4219 1838 4219 
Q 1578 4219 1281 4162 
Q 984 4106 628 3988 
L 628 4550 
Q 988 4650 1302 4700 
Q 1616 4750 1894 4750 
Q 2613 4750 3031 4423 
Q 3450 4097 3450 3541 
Q 3450 3153 3228 2886 
Q 3006 2619 2597 2516 
z
" transform="scale(0.015625)"/>
       <path id="DejaVuSans-35" d="M 691 4666 
L 3169 4666 
L 3169 4134 
L 1269 4134 
L 1269 2991 
Q 1406 3038 1543 3061 
Q 1681 3084 1819 3084 
Q 2600 3084 3056 2656 
Q 3513 2228 3513 1497 
Q 3513 744 3044 326 
Q 2575 -91 1722 -91 
Q 1428 -91 1123 -41 
Q 819 9 494 109 
L 494 744 
Q 775 591 1075 516 
Q 1375 441 1709 441 
Q 2250 441 2565 725 
Q 2881 1009 2881 1497 
Q 2881 1984 2565 2268 
Q 2250 2553 1709 2553 
Q 1456 2553 1204 2497 
Q 953 2441 691 2322 
L 691 4666 
z
" transform="scale(0.015625)"/>
       <path id="DejaVuSans-29" d="M 513 4856 
L 1013 4856 
Q 1481 4119 1714 3412 
Q 1947 2706 1947 2009 
Q 1947 1309 1714 600 
Q 1481 -109 1013 -844 
L 513 -844 
Q 928 -128 1133 580 
Q 1338 1288 1338 2009 
Q 1338 2731 1133 3434 
Q 928 4138 513 4856 
z
" transform="scale(0.015625)"/>
      </defs>
      <use xlink:href="#DejaVuSans-52"/>
      <use xlink:href="#DejaVuSans-4f" x="69.482422"/>
      <use xlink:href="#DejaVuSans-43" x="148.193359"/>
      <use xlink:href="#DejaVuSans-20" x="218.017578"/>
      <use xlink:href="#DejaVuSans-43" x="249.804688"/>
      <use xlink:href="#DejaVuSans-75" x="319.628906"/>
      <use xlink:href="#DejaVuSans-72" x="383.007812"/>
      <use xlink:href="#DejaVuSans-76" x="424.121094"/>
      <use xlink:href="#DejaVuSans-65" x="483.300781"/>
      <use xlink:href="#DejaVuSans-20" x="544.824219"/>
      <use xlink:href="#DejaVuSans-2d" x="576.611328"/>
      <use xlink:href="#DejaVuSans-20" x="612.695312"/>
      <use xlink:href="#DejaVuSans-4d" x="644.482422"/>
      <use xlink:href="#DejaVuSans-61" x="730.761719"/>
      <use xlink:href="#DejaVuSans-6c" x="792.041016"/>
      <use xlink:href="#DejaVuSans-65" x="819.824219"/>
      <use xlink:href="#DejaVuSans-20" x="881.347656"/>
      <use xlink:href="#DejaVuSans-28" x="913.134766"/>
      <use xlink:href="#DejaVuSans-41" x="952.148438"/>
      <use xlink:href="#DejaVuSans-55" x="1020.556641"/>
      <use xlink:href="#DejaVuSans-43" x="1093.75"/>
      <use xlink:href="#DejaVuSans-20" x="1163.574219"/>
      <use xlink:href="#DejaVuSans-3d" x="1195.361328"/>
      <use xlink:href="#DejaVuSans-20" x="1279.150391"/>
      <use xlink:href="#DejaVuSans-30" x="1310.9375"/>
      <use xlink:href="#DejaVuSans-2e" x="1374.560547"/>
      <use xlink:href="#DejaVuSans-38" x="1406.347656"/>
      <use xlink:href="#DejaVuSans-33" x="1469.970703"/>
      <use xlink:href="#DejaVuSans-30" x="1533.59375"/>
      <use xlink:href="#DejaVuSans-35" x="1597.216797"/>
      <use xlink:href="#DejaVuSans-38" x="1660.839844"/>
      <use xlink:href="#DejaVuSans-38" x="1724.462891"/>
      <use xlink:href="#DejaVuSans-29" x="1788.085938"/>
     </g>
    </g>
    <g id="line2d_29">
     <path d="M 170.65875 259.172312 
L 180.65875 259.172312 
L 190.65875 259.172312 
" style="fill: none; stroke: #ff7f0e; stroke-width: 1.5; stroke-linecap: square"/>
    </g>
    <g id="text_17">
     <!-- ROC Curve - Female (AUC = 0.820772) -->
     <g transform="translate(198.65875 262.672312) scale(0.1 -0.1)">
      <defs>
       <path id="DejaVuSans-6d" d="M 3328 2828 
Q 3544 3216 3844 3400 
Q 4144 3584 4550 3584 
Q 5097 3584 5394 3201 
Q 5691 2819 5691 2113 
L 5691 0 
L 5113 0 
L 5113 2094 
Q 5113 2597 4934 2840 
Q 4756 3084 4391 3084 
Q 3944 3084 3684 2787 
Q 3425 2491 3425 1978 
L 3425 0 
L 2847 0 
L 2847 2094 
Q 2847 2600 2669 2842 
Q 2491 3084 2119 3084 
Q 1678 3084 1418 2786 
Q 1159 2488 1159 1978 
L 1159 0 
L 581 0 
L 581 3500 
L 1159 3500 
L 1159 2956 
Q 1356 3278 1631 3431 
Q 1906 3584 2284 3584 
Q 2666 3584 2933 3390 
Q 3200 3197 3328 2828 
z
" transform="scale(0.015625)"/>
       <path id="DejaVuSans-37" d="M 525 4666 
L 3525 4666 
L 3525 4397 
L 1831 0 
L 1172 0 
L 2766 4134 
L 525 4134 
L 525 4666 
z
" transform="scale(0.015625)"/>
      </defs>
      <use xlink:href="#DejaVuSans-52"/>
      <use xlink:href="#DejaVuSans-4f" x="69.482422"/>
      <use xlink:href="#DejaVuSans-43" x="148.193359"/>
      <use xlink:href="#DejaVuSans-20" x="218.017578"/>
      <use xlink:href="#DejaVuSans-43" x="249.804688"/>
      <use xlink:href="#DejaVuSans-75" x="319.628906"/>
      <use xlink:href="#DejaVuSans-72" x="383.007812"/>
      <use xlink:href="#DejaVuSans-76" x="424.121094"/>
      <use xlink:href="#DejaVuSans-65" x="483.300781"/>
      <use xlink:href="#DejaVuSans-20" x="544.824219"/>
      <use xlink:href="#DejaVuSans-2d" x="576.611328"/>
      <use xlink:href="#DejaVuSans-20" x="612.695312"/>
      <use xlink:href="#DejaVuSans-46" x="644.482422"/>
      <use xlink:href="#DejaVuSans-65" x="696.501953"/>
      <use xlink:href="#DejaVuSans-6d" x="758.025391"/>
      <use xlink:href="#DejaVuSans-61" x="855.4375"/>
      <use xlink:href="#DejaVuSans-6c" x="916.716797"/>
      <use xlink:href="#DejaVuSans-65" x="944.5"/>
      <use xlink:href="#DejaVuSans-20" x="1006.023438"/>
      <use xlink:href="#DejaVuSans-28" x="1037.810547"/>
      <use xlink:href="#DejaVuSans-41" x="1076.824219"/>
      <use xlink:href="#DejaVuSans-55" x="1145.232422"/>
      <use xlink:href="#DejaVuSans-43" x="1218.425781"/>
      <use xlink:href="#DejaVuSans-20" x="1288.25"/>
      <use xlink:href="#DejaVuSans-3d" x="1320.037109"/>
      <use xlink:href="#DejaVuSans-20" x="1403.826172"/>
      <use xlink:href="#DejaVuSans-30" x="1435.613281"/>
      <use xlink:href="#DejaVuSans-2e" x="1499.236328"/>
      <use xlink:href="#DejaVuSans-38" x="1531.023438"/>
      <use xlink:href="#DejaVuSans-32" x="1594.646484"/>
      <use xlink:href="#DejaVuSans-30" x="1658.269531"/>
      <use xlink:href="#DejaVuSans-37" x="1721.892578"/>
      <use xlink:href="#DejaVuSans-37" x="1785.515625"/>
      <use xlink:href="#DejaVuSans-32" x="1849.138672"/>
      <use xlink:href="#DejaVuSans-29" x="1912.761719"/>
     </g>
    </g>
    <g id="line2d_30">
     <path d="M 170.65875 273.850437 
L 180.65875 273.850437 
L 190.65875 273.850437 
" style="fill: none; stroke-dasharray: 7.4,3.2; stroke-dashoffset: 0; stroke: #808080; stroke-width: 2"/>
    </g>
    <g id="text_18">
     <!-- Random Guess -->
     <g transform="translate(198.65875 277.350437) scale(0.1 -0.1)">
      <defs>
       <path id="DejaVuSans-6e" d="M 3513 2113 
L 3513 0 
L 2938 0 
L 2938 2094 
Q 2938 2591 2744 2837 
Q 2550 3084 2163 3084 
Q 1697 3084 1428 2787 
Q 1159 2491 1159 1978 
L 1159 0 
L 581 0 
L 581 3500 
L 1159 3500 
L 1159 2956 
Q 1366 3272 1645 3428 
Q 1925 3584 2291 3584 
Q 2894 3584 3203 3211 
Q 3513 2838 3513 2113 
z
" transform="scale(0.015625)"/>
       <path id="DejaVuSans-64" d="M 2906 2969 
L 2906 4863 
L 3481 4863 
L 3481 0 
L 2906 0 
L 2906 525 
Q 2725 213 2448 61 
Q 2172 -91 1784 -91 
Q 1150 -91 751 415 
Q 353 922 353 1747 
Q 353 2572 751 3078 
Q 1150 3584 1784 3584 
Q 2172 3584 2448 3432 
Q 2725 3281 2906 2969 
z
M 947 1747 
Q 947 1113 1208 752 
Q 1469 391 1925 391 
Q 2381 391 2643 752 
Q 2906 1113 2906 1747 
Q 2906 2381 2643 2742 
Q 2381 3103 1925 3103 
Q 1469 3103 1208 2742 
Q 947 2381 947 1747 
z
" transform="scale(0.015625)"/>
       <path id="DejaVuSans-47" d="M 3809 666 
L 3809 1919 
L 2778 1919 
L 2778 2438 
L 4434 2438 
L 4434 434 
Q 4069 175 3628 42 
Q 3188 -91 2688 -91 
Q 1594 -91 976 548 
Q 359 1188 359 2328 
Q 359 3472 976 4111 
Q 1594 4750 2688 4750 
Q 3144 4750 3555 4637 
Q 3966 4525 4313 4306 
L 4313 3634 
Q 3963 3931 3569 4081 
Q 3175 4231 2741 4231 
Q 1884 4231 1454 3753 
Q 1025 3275 1025 2328 
Q 1025 1384 1454 906 
Q 1884 428 2741 428 
Q 3075 428 3337 486 
Q 3600 544 3809 666 
z
" transform="scale(0.015625)"/>
      </defs>
      <use xlink:href="#DejaVuSans-52"/>
      <use xlink:href="#DejaVuSans-61" x="67.232422"/>
      <use xlink:href="#DejaVuSans-6e" x="128.511719"/>
      <use xlink:href="#DejaVuSans-64" x="191.890625"/>
      <use xlink:href="#DejaVuSans-6f" x="255.367188"/>
      <use xlink:href="#DejaVuSans-6d" x="316.548828"/>
      <use xlink:href="#DejaVuSans-20" x="413.960938"/>
      <use xlink:href="#DejaVuSans-47" x="445.748047"/>
      <use xlink:href="#DejaVuSans-75" x="523.238281"/>
      <use xlink:href="#DejaVuSans-65" x="586.617188"/>
      <use xlink:href="#DejaVuSans-73" x="648.140625"/>
      <use xlink:href="#DejaVuSans-73" x="700.240234"/>
     </g>
    </g>
   </g>
  </g>
 </g>
 <defs>
  <clipPath id="p5200f543dd">
   <rect x="45.716875" y="22.318125" width="357.12" height="266.112"/>
  </clipPath>
 </defs>
</svg>
