<?xml version="1.0" encoding="utf-8" standalone="no"?>
<!DOCTYPE svg PUBLIC "-//W3C//DTD SVG 1.1//EN"
  "http://www.w3.org/Graphics/SVG/1.1/DTD/svg11.dtd">
<svg xmlns:xlink="http://www.w3.org/1999/xlink" width="610.916875pt" height="283.57pt" viewBox="0 0 610.916875 283.57" xmlns="http://www.w3.org/2000/svg" version="1.1">
 <metadata>
  <rdf:RDF xmlns:dc="http://purl.org/dc/elements/1.1/" xmlns:cc="http://creativecommons.org/ns#" xmlns:rdf="http://www.w3.org/1999/02/22-rdf-syntax-ns#">
   <cc:Work>
    <dc:type rdf:resource="http://purl.org/dc/dcmitype/StillImage"/>
    <dc:date>2025-02-23T16:22:25.111752</dc:date>
    <dc:format>image/svg+xml</dc:format>
    <dc:creator>
     <cc:Agent>
      <dc:title>Matplotlib v3.9.2, https://matplotlib.org/</dc:title>
     </cc:Agent>
    </dc:creator>
   </cc:Work>
  </rdf:RDF>
 </metadata>
 <defs>
  <style type="text/css">*{stroke-linejoin: round; stroke-linecap: butt}</style>
 </defs>
 <g id="figure_1">
  <g id="patch_1">
   <path d="M 0 283.57 
L 610.916875 283.57 
L 610.916875 0 
L 0 0 
z
" style="fill: #ffffff"/>
  </g>
  <g id="axes_1">
   <g id="patch_2">
    <path d="M 45.716875 244.078125 
L 603.716875 244.078125 
L 603.716875 22.318125 
L 45.716875 22.318125 
z
" style="fill: #ffffff"/>
   </g>
   <g id="matplotlib.axis_1">
    <g id="xtick_1">
     <g id="line2d_1">
      <path d="M 71.080511 244.078125 
L 71.080511 22.318125 
" clip-path="url(#pb489098b42)" style="fill: none; stroke: #b0b0b0; stroke-width: 0.8; stroke-linecap: square"/>
     </g>
     <g id="line2d_2">
      <defs>
       <path id="m09112966ef" d="M 0 0 
L 0 3.5 
" style="stroke: #000000; stroke-width: 0.8"/>
      </defs>
      <g>
       <use xlink:href="#m09112966ef" x="71.080511" y="244.078125" style="stroke: #000000; stroke-width: 0.8"/>
      </g>
     </g>
     <g id="text_1">
      <!-- 0.0 -->
      <g transform="translate(63.128949 258.676562) scale(0.1 -0.1)">
       <defs>
        <path id="DejaVuSans-30" d="M 2034 4250 
Q 1547 4250 1301 3770 
Q 1056 3291 1056 2328 
Q 1056 1369 1301 889 
Q 1547 409 2034 409 
Q 2525 409 2770 889 
Q 3016 1369 3016 2328 
Q 3016 3291 2770 3770 
Q 2525 4250 2034 4250 
z
M 2034 4750 
Q 2819 4750 3233 4129 
Q 3647 3509 3647 2328 
Q 3647 1150 3233 529 
Q 2819 -91 2034 -91 
Q 1250 -91 836 529 
Q 422 1150 422 2328 
Q 422 3509 836 4129 
Q 1250 4750 2034 4750 
z
" transform="scale(0.015625)"/>
        <path id="DejaVuSans-2e" d="M 684 794 
L 1344 794 
L 1344 0 
L 684 0 
L 684 794 
z
" transform="scale(0.015625)"/>
       </defs>
       <use xlink:href="#DejaVuSans-30"/>
       <use xlink:href="#DejaVuSans-2e" x="63.623047"/>
       <use xlink:href="#DejaVuSans-30" x="95.410156"/>
      </g>
     </g>
    </g>
    <g id="xtick_2">
     <g id="line2d_3">
      <path d="M 172.535057 244.078125 
L 172.535057 22.318125 
" clip-path="url(#pb489098b42)" style="fill: none; stroke: #b0b0b0; stroke-width: 0.8; stroke-linecap: square"/>
     </g>
     <g id="line2d_4">
      <g>
       <use xlink:href="#m09112966ef" x="172.535057" y="244.078125" style="stroke: #000000; stroke-width: 0.8"/>
      </g>
     </g>
     <g id="text_2">
      <!-- 0.2 -->
      <g transform="translate(164.583494 258.676562) scale(0.1 -0.1)">
       <defs>
        <path id="DejaVuSans-32" d="M 1228 531 
L 3431 531 
L 3431 0 
L 469 0 
L 469 531 
Q 828 903 1448 1529 
Q 2069 2156 2228 2338 
Q 2531 2678 2651 2914 
Q 2772 3150 2772 3378 
Q 2772 3750 2511 3984 
Q 2250 4219 1831 4219 
Q 1534 4219 1204 4116 
Q 875 4013 500 3803 
L 500 4441 
Q 881 4594 1212 4672 
Q 1544 4750 1819 4750 
Q 2544 4750 2975 4387 
Q 3406 4025 3406 3419 
Q 3406 3131 3298 2873 
Q 3191 2616 2906 2266 
Q 2828 2175 2409 1742 
Q 1991 1309 1228 531 
z
" transform="scale(0.015625)"/>
       </defs>
       <use xlink:href="#DejaVuSans-30"/>
       <use xlink:href="#DejaVuSans-2e" x="63.623047"/>
       <use xlink:href="#DejaVuSans-32" x="95.410156"/>
      </g>
     </g>
    </g>
    <g id="xtick_3">
     <g id="line2d_5">
      <path d="M 273.989602 244.078125 
L 273.989602 22.318125 
" clip-path="url(#pb489098b42)" style="fill: none; stroke: #b0b0b0; stroke-width: 0.8; stroke-linecap: square"/>
     </g>
     <g id="line2d_6">
      <g>
       <use xlink:href="#m09112966ef" x="273.989602" y="244.078125" style="stroke: #000000; stroke-width: 0.8"/>
      </g>
     </g>
     <g id="text_3">
      <!-- 0.4 -->
      <g transform="translate(266.03804 258.676562) scale(0.1 -0.1)">
       <defs>
        <path id="DejaVuSans-34" d="M 2419 4116 
L 825 1625 
L 2419 1625 
L 2419 4116 
z
M 2253 4666 
L 3047 4666 
L 3047 1625 
L 3713 1625 
L 3713 1100 
L 3047 1100 
L 3047 0 
L 2419 0 
L 2419 1100 
L 313 1100 
L 313 1709 
L 2253 4666 
z
" transform="scale(0.015625)"/>
       </defs>
       <use xlink:href="#DejaVuSans-30"/>
       <use xlink:href="#DejaVuSans-2e" x="63.623047"/>
       <use xlink:href="#DejaVuSans-34" x="95.410156"/>
      </g>
     </g>
    </g>
    <g id="xtick_4">
     <g id="line2d_7">
      <path d="M 375.444148 244.078125 
L 375.444148 22.318125 
" clip-path="url(#pb489098b42)" style="fill: none; stroke: #b0b0b0; stroke-width: 0.8; stroke-linecap: square"/>
     </g>
     <g id="line2d_8">
      <g>
       <use xlink:href="#m09112966ef" x="375.444148" y="244.078125" style="stroke: #000000; stroke-width: 0.8"/>
      </g>
     </g>
     <g id="text_4">
      <!-- 0.6 -->
      <g transform="translate(367.492585 258.676562) scale(0.1 -0.1)">
       <defs>
        <path id="DejaVuSans-36" d="M 2113 2584 
Q 1688 2584 1439 2293 
Q 1191 2003 1191 1497 
Q 1191 994 1439 701 
Q 1688 409 2113 409 
Q 2538 409 2786 701 
Q 3034 994 3034 1497 
Q 3034 2003 2786 2293 
Q 2538 2584 2113 2584 
z
M 3366 4563 
L 3366 3988 
Q 3128 4100 2886 4159 
Q 2644 4219 2406 4219 
Q 1781 4219 1451 3797 
Q 1122 3375 1075 2522 
Q 1259 2794 1537 2939 
Q 1816 3084 2150 3084 
Q 2853 3084 3261 2657 
Q 3669 2231 3669 1497 
Q 3669 778 3244 343 
Q 2819 -91 2113 -91 
Q 1303 -91 875 529 
Q 447 1150 447 2328 
Q 447 3434 972 4092 
Q 1497 4750 2381 4750 
Q 2619 4750 2861 4703 
Q 3103 4656 3366 4563 
z
" transform="scale(0.015625)"/>
       </defs>
       <use xlink:href="#DejaVuSans-30"/>
       <use xlink:href="#DejaVuSans-2e" x="63.623047"/>
       <use xlink:href="#DejaVuSans-36" x="95.410156"/>
      </g>
     </g>
    </g>
    <g id="xtick_5">
     <g id="line2d_9">
      <path d="M 476.898693 244.078125 
L 476.898693 22.318125 
" clip-path="url(#pb489098b42)" style="fill: none; stroke: #b0b0b0; stroke-width: 0.8; stroke-linecap: square"/>
     </g>
     <g id="line2d_10">
      <g>
       <use xlink:href="#m09112966ef" x="476.898693" y="244.078125" style="stroke: #000000; stroke-width: 0.8"/>
      </g>
     </g>
     <g id="text_5">
      <!-- 0.8 -->
      <g transform="translate(468.947131 258.676562) scale(0.1 -0.1)">
       <defs>
        <path id="DejaVuSans-38" d="M 2034 2216 
Q 1584 2216 1326 1975 
Q 1069 1734 1069 1313 
Q 1069 891 1326 650 
Q 1584 409 2034 409 
Q 2484 409 2743 651 
Q 3003 894 3003 1313 
Q 3003 1734 2745 1975 
Q 2488 2216 2034 2216 
z
M 1403 2484 
Q 997 2584 770 2862 
Q 544 3141 544 3541 
Q 544 4100 942 4425 
Q 1341 4750 2034 4750 
Q 2731 4750 3128 4425 
Q 3525 4100 3525 3541 
Q 3525 3141 3298 2862 
Q 3072 2584 2669 2484 
Q 3125 2378 3379 2068 
Q 3634 1759 3634 1313 
Q 3634 634 3220 271 
Q 2806 -91 2034 -91 
Q 1263 -91 848 271 
Q 434 634 434 1313 
Q 434 1759 690 2068 
Q 947 2378 1403 2484 
z
M 1172 3481 
Q 1172 3119 1398 2916 
Q 1625 2713 2034 2713 
Q 2441 2713 2670 2916 
Q 2900 3119 2900 3481 
Q 2900 3844 2670 4047 
Q 2441 4250 2034 4250 
Q 1625 4250 1398 4047 
Q 1172 3844 1172 3481 
z
" transform="scale(0.015625)"/>
       </defs>
       <use xlink:href="#DejaVuSans-30"/>
       <use xlink:href="#DejaVuSans-2e" x="63.623047"/>
       <use xlink:href="#DejaVuSans-38" x="95.410156"/>
      </g>
     </g>
    </g>
    <g id="xtick_6">
     <g id="line2d_11">
      <path d="M 578.353239 244.078125 
L 578.353239 22.318125 
" clip-path="url(#pb489098b42)" style="fill: none; stroke: #b0b0b0; stroke-width: 0.8; stroke-linecap: square"/>
     </g>
     <g id="line2d_12">
      <g>
       <use xlink:href="#m09112966ef" x="578.353239" y="244.078125" style="stroke: #000000; stroke-width: 0.8"/>
      </g>
     </g>
     <g id="text_6">
      <!-- 1.0 -->
      <g transform="translate(570.401676 258.676562) scale(0.1 -0.1)">
       <defs>
        <path id="DejaVuSans-31" d="M 794 531 
L 1825 531 
L 1825 4091 
L 703 3866 
L 703 4441 
L 1819 4666 
L 2450 4666 
L 2450 531 
L 3481 531 
L 3481 0 
L 794 0 
L 794 531 
z
" transform="scale(0.015625)"/>
       </defs>
       <use xlink:href="#DejaVuSans-31"/>
       <use xlink:href="#DejaVuSans-2e" x="63.623047"/>
       <use xlink:href="#DejaVuSans-30" x="95.410156"/>
      </g>
     </g>
    </g>
    <g id="text_7">
     <!-- False Positive Rate -->
     <g transform="translate(268.957188 273.874375) scale(0.12 -0.12)">
      <defs>
       <path id="DejaVuSans-46" d="M 628 4666 
L 3309 4666 
L 3309 4134 
L 1259 4134 
L 1259 2759 
L 3109 2759 
L 3109 2228 
L 1259 2228 
L 1259 0 
L 628 0 
L 628 4666 
z
" transform="scale(0.015625)"/>
       <path id="DejaVuSans-61" d="M 2194 1759 
Q 1497 1759 1228 1600 
Q 959 1441 959 1056 
Q 959 750 1161 570 
Q 1363 391 1709 391 
Q 2188 391 2477 730 
Q 2766 1069 2766 1631 
L 2766 1759 
L 2194 1759 
z
M 3341 1997 
L 3341 0 
L 2766 0 
L 2766 531 
Q 2569 213 2275 61 
Q 1981 -91 1556 -91 
Q 1019 -91 701 211 
Q 384 513 384 1019 
Q 384 1609 779 1909 
Q 1175 2209 1959 2209 
L 2766 2209 
L 2766 2266 
Q 2766 2663 2505 2880 
Q 2244 3097 1772 3097 
Q 1472 3097 1187 3025 
Q 903 2953 641 2809 
L 641 3341 
Q 956 3463 1253 3523 
Q 1550 3584 1831 3584 
Q 2591 3584 2966 3190 
Q 3341 2797 3341 1997 
z
" transform="scale(0.015625)"/>
       <path id="DejaVuSans-6c" d="M 603 4863 
L 1178 4863 
L 1178 0 
L 603 0 
L 603 4863 
z
" transform="scale(0.015625)"/>
       <path id="DejaVuSans-73" d="M 2834 3397 
L 2834 2853 
Q 2591 2978 2328 3040 
Q 2066 3103 1784 3103 
Q 1356 3103 1142 2972 
Q 928 2841 928 2578 
Q 928 2378 1081 2264 
Q 1234 2150 1697 2047 
L 1894 2003 
Q 2506 1872 2764 1633 
Q 3022 1394 3022 966 
Q 3022 478 2636 193 
Q 2250 -91 1575 -91 
Q 1294 -91 989 -36 
Q 684 19 347 128 
L 347 722 
Q 666 556 975 473 
Q 1284 391 1588 391 
Q 1994 391 2212 530 
Q 2431 669 2431 922 
Q 2431 1156 2273 1281 
Q 2116 1406 1581 1522 
L 1381 1569 
Q 847 1681 609 1914 
Q 372 2147 372 2553 
Q 372 3047 722 3315 
Q 1072 3584 1716 3584 
Q 2034 3584 2315 3537 
Q 2597 3491 2834 3397 
z
" transform="scale(0.015625)"/>
       <path id="DejaVuSans-65" d="M 3597 1894 
L 3597 1613 
L 953 1613 
Q 991 1019 1311 708 
Q 1631 397 2203 397 
Q 2534 397 2845 478 
Q 3156 559 3463 722 
L 3463 178 
Q 3153 47 2828 -22 
Q 2503 -91 2169 -91 
Q 1331 -91 842 396 
Q 353 884 353 1716 
Q 353 2575 817 3079 
Q 1281 3584 2069 3584 
Q 2775 3584 3186 3129 
Q 3597 2675 3597 1894 
z
M 3022 2063 
Q 3016 2534 2758 2815 
Q 2500 3097 2075 3097 
Q 1594 3097 1305 2825 
Q 1016 2553 972 2059 
L 3022 2063 
z
" transform="scale(0.015625)"/>
       <path id="DejaVuSans-20" transform="scale(0.015625)"/>
       <path id="DejaVuSans-50" d="M 1259 4147 
L 1259 2394 
L 2053 2394 
Q 2494 2394 2734 2622 
Q 2975 2850 2975 3272 
Q 2975 3691 2734 3919 
Q 2494 4147 2053 4147 
L 1259 4147 
z
M 628 4666 
L 2053 4666 
Q 2838 4666 3239 4311 
Q 3641 3956 3641 3272 
Q 3641 2581 3239 2228 
Q 2838 1875 2053 1875 
L 1259 1875 
L 1259 0 
L 628 0 
L 628 4666 
z
" transform="scale(0.015625)"/>
       <path id="DejaVuSans-6f" d="M 1959 3097 
Q 1497 3097 1228 2736 
Q 959 2375 959 1747 
Q 959 1119 1226 758 
Q 1494 397 1959 397 
Q 2419 397 2687 759 
Q 2956 1122 2956 1747 
Q 2956 2369 2687 2733 
Q 2419 3097 1959 3097 
z
M 1959 3584 
Q 2709 3584 3137 3096 
Q 3566 2609 3566 1747 
Q 3566 888 3137 398 
Q 2709 -91 1959 -91 
Q 1206 -91 779 398 
Q 353 888 353 1747 
Q 353 2609 779 3096 
Q 1206 3584 1959 3584 
z
" transform="scale(0.015625)"/>
       <path id="DejaVuSans-69" d="M 603 3500 
L 1178 3500 
L 1178 0 
L 603 0 
L 603 3500 
z
M 603 4863 
L 1178 4863 
L 1178 4134 
L 603 4134 
L 603 4863 
z
" transform="scale(0.015625)"/>
       <path id="DejaVuSans-74" d="M 1172 4494 
L 1172 3500 
L 2356 3500 
L 2356 3053 
L 1172 3053 
L 1172 1153 
Q 1172 725 1289 603 
Q 1406 481 1766 481 
L 2356 481 
L 2356 0 
L 1766 0 
Q 1100 0 847 248 
Q 594 497 594 1153 
L 594 3053 
L 172 3053 
L 172 3500 
L 594 3500 
L 594 4494 
L 1172 4494 
z
" transform="scale(0.015625)"/>
       <path id="DejaVuSans-76" d="M 191 3500 
L 800 3500 
L 1894 563 
L 2988 3500 
L 3597 3500 
L 2284 0 
L 1503 0 
L 191 3500 
z
" transform="scale(0.015625)"/>
       <path id="DejaVuSans-52" d="M 2841 2188 
Q 3044 2119 3236 1894 
Q 3428 1669 3622 1275 
L 4263 0 
L 3584 0 
L 2988 1197 
Q 2756 1666 2539 1819 
Q 2322 1972 1947 1972 
L 1259 1972 
L 1259 0 
L 628 0 
L 628 4666 
L 2053 4666 
Q 2853 4666 3247 4331 
Q 3641 3997 3641 3322 
Q 3641 2881 3436 2590 
Q 3231 2300 2841 2188 
z
M 1259 4147 
L 1259 2491 
L 2053 2491 
Q 2509 2491 2742 2702 
Q 2975 2913 2975 3322 
Q 2975 3731 2742 3939 
Q 2509 4147 2053 4147 
L 1259 4147 
z
" transform="scale(0.015625)"/>
      </defs>
      <use xlink:href="#DejaVuSans-46"/>
      <use xlink:href="#DejaVuSans-61" x="48.394531"/>
      <use xlink:href="#DejaVuSans-6c" x="109.673828"/>
      <use xlink:href="#DejaVuSans-73" x="137.457031"/>
      <use xlink:href="#DejaVuSans-65" x="189.556641"/>
      <use xlink:href="#DejaVuSans-20" x="251.080078"/>
      <use xlink:href="#DejaVuSans-50" x="282.867188"/>
      <use xlink:href="#DejaVuSans-6f" x="339.544922"/>
      <use xlink:href="#DejaVuSans-73" x="400.726562"/>
      <use xlink:href="#DejaVuSans-69" x="452.826172"/>
      <use xlink:href="#DejaVuSans-74" x="480.609375"/>
      <use xlink:href="#DejaVuSans-69" x="519.818359"/>
      <use xlink:href="#DejaVuSans-76" x="547.601562"/>
      <use xlink:href="#DejaVuSans-65" x="606.78125"/>
      <use xlink:href="#DejaVuSans-20" x="668.304688"/>
      <use xlink:href="#DejaVuSans-52" x="700.091797"/>
      <use xlink:href="#DejaVuSans-61" x="767.324219"/>
      <use xlink:href="#DejaVuSans-74" x="828.603516"/>
      <use xlink:href="#DejaVuSans-65" x="867.8125"/>
     </g>
    </g>
   </g>
   <g id="matplotlib.axis_2">
    <g id="ytick_1">
     <g id="line2d_13">
      <path d="M 45.716875 233.998125 
L 603.716875 233.998125 
" clip-path="url(#pb489098b42)" style="fill: none; stroke: #b0b0b0; stroke-width: 0.8; stroke-linecap: square"/>
     </g>
     <g id="line2d_14">
      <defs>
       <path id="me95ff48a31" d="M 0 0 
L -3.5 0 
" style="stroke: #000000; stroke-width: 0.8"/>
      </defs>
      <g>
       <use xlink:href="#me95ff48a31" x="45.716875" y="233.998125" style="stroke: #000000; stroke-width: 0.8"/>
      </g>
     </g>
     <g id="text_8">
      <!-- 0.0 -->
      <g transform="translate(22.81375 237.797344) scale(0.1 -0.1)">
       <use xlink:href="#DejaVuSans-30"/>
       <use xlink:href="#DejaVuSans-2e" x="63.623047"/>
       <use xlink:href="#DejaVuSans-30" x="95.410156"/>
      </g>
     </g>
    </g>
    <g id="ytick_2">
     <g id="line2d_15">
      <path d="M 45.716875 193.678125 
L 603.716875 193.678125 
" clip-path="url(#pb489098b42)" style="fill: none; stroke: #b0b0b0; stroke-width: 0.8; stroke-linecap: square"/>
     </g>
     <g id="line2d_16">
      <g>
       <use xlink:href="#me95ff48a31" x="45.716875" y="193.678125" style="stroke: #000000; stroke-width: 0.8"/>
      </g>
     </g>
     <g id="text_9">
      <!-- 0.2 -->
      <g transform="translate(22.81375 197.477344) scale(0.1 -0.1)">
       <use xlink:href="#DejaVuSans-30"/>
       <use xlink:href="#DejaVuSans-2e" x="63.623047"/>
       <use xlink:href="#DejaVuSans-32" x="95.410156"/>
      </g>
     </g>
    </g>
    <g id="ytick_3">
     <g id="line2d_17">
      <path d="M 45.716875 153.358125 
L 603.716875 153.358125 
" clip-path="url(#pb489098b42)" style="fill: none; stroke: #b0b0b0; stroke-width: 0.8; stroke-linecap: square"/>
     </g>
     <g id="line2d_18">
      <g>
       <use xlink:href="#me95ff48a31" x="45.716875" y="153.358125" style="stroke: #000000; stroke-width: 0.8"/>
      </g>
     </g>
     <g id="text_10">
      <!-- 0.4 -->
      <g transform="translate(22.81375 157.157344) scale(0.1 -0.1)">
       <use xlink:href="#DejaVuSans-30"/>
       <use xlink:href="#DejaVuSans-2e" x="63.623047"/>
       <use xlink:href="#DejaVuSans-34" x="95.410156"/>
      </g>
     </g>
    </g>
    <g id="ytick_4">
     <g id="line2d_19">
      <path d="M 45.716875 113.038125 
L 603.716875 113.038125 
" clip-path="url(#pb489098b42)" style="fill: none; stroke: #b0b0b0; stroke-width: 0.8; stroke-linecap: square"/>
     </g>
     <g id="line2d_20">
      <g>
       <use xlink:href="#me95ff48a31" x="45.716875" y="113.038125" style="stroke: #000000; stroke-width: 0.8"/>
      </g>
     </g>
     <g id="text_11">
      <!-- 0.6 -->
      <g transform="translate(22.81375 116.837344) scale(0.1 -0.1)">
       <use xlink:href="#DejaVuSans-30"/>
       <use xlink:href="#DejaVuSans-2e" x="63.623047"/>
       <use xlink:href="#DejaVuSans-36" x="95.410156"/>
      </g>
     </g>
    </g>
    <g id="ytick_5">
     <g id="line2d_21">
      <path d="M 45.716875 72.718125 
L 603.716875 72.718125 
" clip-path="url(#pb489098b42)" style="fill: none; stroke: #b0b0b0; stroke-width: 0.8; stroke-linecap: square"/>
     </g>
     <g id="line2d_22">
      <g>
       <use xlink:href="#me95ff48a31" x="45.716875" y="72.718125" style="stroke: #000000; stroke-width: 0.8"/>
      </g>
     </g>
     <g id="text_12">
      <!-- 0.8 -->
      <g transform="translate(22.81375 76.517344) scale(0.1 -0.1)">
       <use xlink:href="#DejaVuSans-30"/>
       <use xlink:href="#DejaVuSans-2e" x="63.623047"/>
       <use xlink:href="#DejaVuSans-38" x="95.410156"/>
      </g>
     </g>
    </g>
    <g id="ytick_6">
     <g id="line2d_23">
      <path d="M 45.716875 32.398125 
L 603.716875 32.398125 
" clip-path="url(#pb489098b42)" style="fill: none; stroke: #b0b0b0; stroke-width: 0.8; stroke-linecap: square"/>
     </g>
     <g id="line2d_24">
      <g>
       <use xlink:href="#me95ff48a31" x="45.716875" y="32.398125" style="stroke: #000000; stroke-width: 0.8"/>
      </g>
     </g>
     <g id="text_13">
      <!-- 1.0 -->
      <g transform="translate(22.81375 36.197344) scale(0.1 -0.1)">
       <use xlink:href="#DejaVuSans-31"/>
       <use xlink:href="#DejaVuSans-2e" x="63.623047"/>
       <use xlink:href="#DejaVuSans-30" x="95.410156"/>
      </g>
     </g>
    </g>
    <g id="text_14">
     <!-- True Positive Rate -->
     <g transform="translate(16.318125 186.63375) rotate(-90) scale(0.12 -0.12)">
      <defs>
       <path id="DejaVuSans-54" d="M -19 4666 
L 3928 4666 
L 3928 4134 
L 2272 4134 
L 2272 0 
L 1638 0 
L 1638 4134 
L -19 4134 
L -19 4666 
z
" transform="scale(0.015625)"/>
       <path id="DejaVuSans-72" d="M 2631 2963 
Q 2534 3019 2420 3045 
Q 2306 3072 2169 3072 
Q 1681 3072 1420 2755 
Q 1159 2438 1159 1844 
L 1159 0 
L 581 0 
L 581 3500 
L 1159 3500 
L 1159 2956 
Q 1341 3275 1631 3429 
Q 1922 3584 2338 3584 
Q 2397 3584 2469 3576 
Q 2541 3569 2628 3553 
L 2631 2963 
z
" transform="scale(0.015625)"/>
       <path id="DejaVuSans-75" d="M 544 1381 
L 544 3500 
L 1119 3500 
L 1119 1403 
Q 1119 906 1312 657 
Q 1506 409 1894 409 
Q 2359 409 2629 706 
Q 2900 1003 2900 1516 
L 2900 3500 
L 3475 3500 
L 3475 0 
L 2900 0 
L 2900 538 
Q 2691 219 2414 64 
Q 2138 -91 1772 -91 
Q 1169 -91 856 284 
Q 544 659 544 1381 
z
M 1991 3584 
L 1991 3584 
z
" transform="scale(0.015625)"/>
      </defs>
      <use xlink:href="#DejaVuSans-54"/>
      <use xlink:href="#DejaVuSans-72" x="46.333984"/>
      <use xlink:href="#DejaVuSans-75" x="87.447266"/>
      <use xlink:href="#DejaVuSans-65" x="150.826172"/>
      <use xlink:href="#DejaVuSans-20" x="212.349609"/>
      <use xlink:href="#DejaVuSans-50" x="244.136719"/>
      <use xlink:href="#DejaVuSans-6f" x="300.814453"/>
      <use xlink:href="#DejaVuSans-73" x="361.996094"/>
      <use xlink:href="#DejaVuSans-69" x="414.095703"/>
      <use xlink:href="#DejaVuSans-74" x="441.878906"/>
      <use xlink:href="#DejaVuSans-69" x="481.087891"/>
      <use xlink:href="#DejaVuSans-76" x="508.871094"/>
      <use xlink:href="#DejaVuSans-65" x="568.050781"/>
      <use xlink:href="#DejaVuSans-20" x="629.574219"/>
      <use xlink:href="#DejaVuSans-52" x="661.361328"/>
      <use xlink:href="#DejaVuSans-61" x="728.59375"/>
      <use xlink:href="#DejaVuSans-74" x="789.873047"/>
      <use xlink:href="#DejaVuSans-65" x="829.082031"/>
     </g>
    </g>
   </g>
   <g id="line2d_25">
    <path d="M 71.080511 233.998125 
L 71.148776 218.390939 
L 71.21704 218.390939 
L 71.285305 217.614891 
L 71.353569 217.614891 
L 71.421833 214.338245 
L 71.490098 214.338245 
L 71.490098 214.16579 
L 71.626627 214.16579 
L 71.694891 212.613694 
L 71.763155 212.613694 
L 71.83142 208.992137 
L 71.899684 208.992137 
L 71.967949 208.129862 
L 72.036213 208.129862 
L 72.104477 206.663993 
L 72.172742 206.663993 
L 72.172742 205.71549 
L 72.30927 205.71549 
L 72.377535 205.111897 
L 72.445799 205.111897 
L 72.514064 204.077167 
L 72.582328 204.077167 
L 72.650592 203.646029 
L 72.718857 203.646029 
L 72.718857 202.956209 
L 72.855386 202.956209 
L 72.92365 202.697526 
L 72.991914 202.697526 
L 73.060179 201.921478 
L 73.196708 201.921478 
L 73.264972 201.490341 
L 73.401501 201.490341 
L 73.469765 200.024472 
L 73.674558 199.938245 
L 73.742823 198.903514 
L 73.811087 198.903514 
L 73.879352 198.213694 
L 74.084145 198.127466 
L 74.152409 197.696329 
L 74.357202 197.696329 
L 74.425467 196.316688 
L 74.561996 196.316688 
L 74.561996 196.144233 
L 74.903318 196.058005 
L 74.903318 195.971778 
L 75.039846 195.971778 
L 75.108111 195.19573 
L 75.24464 195.19573 
L 75.312904 194.247227 
L 75.517697 194.160999 
L 75.585962 193.816089 
L 75.654226 193.816089 
L 75.654226 193.471179 
L 75.995548 193.471179 
L 76.063812 192.695131 
L 76.132077 192.695131 
L 76.200341 190.798125 
L 76.33687 190.711897 
L 76.405134 190.453215 
L 76.541663 190.453215 
L 76.541663 190.28076 
L 76.746456 190.194532 
L 76.814721 189.763394 
L 76.882985 189.763394 
L 76.951249 188.556209 
L 77.019514 188.556209 
L 77.087778 188.038844 
L 77.224307 187.952616 
L 77.224307 187.866388 
L 77.360836 187.866388 
L 77.360836 187.693933 
L 77.497365 187.693933 
L 77.497365 187.349023 
L 77.702158 187.262796 
L 77.770422 186.831658 
L 77.906951 186.831658 
L 77.975215 186.40052 
L 78.04348 186.40052 
L 78.111744 185.279562 
L 78.248273 185.193335 
L 78.248273 185.107107 
L 78.453066 185.107107 
L 78.521331 184.675969 
L 78.589595 184.675969 
L 78.657859 183.555011 
L 78.794388 183.555011 
L 78.862653 182.089143 
L 78.930917 182.089143 
L 78.930917 181.399323 
L 79.203974 181.313095 
L 79.272239 180.709502 
L 79.408768 180.623275 
L 79.477032 180.45082 
L 79.681825 180.364592 
L 79.75009 180.192137 
L 79.886618 180.105909 
L 79.954883 179.674772 
L 80.023147 179.674772 
L 80.091412 179.157406 
L 80.22794 179.157406 
L 80.22794 178.812496 
L 80.500998 178.812496 
L 80.500998 178.553814 
L 80.637527 178.553814 
L 80.637527 178.295131 
L 80.774056 178.295131 
L 80.84232 177.863993 
L 80.978849 177.863993 
L 80.978849 177.605311 
L 81.183642 177.519083 
L 81.251906 177.2604 
L 81.524964 177.174173 
L 81.524964 176.91549 
L 81.798022 176.829263 
L 81.866286 175.622077 
L 82.002815 175.622077 
L 82.071079 175.104712 
L 82.139344 175.104712 
L 82.207608 174.501119 
L 82.344137 174.501119 
L 82.412401 173.466388 
L 82.480666 173.466388 
L 82.54893 172.949023 
L 82.753723 172.862796 
L 82.753723 172.776568 
L 83.095045 172.690341 
L 83.163309 172.259203 
L 83.231574 172.259203 
L 83.299838 171.741838 
L 83.368103 171.741838 
L 83.368103 171.483155 
L 83.709425 171.396927 
L 83.777689 170.707107 
L 83.845953 170.707107 
L 83.845953 170.534652 
L 83.982482 170.534652 
L 84.050747 169.758604 
L 84.187275 169.758604 
L 84.187275 169.413694 
L 84.323804 169.413694 
L 84.323804 169.155011 
L 84.460333 169.155011 
L 84.528597 168.810101 
L 84.801655 168.810101 
L 84.801655 167.602915 
L 84.938184 167.602915 
L 85.006448 167.344233 
L 85.142977 167.344233 
L 85.211241 166.999323 
L 85.416035 166.913095 
L 85.416035 166.481957 
L 85.620828 166.481957 
L 85.689092 165.533454 
L 85.825621 165.447227 
L 85.893885 165.274772 
L 86.166943 165.188544 
L 86.235207 164.929862 
L 86.371736 164.843634 
L 86.371736 164.757406 
L 86.576529 164.671179 
L 86.644794 164.153814 
L 86.713058 164.153814 
L 86.781322 163.636448 
L 86.849587 163.636448 
L 86.849587 163.205311 
L 86.986116 163.205311 
L 87.05438 162.601718 
L 87.190909 162.601718 
L 87.259173 162.17058 
L 87.395702 162.084353 
L 87.463966 161.566987 
L 87.532231 161.566987 
L 87.532231 161.308305 
L 87.805288 161.308305 
L 87.805288 161.049622 
L 88.078346 161.049622 
L 88.14661 160.446029 
L 88.487932 160.359802 
L 88.556197 160.014891 
L 88.965783 159.928664 
L 88.965783 159.842436 
L 89.102312 159.842436 
L 89.102312 159.669981 
L 89.238841 159.669981 
L 89.238841 159.411299 
L 89.443634 159.411299 
L 89.511898 159.066388 
L 89.648427 159.066388 
L 89.648427 158.893933 
L 89.85322 158.807706 
L 89.921485 158.549023 
L 90.058013 158.462796 
L 90.126278 158.290341 
L 90.399335 158.290341 
L 90.4676 157.94543 
L 90.604129 157.859203 
L 90.672393 157.60052 
L 90.740657 157.60052 
L 90.740657 157.428065 
L 91.081979 157.341838 
L 91.150244 157.169382 
L 91.218508 157.169382 
L 91.218508 156.56579 
L 91.628095 156.479562 
L 91.628095 156.393335 
L 91.969417 156.393335 
L 92.037681 156.134652 
L 92.310739 156.048424 
L 92.310739 155.875969 
L 92.583796 155.789742 
L 92.583796 155.703514 
L 92.720325 155.703514 
L 92.788589 155.358604 
L 92.925118 155.358604 
L 92.993383 154.927466 
L 93.402969 154.841239 
L 93.471233 154.237646 
L 93.539498 154.237646 
L 93.607762 153.634053 
L 93.744291 153.547826 
L 93.744291 153.375371 
L 93.949084 153.289143 
L 93.949084 152.858005 
L 94.426935 152.858005 
L 94.495199 152.599323 
L 94.563464 152.599323 
L 94.563464 152.426868 
L 95.109579 152.34064 
L 95.109579 152.254412 
L 95.655694 152.168185 
L 95.723958 151.823275 
L 95.928752 151.737047 
L 95.997016 151.564592 
L 96.338338 151.478365 
L 96.338338 151.392137 
L 96.543131 151.305909 
L 96.611395 150.874772 
L 96.747924 150.788544 
L 96.816189 150.616089 
L 96.884453 150.616089 
L 96.952717 150.184951 
L 97.225775 150.184951 
L 97.225775 150.012496 
L 97.362304 150.012496 
L 97.430568 149.581359 
L 97.703626 149.495131 
L 97.77189 149.063993 
L 98.113212 148.977766 
L 98.113212 148.805311 
L 98.249741 148.805311 
L 98.249741 148.632856 
L 98.522799 148.546628 
L 98.591063 148.374173 
L 98.727592 148.287945 
L 98.795856 148.029263 
L 98.864121 148.029263 
L 98.932385 147.684353 
L 99.137178 147.598125 
L 99.137178 147.42567 
L 99.4785 147.339442 
L 99.4785 147.253215 
L 100.09288 147.166987 
L 100.161144 146.994532 
L 100.434202 146.908305 
L 100.434202 146.73585 
L 100.57073 146.73585 
L 100.57073 146.477167 
L 100.775524 146.477167 
L 100.775524 146.218484 
L 100.980317 146.218484 
L 101.048581 145.614891 
L 101.116846 145.614891 
L 101.18511 145.097526 
L 101.389903 145.011299 
L 101.458168 144.580161 
L 101.594696 144.493933 
L 101.594696 144.321478 
L 101.731225 144.321478 
L 101.731225 144.062796 
L 101.867754 144.062796 
L 101.867754 143.890341 
L 102.209076 143.804113 
L 102.27734 143.459203 
L 102.413869 143.372975 
L 102.413869 143.286748 
L 102.618662 143.286748 
L 102.618662 143.114293 
L 102.823456 143.114293 
L 102.823456 142.941838 
L 103.096513 142.85561 
L 103.164778 142.596927 
L 103.233042 142.596927 
L 103.301306 141.993335 
L 103.369571 141.993335 
L 103.437835 141.562197 
L 103.642628 141.562197 
L 103.642628 141.303514 
L 103.779157 141.303514 
L 103.847421 141.044832 
L 103.98395 141.044832 
L 104.052215 140.699921 
L 104.325272 140.699921 
L 104.393537 139.923874 
L 104.734859 139.837646 
L 104.734859 139.751418 
L 105.007916 139.751418 
L 105.076181 139.406508 
L 105.417503 139.320281 
L 105.485767 138.975371 
L 105.69056 138.889143 
L 105.758825 138.716688 
L 105.827089 138.716688 
L 105.895353 138.199323 
L 106.373204 138.199323 
L 106.373204 138.026868 
L 106.509733 138.026868 
L 106.509733 137.854412 
L 106.782791 137.768185 
L 106.782791 137.681957 
L 107.055848 137.681957 
L 107.124112 137.423275 
L 107.39717 137.337047 
L 107.465434 137.164592 
L 107.601963 137.164592 
L 107.670228 136.819682 
L 107.738492 136.819682 
L 107.738492 136.647227 
L 107.875021 136.647227 
L 107.875021 136.474772 
L 108.079814 136.474772 
L 108.079814 136.216089 
L 108.284607 136.216089 
L 108.352872 135.784951 
L 108.762458 135.784951 
L 108.762458 135.612496 
L 108.967251 135.526269 
L 108.967251 135.440041 
L 109.308573 135.353814 
L 109.308573 135.267586 
L 109.513366 135.267586 
L 109.581631 134.922676 
L 109.71816 134.922676 
L 109.786424 134.663993 
L 109.854688 134.663993 
L 109.922953 134.405311 
L 110.127746 134.319083 
L 110.127746 134.232856 
L 110.742125 134.146628 
L 110.742125 134.0604 
L 111.083447 133.974173 
L 111.083447 133.887945 
L 111.356505 133.887945 
L 111.424769 133.456808 
L 111.561298 133.456808 
L 111.561298 133.284353 
L 112.175678 133.198125 
L 112.175678 133.02567 
L 112.380471 132.939442 
L 112.380471 132.853215 
L 112.858322 132.766987 
L 112.858322 132.68076 
L 113.063115 132.68076 
L 113.131379 132.163394 
L 113.336173 132.163394 
L 113.404437 131.904712 
L 113.60923 131.818484 
L 113.60923 131.646029 
L 114.087081 131.559802 
L 114.155345 131.214891 
L 114.360138 131.128664 
L 114.360138 131.042436 
L 114.496667 131.042436 
L 114.564932 130.783754 
L 114.837989 130.697526 
L 114.906254 130.525071 
L 115.042782 130.438844 
L 115.042782 130.266388 
L 115.384104 130.180161 
L 115.384104 130.093933 
L 115.793691 130.007706 
L 115.861955 129.835251 
L 116.203277 129.749023 
L 116.271542 129.576568 
L 116.339806 129.576568 
L 116.339806 129.317885 
L 116.817657 129.231658 
L 116.817657 128.972975 
L 116.954186 128.972975 
L 116.954186 128.714293 
L 117.432036 128.714293 
L 117.432036 128.541838 
L 117.636829 128.541838 
L 117.636829 128.369382 
L 117.841623 128.369382 
L 117.909887 127.938245 
L 117.978151 127.938245 
L 117.978151 127.593335 
L 118.11468 127.593335 
L 118.182945 127.334652 
L 118.319473 127.248424 
L 118.319473 127.162197 
L 118.797324 127.162197 
L 118.797324 126.989742 
L 118.933853 126.989742 
L 118.933853 126.817287 
L 119.411704 126.731059 
L 119.411704 126.644832 
L 119.889555 126.558604 
L 119.957819 126.299921 
L 120.094348 126.299921 
L 120.094348 126.127466 
L 120.230877 126.127466 
L 120.299141 125.868784 
L 120.572199 125.868784 
L 120.640463 125.437646 
L 120.776992 125.351418 
L 120.776992 125.265191 
L 120.913521 125.265191 
L 120.913521 124.920281 
L 121.186578 124.834053 
L 121.186578 124.747826 
L 121.459636 124.661598 
L 121.459636 124.575371 
L 122.415337 124.489143 
L 122.415337 124.402915 
L 122.756659 124.316688 
L 122.756659 124.144233 
L 122.961452 124.144233 
L 122.961452 123.799323 
L 123.166246 123.713095 
L 123.23451 122.937047 
L 123.371039 122.937047 
L 123.439303 122.592137 
L 124.32674 122.505909 
L 124.32674 122.419682 
L 124.463269 122.419682 
L 124.463269 122.247227 
L 124.668062 122.247227 
L 124.668062 122.074772 
L 124.872855 122.074772 
L 124.94112 121.729862 
L 125.214177 121.643634 
L 125.214177 121.298724 
L 125.692028 121.298724 
L 125.692028 121.040041 
L 126.306408 120.953814 
L 126.306408 120.867586 
L 126.579465 120.867586 
L 126.579465 120.695131 
L 126.715994 120.695131 
L 126.715994 120.522676 
L 126.852523 120.522676 
L 126.852523 120.005311 
L 127.330374 120.005311 
L 127.398638 119.487945 
L 127.73996 119.056808 
L 128.286075 118.97058 
L 128.286075 118.884353 
L 128.559133 118.798125 
L 128.559133 118.711897 
L 128.968719 118.62567 
L 128.968719 118.453215 
L 129.105248 118.453215 
L 129.105248 118.28076 
L 129.378306 118.28076 
L 129.378306 118.022077 
L 129.651363 118.022077 
L 129.651363 117.763394 
L 130.197478 117.677167 
L 130.265743 117.332257 
L 130.880122 117.332257 
L 130.948387 116.987347 
L 131.016651 116.987347 
L 131.016651 116.814891 
L 131.835824 116.814891 
L 131.835824 116.556209 
L 132.518468 116.469981 
L 132.586732 116.211299 
L 132.791525 116.211299 
L 132.791525 116.038844 
L 133.474169 115.952616 
L 133.474169 115.866388 
L 133.815491 115.780161 
L 133.883756 115.435251 
L 133.95202 115.435251 
L 134.020285 115.176568 
L 134.5664 115.176568 
L 134.5664 115.004113 
L 135.112515 114.917885 
L 135.112515 114.831658 
L 135.522101 114.74543 
L 135.590366 114.40052 
L 135.65863 114.40052 
L 135.65863 114.228065 
L 136.75086 114.141838 
L 136.75086 114.05561 
L 136.887389 114.05561 
L 136.887389 113.796927 
L 137.706562 113.7107 
L 137.774826 113.538245 
L 138.45747 113.538245 
L 138.45747 113.36579 
L 138.662263 113.36579 
L 138.662263 113.193335 
L 139.276643 113.107107 
L 139.344907 112.848424 
L 140.368873 112.762197 
L 140.368873 112.675969 
L 140.983253 112.589742 
L 140.983253 112.503514 
L 141.256311 112.417287 
L 141.256311 112.244832 
L 142.007219 112.158604 
L 142.075483 111.899921 
L 142.280276 111.813694 
L 142.280276 111.727466 
L 142.48507 111.641239 
L 142.48507 111.555011 
L 142.826392 111.468784 
L 142.826392 111.210101 
L 142.96292 111.210101 
L 142.96292 111.037646 
L 143.167714 111.037646 
L 143.167714 110.865191 
L 144.259944 110.778963 
L 144.259944 110.606508 
L 144.737795 110.520281 
L 144.737795 110.347826 
L 144.942588 110.261598 
L 145.010852 109.916688 
L 145.420439 109.83046 
L 145.420439 109.658005 
L 145.761761 109.658005 
L 145.761761 109.48555 
L 145.966554 109.399323 
L 146.034818 109.226868 
L 146.307876 109.226868 
L 146.37614 108.968185 
L 146.444405 108.968185 
L 146.512669 108.709502 
L 146.853991 108.623275 
L 146.853991 108.537047 
L 147.195313 108.45082 
L 147.195313 108.364592 
L 147.536635 108.278365 
L 147.536635 108.019682 
L 147.741428 107.933454 
L 147.741428 107.847227 
L 148.151015 107.760999 
L 148.151015 107.674772 
L 148.69713 107.588544 
L 148.765394 107.416089 
L 148.970187 107.329862 
L 149.038452 106.984951 
L 150.130682 106.898724 
L 150.130682 106.812496 
L 150.335475 106.726269 
L 150.335475 106.640041 
L 150.745062 106.553814 
L 150.813326 106.381359 
L 151.700763 106.295131 
L 151.700763 105.950221 
L 152.246878 105.863993 
L 152.315143 105.605311 
L 152.792993 105.519083 
L 152.861258 105.2604 
L 153.339109 105.2604 
L 153.407373 104.829263 
L 153.748695 104.829263 
L 153.816959 104.57058 
L 153.885224 104.57058 
L 153.885224 104.398125 
L 154.636132 104.311897 
L 154.636132 104.22567 
L 154.840925 104.139442 
L 154.90919 103.88076 
L 155.250512 103.794532 
L 155.250512 103.622077 
L 155.796627 103.53585 
L 155.864891 103.190939 
L 156.274478 103.190939 
L 156.274478 103.018484 
L 156.411006 103.018484 
L 156.479271 102.587347 
L 156.547535 102.587347 
L 156.6158 102.242436 
L 156.888857 102.156209 
L 156.957122 101.897526 
L 157.230179 101.811299 
L 157.230179 101.725071 
L 157.434972 101.638844 
L 157.434972 101.466388 
L 157.844559 101.380161 
L 157.844559 101.207706 
L 157.981088 101.207706 
L 157.981088 101.035251 
L 158.32241 100.949023 
L 158.32241 100.862796 
L 158.868525 100.862796 
L 158.868525 100.690341 
L 159.141582 100.690341 
L 159.209847 100.431658 
L 159.892491 100.34543 
L 159.960755 100.172975 
L 160.302077 100.086748 
L 160.302077 100.00052 
L 160.643399 99.914293 
L 160.643399 99.828065 
L 161.052985 99.741838 
L 161.12125 99.569382 
L 161.462572 99.483155 
L 161.462572 99.3107 
L 162.21348 99.224472 
L 162.21348 99.138245 
L 162.350009 99.138245 
L 162.350009 98.793335 
L 162.623067 98.707107 
L 162.691331 98.448424 
L 163.032653 98.362197 
L 163.032653 98.189742 
L 163.169182 98.189742 
L 163.237446 97.931059 
L 163.647032 97.844832 
L 163.647032 97.758604 
L 164.602734 97.672376 
L 164.602734 97.586149 
L 164.944056 97.499921 
L 164.944056 97.413694 
L 165.080585 97.413694 
L 165.080585 97.241239 
L 165.558436 97.155011 
L 165.6267 96.982556 
L 166.445873 96.982556 
L 166.445873 96.810101 
L 166.650666 96.723874 
L 166.71893 96.378963 
L 167.469839 96.378963 
L 167.469839 96.206508 
L 167.879425 96.120281 
L 167.879425 95.947826 
L 168.357276 95.861598 
L 168.357276 95.775371 
L 168.698598 95.689143 
L 168.766862 95.516688 
L 168.971655 95.43046 
L 169.03992 95.258005 
L 169.381242 95.258005 
L 169.381242 95.08555 
L 169.586035 94.999323 
L 169.586035 94.74064 
L 170.405208 94.654412 
L 170.405208 94.481957 
L 171.22438 94.39573 
L 171.22438 94.309502 
L 171.907024 94.223275 
L 171.975289 94.05082 
L 172.589668 94.05082 
L 172.589668 93.792137 
L 172.794462 93.705909 
L 172.794462 93.619682 
L 173.408841 93.533454 
L 173.408841 93.447227 
L 173.613634 93.360999 
L 173.613634 93.274772 
L 173.818427 93.274772 
L 173.818427 93.102317 
L 174.091485 93.016089 
L 174.091485 92.929862 
L 174.364543 92.843634 
L 174.364543 92.757406 
L 174.569336 92.757406 
L 174.569336 92.584951 
L 174.842393 92.584951 
L 174.842393 92.326269 
L 175.183715 92.240041 
L 175.183715 92.153814 
L 176.34421 92.067586 
L 176.412475 91.895131 
L 176.617268 91.895131 
L 176.617268 91.722676 
L 177.163383 91.636448 
L 177.163383 91.550221 
L 177.299912 91.550221 
L 177.299912 91.377766 
L 178.119084 91.291538 
L 178.187349 91.119083 
L 178.938257 91.032856 
L 178.938257 90.8604 
L 179.75743 90.774173 
L 179.75743 90.601718 
L 179.962223 90.51549 
L 179.962223 90.429263 
L 180.576603 90.343035 
L 180.576603 90.256808 
L 180.917925 90.256808 
L 180.917925 90.084353 
L 181.600569 89.998125 
L 181.668833 89.82567 
L 181.873626 89.739442 
L 181.873626 89.653215 
L 182.55627 89.566987 
L 182.55627 89.48076 
L 183.102385 89.394532 
L 183.102385 89.308305 
L 183.17065 89.308305 
L 183.511972 89.222077 
L 183.511972 89.13585 
L 184.399409 89.049622 
L 184.399409 88.963394 
L 184.672466 88.877167 
L 184.740731 88.618484 
L 186.037754 88.532257 
L 186.106019 88.273574 
L 186.447341 88.273574 
L 186.447341 88.101119 
L 187.334778 88.014891 
L 187.334778 87.928664 
L 188.495273 87.842436 
L 188.563537 87.497526 
L 188.76833 87.411299 
L 188.76833 87.325071 
L 189.041388 87.325071 
L 189.041388 87.152616 
L 189.177917 87.152616 
L 189.177917 86.807706 
L 189.519239 86.721478 
L 189.519239 86.635251 
L 189.860561 86.549023 
L 189.860561 86.462796 
L 190.338411 86.376568 
L 190.406676 86.204113 
L 190.611469 86.117885 
L 190.611469 85.94543 
L 191.498906 85.859203 
L 191.498906 85.772975 
L 191.771964 85.772975 
L 191.771964 85.60052 
L 192.727665 85.514293 
L 192.727665 85.428065 
L 194.707333 85.341838 
L 194.775597 85.169382 
L 194.912126 85.083155 
L 194.98039 84.824472 
L 195.253448 84.738245 
L 195.253448 84.56579 
L 195.389977 84.56579 
L 195.458241 84.307107 
L 196.004356 84.220879 
L 196.004356 84.134652 
L 196.687 84.048424 
L 196.755265 83.875969 
L 196.960058 83.789742 
L 196.960058 83.617287 
L 197.574437 83.617287 
L 197.574437 83.444832 
L 198.461874 83.358604 
L 198.461874 83.272376 
L 199.076254 83.272376 
L 199.076254 83.099921 
L 199.349312 83.099921 
L 199.349312 82.582556 
L 199.963691 82.496329 
L 199.963691 82.410101 
L 200.10022 82.410101 
L 200.10022 82.323874 
L 200.168484 82.237646 
L 200.578071 82.237646 
L 200.646335 81.978963 
L 201.533772 81.892736 
L 201.602037 81.634053 
L 202.216416 81.547826 
L 202.216416 81.461598 
L 203.172118 81.375371 
L 203.172118 81.289143 
L 204.127819 81.202915 
L 204.196084 81.03046 
L 204.332613 80.944233 
L 204.332613 80.858005 
L 204.469141 80.858005 
L 204.537406 80.513095 
L 205.493107 80.513095 
L 205.561372 80.081957 
L 206.039222 79.99573 
L 206.039222 79.737047 
L 206.380544 79.65082 
L 206.448809 79.392137 
L 206.858395 79.305909 
L 206.858395 79.219682 
L 207.745832 79.133454 
L 207.745832 78.960999 
L 208.360212 78.874772 
L 208.360212 78.788544 
L 208.769798 78.702317 
L 208.769798 78.529862 
L 209.247649 78.443634 
L 209.247649 78.271179 
L 209.588971 78.184951 
L 209.588971 78.098724 
L 210.271615 78.012496 
L 210.339879 77.753814 
L 210.408144 77.753814 
L 210.408144 77.581359 
L 210.81773 77.495131 
L 210.81773 77.408903 
L 211.090788 77.322676 
L 211.090788 77.236448 
L 211.295581 77.236448 
L 211.295581 77.063993 
L 212.387811 76.977766 
L 212.387811 76.891538 
L 213.002191 76.805311 
L 213.002191 76.719083 
L 213.61657 76.632856 
L 213.61657 76.546628 
L 214.708801 76.546628 
L 214.708801 76.287945 
L 215.118387 76.201718 
L 215.118387 76.11549 
L 215.801031 76.029263 
L 215.801031 75.943035 
L 216.210617 75.943035 
L 216.210617 75.77058 
L 216.688468 75.684353 
L 216.688468 75.598125 
L 217.575905 75.511897 
L 217.575905 75.339442 
L 218.7364 75.253215 
L 218.7364 75.166987 
L 219.009458 75.08076 
L 219.009458 74.908305 
L 219.692102 74.822077 
L 219.760366 74.649622 
L 219.896895 74.563394 
L 219.896895 74.477167 
L 220.579539 74.390939 
L 220.579539 74.304712 
L 221.398712 74.218484 
L 221.466976 73.873574 
L 222.013091 73.787347 
L 222.013091 73.701119 
L 223.514908 73.614891 
L 223.583172 73.269981 
L 223.924494 73.183754 
L 223.924494 73.097526 
L 224.675403 73.011299 
L 224.743667 72.838844 
L 225.767633 72.752616 
L 225.767633 72.666388 
L 226.177219 72.580161 
L 226.245484 72.407706 
L 227.132921 72.321478 
L 227.132921 72.235251 
L 228.36168 72.235251 
L 228.36168 72.062796 
L 228.634738 71.976568 
L 228.634738 71.890341 
L 229.112588 71.804113 
L 229.112588 71.717885 
L 229.522175 71.631658 
L 229.522175 71.54543 
L 229.726968 71.459203 
L 229.795232 71.286748 
L 230.819198 71.20052 
L 230.819198 71.114293 
L 232.457544 71.028065 
L 232.457544 70.941838 
L 233.276716 70.85561 
L 233.276716 70.769382 
L 234.095889 70.769382 
L 234.164154 70.5107 
L 234.846798 70.424472 
L 234.846798 70.338245 
L 235.18812 70.338245 
L 235.18812 70.16579 
L 236.28035 70.079562 
L 236.348614 69.993335 
L 237.236051 69.907107 
L 237.236051 69.734652 
L 237.440845 69.648424 
L 237.440845 69.562197 
L 237.918695 69.562197 
L 237.918695 69.389742 
L 238.874397 69.303514 
L 238.942661 69.131059 
L 239.966627 69.044832 
L 239.966627 68.958604 
L 240.512742 68.872376 
L 240.512742 68.699921 
L 240.854064 68.699921 
L 240.854064 68.527466 
L 241.058858 68.527466 
L 241.058858 68.355011 
L 242.082824 68.268784 
L 242.082824 68.182556 
L 243.58464 68.096329 
L 243.58464 67.837646 
L 244.540342 67.751418 
L 244.608606 67.578963 
L 245.700837 67.492736 
L 245.700837 67.406508 
L 246.315216 67.320281 
L 246.315216 67.234053 
L 248.431412 67.147826 
L 248.431412 67.061598 
L 249.250585 66.975371 
L 249.31885 66.716688 
L 249.864965 66.63046 
L 249.864965 66.544233 
L 250.069758 66.544233 
L 250.069758 66.371778 
L 250.274551 66.28555 
L 250.274551 66.113095 
L 250.888931 66.026868 
L 250.888931 65.94064 
L 251.844632 65.854412 
L 251.844632 65.681957 
L 251.981161 65.681957 
L 251.981161 65.509502 
L 252.595541 65.423275 
L 252.595541 65.25082 
L 252.732069 65.25082 
L 252.732069 64.992137 
L 254.30215 64.992137 
L 254.30215 64.819682 
L 254.780001 64.733454 
L 254.780001 64.647227 
L 255.53091 64.560999 
L 255.599174 64.302317 
L 257.442313 64.216089 
L 257.442313 64.043634 
L 257.647106 63.957406 
L 257.647106 63.871179 
L 259.763302 63.784951 
L 259.763302 63.526269 
L 260.445946 63.440041 
L 260.445946 63.353814 
L 261.265119 63.267586 
L 261.265119 63.181359 
L 262.22082 63.095131 
L 262.22082 63.008903 
L 263.039993 62.922676 
L 263.108258 62.836448 
L 264.951396 62.836448 
L 264.951396 62.663993 
L 265.702305 62.577766 
L 265.702305 62.491538 
L 266.794535 62.405311 
L 266.794535 62.232856 
L 267.545443 62.146628 
L 267.545443 62.0604 
L 267.750236 62.0604 
L 267.750236 61.887945 
L 268.296352 61.801718 
L 268.296352 61.71549 
L 268.774202 61.629263 
L 268.774202 61.543035 
L 271.231721 61.456808 
L 271.231721 61.37058 
L 272.801802 61.284353 
L 272.801802 61.198125 
L 273.143124 61.198125 
L 273.143124 61.02567 
L 273.962297 60.939442 
L 273.962297 60.766987 
L 275.191056 60.68076 
L 275.25932 60.508305 
L 276.078493 60.508305 
L 276.078493 60.33585 
L 278.05816 60.249622 
L 278.05816 60.163394 
L 278.467747 60.077167 
L 278.467747 59.990939 
L 279.628241 59.904712 
L 279.696506 59.732257 
L 279.901299 59.646029 
L 279.901299 59.559802 
L 280.242621 59.473574 
L 280.242621 59.301119 
L 282.222288 59.214891 
L 282.222288 59.128664 
L 283.17799 59.042436 
L 283.246254 58.869981 
L 284.27022 58.869981 
L 284.27022 58.697526 
L 286.318152 58.611299 
L 286.318152 58.438844 
L 287.205589 58.352616 
L 287.205589 58.266388 
L 287.410383 58.266388 
L 287.410383 58.093933 
L 288.502613 58.007706 
L 288.502613 57.835251 
L 288.707406 57.749023 
L 288.707406 57.662796 
L 289.048728 57.662796 
L 289.048728 57.490341 
L 289.799636 57.404113 
L 289.867901 57.14543 
L 290.550545 57.059203 
L 290.550545 56.886748 
L 290.891867 56.80052 
L 290.891867 56.714293 
L 291.233189 56.628065 
L 291.233189 56.45561 
L 293.008063 56.369382 
L 293.008063 56.283155 
L 293.690707 56.196927 
L 293.690707 56.1107 
L 293.963765 56.1107 
L 293.963765 55.938245 
L 294.782937 55.852017 
L 294.782937 55.76579 
L 295.738639 55.679562 
L 295.738639 55.593335 
L 296.079961 55.507107 
L 296.079961 55.420879 
L 297.035662 55.334652 
L 297.103927 55.075969 
L 299.288387 54.989742 
L 299.288387 54.903514 
L 300.175825 54.817287 
L 300.175825 54.731059 
L 301.131526 54.644832 
L 301.131526 54.558604 
L 302.496814 54.472376 
L 302.565078 54.299921 
L 302.838136 54.213694 
L 302.838136 54.127466 
L 303.589044 54.041239 
L 303.657309 53.782556 
L 304.339953 53.696329 
L 304.339953 53.610101 
L 307.411851 53.523874 
L 307.411851 53.437646 
L 308.64061 53.351418 
L 308.64061 53.178963 
L 309.459782 53.092736 
L 309.528047 52.920281 
L 310.620277 52.834053 
L 310.620277 52.747826 
L 311.098128 52.747826 
L 311.166392 52.489143 
L 311.849036 52.402915 
L 311.849036 52.316688 
L 313.350853 52.316688 
L 313.350853 52.144233 
L 315.671843 52.058005 
L 315.671843 51.971778 
L 316.217958 51.88555 
L 316.217958 51.799323 
L 316.491015 51.799323 
L 316.491015 51.626868 
L 317.310188 51.54064 
L 317.310188 51.454412 
L 317.719774 51.368185 
L 317.719774 51.19573 
L 317.992832 51.19573 
L 317.992832 50.85082 
L 319.221591 50.764592 
L 319.221591 50.592137 
L 319.494649 50.592137 
L 319.494649 50.419682 
L 320.723408 50.333454 
L 320.723408 50.247227 
L 322.361753 50.160999 
L 322.361753 50.074772 
L 322.634811 49.988544 
L 322.634811 49.816089 
L 323.385719 49.729862 
L 323.385719 49.643634 
L 324.546214 49.557406 
L 324.546214 49.471179 
L 326.594146 49.384951 
L 326.594146 49.298724 
L 327.549847 49.212496 
L 327.618112 48.953814 
L 327.959434 48.867586 
L 327.959434 48.781359 
L 331.372654 48.695131 
L 331.440918 48.522676 
L 331.645711 48.436448 
L 331.645711 48.350221 
L 333.830172 48.263993 
L 333.830172 48.177766 
L 334.034965 48.091538 
L 334.034965 48.005311 
L 335.331989 47.919083 
L 335.331989 47.746628 
L 335.741575 47.6604 
L 335.741575 47.574173 
L 336.560748 47.487945 
L 336.560748 47.401718 
L 337.243392 47.31549 
L 337.243392 47.229263 
L 337.652978 47.229263 
L 337.652978 47.056808 
L 339.427852 46.97058 
L 339.427852 46.884353 
L 339.973968 46.798125 
L 339.973968 46.711897 
L 341.202727 46.62567 
L 341.202727 46.539442 
L 341.544049 46.539442 
L 341.544049 46.366987 
L 343.250659 46.28076 
L 343.250659 46.194532 
L 344.479418 46.108305 
L 344.479418 46.022077 
L 344.957268 45.93585 
L 344.957268 45.849622 
L 345.981234 45.763394 
L 345.981234 45.677167 
L 346.595614 45.677167 
L 346.595614 45.504712 
L 347.141729 45.418484 
L 347.141729 45.246029 
L 348.165695 45.159802 
L 348.165695 45.073574 
L 350.008834 44.987347 
L 350.008834 44.901119 
L 350.350156 44.814891 
L 350.350156 44.728664 
L 351.374122 44.642436 
L 351.374122 44.556209 
L 352.875938 44.469981 
L 352.944203 44.297526 
L 353.968169 44.211299 
L 353.968169 44.125071 
L 356.63048 44.038844 
L 356.63048 43.952616 
L 358.132297 43.866388 
L 358.132297 43.693933 
L 358.814941 43.607706 
L 358.814941 43.435251 
L 359.770642 43.349023 
L 359.770642 43.262796 
L 360.180229 43.176568 
L 360.248493 43.004113 
L 360.999402 42.917885 
L 360.999402 42.831658 
L 364.617415 42.74543 
L 364.617415 42.659203 
L 369.737244 42.572975 
L 369.737244 42.486748 
L 370.146831 42.40052 
L 370.146831 42.314293 
L 370.692946 42.228065 
L 370.692946 42.05561 
L 371.102532 42.05561 
L 371.102532 41.883155 
L 371.580383 41.796927 
L 371.580383 41.7107 
L 374.447488 41.624472 
L 374.447488 41.538245 
L 375.88104 41.452017 
L 375.88104 41.36579 
L 377.997236 41.36579 
L 377.997236 41.193335 
L 380.318226 41.107107 
L 380.318226 41.020879 
L 382.161364 40.934652 
L 382.161364 40.848424 
L 384.618883 40.762197 
L 384.618883 40.589742 
L 386.325492 40.503514 
L 386.325492 40.417287 
L 386.871608 40.331059 
L 386.871608 40.244832 
L 390.216563 40.158604 
L 390.284827 39.986149 
L 394.039369 39.899921 
L 394.039369 39.813694 
L 395.677715 39.727466 
L 395.677715 39.641239 
L 397.793911 39.555011 
L 397.793911 39.468784 
L 399.159199 39.382556 
L 399.159199 39.296329 
L 399.568785 39.296329 
L 399.568785 39.037646 
L 401.34366 38.951418 
L 401.34366 38.865191 
L 403.459856 38.778963 
L 403.459856 38.692736 
L 405.029937 38.606508 
L 405.029937 38.520281 
L 406.463489 38.434053 
L 406.531754 38.261598 
L 408.784479 38.175371 
L 408.784479 38.089143 
L 410.764146 38.002915 
L 410.764146 37.916688 
L 414.382159 37.83046 
L 414.450424 37.658005 
L 416.088769 37.571778 
L 416.088769 37.48555 
L 417.454057 37.48555 
L 417.454057 37.313095 
L 418.27323 37.226868 
L 418.27323 37.14064 
L 423.666117 37.054412 
L 423.666117 36.968185 
L 427.557188 36.881957 
L 427.557188 36.79573 
L 430.902143 36.709502 
L 430.902143 36.623275 
L 433.086604 36.537047 
L 433.086604 36.45082 
L 439.913043 36.364592 
L 439.913043 36.278365 
L 440.937009 36.192137 
L 440.937009 36.105909 
L 451.927577 36.019682 
L 451.927577 35.933454 
L 453.565923 35.847227 
L 453.565923 35.760999 
L 455.750383 35.674772 
L 455.750383 35.502317 
L 458.003108 35.416089 
L 458.003108 35.329862 
L 462.167237 35.243634 
L 462.167237 35.157406 
L 467.014009 35.071179 
L 467.014009 34.984951 
L 471.178137 34.898724 
L 471.178137 34.726269 
L 476.366231 34.640041 
L 476.366231 34.553814 
L 478.823749 34.467586 
L 478.823749 34.381359 
L 482.783084 34.295131 
L 482.783084 34.208903 
L 484.557958 34.122676 
L 484.557958 34.036448 
L 487.288534 33.950221 
L 487.288534 33.863993 
L 489.131673 33.777766 
L 489.131673 33.691538 
L 495.343733 33.605311 
L 495.343733 33.519083 
L 506.94868 33.432856 
L 506.94868 33.346628 
L 509.952314 33.2604 
L 509.952314 33.174173 
L 513.229005 33.087945 
L 513.229005 33.001718 
L 522.649491 32.91549 
L 522.649491 32.829263 
L 529.680724 32.743035 
L 529.680724 32.656808 
L 549.818721 32.57058 
L 549.818721 32.484353 
L 578.353239 32.398125 
L 578.353239 32.398125 
" clip-path="url(#pb489098b42)" style="fill: none; stroke: #1f77b4; stroke-width: 1.5; stroke-linecap: square"/>
   </g>
   <g id="line2d_26">
    <path d="M 71.080511 233.998125 
L 578.353239 32.398125 
" clip-path="url(#pb489098b42)" style="fill: none; stroke-dasharray: 7.4,3.2; stroke-dashoffset: 0; stroke: #808080; stroke-width: 2"/>
   </g>
   <g id="patch_3">
    <path d="M 45.716875 244.078125 
L 45.716875 22.318125 
" style="fill: none; stroke: #000000; stroke-width: 0.8; stroke-linejoin: miter; stroke-linecap: square"/>
   </g>
   <g id="patch_4">
    <path d="M 603.716875 244.078125 
L 603.716875 22.318125 
" style="fill: none; stroke: #000000; stroke-width: 0.8; stroke-linejoin: miter; stroke-linecap: square"/>
   </g>
   <g id="patch_5">
    <path d="M 45.716875 244.078125 
L 603.716875 244.078125 
" style="fill: none; stroke: #000000; stroke-width: 0.8; stroke-linejoin: miter; stroke-linecap: square"/>
   </g>
   <g id="patch_6">
    <path d="M 45.716875 22.318125 
L 603.716875 22.318125 
" style="fill: none; stroke: #000000; stroke-width: 0.8; stroke-linejoin: miter; stroke-linecap: square"/>
   </g>
   <g id="text_15">
    <!-- ROC Curve: Logistic Regression -->
    <g transform="translate(230.546875 16.318125) scale(0.12 -0.12)">
     <defs>
      <path id="DejaVuSans-4f" d="M 2522 4238 
Q 1834 4238 1429 3725 
Q 1025 3213 1025 2328 
Q 1025 1447 1429 934 
Q 1834 422 2522 422 
Q 3209 422 3611 934 
Q 4013 1447 4013 2328 
Q 4013 3213 3611 3725 
Q 3209 4238 2522 4238 
z
M 2522 4750 
Q 3503 4750 4090 4092 
Q 4678 3434 4678 2328 
Q 4678 1225 4090 567 
Q 3503 -91 2522 -91 
Q 1538 -91 948 565 
Q 359 1222 359 2328 
Q 359 3434 948 4092 
Q 1538 4750 2522 4750 
z
" transform="scale(0.015625)"/>
      <path id="DejaVuSans-43" d="M 4122 4306 
L 4122 3641 
Q 3803 3938 3442 4084 
Q 3081 4231 2675 4231 
Q 1875 4231 1450 3742 
Q 1025 3253 1025 2328 
Q 1025 1406 1450 917 
Q 1875 428 2675 428 
Q 3081 428 3442 575 
Q 3803 722 4122 1019 
L 4122 359 
Q 3791 134 3420 21 
Q 3050 -91 2638 -91 
Q 1578 -91 968 557 
Q 359 1206 359 2328 
Q 359 3453 968 4101 
Q 1578 4750 2638 4750 
Q 3056 4750 3426 4639 
Q 3797 4528 4122 4306 
z
" transform="scale(0.015625)"/>
      <path id="DejaVuSans-3a" d="M 750 794 
L 1409 794 
L 1409 0 
L 750 0 
L 750 794 
z
M 750 3309 
L 1409 3309 
L 1409 2516 
L 750 2516 
L 750 3309 
z
" transform="scale(0.015625)"/>
      <path id="DejaVuSans-4c" d="M 628 4666 
L 1259 4666 
L 1259 531 
L 3531 531 
L 3531 0 
L 628 0 
L 628 4666 
z
" transform="scale(0.015625)"/>
      <path id="DejaVuSans-67" d="M 2906 1791 
Q 2906 2416 2648 2759 
Q 2391 3103 1925 3103 
Q 1463 3103 1205 2759 
Q 947 2416 947 1791 
Q 947 1169 1205 825 
Q 1463 481 1925 481 
Q 2391 481 2648 825 
Q 2906 1169 2906 1791 
z
M 3481 434 
Q 3481 -459 3084 -895 
Q 2688 -1331 1869 -1331 
Q 1566 -1331 1297 -1286 
Q 1028 -1241 775 -1147 
L 775 -588 
Q 1028 -725 1275 -790 
Q 1522 -856 1778 -856 
Q 2344 -856 2625 -561 
Q 2906 -266 2906 331 
L 2906 616 
Q 2728 306 2450 153 
Q 2172 0 1784 0 
Q 1141 0 747 490 
Q 353 981 353 1791 
Q 353 2603 747 3093 
Q 1141 3584 1784 3584 
Q 2172 3584 2450 3431 
Q 2728 3278 2906 2969 
L 2906 3500 
L 3481 3500 
L 3481 434 
z
" transform="scale(0.015625)"/>
      <path id="DejaVuSans-63" d="M 3122 3366 
L 3122 2828 
Q 2878 2963 2633 3030 
Q 2388 3097 2138 3097 
Q 1578 3097 1268 2742 
Q 959 2388 959 1747 
Q 959 1106 1268 751 
Q 1578 397 2138 397 
Q 2388 397 2633 464 
Q 2878 531 3122 666 
L 3122 134 
Q 2881 22 2623 -34 
Q 2366 -91 2075 -91 
Q 1284 -91 818 406 
Q 353 903 353 1747 
Q 353 2603 823 3093 
Q 1294 3584 2113 3584 
Q 2378 3584 2631 3529 
Q 2884 3475 3122 3366 
z
" transform="scale(0.015625)"/>
      <path id="DejaVuSans-6e" d="M 3513 2113 
L 3513 0 
L 2938 0 
L 2938 2094 
Q 2938 2591 2744 2837 
Q 2550 3084 2163 3084 
Q 1697 3084 1428 2787 
Q 1159 2491 1159 1978 
L 1159 0 
L 581 0 
L 581 3500 
L 1159 3500 
L 1159 2956 
Q 1366 3272 1645 3428 
Q 1925 3584 2291 3584 
Q 2894 3584 3203 3211 
Q 3513 2838 3513 2113 
z
" transform="scale(0.015625)"/>
     </defs>
     <use xlink:href="#DejaVuSans-52"/>
     <use xlink:href="#DejaVuSans-4f" x="69.482422"/>
     <use xlink:href="#DejaVuSans-43" x="148.193359"/>
     <use xlink:href="#DejaVuSans-20" x="218.017578"/>
     <use xlink:href="#DejaVuSans-43" x="249.804688"/>
     <use xlink:href="#DejaVuSans-75" x="319.628906"/>
     <use xlink:href="#DejaVuSans-72" x="383.007812"/>
     <use xlink:href="#DejaVuSans-76" x="424.121094"/>
     <use xlink:href="#DejaVuSans-65" x="483.300781"/>
     <use xlink:href="#DejaVuSans-3a" x="544.824219"/>
     <use xlink:href="#DejaVuSans-20" x="578.515625"/>
     <use xlink:href="#DejaVuSans-4c" x="610.302734"/>
     <use xlink:href="#DejaVuSans-6f" x="664.265625"/>
     <use xlink:href="#DejaVuSans-67" x="725.447266"/>
     <use xlink:href="#DejaVuSans-69" x="788.923828"/>
     <use xlink:href="#DejaVuSans-73" x="816.707031"/>
     <use xlink:href="#DejaVuSans-74" x="868.806641"/>
     <use xlink:href="#DejaVuSans-69" x="908.015625"/>
     <use xlink:href="#DejaVuSans-63" x="935.798828"/>
     <use xlink:href="#DejaVuSans-20" x="990.779297"/>
     <use xlink:href="#DejaVuSans-52" x="1022.566406"/>
     <use xlink:href="#DejaVuSans-65" x="1087.548828"/>
     <use xlink:href="#DejaVuSans-67" x="1149.072266"/>
     <use xlink:href="#DejaVuSans-72" x="1212.548828"/>
     <use xlink:href="#DejaVuSans-65" x="1251.412109"/>
     <use xlink:href="#DejaVuSans-73" x="1312.935547"/>
     <use xlink:href="#DejaVuSans-73" x="1365.035156"/>
     <use xlink:href="#DejaVuSans-69" x="1417.134766"/>
     <use xlink:href="#DejaVuSans-6f" x="1444.917969"/>
     <use xlink:href="#DejaVuSans-6e" x="1506.099609"/>
    </g>
   </g>
   <g id="legend_1">
    <g id="patch_7">
     <path d="M 415.6575 239.078125 
L 596.716875 239.078125 
Q 598.716875 239.078125 598.716875 237.078125 
L 598.716875 208.721875 
Q 598.716875 206.721875 596.716875 206.721875 
L 415.6575 206.721875 
Q 413.6575 206.721875 413.6575 208.721875 
L 413.6575 237.078125 
Q 413.6575 239.078125 415.6575 239.078125 
z
" style="fill: #ffffff; opacity: 0.8; stroke: #cccccc; stroke-linejoin: miter"/>
    </g>
    <g id="line2d_27">
     <path d="M 417.6575 214.820312 
L 427.6575 214.820312 
L 437.6575 214.820312 
" style="fill: none; stroke: #1f77b4; stroke-width: 1.5; stroke-linecap: square"/>
    </g>
    <g id="text_16">
     <!-- ROC Curve (AUC = 0.835956) -->
     <g transform="translate(445.6575 218.320312) scale(0.1 -0.1)">
      <defs>
       <path id="DejaVuSans-28" d="M 1984 4856 
Q 1566 4138 1362 3434 
Q 1159 2731 1159 2009 
Q 1159 1288 1364 580 
Q 1569 -128 1984 -844 
L 1484 -844 
Q 1016 -109 783 600 
Q 550 1309 550 2009 
Q 550 2706 781 3412 
Q 1013 4119 1484 4856 
L 1984 4856 
z
" transform="scale(0.015625)"/>
       <path id="DejaVuSans-41" d="M 2188 4044 
L 1331 1722 
L 3047 1722 
L 2188 4044 
z
M 1831 4666 
L 2547 4666 
L 4325 0 
L 3669 0 
L 3244 1197 
L 1141 1197 
L 716 0 
L 50 0 
L 1831 4666 
z
" transform="scale(0.015625)"/>
       <path id="DejaVuSans-55" d="M 556 4666 
L 1191 4666 
L 1191 1831 
Q 1191 1081 1462 751 
Q 1734 422 2344 422 
Q 2950 422 3222 751 
Q 3494 1081 3494 1831 
L 3494 4666 
L 4128 4666 
L 4128 1753 
Q 4128 841 3676 375 
Q 3225 -91 2344 -91 
Q 1459 -91 1007 375 
Q 556 841 556 1753 
L 556 4666 
z
" transform="scale(0.015625)"/>
       <path id="DejaVuSans-3d" d="M 678 2906 
L 4684 2906 
L 4684 2381 
L 678 2381 
L 678 2906 
z
M 678 1631 
L 4684 1631 
L 4684 1100 
L 678 1100 
L 678 1631 
z
" transform="scale(0.015625)"/>
       <path id="DejaVuSans-33" d="M 2597 2516 
Q 3050 2419 3304 2112 
Q 3559 1806 3559 1356 
Q 3559 666 3084 287 
Q 2609 -91 1734 -91 
Q 1441 -91 1130 -33 
Q 819 25 488 141 
L 488 750 
Q 750 597 1062 519 
Q 1375 441 1716 441 
Q 2309 441 2620 675 
Q 2931 909 2931 1356 
Q 2931 1769 2642 2001 
Q 2353 2234 1838 2234 
L 1294 2234 
L 1294 2753 
L 1863 2753 
Q 2328 2753 2575 2939 
Q 2822 3125 2822 3475 
Q 2822 3834 2567 4026 
Q 2313 4219 1838 4219 
Q 1578 4219 1281 4162 
Q 984 4106 628 3988 
L 628 4550 
Q 988 4650 1302 4700 
Q 1616 4750 1894 4750 
Q 2613 4750 3031 4423 
Q 3450 4097 3450 3541 
Q 3450 3153 3228 2886 
Q 3006 2619 2597 2516 
z
" transform="scale(0.015625)"/>
       <path id="DejaVuSans-35" d="M 691 4666 
L 3169 4666 
L 3169 4134 
L 1269 4134 
L 1269 2991 
Q 1406 3038 1543 3061 
Q 1681 3084 1819 3084 
Q 2600 3084 3056 2656 
Q 3513 2228 3513 1497 
Q 3513 744 3044 326 
Q 2575 -91 1722 -91 
Q 1428 -91 1123 -41 
Q 819 9 494 109 
L 494 744 
Q 775 591 1075 516 
Q 1375 441 1709 441 
Q 2250 441 2565 725 
Q 2881 1009 2881 1497 
Q 2881 1984 2565 2268 
Q 2250 2553 1709 2553 
Q 1456 2553 1204 2497 
Q 953 2441 691 2322 
L 691 4666 
z
" transform="scale(0.015625)"/>
       <path id="DejaVuSans-39" d="M 703 97 
L 703 672 
Q 941 559 1184 500 
Q 1428 441 1663 441 
Q 2288 441 2617 861 
Q 2947 1281 2994 2138 
Q 2813 1869 2534 1725 
Q 2256 1581 1919 1581 
Q 1219 1581 811 2004 
Q 403 2428 403 3163 
Q 403 3881 828 4315 
Q 1253 4750 1959 4750 
Q 2769 4750 3195 4129 
Q 3622 3509 3622 2328 
Q 3622 1225 3098 567 
Q 2575 -91 1691 -91 
Q 1453 -91 1209 -44 
Q 966 3 703 97 
z
M 1959 2075 
Q 2384 2075 2632 2365 
Q 2881 2656 2881 3163 
Q 2881 3666 2632 3958 
Q 2384 4250 1959 4250 
Q 1534 4250 1286 3958 
Q 1038 3666 1038 3163 
Q 1038 2656 1286 2365 
Q 1534 2075 1959 2075 
z
" transform="scale(0.015625)"/>
       <path id="DejaVuSans-29" d="M 513 4856 
L 1013 4856 
Q 1481 4119 1714 3412 
Q 1947 2706 1947 2009 
Q 1947 1309 1714 600 
Q 1481 -109 1013 -844 
L 513 -844 
Q 928 -128 1133 580 
Q 1338 1288 1338 2009 
Q 1338 2731 1133 3434 
Q 928 4138 513 4856 
z
" transform="scale(0.015625)"/>
      </defs>
      <use xlink:href="#DejaVuSans-52"/>
      <use xlink:href="#DejaVuSans-4f" x="69.482422"/>
      <use xlink:href="#DejaVuSans-43" x="148.193359"/>
      <use xlink:href="#DejaVuSans-20" x="218.017578"/>
      <use xlink:href="#DejaVuSans-43" x="249.804688"/>
      <use xlink:href="#DejaVuSans-75" x="319.628906"/>
      <use xlink:href="#DejaVuSans-72" x="383.007812"/>
      <use xlink:href="#DejaVuSans-76" x="424.121094"/>
      <use xlink:href="#DejaVuSans-65" x="483.300781"/>
      <use xlink:href="#DejaVuSans-20" x="544.824219"/>
      <use xlink:href="#DejaVuSans-28" x="576.611328"/>
      <use xlink:href="#DejaVuSans-41" x="615.625"/>
      <use xlink:href="#DejaVuSans-55" x="684.033203"/>
      <use xlink:href="#DejaVuSans-43" x="757.226562"/>
      <use xlink:href="#DejaVuSans-20" x="827.050781"/>
      <use xlink:href="#DejaVuSans-3d" x="858.837891"/>
      <use xlink:href="#DejaVuSans-20" x="942.626953"/>
      <use xlink:href="#DejaVuSans-30" x="974.414062"/>
      <use xlink:href="#DejaVuSans-2e" x="1038.037109"/>
      <use xlink:href="#DejaVuSans-38" x="1069.824219"/>
      <use xlink:href="#DejaVuSans-33" x="1133.447266"/>
      <use xlink:href="#DejaVuSans-35" x="1197.070312"/>
      <use xlink:href="#DejaVuSans-39" x="1260.693359"/>
      <use xlink:href="#DejaVuSans-35" x="1324.316406"/>
      <use xlink:href="#DejaVuSans-36" x="1387.939453"/>
      <use xlink:href="#DejaVuSans-29" x="1451.5625"/>
     </g>
    </g>
    <g id="line2d_28">
     <path d="M 417.6575 229.498437 
L 427.6575 229.498437 
L 437.6575 229.498437 
" style="fill: none; stroke-dasharray: 7.4,3.2; stroke-dashoffset: 0; stroke: #808080; stroke-width: 2"/>
    </g>
    <g id="text_17">
     <!-- Random Guess -->
     <g transform="translate(445.6575 232.998437) scale(0.1 -0.1)">
      <defs>
       <path id="DejaVuSans-64" d="M 2906 2969 
L 2906 4863 
L 3481 4863 
L 3481 0 
L 2906 0 
L 2906 525 
Q 2725 213 2448 61 
Q 2172 -91 1784 -91 
Q 1150 -91 751 415 
Q 353 922 353 1747 
Q 353 2572 751 3078 
Q 1150 3584 1784 3584 
Q 2172 3584 2448 3432 
Q 2725 3281 2906 2969 
z
M 947 1747 
Q 947 1113 1208 752 
Q 1469 391 1925 391 
Q 2381 391 2643 752 
Q 2906 1113 2906 1747 
Q 2906 2381 2643 2742 
Q 2381 3103 1925 3103 
Q 1469 3103 1208 2742 
Q 947 2381 947 1747 
z
" transform="scale(0.015625)"/>
       <path id="DejaVuSans-6d" d="M 3328 2828 
Q 3544 3216 3844 3400 
Q 4144 3584 4550 3584 
Q 5097 3584 5394 3201 
Q 5691 2819 5691 2113 
L 5691 0 
L 5113 0 
L 5113 2094 
Q 5113 2597 4934 2840 
Q 4756 3084 4391 3084 
Q 3944 3084 3684 2787 
Q 3425 2491 3425 1978 
L 3425 0 
L 2847 0 
L 2847 2094 
Q 2847 2600 2669 2842 
Q 2491 3084 2119 3084 
Q 1678 3084 1418 2786 
Q 1159 2488 1159 1978 
L 1159 0 
L 581 0 
L 581 3500 
L 1159 3500 
L 1159 2956 
Q 1356 3278 1631 3431 
Q 1906 3584 2284 3584 
Q 2666 3584 2933 3390 
Q 3200 3197 3328 2828 
z
" transform="scale(0.015625)"/>
       <path id="DejaVuSans-47" d="M 3809 666 
L 3809 1919 
L 2778 1919 
L 2778 2438 
L 4434 2438 
L 4434 434 
Q 4069 175 3628 42 
Q 3188 -91 2688 -91 
Q 1594 -91 976 548 
Q 359 1188 359 2328 
Q 359 3472 976 4111 
Q 1594 4750 2688 4750 
Q 3144 4750 3555 4637 
Q 3966 4525 4313 4306 
L 4313 3634 
Q 3963 3931 3569 4081 
Q 3175 4231 2741 4231 
Q 1884 4231 1454 3753 
Q 1025 3275 1025 2328 
Q 1025 1384 1454 906 
Q 1884 428 2741 428 
Q 3075 428 3337 486 
Q 3600 544 3809 666 
z
" transform="scale(0.015625)"/>
      </defs>
      <use xlink:href="#DejaVuSans-52"/>
      <use xlink:href="#DejaVuSans-61" x="67.232422"/>
      <use xlink:href="#DejaVuSans-6e" x="128.511719"/>
      <use xlink:href="#DejaVuSans-64" x="191.890625"/>
      <use xlink:href="#DejaVuSans-6f" x="255.367188"/>
      <use xlink:href="#DejaVuSans-6d" x="316.548828"/>
      <use xlink:href="#DejaVuSans-20" x="413.960938"/>
      <use xlink:href="#DejaVuSans-47" x="445.748047"/>
      <use xlink:href="#DejaVuSans-75" x="523.238281"/>
      <use xlink:href="#DejaVuSans-65" x="586.617188"/>
      <use xlink:href="#DejaVuSans-73" x="648.140625"/>
      <use xlink:href="#DejaVuSans-73" x="700.240234"/>
     </g>
    </g>
   </g>
  </g>
 </g>
 <defs>
  <clipPath id="pb489098b42">
   <rect x="45.716875" y="22.318125" width="558" height="221.76"/>
  </clipPath>
 </defs>
</svg>
