<?xml version="1.0" encoding="utf-8" standalone="no"?>
<!DOCTYPE svg PUBLIC "-//W3C//DTD SVG 1.1//EN"
  "http://www.w3.org/Graphics/SVG/1.1/DTD/svg11.dtd">
<svg xmlns:xlink="http://www.w3.org/1999/xlink" width="610.916875pt" height="493.00475pt" viewBox="0 0 610.916875 493.00475" xmlns="http://www.w3.org/2000/svg" version="1.1">
 <metadata>
  <rdf:RDF xmlns:dc="http://purl.org/dc/elements/1.1/" xmlns:cc="http://creativecommons.org/ns#" xmlns:rdf="http://www.w3.org/1999/02/22-rdf-syntax-ns#">
   <cc:Work>
    <dc:type rdf:resource="http://purl.org/dc/dcmitype/StillImage"/>
    <dc:date>2025-03-17T16:45:13.261368</dc:date>
    <dc:format>image/svg+xml</dc:format>
    <dc:creator>
     <cc:Agent>
      <dc:title>Matplotlib v3.9.2, https://matplotlib.org/</dc:title>
     </cc:Agent>
    </dc:creator>
   </cc:Work>
  </rdf:RDF>
 </metadata>
 <defs>
  <style type="text/css">*{stroke-linejoin: round; stroke-linecap: butt}</style>
 </defs>
 <g id="figure_1">
  <g id="patch_1">
   <path d="M 0 493.00475 
L 610.916875 493.00475 
L 610.916875 -0 
L 0 -0 
z
" style="fill: #ffffff"/>
  </g>
  <g id="axes_1">
   <g id="patch_2">
    <path d="M 45.716875 339.84 
L 603.716875 339.84 
L 603.716875 7.2 
L 45.716875 7.2 
z
" style="fill: #ffffff"/>
   </g>
   <g id="matplotlib.axis_1">
    <g id="xtick_1">
     <g id="line2d_1">
      <path d="M 71.080511 339.84 
L 71.080511 7.2 
" clip-path="url(#p7ca5d3c6f2)" style="fill: none; stroke: #b0b0b0; stroke-width: 0.8; stroke-linecap: square"/>
     </g>
     <g id="line2d_2">
      <defs>
       <path id="mbd58ea3a42" d="M 0 0 
L 0 3.5 
" style="stroke: #000000; stroke-width: 0.8"/>
      </defs>
      <g>
       <use xlink:href="#mbd58ea3a42" x="71.080511" y="339.84" style="stroke: #000000; stroke-width: 0.8"/>
      </g>
     </g>
     <g id="text_1">
      <!-- 0.0 -->
      <g transform="translate(63.128949 354.438437) scale(0.1 -0.1)">
       <defs>
        <path id="DejaVuSans-30" d="M 2034 4250 
Q 1547 4250 1301 3770 
Q 1056 3291 1056 2328 
Q 1056 1369 1301 889 
Q 1547 409 2034 409 
Q 2525 409 2770 889 
Q 3016 1369 3016 2328 
Q 3016 3291 2770 3770 
Q 2525 4250 2034 4250 
z
M 2034 4750 
Q 2819 4750 3233 4129 
Q 3647 3509 3647 2328 
Q 3647 1150 3233 529 
Q 2819 -91 2034 -91 
Q 1250 -91 836 529 
Q 422 1150 422 2328 
Q 422 3509 836 4129 
Q 1250 4750 2034 4750 
z
" transform="scale(0.015625)"/>
        <path id="DejaVuSans-2e" d="M 684 794 
L 1344 794 
L 1344 0 
L 684 0 
L 684 794 
z
" transform="scale(0.015625)"/>
       </defs>
       <use xlink:href="#DejaVuSans-30"/>
       <use xlink:href="#DejaVuSans-2e" x="63.623047"/>
       <use xlink:href="#DejaVuSans-30" x="95.410156"/>
      </g>
     </g>
    </g>
    <g id="xtick_2">
     <g id="line2d_3">
      <path d="M 172.535057 339.84 
L 172.535057 7.2 
" clip-path="url(#p7ca5d3c6f2)" style="fill: none; stroke: #b0b0b0; stroke-width: 0.8; stroke-linecap: square"/>
     </g>
     <g id="line2d_4">
      <g>
       <use xlink:href="#mbd58ea3a42" x="172.535057" y="339.84" style="stroke: #000000; stroke-width: 0.8"/>
      </g>
     </g>
     <g id="text_2">
      <!-- 0.2 -->
      <g transform="translate(164.583494 354.438437) scale(0.1 -0.1)">
       <defs>
        <path id="DejaVuSans-32" d="M 1228 531 
L 3431 531 
L 3431 0 
L 469 0 
L 469 531 
Q 828 903 1448 1529 
Q 2069 2156 2228 2338 
Q 2531 2678 2651 2914 
Q 2772 3150 2772 3378 
Q 2772 3750 2511 3984 
Q 2250 4219 1831 4219 
Q 1534 4219 1204 4116 
Q 875 4013 500 3803 
L 500 4441 
Q 881 4594 1212 4672 
Q 1544 4750 1819 4750 
Q 2544 4750 2975 4387 
Q 3406 4025 3406 3419 
Q 3406 3131 3298 2873 
Q 3191 2616 2906 2266 
Q 2828 2175 2409 1742 
Q 1991 1309 1228 531 
z
" transform="scale(0.015625)"/>
       </defs>
       <use xlink:href="#DejaVuSans-30"/>
       <use xlink:href="#DejaVuSans-2e" x="63.623047"/>
       <use xlink:href="#DejaVuSans-32" x="95.410156"/>
      </g>
     </g>
    </g>
    <g id="xtick_3">
     <g id="line2d_5">
      <path d="M 273.989602 339.84 
L 273.989602 7.2 
" clip-path="url(#p7ca5d3c6f2)" style="fill: none; stroke: #b0b0b0; stroke-width: 0.8; stroke-linecap: square"/>
     </g>
     <g id="line2d_6">
      <g>
       <use xlink:href="#mbd58ea3a42" x="273.989602" y="339.84" style="stroke: #000000; stroke-width: 0.8"/>
      </g>
     </g>
     <g id="text_3">
      <!-- 0.4 -->
      <g transform="translate(266.03804 354.438437) scale(0.1 -0.1)">
       <defs>
        <path id="DejaVuSans-34" d="M 2419 4116 
L 825 1625 
L 2419 1625 
L 2419 4116 
z
M 2253 4666 
L 3047 4666 
L 3047 1625 
L 3713 1625 
L 3713 1100 
L 3047 1100 
L 3047 0 
L 2419 0 
L 2419 1100 
L 313 1100 
L 313 1709 
L 2253 4666 
z
" transform="scale(0.015625)"/>
       </defs>
       <use xlink:href="#DejaVuSans-30"/>
       <use xlink:href="#DejaVuSans-2e" x="63.623047"/>
       <use xlink:href="#DejaVuSans-34" x="95.410156"/>
      </g>
     </g>
    </g>
    <g id="xtick_4">
     <g id="line2d_7">
      <path d="M 375.444148 339.84 
L 375.444148 7.2 
" clip-path="url(#p7ca5d3c6f2)" style="fill: none; stroke: #b0b0b0; stroke-width: 0.8; stroke-linecap: square"/>
     </g>
     <g id="line2d_8">
      <g>
       <use xlink:href="#mbd58ea3a42" x="375.444148" y="339.84" style="stroke: #000000; stroke-width: 0.8"/>
      </g>
     </g>
     <g id="text_4">
      <!-- 0.6 -->
      <g transform="translate(367.492585 354.438437) scale(0.1 -0.1)">
       <defs>
        <path id="DejaVuSans-36" d="M 2113 2584 
Q 1688 2584 1439 2293 
Q 1191 2003 1191 1497 
Q 1191 994 1439 701 
Q 1688 409 2113 409 
Q 2538 409 2786 701 
Q 3034 994 3034 1497 
Q 3034 2003 2786 2293 
Q 2538 2584 2113 2584 
z
M 3366 4563 
L 3366 3988 
Q 3128 4100 2886 4159 
Q 2644 4219 2406 4219 
Q 1781 4219 1451 3797 
Q 1122 3375 1075 2522 
Q 1259 2794 1537 2939 
Q 1816 3084 2150 3084 
Q 2853 3084 3261 2657 
Q 3669 2231 3669 1497 
Q 3669 778 3244 343 
Q 2819 -91 2113 -91 
Q 1303 -91 875 529 
Q 447 1150 447 2328 
Q 447 3434 972 4092 
Q 1497 4750 2381 4750 
Q 2619 4750 2861 4703 
Q 3103 4656 3366 4563 
z
" transform="scale(0.015625)"/>
       </defs>
       <use xlink:href="#DejaVuSans-30"/>
       <use xlink:href="#DejaVuSans-2e" x="63.623047"/>
       <use xlink:href="#DejaVuSans-36" x="95.410156"/>
      </g>
     </g>
    </g>
    <g id="xtick_5">
     <g id="line2d_9">
      <path d="M 476.898693 339.84 
L 476.898693 7.2 
" clip-path="url(#p7ca5d3c6f2)" style="fill: none; stroke: #b0b0b0; stroke-width: 0.8; stroke-linecap: square"/>
     </g>
     <g id="line2d_10">
      <g>
       <use xlink:href="#mbd58ea3a42" x="476.898693" y="339.84" style="stroke: #000000; stroke-width: 0.8"/>
      </g>
     </g>
     <g id="text_5">
      <!-- 0.8 -->
      <g transform="translate(468.947131 354.438437) scale(0.1 -0.1)">
       <defs>
        <path id="DejaVuSans-38" d="M 2034 2216 
Q 1584 2216 1326 1975 
Q 1069 1734 1069 1313 
Q 1069 891 1326 650 
Q 1584 409 2034 409 
Q 2484 409 2743 651 
Q 3003 894 3003 1313 
Q 3003 1734 2745 1975 
Q 2488 2216 2034 2216 
z
M 1403 2484 
Q 997 2584 770 2862 
Q 544 3141 544 3541 
Q 544 4100 942 4425 
Q 1341 4750 2034 4750 
Q 2731 4750 3128 4425 
Q 3525 4100 3525 3541 
Q 3525 3141 3298 2862 
Q 3072 2584 2669 2484 
Q 3125 2378 3379 2068 
Q 3634 1759 3634 1313 
Q 3634 634 3220 271 
Q 2806 -91 2034 -91 
Q 1263 -91 848 271 
Q 434 634 434 1313 
Q 434 1759 690 2068 
Q 947 2378 1403 2484 
z
M 1172 3481 
Q 1172 3119 1398 2916 
Q 1625 2713 2034 2713 
Q 2441 2713 2670 2916 
Q 2900 3119 2900 3481 
Q 2900 3844 2670 4047 
Q 2441 4250 2034 4250 
Q 1625 4250 1398 4047 
Q 1172 3844 1172 3481 
z
" transform="scale(0.015625)"/>
       </defs>
       <use xlink:href="#DejaVuSans-30"/>
       <use xlink:href="#DejaVuSans-2e" x="63.623047"/>
       <use xlink:href="#DejaVuSans-38" x="95.410156"/>
      </g>
     </g>
    </g>
    <g id="xtick_6">
     <g id="line2d_11">
      <path d="M 578.353239 339.84 
L 578.353239 7.2 
" clip-path="url(#p7ca5d3c6f2)" style="fill: none; stroke: #b0b0b0; stroke-width: 0.8; stroke-linecap: square"/>
     </g>
     <g id="line2d_12">
      <g>
       <use xlink:href="#mbd58ea3a42" x="578.353239" y="339.84" style="stroke: #000000; stroke-width: 0.8"/>
      </g>
     </g>
     <g id="text_6">
      <!-- 1.0 -->
      <g transform="translate(570.401676 354.438437) scale(0.1 -0.1)">
       <defs>
        <path id="DejaVuSans-31" d="M 794 531 
L 1825 531 
L 1825 4091 
L 703 3866 
L 703 4441 
L 1819 4666 
L 2450 4666 
L 2450 531 
L 3481 531 
L 3481 0 
L 794 0 
L 794 531 
z
" transform="scale(0.015625)"/>
       </defs>
       <use xlink:href="#DejaVuSans-31"/>
       <use xlink:href="#DejaVuSans-2e" x="63.623047"/>
       <use xlink:href="#DejaVuSans-30" x="95.410156"/>
      </g>
     </g>
    </g>
    <g id="text_7">
     <!-- False Positive Rate -->
     <g transform="translate(268.957188 369.63625) scale(0.12 -0.12)">
      <defs>
       <path id="DejaVuSans-46" d="M 628 4666 
L 3309 4666 
L 3309 4134 
L 1259 4134 
L 1259 2759 
L 3109 2759 
L 3109 2228 
L 1259 2228 
L 1259 0 
L 628 0 
L 628 4666 
z
" transform="scale(0.015625)"/>
       <path id="DejaVuSans-61" d="M 2194 1759 
Q 1497 1759 1228 1600 
Q 959 1441 959 1056 
Q 959 750 1161 570 
Q 1363 391 1709 391 
Q 2188 391 2477 730 
Q 2766 1069 2766 1631 
L 2766 1759 
L 2194 1759 
z
M 3341 1997 
L 3341 0 
L 2766 0 
L 2766 531 
Q 2569 213 2275 61 
Q 1981 -91 1556 -91 
Q 1019 -91 701 211 
Q 384 513 384 1019 
Q 384 1609 779 1909 
Q 1175 2209 1959 2209 
L 2766 2209 
L 2766 2266 
Q 2766 2663 2505 2880 
Q 2244 3097 1772 3097 
Q 1472 3097 1187 3025 
Q 903 2953 641 2809 
L 641 3341 
Q 956 3463 1253 3523 
Q 1550 3584 1831 3584 
Q 2591 3584 2966 3190 
Q 3341 2797 3341 1997 
z
" transform="scale(0.015625)"/>
       <path id="DejaVuSans-6c" d="M 603 4863 
L 1178 4863 
L 1178 0 
L 603 0 
L 603 4863 
z
" transform="scale(0.015625)"/>
       <path id="DejaVuSans-73" d="M 2834 3397 
L 2834 2853 
Q 2591 2978 2328 3040 
Q 2066 3103 1784 3103 
Q 1356 3103 1142 2972 
Q 928 2841 928 2578 
Q 928 2378 1081 2264 
Q 1234 2150 1697 2047 
L 1894 2003 
Q 2506 1872 2764 1633 
Q 3022 1394 3022 966 
Q 3022 478 2636 193 
Q 2250 -91 1575 -91 
Q 1294 -91 989 -36 
Q 684 19 347 128 
L 347 722 
Q 666 556 975 473 
Q 1284 391 1588 391 
Q 1994 391 2212 530 
Q 2431 669 2431 922 
Q 2431 1156 2273 1281 
Q 2116 1406 1581 1522 
L 1381 1569 
Q 847 1681 609 1914 
Q 372 2147 372 2553 
Q 372 3047 722 3315 
Q 1072 3584 1716 3584 
Q 2034 3584 2315 3537 
Q 2597 3491 2834 3397 
z
" transform="scale(0.015625)"/>
       <path id="DejaVuSans-65" d="M 3597 1894 
L 3597 1613 
L 953 1613 
Q 991 1019 1311 708 
Q 1631 397 2203 397 
Q 2534 397 2845 478 
Q 3156 559 3463 722 
L 3463 178 
Q 3153 47 2828 -22 
Q 2503 -91 2169 -91 
Q 1331 -91 842 396 
Q 353 884 353 1716 
Q 353 2575 817 3079 
Q 1281 3584 2069 3584 
Q 2775 3584 3186 3129 
Q 3597 2675 3597 1894 
z
M 3022 2063 
Q 3016 2534 2758 2815 
Q 2500 3097 2075 3097 
Q 1594 3097 1305 2825 
Q 1016 2553 972 2059 
L 3022 2063 
z
" transform="scale(0.015625)"/>
       <path id="DejaVuSans-20" transform="scale(0.015625)"/>
       <path id="DejaVuSans-50" d="M 1259 4147 
L 1259 2394 
L 2053 2394 
Q 2494 2394 2734 2622 
Q 2975 2850 2975 3272 
Q 2975 3691 2734 3919 
Q 2494 4147 2053 4147 
L 1259 4147 
z
M 628 4666 
L 2053 4666 
Q 2838 4666 3239 4311 
Q 3641 3956 3641 3272 
Q 3641 2581 3239 2228 
Q 2838 1875 2053 1875 
L 1259 1875 
L 1259 0 
L 628 0 
L 628 4666 
z
" transform="scale(0.015625)"/>
       <path id="DejaVuSans-6f" d="M 1959 3097 
Q 1497 3097 1228 2736 
Q 959 2375 959 1747 
Q 959 1119 1226 758 
Q 1494 397 1959 397 
Q 2419 397 2687 759 
Q 2956 1122 2956 1747 
Q 2956 2369 2687 2733 
Q 2419 3097 1959 3097 
z
M 1959 3584 
Q 2709 3584 3137 3096 
Q 3566 2609 3566 1747 
Q 3566 888 3137 398 
Q 2709 -91 1959 -91 
Q 1206 -91 779 398 
Q 353 888 353 1747 
Q 353 2609 779 3096 
Q 1206 3584 1959 3584 
z
" transform="scale(0.015625)"/>
       <path id="DejaVuSans-69" d="M 603 3500 
L 1178 3500 
L 1178 0 
L 603 0 
L 603 3500 
z
M 603 4863 
L 1178 4863 
L 1178 4134 
L 603 4134 
L 603 4863 
z
" transform="scale(0.015625)"/>
       <path id="DejaVuSans-74" d="M 1172 4494 
L 1172 3500 
L 2356 3500 
L 2356 3053 
L 1172 3053 
L 1172 1153 
Q 1172 725 1289 603 
Q 1406 481 1766 481 
L 2356 481 
L 2356 0 
L 1766 0 
Q 1100 0 847 248 
Q 594 497 594 1153 
L 594 3053 
L 172 3053 
L 172 3500 
L 594 3500 
L 594 4494 
L 1172 4494 
z
" transform="scale(0.015625)"/>
       <path id="DejaVuSans-76" d="M 191 3500 
L 800 3500 
L 1894 563 
L 2988 3500 
L 3597 3500 
L 2284 0 
L 1503 0 
L 191 3500 
z
" transform="scale(0.015625)"/>
       <path id="DejaVuSans-52" d="M 2841 2188 
Q 3044 2119 3236 1894 
Q 3428 1669 3622 1275 
L 4263 0 
L 3584 0 
L 2988 1197 
Q 2756 1666 2539 1819 
Q 2322 1972 1947 1972 
L 1259 1972 
L 1259 0 
L 628 0 
L 628 4666 
L 2053 4666 
Q 2853 4666 3247 4331 
Q 3641 3997 3641 3322 
Q 3641 2881 3436 2590 
Q 3231 2300 2841 2188 
z
M 1259 4147 
L 1259 2491 
L 2053 2491 
Q 2509 2491 2742 2702 
Q 2975 2913 2975 3322 
Q 2975 3731 2742 3939 
Q 2509 4147 2053 4147 
L 1259 4147 
z
" transform="scale(0.015625)"/>
      </defs>
      <use xlink:href="#DejaVuSans-46"/>
      <use xlink:href="#DejaVuSans-61" x="48.394531"/>
      <use xlink:href="#DejaVuSans-6c" x="109.673828"/>
      <use xlink:href="#DejaVuSans-73" x="137.457031"/>
      <use xlink:href="#DejaVuSans-65" x="189.556641"/>
      <use xlink:href="#DejaVuSans-20" x="251.080078"/>
      <use xlink:href="#DejaVuSans-50" x="282.867188"/>
      <use xlink:href="#DejaVuSans-6f" x="339.544922"/>
      <use xlink:href="#DejaVuSans-73" x="400.726562"/>
      <use xlink:href="#DejaVuSans-69" x="452.826172"/>
      <use xlink:href="#DejaVuSans-74" x="480.609375"/>
      <use xlink:href="#DejaVuSans-69" x="519.818359"/>
      <use xlink:href="#DejaVuSans-76" x="547.601562"/>
      <use xlink:href="#DejaVuSans-65" x="606.78125"/>
      <use xlink:href="#DejaVuSans-20" x="668.304688"/>
      <use xlink:href="#DejaVuSans-52" x="700.091797"/>
      <use xlink:href="#DejaVuSans-61" x="767.324219"/>
      <use xlink:href="#DejaVuSans-74" x="828.603516"/>
      <use xlink:href="#DejaVuSans-65" x="867.8125"/>
     </g>
    </g>
   </g>
   <g id="matplotlib.axis_2">
    <g id="ytick_1">
     <g id="line2d_13">
      <path d="M 45.716875 324.72 
L 603.716875 324.72 
" clip-path="url(#p7ca5d3c6f2)" style="fill: none; stroke: #b0b0b0; stroke-width: 0.8; stroke-linecap: square"/>
     </g>
     <g id="line2d_14">
      <defs>
       <path id="mde9fc717d5" d="M 0 0 
L -3.5 0 
" style="stroke: #000000; stroke-width: 0.8"/>
      </defs>
      <g>
       <use xlink:href="#mde9fc717d5" x="45.716875" y="324.72" style="stroke: #000000; stroke-width: 0.8"/>
      </g>
     </g>
     <g id="text_8">
      <!-- 0.0 -->
      <g transform="translate(22.81375 328.519219) scale(0.1 -0.1)">
       <use xlink:href="#DejaVuSans-30"/>
       <use xlink:href="#DejaVuSans-2e" x="63.623047"/>
       <use xlink:href="#DejaVuSans-30" x="95.410156"/>
      </g>
     </g>
    </g>
    <g id="ytick_2">
     <g id="line2d_15">
      <path d="M 45.716875 264.24 
L 603.716875 264.24 
" clip-path="url(#p7ca5d3c6f2)" style="fill: none; stroke: #b0b0b0; stroke-width: 0.8; stroke-linecap: square"/>
     </g>
     <g id="line2d_16">
      <g>
       <use xlink:href="#mde9fc717d5" x="45.716875" y="264.24" style="stroke: #000000; stroke-width: 0.8"/>
      </g>
     </g>
     <g id="text_9">
      <!-- 0.2 -->
      <g transform="translate(22.81375 268.039219) scale(0.1 -0.1)">
       <use xlink:href="#DejaVuSans-30"/>
       <use xlink:href="#DejaVuSans-2e" x="63.623047"/>
       <use xlink:href="#DejaVuSans-32" x="95.410156"/>
      </g>
     </g>
    </g>
    <g id="ytick_3">
     <g id="line2d_17">
      <path d="M 45.716875 203.76 
L 603.716875 203.76 
" clip-path="url(#p7ca5d3c6f2)" style="fill: none; stroke: #b0b0b0; stroke-width: 0.8; stroke-linecap: square"/>
     </g>
     <g id="line2d_18">
      <g>
       <use xlink:href="#mde9fc717d5" x="45.716875" y="203.76" style="stroke: #000000; stroke-width: 0.8"/>
      </g>
     </g>
     <g id="text_10">
      <!-- 0.4 -->
      <g transform="translate(22.81375 207.559219) scale(0.1 -0.1)">
       <use xlink:href="#DejaVuSans-30"/>
       <use xlink:href="#DejaVuSans-2e" x="63.623047"/>
       <use xlink:href="#DejaVuSans-34" x="95.410156"/>
      </g>
     </g>
    </g>
    <g id="ytick_4">
     <g id="line2d_19">
      <path d="M 45.716875 143.28 
L 603.716875 143.28 
" clip-path="url(#p7ca5d3c6f2)" style="fill: none; stroke: #b0b0b0; stroke-width: 0.8; stroke-linecap: square"/>
     </g>
     <g id="line2d_20">
      <g>
       <use xlink:href="#mde9fc717d5" x="45.716875" y="143.28" style="stroke: #000000; stroke-width: 0.8"/>
      </g>
     </g>
     <g id="text_11">
      <!-- 0.6 -->
      <g transform="translate(22.81375 147.079219) scale(0.1 -0.1)">
       <use xlink:href="#DejaVuSans-30"/>
       <use xlink:href="#DejaVuSans-2e" x="63.623047"/>
       <use xlink:href="#DejaVuSans-36" x="95.410156"/>
      </g>
     </g>
    </g>
    <g id="ytick_5">
     <g id="line2d_21">
      <path d="M 45.716875 82.8 
L 603.716875 82.8 
" clip-path="url(#p7ca5d3c6f2)" style="fill: none; stroke: #b0b0b0; stroke-width: 0.8; stroke-linecap: square"/>
     </g>
     <g id="line2d_22">
      <g>
       <use xlink:href="#mde9fc717d5" x="45.716875" y="82.8" style="stroke: #000000; stroke-width: 0.8"/>
      </g>
     </g>
     <g id="text_12">
      <!-- 0.8 -->
      <g transform="translate(22.81375 86.599219) scale(0.1 -0.1)">
       <use xlink:href="#DejaVuSans-30"/>
       <use xlink:href="#DejaVuSans-2e" x="63.623047"/>
       <use xlink:href="#DejaVuSans-38" x="95.410156"/>
      </g>
     </g>
    </g>
    <g id="ytick_6">
     <g id="line2d_23">
      <path d="M 45.716875 22.32 
L 603.716875 22.32 
" clip-path="url(#p7ca5d3c6f2)" style="fill: none; stroke: #b0b0b0; stroke-width: 0.8; stroke-linecap: square"/>
     </g>
     <g id="line2d_24">
      <g>
       <use xlink:href="#mde9fc717d5" x="45.716875" y="22.32" style="stroke: #000000; stroke-width: 0.8"/>
      </g>
     </g>
     <g id="text_13">
      <!-- 1.0 -->
      <g transform="translate(22.81375 26.119219) scale(0.1 -0.1)">
       <use xlink:href="#DejaVuSans-31"/>
       <use xlink:href="#DejaVuSans-2e" x="63.623047"/>
       <use xlink:href="#DejaVuSans-30" x="95.410156"/>
      </g>
     </g>
    </g>
    <g id="text_14">
     <!-- True Positive Rate -->
     <g transform="translate(16.318125 226.955625) rotate(-90) scale(0.12 -0.12)">
      <defs>
       <path id="DejaVuSans-54" d="M -19 4666 
L 3928 4666 
L 3928 4134 
L 2272 4134 
L 2272 0 
L 1638 0 
L 1638 4134 
L -19 4134 
L -19 4666 
z
" transform="scale(0.015625)"/>
       <path id="DejaVuSans-72" d="M 2631 2963 
Q 2534 3019 2420 3045 
Q 2306 3072 2169 3072 
Q 1681 3072 1420 2755 
Q 1159 2438 1159 1844 
L 1159 0 
L 581 0 
L 581 3500 
L 1159 3500 
L 1159 2956 
Q 1341 3275 1631 3429 
Q 1922 3584 2338 3584 
Q 2397 3584 2469 3576 
Q 2541 3569 2628 3553 
L 2631 2963 
z
" transform="scale(0.015625)"/>
       <path id="DejaVuSans-75" d="M 544 1381 
L 544 3500 
L 1119 3500 
L 1119 1403 
Q 1119 906 1312 657 
Q 1506 409 1894 409 
Q 2359 409 2629 706 
Q 2900 1003 2900 1516 
L 2900 3500 
L 3475 3500 
L 3475 0 
L 2900 0 
L 2900 538 
Q 2691 219 2414 64 
Q 2138 -91 1772 -91 
Q 1169 -91 856 284 
Q 544 659 544 1381 
z
M 1991 3584 
L 1991 3584 
z
" transform="scale(0.015625)"/>
      </defs>
      <use xlink:href="#DejaVuSans-54"/>
      <use xlink:href="#DejaVuSans-72" x="46.333984"/>
      <use xlink:href="#DejaVuSans-75" x="87.447266"/>
      <use xlink:href="#DejaVuSans-65" x="150.826172"/>
      <use xlink:href="#DejaVuSans-20" x="212.349609"/>
      <use xlink:href="#DejaVuSans-50" x="244.136719"/>
      <use xlink:href="#DejaVuSans-6f" x="300.814453"/>
      <use xlink:href="#DejaVuSans-73" x="361.996094"/>
      <use xlink:href="#DejaVuSans-69" x="414.095703"/>
      <use xlink:href="#DejaVuSans-74" x="441.878906"/>
      <use xlink:href="#DejaVuSans-69" x="481.087891"/>
      <use xlink:href="#DejaVuSans-76" x="508.871094"/>
      <use xlink:href="#DejaVuSans-65" x="568.050781"/>
      <use xlink:href="#DejaVuSans-20" x="629.574219"/>
      <use xlink:href="#DejaVuSans-52" x="661.361328"/>
      <use xlink:href="#DejaVuSans-61" x="728.59375"/>
      <use xlink:href="#DejaVuSans-74" x="789.873047"/>
      <use xlink:href="#DejaVuSans-65" x="829.082031"/>
     </g>
    </g>
   </g>
   <g id="line2d_25">
    <path d="M 71.080511 324.72 
L 71.16208 300.511011 
L 71.243648 300.511011 
L 71.325216 298.670562 
L 71.406784 298.670562 
L 71.488352 294.140225 
L 71.569921 294.140225 
L 71.651489 291.875056 
L 71.733057 291.875056 
L 71.814625 286.636854 
L 71.896194 286.636854 
L 71.977762 285.362697 
L 72.05933 285.362697 
L 72.140898 283.097528 
L 72.222466 283.097528 
L 72.222466 281.964944 
L 72.385603 281.964944 
L 72.467171 281.115506 
L 72.548739 281.115506 
L 72.630307 278.99191 
L 72.711876 278.99191 
L 72.793444 277.859326 
L 72.95658 277.859326 
L 73.038149 277.434607 
L 73.119717 277.434607 
L 73.201285 276.443596 
L 73.364421 276.443596 
L 73.44599 275.877303 
L 73.609126 275.877303 
L 73.690694 273.753708 
L 73.853831 273.753708 
L 73.935399 273.187416 
L 74.016967 273.187416 
L 74.098535 271.346966 
L 74.180104 271.346966 
L 74.180104 270.922247 
L 74.34324 270.922247 
L 74.424808 270.214382 
L 74.506376 270.214382 
L 74.506376 270.072809 
L 74.751081 270.072809 
L 74.832649 267.949213 
L 74.995786 267.949213 
L 74.995786 267.666067 
L 75.24049 267.666067 
L 75.24049 267.382921 
L 75.403627 267.382921 
L 75.485195 266.108764 
L 75.648331 266.108764 
L 75.7299 264.551461 
L 75.893036 264.551461 
L 75.974604 263.985169 
L 76.056172 263.985169 
L 76.056172 263.418876 
L 76.464014 263.418876 
L 76.545582 260.021124 
L 76.62715 260.021124 
L 76.708718 259.454831 
L 76.790286 259.454831 
L 76.871855 259.030112 
L 77.034991 259.030112 
L 77.116559 258.605393 
L 77.198127 258.605393 
L 77.279696 257.897528 
L 77.361264 257.897528 
L 77.442832 256.057079 
L 77.5244 256.057079 
L 77.605969 255.20764 
L 77.687537 255.20764 
L 77.769105 254.924494 
L 77.850673 254.924494 
L 77.850673 254.641348 
L 78.01381 254.641348 
L 78.095378 253.933483 
L 78.176946 253.933483 
L 78.258514 253.225618 
L 78.421651 253.225618 
L 78.503219 252.517753 
L 78.584787 252.517753 
L 78.666355 250.677303 
L 78.747924 250.677303 
L 78.829492 250.394157 
L 78.992628 250.394157 
L 79.074196 248.695281 
L 79.155765 248.695281 
L 79.155765 248.128989 
L 79.318901 248.128989 
L 79.400469 245.86382 
L 79.482037 245.86382 
L 79.482037 244.731236 
L 79.645174 244.731236 
L 79.645174 244.589663 
L 79.80831 244.589663 
L 79.889879 243.740225 
L 79.971447 243.740225 
L 80.053015 243.457079 
L 80.216151 243.457079 
L 80.216151 243.315506 
L 80.379288 243.315506 
L 80.460856 242.890787 
L 80.542424 242.890787 
L 80.623992 242.182921 
L 80.705561 242.182921 
L 80.787129 241.475056 
L 80.868697 241.475056 
L 80.868697 240.908764 
L 81.19497 240.908764 
L 81.19497 240.484045 
L 81.358106 240.484045 
L 81.358106 240.059326 
L 81.521243 240.059326 
L 81.602811 239.493034 
L 81.765947 239.493034 
L 81.765947 239.068315 
L 82.010652 239.068315 
L 82.09222 238.643596 
L 82.255357 238.643596 
L 82.255357 238.077303 
L 82.500061 238.077303 
L 82.58163 236.378427 
L 82.663198 236.378427 
L 82.663198 236.095281 
L 82.826334 236.095281 
L 82.907902 235.387416 
L 82.989471 235.387416 
L 83.071039 234.821124 
L 83.234175 234.821124 
L 83.315744 233.122247 
L 83.397312 233.122247 
L 83.47888 232.414382 
L 83.560448 232.414382 
L 83.642016 232.131236 
L 83.805153 232.131236 
L 83.805153 231.989663 
L 83.968289 231.989663 
L 84.049858 230.573933 
L 84.131426 230.573933 
L 84.212994 230.00764 
L 84.539267 230.00764 
L 84.620835 229.016629 
L 84.702403 229.016629 
L 84.702403 228.733483 
L 84.86554 228.733483 
L 84.947108 227.600899 
L 85.110244 227.600899 
L 85.191813 226.751461 
L 85.354949 226.751461 
L 85.436517 226.185169 
L 85.76279 226.185169 
L 85.76279 224.203146 
L 85.925926 224.203146 
L 86.007495 223.778427 
L 86.170631 223.778427 
L 86.252199 223.353708 
L 86.333768 223.353708 
L 86.333768 223.212135 
L 86.496904 223.212135 
L 86.496904 222.787416 
L 86.741609 222.787416 
L 86.823177 221.230112 
L 86.904745 221.230112 
L 86.986313 220.946966 
L 87.067881 220.946966 
L 87.14945 220.66382 
L 87.394154 220.66382 
L 87.475723 220.239101 
L 87.557291 220.239101 
L 87.638859 219.955955 
L 87.801995 219.955955 
L 87.883564 219.24809 
L 88.0467 219.24809 
L 88.128268 217.973933 
L 88.291405 217.973933 
L 88.372973 216.982921 
L 88.536109 216.982921 
L 88.617678 216.133483 
L 88.699246 216.133483 
L 88.780814 215.284045 
L 88.862382 215.284045 
L 88.862382 215.000899 
L 89.107087 215.000899 
L 89.107087 214.57618 
L 89.270223 214.57618 
L 89.351791 213.585169 
L 89.596496 213.585169 
L 89.678064 213.018876 
L 89.759633 213.018876 
L 89.759633 212.877303 
L 89.922769 212.877303 
L 89.922769 212.73573 
L 90.412178 212.73573 
L 90.412178 212.452584 
L 90.575315 212.452584 
L 90.575315 212.027865 
L 90.820019 212.027865 
L 90.901588 211.178427 
L 91.146292 211.178427 
L 91.22786 210.753708 
L 91.390997 210.753708 
L 91.472565 210.470562 
L 91.71727 210.470562 
L 91.798838 209.90427 
L 91.880406 209.90427 
L 91.961974 209.479551 
L 92.043543 209.479551 
L 92.125111 209.054831 
L 92.288247 209.054831 
L 92.288247 208.913258 
L 92.532952 208.913258 
L 92.61452 208.630112 
L 92.696088 208.630112 
L 92.696088 207.639101 
L 93.103929 207.639101 
L 93.185498 207.355955 
L 93.430202 207.355955 
L 93.51177 207.072809 
L 93.593339 207.072809 
L 93.593339 206.931236 
L 93.838043 206.931236 
L 93.838043 206.64809 
L 94.082748 206.64809 
L 94.164316 206.364944 
L 94.327453 206.364944 
L 94.409021 205.798652 
L 94.572157 205.798652 
L 94.653725 205.090787 
L 94.979998 205.090787 
L 94.979998 204.241348 
L 95.143135 204.241348 
L 95.224703 203.250337 
L 95.306271 203.250337 
L 95.387839 202.825618 
L 95.550976 202.825618 
L 95.632544 201.97618 
L 96.121953 201.97618 
L 96.203521 201.551461 
L 96.28509 201.551461 
L 96.28509 201.409888 
L 96.611363 201.409888 
L 96.611363 201.268315 
L 96.937635 201.268315 
L 96.937635 201.126742 
L 97.100772 201.126742 
L 97.100772 200.985169 
L 97.508613 200.985169 
L 97.590181 200.418876 
L 97.671749 200.418876 
L 97.753318 199.994157 
L 97.834886 199.994157 
L 97.834886 199.852584 
L 98.161159 199.852584 
L 98.161159 199.711011 
L 98.324295 199.711011 
L 98.405863 199.003146 
L 98.487432 199.003146 
L 98.569 198.72 
L 98.650568 198.72 
L 98.732136 198.436854 
L 98.813704 198.436854 
L 98.895273 197.870562 
L 99.139977 197.870562 
L 99.139977 197.587416 
L 99.303114 197.587416 
L 99.384682 196.879551 
L 99.46625 196.879551 
L 99.46625 196.737978 
L 99.710955 196.737978 
L 99.792523 196.030112 
L 100.118796 196.030112 
L 100.200364 195.605393 
L 100.3635 195.605393 
L 100.3635 195.322247 
L 100.526637 195.322247 
L 100.526637 195.180674 
L 100.689773 195.180674 
L 100.689773 194.897528 
L 100.85291 194.897528 
L 100.934478 194.331236 
L 101.016046 194.331236 
L 101.097614 193.906517 
L 101.260751 193.906517 
L 101.260751 193.623371 
L 101.505455 193.623371 
L 101.587024 193.340225 
L 102.321138 193.340225 
L 102.402706 193.057079 
L 102.64741 193.057079 
L 102.728979 192.63236 
L 102.892115 192.63236 
L 102.892115 192.490787 
L 103.055252 192.490787 
L 103.055252 192.066067 
L 103.299956 192.066067 
L 103.381524 191.216629 
L 103.463093 191.216629 
L 103.544661 190.367191 
L 103.626229 190.367191 
L 103.626229 190.225618 
L 103.789365 190.225618 
L 103.870934 189.659326 
L 103.952502 189.659326 
L 104.03407 189.37618 
L 104.197207 189.37618 
L 104.197207 188.951461 
L 104.360343 188.951461 
L 104.360343 188.668315 
L 104.605048 188.668315 
L 104.605048 188.526742 
L 104.768184 188.526742 
L 104.849752 187.960449 
L 104.93132 187.960449 
L 105.012889 187.677303 
L 105.176025 187.677303 
L 105.176025 187.394157 
L 105.42073 187.394157 
L 105.42073 187.111011 
L 105.583866 187.111011 
L 105.583866 186.969438 
L 105.747003 186.969438 
L 105.828571 186.12 
L 105.910139 186.12 
L 105.991707 184.845843 
L 106.154844 184.845843 
L 106.154844 184.421124 
L 106.399548 184.421124 
L 106.399548 184.279551 
L 106.562685 184.279551 
L 106.644253 183.713258 
L 106.888958 183.713258 
L 106.970526 182.580674 
L 107.21523 182.580674 
L 107.296799 182.297528 
L 107.541503 182.297528 
L 107.623072 181.731236 
L 107.70464 181.731236 
L 107.70464 181.589663 
L 107.949344 181.589663 
L 108.030913 181.164944 
L 108.275617 181.164944 
L 108.357185 180.881798 
L 108.438754 180.881798 
L 108.520322 180.173933 
L 109.009731 180.173933 
L 109.009731 179.890787 
L 109.172868 179.890787 
L 109.172868 179.60764 
L 109.336004 179.60764 
L 109.336004 179.466067 
L 109.49914 179.466067 
L 109.49914 179.324494 
L 109.743845 179.324494 
L 109.825413 178.899775 
L 109.906982 178.899775 
L 109.906982 178.758202 
L 110.070118 178.758202 
L 110.151686 178.475056 
L 110.314823 178.475056 
L 110.396391 177.625618 
L 110.477959 177.625618 
L 110.477959 177.342472 
L 110.722664 177.342472 
L 110.722664 176.917753 
L 110.967368 176.917753 
L 111.048937 176.351461 
L 111.375209 176.351461 
L 111.456778 175.926742 
L 111.538346 175.926742 
L 111.538346 175.785169 
L 111.946187 175.785169 
L 112.027755 175.218876 
L 112.190892 175.218876 
L 112.190892 174.93573 
L 112.354028 174.93573 
L 112.435596 174.511011 
L 112.517164 174.511011 
L 112.517164 174.369438 
L 112.680301 174.369438 
L 112.680301 174.227865 
L 112.925006 174.227865 
L 112.925006 174.086292 
L 113.332847 174.086292 
L 113.332847 173.944719 
L 113.577551 173.944719 
L 113.659119 173.661573 
L 113.903824 173.661573 
L 113.985392 172.953708 
L 114.148529 172.953708 
L 114.148529 172.670562 
L 114.393233 172.670562 
L 114.393233 172.528989 
L 114.719506 172.528989 
L 114.801074 172.10427 
L 115.127347 172.10427 
L 115.208916 171.821124 
L 115.372052 171.821124 
L 115.45362 170.971685 
L 115.616757 170.971685 
L 115.616757 170.546966 
L 115.861461 170.546966 
L 115.861461 170.26382 
L 116.106166 170.26382 
L 116.106166 170.122247 
L 116.350871 170.122247 
L 116.432439 169.414382 
L 116.595575 169.414382 
L 116.595575 169.272809 
L 116.758712 169.272809 
L 116.84028 168.989663 
L 117.003416 168.989663 
L 117.084984 168.706517 
L 117.166553 168.706517 
L 117.248121 168.423371 
L 117.329689 168.423371 
L 117.329689 168.140225 
L 117.655962 168.140225 
L 117.73753 167.857079 
L 117.982235 167.857079 
L 117.982235 167.715506 
L 118.226939 167.715506 
L 118.308508 167.43236 
L 118.471644 167.43236 
L 118.471644 167.290787 
L 118.716349 167.290787 
L 118.797917 167.00764 
L 118.879485 167.00764 
L 118.879485 166.724494 
L 119.042622 166.724494 
L 119.042622 166.582921 
L 119.287326 166.582921 
L 119.368894 165.733483 
L 119.939872 165.733483 
L 119.939872 165.450337 
L 120.103008 165.450337 
L 120.103008 165.167191 
L 120.429281 165.167191 
L 120.429281 164.459326 
L 120.592418 164.459326 
L 120.592418 163.893034 
L 121.000259 163.893034 
L 121.081827 163.468315 
L 121.244963 163.468315 
L 121.244963 163.326742 
L 121.571236 163.326742 
L 121.571236 163.185169 
L 122.060646 163.185169 
L 122.142214 162.618876 
L 122.30535 162.618876 
L 122.386918 162.052584 
L 122.468487 162.052584 
L 122.468487 161.911011 
L 122.794759 161.911011 
L 122.876328 161.203146 
L 122.957896 161.203146 
L 123.039464 160.92 
L 123.202601 160.92 
L 123.202601 160.353708 
L 123.447305 160.353708 
L 123.528873 160.070562 
L 123.773578 160.070562 
L 123.855146 159.787416 
L 124.262987 159.787416 
L 124.262987 159.645843 
L 124.752397 159.645843 
L 124.752397 159.50427 
L 124.997101 159.50427 
L 124.997101 159.221124 
L 125.160238 159.221124 
L 125.160238 158.796404 
L 125.323374 158.796404 
L 125.404942 157.522247 
L 125.486511 157.522247 
L 125.568079 156.955955 
L 126.057488 156.955955 
L 126.057488 156.814382 
L 126.383761 156.814382 
L 126.465329 156.389663 
L 126.710034 156.389663 
L 126.710034 156.24809 
L 126.87317 156.24809 
L 126.954738 155.540225 
L 127.199443 155.540225 
L 127.199443 155.115506 
L 127.688852 155.115506 
L 127.688852 154.83236 
L 128.178262 154.83236 
L 128.25983 154.549213 
L 128.586103 154.549213 
L 128.667671 153.982921 
L 128.830807 153.982921 
L 128.830807 153.275056 
L 129.238648 153.275056 
L 129.320217 152.425618 
L 129.401785 152.142472 
L 129.64649 152.142472 
L 129.64649 151.859326 
L 129.891194 151.859326 
L 129.891194 151.717753 
L 130.299035 151.717753 
L 130.299035 151.57618 
L 130.54374 151.57618 
L 130.625308 151.293034 
L 130.706876 151.293034 
L 130.706876 151.151461 
L 131.033149 151.151461 
L 131.033149 150.868315 
L 131.196286 150.868315 
L 131.196286 150.585169 
L 131.522558 150.585169 
L 131.522558 150.160449 
L 131.848831 150.160449 
L 131.9304 149.594157 
L 132.419809 149.594157 
L 132.419809 149.169438 
L 133.153923 149.169438 
L 133.235491 148.603146 
L 133.317059 148.603146 
L 133.317059 148.461573 
L 133.888037 148.461573 
L 133.888037 148.036854 
L 134.132741 148.036854 
L 134.132741 147.895281 
L 134.540582 147.895281 
L 134.622151 147.470562 
L 134.785287 147.470562 
L 134.785287 147.187416 
L 135.029992 147.187416 
L 135.029992 147.045843 
L 135.600969 147.045843 
L 135.600969 146.90427 
L 135.845674 146.90427 
L 135.845674 146.762697 
L 136.00881 146.762697 
L 136.090378 146.337978 
L 136.171947 146.337978 
L 136.253515 145.913258 
L 136.824492 145.913258 
L 136.824492 145.630112 
L 137.232333 145.630112 
L 137.313902 145.346966 
L 137.39547 145.346966 
L 137.39547 145.205393 
L 137.640175 145.205393 
L 137.721743 144.639101 
L 137.803311 144.639101 
L 137.803311 144.355955 
L 138.129584 144.355955 
L 138.129584 144.214382 
L 139.026834 144.214382 
L 139.026834 144.072809 
L 139.189971 144.072809 
L 139.189971 143.64809 
L 139.67938 143.64809 
L 139.67938 143.506517 
L 139.924085 143.506517 
L 140.005653 143.223371 
L 140.821335 143.223371 
L 140.821335 142.940225 
L 140.984471 142.940225 
L 140.984471 142.657079 
L 141.473881 142.657079 
L 141.473881 142.515506 
L 141.637017 142.515506 
L 141.718585 142.090787 
L 142.778972 142.090787 
L 142.778972 141.949213 
L 142.942109 141.949213 
L 142.942109 141.80764 
L 143.431518 141.80764 
L 143.431518 141.666067 
L 143.594654 141.666067 
L 143.676222 141.241348 
L 144.002495 141.241348 
L 144.002495 141.099775 
L 144.410336 141.099775 
L 144.491905 140.675056 
L 144.655041 140.675056 
L 144.736609 140.39191 
L 144.981314 140.39191 
L 144.981314 140.250337 
L 145.14445 140.250337 
L 145.226019 139.967191 
L 145.389155 139.967191 
L 145.389155 139.684045 
L 145.552291 139.684045 
L 145.552291 139.400899 
L 146.694246 139.400899 
L 146.694246 139.259326 
L 146.857383 139.259326 
L 146.857383 138.97618 
L 147.183656 138.97618 
L 147.183656 138.834607 
L 147.346792 138.834607 
L 147.346792 138.551461 
L 147.509929 138.551461 
L 147.591497 138.126742 
L 147.673065 138.126742 
L 147.673065 137.843596 
L 147.999338 137.843596 
L 148.080906 137.418876 
L 148.407179 137.418876 
L 148.407179 137.13573 
L 148.570315 137.13573 
L 148.651884 136.852584 
L 148.896588 136.852584 
L 148.978156 136.427865 
L 149.059725 136.427865 
L 149.141293 136.003146 
L 149.222861 136.003146 
L 149.222861 135.861573 
L 149.467566 135.861573 
L 149.467566 135.72 
L 149.630702 135.72 
L 149.630702 135.578427 
L 150.120111 135.578427 
L 150.120111 135.436854 
L 150.283248 135.436854 
L 150.364816 134.870562 
L 150.446384 134.870562 
L 150.446384 134.728989 
L 150.609521 134.728989 
L 150.609521 134.587416 
L 150.854225 134.587416 
L 150.854225 134.445843 
L 151.180498 134.445843 
L 151.180498 134.30427 
L 151.506771 134.30427 
L 151.588339 134.021124 
L 151.669907 134.021124 
L 151.751476 133.454831 
L 151.833044 133.454831 
L 151.833044 133.313258 
L 152.567158 133.313258 
L 152.567158 133.171685 
L 153.056567 133.171685 
L 153.056567 133.030112 
L 153.219704 133.030112 
L 153.219704 132.746966 
L 153.38284 132.746966 
L 153.38284 132.605393 
L 153.709113 132.605393 
L 153.790681 132.180674 
L 154.7695 132.180674 
L 154.7695 131.614382 
L 155.340477 131.614382 
L 155.422045 131.189663 
L 155.503614 131.189663 
L 155.503614 131.04809 
L 155.748318 131.04809 
L 155.748318 130.906517 
L 155.911455 130.906517 
L 155.993023 130.481798 
L 156.400864 130.481798 
L 156.482432 129.915506 
L 156.890273 129.915506 
L 156.971841 129.490787 
L 157.05341 129.490787 
L 157.05341 129.349213 
L 157.624387 129.349213 
L 157.705955 129.066067 
L 157.869092 129.066067 
L 157.95066 128.782921 
L 158.032228 128.782921 
L 158.032228 128.499775 
L 158.276933 128.499775 
L 158.276933 128.216629 
L 158.521638 128.216629 
L 158.521638 128.075056 
L 158.929479 128.075056 
L 159.011047 127.650337 
L 159.255751 127.650337 
L 159.33732 126.800899 
L 159.418888 126.800899 
L 159.500456 126.37618 
L 159.582024 126.37618 
L 159.582024 126.234607 
L 159.826729 126.234607 
L 159.908297 125.809888 
L 160.071434 125.809888 
L 160.153002 125.526742 
L 160.316138 125.526742 
L 160.397706 125.102022 
L 160.560843 125.102022 
L 160.642411 124.677303 
L 160.723979 124.677303 
L 160.723979 124.394157 
L 160.887116 124.394157 
L 160.887116 124.252584 
L 161.050252 124.252584 
L 161.050252 124.111011 
L 161.539661 124.111011 
L 161.539661 123.827865 
L 161.702798 123.827865 
L 161.784366 123.403146 
L 161.947503 123.403146 
L 161.947503 123.261573 
L 162.600048 123.261573 
L 162.681616 122.978427 
L 162.926321 122.978427 
L 162.926321 122.836854 
L 163.089458 122.836854 
L 163.089458 122.695281 
L 163.252594 122.695281 
L 163.252594 122.553708 
L 163.41573 122.553708 
L 163.41573 122.412135 
L 163.823571 122.412135 
L 163.90514 122.128989 
L 163.986708 122.128989 
L 164.068276 121.845843 
L 164.312981 121.845843 
L 164.312981 121.562697 
L 165.047095 121.562697 
L 165.047095 121.421124 
L 165.210231 121.421124 
L 165.210231 121.279551 
L 165.373368 121.279551 
L 165.373368 120.713258 
L 165.618072 120.713258 
L 165.69964 120.288539 
L 165.781209 120.288539 
L 165.781209 120.146966 
L 165.944345 120.146966 
L 165.944345 120.005393 
L 166.18905 120.005393 
L 166.18905 119.722247 
L 166.352186 119.722247 
L 166.433754 119.297528 
L 166.760027 119.297528 
L 166.760027 119.155955 
L 166.923164 119.155955 
L 166.923164 119.014382 
L 167.167868 119.014382 
L 167.167868 118.872809 
L 167.901982 118.872809 
L 167.901982 118.731236 
L 168.146687 118.731236 
L 168.146687 118.589663 
L 168.309823 118.589663 
L 168.391392 118.164944 
L 168.717664 118.164944 
L 168.717664 118.023371 
L 168.880801 118.023371 
L 168.962369 117.740225 
L 169.859619 117.740225 
L 169.859619 117.457079 
L 170.022756 117.457079 
L 170.104324 116.890787 
L 170.185892 116.890787 
L 170.185892 116.749213 
L 171.001574 116.749213 
L 171.001574 116.466067 
L 171.327847 116.466067 
L 171.327847 116.324494 
L 171.65412 116.324494 
L 171.65412 116.182921 
L 171.817257 116.182921 
L 171.817257 116.041348 
L 172.143529 116.041348 
L 172.225098 115.758202 
L 172.306666 115.758202 
L 172.388234 115.475056 
L 172.55137 115.475056 
L 172.632939 115.19191 
L 173.04078 115.19191 
L 173.04078 114.908764 
L 173.203916 114.908764 
L 173.203916 114.342472 
L 173.530189 114.342472 
L 173.530189 114.200899 
L 174.101167 114.200899 
L 174.101167 114.059326 
L 174.427439 114.059326 
L 174.427439 113.917753 
L 174.998417 113.917753 
L 174.998417 113.77618 
L 175.569394 113.77618 
L 175.569394 113.634607 
L 175.732531 113.634607 
L 175.814099 113.351461 
L 176.466645 113.351461 
L 176.466645 112.926742 
L 176.629781 112.926742 
L 176.711349 112.643596 
L 176.956054 112.643596 
L 176.956054 112.502022 
L 177.363895 112.502022 
L 177.445463 112.218876 
L 177.527032 112.218876 
L 177.527032 112.077303 
L 177.771736 112.077303 
L 177.771736 111.93573 
L 178.016441 111.93573 
L 178.098009 111.652584 
L 178.179577 111.652584 
L 178.179577 111.511011 
L 178.342714 111.511011 
L 178.342714 111.369438 
L 178.587418 111.369438 
L 178.587418 111.227865 
L 178.832123 111.227865 
L 178.832123 110.803146 
L 179.076828 110.803146 
L 179.158396 110.52 
L 179.321532 110.52 
L 179.321532 110.378427 
L 180.381919 110.378427 
L 180.381919 110.236854 
L 180.708192 110.236854 
L 180.78976 109.812135 
L 181.116033 109.812135 
L 181.116033 109.670562 
L 181.279169 109.670562 
L 181.279169 109.387416 
L 181.687011 109.387416 
L 181.687011 109.245843 
L 182.17642 109.245843 
L 182.17642 108.962697 
L 182.910534 108.962697 
L 182.992102 108.537978 
L 183.807784 108.537978 
L 183.889352 107.971685 
L 183.970921 107.971685 
L 183.970921 107.830112 
L 184.541898 107.830112 
L 184.541898 107.688539 
L 184.949739 107.688539 
L 184.949739 107.405393 
L 185.112876 107.405393 
L 185.112876 107.26382 
L 185.439148 107.26382 
L 185.520717 106.980674 
L 185.602285 106.980674 
L 185.602285 106.839101 
L 185.765421 106.839101 
L 185.765421 106.697528 
L 186.581103 106.697528 
L 186.581103 106.555955 
L 187.070513 106.555955 
L 187.070513 106.414382 
L 187.152081 106.414382 
L 187.478354 106.414382 
L 187.478354 106.131236 
L 187.64149 106.131236 
L 187.64149 105.989663 
L 188.457172 105.989663 
L 188.457172 105.84809 
L 188.620309 105.84809 
L 188.620309 105.706517 
L 188.783445 105.706517 
L 188.865013 105.281798 
L 189.517559 105.281798 
L 189.517559 105.140225 
L 190.251673 105.140225 
L 190.333241 104.715506 
L 190.741082 104.715506 
L 190.741082 104.43236 
L 191.638333 104.43236 
L 191.638333 104.290787 
L 192.698719 104.290787 
L 192.698719 104.149213 
L 192.861856 104.149213 
L 192.943424 103.299775 
L 193.269697 103.299775 
L 193.269697 103.158202 
L 193.432833 103.158202 
L 193.432833 102.59191 
L 193.677538 102.59191 
L 193.759106 102.308764 
L 193.922243 102.308764 
L 193.922243 102.167191 
L 194.166947 102.167191 
L 194.166947 102.025618 
L 194.330084 102.025618 
L 194.330084 101.884045 
L 194.737925 101.884045 
L 194.819493 101.459326 
L 194.901061 101.459326 
L 194.901061 101.17618 
L 195.390471 101.17618 
L 195.390471 101.034607 
L 195.87988 101.034607 
L 195.87988 100.893034 
L 196.124585 100.893034 
L 196.124585 100.609888 
L 197.103403 100.609888 
L 197.184971 100.326742 
L 198.571631 100.326742 
L 198.571631 100.185169 
L 198.979472 100.185169 
L 199.06104 99.902022 
L 199.142608 99.902022 
L 199.224177 99.477303 
L 199.387313 99.477303 
L 199.387313 99.052584 
L 199.55045 99.052584 
L 199.632018 98.627865 
L 199.876722 98.627865 
L 199.876722 98.486292 
L 200.366132 98.486292 
L 200.366132 98.344719 
L 200.937109 98.344719 
L 201.018677 98.061573 
L 201.100246 98.061573 
L 201.100246 97.778427 
L 201.83436 97.778427 
L 201.83436 97.495281 
L 202.73161 97.495281 
L 202.73161 97.353708 
L 203.465724 97.353708 
L 203.465724 97.070562 
L 203.791997 97.070562 
L 203.791997 96.221124 
L 204.362974 96.221124 
L 204.444542 95.937978 
L 204.607679 95.937978 
L 204.607679 95.796404 
L 205.097088 95.796404 
L 205.178656 95.513258 
L 205.260225 95.513258 
L 205.260225 95.371685 
L 206.075907 95.371685 
L 206.075907 94.946966 
L 206.728452 94.946966 
L 206.810021 94.66382 
L 207.136293 94.66382 
L 207.136293 94.522247 
L 207.788839 94.522247 
L 207.788839 94.380674 
L 208.115112 94.380674 
L 208.115112 94.239101 
L 208.68609 94.239101 
L 208.767658 93.955955 
L 208.849226 93.955955 
L 208.930794 93.672809 
L 209.012362 93.672809 
L 209.093931 93.106517 
L 210.154317 93.106517 
L 210.154317 92.398652 
L 210.562159 92.398652 
L 210.562159 92.257079 
L 210.725295 92.257079 
L 210.725295 91.973933 
L 210.97 91.973933 
L 210.97 91.83236 
L 211.133136 91.83236 
L 211.214704 91.40764 
L 211.377841 91.40764 
L 211.377841 91.266067 
L 211.622545 91.266067 
L 211.622545 91.124494 
L 211.86725 91.124494 
L 211.86725 90.982921 
L 212.519796 90.982921 
L 212.519796 90.699775 
L 212.682932 90.699775 
L 212.682932 90.558202 
L 213.172341 90.558202 
L 213.172341 90.416629 
L 213.580182 90.416629 
L 213.661751 89.99191 
L 213.824887 89.99191 
L 213.824887 89.850337 
L 214.232728 89.850337 
L 214.232728 89.567191 
L 214.559001 89.567191 
L 214.559001 89.425618 
L 214.885274 89.425618 
L 214.885274 89.284045 
L 215.374683 89.284045 
L 215.456251 88.859326 
L 215.53782 88.859326 
L 215.53782 88.57618 
L 215.782524 88.57618 
L 216.027229 88.151461 
L 216.190365 88.151461 
L 216.190365 88.009888 
L 216.43507 88.009888 
L 216.43507 87.726742 
L 216.761343 87.726742 
L 216.761343 87.585169 
L 217.413889 87.585169 
L 217.413889 87.443596 
L 218.148002 87.443596 
L 218.148002 87.302022 
L 218.555844 87.302022 
L 218.555844 87.018876 
L 219.453094 87.018876 
L 219.453094 86.594157 
L 219.697799 86.594157 
L 219.779367 86.311011 
L 220.187208 86.311011 
L 220.187208 86.169438 
L 220.595049 86.169438 
L 220.595049 86.027865 
L 221.084458 86.027865 
L 221.084458 85.886292 
L 221.247595 85.886292 
L 221.247595 85.744719 
L 221.573868 85.744719 
L 221.573868 85.603146 
L 222.307981 85.603146 
L 222.307981 85.461573 
L 222.471118 85.461573 
L 222.471118 85.32 
L 223.205232 85.32 
L 223.205232 85.178427 
L 223.857778 85.178427 
L 223.939346 84.895281 
L 224.591891 84.895281 
L 224.67346 84.612135 
L 225.162869 84.612135 
L 225.162869 84.470562 
L 225.57071 84.470562 
L 225.57071 84.328989 
L 226.141688 84.328989 
L 226.141688 84.187416 
L 226.386392 84.187416 
L 226.46796 83.621124 
L 226.712665 83.621124 
L 226.712665 83.479551 
L 226.875801 83.479551 
L 226.875801 83.337978 
L 227.773052 83.337978 
L 227.773052 83.196404 
L 228.344029 83.196404 
L 228.425598 82.771685 
L 228.588734 82.771685 
L 228.670302 82.488539 
L 229.322848 82.488539 
L 229.322848 82.346966 
L 229.567553 82.346966 
L 229.649121 82.06382 
L 230.546371 82.06382 
L 230.627939 81.780674 
L 230.791076 81.780674 
L 230.791076 81.639101 
L 231.198917 81.639101 
L 231.198917 81.497528 
L 231.52519 81.497528 
L 231.52519 81.355955 
L 232.014599 81.355955 
L 232.014599 81.214382 
L 232.993418 81.214382 
L 232.993418 80.931236 
L 233.156554 80.931236 
L 233.156554 80.789663 
L 233.31969 80.789663 
L 233.31969 80.64809 
L 233.645963 80.64809 
L 233.645963 80.506517 
L 233.8091 80.506517 
L 233.8091 80.364944 
L 234.053804 80.364944 
L 234.135373 80.081798 
L 234.298509 80.081798 
L 234.380077 79.657079 
L 235.440464 79.657079 
L 235.440464 79.515506 
L 236.337714 79.515506 
L 236.337714 79.373933 
L 237.234965 79.373933 
L 237.234965 79.23236 
L 237.88751 79.23236 
L 237.88751 79.090787 
L 238.132215 79.090787 
L 238.132215 78.949213 
L 238.947897 78.949213 
L 238.947897 78.666067 
L 239.600443 78.666067 
L 239.600443 78.524494 
L 239.763579 78.524494 
L 239.763579 78.382921 
L 240.17142 78.382921 
L 240.17142 78.099775 
L 240.334557 78.099775 
L 240.334557 77.958202 
L 241.231807 77.958202 
L 241.313375 77.816629 
L 242.210626 77.816629 
L 242.210626 77.533483 
L 242.373762 77.533483 
L 242.45533 77.250337 
L 242.863172 77.250337 
L 242.863172 76.967191 
L 243.597285 76.967191 
L 243.597285 76.825618 
L 244.005127 76.825618 
L 244.086695 76.542472 
L 244.331399 76.542472 
L 244.331399 76.400899 
L 245.473354 76.400899 
L 245.473354 76.259326 
L 245.718059 76.259326 
L 245.718059 75.97618 
L 245.962764 75.97618 
L 246.044332 75.409888 
L 246.778446 75.409888 
L 246.778446 75.268315 
L 247.104719 75.268315 
L 247.104719 75.126742 
L 247.267855 75.126742 
L 247.267855 74.985169 
L 248.654515 74.985169 
L 248.654515 74.560449 
L 249.714902 74.560449 
L 249.714902 74.418876 
L 250.775288 74.418876 
L 250.856857 74.13573 
L 250.938425 74.13573 
L 250.938425 73.994157 
L 251.509402 73.994157 
L 251.509402 73.852584 
L 252.732926 73.852584 
L 252.732926 73.711011 
L 253.793312 73.711011 
L 253.793312 73.569438 
L 254.119585 73.569438 
L 254.119585 73.427865 
L 254.527426 73.427865 
L 254.608994 73.144719 
L 254.935267 73.144719 
L 254.935267 73.003146 
L 255.179972 73.003146 
L 255.179972 72.861573 
L 255.424677 72.861573 
L 255.424677 72.578427 
L 255.587813 72.578427 
L 255.669381 72.153708 
L 255.914086 72.153708 
L 255.914086 72.012135 
L 256.403495 72.012135 
L 256.403495 71.870562 
L 257.463882 71.870562 
L 257.463882 71.587416 
L 257.627018 71.587416 
L 257.627018 71.30427 
L 258.116428 71.30427 
L 258.116428 71.162697 
L 258.361132 71.162697 
L 258.442701 70.454831 
L 260.155633 70.454831 
L 260.155633 70.171685 
L 260.318769 70.171685 
L 260.318769 70.030112 
L 260.726611 70.030112 
L 260.726611 69.888539 
L 261.134452 69.888539 
L 261.134452 69.746966 
L 261.542293 69.746966 
L 261.623861 69.322247 
L 263.49993 69.322247 
L 263.49993 69.039101 
L 263.663066 69.039101 
L 263.744635 68.755955 
L 265.212862 68.755955 
L 265.212862 68.614382 
L 266.110113 68.614382 
L 266.110113 68.189663 
L 266.273249 68.189663 
L 266.273249 68.04809 
L 266.68109 68.04809 
L 266.68109 67.906517 
L 267.1705 67.906517 
L 267.1705 67.764944 
L 267.415204 67.764944 
L 267.415204 67.623371 
L 267.986182 67.623371 
L 267.986182 67.481798 
L 268.149318 67.481798 
L 268.149318 67.340225 
L 268.720296 67.340225 
L 268.720296 67.198652 
L 268.965 67.198652 
L 269.046568 67.057079 
L 271.24891 67.057079 
L 271.24891 66.773933 
L 271.901456 66.773933 
L 271.901456 66.63236 
L 272.227729 66.63236 
L 272.227729 66.490787 
L 272.961843 66.490787 
L 272.961843 66.20764 
L 273.53282 66.20764 
L 273.614388 65.924494 
L 273.695957 65.924494 
L 273.695957 65.641348 
L 274.02223 65.641348 
L 274.02223 65.499775 
L 274.266934 65.499775 
L 274.266934 65.358202 
L 274.511639 65.358202 
L 274.511639 65.216629 
L 274.837912 65.216629 
L 274.837912 65.075056 
L 277.284958 65.075056 
L 277.284958 64.933483 
L 278.834754 64.933483 
L 278.834754 64.79191 
L 279.242595 64.79191 
L 279.242595 64.508764 
L 279.4873 64.508764 
L 279.4873 64.367191 
L 280.058277 64.367191 
L 280.058277 64.084045 
L 280.710823 64.084045 
L 280.710823 63.942472 
L 281.363369 63.942472 
L 281.444937 63.659326 
L 282.260619 63.659326 
L 282.260619 63.37618 
L 283.891984 63.37618 
L 283.891984 63.234607 
L 284.218256 63.234607 
L 284.218256 63.093034 
L 284.462961 63.093034 
L 284.462961 62.951461 
L 284.95237 62.951461 
L 284.95237 62.809888 
L 285.849621 62.809888 
L 285.931189 62.526742 
L 286.257462 62.526742 
L 286.33903 62.102022 
L 287.644121 62.102022 
L 287.644121 61.960449 
L 288.459804 61.960449 
L 288.459804 61.818876 
L 288.786076 61.818876 
L 288.786076 61.677303 
L 289.601759 61.677303 
L 289.601759 61.394157 
L 290.662145 61.394157 
L 290.662145 61.111011 
L 291.233123 61.111011 
L 291.233123 60.969438 
L 292.538214 60.969438 
L 292.538214 60.686292 
L 293.109192 60.686292 
L 293.109192 60.544719 
L 293.517033 60.544719 
L 293.517033 60.403146 
L 293.680169 60.403146 
L 293.680169 60.12 
L 293.843306 60.12 
L 293.843306 59.978427 
L 294.740556 59.978427 
L 294.740556 59.695281 
L 294.903693 59.695281 
L 294.985261 59.412135 
L 295.311534 59.412135 
L 295.311534 59.128989 
L 295.637806 59.128989 
L 295.637806 58.987416 
L 295.800943 58.987416 
L 295.882511 58.70427 
L 296.453489 58.70427 
L 296.535057 58.421124 
L 296.616625 58.421124 
L 296.616625 58.279551 
L 297.024466 58.279551 
L 297.024466 57.996404 
L 298.737399 57.996404 
L 298.737399 57.713258 
L 298.900535 57.713258 
L 298.900535 57.571685 
L 299.797785 57.571685 
L 299.797785 57.430112 
L 300.04249 57.430112 
L 300.04249 57.288539 
L 300.695036 57.288539 
L 300.695036 57.146966 
L 301.347581 57.146966 
L 301.42915 56.86382 
L 301.673854 56.86382 
L 301.755423 56.580674 
L 302.3264 56.580674 
L 302.3264 56.439101 
L 302.897378 56.439101 
L 302.978946 56.014382 
L 303.71306 56.014382 
L 303.71306 55.872809 
L 305.018151 55.872809 
L 305.018151 55.731236 
L 305.589129 55.731236 
L 305.589129 55.589663 
L 306.486379 55.589663 
L 306.486379 55.44809 
L 306.975788 55.44809 
L 306.975788 55.306517 
L 307.465198 55.306517 
L 307.465198 55.164944 
L 308.117743 55.164944 
L 308.117743 55.023371 
L 308.444016 55.023371 
L 308.444016 54.881798 
L 308.770289 54.881798 
L 308.770289 54.740225 
L 309.17813 54.740225 
L 309.17813 54.457079 
L 309.422835 54.457079 
L 309.422835 54.315506 
L 309.912244 54.315506 
L 309.912244 54.173933 
L 312.440859 54.173933 
L 312.440859 54.03236 
L 312.767132 54.03236 
L 312.767132 53.890787 
L 313.582814 53.890787 
L 313.582814 53.749213 
L 313.909087 53.749213 
L 313.909087 53.466067 
L 314.398496 53.466067 
L 314.398496 53.324494 
L 314.6432 53.324494 
L 314.724769 53.041348 
L 315.948292 53.041348 
L 315.948292 52.899775 
L 316.356133 52.899775 
L 316.356133 52.616629 
L 316.682406 52.616629 
L 316.682406 52.475056 
L 317.171815 52.475056 
L 317.171815 52.333483 
L 318.803179 52.333483 
L 318.803179 52.050337 
L 319.374157 52.050337 
L 319.374157 51.908764 
L 321.331794 51.908764 
L 321.331794 51.767191 
L 321.576499 51.767191 
L 321.576499 51.625618 
L 321.902772 51.625618 
L 321.902772 51.484045 
L 322.065908 51.484045 
L 322.065908 51.200899 
L 322.636886 51.200899 
L 322.636886 51.059326 
L 322.963158 51.059326 
L 322.963158 50.917753 
L 323.126295 50.917753 
L 323.207863 50.493034 
L 323.534136 50.493034 
L 323.534136 50.068315 
L 324.186682 50.068315 
L 324.186682 49.926742 
L 324.757659 49.926742 
L 324.757659 49.643596 
L 325.002364 49.643596 
L 325.002364 49.360449 
L 325.410205 49.360449 
L 325.410205 49.218876 
L 326.470592 49.218876 
L 326.55216 48.93573 
L 328.101956 48.93573 
L 328.101956 48.794157 
L 328.346661 48.794157 
L 328.428229 48.369438 
L 328.999206 48.369438 
L 329.080774 48.086292 
L 329.896457 48.086292 
L 329.978025 47.944719 
L 330.304298 47.944719 
L 330.304298 47.803146 
L 331.364684 47.803146 
L 331.364684 47.661573 
L 332.588208 47.661573 
L 332.588208 47.52 
L 332.914481 47.52 
L 332.914481 47.378427 
L 333.485458 47.378427 
L 333.567026 46.953708 
L 333.893299 46.953708 
L 333.974867 46.670562 
L 336.340346 46.670562 
L 336.340346 46.528989 
L 337.482301 46.528989 
L 337.482301 46.10427 
L 337.645437 46.10427 
L 337.645437 45.962697 
L 339.929347 45.962697 
L 339.929347 45.821124 
L 340.092483 45.821124 
L 340.174052 45.537978 
L 341.397575 45.537978 
L 341.397575 45.254831 
L 341.805416 45.254831 
L 341.805416 45.113258 
L 342.131689 45.113258 
L 342.131689 44.971685 
L 342.53953 44.971685 
L 342.53953 44.830112 
L 342.865803 44.830112 
L 342.865803 44.688539 
L 343.110507 44.688539 
L 343.110507 44.546966 
L 343.355212 44.546966 
L 343.355212 44.26382 
L 344.905008 44.26382 
L 344.905008 44.122247 
L 345.068145 44.122247 
L 345.068145 43.980674 
L 345.557554 43.980674 
L 345.639122 43.697528 
L 346.2101 43.697528 
L 346.2101 43.555955 
L 347.025782 43.555955 
L 347.025782 43.272809 
L 347.841464 43.272809 
L 347.841464 43.131236 
L 348.575578 43.131236 
L 348.575578 42.989663 
L 348.738714 42.989663 
L 348.738714 42.84809 
L 349.554396 42.84809 
L 349.554396 42.706517 
L 349.717533 42.706517 
L 349.717533 42.564944 
L 349.962237 42.564944 
L 349.962237 42.423371 
L 350.941056 42.423371 
L 350.941056 42.281798 
L 351.430465 42.281798 
L 351.430465 41.998652 
L 351.838306 41.998652 
L 351.838306 41.857079 
L 352.001443 41.857079 
L 352.001443 41.573933 
L 352.490852 41.573933 
L 352.490852 41.43236 
L 352.980261 41.43236 
L 353.06183 41.149213 
L 354.937899 41.149213 
L 355.019467 40.866067 
L 355.182603 40.866067 
L 355.182603 40.724494 
L 355.508876 40.724494 
L 355.508876 40.582921 
L 356.24299 40.582921 
L 356.24299 40.441348 
L 357.711218 40.441348 
L 357.711218 40.299775 
L 358.363764 40.299775 
L 358.363764 40.158202 
L 358.771605 40.158202 
L 358.771605 40.016629 
L 359.587287 40.016629 
L 359.587287 39.875056 
L 361.300219 39.875056 
L 361.300219 39.733483 
L 361.463356 39.733483 
L 361.463356 39.59191 
L 362.686879 39.59191 
L 362.686879 39.308764 
L 363.09472 39.308764 
L 363.09472 39.167191 
L 363.420993 39.167191 
L 363.420993 38.884045 
L 363.99197 38.884045 
L 363.99197 38.742472 
L 364.562948 38.742472 
L 364.562948 38.600899 
L 364.726084 38.600899 
L 364.807653 38.17618 
L 365.052357 38.17618 
L 365.052357 38.034607 
L 365.623335 38.034607 
L 365.623335 37.893034 
L 367.009994 37.893034 
L 367.009994 37.751461 
L 370.191155 37.751461 
L 370.191155 37.609888 
L 374.269565 37.609888 
L 374.269565 37.468315 
L 374.51427 37.468315 
L 374.51427 37.326742 
L 374.758975 37.326742 
L 374.758975 37.185169 
L 375.166816 37.185169 
L 375.166816 37.043596 
L 375.41152 37.043596 
L 375.41152 36.760449 
L 375.819362 36.760449 
L 375.819362 36.477303 
L 376.145634 36.477303 
L 376.145634 36.33573 
L 376.308771 36.33573 
L 376.308771 36.194157 
L 378.837385 36.194157 
L 378.837385 36.052584 
L 379.163658 36.052584 
L 379.163658 35.911011 
L 379.734636 35.911011 
L 379.734636 35.769438 
L 380.46875 35.769438 
L 380.46875 35.627865 
L 382.589523 35.627865 
L 382.589523 35.344719 
L 385.118138 35.344719 
L 385.118138 35.203146 
L 385.93382 35.203146 
L 385.93382 35.061573 
L 387.075775 35.061573 
L 387.075775 34.92 
L 387.402048 34.92 
L 387.402048 34.778427 
L 389.196549 34.778427 
L 389.196549 34.495281 
L 389.930663 34.495281 
L 389.930663 34.353708 
L 390.909481 34.353708 
L 390.909481 34.070562 
L 391.317322 34.070562 
L 391.317322 33.928989 
L 393.438096 33.928989 
L 393.438096 33.787416 
L 394.253778 33.787416 
L 394.335346 33.50427 
L 397.598075 33.50427 
L 397.679643 33.221124 
L 398.984734 33.221124 
L 398.984734 33.079551 
L 399.718848 33.079551 
L 399.718848 32.937978 
L 401.02394 32.937978 
L 401.02394 32.796404 
L 401.594917 32.796404 
L 401.594917 32.654831 
L 402.084327 32.654831 
L 402.084327 32.513258 
L 402.573736 32.513258 
L 402.573736 32.088539 
L 403.063145 32.088539 
L 403.063145 31.946966 
L 404.041964 31.946966 
L 404.041964 31.805393 
L 405.102351 31.805393 
L 405.102351 31.66382 
L 405.918033 31.66382 
L 405.918033 31.522247 
L 406.733715 31.522247 
L 406.733715 31.380674 
L 407.467829 31.380674 
L 407.467829 31.239101 
L 407.712533 31.239101 
L 407.712533 31.097528 
L 408.854488 31.097528 
L 408.936057 30.814382 
L 410.485853 30.814382 
L 410.485853 30.672809 
L 410.730557 30.672809 
L 410.730557 30.531236 
L 412.688195 30.531236 
L 412.769763 30.24809 
L 414.482695 30.24809 
L 414.482695 30.106517 
L 416.032491 30.106517 
L 416.11406 29.823371 
L 416.685037 29.823371 
L 416.685037 29.681798 
L 417.90856 29.681798 
L 417.90856 29.540225 
L 419.376788 29.540225 
L 419.376788 29.257079 
L 419.947766 29.257079 
L 419.947766 29.115506 
L 420.274039 29.115506 
L 420.274039 28.973933 
L 425.575972 28.973933 
L 425.575972 28.83236 
L 429.409679 28.83236 
L 429.409679 28.690787 
L 429.735951 28.690787 
L 429.735951 28.549213 
L 432.590839 28.549213 
L 432.590839 28.40764 
L 432.99868 28.40764 
L 432.99868 28.266067 
L 434.793181 28.266067 
L 434.793181 28.124494 
L 440.013546 28.124494 
L 440.013546 27.982921 
L 441.155501 27.982921 
L 441.155501 27.841348 
L 442.052752 27.841348 
L 442.13432 27.558202 
L 443.602548 27.558202 
L 443.602548 27.416629 
L 452.738188 27.416629 
L 452.738188 27.275056 
L 453.55387 27.275056 
L 453.55387 27.133483 
L 454.124848 27.133483 
L 454.124848 26.99191 
L 455.266803 26.99191 
L 455.266803 26.850337 
L 456.571894 26.850337 
L 456.571894 26.567191 
L 458.937372 26.567191 
L 458.937372 26.425618 
L 459.182077 26.425618 
L 459.182077 26.284045 
L 463.260488 26.284045 
L 463.260488 26.142472 
L 466.033807 26.142472 
L 466.033807 26.000899 
L 467.583603 26.000899 
L 467.583603 25.859326 
L 471.82515 25.859326 
L 471.82515 25.57618 
L 473.945924 25.57618 
L 473.945924 25.434607 
L 476.88238 25.434607 
L 476.88238 25.293034 
L 478.595312 25.293034 
L 478.595312 25.151461 
L 481.042358 25.151461 
L 481.042358 25.009888 
L 483.2447 25.009888 
L 483.2447 24.868315 
L 483.73411 24.868315 
L 483.73411 24.726742 
L 485.120769 24.726742 
L 485.120769 24.585169 
L 485.854883 24.585169 
L 485.854883 24.443596 
L 487.730952 24.443596 
L 487.730952 24.302022 
L 489.525453 24.302022 
L 489.525453 24.160449 
L 489.770157 24.160449 
L 489.770157 24.018876 
L 494.011705 24.018876 
L 494.011705 23.877303 
L 495.479932 23.877303 
L 495.479932 23.73573 
L 504.207731 23.73573 
L 504.207731 23.594157 
L 506.981051 23.594157 
L 506.981051 23.452584 
L 509.917506 23.452584 
L 509.999075 23.169438 
L 510.977893 23.169438 
L 510.977893 23.027865 
L 512.93553 23.027865 
L 512.93553 22.886292 
L 513.180235 22.886292 
L 513.180235 22.744719 
L 524.681353 22.744719 
L 524.681353 22.603146 
L 528.596628 22.603146 
L 528.596628 22.461573 
L 548.662408 22.461573 
L 548.662408 22.32 
L 578.353239 22.32 
L 578.353239 22.32 
" clip-path="url(#p7ca5d3c6f2)" style="fill: none; stroke: #1f77b4; stroke-width: 1.5; stroke-linecap: square"/>
   </g>
   <g id="line2d_26">
    <path d="M 71.080511 324.72 
L 71.080511 277.556697 
L 71.6939 277.556697 
L 71.6939 269.233761 
L 72.307289 269.233761 
L 72.307289 263.685138 
L 72.920678 263.685138 
L 72.920678 260.910826 
L 74.760846 260.910826 
L 74.760846 255.362202 
L 75.374235 255.362202 
L 75.374235 252.58789 
L 76.601013 252.58789 
L 76.601013 241.490642 
L 77.827791 241.490642 
L 77.827791 235.942018 
L 78.44118 235.942018 
L 78.44118 230.393394 
L 79.054569 230.393394 
L 79.054569 224.844771 
L 80.894736 224.844771 
L 80.894736 222.070459 
L 83.348292 222.070459 
L 83.348292 219.296147 
L 83.961681 219.296147 
L 83.961681 216.521835 
L 84.57507 216.521835 
L 84.57507 210.973211 
L 85.188459 210.973211 
L 85.188459 205.424587 
L 85.801848 205.424587 
L 85.801848 202.650275 
L 86.415237 202.650275 
L 86.415237 199.875963 
L 87.642015 199.875963 
L 87.642015 197.101651 
L 91.322349 197.101651 
L 91.322349 191.553028 
L 93.162516 191.553028 
L 93.162516 188.778716 
L 96.842851 188.778716 
L 96.842851 183.230092 
L 97.45624 183.230092 
L 97.45624 180.45578 
L 98.069629 180.45578 
L 98.069629 177.681468 
L 102.976741 177.681468 
L 102.976741 174.907156 
L 105.430297 174.907156 
L 105.430297 172.132844 
L 106.043686 172.132844 
L 106.043686 169.358532 
L 107.883853 169.358532 
L 107.883853 166.58422 
L 115.857911 166.58422 
L 115.857911 163.809908 
L 118.924856 163.809908 
L 118.924856 161.035596 
L 122.60519 161.035596 
L 122.60519 158.261284 
L 126.285524 158.261284 
L 126.285524 155.486972 
L 136.713138 155.486972 
L 136.713138 152.712661 
L 137.939916 152.712661 
L 137.939916 149.938349 
L 139.166694 149.938349 
L 139.166694 147.164037 
L 139.780083 147.164037 
L 139.780083 144.389725 
L 147.140751 144.389725 
L 147.140751 141.615413 
L 149.594307 141.615413 
L 149.594307 138.841101 
L 155.728197 138.841101 
L 155.728197 136.066789 
L 156.954975 136.066789 
L 156.954975 133.292477 
L 157.568365 133.292477 
L 157.568365 130.518165 
L 162.475477 130.518165 
L 162.475477 127.743853 
L 164.315644 127.743853 
L 164.315644 124.969541 
L 166.7692 124.969541 
L 166.7692 122.195229 
L 170.449534 122.195229 
L 170.449534 119.420917 
L 171.676312 119.420917 
L 171.676312 116.646606 
L 172.289701 116.646606 
L 172.289701 105.549358 
L 177.196813 105.549358 
L 177.196813 102.775046 
L 179.036981 102.775046 
L 179.036981 100.000734 
L 184.557482 100.000734 
L 184.557482 97.226422 
L 187.011038 97.226422 
L 187.011038 94.45211 
L 189.464594 94.45211 
L 189.464594 91.677798 
L 190.691372 91.677798 
L 190.691372 88.903486 
L 196.211873 88.903486 
L 196.211873 83.354862 
L 201.118986 83.354862 
L 201.118986 80.58055 
L 212.159988 80.58055 
L 212.159988 77.806239 
L 221.974213 77.806239 
L 221.974213 75.031927 
L 226.881325 75.031927 
L 226.881325 72.257615 
L 227.494714 72.257615 
L 227.494714 66.708991 
L 239.762494 66.708991 
L 239.762494 63.934679 
L 240.989272 63.934679 
L 240.989272 61.160367 
L 242.216051 61.160367 
L 242.216051 58.386055 
L 256.323998 58.386055 
L 256.323998 55.611743 
L 265.524834 55.611743 
L 265.524834 52.837431 
L 267.365001 52.837431 
L 267.365001 50.063119 
L 286.99345 50.063119 
L 286.99345 47.288807 
L 290.060395 47.288807 
L 290.060395 44.514495 
L 299.874619 44.514495 
L 299.874619 41.740183 
L 315.209345 41.740183 
L 315.209345 38.965872 
L 317.049512 38.965872 
L 317.049512 36.19156 
L 332.384238 36.19156 
L 332.384238 33.417248 
L 345.265407 33.417248 
L 345.265407 30.642936 
L 407.831088 30.642936 
L 407.831088 27.868624 
L 480.210994 27.868624 
L 480.210994 25.094312 
L 548.910565 25.094312 
L 548.910565 22.32 
L 578.353239 22.32 
L 578.353239 22.32 
" clip-path="url(#p7ca5d3c6f2)" style="fill: none; stroke: #ff7f0e; stroke-width: 1.5; stroke-linecap: square"/>
   </g>
   <g id="line2d_27">
    <path d="M 71.080511 324.72 
L 71.080511 320.688 
L 71.080511 300.528 
L 73.345122 300.528 
L 73.345122 292.464 
L 75.609732 292.464 
L 75.609732 268.272 
L 82.403563 268.272 
L 82.403563 227.952 
L 84.668174 227.952 
L 84.668174 207.792 
L 91.462005 207.792 
L 91.462005 195.696 
L 93.726615 195.696 
L 93.726615 187.632 
L 102.785057 187.632 
L 102.785057 179.568 
L 105.049667 179.568 
L 105.049667 171.504 
L 114.108109 171.504 
L 114.108109 163.44 
L 118.63733 163.44 
L 118.63733 159.408 
L 129.960381 159.408 
L 129.960381 147.312 
L 145.812654 147.312 
L 145.812654 135.216 
L 148.077265 135.216 
L 148.077265 131.184 
L 154.871096 131.184 
L 154.871096 127.152 
L 159.400317 127.152 
L 159.400317 123.12 
L 168.458758 123.12 
L 168.458758 119.088 
L 179.78181 119.088 
L 179.78181 111.024 
L 193.369472 111.024 
L 193.369472 102.96 
L 206.957135 102.96 
L 206.957135 98.928 
L 211.486356 98.928 
L 211.486356 94.896 
L 225.074018 94.896 
L 225.074018 90.864 
L 229.603239 90.864 
L 229.603239 86.832 
L 234.132459 86.832 
L 234.132459 82.8 
L 243.190901 82.8 
L 243.190901 78.768 
L 245.455511 74.736 
L 261.307784 74.736 
L 261.307784 70.704 
L 308.864602 70.704 
L 308.864602 66.672 
L 322.452265 66.672 
L 322.452265 62.64 
L 349.627589 62.64 
L 349.627589 54.576 
L 354.15681 54.576 
L 354.15681 50.544 
L 358.686031 50.544 
L 358.686031 42.48 
L 367.744472 42.48 
L 367.744472 38.448 
L 379.067524 38.448 
L 379.067524 34.416 
L 483.239602 34.416 
L 483.239602 30.384 
L 533.061031 30.384 
L 533.061031 26.352 
L 557.971745 26.352 
L 557.971745 22.32 
L 578.353239 22.32 
" clip-path="url(#p7ca5d3c6f2)" style="fill: none; stroke: #2ca02c; stroke-width: 1.5; stroke-linecap: square"/>
   </g>
   <g id="line2d_28">
    <path d="M 71.080511 324.72 
L 77.192231 324.72 
L 83.303951 324.72 
L 83.303951 286.92 
L 126.085988 286.92 
L 126.085988 249.12 
L 156.644586 249.12 
L 156.644586 211.32 
L 278.878978 211.32 
L 278.878978 173.52 
L 303.325856 173.52 
L 303.325856 135.72 
L 315.549296 135.72 
L 370.554772 135.72 
L 370.554772 97.92 
L 425.560248 97.92 
L 425.560248 60.12 
L 450.007127 60.12 
L 450.007127 22.32 
L 578.353239 22.32 
" clip-path="url(#p7ca5d3c6f2)" style="fill: none; stroke: #d62728; stroke-width: 1.5; stroke-linecap: square"/>
   </g>
   <g id="line2d_29">
    <path d="M 71.080511 324.72 
L 71.080511 294.48 
L 71.080511 264.24 
L 84.087504 264.24 
L 84.087504 173.52 
L 110.10149 173.52 
L 110.10149 143.28 
L 116.604987 143.28 
L 116.604987 82.8 
L 136.115476 82.8 
L 136.115476 52.56 
L 188.143448 52.56 
L 188.143448 22.32 
L 578.353239 22.32 
" clip-path="url(#p7ca5d3c6f2)" style="fill: none; stroke: #9467bd; stroke-width: 1.5; stroke-linecap: square"/>
   </g>
   <g id="line2d_30">
    <path d="M 71.080511 324.72 
L 578.353239 22.32 
" clip-path="url(#p7ca5d3c6f2)" style="fill: none; stroke-dasharray: 7.4,3.2; stroke-dashoffset: 0; stroke: #808080; stroke-width: 2"/>
   </g>
   <g id="patch_3">
    <path d="M 45.716875 339.84 
L 45.716875 7.2 
" style="fill: none; stroke: #000000; stroke-width: 0.8; stroke-linejoin: miter; stroke-linecap: square"/>
   </g>
   <g id="patch_4">
    <path d="M 603.716875 339.84 
L 603.716875 7.2 
" style="fill: none; stroke: #000000; stroke-width: 0.8; stroke-linejoin: miter; stroke-linecap: square"/>
   </g>
   <g id="patch_5">
    <path d="M 45.716875 339.84 
L 603.716875 339.84 
" style="fill: none; stroke: #000000; stroke-width: 0.8; stroke-linejoin: miter; stroke-linecap: square"/>
   </g>
   <g id="patch_6">
    <path d="M 45.716875 7.2 
L 603.716875 7.2 
" style="fill: none; stroke: #000000; stroke-width: 0.8; stroke-linejoin: miter; stroke-linecap: square"/>
   </g>
   <g id="legend_1">
    <g id="patch_7">
     <path d="M 145.584063 485.80475 
L 503.849688 485.80475 
Q 505.849688 485.80475 505.849688 483.80475 
L 505.849688 396.736 
Q 505.849688 394.736 503.849688 394.736 
L 145.584063 394.736 
Q 143.584063 394.736 143.584063 396.736 
L 143.584063 483.80475 
Q 143.584063 485.80475 145.584063 485.80475 
z
" style="fill: #ffffff; opacity: 0.8; stroke: #cccccc; stroke-linejoin: miter"/>
    </g>
    <g id="line2d_31">
     <path d="M 147.584063 402.834437 
L 157.584063 402.834437 
L 167.584063 402.834437 
" style="fill: none; stroke: #1f77b4; stroke-width: 1.5; stroke-linecap: square"/>
    </g>
    <g id="text_15">
     <!-- AUC for White = 0.83, Count: 8,355, Pos: 2,136, Neg: 6,219 -->
     <g transform="translate(175.584063 406.334437) scale(0.1 -0.1)">
      <defs>
       <path id="DejaVuSans-41" d="M 2188 4044 
L 1331 1722 
L 3047 1722 
L 2188 4044 
z
M 1831 4666 
L 2547 4666 
L 4325 0 
L 3669 0 
L 3244 1197 
L 1141 1197 
L 716 0 
L 50 0 
L 1831 4666 
z
" transform="scale(0.015625)"/>
       <path id="DejaVuSans-55" d="M 556 4666 
L 1191 4666 
L 1191 1831 
Q 1191 1081 1462 751 
Q 1734 422 2344 422 
Q 2950 422 3222 751 
Q 3494 1081 3494 1831 
L 3494 4666 
L 4128 4666 
L 4128 1753 
Q 4128 841 3676 375 
Q 3225 -91 2344 -91 
Q 1459 -91 1007 375 
Q 556 841 556 1753 
L 556 4666 
z
" transform="scale(0.015625)"/>
       <path id="DejaVuSans-43" d="M 4122 4306 
L 4122 3641 
Q 3803 3938 3442 4084 
Q 3081 4231 2675 4231 
Q 1875 4231 1450 3742 
Q 1025 3253 1025 2328 
Q 1025 1406 1450 917 
Q 1875 428 2675 428 
Q 3081 428 3442 575 
Q 3803 722 4122 1019 
L 4122 359 
Q 3791 134 3420 21 
Q 3050 -91 2638 -91 
Q 1578 -91 968 557 
Q 359 1206 359 2328 
Q 359 3453 968 4101 
Q 1578 4750 2638 4750 
Q 3056 4750 3426 4639 
Q 3797 4528 4122 4306 
z
" transform="scale(0.015625)"/>
       <path id="DejaVuSans-66" d="M 2375 4863 
L 2375 4384 
L 1825 4384 
Q 1516 4384 1395 4259 
Q 1275 4134 1275 3809 
L 1275 3500 
L 2222 3500 
L 2222 3053 
L 1275 3053 
L 1275 0 
L 697 0 
L 697 3053 
L 147 3053 
L 147 3500 
L 697 3500 
L 697 3744 
Q 697 4328 969 4595 
Q 1241 4863 1831 4863 
L 2375 4863 
z
" transform="scale(0.015625)"/>
       <path id="DejaVuSans-57" d="M 213 4666 
L 850 4666 
L 1831 722 
L 2809 4666 
L 3519 4666 
L 4500 722 
L 5478 4666 
L 6119 4666 
L 4947 0 
L 4153 0 
L 3169 4050 
L 2175 0 
L 1381 0 
L 213 4666 
z
" transform="scale(0.015625)"/>
       <path id="DejaVuSans-68" d="M 3513 2113 
L 3513 0 
L 2938 0 
L 2938 2094 
Q 2938 2591 2744 2837 
Q 2550 3084 2163 3084 
Q 1697 3084 1428 2787 
Q 1159 2491 1159 1978 
L 1159 0 
L 581 0 
L 581 4863 
L 1159 4863 
L 1159 2956 
Q 1366 3272 1645 3428 
Q 1925 3584 2291 3584 
Q 2894 3584 3203 3211 
Q 3513 2838 3513 2113 
z
" transform="scale(0.015625)"/>
       <path id="DejaVuSans-3d" d="M 678 2906 
L 4684 2906 
L 4684 2381 
L 678 2381 
L 678 2906 
z
M 678 1631 
L 4684 1631 
L 4684 1100 
L 678 1100 
L 678 1631 
z
" transform="scale(0.015625)"/>
       <path id="DejaVuSans-33" d="M 2597 2516 
Q 3050 2419 3304 2112 
Q 3559 1806 3559 1356 
Q 3559 666 3084 287 
Q 2609 -91 1734 -91 
Q 1441 -91 1130 -33 
Q 819 25 488 141 
L 488 750 
Q 750 597 1062 519 
Q 1375 441 1716 441 
Q 2309 441 2620 675 
Q 2931 909 2931 1356 
Q 2931 1769 2642 2001 
Q 2353 2234 1838 2234 
L 1294 2234 
L 1294 2753 
L 1863 2753 
Q 2328 2753 2575 2939 
Q 2822 3125 2822 3475 
Q 2822 3834 2567 4026 
Q 2313 4219 1838 4219 
Q 1578 4219 1281 4162 
Q 984 4106 628 3988 
L 628 4550 
Q 988 4650 1302 4700 
Q 1616 4750 1894 4750 
Q 2613 4750 3031 4423 
Q 3450 4097 3450 3541 
Q 3450 3153 3228 2886 
Q 3006 2619 2597 2516 
z
" transform="scale(0.015625)"/>
       <path id="DejaVuSans-2c" d="M 750 794 
L 1409 794 
L 1409 256 
L 897 -744 
L 494 -744 
L 750 256 
L 750 794 
z
" transform="scale(0.015625)"/>
       <path id="DejaVuSans-6e" d="M 3513 2113 
L 3513 0 
L 2938 0 
L 2938 2094 
Q 2938 2591 2744 2837 
Q 2550 3084 2163 3084 
Q 1697 3084 1428 2787 
Q 1159 2491 1159 1978 
L 1159 0 
L 581 0 
L 581 3500 
L 1159 3500 
L 1159 2956 
Q 1366 3272 1645 3428 
Q 1925 3584 2291 3584 
Q 2894 3584 3203 3211 
Q 3513 2838 3513 2113 
z
" transform="scale(0.015625)"/>
       <path id="DejaVuSans-3a" d="M 750 794 
L 1409 794 
L 1409 0 
L 750 0 
L 750 794 
z
M 750 3309 
L 1409 3309 
L 1409 2516 
L 750 2516 
L 750 3309 
z
" transform="scale(0.015625)"/>
       <path id="DejaVuSans-35" d="M 691 4666 
L 3169 4666 
L 3169 4134 
L 1269 4134 
L 1269 2991 
Q 1406 3038 1543 3061 
Q 1681 3084 1819 3084 
Q 2600 3084 3056 2656 
Q 3513 2228 3513 1497 
Q 3513 744 3044 326 
Q 2575 -91 1722 -91 
Q 1428 -91 1123 -41 
Q 819 9 494 109 
L 494 744 
Q 775 591 1075 516 
Q 1375 441 1709 441 
Q 2250 441 2565 725 
Q 2881 1009 2881 1497 
Q 2881 1984 2565 2268 
Q 2250 2553 1709 2553 
Q 1456 2553 1204 2497 
Q 953 2441 691 2322 
L 691 4666 
z
" transform="scale(0.015625)"/>
       <path id="DejaVuSans-4e" d="M 628 4666 
L 1478 4666 
L 3547 763 
L 3547 4666 
L 4159 4666 
L 4159 0 
L 3309 0 
L 1241 3903 
L 1241 0 
L 628 0 
L 628 4666 
z
" transform="scale(0.015625)"/>
       <path id="DejaVuSans-67" d="M 2906 1791 
Q 2906 2416 2648 2759 
Q 2391 3103 1925 3103 
Q 1463 3103 1205 2759 
Q 947 2416 947 1791 
Q 947 1169 1205 825 
Q 1463 481 1925 481 
Q 2391 481 2648 825 
Q 2906 1169 2906 1791 
z
M 3481 434 
Q 3481 -459 3084 -895 
Q 2688 -1331 1869 -1331 
Q 1566 -1331 1297 -1286 
Q 1028 -1241 775 -1147 
L 775 -588 
Q 1028 -725 1275 -790 
Q 1522 -856 1778 -856 
Q 2344 -856 2625 -561 
Q 2906 -266 2906 331 
L 2906 616 
Q 2728 306 2450 153 
Q 2172 0 1784 0 
Q 1141 0 747 490 
Q 353 981 353 1791 
Q 353 2603 747 3093 
Q 1141 3584 1784 3584 
Q 2172 3584 2450 3431 
Q 2728 3278 2906 2969 
L 2906 3500 
L 3481 3500 
L 3481 434 
z
" transform="scale(0.015625)"/>
       <path id="DejaVuSans-39" d="M 703 97 
L 703 672 
Q 941 559 1184 500 
Q 1428 441 1663 441 
Q 2288 441 2617 861 
Q 2947 1281 2994 2138 
Q 2813 1869 2534 1725 
Q 2256 1581 1919 1581 
Q 1219 1581 811 2004 
Q 403 2428 403 3163 
Q 403 3881 828 4315 
Q 1253 4750 1959 4750 
Q 2769 4750 3195 4129 
Q 3622 3509 3622 2328 
Q 3622 1225 3098 567 
Q 2575 -91 1691 -91 
Q 1453 -91 1209 -44 
Q 966 3 703 97 
z
M 1959 2075 
Q 2384 2075 2632 2365 
Q 2881 2656 2881 3163 
Q 2881 3666 2632 3958 
Q 2384 4250 1959 4250 
Q 1534 4250 1286 3958 
Q 1038 3666 1038 3163 
Q 1038 2656 1286 2365 
Q 1534 2075 1959 2075 
z
" transform="scale(0.015625)"/>
      </defs>
      <use xlink:href="#DejaVuSans-41"/>
      <use xlink:href="#DejaVuSans-55" x="68.408203"/>
      <use xlink:href="#DejaVuSans-43" x="141.601562"/>
      <use xlink:href="#DejaVuSans-20" x="211.425781"/>
      <use xlink:href="#DejaVuSans-66" x="243.212891"/>
      <use xlink:href="#DejaVuSans-6f" x="278.417969"/>
      <use xlink:href="#DejaVuSans-72" x="339.599609"/>
      <use xlink:href="#DejaVuSans-20" x="380.712891"/>
      <use xlink:href="#DejaVuSans-57" x="412.5"/>
      <use xlink:href="#DejaVuSans-68" x="511.376953"/>
      <use xlink:href="#DejaVuSans-69" x="574.755859"/>
      <use xlink:href="#DejaVuSans-74" x="602.539062"/>
      <use xlink:href="#DejaVuSans-65" x="641.748047"/>
      <use xlink:href="#DejaVuSans-20" x="703.271484"/>
      <use xlink:href="#DejaVuSans-3d" x="735.058594"/>
      <use xlink:href="#DejaVuSans-20" x="818.847656"/>
      <use xlink:href="#DejaVuSans-30" x="850.634766"/>
      <use xlink:href="#DejaVuSans-2e" x="914.257812"/>
      <use xlink:href="#DejaVuSans-38" x="946.044922"/>
      <use xlink:href="#DejaVuSans-33" x="1009.667969"/>
      <use xlink:href="#DejaVuSans-2c" x="1073.291016"/>
      <use xlink:href="#DejaVuSans-20" x="1105.078125"/>
      <use xlink:href="#DejaVuSans-43" x="1136.865234"/>
      <use xlink:href="#DejaVuSans-6f" x="1206.689453"/>
      <use xlink:href="#DejaVuSans-75" x="1267.871094"/>
      <use xlink:href="#DejaVuSans-6e" x="1331.25"/>
      <use xlink:href="#DejaVuSans-74" x="1394.628906"/>
      <use xlink:href="#DejaVuSans-3a" x="1433.837891"/>
      <use xlink:href="#DejaVuSans-20" x="1467.529297"/>
      <use xlink:href="#DejaVuSans-38" x="1499.316406"/>
      <use xlink:href="#DejaVuSans-2c" x="1562.939453"/>
      <use xlink:href="#DejaVuSans-33" x="1594.726562"/>
      <use xlink:href="#DejaVuSans-35" x="1658.349609"/>
      <use xlink:href="#DejaVuSans-35" x="1721.972656"/>
      <use xlink:href="#DejaVuSans-2c" x="1785.595703"/>
      <use xlink:href="#DejaVuSans-20" x="1817.382812"/>
      <use xlink:href="#DejaVuSans-50" x="1849.169922"/>
      <use xlink:href="#DejaVuSans-6f" x="1905.847656"/>
      <use xlink:href="#DejaVuSans-73" x="1967.029297"/>
      <use xlink:href="#DejaVuSans-3a" x="2019.128906"/>
      <use xlink:href="#DejaVuSans-20" x="2052.820312"/>
      <use xlink:href="#DejaVuSans-32" x="2084.607422"/>
      <use xlink:href="#DejaVuSans-2c" x="2148.230469"/>
      <use xlink:href="#DejaVuSans-31" x="2180.017578"/>
      <use xlink:href="#DejaVuSans-33" x="2243.640625"/>
      <use xlink:href="#DejaVuSans-36" x="2307.263672"/>
      <use xlink:href="#DejaVuSans-2c" x="2370.886719"/>
      <use xlink:href="#DejaVuSans-20" x="2402.673828"/>
      <use xlink:href="#DejaVuSans-4e" x="2434.460938"/>
      <use xlink:href="#DejaVuSans-65" x="2509.265625"/>
      <use xlink:href="#DejaVuSans-67" x="2570.789062"/>
      <use xlink:href="#DejaVuSans-3a" x="2634.265625"/>
      <use xlink:href="#DejaVuSans-20" x="2667.957031"/>
      <use xlink:href="#DejaVuSans-36" x="2699.744141"/>
      <use xlink:href="#DejaVuSans-2c" x="2763.367188"/>
      <use xlink:href="#DejaVuSans-32" x="2795.154297"/>
      <use xlink:href="#DejaVuSans-31" x="2858.777344"/>
      <use xlink:href="#DejaVuSans-39" x="2922.400391"/>
     </g>
    </g>
    <g id="line2d_32">
     <path d="M 147.584063 417.512563 
L 157.584063 417.512563 
L 167.584063 417.512563 
" style="fill: none; stroke: #ff7f0e; stroke-width: 1.5; stroke-linecap: square"/>
    </g>
    <g id="text_16">
     <!-- AUC for Black = 0.85, Count: 936, Pos: 109, Neg: 827 -->
     <g transform="translate(175.584063 421.012563) scale(0.1 -0.1)">
      <defs>
       <path id="DejaVuSans-42" d="M 1259 2228 
L 1259 519 
L 2272 519 
Q 2781 519 3026 730 
Q 3272 941 3272 1375 
Q 3272 1813 3026 2020 
Q 2781 2228 2272 2228 
L 1259 2228 
z
M 1259 4147 
L 1259 2741 
L 2194 2741 
Q 2656 2741 2882 2914 
Q 3109 3088 3109 3444 
Q 3109 3797 2882 3972 
Q 2656 4147 2194 4147 
L 1259 4147 
z
M 628 4666 
L 2241 4666 
Q 2963 4666 3353 4366 
Q 3744 4066 3744 3513 
Q 3744 3084 3544 2831 
Q 3344 2578 2956 2516 
Q 3422 2416 3680 2098 
Q 3938 1781 3938 1306 
Q 3938 681 3513 340 
Q 3088 0 2303 0 
L 628 0 
L 628 4666 
z
" transform="scale(0.015625)"/>
       <path id="DejaVuSans-63" d="M 3122 3366 
L 3122 2828 
Q 2878 2963 2633 3030 
Q 2388 3097 2138 3097 
Q 1578 3097 1268 2742 
Q 959 2388 959 1747 
Q 959 1106 1268 751 
Q 1578 397 2138 397 
Q 2388 397 2633 464 
Q 2878 531 3122 666 
L 3122 134 
Q 2881 22 2623 -34 
Q 2366 -91 2075 -91 
Q 1284 -91 818 406 
Q 353 903 353 1747 
Q 353 2603 823 3093 
Q 1294 3584 2113 3584 
Q 2378 3584 2631 3529 
Q 2884 3475 3122 3366 
z
" transform="scale(0.015625)"/>
       <path id="DejaVuSans-6b" d="M 581 4863 
L 1159 4863 
L 1159 1991 
L 2875 3500 
L 3609 3500 
L 1753 1863 
L 3688 0 
L 2938 0 
L 1159 1709 
L 1159 0 
L 581 0 
L 581 4863 
z
" transform="scale(0.015625)"/>
       <path id="DejaVuSans-37" d="M 525 4666 
L 3525 4666 
L 3525 4397 
L 1831 0 
L 1172 0 
L 2766 4134 
L 525 4134 
L 525 4666 
z
" transform="scale(0.015625)"/>
      </defs>
      <use xlink:href="#DejaVuSans-41"/>
      <use xlink:href="#DejaVuSans-55" x="68.408203"/>
      <use xlink:href="#DejaVuSans-43" x="141.601562"/>
      <use xlink:href="#DejaVuSans-20" x="211.425781"/>
      <use xlink:href="#DejaVuSans-66" x="243.212891"/>
      <use xlink:href="#DejaVuSans-6f" x="278.417969"/>
      <use xlink:href="#DejaVuSans-72" x="339.599609"/>
      <use xlink:href="#DejaVuSans-20" x="380.712891"/>
      <use xlink:href="#DejaVuSans-42" x="412.5"/>
      <use xlink:href="#DejaVuSans-6c" x="481.103516"/>
      <use xlink:href="#DejaVuSans-61" x="508.886719"/>
      <use xlink:href="#DejaVuSans-63" x="570.166016"/>
      <use xlink:href="#DejaVuSans-6b" x="625.146484"/>
      <use xlink:href="#DejaVuSans-20" x="683.056641"/>
      <use xlink:href="#DejaVuSans-3d" x="714.84375"/>
      <use xlink:href="#DejaVuSans-20" x="798.632812"/>
      <use xlink:href="#DejaVuSans-30" x="830.419922"/>
      <use xlink:href="#DejaVuSans-2e" x="894.042969"/>
      <use xlink:href="#DejaVuSans-38" x="925.830078"/>
      <use xlink:href="#DejaVuSans-35" x="989.453125"/>
      <use xlink:href="#DejaVuSans-2c" x="1053.076172"/>
      <use xlink:href="#DejaVuSans-20" x="1084.863281"/>
      <use xlink:href="#DejaVuSans-43" x="1116.650391"/>
      <use xlink:href="#DejaVuSans-6f" x="1186.474609"/>
      <use xlink:href="#DejaVuSans-75" x="1247.65625"/>
      <use xlink:href="#DejaVuSans-6e" x="1311.035156"/>
      <use xlink:href="#DejaVuSans-74" x="1374.414062"/>
      <use xlink:href="#DejaVuSans-3a" x="1413.623047"/>
      <use xlink:href="#DejaVuSans-20" x="1447.314453"/>
      <use xlink:href="#DejaVuSans-39" x="1479.101562"/>
      <use xlink:href="#DejaVuSans-33" x="1542.724609"/>
      <use xlink:href="#DejaVuSans-36" x="1606.347656"/>
      <use xlink:href="#DejaVuSans-2c" x="1669.970703"/>
      <use xlink:href="#DejaVuSans-20" x="1701.757812"/>
      <use xlink:href="#DejaVuSans-50" x="1733.544922"/>
      <use xlink:href="#DejaVuSans-6f" x="1790.222656"/>
      <use xlink:href="#DejaVuSans-73" x="1851.404297"/>
      <use xlink:href="#DejaVuSans-3a" x="1903.503906"/>
      <use xlink:href="#DejaVuSans-20" x="1937.195312"/>
      <use xlink:href="#DejaVuSans-31" x="1968.982422"/>
      <use xlink:href="#DejaVuSans-30" x="2032.605469"/>
      <use xlink:href="#DejaVuSans-39" x="2096.228516"/>
      <use xlink:href="#DejaVuSans-2c" x="2159.851562"/>
      <use xlink:href="#DejaVuSans-20" x="2191.638672"/>
      <use xlink:href="#DejaVuSans-4e" x="2223.425781"/>
      <use xlink:href="#DejaVuSans-65" x="2298.230469"/>
      <use xlink:href="#DejaVuSans-67" x="2359.753906"/>
      <use xlink:href="#DejaVuSans-3a" x="2423.230469"/>
      <use xlink:href="#DejaVuSans-20" x="2456.921875"/>
      <use xlink:href="#DejaVuSans-38" x="2488.708984"/>
      <use xlink:href="#DejaVuSans-32" x="2552.332031"/>
      <use xlink:href="#DejaVuSans-37" x="2615.955078"/>
     </g>
    </g>
    <g id="line2d_33">
     <path d="M 147.584063 432.190687 
L 157.584063 432.190687 
L 167.584063 432.190687 
" style="fill: none; stroke: #2ca02c; stroke-width: 1.5; stroke-linecap: square"/>
    </g>
    <g id="text_17">
     <!-- AUC for Asian-Pac-Islander = 0.82, Count: 299, Pos: 75, Neg: 224 -->
     <g transform="translate(175.584063 435.690687) scale(0.1 -0.1)">
      <defs>
       <path id="DejaVuSans-2d" d="M 313 2009 
L 1997 2009 
L 1997 1497 
L 313 1497 
L 313 2009 
z
" transform="scale(0.015625)"/>
       <path id="DejaVuSans-49" d="M 628 4666 
L 1259 4666 
L 1259 0 
L 628 0 
L 628 4666 
z
" transform="scale(0.015625)"/>
       <path id="DejaVuSans-64" d="M 2906 2969 
L 2906 4863 
L 3481 4863 
L 3481 0 
L 2906 0 
L 2906 525 
Q 2725 213 2448 61 
Q 2172 -91 1784 -91 
Q 1150 -91 751 415 
Q 353 922 353 1747 
Q 353 2572 751 3078 
Q 1150 3584 1784 3584 
Q 2172 3584 2448 3432 
Q 2725 3281 2906 2969 
z
M 947 1747 
Q 947 1113 1208 752 
Q 1469 391 1925 391 
Q 2381 391 2643 752 
Q 2906 1113 2906 1747 
Q 2906 2381 2643 2742 
Q 2381 3103 1925 3103 
Q 1469 3103 1208 2742 
Q 947 2381 947 1747 
z
" transform="scale(0.015625)"/>
      </defs>
      <use xlink:href="#DejaVuSans-41"/>
      <use xlink:href="#DejaVuSans-55" x="68.408203"/>
      <use xlink:href="#DejaVuSans-43" x="141.601562"/>
      <use xlink:href="#DejaVuSans-20" x="211.425781"/>
      <use xlink:href="#DejaVuSans-66" x="243.212891"/>
      <use xlink:href="#DejaVuSans-6f" x="278.417969"/>
      <use xlink:href="#DejaVuSans-72" x="339.599609"/>
      <use xlink:href="#DejaVuSans-20" x="380.712891"/>
      <use xlink:href="#DejaVuSans-41" x="412.5"/>
      <use xlink:href="#DejaVuSans-73" x="480.908203"/>
      <use xlink:href="#DejaVuSans-69" x="533.007812"/>
      <use xlink:href="#DejaVuSans-61" x="560.791016"/>
      <use xlink:href="#DejaVuSans-6e" x="622.070312"/>
      <use xlink:href="#DejaVuSans-2d" x="685.449219"/>
      <use xlink:href="#DejaVuSans-50" x="721.533203"/>
      <use xlink:href="#DejaVuSans-61" x="777.335938"/>
      <use xlink:href="#DejaVuSans-63" x="838.615234"/>
      <use xlink:href="#DejaVuSans-2d" x="893.595703"/>
      <use xlink:href="#DejaVuSans-49" x="929.679688"/>
      <use xlink:href="#DejaVuSans-73" x="959.171875"/>
      <use xlink:href="#DejaVuSans-6c" x="1011.271484"/>
      <use xlink:href="#DejaVuSans-61" x="1039.054688"/>
      <use xlink:href="#DejaVuSans-6e" x="1100.333984"/>
      <use xlink:href="#DejaVuSans-64" x="1163.712891"/>
      <use xlink:href="#DejaVuSans-65" x="1227.189453"/>
      <use xlink:href="#DejaVuSans-72" x="1288.712891"/>
      <use xlink:href="#DejaVuSans-20" x="1329.826172"/>
      <use xlink:href="#DejaVuSans-3d" x="1361.613281"/>
      <use xlink:href="#DejaVuSans-20" x="1445.402344"/>
      <use xlink:href="#DejaVuSans-30" x="1477.189453"/>
      <use xlink:href="#DejaVuSans-2e" x="1540.8125"/>
      <use xlink:href="#DejaVuSans-38" x="1572.599609"/>
      <use xlink:href="#DejaVuSans-32" x="1636.222656"/>
      <use xlink:href="#DejaVuSans-2c" x="1699.845703"/>
      <use xlink:href="#DejaVuSans-20" x="1731.632812"/>
      <use xlink:href="#DejaVuSans-43" x="1763.419922"/>
      <use xlink:href="#DejaVuSans-6f" x="1833.244141"/>
      <use xlink:href="#DejaVuSans-75" x="1894.425781"/>
      <use xlink:href="#DejaVuSans-6e" x="1957.804688"/>
      <use xlink:href="#DejaVuSans-74" x="2021.183594"/>
      <use xlink:href="#DejaVuSans-3a" x="2060.392578"/>
      <use xlink:href="#DejaVuSans-20" x="2094.083984"/>
      <use xlink:href="#DejaVuSans-32" x="2125.871094"/>
      <use xlink:href="#DejaVuSans-39" x="2189.494141"/>
      <use xlink:href="#DejaVuSans-39" x="2253.117188"/>
      <use xlink:href="#DejaVuSans-2c" x="2316.740234"/>
      <use xlink:href="#DejaVuSans-20" x="2348.527344"/>
      <use xlink:href="#DejaVuSans-50" x="2380.314453"/>
      <use xlink:href="#DejaVuSans-6f" x="2436.992188"/>
      <use xlink:href="#DejaVuSans-73" x="2498.173828"/>
      <use xlink:href="#DejaVuSans-3a" x="2550.273438"/>
      <use xlink:href="#DejaVuSans-20" x="2583.964844"/>
      <use xlink:href="#DejaVuSans-37" x="2615.751953"/>
      <use xlink:href="#DejaVuSans-35" x="2679.375"/>
      <use xlink:href="#DejaVuSans-2c" x="2742.998047"/>
      <use xlink:href="#DejaVuSans-20" x="2774.785156"/>
      <use xlink:href="#DejaVuSans-4e" x="2806.572266"/>
      <use xlink:href="#DejaVuSans-65" x="2881.376953"/>
      <use xlink:href="#DejaVuSans-67" x="2942.900391"/>
      <use xlink:href="#DejaVuSans-3a" x="3006.376953"/>
      <use xlink:href="#DejaVuSans-20" x="3040.068359"/>
      <use xlink:href="#DejaVuSans-32" x="3071.855469"/>
      <use xlink:href="#DejaVuSans-32" x="3135.478516"/>
      <use xlink:href="#DejaVuSans-34" x="3199.101562"/>
     </g>
    </g>
    <g id="line2d_34">
     <path d="M 147.584063 446.868812 
L 157.584063 446.868812 
L 167.584063 446.868812 
" style="fill: none; stroke: #d62728; stroke-width: 1.5; stroke-linecap: square"/>
    </g>
    <g id="text_18">
     <!-- AUC for Amer-Indian-Eskimo = 0.60, Count: 91, Pos: 8, Neg: 83 -->
     <g transform="translate(175.584063 450.368812) scale(0.1 -0.1)">
      <defs>
       <path id="DejaVuSans-6d" d="M 3328 2828 
Q 3544 3216 3844 3400 
Q 4144 3584 4550 3584 
Q 5097 3584 5394 3201 
Q 5691 2819 5691 2113 
L 5691 0 
L 5113 0 
L 5113 2094 
Q 5113 2597 4934 2840 
Q 4756 3084 4391 3084 
Q 3944 3084 3684 2787 
Q 3425 2491 3425 1978 
L 3425 0 
L 2847 0 
L 2847 2094 
Q 2847 2600 2669 2842 
Q 2491 3084 2119 3084 
Q 1678 3084 1418 2786 
Q 1159 2488 1159 1978 
L 1159 0 
L 581 0 
L 581 3500 
L 1159 3500 
L 1159 2956 
Q 1356 3278 1631 3431 
Q 1906 3584 2284 3584 
Q 2666 3584 2933 3390 
Q 3200 3197 3328 2828 
z
" transform="scale(0.015625)"/>
       <path id="DejaVuSans-45" d="M 628 4666 
L 3578 4666 
L 3578 4134 
L 1259 4134 
L 1259 2753 
L 3481 2753 
L 3481 2222 
L 1259 2222 
L 1259 531 
L 3634 531 
L 3634 0 
L 628 0 
L 628 4666 
z
" transform="scale(0.015625)"/>
      </defs>
      <use xlink:href="#DejaVuSans-41"/>
      <use xlink:href="#DejaVuSans-55" x="68.408203"/>
      <use xlink:href="#DejaVuSans-43" x="141.601562"/>
      <use xlink:href="#DejaVuSans-20" x="211.425781"/>
      <use xlink:href="#DejaVuSans-66" x="243.212891"/>
      <use xlink:href="#DejaVuSans-6f" x="278.417969"/>
      <use xlink:href="#DejaVuSans-72" x="339.599609"/>
      <use xlink:href="#DejaVuSans-20" x="380.712891"/>
      <use xlink:href="#DejaVuSans-41" x="412.5"/>
      <use xlink:href="#DejaVuSans-6d" x="480.908203"/>
      <use xlink:href="#DejaVuSans-65" x="578.320312"/>
      <use xlink:href="#DejaVuSans-72" x="639.84375"/>
      <use xlink:href="#DejaVuSans-2d" x="674.582031"/>
      <use xlink:href="#DejaVuSans-49" x="710.666016"/>
      <use xlink:href="#DejaVuSans-6e" x="740.158203"/>
      <use xlink:href="#DejaVuSans-64" x="803.537109"/>
      <use xlink:href="#DejaVuSans-69" x="867.013672"/>
      <use xlink:href="#DejaVuSans-61" x="894.796875"/>
      <use xlink:href="#DejaVuSans-6e" x="956.076172"/>
      <use xlink:href="#DejaVuSans-2d" x="1019.455078"/>
      <use xlink:href="#DejaVuSans-45" x="1055.539062"/>
      <use xlink:href="#DejaVuSans-73" x="1118.722656"/>
      <use xlink:href="#DejaVuSans-6b" x="1170.822266"/>
      <use xlink:href="#DejaVuSans-69" x="1228.732422"/>
      <use xlink:href="#DejaVuSans-6d" x="1256.515625"/>
      <use xlink:href="#DejaVuSans-6f" x="1353.927734"/>
      <use xlink:href="#DejaVuSans-20" x="1415.109375"/>
      <use xlink:href="#DejaVuSans-3d" x="1446.896484"/>
      <use xlink:href="#DejaVuSans-20" x="1530.685547"/>
      <use xlink:href="#DejaVuSans-30" x="1562.472656"/>
      <use xlink:href="#DejaVuSans-2e" x="1626.095703"/>
      <use xlink:href="#DejaVuSans-36" x="1657.882812"/>
      <use xlink:href="#DejaVuSans-30" x="1721.505859"/>
      <use xlink:href="#DejaVuSans-2c" x="1785.128906"/>
      <use xlink:href="#DejaVuSans-20" x="1816.916016"/>
      <use xlink:href="#DejaVuSans-43" x="1848.703125"/>
      <use xlink:href="#DejaVuSans-6f" x="1918.527344"/>
      <use xlink:href="#DejaVuSans-75" x="1979.708984"/>
      <use xlink:href="#DejaVuSans-6e" x="2043.087891"/>
      <use xlink:href="#DejaVuSans-74" x="2106.466797"/>
      <use xlink:href="#DejaVuSans-3a" x="2145.675781"/>
      <use xlink:href="#DejaVuSans-20" x="2179.367188"/>
      <use xlink:href="#DejaVuSans-39" x="2211.154297"/>
      <use xlink:href="#DejaVuSans-31" x="2274.777344"/>
      <use xlink:href="#DejaVuSans-2c" x="2338.400391"/>
      <use xlink:href="#DejaVuSans-20" x="2370.1875"/>
      <use xlink:href="#DejaVuSans-50" x="2401.974609"/>
      <use xlink:href="#DejaVuSans-6f" x="2458.652344"/>
      <use xlink:href="#DejaVuSans-73" x="2519.833984"/>
      <use xlink:href="#DejaVuSans-3a" x="2571.933594"/>
      <use xlink:href="#DejaVuSans-20" x="2605.625"/>
      <use xlink:href="#DejaVuSans-38" x="2637.412109"/>
      <use xlink:href="#DejaVuSans-2c" x="2701.035156"/>
      <use xlink:href="#DejaVuSans-20" x="2732.822266"/>
      <use xlink:href="#DejaVuSans-4e" x="2764.609375"/>
      <use xlink:href="#DejaVuSans-65" x="2839.414062"/>
      <use xlink:href="#DejaVuSans-67" x="2900.9375"/>
      <use xlink:href="#DejaVuSans-3a" x="2964.414062"/>
      <use xlink:href="#DejaVuSans-20" x="2998.105469"/>
      <use xlink:href="#DejaVuSans-38" x="3029.892578"/>
      <use xlink:href="#DejaVuSans-33" x="3093.515625"/>
     </g>
    </g>
    <g id="line2d_35">
     <path d="M 147.584063 461.546938 
L 157.584063 461.546938 
L 167.584063 461.546938 
" style="fill: none; stroke: #9467bd; stroke-width: 1.5; stroke-linecap: square"/>
    </g>
    <g id="text_19">
     <!-- AUC for Other = 0.93, Count: 88, Pos: 10, Neg: 78 -->
     <g transform="translate(175.584063 465.046938) scale(0.1 -0.1)">
      <defs>
       <path id="DejaVuSans-4f" d="M 2522 4238 
Q 1834 4238 1429 3725 
Q 1025 3213 1025 2328 
Q 1025 1447 1429 934 
Q 1834 422 2522 422 
Q 3209 422 3611 934 
Q 4013 1447 4013 2328 
Q 4013 3213 3611 3725 
Q 3209 4238 2522 4238 
z
M 2522 4750 
Q 3503 4750 4090 4092 
Q 4678 3434 4678 2328 
Q 4678 1225 4090 567 
Q 3503 -91 2522 -91 
Q 1538 -91 948 565 
Q 359 1222 359 2328 
Q 359 3434 948 4092 
Q 1538 4750 2522 4750 
z
" transform="scale(0.015625)"/>
      </defs>
      <use xlink:href="#DejaVuSans-41"/>
      <use xlink:href="#DejaVuSans-55" x="68.408203"/>
      <use xlink:href="#DejaVuSans-43" x="141.601562"/>
      <use xlink:href="#DejaVuSans-20" x="211.425781"/>
      <use xlink:href="#DejaVuSans-66" x="243.212891"/>
      <use xlink:href="#DejaVuSans-6f" x="278.417969"/>
      <use xlink:href="#DejaVuSans-72" x="339.599609"/>
      <use xlink:href="#DejaVuSans-20" x="380.712891"/>
      <use xlink:href="#DejaVuSans-4f" x="412.5"/>
      <use xlink:href="#DejaVuSans-74" x="491.210938"/>
      <use xlink:href="#DejaVuSans-68" x="530.419922"/>
      <use xlink:href="#DejaVuSans-65" x="593.798828"/>
      <use xlink:href="#DejaVuSans-72" x="655.322266"/>
      <use xlink:href="#DejaVuSans-20" x="696.435547"/>
      <use xlink:href="#DejaVuSans-3d" x="728.222656"/>
      <use xlink:href="#DejaVuSans-20" x="812.011719"/>
      <use xlink:href="#DejaVuSans-30" x="843.798828"/>
      <use xlink:href="#DejaVuSans-2e" x="907.421875"/>
      <use xlink:href="#DejaVuSans-39" x="939.208984"/>
      <use xlink:href="#DejaVuSans-33" x="1002.832031"/>
      <use xlink:href="#DejaVuSans-2c" x="1066.455078"/>
      <use xlink:href="#DejaVuSans-20" x="1098.242188"/>
      <use xlink:href="#DejaVuSans-43" x="1130.029297"/>
      <use xlink:href="#DejaVuSans-6f" x="1199.853516"/>
      <use xlink:href="#DejaVuSans-75" x="1261.035156"/>
      <use xlink:href="#DejaVuSans-6e" x="1324.414062"/>
      <use xlink:href="#DejaVuSans-74" x="1387.792969"/>
      <use xlink:href="#DejaVuSans-3a" x="1427.001953"/>
      <use xlink:href="#DejaVuSans-20" x="1460.693359"/>
      <use xlink:href="#DejaVuSans-38" x="1492.480469"/>
      <use xlink:href="#DejaVuSans-38" x="1556.103516"/>
      <use xlink:href="#DejaVuSans-2c" x="1619.726562"/>
      <use xlink:href="#DejaVuSans-20" x="1651.513672"/>
      <use xlink:href="#DejaVuSans-50" x="1683.300781"/>
      <use xlink:href="#DejaVuSans-6f" x="1739.978516"/>
      <use xlink:href="#DejaVuSans-73" x="1801.160156"/>
      <use xlink:href="#DejaVuSans-3a" x="1853.259766"/>
      <use xlink:href="#DejaVuSans-20" x="1886.951172"/>
      <use xlink:href="#DejaVuSans-31" x="1918.738281"/>
      <use xlink:href="#DejaVuSans-30" x="1982.361328"/>
      <use xlink:href="#DejaVuSans-2c" x="2045.984375"/>
      <use xlink:href="#DejaVuSans-20" x="2077.771484"/>
      <use xlink:href="#DejaVuSans-4e" x="2109.558594"/>
      <use xlink:href="#DejaVuSans-65" x="2184.363281"/>
      <use xlink:href="#DejaVuSans-67" x="2245.886719"/>
      <use xlink:href="#DejaVuSans-3a" x="2309.363281"/>
      <use xlink:href="#DejaVuSans-20" x="2343.054688"/>
      <use xlink:href="#DejaVuSans-37" x="2374.841797"/>
      <use xlink:href="#DejaVuSans-38" x="2438.464844"/>
     </g>
    </g>
    <g id="line2d_36">
     <path d="M 147.584063 476.225062 
L 157.584063 476.225062 
L 167.584063 476.225062 
" style="fill: none; stroke-dasharray: 7.4,3.2; stroke-dashoffset: 0; stroke: #808080; stroke-width: 2"/>
    </g>
    <g id="text_20">
     <!-- Random Guess -->
     <g transform="translate(175.584063 479.725062) scale(0.1 -0.1)">
      <defs>
       <path id="DejaVuSans-47" d="M 3809 666 
L 3809 1919 
L 2778 1919 
L 2778 2438 
L 4434 2438 
L 4434 434 
Q 4069 175 3628 42 
Q 3188 -91 2688 -91 
Q 1594 -91 976 548 
Q 359 1188 359 2328 
Q 359 3472 976 4111 
Q 1594 4750 2688 4750 
Q 3144 4750 3555 4637 
Q 3966 4525 4313 4306 
L 4313 3634 
Q 3963 3931 3569 4081 
Q 3175 4231 2741 4231 
Q 1884 4231 1454 3753 
Q 1025 3275 1025 2328 
Q 1025 1384 1454 906 
Q 1884 428 2741 428 
Q 3075 428 3337 486 
Q 3600 544 3809 666 
z
" transform="scale(0.015625)"/>
      </defs>
      <use xlink:href="#DejaVuSans-52"/>
      <use xlink:href="#DejaVuSans-61" x="67.232422"/>
      <use xlink:href="#DejaVuSans-6e" x="128.511719"/>
      <use xlink:href="#DejaVuSans-64" x="191.890625"/>
      <use xlink:href="#DejaVuSans-6f" x="255.367188"/>
      <use xlink:href="#DejaVuSans-6d" x="316.548828"/>
      <use xlink:href="#DejaVuSans-20" x="413.960938"/>
      <use xlink:href="#DejaVuSans-47" x="445.748047"/>
      <use xlink:href="#DejaVuSans-75" x="523.238281"/>
      <use xlink:href="#DejaVuSans-65" x="586.617188"/>
      <use xlink:href="#DejaVuSans-73" x="648.140625"/>
      <use xlink:href="#DejaVuSans-73" x="700.240234"/>
     </g>
    </g>
   </g>
  </g>
 </g>
 <defs>
  <clipPath id="p7ca5d3c6f2">
   <rect x="45.716875" y="7.2" width="558" height="332.64"/>
  </clipPath>
 </defs>
</svg>
