<?xml version="1.0" encoding="utf-8" standalone="no"?>
<!DOCTYPE svg PUBLIC "-//W3C//DTD SVG 1.1//EN"
  "http://www.w3.org/Graphics/SVG/1.1/DTD/svg11.dtd">
<svg xmlns:xlink="http://www.w3.org/1999/xlink" width="666.716875pt" height="394.45pt" viewBox="0 0 666.716875 394.45" xmlns="http://www.w3.org/2000/svg" version="1.1">
 <metadata>
  <rdf:RDF xmlns:dc="http://purl.org/dc/elements/1.1/" xmlns:cc="http://creativecommons.org/ns#" xmlns:rdf="http://www.w3.org/1999/02/22-rdf-syntax-ns#">
   <cc:Work>
    <dc:type rdf:resource="http://purl.org/dc/dcmitype/StillImage"/>
    <dc:date>2025-03-14T11:11:42.673528</dc:date>
    <dc:format>image/svg+xml</dc:format>
    <dc:creator>
     <cc:Agent>
      <dc:title>Matplotlib v3.9.2, https://matplotlib.org/</dc:title>
     </cc:Agent>
    </dc:creator>
   </cc:Work>
  </rdf:RDF>
 </metadata>
 <defs>
  <style type="text/css">*{stroke-linejoin: round; stroke-linecap: butt}</style>
 </defs>
 <g id="figure_1">
  <g id="patch_1">
   <path d="M 0 394.45 
L 666.716875 394.45 
L 666.716875 0 
L 0 0 
z
" style="fill: #ffffff"/>
  </g>
  <g id="axes_1">
   <g id="patch_2">
    <path d="M 45.716875 354.958125 
L 659.516875 354.958125 
L 659.516875 22.318125 
L 45.716875 22.318125 
z
" style="fill: #ffffff"/>
   </g>
   <g id="matplotlib.axis_1">
    <g id="xtick_1">
     <g id="line2d_1">
      <path d="M 73.616875 354.958125 
L 73.616875 22.318125 
" clip-path="url(#p802ddd9f81)" style="fill: none; stroke: #b0b0b0; stroke-width: 0.8; stroke-linecap: square"/>
     </g>
     <g id="line2d_2">
      <defs>
       <path id="m490ab77d24" d="M 0 0 
L 0 3.5 
" style="stroke: #000000; stroke-width: 0.8"/>
      </defs>
      <g>
       <use xlink:href="#m490ab77d24" x="73.616875" y="354.958125" style="stroke: #000000; stroke-width: 0.8"/>
      </g>
     </g>
     <g id="text_1">
      <!-- 0.0 -->
      <g transform="translate(65.665313 369.556562) scale(0.1 -0.1)">
       <defs>
        <path id="DejaVuSans-30" d="M 2034 4250 
Q 1547 4250 1301 3770 
Q 1056 3291 1056 2328 
Q 1056 1369 1301 889 
Q 1547 409 2034 409 
Q 2525 409 2770 889 
Q 3016 1369 3016 2328 
Q 3016 3291 2770 3770 
Q 2525 4250 2034 4250 
z
M 2034 4750 
Q 2819 4750 3233 4129 
Q 3647 3509 3647 2328 
Q 3647 1150 3233 529 
Q 2819 -91 2034 -91 
Q 1250 -91 836 529 
Q 422 1150 422 2328 
Q 422 3509 836 4129 
Q 1250 4750 2034 4750 
z
" transform="scale(0.015625)"/>
        <path id="DejaVuSans-2e" d="M 684 794 
L 1344 794 
L 1344 0 
L 684 0 
L 684 794 
z
" transform="scale(0.015625)"/>
       </defs>
       <use xlink:href="#DejaVuSans-30"/>
       <use xlink:href="#DejaVuSans-2e" x="63.623047"/>
       <use xlink:href="#DejaVuSans-30" x="95.410156"/>
      </g>
     </g>
    </g>
    <g id="xtick_2">
     <g id="line2d_3">
      <path d="M 185.216875 354.958125 
L 185.216875 22.318125 
" clip-path="url(#p802ddd9f81)" style="fill: none; stroke: #b0b0b0; stroke-width: 0.8; stroke-linecap: square"/>
     </g>
     <g id="line2d_4">
      <g>
       <use xlink:href="#m490ab77d24" x="185.216875" y="354.958125" style="stroke: #000000; stroke-width: 0.8"/>
      </g>
     </g>
     <g id="text_2">
      <!-- 0.2 -->
      <g transform="translate(177.265313 369.556562) scale(0.1 -0.1)">
       <defs>
        <path id="DejaVuSans-32" d="M 1228 531 
L 3431 531 
L 3431 0 
L 469 0 
L 469 531 
Q 828 903 1448 1529 
Q 2069 2156 2228 2338 
Q 2531 2678 2651 2914 
Q 2772 3150 2772 3378 
Q 2772 3750 2511 3984 
Q 2250 4219 1831 4219 
Q 1534 4219 1204 4116 
Q 875 4013 500 3803 
L 500 4441 
Q 881 4594 1212 4672 
Q 1544 4750 1819 4750 
Q 2544 4750 2975 4387 
Q 3406 4025 3406 3419 
Q 3406 3131 3298 2873 
Q 3191 2616 2906 2266 
Q 2828 2175 2409 1742 
Q 1991 1309 1228 531 
z
" transform="scale(0.015625)"/>
       </defs>
       <use xlink:href="#DejaVuSans-30"/>
       <use xlink:href="#DejaVuSans-2e" x="63.623047"/>
       <use xlink:href="#DejaVuSans-32" x="95.410156"/>
      </g>
     </g>
    </g>
    <g id="xtick_3">
     <g id="line2d_5">
      <path d="M 296.816875 354.958125 
L 296.816875 22.318125 
" clip-path="url(#p802ddd9f81)" style="fill: none; stroke: #b0b0b0; stroke-width: 0.8; stroke-linecap: square"/>
     </g>
     <g id="line2d_6">
      <g>
       <use xlink:href="#m490ab77d24" x="296.816875" y="354.958125" style="stroke: #000000; stroke-width: 0.8"/>
      </g>
     </g>
     <g id="text_3">
      <!-- 0.4 -->
      <g transform="translate(288.865313 369.556562) scale(0.1 -0.1)">
       <defs>
        <path id="DejaVuSans-34" d="M 2419 4116 
L 825 1625 
L 2419 1625 
L 2419 4116 
z
M 2253 4666 
L 3047 4666 
L 3047 1625 
L 3713 1625 
L 3713 1100 
L 3047 1100 
L 3047 0 
L 2419 0 
L 2419 1100 
L 313 1100 
L 313 1709 
L 2253 4666 
z
" transform="scale(0.015625)"/>
       </defs>
       <use xlink:href="#DejaVuSans-30"/>
       <use xlink:href="#DejaVuSans-2e" x="63.623047"/>
       <use xlink:href="#DejaVuSans-34" x="95.410156"/>
      </g>
     </g>
    </g>
    <g id="xtick_4">
     <g id="line2d_7">
      <path d="M 408.416875 354.958125 
L 408.416875 22.318125 
" clip-path="url(#p802ddd9f81)" style="fill: none; stroke: #b0b0b0; stroke-width: 0.8; stroke-linecap: square"/>
     </g>
     <g id="line2d_8">
      <g>
       <use xlink:href="#m490ab77d24" x="408.416875" y="354.958125" style="stroke: #000000; stroke-width: 0.8"/>
      </g>
     </g>
     <g id="text_4">
      <!-- 0.6 -->
      <g transform="translate(400.465313 369.556562) scale(0.1 -0.1)">
       <defs>
        <path id="DejaVuSans-36" d="M 2113 2584 
Q 1688 2584 1439 2293 
Q 1191 2003 1191 1497 
Q 1191 994 1439 701 
Q 1688 409 2113 409 
Q 2538 409 2786 701 
Q 3034 994 3034 1497 
Q 3034 2003 2786 2293 
Q 2538 2584 2113 2584 
z
M 3366 4563 
L 3366 3988 
Q 3128 4100 2886 4159 
Q 2644 4219 2406 4219 
Q 1781 4219 1451 3797 
Q 1122 3375 1075 2522 
Q 1259 2794 1537 2939 
Q 1816 3084 2150 3084 
Q 2853 3084 3261 2657 
Q 3669 2231 3669 1497 
Q 3669 778 3244 343 
Q 2819 -91 2113 -91 
Q 1303 -91 875 529 
Q 447 1150 447 2328 
Q 447 3434 972 4092 
Q 1497 4750 2381 4750 
Q 2619 4750 2861 4703 
Q 3103 4656 3366 4563 
z
" transform="scale(0.015625)"/>
       </defs>
       <use xlink:href="#DejaVuSans-30"/>
       <use xlink:href="#DejaVuSans-2e" x="63.623047"/>
       <use xlink:href="#DejaVuSans-36" x="95.410156"/>
      </g>
     </g>
    </g>
    <g id="xtick_5">
     <g id="line2d_9">
      <path d="M 520.016875 354.958125 
L 520.016875 22.318125 
" clip-path="url(#p802ddd9f81)" style="fill: none; stroke: #b0b0b0; stroke-width: 0.8; stroke-linecap: square"/>
     </g>
     <g id="line2d_10">
      <g>
       <use xlink:href="#m490ab77d24" x="520.016875" y="354.958125" style="stroke: #000000; stroke-width: 0.8"/>
      </g>
     </g>
     <g id="text_5">
      <!-- 0.8 -->
      <g transform="translate(512.065313 369.556562) scale(0.1 -0.1)">
       <defs>
        <path id="DejaVuSans-38" d="M 2034 2216 
Q 1584 2216 1326 1975 
Q 1069 1734 1069 1313 
Q 1069 891 1326 650 
Q 1584 409 2034 409 
Q 2484 409 2743 651 
Q 3003 894 3003 1313 
Q 3003 1734 2745 1975 
Q 2488 2216 2034 2216 
z
M 1403 2484 
Q 997 2584 770 2862 
Q 544 3141 544 3541 
Q 544 4100 942 4425 
Q 1341 4750 2034 4750 
Q 2731 4750 3128 4425 
Q 3525 4100 3525 3541 
Q 3525 3141 3298 2862 
Q 3072 2584 2669 2484 
Q 3125 2378 3379 2068 
Q 3634 1759 3634 1313 
Q 3634 634 3220 271 
Q 2806 -91 2034 -91 
Q 1263 -91 848 271 
Q 434 634 434 1313 
Q 434 1759 690 2068 
Q 947 2378 1403 2484 
z
M 1172 3481 
Q 1172 3119 1398 2916 
Q 1625 2713 2034 2713 
Q 2441 2713 2670 2916 
Q 2900 3119 2900 3481 
Q 2900 3844 2670 4047 
Q 2441 4250 2034 4250 
Q 1625 4250 1398 4047 
Q 1172 3844 1172 3481 
z
" transform="scale(0.015625)"/>
       </defs>
       <use xlink:href="#DejaVuSans-30"/>
       <use xlink:href="#DejaVuSans-2e" x="63.623047"/>
       <use xlink:href="#DejaVuSans-38" x="95.410156"/>
      </g>
     </g>
    </g>
    <g id="xtick_6">
     <g id="line2d_11">
      <path d="M 631.616875 354.958125 
L 631.616875 22.318125 
" clip-path="url(#p802ddd9f81)" style="fill: none; stroke: #b0b0b0; stroke-width: 0.8; stroke-linecap: square"/>
     </g>
     <g id="line2d_12">
      <g>
       <use xlink:href="#m490ab77d24" x="631.616875" y="354.958125" style="stroke: #000000; stroke-width: 0.8"/>
      </g>
     </g>
     <g id="text_6">
      <!-- 1.0 -->
      <g transform="translate(623.665313 369.556562) scale(0.1 -0.1)">
       <defs>
        <path id="DejaVuSans-31" d="M 794 531 
L 1825 531 
L 1825 4091 
L 703 3866 
L 703 4441 
L 1819 4666 
L 2450 4666 
L 2450 531 
L 3481 531 
L 3481 0 
L 794 0 
L 794 531 
z
" transform="scale(0.015625)"/>
       </defs>
       <use xlink:href="#DejaVuSans-31"/>
       <use xlink:href="#DejaVuSans-2e" x="63.623047"/>
       <use xlink:href="#DejaVuSans-30" x="95.410156"/>
      </g>
     </g>
    </g>
    <g id="text_7">
     <!-- False Positive Rate -->
     <g transform="translate(296.857188 384.754375) scale(0.12 -0.12)">
      <defs>
       <path id="DejaVuSans-46" d="M 628 4666 
L 3309 4666 
L 3309 4134 
L 1259 4134 
L 1259 2759 
L 3109 2759 
L 3109 2228 
L 1259 2228 
L 1259 0 
L 628 0 
L 628 4666 
z
" transform="scale(0.015625)"/>
       <path id="DejaVuSans-61" d="M 2194 1759 
Q 1497 1759 1228 1600 
Q 959 1441 959 1056 
Q 959 750 1161 570 
Q 1363 391 1709 391 
Q 2188 391 2477 730 
Q 2766 1069 2766 1631 
L 2766 1759 
L 2194 1759 
z
M 3341 1997 
L 3341 0 
L 2766 0 
L 2766 531 
Q 2569 213 2275 61 
Q 1981 -91 1556 -91 
Q 1019 -91 701 211 
Q 384 513 384 1019 
Q 384 1609 779 1909 
Q 1175 2209 1959 2209 
L 2766 2209 
L 2766 2266 
Q 2766 2663 2505 2880 
Q 2244 3097 1772 3097 
Q 1472 3097 1187 3025 
Q 903 2953 641 2809 
L 641 3341 
Q 956 3463 1253 3523 
Q 1550 3584 1831 3584 
Q 2591 3584 2966 3190 
Q 3341 2797 3341 1997 
z
" transform="scale(0.015625)"/>
       <path id="DejaVuSans-6c" d="M 603 4863 
L 1178 4863 
L 1178 0 
L 603 0 
L 603 4863 
z
" transform="scale(0.015625)"/>
       <path id="DejaVuSans-73" d="M 2834 3397 
L 2834 2853 
Q 2591 2978 2328 3040 
Q 2066 3103 1784 3103 
Q 1356 3103 1142 2972 
Q 928 2841 928 2578 
Q 928 2378 1081 2264 
Q 1234 2150 1697 2047 
L 1894 2003 
Q 2506 1872 2764 1633 
Q 3022 1394 3022 966 
Q 3022 478 2636 193 
Q 2250 -91 1575 -91 
Q 1294 -91 989 -36 
Q 684 19 347 128 
L 347 722 
Q 666 556 975 473 
Q 1284 391 1588 391 
Q 1994 391 2212 530 
Q 2431 669 2431 922 
Q 2431 1156 2273 1281 
Q 2116 1406 1581 1522 
L 1381 1569 
Q 847 1681 609 1914 
Q 372 2147 372 2553 
Q 372 3047 722 3315 
Q 1072 3584 1716 3584 
Q 2034 3584 2315 3537 
Q 2597 3491 2834 3397 
z
" transform="scale(0.015625)"/>
       <path id="DejaVuSans-65" d="M 3597 1894 
L 3597 1613 
L 953 1613 
Q 991 1019 1311 708 
Q 1631 397 2203 397 
Q 2534 397 2845 478 
Q 3156 559 3463 722 
L 3463 178 
Q 3153 47 2828 -22 
Q 2503 -91 2169 -91 
Q 1331 -91 842 396 
Q 353 884 353 1716 
Q 353 2575 817 3079 
Q 1281 3584 2069 3584 
Q 2775 3584 3186 3129 
Q 3597 2675 3597 1894 
z
M 3022 2063 
Q 3016 2534 2758 2815 
Q 2500 3097 2075 3097 
Q 1594 3097 1305 2825 
Q 1016 2553 972 2059 
L 3022 2063 
z
" transform="scale(0.015625)"/>
       <path id="DejaVuSans-20" transform="scale(0.015625)"/>
       <path id="DejaVuSans-50" d="M 1259 4147 
L 1259 2394 
L 2053 2394 
Q 2494 2394 2734 2622 
Q 2975 2850 2975 3272 
Q 2975 3691 2734 3919 
Q 2494 4147 2053 4147 
L 1259 4147 
z
M 628 4666 
L 2053 4666 
Q 2838 4666 3239 4311 
Q 3641 3956 3641 3272 
Q 3641 2581 3239 2228 
Q 2838 1875 2053 1875 
L 1259 1875 
L 1259 0 
L 628 0 
L 628 4666 
z
" transform="scale(0.015625)"/>
       <path id="DejaVuSans-6f" d="M 1959 3097 
Q 1497 3097 1228 2736 
Q 959 2375 959 1747 
Q 959 1119 1226 758 
Q 1494 397 1959 397 
Q 2419 397 2687 759 
Q 2956 1122 2956 1747 
Q 2956 2369 2687 2733 
Q 2419 3097 1959 3097 
z
M 1959 3584 
Q 2709 3584 3137 3096 
Q 3566 2609 3566 1747 
Q 3566 888 3137 398 
Q 2709 -91 1959 -91 
Q 1206 -91 779 398 
Q 353 888 353 1747 
Q 353 2609 779 3096 
Q 1206 3584 1959 3584 
z
" transform="scale(0.015625)"/>
       <path id="DejaVuSans-69" d="M 603 3500 
L 1178 3500 
L 1178 0 
L 603 0 
L 603 3500 
z
M 603 4863 
L 1178 4863 
L 1178 4134 
L 603 4134 
L 603 4863 
z
" transform="scale(0.015625)"/>
       <path id="DejaVuSans-74" d="M 1172 4494 
L 1172 3500 
L 2356 3500 
L 2356 3053 
L 1172 3053 
L 1172 1153 
Q 1172 725 1289 603 
Q 1406 481 1766 481 
L 2356 481 
L 2356 0 
L 1766 0 
Q 1100 0 847 248 
Q 594 497 594 1153 
L 594 3053 
L 172 3053 
L 172 3500 
L 594 3500 
L 594 4494 
L 1172 4494 
z
" transform="scale(0.015625)"/>
       <path id="DejaVuSans-76" d="M 191 3500 
L 800 3500 
L 1894 563 
L 2988 3500 
L 3597 3500 
L 2284 0 
L 1503 0 
L 191 3500 
z
" transform="scale(0.015625)"/>
       <path id="DejaVuSans-52" d="M 2841 2188 
Q 3044 2119 3236 1894 
Q 3428 1669 3622 1275 
L 4263 0 
L 3584 0 
L 2988 1197 
Q 2756 1666 2539 1819 
Q 2322 1972 1947 1972 
L 1259 1972 
L 1259 0 
L 628 0 
L 628 4666 
L 2053 4666 
Q 2853 4666 3247 4331 
Q 3641 3997 3641 3322 
Q 3641 2881 3436 2590 
Q 3231 2300 2841 2188 
z
M 1259 4147 
L 1259 2491 
L 2053 2491 
Q 2509 2491 2742 2702 
Q 2975 2913 2975 3322 
Q 2975 3731 2742 3939 
Q 2509 4147 2053 4147 
L 1259 4147 
z
" transform="scale(0.015625)"/>
      </defs>
      <use xlink:href="#DejaVuSans-46"/>
      <use xlink:href="#DejaVuSans-61" x="48.394531"/>
      <use xlink:href="#DejaVuSans-6c" x="109.673828"/>
      <use xlink:href="#DejaVuSans-73" x="137.457031"/>
      <use xlink:href="#DejaVuSans-65" x="189.556641"/>
      <use xlink:href="#DejaVuSans-20" x="251.080078"/>
      <use xlink:href="#DejaVuSans-50" x="282.867188"/>
      <use xlink:href="#DejaVuSans-6f" x="339.544922"/>
      <use xlink:href="#DejaVuSans-73" x="400.726562"/>
      <use xlink:href="#DejaVuSans-69" x="452.826172"/>
      <use xlink:href="#DejaVuSans-74" x="480.609375"/>
      <use xlink:href="#DejaVuSans-69" x="519.818359"/>
      <use xlink:href="#DejaVuSans-76" x="547.601562"/>
      <use xlink:href="#DejaVuSans-65" x="606.78125"/>
      <use xlink:href="#DejaVuSans-20" x="668.304688"/>
      <use xlink:href="#DejaVuSans-52" x="700.091797"/>
      <use xlink:href="#DejaVuSans-61" x="767.324219"/>
      <use xlink:href="#DejaVuSans-74" x="828.603516"/>
      <use xlink:href="#DejaVuSans-65" x="867.8125"/>
     </g>
    </g>
   </g>
   <g id="matplotlib.axis_2">
    <g id="ytick_1">
     <g id="line2d_13">
      <path d="M 45.716875 339.838125 
L 659.516875 339.838125 
" clip-path="url(#p802ddd9f81)" style="fill: none; stroke: #b0b0b0; stroke-width: 0.8; stroke-linecap: square"/>
     </g>
     <g id="line2d_14">
      <defs>
       <path id="m17ad06ed46" d="M 0 0 
L -3.5 0 
" style="stroke: #000000; stroke-width: 0.8"/>
      </defs>
      <g>
       <use xlink:href="#m17ad06ed46" x="45.716875" y="339.838125" style="stroke: #000000; stroke-width: 0.8"/>
      </g>
     </g>
     <g id="text_8">
      <!-- 0.0 -->
      <g transform="translate(22.81375 343.637344) scale(0.1 -0.1)">
       <use xlink:href="#DejaVuSans-30"/>
       <use xlink:href="#DejaVuSans-2e" x="63.623047"/>
       <use xlink:href="#DejaVuSans-30" x="95.410156"/>
      </g>
     </g>
    </g>
    <g id="ytick_2">
     <g id="line2d_15">
      <path d="M 45.716875 279.358125 
L 659.516875 279.358125 
" clip-path="url(#p802ddd9f81)" style="fill: none; stroke: #b0b0b0; stroke-width: 0.8; stroke-linecap: square"/>
     </g>
     <g id="line2d_16">
      <g>
       <use xlink:href="#m17ad06ed46" x="45.716875" y="279.358125" style="stroke: #000000; stroke-width: 0.8"/>
      </g>
     </g>
     <g id="text_9">
      <!-- 0.2 -->
      <g transform="translate(22.81375 283.157344) scale(0.1 -0.1)">
       <use xlink:href="#DejaVuSans-30"/>
       <use xlink:href="#DejaVuSans-2e" x="63.623047"/>
       <use xlink:href="#DejaVuSans-32" x="95.410156"/>
      </g>
     </g>
    </g>
    <g id="ytick_3">
     <g id="line2d_17">
      <path d="M 45.716875 218.878125 
L 659.516875 218.878125 
" clip-path="url(#p802ddd9f81)" style="fill: none; stroke: #b0b0b0; stroke-width: 0.8; stroke-linecap: square"/>
     </g>
     <g id="line2d_18">
      <g>
       <use xlink:href="#m17ad06ed46" x="45.716875" y="218.878125" style="stroke: #000000; stroke-width: 0.8"/>
      </g>
     </g>
     <g id="text_10">
      <!-- 0.4 -->
      <g transform="translate(22.81375 222.677344) scale(0.1 -0.1)">
       <use xlink:href="#DejaVuSans-30"/>
       <use xlink:href="#DejaVuSans-2e" x="63.623047"/>
       <use xlink:href="#DejaVuSans-34" x="95.410156"/>
      </g>
     </g>
    </g>
    <g id="ytick_4">
     <g id="line2d_19">
      <path d="M 45.716875 158.398125 
L 659.516875 158.398125 
" clip-path="url(#p802ddd9f81)" style="fill: none; stroke: #b0b0b0; stroke-width: 0.8; stroke-linecap: square"/>
     </g>
     <g id="line2d_20">
      <g>
       <use xlink:href="#m17ad06ed46" x="45.716875" y="158.398125" style="stroke: #000000; stroke-width: 0.8"/>
      </g>
     </g>
     <g id="text_11">
      <!-- 0.6 -->
      <g transform="translate(22.81375 162.197344) scale(0.1 -0.1)">
       <use xlink:href="#DejaVuSans-30"/>
       <use xlink:href="#DejaVuSans-2e" x="63.623047"/>
       <use xlink:href="#DejaVuSans-36" x="95.410156"/>
      </g>
     </g>
    </g>
    <g id="ytick_5">
     <g id="line2d_21">
      <path d="M 45.716875 97.918125 
L 659.516875 97.918125 
" clip-path="url(#p802ddd9f81)" style="fill: none; stroke: #b0b0b0; stroke-width: 0.8; stroke-linecap: square"/>
     </g>
     <g id="line2d_22">
      <g>
       <use xlink:href="#m17ad06ed46" x="45.716875" y="97.918125" style="stroke: #000000; stroke-width: 0.8"/>
      </g>
     </g>
     <g id="text_12">
      <!-- 0.8 -->
      <g transform="translate(22.81375 101.717344) scale(0.1 -0.1)">
       <use xlink:href="#DejaVuSans-30"/>
       <use xlink:href="#DejaVuSans-2e" x="63.623047"/>
       <use xlink:href="#DejaVuSans-38" x="95.410156"/>
      </g>
     </g>
    </g>
    <g id="ytick_6">
     <g id="line2d_23">
      <path d="M 45.716875 37.438125 
L 659.516875 37.438125 
" clip-path="url(#p802ddd9f81)" style="fill: none; stroke: #b0b0b0; stroke-width: 0.8; stroke-linecap: square"/>
     </g>
     <g id="line2d_24">
      <g>
       <use xlink:href="#m17ad06ed46" x="45.716875" y="37.438125" style="stroke: #000000; stroke-width: 0.8"/>
      </g>
     </g>
     <g id="text_13">
      <!-- 1.0 -->
      <g transform="translate(22.81375 41.237344) scale(0.1 -0.1)">
       <use xlink:href="#DejaVuSans-31"/>
       <use xlink:href="#DejaVuSans-2e" x="63.623047"/>
       <use xlink:href="#DejaVuSans-30" x="95.410156"/>
      </g>
     </g>
    </g>
    <g id="text_14">
     <!-- True Positive Rate -->
     <g transform="translate(16.318125 242.07375) rotate(-90) scale(0.12 -0.12)">
      <defs>
       <path id="DejaVuSans-54" d="M -19 4666 
L 3928 4666 
L 3928 4134 
L 2272 4134 
L 2272 0 
L 1638 0 
L 1638 4134 
L -19 4134 
L -19 4666 
z
" transform="scale(0.015625)"/>
       <path id="DejaVuSans-72" d="M 2631 2963 
Q 2534 3019 2420 3045 
Q 2306 3072 2169 3072 
Q 1681 3072 1420 2755 
Q 1159 2438 1159 1844 
L 1159 0 
L 581 0 
L 581 3500 
L 1159 3500 
L 1159 2956 
Q 1341 3275 1631 3429 
Q 1922 3584 2338 3584 
Q 2397 3584 2469 3576 
Q 2541 3569 2628 3553 
L 2631 2963 
z
" transform="scale(0.015625)"/>
       <path id="DejaVuSans-75" d="M 544 1381 
L 544 3500 
L 1119 3500 
L 1119 1403 
Q 1119 906 1312 657 
Q 1506 409 1894 409 
Q 2359 409 2629 706 
Q 2900 1003 2900 1516 
L 2900 3500 
L 3475 3500 
L 3475 0 
L 2900 0 
L 2900 538 
Q 2691 219 2414 64 
Q 2138 -91 1772 -91 
Q 1169 -91 856 284 
Q 544 659 544 1381 
z
M 1991 3584 
L 1991 3584 
z
" transform="scale(0.015625)"/>
      </defs>
      <use xlink:href="#DejaVuSans-54"/>
      <use xlink:href="#DejaVuSans-72" x="46.333984"/>
      <use xlink:href="#DejaVuSans-75" x="87.447266"/>
      <use xlink:href="#DejaVuSans-65" x="150.826172"/>
      <use xlink:href="#DejaVuSans-20" x="212.349609"/>
      <use xlink:href="#DejaVuSans-50" x="244.136719"/>
      <use xlink:href="#DejaVuSans-6f" x="300.814453"/>
      <use xlink:href="#DejaVuSans-73" x="361.996094"/>
      <use xlink:href="#DejaVuSans-69" x="414.095703"/>
      <use xlink:href="#DejaVuSans-74" x="441.878906"/>
      <use xlink:href="#DejaVuSans-69" x="481.087891"/>
      <use xlink:href="#DejaVuSans-76" x="508.871094"/>
      <use xlink:href="#DejaVuSans-65" x="568.050781"/>
      <use xlink:href="#DejaVuSans-20" x="629.574219"/>
      <use xlink:href="#DejaVuSans-52" x="661.361328"/>
      <use xlink:href="#DejaVuSans-61" x="728.59375"/>
      <use xlink:href="#DejaVuSans-74" x="789.873047"/>
      <use xlink:href="#DejaVuSans-65" x="829.082031"/>
     </g>
    </g>
   </g>
   <g id="line2d_25">
    <path d="M 73.616875 339.838125 
L 73.691966 316.427347 
L 73.767057 316.427347 
L 73.842148 315.263275 
L 73.917238 315.263275 
L 73.992329 310.348305 
L 74.06742 310.348305 
L 74.06742 310.089622 
L 74.217602 310.089622 
L 74.292693 307.761478 
L 74.367783 307.761478 
L 74.442874 302.329143 
L 74.517965 302.329143 
L 74.593056 301.03573 
L 74.668147 301.03573 
L 74.743238 298.836927 
L 74.818328 298.836927 
L 74.818328 297.414173 
L 74.96851 297.414173 
L 75.043601 296.508784 
L 75.118692 296.508784 
L 75.193783 294.956688 
L 75.268873 294.956688 
L 75.343964 294.309981 
L 75.419055 294.309981 
L 75.419055 293.275251 
L 75.569237 293.275251 
L 75.644328 292.887227 
L 75.719418 292.887227 
L 75.794509 291.723155 
L 75.944691 291.723155 
L 76.019782 291.076448 
L 76.169963 291.076448 
L 76.245054 288.877646 
L 76.395236 288.877646 
L 76.470327 288.360281 
L 76.545418 288.360281 
L 76.620508 286.549502 
L 76.695599 286.549502 
L 76.695599 286.161478 
L 76.845781 286.161478 
L 76.920872 285.514772 
L 76.995963 285.514772 
L 76.995963 285.38543 
L 77.221235 285.38543 
L 77.296326 283.315969 
L 77.446508 283.315969 
L 77.446508 283.057287 
L 77.746871 283.057287 
L 77.821962 282.798604 
L 77.972143 282.798604 
L 78.047234 281.634532 
L 78.197416 281.634532 
L 78.272507 280.211778 
L 78.347598 280.211778 
L 78.347598 280.082436 
L 78.497779 280.082436 
L 78.57287 279.565071 
L 78.647961 279.565071 
L 78.647961 279.047706 
L 79.023415 279.047706 
L 79.098506 277.883634 
L 79.173597 277.883634 
L 79.248688 275.038125 
L 79.323779 275.038125 
L 79.398869 274.779442 
L 79.47396 274.779442 
L 79.47396 274.52076 
L 79.624142 274.52076 
L 79.624142 274.262077 
L 79.774324 274.262077 
L 79.849414 273.874053 
L 79.924505 273.874053 
L 79.999596 272.321957 
L 80.074687 272.321957 
L 80.149778 271.157885 
L 80.224869 271.157885 
L 80.299959 270.769862 
L 80.37505 270.769862 
L 80.37505 270.64052 
L 80.525232 270.64052 
L 80.525232 270.381838 
L 80.675414 270.381838 
L 80.675414 269.864472 
L 80.825595 269.864472 
L 80.900686 269.217766 
L 80.975777 269.217766 
L 80.975777 269.088424 
L 81.125959 269.088424 
L 81.201049 268.441718 
L 81.27614 268.441718 
L 81.351231 266.760281 
L 81.426322 266.760281 
L 81.501413 266.501598 
L 81.726685 266.501598 
L 81.801776 265.854891 
L 81.876867 265.854891 
L 81.951958 264.173454 
L 82.102139 264.173454 
L 82.17723 261.974652 
L 82.252321 261.974652 
L 82.252321 260.939921 
L 82.402503 260.939921 
L 82.402503 260.81058 
L 82.552684 260.81058 
L 82.627775 259.905191 
L 82.702866 259.905191 
L 82.777957 259.646508 
L 82.853048 259.646508 
L 82.928139 259.387826 
L 83.07832 259.387826 
L 83.153411 259.129143 
L 83.228502 259.129143 
L 83.303593 258.87046 
L 83.378684 258.87046 
L 83.453774 257.83573 
L 83.528865 257.83573 
L 83.528865 257.577047 
L 83.679047 257.577047 
L 83.679047 257.059682 
L 83.97941 257.059682 
L 83.97941 256.671658 
L 84.129592 256.671658 
L 84.129592 256.283634 
L 84.279774 256.283634 
L 84.354865 255.636927 
L 84.505046 255.636927 
L 84.505046 255.248903 
L 84.655228 255.248903 
L 84.730319 254.860879 
L 84.80541 254.860879 
L 84.80541 254.731538 
L 84.955591 254.731538 
L 84.955591 254.602197 
L 85.105773 254.602197 
L 85.105773 254.214173 
L 85.331045 254.214173 
L 85.406136 252.532736 
L 85.481227 252.532736 
L 85.481227 252.274053 
L 85.631409 252.274053 
L 85.7065 251.498005 
L 85.78159 251.498005 
L 85.856681 250.592616 
L 86.006863 250.592616 
L 86.081954 249.04052 
L 86.157045 249.04052 
L 86.232135 248.264472 
L 86.307226 248.264472 
L 86.307226 248.135131 
L 86.457408 248.135131 
L 86.457408 248.00579 
L 86.68268 248.00579 
L 86.68268 247.876448 
L 86.832862 247.876448 
L 86.907953 247.229742 
L 86.983044 247.229742 
L 87.058135 246.453694 
L 87.133225 246.453694 
L 87.133225 246.06567 
L 87.283407 246.06567 
L 87.283407 245.936329 
L 87.50868 245.936329 
L 87.58377 244.901598 
L 87.658861 244.901598 
L 87.658861 244.642915 
L 87.809043 244.642915 
L 87.884134 243.478844 
L 88.034315 243.478844 
L 88.034315 242.961478 
L 88.184497 242.961478 
L 88.184497 242.573454 
L 88.334679 242.573454 
L 88.40977 242.056089 
L 88.710133 242.056089 
L 88.710133 240.245311 
L 88.860315 240.245311 
L 88.935405 239.857287 
L 89.085587 239.857287 
L 89.160678 239.339921 
L 89.235769 239.339921 
L 89.235769 239.21058 
L 89.38595 239.21058 
L 89.38595 238.563874 
L 89.611223 238.563874 
L 89.686314 237.141119 
L 89.761405 237.141119 
L 89.836496 236.882436 
L 89.911586 236.882436 
L 89.986677 236.623754 
L 90.21195 236.623754 
L 90.287041 236.23573 
L 90.362131 236.23573 
L 90.437222 235.977047 
L 90.587404 235.977047 
L 90.662495 235.200999 
L 90.737586 235.200999 
L 90.812676 234.424951 
L 90.887767 234.424951 
L 90.962858 233.648903 
L 91.11304 233.648903 
L 91.188131 232.743514 
L 91.338312 232.743514 
L 91.413403 232.096808 
L 91.488494 232.096808 
L 91.563585 231.838125 
L 91.638676 231.838125 
L 91.713766 230.803394 
L 92.01413 230.803394 
L 92.01413 230.415371 
L 92.314493 230.415371 
L 92.389584 229.509981 
L 92.689947 229.509981 
L 92.765038 228.992616 
L 92.840129 228.992616 
L 92.840129 228.863275 
L 92.990311 228.863275 
L 92.990311 228.733933 
L 93.290674 228.733933 
L 93.290674 228.604592 
L 93.440856 228.604592 
L 93.440856 228.345909 
L 93.591037 228.345909 
L 93.591037 227.957885 
L 93.81631 227.957885 
L 93.891401 227.44052 
L 94.041582 227.44052 
L 94.041582 227.181838 
L 94.191764 227.181838 
L 94.266855 226.793814 
L 94.341946 226.793814 
L 94.417036 226.535131 
L 94.492127 226.535131 
L 94.567218 226.276448 
L 94.867581 226.276448 
L 94.942672 225.759083 
L 95.017763 225.759083 
L 95.092854 225.371059 
L 95.167945 225.371059 
L 95.243036 224.983035 
L 95.393217 224.983035 
L 95.393217 224.853694 
L 95.61849 224.853694 
L 95.693581 224.595011 
L 95.768672 224.595011 
L 95.768672 223.689622 
L 96.144126 223.689622 
L 96.219217 223.430939 
L 96.594671 223.430939 
L 96.669762 223.042915 
L 96.744852 223.042915 
L 96.744852 222.913574 
L 96.970125 222.913574 
L 96.970125 222.654891 
L 97.195397 222.654891 
L 97.270488 222.396209 
L 97.42067 222.396209 
L 97.495761 221.878844 
L 97.645942 221.878844 
L 97.721033 221.232137 
L 97.796124 221.232137 
L 97.796124 221.102796 
L 98.171578 221.102796 
L 98.246669 220.197406 
L 98.32176 220.197406 
L 98.396851 219.292017 
L 98.471942 219.292017 
L 98.547032 218.903993 
L 98.697214 218.903993 
L 98.772305 218.127945 
L 99.297941 218.127945 
L 99.373032 217.739921 
L 99.448122 217.739921 
L 99.448122 217.481239 
L 99.748486 217.481239 
L 99.748486 217.351897 
L 100.048849 217.351897 
L 100.048849 217.222556 
L 100.199031 217.222556 
L 100.199031 217.093215 
L 100.649576 217.093215 
L 100.724667 216.57585 
L 100.799758 216.57585 
L 100.799758 216.446508 
L 100.949939 216.446508 
L 101.02503 216.187826 
L 101.100121 216.187826 
L 101.100121 216.058484 
L 101.400484 216.058484 
L 101.400484 215.929143 
L 101.550666 215.929143 
L 101.625757 215.282436 
L 101.700848 215.282436 
L 101.775938 215.023754 
L 101.851029 215.023754 
L 101.92612 214.765071 
L 102.001211 214.765071 
L 102.076302 214.118365 
L 102.376665 214.118365 
L 102.376665 213.859682 
L 102.526847 213.859682 
L 102.601938 213.212975 
L 102.677028 213.212975 
L 102.677028 213.083634 
L 102.902301 213.083634 
L 102.977392 212.436927 
L 103.277755 212.436927 
L 103.352846 212.048903 
L 103.503028 212.048903 
L 103.503028 211.790221 
L 103.653209 211.790221 
L 103.653209 211.660879 
L 103.803391 211.660879 
L 103.878482 211.402197 
L 103.953573 211.402197 
L 104.028663 211.143514 
L 104.103754 211.143514 
L 104.178845 210.626149 
L 104.253936 210.626149 
L 104.329027 210.238125 
L 104.479208 210.238125 
L 104.479208 209.979442 
L 104.779572 209.979442 
L 104.854663 209.72076 
L 105.380298 209.72076 
L 105.380298 209.591418 
L 105.53048 209.591418 
L 105.605571 209.332736 
L 105.830844 209.332736 
L 105.905934 208.944712 
L 106.056116 208.944712 
L 106.056116 208.556688 
L 106.281389 208.556688 
L 106.281389 208.168664 
L 106.506661 208.168664 
L 106.581752 207.263275 
L 106.656843 207.263275 
L 106.731934 206.487227 
L 106.807024 206.487227 
L 106.807024 206.357885 
L 106.957206 206.357885 
L 107.032297 205.711179 
L 107.107388 205.711179 
L 107.182479 205.323155 
L 107.33266 205.323155 
L 107.33266 204.935131 
L 107.482842 204.935131 
L 107.482842 204.676448 
L 107.708114 204.676448 
L 107.708114 204.547107 
L 107.858296 204.547107 
L 107.933387 204.029742 
L 108.008478 204.029742 
L 108.083569 203.771059 
L 108.308841 203.771059 
L 108.308841 203.512376 
L 108.534114 203.512376 
L 108.534114 203.253694 
L 108.684295 203.253694 
L 108.684295 203.124353 
L 108.834477 203.124353 
L 108.909568 202.736329 
L 108.984659 202.736329 
L 109.059749 201.830939 
L 109.13484 201.830939 
L 109.209931 201.184233 
L 109.435204 201.184233 
L 109.435204 200.796209 
L 109.585385 200.796209 
L 109.660476 200.408185 
L 109.810658 200.408185 
L 109.885749 199.89082 
L 110.186112 199.89082 
L 110.261203 198.726748 
L 110.561566 198.726748 
L 110.636657 198.468065 
L 110.93702 198.468065 
L 111.012111 197.9507 
L 111.162293 197.9507 
L 111.162293 197.821359 
L 111.387565 197.821359 
L 111.462656 197.303993 
L 111.537747 197.303993 
L 111.537747 197.174652 
L 111.687929 197.174652 
L 111.76302 196.915969 
L 111.83811 196.915969 
L 111.913201 196.139921 
L 112.438837 196.139921 
L 112.438837 195.881239 
L 112.589019 195.881239 
L 112.589019 195.622556 
L 112.7392 195.622556 
L 112.7392 195.493215 
L 112.889382 195.493215 
L 112.889382 195.363874 
L 113.189745 195.363874 
L 113.264836 194.97585 
L 113.415018 194.97585 
L 113.415018 194.846508 
L 113.5652 194.846508 
L 113.64029 194.587826 
L 113.790472 194.587826 
L 113.865563 194.07046 
L 113.940654 194.07046 
L 113.940654 193.811778 
L 114.090835 193.811778 
L 114.090835 193.553095 
L 114.316108 193.553095 
L 114.316108 193.165071 
L 114.54138 193.165071 
L 114.616471 192.518365 
L 115.067016 192.518365 
L 115.067016 192.259682 
L 115.217198 192.259682 
L 115.292289 192.000999 
L 115.44247 192.000999 
L 115.44247 191.871658 
L 115.667743 191.871658 
L 115.667743 191.742317 
L 115.893015 191.742317 
L 115.968106 191.224951 
L 116.118288 191.224951 
L 116.193379 190.836927 
L 116.26847 190.836927 
L 116.343561 190.448903 
L 116.418651 190.448903 
L 116.418651 190.319562 
L 116.568833 190.319562 
L 116.568833 190.190221 
L 116.794106 190.190221 
L 116.794106 190.060879 
L 117.244651 190.060879 
L 117.244651 189.931538 
L 117.545014 189.931538 
L 117.620105 189.672856 
L 117.920468 189.672856 
L 117.995559 189.026149 
L 118.145741 189.026149 
L 118.145741 188.767466 
L 118.371013 188.767466 
L 118.371013 188.638125 
L 118.821558 188.638125 
L 118.821558 188.379442 
L 118.97174 188.379442 
L 119.046831 188.12076 
L 119.422285 188.12076 
L 119.422285 187.991418 
L 119.572466 187.991418 
L 119.572466 187.862077 
L 119.797739 187.862077 
L 119.87283 187.086029 
L 120.098102 187.086029 
L 120.173193 186.698005 
L 120.323375 186.698005 
L 120.398466 186.309981 
L 120.698829 186.309981 
L 120.698829 186.18064 
L 120.924101 186.18064 
L 120.999192 185.663275 
L 121.074283 185.663275 
L 121.074283 185.533933 
L 121.224465 185.533933 
L 121.224465 185.404592 
L 121.374646 185.404592 
L 121.449737 185.016568 
L 121.67501 185.016568 
L 121.750101 184.757885 
L 121.825192 184.757885 
L 121.900282 184.499203 
L 121.975373 184.499203 
L 121.975373 184.24052 
L 122.275737 184.24052 
L 122.350827 183.981838 
L 122.5761 183.981838 
L 122.5761 183.852496 
L 122.801372 183.852496 
L 122.876463 183.593814 
L 123.026645 183.593814 
L 123.026645 183.464472 
L 123.251917 183.464472 
L 123.327008 183.20579 
L 123.402099 183.20579 
L 123.402099 182.817766 
L 123.552281 182.817766 
L 123.552281 182.688424 
L 123.927735 182.688424 
L 123.927735 182.3004 
L 124.077917 182.3004 
L 124.077917 181.912376 
L 124.603552 181.912376 
L 124.603552 181.653694 
L 124.828825 181.653694 
L 124.828825 181.395011 
L 125.054097 181.395011 
L 125.129188 180.748305 
L 125.204279 180.748305 
L 125.204279 180.230939 
L 125.354461 180.230939 
L 125.429552 179.842915 
L 125.504642 179.842915 
L 125.579733 179.584233 
L 126.105369 179.584233 
L 126.105369 179.32555 
L 126.255551 179.32555 
L 126.255551 179.066868 
L 126.480823 179.066868 
L 126.480823 178.937526 
L 126.781187 178.937526 
L 126.781187 178.808185 
L 127.231732 178.808185 
L 127.306823 178.549502 
L 127.381913 178.549502 
L 127.381913 178.29082 
L 127.532095 178.29082 
L 127.532095 178.032137 
L 127.682277 178.032137 
L 127.757368 177.644113 
L 128.057731 177.644113 
L 128.132822 176.997406 
L 128.207913 176.997406 
L 128.283003 176.738724 
L 128.433185 176.738724 
L 128.433185 176.221359 
L 128.658458 176.221359 
L 128.733548 175.962676 
L 128.958821 175.962676 
L 129.033912 175.703993 
L 129.409366 175.703993 
L 129.409366 175.574652 
L 130.085183 175.574652 
L 130.085183 175.445311 
L 130.385547 175.445311 
L 130.460638 175.057287 
L 130.68591 175.057287 
L 130.68591 174.539921 
L 130.836092 174.539921 
L 130.911183 173.893215 
L 130.986273 173.893215 
L 130.986273 173.246508 
L 131.136455 173.246508 
L 131.211546 172.729143 
L 131.737182 172.729143 
L 131.737182 172.599802 
L 132.187727 172.599802 
L 132.187727 172.47046 
L 132.337909 172.47046 
L 132.337909 172.211778 
L 132.563181 172.211778 
L 132.563181 171.953095 
L 132.788454 171.953095 
L 132.863544 171.43573 
L 132.938635 171.43573 
L 132.938635 171.306388 
L 133.163908 171.306388 
L 133.163908 170.789023 
L 133.689544 170.789023 
L 133.689544 170.400999 
L 134.29027 170.400999 
L 134.365361 170.142317 
L 134.665724 170.142317 
L 134.665724 169.883634 
L 134.815906 169.883634 
L 134.815906 169.624951 
L 134.966088 169.624951 
L 134.966088 168.848903 
L 135.491724 168.848903 
L 135.566814 168.072856 
L 135.641905 167.943514 
L 135.641905 167.684832 
L 135.942269 167.684832 
L 135.942269 167.426149 
L 136.167541 167.426149 
L 136.167541 167.296808 
L 136.542995 167.296808 
L 136.542995 167.167466 
L 136.768268 167.167466 
L 136.843359 166.908784 
L 136.99354 166.908784 
L 136.99354 166.779442 
L 137.293904 166.779442 
L 137.293904 166.52076 
L 137.444085 166.52076 
L 137.444085 166.262077 
L 137.744449 166.262077 
L 137.744449 165.874053 
L 138.044812 165.874053 
L 138.044812 165.486029 
L 138.194994 165.486029 
L 138.194994 165.356688 
L 138.645539 165.356688 
L 138.72063 164.839323 
L 139.396447 164.839323 
L 139.471538 164.321957 
L 139.546629 164.321957 
L 139.546629 164.063275 
L 140.447719 164.063275 
L 140.447719 163.675251 
L 140.748082 163.675251 
L 140.748082 163.545909 
L 141.198627 163.545909 
L 141.273718 163.157885 
L 141.49899 163.157885 
L 141.49899 162.899203 
L 141.724263 162.899203 
L 141.724263 162.769862 
L 142.249899 162.769862 
L 142.249899 162.64052 
L 142.475171 162.64052 
L 142.475171 162.511179 
L 142.625353 162.511179 
L 142.700444 161.993814 
L 142.775535 161.993814 
L 142.850626 161.60579 
L 143.451352 161.60579 
L 143.451352 161.347107 
L 143.901897 161.347107 
L 143.901897 161.217766 
L 144.052079 161.217766 
L 144.052079 161.088424 
L 144.277351 161.088424 
L 144.277351 160.959083 
L 144.502624 160.959083 
L 144.577715 160.441718 
L 144.652806 160.441718 
L 144.652806 160.183035 
L 144.953169 160.183035 
L 144.953169 160.053694 
L 145.854259 160.053694 
L 145.854259 159.924353 
L 146.004441 159.924353 
L 146.004441 159.536329 
L 146.605167 159.536329 
L 146.605167 159.406987 
L 146.905531 159.406987 
L 146.980621 159.148305 
L 147.73153 159.148305 
L 147.73153 158.889622 
L 147.956802 158.889622 
L 147.956802 158.630939 
L 148.407347 158.630939 
L 148.407347 158.501598 
L 148.63262 158.501598 
L 148.707711 158.113574 
L 149.383528 158.113574 
L 149.383528 157.984233 
L 149.834073 157.984233 
L 149.834073 157.854891 
L 149.984255 157.854891 
L 149.984255 157.72555 
L 150.509891 157.72555 
L 150.509891 157.596209 
L 150.660072 157.596209 
L 150.660072 157.466868 
L 150.810254 157.466868 
L 150.810254 157.208185 
L 151.110617 157.208185 
L 151.110617 157.078844 
L 151.636253 157.078844 
L 151.711344 156.69082 
L 151.861526 156.69082 
L 151.936617 156.432137 
L 152.086798 156.432137 
L 152.161889 156.173454 
L 152.462252 156.173454 
L 152.537343 155.656089 
L 152.687525 155.656089 
L 152.687525 155.397406 
L 152.912797 155.397406 
L 152.912797 155.138724 
L 153.964069 155.138724 
L 153.964069 155.009382 
L 154.114251 155.009382 
L 154.114251 154.7507 
L 154.414614 154.7507 
L 154.414614 154.621359 
L 154.639887 154.621359 
L 154.639887 154.362676 
L 154.790068 154.362676 
L 154.865159 153.974652 
L 154.94025 153.974652 
L 154.94025 153.715969 
L 155.240613 153.715969 
L 155.240613 153.586628 
L 155.390795 153.586628 
L 155.390795 153.327945 
L 155.766249 153.327945 
L 155.766249 153.069263 
L 155.916431 153.069263 
L 155.991522 152.81058 
L 156.066613 152.81058 
L 156.066613 152.681239 
L 156.366976 152.681239 
L 156.442067 152.293215 
L 156.517158 152.293215 
L 156.592248 151.905191 
L 156.74243 151.905191 
L 156.74243 151.77585 
L 156.967703 151.77585 
L 156.967703 151.646508 
L 157.117884 151.646508 
L 157.117884 151.517167 
L 157.343157 151.517167 
L 157.343157 151.387826 
L 157.568429 151.387826 
L 157.568429 151.258484 
L 157.718611 151.258484 
L 157.718611 150.87046 
L 157.868793 150.87046 
L 157.943883 150.611778 
L 158.094065 150.611778 
L 158.094065 150.482436 
L 158.394428 150.482436 
L 158.394428 150.353095 
L 158.694792 150.353095 
L 158.694792 150.223754 
L 158.995155 150.223754 
L 159.070246 149.965071 
L 159.220428 149.965071 
L 159.295519 149.447706 
L 159.370609 149.447706 
L 159.370609 149.318365 
L 160.121518 149.318365 
L 160.121518 149.189023 
L 160.572063 149.189023 
L 160.572063 149.059682 
L 160.722244 149.059682 
L 160.797335 148.800999 
L 160.947517 148.800999 
L 160.947517 148.671658 
L 161.24788 148.671658 
L 161.322971 148.412975 
L 161.398062 148.412975 
L 161.398062 148.283634 
L 162.299152 148.283634 
L 162.299152 147.766269 
L 162.824788 147.766269 
L 162.899879 147.378245 
L 162.974969 147.378245 
L 162.974969 147.248903 
L 163.350424 147.248903 
L 163.350424 147.119562 
L 163.500605 147.119562 
L 163.575696 146.731538 
L 164.101332 146.731538 
L 164.176423 146.084832 
L 164.551877 146.084832 
L 164.626968 145.696808 
L 164.702059 145.696808 
L 164.702059 145.438125 
L 165.377876 145.438125 
L 165.377876 145.308784 
L 165.528058 145.308784 
L 165.528058 145.179442 
L 165.67824 145.179442 
L 165.75333 144.92076 
L 165.828421 144.92076 
L 165.828421 144.662077 
L 166.053694 144.662077 
L 166.053694 144.532736 
L 166.203875 144.532736 
L 166.203875 144.274053 
L 166.429148 144.274053 
L 166.429148 144.144712 
L 166.804602 144.144712 
L 166.879693 143.627347 
L 167.330238 143.627347 
L 167.330238 143.368664 
L 167.48042 143.368664 
L 167.55551 142.721957 
L 167.630601 142.721957 
L 167.705692 142.204592 
L 167.780783 142.204592 
L 167.780783 142.075251 
L 168.006055 142.075251 
L 168.081146 141.687227 
L 168.306419 141.687227 
L 168.38151 141.428544 
L 168.531691 141.428544 
L 168.606782 141.04052 
L 168.832055 141.04052 
L 168.832055 140.911179 
L 169.057327 140.911179 
L 169.057327 140.652496 
L 169.207509 140.652496 
L 169.207509 140.393814 
L 169.432781 140.393814 
L 169.432781 140.264472 
L 169.582963 140.264472 
L 169.582963 140.135131 
L 170.18369 140.135131 
L 170.18369 139.876448 
L 170.484053 139.876448 
L 170.559144 139.488424 
L 170.709326 139.488424 
L 170.709326 139.359083 
L 171.310052 139.359083 
L 171.385143 139.1004 
L 171.610416 139.1004 
L 171.610416 138.971059 
L 171.760597 138.971059 
L 171.760597 138.841718 
L 171.910779 138.841718 
L 171.910779 138.712376 
L 172.136051 138.712376 
L 172.136051 138.583035 
L 172.511506 138.583035 
L 172.586596 138.324353 
L 172.661687 138.324353 
L 172.736778 138.06567 
L 173.037141 138.06567 
L 173.037141 137.806987 
L 173.712959 137.806987 
L 173.712959 137.677646 
L 173.863141 137.677646 
L 173.863141 137.548305 
L 174.013322 137.548305 
L 174.013322 137.030939 
L 174.238595 137.030939 
L 174.313686 136.642915 
L 174.388776 136.642915 
L 174.388776 136.513574 
L 174.538958 136.513574 
L 174.538958 136.384233 
L 174.764231 136.384233 
L 174.764231 136.12555 
L 174.914412 136.12555 
L 174.989503 135.737526 
L 175.289867 135.737526 
L 175.289867 135.608185 
L 175.440048 135.608185 
L 175.440048 135.478844 
L 175.665321 135.478844 
L 175.665321 135.349502 
L 176.49132 135.349502 
L 176.49132 135.220161 
L 176.716592 135.220161 
L 176.716592 135.09082 
L 176.866774 135.09082 
L 176.866774 134.961478 
L 177.016956 134.961478 
L 177.016956 134.702796 
L 177.39241 134.702796 
L 177.39241 134.573454 
L 177.542592 134.573454 
L 177.617682 134.314772 
L 178.518772 134.314772 
L 178.518772 134.056089 
L 178.668954 134.056089 
L 178.744045 133.538724 
L 178.819136 133.538724 
L 178.819136 133.409382 
L 179.645135 133.409382 
L 179.645135 133.1507 
L 179.870407 133.1507 
L 179.870407 133.021359 
L 180.09568 133.021359 
L 180.09568 132.762676 
L 180.471134 132.762676 
L 180.471134 132.633335 
L 180.621316 132.633335 
L 180.621316 132.503993 
L 180.921679 132.503993 
L 180.99677 132.245311 
L 181.071861 132.245311 
L 181.146952 131.986628 
L 181.297133 131.986628 
L 181.372224 131.727945 
L 181.747678 131.727945 
L 181.747678 131.469263 
L 181.89786 131.469263 
L 181.972951 130.951897 
L 182.348405 130.951897 
L 182.348405 130.822556 
L 182.874041 130.822556 
L 182.874041 130.563874 
L 183.249495 130.563874 
L 183.249495 130.434532 
L 183.775131 130.434532 
L 183.775131 130.305191 
L 184.375858 130.305191 
L 184.375858 130.17585 
L 184.526039 130.17585 
L 184.60113 129.917167 
L 185.276948 129.917167 
L 185.276948 129.529143 
L 185.427129 129.529143 
L 185.50222 129.27046 
L 185.727493 129.27046 
L 185.727493 129.141119 
L 186.178038 129.141119 
L 186.178038 129.011778 
L 186.328219 129.011778 
L 186.40331 128.753095 
L 186.628583 128.753095 
L 186.628583 128.494412 
L 186.853855 128.494412 
L 186.928946 128.23573 
L 187.079128 128.23573 
L 187.079128 128.106388 
L 187.229309 128.106388 
L 187.229309 127.977047 
L 187.454582 127.977047 
L 187.454582 127.718365 
L 187.754945 127.718365 
L 187.754945 127.330341 
L 188.055309 127.330341 
L 188.130399 127.071658 
L 188.280581 127.071658 
L 188.280581 126.942317 
L 189.406944 126.942317 
L 189.482034 126.683634 
L 189.707307 126.683634 
L 189.707307 126.424951 
L 189.932579 126.424951 
L 189.932579 126.29561 
L 190.308034 126.29561 
L 190.308034 126.166269 
L 190.458215 126.166269 
L 190.458215 125.907586 
L 190.83367 125.907586 
L 190.83367 125.778245 
L 191.359305 125.778245 
L 191.434396 125.519562 
L 192.185305 125.519562 
L 192.260395 125.131538 
L 193.086395 125.131538 
L 193.161485 124.743514 
L 193.311667 124.743514 
L 193.386758 124.484832 
L 193.987485 124.484832 
L 194.062575 124.226149 
L 194.43803 124.226149 
L 194.43803 123.967466 
L 194.588211 123.967466 
L 194.588211 123.838125 
L 195.188938 123.838125 
L 195.264029 123.579442 
L 195.33912 123.579442 
L 195.33912 123.450101 
L 195.489301 123.450101 
L 195.489301 123.32076 
L 195.714574 123.32076 
L 195.714574 123.191418 
L 196.24021 123.191418 
L 196.24021 123.062077 
L 196.390391 123.062077 
L 196.390391 122.932736 
L 196.840936 122.932736 
L 196.840936 122.803394 
L 196.916027 122.803394 
L 197.216391 122.803394 
L 197.291481 122.544712 
L 197.441663 122.544712 
L 197.441663 122.415371 
L 198.267662 122.415371 
L 198.267662 122.286029 
L 198.417844 122.286029 
L 198.417844 122.156688 
L 198.568026 122.156688 
L 198.643116 121.768664 
L 199.243843 121.768664 
L 199.243843 121.639323 
L 200.069842 121.639323 
L 200.144933 121.251299 
L 200.520387 121.251299 
L 200.520387 120.992616 
L 201.271296 120.992616 
L 201.271296 120.863275 
L 201.496568 120.863275 
L 201.496568 120.733933 
L 202.622931 120.733933 
L 202.622931 120.604592 
L 202.773112 120.604592 
L 202.848203 120.087227 
L 202.998385 120.087227 
L 203.073476 119.828544 
L 203.373839 119.828544 
L 203.373839 119.569862 
L 203.524021 119.569862 
L 203.524021 119.052496 
L 203.824384 119.052496 
L 203.899475 118.793814 
L 204.049657 118.793814 
L 204.049657 118.664472 
L 204.274929 118.664472 
L 204.274929 118.535131 
L 204.425111 118.535131 
L 204.425111 118.40579 
L 204.800565 118.40579 
L 204.875656 118.147107 
L 205.025837 118.147107 
L 205.100928 117.759083 
L 205.626564 117.759083 
L 205.626564 117.629742 
L 206.077109 117.629742 
L 206.077109 117.5004 
L 206.377472 117.5004 
L 206.377472 117.241718 
L 207.353653 117.241718 
L 207.428744 116.983035 
L 209.005652 116.983035 
L 209.005652 116.853694 
L 209.606378 116.853694 
L 209.681469 116.595011 
L 209.75656 116.595011 
L 209.831651 116.206987 
L 209.906742 116.206987 
L 209.906742 116.077646 
L 210.132014 116.077646 
L 210.207105 115.689622 
L 210.357287 115.689622 
L 210.432378 115.301598 
L 210.65765 115.301598 
L 210.65765 115.172257 
L 211.033104 115.172257 
L 211.033104 115.042915 
L 211.258377 115.042915 
L 211.258377 114.913574 
L 211.784013 114.913574 
L 211.859104 114.654891 
L 211.934194 114.654891 
L 211.934194 114.52555 
L 212.084376 114.52555 
L 212.084376 114.266868 
L 212.760194 114.266868 
L 212.760194 114.008185 
L 213.36092 114.008185 
L 213.36092 113.878844 
L 213.736374 113.878844 
L 213.736374 113.749502 
L 214.412192 113.749502 
L 214.412192 113.49082 
L 214.712555 113.49082 
L 214.712555 112.714772 
L 215.313282 112.714772 
L 215.388373 112.456089 
L 215.538554 112.456089 
L 215.613645 112.197406 
L 216.06419 112.197406 
L 216.139281 111.809382 
L 216.214372 111.809382 
L 216.214372 111.680041 
L 217.115462 111.680041 
L 217.190553 111.292017 
L 217.79128 111.292017 
L 217.86637 111.033335 
L 218.166734 111.033335 
L 218.166734 110.903993 
L 218.917642 110.903993 
L 218.917642 110.774652 
L 219.218005 110.774652 
L 219.218005 110.645311 
L 219.968914 110.645311 
L 220.044005 110.386628 
L 220.119095 110.386628 
L 220.194186 110.127945 
L 220.344368 110.127945 
L 220.419459 109.61058 
L 221.47073 109.61058 
L 221.545821 108.963874 
L 221.921275 108.963874 
L 221.921275 108.834532 
L 222.071457 108.834532 
L 222.071457 108.446508 
L 222.29673 108.446508 
L 222.29673 108.317167 
L 222.446911 108.317167 
L 222.522002 107.929143 
L 222.672184 107.929143 
L 222.672184 107.799802 
L 222.972547 107.799802 
L 222.972547 107.67046 
L 223.19782 107.67046 
L 223.19782 107.541119 
L 223.948728 107.541119 
L 223.948728 107.282436 
L 224.174001 107.282436 
L 224.174001 107.153095 
L 224.624546 107.153095 
L 224.624546 107.023754 
L 225 107.023754 
L 225.075091 106.63573 
L 225.225272 106.63573 
L 225.225272 106.506388 
L 225.600726 106.506388 
L 225.600726 106.247706 
L 225.825999 106.247706 
L 225.825999 106.118365 
L 225.976181 106.118365 
L 225.976181 105.989023 
L 226.276544 105.989023 
L 226.276544 105.859682 
L 226.727089 105.859682 
L 226.80218 105.471658 
L 226.877271 105.471658 
L 226.877271 105.212975 
L 227.177634 105.212975 
L 227.327816 104.954293 
L 227.477997 104.954293 
L 227.477997 104.824951 
L 227.628179 104.824951 
L 227.628179 104.69561 
L 227.853452 104.69561 
L 227.853452 104.436927 
L 228.379087 104.436927 
L 228.379087 104.307586 
L 229.054905 104.307586 
L 229.054905 104.178245 
L 229.280177 104.178245 
L 229.280177 104.048903 
L 229.730722 104.048903 
L 229.730722 103.919562 
L 230.331449 103.919562 
L 230.40654 103.660879 
L 231.607993 103.660879 
L 231.607993 103.272856 
L 231.908357 103.272856 
L 231.908357 103.143514 
L 232.058538 103.143514 
L 232.058538 103.014173 
L 232.433992 103.014173 
L 232.433992 102.884832 
L 232.809447 102.884832 
L 232.809447 102.75549 
L 233.259992 102.75549 
L 233.259992 102.496808 
L 233.410173 102.496808 
L 233.410173 102.367466 
L 233.785628 102.367466 
L 233.785628 102.238125 
L 234.611627 102.238125 
L 234.611627 102.108784 
L 234.761808 102.108784 
L 234.761808 101.850101 
L 235.587808 101.850101 
L 235.587808 101.72076 
L 236.038353 101.72076 
L 236.038353 101.591418 
L 236.263625 101.591418 
L 236.338716 101.203394 
L 236.939443 101.203394 
L 236.939443 101.074053 
L 237.089624 101.074053 
L 237.164715 100.815371 
L 237.239806 100.815371 
L 237.314897 100.556688 
L 237.61526 100.556688 
L 237.61526 100.427347 
L 238.065805 100.427347 
L 238.065805 100.298005 
L 238.666532 100.298005 
L 238.666532 100.168664 
L 238.966895 100.168664 
L 239.041986 99.651299 
L 239.41744 99.651299 
L 239.41744 99.521957 
L 239.642713 99.521957 
L 239.642713 99.392616 
L 240.693984 99.392616 
L 240.693984 99.263275 
L 241.294711 99.263275 
L 241.369802 98.745909 
L 241.670165 98.745909 
L 241.745256 98.487227 
L 242.345983 98.487227 
L 242.345983 98.357885 
L 242.571255 98.357885 
L 242.646346 98.099203 
L 243.697618 98.099203 
L 243.772709 97.84052 
L 243.92289 97.84052 
L 243.92289 97.711179 
L 244.223254 97.711179 
L 244.298345 97.452496 
L 244.673799 97.452496 
L 244.673799 97.323155 
L 245.274525 97.323155 
L 245.274525 97.193814 
L 246.62616 97.193814 
L 246.62616 96.935131 
L 246.776342 96.935131 
L 246.776342 96.80579 
L 246.926524 96.80579 
L 246.926524 96.676448 
L 247.226887 96.676448 
L 247.226887 96.547107 
L 247.45216 96.547107 
L 247.45216 96.417766 
L 247.677432 96.417766 
L 247.677432 96.288424 
L 247.902705 96.288424 
L 247.902705 96.159083 
L 248.052886 96.159083 
L 248.127977 95.9004 
L 248.203068 95.9004 
L 248.203068 95.771059 
L 249.104158 95.771059 
L 249.104158 95.641718 
L 249.329431 95.641718 
L 249.329431 95.512376 
L 250.305611 95.512376 
L 250.305611 95.383035 
L 251.131611 95.383035 
L 251.131611 95.253694 
L 251.732337 95.253694 
L 251.732337 95.124353 
L 252.032701 95.124353 
L 252.032701 94.995011 
L 252.933791 94.995011 
L 253.008881 94.606987 
L 253.534517 94.606987 
L 253.534517 94.477646 
L 253.75979 94.477646 
L 253.75979 94.348305 
L 254.135244 94.348305 
L 254.135244 94.089622 
L 254.285426 94.089622 
L 254.285426 93.960281 
L 255.336697 93.960281 
L 255.411788 93.830939 
L 255.712152 93.830939 
L 255.712152 93.701598 
L 256.387969 93.701598 
L 256.387969 93.442915 
L 256.538151 93.442915 
L 256.613242 93.184233 
L 257.138877 93.184233 
L 257.138877 92.92555 
L 257.814695 92.92555 
L 257.814695 92.796209 
L 258.190149 92.796209 
L 258.26524 92.537526 
L 258.565603 92.537526 
L 258.565603 92.408185 
L 259.391602 92.408185 
L 259.391602 92.278844 
L 259.691966 92.278844 
L 259.691966 92.149502 
L 259.992329 92.149502 
L 259.992329 91.89082 
L 260.367783 91.89082 
L 260.367783 91.632137 
L 260.593056 91.632137 
L 260.593056 91.373454 
L 261.343964 91.373454 
L 261.343964 91.244113 
L 261.719418 91.244113 
L 261.719418 91.114772 
L 261.8696 91.114772 
L 261.8696 90.98543 
L 263.371417 90.98543 
L 263.371417 90.597406 
L 264.047234 90.597406 
L 264.047234 90.468065 
L 264.422688 90.468065 
L 264.497779 90.209382 
L 265.398869 90.209382 
L 265.398869 90.080041 
L 265.699233 90.080041 
L 265.699233 89.9507 
L 265.849414 89.9507 
L 265.849414 89.821359 
L 266.37505 89.821359 
L 266.37505 89.692017 
L 267.651594 89.692017 
L 267.651594 89.562676 
L 268.702866 89.562676 
L 268.702866 89.433335 
L 269.07832 89.433335 
L 269.07832 89.303993 
L 269.603956 89.303993 
L 269.679047 88.915969 
L 270.054501 88.915969 
L 270.054501 88.786628 
L 270.279774 88.786628 
L 270.279774 88.657287 
L 270.505046 88.657287 
L 270.505046 88.398604 
L 270.655228 88.398604 
L 270.730319 88.01058 
L 270.955591 88.01058 
L 270.955591 87.881239 
L 271.406136 87.881239 
L 271.406136 87.751897 
L 272.232135 87.751897 
L 272.232135 87.622556 
L 272.457408 87.622556 
L 272.457408 87.363874 
L 272.60759 87.363874 
L 272.60759 87.105191 
L 273.058135 87.105191 
L 273.058135 86.97585 
L 273.283407 86.97585 
L 273.283407 86.717167 
L 273.433589 86.717167 
L 273.433589 86.329143 
L 275.160678 86.329143 
L 275.160678 86.07046 
L 275.31086 86.07046 
L 275.31086 85.941119 
L 275.686314 85.941119 
L 275.686314 85.811778 
L 276.061768 85.811778 
L 276.061768 85.682436 
L 276.512313 85.682436 
L 276.587404 85.294412 
L 277.188131 85.294412 
L 277.188131 85.165071 
L 278.614856 85.165071 
L 278.614856 84.906388 
L 278.765038 84.906388 
L 278.840129 84.647706 
L 280.341946 84.647706 
L 280.341946 84.518365 
L 281.167945 84.518365 
L 281.167945 84.130341 
L 281.468308 84.130341 
L 281.468308 84.000999 
L 281.918853 84.000999 
L 281.918853 83.871658 
L 282.369398 83.871658 
L 282.369398 83.742317 
L 282.819943 83.742317 
L 282.819943 83.612975 
L 283.42067 83.612975 
L 283.42067 83.483634 
L 283.871215 83.483634 
L 283.871215 83.354293 
L 284.471942 83.354293 
L 284.471942 83.224951 
L 284.772305 83.224951 
L 284.847396 83.09561 
L 286.874848 83.09561 
L 286.874848 82.836927 
L 287.625757 82.836927 
L 287.700848 82.578245 
L 288.076302 82.578245 
L 288.076302 82.448903 
L 288.902301 82.448903 
L 288.902301 82.190221 
L 289.427937 82.190221 
L 289.427937 82.060879 
L 289.7283 82.060879 
L 289.7283 81.931538 
L 289.953573 81.931538 
L 289.953573 81.672856 
L 290.329027 81.672856 
L 290.329027 81.543514 
L 290.554299 81.543514 
L 290.554299 81.414173 
L 290.779572 81.414173 
L 290.779572 81.284832 
L 291.079935 81.284832 
L 291.079935 81.15549 
L 293.482842 81.15549 
L 293.482842 81.026149 
L 293.783205 81.026149 
L 293.783205 80.896808 
L 295.435204 80.896808 
L 295.510294 80.638125 
L 295.885749 80.638125 
L 295.885749 80.379442 
L 296.111021 80.379442 
L 296.111021 80.250101 
L 296.786839 80.250101 
L 296.786839 79.991418 
L 297.387565 79.991418 
L 297.387565 79.862077 
L 298.138474 79.862077 
L 298.213565 79.603394 
L 299.114655 79.603394 
L 299.114655 79.344712 
L 300.991925 79.344712 
L 300.991925 79.215371 
L 301.292289 79.215371 
L 301.292289 79.086029 
L 301.667743 79.086029 
L 301.742834 78.827347 
L 302.193379 78.827347 
L 302.193379 78.698005 
L 303.019378 78.698005 
L 303.094469 78.439323 
L 303.16956 78.439323 
L 303.16956 78.309981 
L 303.319741 78.309981 
L 303.319741 78.18064 
L 303.545014 78.18064 
L 303.545014 78.051299 
L 303.695196 78.051299 
L 303.695196 77.792616 
L 304.97174 77.792616 
L 304.97174 77.663275 
L 305.87283 77.663275 
L 305.87283 77.533933 
L 306.173193 77.533933 
L 306.173193 77.404592 
L 306.924101 77.404592 
L 306.999192 77.145909 
L 308.125555 77.145909 
L 308.125555 76.887227 
L 308.876463 76.887227 
L 308.876463 76.757885 
L 310.37828 76.757885 
L 310.37828 76.499203 
L 310.903916 76.499203 
L 310.903916 76.369862 
L 311.354461 76.369862 
L 311.354461 76.24052 
L 311.579733 76.24052 
L 311.579733 75.981838 
L 311.729915 75.981838 
L 311.729915 75.852496 
L 312.781187 75.852496 
L 312.781187 75.593814 
L 312.931368 75.593814 
L 313.006459 75.335131 
L 313.381913 75.335131 
L 313.381913 75.076448 
L 313.907549 75.076448 
L 313.907549 74.947107 
L 314.207913 74.947107 
L 314.283003 74.559083 
L 314.358094 74.559083 
L 314.358094 74.429742 
L 315.033912 74.429742 
L 315.033912 74.171059 
L 315.334275 74.171059 
L 315.409366 73.912376 
L 315.709729 73.912376 
L 315.78482 73.524353 
L 317.587 73.524353 
L 317.587 73.395011 
L 317.737182 73.395011 
L 317.737182 73.26567 
L 317.887363 73.26567 
L 317.887363 73.136329 
L 318.48809 73.136329 
L 318.48809 73.006987 
L 318.788454 73.006987 
L 318.788454 72.748305 
L 319.013726 72.748305 
L 319.013726 72.618963 
L 319.689544 72.618963 
L 319.689544 72.489622 
L 320.665724 72.489622 
L 320.740815 72.230939 
L 321.041179 72.230939 
L 321.116269 71.972257 
L 321.641905 71.972257 
L 321.641905 71.842915 
L 322.167541 71.842915 
L 322.242632 71.454891 
L 323.218813 71.454891 
L 323.218813 71.32555 
L 324.645539 71.32555 
L 324.645539 71.196209 
L 325.246265 71.196209 
L 325.246265 71.066868 
L 325.62172 71.066868 
L 325.62172 70.937526 
L 326.147355 70.937526 
L 326.147355 70.808185 
L 326.672991 70.808185 
L 326.672991 70.678844 
L 327.4239 70.678844 
L 327.4239 70.549502 
L 328.174808 70.549502 
L 328.249899 70.29082 
L 328.40008 70.29082 
L 328.40008 70.161478 
L 328.550262 70.161478 
L 328.550262 70.032137 
L 328.925716 70.032137 
L 328.925716 69.902796 
L 329.376261 69.902796 
L 329.451352 69.514772 
L 329.676625 69.514772 
L 329.676625 69.38543 
L 330.202261 69.38543 
L 330.202261 69.256089 
L 333.055712 69.256089 
L 333.055712 69.126748 
L 333.581348 69.126748 
L 333.581348 68.997406 
L 334.557529 68.997406 
L 334.557529 68.868065 
L 334.932983 68.868065 
L 334.932983 68.609382 
L 335.608801 68.609382 
L 335.608801 68.480041 
L 335.834073 68.480041 
L 335.909164 68.221359 
L 336.134437 68.221359 
L 336.134437 68.092017 
L 337.110617 68.092017 
L 337.110617 67.962676 
L 337.636253 67.962676 
L 337.711344 67.574652 
L 338.011707 67.574652 
L 338.011707 67.445311 
L 338.462252 67.445311 
L 338.462252 67.315969 
L 340.114251 67.315969 
L 340.114251 67.057287 
L 340.639887 67.057287 
L 340.639887 66.927945 
L 342.667339 66.927945 
L 342.667339 66.798604 
L 342.892612 66.798604 
L 342.892612 66.669263 
L 343.268066 66.669263 
L 343.268066 66.539921 
L 343.568429 66.539921 
L 343.568429 66.281239 
L 344.094065 66.281239 
L 344.094065 66.151897 
L 344.469519 66.151897 
L 344.469519 66.022556 
L 344.844974 66.022556 
L 344.920064 65.634532 
L 345.220428 65.634532 
L 345.220428 65.117167 
L 345.821154 65.117167 
L 345.821154 64.987826 
L 346.572063 64.987826 
L 346.572063 64.729143 
L 346.872426 64.729143 
L 346.872426 64.47046 
L 347.24788 64.47046 
L 347.24788 64.341119 
L 348.224061 64.341119 
L 348.224061 64.211778 
L 348.374243 64.211778 
L 348.374243 64.082436 
L 350.026241 64.082436 
L 350.026241 63.953095 
L 350.251514 63.953095 
L 350.326605 63.565071 
L 351.077513 63.565071 
L 351.152604 63.306388 
L 352.053694 63.306388 
L 352.128785 63.177047 
L 352.429148 63.177047 
L 352.429148 63.047706 
L 353.55551 63.047706 
L 353.55551 62.918365 
L 354.681873 62.918365 
L 354.681873 62.789023 
L 354.982236 62.789023 
L 354.982236 62.659682 
L 355.733145 62.659682 
L 355.808236 62.271658 
L 356.108599 62.271658 
L 356.18369 62.012975 
L 358.736778 62.012975 
L 358.736778 61.883634 
L 359.938231 61.883634 
L 360.013322 61.624951 
L 360.088413 61.624951 
L 360.088413 61.49561 
L 360.238595 61.49561 
L 360.238595 61.366269 
L 361.59023 61.366269 
L 361.59023 61.236927 
L 362.641502 61.236927 
L 362.641502 61.107586 
L 362.791683 61.107586 
L 362.866774 60.848903 
L 364.068227 60.848903 
L 364.068227 60.719562 
L 364.2935 60.719562 
L 364.2935 60.460879 
L 364.593863 60.460879 
L 364.593863 60.331538 
L 364.744045 60.331538 
L 364.744045 60.202197 
L 365.119499 60.202197 
L 365.119499 60.072856 
L 365.645135 60.072856 
L 365.645135 59.943514 
L 366.170771 59.943514 
L 366.170771 59.814173 
L 366.396043 59.814173 
L 366.396043 59.684832 
L 366.846588 59.684832 
L 366.846588 59.426149 
L 368.648768 59.426149 
L 368.648768 59.296808 
L 368.79895 59.296808 
L 368.79895 59.167466 
L 369.324586 59.167466 
L 369.399677 58.908784 
L 370.225676 58.908784 
L 370.225676 58.779442 
L 370.751312 58.779442 
L 370.751312 58.650101 
L 371.126766 58.650101 
L 371.126766 58.391418 
L 371.952765 58.391418 
L 371.952765 58.262077 
L 373.004037 58.262077 
L 373.004037 58.132736 
L 373.154219 58.132736 
L 373.154219 58.003394 
L 374.355672 58.003394 
L 374.355672 57.874053 
L 374.580944 57.874053 
L 374.580944 57.744712 
L 374.881308 57.744712 
L 374.881308 57.615371 
L 375.782398 57.615371 
L 375.782398 57.486029 
L 376.00767 57.486029 
L 376.00767 57.356688 
L 376.683488 57.356688 
L 376.683488 57.098005 
L 377.134033 57.098005 
L 377.134033 56.968664 
L 377.284215 56.968664 
L 377.284215 56.709981 
L 377.80985 56.709981 
L 377.80985 56.58064 
L 378.410577 56.58064 
L 378.410577 56.451299 
L 378.560759 56.451299 
L 378.560759 56.321957 
L 380.43803 56.321957 
L 380.43803 56.192616 
L 380.588211 56.192616 
L 380.588211 56.063275 
L 380.813484 56.063275 
L 380.813484 55.933933 
L 381.188938 55.933933 
L 381.188938 55.804592 
L 381.939846 55.804592 
L 381.939846 55.675251 
L 382.315301 55.675251 
L 382.315301 55.545909 
L 383.591845 55.545909 
L 383.666936 55.287227 
L 384.342753 55.287227 
L 384.342753 55.157885 
L 384.793298 55.157885 
L 384.793298 55.028544 
L 385.84457 55.028544 
L 385.84457 54.899203 
L 387.721841 54.899203 
L 387.721841 54.769862 
L 387.872022 54.769862 
L 387.872022 54.64052 
L 389.373839 54.64052 
L 389.373839 54.381838 
L 389.824384 54.381838 
L 389.824384 54.252496 
L 390.124747 54.252496 
L 390.124747 53.993814 
L 390.650383 53.993814 
L 390.650383 53.864472 
L 391.176019 53.864472 
L 391.176019 53.735131 
L 391.551473 53.735131 
L 391.626564 53.476448 
L 391.701655 53.476448 
L 391.701655 53.347107 
L 391.926927 53.347107 
L 391.926927 53.217766 
L 392.527654 53.217766 
L 392.527654 53.088424 
L 394.104562 53.088424 
L 394.104562 52.959083 
L 396.507468 52.959083 
L 396.507468 52.829742 
L 397.859104 52.829742 
L 397.859104 52.7004 
L 402.139281 52.7004 
L 402.139281 52.571059 
L 402.364554 52.571059 
L 402.364554 52.441718 
L 402.589826 52.441718 
L 402.589826 52.312376 
L 402.96528 52.312376 
L 402.96528 52.183035 
L 403.190553 52.183035 
L 403.190553 51.924353 
L 403.641098 51.924353 
L 403.641098 51.66567 
L 404.016552 51.66567 
L 404.016552 51.536329 
L 404.166734 51.536329 
L 404.166734 51.406987 
L 406.945095 51.406987 
L 406.945095 51.277646 
L 407.320549 51.277646 
L 407.320549 51.148305 
L 408.221639 51.148305 
L 408.221639 51.018963 
L 408.897456 51.018963 
L 408.897456 50.889622 
L 411.225272 50.889622 
L 411.225272 50.630939 
L 412.051271 50.630939 
L 412.051271 50.501598 
L 413.778361 50.501598 
L 413.778361 50.372257 
L 414.60436 50.372257 
L 414.60436 50.242915 
L 415.805813 50.242915 
L 415.805813 50.113574 
L 416.106177 50.113574 
L 416.106177 49.984233 
L 418.509083 49.984233 
L 418.509083 49.72555 
L 419.259992 49.72555 
L 419.259992 49.596209 
L 420.386354 49.596209 
L 420.386354 49.466868 
L 420.536536 49.466868 
L 420.536536 49.337526 
L 420.987081 49.337526 
L 420.987081 49.208185 
L 423.540169 49.208185 
L 423.540169 49.078844 
L 424.666532 49.078844 
L 424.741623 48.820161 
L 426.844166 48.820161 
L 426.844166 48.69082 
L 428.871619 48.69082 
L 428.871619 48.561478 
L 429.0218 48.561478 
L 429.0218 48.432137 
L 430.673799 48.432137 
L 430.673799 48.302796 
L 431.499798 48.302796 
L 431.499798 48.173454 
L 433.001615 48.173454 
L 433.001615 48.044113 
L 433.677432 48.044113 
L 433.677432 47.914772 
L 434.503431 47.914772 
L 434.503431 47.78543 
L 434.953976 47.78543 
L 434.953976 47.397406 
L 435.704885 47.397406 
L 435.704885 47.268065 
L 436.906338 47.268065 
L 436.906338 47.138724 
L 438.257973 47.138724 
L 438.257973 47.009382 
L 439.234154 47.009382 
L 439.234154 46.880041 
L 440.060153 46.880041 
L 440.060153 46.7507 
L 440.961243 46.7507 
L 440.961243 46.621359 
L 441.336697 46.621359 
L 441.336697 46.492017 
L 442.538151 46.492017 
L 442.613242 46.233335 
L 444.865967 46.233335 
L 444.865967 46.103993 
L 445.091239 46.103993 
L 445.091239 45.974652 
L 447.193783 45.974652 
L 447.268873 45.715969 
L 449.446508 45.715969 
L 449.446508 45.586628 
L 451.248688 45.586628 
L 451.323779 45.327945 
L 451.849414 45.327945 
L 451.849414 45.198604 
L 453.125959 45.198604 
L 453.125959 45.069263 
L 454.627775 45.069263 
L 454.627775 44.81058 
L 455.378684 44.81058 
L 455.378684 44.681239 
L 455.528865 44.681239 
L 455.528865 44.551897 
L 455.754138 44.551897 
L 455.754138 44.422556 
L 461.461041 44.422556 
L 461.461041 44.293215 
L 462.512313 44.293215 
L 462.512313 44.163874 
L 465.741219 44.163874 
L 465.741219 44.034532 
L 466.191764 44.034532 
L 466.191764 43.905191 
L 469.42067 43.905191 
L 469.42067 43.77585 
L 469.871215 43.77585 
L 469.871215 43.646508 
L 471.823577 43.646508 
L 471.823577 43.517167 
L 478.131207 43.517167 
L 478.131207 43.387826 
L 479.33266 43.387826 
L 479.33266 43.258484 
L 480.383932 43.258484 
L 480.459023 42.999802 
L 482.03593 42.999802 
L 482.03593 42.87046 
L 492.548647 42.87046 
L 492.548647 42.741119 
L 493.67501 42.741119 
L 493.67501 42.611778 
L 494.350827 42.611778 
L 494.350827 42.482436 
L 495.402099 42.482436 
L 495.402099 42.353095 
L 496.753734 42.353095 
L 496.753734 42.094412 
L 498.405732 42.094412 
L 498.405732 41.965071 
L 499.231732 41.965071 
L 499.231732 41.83573 
L 499.457004 41.83573 
L 499.457004 41.706388 
L 503.812273 41.706388 
L 503.812273 41.577047 
L 507.116269 41.577047 
L 507.116269 41.447706 
L 509.143722 41.447706 
L 509.143722 41.318365 
L 511.771901 41.318365 
L 511.771901 41.189023 
L 513.724263 41.189023 
L 513.724263 40.930341 
L 516.577715 40.930341 
L 516.577715 40.800999 
L 519.431166 40.800999 
L 519.431166 40.671658 
L 521.308437 40.671658 
L 521.308437 40.542317 
L 522.134437 40.542317 
L 522.134437 40.412975 
L 524.161889 40.412975 
L 524.161889 40.283634 
L 526.489705 40.283634 
L 526.489705 40.154293 
L 526.94025 40.154293 
L 526.94025 40.024951 
L 528.442067 40.024951 
L 528.442067 39.89561 
L 529.418248 39.89561 
L 529.418248 39.766269 
L 531.4457 39.766269 
L 531.4457 39.636927 
L 533.24788 39.636927 
L 533.24788 39.507586 
L 533.473153 39.507586 
L 533.473153 39.378245 
L 538.804602 39.378245 
L 538.804602 39.248903 
L 540.306419 39.248903 
L 540.306419 39.119562 
L 549.918046 39.119562 
L 549.918046 38.990221 
L 553.071861 38.990221 
L 553.071861 38.860879 
L 556.225676 38.860879 
L 556.225676 38.731538 
L 556.375858 38.731538 
L 556.375858 38.602197 
L 557.427129 38.602197 
L 557.427129 38.472856 
L 559.980218 38.472856 
L 559.980218 38.343514 
L 560.20549 38.343514 
L 560.20549 38.214173 
L 570.342753 38.214173 
L 570.342753 38.084832 
L 573.796932 38.084832 
L 573.796932 37.95549 
L 578.077109 37.95549 
L 578.077109 37.826149 
L 583.333468 37.826149 
L 583.333468 37.696808 
L 600.228906 37.696808 
L 600.228906 37.567466 
L 602.857085 37.567466 
L 602.857085 37.438125 
L 631.616875 37.438125 
L 631.616875 37.438125 
" clip-path="url(#p802ddd9f81)" style="fill: none; stroke: #1f77b4; stroke-width: 1.5; stroke-linecap: square"/>
   </g>
   <g id="line2d_26">
    <path d="M 73.616875 339.838125 
L 631.616875 37.438125 
" clip-path="url(#p802ddd9f81)" style="fill: none; stroke-dasharray: 7.4,3.2; stroke-dashoffset: 0; stroke: #808080; stroke-width: 2"/>
   </g>
   <g id="patch_3">
    <path d="M 45.716875 354.958125 
L 45.716875 22.318125 
" style="fill: none; stroke: #000000; stroke-width: 0.8; stroke-linejoin: miter; stroke-linecap: square"/>
   </g>
   <g id="patch_4">
    <path d="M 659.516875 354.958125 
L 659.516875 22.318125 
" style="fill: none; stroke: #000000; stroke-width: 0.8; stroke-linejoin: miter; stroke-linecap: square"/>
   </g>
   <g id="patch_5">
    <path d="M 45.716875 354.958125 
L 659.516875 354.958125 
" style="fill: none; stroke: #000000; stroke-width: 0.8; stroke-linejoin: miter; stroke-linecap: square"/>
   </g>
   <g id="patch_6">
    <path d="M 45.716875 22.318125 
L 659.516875 22.318125 
" style="fill: none; stroke: #000000; stroke-width: 0.8; stroke-linejoin: miter; stroke-linecap: square"/>
   </g>
   <g id="text_15">
    <!-- ROC Curve: Logistic Regression -->
    <g transform="translate(258.446875 16.318125) scale(0.12 -0.12)">
     <defs>
      <path id="DejaVuSans-4f" d="M 2522 4238 
Q 1834 4238 1429 3725 
Q 1025 3213 1025 2328 
Q 1025 1447 1429 934 
Q 1834 422 2522 422 
Q 3209 422 3611 934 
Q 4013 1447 4013 2328 
Q 4013 3213 3611 3725 
Q 3209 4238 2522 4238 
z
M 2522 4750 
Q 3503 4750 4090 4092 
Q 4678 3434 4678 2328 
Q 4678 1225 4090 567 
Q 3503 -91 2522 -91 
Q 1538 -91 948 565 
Q 359 1222 359 2328 
Q 359 3434 948 4092 
Q 1538 4750 2522 4750 
z
" transform="scale(0.015625)"/>
      <path id="DejaVuSans-43" d="M 4122 4306 
L 4122 3641 
Q 3803 3938 3442 4084 
Q 3081 4231 2675 4231 
Q 1875 4231 1450 3742 
Q 1025 3253 1025 2328 
Q 1025 1406 1450 917 
Q 1875 428 2675 428 
Q 3081 428 3442 575 
Q 3803 722 4122 1019 
L 4122 359 
Q 3791 134 3420 21 
Q 3050 -91 2638 -91 
Q 1578 -91 968 557 
Q 359 1206 359 2328 
Q 359 3453 968 4101 
Q 1578 4750 2638 4750 
Q 3056 4750 3426 4639 
Q 3797 4528 4122 4306 
z
" transform="scale(0.015625)"/>
      <path id="DejaVuSans-3a" d="M 750 794 
L 1409 794 
L 1409 0 
L 750 0 
L 750 794 
z
M 750 3309 
L 1409 3309 
L 1409 2516 
L 750 2516 
L 750 3309 
z
" transform="scale(0.015625)"/>
      <path id="DejaVuSans-4c" d="M 628 4666 
L 1259 4666 
L 1259 531 
L 3531 531 
L 3531 0 
L 628 0 
L 628 4666 
z
" transform="scale(0.015625)"/>
      <path id="DejaVuSans-67" d="M 2906 1791 
Q 2906 2416 2648 2759 
Q 2391 3103 1925 3103 
Q 1463 3103 1205 2759 
Q 947 2416 947 1791 
Q 947 1169 1205 825 
Q 1463 481 1925 481 
Q 2391 481 2648 825 
Q 2906 1169 2906 1791 
z
M 3481 434 
Q 3481 -459 3084 -895 
Q 2688 -1331 1869 -1331 
Q 1566 -1331 1297 -1286 
Q 1028 -1241 775 -1147 
L 775 -588 
Q 1028 -725 1275 -790 
Q 1522 -856 1778 -856 
Q 2344 -856 2625 -561 
Q 2906 -266 2906 331 
L 2906 616 
Q 2728 306 2450 153 
Q 2172 0 1784 0 
Q 1141 0 747 490 
Q 353 981 353 1791 
Q 353 2603 747 3093 
Q 1141 3584 1784 3584 
Q 2172 3584 2450 3431 
Q 2728 3278 2906 2969 
L 2906 3500 
L 3481 3500 
L 3481 434 
z
" transform="scale(0.015625)"/>
      <path id="DejaVuSans-63" d="M 3122 3366 
L 3122 2828 
Q 2878 2963 2633 3030 
Q 2388 3097 2138 3097 
Q 1578 3097 1268 2742 
Q 959 2388 959 1747 
Q 959 1106 1268 751 
Q 1578 397 2138 397 
Q 2388 397 2633 464 
Q 2878 531 3122 666 
L 3122 134 
Q 2881 22 2623 -34 
Q 2366 -91 2075 -91 
Q 1284 -91 818 406 
Q 353 903 353 1747 
Q 353 2603 823 3093 
Q 1294 3584 2113 3584 
Q 2378 3584 2631 3529 
Q 2884 3475 3122 3366 
z
" transform="scale(0.015625)"/>
      <path id="DejaVuSans-6e" d="M 3513 2113 
L 3513 0 
L 2938 0 
L 2938 2094 
Q 2938 2591 2744 2837 
Q 2550 3084 2163 3084 
Q 1697 3084 1428 2787 
Q 1159 2491 1159 1978 
L 1159 0 
L 581 0 
L 581 3500 
L 1159 3500 
L 1159 2956 
Q 1366 3272 1645 3428 
Q 1925 3584 2291 3584 
Q 2894 3584 3203 3211 
Q 3513 2838 3513 2113 
z
" transform="scale(0.015625)"/>
     </defs>
     <use xlink:href="#DejaVuSans-52"/>
     <use xlink:href="#DejaVuSans-4f" x="69.482422"/>
     <use xlink:href="#DejaVuSans-43" x="148.193359"/>
     <use xlink:href="#DejaVuSans-20" x="218.017578"/>
     <use xlink:href="#DejaVuSans-43" x="249.804688"/>
     <use xlink:href="#DejaVuSans-75" x="319.628906"/>
     <use xlink:href="#DejaVuSans-72" x="383.007812"/>
     <use xlink:href="#DejaVuSans-76" x="424.121094"/>
     <use xlink:href="#DejaVuSans-65" x="483.300781"/>
     <use xlink:href="#DejaVuSans-3a" x="544.824219"/>
     <use xlink:href="#DejaVuSans-20" x="578.515625"/>
     <use xlink:href="#DejaVuSans-4c" x="610.302734"/>
     <use xlink:href="#DejaVuSans-6f" x="664.265625"/>
     <use xlink:href="#DejaVuSans-67" x="725.447266"/>
     <use xlink:href="#DejaVuSans-69" x="788.923828"/>
     <use xlink:href="#DejaVuSans-73" x="816.707031"/>
     <use xlink:href="#DejaVuSans-74" x="868.806641"/>
     <use xlink:href="#DejaVuSans-69" x="908.015625"/>
     <use xlink:href="#DejaVuSans-63" x="935.798828"/>
     <use xlink:href="#DejaVuSans-20" x="990.779297"/>
     <use xlink:href="#DejaVuSans-52" x="1022.566406"/>
     <use xlink:href="#DejaVuSans-65" x="1087.548828"/>
     <use xlink:href="#DejaVuSans-67" x="1149.072266"/>
     <use xlink:href="#DejaVuSans-72" x="1212.548828"/>
     <use xlink:href="#DejaVuSans-65" x="1251.412109"/>
     <use xlink:href="#DejaVuSans-73" x="1312.935547"/>
     <use xlink:href="#DejaVuSans-73" x="1365.035156"/>
     <use xlink:href="#DejaVuSans-69" x="1417.134766"/>
     <use xlink:href="#DejaVuSans-6f" x="1444.917969"/>
     <use xlink:href="#DejaVuSans-6e" x="1506.099609"/>
    </g>
   </g>
   <g id="legend_1">
    <g id="patch_7">
     <path d="M 545.284063 349.958125 
L 652.516875 349.958125 
Q 654.516875 349.958125 654.516875 347.958125 
L 654.516875 319.601875 
Q 654.516875 317.601875 652.516875 317.601875 
L 545.284063 317.601875 
Q 543.284063 317.601875 543.284063 319.601875 
L 543.284063 347.958125 
Q 543.284063 349.958125 545.284063 349.958125 
z
" style="fill: #ffffff; opacity: 0.8; stroke: #cccccc; stroke-linejoin: miter"/>
    </g>
    <g id="line2d_27">
     <path d="M 547.284063 325.700312 
L 557.284063 325.700312 
L 567.284063 325.700312 
" style="fill: none; stroke: #1f77b4; stroke-width: 1.5; stroke-linecap: square"/>
    </g>
    <g id="text_16">
     <!-- AUC = 0.84 -->
     <g transform="translate(575.284063 329.200312) scale(0.1 -0.1)">
      <defs>
       <path id="DejaVuSans-41" d="M 2188 4044 
L 1331 1722 
L 3047 1722 
L 2188 4044 
z
M 1831 4666 
L 2547 4666 
L 4325 0 
L 3669 0 
L 3244 1197 
L 1141 1197 
L 716 0 
L 50 0 
L 1831 4666 
z
" transform="scale(0.015625)"/>
       <path id="DejaVuSans-55" d="M 556 4666 
L 1191 4666 
L 1191 1831 
Q 1191 1081 1462 751 
Q 1734 422 2344 422 
Q 2950 422 3222 751 
Q 3494 1081 3494 1831 
L 3494 4666 
L 4128 4666 
L 4128 1753 
Q 4128 841 3676 375 
Q 3225 -91 2344 -91 
Q 1459 -91 1007 375 
Q 556 841 556 1753 
L 556 4666 
z
" transform="scale(0.015625)"/>
       <path id="DejaVuSans-3d" d="M 678 2906 
L 4684 2906 
L 4684 2381 
L 678 2381 
L 678 2906 
z
M 678 1631 
L 4684 1631 
L 4684 1100 
L 678 1100 
L 678 1631 
z
" transform="scale(0.015625)"/>
      </defs>
      <use xlink:href="#DejaVuSans-41"/>
      <use xlink:href="#DejaVuSans-55" x="68.408203"/>
      <use xlink:href="#DejaVuSans-43" x="141.601562"/>
      <use xlink:href="#DejaVuSans-20" x="211.425781"/>
      <use xlink:href="#DejaVuSans-3d" x="243.212891"/>
      <use xlink:href="#DejaVuSans-20" x="327.001953"/>
      <use xlink:href="#DejaVuSans-30" x="358.789062"/>
      <use xlink:href="#DejaVuSans-2e" x="422.412109"/>
      <use xlink:href="#DejaVuSans-38" x="454.199219"/>
      <use xlink:href="#DejaVuSans-34" x="517.822266"/>
     </g>
    </g>
    <g id="line2d_28">
     <path d="M 547.284063 340.378438 
L 557.284063 340.378438 
L 567.284063 340.378438 
" style="fill: none; stroke-dasharray: 7.4,3.2; stroke-dashoffset: 0; stroke: #808080; stroke-width: 2"/>
    </g>
    <g id="text_17">
     <!-- Random Guess -->
     <g transform="translate(575.284063 343.878438) scale(0.1 -0.1)">
      <defs>
       <path id="DejaVuSans-64" d="M 2906 2969 
L 2906 4863 
L 3481 4863 
L 3481 0 
L 2906 0 
L 2906 525 
Q 2725 213 2448 61 
Q 2172 -91 1784 -91 
Q 1150 -91 751 415 
Q 353 922 353 1747 
Q 353 2572 751 3078 
Q 1150 3584 1784 3584 
Q 2172 3584 2448 3432 
Q 2725 3281 2906 2969 
z
M 947 1747 
Q 947 1113 1208 752 
Q 1469 391 1925 391 
Q 2381 391 2643 752 
Q 2906 1113 2906 1747 
Q 2906 2381 2643 2742 
Q 2381 3103 1925 3103 
Q 1469 3103 1208 2742 
Q 947 2381 947 1747 
z
" transform="scale(0.015625)"/>
       <path id="DejaVuSans-6d" d="M 3328 2828 
Q 3544 3216 3844 3400 
Q 4144 3584 4550 3584 
Q 5097 3584 5394 3201 
Q 5691 2819 5691 2113 
L 5691 0 
L 5113 0 
L 5113 2094 
Q 5113 2597 4934 2840 
Q 4756 3084 4391 3084 
Q 3944 3084 3684 2787 
Q 3425 2491 3425 1978 
L 3425 0 
L 2847 0 
L 2847 2094 
Q 2847 2600 2669 2842 
Q 2491 3084 2119 3084 
Q 1678 3084 1418 2786 
Q 1159 2488 1159 1978 
L 1159 0 
L 581 0 
L 581 3500 
L 1159 3500 
L 1159 2956 
Q 1356 3278 1631 3431 
Q 1906 3584 2284 3584 
Q 2666 3584 2933 3390 
Q 3200 3197 3328 2828 
z
" transform="scale(0.015625)"/>
       <path id="DejaVuSans-47" d="M 3809 666 
L 3809 1919 
L 2778 1919 
L 2778 2438 
L 4434 2438 
L 4434 434 
Q 4069 175 3628 42 
Q 3188 -91 2688 -91 
Q 1594 -91 976 548 
Q 359 1188 359 2328 
Q 359 3472 976 4111 
Q 1594 4750 2688 4750 
Q 3144 4750 3555 4637 
Q 3966 4525 4313 4306 
L 4313 3634 
Q 3963 3931 3569 4081 
Q 3175 4231 2741 4231 
Q 1884 4231 1454 3753 
Q 1025 3275 1025 2328 
Q 1025 1384 1454 906 
Q 1884 428 2741 428 
Q 3075 428 3337 486 
Q 3600 544 3809 666 
z
" transform="scale(0.015625)"/>
      </defs>
      <use xlink:href="#DejaVuSans-52"/>
      <use xlink:href="#DejaVuSans-61" x="67.232422"/>
      <use xlink:href="#DejaVuSans-6e" x="128.511719"/>
      <use xlink:href="#DejaVuSans-64" x="191.890625"/>
      <use xlink:href="#DejaVuSans-6f" x="255.367188"/>
      <use xlink:href="#DejaVuSans-6d" x="316.548828"/>
      <use xlink:href="#DejaVuSans-20" x="413.960938"/>
      <use xlink:href="#DejaVuSans-47" x="445.748047"/>
      <use xlink:href="#DejaVuSans-75" x="523.238281"/>
      <use xlink:href="#DejaVuSans-65" x="586.617188"/>
      <use xlink:href="#DejaVuSans-73" x="648.140625"/>
      <use xlink:href="#DejaVuSans-73" x="700.240234"/>
     </g>
    </g>
   </g>
  </g>
 </g>
 <defs>
  <clipPath id="p802ddd9f81">
   <rect x="45.716875" y="22.318125" width="613.8" height="332.64"/>
  </clipPath>
 </defs>
</svg>
