<?xml version="1.0" encoding="utf-8" standalone="no"?>
<!DOCTYPE svg PUBLIC "-//W3C//DTD SVG 1.1//EN"
  "http://www.w3.org/Graphics/SVG/1.1/DTD/svg11.dtd">
<svg xmlns:xlink="http://www.w3.org/1999/xlink" width="666.716875pt" height="508.122875pt" viewBox="0 0 666.716875 508.122875" xmlns="http://www.w3.org/2000/svg" version="1.1">
 <metadata>
  <rdf:RDF xmlns:dc="http://purl.org/dc/elements/1.1/" xmlns:cc="http://creativecommons.org/ns#" xmlns:rdf="http://www.w3.org/1999/02/22-rdf-syntax-ns#">
   <cc:Work>
    <dc:type rdf:resource="http://purl.org/dc/dcmitype/StillImage"/>
    <dc:date>2025-03-14T10:52:39.176587</dc:date>
    <dc:format>image/svg+xml</dc:format>
    <dc:creator>
     <cc:Agent>
      <dc:title>Matplotlib v3.9.2, https://matplotlib.org/</dc:title>
     </cc:Agent>
    </dc:creator>
   </cc:Work>
  </rdf:RDF>
 </metadata>
 <defs>
  <style type="text/css">*{stroke-linejoin: round; stroke-linecap: butt}</style>
 </defs>
 <g id="figure_1">
  <g id="patch_1">
   <path d="M 0 508.122875 
L 666.716875 508.122875 
L 666.716875 -0 
L 0 -0 
z
" style="fill: #ffffff"/>
  </g>
  <g id="axes_1">
   <g id="patch_2">
    <path d="M 45.716875 354.958125 
L 659.516875 354.958125 
L 659.516875 22.318125 
L 45.716875 22.318125 
z
" style="fill: #ffffff"/>
   </g>
   <g id="matplotlib.axis_1">
    <g id="xtick_1">
     <g id="line2d_1">
      <path d="M 73.616875 354.958125 
L 73.616875 22.318125 
" clip-path="url(#pf430526843)" style="fill: none; stroke: #b0b0b0; stroke-width: 0.8; stroke-linecap: square"/>
     </g>
     <g id="line2d_2">
      <defs>
       <path id="m7d3f2a894c" d="M 0 0 
L 0 3.5 
" style="stroke: #000000; stroke-width: 0.8"/>
      </defs>
      <g>
       <use xlink:href="#m7d3f2a894c" x="73.616875" y="354.958125" style="stroke: #000000; stroke-width: 0.8"/>
      </g>
     </g>
     <g id="text_1">
      <!-- 0.0 -->
      <g transform="translate(65.665313 369.556563) scale(0.1 -0.1)">
       <defs>
        <path id="DejaVuSans-30" d="M 2034 4250 
Q 1547 4250 1301 3770 
Q 1056 3291 1056 2328 
Q 1056 1369 1301 889 
Q 1547 409 2034 409 
Q 2525 409 2770 889 
Q 3016 1369 3016 2328 
Q 3016 3291 2770 3770 
Q 2525 4250 2034 4250 
z
M 2034 4750 
Q 2819 4750 3233 4129 
Q 3647 3509 3647 2328 
Q 3647 1150 3233 529 
Q 2819 -91 2034 -91 
Q 1250 -91 836 529 
Q 422 1150 422 2328 
Q 422 3509 836 4129 
Q 1250 4750 2034 4750 
z
" transform="scale(0.015625)"/>
        <path id="DejaVuSans-2e" d="M 684 794 
L 1344 794 
L 1344 0 
L 684 0 
L 684 794 
z
" transform="scale(0.015625)"/>
       </defs>
       <use xlink:href="#DejaVuSans-30"/>
       <use xlink:href="#DejaVuSans-2e" x="63.623047"/>
       <use xlink:href="#DejaVuSans-30" x="95.410156"/>
      </g>
     </g>
    </g>
    <g id="xtick_2">
     <g id="line2d_3">
      <path d="M 185.216875 354.958125 
L 185.216875 22.318125 
" clip-path="url(#pf430526843)" style="fill: none; stroke: #b0b0b0; stroke-width: 0.8; stroke-linecap: square"/>
     </g>
     <g id="line2d_4">
      <g>
       <use xlink:href="#m7d3f2a894c" x="185.216875" y="354.958125" style="stroke: #000000; stroke-width: 0.8"/>
      </g>
     </g>
     <g id="text_2">
      <!-- 0.2 -->
      <g transform="translate(177.265313 369.556563) scale(0.1 -0.1)">
       <defs>
        <path id="DejaVuSans-32" d="M 1228 531 
L 3431 531 
L 3431 0 
L 469 0 
L 469 531 
Q 828 903 1448 1529 
Q 2069 2156 2228 2338 
Q 2531 2678 2651 2914 
Q 2772 3150 2772 3378 
Q 2772 3750 2511 3984 
Q 2250 4219 1831 4219 
Q 1534 4219 1204 4116 
Q 875 4013 500 3803 
L 500 4441 
Q 881 4594 1212 4672 
Q 1544 4750 1819 4750 
Q 2544 4750 2975 4387 
Q 3406 4025 3406 3419 
Q 3406 3131 3298 2873 
Q 3191 2616 2906 2266 
Q 2828 2175 2409 1742 
Q 1991 1309 1228 531 
z
" transform="scale(0.015625)"/>
       </defs>
       <use xlink:href="#DejaVuSans-30"/>
       <use xlink:href="#DejaVuSans-2e" x="63.623047"/>
       <use xlink:href="#DejaVuSans-32" x="95.410156"/>
      </g>
     </g>
    </g>
    <g id="xtick_3">
     <g id="line2d_5">
      <path d="M 296.816875 354.958125 
L 296.816875 22.318125 
" clip-path="url(#pf430526843)" style="fill: none; stroke: #b0b0b0; stroke-width: 0.8; stroke-linecap: square"/>
     </g>
     <g id="line2d_6">
      <g>
       <use xlink:href="#m7d3f2a894c" x="296.816875" y="354.958125" style="stroke: #000000; stroke-width: 0.8"/>
      </g>
     </g>
     <g id="text_3">
      <!-- 0.4 -->
      <g transform="translate(288.865313 369.556563) scale(0.1 -0.1)">
       <defs>
        <path id="DejaVuSans-34" d="M 2419 4116 
L 825 1625 
L 2419 1625 
L 2419 4116 
z
M 2253 4666 
L 3047 4666 
L 3047 1625 
L 3713 1625 
L 3713 1100 
L 3047 1100 
L 3047 0 
L 2419 0 
L 2419 1100 
L 313 1100 
L 313 1709 
L 2253 4666 
z
" transform="scale(0.015625)"/>
       </defs>
       <use xlink:href="#DejaVuSans-30"/>
       <use xlink:href="#DejaVuSans-2e" x="63.623047"/>
       <use xlink:href="#DejaVuSans-34" x="95.410156"/>
      </g>
     </g>
    </g>
    <g id="xtick_4">
     <g id="line2d_7">
      <path d="M 408.416875 354.958125 
L 408.416875 22.318125 
" clip-path="url(#pf430526843)" style="fill: none; stroke: #b0b0b0; stroke-width: 0.8; stroke-linecap: square"/>
     </g>
     <g id="line2d_8">
      <g>
       <use xlink:href="#m7d3f2a894c" x="408.416875" y="354.958125" style="stroke: #000000; stroke-width: 0.8"/>
      </g>
     </g>
     <g id="text_4">
      <!-- 0.6 -->
      <g transform="translate(400.465313 369.556563) scale(0.1 -0.1)">
       <defs>
        <path id="DejaVuSans-36" d="M 2113 2584 
Q 1688 2584 1439 2293 
Q 1191 2003 1191 1497 
Q 1191 994 1439 701 
Q 1688 409 2113 409 
Q 2538 409 2786 701 
Q 3034 994 3034 1497 
Q 3034 2003 2786 2293 
Q 2538 2584 2113 2584 
z
M 3366 4563 
L 3366 3988 
Q 3128 4100 2886 4159 
Q 2644 4219 2406 4219 
Q 1781 4219 1451 3797 
Q 1122 3375 1075 2522 
Q 1259 2794 1537 2939 
Q 1816 3084 2150 3084 
Q 2853 3084 3261 2657 
Q 3669 2231 3669 1497 
Q 3669 778 3244 343 
Q 2819 -91 2113 -91 
Q 1303 -91 875 529 
Q 447 1150 447 2328 
Q 447 3434 972 4092 
Q 1497 4750 2381 4750 
Q 2619 4750 2861 4703 
Q 3103 4656 3366 4563 
z
" transform="scale(0.015625)"/>
       </defs>
       <use xlink:href="#DejaVuSans-30"/>
       <use xlink:href="#DejaVuSans-2e" x="63.623047"/>
       <use xlink:href="#DejaVuSans-36" x="95.410156"/>
      </g>
     </g>
    </g>
    <g id="xtick_5">
     <g id="line2d_9">
      <path d="M 520.016875 354.958125 
L 520.016875 22.318125 
" clip-path="url(#pf430526843)" style="fill: none; stroke: #b0b0b0; stroke-width: 0.8; stroke-linecap: square"/>
     </g>
     <g id="line2d_10">
      <g>
       <use xlink:href="#m7d3f2a894c" x="520.016875" y="354.958125" style="stroke: #000000; stroke-width: 0.8"/>
      </g>
     </g>
     <g id="text_5">
      <!-- 0.8 -->
      <g transform="translate(512.065313 369.556563) scale(0.1 -0.1)">
       <defs>
        <path id="DejaVuSans-38" d="M 2034 2216 
Q 1584 2216 1326 1975 
Q 1069 1734 1069 1313 
Q 1069 891 1326 650 
Q 1584 409 2034 409 
Q 2484 409 2743 651 
Q 3003 894 3003 1313 
Q 3003 1734 2745 1975 
Q 2488 2216 2034 2216 
z
M 1403 2484 
Q 997 2584 770 2862 
Q 544 3141 544 3541 
Q 544 4100 942 4425 
Q 1341 4750 2034 4750 
Q 2731 4750 3128 4425 
Q 3525 4100 3525 3541 
Q 3525 3141 3298 2862 
Q 3072 2584 2669 2484 
Q 3125 2378 3379 2068 
Q 3634 1759 3634 1313 
Q 3634 634 3220 271 
Q 2806 -91 2034 -91 
Q 1263 -91 848 271 
Q 434 634 434 1313 
Q 434 1759 690 2068 
Q 947 2378 1403 2484 
z
M 1172 3481 
Q 1172 3119 1398 2916 
Q 1625 2713 2034 2713 
Q 2441 2713 2670 2916 
Q 2900 3119 2900 3481 
Q 2900 3844 2670 4047 
Q 2441 4250 2034 4250 
Q 1625 4250 1398 4047 
Q 1172 3844 1172 3481 
z
" transform="scale(0.015625)"/>
       </defs>
       <use xlink:href="#DejaVuSans-30"/>
       <use xlink:href="#DejaVuSans-2e" x="63.623047"/>
       <use xlink:href="#DejaVuSans-38" x="95.410156"/>
      </g>
     </g>
    </g>
    <g id="xtick_6">
     <g id="line2d_11">
      <path d="M 631.616875 354.958125 
L 631.616875 22.318125 
" clip-path="url(#pf430526843)" style="fill: none; stroke: #b0b0b0; stroke-width: 0.8; stroke-linecap: square"/>
     </g>
     <g id="line2d_12">
      <g>
       <use xlink:href="#m7d3f2a894c" x="631.616875" y="354.958125" style="stroke: #000000; stroke-width: 0.8"/>
      </g>
     </g>
     <g id="text_6">
      <!-- 1.0 -->
      <g transform="translate(623.665313 369.556563) scale(0.1 -0.1)">
       <defs>
        <path id="DejaVuSans-31" d="M 794 531 
L 1825 531 
L 1825 4091 
L 703 3866 
L 703 4441 
L 1819 4666 
L 2450 4666 
L 2450 531 
L 3481 531 
L 3481 0 
L 794 0 
L 794 531 
z
" transform="scale(0.015625)"/>
       </defs>
       <use xlink:href="#DejaVuSans-31"/>
       <use xlink:href="#DejaVuSans-2e" x="63.623047"/>
       <use xlink:href="#DejaVuSans-30" x="95.410156"/>
      </g>
     </g>
    </g>
    <g id="text_7">
     <!-- False Positive Rate -->
     <g transform="translate(296.857188 384.754375) scale(0.12 -0.12)">
      <defs>
       <path id="DejaVuSans-46" d="M 628 4666 
L 3309 4666 
L 3309 4134 
L 1259 4134 
L 1259 2759 
L 3109 2759 
L 3109 2228 
L 1259 2228 
L 1259 0 
L 628 0 
L 628 4666 
z
" transform="scale(0.015625)"/>
       <path id="DejaVuSans-61" d="M 2194 1759 
Q 1497 1759 1228 1600 
Q 959 1441 959 1056 
Q 959 750 1161 570 
Q 1363 391 1709 391 
Q 2188 391 2477 730 
Q 2766 1069 2766 1631 
L 2766 1759 
L 2194 1759 
z
M 3341 1997 
L 3341 0 
L 2766 0 
L 2766 531 
Q 2569 213 2275 61 
Q 1981 -91 1556 -91 
Q 1019 -91 701 211 
Q 384 513 384 1019 
Q 384 1609 779 1909 
Q 1175 2209 1959 2209 
L 2766 2209 
L 2766 2266 
Q 2766 2663 2505 2880 
Q 2244 3097 1772 3097 
Q 1472 3097 1187 3025 
Q 903 2953 641 2809 
L 641 3341 
Q 956 3463 1253 3523 
Q 1550 3584 1831 3584 
Q 2591 3584 2966 3190 
Q 3341 2797 3341 1997 
z
" transform="scale(0.015625)"/>
       <path id="DejaVuSans-6c" d="M 603 4863 
L 1178 4863 
L 1178 0 
L 603 0 
L 603 4863 
z
" transform="scale(0.015625)"/>
       <path id="DejaVuSans-73" d="M 2834 3397 
L 2834 2853 
Q 2591 2978 2328 3040 
Q 2066 3103 1784 3103 
Q 1356 3103 1142 2972 
Q 928 2841 928 2578 
Q 928 2378 1081 2264 
Q 1234 2150 1697 2047 
L 1894 2003 
Q 2506 1872 2764 1633 
Q 3022 1394 3022 966 
Q 3022 478 2636 193 
Q 2250 -91 1575 -91 
Q 1294 -91 989 -36 
Q 684 19 347 128 
L 347 722 
Q 666 556 975 473 
Q 1284 391 1588 391 
Q 1994 391 2212 530 
Q 2431 669 2431 922 
Q 2431 1156 2273 1281 
Q 2116 1406 1581 1522 
L 1381 1569 
Q 847 1681 609 1914 
Q 372 2147 372 2553 
Q 372 3047 722 3315 
Q 1072 3584 1716 3584 
Q 2034 3584 2315 3537 
Q 2597 3491 2834 3397 
z
" transform="scale(0.015625)"/>
       <path id="DejaVuSans-65" d="M 3597 1894 
L 3597 1613 
L 953 1613 
Q 991 1019 1311 708 
Q 1631 397 2203 397 
Q 2534 397 2845 478 
Q 3156 559 3463 722 
L 3463 178 
Q 3153 47 2828 -22 
Q 2503 -91 2169 -91 
Q 1331 -91 842 396 
Q 353 884 353 1716 
Q 353 2575 817 3079 
Q 1281 3584 2069 3584 
Q 2775 3584 3186 3129 
Q 3597 2675 3597 1894 
z
M 3022 2063 
Q 3016 2534 2758 2815 
Q 2500 3097 2075 3097 
Q 1594 3097 1305 2825 
Q 1016 2553 972 2059 
L 3022 2063 
z
" transform="scale(0.015625)"/>
       <path id="DejaVuSans-20" transform="scale(0.015625)"/>
       <path id="DejaVuSans-50" d="M 1259 4147 
L 1259 2394 
L 2053 2394 
Q 2494 2394 2734 2622 
Q 2975 2850 2975 3272 
Q 2975 3691 2734 3919 
Q 2494 4147 2053 4147 
L 1259 4147 
z
M 628 4666 
L 2053 4666 
Q 2838 4666 3239 4311 
Q 3641 3956 3641 3272 
Q 3641 2581 3239 2228 
Q 2838 1875 2053 1875 
L 1259 1875 
L 1259 0 
L 628 0 
L 628 4666 
z
" transform="scale(0.015625)"/>
       <path id="DejaVuSans-6f" d="M 1959 3097 
Q 1497 3097 1228 2736 
Q 959 2375 959 1747 
Q 959 1119 1226 758 
Q 1494 397 1959 397 
Q 2419 397 2687 759 
Q 2956 1122 2956 1747 
Q 2956 2369 2687 2733 
Q 2419 3097 1959 3097 
z
M 1959 3584 
Q 2709 3584 3137 3096 
Q 3566 2609 3566 1747 
Q 3566 888 3137 398 
Q 2709 -91 1959 -91 
Q 1206 -91 779 398 
Q 353 888 353 1747 
Q 353 2609 779 3096 
Q 1206 3584 1959 3584 
z
" transform="scale(0.015625)"/>
       <path id="DejaVuSans-69" d="M 603 3500 
L 1178 3500 
L 1178 0 
L 603 0 
L 603 3500 
z
M 603 4863 
L 1178 4863 
L 1178 4134 
L 603 4134 
L 603 4863 
z
" transform="scale(0.015625)"/>
       <path id="DejaVuSans-74" d="M 1172 4494 
L 1172 3500 
L 2356 3500 
L 2356 3053 
L 1172 3053 
L 1172 1153 
Q 1172 725 1289 603 
Q 1406 481 1766 481 
L 2356 481 
L 2356 0 
L 1766 0 
Q 1100 0 847 248 
Q 594 497 594 1153 
L 594 3053 
L 172 3053 
L 172 3500 
L 594 3500 
L 594 4494 
L 1172 4494 
z
" transform="scale(0.015625)"/>
       <path id="DejaVuSans-76" d="M 191 3500 
L 800 3500 
L 1894 563 
L 2988 3500 
L 3597 3500 
L 2284 0 
L 1503 0 
L 191 3500 
z
" transform="scale(0.015625)"/>
       <path id="DejaVuSans-52" d="M 2841 2188 
Q 3044 2119 3236 1894 
Q 3428 1669 3622 1275 
L 4263 0 
L 3584 0 
L 2988 1197 
Q 2756 1666 2539 1819 
Q 2322 1972 1947 1972 
L 1259 1972 
L 1259 0 
L 628 0 
L 628 4666 
L 2053 4666 
Q 2853 4666 3247 4331 
Q 3641 3997 3641 3322 
Q 3641 2881 3436 2590 
Q 3231 2300 2841 2188 
z
M 1259 4147 
L 1259 2491 
L 2053 2491 
Q 2509 2491 2742 2702 
Q 2975 2913 2975 3322 
Q 2975 3731 2742 3939 
Q 2509 4147 2053 4147 
L 1259 4147 
z
" transform="scale(0.015625)"/>
      </defs>
      <use xlink:href="#DejaVuSans-46"/>
      <use xlink:href="#DejaVuSans-61" x="48.394531"/>
      <use xlink:href="#DejaVuSans-6c" x="109.673828"/>
      <use xlink:href="#DejaVuSans-73" x="137.457031"/>
      <use xlink:href="#DejaVuSans-65" x="189.556641"/>
      <use xlink:href="#DejaVuSans-20" x="251.080078"/>
      <use xlink:href="#DejaVuSans-50" x="282.867188"/>
      <use xlink:href="#DejaVuSans-6f" x="339.544922"/>
      <use xlink:href="#DejaVuSans-73" x="400.726562"/>
      <use xlink:href="#DejaVuSans-69" x="452.826172"/>
      <use xlink:href="#DejaVuSans-74" x="480.609375"/>
      <use xlink:href="#DejaVuSans-69" x="519.818359"/>
      <use xlink:href="#DejaVuSans-76" x="547.601562"/>
      <use xlink:href="#DejaVuSans-65" x="606.78125"/>
      <use xlink:href="#DejaVuSans-20" x="668.304688"/>
      <use xlink:href="#DejaVuSans-52" x="700.091797"/>
      <use xlink:href="#DejaVuSans-61" x="767.324219"/>
      <use xlink:href="#DejaVuSans-74" x="828.603516"/>
      <use xlink:href="#DejaVuSans-65" x="867.8125"/>
     </g>
    </g>
   </g>
   <g id="matplotlib.axis_2">
    <g id="ytick_1">
     <g id="line2d_13">
      <path d="M 45.716875 339.838125 
L 659.516875 339.838125 
" clip-path="url(#pf430526843)" style="fill: none; stroke: #b0b0b0; stroke-width: 0.8; stroke-linecap: square"/>
     </g>
     <g id="line2d_14">
      <defs>
       <path id="m7a0ca30133" d="M 0 0 
L -3.5 0 
" style="stroke: #000000; stroke-width: 0.8"/>
      </defs>
      <g>
       <use xlink:href="#m7a0ca30133" x="45.716875" y="339.838125" style="stroke: #000000; stroke-width: 0.8"/>
      </g>
     </g>
     <g id="text_8">
      <!-- 0.0 -->
      <g transform="translate(22.81375 343.637344) scale(0.1 -0.1)">
       <use xlink:href="#DejaVuSans-30"/>
       <use xlink:href="#DejaVuSans-2e" x="63.623047"/>
       <use xlink:href="#DejaVuSans-30" x="95.410156"/>
      </g>
     </g>
    </g>
    <g id="ytick_2">
     <g id="line2d_15">
      <path d="M 45.716875 279.358125 
L 659.516875 279.358125 
" clip-path="url(#pf430526843)" style="fill: none; stroke: #b0b0b0; stroke-width: 0.8; stroke-linecap: square"/>
     </g>
     <g id="line2d_16">
      <g>
       <use xlink:href="#m7a0ca30133" x="45.716875" y="279.358125" style="stroke: #000000; stroke-width: 0.8"/>
      </g>
     </g>
     <g id="text_9">
      <!-- 0.2 -->
      <g transform="translate(22.81375 283.157344) scale(0.1 -0.1)">
       <use xlink:href="#DejaVuSans-30"/>
       <use xlink:href="#DejaVuSans-2e" x="63.623047"/>
       <use xlink:href="#DejaVuSans-32" x="95.410156"/>
      </g>
     </g>
    </g>
    <g id="ytick_3">
     <g id="line2d_17">
      <path d="M 45.716875 218.878125 
L 659.516875 218.878125 
" clip-path="url(#pf430526843)" style="fill: none; stroke: #b0b0b0; stroke-width: 0.8; stroke-linecap: square"/>
     </g>
     <g id="line2d_18">
      <g>
       <use xlink:href="#m7a0ca30133" x="45.716875" y="218.878125" style="stroke: #000000; stroke-width: 0.8"/>
      </g>
     </g>
     <g id="text_10">
      <!-- 0.4 -->
      <g transform="translate(22.81375 222.677344) scale(0.1 -0.1)">
       <use xlink:href="#DejaVuSans-30"/>
       <use xlink:href="#DejaVuSans-2e" x="63.623047"/>
       <use xlink:href="#DejaVuSans-34" x="95.410156"/>
      </g>
     </g>
    </g>
    <g id="ytick_4">
     <g id="line2d_19">
      <path d="M 45.716875 158.398125 
L 659.516875 158.398125 
" clip-path="url(#pf430526843)" style="fill: none; stroke: #b0b0b0; stroke-width: 0.8; stroke-linecap: square"/>
     </g>
     <g id="line2d_20">
      <g>
       <use xlink:href="#m7a0ca30133" x="45.716875" y="158.398125" style="stroke: #000000; stroke-width: 0.8"/>
      </g>
     </g>
     <g id="text_11">
      <!-- 0.6 -->
      <g transform="translate(22.81375 162.197344) scale(0.1 -0.1)">
       <use xlink:href="#DejaVuSans-30"/>
       <use xlink:href="#DejaVuSans-2e" x="63.623047"/>
       <use xlink:href="#DejaVuSans-36" x="95.410156"/>
      </g>
     </g>
    </g>
    <g id="ytick_5">
     <g id="line2d_21">
      <path d="M 45.716875 97.918125 
L 659.516875 97.918125 
" clip-path="url(#pf430526843)" style="fill: none; stroke: #b0b0b0; stroke-width: 0.8; stroke-linecap: square"/>
     </g>
     <g id="line2d_22">
      <g>
       <use xlink:href="#m7a0ca30133" x="45.716875" y="97.918125" style="stroke: #000000; stroke-width: 0.8"/>
      </g>
     </g>
     <g id="text_12">
      <!-- 0.8 -->
      <g transform="translate(22.81375 101.717344) scale(0.1 -0.1)">
       <use xlink:href="#DejaVuSans-30"/>
       <use xlink:href="#DejaVuSans-2e" x="63.623047"/>
       <use xlink:href="#DejaVuSans-38" x="95.410156"/>
      </g>
     </g>
    </g>
    <g id="ytick_6">
     <g id="line2d_23">
      <path d="M 45.716875 37.438125 
L 659.516875 37.438125 
" clip-path="url(#pf430526843)" style="fill: none; stroke: #b0b0b0; stroke-width: 0.8; stroke-linecap: square"/>
     </g>
     <g id="line2d_24">
      <g>
       <use xlink:href="#m7a0ca30133" x="45.716875" y="37.438125" style="stroke: #000000; stroke-width: 0.8"/>
      </g>
     </g>
     <g id="text_13">
      <!-- 1.0 -->
      <g transform="translate(22.81375 41.237344) scale(0.1 -0.1)">
       <use xlink:href="#DejaVuSans-31"/>
       <use xlink:href="#DejaVuSans-2e" x="63.623047"/>
       <use xlink:href="#DejaVuSans-30" x="95.410156"/>
      </g>
     </g>
    </g>
    <g id="text_14">
     <!-- True Positive Rate -->
     <g transform="translate(16.318125 242.07375) rotate(-90) scale(0.12 -0.12)">
      <defs>
       <path id="DejaVuSans-54" d="M -19 4666 
L 3928 4666 
L 3928 4134 
L 2272 4134 
L 2272 0 
L 1638 0 
L 1638 4134 
L -19 4134 
L -19 4666 
z
" transform="scale(0.015625)"/>
       <path id="DejaVuSans-72" d="M 2631 2963 
Q 2534 3019 2420 3045 
Q 2306 3072 2169 3072 
Q 1681 3072 1420 2755 
Q 1159 2438 1159 1844 
L 1159 0 
L 581 0 
L 581 3500 
L 1159 3500 
L 1159 2956 
Q 1341 3275 1631 3429 
Q 1922 3584 2338 3584 
Q 2397 3584 2469 3576 
Q 2541 3569 2628 3553 
L 2631 2963 
z
" transform="scale(0.015625)"/>
       <path id="DejaVuSans-75" d="M 544 1381 
L 544 3500 
L 1119 3500 
L 1119 1403 
Q 1119 906 1312 657 
Q 1506 409 1894 409 
Q 2359 409 2629 706 
Q 2900 1003 2900 1516 
L 2900 3500 
L 3475 3500 
L 3475 0 
L 2900 0 
L 2900 538 
Q 2691 219 2414 64 
Q 2138 -91 1772 -91 
Q 1169 -91 856 284 
Q 544 659 544 1381 
z
M 1991 3584 
L 1991 3584 
z
" transform="scale(0.015625)"/>
      </defs>
      <use xlink:href="#DejaVuSans-54"/>
      <use xlink:href="#DejaVuSans-72" x="46.333984"/>
      <use xlink:href="#DejaVuSans-75" x="87.447266"/>
      <use xlink:href="#DejaVuSans-65" x="150.826172"/>
      <use xlink:href="#DejaVuSans-20" x="212.349609"/>
      <use xlink:href="#DejaVuSans-50" x="244.136719"/>
      <use xlink:href="#DejaVuSans-6f" x="300.814453"/>
      <use xlink:href="#DejaVuSans-73" x="361.996094"/>
      <use xlink:href="#DejaVuSans-69" x="414.095703"/>
      <use xlink:href="#DejaVuSans-74" x="441.878906"/>
      <use xlink:href="#DejaVuSans-69" x="481.087891"/>
      <use xlink:href="#DejaVuSans-76" x="508.871094"/>
      <use xlink:href="#DejaVuSans-65" x="568.050781"/>
      <use xlink:href="#DejaVuSans-20" x="629.574219"/>
      <use xlink:href="#DejaVuSans-52" x="661.361328"/>
      <use xlink:href="#DejaVuSans-61" x="728.59375"/>
      <use xlink:href="#DejaVuSans-74" x="789.873047"/>
      <use xlink:href="#DejaVuSans-65" x="829.082031"/>
     </g>
    </g>
   </g>
   <g id="line2d_25">
    <path d="M 73.616875 339.838125 
L 73.7066 315.629136 
L 73.796325 315.629136 
L 73.88605 313.788687 
L 73.975775 313.788687 
L 74.0655 309.25835 
L 74.155225 309.25835 
L 74.24495 306.993181 
L 74.334675 306.993181 
L 74.4244 301.754979 
L 74.514125 301.754979 
L 74.60385 300.480822 
L 74.693575 300.480822 
L 74.7833 298.215653 
L 74.873026 298.215653 
L 74.873026 297.083069 
L 75.052476 297.083069 
L 75.142201 296.233631 
L 75.231926 296.233631 
L 75.321651 294.110035 
L 75.411376 294.110035 
L 75.501101 292.977451 
L 75.680551 292.977451 
L 75.770276 292.552732 
L 75.860001 292.552732 
L 75.949726 291.561721 
L 76.129176 291.561721 
L 76.218901 290.995428 
L 76.398351 290.995428 
L 76.488076 288.871833 
L 76.667526 288.871833 
L 76.757251 288.305541 
L 76.846976 288.305541 
L 76.936701 286.465091 
L 77.026426 286.465091 
L 77.026426 286.040372 
L 77.205876 286.040372 
L 77.295601 285.332507 
L 77.385327 285.332507 
L 77.385327 285.190934 
L 77.654502 285.190934 
L 77.744227 283.067338 
L 77.923677 283.067338 
L 77.923677 282.784192 
L 78.192852 282.784192 
L 78.192852 282.501046 
L 78.372302 282.501046 
L 78.462027 281.226889 
L 78.641477 281.226889 
L 78.731202 279.669586 
L 78.910652 279.669586 
L 79.000377 279.103294 
L 79.090102 279.103294 
L 79.090102 278.537001 
L 79.538727 278.537001 
L 79.628452 275.139249 
L 79.718177 275.139249 
L 79.807902 274.572956 
L 79.897628 274.572956 
L 79.987353 274.148237 
L 80.166803 274.148237 
L 80.256528 273.723518 
L 80.346253 273.723518 
L 80.435978 273.015653 
L 80.525703 273.015653 
L 80.615428 271.175204 
L 80.705153 271.175204 
L 80.794878 270.325765 
L 80.884603 270.325765 
L 80.974328 270.042619 
L 81.064053 270.042619 
L 81.064053 269.759473 
L 81.243503 269.759473 
L 81.333228 269.051608 
L 81.422953 269.051608 
L 81.512678 268.343743 
L 81.692128 268.343743 
L 81.781853 267.635878 
L 81.871578 267.635878 
L 81.961303 265.795428 
L 82.051028 265.795428 
L 82.140753 265.512282 
L 82.320204 265.512282 
L 82.409929 263.813406 
L 82.499654 263.813406 
L 82.499654 263.247114 
L 82.679104 263.247114 
L 82.768829 260.981945 
L 82.858554 260.981945 
L 82.858554 259.849361 
L 83.038004 259.849361 
L 83.038004 259.707788 
L 83.217454 259.707788 
L 83.307179 258.85835 
L 83.396904 258.85835 
L 83.486629 258.575204 
L 83.666079 258.575204 
L 83.666079 258.433631 
L 83.845529 258.433631 
L 83.935254 258.008912 
L 84.024979 258.008912 
L 84.114704 257.301046 
L 84.204429 257.301046 
L 84.294154 256.593181 
L 84.383879 256.593181 
L 84.383879 256.026889 
L 84.742779 256.026889 
L 84.742779 255.60217 
L 84.92223 255.60217 
L 84.92223 255.177451 
L 85.10168 255.177451 
L 85.191405 254.611159 
L 85.370855 254.611159 
L 85.370855 254.18644 
L 85.64003 254.18644 
L 85.729755 253.761721 
L 85.909205 253.761721 
L 85.909205 253.195428 
L 86.17838 253.195428 
L 86.268105 251.496552 
L 86.35783 251.496552 
L 86.35783 251.213406 
L 86.53728 251.213406 
L 86.627005 250.505541 
L 86.71673 250.505541 
L 86.806455 249.939249 
L 86.985905 249.939249 
L 87.07563 248.240372 
L 87.165355 248.240372 
L 87.25508 247.532507 
L 87.344806 247.532507 
L 87.434531 247.249361 
L 87.613981 247.249361 
L 87.613981 247.107788 
L 87.793431 247.107788 
L 87.883156 245.692058 
L 87.972881 245.692058 
L 88.062606 245.125765 
L 88.421506 245.125765 
L 88.511231 244.134754 
L 88.600956 244.134754 
L 88.600956 243.851608 
L 88.780406 243.851608 
L 88.870131 242.719024 
L 89.049581 242.719024 
L 89.139306 241.869586 
L 89.318756 241.869586 
L 89.408481 241.303294 
L 89.767382 241.303294 
L 89.767382 239.321271 
L 89.946832 239.321271 
L 90.036557 238.896552 
L 90.216007 238.896552 
L 90.305732 238.471833 
L 90.395457 238.471833 
L 90.395457 238.33026 
L 90.574907 238.33026 
L 90.574907 237.905541 
L 90.844082 237.905541 
L 90.933807 236.348237 
L 91.023532 236.348237 
L 91.113257 236.065091 
L 91.202982 236.065091 
L 91.292707 235.781945 
L 91.561882 235.781945 
L 91.651607 235.357226 
L 91.741332 235.357226 
L 91.831057 235.07408 
L 92.010507 235.07408 
L 92.100232 234.366215 
L 92.279683 234.366215 
L 92.369408 233.092058 
L 92.548858 233.092058 
L 92.638583 232.101046 
L 92.818033 232.101046 
L 92.907758 231.251608 
L 92.997483 231.251608 
L 93.087208 230.40217 
L 93.176933 230.40217 
L 93.176933 230.119024 
L 93.446108 230.119024 
L 93.446108 229.694305 
L 93.625558 229.694305 
L 93.715283 228.703294 
L 93.984458 228.703294 
L 94.074183 228.137001 
L 94.163908 228.137001 
L 94.163908 227.995428 
L 94.343358 227.995428 
L 94.343358 227.853855 
L 94.881709 227.853855 
L 94.881709 227.570709 
L 95.061159 227.570709 
L 95.061159 227.14599 
L 95.330334 227.14599 
L 95.420059 226.296552 
L 95.689234 226.296552 
L 95.778959 225.871833 
L 95.958409 225.871833 
L 96.048134 225.588687 
L 96.317309 225.588687 
L 96.407034 225.022395 
L 96.496759 225.022395 
L 96.586484 224.597676 
L 96.676209 224.597676 
L 96.765934 224.172956 
L 96.945384 224.172956 
L 96.945384 224.031383 
L 97.21456 224.031383 
L 97.304285 223.748237 
L 97.39401 223.748237 
L 97.39401 222.757226 
L 97.842635 222.757226 
L 97.93236 222.47408 
L 98.201535 222.47408 
L 98.29126 222.190934 
L 98.380985 222.190934 
L 98.380985 222.049361 
L 98.65016 222.049361 
L 98.65016 221.766215 
L 98.919335 221.766215 
L 99.00906 221.483069 
L 99.18851 221.483069 
L 99.278235 220.916777 
L 99.457685 220.916777 
L 99.54741 220.208912 
L 99.906311 220.208912 
L 99.906311 219.359473 
L 100.085761 219.359473 
L 100.175486 218.368462 
L 100.265211 218.368462 
L 100.354936 217.943743 
L 100.534386 217.943743 
L 100.624111 217.094305 
L 101.162461 217.094305 
L 101.252186 216.669586 
L 101.341911 216.669586 
L 101.341911 216.528013 
L 101.700811 216.528013 
L 101.700811 216.38644 
L 102.059711 216.38644 
L 102.059711 216.244867 
L 102.239162 216.244867 
L 102.239162 216.103294 
L 102.687787 216.103294 
L 102.777512 215.537001 
L 102.867237 215.537001 
L 102.956962 215.112282 
L 103.046687 215.112282 
L 103.046687 214.970709 
L 103.405587 214.970709 
L 103.405587 214.829136 
L 103.585037 214.829136 
L 103.674762 214.121271 
L 103.764487 214.121271 
L 103.854212 213.838125 
L 103.943937 213.838125 
L 104.033662 213.554979 
L 104.123387 213.554979 
L 104.213112 212.988687 
L 104.482287 212.988687 
L 104.482287 212.705541 
L 104.661738 212.705541 
L 104.751463 211.997676 
L 104.841188 211.997676 
L 104.841188 211.856103 
L 105.110363 211.856103 
L 105.200088 211.148237 
L 105.558988 211.148237 
L 105.648713 210.723518 
L 105.828163 210.723518 
L 105.828163 210.440372 
L 106.007613 210.440372 
L 106.007613 210.298799 
L 106.187063 210.298799 
L 106.187063 210.015653 
L 106.366513 210.015653 
L 106.456238 209.449361 
L 106.545963 209.449361 
L 106.635688 209.024642 
L 106.815138 209.024642 
L 106.815138 208.741496 
L 107.084313 208.741496 
L 107.174039 208.45835 
L 107.981564 208.45835 
L 108.071289 208.175204 
L 108.340464 208.175204 
L 108.430189 207.750485 
L 108.609639 207.750485 
L 108.609639 207.608912 
L 108.789089 207.608912 
L 108.789089 207.184192 
L 109.058264 207.184192 
L 109.147989 206.334754 
L 109.237714 206.334754 
L 109.327439 205.485316 
L 109.417164 205.485316 
L 109.417164 205.343743 
L 109.596615 205.343743 
L 109.68634 204.777451 
L 109.776065 204.777451 
L 109.86579 204.494305 
L 110.04524 204.494305 
L 110.04524 204.069586 
L 110.22469 204.069586 
L 110.22469 203.78644 
L 110.493865 203.78644 
L 110.493865 203.644867 
L 110.673315 203.644867 
L 110.76304 203.078574 
L 110.852765 203.078574 
L 110.94249 202.795428 
L 111.12194 202.795428 
L 111.12194 202.512282 
L 111.391115 202.512282 
L 111.391115 202.229136 
L 111.570565 202.229136 
L 111.570565 202.087563 
L 111.750015 202.087563 
L 111.83974 201.238125 
L 111.929465 201.238125 
L 112.01919 199.963968 
L 112.198641 199.963968 
L 112.198641 199.539249 
L 112.467816 199.539249 
L 112.467816 199.397676 
L 112.647266 199.397676 
L 112.736991 198.831383 
L 113.006166 198.831383 
L 113.095891 197.698799 
L 113.365066 197.698799 
L 113.454791 197.415653 
L 113.723966 197.415653 
L 113.813691 196.849361 
L 113.903416 196.849361 
L 113.903416 196.707788 
L 114.172591 196.707788 
L 114.262316 196.283069 
L 114.531491 196.283069 
L 114.621217 195.999923 
L 114.710942 195.999923 
L 114.800667 195.292058 
L 115.339017 195.292058 
L 115.339017 195.008912 
L 115.518467 195.008912 
L 115.518467 194.725765 
L 115.697917 194.725765 
L 115.697917 194.584192 
L 115.877367 194.584192 
L 115.877367 194.442619 
L 116.146542 194.442619 
L 116.236267 194.0179 
L 116.325992 194.0179 
L 116.325992 193.876327 
L 116.505442 193.876327 
L 116.595167 193.593181 
L 116.774617 193.593181 
L 116.864342 192.743743 
L 116.954067 192.743743 
L 116.954067 192.460597 
L 117.223243 192.460597 
L 117.223243 192.035878 
L 117.492418 192.035878 
L 117.582143 191.469586 
L 117.941043 191.469586 
L 118.030768 191.044867 
L 118.120493 191.044867 
L 118.120493 190.903294 
L 118.569118 190.903294 
L 118.658843 190.337001 
L 118.838293 190.337001 
L 118.838293 190.053855 
L 119.017743 190.053855 
L 119.107468 189.629136 
L 119.197193 189.629136 
L 119.197193 189.487563 
L 119.376643 189.487563 
L 119.376643 189.34599 
L 119.645819 189.34599 
L 119.645819 189.204417 
L 120.094444 189.204417 
L 120.094444 189.062844 
L 120.363619 189.062844 
L 120.453344 188.779698 
L 120.722519 188.779698 
L 120.812244 188.071833 
L 120.991694 188.071833 
L 120.991694 187.788687 
L 121.260869 187.788687 
L 121.260869 187.647114 
L 121.619769 187.647114 
L 121.709494 187.222395 
L 122.068395 187.222395 
L 122.15812 186.939249 
L 122.33757 186.939249 
L 122.427295 186.08981 
L 122.606745 186.08981 
L 122.606745 185.665091 
L 122.87592 185.665091 
L 122.87592 185.381945 
L 123.145095 185.381945 
L 123.145095 185.240372 
L 123.41427 185.240372 
L 123.503995 184.532507 
L 123.683445 184.532507 
L 123.683445 184.390934 
L 123.862895 184.390934 
L 123.95262 184.107788 
L 124.13207 184.107788 
L 124.221795 183.824642 
L 124.31152 183.824642 
L 124.401245 183.541496 
L 124.490971 183.541496 
L 124.490971 183.25835 
L 124.849871 183.25835 
L 124.939596 182.975204 
L 125.208771 182.975204 
L 125.208771 182.833631 
L 125.477946 182.833631 
L 125.567671 182.550485 
L 125.747121 182.550485 
L 125.747121 182.408912 
L 126.016296 182.408912 
L 126.106021 182.125765 
L 126.195746 182.125765 
L 126.195746 181.842619 
L 126.375196 181.842619 
L 126.375196 181.701046 
L 126.644371 181.701046 
L 126.734096 180.851608 
L 127.362172 180.851608 
L 127.362172 180.568462 
L 127.541622 180.568462 
L 127.541622 180.285316 
L 127.900522 180.285316 
L 127.900522 179.577451 
L 128.079972 179.577451 
L 128.079972 179.011159 
L 128.528597 179.011159 
L 128.618322 178.58644 
L 128.797772 178.58644 
L 128.797772 178.444867 
L 129.156672 178.444867 
L 129.156672 178.303294 
L 129.695023 178.303294 
L 129.784748 177.737001 
L 129.964198 177.737001 
L 130.053923 177.170709 
L 130.143648 177.170709 
L 130.143648 177.029136 
L 130.502548 177.029136 
L 130.592273 176.321271 
L 130.681998 176.321271 
L 130.771723 176.038125 
L 130.951173 176.038125 
L 130.951173 175.471833 
L 131.220348 175.471833 
L 131.310073 175.188687 
L 131.579248 175.188687 
L 131.668973 174.905541 
L 132.117599 174.905541 
L 132.117599 174.763968 
L 132.655949 174.763968 
L 132.655949 174.622395 
L 132.925124 174.622395 
L 132.925124 174.339249 
L 133.104574 174.339249 
L 133.104574 173.914529 
L 133.284024 173.914529 
L 133.373749 172.640372 
L 133.463474 172.640372 
L 133.553199 172.07408 
L 134.091549 172.07408 
L 134.091549 171.932507 
L 134.45045 171.932507 
L 134.540175 171.507788 
L 134.80935 171.507788 
L 134.80935 171.366215 
L 134.9888 171.366215 
L 135.078525 170.65835 
L 135.3477 170.65835 
L 135.3477 170.233631 
L 135.88605 170.233631 
L 135.88605 169.950485 
L 136.4244 169.950485 
L 136.514125 169.667338 
L 136.873026 169.667338 
L 136.962751 169.101046 
L 137.142201 169.101046 
L 137.142201 168.393181 
L 137.590826 168.393181 
L 137.680551 167.543743 
L 137.770276 167.260597 
L 138.039451 167.260597 
L 138.039451 166.977451 
L 138.308626 166.977451 
L 138.308626 166.835878 
L 138.757251 166.835878 
L 138.757251 166.694305 
L 139.026426 166.694305 
L 139.116151 166.411159 
L 139.205876 166.411159 
L 139.205876 166.269586 
L 139.564777 166.269586 
L 139.564777 165.98644 
L 139.744227 165.98644 
L 139.744227 165.703294 
L 140.103127 165.703294 
L 140.103127 165.278574 
L 140.462027 165.278574 
L 140.551752 164.712282 
L 141.090102 164.712282 
L 141.090102 164.287563 
L 141.897628 164.287563 
L 141.987353 163.721271 
L 142.077078 163.721271 
L 142.077078 163.579698 
L 142.705153 163.579698 
L 142.705153 163.154979 
L 142.974328 163.154979 
L 142.974328 163.013406 
L 143.422953 163.013406 
L 143.512678 162.588687 
L 143.692128 162.588687 
L 143.692128 162.305541 
L 143.961303 162.305541 
L 143.961303 162.163968 
L 144.589379 162.163968 
L 144.589379 162.022395 
L 144.858554 162.022395 
L 144.858554 161.880822 
L 145.038004 161.880822 
L 145.127729 161.456103 
L 145.217454 161.456103 
L 145.307179 161.031383 
L 145.935254 161.031383 
L 145.935254 160.748237 
L 146.383879 160.748237 
L 146.473604 160.465091 
L 146.563329 160.465091 
L 146.563329 160.323518 
L 146.832505 160.323518 
L 146.92223 159.757226 
L 147.011955 159.757226 
L 147.011955 159.47408 
L 147.370855 159.47408 
L 147.370855 159.332507 
L 148.35783 159.332507 
L 148.35783 159.190934 
L 148.53728 159.190934 
L 148.53728 158.766215 
L 149.07563 158.766215 
L 149.07563 158.624642 
L 149.344806 158.624642 
L 149.434531 158.341496 
L 150.331781 158.341496 
L 150.331781 158.05835 
L 150.511231 158.05835 
L 150.511231 157.775204 
L 151.049581 157.775204 
L 151.049581 157.633631 
L 151.229031 157.633631 
L 151.318756 157.208912 
L 152.485182 157.208912 
L 152.485182 157.067338 
L 152.664632 157.067338 
L 152.664632 156.925765 
L 153.202982 156.925765 
L 153.202982 156.784192 
L 153.382432 156.784192 
L 153.472157 156.359473 
L 153.831057 156.359473 
L 153.831057 156.2179 
L 154.279683 156.2179 
L 154.369408 155.793181 
L 154.548858 155.793181 
L 154.638583 155.510035 
L 154.907758 155.510035 
L 154.907758 155.368462 
L 155.087208 155.368462 
L 155.176933 155.085316 
L 155.356383 155.085316 
L 155.356383 154.80217 
L 155.535833 154.80217 
L 155.535833 154.519024 
L 156.791984 154.519024 
L 156.791984 154.377451 
L 156.971434 154.377451 
L 156.971434 154.094305 
L 157.330334 154.094305 
L 157.330334 153.952732 
L 157.509784 153.952732 
L 157.509784 153.669586 
L 157.689234 153.669586 
L 157.778959 153.244867 
L 157.868684 153.244867 
L 157.868684 152.961721 
L 158.227584 152.961721 
L 158.317309 152.537001 
L 158.676209 152.537001 
L 158.676209 152.253855 
L 158.855659 152.253855 
L 158.945384 151.970709 
L 159.21456 151.970709 
L 159.304285 151.54599 
L 159.39401 151.54599 
L 159.483735 151.121271 
L 159.57346 151.121271 
L 159.57346 150.979698 
L 159.842635 150.979698 
L 159.842635 150.838125 
L 160.022085 150.838125 
L 160.022085 150.696552 
L 160.560435 150.696552 
L 160.560435 150.554979 
L 160.739885 150.554979 
L 160.82961 149.988687 
L 160.919335 149.988687 
L 160.919335 149.847114 
L 161.098785 149.847114 
L 161.098785 149.705541 
L 161.36796 149.705541 
L 161.36796 149.563968 
L 161.726861 149.563968 
L 161.726861 149.422395 
L 162.085761 149.422395 
L 162.175486 149.139249 
L 162.265211 149.139249 
L 162.354936 148.572956 
L 162.444661 148.572956 
L 162.444661 148.431383 
L 163.252186 148.431383 
L 163.252186 148.28981 
L 163.790536 148.28981 
L 163.790536 148.148237 
L 163.969986 148.148237 
L 163.969986 147.865091 
L 164.149437 147.865091 
L 164.149437 147.723518 
L 164.508337 147.723518 
L 164.598062 147.298799 
L 165.674762 147.298799 
L 165.674762 146.732507 
L 166.302837 146.732507 
L 166.392562 146.307788 
L 166.482287 146.307788 
L 166.482287 146.166215 
L 166.751463 146.166215 
L 166.751463 146.024642 
L 166.930913 146.024642 
L 167.020638 145.599923 
L 167.469263 145.599923 
L 167.558988 145.033631 
L 168.007613 145.033631 
L 168.097338 144.608912 
L 168.187063 144.608912 
L 168.187063 144.467338 
L 168.815138 144.467338 
L 168.904863 144.184192 
L 169.084313 144.184192 
L 169.174039 143.901046 
L 169.263764 143.901046 
L 169.263764 143.6179 
L 169.532939 143.6179 
L 169.532939 143.334754 
L 169.802114 143.334754 
L 169.802114 143.193181 
L 170.250739 143.193181 
L 170.340464 142.768462 
L 170.609639 142.768462 
L 170.699364 141.919024 
L 170.789089 141.919024 
L 170.878814 141.494305 
L 170.968539 141.494305 
L 170.968539 141.352732 
L 171.237714 141.352732 
L 171.327439 140.928013 
L 171.506889 140.928013 
L 171.596615 140.644867 
L 171.776065 140.644867 
L 171.86579 140.220147 
L 172.04524 140.220147 
L 172.134965 139.795428 
L 172.22469 139.795428 
L 172.22469 139.512282 
L 172.40414 139.512282 
L 172.40414 139.370709 
L 172.58359 139.370709 
L 172.58359 139.229136 
L 173.12194 139.229136 
L 173.12194 138.94599 
L 173.30139 138.94599 
L 173.391115 138.521271 
L 173.570565 138.521271 
L 173.570565 138.379698 
L 174.288366 138.379698 
L 174.378091 138.096552 
L 174.647266 138.096552 
L 174.647266 137.954979 
L 174.826716 137.954979 
L 174.826716 137.813406 
L 175.006166 137.813406 
L 175.006166 137.671833 
L 175.185616 137.671833 
L 175.185616 137.53026 
L 175.634241 137.53026 
L 175.723966 137.247114 
L 175.813691 137.247114 
L 175.903416 136.963968 
L 176.172591 136.963968 
L 176.172591 136.680822 
L 176.980117 136.680822 
L 176.980117 136.539249 
L 177.159567 136.539249 
L 177.159567 136.397676 
L 177.339017 136.397676 
L 177.339017 135.831383 
L 177.608192 135.831383 
L 177.697917 135.406664 
L 177.787642 135.406664 
L 177.787642 135.265091 
L 177.967092 135.265091 
L 177.967092 135.123518 
L 178.236267 135.123518 
L 178.236267 134.840372 
L 178.415717 134.840372 
L 178.505442 134.415653 
L 178.864342 134.415653 
L 178.864342 134.27408 
L 179.043793 134.27408 
L 179.043793 134.132507 
L 179.312968 134.132507 
L 179.312968 133.990934 
L 180.120493 133.990934 
L 180.120493 133.849361 
L 180.389668 133.849361 
L 180.389668 133.707788 
L 180.569118 133.707788 
L 180.658843 133.283069 
L 181.017743 133.283069 
L 181.017743 133.141496 
L 181.197193 133.141496 
L 181.286918 132.85835 
L 182.273894 132.85835 
L 182.273894 132.575204 
L 182.453344 132.575204 
L 182.543069 132.008912 
L 182.632794 132.008912 
L 182.632794 131.867338 
L 183.530044 131.867338 
L 183.530044 131.584192 
L 183.888944 131.584192 
L 183.888944 131.442619 
L 184.247845 131.442619 
L 184.247845 131.301046 
L 184.427295 131.301046 
L 184.427295 131.159473 
L 184.786195 131.159473 
L 184.87592 130.876327 
L 184.965645 130.876327 
L 185.05537 130.593181 
L 185.23482 130.593181 
L 185.324545 130.310035 
L 185.77317 130.310035 
L 185.77317 130.026889 
L 185.95262 130.026889 
L 185.95262 129.460597 
L 186.31152 129.460597 
L 186.31152 129.319024 
L 186.939596 129.319024 
L 186.939596 129.177451 
L 187.298496 129.177451 
L 187.298496 129.035878 
L 187.926571 129.035878 
L 187.926571 128.894305 
L 188.554646 128.894305 
L 188.554646 128.752732 
L 188.734096 128.752732 
L 188.823821 128.469586 
L 189.541622 128.469586 
L 189.541622 128.044867 
L 189.721072 128.044867 
L 189.810797 127.761721 
L 190.079972 127.761721 
L 190.079972 127.620147 
L 190.528597 127.620147 
L 190.618322 127.337001 
L 190.708047 127.337001 
L 190.708047 127.195428 
L 190.977222 127.195428 
L 190.977222 127.053855 
L 191.246397 127.053855 
L 191.336122 126.770709 
L 191.425848 126.770709 
L 191.425848 126.629136 
L 191.605298 126.629136 
L 191.605298 126.487563 
L 191.874473 126.487563 
L 191.874473 126.34599 
L 192.143648 126.34599 
L 192.143648 125.921271 
L 192.412823 125.921271 
L 192.502548 125.638125 
L 192.681998 125.638125 
L 192.681998 125.496552 
L 193.848423 125.496552 
L 193.848423 125.354979 
L 194.207324 125.354979 
L 194.297049 124.93026 
L 194.655949 124.93026 
L 194.655949 124.788687 
L 194.835399 124.788687 
L 194.835399 124.505541 
L 195.284024 124.505541 
L 195.284024 124.363968 
L 195.822374 124.363968 
L 195.822374 124.080822 
L 196.6299 124.080822 
L 196.719625 123.656103 
L 197.616875 123.656103 
L 197.7066 123.08981 
L 197.796325 123.08981 
L 197.796325 122.948237 
L 198.4244 122.948237 
L 198.4244 122.806664 
L 198.873026 122.806664 
L 198.873026 122.523518 
L 199.052476 122.523518 
L 199.052476 122.381945 
L 199.411376 122.381945 
L 199.501101 122.098799 
L 199.590826 122.098799 
L 199.590826 121.957226 
L 199.770276 121.957226 
L 199.770276 121.815653 
L 200.667526 121.815653 
L 200.667526 121.67408 
L 201.205876 121.67408 
L 201.205876 121.532507 
L 201.295601 121.532507 
L 201.654502 121.532507 
L 201.654502 121.249361 
L 201.833952 121.249361 
L 201.833952 121.107788 
L 202.731202 121.107788 
L 202.731202 120.966215 
L 202.910652 120.966215 
L 202.910652 120.824642 
L 203.090102 120.824642 
L 203.179827 120.399923 
L 203.897628 120.399923 
L 203.897628 120.25835 
L 204.705153 120.25835 
L 204.794878 119.833631 
L 205.243503 119.833631 
L 205.243503 119.550485 
L 206.230478 119.550485 
L 206.230478 119.408912 
L 207.396904 119.408912 
L 207.396904 119.267338 
L 207.576354 119.267338 
L 207.666079 118.4179 
L 208.024979 118.4179 
L 208.024979 118.276327 
L 208.204429 118.276327 
L 208.204429 117.710035 
L 208.473604 117.710035 
L 208.563329 117.426889 
L 208.742779 117.426889 
L 208.742779 117.285316 
L 209.011955 117.285316 
L 209.011955 117.143743 
L 209.191405 117.143743 
L 209.191405 117.00217 
L 209.64003 117.00217 
L 209.729755 116.577451 
L 209.81948 116.577451 
L 209.81948 116.294305 
L 210.35783 116.294305 
L 210.35783 116.152732 
L 210.89618 116.152732 
L 210.89618 116.011159 
L 211.165355 116.011159 
L 211.165355 115.728013 
L 212.242056 115.728013 
L 212.331781 115.444867 
L 213.857107 115.444867 
L 213.857107 115.303294 
L 214.305732 115.303294 
L 214.395457 115.020147 
L 214.485182 115.020147 
L 214.574907 114.595428 
L 214.754357 114.595428 
L 214.754357 114.170709 
L 214.933807 114.170709 
L 215.023532 113.74599 
L 215.292707 113.74599 
L 215.292707 113.604417 
L 215.831057 113.604417 
L 215.831057 113.462844 
L 216.459133 113.462844 
L 216.548858 113.179698 
L 216.638583 113.179698 
L 216.638583 112.896552 
L 217.446108 112.896552 
L 217.446108 112.613406 
L 218.433083 112.613406 
L 218.433083 112.471833 
L 219.240609 112.471833 
L 219.240609 112.188687 
L 219.599509 112.188687 
L 219.599509 111.339249 
L 220.227584 111.339249 
L 220.317309 111.056103 
L 220.496759 111.056103 
L 220.496759 110.914529 
L 221.035109 110.914529 
L 221.124834 110.631383 
L 221.21456 110.631383 
L 221.21456 110.48981 
L 222.11181 110.48981 
L 222.11181 110.065091 
L 222.82961 110.065091 
L 222.919335 109.781945 
L 223.278235 109.781945 
L 223.278235 109.640372 
L 223.996036 109.640372 
L 223.996036 109.498799 
L 224.354936 109.498799 
L 224.354936 109.357226 
L 224.983011 109.357226 
L 225.072736 109.07408 
L 225.162461 109.07408 
L 225.252186 108.790934 
L 225.341911 108.790934 
L 225.431636 108.224642 
L 226.598062 108.224642 
L 226.598062 107.516777 
L 227.046687 107.516777 
L 227.046687 107.375204 
L 227.226137 107.375204 
L 227.226137 107.092058 
L 227.495312 107.092058 
L 227.495312 106.950485 
L 227.674762 106.950485 
L 227.764487 106.525765 
L 227.943937 106.525765 
L 227.943937 106.384192 
L 228.213112 106.384192 
L 228.213112 106.242619 
L 228.482287 106.242619 
L 228.482287 106.101046 
L 229.200088 106.101046 
L 229.200088 105.8179 
L 229.379538 105.8179 
L 229.379538 105.676327 
L 229.917888 105.676327 
L 229.917888 105.534754 
L 230.366513 105.534754 
L 230.456238 105.110035 
L 230.635688 105.110035 
L 230.635688 104.968462 
L 231.084313 104.968462 
L 231.084313 104.685316 
L 231.443214 104.685316 
L 231.443214 104.543743 
L 231.802114 104.543743 
L 231.802114 104.40217 
L 232.340464 104.40217 
L 232.430189 103.977451 
L 232.519914 103.977451 
L 232.519914 103.694305 
L 232.789089 103.694305 
L 233.058264 103.269586 
L 233.237714 103.269586 
L 233.237714 103.128013 
L 233.506889 103.128013 
L 233.506889 102.844867 
L 233.86579 102.844867 
L 233.86579 102.703294 
L 234.58359 102.703294 
L 234.58359 102.561721 
L 235.391115 102.561721 
L 235.391115 102.420147 
L 235.83974 102.420147 
L 235.83974 102.137001 
L 236.826716 102.137001 
L 236.826716 101.712282 
L 237.095891 101.712282 
L 237.185616 101.429136 
L 237.634241 101.429136 
L 237.634241 101.287563 
L 238.082866 101.287563 
L 238.082866 101.14599 
L 238.621217 101.14599 
L 238.621217 101.004417 
L 238.800667 101.004417 
L 238.800667 100.862844 
L 239.159567 100.862844 
L 239.159567 100.721271 
L 239.967092 100.721271 
L 239.967092 100.579698 
L 240.146542 100.579698 
L 240.146542 100.438125 
L 240.954067 100.438125 
L 240.954067 100.296552 
L 241.671868 100.296552 
L 241.761593 100.013406 
L 242.479393 100.013406 
L 242.569118 99.73026 
L 243.107468 99.73026 
L 243.107468 99.588687 
L 243.556094 99.588687 
L 243.556094 99.447114 
L 244.184169 99.447114 
L 244.184169 99.305541 
L 244.453344 99.305541 
L 244.543069 98.739249 
L 244.812244 98.739249 
L 244.812244 98.597676 
L 244.991694 98.597676 
L 244.991694 98.456103 
L 245.97867 98.456103 
L 245.97867 98.314529 
L 246.606745 98.314529 
L 246.69647 97.88981 
L 246.87592 97.88981 
L 246.965645 97.606664 
L 247.683445 97.606664 
L 247.683445 97.465091 
L 247.95262 97.465091 
L 248.042345 97.181945 
L 249.029321 97.181945 
L 249.119046 96.898799 
L 249.298496 96.898799 
L 249.298496 96.757226 
L 249.747121 96.757226 
L 249.747121 96.615653 
L 250.106021 96.615653 
L 250.106021 96.47408 
L 250.644371 96.47408 
L 250.644371 96.332507 
L 251.721072 96.332507 
L 251.721072 96.049361 
L 251.900522 96.049361 
L 251.900522 95.907788 
L 252.079972 95.907788 
L 252.079972 95.766215 
L 252.438872 95.766215 
L 252.438872 95.624642 
L 252.618322 95.624642 
L 252.618322 95.483069 
L 252.887497 95.483069 
L 252.977222 95.199923 
L 253.156672 95.199923 
L 253.246397 94.775204 
L 254.412823 94.775204 
L 254.412823 94.633631 
L 255.399798 94.633631 
L 255.399798 94.492058 
L 256.386774 94.492058 
L 256.386774 94.350485 
L 257.104574 94.350485 
L 257.104574 94.208912 
L 257.373749 94.208912 
L 257.373749 94.067338 
L 258.270999 94.067338 
L 258.270999 93.784192 
L 258.9888 93.784192 
L 258.9888 93.642619 
L 259.16825 93.642619 
L 259.16825 93.501046 
L 259.616875 93.501046 
L 259.616875 93.2179 
L 259.796325 93.2179 
L 259.796325 93.076327 
L 260.7833 93.076327 
L 260.873026 92.934754 
L 261.860001 92.934754 
L 261.860001 92.651608 
L 262.039451 92.651608 
L 262.129176 92.368462 
L 262.577801 92.368462 
L 262.577801 92.085316 
L 263.385327 92.085316 
L 263.385327 91.943743 
L 263.833952 91.943743 
L 263.923677 91.660597 
L 264.192852 91.660597 
L 264.192852 91.519024 
L 265.449002 91.519024 
L 265.449002 91.377451 
L 265.718177 91.377451 
L 265.718177 91.094305 
L 265.987353 91.094305 
L 266.077078 90.528013 
L 266.884603 90.528013 
L 266.884603 90.38644 
L 267.243503 90.38644 
L 267.243503 90.244867 
L 267.422953 90.244867 
L 267.422953 90.103294 
L 268.948279 90.103294 
L 268.948279 89.678574 
L 270.114704 89.678574 
L 270.114704 89.537001 
L 271.28113 89.537001 
L 271.370855 89.253855 
L 271.46058 89.253855 
L 271.46058 89.112282 
L 272.088655 89.112282 
L 272.088655 88.970709 
L 273.434531 88.970709 
L 273.434531 88.829136 
L 274.600956 88.829136 
L 274.600956 88.687563 
L 274.959856 88.687563 
L 274.959856 88.54599 
L 275.408481 88.54599 
L 275.498206 88.262844 
L 275.857107 88.262844 
L 275.857107 88.121271 
L 276.126282 88.121271 
L 276.126282 87.979698 
L 276.395457 87.979698 
L 276.395457 87.696552 
L 276.574907 87.696552 
L 276.664632 87.271833 
L 276.933807 87.271833 
L 276.933807 87.13026 
L 277.472157 87.13026 
L 277.472157 86.988687 
L 278.638583 86.988687 
L 278.638583 86.705541 
L 278.818033 86.705541 
L 278.818033 86.422395 
L 279.356383 86.422395 
L 279.356383 86.280822 
L 279.625558 86.280822 
L 279.715283 85.572956 
L 281.599509 85.572956 
L 281.599509 85.28981 
L 281.778959 85.28981 
L 281.778959 85.148237 
L 282.227584 85.148237 
L 282.227584 85.006664 
L 282.676209 85.006664 
L 282.676209 84.865091 
L 283.124834 84.865091 
L 283.21456 84.440372 
L 285.278235 84.440372 
L 285.278235 84.157226 
L 285.457685 84.157226 
L 285.54741 83.87408 
L 287.162461 83.87408 
L 287.162461 83.732507 
L 288.149437 83.732507 
L 288.149437 83.307788 
L 288.328887 83.307788 
L 288.328887 83.166215 
L 288.777512 83.166215 
L 288.777512 83.024642 
L 289.315862 83.024642 
L 289.315862 82.883069 
L 289.585037 82.883069 
L 289.585037 82.741496 
L 290.213112 82.741496 
L 290.213112 82.599923 
L 290.392562 82.599923 
L 290.392562 82.45835 
L 291.020638 82.45835 
L 291.020638 82.316777 
L 291.289813 82.316777 
L 291.379538 82.175204 
L 293.802114 82.175204 
L 293.802114 81.892058 
L 294.519914 81.892058 
L 294.519914 81.750485 
L 294.878814 81.750485 
L 294.878814 81.608912 
L 295.68634 81.608912 
L 295.68634 81.325765 
L 296.314415 81.325765 
L 296.40414 81.042619 
L 296.493865 81.042619 
L 296.493865 80.759473 
L 296.852765 80.759473 
L 296.852765 80.6179 
L 297.12194 80.6179 
L 297.12194 80.476327 
L 297.391115 80.476327 
L 297.391115 80.334754 
L 297.750015 80.334754 
L 297.750015 80.193181 
L 300.441766 80.193181 
L 300.441766 80.051608 
L 302.146542 80.051608 
L 302.146542 79.910035 
L 302.595167 79.910035 
L 302.595167 79.626889 
L 302.864342 79.626889 
L 302.864342 79.485316 
L 303.492418 79.485316 
L 303.492418 79.20217 
L 304.210218 79.20217 
L 304.210218 79.060597 
L 304.928018 79.060597 
L 305.017743 78.777451 
L 305.914994 78.777451 
L 305.914994 78.494305 
L 307.709494 78.494305 
L 307.709494 78.352732 
L 308.068395 78.352732 
L 308.068395 78.211159 
L 308.33757 78.211159 
L 308.33757 78.069586 
L 308.87592 78.069586 
L 308.87592 77.928013 
L 309.862895 77.928013 
L 309.95262 77.644867 
L 310.31152 77.644867 
L 310.401245 77.220147 
L 311.836846 77.220147 
L 311.836846 77.078574 
L 312.734096 77.078574 
L 312.734096 76.937001 
L 313.092997 76.937001 
L 313.092997 76.795428 
L 313.990247 76.795428 
L 313.990247 76.512282 
L 315.156672 76.512282 
L 315.156672 76.229136 
L 315.784748 76.229136 
L 315.784748 76.087563 
L 317.220348 76.087563 
L 317.220348 75.804417 
L 317.848423 75.804417 
L 317.848423 75.662844 
L 318.297049 75.662844 
L 318.297049 75.521271 
L 318.476499 75.521271 
L 318.476499 75.238125 
L 318.655949 75.238125 
L 318.655949 75.096552 
L 319.642924 75.096552 
L 319.642924 74.813406 
L 319.822374 74.813406 
L 319.912099 74.53026 
L 320.270999 74.53026 
L 320.270999 74.247114 
L 320.6299 74.247114 
L 320.6299 74.105541 
L 320.80935 74.105541 
L 320.899075 73.822395 
L 321.52715 73.822395 
L 321.616875 73.539249 
L 321.7066 73.539249 
L 321.7066 73.397676 
L 322.155225 73.397676 
L 322.155225 73.114529 
L 324.039451 73.114529 
L 324.039451 72.831383 
L 324.218901 72.831383 
L 324.218901 72.68981 
L 325.205876 72.68981 
L 325.205876 72.548237 
L 325.475052 72.548237 
L 325.475052 72.406664 
L 326.192852 72.406664 
L 326.192852 72.265091 
L 326.910652 72.265091 
L 327.000377 71.981945 
L 327.269552 71.981945 
L 327.359277 71.698799 
L 327.987353 71.698799 
L 327.987353 71.557226 
L 328.615428 71.557226 
L 328.705153 71.132507 
L 329.512678 71.132507 
L 329.512678 70.990934 
L 330.948279 70.990934 
L 330.948279 70.849361 
L 331.576354 70.849361 
L 331.576354 70.707788 
L 332.563329 70.707788 
L 332.563329 70.566215 
L 333.10168 70.566215 
L 333.10168 70.424642 
L 333.64003 70.424642 
L 333.64003 70.283069 
L 334.35783 70.283069 
L 334.35783 70.141496 
L 334.71673 70.141496 
L 334.71673 69.999923 
L 335.07563 69.999923 
L 335.07563 69.85835 
L 335.524256 69.85835 
L 335.524256 69.575204 
L 335.793431 69.575204 
L 335.793431 69.433631 
L 336.331781 69.433631 
L 336.331781 69.292058 
L 339.113257 69.292058 
L 339.113257 69.150485 
L 339.472157 69.150485 
L 339.472157 69.008912 
L 340.369408 69.008912 
L 340.369408 68.867338 
L 340.728308 68.867338 
L 340.728308 68.584192 
L 341.266658 68.584192 
L 341.266658 68.442619 
L 341.535833 68.442619 
L 341.625558 68.159473 
L 342.971434 68.159473 
L 342.971434 68.0179 
L 343.420059 68.0179 
L 343.420059 67.734754 
L 343.778959 67.734754 
L 343.778959 67.593181 
L 344.317309 67.593181 
L 344.317309 67.451608 
L 346.11181 67.451608 
L 346.11181 67.168462 
L 346.739885 67.168462 
L 346.739885 67.026889 
L 348.893286 67.026889 
L 348.893286 66.885316 
L 349.162461 66.885316 
L 349.162461 66.743743 
L 349.521361 66.743743 
L 349.521361 66.60217 
L 349.700811 66.60217 
L 349.700811 66.319024 
L 350.328887 66.319024 
L 350.328887 66.177451 
L 350.687787 66.177451 
L 350.687787 66.035878 
L 350.867237 66.035878 
L 350.956962 65.611159 
L 351.315862 65.611159 
L 351.315862 65.18644 
L 352.033662 65.18644 
L 352.033662 65.044867 
L 352.661738 65.044867 
L 352.661738 64.761721 
L 352.930913 64.761721 
L 352.930913 64.478574 
L 353.379538 64.478574 
L 353.379538 64.337001 
L 354.545963 64.337001 
L 354.635688 64.053855 
L 356.340464 64.053855 
L 356.340464 63.912282 
L 356.609639 63.912282 
L 356.699364 63.487563 
L 357.327439 63.487563 
L 357.417164 63.204417 
L 358.314415 63.204417 
L 358.40414 63.062844 
L 358.76304 63.062844 
L 358.76304 62.921271 
L 359.929465 62.921271 
L 359.929465 62.779698 
L 361.275341 62.779698 
L 361.275341 62.638125 
L 361.634241 62.638125 
L 361.634241 62.496552 
L 362.262316 62.496552 
L 362.352041 62.071833 
L 362.710942 62.071833 
L 362.800667 61.788687 
L 365.402693 61.788687 
L 365.402693 61.647114 
L 366.658843 61.647114 
L 366.658843 61.222395 
L 366.838293 61.222395 
L 366.838293 61.080822 
L 369.350594 61.080822 
L 369.350594 60.939249 
L 369.530044 60.939249 
L 369.619769 60.656103 
L 370.965645 60.656103 
L 370.965645 60.372956 
L 371.41427 60.372956 
L 371.41427 60.231383 
L 371.77317 60.231383 
L 371.77317 60.08981 
L 372.221795 60.08981 
L 372.221795 59.948237 
L 372.580696 59.948237 
L 372.580696 59.806664 
L 372.849871 59.806664 
L 372.849871 59.665091 
L 373.119046 59.665091 
L 373.119046 59.381945 
L 374.823821 59.381945 
L 374.823821 59.240372 
L 375.003272 59.240372 
L 375.003272 59.098799 
L 375.541622 59.098799 
L 375.631347 58.815653 
L 376.259422 58.815653 
L 376.259422 58.67408 
L 377.156672 58.67408 
L 377.156672 58.390934 
L 378.053923 58.390934 
L 378.053923 58.249361 
L 378.861448 58.249361 
L 378.861448 58.107788 
L 379.040898 58.107788 
L 379.040898 57.966215 
L 379.938149 57.966215 
L 379.938149 57.824642 
L 380.117599 57.824642 
L 380.117599 57.683069 
L 380.386774 57.683069 
L 380.386774 57.541496 
L 381.463474 57.541496 
L 381.463474 57.399923 
L 382.001824 57.399923 
L 382.001824 57.116777 
L 382.45045 57.116777 
L 382.45045 56.975204 
L 382.6299 56.975204 
L 382.6299 56.692058 
L 383.16825 56.692058 
L 383.16825 56.550485 
L 383.7066 56.550485 
L 383.796325 56.267338 
L 385.860001 56.267338 
L 385.949726 55.984192 
L 386.129176 55.984192 
L 386.129176 55.842619 
L 386.488076 55.842619 
L 386.488076 55.701046 
L 387.295601 55.701046 
L 387.295601 55.559473 
L 388.910652 55.559473 
L 388.910652 55.4179 
L 389.628452 55.4179 
L 389.628452 55.276327 
L 390.077078 55.276327 
L 390.077078 55.134754 
L 390.974328 55.134754 
L 390.974328 54.993181 
L 392.858554 54.993181 
L 392.858554 54.851608 
L 393.038004 54.851608 
L 393.038004 54.710035 
L 394.383879 54.710035 
L 394.383879 54.426889 
L 394.832505 54.426889 
L 394.832505 54.285316 
L 395.191405 54.285316 
L 395.191405 54.00217 
L 395.81948 54.00217 
L 395.81948 53.860597 
L 396.447555 53.860597 
L 396.447555 53.719024 
L 396.627005 53.719024 
L 396.71673 53.294305 
L 396.985905 53.294305 
L 396.985905 53.152732 
L 397.613981 53.152732 
L 397.613981 53.011159 
L 399.139306 53.011159 
L 399.139306 52.869586 
L 402.638583 52.869586 
L 402.638583 52.728013 
L 407.124834 52.728013 
L 407.124834 52.58644 
L 407.39401 52.58644 
L 407.39401 52.444867 
L 407.663185 52.444867 
L 407.663185 52.303294 
L 408.11181 52.303294 
L 408.11181 52.161721 
L 408.380985 52.161721 
L 408.380985 51.878574 
L 408.82961 51.878574 
L 408.82961 51.595428 
L 409.18851 51.595428 
L 409.18851 51.453855 
L 409.36796 51.453855 
L 409.36796 51.312282 
L 412.149437 51.312282 
L 412.149437 51.170709 
L 412.508337 51.170709 
L 412.508337 51.029136 
L 413.136412 51.029136 
L 413.136412 50.887563 
L 413.943937 50.887563 
L 413.943937 50.74599 
L 416.276788 50.74599 
L 416.276788 50.462844 
L 419.058264 50.462844 
L 419.058264 50.321271 
L 419.955515 50.321271 
L 419.955515 50.179698 
L 421.211665 50.179698 
L 421.211665 50.038125 
L 421.570565 50.038125 
L 421.570565 49.896552 
L 423.544516 49.896552 
L 423.544516 49.613406 
L 424.352041 49.613406 
L 424.352041 49.471833 
L 425.428742 49.471833 
L 425.428742 49.188687 
L 425.877367 49.188687 
L 425.877367 49.047114 
L 428.210218 49.047114 
L 428.210218 48.905541 
L 429.107468 48.905541 
L 429.197193 48.622395 
L 432.786195 48.622395 
L 432.87592 48.339249 
L 434.31152 48.339249 
L 434.31152 48.197676 
L 435.119046 48.197676 
L 435.119046 48.056103 
L 436.554646 48.056103 
L 436.554646 47.914529 
L 437.182722 47.914529 
L 437.182722 47.772956 
L 437.721072 47.772956 
L 437.721072 47.631383 
L 438.259422 47.631383 
L 438.259422 47.206664 
L 438.797772 47.206664 
L 438.797772 47.065091 
L 439.874473 47.065091 
L 439.874473 46.923518 
L 441.040898 46.923518 
L 441.040898 46.781945 
L 441.938149 46.781945 
L 441.938149 46.640372 
L 442.835399 46.640372 
L 442.835399 46.498799 
L 443.642924 46.498799 
L 443.642924 46.357226 
L 443.912099 46.357226 
L 443.912099 46.215653 
L 445.16825 46.215653 
L 445.257975 45.932507 
L 446.962751 45.932507 
L 446.962751 45.790934 
L 447.231926 45.790934 
L 447.231926 45.649361 
L 449.385327 45.649361 
L 449.475052 45.366215 
L 451.359277 45.366215 
L 451.359277 45.224642 
L 453.064053 45.224642 
L 453.153778 44.941496 
L 453.781853 44.941496 
L 453.781853 44.799923 
L 455.127729 44.799923 
L 455.127729 44.65835 
L 456.742779 44.65835 
L 456.742779 44.375204 
L 457.370855 44.375204 
L 457.370855 44.233631 
L 457.729755 44.233631 
L 457.729755 44.092058 
L 463.561882 44.092058 
L 463.561882 43.950485 
L 467.778959 43.950485 
L 467.778959 43.808912 
L 468.137859 43.808912 
L 468.137859 43.667338 
L 471.278235 43.667338 
L 471.278235 43.525765 
L 471.726861 43.525765 
L 471.726861 43.384192 
L 473.700811 43.384192 
L 473.700811 43.242619 
L 479.443214 43.242619 
L 479.443214 43.101046 
L 480.699364 43.101046 
L 480.699364 42.959473 
L 481.68634 42.959473 
L 481.776065 42.676327 
L 483.391115 42.676327 
L 483.391115 42.534754 
L 493.440319 42.534754 
L 493.440319 42.393181 
L 494.33757 42.393181 
L 494.33757 42.251608 
L 494.965645 42.251608 
L 494.965645 42.110035 
L 496.221795 42.110035 
L 496.221795 41.968462 
L 497.657396 41.968462 
L 497.657396 41.685316 
L 500.259422 41.685316 
L 500.259422 41.543743 
L 500.528597 41.543743 
L 500.528597 41.40217 
L 505.014849 41.40217 
L 505.014849 41.260597 
L 508.0655 41.260597 
L 508.0655 41.119024 
L 509.770276 41.119024 
L 509.770276 40.977451 
L 514.435978 40.977451 
L 514.435978 40.694305 
L 516.768829 40.694305 
L 516.768829 40.552732 
L 519.99893 40.552732 
L 519.99893 40.411159 
L 521.883156 40.411159 
L 521.883156 40.269586 
L 524.574907 40.269586 
L 524.574907 40.128013 
L 526.997483 40.128013 
L 526.997483 39.98644 
L 527.535833 39.98644 
L 527.535833 39.844867 
L 529.061159 39.844867 
L 529.061159 39.703294 
L 529.868684 39.703294 
L 529.868684 39.561721 
L 531.93236 39.561721 
L 531.93236 39.420147 
L 533.906311 39.420147 
L 533.906311 39.278574 
L 534.175486 39.278574 
L 534.175486 39.137001 
L 538.841188 39.137001 
L 538.841188 38.995428 
L 540.456238 38.995428 
L 540.456238 38.853855 
L 550.056817 38.853855 
L 550.056817 38.712282 
L 553.107468 38.712282 
L 553.107468 38.570709 
L 556.33757 38.570709 
L 556.427295 38.287563 
L 557.503995 38.287563 
L 557.503995 38.14599 
L 559.657396 38.14599 
L 559.657396 38.004417 
L 559.926571 38.004417 
L 559.926571 37.862844 
L 572.577801 37.862844 
L 572.577801 37.721271 
L 576.884603 37.721271 
L 576.884603 37.579698 
L 598.956962 37.579698 
L 598.956962 37.438125 
L 631.616875 37.438125 
L 631.616875 37.438125 
" clip-path="url(#pf430526843)" style="fill: none; stroke: #1f77b4; stroke-width: 1.5; stroke-linecap: square"/>
   </g>
   <g id="line2d_26">
    <path d="M 73.616875 339.838125 
L 73.616875 292.674822 
L 74.291603 292.674822 
L 74.291603 284.351886 
L 74.966331 284.351886 
L 74.966331 278.803263 
L 75.641059 278.803263 
L 75.641059 276.028951 
L 77.665243 276.028951 
L 77.665243 270.480327 
L 78.339971 270.480327 
L 78.339971 267.706015 
L 79.689426 267.706015 
L 79.689426 256.608767 
L 81.038882 256.608767 
L 81.038882 251.060143 
L 81.71361 251.060143 
L 81.71361 245.511519 
L 82.388338 245.511519 
L 82.388338 239.962896 
L 84.412522 239.962896 
L 84.412522 237.188584 
L 87.111434 237.188584 
L 87.111434 234.414272 
L 87.786162 234.414272 
L 87.786162 231.63996 
L 88.46089 231.63996 
L 88.46089 226.091336 
L 89.135617 226.091336 
L 89.135617 220.542712 
L 89.810345 220.542712 
L 89.810345 217.7684 
L 90.485073 217.7684 
L 90.485073 214.994088 
L 91.834529 214.994088 
L 91.834529 212.219776 
L 95.882897 212.219776 
L 95.882897 206.671153 
L 97.907081 206.671153 
L 97.907081 203.896841 
L 101.955448 203.896841 
L 101.955448 198.348217 
L 102.630176 198.348217 
L 102.630176 195.573905 
L 103.304904 195.573905 
L 103.304904 192.799593 
L 108.702727 192.799593 
L 108.702727 190.025281 
L 111.401639 190.025281 
L 111.401639 187.250969 
L 112.076367 187.250969 
L 112.076367 184.476657 
L 114.100551 184.476657 
L 114.100551 181.702345 
L 122.872014 181.702345 
L 122.872014 178.928033 
L 126.245654 178.928033 
L 126.245654 176.153721 
L 130.294021 176.153721 
L 130.294021 173.379409 
L 134.342389 173.379409 
L 134.342389 170.605097 
L 145.812764 170.605097 
L 145.812764 167.830786 
L 147.16222 167.830786 
L 147.16222 165.056474 
L 148.511675 165.056474 
L 148.511675 162.282162 
L 149.186403 162.282162 
L 149.186403 159.50785 
L 157.283139 159.50785 
L 157.283139 156.733538 
L 159.98205 156.733538 
L 159.98205 153.959226 
L 166.72933 153.959226 
L 166.72933 151.184914 
L 168.078786 151.184914 
L 168.078786 148.410602 
L 168.753513 148.410602 
L 168.753513 145.63629 
L 174.151337 145.63629 
L 174.151337 142.861978 
L 176.175521 142.861978 
L 176.175521 140.087666 
L 178.874432 140.087666 
L 178.874432 137.313354 
L 182.9228 137.313354 
L 182.9228 134.539042 
L 184.272256 134.539042 
L 184.272256 131.764731 
L 184.946984 131.764731 
L 184.946984 120.667483 
L 190.344807 120.667483 
L 190.344807 117.893171 
L 192.368991 117.893171 
L 192.368991 115.118859 
L 198.441542 115.118859 
L 198.441542 112.344547 
L 201.140454 112.344547 
L 201.140454 109.570235 
L 203.839366 109.570235 
L 203.839366 106.795923 
L 205.188822 106.795923 
L 205.188822 104.021611 
L 211.261373 104.021611 
L 211.261373 98.472987 
L 216.659197 98.472987 
L 216.659197 95.698675 
L 228.804299 95.698675 
L 228.804299 92.924364 
L 239.599946 92.924364 
L 239.599946 90.150052 
L 244.99777 90.150052 
L 244.99777 87.37574 
L 245.672498 87.37574 
L 245.672498 81.827116 
L 259.167056 81.827116 
L 259.167056 79.052804 
L 260.516512 79.052804 
L 260.516512 76.278492 
L 261.865968 76.278492 
L 261.865968 73.50418 
L 277.384711 73.50418 
L 277.384711 70.729868 
L 287.50563 70.729868 
L 287.50563 67.955556 
L 289.529813 67.955556 
L 289.529813 65.181244 
L 311.121107 65.181244 
L 311.121107 62.406932 
L 314.494747 62.406932 
L 314.494747 59.63262 
L 325.290394 59.63262 
L 325.290394 56.858308 
L 342.158592 56.858308 
L 342.158592 54.083997 
L 344.182776 54.083997 
L 344.182776 51.309685 
L 361.050974 51.309685 
L 361.050974 48.535373 
L 375.220261 48.535373 
L 375.220261 45.761061 
L 444.04251 45.761061 
L 444.04251 42.986749 
L 523.660406 42.986749 
L 523.660406 40.212437 
L 599.229934 40.212437 
L 599.229934 37.438125 
L 631.616875 37.438125 
L 631.616875 37.438125 
" clip-path="url(#pf430526843)" style="fill: none; stroke: #ff7f0e; stroke-width: 1.5; stroke-linecap: square"/>
   </g>
   <g id="line2d_27">
    <path d="M 73.616875 339.838125 
L 73.616875 335.806125 
L 73.616875 315.646125 
L 76.107946 315.646125 
L 76.107946 307.582125 
L 78.599018 307.582125 
L 78.599018 283.390125 
L 86.072232 283.390125 
L 86.072232 243.070125 
L 88.563304 243.070125 
L 88.563304 222.910125 
L 96.036518 222.910125 
L 96.036518 210.814125 
L 98.527589 210.814125 
L 98.527589 202.750125 
L 108.491875 202.750125 
L 108.491875 194.686125 
L 110.982946 194.686125 
L 110.982946 186.622125 
L 120.947232 186.622125 
L 120.947232 178.558125 
L 125.929375 178.558125 
L 125.929375 174.526125 
L 138.384732 174.526125 
L 138.384732 162.430125 
L 155.822232 162.430125 
L 155.822232 150.334125 
L 158.313304 150.334125 
L 158.313304 146.302125 
L 165.786518 146.302125 
L 165.786518 142.270125 
L 170.768661 142.270125 
L 170.768661 138.238125 
L 180.732946 138.238125 
L 180.732946 134.206125 
L 193.188304 134.206125 
L 193.188304 126.142125 
L 208.134732 126.142125 
L 208.134732 118.078125 
L 223.081161 118.078125 
L 223.081161 114.046125 
L 228.063304 114.046125 
L 228.063304 110.014125 
L 243.009732 110.014125 
L 243.009732 105.982125 
L 247.991875 105.982125 
L 247.991875 101.950125 
L 252.974018 101.950125 
L 252.974018 97.918125 
L 262.938304 97.918125 
L 262.938304 93.886125 
L 265.429375 89.854125 
L 282.866875 89.854125 
L 282.866875 85.822125 
L 335.179375 85.822125 
L 335.179375 81.790125 
L 350.125804 81.790125 
L 350.125804 77.758125 
L 380.018661 77.758125 
L 380.018661 69.694125 
L 385.000804 69.694125 
L 385.000804 65.662125 
L 389.982946 65.662125 
L 389.982946 57.598125 
L 399.947232 57.598125 
L 399.947232 53.566125 
L 412.402589 53.566125 
L 412.402589 49.534125 
L 526.991875 49.534125 
L 526.991875 45.502125 
L 581.795446 45.502125 
L 581.795446 41.470125 
L 609.197232 41.470125 
L 609.197232 37.438125 
L 631.616875 37.438125 
" clip-path="url(#pf430526843)" style="fill: none; stroke: #2ca02c; stroke-width: 1.5; stroke-linecap: square"/>
   </g>
   <g id="line2d_28">
    <path d="M 73.616875 339.838125 
L 80.339767 339.838125 
L 87.062658 339.838125 
L 87.062658 302.038125 
L 134.122899 302.038125 
L 134.122899 264.238125 
L 167.737357 264.238125 
L 167.737357 226.438125 
L 302.195188 226.438125 
L 302.195188 188.638125 
L 329.086755 188.638125 
L 329.086755 150.838125 
L 342.532538 150.838125 
L 403.038562 150.838125 
L 403.038562 113.038125 
L 463.544586 113.038125 
L 463.544586 75.238125 
L 490.436152 75.238125 
L 490.436152 37.438125 
L 631.616875 37.438125 
" clip-path="url(#pf430526843)" style="fill: none; stroke: #d62728; stroke-width: 1.5; stroke-linecap: square"/>
   </g>
   <g id="line2d_29">
    <path d="M 73.616875 339.838125 
L 73.616875 309.598125 
L 73.616875 279.358125 
L 87.924567 279.358125 
L 87.924567 188.638125 
L 116.539952 188.638125 
L 116.539952 158.398125 
L 123.693798 158.398125 
L 123.693798 97.918125 
L 145.155337 97.918125 
L 145.155337 67.678125 
L 202.386106 67.678125 
L 202.386106 37.438125 
L 631.616875 37.438125 
" clip-path="url(#pf430526843)" style="fill: none; stroke: #9467bd; stroke-width: 1.5; stroke-linecap: square"/>
   </g>
   <g id="line2d_30">
    <path d="M 73.616875 339.838125 
L 631.616875 37.438125 
" clip-path="url(#pf430526843)" style="fill: none; stroke-dasharray: 7.4,3.2; stroke-dashoffset: 0; stroke: #808080; stroke-width: 2"/>
   </g>
   <g id="patch_3">
    <path d="M 45.716875 354.958125 
L 45.716875 22.318125 
" style="fill: none; stroke: #000000; stroke-width: 0.8; stroke-linejoin: miter; stroke-linecap: square"/>
   </g>
   <g id="patch_4">
    <path d="M 659.516875 354.958125 
L 659.516875 22.318125 
" style="fill: none; stroke: #000000; stroke-width: 0.8; stroke-linejoin: miter; stroke-linecap: square"/>
   </g>
   <g id="patch_5">
    <path d="M 45.716875 354.958125 
L 659.516875 354.958125 
" style="fill: none; stroke: #000000; stroke-width: 0.8; stroke-linejoin: miter; stroke-linecap: square"/>
   </g>
   <g id="patch_6">
    <path d="M 45.716875 22.318125 
L 659.516875 22.318125 
" style="fill: none; stroke: #000000; stroke-width: 0.8; stroke-linejoin: miter; stroke-linecap: square"/>
   </g>
   <g id="text_15">
    <!-- ROC Curve: Logistic Regression -->
    <g transform="translate(258.446875 16.318125) scale(0.12 -0.12)">
     <defs>
      <path id="DejaVuSans-4f" d="M 2522 4238 
Q 1834 4238 1429 3725 
Q 1025 3213 1025 2328 
Q 1025 1447 1429 934 
Q 1834 422 2522 422 
Q 3209 422 3611 934 
Q 4013 1447 4013 2328 
Q 4013 3213 3611 3725 
Q 3209 4238 2522 4238 
z
M 2522 4750 
Q 3503 4750 4090 4092 
Q 4678 3434 4678 2328 
Q 4678 1225 4090 567 
Q 3503 -91 2522 -91 
Q 1538 -91 948 565 
Q 359 1222 359 2328 
Q 359 3434 948 4092 
Q 1538 4750 2522 4750 
z
" transform="scale(0.015625)"/>
      <path id="DejaVuSans-43" d="M 4122 4306 
L 4122 3641 
Q 3803 3938 3442 4084 
Q 3081 4231 2675 4231 
Q 1875 4231 1450 3742 
Q 1025 3253 1025 2328 
Q 1025 1406 1450 917 
Q 1875 428 2675 428 
Q 3081 428 3442 575 
Q 3803 722 4122 1019 
L 4122 359 
Q 3791 134 3420 21 
Q 3050 -91 2638 -91 
Q 1578 -91 968 557 
Q 359 1206 359 2328 
Q 359 3453 968 4101 
Q 1578 4750 2638 4750 
Q 3056 4750 3426 4639 
Q 3797 4528 4122 4306 
z
" transform="scale(0.015625)"/>
      <path id="DejaVuSans-3a" d="M 750 794 
L 1409 794 
L 1409 0 
L 750 0 
L 750 794 
z
M 750 3309 
L 1409 3309 
L 1409 2516 
L 750 2516 
L 750 3309 
z
" transform="scale(0.015625)"/>
      <path id="DejaVuSans-4c" d="M 628 4666 
L 1259 4666 
L 1259 531 
L 3531 531 
L 3531 0 
L 628 0 
L 628 4666 
z
" transform="scale(0.015625)"/>
      <path id="DejaVuSans-67" d="M 2906 1791 
Q 2906 2416 2648 2759 
Q 2391 3103 1925 3103 
Q 1463 3103 1205 2759 
Q 947 2416 947 1791 
Q 947 1169 1205 825 
Q 1463 481 1925 481 
Q 2391 481 2648 825 
Q 2906 1169 2906 1791 
z
M 3481 434 
Q 3481 -459 3084 -895 
Q 2688 -1331 1869 -1331 
Q 1566 -1331 1297 -1286 
Q 1028 -1241 775 -1147 
L 775 -588 
Q 1028 -725 1275 -790 
Q 1522 -856 1778 -856 
Q 2344 -856 2625 -561 
Q 2906 -266 2906 331 
L 2906 616 
Q 2728 306 2450 153 
Q 2172 0 1784 0 
Q 1141 0 747 490 
Q 353 981 353 1791 
Q 353 2603 747 3093 
Q 1141 3584 1784 3584 
Q 2172 3584 2450 3431 
Q 2728 3278 2906 2969 
L 2906 3500 
L 3481 3500 
L 3481 434 
z
" transform="scale(0.015625)"/>
      <path id="DejaVuSans-63" d="M 3122 3366 
L 3122 2828 
Q 2878 2963 2633 3030 
Q 2388 3097 2138 3097 
Q 1578 3097 1268 2742 
Q 959 2388 959 1747 
Q 959 1106 1268 751 
Q 1578 397 2138 397 
Q 2388 397 2633 464 
Q 2878 531 3122 666 
L 3122 134 
Q 2881 22 2623 -34 
Q 2366 -91 2075 -91 
Q 1284 -91 818 406 
Q 353 903 353 1747 
Q 353 2603 823 3093 
Q 1294 3584 2113 3584 
Q 2378 3584 2631 3529 
Q 2884 3475 3122 3366 
z
" transform="scale(0.015625)"/>
      <path id="DejaVuSans-6e" d="M 3513 2113 
L 3513 0 
L 2938 0 
L 2938 2094 
Q 2938 2591 2744 2837 
Q 2550 3084 2163 3084 
Q 1697 3084 1428 2787 
Q 1159 2491 1159 1978 
L 1159 0 
L 581 0 
L 581 3500 
L 1159 3500 
L 1159 2956 
Q 1366 3272 1645 3428 
Q 1925 3584 2291 3584 
Q 2894 3584 3203 3211 
Q 3513 2838 3513 2113 
z
" transform="scale(0.015625)"/>
     </defs>
     <use xlink:href="#DejaVuSans-52"/>
     <use xlink:href="#DejaVuSans-4f" x="69.482422"/>
     <use xlink:href="#DejaVuSans-43" x="148.193359"/>
     <use xlink:href="#DejaVuSans-20" x="218.017578"/>
     <use xlink:href="#DejaVuSans-43" x="249.804688"/>
     <use xlink:href="#DejaVuSans-75" x="319.628906"/>
     <use xlink:href="#DejaVuSans-72" x="383.007812"/>
     <use xlink:href="#DejaVuSans-76" x="424.121094"/>
     <use xlink:href="#DejaVuSans-65" x="483.300781"/>
     <use xlink:href="#DejaVuSans-3a" x="544.824219"/>
     <use xlink:href="#DejaVuSans-20" x="578.515625"/>
     <use xlink:href="#DejaVuSans-4c" x="610.302734"/>
     <use xlink:href="#DejaVuSans-6f" x="664.265625"/>
     <use xlink:href="#DejaVuSans-67" x="725.447266"/>
     <use xlink:href="#DejaVuSans-69" x="788.923828"/>
     <use xlink:href="#DejaVuSans-73" x="816.707031"/>
     <use xlink:href="#DejaVuSans-74" x="868.806641"/>
     <use xlink:href="#DejaVuSans-69" x="908.015625"/>
     <use xlink:href="#DejaVuSans-63" x="935.798828"/>
     <use xlink:href="#DejaVuSans-20" x="990.779297"/>
     <use xlink:href="#DejaVuSans-52" x="1022.566406"/>
     <use xlink:href="#DejaVuSans-65" x="1087.548828"/>
     <use xlink:href="#DejaVuSans-67" x="1149.072266"/>
     <use xlink:href="#DejaVuSans-72" x="1212.548828"/>
     <use xlink:href="#DejaVuSans-65" x="1251.412109"/>
     <use xlink:href="#DejaVuSans-73" x="1312.935547"/>
     <use xlink:href="#DejaVuSans-73" x="1365.035156"/>
     <use xlink:href="#DejaVuSans-69" x="1417.134766"/>
     <use xlink:href="#DejaVuSans-6f" x="1444.917969"/>
     <use xlink:href="#DejaVuSans-6e" x="1506.099609"/>
    </g>
   </g>
   <g id="legend_1">
    <g id="patch_7">
     <path d="M 173.484063 500.922875 
L 531.749688 500.922875 
Q 533.749688 500.922875 533.749688 498.922875 
L 533.749688 411.854125 
Q 533.749688 409.854125 531.749688 409.854125 
L 173.484063 409.854125 
Q 171.484063 409.854125 171.484063 411.854125 
L 171.484063 498.922875 
Q 171.484063 500.922875 173.484063 500.922875 
z
" style="fill: #ffffff; opacity: 0.8; stroke: #cccccc; stroke-linejoin: miter"/>
    </g>
    <g id="line2d_31">
     <path d="M 175.484063 417.952562 
L 185.484063 417.952562 
L 195.484063 417.952562 
" style="fill: none; stroke: #1f77b4; stroke-width: 1.5; stroke-linecap: square"/>
    </g>
    <g id="text_16">
     <!-- AUC for White = 0.83, Count: 8,355, Pos: 2,136, Neg: 6,219 -->
     <g transform="translate(203.484063 421.452562) scale(0.1 -0.1)">
      <defs>
       <path id="DejaVuSans-41" d="M 2188 4044 
L 1331 1722 
L 3047 1722 
L 2188 4044 
z
M 1831 4666 
L 2547 4666 
L 4325 0 
L 3669 0 
L 3244 1197 
L 1141 1197 
L 716 0 
L 50 0 
L 1831 4666 
z
" transform="scale(0.015625)"/>
       <path id="DejaVuSans-55" d="M 556 4666 
L 1191 4666 
L 1191 1831 
Q 1191 1081 1462 751 
Q 1734 422 2344 422 
Q 2950 422 3222 751 
Q 3494 1081 3494 1831 
L 3494 4666 
L 4128 4666 
L 4128 1753 
Q 4128 841 3676 375 
Q 3225 -91 2344 -91 
Q 1459 -91 1007 375 
Q 556 841 556 1753 
L 556 4666 
z
" transform="scale(0.015625)"/>
       <path id="DejaVuSans-66" d="M 2375 4863 
L 2375 4384 
L 1825 4384 
Q 1516 4384 1395 4259 
Q 1275 4134 1275 3809 
L 1275 3500 
L 2222 3500 
L 2222 3053 
L 1275 3053 
L 1275 0 
L 697 0 
L 697 3053 
L 147 3053 
L 147 3500 
L 697 3500 
L 697 3744 
Q 697 4328 969 4595 
Q 1241 4863 1831 4863 
L 2375 4863 
z
" transform="scale(0.015625)"/>
       <path id="DejaVuSans-57" d="M 213 4666 
L 850 4666 
L 1831 722 
L 2809 4666 
L 3519 4666 
L 4500 722 
L 5478 4666 
L 6119 4666 
L 4947 0 
L 4153 0 
L 3169 4050 
L 2175 0 
L 1381 0 
L 213 4666 
z
" transform="scale(0.015625)"/>
       <path id="DejaVuSans-68" d="M 3513 2113 
L 3513 0 
L 2938 0 
L 2938 2094 
Q 2938 2591 2744 2837 
Q 2550 3084 2163 3084 
Q 1697 3084 1428 2787 
Q 1159 2491 1159 1978 
L 1159 0 
L 581 0 
L 581 4863 
L 1159 4863 
L 1159 2956 
Q 1366 3272 1645 3428 
Q 1925 3584 2291 3584 
Q 2894 3584 3203 3211 
Q 3513 2838 3513 2113 
z
" transform="scale(0.015625)"/>
       <path id="DejaVuSans-3d" d="M 678 2906 
L 4684 2906 
L 4684 2381 
L 678 2381 
L 678 2906 
z
M 678 1631 
L 4684 1631 
L 4684 1100 
L 678 1100 
L 678 1631 
z
" transform="scale(0.015625)"/>
       <path id="DejaVuSans-33" d="M 2597 2516 
Q 3050 2419 3304 2112 
Q 3559 1806 3559 1356 
Q 3559 666 3084 287 
Q 2609 -91 1734 -91 
Q 1441 -91 1130 -33 
Q 819 25 488 141 
L 488 750 
Q 750 597 1062 519 
Q 1375 441 1716 441 
Q 2309 441 2620 675 
Q 2931 909 2931 1356 
Q 2931 1769 2642 2001 
Q 2353 2234 1838 2234 
L 1294 2234 
L 1294 2753 
L 1863 2753 
Q 2328 2753 2575 2939 
Q 2822 3125 2822 3475 
Q 2822 3834 2567 4026 
Q 2313 4219 1838 4219 
Q 1578 4219 1281 4162 
Q 984 4106 628 3988 
L 628 4550 
Q 988 4650 1302 4700 
Q 1616 4750 1894 4750 
Q 2613 4750 3031 4423 
Q 3450 4097 3450 3541 
Q 3450 3153 3228 2886 
Q 3006 2619 2597 2516 
z
" transform="scale(0.015625)"/>
       <path id="DejaVuSans-2c" d="M 750 794 
L 1409 794 
L 1409 256 
L 897 -744 
L 494 -744 
L 750 256 
L 750 794 
z
" transform="scale(0.015625)"/>
       <path id="DejaVuSans-35" d="M 691 4666 
L 3169 4666 
L 3169 4134 
L 1269 4134 
L 1269 2991 
Q 1406 3038 1543 3061 
Q 1681 3084 1819 3084 
Q 2600 3084 3056 2656 
Q 3513 2228 3513 1497 
Q 3513 744 3044 326 
Q 2575 -91 1722 -91 
Q 1428 -91 1123 -41 
Q 819 9 494 109 
L 494 744 
Q 775 591 1075 516 
Q 1375 441 1709 441 
Q 2250 441 2565 725 
Q 2881 1009 2881 1497 
Q 2881 1984 2565 2268 
Q 2250 2553 1709 2553 
Q 1456 2553 1204 2497 
Q 953 2441 691 2322 
L 691 4666 
z
" transform="scale(0.015625)"/>
       <path id="DejaVuSans-4e" d="M 628 4666 
L 1478 4666 
L 3547 763 
L 3547 4666 
L 4159 4666 
L 4159 0 
L 3309 0 
L 1241 3903 
L 1241 0 
L 628 0 
L 628 4666 
z
" transform="scale(0.015625)"/>
       <path id="DejaVuSans-39" d="M 703 97 
L 703 672 
Q 941 559 1184 500 
Q 1428 441 1663 441 
Q 2288 441 2617 861 
Q 2947 1281 2994 2138 
Q 2813 1869 2534 1725 
Q 2256 1581 1919 1581 
Q 1219 1581 811 2004 
Q 403 2428 403 3163 
Q 403 3881 828 4315 
Q 1253 4750 1959 4750 
Q 2769 4750 3195 4129 
Q 3622 3509 3622 2328 
Q 3622 1225 3098 567 
Q 2575 -91 1691 -91 
Q 1453 -91 1209 -44 
Q 966 3 703 97 
z
M 1959 2075 
Q 2384 2075 2632 2365 
Q 2881 2656 2881 3163 
Q 2881 3666 2632 3958 
Q 2384 4250 1959 4250 
Q 1534 4250 1286 3958 
Q 1038 3666 1038 3163 
Q 1038 2656 1286 2365 
Q 1534 2075 1959 2075 
z
" transform="scale(0.015625)"/>
      </defs>
      <use xlink:href="#DejaVuSans-41"/>
      <use xlink:href="#DejaVuSans-55" x="68.408203"/>
      <use xlink:href="#DejaVuSans-43" x="141.601562"/>
      <use xlink:href="#DejaVuSans-20" x="211.425781"/>
      <use xlink:href="#DejaVuSans-66" x="243.212891"/>
      <use xlink:href="#DejaVuSans-6f" x="278.417969"/>
      <use xlink:href="#DejaVuSans-72" x="339.599609"/>
      <use xlink:href="#DejaVuSans-20" x="380.712891"/>
      <use xlink:href="#DejaVuSans-57" x="412.5"/>
      <use xlink:href="#DejaVuSans-68" x="511.376953"/>
      <use xlink:href="#DejaVuSans-69" x="574.755859"/>
      <use xlink:href="#DejaVuSans-74" x="602.539062"/>
      <use xlink:href="#DejaVuSans-65" x="641.748047"/>
      <use xlink:href="#DejaVuSans-20" x="703.271484"/>
      <use xlink:href="#DejaVuSans-3d" x="735.058594"/>
      <use xlink:href="#DejaVuSans-20" x="818.847656"/>
      <use xlink:href="#DejaVuSans-30" x="850.634766"/>
      <use xlink:href="#DejaVuSans-2e" x="914.257812"/>
      <use xlink:href="#DejaVuSans-38" x="946.044922"/>
      <use xlink:href="#DejaVuSans-33" x="1009.667969"/>
      <use xlink:href="#DejaVuSans-2c" x="1073.291016"/>
      <use xlink:href="#DejaVuSans-20" x="1105.078125"/>
      <use xlink:href="#DejaVuSans-43" x="1136.865234"/>
      <use xlink:href="#DejaVuSans-6f" x="1206.689453"/>
      <use xlink:href="#DejaVuSans-75" x="1267.871094"/>
      <use xlink:href="#DejaVuSans-6e" x="1331.25"/>
      <use xlink:href="#DejaVuSans-74" x="1394.628906"/>
      <use xlink:href="#DejaVuSans-3a" x="1433.837891"/>
      <use xlink:href="#DejaVuSans-20" x="1467.529297"/>
      <use xlink:href="#DejaVuSans-38" x="1499.316406"/>
      <use xlink:href="#DejaVuSans-2c" x="1562.939453"/>
      <use xlink:href="#DejaVuSans-33" x="1594.726562"/>
      <use xlink:href="#DejaVuSans-35" x="1658.349609"/>
      <use xlink:href="#DejaVuSans-35" x="1721.972656"/>
      <use xlink:href="#DejaVuSans-2c" x="1785.595703"/>
      <use xlink:href="#DejaVuSans-20" x="1817.382812"/>
      <use xlink:href="#DejaVuSans-50" x="1849.169922"/>
      <use xlink:href="#DejaVuSans-6f" x="1905.847656"/>
      <use xlink:href="#DejaVuSans-73" x="1967.029297"/>
      <use xlink:href="#DejaVuSans-3a" x="2019.128906"/>
      <use xlink:href="#DejaVuSans-20" x="2052.820312"/>
      <use xlink:href="#DejaVuSans-32" x="2084.607422"/>
      <use xlink:href="#DejaVuSans-2c" x="2148.230469"/>
      <use xlink:href="#DejaVuSans-31" x="2180.017578"/>
      <use xlink:href="#DejaVuSans-33" x="2243.640625"/>
      <use xlink:href="#DejaVuSans-36" x="2307.263672"/>
      <use xlink:href="#DejaVuSans-2c" x="2370.886719"/>
      <use xlink:href="#DejaVuSans-20" x="2402.673828"/>
      <use xlink:href="#DejaVuSans-4e" x="2434.460938"/>
      <use xlink:href="#DejaVuSans-65" x="2509.265625"/>
      <use xlink:href="#DejaVuSans-67" x="2570.789062"/>
      <use xlink:href="#DejaVuSans-3a" x="2634.265625"/>
      <use xlink:href="#DejaVuSans-20" x="2667.957031"/>
      <use xlink:href="#DejaVuSans-36" x="2699.744141"/>
      <use xlink:href="#DejaVuSans-2c" x="2763.367188"/>
      <use xlink:href="#DejaVuSans-32" x="2795.154297"/>
      <use xlink:href="#DejaVuSans-31" x="2858.777344"/>
      <use xlink:href="#DejaVuSans-39" x="2922.400391"/>
     </g>
    </g>
    <g id="line2d_32">
     <path d="M 175.484063 432.630688 
L 185.484063 432.630688 
L 195.484063 432.630688 
" style="fill: none; stroke: #ff7f0e; stroke-width: 1.5; stroke-linecap: square"/>
    </g>
    <g id="text_17">
     <!-- AUC for Black = 0.85, Count: 936, Pos: 109, Neg: 827 -->
     <g transform="translate(203.484063 436.130688) scale(0.1 -0.1)">
      <defs>
       <path id="DejaVuSans-42" d="M 1259 2228 
L 1259 519 
L 2272 519 
Q 2781 519 3026 730 
Q 3272 941 3272 1375 
Q 3272 1813 3026 2020 
Q 2781 2228 2272 2228 
L 1259 2228 
z
M 1259 4147 
L 1259 2741 
L 2194 2741 
Q 2656 2741 2882 2914 
Q 3109 3088 3109 3444 
Q 3109 3797 2882 3972 
Q 2656 4147 2194 4147 
L 1259 4147 
z
M 628 4666 
L 2241 4666 
Q 2963 4666 3353 4366 
Q 3744 4066 3744 3513 
Q 3744 3084 3544 2831 
Q 3344 2578 2956 2516 
Q 3422 2416 3680 2098 
Q 3938 1781 3938 1306 
Q 3938 681 3513 340 
Q 3088 0 2303 0 
L 628 0 
L 628 4666 
z
" transform="scale(0.015625)"/>
       <path id="DejaVuSans-6b" d="M 581 4863 
L 1159 4863 
L 1159 1991 
L 2875 3500 
L 3609 3500 
L 1753 1863 
L 3688 0 
L 2938 0 
L 1159 1709 
L 1159 0 
L 581 0 
L 581 4863 
z
" transform="scale(0.015625)"/>
       <path id="DejaVuSans-37" d="M 525 4666 
L 3525 4666 
L 3525 4397 
L 1831 0 
L 1172 0 
L 2766 4134 
L 525 4134 
L 525 4666 
z
" transform="scale(0.015625)"/>
      </defs>
      <use xlink:href="#DejaVuSans-41"/>
      <use xlink:href="#DejaVuSans-55" x="68.408203"/>
      <use xlink:href="#DejaVuSans-43" x="141.601562"/>
      <use xlink:href="#DejaVuSans-20" x="211.425781"/>
      <use xlink:href="#DejaVuSans-66" x="243.212891"/>
      <use xlink:href="#DejaVuSans-6f" x="278.417969"/>
      <use xlink:href="#DejaVuSans-72" x="339.599609"/>
      <use xlink:href="#DejaVuSans-20" x="380.712891"/>
      <use xlink:href="#DejaVuSans-42" x="412.5"/>
      <use xlink:href="#DejaVuSans-6c" x="481.103516"/>
      <use xlink:href="#DejaVuSans-61" x="508.886719"/>
      <use xlink:href="#DejaVuSans-63" x="570.166016"/>
      <use xlink:href="#DejaVuSans-6b" x="625.146484"/>
      <use xlink:href="#DejaVuSans-20" x="683.056641"/>
      <use xlink:href="#DejaVuSans-3d" x="714.84375"/>
      <use xlink:href="#DejaVuSans-20" x="798.632812"/>
      <use xlink:href="#DejaVuSans-30" x="830.419922"/>
      <use xlink:href="#DejaVuSans-2e" x="894.042969"/>
      <use xlink:href="#DejaVuSans-38" x="925.830078"/>
      <use xlink:href="#DejaVuSans-35" x="989.453125"/>
      <use xlink:href="#DejaVuSans-2c" x="1053.076172"/>
      <use xlink:href="#DejaVuSans-20" x="1084.863281"/>
      <use xlink:href="#DejaVuSans-43" x="1116.650391"/>
      <use xlink:href="#DejaVuSans-6f" x="1186.474609"/>
      <use xlink:href="#DejaVuSans-75" x="1247.65625"/>
      <use xlink:href="#DejaVuSans-6e" x="1311.035156"/>
      <use xlink:href="#DejaVuSans-74" x="1374.414062"/>
      <use xlink:href="#DejaVuSans-3a" x="1413.623047"/>
      <use xlink:href="#DejaVuSans-20" x="1447.314453"/>
      <use xlink:href="#DejaVuSans-39" x="1479.101562"/>
      <use xlink:href="#DejaVuSans-33" x="1542.724609"/>
      <use xlink:href="#DejaVuSans-36" x="1606.347656"/>
      <use xlink:href="#DejaVuSans-2c" x="1669.970703"/>
      <use xlink:href="#DejaVuSans-20" x="1701.757812"/>
      <use xlink:href="#DejaVuSans-50" x="1733.544922"/>
      <use xlink:href="#DejaVuSans-6f" x="1790.222656"/>
      <use xlink:href="#DejaVuSans-73" x="1851.404297"/>
      <use xlink:href="#DejaVuSans-3a" x="1903.503906"/>
      <use xlink:href="#DejaVuSans-20" x="1937.195312"/>
      <use xlink:href="#DejaVuSans-31" x="1968.982422"/>
      <use xlink:href="#DejaVuSans-30" x="2032.605469"/>
      <use xlink:href="#DejaVuSans-39" x="2096.228516"/>
      <use xlink:href="#DejaVuSans-2c" x="2159.851562"/>
      <use xlink:href="#DejaVuSans-20" x="2191.638672"/>
      <use xlink:href="#DejaVuSans-4e" x="2223.425781"/>
      <use xlink:href="#DejaVuSans-65" x="2298.230469"/>
      <use xlink:href="#DejaVuSans-67" x="2359.753906"/>
      <use xlink:href="#DejaVuSans-3a" x="2423.230469"/>
      <use xlink:href="#DejaVuSans-20" x="2456.921875"/>
      <use xlink:href="#DejaVuSans-38" x="2488.708984"/>
      <use xlink:href="#DejaVuSans-32" x="2552.332031"/>
      <use xlink:href="#DejaVuSans-37" x="2615.955078"/>
     </g>
    </g>
    <g id="line2d_33">
     <path d="M 175.484063 447.308813 
L 185.484063 447.308813 
L 195.484063 447.308813 
" style="fill: none; stroke: #2ca02c; stroke-width: 1.5; stroke-linecap: square"/>
    </g>
    <g id="text_18">
     <!-- AUC for Asian-Pac-Islander = 0.82, Count: 299, Pos: 75, Neg: 224 -->
     <g transform="translate(203.484063 450.808813) scale(0.1 -0.1)">
      <defs>
       <path id="DejaVuSans-2d" d="M 313 2009 
L 1997 2009 
L 1997 1497 
L 313 1497 
L 313 2009 
z
" transform="scale(0.015625)"/>
       <path id="DejaVuSans-49" d="M 628 4666 
L 1259 4666 
L 1259 0 
L 628 0 
L 628 4666 
z
" transform="scale(0.015625)"/>
       <path id="DejaVuSans-64" d="M 2906 2969 
L 2906 4863 
L 3481 4863 
L 3481 0 
L 2906 0 
L 2906 525 
Q 2725 213 2448 61 
Q 2172 -91 1784 -91 
Q 1150 -91 751 415 
Q 353 922 353 1747 
Q 353 2572 751 3078 
Q 1150 3584 1784 3584 
Q 2172 3584 2448 3432 
Q 2725 3281 2906 2969 
z
M 947 1747 
Q 947 1113 1208 752 
Q 1469 391 1925 391 
Q 2381 391 2643 752 
Q 2906 1113 2906 1747 
Q 2906 2381 2643 2742 
Q 2381 3103 1925 3103 
Q 1469 3103 1208 2742 
Q 947 2381 947 1747 
z
" transform="scale(0.015625)"/>
      </defs>
      <use xlink:href="#DejaVuSans-41"/>
      <use xlink:href="#DejaVuSans-55" x="68.408203"/>
      <use xlink:href="#DejaVuSans-43" x="141.601562"/>
      <use xlink:href="#DejaVuSans-20" x="211.425781"/>
      <use xlink:href="#DejaVuSans-66" x="243.212891"/>
      <use xlink:href="#DejaVuSans-6f" x="278.417969"/>
      <use xlink:href="#DejaVuSans-72" x="339.599609"/>
      <use xlink:href="#DejaVuSans-20" x="380.712891"/>
      <use xlink:href="#DejaVuSans-41" x="412.5"/>
      <use xlink:href="#DejaVuSans-73" x="480.908203"/>
      <use xlink:href="#DejaVuSans-69" x="533.007812"/>
      <use xlink:href="#DejaVuSans-61" x="560.791016"/>
      <use xlink:href="#DejaVuSans-6e" x="622.070312"/>
      <use xlink:href="#DejaVuSans-2d" x="685.449219"/>
      <use xlink:href="#DejaVuSans-50" x="721.533203"/>
      <use xlink:href="#DejaVuSans-61" x="777.335938"/>
      <use xlink:href="#DejaVuSans-63" x="838.615234"/>
      <use xlink:href="#DejaVuSans-2d" x="893.595703"/>
      <use xlink:href="#DejaVuSans-49" x="929.679688"/>
      <use xlink:href="#DejaVuSans-73" x="959.171875"/>
      <use xlink:href="#DejaVuSans-6c" x="1011.271484"/>
      <use xlink:href="#DejaVuSans-61" x="1039.054688"/>
      <use xlink:href="#DejaVuSans-6e" x="1100.333984"/>
      <use xlink:href="#DejaVuSans-64" x="1163.712891"/>
      <use xlink:href="#DejaVuSans-65" x="1227.189453"/>
      <use xlink:href="#DejaVuSans-72" x="1288.712891"/>
      <use xlink:href="#DejaVuSans-20" x="1329.826172"/>
      <use xlink:href="#DejaVuSans-3d" x="1361.613281"/>
      <use xlink:href="#DejaVuSans-20" x="1445.402344"/>
      <use xlink:href="#DejaVuSans-30" x="1477.189453"/>
      <use xlink:href="#DejaVuSans-2e" x="1540.8125"/>
      <use xlink:href="#DejaVuSans-38" x="1572.599609"/>
      <use xlink:href="#DejaVuSans-32" x="1636.222656"/>
      <use xlink:href="#DejaVuSans-2c" x="1699.845703"/>
      <use xlink:href="#DejaVuSans-20" x="1731.632812"/>
      <use xlink:href="#DejaVuSans-43" x="1763.419922"/>
      <use xlink:href="#DejaVuSans-6f" x="1833.244141"/>
      <use xlink:href="#DejaVuSans-75" x="1894.425781"/>
      <use xlink:href="#DejaVuSans-6e" x="1957.804688"/>
      <use xlink:href="#DejaVuSans-74" x="2021.183594"/>
      <use xlink:href="#DejaVuSans-3a" x="2060.392578"/>
      <use xlink:href="#DejaVuSans-20" x="2094.083984"/>
      <use xlink:href="#DejaVuSans-32" x="2125.871094"/>
      <use xlink:href="#DejaVuSans-39" x="2189.494141"/>
      <use xlink:href="#DejaVuSans-39" x="2253.117188"/>
      <use xlink:href="#DejaVuSans-2c" x="2316.740234"/>
      <use xlink:href="#DejaVuSans-20" x="2348.527344"/>
      <use xlink:href="#DejaVuSans-50" x="2380.314453"/>
      <use xlink:href="#DejaVuSans-6f" x="2436.992188"/>
      <use xlink:href="#DejaVuSans-73" x="2498.173828"/>
      <use xlink:href="#DejaVuSans-3a" x="2550.273438"/>
      <use xlink:href="#DejaVuSans-20" x="2583.964844"/>
      <use xlink:href="#DejaVuSans-37" x="2615.751953"/>
      <use xlink:href="#DejaVuSans-35" x="2679.375"/>
      <use xlink:href="#DejaVuSans-2c" x="2742.998047"/>
      <use xlink:href="#DejaVuSans-20" x="2774.785156"/>
      <use xlink:href="#DejaVuSans-4e" x="2806.572266"/>
      <use xlink:href="#DejaVuSans-65" x="2881.376953"/>
      <use xlink:href="#DejaVuSans-67" x="2942.900391"/>
      <use xlink:href="#DejaVuSans-3a" x="3006.376953"/>
      <use xlink:href="#DejaVuSans-20" x="3040.068359"/>
      <use xlink:href="#DejaVuSans-32" x="3071.855469"/>
      <use xlink:href="#DejaVuSans-32" x="3135.478516"/>
      <use xlink:href="#DejaVuSans-34" x="3199.101562"/>
     </g>
    </g>
    <g id="line2d_34">
     <path d="M 175.484063 461.986938 
L 185.484063 461.986938 
L 195.484063 461.986938 
" style="fill: none; stroke: #d62728; stroke-width: 1.5; stroke-linecap: square"/>
    </g>
    <g id="text_19">
     <!-- AUC for Amer-Indian-Eskimo = 0.60, Count: 91, Pos: 8, Neg: 83 -->
     <g transform="translate(203.484063 465.486938) scale(0.1 -0.1)">
      <defs>
       <path id="DejaVuSans-6d" d="M 3328 2828 
Q 3544 3216 3844 3400 
Q 4144 3584 4550 3584 
Q 5097 3584 5394 3201 
Q 5691 2819 5691 2113 
L 5691 0 
L 5113 0 
L 5113 2094 
Q 5113 2597 4934 2840 
Q 4756 3084 4391 3084 
Q 3944 3084 3684 2787 
Q 3425 2491 3425 1978 
L 3425 0 
L 2847 0 
L 2847 2094 
Q 2847 2600 2669 2842 
Q 2491 3084 2119 3084 
Q 1678 3084 1418 2786 
Q 1159 2488 1159 1978 
L 1159 0 
L 581 0 
L 581 3500 
L 1159 3500 
L 1159 2956 
Q 1356 3278 1631 3431 
Q 1906 3584 2284 3584 
Q 2666 3584 2933 3390 
Q 3200 3197 3328 2828 
z
" transform="scale(0.015625)"/>
       <path id="DejaVuSans-45" d="M 628 4666 
L 3578 4666 
L 3578 4134 
L 1259 4134 
L 1259 2753 
L 3481 2753 
L 3481 2222 
L 1259 2222 
L 1259 531 
L 3634 531 
L 3634 0 
L 628 0 
L 628 4666 
z
" transform="scale(0.015625)"/>
      </defs>
      <use xlink:href="#DejaVuSans-41"/>
      <use xlink:href="#DejaVuSans-55" x="68.408203"/>
      <use xlink:href="#DejaVuSans-43" x="141.601562"/>
      <use xlink:href="#DejaVuSans-20" x="211.425781"/>
      <use xlink:href="#DejaVuSans-66" x="243.212891"/>
      <use xlink:href="#DejaVuSans-6f" x="278.417969"/>
      <use xlink:href="#DejaVuSans-72" x="339.599609"/>
      <use xlink:href="#DejaVuSans-20" x="380.712891"/>
      <use xlink:href="#DejaVuSans-41" x="412.5"/>
      <use xlink:href="#DejaVuSans-6d" x="480.908203"/>
      <use xlink:href="#DejaVuSans-65" x="578.320312"/>
      <use xlink:href="#DejaVuSans-72" x="639.84375"/>
      <use xlink:href="#DejaVuSans-2d" x="674.582031"/>
      <use xlink:href="#DejaVuSans-49" x="710.666016"/>
      <use xlink:href="#DejaVuSans-6e" x="740.158203"/>
      <use xlink:href="#DejaVuSans-64" x="803.537109"/>
      <use xlink:href="#DejaVuSans-69" x="867.013672"/>
      <use xlink:href="#DejaVuSans-61" x="894.796875"/>
      <use xlink:href="#DejaVuSans-6e" x="956.076172"/>
      <use xlink:href="#DejaVuSans-2d" x="1019.455078"/>
      <use xlink:href="#DejaVuSans-45" x="1055.539062"/>
      <use xlink:href="#DejaVuSans-73" x="1118.722656"/>
      <use xlink:href="#DejaVuSans-6b" x="1170.822266"/>
      <use xlink:href="#DejaVuSans-69" x="1228.732422"/>
      <use xlink:href="#DejaVuSans-6d" x="1256.515625"/>
      <use xlink:href="#DejaVuSans-6f" x="1353.927734"/>
      <use xlink:href="#DejaVuSans-20" x="1415.109375"/>
      <use xlink:href="#DejaVuSans-3d" x="1446.896484"/>
      <use xlink:href="#DejaVuSans-20" x="1530.685547"/>
      <use xlink:href="#DejaVuSans-30" x="1562.472656"/>
      <use xlink:href="#DejaVuSans-2e" x="1626.095703"/>
      <use xlink:href="#DejaVuSans-36" x="1657.882812"/>
      <use xlink:href="#DejaVuSans-30" x="1721.505859"/>
      <use xlink:href="#DejaVuSans-2c" x="1785.128906"/>
      <use xlink:href="#DejaVuSans-20" x="1816.916016"/>
      <use xlink:href="#DejaVuSans-43" x="1848.703125"/>
      <use xlink:href="#DejaVuSans-6f" x="1918.527344"/>
      <use xlink:href="#DejaVuSans-75" x="1979.708984"/>
      <use xlink:href="#DejaVuSans-6e" x="2043.087891"/>
      <use xlink:href="#DejaVuSans-74" x="2106.466797"/>
      <use xlink:href="#DejaVuSans-3a" x="2145.675781"/>
      <use xlink:href="#DejaVuSans-20" x="2179.367188"/>
      <use xlink:href="#DejaVuSans-39" x="2211.154297"/>
      <use xlink:href="#DejaVuSans-31" x="2274.777344"/>
      <use xlink:href="#DejaVuSans-2c" x="2338.400391"/>
      <use xlink:href="#DejaVuSans-20" x="2370.1875"/>
      <use xlink:href="#DejaVuSans-50" x="2401.974609"/>
      <use xlink:href="#DejaVuSans-6f" x="2458.652344"/>
      <use xlink:href="#DejaVuSans-73" x="2519.833984"/>
      <use xlink:href="#DejaVuSans-3a" x="2571.933594"/>
      <use xlink:href="#DejaVuSans-20" x="2605.625"/>
      <use xlink:href="#DejaVuSans-38" x="2637.412109"/>
      <use xlink:href="#DejaVuSans-2c" x="2701.035156"/>
      <use xlink:href="#DejaVuSans-20" x="2732.822266"/>
      <use xlink:href="#DejaVuSans-4e" x="2764.609375"/>
      <use xlink:href="#DejaVuSans-65" x="2839.414062"/>
      <use xlink:href="#DejaVuSans-67" x="2900.9375"/>
      <use xlink:href="#DejaVuSans-3a" x="2964.414062"/>
      <use xlink:href="#DejaVuSans-20" x="2998.105469"/>
      <use xlink:href="#DejaVuSans-38" x="3029.892578"/>
      <use xlink:href="#DejaVuSans-33" x="3093.515625"/>
     </g>
    </g>
    <g id="line2d_35">
     <path d="M 175.484063 476.665063 
L 185.484063 476.665063 
L 195.484063 476.665063 
" style="fill: none; stroke: #9467bd; stroke-width: 1.5; stroke-linecap: square"/>
    </g>
    <g id="text_20">
     <!-- AUC for Other = 0.93, Count: 88, Pos: 10, Neg: 78 -->
     <g transform="translate(203.484063 480.165063) scale(0.1 -0.1)">
      <use xlink:href="#DejaVuSans-41"/>
      <use xlink:href="#DejaVuSans-55" x="68.408203"/>
      <use xlink:href="#DejaVuSans-43" x="141.601562"/>
      <use xlink:href="#DejaVuSans-20" x="211.425781"/>
      <use xlink:href="#DejaVuSans-66" x="243.212891"/>
      <use xlink:href="#DejaVuSans-6f" x="278.417969"/>
      <use xlink:href="#DejaVuSans-72" x="339.599609"/>
      <use xlink:href="#DejaVuSans-20" x="380.712891"/>
      <use xlink:href="#DejaVuSans-4f" x="412.5"/>
      <use xlink:href="#DejaVuSans-74" x="491.210938"/>
      <use xlink:href="#DejaVuSans-68" x="530.419922"/>
      <use xlink:href="#DejaVuSans-65" x="593.798828"/>
      <use xlink:href="#DejaVuSans-72" x="655.322266"/>
      <use xlink:href="#DejaVuSans-20" x="696.435547"/>
      <use xlink:href="#DejaVuSans-3d" x="728.222656"/>
      <use xlink:href="#DejaVuSans-20" x="812.011719"/>
      <use xlink:href="#DejaVuSans-30" x="843.798828"/>
      <use xlink:href="#DejaVuSans-2e" x="907.421875"/>
      <use xlink:href="#DejaVuSans-39" x="939.208984"/>
      <use xlink:href="#DejaVuSans-33" x="1002.832031"/>
      <use xlink:href="#DejaVuSans-2c" x="1066.455078"/>
      <use xlink:href="#DejaVuSans-20" x="1098.242188"/>
      <use xlink:href="#DejaVuSans-43" x="1130.029297"/>
      <use xlink:href="#DejaVuSans-6f" x="1199.853516"/>
      <use xlink:href="#DejaVuSans-75" x="1261.035156"/>
      <use xlink:href="#DejaVuSans-6e" x="1324.414062"/>
      <use xlink:href="#DejaVuSans-74" x="1387.792969"/>
      <use xlink:href="#DejaVuSans-3a" x="1427.001953"/>
      <use xlink:href="#DejaVuSans-20" x="1460.693359"/>
      <use xlink:href="#DejaVuSans-38" x="1492.480469"/>
      <use xlink:href="#DejaVuSans-38" x="1556.103516"/>
      <use xlink:href="#DejaVuSans-2c" x="1619.726562"/>
      <use xlink:href="#DejaVuSans-20" x="1651.513672"/>
      <use xlink:href="#DejaVuSans-50" x="1683.300781"/>
      <use xlink:href="#DejaVuSans-6f" x="1739.978516"/>
      <use xlink:href="#DejaVuSans-73" x="1801.160156"/>
      <use xlink:href="#DejaVuSans-3a" x="1853.259766"/>
      <use xlink:href="#DejaVuSans-20" x="1886.951172"/>
      <use xlink:href="#DejaVuSans-31" x="1918.738281"/>
      <use xlink:href="#DejaVuSans-30" x="1982.361328"/>
      <use xlink:href="#DejaVuSans-2c" x="2045.984375"/>
      <use xlink:href="#DejaVuSans-20" x="2077.771484"/>
      <use xlink:href="#DejaVuSans-4e" x="2109.558594"/>
      <use xlink:href="#DejaVuSans-65" x="2184.363281"/>
      <use xlink:href="#DejaVuSans-67" x="2245.886719"/>
      <use xlink:href="#DejaVuSans-3a" x="2309.363281"/>
      <use xlink:href="#DejaVuSans-20" x="2343.054688"/>
      <use xlink:href="#DejaVuSans-37" x="2374.841797"/>
      <use xlink:href="#DejaVuSans-38" x="2438.464844"/>
     </g>
    </g>
    <g id="line2d_36">
     <path d="M 175.484063 491.343187 
L 185.484063 491.343187 
L 195.484063 491.343187 
" style="fill: none; stroke-dasharray: 7.4,3.2; stroke-dashoffset: 0; stroke: #808080; stroke-width: 2"/>
    </g>
    <g id="text_21">
     <!-- Random Guess -->
     <g transform="translate(203.484063 494.843187) scale(0.1 -0.1)">
      <defs>
       <path id="DejaVuSans-47" d="M 3809 666 
L 3809 1919 
L 2778 1919 
L 2778 2438 
L 4434 2438 
L 4434 434 
Q 4069 175 3628 42 
Q 3188 -91 2688 -91 
Q 1594 -91 976 548 
Q 359 1188 359 2328 
Q 359 3472 976 4111 
Q 1594 4750 2688 4750 
Q 3144 4750 3555 4637 
Q 3966 4525 4313 4306 
L 4313 3634 
Q 3963 3931 3569 4081 
Q 3175 4231 2741 4231 
Q 1884 4231 1454 3753 
Q 1025 3275 1025 2328 
Q 1025 1384 1454 906 
Q 1884 428 2741 428 
Q 3075 428 3337 486 
Q 3600 544 3809 666 
z
" transform="scale(0.015625)"/>
      </defs>
      <use xlink:href="#DejaVuSans-52"/>
      <use xlink:href="#DejaVuSans-61" x="67.232422"/>
      <use xlink:href="#DejaVuSans-6e" x="128.511719"/>
      <use xlink:href="#DejaVuSans-64" x="191.890625"/>
      <use xlink:href="#DejaVuSans-6f" x="255.367188"/>
      <use xlink:href="#DejaVuSans-6d" x="316.548828"/>
      <use xlink:href="#DejaVuSans-20" x="413.960938"/>
      <use xlink:href="#DejaVuSans-47" x="445.748047"/>
      <use xlink:href="#DejaVuSans-75" x="523.238281"/>
      <use xlink:href="#DejaVuSans-65" x="586.617188"/>
      <use xlink:href="#DejaVuSans-73" x="648.140625"/>
      <use xlink:href="#DejaVuSans-73" x="700.240234"/>
     </g>
    </g>
   </g>
  </g>
 </g>
 <defs>
  <clipPath id="pf430526843">
   <rect x="45.716875" y="22.318125" width="613.8" height="332.64"/>
  </clipPath>
 </defs>
</svg>
