<?xml version="1.0" encoding="utf-8" standalone="no"?>
<!DOCTYPE svg PUBLIC "-//W3C//DTD SVG 1.1//EN"
  "http://www.w3.org/Graphics/SVG/1.1/DTD/svg11.dtd">
<svg xmlns:xlink="http://www.w3.org/1999/xlink" width="610.916875pt" height="493.00475pt" viewBox="0 0 610.916875 493.00475" xmlns="http://www.w3.org/2000/svg" version="1.1">
 <metadata>
  <rdf:RDF xmlns:dc="http://purl.org/dc/elements/1.1/" xmlns:cc="http://creativecommons.org/ns#" xmlns:rdf="http://www.w3.org/1999/02/22-rdf-syntax-ns#">
   <cc:Work>
    <dc:type rdf:resource="http://purl.org/dc/dcmitype/StillImage"/>
    <dc:date>2025-03-17T16:45:14.231611</dc:date>
    <dc:format>image/svg+xml</dc:format>
    <dc:creator>
     <cc:Agent>
      <dc:title>Matplotlib v3.9.2, https://matplotlib.org/</dc:title>
     </cc:Agent>
    </dc:creator>
   </cc:Work>
  </rdf:RDF>
 </metadata>
 <defs>
  <style type="text/css">*{stroke-linejoin: round; stroke-linecap: butt}</style>
 </defs>
 <g id="figure_1">
  <g id="patch_1">
   <path d="M 0 493.00475 
L 610.916875 493.00475 
L 610.916875 -0 
L 0 -0 
z
" style="fill: #ffffff"/>
  </g>
  <g id="axes_1">
   <g id="patch_2">
    <path d="M 45.716875 339.84 
L 603.716875 339.84 
L 603.716875 7.2 
L 45.716875 7.2 
z
" style="fill: #ffffff"/>
   </g>
   <g id="matplotlib.axis_1">
    <g id="xtick_1">
     <g id="line2d_1">
      <path d="M 71.080511 339.84 
L 71.080511 7.2 
" clip-path="url(#p4c802ca49a)" style="fill: none; stroke: #b0b0b0; stroke-width: 0.8; stroke-linecap: square"/>
     </g>
     <g id="line2d_2">
      <defs>
       <path id="me523125d0e" d="M 0 0 
L 0 3.5 
" style="stroke: #000000; stroke-width: 0.8"/>
      </defs>
      <g>
       <use xlink:href="#me523125d0e" x="71.080511" y="339.84" style="stroke: #000000; stroke-width: 0.8"/>
      </g>
     </g>
     <g id="text_1">
      <!-- 0.0 -->
      <g transform="translate(63.128949 354.438437) scale(0.1 -0.1)">
       <defs>
        <path id="DejaVuSans-30" d="M 2034 4250 
Q 1547 4250 1301 3770 
Q 1056 3291 1056 2328 
Q 1056 1369 1301 889 
Q 1547 409 2034 409 
Q 2525 409 2770 889 
Q 3016 1369 3016 2328 
Q 3016 3291 2770 3770 
Q 2525 4250 2034 4250 
z
M 2034 4750 
Q 2819 4750 3233 4129 
Q 3647 3509 3647 2328 
Q 3647 1150 3233 529 
Q 2819 -91 2034 -91 
Q 1250 -91 836 529 
Q 422 1150 422 2328 
Q 422 3509 836 4129 
Q 1250 4750 2034 4750 
z
" transform="scale(0.015625)"/>
        <path id="DejaVuSans-2e" d="M 684 794 
L 1344 794 
L 1344 0 
L 684 0 
L 684 794 
z
" transform="scale(0.015625)"/>
       </defs>
       <use xlink:href="#DejaVuSans-30"/>
       <use xlink:href="#DejaVuSans-2e" x="63.623047"/>
       <use xlink:href="#DejaVuSans-30" x="95.410156"/>
      </g>
     </g>
    </g>
    <g id="xtick_2">
     <g id="line2d_3">
      <path d="M 172.535057 339.84 
L 172.535057 7.2 
" clip-path="url(#p4c802ca49a)" style="fill: none; stroke: #b0b0b0; stroke-width: 0.8; stroke-linecap: square"/>
     </g>
     <g id="line2d_4">
      <g>
       <use xlink:href="#me523125d0e" x="172.535057" y="339.84" style="stroke: #000000; stroke-width: 0.8"/>
      </g>
     </g>
     <g id="text_2">
      <!-- 0.2 -->
      <g transform="translate(164.583494 354.438437) scale(0.1 -0.1)">
       <defs>
        <path id="DejaVuSans-32" d="M 1228 531 
L 3431 531 
L 3431 0 
L 469 0 
L 469 531 
Q 828 903 1448 1529 
Q 2069 2156 2228 2338 
Q 2531 2678 2651 2914 
Q 2772 3150 2772 3378 
Q 2772 3750 2511 3984 
Q 2250 4219 1831 4219 
Q 1534 4219 1204 4116 
Q 875 4013 500 3803 
L 500 4441 
Q 881 4594 1212 4672 
Q 1544 4750 1819 4750 
Q 2544 4750 2975 4387 
Q 3406 4025 3406 3419 
Q 3406 3131 3298 2873 
Q 3191 2616 2906 2266 
Q 2828 2175 2409 1742 
Q 1991 1309 1228 531 
z
" transform="scale(0.015625)"/>
       </defs>
       <use xlink:href="#DejaVuSans-30"/>
       <use xlink:href="#DejaVuSans-2e" x="63.623047"/>
       <use xlink:href="#DejaVuSans-32" x="95.410156"/>
      </g>
     </g>
    </g>
    <g id="xtick_3">
     <g id="line2d_5">
      <path d="M 273.989602 339.84 
L 273.989602 7.2 
" clip-path="url(#p4c802ca49a)" style="fill: none; stroke: #b0b0b0; stroke-width: 0.8; stroke-linecap: square"/>
     </g>
     <g id="line2d_6">
      <g>
       <use xlink:href="#me523125d0e" x="273.989602" y="339.84" style="stroke: #000000; stroke-width: 0.8"/>
      </g>
     </g>
     <g id="text_3">
      <!-- 0.4 -->
      <g transform="translate(266.03804 354.438437) scale(0.1 -0.1)">
       <defs>
        <path id="DejaVuSans-34" d="M 2419 4116 
L 825 1625 
L 2419 1625 
L 2419 4116 
z
M 2253 4666 
L 3047 4666 
L 3047 1625 
L 3713 1625 
L 3713 1100 
L 3047 1100 
L 3047 0 
L 2419 0 
L 2419 1100 
L 313 1100 
L 313 1709 
L 2253 4666 
z
" transform="scale(0.015625)"/>
       </defs>
       <use xlink:href="#DejaVuSans-30"/>
       <use xlink:href="#DejaVuSans-2e" x="63.623047"/>
       <use xlink:href="#DejaVuSans-34" x="95.410156"/>
      </g>
     </g>
    </g>
    <g id="xtick_4">
     <g id="line2d_7">
      <path d="M 375.444148 339.84 
L 375.444148 7.2 
" clip-path="url(#p4c802ca49a)" style="fill: none; stroke: #b0b0b0; stroke-width: 0.8; stroke-linecap: square"/>
     </g>
     <g id="line2d_8">
      <g>
       <use xlink:href="#me523125d0e" x="375.444148" y="339.84" style="stroke: #000000; stroke-width: 0.8"/>
      </g>
     </g>
     <g id="text_4">
      <!-- 0.6 -->
      <g transform="translate(367.492585 354.438437) scale(0.1 -0.1)">
       <defs>
        <path id="DejaVuSans-36" d="M 2113 2584 
Q 1688 2584 1439 2293 
Q 1191 2003 1191 1497 
Q 1191 994 1439 701 
Q 1688 409 2113 409 
Q 2538 409 2786 701 
Q 3034 994 3034 1497 
Q 3034 2003 2786 2293 
Q 2538 2584 2113 2584 
z
M 3366 4563 
L 3366 3988 
Q 3128 4100 2886 4159 
Q 2644 4219 2406 4219 
Q 1781 4219 1451 3797 
Q 1122 3375 1075 2522 
Q 1259 2794 1537 2939 
Q 1816 3084 2150 3084 
Q 2853 3084 3261 2657 
Q 3669 2231 3669 1497 
Q 3669 778 3244 343 
Q 2819 -91 2113 -91 
Q 1303 -91 875 529 
Q 447 1150 447 2328 
Q 447 3434 972 4092 
Q 1497 4750 2381 4750 
Q 2619 4750 2861 4703 
Q 3103 4656 3366 4563 
z
" transform="scale(0.015625)"/>
       </defs>
       <use xlink:href="#DejaVuSans-30"/>
       <use xlink:href="#DejaVuSans-2e" x="63.623047"/>
       <use xlink:href="#DejaVuSans-36" x="95.410156"/>
      </g>
     </g>
    </g>
    <g id="xtick_5">
     <g id="line2d_9">
      <path d="M 476.898693 339.84 
L 476.898693 7.2 
" clip-path="url(#p4c802ca49a)" style="fill: none; stroke: #b0b0b0; stroke-width: 0.8; stroke-linecap: square"/>
     </g>
     <g id="line2d_10">
      <g>
       <use xlink:href="#me523125d0e" x="476.898693" y="339.84" style="stroke: #000000; stroke-width: 0.8"/>
      </g>
     </g>
     <g id="text_5">
      <!-- 0.8 -->
      <g transform="translate(468.947131 354.438437) scale(0.1 -0.1)">
       <defs>
        <path id="DejaVuSans-38" d="M 2034 2216 
Q 1584 2216 1326 1975 
Q 1069 1734 1069 1313 
Q 1069 891 1326 650 
Q 1584 409 2034 409 
Q 2484 409 2743 651 
Q 3003 894 3003 1313 
Q 3003 1734 2745 1975 
Q 2488 2216 2034 2216 
z
M 1403 2484 
Q 997 2584 770 2862 
Q 544 3141 544 3541 
Q 544 4100 942 4425 
Q 1341 4750 2034 4750 
Q 2731 4750 3128 4425 
Q 3525 4100 3525 3541 
Q 3525 3141 3298 2862 
Q 3072 2584 2669 2484 
Q 3125 2378 3379 2068 
Q 3634 1759 3634 1313 
Q 3634 634 3220 271 
Q 2806 -91 2034 -91 
Q 1263 -91 848 271 
Q 434 634 434 1313 
Q 434 1759 690 2068 
Q 947 2378 1403 2484 
z
M 1172 3481 
Q 1172 3119 1398 2916 
Q 1625 2713 2034 2713 
Q 2441 2713 2670 2916 
Q 2900 3119 2900 3481 
Q 2900 3844 2670 4047 
Q 2441 4250 2034 4250 
Q 1625 4250 1398 4047 
Q 1172 3844 1172 3481 
z
" transform="scale(0.015625)"/>
       </defs>
       <use xlink:href="#DejaVuSans-30"/>
       <use xlink:href="#DejaVuSans-2e" x="63.623047"/>
       <use xlink:href="#DejaVuSans-38" x="95.410156"/>
      </g>
     </g>
    </g>
    <g id="xtick_6">
     <g id="line2d_11">
      <path d="M 578.353239 339.84 
L 578.353239 7.2 
" clip-path="url(#p4c802ca49a)" style="fill: none; stroke: #b0b0b0; stroke-width: 0.8; stroke-linecap: square"/>
     </g>
     <g id="line2d_12">
      <g>
       <use xlink:href="#me523125d0e" x="578.353239" y="339.84" style="stroke: #000000; stroke-width: 0.8"/>
      </g>
     </g>
     <g id="text_6">
      <!-- 1.0 -->
      <g transform="translate(570.401676 354.438437) scale(0.1 -0.1)">
       <defs>
        <path id="DejaVuSans-31" d="M 794 531 
L 1825 531 
L 1825 4091 
L 703 3866 
L 703 4441 
L 1819 4666 
L 2450 4666 
L 2450 531 
L 3481 531 
L 3481 0 
L 794 0 
L 794 531 
z
" transform="scale(0.015625)"/>
       </defs>
       <use xlink:href="#DejaVuSans-31"/>
       <use xlink:href="#DejaVuSans-2e" x="63.623047"/>
       <use xlink:href="#DejaVuSans-30" x="95.410156"/>
      </g>
     </g>
    </g>
    <g id="text_7">
     <!-- False Positive Rate -->
     <g transform="translate(268.957188 369.63625) scale(0.12 -0.12)">
      <defs>
       <path id="DejaVuSans-46" d="M 628 4666 
L 3309 4666 
L 3309 4134 
L 1259 4134 
L 1259 2759 
L 3109 2759 
L 3109 2228 
L 1259 2228 
L 1259 0 
L 628 0 
L 628 4666 
z
" transform="scale(0.015625)"/>
       <path id="DejaVuSans-61" d="M 2194 1759 
Q 1497 1759 1228 1600 
Q 959 1441 959 1056 
Q 959 750 1161 570 
Q 1363 391 1709 391 
Q 2188 391 2477 730 
Q 2766 1069 2766 1631 
L 2766 1759 
L 2194 1759 
z
M 3341 1997 
L 3341 0 
L 2766 0 
L 2766 531 
Q 2569 213 2275 61 
Q 1981 -91 1556 -91 
Q 1019 -91 701 211 
Q 384 513 384 1019 
Q 384 1609 779 1909 
Q 1175 2209 1959 2209 
L 2766 2209 
L 2766 2266 
Q 2766 2663 2505 2880 
Q 2244 3097 1772 3097 
Q 1472 3097 1187 3025 
Q 903 2953 641 2809 
L 641 3341 
Q 956 3463 1253 3523 
Q 1550 3584 1831 3584 
Q 2591 3584 2966 3190 
Q 3341 2797 3341 1997 
z
" transform="scale(0.015625)"/>
       <path id="DejaVuSans-6c" d="M 603 4863 
L 1178 4863 
L 1178 0 
L 603 0 
L 603 4863 
z
" transform="scale(0.015625)"/>
       <path id="DejaVuSans-73" d="M 2834 3397 
L 2834 2853 
Q 2591 2978 2328 3040 
Q 2066 3103 1784 3103 
Q 1356 3103 1142 2972 
Q 928 2841 928 2578 
Q 928 2378 1081 2264 
Q 1234 2150 1697 2047 
L 1894 2003 
Q 2506 1872 2764 1633 
Q 3022 1394 3022 966 
Q 3022 478 2636 193 
Q 2250 -91 1575 -91 
Q 1294 -91 989 -36 
Q 684 19 347 128 
L 347 722 
Q 666 556 975 473 
Q 1284 391 1588 391 
Q 1994 391 2212 530 
Q 2431 669 2431 922 
Q 2431 1156 2273 1281 
Q 2116 1406 1581 1522 
L 1381 1569 
Q 847 1681 609 1914 
Q 372 2147 372 2553 
Q 372 3047 722 3315 
Q 1072 3584 1716 3584 
Q 2034 3584 2315 3537 
Q 2597 3491 2834 3397 
z
" transform="scale(0.015625)"/>
       <path id="DejaVuSans-65" d="M 3597 1894 
L 3597 1613 
L 953 1613 
Q 991 1019 1311 708 
Q 1631 397 2203 397 
Q 2534 397 2845 478 
Q 3156 559 3463 722 
L 3463 178 
Q 3153 47 2828 -22 
Q 2503 -91 2169 -91 
Q 1331 -91 842 396 
Q 353 884 353 1716 
Q 353 2575 817 3079 
Q 1281 3584 2069 3584 
Q 2775 3584 3186 3129 
Q 3597 2675 3597 1894 
z
M 3022 2063 
Q 3016 2534 2758 2815 
Q 2500 3097 2075 3097 
Q 1594 3097 1305 2825 
Q 1016 2553 972 2059 
L 3022 2063 
z
" transform="scale(0.015625)"/>
       <path id="DejaVuSans-20" transform="scale(0.015625)"/>
       <path id="DejaVuSans-50" d="M 1259 4147 
L 1259 2394 
L 2053 2394 
Q 2494 2394 2734 2622 
Q 2975 2850 2975 3272 
Q 2975 3691 2734 3919 
Q 2494 4147 2053 4147 
L 1259 4147 
z
M 628 4666 
L 2053 4666 
Q 2838 4666 3239 4311 
Q 3641 3956 3641 3272 
Q 3641 2581 3239 2228 
Q 2838 1875 2053 1875 
L 1259 1875 
L 1259 0 
L 628 0 
L 628 4666 
z
" transform="scale(0.015625)"/>
       <path id="DejaVuSans-6f" d="M 1959 3097 
Q 1497 3097 1228 2736 
Q 959 2375 959 1747 
Q 959 1119 1226 758 
Q 1494 397 1959 397 
Q 2419 397 2687 759 
Q 2956 1122 2956 1747 
Q 2956 2369 2687 2733 
Q 2419 3097 1959 3097 
z
M 1959 3584 
Q 2709 3584 3137 3096 
Q 3566 2609 3566 1747 
Q 3566 888 3137 398 
Q 2709 -91 1959 -91 
Q 1206 -91 779 398 
Q 353 888 353 1747 
Q 353 2609 779 3096 
Q 1206 3584 1959 3584 
z
" transform="scale(0.015625)"/>
       <path id="DejaVuSans-69" d="M 603 3500 
L 1178 3500 
L 1178 0 
L 603 0 
L 603 3500 
z
M 603 4863 
L 1178 4863 
L 1178 4134 
L 603 4134 
L 603 4863 
z
" transform="scale(0.015625)"/>
       <path id="DejaVuSans-74" d="M 1172 4494 
L 1172 3500 
L 2356 3500 
L 2356 3053 
L 1172 3053 
L 1172 1153 
Q 1172 725 1289 603 
Q 1406 481 1766 481 
L 2356 481 
L 2356 0 
L 1766 0 
Q 1100 0 847 248 
Q 594 497 594 1153 
L 594 3053 
L 172 3053 
L 172 3500 
L 594 3500 
L 594 4494 
L 1172 4494 
z
" transform="scale(0.015625)"/>
       <path id="DejaVuSans-76" d="M 191 3500 
L 800 3500 
L 1894 563 
L 2988 3500 
L 3597 3500 
L 2284 0 
L 1503 0 
L 191 3500 
z
" transform="scale(0.015625)"/>
       <path id="DejaVuSans-52" d="M 2841 2188 
Q 3044 2119 3236 1894 
Q 3428 1669 3622 1275 
L 4263 0 
L 3584 0 
L 2988 1197 
Q 2756 1666 2539 1819 
Q 2322 1972 1947 1972 
L 1259 1972 
L 1259 0 
L 628 0 
L 628 4666 
L 2053 4666 
Q 2853 4666 3247 4331 
Q 3641 3997 3641 3322 
Q 3641 2881 3436 2590 
Q 3231 2300 2841 2188 
z
M 1259 4147 
L 1259 2491 
L 2053 2491 
Q 2509 2491 2742 2702 
Q 2975 2913 2975 3322 
Q 2975 3731 2742 3939 
Q 2509 4147 2053 4147 
L 1259 4147 
z
" transform="scale(0.015625)"/>
      </defs>
      <use xlink:href="#DejaVuSans-46"/>
      <use xlink:href="#DejaVuSans-61" x="48.394531"/>
      <use xlink:href="#DejaVuSans-6c" x="109.673828"/>
      <use xlink:href="#DejaVuSans-73" x="137.457031"/>
      <use xlink:href="#DejaVuSans-65" x="189.556641"/>
      <use xlink:href="#DejaVuSans-20" x="251.080078"/>
      <use xlink:href="#DejaVuSans-50" x="282.867188"/>
      <use xlink:href="#DejaVuSans-6f" x="339.544922"/>
      <use xlink:href="#DejaVuSans-73" x="400.726562"/>
      <use xlink:href="#DejaVuSans-69" x="452.826172"/>
      <use xlink:href="#DejaVuSans-74" x="480.609375"/>
      <use xlink:href="#DejaVuSans-69" x="519.818359"/>
      <use xlink:href="#DejaVuSans-76" x="547.601562"/>
      <use xlink:href="#DejaVuSans-65" x="606.78125"/>
      <use xlink:href="#DejaVuSans-20" x="668.304688"/>
      <use xlink:href="#DejaVuSans-52" x="700.091797"/>
      <use xlink:href="#DejaVuSans-61" x="767.324219"/>
      <use xlink:href="#DejaVuSans-74" x="828.603516"/>
      <use xlink:href="#DejaVuSans-65" x="867.8125"/>
     </g>
    </g>
   </g>
   <g id="matplotlib.axis_2">
    <g id="ytick_1">
     <g id="line2d_13">
      <path d="M 45.716875 324.72 
L 603.716875 324.72 
" clip-path="url(#p4c802ca49a)" style="fill: none; stroke: #b0b0b0; stroke-width: 0.8; stroke-linecap: square"/>
     </g>
     <g id="line2d_14">
      <defs>
       <path id="ma1573258a3" d="M 0 0 
L -3.5 0 
" style="stroke: #000000; stroke-width: 0.8"/>
      </defs>
      <g>
       <use xlink:href="#ma1573258a3" x="45.716875" y="324.72" style="stroke: #000000; stroke-width: 0.8"/>
      </g>
     </g>
     <g id="text_8">
      <!-- 0.0 -->
      <g transform="translate(22.81375 328.519219) scale(0.1 -0.1)">
       <use xlink:href="#DejaVuSans-30"/>
       <use xlink:href="#DejaVuSans-2e" x="63.623047"/>
       <use xlink:href="#DejaVuSans-30" x="95.410156"/>
      </g>
     </g>
    </g>
    <g id="ytick_2">
     <g id="line2d_15">
      <path d="M 45.716875 264.24 
L 603.716875 264.24 
" clip-path="url(#p4c802ca49a)" style="fill: none; stroke: #b0b0b0; stroke-width: 0.8; stroke-linecap: square"/>
     </g>
     <g id="line2d_16">
      <g>
       <use xlink:href="#ma1573258a3" x="45.716875" y="264.24" style="stroke: #000000; stroke-width: 0.8"/>
      </g>
     </g>
     <g id="text_9">
      <!-- 0.2 -->
      <g transform="translate(22.81375 268.039219) scale(0.1 -0.1)">
       <use xlink:href="#DejaVuSans-30"/>
       <use xlink:href="#DejaVuSans-2e" x="63.623047"/>
       <use xlink:href="#DejaVuSans-32" x="95.410156"/>
      </g>
     </g>
    </g>
    <g id="ytick_3">
     <g id="line2d_17">
      <path d="M 45.716875 203.76 
L 603.716875 203.76 
" clip-path="url(#p4c802ca49a)" style="fill: none; stroke: #b0b0b0; stroke-width: 0.8; stroke-linecap: square"/>
     </g>
     <g id="line2d_18">
      <g>
       <use xlink:href="#ma1573258a3" x="45.716875" y="203.76" style="stroke: #000000; stroke-width: 0.8"/>
      </g>
     </g>
     <g id="text_10">
      <!-- 0.4 -->
      <g transform="translate(22.81375 207.559219) scale(0.1 -0.1)">
       <use xlink:href="#DejaVuSans-30"/>
       <use xlink:href="#DejaVuSans-2e" x="63.623047"/>
       <use xlink:href="#DejaVuSans-34" x="95.410156"/>
      </g>
     </g>
    </g>
    <g id="ytick_4">
     <g id="line2d_19">
      <path d="M 45.716875 143.28 
L 603.716875 143.28 
" clip-path="url(#p4c802ca49a)" style="fill: none; stroke: #b0b0b0; stroke-width: 0.8; stroke-linecap: square"/>
     </g>
     <g id="line2d_20">
      <g>
       <use xlink:href="#ma1573258a3" x="45.716875" y="143.28" style="stroke: #000000; stroke-width: 0.8"/>
      </g>
     </g>
     <g id="text_11">
      <!-- 0.6 -->
      <g transform="translate(22.81375 147.079219) scale(0.1 -0.1)">
       <use xlink:href="#DejaVuSans-30"/>
       <use xlink:href="#DejaVuSans-2e" x="63.623047"/>
       <use xlink:href="#DejaVuSans-36" x="95.410156"/>
      </g>
     </g>
    </g>
    <g id="ytick_5">
     <g id="line2d_21">
      <path d="M 45.716875 82.8 
L 603.716875 82.8 
" clip-path="url(#p4c802ca49a)" style="fill: none; stroke: #b0b0b0; stroke-width: 0.8; stroke-linecap: square"/>
     </g>
     <g id="line2d_22">
      <g>
       <use xlink:href="#ma1573258a3" x="45.716875" y="82.8" style="stroke: #000000; stroke-width: 0.8"/>
      </g>
     </g>
     <g id="text_12">
      <!-- 0.8 -->
      <g transform="translate(22.81375 86.599219) scale(0.1 -0.1)">
       <use xlink:href="#DejaVuSans-30"/>
       <use xlink:href="#DejaVuSans-2e" x="63.623047"/>
       <use xlink:href="#DejaVuSans-38" x="95.410156"/>
      </g>
     </g>
    </g>
    <g id="ytick_6">
     <g id="line2d_23">
      <path d="M 45.716875 22.32 
L 603.716875 22.32 
" clip-path="url(#p4c802ca49a)" style="fill: none; stroke: #b0b0b0; stroke-width: 0.8; stroke-linecap: square"/>
     </g>
     <g id="line2d_24">
      <g>
       <use xlink:href="#ma1573258a3" x="45.716875" y="22.32" style="stroke: #000000; stroke-width: 0.8"/>
      </g>
     </g>
     <g id="text_13">
      <!-- 1.0 -->
      <g transform="translate(22.81375 26.119219) scale(0.1 -0.1)">
       <use xlink:href="#DejaVuSans-31"/>
       <use xlink:href="#DejaVuSans-2e" x="63.623047"/>
       <use xlink:href="#DejaVuSans-30" x="95.410156"/>
      </g>
     </g>
    </g>
    <g id="text_14">
     <!-- True Positive Rate -->
     <g transform="translate(16.318125 226.955625) rotate(-90) scale(0.12 -0.12)">
      <defs>
       <path id="DejaVuSans-54" d="M -19 4666 
L 3928 4666 
L 3928 4134 
L 2272 4134 
L 2272 0 
L 1638 0 
L 1638 4134 
L -19 4134 
L -19 4666 
z
" transform="scale(0.015625)"/>
       <path id="DejaVuSans-72" d="M 2631 2963 
Q 2534 3019 2420 3045 
Q 2306 3072 2169 3072 
Q 1681 3072 1420 2755 
Q 1159 2438 1159 1844 
L 1159 0 
L 581 0 
L 581 3500 
L 1159 3500 
L 1159 2956 
Q 1341 3275 1631 3429 
Q 1922 3584 2338 3584 
Q 2397 3584 2469 3576 
Q 2541 3569 2628 3553 
L 2631 2963 
z
" transform="scale(0.015625)"/>
       <path id="DejaVuSans-75" d="M 544 1381 
L 544 3500 
L 1119 3500 
L 1119 1403 
Q 1119 906 1312 657 
Q 1506 409 1894 409 
Q 2359 409 2629 706 
Q 2900 1003 2900 1516 
L 2900 3500 
L 3475 3500 
L 3475 0 
L 2900 0 
L 2900 538 
Q 2691 219 2414 64 
Q 2138 -91 1772 -91 
Q 1169 -91 856 284 
Q 544 659 544 1381 
z
M 1991 3584 
L 1991 3584 
z
" transform="scale(0.015625)"/>
      </defs>
      <use xlink:href="#DejaVuSans-54"/>
      <use xlink:href="#DejaVuSans-72" x="46.333984"/>
      <use xlink:href="#DejaVuSans-75" x="87.447266"/>
      <use xlink:href="#DejaVuSans-65" x="150.826172"/>
      <use xlink:href="#DejaVuSans-20" x="212.349609"/>
      <use xlink:href="#DejaVuSans-50" x="244.136719"/>
      <use xlink:href="#DejaVuSans-6f" x="300.814453"/>
      <use xlink:href="#DejaVuSans-73" x="361.996094"/>
      <use xlink:href="#DejaVuSans-69" x="414.095703"/>
      <use xlink:href="#DejaVuSans-74" x="441.878906"/>
      <use xlink:href="#DejaVuSans-69" x="481.087891"/>
      <use xlink:href="#DejaVuSans-76" x="508.871094"/>
      <use xlink:href="#DejaVuSans-65" x="568.050781"/>
      <use xlink:href="#DejaVuSans-20" x="629.574219"/>
      <use xlink:href="#DejaVuSans-52" x="661.361328"/>
      <use xlink:href="#DejaVuSans-61" x="728.59375"/>
      <use xlink:href="#DejaVuSans-74" x="789.873047"/>
      <use xlink:href="#DejaVuSans-65" x="829.082031"/>
     </g>
    </g>
   </g>
   <g id="line2d_25">
    <path d="M 71.080511 324.72 
L 71.488352 253.79191 
L 71.488352 251.243596 
L 71.569921 248.695281 
L 71.569921 248.270562 
L 71.651489 247.137978 
L 72.630307 243.598652 
L 72.793444 242.749213 
L 73.201285 242.041348 
L 73.201285 240.200899 
L 73.201285 239.634607 
L 73.201285 239.209888 
L 73.364421 238.785169 
L 73.44599 238.360449 
L 73.609126 238.360449 
L 73.690694 237.794157 
L 74.914217 227.884045 
L 75.403627 227.317753 
L 75.485195 227.17618 
L 89.188655 193.764944 
L 89.351791 193.623371 
L 89.43336 193.623371 
L 89.514928 193.340225 
L 91.961974 190.367191 
L 92.125111 190.367191 
L 92.206679 190.084045 
L 92.859225 189.800899 
L 103.789365 170.26382 
L 105.910139 168.84809 
L 108.846595 166.016629 
L 109.417572 165.308764 
L 109.743845 165.308764 
L 119.042622 153.558202 
L 120.347713 150.585169 
L 120.755554 150.443596 
L 121.4081 150.160449 
L 121.571236 149.73573 
L 124.181419 146.337978 
L 124.262987 146.337978 
L 129.809626 141.099775 
L 130.054331 141.099775 
L 142.207995 131.331236 
L 156.400864 118.164944 
L 156.564 118.164944 
L 162.844753 114.484045 
L 187.804627 99.618876 
L 189.272854 99.33573 
L 189.680696 99.33573 
L 190.333241 99.052584 
L 190.822651 98.911011 
L 191.556764 98.769438 
L 209.828045 89.284045 
L 210.235886 89.284045 
L 210.97 88.57618 
L 212.275091 87.726742 
L 212.927637 87.585169 
L 213.090773 87.585169 
L 213.498614 87.585169 
L 214.477433 86.877303 
L 249.714902 72.578427 
L 250.775288 72.012135 
L 254.445858 69.746966 
L 264.152476 63.093034 
L 275.81673 59.270562 
L 276.061435 59.128989 
L 276.469276 58.987416 
L 276.550844 58.987416 
L 280.38455 58.279551 
L 280.629255 58.137978 
L 282.586892 57.288539 
L 296.698193 53.041348 
L 298.166421 52.758202 
L 298.574262 52.758202 
L 301.592286 51.059326 
L 302.571105 50.917753 
L 306.160106 49.502022 
L 306.241674 49.360449 
L 311.135767 48.086292 
L 311.706745 47.944719 
L 312.033018 47.944719 
L 313.338109 47.803146 
L 324.186682 45.821124 
L 325.654909 45.679551 
L 328.183524 45.254831 
L 328.346661 45.113258 
L 337.563869 43.697528 
L 337.97171 42.84809 
L 364.399811 37.751461 
L 365.949608 37.326742 
L 366.683721 37.326742 
L 367.988813 37.185169 
L 371.740951 36.902022 
L 371.904087 36.902022 
L 380.550318 35.627865 
L 392.540846 34.353708 
L 393.274959 33.787416 
L 393.601232 33.362697 
L 405.918033 32.371685 
L 411.219967 31.805393 
L 411.627808 31.380674 
L 412.117217 30.955955 
L 412.769763 30.955955 
L 413.34074 30.814382 
L 414.156422 30.672809 
L 426.14695 29.681798 
L 430.306929 29.398652 
L 435.445726 28.83236 
L 442.460593 28.549213 
L 446.70214 28.549213 
L 448.578209 27.558202 
L 451.922506 27.416629 
L 455.83778 27.133483 
L 475.985129 26.850337 
L 480.552949 26.425618 
L 487.81252 26.425618 
L 578.353239 22.32 
" clip-path="url(#p4c802ca49a)" style="fill: none; stroke: #1f77b4; stroke-width: 1.5; stroke-linecap: square"/>
   </g>
   <g id="line2d_26">
    <path d="M 71.080511 324.72 
L 71.080511 247.039266 
L 71.080511 241.490642 
L 71.080511 238.71633 
L 72.307289 238.71633 
L 72.920678 235.942018 
L 73.534067 235.942018 
L 73.534067 233.167706 
L 76.601013 205.424587 
L 77.827791 199.875963 
L 79.054569 199.875963 
L 88.255404 177.681468 
L 89.482182 177.681468 
L 95.002684 174.907156 
L 102.363352 172.132844 
L 103.59013 172.132844 
L 105.430297 172.132844 
L 105.430297 169.358532 
L 107.883853 166.58422 
L 109.110631 163.809908 
L 113.404354 163.809908 
L 118.311467 161.035596 
L 118.311467 158.261284 
L 121.378412 149.938349 
L 149.594307 124.969541 
L 151.434474 124.969541 
L 152.661252 124.969541 
L 153.88803 124.969541 
L 160.63531 119.420917 
L 161.248699 119.420917 
L 201.732375 80.58055 
L 204.185931 80.58055 
L 212.773377 77.806239 
L 235.468771 69.483303 
L 239.762494 66.708991 
L 240.375883 66.708991 
L 264.298056 63.934679 
L 266.138223 63.934679 
L 267.365001 63.934679 
L 267.97839 61.160367 
L 271.045335 58.386055 
L 273.498891 52.837431 
L 274.11228 52.837431 
L 274.725669 50.063119 
L 283.926505 50.063119 
L 288.833617 50.063119 
L 291.900562 47.288807 
L 316.436123 41.740183 
L 317.662901 41.740183 
L 370.414358 38.965872 
L 372.867914 36.19156 
L 379.001804 30.642936 
L 391.269585 30.642936 
L 394.33653 30.642936 
L 409.671256 25.094312 
L 415.191757 25.094312 
L 417.031924 25.094312 
L 418.258702 25.094312 
L 420.098869 25.094312 
L 438.50054 25.094312 
L 442.180874 25.094312 
L 453.221877 25.094312 
L 460.582545 25.094312 
L 461.809323 25.094312 
L 464.262879 25.094312 
L 473.463715 25.094312 
L 499.839443 25.094312 
L 500.452832 25.094312 
L 504.133166 25.094312 
L 578.353239 22.32 
" clip-path="url(#p4c802ca49a)" style="fill: none; stroke: #ff7f0e; stroke-width: 1.5; stroke-linecap: square"/>
   </g>
   <g id="line2d_27">
    <path d="M 71.080511 324.72 
L 71.080511 256.176 
L 71.080511 248.112 
L 71.080511 244.08 
L 71.080511 236.016 
L 84.668174 219.888 
L 95.991226 183.6 
L 95.991226 171.504 
L 120.90194 143.28 
L 129.960381 143.28 
L 132.224992 143.28 
L 136.754213 143.28 
L 139.018823 139.248 
L 141.283433 139.248 
L 143.548044 131.184 
L 154.871096 123.12 
L 166.194148 119.088 
L 175.252589 111.024 
L 193.369472 102.96 
L 211.486356 90.864 
L 216.015576 78.768 
L 245.455511 70.704 
L 247.720122 70.704 
L 254.513953 70.704 
L 277.160057 54.576 
L 286.218498 54.576 
L 288.483109 54.576 
L 299.806161 46.512 
L 308.864602 46.512 
L 311.129213 46.512 
L 315.658433 42.48 
L 320.187654 42.48 
L 336.039927 42.48 
L 342.833758 38.448 
L 345.098369 34.416 
L 370.009083 34.416 
L 372.273693 34.416 
L 385.861356 30.384 
L 390.390576 30.384 
L 399.449018 30.384 
L 413.03668 30.384 
L 426.624343 26.352 
L 435.682784 26.352 
L 435.682784 22.32 
L 440.212005 22.32 
L 444.741226 22.32 
L 471.91655 22.32 
L 480.974992 22.32 
L 578.353239 22.32 
" clip-path="url(#p4c802ca49a)" style="fill: none; stroke: #2ca02c; stroke-width: 1.5; stroke-linecap: square"/>
   </g>
   <g id="line2d_28">
    <path d="M 71.080511 324.72 
L 71.080511 286.92 
L 77.192231 286.92 
L 113.862549 286.92 
L 132.197707 286.92 
L 138.309427 249.12 
L 174.979745 249.12 
L 205.538343 211.32 
L 217.761782 173.52 
L 242.20866 173.52 
L 248.32038 173.52 
L 260.543819 135.72 
L 284.990698 135.72 
L 321.661015 135.72 
L 382.778211 97.92 
L 395.00165 97.92 
L 407.22509 60.12 
L 419.448529 60.12 
L 437.783688 60.12 
L 474.454005 60.12 
L 578.353239 22.32 
" clip-path="url(#p4c802ca49a)" style="fill: none; stroke: #d62728; stroke-width: 1.5; stroke-linecap: square"/>
   </g>
   <g id="line2d_29">
    <path d="M 71.080511 324.72 
L 71.080511 264.24 
L 71.080511 173.52 
L 84.087504 173.52 
L 90.591001 143.28 
L 97.094497 143.28 
L 97.094497 113.04 
L 110.10149 113.04 
L 129.61198 113.04 
L 155.625966 82.8 
L 181.639952 82.8 
L 201.150441 52.56 
L 220.660931 52.56 
L 246.674917 52.56 
L 259.68191 22.32 
L 272.688903 22.32 
L 311.709882 22.32 
L 331.220372 22.32 
L 344.227365 22.32 
L 370.241351 22.32 
L 383.248344 22.32 
L 389.75184 22.32 
L 402.758833 22.32 
L 448.283309 22.32 
L 578.353239 22.32 
" clip-path="url(#p4c802ca49a)" style="fill: none; stroke: #9467bd; stroke-width: 1.5; stroke-linecap: square"/>
   </g>
   <g id="line2d_30">
    <path d="M 71.080511 324.72 
L 578.353239 22.32 
" clip-path="url(#p4c802ca49a)" style="fill: none; stroke-dasharray: 7.4,3.2; stroke-dashoffset: 0; stroke: #808080; stroke-width: 2"/>
   </g>
   <g id="patch_3">
    <path d="M 45.716875 339.84 
L 45.716875 7.2 
" style="fill: none; stroke: #000000; stroke-width: 0.8; stroke-linejoin: miter; stroke-linecap: square"/>
   </g>
   <g id="patch_4">
    <path d="M 603.716875 339.84 
L 603.716875 7.2 
" style="fill: none; stroke: #000000; stroke-width: 0.8; stroke-linejoin: miter; stroke-linecap: square"/>
   </g>
   <g id="patch_5">
    <path d="M 45.716875 339.84 
L 603.716875 339.84 
" style="fill: none; stroke: #000000; stroke-width: 0.8; stroke-linejoin: miter; stroke-linecap: square"/>
   </g>
   <g id="patch_6">
    <path d="M 45.716875 7.2 
L 603.716875 7.2 
" style="fill: none; stroke: #000000; stroke-width: 0.8; stroke-linejoin: miter; stroke-linecap: square"/>
   </g>
   <g id="legend_1">
    <g id="patch_7">
     <path d="M 145.584063 485.80475 
L 503.849688 485.80475 
Q 505.849688 485.80475 505.849688 483.80475 
L 505.849688 396.736 
Q 505.849688 394.736 503.849688 394.736 
L 145.584063 394.736 
Q 143.584063 394.736 143.584063 396.736 
L 143.584063 483.80475 
Q 143.584063 485.80475 145.584063 485.80475 
z
" style="fill: #ffffff; opacity: 0.8; stroke: #cccccc; stroke-linejoin: miter"/>
    </g>
    <g id="line2d_31">
     <path d="M 147.584063 402.834437 
L 157.584063 402.834437 
L 167.584063 402.834437 
" style="fill: none; stroke: #1f77b4; stroke-width: 1.5; stroke-linecap: square"/>
    </g>
    <g id="text_15">
     <!-- AUC for White = 0.85, Count: 8,355, Pos: 2,136, Neg: 6,219 -->
     <g transform="translate(175.584063 406.334437) scale(0.1 -0.1)">
      <defs>
       <path id="DejaVuSans-41" d="M 2188 4044 
L 1331 1722 
L 3047 1722 
L 2188 4044 
z
M 1831 4666 
L 2547 4666 
L 4325 0 
L 3669 0 
L 3244 1197 
L 1141 1197 
L 716 0 
L 50 0 
L 1831 4666 
z
" transform="scale(0.015625)"/>
       <path id="DejaVuSans-55" d="M 556 4666 
L 1191 4666 
L 1191 1831 
Q 1191 1081 1462 751 
Q 1734 422 2344 422 
Q 2950 422 3222 751 
Q 3494 1081 3494 1831 
L 3494 4666 
L 4128 4666 
L 4128 1753 
Q 4128 841 3676 375 
Q 3225 -91 2344 -91 
Q 1459 -91 1007 375 
Q 556 841 556 1753 
L 556 4666 
z
" transform="scale(0.015625)"/>
       <path id="DejaVuSans-43" d="M 4122 4306 
L 4122 3641 
Q 3803 3938 3442 4084 
Q 3081 4231 2675 4231 
Q 1875 4231 1450 3742 
Q 1025 3253 1025 2328 
Q 1025 1406 1450 917 
Q 1875 428 2675 428 
Q 3081 428 3442 575 
Q 3803 722 4122 1019 
L 4122 359 
Q 3791 134 3420 21 
Q 3050 -91 2638 -91 
Q 1578 -91 968 557 
Q 359 1206 359 2328 
Q 359 3453 968 4101 
Q 1578 4750 2638 4750 
Q 3056 4750 3426 4639 
Q 3797 4528 4122 4306 
z
" transform="scale(0.015625)"/>
       <path id="DejaVuSans-66" d="M 2375 4863 
L 2375 4384 
L 1825 4384 
Q 1516 4384 1395 4259 
Q 1275 4134 1275 3809 
L 1275 3500 
L 2222 3500 
L 2222 3053 
L 1275 3053 
L 1275 0 
L 697 0 
L 697 3053 
L 147 3053 
L 147 3500 
L 697 3500 
L 697 3744 
Q 697 4328 969 4595 
Q 1241 4863 1831 4863 
L 2375 4863 
z
" transform="scale(0.015625)"/>
       <path id="DejaVuSans-57" d="M 213 4666 
L 850 4666 
L 1831 722 
L 2809 4666 
L 3519 4666 
L 4500 722 
L 5478 4666 
L 6119 4666 
L 4947 0 
L 4153 0 
L 3169 4050 
L 2175 0 
L 1381 0 
L 213 4666 
z
" transform="scale(0.015625)"/>
       <path id="DejaVuSans-68" d="M 3513 2113 
L 3513 0 
L 2938 0 
L 2938 2094 
Q 2938 2591 2744 2837 
Q 2550 3084 2163 3084 
Q 1697 3084 1428 2787 
Q 1159 2491 1159 1978 
L 1159 0 
L 581 0 
L 581 4863 
L 1159 4863 
L 1159 2956 
Q 1366 3272 1645 3428 
Q 1925 3584 2291 3584 
Q 2894 3584 3203 3211 
Q 3513 2838 3513 2113 
z
" transform="scale(0.015625)"/>
       <path id="DejaVuSans-3d" d="M 678 2906 
L 4684 2906 
L 4684 2381 
L 678 2381 
L 678 2906 
z
M 678 1631 
L 4684 1631 
L 4684 1100 
L 678 1100 
L 678 1631 
z
" transform="scale(0.015625)"/>
       <path id="DejaVuSans-35" d="M 691 4666 
L 3169 4666 
L 3169 4134 
L 1269 4134 
L 1269 2991 
Q 1406 3038 1543 3061 
Q 1681 3084 1819 3084 
Q 2600 3084 3056 2656 
Q 3513 2228 3513 1497 
Q 3513 744 3044 326 
Q 2575 -91 1722 -91 
Q 1428 -91 1123 -41 
Q 819 9 494 109 
L 494 744 
Q 775 591 1075 516 
Q 1375 441 1709 441 
Q 2250 441 2565 725 
Q 2881 1009 2881 1497 
Q 2881 1984 2565 2268 
Q 2250 2553 1709 2553 
Q 1456 2553 1204 2497 
Q 953 2441 691 2322 
L 691 4666 
z
" transform="scale(0.015625)"/>
       <path id="DejaVuSans-2c" d="M 750 794 
L 1409 794 
L 1409 256 
L 897 -744 
L 494 -744 
L 750 256 
L 750 794 
z
" transform="scale(0.015625)"/>
       <path id="DejaVuSans-6e" d="M 3513 2113 
L 3513 0 
L 2938 0 
L 2938 2094 
Q 2938 2591 2744 2837 
Q 2550 3084 2163 3084 
Q 1697 3084 1428 2787 
Q 1159 2491 1159 1978 
L 1159 0 
L 581 0 
L 581 3500 
L 1159 3500 
L 1159 2956 
Q 1366 3272 1645 3428 
Q 1925 3584 2291 3584 
Q 2894 3584 3203 3211 
Q 3513 2838 3513 2113 
z
" transform="scale(0.015625)"/>
       <path id="DejaVuSans-3a" d="M 750 794 
L 1409 794 
L 1409 0 
L 750 0 
L 750 794 
z
M 750 3309 
L 1409 3309 
L 1409 2516 
L 750 2516 
L 750 3309 
z
" transform="scale(0.015625)"/>
       <path id="DejaVuSans-33" d="M 2597 2516 
Q 3050 2419 3304 2112 
Q 3559 1806 3559 1356 
Q 3559 666 3084 287 
Q 2609 -91 1734 -91 
Q 1441 -91 1130 -33 
Q 819 25 488 141 
L 488 750 
Q 750 597 1062 519 
Q 1375 441 1716 441 
Q 2309 441 2620 675 
Q 2931 909 2931 1356 
Q 2931 1769 2642 2001 
Q 2353 2234 1838 2234 
L 1294 2234 
L 1294 2753 
L 1863 2753 
Q 2328 2753 2575 2939 
Q 2822 3125 2822 3475 
Q 2822 3834 2567 4026 
Q 2313 4219 1838 4219 
Q 1578 4219 1281 4162 
Q 984 4106 628 3988 
L 628 4550 
Q 988 4650 1302 4700 
Q 1616 4750 1894 4750 
Q 2613 4750 3031 4423 
Q 3450 4097 3450 3541 
Q 3450 3153 3228 2886 
Q 3006 2619 2597 2516 
z
" transform="scale(0.015625)"/>
       <path id="DejaVuSans-4e" d="M 628 4666 
L 1478 4666 
L 3547 763 
L 3547 4666 
L 4159 4666 
L 4159 0 
L 3309 0 
L 1241 3903 
L 1241 0 
L 628 0 
L 628 4666 
z
" transform="scale(0.015625)"/>
       <path id="DejaVuSans-67" d="M 2906 1791 
Q 2906 2416 2648 2759 
Q 2391 3103 1925 3103 
Q 1463 3103 1205 2759 
Q 947 2416 947 1791 
Q 947 1169 1205 825 
Q 1463 481 1925 481 
Q 2391 481 2648 825 
Q 2906 1169 2906 1791 
z
M 3481 434 
Q 3481 -459 3084 -895 
Q 2688 -1331 1869 -1331 
Q 1566 -1331 1297 -1286 
Q 1028 -1241 775 -1147 
L 775 -588 
Q 1028 -725 1275 -790 
Q 1522 -856 1778 -856 
Q 2344 -856 2625 -561 
Q 2906 -266 2906 331 
L 2906 616 
Q 2728 306 2450 153 
Q 2172 0 1784 0 
Q 1141 0 747 490 
Q 353 981 353 1791 
Q 353 2603 747 3093 
Q 1141 3584 1784 3584 
Q 2172 3584 2450 3431 
Q 2728 3278 2906 2969 
L 2906 3500 
L 3481 3500 
L 3481 434 
z
" transform="scale(0.015625)"/>
       <path id="DejaVuSans-39" d="M 703 97 
L 703 672 
Q 941 559 1184 500 
Q 1428 441 1663 441 
Q 2288 441 2617 861 
Q 2947 1281 2994 2138 
Q 2813 1869 2534 1725 
Q 2256 1581 1919 1581 
Q 1219 1581 811 2004 
Q 403 2428 403 3163 
Q 403 3881 828 4315 
Q 1253 4750 1959 4750 
Q 2769 4750 3195 4129 
Q 3622 3509 3622 2328 
Q 3622 1225 3098 567 
Q 2575 -91 1691 -91 
Q 1453 -91 1209 -44 
Q 966 3 703 97 
z
M 1959 2075 
Q 2384 2075 2632 2365 
Q 2881 2656 2881 3163 
Q 2881 3666 2632 3958 
Q 2384 4250 1959 4250 
Q 1534 4250 1286 3958 
Q 1038 3666 1038 3163 
Q 1038 2656 1286 2365 
Q 1534 2075 1959 2075 
z
" transform="scale(0.015625)"/>
      </defs>
      <use xlink:href="#DejaVuSans-41"/>
      <use xlink:href="#DejaVuSans-55" x="68.408203"/>
      <use xlink:href="#DejaVuSans-43" x="141.601562"/>
      <use xlink:href="#DejaVuSans-20" x="211.425781"/>
      <use xlink:href="#DejaVuSans-66" x="243.212891"/>
      <use xlink:href="#DejaVuSans-6f" x="278.417969"/>
      <use xlink:href="#DejaVuSans-72" x="339.599609"/>
      <use xlink:href="#DejaVuSans-20" x="380.712891"/>
      <use xlink:href="#DejaVuSans-57" x="412.5"/>
      <use xlink:href="#DejaVuSans-68" x="511.376953"/>
      <use xlink:href="#DejaVuSans-69" x="574.755859"/>
      <use xlink:href="#DejaVuSans-74" x="602.539062"/>
      <use xlink:href="#DejaVuSans-65" x="641.748047"/>
      <use xlink:href="#DejaVuSans-20" x="703.271484"/>
      <use xlink:href="#DejaVuSans-3d" x="735.058594"/>
      <use xlink:href="#DejaVuSans-20" x="818.847656"/>
      <use xlink:href="#DejaVuSans-30" x="850.634766"/>
      <use xlink:href="#DejaVuSans-2e" x="914.257812"/>
      <use xlink:href="#DejaVuSans-38" x="946.044922"/>
      <use xlink:href="#DejaVuSans-35" x="1009.667969"/>
      <use xlink:href="#DejaVuSans-2c" x="1073.291016"/>
      <use xlink:href="#DejaVuSans-20" x="1105.078125"/>
      <use xlink:href="#DejaVuSans-43" x="1136.865234"/>
      <use xlink:href="#DejaVuSans-6f" x="1206.689453"/>
      <use xlink:href="#DejaVuSans-75" x="1267.871094"/>
      <use xlink:href="#DejaVuSans-6e" x="1331.25"/>
      <use xlink:href="#DejaVuSans-74" x="1394.628906"/>
      <use xlink:href="#DejaVuSans-3a" x="1433.837891"/>
      <use xlink:href="#DejaVuSans-20" x="1467.529297"/>
      <use xlink:href="#DejaVuSans-38" x="1499.316406"/>
      <use xlink:href="#DejaVuSans-2c" x="1562.939453"/>
      <use xlink:href="#DejaVuSans-33" x="1594.726562"/>
      <use xlink:href="#DejaVuSans-35" x="1658.349609"/>
      <use xlink:href="#DejaVuSans-35" x="1721.972656"/>
      <use xlink:href="#DejaVuSans-2c" x="1785.595703"/>
      <use xlink:href="#DejaVuSans-20" x="1817.382812"/>
      <use xlink:href="#DejaVuSans-50" x="1849.169922"/>
      <use xlink:href="#DejaVuSans-6f" x="1905.847656"/>
      <use xlink:href="#DejaVuSans-73" x="1967.029297"/>
      <use xlink:href="#DejaVuSans-3a" x="2019.128906"/>
      <use xlink:href="#DejaVuSans-20" x="2052.820312"/>
      <use xlink:href="#DejaVuSans-32" x="2084.607422"/>
      <use xlink:href="#DejaVuSans-2c" x="2148.230469"/>
      <use xlink:href="#DejaVuSans-31" x="2180.017578"/>
      <use xlink:href="#DejaVuSans-33" x="2243.640625"/>
      <use xlink:href="#DejaVuSans-36" x="2307.263672"/>
      <use xlink:href="#DejaVuSans-2c" x="2370.886719"/>
      <use xlink:href="#DejaVuSans-20" x="2402.673828"/>
      <use xlink:href="#DejaVuSans-4e" x="2434.460938"/>
      <use xlink:href="#DejaVuSans-65" x="2509.265625"/>
      <use xlink:href="#DejaVuSans-67" x="2570.789062"/>
      <use xlink:href="#DejaVuSans-3a" x="2634.265625"/>
      <use xlink:href="#DejaVuSans-20" x="2667.957031"/>
      <use xlink:href="#DejaVuSans-36" x="2699.744141"/>
      <use xlink:href="#DejaVuSans-2c" x="2763.367188"/>
      <use xlink:href="#DejaVuSans-32" x="2795.154297"/>
      <use xlink:href="#DejaVuSans-31" x="2858.777344"/>
      <use xlink:href="#DejaVuSans-39" x="2922.400391"/>
     </g>
    </g>
    <g id="line2d_32">
     <path d="M 147.584063 417.512563 
L 157.584063 417.512563 
L 167.584063 417.512563 
" style="fill: none; stroke: #ff7f0e; stroke-width: 1.5; stroke-linecap: square"/>
    </g>
    <g id="text_16">
     <!-- AUC for Black = 0.86, Count: 936, Pos: 109, Neg: 827 -->
     <g transform="translate(175.584063 421.012563) scale(0.1 -0.1)">
      <defs>
       <path id="DejaVuSans-42" d="M 1259 2228 
L 1259 519 
L 2272 519 
Q 2781 519 3026 730 
Q 3272 941 3272 1375 
Q 3272 1813 3026 2020 
Q 2781 2228 2272 2228 
L 1259 2228 
z
M 1259 4147 
L 1259 2741 
L 2194 2741 
Q 2656 2741 2882 2914 
Q 3109 3088 3109 3444 
Q 3109 3797 2882 3972 
Q 2656 4147 2194 4147 
L 1259 4147 
z
M 628 4666 
L 2241 4666 
Q 2963 4666 3353 4366 
Q 3744 4066 3744 3513 
Q 3744 3084 3544 2831 
Q 3344 2578 2956 2516 
Q 3422 2416 3680 2098 
Q 3938 1781 3938 1306 
Q 3938 681 3513 340 
Q 3088 0 2303 0 
L 628 0 
L 628 4666 
z
" transform="scale(0.015625)"/>
       <path id="DejaVuSans-63" d="M 3122 3366 
L 3122 2828 
Q 2878 2963 2633 3030 
Q 2388 3097 2138 3097 
Q 1578 3097 1268 2742 
Q 959 2388 959 1747 
Q 959 1106 1268 751 
Q 1578 397 2138 397 
Q 2388 397 2633 464 
Q 2878 531 3122 666 
L 3122 134 
Q 2881 22 2623 -34 
Q 2366 -91 2075 -91 
Q 1284 -91 818 406 
Q 353 903 353 1747 
Q 353 2603 823 3093 
Q 1294 3584 2113 3584 
Q 2378 3584 2631 3529 
Q 2884 3475 3122 3366 
z
" transform="scale(0.015625)"/>
       <path id="DejaVuSans-6b" d="M 581 4863 
L 1159 4863 
L 1159 1991 
L 2875 3500 
L 3609 3500 
L 1753 1863 
L 3688 0 
L 2938 0 
L 1159 1709 
L 1159 0 
L 581 0 
L 581 4863 
z
" transform="scale(0.015625)"/>
       <path id="DejaVuSans-37" d="M 525 4666 
L 3525 4666 
L 3525 4397 
L 1831 0 
L 1172 0 
L 2766 4134 
L 525 4134 
L 525 4666 
z
" transform="scale(0.015625)"/>
      </defs>
      <use xlink:href="#DejaVuSans-41"/>
      <use xlink:href="#DejaVuSans-55" x="68.408203"/>
      <use xlink:href="#DejaVuSans-43" x="141.601562"/>
      <use xlink:href="#DejaVuSans-20" x="211.425781"/>
      <use xlink:href="#DejaVuSans-66" x="243.212891"/>
      <use xlink:href="#DejaVuSans-6f" x="278.417969"/>
      <use xlink:href="#DejaVuSans-72" x="339.599609"/>
      <use xlink:href="#DejaVuSans-20" x="380.712891"/>
      <use xlink:href="#DejaVuSans-42" x="412.5"/>
      <use xlink:href="#DejaVuSans-6c" x="481.103516"/>
      <use xlink:href="#DejaVuSans-61" x="508.886719"/>
      <use xlink:href="#DejaVuSans-63" x="570.166016"/>
      <use xlink:href="#DejaVuSans-6b" x="625.146484"/>
      <use xlink:href="#DejaVuSans-20" x="683.056641"/>
      <use xlink:href="#DejaVuSans-3d" x="714.84375"/>
      <use xlink:href="#DejaVuSans-20" x="798.632812"/>
      <use xlink:href="#DejaVuSans-30" x="830.419922"/>
      <use xlink:href="#DejaVuSans-2e" x="894.042969"/>
      <use xlink:href="#DejaVuSans-38" x="925.830078"/>
      <use xlink:href="#DejaVuSans-36" x="989.453125"/>
      <use xlink:href="#DejaVuSans-2c" x="1053.076172"/>
      <use xlink:href="#DejaVuSans-20" x="1084.863281"/>
      <use xlink:href="#DejaVuSans-43" x="1116.650391"/>
      <use xlink:href="#DejaVuSans-6f" x="1186.474609"/>
      <use xlink:href="#DejaVuSans-75" x="1247.65625"/>
      <use xlink:href="#DejaVuSans-6e" x="1311.035156"/>
      <use xlink:href="#DejaVuSans-74" x="1374.414062"/>
      <use xlink:href="#DejaVuSans-3a" x="1413.623047"/>
      <use xlink:href="#DejaVuSans-20" x="1447.314453"/>
      <use xlink:href="#DejaVuSans-39" x="1479.101562"/>
      <use xlink:href="#DejaVuSans-33" x="1542.724609"/>
      <use xlink:href="#DejaVuSans-36" x="1606.347656"/>
      <use xlink:href="#DejaVuSans-2c" x="1669.970703"/>
      <use xlink:href="#DejaVuSans-20" x="1701.757812"/>
      <use xlink:href="#DejaVuSans-50" x="1733.544922"/>
      <use xlink:href="#DejaVuSans-6f" x="1790.222656"/>
      <use xlink:href="#DejaVuSans-73" x="1851.404297"/>
      <use xlink:href="#DejaVuSans-3a" x="1903.503906"/>
      <use xlink:href="#DejaVuSans-20" x="1937.195312"/>
      <use xlink:href="#DejaVuSans-31" x="1968.982422"/>
      <use xlink:href="#DejaVuSans-30" x="2032.605469"/>
      <use xlink:href="#DejaVuSans-39" x="2096.228516"/>
      <use xlink:href="#DejaVuSans-2c" x="2159.851562"/>
      <use xlink:href="#DejaVuSans-20" x="2191.638672"/>
      <use xlink:href="#DejaVuSans-4e" x="2223.425781"/>
      <use xlink:href="#DejaVuSans-65" x="2298.230469"/>
      <use xlink:href="#DejaVuSans-67" x="2359.753906"/>
      <use xlink:href="#DejaVuSans-3a" x="2423.230469"/>
      <use xlink:href="#DejaVuSans-20" x="2456.921875"/>
      <use xlink:href="#DejaVuSans-38" x="2488.708984"/>
      <use xlink:href="#DejaVuSans-32" x="2552.332031"/>
      <use xlink:href="#DejaVuSans-37" x="2615.955078"/>
     </g>
    </g>
    <g id="line2d_33">
     <path d="M 147.584063 432.190687 
L 157.584063 432.190687 
L 167.584063 432.190687 
" style="fill: none; stroke: #2ca02c; stroke-width: 1.5; stroke-linecap: square"/>
    </g>
    <g id="text_17">
     <!-- AUC for Asian-Pac-Islander = 0.85, Count: 299, Pos: 75, Neg: 224 -->
     <g transform="translate(175.584063 435.690687) scale(0.1 -0.1)">
      <defs>
       <path id="DejaVuSans-2d" d="M 313 2009 
L 1997 2009 
L 1997 1497 
L 313 1497 
L 313 2009 
z
" transform="scale(0.015625)"/>
       <path id="DejaVuSans-49" d="M 628 4666 
L 1259 4666 
L 1259 0 
L 628 0 
L 628 4666 
z
" transform="scale(0.015625)"/>
       <path id="DejaVuSans-64" d="M 2906 2969 
L 2906 4863 
L 3481 4863 
L 3481 0 
L 2906 0 
L 2906 525 
Q 2725 213 2448 61 
Q 2172 -91 1784 -91 
Q 1150 -91 751 415 
Q 353 922 353 1747 
Q 353 2572 751 3078 
Q 1150 3584 1784 3584 
Q 2172 3584 2448 3432 
Q 2725 3281 2906 2969 
z
M 947 1747 
Q 947 1113 1208 752 
Q 1469 391 1925 391 
Q 2381 391 2643 752 
Q 2906 1113 2906 1747 
Q 2906 2381 2643 2742 
Q 2381 3103 1925 3103 
Q 1469 3103 1208 2742 
Q 947 2381 947 1747 
z
" transform="scale(0.015625)"/>
      </defs>
      <use xlink:href="#DejaVuSans-41"/>
      <use xlink:href="#DejaVuSans-55" x="68.408203"/>
      <use xlink:href="#DejaVuSans-43" x="141.601562"/>
      <use xlink:href="#DejaVuSans-20" x="211.425781"/>
      <use xlink:href="#DejaVuSans-66" x="243.212891"/>
      <use xlink:href="#DejaVuSans-6f" x="278.417969"/>
      <use xlink:href="#DejaVuSans-72" x="339.599609"/>
      <use xlink:href="#DejaVuSans-20" x="380.712891"/>
      <use xlink:href="#DejaVuSans-41" x="412.5"/>
      <use xlink:href="#DejaVuSans-73" x="480.908203"/>
      <use xlink:href="#DejaVuSans-69" x="533.007812"/>
      <use xlink:href="#DejaVuSans-61" x="560.791016"/>
      <use xlink:href="#DejaVuSans-6e" x="622.070312"/>
      <use xlink:href="#DejaVuSans-2d" x="685.449219"/>
      <use xlink:href="#DejaVuSans-50" x="721.533203"/>
      <use xlink:href="#DejaVuSans-61" x="777.335938"/>
      <use xlink:href="#DejaVuSans-63" x="838.615234"/>
      <use xlink:href="#DejaVuSans-2d" x="893.595703"/>
      <use xlink:href="#DejaVuSans-49" x="929.679688"/>
      <use xlink:href="#DejaVuSans-73" x="959.171875"/>
      <use xlink:href="#DejaVuSans-6c" x="1011.271484"/>
      <use xlink:href="#DejaVuSans-61" x="1039.054688"/>
      <use xlink:href="#DejaVuSans-6e" x="1100.333984"/>
      <use xlink:href="#DejaVuSans-64" x="1163.712891"/>
      <use xlink:href="#DejaVuSans-65" x="1227.189453"/>
      <use xlink:href="#DejaVuSans-72" x="1288.712891"/>
      <use xlink:href="#DejaVuSans-20" x="1329.826172"/>
      <use xlink:href="#DejaVuSans-3d" x="1361.613281"/>
      <use xlink:href="#DejaVuSans-20" x="1445.402344"/>
      <use xlink:href="#DejaVuSans-30" x="1477.189453"/>
      <use xlink:href="#DejaVuSans-2e" x="1540.8125"/>
      <use xlink:href="#DejaVuSans-38" x="1572.599609"/>
      <use xlink:href="#DejaVuSans-35" x="1636.222656"/>
      <use xlink:href="#DejaVuSans-2c" x="1699.845703"/>
      <use xlink:href="#DejaVuSans-20" x="1731.632812"/>
      <use xlink:href="#DejaVuSans-43" x="1763.419922"/>
      <use xlink:href="#DejaVuSans-6f" x="1833.244141"/>
      <use xlink:href="#DejaVuSans-75" x="1894.425781"/>
      <use xlink:href="#DejaVuSans-6e" x="1957.804688"/>
      <use xlink:href="#DejaVuSans-74" x="2021.183594"/>
      <use xlink:href="#DejaVuSans-3a" x="2060.392578"/>
      <use xlink:href="#DejaVuSans-20" x="2094.083984"/>
      <use xlink:href="#DejaVuSans-32" x="2125.871094"/>
      <use xlink:href="#DejaVuSans-39" x="2189.494141"/>
      <use xlink:href="#DejaVuSans-39" x="2253.117188"/>
      <use xlink:href="#DejaVuSans-2c" x="2316.740234"/>
      <use xlink:href="#DejaVuSans-20" x="2348.527344"/>
      <use xlink:href="#DejaVuSans-50" x="2380.314453"/>
      <use xlink:href="#DejaVuSans-6f" x="2436.992188"/>
      <use xlink:href="#DejaVuSans-73" x="2498.173828"/>
      <use xlink:href="#DejaVuSans-3a" x="2550.273438"/>
      <use xlink:href="#DejaVuSans-20" x="2583.964844"/>
      <use xlink:href="#DejaVuSans-37" x="2615.751953"/>
      <use xlink:href="#DejaVuSans-35" x="2679.375"/>
      <use xlink:href="#DejaVuSans-2c" x="2742.998047"/>
      <use xlink:href="#DejaVuSans-20" x="2774.785156"/>
      <use xlink:href="#DejaVuSans-4e" x="2806.572266"/>
      <use xlink:href="#DejaVuSans-65" x="2881.376953"/>
      <use xlink:href="#DejaVuSans-67" x="2942.900391"/>
      <use xlink:href="#DejaVuSans-3a" x="3006.376953"/>
      <use xlink:href="#DejaVuSans-20" x="3040.068359"/>
      <use xlink:href="#DejaVuSans-32" x="3071.855469"/>
      <use xlink:href="#DejaVuSans-32" x="3135.478516"/>
      <use xlink:href="#DejaVuSans-34" x="3199.101562"/>
     </g>
    </g>
    <g id="line2d_34">
     <path d="M 147.584063 446.868812 
L 157.584063 446.868812 
L 167.584063 446.868812 
" style="fill: none; stroke: #d62728; stroke-width: 1.5; stroke-linecap: square"/>
    </g>
    <g id="text_18">
     <!-- AUC for Amer-Indian-Eskimo = 0.61, Count: 91, Pos: 8, Neg: 83 -->
     <g transform="translate(175.584063 450.368812) scale(0.1 -0.1)">
      <defs>
       <path id="DejaVuSans-6d" d="M 3328 2828 
Q 3544 3216 3844 3400 
Q 4144 3584 4550 3584 
Q 5097 3584 5394 3201 
Q 5691 2819 5691 2113 
L 5691 0 
L 5113 0 
L 5113 2094 
Q 5113 2597 4934 2840 
Q 4756 3084 4391 3084 
Q 3944 3084 3684 2787 
Q 3425 2491 3425 1978 
L 3425 0 
L 2847 0 
L 2847 2094 
Q 2847 2600 2669 2842 
Q 2491 3084 2119 3084 
Q 1678 3084 1418 2786 
Q 1159 2488 1159 1978 
L 1159 0 
L 581 0 
L 581 3500 
L 1159 3500 
L 1159 2956 
Q 1356 3278 1631 3431 
Q 1906 3584 2284 3584 
Q 2666 3584 2933 3390 
Q 3200 3197 3328 2828 
z
" transform="scale(0.015625)"/>
       <path id="DejaVuSans-45" d="M 628 4666 
L 3578 4666 
L 3578 4134 
L 1259 4134 
L 1259 2753 
L 3481 2753 
L 3481 2222 
L 1259 2222 
L 1259 531 
L 3634 531 
L 3634 0 
L 628 0 
L 628 4666 
z
" transform="scale(0.015625)"/>
      </defs>
      <use xlink:href="#DejaVuSans-41"/>
      <use xlink:href="#DejaVuSans-55" x="68.408203"/>
      <use xlink:href="#DejaVuSans-43" x="141.601562"/>
      <use xlink:href="#DejaVuSans-20" x="211.425781"/>
      <use xlink:href="#DejaVuSans-66" x="243.212891"/>
      <use xlink:href="#DejaVuSans-6f" x="278.417969"/>
      <use xlink:href="#DejaVuSans-72" x="339.599609"/>
      <use xlink:href="#DejaVuSans-20" x="380.712891"/>
      <use xlink:href="#DejaVuSans-41" x="412.5"/>
      <use xlink:href="#DejaVuSans-6d" x="480.908203"/>
      <use xlink:href="#DejaVuSans-65" x="578.320312"/>
      <use xlink:href="#DejaVuSans-72" x="639.84375"/>
      <use xlink:href="#DejaVuSans-2d" x="674.582031"/>
      <use xlink:href="#DejaVuSans-49" x="710.666016"/>
      <use xlink:href="#DejaVuSans-6e" x="740.158203"/>
      <use xlink:href="#DejaVuSans-64" x="803.537109"/>
      <use xlink:href="#DejaVuSans-69" x="867.013672"/>
      <use xlink:href="#DejaVuSans-61" x="894.796875"/>
      <use xlink:href="#DejaVuSans-6e" x="956.076172"/>
      <use xlink:href="#DejaVuSans-2d" x="1019.455078"/>
      <use xlink:href="#DejaVuSans-45" x="1055.539062"/>
      <use xlink:href="#DejaVuSans-73" x="1118.722656"/>
      <use xlink:href="#DejaVuSans-6b" x="1170.822266"/>
      <use xlink:href="#DejaVuSans-69" x="1228.732422"/>
      <use xlink:href="#DejaVuSans-6d" x="1256.515625"/>
      <use xlink:href="#DejaVuSans-6f" x="1353.927734"/>
      <use xlink:href="#DejaVuSans-20" x="1415.109375"/>
      <use xlink:href="#DejaVuSans-3d" x="1446.896484"/>
      <use xlink:href="#DejaVuSans-20" x="1530.685547"/>
      <use xlink:href="#DejaVuSans-30" x="1562.472656"/>
      <use xlink:href="#DejaVuSans-2e" x="1626.095703"/>
      <use xlink:href="#DejaVuSans-36" x="1657.882812"/>
      <use xlink:href="#DejaVuSans-31" x="1721.505859"/>
      <use xlink:href="#DejaVuSans-2c" x="1785.128906"/>
      <use xlink:href="#DejaVuSans-20" x="1816.916016"/>
      <use xlink:href="#DejaVuSans-43" x="1848.703125"/>
      <use xlink:href="#DejaVuSans-6f" x="1918.527344"/>
      <use xlink:href="#DejaVuSans-75" x="1979.708984"/>
      <use xlink:href="#DejaVuSans-6e" x="2043.087891"/>
      <use xlink:href="#DejaVuSans-74" x="2106.466797"/>
      <use xlink:href="#DejaVuSans-3a" x="2145.675781"/>
      <use xlink:href="#DejaVuSans-20" x="2179.367188"/>
      <use xlink:href="#DejaVuSans-39" x="2211.154297"/>
      <use xlink:href="#DejaVuSans-31" x="2274.777344"/>
      <use xlink:href="#DejaVuSans-2c" x="2338.400391"/>
      <use xlink:href="#DejaVuSans-20" x="2370.1875"/>
      <use xlink:href="#DejaVuSans-50" x="2401.974609"/>
      <use xlink:href="#DejaVuSans-6f" x="2458.652344"/>
      <use xlink:href="#DejaVuSans-73" x="2519.833984"/>
      <use xlink:href="#DejaVuSans-3a" x="2571.933594"/>
      <use xlink:href="#DejaVuSans-20" x="2605.625"/>
      <use xlink:href="#DejaVuSans-38" x="2637.412109"/>
      <use xlink:href="#DejaVuSans-2c" x="2701.035156"/>
      <use xlink:href="#DejaVuSans-20" x="2732.822266"/>
      <use xlink:href="#DejaVuSans-4e" x="2764.609375"/>
      <use xlink:href="#DejaVuSans-65" x="2839.414062"/>
      <use xlink:href="#DejaVuSans-67" x="2900.9375"/>
      <use xlink:href="#DejaVuSans-3a" x="2964.414062"/>
      <use xlink:href="#DejaVuSans-20" x="2998.105469"/>
      <use xlink:href="#DejaVuSans-38" x="3029.892578"/>
      <use xlink:href="#DejaVuSans-33" x="3093.515625"/>
     </g>
    </g>
    <g id="line2d_35">
     <path d="M 147.584063 461.546938 
L 157.584063 461.546938 
L 167.584063 461.546938 
" style="fill: none; stroke: #9467bd; stroke-width: 1.5; stroke-linecap: square"/>
    </g>
    <g id="text_19">
     <!-- AUC for Other = 0.92, Count: 88, Pos: 10, Neg: 78 -->
     <g transform="translate(175.584063 465.046938) scale(0.1 -0.1)">
      <defs>
       <path id="DejaVuSans-4f" d="M 2522 4238 
Q 1834 4238 1429 3725 
Q 1025 3213 1025 2328 
Q 1025 1447 1429 934 
Q 1834 422 2522 422 
Q 3209 422 3611 934 
Q 4013 1447 4013 2328 
Q 4013 3213 3611 3725 
Q 3209 4238 2522 4238 
z
M 2522 4750 
Q 3503 4750 4090 4092 
Q 4678 3434 4678 2328 
Q 4678 1225 4090 567 
Q 3503 -91 2522 -91 
Q 1538 -91 948 565 
Q 359 1222 359 2328 
Q 359 3434 948 4092 
Q 1538 4750 2522 4750 
z
" transform="scale(0.015625)"/>
      </defs>
      <use xlink:href="#DejaVuSans-41"/>
      <use xlink:href="#DejaVuSans-55" x="68.408203"/>
      <use xlink:href="#DejaVuSans-43" x="141.601562"/>
      <use xlink:href="#DejaVuSans-20" x="211.425781"/>
      <use xlink:href="#DejaVuSans-66" x="243.212891"/>
      <use xlink:href="#DejaVuSans-6f" x="278.417969"/>
      <use xlink:href="#DejaVuSans-72" x="339.599609"/>
      <use xlink:href="#DejaVuSans-20" x="380.712891"/>
      <use xlink:href="#DejaVuSans-4f" x="412.5"/>
      <use xlink:href="#DejaVuSans-74" x="491.210938"/>
      <use xlink:href="#DejaVuSans-68" x="530.419922"/>
      <use xlink:href="#DejaVuSans-65" x="593.798828"/>
      <use xlink:href="#DejaVuSans-72" x="655.322266"/>
      <use xlink:href="#DejaVuSans-20" x="696.435547"/>
      <use xlink:href="#DejaVuSans-3d" x="728.222656"/>
      <use xlink:href="#DejaVuSans-20" x="812.011719"/>
      <use xlink:href="#DejaVuSans-30" x="843.798828"/>
      <use xlink:href="#DejaVuSans-2e" x="907.421875"/>
      <use xlink:href="#DejaVuSans-39" x="939.208984"/>
      <use xlink:href="#DejaVuSans-32" x="1002.832031"/>
      <use xlink:href="#DejaVuSans-2c" x="1066.455078"/>
      <use xlink:href="#DejaVuSans-20" x="1098.242188"/>
      <use xlink:href="#DejaVuSans-43" x="1130.029297"/>
      <use xlink:href="#DejaVuSans-6f" x="1199.853516"/>
      <use xlink:href="#DejaVuSans-75" x="1261.035156"/>
      <use xlink:href="#DejaVuSans-6e" x="1324.414062"/>
      <use xlink:href="#DejaVuSans-74" x="1387.792969"/>
      <use xlink:href="#DejaVuSans-3a" x="1427.001953"/>
      <use xlink:href="#DejaVuSans-20" x="1460.693359"/>
      <use xlink:href="#DejaVuSans-38" x="1492.480469"/>
      <use xlink:href="#DejaVuSans-38" x="1556.103516"/>
      <use xlink:href="#DejaVuSans-2c" x="1619.726562"/>
      <use xlink:href="#DejaVuSans-20" x="1651.513672"/>
      <use xlink:href="#DejaVuSans-50" x="1683.300781"/>
      <use xlink:href="#DejaVuSans-6f" x="1739.978516"/>
      <use xlink:href="#DejaVuSans-73" x="1801.160156"/>
      <use xlink:href="#DejaVuSans-3a" x="1853.259766"/>
      <use xlink:href="#DejaVuSans-20" x="1886.951172"/>
      <use xlink:href="#DejaVuSans-31" x="1918.738281"/>
      <use xlink:href="#DejaVuSans-30" x="1982.361328"/>
      <use xlink:href="#DejaVuSans-2c" x="2045.984375"/>
      <use xlink:href="#DejaVuSans-20" x="2077.771484"/>
      <use xlink:href="#DejaVuSans-4e" x="2109.558594"/>
      <use xlink:href="#DejaVuSans-65" x="2184.363281"/>
      <use xlink:href="#DejaVuSans-67" x="2245.886719"/>
      <use xlink:href="#DejaVuSans-3a" x="2309.363281"/>
      <use xlink:href="#DejaVuSans-20" x="2343.054688"/>
      <use xlink:href="#DejaVuSans-37" x="2374.841797"/>
      <use xlink:href="#DejaVuSans-38" x="2438.464844"/>
     </g>
    </g>
    <g id="line2d_36">
     <path d="M 147.584063 476.225062 
L 157.584063 476.225062 
L 167.584063 476.225062 
" style="fill: none; stroke-dasharray: 7.4,3.2; stroke-dashoffset: 0; stroke: #808080; stroke-width: 2"/>
    </g>
    <g id="text_20">
     <!-- Random Guess -->
     <g transform="translate(175.584063 479.725062) scale(0.1 -0.1)">
      <defs>
       <path id="DejaVuSans-47" d="M 3809 666 
L 3809 1919 
L 2778 1919 
L 2778 2438 
L 4434 2438 
L 4434 434 
Q 4069 175 3628 42 
Q 3188 -91 2688 -91 
Q 1594 -91 976 548 
Q 359 1188 359 2328 
Q 359 3472 976 4111 
Q 1594 4750 2688 4750 
Q 3144 4750 3555 4637 
Q 3966 4525 4313 4306 
L 4313 3634 
Q 3963 3931 3569 4081 
Q 3175 4231 2741 4231 
Q 1884 4231 1454 3753 
Q 1025 3275 1025 2328 
Q 1025 1384 1454 906 
Q 1884 428 2741 428 
Q 3075 428 3337 486 
Q 3600 544 3809 666 
z
" transform="scale(0.015625)"/>
      </defs>
      <use xlink:href="#DejaVuSans-52"/>
      <use xlink:href="#DejaVuSans-61" x="67.232422"/>
      <use xlink:href="#DejaVuSans-6e" x="128.511719"/>
      <use xlink:href="#DejaVuSans-64" x="191.890625"/>
      <use xlink:href="#DejaVuSans-6f" x="255.367188"/>
      <use xlink:href="#DejaVuSans-6d" x="316.548828"/>
      <use xlink:href="#DejaVuSans-20" x="413.960938"/>
      <use xlink:href="#DejaVuSans-47" x="445.748047"/>
      <use xlink:href="#DejaVuSans-75" x="523.238281"/>
      <use xlink:href="#DejaVuSans-65" x="586.617188"/>
      <use xlink:href="#DejaVuSans-73" x="648.140625"/>
      <use xlink:href="#DejaVuSans-73" x="700.240234"/>
     </g>
    </g>
   </g>
  </g>
 </g>
 <defs>
  <clipPath id="p4c802ca49a">
   <rect x="45.716875" y="7.2" width="558" height="332.64"/>
  </clipPath>
 </defs>
</svg>
