<?xml version="1.0" encoding="utf-8" standalone="no"?>
<!DOCTYPE svg PUBLIC "-//W3C//DTD SVG 1.1//EN"
  "http://www.w3.org/Graphics/SVG/1.1/DTD/svg11.dtd">
<svg xmlns:xlink="http://www.w3.org/1999/xlink" width="443.177812pt" height="327.922pt" viewBox="0 0 443.177812 327.922" xmlns="http://www.w3.org/2000/svg" version="1.1">
 <metadata>
  <rdf:RDF xmlns:dc="http://purl.org/dc/elements/1.1/" xmlns:cc="http://creativecommons.org/ns#" xmlns:rdf="http://www.w3.org/1999/02/22-rdf-syntax-ns#">
   <cc:Work>
    <dc:type rdf:resource="http://purl.org/dc/dcmitype/StillImage"/>
    <dc:date>2025-02-24T10:03:22.849908</dc:date>
    <dc:format>image/svg+xml</dc:format>
    <dc:creator>
     <cc:Agent>
      <dc:title>Matplotlib v3.9.2, https://matplotlib.org/</dc:title>
     </cc:Agent>
    </dc:creator>
   </cc:Work>
  </rdf:RDF>
 </metadata>
 <defs>
  <style type="text/css">*{stroke-linejoin: round; stroke-linecap: butt}</style>
 </defs>
 <g id="figure_1">
  <g id="patch_1">
   <path d="M 0 327.922 
L 443.177812 327.922 
L 443.177812 0 
L 0 0 
z
" style="fill: #ffffff"/>
  </g>
  <g id="axes_1">
   <g id="patch_2">
    <path d="M 45.716875 288.430125 
L 402.836875 288.430125 
L 402.836875 22.318125 
L 45.716875 22.318125 
z
" style="fill: #ffffff"/>
   </g>
   <g id="matplotlib.axis_1">
    <g id="xtick_1">
     <g id="line2d_1">
      <path d="M 61.949602 288.430125 
L 61.949602 22.318125 
" clip-path="url(#p140a9e62f3)" style="fill: none; stroke: #b0b0b0; stroke-width: 0.8; stroke-linecap: square"/>
     </g>
     <g id="line2d_2">
      <defs>
       <path id="mdd1c7079cd" d="M 0 0 
L 0 3.5 
" style="stroke: #000000; stroke-width: 0.8"/>
      </defs>
      <g>
       <use xlink:href="#mdd1c7079cd" x="61.949602" y="288.430125" style="stroke: #000000; stroke-width: 0.8"/>
      </g>
     </g>
     <g id="text_1">
      <!-- 0.0 -->
      <g transform="translate(53.99804 303.028562) scale(0.1 -0.1)">
       <defs>
        <path id="DejaVuSans-30" d="M 2034 4250 
Q 1547 4250 1301 3770 
Q 1056 3291 1056 2328 
Q 1056 1369 1301 889 
Q 1547 409 2034 409 
Q 2525 409 2770 889 
Q 3016 1369 3016 2328 
Q 3016 3291 2770 3770 
Q 2525 4250 2034 4250 
z
M 2034 4750 
Q 2819 4750 3233 4129 
Q 3647 3509 3647 2328 
Q 3647 1150 3233 529 
Q 2819 -91 2034 -91 
Q 1250 -91 836 529 
Q 422 1150 422 2328 
Q 422 3509 836 4129 
Q 1250 4750 2034 4750 
z
" transform="scale(0.015625)"/>
        <path id="DejaVuSans-2e" d="M 684 794 
L 1344 794 
L 1344 0 
L 684 0 
L 684 794 
z
" transform="scale(0.015625)"/>
       </defs>
       <use xlink:href="#DejaVuSans-30"/>
       <use xlink:href="#DejaVuSans-2e" x="63.623047"/>
       <use xlink:href="#DejaVuSans-30" x="95.410156"/>
      </g>
     </g>
    </g>
    <g id="xtick_2">
     <g id="line2d_3">
      <path d="M 126.880511 288.430125 
L 126.880511 22.318125 
" clip-path="url(#p140a9e62f3)" style="fill: none; stroke: #b0b0b0; stroke-width: 0.8; stroke-linecap: square"/>
     </g>
     <g id="line2d_4">
      <g>
       <use xlink:href="#mdd1c7079cd" x="126.880511" y="288.430125" style="stroke: #000000; stroke-width: 0.8"/>
      </g>
     </g>
     <g id="text_2">
      <!-- 0.2 -->
      <g transform="translate(118.928949 303.028562) scale(0.1 -0.1)">
       <defs>
        <path id="DejaVuSans-32" d="M 1228 531 
L 3431 531 
L 3431 0 
L 469 0 
L 469 531 
Q 828 903 1448 1529 
Q 2069 2156 2228 2338 
Q 2531 2678 2651 2914 
Q 2772 3150 2772 3378 
Q 2772 3750 2511 3984 
Q 2250 4219 1831 4219 
Q 1534 4219 1204 4116 
Q 875 4013 500 3803 
L 500 4441 
Q 881 4594 1212 4672 
Q 1544 4750 1819 4750 
Q 2544 4750 2975 4387 
Q 3406 4025 3406 3419 
Q 3406 3131 3298 2873 
Q 3191 2616 2906 2266 
Q 2828 2175 2409 1742 
Q 1991 1309 1228 531 
z
" transform="scale(0.015625)"/>
       </defs>
       <use xlink:href="#DejaVuSans-30"/>
       <use xlink:href="#DejaVuSans-2e" x="63.623047"/>
       <use xlink:href="#DejaVuSans-32" x="95.410156"/>
      </g>
     </g>
    </g>
    <g id="xtick_3">
     <g id="line2d_5">
      <path d="M 191.81142 288.430125 
L 191.81142 22.318125 
" clip-path="url(#p140a9e62f3)" style="fill: none; stroke: #b0b0b0; stroke-width: 0.8; stroke-linecap: square"/>
     </g>
     <g id="line2d_6">
      <g>
       <use xlink:href="#mdd1c7079cd" x="191.81142" y="288.430125" style="stroke: #000000; stroke-width: 0.8"/>
      </g>
     </g>
     <g id="text_3">
      <!-- 0.4 -->
      <g transform="translate(183.859858 303.028562) scale(0.1 -0.1)">
       <defs>
        <path id="DejaVuSans-34" d="M 2419 4116 
L 825 1625 
L 2419 1625 
L 2419 4116 
z
M 2253 4666 
L 3047 4666 
L 3047 1625 
L 3713 1625 
L 3713 1100 
L 3047 1100 
L 3047 0 
L 2419 0 
L 2419 1100 
L 313 1100 
L 313 1709 
L 2253 4666 
z
" transform="scale(0.015625)"/>
       </defs>
       <use xlink:href="#DejaVuSans-30"/>
       <use xlink:href="#DejaVuSans-2e" x="63.623047"/>
       <use xlink:href="#DejaVuSans-34" x="95.410156"/>
      </g>
     </g>
    </g>
    <g id="xtick_4">
     <g id="line2d_7">
      <path d="M 256.74233 288.430125 
L 256.74233 22.318125 
" clip-path="url(#p140a9e62f3)" style="fill: none; stroke: #b0b0b0; stroke-width: 0.8; stroke-linecap: square"/>
     </g>
     <g id="line2d_8">
      <g>
       <use xlink:href="#mdd1c7079cd" x="256.74233" y="288.430125" style="stroke: #000000; stroke-width: 0.8"/>
      </g>
     </g>
     <g id="text_4">
      <!-- 0.6 -->
      <g transform="translate(248.790767 303.028562) scale(0.1 -0.1)">
       <defs>
        <path id="DejaVuSans-36" d="M 2113 2584 
Q 1688 2584 1439 2293 
Q 1191 2003 1191 1497 
Q 1191 994 1439 701 
Q 1688 409 2113 409 
Q 2538 409 2786 701 
Q 3034 994 3034 1497 
Q 3034 2003 2786 2293 
Q 2538 2584 2113 2584 
z
M 3366 4563 
L 3366 3988 
Q 3128 4100 2886 4159 
Q 2644 4219 2406 4219 
Q 1781 4219 1451 3797 
Q 1122 3375 1075 2522 
Q 1259 2794 1537 2939 
Q 1816 3084 2150 3084 
Q 2853 3084 3261 2657 
Q 3669 2231 3669 1497 
Q 3669 778 3244 343 
Q 2819 -91 2113 -91 
Q 1303 -91 875 529 
Q 447 1150 447 2328 
Q 447 3434 972 4092 
Q 1497 4750 2381 4750 
Q 2619 4750 2861 4703 
Q 3103 4656 3366 4563 
z
" transform="scale(0.015625)"/>
       </defs>
       <use xlink:href="#DejaVuSans-30"/>
       <use xlink:href="#DejaVuSans-2e" x="63.623047"/>
       <use xlink:href="#DejaVuSans-36" x="95.410156"/>
      </g>
     </g>
    </g>
    <g id="xtick_5">
     <g id="line2d_9">
      <path d="M 321.673239 288.430125 
L 321.673239 22.318125 
" clip-path="url(#p140a9e62f3)" style="fill: none; stroke: #b0b0b0; stroke-width: 0.8; stroke-linecap: square"/>
     </g>
     <g id="line2d_10">
      <g>
       <use xlink:href="#mdd1c7079cd" x="321.673239" y="288.430125" style="stroke: #000000; stroke-width: 0.8"/>
      </g>
     </g>
     <g id="text_5">
      <!-- 0.8 -->
      <g transform="translate(313.721676 303.028562) scale(0.1 -0.1)">
       <defs>
        <path id="DejaVuSans-38" d="M 2034 2216 
Q 1584 2216 1326 1975 
Q 1069 1734 1069 1313 
Q 1069 891 1326 650 
Q 1584 409 2034 409 
Q 2484 409 2743 651 
Q 3003 894 3003 1313 
Q 3003 1734 2745 1975 
Q 2488 2216 2034 2216 
z
M 1403 2484 
Q 997 2584 770 2862 
Q 544 3141 544 3541 
Q 544 4100 942 4425 
Q 1341 4750 2034 4750 
Q 2731 4750 3128 4425 
Q 3525 4100 3525 3541 
Q 3525 3141 3298 2862 
Q 3072 2584 2669 2484 
Q 3125 2378 3379 2068 
Q 3634 1759 3634 1313 
Q 3634 634 3220 271 
Q 2806 -91 2034 -91 
Q 1263 -91 848 271 
Q 434 634 434 1313 
Q 434 1759 690 2068 
Q 947 2378 1403 2484 
z
M 1172 3481 
Q 1172 3119 1398 2916 
Q 1625 2713 2034 2713 
Q 2441 2713 2670 2916 
Q 2900 3119 2900 3481 
Q 2900 3844 2670 4047 
Q 2441 4250 2034 4250 
Q 1625 4250 1398 4047 
Q 1172 3844 1172 3481 
z
" transform="scale(0.015625)"/>
       </defs>
       <use xlink:href="#DejaVuSans-30"/>
       <use xlink:href="#DejaVuSans-2e" x="63.623047"/>
       <use xlink:href="#DejaVuSans-38" x="95.410156"/>
      </g>
     </g>
    </g>
    <g id="xtick_6">
     <g id="line2d_11">
      <path d="M 386.604148 288.430125 
L 386.604148 22.318125 
" clip-path="url(#p140a9e62f3)" style="fill: none; stroke: #b0b0b0; stroke-width: 0.8; stroke-linecap: square"/>
     </g>
     <g id="line2d_12">
      <g>
       <use xlink:href="#mdd1c7079cd" x="386.604148" y="288.430125" style="stroke: #000000; stroke-width: 0.8"/>
      </g>
     </g>
     <g id="text_6">
      <!-- 1.0 -->
      <g transform="translate(378.652585 303.028562) scale(0.1 -0.1)">
       <defs>
        <path id="DejaVuSans-31" d="M 794 531 
L 1825 531 
L 1825 4091 
L 703 3866 
L 703 4441 
L 1819 4666 
L 2450 4666 
L 2450 531 
L 3481 531 
L 3481 0 
L 794 0 
L 794 531 
z
" transform="scale(0.015625)"/>
       </defs>
       <use xlink:href="#DejaVuSans-31"/>
       <use xlink:href="#DejaVuSans-2e" x="63.623047"/>
       <use xlink:href="#DejaVuSans-30" x="95.410156"/>
      </g>
     </g>
    </g>
    <g id="text_7">
     <!-- False Positive Rate -->
     <g transform="translate(168.517188 318.226375) scale(0.12 -0.12)">
      <defs>
       <path id="DejaVuSans-46" d="M 628 4666 
L 3309 4666 
L 3309 4134 
L 1259 4134 
L 1259 2759 
L 3109 2759 
L 3109 2228 
L 1259 2228 
L 1259 0 
L 628 0 
L 628 4666 
z
" transform="scale(0.015625)"/>
       <path id="DejaVuSans-61" d="M 2194 1759 
Q 1497 1759 1228 1600 
Q 959 1441 959 1056 
Q 959 750 1161 570 
Q 1363 391 1709 391 
Q 2188 391 2477 730 
Q 2766 1069 2766 1631 
L 2766 1759 
L 2194 1759 
z
M 3341 1997 
L 3341 0 
L 2766 0 
L 2766 531 
Q 2569 213 2275 61 
Q 1981 -91 1556 -91 
Q 1019 -91 701 211 
Q 384 513 384 1019 
Q 384 1609 779 1909 
Q 1175 2209 1959 2209 
L 2766 2209 
L 2766 2266 
Q 2766 2663 2505 2880 
Q 2244 3097 1772 3097 
Q 1472 3097 1187 3025 
Q 903 2953 641 2809 
L 641 3341 
Q 956 3463 1253 3523 
Q 1550 3584 1831 3584 
Q 2591 3584 2966 3190 
Q 3341 2797 3341 1997 
z
" transform="scale(0.015625)"/>
       <path id="DejaVuSans-6c" d="M 603 4863 
L 1178 4863 
L 1178 0 
L 603 0 
L 603 4863 
z
" transform="scale(0.015625)"/>
       <path id="DejaVuSans-73" d="M 2834 3397 
L 2834 2853 
Q 2591 2978 2328 3040 
Q 2066 3103 1784 3103 
Q 1356 3103 1142 2972 
Q 928 2841 928 2578 
Q 928 2378 1081 2264 
Q 1234 2150 1697 2047 
L 1894 2003 
Q 2506 1872 2764 1633 
Q 3022 1394 3022 966 
Q 3022 478 2636 193 
Q 2250 -91 1575 -91 
Q 1294 -91 989 -36 
Q 684 19 347 128 
L 347 722 
Q 666 556 975 473 
Q 1284 391 1588 391 
Q 1994 391 2212 530 
Q 2431 669 2431 922 
Q 2431 1156 2273 1281 
Q 2116 1406 1581 1522 
L 1381 1569 
Q 847 1681 609 1914 
Q 372 2147 372 2553 
Q 372 3047 722 3315 
Q 1072 3584 1716 3584 
Q 2034 3584 2315 3537 
Q 2597 3491 2834 3397 
z
" transform="scale(0.015625)"/>
       <path id="DejaVuSans-65" d="M 3597 1894 
L 3597 1613 
L 953 1613 
Q 991 1019 1311 708 
Q 1631 397 2203 397 
Q 2534 397 2845 478 
Q 3156 559 3463 722 
L 3463 178 
Q 3153 47 2828 -22 
Q 2503 -91 2169 -91 
Q 1331 -91 842 396 
Q 353 884 353 1716 
Q 353 2575 817 3079 
Q 1281 3584 2069 3584 
Q 2775 3584 3186 3129 
Q 3597 2675 3597 1894 
z
M 3022 2063 
Q 3016 2534 2758 2815 
Q 2500 3097 2075 3097 
Q 1594 3097 1305 2825 
Q 1016 2553 972 2059 
L 3022 2063 
z
" transform="scale(0.015625)"/>
       <path id="DejaVuSans-20" transform="scale(0.015625)"/>
       <path id="DejaVuSans-50" d="M 1259 4147 
L 1259 2394 
L 2053 2394 
Q 2494 2394 2734 2622 
Q 2975 2850 2975 3272 
Q 2975 3691 2734 3919 
Q 2494 4147 2053 4147 
L 1259 4147 
z
M 628 4666 
L 2053 4666 
Q 2838 4666 3239 4311 
Q 3641 3956 3641 3272 
Q 3641 2581 3239 2228 
Q 2838 1875 2053 1875 
L 1259 1875 
L 1259 0 
L 628 0 
L 628 4666 
z
" transform="scale(0.015625)"/>
       <path id="DejaVuSans-6f" d="M 1959 3097 
Q 1497 3097 1228 2736 
Q 959 2375 959 1747 
Q 959 1119 1226 758 
Q 1494 397 1959 397 
Q 2419 397 2687 759 
Q 2956 1122 2956 1747 
Q 2956 2369 2687 2733 
Q 2419 3097 1959 3097 
z
M 1959 3584 
Q 2709 3584 3137 3096 
Q 3566 2609 3566 1747 
Q 3566 888 3137 398 
Q 2709 -91 1959 -91 
Q 1206 -91 779 398 
Q 353 888 353 1747 
Q 353 2609 779 3096 
Q 1206 3584 1959 3584 
z
" transform="scale(0.015625)"/>
       <path id="DejaVuSans-69" d="M 603 3500 
L 1178 3500 
L 1178 0 
L 603 0 
L 603 3500 
z
M 603 4863 
L 1178 4863 
L 1178 4134 
L 603 4134 
L 603 4863 
z
" transform="scale(0.015625)"/>
       <path id="DejaVuSans-74" d="M 1172 4494 
L 1172 3500 
L 2356 3500 
L 2356 3053 
L 1172 3053 
L 1172 1153 
Q 1172 725 1289 603 
Q 1406 481 1766 481 
L 2356 481 
L 2356 0 
L 1766 0 
Q 1100 0 847 248 
Q 594 497 594 1153 
L 594 3053 
L 172 3053 
L 172 3500 
L 594 3500 
L 594 4494 
L 1172 4494 
z
" transform="scale(0.015625)"/>
       <path id="DejaVuSans-76" d="M 191 3500 
L 800 3500 
L 1894 563 
L 2988 3500 
L 3597 3500 
L 2284 0 
L 1503 0 
L 191 3500 
z
" transform="scale(0.015625)"/>
       <path id="DejaVuSans-52" d="M 2841 2188 
Q 3044 2119 3236 1894 
Q 3428 1669 3622 1275 
L 4263 0 
L 3584 0 
L 2988 1197 
Q 2756 1666 2539 1819 
Q 2322 1972 1947 1972 
L 1259 1972 
L 1259 0 
L 628 0 
L 628 4666 
L 2053 4666 
Q 2853 4666 3247 4331 
Q 3641 3997 3641 3322 
Q 3641 2881 3436 2590 
Q 3231 2300 2841 2188 
z
M 1259 4147 
L 1259 2491 
L 2053 2491 
Q 2509 2491 2742 2702 
Q 2975 2913 2975 3322 
Q 2975 3731 2742 3939 
Q 2509 4147 2053 4147 
L 1259 4147 
z
" transform="scale(0.015625)"/>
      </defs>
      <use xlink:href="#DejaVuSans-46"/>
      <use xlink:href="#DejaVuSans-61" x="48.394531"/>
      <use xlink:href="#DejaVuSans-6c" x="109.673828"/>
      <use xlink:href="#DejaVuSans-73" x="137.457031"/>
      <use xlink:href="#DejaVuSans-65" x="189.556641"/>
      <use xlink:href="#DejaVuSans-20" x="251.080078"/>
      <use xlink:href="#DejaVuSans-50" x="282.867188"/>
      <use xlink:href="#DejaVuSans-6f" x="339.544922"/>
      <use xlink:href="#DejaVuSans-73" x="400.726562"/>
      <use xlink:href="#DejaVuSans-69" x="452.826172"/>
      <use xlink:href="#DejaVuSans-74" x="480.609375"/>
      <use xlink:href="#DejaVuSans-69" x="519.818359"/>
      <use xlink:href="#DejaVuSans-76" x="547.601562"/>
      <use xlink:href="#DejaVuSans-65" x="606.78125"/>
      <use xlink:href="#DejaVuSans-20" x="668.304688"/>
      <use xlink:href="#DejaVuSans-52" x="700.091797"/>
      <use xlink:href="#DejaVuSans-61" x="767.324219"/>
      <use xlink:href="#DejaVuSans-74" x="828.603516"/>
      <use xlink:href="#DejaVuSans-65" x="867.8125"/>
     </g>
    </g>
   </g>
   <g id="matplotlib.axis_2">
    <g id="ytick_1">
     <g id="line2d_13">
      <path d="M 45.716875 276.334125 
L 402.836875 276.334125 
" clip-path="url(#p140a9e62f3)" style="fill: none; stroke: #b0b0b0; stroke-width: 0.8; stroke-linecap: square"/>
     </g>
     <g id="line2d_14">
      <defs>
       <path id="ma29187d9fe" d="M 0 0 
L -3.5 0 
" style="stroke: #000000; stroke-width: 0.8"/>
      </defs>
      <g>
       <use xlink:href="#ma29187d9fe" x="45.716875" y="276.334125" style="stroke: #000000; stroke-width: 0.8"/>
      </g>
     </g>
     <g id="text_8">
      <!-- 0.0 -->
      <g transform="translate(22.81375 280.133344) scale(0.1 -0.1)">
       <use xlink:href="#DejaVuSans-30"/>
       <use xlink:href="#DejaVuSans-2e" x="63.623047"/>
       <use xlink:href="#DejaVuSans-30" x="95.410156"/>
      </g>
     </g>
    </g>
    <g id="ytick_2">
     <g id="line2d_15">
      <path d="M 45.716875 227.950125 
L 402.836875 227.950125 
" clip-path="url(#p140a9e62f3)" style="fill: none; stroke: #b0b0b0; stroke-width: 0.8; stroke-linecap: square"/>
     </g>
     <g id="line2d_16">
      <g>
       <use xlink:href="#ma29187d9fe" x="45.716875" y="227.950125" style="stroke: #000000; stroke-width: 0.8"/>
      </g>
     </g>
     <g id="text_9">
      <!-- 0.2 -->
      <g transform="translate(22.81375 231.749344) scale(0.1 -0.1)">
       <use xlink:href="#DejaVuSans-30"/>
       <use xlink:href="#DejaVuSans-2e" x="63.623047"/>
       <use xlink:href="#DejaVuSans-32" x="95.410156"/>
      </g>
     </g>
    </g>
    <g id="ytick_3">
     <g id="line2d_17">
      <path d="M 45.716875 179.566125 
L 402.836875 179.566125 
" clip-path="url(#p140a9e62f3)" style="fill: none; stroke: #b0b0b0; stroke-width: 0.8; stroke-linecap: square"/>
     </g>
     <g id="line2d_18">
      <g>
       <use xlink:href="#ma29187d9fe" x="45.716875" y="179.566125" style="stroke: #000000; stroke-width: 0.8"/>
      </g>
     </g>
     <g id="text_10">
      <!-- 0.4 -->
      <g transform="translate(22.81375 183.365344) scale(0.1 -0.1)">
       <use xlink:href="#DejaVuSans-30"/>
       <use xlink:href="#DejaVuSans-2e" x="63.623047"/>
       <use xlink:href="#DejaVuSans-34" x="95.410156"/>
      </g>
     </g>
    </g>
    <g id="ytick_4">
     <g id="line2d_19">
      <path d="M 45.716875 131.182125 
L 402.836875 131.182125 
" clip-path="url(#p140a9e62f3)" style="fill: none; stroke: #b0b0b0; stroke-width: 0.8; stroke-linecap: square"/>
     </g>
     <g id="line2d_20">
      <g>
       <use xlink:href="#ma29187d9fe" x="45.716875" y="131.182125" style="stroke: #000000; stroke-width: 0.8"/>
      </g>
     </g>
     <g id="text_11">
      <!-- 0.6 -->
      <g transform="translate(22.81375 134.981344) scale(0.1 -0.1)">
       <use xlink:href="#DejaVuSans-30"/>
       <use xlink:href="#DejaVuSans-2e" x="63.623047"/>
       <use xlink:href="#DejaVuSans-36" x="95.410156"/>
      </g>
     </g>
    </g>
    <g id="ytick_5">
     <g id="line2d_21">
      <path d="M 45.716875 82.798125 
L 402.836875 82.798125 
" clip-path="url(#p140a9e62f3)" style="fill: none; stroke: #b0b0b0; stroke-width: 0.8; stroke-linecap: square"/>
     </g>
     <g id="line2d_22">
      <g>
       <use xlink:href="#ma29187d9fe" x="45.716875" y="82.798125" style="stroke: #000000; stroke-width: 0.8"/>
      </g>
     </g>
     <g id="text_12">
      <!-- 0.8 -->
      <g transform="translate(22.81375 86.597344) scale(0.1 -0.1)">
       <use xlink:href="#DejaVuSans-30"/>
       <use xlink:href="#DejaVuSans-2e" x="63.623047"/>
       <use xlink:href="#DejaVuSans-38" x="95.410156"/>
      </g>
     </g>
    </g>
    <g id="ytick_6">
     <g id="line2d_23">
      <path d="M 45.716875 34.414125 
L 402.836875 34.414125 
" clip-path="url(#p140a9e62f3)" style="fill: none; stroke: #b0b0b0; stroke-width: 0.8; stroke-linecap: square"/>
     </g>
     <g id="line2d_24">
      <g>
       <use xlink:href="#ma29187d9fe" x="45.716875" y="34.414125" style="stroke: #000000; stroke-width: 0.8"/>
      </g>
     </g>
     <g id="text_13">
      <!-- 1.0 -->
      <g transform="translate(22.81375 38.213344) scale(0.1 -0.1)">
       <use xlink:href="#DejaVuSans-31"/>
       <use xlink:href="#DejaVuSans-2e" x="63.623047"/>
       <use xlink:href="#DejaVuSans-30" x="95.410156"/>
      </g>
     </g>
    </g>
    <g id="text_14">
     <!-- True Positive Rate -->
     <g transform="translate(16.318125 208.80975) rotate(-90) scale(0.12 -0.12)">
      <defs>
       <path id="DejaVuSans-54" d="M -19 4666 
L 3928 4666 
L 3928 4134 
L 2272 4134 
L 2272 0 
L 1638 0 
L 1638 4134 
L -19 4134 
L -19 4666 
z
" transform="scale(0.015625)"/>
       <path id="DejaVuSans-72" d="M 2631 2963 
Q 2534 3019 2420 3045 
Q 2306 3072 2169 3072 
Q 1681 3072 1420 2755 
Q 1159 2438 1159 1844 
L 1159 0 
L 581 0 
L 581 3500 
L 1159 3500 
L 1159 2956 
Q 1341 3275 1631 3429 
Q 1922 3584 2338 3584 
Q 2397 3584 2469 3576 
Q 2541 3569 2628 3553 
L 2631 2963 
z
" transform="scale(0.015625)"/>
       <path id="DejaVuSans-75" d="M 544 1381 
L 544 3500 
L 1119 3500 
L 1119 1403 
Q 1119 906 1312 657 
Q 1506 409 1894 409 
Q 2359 409 2629 706 
Q 2900 1003 2900 1516 
L 2900 3500 
L 3475 3500 
L 3475 0 
L 2900 0 
L 2900 538 
Q 2691 219 2414 64 
Q 2138 -91 1772 -91 
Q 1169 -91 856 284 
Q 544 659 544 1381 
z
M 1991 3584 
L 1991 3584 
z
" transform="scale(0.015625)"/>
      </defs>
      <use xlink:href="#DejaVuSans-54"/>
      <use xlink:href="#DejaVuSans-72" x="46.333984"/>
      <use xlink:href="#DejaVuSans-75" x="87.447266"/>
      <use xlink:href="#DejaVuSans-65" x="150.826172"/>
      <use xlink:href="#DejaVuSans-20" x="212.349609"/>
      <use xlink:href="#DejaVuSans-50" x="244.136719"/>
      <use xlink:href="#DejaVuSans-6f" x="300.814453"/>
      <use xlink:href="#DejaVuSans-73" x="361.996094"/>
      <use xlink:href="#DejaVuSans-69" x="414.095703"/>
      <use xlink:href="#DejaVuSans-74" x="441.878906"/>
      <use xlink:href="#DejaVuSans-69" x="481.087891"/>
      <use xlink:href="#DejaVuSans-76" x="508.871094"/>
      <use xlink:href="#DejaVuSans-65" x="568.050781"/>
      <use xlink:href="#DejaVuSans-20" x="629.574219"/>
      <use xlink:href="#DejaVuSans-52" x="661.361328"/>
      <use xlink:href="#DejaVuSans-61" x="728.59375"/>
      <use xlink:href="#DejaVuSans-74" x="789.873047"/>
      <use xlink:href="#DejaVuSans-65" x="829.082031"/>
     </g>
    </g>
   </g>
   <g id="line2d_25">
    <path d="M 61.949602 276.334125 
L 62.245955 221.333742 
L 62.245955 218.474812 
L 62.394132 216.024299 
L 62.394132 215.343602 
L 63.431367 212.75695 
L 63.431367 212.076252 
L 63.875896 211.531694 
L 63.875896 210.170298 
L 63.875896 209.353461 
L 64.024072 208.945042 
L 64.024072 208.808903 
L 64.172249 208.264344 
L 65.654013 200.640529 
L 66.246719 200.095971 
L 66.394895 199.959831 
L 78.100833 173.004198 
L 78.249009 173.004198 
L 78.249009 172.731919 
L 79.730773 170.009128 
L 79.87895 170.009128 
L 79.87895 169.736849 
L 80.323479 169.46457 
L 88.769535 152.447124 
L 90.251299 151.902566 
L 91.88124 149.588194 
L 92.177593 149.452054 
L 101.068178 139.241587 
L 101.80906 136.791075 
L 102.105413 136.791075 
L 102.549943 136.654935 
L 102.846295 136.518796 
L 103.587177 134.612842 
L 106.995235 130.664795 
L 107.439765 130.664795 
L 122.109231 122.496421 
L 136.334167 112.149814 
L 140.77946 109.154744 
L 159.894219 95.949207 
L 162.116865 95.676927 
L 162.561394 95.676927 
L 163.302276 95.540788 
L 164.191335 95.404648 
L 164.487688 95.268509 
L 183.157917 86.283298 
L 183.45427 86.283298 
L 183.750623 85.874879 
L 184.343329 85.330321 
L 185.232387 85.330321 
L 185.380564 85.330321 
L 185.825093 85.330321 
L 186.417799 85.194181 
L 216.349436 72.397063 
L 216.942142 72.260923 
L 220.3502 70.627248 
L 228.351727 64.773247 
L 234.871489 61.914316 
L 235.464195 61.778177 
L 238.131371 61.369758 
L 238.279547 61.233619 
L 239.613135 60.416781 
L 252.059955 56.877153 
L 252.504484 56.877153 
L 256.653424 55.243478 
L 257.097953 54.971199 
L 259.765129 54.018222 
L 259.913305 54.018222 
L 264.506774 52.929105 
L 264.951303 52.792966 
L 266.581244 52.520687 
L 275.768182 50.614733 
L 276.657241 50.478593 
L 276.953594 50.342454 
L 276.953594 50.206314 
L 286.288709 48.708779 
L 286.733238 48.164221 
L 306.144349 44.624592 
L 307.181584 44.216173 
L 307.329761 44.216173 
L 307.626114 44.216173 
L 308.070643 43.807755 
L 312.812288 43.127057 
L 319.77658 42.582499 
L 319.924757 42.582499 
L 320.369286 42.31022 
L 335.335105 41.221103 
L 337.557751 40.676545 
L 338.743163 40.131987 
L 339.187692 40.131987 
L 339.928574 39.995847 
L 340.817633 39.995847 
L 346.003807 39.17901 
L 349.115512 38.906731 
L 350.597277 38.498312 
L 352.671747 38.226033 
L 354.005334 38.226033 
L 355.635275 37.545335 
L 356.820686 37.409195 
L 360.080568 37.273056 
L 363.192273 37.136916 
L 364.525861 36.728498 
L 365.118566 36.728498 
L 386.604148 34.414125 
" clip-path="url(#p140a9e62f3)" style="fill: none; stroke: #1f77b4; stroke-width: 1.5; stroke-linecap: square"/>
   </g>
   <g id="line2d_26">
    <path d="M 61.949602 276.334125 
L 62.094667 205.286987 
L 62.239731 204.387657 
L 62.529861 199.891002 
L 62.81999 198.991671 
L 62.81999 198.092341 
L 62.81999 196.293679 
L 62.81999 195.394348 
L 62.965054 195.394348 
L 62.965054 194.495017 
L 63.255184 194.495017 
L 64.270636 180.105724 
L 64.4157 180.105724 
L 64.4157 179.206393 
L 75.005415 145.931151 
L 75.295544 145.931151 
L 78.051771 140.535166 
L 78.196836 140.535166 
L 78.486965 140.535166 
L 79.212288 140.535166 
L 87.916163 127.045203 
L 88.931615 126.145872 
L 92.848359 122.548549 
L 93.283553 120.749887 
L 93.428618 120.749887 
L 93.718747 120.749887 
L 100.101589 117.152564 
L 101.40717 116.253233 
L 102.277557 114.454571 
L 102.422622 112.655909 
L 105.904172 105.461263 
L 109.820916 100.065277 
L 109.965981 100.065277 
L 115.623499 94.669292 
L 123.456987 87.474645 
L 123.602052 87.474645 
L 130.710216 84.776653 
L 147.827838 80.279999 
L 148.553161 80.279999 
L 148.698225 80.279999 
L 149.133419 79.380668 
L 149.278484 79.380668 
L 149.713677 79.380668 
L 160.158328 75.783344 
L 161.028715 74.884013 
L 162.334296 73.085352 
L 162.624426 73.085352 
L 163.204684 73.085352 
L 185.109437 66.790036 
L 185.689695 66.790036 
L 188.300857 63.192712 
L 194.39357 57.796727 
L 204.83822 56.897396 
L 205.12835 56.897396 
L 205.418479 56.897396 
L 208.174706 55.998066 
L 208.464835 55.998066 
L 209.915481 55.998066 
L 217.313775 53.300073 
L 218.909485 53.300073 
L 219.199614 53.300073 
L 221.520648 53.300073 
L 223.841681 50.60208 
L 227.033102 48.803419 
L 227.61336 48.803419 
L 228.193619 48.803419 
L 233.561009 48.803419 
L 234.286331 48.803419 
L 236.897494 47.004757 
L 237.042559 47.004757 
L 243.71553 46.105426 
L 244.295788 46.105426 
L 263.444313 45.206095 
L 264.459766 45.206095 
L 264.749895 45.206095 
L 266.345605 45.206095 
L 270.117284 45.206095 
L 275.484674 44.306764 
L 285.639195 43.407434 
L 286.074389 43.407434 
L 286.219454 43.407434 
L 291.731908 43.407434 
L 294.923329 42.508103 
L 295.068393 41.608772 
L 296.373975 41.608772 
L 296.954233 40.709441 
L 306.093302 39.81011 
L 308.269271 39.81011 
L 311.895885 39.81011 
L 315.812629 39.81011 
L 318.858986 39.81011 
L 320.599761 38.910779 
L 323.355988 38.910779 
L 325.822086 38.910779 
L 339.022963 38.910779 
L 342.649578 38.910779 
L 345.986063 38.910779 
L 386.604148 34.414125 
" clip-path="url(#p140a9e62f3)" style="fill: none; stroke: #ff7f0e; stroke-width: 1.5; stroke-linecap: square"/>
   </g>
   <g id="line2d_27">
    <path d="M 61.949602 276.334125 
L 62.275234 208.426757 
L 62.926497 208.426757 
L 63.252128 208.426757 
L 63.903391 208.426757 
L 64.229022 204.182546 
L 70.41602 161.740441 
L 70.741651 161.740441 
L 71.392914 161.740441 
L 83.766909 132.030967 
L 87.023223 132.030967 
L 89.302643 127.786757 
L 89.953906 127.786757 
L 96.140903 119.298336 
L 97.443429 115.054125 
L 98.420324 115.054125 
L 98.745955 110.809914 
L 108.514898 102.321493 
L 117.306947 72.61202 
L 117.632578 72.61202 
L 144.008725 72.61202 
L 144.334357 72.61202 
L 152.149511 68.367809 
L 152.800774 68.367809 
L 154.1033 68.367809 
L 185.363918 64.123599 
L 185.689549 64.123599 
L 187.968969 64.123599 
L 197.412281 55.635178 
L 212.065696 55.635178 
L 215.32201 55.635178 
L 215.973273 55.635178 
L 231.277951 55.635178 
L 232.254845 55.635178 
L 232.906108 55.635178 
L 233.883002 55.635178 
L 234.208634 55.635178 
L 237.464948 51.390967 
L 238.441843 51.390967 
L 239.093106 51.390967 
L 248.536417 51.390967 
L 250.164574 51.390967 
L 250.815837 51.390967 
L 261.236043 51.390967 
L 284.681507 42.902546 
L 286.635296 42.902546 
L 286.960927 42.902546 
L 287.937821 42.902546 
L 296.404239 42.902546 
L 306.173182 42.902546 
L 307.150076 42.902546 
L 313.662705 42.902546 
L 317.570282 42.902546 
L 318.221545 42.902546 
L 318.547177 42.902546 
L 325.711068 42.902546 
L 328.641751 42.902546 
L 338.085063 42.902546 
L 340.690115 42.902546 
L 341.667009 42.902546 
L 342.318272 42.902546 
L 347.854006 42.902546 
L 355.994792 42.902546 
L 356.646055 42.902546 
L 357.62295 42.902546 
L 386.604148 34.414125 
" clip-path="url(#p140a9e62f3)" style="fill: none; stroke: #2ca02c; stroke-width: 1.5; stroke-linecap: square"/>
   </g>
   <g id="line2d_28">
    <path d="M 61.949602 276.334125 
L 61.949602 228.898831 
L 61.949602 227.712949 
L 61.949602 220.597654 
L 61.949602 215.854125 
L 63.398953 215.854125 
L 63.398953 214.668243 
L 64.848304 211.110596 
L 70.645706 199.251772 
L 73.544407 194.508243 
L 74.993758 189.764713 
L 76.443109 187.392949 
L 79.34181 187.392949 
L 80.791161 185.021184 
L 80.791161 180.277654 
L 85.139213 175.534125 
L 86.588563 174.348243 
L 93.835317 171.976478 
L 96.734018 164.861184 
L 96.734018 163.675301 
L 98.183369 157.74589 
L 112.676875 138.771772 
L 114.126226 138.771772 
L 121.372979 136.400007 
L 121.372979 132.84236 
L 122.82233 128.098831 
L 159.056096 110.310596 
L 159.056096 107.938831 
L 167.7522 106.752949 
L 173.549602 104.381184 
L 179.347005 94.894125 
L 179.347005 93.708243 
L 190.94181 91.336478 
L 193.840511 91.336478 
L 202.536615 86.592949 
L 208.334018 85.407066 
L 211.232719 85.407066 
L 211.232719 84.221184 
L 212.68207 83.035301 
L 214.13142 83.035301 
L 224.276875 81.849419 
L 224.276875 79.477654 
L 227.175576 78.291772 
L 227.175576 75.920007 
L 250.365187 65.247066 
L 251.814537 64.061184 
L 253.263888 64.061184 
L 270.656096 58.131772 
L 289.497654 53.388243 
L 295.295057 48.644713 
L 295.295057 47.458831 
L 306.889862 46.272949 
L 314.136615 46.272949 
L 314.136615 45.087066 
L 315.585966 45.087066 
L 321.383369 43.901184 
L 327.180771 43.901184 
L 335.876875 41.529419 
L 343.123628 41.529419 
L 344.572979 41.529419 
L 347.47168 41.529419 
L 348.921031 40.343537 
L 356.167784 40.343537 
L 359.066485 40.343537 
L 386.604148 34.414125 
" clip-path="url(#p140a9e62f3)" style="fill: none; stroke: #d62728; stroke-width: 1.5; stroke-linecap: square"/>
   </g>
   <g id="line2d_29">
    <path d="M 61.949602 276.334125 
L 61.949602 175.534125 
L 61.949602 155.374125 
L 64.099632 155.374125 
L 66.249662 155.374125 
L 67.324678 155.374125 
L 71.624738 135.214125 
L 71.624738 115.054125 
L 74.849783 115.054125 
L 78.074828 94.894125 
L 81.299873 94.894125 
L 85.599933 74.734125 
L 95.275069 74.734125 
L 97.425099 74.734125 
L 103.875189 74.734125 
L 104.950204 74.734125 
L 131.825581 74.734125 
L 132.900596 74.734125 
L 140.425701 74.734125 
L 146.875791 74.734125 
L 147.950806 74.734125 
L 154.400897 74.734125 
L 154.400897 54.574125 
L 158.700957 54.574125 
L 161.926002 54.574125 
L 164.076032 54.574125 
L 171.601137 54.574125 
L 172.676153 54.574125 
L 174.826183 54.574125 
L 182.351288 54.574125 
L 200.626544 54.574125 
L 202.776574 54.574125 
L 204.926604 54.574125 
L 206.001619 54.574125 
L 212.451709 54.574125 
L 213.526724 54.574125 
L 221.05183 54.574125 
L 226.426905 54.574125 
L 228.576935 54.574125 
L 242.552131 54.574125 
L 247.927206 54.574125 
L 252.227266 54.574125 
L 255.452311 54.574125 
L 257.602342 54.574125 
L 258.677357 34.414125 
L 262.977417 34.414125 
L 265.127447 34.414125 
L 286.627748 34.414125 
L 288.777778 34.414125 
L 295.227868 34.414125 
L 386.604148 34.414125 
" clip-path="url(#p140a9e62f3)" style="fill: none; stroke: #9467bd; stroke-width: 1.5; stroke-linecap: square"/>
   </g>
   <g id="line2d_30">
    <path d="M 61.949602 276.334125 
L 62.169112 212.670967 
L 62.388621 199.938336 
L 62.82764 199.938336 
L 63.266659 199.938336 
L 63.705678 187.205704 
L 63.705678 174.473072 
L 63.925188 174.473072 
L 65.461754 161.740441 
L 66.339792 161.740441 
L 66.998321 123.542546 
L 67.43734 123.542546 
L 67.656849 123.542546 
L 68.534887 123.542546 
L 68.754397 123.542546 
L 70.729982 110.809914 
L 71.169001 110.809914 
L 72.486058 110.809914 
L 72.705568 110.809914 
L 74.461644 110.809914 
L 79.510362 110.809914 
L 79.729871 110.809914 
L 80.16889 110.809914 
L 83.022514 110.809914 
L 83.900552 110.809914 
L 84.55908 110.809914 
L 88.94927 110.809914 
L 90.266327 98.077283 
L 92.241913 98.077283 
L 95.754065 98.077283 
L 95.973574 98.077283 
L 96.851612 98.077283 
L 102.11984 98.077283 
L 102.997878 98.077283 
L 103.436897 98.077283 
L 104.534445 98.077283 
L 104.534445 85.344651 
L 105.851502 85.344651 
L 106.290521 85.344651 
L 106.51003 85.344651 
L 111.11973 85.344651 
L 113.095315 85.344651 
L 116.607467 85.344651 
L 117.924524 85.344651 
L 133.070679 85.344651 
L 133.948717 85.344651 
L 134.607246 85.344651 
L 139.216945 72.61202 
L 139.655964 72.61202 
L 141.851059 72.61202 
L 143.168116 72.61202 
L 143.607135 72.61202 
L 144.704682 72.61202 
L 149.094872 72.61202 
L 149.753401 72.61202 
L 149.97291 72.61202 
L 160.509366 72.61202 
L 162.484952 72.61202 
L 165.558085 72.61202 
L 174.996993 72.61202 
L 179.606692 72.61202 
L 180.045711 72.61202 
L 182.679825 72.61202 
L 184.216392 72.61202 
L 216.703797 59.879388 
L 221.752516 59.879388 
L 234.484067 59.879388 
L 386.604148 34.414125 
" clip-path="url(#p140a9e62f3)" style="fill: none; stroke: #8c564b; stroke-width: 1.5; stroke-linecap: square"/>
   </g>
   <g id="line2d_31">
    <path d="M 61.949602 276.334125 
L 386.604148 34.414125 
" clip-path="url(#p140a9e62f3)" style="fill: none; stroke-dasharray: 7.4,3.2; stroke-dashoffset: 0; stroke: #808080; stroke-width: 2"/>
   </g>
   <g id="patch_3">
    <path d="M 45.716875 288.430125 
L 45.716875 22.318125 
" style="fill: none; stroke: #000000; stroke-width: 0.8; stroke-linejoin: miter; stroke-linecap: square"/>
   </g>
   <g id="patch_4">
    <path d="M 402.836875 288.430125 
L 402.836875 22.318125 
" style="fill: none; stroke: #000000; stroke-width: 0.8; stroke-linejoin: miter; stroke-linecap: square"/>
   </g>
   <g id="patch_5">
    <path d="M 45.716875 288.430125 
L 402.836875 288.430125 
" style="fill: none; stroke: #000000; stroke-width: 0.8; stroke-linejoin: miter; stroke-linecap: square"/>
   </g>
   <g id="patch_6">
    <path d="M 45.716875 22.318125 
L 402.836875 22.318125 
" style="fill: none; stroke: #000000; stroke-width: 0.8; stroke-linejoin: miter; stroke-linecap: square"/>
   </g>
   <g id="text_15">
    <!-- ROC Curve: Random Forest Classifier -->
    <g transform="translate(113.21125 16.318125) scale(0.12 -0.12)">
     <defs>
      <path id="DejaVuSans-4f" d="M 2522 4238 
Q 1834 4238 1429 3725 
Q 1025 3213 1025 2328 
Q 1025 1447 1429 934 
Q 1834 422 2522 422 
Q 3209 422 3611 934 
Q 4013 1447 4013 2328 
Q 4013 3213 3611 3725 
Q 3209 4238 2522 4238 
z
M 2522 4750 
Q 3503 4750 4090 4092 
Q 4678 3434 4678 2328 
Q 4678 1225 4090 567 
Q 3503 -91 2522 -91 
Q 1538 -91 948 565 
Q 359 1222 359 2328 
Q 359 3434 948 4092 
Q 1538 4750 2522 4750 
z
" transform="scale(0.015625)"/>
      <path id="DejaVuSans-43" d="M 4122 4306 
L 4122 3641 
Q 3803 3938 3442 4084 
Q 3081 4231 2675 4231 
Q 1875 4231 1450 3742 
Q 1025 3253 1025 2328 
Q 1025 1406 1450 917 
Q 1875 428 2675 428 
Q 3081 428 3442 575 
Q 3803 722 4122 1019 
L 4122 359 
Q 3791 134 3420 21 
Q 3050 -91 2638 -91 
Q 1578 -91 968 557 
Q 359 1206 359 2328 
Q 359 3453 968 4101 
Q 1578 4750 2638 4750 
Q 3056 4750 3426 4639 
Q 3797 4528 4122 4306 
z
" transform="scale(0.015625)"/>
      <path id="DejaVuSans-3a" d="M 750 794 
L 1409 794 
L 1409 0 
L 750 0 
L 750 794 
z
M 750 3309 
L 1409 3309 
L 1409 2516 
L 750 2516 
L 750 3309 
z
" transform="scale(0.015625)"/>
      <path id="DejaVuSans-6e" d="M 3513 2113 
L 3513 0 
L 2938 0 
L 2938 2094 
Q 2938 2591 2744 2837 
Q 2550 3084 2163 3084 
Q 1697 3084 1428 2787 
Q 1159 2491 1159 1978 
L 1159 0 
L 581 0 
L 581 3500 
L 1159 3500 
L 1159 2956 
Q 1366 3272 1645 3428 
Q 1925 3584 2291 3584 
Q 2894 3584 3203 3211 
Q 3513 2838 3513 2113 
z
" transform="scale(0.015625)"/>
      <path id="DejaVuSans-64" d="M 2906 2969 
L 2906 4863 
L 3481 4863 
L 3481 0 
L 2906 0 
L 2906 525 
Q 2725 213 2448 61 
Q 2172 -91 1784 -91 
Q 1150 -91 751 415 
Q 353 922 353 1747 
Q 353 2572 751 3078 
Q 1150 3584 1784 3584 
Q 2172 3584 2448 3432 
Q 2725 3281 2906 2969 
z
M 947 1747 
Q 947 1113 1208 752 
Q 1469 391 1925 391 
Q 2381 391 2643 752 
Q 2906 1113 2906 1747 
Q 2906 2381 2643 2742 
Q 2381 3103 1925 3103 
Q 1469 3103 1208 2742 
Q 947 2381 947 1747 
z
" transform="scale(0.015625)"/>
      <path id="DejaVuSans-6d" d="M 3328 2828 
Q 3544 3216 3844 3400 
Q 4144 3584 4550 3584 
Q 5097 3584 5394 3201 
Q 5691 2819 5691 2113 
L 5691 0 
L 5113 0 
L 5113 2094 
Q 5113 2597 4934 2840 
Q 4756 3084 4391 3084 
Q 3944 3084 3684 2787 
Q 3425 2491 3425 1978 
L 3425 0 
L 2847 0 
L 2847 2094 
Q 2847 2600 2669 2842 
Q 2491 3084 2119 3084 
Q 1678 3084 1418 2786 
Q 1159 2488 1159 1978 
L 1159 0 
L 581 0 
L 581 3500 
L 1159 3500 
L 1159 2956 
Q 1356 3278 1631 3431 
Q 1906 3584 2284 3584 
Q 2666 3584 2933 3390 
Q 3200 3197 3328 2828 
z
" transform="scale(0.015625)"/>
      <path id="DejaVuSans-66" d="M 2375 4863 
L 2375 4384 
L 1825 4384 
Q 1516 4384 1395 4259 
Q 1275 4134 1275 3809 
L 1275 3500 
L 2222 3500 
L 2222 3053 
L 1275 3053 
L 1275 0 
L 697 0 
L 697 3053 
L 147 3053 
L 147 3500 
L 697 3500 
L 697 3744 
Q 697 4328 969 4595 
Q 1241 4863 1831 4863 
L 2375 4863 
z
" transform="scale(0.015625)"/>
     </defs>
     <use xlink:href="#DejaVuSans-52"/>
     <use xlink:href="#DejaVuSans-4f" x="69.482422"/>
     <use xlink:href="#DejaVuSans-43" x="148.193359"/>
     <use xlink:href="#DejaVuSans-20" x="218.017578"/>
     <use xlink:href="#DejaVuSans-43" x="249.804688"/>
     <use xlink:href="#DejaVuSans-75" x="319.628906"/>
     <use xlink:href="#DejaVuSans-72" x="383.007812"/>
     <use xlink:href="#DejaVuSans-76" x="424.121094"/>
     <use xlink:href="#DejaVuSans-65" x="483.300781"/>
     <use xlink:href="#DejaVuSans-3a" x="544.824219"/>
     <use xlink:href="#DejaVuSans-20" x="578.515625"/>
     <use xlink:href="#DejaVuSans-52" x="610.302734"/>
     <use xlink:href="#DejaVuSans-61" x="677.535156"/>
     <use xlink:href="#DejaVuSans-6e" x="738.814453"/>
     <use xlink:href="#DejaVuSans-64" x="802.193359"/>
     <use xlink:href="#DejaVuSans-6f" x="865.669922"/>
     <use xlink:href="#DejaVuSans-6d" x="926.851562"/>
     <use xlink:href="#DejaVuSans-20" x="1024.263672"/>
     <use xlink:href="#DejaVuSans-46" x="1056.050781"/>
     <use xlink:href="#DejaVuSans-6f" x="1109.945312"/>
     <use xlink:href="#DejaVuSans-72" x="1171.126953"/>
     <use xlink:href="#DejaVuSans-65" x="1209.990234"/>
     <use xlink:href="#DejaVuSans-73" x="1271.513672"/>
     <use xlink:href="#DejaVuSans-74" x="1323.613281"/>
     <use xlink:href="#DejaVuSans-20" x="1362.822266"/>
     <use xlink:href="#DejaVuSans-43" x="1394.609375"/>
     <use xlink:href="#DejaVuSans-6c" x="1464.433594"/>
     <use xlink:href="#DejaVuSans-61" x="1492.216797"/>
     <use xlink:href="#DejaVuSans-73" x="1553.496094"/>
     <use xlink:href="#DejaVuSans-73" x="1605.595703"/>
     <use xlink:href="#DejaVuSans-69" x="1657.695312"/>
     <use xlink:href="#DejaVuSans-66" x="1685.478516"/>
     <use xlink:href="#DejaVuSans-69" x="1720.683594"/>
     <use xlink:href="#DejaVuSans-65" x="1748.466797"/>
     <use xlink:href="#DejaVuSans-72" x="1809.990234"/>
    </g>
   </g>
   <g id="legend_1">
    <g id="patch_7">
     <path d="M 52.716875 283.430125 
L 433.977813 283.430125 
Q 435.977813 283.430125 435.977813 281.430125 
L 435.977813 179.68325 
Q 435.977813 177.68325 433.977813 177.68325 
L 52.716875 177.68325 
Q 50.716875 177.68325 50.716875 179.68325 
L 50.716875 281.430125 
Q 50.716875 283.430125 52.716875 283.430125 
z
" style="fill: #ffffff; opacity: 0.8; stroke: #cccccc; stroke-linejoin: miter"/>
    </g>
    <g id="line2d_32">
     <path d="M 54.716875 185.781687 
L 64.716875 185.781687 
L 74.716875 185.781687 
" style="fill: none; stroke: #1f77b4; stroke-width: 1.5; stroke-linecap: square"/>
    </g>
    <g id="text_16">
     <!-- AUC for Husband = 0.81, Count = 3,968, Pos = 1,777, Neg = 2,191 -->
     <g transform="translate(82.716875 189.281687) scale(0.1 -0.1)">
      <defs>
       <path id="DejaVuSans-41" d="M 2188 4044 
L 1331 1722 
L 3047 1722 
L 2188 4044 
z
M 1831 4666 
L 2547 4666 
L 4325 0 
L 3669 0 
L 3244 1197 
L 1141 1197 
L 716 0 
L 50 0 
L 1831 4666 
z
" transform="scale(0.015625)"/>
       <path id="DejaVuSans-55" d="M 556 4666 
L 1191 4666 
L 1191 1831 
Q 1191 1081 1462 751 
Q 1734 422 2344 422 
Q 2950 422 3222 751 
Q 3494 1081 3494 1831 
L 3494 4666 
L 4128 4666 
L 4128 1753 
Q 4128 841 3676 375 
Q 3225 -91 2344 -91 
Q 1459 -91 1007 375 
Q 556 841 556 1753 
L 556 4666 
z
" transform="scale(0.015625)"/>
       <path id="DejaVuSans-48" d="M 628 4666 
L 1259 4666 
L 1259 2753 
L 3553 2753 
L 3553 4666 
L 4184 4666 
L 4184 0 
L 3553 0 
L 3553 2222 
L 1259 2222 
L 1259 0 
L 628 0 
L 628 4666 
z
" transform="scale(0.015625)"/>
       <path id="DejaVuSans-62" d="M 3116 1747 
Q 3116 2381 2855 2742 
Q 2594 3103 2138 3103 
Q 1681 3103 1420 2742 
Q 1159 2381 1159 1747 
Q 1159 1113 1420 752 
Q 1681 391 2138 391 
Q 2594 391 2855 752 
Q 3116 1113 3116 1747 
z
M 1159 2969 
Q 1341 3281 1617 3432 
Q 1894 3584 2278 3584 
Q 2916 3584 3314 3078 
Q 3713 2572 3713 1747 
Q 3713 922 3314 415 
Q 2916 -91 2278 -91 
Q 1894 -91 1617 61 
Q 1341 213 1159 525 
L 1159 0 
L 581 0 
L 581 4863 
L 1159 4863 
L 1159 2969 
z
" transform="scale(0.015625)"/>
       <path id="DejaVuSans-3d" d="M 678 2906 
L 4684 2906 
L 4684 2381 
L 678 2381 
L 678 2906 
z
M 678 1631 
L 4684 1631 
L 4684 1100 
L 678 1100 
L 678 1631 
z
" transform="scale(0.015625)"/>
       <path id="DejaVuSans-2c" d="M 750 794 
L 1409 794 
L 1409 256 
L 897 -744 
L 494 -744 
L 750 256 
L 750 794 
z
" transform="scale(0.015625)"/>
       <path id="DejaVuSans-33" d="M 2597 2516 
Q 3050 2419 3304 2112 
Q 3559 1806 3559 1356 
Q 3559 666 3084 287 
Q 2609 -91 1734 -91 
Q 1441 -91 1130 -33 
Q 819 25 488 141 
L 488 750 
Q 750 597 1062 519 
Q 1375 441 1716 441 
Q 2309 441 2620 675 
Q 2931 909 2931 1356 
Q 2931 1769 2642 2001 
Q 2353 2234 1838 2234 
L 1294 2234 
L 1294 2753 
L 1863 2753 
Q 2328 2753 2575 2939 
Q 2822 3125 2822 3475 
Q 2822 3834 2567 4026 
Q 2313 4219 1838 4219 
Q 1578 4219 1281 4162 
Q 984 4106 628 3988 
L 628 4550 
Q 988 4650 1302 4700 
Q 1616 4750 1894 4750 
Q 2613 4750 3031 4423 
Q 3450 4097 3450 3541 
Q 3450 3153 3228 2886 
Q 3006 2619 2597 2516 
z
" transform="scale(0.015625)"/>
       <path id="DejaVuSans-39" d="M 703 97 
L 703 672 
Q 941 559 1184 500 
Q 1428 441 1663 441 
Q 2288 441 2617 861 
Q 2947 1281 2994 2138 
Q 2813 1869 2534 1725 
Q 2256 1581 1919 1581 
Q 1219 1581 811 2004 
Q 403 2428 403 3163 
Q 403 3881 828 4315 
Q 1253 4750 1959 4750 
Q 2769 4750 3195 4129 
Q 3622 3509 3622 2328 
Q 3622 1225 3098 567 
Q 2575 -91 1691 -91 
Q 1453 -91 1209 -44 
Q 966 3 703 97 
z
M 1959 2075 
Q 2384 2075 2632 2365 
Q 2881 2656 2881 3163 
Q 2881 3666 2632 3958 
Q 2384 4250 1959 4250 
Q 1534 4250 1286 3958 
Q 1038 3666 1038 3163 
Q 1038 2656 1286 2365 
Q 1534 2075 1959 2075 
z
" transform="scale(0.015625)"/>
       <path id="DejaVuSans-37" d="M 525 4666 
L 3525 4666 
L 3525 4397 
L 1831 0 
L 1172 0 
L 2766 4134 
L 525 4134 
L 525 4666 
z
" transform="scale(0.015625)"/>
       <path id="DejaVuSans-4e" d="M 628 4666 
L 1478 4666 
L 3547 763 
L 3547 4666 
L 4159 4666 
L 4159 0 
L 3309 0 
L 1241 3903 
L 1241 0 
L 628 0 
L 628 4666 
z
" transform="scale(0.015625)"/>
       <path id="DejaVuSans-67" d="M 2906 1791 
Q 2906 2416 2648 2759 
Q 2391 3103 1925 3103 
Q 1463 3103 1205 2759 
Q 947 2416 947 1791 
Q 947 1169 1205 825 
Q 1463 481 1925 481 
Q 2391 481 2648 825 
Q 2906 1169 2906 1791 
z
M 3481 434 
Q 3481 -459 3084 -895 
Q 2688 -1331 1869 -1331 
Q 1566 -1331 1297 -1286 
Q 1028 -1241 775 -1147 
L 775 -588 
Q 1028 -725 1275 -790 
Q 1522 -856 1778 -856 
Q 2344 -856 2625 -561 
Q 2906 -266 2906 331 
L 2906 616 
Q 2728 306 2450 153 
Q 2172 0 1784 0 
Q 1141 0 747 490 
Q 353 981 353 1791 
Q 353 2603 747 3093 
Q 1141 3584 1784 3584 
Q 2172 3584 2450 3431 
Q 2728 3278 2906 2969 
L 2906 3500 
L 3481 3500 
L 3481 434 
z
" transform="scale(0.015625)"/>
      </defs>
      <use xlink:href="#DejaVuSans-41"/>
      <use xlink:href="#DejaVuSans-55" x="68.408203"/>
      <use xlink:href="#DejaVuSans-43" x="141.601562"/>
      <use xlink:href="#DejaVuSans-20" x="211.425781"/>
      <use xlink:href="#DejaVuSans-66" x="243.212891"/>
      <use xlink:href="#DejaVuSans-6f" x="278.417969"/>
      <use xlink:href="#DejaVuSans-72" x="339.599609"/>
      <use xlink:href="#DejaVuSans-20" x="380.712891"/>
      <use xlink:href="#DejaVuSans-48" x="412.5"/>
      <use xlink:href="#DejaVuSans-75" x="487.695312"/>
      <use xlink:href="#DejaVuSans-73" x="551.074219"/>
      <use xlink:href="#DejaVuSans-62" x="603.173828"/>
      <use xlink:href="#DejaVuSans-61" x="666.650391"/>
      <use xlink:href="#DejaVuSans-6e" x="727.929688"/>
      <use xlink:href="#DejaVuSans-64" x="791.308594"/>
      <use xlink:href="#DejaVuSans-20" x="854.785156"/>
      <use xlink:href="#DejaVuSans-3d" x="886.572266"/>
      <use xlink:href="#DejaVuSans-20" x="970.361328"/>
      <use xlink:href="#DejaVuSans-30" x="1002.148438"/>
      <use xlink:href="#DejaVuSans-2e" x="1065.771484"/>
      <use xlink:href="#DejaVuSans-38" x="1097.558594"/>
      <use xlink:href="#DejaVuSans-31" x="1161.181641"/>
      <use xlink:href="#DejaVuSans-2c" x="1224.804688"/>
      <use xlink:href="#DejaVuSans-20" x="1256.591797"/>
      <use xlink:href="#DejaVuSans-43" x="1288.378906"/>
      <use xlink:href="#DejaVuSans-6f" x="1358.203125"/>
      <use xlink:href="#DejaVuSans-75" x="1419.384766"/>
      <use xlink:href="#DejaVuSans-6e" x="1482.763672"/>
      <use xlink:href="#DejaVuSans-74" x="1546.142578"/>
      <use xlink:href="#DejaVuSans-20" x="1585.351562"/>
      <use xlink:href="#DejaVuSans-3d" x="1617.138672"/>
      <use xlink:href="#DejaVuSans-20" x="1700.927734"/>
      <use xlink:href="#DejaVuSans-33" x="1732.714844"/>
      <use xlink:href="#DejaVuSans-2c" x="1796.337891"/>
      <use xlink:href="#DejaVuSans-39" x="1828.125"/>
      <use xlink:href="#DejaVuSans-36" x="1891.748047"/>
      <use xlink:href="#DejaVuSans-38" x="1955.371094"/>
      <use xlink:href="#DejaVuSans-2c" x="2018.994141"/>
      <use xlink:href="#DejaVuSans-20" x="2050.78125"/>
      <use xlink:href="#DejaVuSans-50" x="2082.568359"/>
      <use xlink:href="#DejaVuSans-6f" x="2139.246094"/>
      <use xlink:href="#DejaVuSans-73" x="2200.427734"/>
      <use xlink:href="#DejaVuSans-20" x="2252.527344"/>
      <use xlink:href="#DejaVuSans-3d" x="2284.314453"/>
      <use xlink:href="#DejaVuSans-20" x="2368.103516"/>
      <use xlink:href="#DejaVuSans-31" x="2399.890625"/>
      <use xlink:href="#DejaVuSans-2c" x="2463.513672"/>
      <use xlink:href="#DejaVuSans-37" x="2495.300781"/>
      <use xlink:href="#DejaVuSans-37" x="2558.923828"/>
      <use xlink:href="#DejaVuSans-37" x="2622.546875"/>
      <use xlink:href="#DejaVuSans-2c" x="2686.169922"/>
      <use xlink:href="#DejaVuSans-20" x="2717.957031"/>
      <use xlink:href="#DejaVuSans-4e" x="2749.744141"/>
      <use xlink:href="#DejaVuSans-65" x="2824.548828"/>
      <use xlink:href="#DejaVuSans-67" x="2886.072266"/>
      <use xlink:href="#DejaVuSans-20" x="2949.548828"/>
      <use xlink:href="#DejaVuSans-3d" x="2981.335938"/>
      <use xlink:href="#DejaVuSans-20" x="3065.125"/>
      <use xlink:href="#DejaVuSans-32" x="3096.912109"/>
      <use xlink:href="#DejaVuSans-2c" x="3160.535156"/>
      <use xlink:href="#DejaVuSans-31" x="3192.322266"/>
      <use xlink:href="#DejaVuSans-39" x="3255.945312"/>
      <use xlink:href="#DejaVuSans-31" x="3319.568359"/>
     </g>
    </g>
    <g id="line2d_33">
     <path d="M 54.716875 200.459812 
L 64.716875 200.459812 
L 74.716875 200.459812 
" style="fill: none; stroke: #ff7f0e; stroke-width: 1.5; stroke-linecap: square"/>
    </g>
    <g id="text_17">
     <!-- AUC for Not-in-family = 0.87, Count = 2,507, Pos = 269, Neg = 2,238 -->
     <g transform="translate(82.716875 203.959812) scale(0.1 -0.1)">
      <defs>
       <path id="DejaVuSans-2d" d="M 313 2009 
L 1997 2009 
L 1997 1497 
L 313 1497 
L 313 2009 
z
" transform="scale(0.015625)"/>
       <path id="DejaVuSans-79" d="M 2059 -325 
Q 1816 -950 1584 -1140 
Q 1353 -1331 966 -1331 
L 506 -1331 
L 506 -850 
L 844 -850 
Q 1081 -850 1212 -737 
Q 1344 -625 1503 -206 
L 1606 56 
L 191 3500 
L 800 3500 
L 1894 763 
L 2988 3500 
L 3597 3500 
L 2059 -325 
z
" transform="scale(0.015625)"/>
       <path id="DejaVuSans-35" d="M 691 4666 
L 3169 4666 
L 3169 4134 
L 1269 4134 
L 1269 2991 
Q 1406 3038 1543 3061 
Q 1681 3084 1819 3084 
Q 2600 3084 3056 2656 
Q 3513 2228 3513 1497 
Q 3513 744 3044 326 
Q 2575 -91 1722 -91 
Q 1428 -91 1123 -41 
Q 819 9 494 109 
L 494 744 
Q 775 591 1075 516 
Q 1375 441 1709 441 
Q 2250 441 2565 725 
Q 2881 1009 2881 1497 
Q 2881 1984 2565 2268 
Q 2250 2553 1709 2553 
Q 1456 2553 1204 2497 
Q 953 2441 691 2322 
L 691 4666 
z
" transform="scale(0.015625)"/>
      </defs>
      <use xlink:href="#DejaVuSans-41"/>
      <use xlink:href="#DejaVuSans-55" x="68.408203"/>
      <use xlink:href="#DejaVuSans-43" x="141.601562"/>
      <use xlink:href="#DejaVuSans-20" x="211.425781"/>
      <use xlink:href="#DejaVuSans-66" x="243.212891"/>
      <use xlink:href="#DejaVuSans-6f" x="278.417969"/>
      <use xlink:href="#DejaVuSans-72" x="339.599609"/>
      <use xlink:href="#DejaVuSans-20" x="380.712891"/>
      <use xlink:href="#DejaVuSans-4e" x="412.5"/>
      <use xlink:href="#DejaVuSans-6f" x="487.304688"/>
      <use xlink:href="#DejaVuSans-74" x="548.486328"/>
      <use xlink:href="#DejaVuSans-2d" x="587.695312"/>
      <use xlink:href="#DejaVuSans-69" x="623.779297"/>
      <use xlink:href="#DejaVuSans-6e" x="651.5625"/>
      <use xlink:href="#DejaVuSans-2d" x="714.941406"/>
      <use xlink:href="#DejaVuSans-66" x="751.025391"/>
      <use xlink:href="#DejaVuSans-61" x="786.230469"/>
      <use xlink:href="#DejaVuSans-6d" x="847.509766"/>
      <use xlink:href="#DejaVuSans-69" x="944.921875"/>
      <use xlink:href="#DejaVuSans-6c" x="972.705078"/>
      <use xlink:href="#DejaVuSans-79" x="1000.488281"/>
      <use xlink:href="#DejaVuSans-20" x="1059.667969"/>
      <use xlink:href="#DejaVuSans-3d" x="1091.455078"/>
      <use xlink:href="#DejaVuSans-20" x="1175.244141"/>
      <use xlink:href="#DejaVuSans-30" x="1207.03125"/>
      <use xlink:href="#DejaVuSans-2e" x="1270.654297"/>
      <use xlink:href="#DejaVuSans-38" x="1302.441406"/>
      <use xlink:href="#DejaVuSans-37" x="1366.064453"/>
      <use xlink:href="#DejaVuSans-2c" x="1429.6875"/>
      <use xlink:href="#DejaVuSans-20" x="1461.474609"/>
      <use xlink:href="#DejaVuSans-43" x="1493.261719"/>
      <use xlink:href="#DejaVuSans-6f" x="1563.085938"/>
      <use xlink:href="#DejaVuSans-75" x="1624.267578"/>
      <use xlink:href="#DejaVuSans-6e" x="1687.646484"/>
      <use xlink:href="#DejaVuSans-74" x="1751.025391"/>
      <use xlink:href="#DejaVuSans-20" x="1790.234375"/>
      <use xlink:href="#DejaVuSans-3d" x="1822.021484"/>
      <use xlink:href="#DejaVuSans-20" x="1905.810547"/>
      <use xlink:href="#DejaVuSans-32" x="1937.597656"/>
      <use xlink:href="#DejaVuSans-2c" x="2001.220703"/>
      <use xlink:href="#DejaVuSans-35" x="2033.007812"/>
      <use xlink:href="#DejaVuSans-30" x="2096.630859"/>
      <use xlink:href="#DejaVuSans-37" x="2160.253906"/>
      <use xlink:href="#DejaVuSans-2c" x="2223.876953"/>
      <use xlink:href="#DejaVuSans-20" x="2255.664062"/>
      <use xlink:href="#DejaVuSans-50" x="2287.451172"/>
      <use xlink:href="#DejaVuSans-6f" x="2344.128906"/>
      <use xlink:href="#DejaVuSans-73" x="2405.310547"/>
      <use xlink:href="#DejaVuSans-20" x="2457.410156"/>
      <use xlink:href="#DejaVuSans-3d" x="2489.197266"/>
      <use xlink:href="#DejaVuSans-20" x="2572.986328"/>
      <use xlink:href="#DejaVuSans-32" x="2604.773438"/>
      <use xlink:href="#DejaVuSans-36" x="2668.396484"/>
      <use xlink:href="#DejaVuSans-39" x="2732.019531"/>
      <use xlink:href="#DejaVuSans-2c" x="2795.642578"/>
      <use xlink:href="#DejaVuSans-20" x="2827.429688"/>
      <use xlink:href="#DejaVuSans-4e" x="2859.216797"/>
      <use xlink:href="#DejaVuSans-65" x="2934.021484"/>
      <use xlink:href="#DejaVuSans-67" x="2995.544922"/>
      <use xlink:href="#DejaVuSans-20" x="3059.021484"/>
      <use xlink:href="#DejaVuSans-3d" x="3090.808594"/>
      <use xlink:href="#DejaVuSans-20" x="3174.597656"/>
      <use xlink:href="#DejaVuSans-32" x="3206.384766"/>
      <use xlink:href="#DejaVuSans-2c" x="3270.007812"/>
      <use xlink:href="#DejaVuSans-32" x="3301.794922"/>
      <use xlink:href="#DejaVuSans-33" x="3365.417969"/>
      <use xlink:href="#DejaVuSans-38" x="3429.041016"/>
     </g>
    </g>
    <g id="line2d_34">
     <path d="M 54.716875 215.137937 
L 64.716875 215.137937 
L 74.716875 215.137937 
" style="fill: none; stroke: #2ca02c; stroke-width: 1.5; stroke-linecap: square"/>
    </g>
    <g id="text_18">
     <!-- AUC for Unmarried = 0.87, Count = 1,054, Pos = 57, Neg = 997 -->
     <g transform="translate(82.716875 218.637937) scale(0.1 -0.1)">
      <use xlink:href="#DejaVuSans-41"/>
      <use xlink:href="#DejaVuSans-55" x="68.408203"/>
      <use xlink:href="#DejaVuSans-43" x="141.601562"/>
      <use xlink:href="#DejaVuSans-20" x="211.425781"/>
      <use xlink:href="#DejaVuSans-66" x="243.212891"/>
      <use xlink:href="#DejaVuSans-6f" x="278.417969"/>
      <use xlink:href="#DejaVuSans-72" x="339.599609"/>
      <use xlink:href="#DejaVuSans-20" x="380.712891"/>
      <use xlink:href="#DejaVuSans-55" x="412.5"/>
      <use xlink:href="#DejaVuSans-6e" x="485.693359"/>
      <use xlink:href="#DejaVuSans-6d" x="549.072266"/>
      <use xlink:href="#DejaVuSans-61" x="646.484375"/>
      <use xlink:href="#DejaVuSans-72" x="707.763672"/>
      <use xlink:href="#DejaVuSans-72" x="747.126953"/>
      <use xlink:href="#DejaVuSans-69" x="788.240234"/>
      <use xlink:href="#DejaVuSans-65" x="816.023438"/>
      <use xlink:href="#DejaVuSans-64" x="877.546875"/>
      <use xlink:href="#DejaVuSans-20" x="941.023438"/>
      <use xlink:href="#DejaVuSans-3d" x="972.810547"/>
      <use xlink:href="#DejaVuSans-20" x="1056.599609"/>
      <use xlink:href="#DejaVuSans-30" x="1088.386719"/>
      <use xlink:href="#DejaVuSans-2e" x="1152.009766"/>
      <use xlink:href="#DejaVuSans-38" x="1183.796875"/>
      <use xlink:href="#DejaVuSans-37" x="1247.419922"/>
      <use xlink:href="#DejaVuSans-2c" x="1311.042969"/>
      <use xlink:href="#DejaVuSans-20" x="1342.830078"/>
      <use xlink:href="#DejaVuSans-43" x="1374.617188"/>
      <use xlink:href="#DejaVuSans-6f" x="1444.441406"/>
      <use xlink:href="#DejaVuSans-75" x="1505.623047"/>
      <use xlink:href="#DejaVuSans-6e" x="1569.001953"/>
      <use xlink:href="#DejaVuSans-74" x="1632.380859"/>
      <use xlink:href="#DejaVuSans-20" x="1671.589844"/>
      <use xlink:href="#DejaVuSans-3d" x="1703.376953"/>
      <use xlink:href="#DejaVuSans-20" x="1787.166016"/>
      <use xlink:href="#DejaVuSans-31" x="1818.953125"/>
      <use xlink:href="#DejaVuSans-2c" x="1882.576172"/>
      <use xlink:href="#DejaVuSans-30" x="1914.363281"/>
      <use xlink:href="#DejaVuSans-35" x="1977.986328"/>
      <use xlink:href="#DejaVuSans-34" x="2041.609375"/>
      <use xlink:href="#DejaVuSans-2c" x="2105.232422"/>
      <use xlink:href="#DejaVuSans-20" x="2137.019531"/>
      <use xlink:href="#DejaVuSans-50" x="2168.806641"/>
      <use xlink:href="#DejaVuSans-6f" x="2225.484375"/>
      <use xlink:href="#DejaVuSans-73" x="2286.666016"/>
      <use xlink:href="#DejaVuSans-20" x="2338.765625"/>
      <use xlink:href="#DejaVuSans-3d" x="2370.552734"/>
      <use xlink:href="#DejaVuSans-20" x="2454.341797"/>
      <use xlink:href="#DejaVuSans-35" x="2486.128906"/>
      <use xlink:href="#DejaVuSans-37" x="2549.751953"/>
      <use xlink:href="#DejaVuSans-2c" x="2613.375"/>
      <use xlink:href="#DejaVuSans-20" x="2645.162109"/>
      <use xlink:href="#DejaVuSans-4e" x="2676.949219"/>
      <use xlink:href="#DejaVuSans-65" x="2751.753906"/>
      <use xlink:href="#DejaVuSans-67" x="2813.277344"/>
      <use xlink:href="#DejaVuSans-20" x="2876.753906"/>
      <use xlink:href="#DejaVuSans-3d" x="2908.541016"/>
      <use xlink:href="#DejaVuSans-20" x="2992.330078"/>
      <use xlink:href="#DejaVuSans-39" x="3024.117188"/>
      <use xlink:href="#DejaVuSans-39" x="3087.740234"/>
      <use xlink:href="#DejaVuSans-37" x="3151.363281"/>
     </g>
    </g>
    <g id="line2d_35">
     <path d="M 54.716875 229.816062 
L 64.716875 229.816062 
L 74.716875 229.816062 
" style="fill: none; stroke: #d62728; stroke-width: 1.5; stroke-linecap: square"/>
    </g>
    <g id="text_19">
     <!-- AUC for Wife = 0.77, Count = 428, Pos = 204, Neg = 224 -->
     <g transform="translate(82.716875 233.316062) scale(0.1 -0.1)">
      <defs>
       <path id="DejaVuSans-57" d="M 213 4666 
L 850 4666 
L 1831 722 
L 2809 4666 
L 3519 4666 
L 4500 722 
L 5478 4666 
L 6119 4666 
L 4947 0 
L 4153 0 
L 3169 4050 
L 2175 0 
L 1381 0 
L 213 4666 
z
" transform="scale(0.015625)"/>
      </defs>
      <use xlink:href="#DejaVuSans-41"/>
      <use xlink:href="#DejaVuSans-55" x="68.408203"/>
      <use xlink:href="#DejaVuSans-43" x="141.601562"/>
      <use xlink:href="#DejaVuSans-20" x="211.425781"/>
      <use xlink:href="#DejaVuSans-66" x="243.212891"/>
      <use xlink:href="#DejaVuSans-6f" x="278.417969"/>
      <use xlink:href="#DejaVuSans-72" x="339.599609"/>
      <use xlink:href="#DejaVuSans-20" x="380.712891"/>
      <use xlink:href="#DejaVuSans-57" x="412.5"/>
      <use xlink:href="#DejaVuSans-69" x="509.126953"/>
      <use xlink:href="#DejaVuSans-66" x="536.910156"/>
      <use xlink:href="#DejaVuSans-65" x="572.115234"/>
      <use xlink:href="#DejaVuSans-20" x="633.638672"/>
      <use xlink:href="#DejaVuSans-3d" x="665.425781"/>
      <use xlink:href="#DejaVuSans-20" x="749.214844"/>
      <use xlink:href="#DejaVuSans-30" x="781.001953"/>
      <use xlink:href="#DejaVuSans-2e" x="844.625"/>
      <use xlink:href="#DejaVuSans-37" x="876.412109"/>
      <use xlink:href="#DejaVuSans-37" x="940.035156"/>
      <use xlink:href="#DejaVuSans-2c" x="1003.658203"/>
      <use xlink:href="#DejaVuSans-20" x="1035.445312"/>
      <use xlink:href="#DejaVuSans-43" x="1067.232422"/>
      <use xlink:href="#DejaVuSans-6f" x="1137.056641"/>
      <use xlink:href="#DejaVuSans-75" x="1198.238281"/>
      <use xlink:href="#DejaVuSans-6e" x="1261.617188"/>
      <use xlink:href="#DejaVuSans-74" x="1324.996094"/>
      <use xlink:href="#DejaVuSans-20" x="1364.205078"/>
      <use xlink:href="#DejaVuSans-3d" x="1395.992188"/>
      <use xlink:href="#DejaVuSans-20" x="1479.78125"/>
      <use xlink:href="#DejaVuSans-34" x="1511.568359"/>
      <use xlink:href="#DejaVuSans-32" x="1575.191406"/>
      <use xlink:href="#DejaVuSans-38" x="1638.814453"/>
      <use xlink:href="#DejaVuSans-2c" x="1702.4375"/>
      <use xlink:href="#DejaVuSans-20" x="1734.224609"/>
      <use xlink:href="#DejaVuSans-50" x="1766.011719"/>
      <use xlink:href="#DejaVuSans-6f" x="1822.689453"/>
      <use xlink:href="#DejaVuSans-73" x="1883.871094"/>
      <use xlink:href="#DejaVuSans-20" x="1935.970703"/>
      <use xlink:href="#DejaVuSans-3d" x="1967.757812"/>
      <use xlink:href="#DejaVuSans-20" x="2051.546875"/>
      <use xlink:href="#DejaVuSans-32" x="2083.333984"/>
      <use xlink:href="#DejaVuSans-30" x="2146.957031"/>
      <use xlink:href="#DejaVuSans-34" x="2210.580078"/>
      <use xlink:href="#DejaVuSans-2c" x="2274.203125"/>
      <use xlink:href="#DejaVuSans-20" x="2305.990234"/>
      <use xlink:href="#DejaVuSans-4e" x="2337.777344"/>
      <use xlink:href="#DejaVuSans-65" x="2412.582031"/>
      <use xlink:href="#DejaVuSans-67" x="2474.105469"/>
      <use xlink:href="#DejaVuSans-20" x="2537.582031"/>
      <use xlink:href="#DejaVuSans-3d" x="2569.369141"/>
      <use xlink:href="#DejaVuSans-20" x="2653.158203"/>
      <use xlink:href="#DejaVuSans-32" x="2684.945312"/>
      <use xlink:href="#DejaVuSans-32" x="2748.568359"/>
      <use xlink:href="#DejaVuSans-34" x="2812.191406"/>
     </g>
    </g>
    <g id="line2d_36">
     <path d="M 54.716875 244.494187 
L 64.716875 244.494187 
L 74.716875 244.494187 
" style="fill: none; stroke: #9467bd; stroke-width: 1.5; stroke-linecap: square"/>
    </g>
    <g id="text_20">
     <!-- AUC for Other-relative = 0.91, Count = 314, Pos = 12, Neg = 302 -->
     <g transform="translate(82.716875 247.994187) scale(0.1 -0.1)">
      <defs>
       <path id="DejaVuSans-68" d="M 3513 2113 
L 3513 0 
L 2938 0 
L 2938 2094 
Q 2938 2591 2744 2837 
Q 2550 3084 2163 3084 
Q 1697 3084 1428 2787 
Q 1159 2491 1159 1978 
L 1159 0 
L 581 0 
L 581 4863 
L 1159 4863 
L 1159 2956 
Q 1366 3272 1645 3428 
Q 1925 3584 2291 3584 
Q 2894 3584 3203 3211 
Q 3513 2838 3513 2113 
z
" transform="scale(0.015625)"/>
      </defs>
      <use xlink:href="#DejaVuSans-41"/>
      <use xlink:href="#DejaVuSans-55" x="68.408203"/>
      <use xlink:href="#DejaVuSans-43" x="141.601562"/>
      <use xlink:href="#DejaVuSans-20" x="211.425781"/>
      <use xlink:href="#DejaVuSans-66" x="243.212891"/>
      <use xlink:href="#DejaVuSans-6f" x="278.417969"/>
      <use xlink:href="#DejaVuSans-72" x="339.599609"/>
      <use xlink:href="#DejaVuSans-20" x="380.712891"/>
      <use xlink:href="#DejaVuSans-4f" x="412.5"/>
      <use xlink:href="#DejaVuSans-74" x="491.210938"/>
      <use xlink:href="#DejaVuSans-68" x="530.419922"/>
      <use xlink:href="#DejaVuSans-65" x="593.798828"/>
      <use xlink:href="#DejaVuSans-72" x="655.322266"/>
      <use xlink:href="#DejaVuSans-2d" x="690.060547"/>
      <use xlink:href="#DejaVuSans-72" x="726.144531"/>
      <use xlink:href="#DejaVuSans-65" x="765.007812"/>
      <use xlink:href="#DejaVuSans-6c" x="826.53125"/>
      <use xlink:href="#DejaVuSans-61" x="854.314453"/>
      <use xlink:href="#DejaVuSans-74" x="915.59375"/>
      <use xlink:href="#DejaVuSans-69" x="954.802734"/>
      <use xlink:href="#DejaVuSans-76" x="982.585938"/>
      <use xlink:href="#DejaVuSans-65" x="1041.765625"/>
      <use xlink:href="#DejaVuSans-20" x="1103.289062"/>
      <use xlink:href="#DejaVuSans-3d" x="1135.076172"/>
      <use xlink:href="#DejaVuSans-20" x="1218.865234"/>
      <use xlink:href="#DejaVuSans-30" x="1250.652344"/>
      <use xlink:href="#DejaVuSans-2e" x="1314.275391"/>
      <use xlink:href="#DejaVuSans-39" x="1346.0625"/>
      <use xlink:href="#DejaVuSans-31" x="1409.685547"/>
      <use xlink:href="#DejaVuSans-2c" x="1473.308594"/>
      <use xlink:href="#DejaVuSans-20" x="1505.095703"/>
      <use xlink:href="#DejaVuSans-43" x="1536.882812"/>
      <use xlink:href="#DejaVuSans-6f" x="1606.707031"/>
      <use xlink:href="#DejaVuSans-75" x="1667.888672"/>
      <use xlink:href="#DejaVuSans-6e" x="1731.267578"/>
      <use xlink:href="#DejaVuSans-74" x="1794.646484"/>
      <use xlink:href="#DejaVuSans-20" x="1833.855469"/>
      <use xlink:href="#DejaVuSans-3d" x="1865.642578"/>
      <use xlink:href="#DejaVuSans-20" x="1949.431641"/>
      <use xlink:href="#DejaVuSans-33" x="1981.21875"/>
      <use xlink:href="#DejaVuSans-31" x="2044.841797"/>
      <use xlink:href="#DejaVuSans-34" x="2108.464844"/>
      <use xlink:href="#DejaVuSans-2c" x="2172.087891"/>
      <use xlink:href="#DejaVuSans-20" x="2203.875"/>
      <use xlink:href="#DejaVuSans-50" x="2235.662109"/>
      <use xlink:href="#DejaVuSans-6f" x="2292.339844"/>
      <use xlink:href="#DejaVuSans-73" x="2353.521484"/>
      <use xlink:href="#DejaVuSans-20" x="2405.621094"/>
      <use xlink:href="#DejaVuSans-3d" x="2437.408203"/>
      <use xlink:href="#DejaVuSans-20" x="2521.197266"/>
      <use xlink:href="#DejaVuSans-31" x="2552.984375"/>
      <use xlink:href="#DejaVuSans-32" x="2616.607422"/>
      <use xlink:href="#DejaVuSans-2c" x="2680.230469"/>
      <use xlink:href="#DejaVuSans-20" x="2712.017578"/>
      <use xlink:href="#DejaVuSans-4e" x="2743.804688"/>
      <use xlink:href="#DejaVuSans-65" x="2818.609375"/>
      <use xlink:href="#DejaVuSans-67" x="2880.132812"/>
      <use xlink:href="#DejaVuSans-20" x="2943.609375"/>
      <use xlink:href="#DejaVuSans-3d" x="2975.396484"/>
      <use xlink:href="#DejaVuSans-20" x="3059.185547"/>
      <use xlink:href="#DejaVuSans-33" x="3090.972656"/>
      <use xlink:href="#DejaVuSans-30" x="3154.595703"/>
      <use xlink:href="#DejaVuSans-32" x="3218.21875"/>
     </g>
    </g>
    <g id="line2d_37">
     <path d="M 54.716875 259.172312 
L 64.716875 259.172312 
L 74.716875 259.172312 
" style="fill: none; stroke: #8c564b; stroke-width: 1.5; stroke-linecap: square"/>
    </g>
    <g id="text_21">
     <!-- AUC for Own-child = 0.87, Count = 1,498, Pos = 19, Neg = 1,479 -->
     <g transform="translate(82.716875 262.672312) scale(0.1 -0.1)">
      <defs>
       <path id="DejaVuSans-77" d="M 269 3500 
L 844 3500 
L 1563 769 
L 2278 3500 
L 2956 3500 
L 3675 769 
L 4391 3500 
L 4966 3500 
L 4050 0 
L 3372 0 
L 2619 2869 
L 1863 0 
L 1184 0 
L 269 3500 
z
" transform="scale(0.015625)"/>
       <path id="DejaVuSans-63" d="M 3122 3366 
L 3122 2828 
Q 2878 2963 2633 3030 
Q 2388 3097 2138 3097 
Q 1578 3097 1268 2742 
Q 959 2388 959 1747 
Q 959 1106 1268 751 
Q 1578 397 2138 397 
Q 2388 397 2633 464 
Q 2878 531 3122 666 
L 3122 134 
Q 2881 22 2623 -34 
Q 2366 -91 2075 -91 
Q 1284 -91 818 406 
Q 353 903 353 1747 
Q 353 2603 823 3093 
Q 1294 3584 2113 3584 
Q 2378 3584 2631 3529 
Q 2884 3475 3122 3366 
z
" transform="scale(0.015625)"/>
      </defs>
      <use xlink:href="#DejaVuSans-41"/>
      <use xlink:href="#DejaVuSans-55" x="68.408203"/>
      <use xlink:href="#DejaVuSans-43" x="141.601562"/>
      <use xlink:href="#DejaVuSans-20" x="211.425781"/>
      <use xlink:href="#DejaVuSans-66" x="243.212891"/>
      <use xlink:href="#DejaVuSans-6f" x="278.417969"/>
      <use xlink:href="#DejaVuSans-72" x="339.599609"/>
      <use xlink:href="#DejaVuSans-20" x="380.712891"/>
      <use xlink:href="#DejaVuSans-4f" x="412.5"/>
      <use xlink:href="#DejaVuSans-77" x="491.210938"/>
      <use xlink:href="#DejaVuSans-6e" x="572.998047"/>
      <use xlink:href="#DejaVuSans-2d" x="636.376953"/>
      <use xlink:href="#DejaVuSans-63" x="672.460938"/>
      <use xlink:href="#DejaVuSans-68" x="727.441406"/>
      <use xlink:href="#DejaVuSans-69" x="790.820312"/>
      <use xlink:href="#DejaVuSans-6c" x="818.603516"/>
      <use xlink:href="#DejaVuSans-64" x="846.386719"/>
      <use xlink:href="#DejaVuSans-20" x="909.863281"/>
      <use xlink:href="#DejaVuSans-3d" x="941.650391"/>
      <use xlink:href="#DejaVuSans-20" x="1025.439453"/>
      <use xlink:href="#DejaVuSans-30" x="1057.226562"/>
      <use xlink:href="#DejaVuSans-2e" x="1120.849609"/>
      <use xlink:href="#DejaVuSans-38" x="1152.636719"/>
      <use xlink:href="#DejaVuSans-37" x="1216.259766"/>
      <use xlink:href="#DejaVuSans-2c" x="1279.882812"/>
      <use xlink:href="#DejaVuSans-20" x="1311.669922"/>
      <use xlink:href="#DejaVuSans-43" x="1343.457031"/>
      <use xlink:href="#DejaVuSans-6f" x="1413.28125"/>
      <use xlink:href="#DejaVuSans-75" x="1474.462891"/>
      <use xlink:href="#DejaVuSans-6e" x="1537.841797"/>
      <use xlink:href="#DejaVuSans-74" x="1601.220703"/>
      <use xlink:href="#DejaVuSans-20" x="1640.429688"/>
      <use xlink:href="#DejaVuSans-3d" x="1672.216797"/>
      <use xlink:href="#DejaVuSans-20" x="1756.005859"/>
      <use xlink:href="#DejaVuSans-31" x="1787.792969"/>
      <use xlink:href="#DejaVuSans-2c" x="1851.416016"/>
      <use xlink:href="#DejaVuSans-34" x="1883.203125"/>
      <use xlink:href="#DejaVuSans-39" x="1946.826172"/>
      <use xlink:href="#DejaVuSans-38" x="2010.449219"/>
      <use xlink:href="#DejaVuSans-2c" x="2074.072266"/>
      <use xlink:href="#DejaVuSans-20" x="2105.859375"/>
      <use xlink:href="#DejaVuSans-50" x="2137.646484"/>
      <use xlink:href="#DejaVuSans-6f" x="2194.324219"/>
      <use xlink:href="#DejaVuSans-73" x="2255.505859"/>
      <use xlink:href="#DejaVuSans-20" x="2307.605469"/>
      <use xlink:href="#DejaVuSans-3d" x="2339.392578"/>
      <use xlink:href="#DejaVuSans-20" x="2423.181641"/>
      <use xlink:href="#DejaVuSans-31" x="2454.96875"/>
      <use xlink:href="#DejaVuSans-39" x="2518.591797"/>
      <use xlink:href="#DejaVuSans-2c" x="2582.214844"/>
      <use xlink:href="#DejaVuSans-20" x="2614.001953"/>
      <use xlink:href="#DejaVuSans-4e" x="2645.789062"/>
      <use xlink:href="#DejaVuSans-65" x="2720.59375"/>
      <use xlink:href="#DejaVuSans-67" x="2782.117188"/>
      <use xlink:href="#DejaVuSans-20" x="2845.59375"/>
      <use xlink:href="#DejaVuSans-3d" x="2877.380859"/>
      <use xlink:href="#DejaVuSans-20" x="2961.169922"/>
      <use xlink:href="#DejaVuSans-31" x="2992.957031"/>
      <use xlink:href="#DejaVuSans-2c" x="3056.580078"/>
      <use xlink:href="#DejaVuSans-34" x="3088.367188"/>
      <use xlink:href="#DejaVuSans-37" x="3151.990234"/>
      <use xlink:href="#DejaVuSans-39" x="3215.613281"/>
     </g>
    </g>
    <g id="line2d_38">
     <path d="M 54.716875 273.850437 
L 64.716875 273.850437 
L 74.716875 273.850437 
" style="fill: none; stroke-dasharray: 7.4,3.2; stroke-dashoffset: 0; stroke: #808080; stroke-width: 2"/>
    </g>
    <g id="text_22">
     <!-- Random Guess -->
     <g transform="translate(82.716875 277.350437) scale(0.1 -0.1)">
      <defs>
       <path id="DejaVuSans-47" d="M 3809 666 
L 3809 1919 
L 2778 1919 
L 2778 2438 
L 4434 2438 
L 4434 434 
Q 4069 175 3628 42 
Q 3188 -91 2688 -91 
Q 1594 -91 976 548 
Q 359 1188 359 2328 
Q 359 3472 976 4111 
Q 1594 4750 2688 4750 
Q 3144 4750 3555 4637 
Q 3966 4525 4313 4306 
L 4313 3634 
Q 3963 3931 3569 4081 
Q 3175 4231 2741 4231 
Q 1884 4231 1454 3753 
Q 1025 3275 1025 2328 
Q 1025 1384 1454 906 
Q 1884 428 2741 428 
Q 3075 428 3337 486 
Q 3600 544 3809 666 
z
" transform="scale(0.015625)"/>
      </defs>
      <use xlink:href="#DejaVuSans-52"/>
      <use xlink:href="#DejaVuSans-61" x="67.232422"/>
      <use xlink:href="#DejaVuSans-6e" x="128.511719"/>
      <use xlink:href="#DejaVuSans-64" x="191.890625"/>
      <use xlink:href="#DejaVuSans-6f" x="255.367188"/>
      <use xlink:href="#DejaVuSans-6d" x="316.548828"/>
      <use xlink:href="#DejaVuSans-20" x="413.960938"/>
      <use xlink:href="#DejaVuSans-47" x="445.748047"/>
      <use xlink:href="#DejaVuSans-75" x="523.238281"/>
      <use xlink:href="#DejaVuSans-65" x="586.617188"/>
      <use xlink:href="#DejaVuSans-73" x="648.140625"/>
      <use xlink:href="#DejaVuSans-73" x="700.240234"/>
     </g>
    </g>
   </g>
  </g>
 </g>
 <defs>
  <clipPath id="p140a9e62f3">
   <rect x="45.716875" y="22.318125" width="357.12" height="266.112"/>
  </clipPath>
 </defs>
</svg>
