<?xml version="1.0" encoding="utf-8" standalone="no"?>
<!DOCTYPE svg PUBLIC "-//W3C//DTD SVG 1.1//EN"
  "http://www.w3.org/Graphics/SVG/1.1/DTD/svg11.dtd">
<svg xmlns:xlink="http://www.w3.org/1999/xlink" width="499.316875pt" height="394.45pt" viewBox="0 0 499.316875 394.45" xmlns="http://www.w3.org/2000/svg" version="1.1">
 <metadata>
  <rdf:RDF xmlns:dc="http://purl.org/dc/elements/1.1/" xmlns:cc="http://creativecommons.org/ns#" xmlns:rdf="http://www.w3.org/1999/02/22-rdf-syntax-ns#">
   <cc:Work>
    <dc:type rdf:resource="http://purl.org/dc/dcmitype/StillImage"/>
    <dc:date>2025-02-24T10:04:26.472700</dc:date>
    <dc:format>image/svg+xml</dc:format>
    <dc:creator>
     <cc:Agent>
      <dc:title>Matplotlib v3.9.2, https://matplotlib.org/</dc:title>
     </cc:Agent>
    </dc:creator>
   </cc:Work>
  </rdf:RDF>
 </metadata>
 <defs>
  <style type="text/css">*{stroke-linejoin: round; stroke-linecap: butt}</style>
 </defs>
 <g id="figure_1">
  <g id="patch_1">
   <path d="M 0 394.45 
L 499.316875 394.45 
L 499.316875 0 
L 0 0 
z
" style="fill: #ffffff"/>
  </g>
  <g id="axes_1">
   <g id="patch_2">
    <path d="M 45.716875 354.958125 
L 492.116875 354.958125 
L 492.116875 22.318125 
L 45.716875 22.318125 
z
" style="fill: #ffffff"/>
   </g>
   <g id="matplotlib.axis_1">
    <g id="xtick_1">
     <g id="line2d_1">
      <path d="M 66.007784 354.958125 
L 66.007784 22.318125 
" clip-path="url(#pb618936017)" style="fill: none; stroke: #b0b0b0; stroke-width: 0.8; stroke-linecap: square"/>
     </g>
     <g id="line2d_2">
      <defs>
       <path id="m55fd10a055" d="M 0 0 
L 0 3.5 
" style="stroke: #000000; stroke-width: 0.8"/>
      </defs>
      <g>
       <use xlink:href="#m55fd10a055" x="66.007784" y="354.958125" style="stroke: #000000; stroke-width: 0.8"/>
      </g>
     </g>
     <g id="text_1">
      <!-- 0.0 -->
      <g transform="translate(58.056222 369.556562) scale(0.1 -0.1)">
       <defs>
        <path id="DejaVuSans-30" d="M 2034 4250 
Q 1547 4250 1301 3770 
Q 1056 3291 1056 2328 
Q 1056 1369 1301 889 
Q 1547 409 2034 409 
Q 2525 409 2770 889 
Q 3016 1369 3016 2328 
Q 3016 3291 2770 3770 
Q 2525 4250 2034 4250 
z
M 2034 4750 
Q 2819 4750 3233 4129 
Q 3647 3509 3647 2328 
Q 3647 1150 3233 529 
Q 2819 -91 2034 -91 
Q 1250 -91 836 529 
Q 422 1150 422 2328 
Q 422 3509 836 4129 
Q 1250 4750 2034 4750 
z
" transform="scale(0.015625)"/>
        <path id="DejaVuSans-2e" d="M 684 794 
L 1344 794 
L 1344 0 
L 684 0 
L 684 794 
z
" transform="scale(0.015625)"/>
       </defs>
       <use xlink:href="#DejaVuSans-30"/>
       <use xlink:href="#DejaVuSans-2e" x="63.623047"/>
       <use xlink:href="#DejaVuSans-30" x="95.410156"/>
      </g>
     </g>
    </g>
    <g id="xtick_2">
     <g id="line2d_3">
      <path d="M 147.17142 354.958125 
L 147.17142 22.318125 
" clip-path="url(#pb618936017)" style="fill: none; stroke: #b0b0b0; stroke-width: 0.8; stroke-linecap: square"/>
     </g>
     <g id="line2d_4">
      <g>
       <use xlink:href="#m55fd10a055" x="147.17142" y="354.958125" style="stroke: #000000; stroke-width: 0.8"/>
      </g>
     </g>
     <g id="text_2">
      <!-- 0.2 -->
      <g transform="translate(139.219858 369.556562) scale(0.1 -0.1)">
       <defs>
        <path id="DejaVuSans-32" d="M 1228 531 
L 3431 531 
L 3431 0 
L 469 0 
L 469 531 
Q 828 903 1448 1529 
Q 2069 2156 2228 2338 
Q 2531 2678 2651 2914 
Q 2772 3150 2772 3378 
Q 2772 3750 2511 3984 
Q 2250 4219 1831 4219 
Q 1534 4219 1204 4116 
Q 875 4013 500 3803 
L 500 4441 
Q 881 4594 1212 4672 
Q 1544 4750 1819 4750 
Q 2544 4750 2975 4387 
Q 3406 4025 3406 3419 
Q 3406 3131 3298 2873 
Q 3191 2616 2906 2266 
Q 2828 2175 2409 1742 
Q 1991 1309 1228 531 
z
" transform="scale(0.015625)"/>
       </defs>
       <use xlink:href="#DejaVuSans-30"/>
       <use xlink:href="#DejaVuSans-2e" x="63.623047"/>
       <use xlink:href="#DejaVuSans-32" x="95.410156"/>
      </g>
     </g>
    </g>
    <g id="xtick_3">
     <g id="line2d_5">
      <path d="M 228.335057 354.958125 
L 228.335057 22.318125 
" clip-path="url(#pb618936017)" style="fill: none; stroke: #b0b0b0; stroke-width: 0.8; stroke-linecap: square"/>
     </g>
     <g id="line2d_6">
      <g>
       <use xlink:href="#m55fd10a055" x="228.335057" y="354.958125" style="stroke: #000000; stroke-width: 0.8"/>
      </g>
     </g>
     <g id="text_3">
      <!-- 0.4 -->
      <g transform="translate(220.383494 369.556562) scale(0.1 -0.1)">
       <defs>
        <path id="DejaVuSans-34" d="M 2419 4116 
L 825 1625 
L 2419 1625 
L 2419 4116 
z
M 2253 4666 
L 3047 4666 
L 3047 1625 
L 3713 1625 
L 3713 1100 
L 3047 1100 
L 3047 0 
L 2419 0 
L 2419 1100 
L 313 1100 
L 313 1709 
L 2253 4666 
z
" transform="scale(0.015625)"/>
       </defs>
       <use xlink:href="#DejaVuSans-30"/>
       <use xlink:href="#DejaVuSans-2e" x="63.623047"/>
       <use xlink:href="#DejaVuSans-34" x="95.410156"/>
      </g>
     </g>
    </g>
    <g id="xtick_4">
     <g id="line2d_7">
      <path d="M 309.498693 354.958125 
L 309.498693 22.318125 
" clip-path="url(#pb618936017)" style="fill: none; stroke: #b0b0b0; stroke-width: 0.8; stroke-linecap: square"/>
     </g>
     <g id="line2d_8">
      <g>
       <use xlink:href="#m55fd10a055" x="309.498693" y="354.958125" style="stroke: #000000; stroke-width: 0.8"/>
      </g>
     </g>
     <g id="text_4">
      <!-- 0.6 -->
      <g transform="translate(301.547131 369.556562) scale(0.1 -0.1)">
       <defs>
        <path id="DejaVuSans-36" d="M 2113 2584 
Q 1688 2584 1439 2293 
Q 1191 2003 1191 1497 
Q 1191 994 1439 701 
Q 1688 409 2113 409 
Q 2538 409 2786 701 
Q 3034 994 3034 1497 
Q 3034 2003 2786 2293 
Q 2538 2584 2113 2584 
z
M 3366 4563 
L 3366 3988 
Q 3128 4100 2886 4159 
Q 2644 4219 2406 4219 
Q 1781 4219 1451 3797 
Q 1122 3375 1075 2522 
Q 1259 2794 1537 2939 
Q 1816 3084 2150 3084 
Q 2853 3084 3261 2657 
Q 3669 2231 3669 1497 
Q 3669 778 3244 343 
Q 2819 -91 2113 -91 
Q 1303 -91 875 529 
Q 447 1150 447 2328 
Q 447 3434 972 4092 
Q 1497 4750 2381 4750 
Q 2619 4750 2861 4703 
Q 3103 4656 3366 4563 
z
" transform="scale(0.015625)"/>
       </defs>
       <use xlink:href="#DejaVuSans-30"/>
       <use xlink:href="#DejaVuSans-2e" x="63.623047"/>
       <use xlink:href="#DejaVuSans-36" x="95.410156"/>
      </g>
     </g>
    </g>
    <g id="xtick_5">
     <g id="line2d_9">
      <path d="M 390.66233 354.958125 
L 390.66233 22.318125 
" clip-path="url(#pb618936017)" style="fill: none; stroke: #b0b0b0; stroke-width: 0.8; stroke-linecap: square"/>
     </g>
     <g id="line2d_10">
      <g>
       <use xlink:href="#m55fd10a055" x="390.66233" y="354.958125" style="stroke: #000000; stroke-width: 0.8"/>
      </g>
     </g>
     <g id="text_5">
      <!-- 0.8 -->
      <g transform="translate(382.710767 369.556562) scale(0.1 -0.1)">
       <defs>
        <path id="DejaVuSans-38" d="M 2034 2216 
Q 1584 2216 1326 1975 
Q 1069 1734 1069 1313 
Q 1069 891 1326 650 
Q 1584 409 2034 409 
Q 2484 409 2743 651 
Q 3003 894 3003 1313 
Q 3003 1734 2745 1975 
Q 2488 2216 2034 2216 
z
M 1403 2484 
Q 997 2584 770 2862 
Q 544 3141 544 3541 
Q 544 4100 942 4425 
Q 1341 4750 2034 4750 
Q 2731 4750 3128 4425 
Q 3525 4100 3525 3541 
Q 3525 3141 3298 2862 
Q 3072 2584 2669 2484 
Q 3125 2378 3379 2068 
Q 3634 1759 3634 1313 
Q 3634 634 3220 271 
Q 2806 -91 2034 -91 
Q 1263 -91 848 271 
Q 434 634 434 1313 
Q 434 1759 690 2068 
Q 947 2378 1403 2484 
z
M 1172 3481 
Q 1172 3119 1398 2916 
Q 1625 2713 2034 2713 
Q 2441 2713 2670 2916 
Q 2900 3119 2900 3481 
Q 2900 3844 2670 4047 
Q 2441 4250 2034 4250 
Q 1625 4250 1398 4047 
Q 1172 3844 1172 3481 
z
" transform="scale(0.015625)"/>
       </defs>
       <use xlink:href="#DejaVuSans-30"/>
       <use xlink:href="#DejaVuSans-2e" x="63.623047"/>
       <use xlink:href="#DejaVuSans-38" x="95.410156"/>
      </g>
     </g>
    </g>
    <g id="xtick_6">
     <g id="line2d_11">
      <path d="M 471.825966 354.958125 
L 471.825966 22.318125 
" clip-path="url(#pb618936017)" style="fill: none; stroke: #b0b0b0; stroke-width: 0.8; stroke-linecap: square"/>
     </g>
     <g id="line2d_12">
      <g>
       <use xlink:href="#m55fd10a055" x="471.825966" y="354.958125" style="stroke: #000000; stroke-width: 0.8"/>
      </g>
     </g>
     <g id="text_6">
      <!-- 1.0 -->
      <g transform="translate(463.874403 369.556562) scale(0.1 -0.1)">
       <defs>
        <path id="DejaVuSans-31" d="M 794 531 
L 1825 531 
L 1825 4091 
L 703 3866 
L 703 4441 
L 1819 4666 
L 2450 4666 
L 2450 531 
L 3481 531 
L 3481 0 
L 794 0 
L 794 531 
z
" transform="scale(0.015625)"/>
       </defs>
       <use xlink:href="#DejaVuSans-31"/>
       <use xlink:href="#DejaVuSans-2e" x="63.623047"/>
       <use xlink:href="#DejaVuSans-30" x="95.410156"/>
      </g>
     </g>
    </g>
    <g id="text_7">
     <!-- Recall -->
     <g transform="translate(251.01625 384.754375) scale(0.12 -0.12)">
      <defs>
       <path id="DejaVuSans-52" d="M 2841 2188 
Q 3044 2119 3236 1894 
Q 3428 1669 3622 1275 
L 4263 0 
L 3584 0 
L 2988 1197 
Q 2756 1666 2539 1819 
Q 2322 1972 1947 1972 
L 1259 1972 
L 1259 0 
L 628 0 
L 628 4666 
L 2053 4666 
Q 2853 4666 3247 4331 
Q 3641 3997 3641 3322 
Q 3641 2881 3436 2590 
Q 3231 2300 2841 2188 
z
M 1259 4147 
L 1259 2491 
L 2053 2491 
Q 2509 2491 2742 2702 
Q 2975 2913 2975 3322 
Q 2975 3731 2742 3939 
Q 2509 4147 2053 4147 
L 1259 4147 
z
" transform="scale(0.015625)"/>
       <path id="DejaVuSans-65" d="M 3597 1894 
L 3597 1613 
L 953 1613 
Q 991 1019 1311 708 
Q 1631 397 2203 397 
Q 2534 397 2845 478 
Q 3156 559 3463 722 
L 3463 178 
Q 3153 47 2828 -22 
Q 2503 -91 2169 -91 
Q 1331 -91 842 396 
Q 353 884 353 1716 
Q 353 2575 817 3079 
Q 1281 3584 2069 3584 
Q 2775 3584 3186 3129 
Q 3597 2675 3597 1894 
z
M 3022 2063 
Q 3016 2534 2758 2815 
Q 2500 3097 2075 3097 
Q 1594 3097 1305 2825 
Q 1016 2553 972 2059 
L 3022 2063 
z
" transform="scale(0.015625)"/>
       <path id="DejaVuSans-63" d="M 3122 3366 
L 3122 2828 
Q 2878 2963 2633 3030 
Q 2388 3097 2138 3097 
Q 1578 3097 1268 2742 
Q 959 2388 959 1747 
Q 959 1106 1268 751 
Q 1578 397 2138 397 
Q 2388 397 2633 464 
Q 2878 531 3122 666 
L 3122 134 
Q 2881 22 2623 -34 
Q 2366 -91 2075 -91 
Q 1284 -91 818 406 
Q 353 903 353 1747 
Q 353 2603 823 3093 
Q 1294 3584 2113 3584 
Q 2378 3584 2631 3529 
Q 2884 3475 3122 3366 
z
" transform="scale(0.015625)"/>
       <path id="DejaVuSans-61" d="M 2194 1759 
Q 1497 1759 1228 1600 
Q 959 1441 959 1056 
Q 959 750 1161 570 
Q 1363 391 1709 391 
Q 2188 391 2477 730 
Q 2766 1069 2766 1631 
L 2766 1759 
L 2194 1759 
z
M 3341 1997 
L 3341 0 
L 2766 0 
L 2766 531 
Q 2569 213 2275 61 
Q 1981 -91 1556 -91 
Q 1019 -91 701 211 
Q 384 513 384 1019 
Q 384 1609 779 1909 
Q 1175 2209 1959 2209 
L 2766 2209 
L 2766 2266 
Q 2766 2663 2505 2880 
Q 2244 3097 1772 3097 
Q 1472 3097 1187 3025 
Q 903 2953 641 2809 
L 641 3341 
Q 956 3463 1253 3523 
Q 1550 3584 1831 3584 
Q 2591 3584 2966 3190 
Q 3341 2797 3341 1997 
z
" transform="scale(0.015625)"/>
       <path id="DejaVuSans-6c" d="M 603 4863 
L 1178 4863 
L 1178 0 
L 603 0 
L 603 4863 
z
" transform="scale(0.015625)"/>
      </defs>
      <use xlink:href="#DejaVuSans-52"/>
      <use xlink:href="#DejaVuSans-65" x="64.982422"/>
      <use xlink:href="#DejaVuSans-63" x="126.505859"/>
      <use xlink:href="#DejaVuSans-61" x="181.486328"/>
      <use xlink:href="#DejaVuSans-6c" x="242.765625"/>
      <use xlink:href="#DejaVuSans-6c" x="270.548828"/>
     </g>
    </g>
   </g>
   <g id="matplotlib.axis_2">
    <g id="ytick_1">
     <g id="line2d_13">
      <path d="M 45.716875 343.722912 
L 492.116875 343.722912 
" clip-path="url(#pb618936017)" style="fill: none; stroke: #b0b0b0; stroke-width: 0.8; stroke-linecap: square"/>
     </g>
     <g id="line2d_14">
      <defs>
       <path id="m3e61481a5c" d="M 0 0 
L -3.5 0 
" style="stroke: #000000; stroke-width: 0.8"/>
      </defs>
      <g>
       <use xlink:href="#m3e61481a5c" x="45.716875" y="343.722912" style="stroke: #000000; stroke-width: 0.8"/>
      </g>
     </g>
     <g id="text_8">
      <!-- 0.0 -->
      <g transform="translate(22.81375 347.522131) scale(0.1 -0.1)">
       <use xlink:href="#DejaVuSans-30"/>
       <use xlink:href="#DejaVuSans-2e" x="63.623047"/>
       <use xlink:href="#DejaVuSans-30" x="95.410156"/>
      </g>
     </g>
    </g>
    <g id="ytick_2">
     <g id="line2d_15">
      <path d="M 45.716875 282.465955 
L 492.116875 282.465955 
" clip-path="url(#pb618936017)" style="fill: none; stroke: #b0b0b0; stroke-width: 0.8; stroke-linecap: square"/>
     </g>
     <g id="line2d_16">
      <g>
       <use xlink:href="#m3e61481a5c" x="45.716875" y="282.465955" style="stroke: #000000; stroke-width: 0.8"/>
      </g>
     </g>
     <g id="text_9">
      <!-- 0.2 -->
      <g transform="translate(22.81375 286.265173) scale(0.1 -0.1)">
       <use xlink:href="#DejaVuSans-30"/>
       <use xlink:href="#DejaVuSans-2e" x="63.623047"/>
       <use xlink:href="#DejaVuSans-32" x="95.410156"/>
      </g>
     </g>
    </g>
    <g id="ytick_3">
     <g id="line2d_17">
      <path d="M 45.716875 221.208997 
L 492.116875 221.208997 
" clip-path="url(#pb618936017)" style="fill: none; stroke: #b0b0b0; stroke-width: 0.8; stroke-linecap: square"/>
     </g>
     <g id="line2d_18">
      <g>
       <use xlink:href="#m3e61481a5c" x="45.716875" y="221.208997" style="stroke: #000000; stroke-width: 0.8"/>
      </g>
     </g>
     <g id="text_10">
      <!-- 0.4 -->
      <g transform="translate(22.81375 225.008216) scale(0.1 -0.1)">
       <use xlink:href="#DejaVuSans-30"/>
       <use xlink:href="#DejaVuSans-2e" x="63.623047"/>
       <use xlink:href="#DejaVuSans-34" x="95.410156"/>
      </g>
     </g>
    </g>
    <g id="ytick_4">
     <g id="line2d_19">
      <path d="M 45.716875 159.95204 
L 492.116875 159.95204 
" clip-path="url(#pb618936017)" style="fill: none; stroke: #b0b0b0; stroke-width: 0.8; stroke-linecap: square"/>
     </g>
     <g id="line2d_20">
      <g>
       <use xlink:href="#m3e61481a5c" x="45.716875" y="159.95204" style="stroke: #000000; stroke-width: 0.8"/>
      </g>
     </g>
     <g id="text_11">
      <!-- 0.6 -->
      <g transform="translate(22.81375 163.751259) scale(0.1 -0.1)">
       <use xlink:href="#DejaVuSans-30"/>
       <use xlink:href="#DejaVuSans-2e" x="63.623047"/>
       <use xlink:href="#DejaVuSans-36" x="95.410156"/>
      </g>
     </g>
    </g>
    <g id="ytick_5">
     <g id="line2d_21">
      <path d="M 45.716875 98.695082 
L 492.116875 98.695082 
" clip-path="url(#pb618936017)" style="fill: none; stroke: #b0b0b0; stroke-width: 0.8; stroke-linecap: square"/>
     </g>
     <g id="line2d_22">
      <g>
       <use xlink:href="#m3e61481a5c" x="45.716875" y="98.695082" style="stroke: #000000; stroke-width: 0.8"/>
      </g>
     </g>
     <g id="text_12">
      <!-- 0.8 -->
      <g transform="translate(22.81375 102.494301) scale(0.1 -0.1)">
       <use xlink:href="#DejaVuSans-30"/>
       <use xlink:href="#DejaVuSans-2e" x="63.623047"/>
       <use xlink:href="#DejaVuSans-38" x="95.410156"/>
      </g>
     </g>
    </g>
    <g id="ytick_6">
     <g id="line2d_23">
      <path d="M 45.716875 37.438125 
L 492.116875 37.438125 
" clip-path="url(#pb618936017)" style="fill: none; stroke: #b0b0b0; stroke-width: 0.8; stroke-linecap: square"/>
     </g>
     <g id="line2d_24">
      <g>
       <use xlink:href="#m3e61481a5c" x="45.716875" y="37.438125" style="stroke: #000000; stroke-width: 0.8"/>
      </g>
     </g>
     <g id="text_13">
      <!-- 1.0 -->
      <g transform="translate(22.81375 41.237344) scale(0.1 -0.1)">
       <use xlink:href="#DejaVuSans-31"/>
       <use xlink:href="#DejaVuSans-2e" x="63.623047"/>
       <use xlink:href="#DejaVuSans-30" x="95.410156"/>
      </g>
     </g>
    </g>
    <g id="text_14">
     <!-- Precision -->
     <g transform="translate(16.318125 215.406562) rotate(-90) scale(0.12 -0.12)">
      <defs>
       <path id="DejaVuSans-50" d="M 1259 4147 
L 1259 2394 
L 2053 2394 
Q 2494 2394 2734 2622 
Q 2975 2850 2975 3272 
Q 2975 3691 2734 3919 
Q 2494 4147 2053 4147 
L 1259 4147 
z
M 628 4666 
L 2053 4666 
Q 2838 4666 3239 4311 
Q 3641 3956 3641 3272 
Q 3641 2581 3239 2228 
Q 2838 1875 2053 1875 
L 1259 1875 
L 1259 0 
L 628 0 
L 628 4666 
z
" transform="scale(0.015625)"/>
       <path id="DejaVuSans-72" d="M 2631 2963 
Q 2534 3019 2420 3045 
Q 2306 3072 2169 3072 
Q 1681 3072 1420 2755 
Q 1159 2438 1159 1844 
L 1159 0 
L 581 0 
L 581 3500 
L 1159 3500 
L 1159 2956 
Q 1341 3275 1631 3429 
Q 1922 3584 2338 3584 
Q 2397 3584 2469 3576 
Q 2541 3569 2628 3553 
L 2631 2963 
z
" transform="scale(0.015625)"/>
       <path id="DejaVuSans-69" d="M 603 3500 
L 1178 3500 
L 1178 0 
L 603 0 
L 603 3500 
z
M 603 4863 
L 1178 4863 
L 1178 4134 
L 603 4134 
L 603 4863 
z
" transform="scale(0.015625)"/>
       <path id="DejaVuSans-73" d="M 2834 3397 
L 2834 2853 
Q 2591 2978 2328 3040 
Q 2066 3103 1784 3103 
Q 1356 3103 1142 2972 
Q 928 2841 928 2578 
Q 928 2378 1081 2264 
Q 1234 2150 1697 2047 
L 1894 2003 
Q 2506 1872 2764 1633 
Q 3022 1394 3022 966 
Q 3022 478 2636 193 
Q 2250 -91 1575 -91 
Q 1294 -91 989 -36 
Q 684 19 347 128 
L 347 722 
Q 666 556 975 473 
Q 1284 391 1588 391 
Q 1994 391 2212 530 
Q 2431 669 2431 922 
Q 2431 1156 2273 1281 
Q 2116 1406 1581 1522 
L 1381 1569 
Q 847 1681 609 1914 
Q 372 2147 372 2553 
Q 372 3047 722 3315 
Q 1072 3584 1716 3584 
Q 2034 3584 2315 3537 
Q 2597 3491 2834 3397 
z
" transform="scale(0.015625)"/>
       <path id="DejaVuSans-6f" d="M 1959 3097 
Q 1497 3097 1228 2736 
Q 959 2375 959 1747 
Q 959 1119 1226 758 
Q 1494 397 1959 397 
Q 2419 397 2687 759 
Q 2956 1122 2956 1747 
Q 2956 2369 2687 2733 
Q 2419 3097 1959 3097 
z
M 1959 3584 
Q 2709 3584 3137 3096 
Q 3566 2609 3566 1747 
Q 3566 888 3137 398 
Q 2709 -91 1959 -91 
Q 1206 -91 779 398 
Q 353 888 353 1747 
Q 353 2609 779 3096 
Q 1206 3584 1959 3584 
z
" transform="scale(0.015625)"/>
       <path id="DejaVuSans-6e" d="M 3513 2113 
L 3513 0 
L 2938 0 
L 2938 2094 
Q 2938 2591 2744 2837 
Q 2550 3084 2163 3084 
Q 1697 3084 1428 2787 
Q 1159 2491 1159 1978 
L 1159 0 
L 581 0 
L 581 3500 
L 1159 3500 
L 1159 2956 
Q 1366 3272 1645 3428 
Q 1925 3584 2291 3584 
Q 2894 3584 3203 3211 
Q 3513 2838 3513 2113 
z
" transform="scale(0.015625)"/>
      </defs>
      <use xlink:href="#DejaVuSans-50"/>
      <use xlink:href="#DejaVuSans-72" x="58.552734"/>
      <use xlink:href="#DejaVuSans-65" x="97.416016"/>
      <use xlink:href="#DejaVuSans-63" x="158.939453"/>
      <use xlink:href="#DejaVuSans-69" x="213.919922"/>
      <use xlink:href="#DejaVuSans-73" x="241.703125"/>
      <use xlink:href="#DejaVuSans-69" x="293.802734"/>
      <use xlink:href="#DejaVuSans-6f" x="321.585938"/>
      <use xlink:href="#DejaVuSans-6e" x="382.767578"/>
     </g>
    </g>
   </g>
   <g id="line2d_25">
    <path d="M 471.825966 206.558581 
L 467.943631 202.088328 
L 467.943631 201.939318 
L 467.258513 201.732841 
L 467.03014 200.985097 
L 466.801768 200.190255 
L 466.573395 199.926468 
L 465.431532 199.719661 
L 465.431532 199.370421 
L 464.974787 198.911133 
L 464.289669 198.649401 
L 463.832923 197.904902 
L 462.462688 196.760394 
L 462.462688 196.51627 
L 462.234315 196.356272 
L 462.234315 196.233568 
L 461.77757 196.157848 
L 461.320824 196.081874 
L 460.407334 195.639534 
L 458.580353 191.68608 
L 458.123607 191.643392 
L 458.123607 191.599401 
L 457.210117 189.681268 
L 456.068254 188.444071 
L 455.383136 188.440259 
L 455.383136 188.347856 
L 455.383136 188.301614 
L 454.698018 188.111955 
L 448.760329 182.954574 
L 447.846839 182.985886 
L 445.33474 180.24636 
L 445.106367 180.292264 
L 444.877994 180.233059 
L 444.649622 179.962778 
L 441.452405 177.26599 
L 440.995659 176.750927 
L 440.767287 176.630713 
L 438.940306 175.261121 
L 438.940306 175.204362 
L 437.341697 174.501348 
L 436.884952 174.421859 
L 434.14448 173.35332 
L 434.14448 173.176772 
L 428.206792 169.300049 
L 426.836556 169.018954 
L 426.608183 169.003375 
L 425.923065 168.00219 
L 425.694693 167.793467 
L 420.898867 165.924422 
L 411.078844 164.344496 
L 408.338372 163.321774 
L 408.109999 163.087238 
L 386.642971 152.090184 
L 386.414598 151.799037 
L 386.414598 151.541536 
L 386.414598 151.455549 
L 386.414598 150.938006 
L 385.501108 150.795214 
L 384.81599 150.774553 
L 384.81599 150.600255 
L 369.743396 142.259625 
L 369.515023 142.111975 
L 369.28665 141.562774 
L 369.058278 141.110792 
L 369.058278 140.807329 
L 368.601532 139.378832 
L 346.449386 130.019663 
L 341.425188 127.458595 
L 324.068868 118.396213 
L 310.366509 105.72384 
L 310.366509 105.204191 
L 303.743703 102.541018 
L 300.546486 102.315025 
L 300.318113 101.993534 
L 300.08974 101.483786 
L 300.08974 101.109383 
L 295.979033 101.05668 
L 278.851085 92.439971 
L 278.622712 92.044945 
L 274.740377 90.379658 
L 273.826887 88.251641 
L 245.280307 79.219548 
L 244.823561 78.434208 
L 244.366816 78.525109 
L 244.366816 78.230771 
L 239.799363 76.119327 
L 239.342618 76.208351 
L 239.342618 75.900155 
L 194.124835 52.985576 
L 193.896463 52.518361 
L 193.439717 51.574346 
L 192.982972 50.617333 
L 180.194104 46.359041 
L 179.280614 45.845943 
L 179.052241 45.862461 
L 178.367123 45.322684 
L 177.682005 45.369803 
L 176.996887 45.417488 
L 174.713161 45.580665 
L 173.79967 43.792581 
L 172.657807 43.85919 
L 168.318727 39.475496 
L 167.176864 39.498337 
L 163.066156 38.872714 
L 158.270331 38.946917 
L 66.007784 37.438125 
" clip-path="url(#pb618936017)" style="fill: none; stroke: #1f77b4; stroke-width: 1.5; stroke-linecap: square"/>
   </g>
   <g id="line2d_26">
    <path d="M 471.825966 310.858689 
L 464.282877 307.33264 
L 464.282877 306.952024 
L 464.282877 306.529175 
L 464.282877 304.904293 
L 464.282877 304.584875 
L 464.282877 304.221601 
L 462.774259 304.119717 
L 462.774259 303.706569 
L 462.774259 303.16254 
L 462.774259 302.645452 
L 462.774259 302.328822 
L 461.265641 301.083903 
L 459.757024 301.133498 
L 459.757024 301.065319 
L 459.757024 300.996921 
L 459.757024 300.928303 
L 458.248406 301.046575 
L 456.739788 300.680177 
L 456.739788 299.774015 
L 456.739788 299.749653 
L 456.739788 299.676405 
L 455.23117 298.045759 
L 453.722553 297.200932 
L 453.722553 296.474899 
L 453.722553 296.160864 
L 453.722553 296.103317 
L 453.722553 295.900804 
L 452.213935 291.899445 
L 452.213935 291.762073 
L 450.705317 290.301147 
L 450.705317 290.264582 
L 447.688081 289.94772 
L 447.688081 289.760481 
L 447.688081 288.333312 
L 447.688081 288.254014 
L 447.688081 288.174488 
L 447.688081 288.014752 
L 444.670846 287.484813 
L 440.144993 287.373782 
L 440.144993 287.037369 
L 440.144993 286.696916 
L 440.144993 286.611162 
L 440.144993 286.13487 
L 435.619139 284.402934 
L 435.619139 283.930264 
L 435.619139 283.834825 
L 434.110522 283.111811 
L 434.110522 283.062613 
L 434.110522 283.013336 
L 434.110522 282.914541 
L 432.601904 279.339518 
L 423.550197 278.208928 
L 417.515726 278.009878 
L 417.515726 277.766946 
L 406.955402 268.8091 
L 406.955402 268.483388 
L 406.955402 268.401517 
L 406.955402 268.319468 
L 403.938166 268.080363 
L 402.429548 267.832348 
L 396.395077 262.319552 
L 396.395077 262.022098 
L 396.395077 261.922463 
L 394.886459 261.896829 
L 394.886459 261.796429 
L 394.886459 261.29071 
L 387.34337 248.761253 
L 382.817517 242.43188 
L 382.817517 242.272115 
L 370.748575 235.559403 
L 361.696868 229.810543 
L 361.696868 229.59398 
L 352.645162 225.682122 
L 340.576219 222.803538 
L 337.558984 223.348978 
L 336.050366 222.963051 
L 334.541748 222.570263 
L 333.03313 220.512895 
L 326.998659 208.55131 
L 326.998659 207.858122 
L 326.998659 207.508855 
L 323.981424 207.330468 
L 317.946953 198.82331 
L 316.438335 196.351101 
L 293.809068 172.430309 
L 293.809068 169.198373 
L 293.809068 167.87119 
L 293.809068 167.2 
L 284.757362 156.333485 
L 284.757362 154.738682 
L 228.938504 79.092856 
L 227.429886 79.428781 
L 227.429886 77.280049 
L 203.292002 65.003756 
L 203.292002 59.31561 
L 201.783384 59.541151 
L 201.783384 56.580924 
L 200.274766 56.782427 
L 197.257531 57.198434 
L 195.748913 57.41322 
L 194.240295 51.203733 
L 186.697206 44.908486 
L 185.188588 41.266685 
L 66.007784 37.438125 
" clip-path="url(#pb618936017)" style="fill: none; stroke: #ff7f0e; stroke-width: 1.5; stroke-linecap: square"/>
   </g>
   <g id="line2d_27">
    <path d="M 471.825966 327.159124 
L 457.586731 326.230011 
L 457.586731 326.175346 
L 457.586731 326.138712 
L 457.586731 325.667539 
L 457.586731 325.33245 
L 457.586731 325.292208 
L 457.586731 325.231514 
L 457.586731 325.067692 
L 457.586731 324.448698 
L 457.586731 324.248157 
L 457.586731 323.739919 
L 457.586731 323.716186 
L 457.586731 323.668551 
L 457.586731 323.377908 
L 457.586731 322.874319 
L 457.586731 322.796622 
L 457.586731 321.986572 
L 457.586731 321.23204 
L 457.586731 321.141594 
L 457.586731 321.111283 
L 457.586731 321.019862 
L 457.586731 320.927698 
L 443.347497 319.312245 
L 443.347497 318.078214 
L 443.347497 318.037637 
L 443.347497 317.996931 
L 443.347497 317.791452 
L 443.347497 316.5318 
L 443.347497 316.440402 
L 443.347497 316.302146 
L 436.22788 316.31016 
L 436.22788 316.262897 
L 436.22788 316.120124 
L 436.22788 316.024114 
L 436.22788 315.87884 
L 436.22788 313.386133 
L 436.22788 313.270122 
L 436.22788 312.676501 
L 436.22788 309.691269 
L 421.988645 308.678886 
L 421.988645 308.108402 
L 421.988645 308.025384 
L 414.869028 298.51823 
L 414.869028 298.244262 
L 414.869028 297.966953 
L 414.869028 297.827027 
L 414.869028 297.686242 
L 407.749411 294.880155 
L 407.749411 294.717346 
L 407.749411 276.592 
L 407.749411 276.28406 
L 357.91209 275.474671 
L 350.792473 270.797963 
L 343.672856 265.136684 
L 336.553239 266.130766 
L 336.553239 265.610013 
L 336.553239 265.082223 
L 336.553239 264.547253 
L 329.433621 263.916313 
L 315.194387 255.128139 
L 315.194387 254.389849 
L 315.194387 253.639151 
L 308.07477 249.90595 
L 308.07477 240.617142 
L 258.237449 196.04989 
L 258.237449 190.580519 
L 258.237449 187.691039 
L 187.041277 126.771188 
L 179.92166 120.97034 
L 179.92166 98.695082 
L 179.92166 85.798881 
L 179.92166 55.454877 
L 66.007784 37.438125 
" clip-path="url(#pb618936017)" style="fill: none; stroke: #2ca02c; stroke-width: 1.5; stroke-linecap: square"/>
   </g>
   <g id="line2d_28">
    <path d="M 471.825966 197.736705 
L 461.879442 192.85491 
L 461.879442 192.480548 
L 461.879442 192.104323 
L 461.879442 190.194769 
L 459.890137 190.192816 
L 459.890137 189.411493 
L 459.890137 189.017841 
L 459.890137 187.019067 
L 455.911527 185.327613 
L 455.911527 183.638063 
L 453.922223 182.302551 
L 453.922223 181.865098 
L 451.932918 182.257562 
L 451.932918 180.033522 
L 449.943613 176.737138 
L 447.954308 177.131753 
L 439.997089 176.819898 
L 432.03987 171.904617 
L 422.093346 167.436813 
L 422.093346 166.868148 
L 420.104041 166.714171 
L 402.200297 160.817863 
L 398.221688 161.69601 
L 396.232383 160.833435 
L 392.253773 161.727604 
L 390.264469 157.437762 
L 390.264469 156.740065 
L 388.275164 156.484665 
L 386.285859 156.935599 
L 386.285859 155.509741 
L 384.296554 153.039776 
L 376.339335 150.279889 
L 376.339335 148.700762 
L 372.360725 143.008626 
L 370.37142 143.459782 
L 354.456982 143.672038 
L 350.478372 140.951039 
L 348.489068 135.625114 
L 344.510458 136.573781 
L 314.670886 114.467832 
L 306.713666 114.954645 
L 304.724362 115.436114 
L 302.735057 115.923602 
L 300.745752 116.417221 
L 296.767142 109.979259 
L 296.767142 108.431288 
L 264.938265 98.695082 
L 254.991741 99.209847 
L 253.002436 99.733336 
L 241.066608 98.695082 
L 237.087998 87.989983 
L 235.098693 85.958487 
L 227.141474 79.796659 
L 219.184255 81.679261 
L 215.205645 79.684303 
L 215.205645 73.471629 
L 211.227035 71.054748 
L 203.269816 69.259921 
L 195.312597 63.321346 
L 175.419549 48.18496 
L 169.451634 43.217083 
L 167.46233 43.328217 
L 167.46233 37.438125 
L 163.48372 37.438125 
L 159.50511 37.438125 
L 153.537196 37.438125 
L 147.569281 37.438125 
L 145.579977 37.438125 
L 66.007784 37.438125 
" clip-path="url(#pb618936017)" style="fill: none; stroke: #d62728; stroke-width: 1.5; stroke-linecap: square"/>
   </g>
   <g id="line2d_29">
    <path d="M 471.825966 332.017761 
L 471.825966 327.673054 
L 471.825966 327.241219 
L 471.825966 327.092064 
L 471.825966 325.437253 
L 471.825966 325.253478 
L 471.825966 324.874617 
L 438.007784 326.266266 
L 438.007784 326.083474 
L 438.007784 325.801994 
L 438.007784 325.412408 
L 438.007784 324.900942 
L 438.007784 323.426932 
L 438.007784 323.303926 
L 438.007784 323.17942 
L 438.007784 322.533398 
L 438.007784 321.557566 
L 438.007784 321.410775 
L 438.007784 320.487514 
L 438.007784 320.326157 
L 438.007784 319.996626 
L 438.007784 319.828354 
L 438.007784 319.657679 
L 438.007784 316.33159 
L 438.007784 314.678665 
L 438.007784 314.169117 
L 438.007784 313.907579 
L 438.007784 311.938642 
L 438.007784 311.327406 
L 438.007784 310.365163 
L 438.007784 310.031585 
L 438.007784 309.691269 
L 438.007784 309.344007 
L 438.007784 308.989586 
L 404.189602 311.818247 
L 404.189602 309.691269 
L 404.189602 309.308891 
L 404.189602 306.82113 
L 404.189602 303.422282 
L 404.189602 302.88494 
L 404.189602 282.465955 
L 404.189602 281.215813 
L 404.189602 278.555936 
L 404.189602 275.659626 
L 404.189602 272.493892 
L 404.189602 270.797963 
L 404.189602 269.019305 
L 404.189602 248.008916 
L 370.37142 241.627983 
L 370.37142 228.866117 
L 336.553239 221.208997 
L 336.553239 214.760896 
L 336.553239 207.59634 
L 336.553239 199.588895 
L 302.735057 209.723318 
L 268.916875 176.658483 
L 268.916875 159.95204 
L 268.916875 114.009322 
L 268.916875 81.193095 
L 268.916875 37.438125 
L 235.098693 37.438125 
L 66.007784 37.438125 
" clip-path="url(#pb618936017)" style="fill: none; stroke: #9467bd; stroke-width: 1.5; stroke-linecap: square"/>
   </g>
   <g id="line2d_30">
    <path d="M 471.825966 339.838125 
L 429.108263 337.238676 
L 429.108263 336.733863 
L 429.108263 336.51122 
L 407.749411 335.170457 
L 407.749411 335.064685 
L 407.749411 334.877142 
L 407.749411 334.845092 
L 407.749411 334.493992 
L 407.749411 333.680788 
L 407.749411 333.384185 
L 407.749411 333.184081 
L 407.749411 331.970978 
L 407.749411 331.942728 
L 407.749411 331.857158 
L 407.749411 331.253302 
L 407.749411 331.092612 
L 407.749411 331.02717 
L 407.749411 330.82671 
L 407.749411 330.478164 
L 407.749411 330.406182 
L 386.390559 330.44467 
L 386.390559 330.328534 
L 386.390559 330.249974 
L 386.390559 330.170488 
L 386.390559 326.707091 
L 386.390559 326.320367 
L 386.390559 325.197622 
L 386.390559 324.500017 
L 386.390559 322.648271 
L 386.390559 322.551153 
L 386.390559 322.354206 
L 386.390559 321.74075 
L 365.031708 323.10759 
L 365.031708 322.599823 
L 365.031708 322.389643 
L 365.031708 321.95648 
L 365.031708 318.93686 
L 365.031708 318.646965 
L 365.031708 318.350208 
L 365.031708 318.19918 
L 365.031708 315.512471 
L 365.031708 313.736989 
L 343.672856 314.44569 
L 343.672856 309.397893 
L 343.672856 309.099414 
L 343.672856 308.795699 
L 343.672856 308.486609 
L 343.672856 307.851721 
L 343.672856 307.193534 
L 343.672856 302.246847 
L 343.672856 301.364378 
L 343.672856 300.90891 
L 343.672856 286.841452 
L 343.672856 279.501908 
L 343.672856 278.449105 
L 343.672856 271.328326 
L 343.672856 268.596455 
L 322.314004 258.248088 
L 322.314004 256.212973 
L 322.314004 247.0014 
L 322.314004 244.387305 
L 322.314004 238.710985 
L 258.237449 248.669013 
L 258.237449 233.460389 
L 236.878597 199.588895 
L 236.878597 190.580519 
L 215.519746 200.790011 
L 194.160894 190.580519 
L 194.160894 176.658483 
L 194.160894 159.95204 
L 194.160894 114.009322 
L 172.802042 88.48559 
L 66.007784 37.438125 
" clip-path="url(#pb618936017)" style="fill: none; stroke: #8c564b; stroke-width: 1.5; stroke-linecap: square"/>
   </g>
   <g id="patch_3">
    <path d="M 45.716875 354.958125 
L 45.716875 22.318125 
" style="fill: none; stroke: #000000; stroke-width: 0.8; stroke-linejoin: miter; stroke-linecap: square"/>
   </g>
   <g id="patch_4">
    <path d="M 492.116875 354.958125 
L 492.116875 22.318125 
" style="fill: none; stroke: #000000; stroke-width: 0.8; stroke-linejoin: miter; stroke-linecap: square"/>
   </g>
   <g id="patch_5">
    <path d="M 45.716875 354.958125 
L 492.116875 354.958125 
" style="fill: none; stroke: #000000; stroke-width: 0.8; stroke-linejoin: miter; stroke-linecap: square"/>
   </g>
   <g id="patch_6">
    <path d="M 45.716875 22.318125 
L 492.116875 22.318125 
" style="fill: none; stroke: #000000; stroke-width: 0.8; stroke-linejoin: miter; stroke-linecap: square"/>
   </g>
   <g id="text_15">
    <!-- PR Curve: Random Forest Classifier -->
    <g transform="translate(163.14625 16.318125) scale(0.12 -0.12)">
     <defs>
      <path id="DejaVuSans-20" transform="scale(0.015625)"/>
      <path id="DejaVuSans-43" d="M 4122 4306 
L 4122 3641 
Q 3803 3938 3442 4084 
Q 3081 4231 2675 4231 
Q 1875 4231 1450 3742 
Q 1025 3253 1025 2328 
Q 1025 1406 1450 917 
Q 1875 428 2675 428 
Q 3081 428 3442 575 
Q 3803 722 4122 1019 
L 4122 359 
Q 3791 134 3420 21 
Q 3050 -91 2638 -91 
Q 1578 -91 968 557 
Q 359 1206 359 2328 
Q 359 3453 968 4101 
Q 1578 4750 2638 4750 
Q 3056 4750 3426 4639 
Q 3797 4528 4122 4306 
z
" transform="scale(0.015625)"/>
      <path id="DejaVuSans-75" d="M 544 1381 
L 544 3500 
L 1119 3500 
L 1119 1403 
Q 1119 906 1312 657 
Q 1506 409 1894 409 
Q 2359 409 2629 706 
Q 2900 1003 2900 1516 
L 2900 3500 
L 3475 3500 
L 3475 0 
L 2900 0 
L 2900 538 
Q 2691 219 2414 64 
Q 2138 -91 1772 -91 
Q 1169 -91 856 284 
Q 544 659 544 1381 
z
M 1991 3584 
L 1991 3584 
z
" transform="scale(0.015625)"/>
      <path id="DejaVuSans-76" d="M 191 3500 
L 800 3500 
L 1894 563 
L 2988 3500 
L 3597 3500 
L 2284 0 
L 1503 0 
L 191 3500 
z
" transform="scale(0.015625)"/>
      <path id="DejaVuSans-3a" d="M 750 794 
L 1409 794 
L 1409 0 
L 750 0 
L 750 794 
z
M 750 3309 
L 1409 3309 
L 1409 2516 
L 750 2516 
L 750 3309 
z
" transform="scale(0.015625)"/>
      <path id="DejaVuSans-64" d="M 2906 2969 
L 2906 4863 
L 3481 4863 
L 3481 0 
L 2906 0 
L 2906 525 
Q 2725 213 2448 61 
Q 2172 -91 1784 -91 
Q 1150 -91 751 415 
Q 353 922 353 1747 
Q 353 2572 751 3078 
Q 1150 3584 1784 3584 
Q 2172 3584 2448 3432 
Q 2725 3281 2906 2969 
z
M 947 1747 
Q 947 1113 1208 752 
Q 1469 391 1925 391 
Q 2381 391 2643 752 
Q 2906 1113 2906 1747 
Q 2906 2381 2643 2742 
Q 2381 3103 1925 3103 
Q 1469 3103 1208 2742 
Q 947 2381 947 1747 
z
" transform="scale(0.015625)"/>
      <path id="DejaVuSans-6d" d="M 3328 2828 
Q 3544 3216 3844 3400 
Q 4144 3584 4550 3584 
Q 5097 3584 5394 3201 
Q 5691 2819 5691 2113 
L 5691 0 
L 5113 0 
L 5113 2094 
Q 5113 2597 4934 2840 
Q 4756 3084 4391 3084 
Q 3944 3084 3684 2787 
Q 3425 2491 3425 1978 
L 3425 0 
L 2847 0 
L 2847 2094 
Q 2847 2600 2669 2842 
Q 2491 3084 2119 3084 
Q 1678 3084 1418 2786 
Q 1159 2488 1159 1978 
L 1159 0 
L 581 0 
L 581 3500 
L 1159 3500 
L 1159 2956 
Q 1356 3278 1631 3431 
Q 1906 3584 2284 3584 
Q 2666 3584 2933 3390 
Q 3200 3197 3328 2828 
z
" transform="scale(0.015625)"/>
      <path id="DejaVuSans-46" d="M 628 4666 
L 3309 4666 
L 3309 4134 
L 1259 4134 
L 1259 2759 
L 3109 2759 
L 3109 2228 
L 1259 2228 
L 1259 0 
L 628 0 
L 628 4666 
z
" transform="scale(0.015625)"/>
      <path id="DejaVuSans-74" d="M 1172 4494 
L 1172 3500 
L 2356 3500 
L 2356 3053 
L 1172 3053 
L 1172 1153 
Q 1172 725 1289 603 
Q 1406 481 1766 481 
L 2356 481 
L 2356 0 
L 1766 0 
Q 1100 0 847 248 
Q 594 497 594 1153 
L 594 3053 
L 172 3053 
L 172 3500 
L 594 3500 
L 594 4494 
L 1172 4494 
z
" transform="scale(0.015625)"/>
      <path id="DejaVuSans-66" d="M 2375 4863 
L 2375 4384 
L 1825 4384 
Q 1516 4384 1395 4259 
Q 1275 4134 1275 3809 
L 1275 3500 
L 2222 3500 
L 2222 3053 
L 1275 3053 
L 1275 0 
L 697 0 
L 697 3053 
L 147 3053 
L 147 3500 
L 697 3500 
L 697 3744 
Q 697 4328 969 4595 
Q 1241 4863 1831 4863 
L 2375 4863 
z
" transform="scale(0.015625)"/>
     </defs>
     <use xlink:href="#DejaVuSans-50"/>
     <use xlink:href="#DejaVuSans-52" x="60.302734"/>
     <use xlink:href="#DejaVuSans-20" x="129.785156"/>
     <use xlink:href="#DejaVuSans-43" x="161.572266"/>
     <use xlink:href="#DejaVuSans-75" x="231.396484"/>
     <use xlink:href="#DejaVuSans-72" x="294.775391"/>
     <use xlink:href="#DejaVuSans-76" x="335.888672"/>
     <use xlink:href="#DejaVuSans-65" x="395.068359"/>
     <use xlink:href="#DejaVuSans-3a" x="456.591797"/>
     <use xlink:href="#DejaVuSans-20" x="490.283203"/>
     <use xlink:href="#DejaVuSans-52" x="522.070312"/>
     <use xlink:href="#DejaVuSans-61" x="589.302734"/>
     <use xlink:href="#DejaVuSans-6e" x="650.582031"/>
     <use xlink:href="#DejaVuSans-64" x="713.960938"/>
     <use xlink:href="#DejaVuSans-6f" x="777.4375"/>
     <use xlink:href="#DejaVuSans-6d" x="838.619141"/>
     <use xlink:href="#DejaVuSans-20" x="936.03125"/>
     <use xlink:href="#DejaVuSans-46" x="967.818359"/>
     <use xlink:href="#DejaVuSans-6f" x="1021.712891"/>
     <use xlink:href="#DejaVuSans-72" x="1082.894531"/>
     <use xlink:href="#DejaVuSans-65" x="1121.757812"/>
     <use xlink:href="#DejaVuSans-73" x="1183.28125"/>
     <use xlink:href="#DejaVuSans-74" x="1235.380859"/>
     <use xlink:href="#DejaVuSans-20" x="1274.589844"/>
     <use xlink:href="#DejaVuSans-43" x="1306.376953"/>
     <use xlink:href="#DejaVuSans-6c" x="1376.201172"/>
     <use xlink:href="#DejaVuSans-61" x="1403.984375"/>
     <use xlink:href="#DejaVuSans-73" x="1465.263672"/>
     <use xlink:href="#DejaVuSans-73" x="1517.363281"/>
     <use xlink:href="#DejaVuSans-69" x="1569.462891"/>
     <use xlink:href="#DejaVuSans-66" x="1597.246094"/>
     <use xlink:href="#DejaVuSans-69" x="1632.451172"/>
     <use xlink:href="#DejaVuSans-65" x="1660.234375"/>
     <use xlink:href="#DejaVuSans-72" x="1721.757812"/>
    </g>
   </g>
   <g id="legend_1">
    <g id="patch_7">
     <path d="M 52.716875 349.958125 
L 401.13875 349.958125 
Q 403.13875 349.958125 403.13875 347.958125 
L 403.13875 260.889375 
Q 403.13875 258.889375 401.13875 258.889375 
L 52.716875 258.889375 
Q 50.716875 258.889375 50.716875 260.889375 
L 50.716875 347.958125 
Q 50.716875 349.958125 52.716875 349.958125 
z
" style="fill: #ffffff; opacity: 0.8; stroke: #cccccc; stroke-linejoin: miter"/>
    </g>
    <g id="line2d_31">
     <path d="M 54.716875 266.987813 
L 64.716875 266.987813 
L 74.716875 266.987813 
" style="fill: none; stroke: #1f77b4; stroke-width: 1.5; stroke-linecap: square"/>
    </g>
    <g id="text_16">
     <!-- AP for Husband = 0.80, Count: 3,968, Pos: 1,777, Neg: 2,191 -->
     <g transform="translate(82.716875 270.487813) scale(0.1 -0.1)">
      <defs>
       <path id="DejaVuSans-41" d="M 2188 4044 
L 1331 1722 
L 3047 1722 
L 2188 4044 
z
M 1831 4666 
L 2547 4666 
L 4325 0 
L 3669 0 
L 3244 1197 
L 1141 1197 
L 716 0 
L 50 0 
L 1831 4666 
z
" transform="scale(0.015625)"/>
       <path id="DejaVuSans-48" d="M 628 4666 
L 1259 4666 
L 1259 2753 
L 3553 2753 
L 3553 4666 
L 4184 4666 
L 4184 0 
L 3553 0 
L 3553 2222 
L 1259 2222 
L 1259 0 
L 628 0 
L 628 4666 
z
" transform="scale(0.015625)"/>
       <path id="DejaVuSans-62" d="M 3116 1747 
Q 3116 2381 2855 2742 
Q 2594 3103 2138 3103 
Q 1681 3103 1420 2742 
Q 1159 2381 1159 1747 
Q 1159 1113 1420 752 
Q 1681 391 2138 391 
Q 2594 391 2855 752 
Q 3116 1113 3116 1747 
z
M 1159 2969 
Q 1341 3281 1617 3432 
Q 1894 3584 2278 3584 
Q 2916 3584 3314 3078 
Q 3713 2572 3713 1747 
Q 3713 922 3314 415 
Q 2916 -91 2278 -91 
Q 1894 -91 1617 61 
Q 1341 213 1159 525 
L 1159 0 
L 581 0 
L 581 4863 
L 1159 4863 
L 1159 2969 
z
" transform="scale(0.015625)"/>
       <path id="DejaVuSans-3d" d="M 678 2906 
L 4684 2906 
L 4684 2381 
L 678 2381 
L 678 2906 
z
M 678 1631 
L 4684 1631 
L 4684 1100 
L 678 1100 
L 678 1631 
z
" transform="scale(0.015625)"/>
       <path id="DejaVuSans-2c" d="M 750 794 
L 1409 794 
L 1409 256 
L 897 -744 
L 494 -744 
L 750 256 
L 750 794 
z
" transform="scale(0.015625)"/>
       <path id="DejaVuSans-33" d="M 2597 2516 
Q 3050 2419 3304 2112 
Q 3559 1806 3559 1356 
Q 3559 666 3084 287 
Q 2609 -91 1734 -91 
Q 1441 -91 1130 -33 
Q 819 25 488 141 
L 488 750 
Q 750 597 1062 519 
Q 1375 441 1716 441 
Q 2309 441 2620 675 
Q 2931 909 2931 1356 
Q 2931 1769 2642 2001 
Q 2353 2234 1838 2234 
L 1294 2234 
L 1294 2753 
L 1863 2753 
Q 2328 2753 2575 2939 
Q 2822 3125 2822 3475 
Q 2822 3834 2567 4026 
Q 2313 4219 1838 4219 
Q 1578 4219 1281 4162 
Q 984 4106 628 3988 
L 628 4550 
Q 988 4650 1302 4700 
Q 1616 4750 1894 4750 
Q 2613 4750 3031 4423 
Q 3450 4097 3450 3541 
Q 3450 3153 3228 2886 
Q 3006 2619 2597 2516 
z
" transform="scale(0.015625)"/>
       <path id="DejaVuSans-39" d="M 703 97 
L 703 672 
Q 941 559 1184 500 
Q 1428 441 1663 441 
Q 2288 441 2617 861 
Q 2947 1281 2994 2138 
Q 2813 1869 2534 1725 
Q 2256 1581 1919 1581 
Q 1219 1581 811 2004 
Q 403 2428 403 3163 
Q 403 3881 828 4315 
Q 1253 4750 1959 4750 
Q 2769 4750 3195 4129 
Q 3622 3509 3622 2328 
Q 3622 1225 3098 567 
Q 2575 -91 1691 -91 
Q 1453 -91 1209 -44 
Q 966 3 703 97 
z
M 1959 2075 
Q 2384 2075 2632 2365 
Q 2881 2656 2881 3163 
Q 2881 3666 2632 3958 
Q 2384 4250 1959 4250 
Q 1534 4250 1286 3958 
Q 1038 3666 1038 3163 
Q 1038 2656 1286 2365 
Q 1534 2075 1959 2075 
z
" transform="scale(0.015625)"/>
       <path id="DejaVuSans-37" d="M 525 4666 
L 3525 4666 
L 3525 4397 
L 1831 0 
L 1172 0 
L 2766 4134 
L 525 4134 
L 525 4666 
z
" transform="scale(0.015625)"/>
       <path id="DejaVuSans-4e" d="M 628 4666 
L 1478 4666 
L 3547 763 
L 3547 4666 
L 4159 4666 
L 4159 0 
L 3309 0 
L 1241 3903 
L 1241 0 
L 628 0 
L 628 4666 
z
" transform="scale(0.015625)"/>
       <path id="DejaVuSans-67" d="M 2906 1791 
Q 2906 2416 2648 2759 
Q 2391 3103 1925 3103 
Q 1463 3103 1205 2759 
Q 947 2416 947 1791 
Q 947 1169 1205 825 
Q 1463 481 1925 481 
Q 2391 481 2648 825 
Q 2906 1169 2906 1791 
z
M 3481 434 
Q 3481 -459 3084 -895 
Q 2688 -1331 1869 -1331 
Q 1566 -1331 1297 -1286 
Q 1028 -1241 775 -1147 
L 775 -588 
Q 1028 -725 1275 -790 
Q 1522 -856 1778 -856 
Q 2344 -856 2625 -561 
Q 2906 -266 2906 331 
L 2906 616 
Q 2728 306 2450 153 
Q 2172 0 1784 0 
Q 1141 0 747 490 
Q 353 981 353 1791 
Q 353 2603 747 3093 
Q 1141 3584 1784 3584 
Q 2172 3584 2450 3431 
Q 2728 3278 2906 2969 
L 2906 3500 
L 3481 3500 
L 3481 434 
z
" transform="scale(0.015625)"/>
      </defs>
      <use xlink:href="#DejaVuSans-41"/>
      <use xlink:href="#DejaVuSans-50" x="68.408203"/>
      <use xlink:href="#DejaVuSans-20" x="128.710938"/>
      <use xlink:href="#DejaVuSans-66" x="160.498047"/>
      <use xlink:href="#DejaVuSans-6f" x="195.703125"/>
      <use xlink:href="#DejaVuSans-72" x="256.884766"/>
      <use xlink:href="#DejaVuSans-20" x="297.998047"/>
      <use xlink:href="#DejaVuSans-48" x="329.785156"/>
      <use xlink:href="#DejaVuSans-75" x="404.980469"/>
      <use xlink:href="#DejaVuSans-73" x="468.359375"/>
      <use xlink:href="#DejaVuSans-62" x="520.458984"/>
      <use xlink:href="#DejaVuSans-61" x="583.935547"/>
      <use xlink:href="#DejaVuSans-6e" x="645.214844"/>
      <use xlink:href="#DejaVuSans-64" x="708.59375"/>
      <use xlink:href="#DejaVuSans-20" x="772.070312"/>
      <use xlink:href="#DejaVuSans-3d" x="803.857422"/>
      <use xlink:href="#DejaVuSans-20" x="887.646484"/>
      <use xlink:href="#DejaVuSans-30" x="919.433594"/>
      <use xlink:href="#DejaVuSans-2e" x="983.056641"/>
      <use xlink:href="#DejaVuSans-38" x="1014.84375"/>
      <use xlink:href="#DejaVuSans-30" x="1078.466797"/>
      <use xlink:href="#DejaVuSans-2c" x="1142.089844"/>
      <use xlink:href="#DejaVuSans-20" x="1173.876953"/>
      <use xlink:href="#DejaVuSans-43" x="1205.664062"/>
      <use xlink:href="#DejaVuSans-6f" x="1275.488281"/>
      <use xlink:href="#DejaVuSans-75" x="1336.669922"/>
      <use xlink:href="#DejaVuSans-6e" x="1400.048828"/>
      <use xlink:href="#DejaVuSans-74" x="1463.427734"/>
      <use xlink:href="#DejaVuSans-3a" x="1502.636719"/>
      <use xlink:href="#DejaVuSans-20" x="1536.328125"/>
      <use xlink:href="#DejaVuSans-33" x="1568.115234"/>
      <use xlink:href="#DejaVuSans-2c" x="1631.738281"/>
      <use xlink:href="#DejaVuSans-39" x="1663.525391"/>
      <use xlink:href="#DejaVuSans-36" x="1727.148438"/>
      <use xlink:href="#DejaVuSans-38" x="1790.771484"/>
      <use xlink:href="#DejaVuSans-2c" x="1854.394531"/>
      <use xlink:href="#DejaVuSans-20" x="1886.181641"/>
      <use xlink:href="#DejaVuSans-50" x="1917.96875"/>
      <use xlink:href="#DejaVuSans-6f" x="1974.646484"/>
      <use xlink:href="#DejaVuSans-73" x="2035.828125"/>
      <use xlink:href="#DejaVuSans-3a" x="2087.927734"/>
      <use xlink:href="#DejaVuSans-20" x="2121.619141"/>
      <use xlink:href="#DejaVuSans-31" x="2153.40625"/>
      <use xlink:href="#DejaVuSans-2c" x="2217.029297"/>
      <use xlink:href="#DejaVuSans-37" x="2248.816406"/>
      <use xlink:href="#DejaVuSans-37" x="2312.439453"/>
      <use xlink:href="#DejaVuSans-37" x="2376.0625"/>
      <use xlink:href="#DejaVuSans-2c" x="2439.685547"/>
      <use xlink:href="#DejaVuSans-20" x="2471.472656"/>
      <use xlink:href="#DejaVuSans-4e" x="2503.259766"/>
      <use xlink:href="#DejaVuSans-65" x="2578.064453"/>
      <use xlink:href="#DejaVuSans-67" x="2639.587891"/>
      <use xlink:href="#DejaVuSans-3a" x="2703.064453"/>
      <use xlink:href="#DejaVuSans-20" x="2736.755859"/>
      <use xlink:href="#DejaVuSans-32" x="2768.542969"/>
      <use xlink:href="#DejaVuSans-2c" x="2832.166016"/>
      <use xlink:href="#DejaVuSans-31" x="2863.953125"/>
      <use xlink:href="#DejaVuSans-39" x="2927.576172"/>
      <use xlink:href="#DejaVuSans-31" x="2991.199219"/>
     </g>
    </g>
    <g id="line2d_32">
     <path d="M 54.716875 281.665937 
L 64.716875 281.665937 
L 74.716875 281.665937 
" style="fill: none; stroke: #ff7f0e; stroke-width: 1.5; stroke-linecap: square"/>
    </g>
    <g id="text_17">
     <!-- AP for Not-in-family = 0.62, Count: 2,507, Pos: 269, Neg: 2,238 -->
     <g transform="translate(82.716875 285.165937) scale(0.1 -0.1)">
      <defs>
       <path id="DejaVuSans-2d" d="M 313 2009 
L 1997 2009 
L 1997 1497 
L 313 1497 
L 313 2009 
z
" transform="scale(0.015625)"/>
       <path id="DejaVuSans-79" d="M 2059 -325 
Q 1816 -950 1584 -1140 
Q 1353 -1331 966 -1331 
L 506 -1331 
L 506 -850 
L 844 -850 
Q 1081 -850 1212 -737 
Q 1344 -625 1503 -206 
L 1606 56 
L 191 3500 
L 800 3500 
L 1894 763 
L 2988 3500 
L 3597 3500 
L 2059 -325 
z
" transform="scale(0.015625)"/>
       <path id="DejaVuSans-35" d="M 691 4666 
L 3169 4666 
L 3169 4134 
L 1269 4134 
L 1269 2991 
Q 1406 3038 1543 3061 
Q 1681 3084 1819 3084 
Q 2600 3084 3056 2656 
Q 3513 2228 3513 1497 
Q 3513 744 3044 326 
Q 2575 -91 1722 -91 
Q 1428 -91 1123 -41 
Q 819 9 494 109 
L 494 744 
Q 775 591 1075 516 
Q 1375 441 1709 441 
Q 2250 441 2565 725 
Q 2881 1009 2881 1497 
Q 2881 1984 2565 2268 
Q 2250 2553 1709 2553 
Q 1456 2553 1204 2497 
Q 953 2441 691 2322 
L 691 4666 
z
" transform="scale(0.015625)"/>
      </defs>
      <use xlink:href="#DejaVuSans-41"/>
      <use xlink:href="#DejaVuSans-50" x="68.408203"/>
      <use xlink:href="#DejaVuSans-20" x="128.710938"/>
      <use xlink:href="#DejaVuSans-66" x="160.498047"/>
      <use xlink:href="#DejaVuSans-6f" x="195.703125"/>
      <use xlink:href="#DejaVuSans-72" x="256.884766"/>
      <use xlink:href="#DejaVuSans-20" x="297.998047"/>
      <use xlink:href="#DejaVuSans-4e" x="329.785156"/>
      <use xlink:href="#DejaVuSans-6f" x="404.589844"/>
      <use xlink:href="#DejaVuSans-74" x="465.771484"/>
      <use xlink:href="#DejaVuSans-2d" x="504.980469"/>
      <use xlink:href="#DejaVuSans-69" x="541.064453"/>
      <use xlink:href="#DejaVuSans-6e" x="568.847656"/>
      <use xlink:href="#DejaVuSans-2d" x="632.226562"/>
      <use xlink:href="#DejaVuSans-66" x="668.310547"/>
      <use xlink:href="#DejaVuSans-61" x="703.515625"/>
      <use xlink:href="#DejaVuSans-6d" x="764.794922"/>
      <use xlink:href="#DejaVuSans-69" x="862.207031"/>
      <use xlink:href="#DejaVuSans-6c" x="889.990234"/>
      <use xlink:href="#DejaVuSans-79" x="917.773438"/>
      <use xlink:href="#DejaVuSans-20" x="976.953125"/>
      <use xlink:href="#DejaVuSans-3d" x="1008.740234"/>
      <use xlink:href="#DejaVuSans-20" x="1092.529297"/>
      <use xlink:href="#DejaVuSans-30" x="1124.316406"/>
      <use xlink:href="#DejaVuSans-2e" x="1187.939453"/>
      <use xlink:href="#DejaVuSans-36" x="1219.726562"/>
      <use xlink:href="#DejaVuSans-32" x="1283.349609"/>
      <use xlink:href="#DejaVuSans-2c" x="1346.972656"/>
      <use xlink:href="#DejaVuSans-20" x="1378.759766"/>
      <use xlink:href="#DejaVuSans-43" x="1410.546875"/>
      <use xlink:href="#DejaVuSans-6f" x="1480.371094"/>
      <use xlink:href="#DejaVuSans-75" x="1541.552734"/>
      <use xlink:href="#DejaVuSans-6e" x="1604.931641"/>
      <use xlink:href="#DejaVuSans-74" x="1668.310547"/>
      <use xlink:href="#DejaVuSans-3a" x="1707.519531"/>
      <use xlink:href="#DejaVuSans-20" x="1741.210938"/>
      <use xlink:href="#DejaVuSans-32" x="1772.998047"/>
      <use xlink:href="#DejaVuSans-2c" x="1836.621094"/>
      <use xlink:href="#DejaVuSans-35" x="1868.408203"/>
      <use xlink:href="#DejaVuSans-30" x="1932.03125"/>
      <use xlink:href="#DejaVuSans-37" x="1995.654297"/>
      <use xlink:href="#DejaVuSans-2c" x="2059.277344"/>
      <use xlink:href="#DejaVuSans-20" x="2091.064453"/>
      <use xlink:href="#DejaVuSans-50" x="2122.851562"/>
      <use xlink:href="#DejaVuSans-6f" x="2179.529297"/>
      <use xlink:href="#DejaVuSans-73" x="2240.710938"/>
      <use xlink:href="#DejaVuSans-3a" x="2292.810547"/>
      <use xlink:href="#DejaVuSans-20" x="2326.501953"/>
      <use xlink:href="#DejaVuSans-32" x="2358.289062"/>
      <use xlink:href="#DejaVuSans-36" x="2421.912109"/>
      <use xlink:href="#DejaVuSans-39" x="2485.535156"/>
      <use xlink:href="#DejaVuSans-2c" x="2549.158203"/>
      <use xlink:href="#DejaVuSans-20" x="2580.945312"/>
      <use xlink:href="#DejaVuSans-4e" x="2612.732422"/>
      <use xlink:href="#DejaVuSans-65" x="2687.537109"/>
      <use xlink:href="#DejaVuSans-67" x="2749.060547"/>
      <use xlink:href="#DejaVuSans-3a" x="2812.537109"/>
      <use xlink:href="#DejaVuSans-20" x="2846.228516"/>
      <use xlink:href="#DejaVuSans-32" x="2878.015625"/>
      <use xlink:href="#DejaVuSans-2c" x="2941.638672"/>
      <use xlink:href="#DejaVuSans-32" x="2973.425781"/>
      <use xlink:href="#DejaVuSans-33" x="3037.048828"/>
      <use xlink:href="#DejaVuSans-38" x="3100.671875"/>
     </g>
    </g>
    <g id="line2d_33">
     <path d="M 54.716875 296.344063 
L 64.716875 296.344063 
L 74.716875 296.344063 
" style="fill: none; stroke: #2ca02c; stroke-width: 1.5; stroke-linecap: square"/>
    </g>
    <g id="text_18">
     <!-- AP for Unmarried = 0.48, Count: 1,054, Pos: 57, Neg: 997 -->
     <g transform="translate(82.716875 299.844063) scale(0.1 -0.1)">
      <defs>
       <path id="DejaVuSans-55" d="M 556 4666 
L 1191 4666 
L 1191 1831 
Q 1191 1081 1462 751 
Q 1734 422 2344 422 
Q 2950 422 3222 751 
Q 3494 1081 3494 1831 
L 3494 4666 
L 4128 4666 
L 4128 1753 
Q 4128 841 3676 375 
Q 3225 -91 2344 -91 
Q 1459 -91 1007 375 
Q 556 841 556 1753 
L 556 4666 
z
" transform="scale(0.015625)"/>
      </defs>
      <use xlink:href="#DejaVuSans-41"/>
      <use xlink:href="#DejaVuSans-50" x="68.408203"/>
      <use xlink:href="#DejaVuSans-20" x="128.710938"/>
      <use xlink:href="#DejaVuSans-66" x="160.498047"/>
      <use xlink:href="#DejaVuSans-6f" x="195.703125"/>
      <use xlink:href="#DejaVuSans-72" x="256.884766"/>
      <use xlink:href="#DejaVuSans-20" x="297.998047"/>
      <use xlink:href="#DejaVuSans-55" x="329.785156"/>
      <use xlink:href="#DejaVuSans-6e" x="402.978516"/>
      <use xlink:href="#DejaVuSans-6d" x="466.357422"/>
      <use xlink:href="#DejaVuSans-61" x="563.769531"/>
      <use xlink:href="#DejaVuSans-72" x="625.048828"/>
      <use xlink:href="#DejaVuSans-72" x="664.412109"/>
      <use xlink:href="#DejaVuSans-69" x="705.525391"/>
      <use xlink:href="#DejaVuSans-65" x="733.308594"/>
      <use xlink:href="#DejaVuSans-64" x="794.832031"/>
      <use xlink:href="#DejaVuSans-20" x="858.308594"/>
      <use xlink:href="#DejaVuSans-3d" x="890.095703"/>
      <use xlink:href="#DejaVuSans-20" x="973.884766"/>
      <use xlink:href="#DejaVuSans-30" x="1005.671875"/>
      <use xlink:href="#DejaVuSans-2e" x="1069.294922"/>
      <use xlink:href="#DejaVuSans-34" x="1101.082031"/>
      <use xlink:href="#DejaVuSans-38" x="1164.705078"/>
      <use xlink:href="#DejaVuSans-2c" x="1228.328125"/>
      <use xlink:href="#DejaVuSans-20" x="1260.115234"/>
      <use xlink:href="#DejaVuSans-43" x="1291.902344"/>
      <use xlink:href="#DejaVuSans-6f" x="1361.726562"/>
      <use xlink:href="#DejaVuSans-75" x="1422.908203"/>
      <use xlink:href="#DejaVuSans-6e" x="1486.287109"/>
      <use xlink:href="#DejaVuSans-74" x="1549.666016"/>
      <use xlink:href="#DejaVuSans-3a" x="1588.875"/>
      <use xlink:href="#DejaVuSans-20" x="1622.566406"/>
      <use xlink:href="#DejaVuSans-31" x="1654.353516"/>
      <use xlink:href="#DejaVuSans-2c" x="1717.976562"/>
      <use xlink:href="#DejaVuSans-30" x="1749.763672"/>
      <use xlink:href="#DejaVuSans-35" x="1813.386719"/>
      <use xlink:href="#DejaVuSans-34" x="1877.009766"/>
      <use xlink:href="#DejaVuSans-2c" x="1940.632812"/>
      <use xlink:href="#DejaVuSans-20" x="1972.419922"/>
      <use xlink:href="#DejaVuSans-50" x="2004.207031"/>
      <use xlink:href="#DejaVuSans-6f" x="2060.884766"/>
      <use xlink:href="#DejaVuSans-73" x="2122.066406"/>
      <use xlink:href="#DejaVuSans-3a" x="2174.166016"/>
      <use xlink:href="#DejaVuSans-20" x="2207.857422"/>
      <use xlink:href="#DejaVuSans-35" x="2239.644531"/>
      <use xlink:href="#DejaVuSans-37" x="2303.267578"/>
      <use xlink:href="#DejaVuSans-2c" x="2366.890625"/>
      <use xlink:href="#DejaVuSans-20" x="2398.677734"/>
      <use xlink:href="#DejaVuSans-4e" x="2430.464844"/>
      <use xlink:href="#DejaVuSans-65" x="2505.269531"/>
      <use xlink:href="#DejaVuSans-67" x="2566.792969"/>
      <use xlink:href="#DejaVuSans-3a" x="2630.269531"/>
      <use xlink:href="#DejaVuSans-20" x="2663.960938"/>
      <use xlink:href="#DejaVuSans-39" x="2695.748047"/>
      <use xlink:href="#DejaVuSans-39" x="2759.371094"/>
      <use xlink:href="#DejaVuSans-37" x="2822.994141"/>
     </g>
    </g>
    <g id="line2d_34">
     <path d="M 54.716875 311.022187 
L 64.716875 311.022187 
L 74.716875 311.022187 
" style="fill: none; stroke: #d62728; stroke-width: 1.5; stroke-linecap: square"/>
    </g>
    <g id="text_19">
     <!-- AP for Wife = 0.78, Count: 428, Pos: 204, Neg: 224 -->
     <g transform="translate(82.716875 314.522187) scale(0.1 -0.1)">
      <defs>
       <path id="DejaVuSans-57" d="M 213 4666 
L 850 4666 
L 1831 722 
L 2809 4666 
L 3519 4666 
L 4500 722 
L 5478 4666 
L 6119 4666 
L 4947 0 
L 4153 0 
L 3169 4050 
L 2175 0 
L 1381 0 
L 213 4666 
z
" transform="scale(0.015625)"/>
      </defs>
      <use xlink:href="#DejaVuSans-41"/>
      <use xlink:href="#DejaVuSans-50" x="68.408203"/>
      <use xlink:href="#DejaVuSans-20" x="128.710938"/>
      <use xlink:href="#DejaVuSans-66" x="160.498047"/>
      <use xlink:href="#DejaVuSans-6f" x="195.703125"/>
      <use xlink:href="#DejaVuSans-72" x="256.884766"/>
      <use xlink:href="#DejaVuSans-20" x="297.998047"/>
      <use xlink:href="#DejaVuSans-57" x="329.785156"/>
      <use xlink:href="#DejaVuSans-69" x="426.412109"/>
      <use xlink:href="#DejaVuSans-66" x="454.195312"/>
      <use xlink:href="#DejaVuSans-65" x="489.400391"/>
      <use xlink:href="#DejaVuSans-20" x="550.923828"/>
      <use xlink:href="#DejaVuSans-3d" x="582.710938"/>
      <use xlink:href="#DejaVuSans-20" x="666.5"/>
      <use xlink:href="#DejaVuSans-30" x="698.287109"/>
      <use xlink:href="#DejaVuSans-2e" x="761.910156"/>
      <use xlink:href="#DejaVuSans-37" x="793.697266"/>
      <use xlink:href="#DejaVuSans-38" x="857.320312"/>
      <use xlink:href="#DejaVuSans-2c" x="920.943359"/>
      <use xlink:href="#DejaVuSans-20" x="952.730469"/>
      <use xlink:href="#DejaVuSans-43" x="984.517578"/>
      <use xlink:href="#DejaVuSans-6f" x="1054.341797"/>
      <use xlink:href="#DejaVuSans-75" x="1115.523438"/>
      <use xlink:href="#DejaVuSans-6e" x="1178.902344"/>
      <use xlink:href="#DejaVuSans-74" x="1242.28125"/>
      <use xlink:href="#DejaVuSans-3a" x="1281.490234"/>
      <use xlink:href="#DejaVuSans-20" x="1315.181641"/>
      <use xlink:href="#DejaVuSans-34" x="1346.96875"/>
      <use xlink:href="#DejaVuSans-32" x="1410.591797"/>
      <use xlink:href="#DejaVuSans-38" x="1474.214844"/>
      <use xlink:href="#DejaVuSans-2c" x="1537.837891"/>
      <use xlink:href="#DejaVuSans-20" x="1569.625"/>
      <use xlink:href="#DejaVuSans-50" x="1601.412109"/>
      <use xlink:href="#DejaVuSans-6f" x="1658.089844"/>
      <use xlink:href="#DejaVuSans-73" x="1719.271484"/>
      <use xlink:href="#DejaVuSans-3a" x="1771.371094"/>
      <use xlink:href="#DejaVuSans-20" x="1805.0625"/>
      <use xlink:href="#DejaVuSans-32" x="1836.849609"/>
      <use xlink:href="#DejaVuSans-30" x="1900.472656"/>
      <use xlink:href="#DejaVuSans-34" x="1964.095703"/>
      <use xlink:href="#DejaVuSans-2c" x="2027.71875"/>
      <use xlink:href="#DejaVuSans-20" x="2059.505859"/>
      <use xlink:href="#DejaVuSans-4e" x="2091.292969"/>
      <use xlink:href="#DejaVuSans-65" x="2166.097656"/>
      <use xlink:href="#DejaVuSans-67" x="2227.621094"/>
      <use xlink:href="#DejaVuSans-3a" x="2291.097656"/>
      <use xlink:href="#DejaVuSans-20" x="2324.789062"/>
      <use xlink:href="#DejaVuSans-32" x="2356.576172"/>
      <use xlink:href="#DejaVuSans-32" x="2420.199219"/>
      <use xlink:href="#DejaVuSans-34" x="2483.822266"/>
     </g>
    </g>
    <g id="line2d_35">
     <path d="M 54.716875 325.700312 
L 64.716875 325.700312 
L 74.716875 325.700312 
" style="fill: none; stroke: #9467bd; stroke-width: 1.5; stroke-linecap: square"/>
    </g>
    <g id="text_20">
     <!-- AP for Other-relative = 0.65, Count: 314, Pos: 12, Neg: 302 -->
     <g transform="translate(82.716875 329.200312) scale(0.1 -0.1)">
      <defs>
       <path id="DejaVuSans-4f" d="M 2522 4238 
Q 1834 4238 1429 3725 
Q 1025 3213 1025 2328 
Q 1025 1447 1429 934 
Q 1834 422 2522 422 
Q 3209 422 3611 934 
Q 4013 1447 4013 2328 
Q 4013 3213 3611 3725 
Q 3209 4238 2522 4238 
z
M 2522 4750 
Q 3503 4750 4090 4092 
Q 4678 3434 4678 2328 
Q 4678 1225 4090 567 
Q 3503 -91 2522 -91 
Q 1538 -91 948 565 
Q 359 1222 359 2328 
Q 359 3434 948 4092 
Q 1538 4750 2522 4750 
z
" transform="scale(0.015625)"/>
       <path id="DejaVuSans-68" d="M 3513 2113 
L 3513 0 
L 2938 0 
L 2938 2094 
Q 2938 2591 2744 2837 
Q 2550 3084 2163 3084 
Q 1697 3084 1428 2787 
Q 1159 2491 1159 1978 
L 1159 0 
L 581 0 
L 581 4863 
L 1159 4863 
L 1159 2956 
Q 1366 3272 1645 3428 
Q 1925 3584 2291 3584 
Q 2894 3584 3203 3211 
Q 3513 2838 3513 2113 
z
" transform="scale(0.015625)"/>
      </defs>
      <use xlink:href="#DejaVuSans-41"/>
      <use xlink:href="#DejaVuSans-50" x="68.408203"/>
      <use xlink:href="#DejaVuSans-20" x="128.710938"/>
      <use xlink:href="#DejaVuSans-66" x="160.498047"/>
      <use xlink:href="#DejaVuSans-6f" x="195.703125"/>
      <use xlink:href="#DejaVuSans-72" x="256.884766"/>
      <use xlink:href="#DejaVuSans-20" x="297.998047"/>
      <use xlink:href="#DejaVuSans-4f" x="329.785156"/>
      <use xlink:href="#DejaVuSans-74" x="408.496094"/>
      <use xlink:href="#DejaVuSans-68" x="447.705078"/>
      <use xlink:href="#DejaVuSans-65" x="511.083984"/>
      <use xlink:href="#DejaVuSans-72" x="572.607422"/>
      <use xlink:href="#DejaVuSans-2d" x="607.345703"/>
      <use xlink:href="#DejaVuSans-72" x="643.429688"/>
      <use xlink:href="#DejaVuSans-65" x="682.292969"/>
      <use xlink:href="#DejaVuSans-6c" x="743.816406"/>
      <use xlink:href="#DejaVuSans-61" x="771.599609"/>
      <use xlink:href="#DejaVuSans-74" x="832.878906"/>
      <use xlink:href="#DejaVuSans-69" x="872.087891"/>
      <use xlink:href="#DejaVuSans-76" x="899.871094"/>
      <use xlink:href="#DejaVuSans-65" x="959.050781"/>
      <use xlink:href="#DejaVuSans-20" x="1020.574219"/>
      <use xlink:href="#DejaVuSans-3d" x="1052.361328"/>
      <use xlink:href="#DejaVuSans-20" x="1136.150391"/>
      <use xlink:href="#DejaVuSans-30" x="1167.9375"/>
      <use xlink:href="#DejaVuSans-2e" x="1231.560547"/>
      <use xlink:href="#DejaVuSans-36" x="1263.347656"/>
      <use xlink:href="#DejaVuSans-35" x="1326.970703"/>
      <use xlink:href="#DejaVuSans-2c" x="1390.59375"/>
      <use xlink:href="#DejaVuSans-20" x="1422.380859"/>
      <use xlink:href="#DejaVuSans-43" x="1454.167969"/>
      <use xlink:href="#DejaVuSans-6f" x="1523.992188"/>
      <use xlink:href="#DejaVuSans-75" x="1585.173828"/>
      <use xlink:href="#DejaVuSans-6e" x="1648.552734"/>
      <use xlink:href="#DejaVuSans-74" x="1711.931641"/>
      <use xlink:href="#DejaVuSans-3a" x="1751.140625"/>
      <use xlink:href="#DejaVuSans-20" x="1784.832031"/>
      <use xlink:href="#DejaVuSans-33" x="1816.619141"/>
      <use xlink:href="#DejaVuSans-31" x="1880.242188"/>
      <use xlink:href="#DejaVuSans-34" x="1943.865234"/>
      <use xlink:href="#DejaVuSans-2c" x="2007.488281"/>
      <use xlink:href="#DejaVuSans-20" x="2039.275391"/>
      <use xlink:href="#DejaVuSans-50" x="2071.0625"/>
      <use xlink:href="#DejaVuSans-6f" x="2127.740234"/>
      <use xlink:href="#DejaVuSans-73" x="2188.921875"/>
      <use xlink:href="#DejaVuSans-3a" x="2241.021484"/>
      <use xlink:href="#DejaVuSans-20" x="2274.712891"/>
      <use xlink:href="#DejaVuSans-31" x="2306.5"/>
      <use xlink:href="#DejaVuSans-32" x="2370.123047"/>
      <use xlink:href="#DejaVuSans-2c" x="2433.746094"/>
      <use xlink:href="#DejaVuSans-20" x="2465.533203"/>
      <use xlink:href="#DejaVuSans-4e" x="2497.320312"/>
      <use xlink:href="#DejaVuSans-65" x="2572.125"/>
      <use xlink:href="#DejaVuSans-67" x="2633.648438"/>
      <use xlink:href="#DejaVuSans-3a" x="2697.125"/>
      <use xlink:href="#DejaVuSans-20" x="2730.816406"/>
      <use xlink:href="#DejaVuSans-33" x="2762.603516"/>
      <use xlink:href="#DejaVuSans-30" x="2826.226562"/>
      <use xlink:href="#DejaVuSans-32" x="2889.849609"/>
     </g>
    </g>
    <g id="line2d_36">
     <path d="M 54.716875 340.378438 
L 64.716875 340.378438 
L 74.716875 340.378438 
" style="fill: none; stroke: #8c564b; stroke-width: 1.5; stroke-linecap: square"/>
    </g>
    <g id="text_21">
     <!-- AP for Own-child = 0.41, Count: 1,498, Pos: 19, Neg: 1,479 -->
     <g transform="translate(82.716875 343.878438) scale(0.1 -0.1)">
      <defs>
       <path id="DejaVuSans-77" d="M 269 3500 
L 844 3500 
L 1563 769 
L 2278 3500 
L 2956 3500 
L 3675 769 
L 4391 3500 
L 4966 3500 
L 4050 0 
L 3372 0 
L 2619 2869 
L 1863 0 
L 1184 0 
L 269 3500 
z
" transform="scale(0.015625)"/>
      </defs>
      <use xlink:href="#DejaVuSans-41"/>
      <use xlink:href="#DejaVuSans-50" x="68.408203"/>
      <use xlink:href="#DejaVuSans-20" x="128.710938"/>
      <use xlink:href="#DejaVuSans-66" x="160.498047"/>
      <use xlink:href="#DejaVuSans-6f" x="195.703125"/>
      <use xlink:href="#DejaVuSans-72" x="256.884766"/>
      <use xlink:href="#DejaVuSans-20" x="297.998047"/>
      <use xlink:href="#DejaVuSans-4f" x="329.785156"/>
      <use xlink:href="#DejaVuSans-77" x="408.496094"/>
      <use xlink:href="#DejaVuSans-6e" x="490.283203"/>
      <use xlink:href="#DejaVuSans-2d" x="553.662109"/>
      <use xlink:href="#DejaVuSans-63" x="589.746094"/>
      <use xlink:href="#DejaVuSans-68" x="644.726562"/>
      <use xlink:href="#DejaVuSans-69" x="708.105469"/>
      <use xlink:href="#DejaVuSans-6c" x="735.888672"/>
      <use xlink:href="#DejaVuSans-64" x="763.671875"/>
      <use xlink:href="#DejaVuSans-20" x="827.148438"/>
      <use xlink:href="#DejaVuSans-3d" x="858.935547"/>
      <use xlink:href="#DejaVuSans-20" x="942.724609"/>
      <use xlink:href="#DejaVuSans-30" x="974.511719"/>
      <use xlink:href="#DejaVuSans-2e" x="1038.134766"/>
      <use xlink:href="#DejaVuSans-34" x="1069.921875"/>
      <use xlink:href="#DejaVuSans-31" x="1133.544922"/>
      <use xlink:href="#DejaVuSans-2c" x="1197.167969"/>
      <use xlink:href="#DejaVuSans-20" x="1228.955078"/>
      <use xlink:href="#DejaVuSans-43" x="1260.742188"/>
      <use xlink:href="#DejaVuSans-6f" x="1330.566406"/>
      <use xlink:href="#DejaVuSans-75" x="1391.748047"/>
      <use xlink:href="#DejaVuSans-6e" x="1455.126953"/>
      <use xlink:href="#DejaVuSans-74" x="1518.505859"/>
      <use xlink:href="#DejaVuSans-3a" x="1557.714844"/>
      <use xlink:href="#DejaVuSans-20" x="1591.40625"/>
      <use xlink:href="#DejaVuSans-31" x="1623.193359"/>
      <use xlink:href="#DejaVuSans-2c" x="1686.816406"/>
      <use xlink:href="#DejaVuSans-34" x="1718.603516"/>
      <use xlink:href="#DejaVuSans-39" x="1782.226562"/>
      <use xlink:href="#DejaVuSans-38" x="1845.849609"/>
      <use xlink:href="#DejaVuSans-2c" x="1909.472656"/>
      <use xlink:href="#DejaVuSans-20" x="1941.259766"/>
      <use xlink:href="#DejaVuSans-50" x="1973.046875"/>
      <use xlink:href="#DejaVuSans-6f" x="2029.724609"/>
      <use xlink:href="#DejaVuSans-73" x="2090.90625"/>
      <use xlink:href="#DejaVuSans-3a" x="2143.005859"/>
      <use xlink:href="#DejaVuSans-20" x="2176.697266"/>
      <use xlink:href="#DejaVuSans-31" x="2208.484375"/>
      <use xlink:href="#DejaVuSans-39" x="2272.107422"/>
      <use xlink:href="#DejaVuSans-2c" x="2335.730469"/>
      <use xlink:href="#DejaVuSans-20" x="2367.517578"/>
      <use xlink:href="#DejaVuSans-4e" x="2399.304688"/>
      <use xlink:href="#DejaVuSans-65" x="2474.109375"/>
      <use xlink:href="#DejaVuSans-67" x="2535.632812"/>
      <use xlink:href="#DejaVuSans-3a" x="2599.109375"/>
      <use xlink:href="#DejaVuSans-20" x="2632.800781"/>
      <use xlink:href="#DejaVuSans-31" x="2664.587891"/>
      <use xlink:href="#DejaVuSans-2c" x="2728.210938"/>
      <use xlink:href="#DejaVuSans-34" x="2759.998047"/>
      <use xlink:href="#DejaVuSans-37" x="2823.621094"/>
      <use xlink:href="#DejaVuSans-39" x="2887.244141"/>
     </g>
    </g>
   </g>
  </g>
 </g>
 <defs>
  <clipPath id="pb618936017">
   <rect x="45.716875" y="22.318125" width="446.4" height="332.64"/>
  </clipPath>
 </defs>
</svg>
