<?xml version="1.0" encoding="utf-8" standalone="no"?>
<!DOCTYPE svg PUBLIC "-//W3C//DTD SVG 1.1//EN"
  "http://www.w3.org/Graphics/SVG/1.1/DTD/svg11.dtd">
<svg xmlns:xlink="http://www.w3.org/1999/xlink" width="666.716875pt" height="508.122875pt" viewBox="0 0 666.716875 508.122875" xmlns="http://www.w3.org/2000/svg" version="1.1">
 <metadata>
  <rdf:RDF xmlns:dc="http://purl.org/dc/elements/1.1/" xmlns:cc="http://creativecommons.org/ns#" xmlns:rdf="http://www.w3.org/1999/02/22-rdf-syntax-ns#">
   <cc:Work>
    <dc:type rdf:resource="http://purl.org/dc/dcmitype/StillImage"/>
    <dc:date>2025-03-14T10:52:39.551183</dc:date>
    <dc:format>image/svg+xml</dc:format>
    <dc:creator>
     <cc:Agent>
      <dc:title>Matplotlib v3.9.2, https://matplotlib.org/</dc:title>
     </cc:Agent>
    </dc:creator>
   </cc:Work>
  </rdf:RDF>
 </metadata>
 <defs>
  <style type="text/css">*{stroke-linejoin: round; stroke-linecap: butt}</style>
 </defs>
 <g id="figure_1">
  <g id="patch_1">
   <path d="M 0 508.122875 
L 666.716875 508.122875 
L 666.716875 -0 
L 0 -0 
z
" style="fill: #ffffff"/>
  </g>
  <g id="axes_1">
   <g id="patch_2">
    <path d="M 45.716875 354.958125 
L 659.516875 354.958125 
L 659.516875 22.318125 
L 45.716875 22.318125 
z
" style="fill: #ffffff"/>
   </g>
   <g id="matplotlib.axis_1">
    <g id="xtick_1">
     <g id="line2d_1">
      <path d="M 73.616875 354.958125 
L 73.616875 22.318125 
" clip-path="url(#pab1275f2c6)" style="fill: none; stroke: #b0b0b0; stroke-width: 0.8; stroke-linecap: square"/>
     </g>
     <g id="line2d_2">
      <defs>
       <path id="m704064560f" d="M 0 0 
L 0 3.5 
" style="stroke: #000000; stroke-width: 0.8"/>
      </defs>
      <g>
       <use xlink:href="#m704064560f" x="73.616875" y="354.958125" style="stroke: #000000; stroke-width: 0.8"/>
      </g>
     </g>
     <g id="text_1">
      <!-- 0.0 -->
      <g transform="translate(65.665313 369.556563) scale(0.1 -0.1)">
       <defs>
        <path id="DejaVuSans-30" d="M 2034 4250 
Q 1547 4250 1301 3770 
Q 1056 3291 1056 2328 
Q 1056 1369 1301 889 
Q 1547 409 2034 409 
Q 2525 409 2770 889 
Q 3016 1369 3016 2328 
Q 3016 3291 2770 3770 
Q 2525 4250 2034 4250 
z
M 2034 4750 
Q 2819 4750 3233 4129 
Q 3647 3509 3647 2328 
Q 3647 1150 3233 529 
Q 2819 -91 2034 -91 
Q 1250 -91 836 529 
Q 422 1150 422 2328 
Q 422 3509 836 4129 
Q 1250 4750 2034 4750 
z
" transform="scale(0.015625)"/>
        <path id="DejaVuSans-2e" d="M 684 794 
L 1344 794 
L 1344 0 
L 684 0 
L 684 794 
z
" transform="scale(0.015625)"/>
       </defs>
       <use xlink:href="#DejaVuSans-30"/>
       <use xlink:href="#DejaVuSans-2e" x="63.623047"/>
       <use xlink:href="#DejaVuSans-30" x="95.410156"/>
      </g>
     </g>
    </g>
    <g id="xtick_2">
     <g id="line2d_3">
      <path d="M 185.216875 354.958125 
L 185.216875 22.318125 
" clip-path="url(#pab1275f2c6)" style="fill: none; stroke: #b0b0b0; stroke-width: 0.8; stroke-linecap: square"/>
     </g>
     <g id="line2d_4">
      <g>
       <use xlink:href="#m704064560f" x="185.216875" y="354.958125" style="stroke: #000000; stroke-width: 0.8"/>
      </g>
     </g>
     <g id="text_2">
      <!-- 0.2 -->
      <g transform="translate(177.265313 369.556563) scale(0.1 -0.1)">
       <defs>
        <path id="DejaVuSans-32" d="M 1228 531 
L 3431 531 
L 3431 0 
L 469 0 
L 469 531 
Q 828 903 1448 1529 
Q 2069 2156 2228 2338 
Q 2531 2678 2651 2914 
Q 2772 3150 2772 3378 
Q 2772 3750 2511 3984 
Q 2250 4219 1831 4219 
Q 1534 4219 1204 4116 
Q 875 4013 500 3803 
L 500 4441 
Q 881 4594 1212 4672 
Q 1544 4750 1819 4750 
Q 2544 4750 2975 4387 
Q 3406 4025 3406 3419 
Q 3406 3131 3298 2873 
Q 3191 2616 2906 2266 
Q 2828 2175 2409 1742 
Q 1991 1309 1228 531 
z
" transform="scale(0.015625)"/>
       </defs>
       <use xlink:href="#DejaVuSans-30"/>
       <use xlink:href="#DejaVuSans-2e" x="63.623047"/>
       <use xlink:href="#DejaVuSans-32" x="95.410156"/>
      </g>
     </g>
    </g>
    <g id="xtick_3">
     <g id="line2d_5">
      <path d="M 296.816875 354.958125 
L 296.816875 22.318125 
" clip-path="url(#pab1275f2c6)" style="fill: none; stroke: #b0b0b0; stroke-width: 0.8; stroke-linecap: square"/>
     </g>
     <g id="line2d_6">
      <g>
       <use xlink:href="#m704064560f" x="296.816875" y="354.958125" style="stroke: #000000; stroke-width: 0.8"/>
      </g>
     </g>
     <g id="text_3">
      <!-- 0.4 -->
      <g transform="translate(288.865313 369.556563) scale(0.1 -0.1)">
       <defs>
        <path id="DejaVuSans-34" d="M 2419 4116 
L 825 1625 
L 2419 1625 
L 2419 4116 
z
M 2253 4666 
L 3047 4666 
L 3047 1625 
L 3713 1625 
L 3713 1100 
L 3047 1100 
L 3047 0 
L 2419 0 
L 2419 1100 
L 313 1100 
L 313 1709 
L 2253 4666 
z
" transform="scale(0.015625)"/>
       </defs>
       <use xlink:href="#DejaVuSans-30"/>
       <use xlink:href="#DejaVuSans-2e" x="63.623047"/>
       <use xlink:href="#DejaVuSans-34" x="95.410156"/>
      </g>
     </g>
    </g>
    <g id="xtick_4">
     <g id="line2d_7">
      <path d="M 408.416875 354.958125 
L 408.416875 22.318125 
" clip-path="url(#pab1275f2c6)" style="fill: none; stroke: #b0b0b0; stroke-width: 0.8; stroke-linecap: square"/>
     </g>
     <g id="line2d_8">
      <g>
       <use xlink:href="#m704064560f" x="408.416875" y="354.958125" style="stroke: #000000; stroke-width: 0.8"/>
      </g>
     </g>
     <g id="text_4">
      <!-- 0.6 -->
      <g transform="translate(400.465313 369.556563) scale(0.1 -0.1)">
       <defs>
        <path id="DejaVuSans-36" d="M 2113 2584 
Q 1688 2584 1439 2293 
Q 1191 2003 1191 1497 
Q 1191 994 1439 701 
Q 1688 409 2113 409 
Q 2538 409 2786 701 
Q 3034 994 3034 1497 
Q 3034 2003 2786 2293 
Q 2538 2584 2113 2584 
z
M 3366 4563 
L 3366 3988 
Q 3128 4100 2886 4159 
Q 2644 4219 2406 4219 
Q 1781 4219 1451 3797 
Q 1122 3375 1075 2522 
Q 1259 2794 1537 2939 
Q 1816 3084 2150 3084 
Q 2853 3084 3261 2657 
Q 3669 2231 3669 1497 
Q 3669 778 3244 343 
Q 2819 -91 2113 -91 
Q 1303 -91 875 529 
Q 447 1150 447 2328 
Q 447 3434 972 4092 
Q 1497 4750 2381 4750 
Q 2619 4750 2861 4703 
Q 3103 4656 3366 4563 
z
" transform="scale(0.015625)"/>
       </defs>
       <use xlink:href="#DejaVuSans-30"/>
       <use xlink:href="#DejaVuSans-2e" x="63.623047"/>
       <use xlink:href="#DejaVuSans-36" x="95.410156"/>
      </g>
     </g>
    </g>
    <g id="xtick_5">
     <g id="line2d_9">
      <path d="M 520.016875 354.958125 
L 520.016875 22.318125 
" clip-path="url(#pab1275f2c6)" style="fill: none; stroke: #b0b0b0; stroke-width: 0.8; stroke-linecap: square"/>
     </g>
     <g id="line2d_10">
      <g>
       <use xlink:href="#m704064560f" x="520.016875" y="354.958125" style="stroke: #000000; stroke-width: 0.8"/>
      </g>
     </g>
     <g id="text_5">
      <!-- 0.8 -->
      <g transform="translate(512.065313 369.556563) scale(0.1 -0.1)">
       <defs>
        <path id="DejaVuSans-38" d="M 2034 2216 
Q 1584 2216 1326 1975 
Q 1069 1734 1069 1313 
Q 1069 891 1326 650 
Q 1584 409 2034 409 
Q 2484 409 2743 651 
Q 3003 894 3003 1313 
Q 3003 1734 2745 1975 
Q 2488 2216 2034 2216 
z
M 1403 2484 
Q 997 2584 770 2862 
Q 544 3141 544 3541 
Q 544 4100 942 4425 
Q 1341 4750 2034 4750 
Q 2731 4750 3128 4425 
Q 3525 4100 3525 3541 
Q 3525 3141 3298 2862 
Q 3072 2584 2669 2484 
Q 3125 2378 3379 2068 
Q 3634 1759 3634 1313 
Q 3634 634 3220 271 
Q 2806 -91 2034 -91 
Q 1263 -91 848 271 
Q 434 634 434 1313 
Q 434 1759 690 2068 
Q 947 2378 1403 2484 
z
M 1172 3481 
Q 1172 3119 1398 2916 
Q 1625 2713 2034 2713 
Q 2441 2713 2670 2916 
Q 2900 3119 2900 3481 
Q 2900 3844 2670 4047 
Q 2441 4250 2034 4250 
Q 1625 4250 1398 4047 
Q 1172 3844 1172 3481 
z
" transform="scale(0.015625)"/>
       </defs>
       <use xlink:href="#DejaVuSans-30"/>
       <use xlink:href="#DejaVuSans-2e" x="63.623047"/>
       <use xlink:href="#DejaVuSans-38" x="95.410156"/>
      </g>
     </g>
    </g>
    <g id="xtick_6">
     <g id="line2d_11">
      <path d="M 631.616875 354.958125 
L 631.616875 22.318125 
" clip-path="url(#pab1275f2c6)" style="fill: none; stroke: #b0b0b0; stroke-width: 0.8; stroke-linecap: square"/>
     </g>
     <g id="line2d_12">
      <g>
       <use xlink:href="#m704064560f" x="631.616875" y="354.958125" style="stroke: #000000; stroke-width: 0.8"/>
      </g>
     </g>
     <g id="text_6">
      <!-- 1.0 -->
      <g transform="translate(623.665313 369.556563) scale(0.1 -0.1)">
       <defs>
        <path id="DejaVuSans-31" d="M 794 531 
L 1825 531 
L 1825 4091 
L 703 3866 
L 703 4441 
L 1819 4666 
L 2450 4666 
L 2450 531 
L 3481 531 
L 3481 0 
L 794 0 
L 794 531 
z
" transform="scale(0.015625)"/>
       </defs>
       <use xlink:href="#DejaVuSans-31"/>
       <use xlink:href="#DejaVuSans-2e" x="63.623047"/>
       <use xlink:href="#DejaVuSans-30" x="95.410156"/>
      </g>
     </g>
    </g>
    <g id="text_7">
     <!-- False Positive Rate -->
     <g transform="translate(296.857188 384.754375) scale(0.12 -0.12)">
      <defs>
       <path id="DejaVuSans-46" d="M 628 4666 
L 3309 4666 
L 3309 4134 
L 1259 4134 
L 1259 2759 
L 3109 2759 
L 3109 2228 
L 1259 2228 
L 1259 0 
L 628 0 
L 628 4666 
z
" transform="scale(0.015625)"/>
       <path id="DejaVuSans-61" d="M 2194 1759 
Q 1497 1759 1228 1600 
Q 959 1441 959 1056 
Q 959 750 1161 570 
Q 1363 391 1709 391 
Q 2188 391 2477 730 
Q 2766 1069 2766 1631 
L 2766 1759 
L 2194 1759 
z
M 3341 1997 
L 3341 0 
L 2766 0 
L 2766 531 
Q 2569 213 2275 61 
Q 1981 -91 1556 -91 
Q 1019 -91 701 211 
Q 384 513 384 1019 
Q 384 1609 779 1909 
Q 1175 2209 1959 2209 
L 2766 2209 
L 2766 2266 
Q 2766 2663 2505 2880 
Q 2244 3097 1772 3097 
Q 1472 3097 1187 3025 
Q 903 2953 641 2809 
L 641 3341 
Q 956 3463 1253 3523 
Q 1550 3584 1831 3584 
Q 2591 3584 2966 3190 
Q 3341 2797 3341 1997 
z
" transform="scale(0.015625)"/>
       <path id="DejaVuSans-6c" d="M 603 4863 
L 1178 4863 
L 1178 0 
L 603 0 
L 603 4863 
z
" transform="scale(0.015625)"/>
       <path id="DejaVuSans-73" d="M 2834 3397 
L 2834 2853 
Q 2591 2978 2328 3040 
Q 2066 3103 1784 3103 
Q 1356 3103 1142 2972 
Q 928 2841 928 2578 
Q 928 2378 1081 2264 
Q 1234 2150 1697 2047 
L 1894 2003 
Q 2506 1872 2764 1633 
Q 3022 1394 3022 966 
Q 3022 478 2636 193 
Q 2250 -91 1575 -91 
Q 1294 -91 989 -36 
Q 684 19 347 128 
L 347 722 
Q 666 556 975 473 
Q 1284 391 1588 391 
Q 1994 391 2212 530 
Q 2431 669 2431 922 
Q 2431 1156 2273 1281 
Q 2116 1406 1581 1522 
L 1381 1569 
Q 847 1681 609 1914 
Q 372 2147 372 2553 
Q 372 3047 722 3315 
Q 1072 3584 1716 3584 
Q 2034 3584 2315 3537 
Q 2597 3491 2834 3397 
z
" transform="scale(0.015625)"/>
       <path id="DejaVuSans-65" d="M 3597 1894 
L 3597 1613 
L 953 1613 
Q 991 1019 1311 708 
Q 1631 397 2203 397 
Q 2534 397 2845 478 
Q 3156 559 3463 722 
L 3463 178 
Q 3153 47 2828 -22 
Q 2503 -91 2169 -91 
Q 1331 -91 842 396 
Q 353 884 353 1716 
Q 353 2575 817 3079 
Q 1281 3584 2069 3584 
Q 2775 3584 3186 3129 
Q 3597 2675 3597 1894 
z
M 3022 2063 
Q 3016 2534 2758 2815 
Q 2500 3097 2075 3097 
Q 1594 3097 1305 2825 
Q 1016 2553 972 2059 
L 3022 2063 
z
" transform="scale(0.015625)"/>
       <path id="DejaVuSans-20" transform="scale(0.015625)"/>
       <path id="DejaVuSans-50" d="M 1259 4147 
L 1259 2394 
L 2053 2394 
Q 2494 2394 2734 2622 
Q 2975 2850 2975 3272 
Q 2975 3691 2734 3919 
Q 2494 4147 2053 4147 
L 1259 4147 
z
M 628 4666 
L 2053 4666 
Q 2838 4666 3239 4311 
Q 3641 3956 3641 3272 
Q 3641 2581 3239 2228 
Q 2838 1875 2053 1875 
L 1259 1875 
L 1259 0 
L 628 0 
L 628 4666 
z
" transform="scale(0.015625)"/>
       <path id="DejaVuSans-6f" d="M 1959 3097 
Q 1497 3097 1228 2736 
Q 959 2375 959 1747 
Q 959 1119 1226 758 
Q 1494 397 1959 397 
Q 2419 397 2687 759 
Q 2956 1122 2956 1747 
Q 2956 2369 2687 2733 
Q 2419 3097 1959 3097 
z
M 1959 3584 
Q 2709 3584 3137 3096 
Q 3566 2609 3566 1747 
Q 3566 888 3137 398 
Q 2709 -91 1959 -91 
Q 1206 -91 779 398 
Q 353 888 353 1747 
Q 353 2609 779 3096 
Q 1206 3584 1959 3584 
z
" transform="scale(0.015625)"/>
       <path id="DejaVuSans-69" d="M 603 3500 
L 1178 3500 
L 1178 0 
L 603 0 
L 603 3500 
z
M 603 4863 
L 1178 4863 
L 1178 4134 
L 603 4134 
L 603 4863 
z
" transform="scale(0.015625)"/>
       <path id="DejaVuSans-74" d="M 1172 4494 
L 1172 3500 
L 2356 3500 
L 2356 3053 
L 1172 3053 
L 1172 1153 
Q 1172 725 1289 603 
Q 1406 481 1766 481 
L 2356 481 
L 2356 0 
L 1766 0 
Q 1100 0 847 248 
Q 594 497 594 1153 
L 594 3053 
L 172 3053 
L 172 3500 
L 594 3500 
L 594 4494 
L 1172 4494 
z
" transform="scale(0.015625)"/>
       <path id="DejaVuSans-76" d="M 191 3500 
L 800 3500 
L 1894 563 
L 2988 3500 
L 3597 3500 
L 2284 0 
L 1503 0 
L 191 3500 
z
" transform="scale(0.015625)"/>
       <path id="DejaVuSans-52" d="M 2841 2188 
Q 3044 2119 3236 1894 
Q 3428 1669 3622 1275 
L 4263 0 
L 3584 0 
L 2988 1197 
Q 2756 1666 2539 1819 
Q 2322 1972 1947 1972 
L 1259 1972 
L 1259 0 
L 628 0 
L 628 4666 
L 2053 4666 
Q 2853 4666 3247 4331 
Q 3641 3997 3641 3322 
Q 3641 2881 3436 2590 
Q 3231 2300 2841 2188 
z
M 1259 4147 
L 1259 2491 
L 2053 2491 
Q 2509 2491 2742 2702 
Q 2975 2913 2975 3322 
Q 2975 3731 2742 3939 
Q 2509 4147 2053 4147 
L 1259 4147 
z
" transform="scale(0.015625)"/>
      </defs>
      <use xlink:href="#DejaVuSans-46"/>
      <use xlink:href="#DejaVuSans-61" x="48.394531"/>
      <use xlink:href="#DejaVuSans-6c" x="109.673828"/>
      <use xlink:href="#DejaVuSans-73" x="137.457031"/>
      <use xlink:href="#DejaVuSans-65" x="189.556641"/>
      <use xlink:href="#DejaVuSans-20" x="251.080078"/>
      <use xlink:href="#DejaVuSans-50" x="282.867188"/>
      <use xlink:href="#DejaVuSans-6f" x="339.544922"/>
      <use xlink:href="#DejaVuSans-73" x="400.726562"/>
      <use xlink:href="#DejaVuSans-69" x="452.826172"/>
      <use xlink:href="#DejaVuSans-74" x="480.609375"/>
      <use xlink:href="#DejaVuSans-69" x="519.818359"/>
      <use xlink:href="#DejaVuSans-76" x="547.601562"/>
      <use xlink:href="#DejaVuSans-65" x="606.78125"/>
      <use xlink:href="#DejaVuSans-20" x="668.304688"/>
      <use xlink:href="#DejaVuSans-52" x="700.091797"/>
      <use xlink:href="#DejaVuSans-61" x="767.324219"/>
      <use xlink:href="#DejaVuSans-74" x="828.603516"/>
      <use xlink:href="#DejaVuSans-65" x="867.8125"/>
     </g>
    </g>
   </g>
   <g id="matplotlib.axis_2">
    <g id="ytick_1">
     <g id="line2d_13">
      <path d="M 45.716875 339.838125 
L 659.516875 339.838125 
" clip-path="url(#pab1275f2c6)" style="fill: none; stroke: #b0b0b0; stroke-width: 0.8; stroke-linecap: square"/>
     </g>
     <g id="line2d_14">
      <defs>
       <path id="mbec25c1300" d="M 0 0 
L -3.5 0 
" style="stroke: #000000; stroke-width: 0.8"/>
      </defs>
      <g>
       <use xlink:href="#mbec25c1300" x="45.716875" y="339.838125" style="stroke: #000000; stroke-width: 0.8"/>
      </g>
     </g>
     <g id="text_8">
      <!-- 0.0 -->
      <g transform="translate(22.81375 343.637344) scale(0.1 -0.1)">
       <use xlink:href="#DejaVuSans-30"/>
       <use xlink:href="#DejaVuSans-2e" x="63.623047"/>
       <use xlink:href="#DejaVuSans-30" x="95.410156"/>
      </g>
     </g>
    </g>
    <g id="ytick_2">
     <g id="line2d_15">
      <path d="M 45.716875 279.358125 
L 659.516875 279.358125 
" clip-path="url(#pab1275f2c6)" style="fill: none; stroke: #b0b0b0; stroke-width: 0.8; stroke-linecap: square"/>
     </g>
     <g id="line2d_16">
      <g>
       <use xlink:href="#mbec25c1300" x="45.716875" y="279.358125" style="stroke: #000000; stroke-width: 0.8"/>
      </g>
     </g>
     <g id="text_9">
      <!-- 0.2 -->
      <g transform="translate(22.81375 283.157344) scale(0.1 -0.1)">
       <use xlink:href="#DejaVuSans-30"/>
       <use xlink:href="#DejaVuSans-2e" x="63.623047"/>
       <use xlink:href="#DejaVuSans-32" x="95.410156"/>
      </g>
     </g>
    </g>
    <g id="ytick_3">
     <g id="line2d_17">
      <path d="M 45.716875 218.878125 
L 659.516875 218.878125 
" clip-path="url(#pab1275f2c6)" style="fill: none; stroke: #b0b0b0; stroke-width: 0.8; stroke-linecap: square"/>
     </g>
     <g id="line2d_18">
      <g>
       <use xlink:href="#mbec25c1300" x="45.716875" y="218.878125" style="stroke: #000000; stroke-width: 0.8"/>
      </g>
     </g>
     <g id="text_10">
      <!-- 0.4 -->
      <g transform="translate(22.81375 222.677344) scale(0.1 -0.1)">
       <use xlink:href="#DejaVuSans-30"/>
       <use xlink:href="#DejaVuSans-2e" x="63.623047"/>
       <use xlink:href="#DejaVuSans-34" x="95.410156"/>
      </g>
     </g>
    </g>
    <g id="ytick_4">
     <g id="line2d_19">
      <path d="M 45.716875 158.398125 
L 659.516875 158.398125 
" clip-path="url(#pab1275f2c6)" style="fill: none; stroke: #b0b0b0; stroke-width: 0.8; stroke-linecap: square"/>
     </g>
     <g id="line2d_20">
      <g>
       <use xlink:href="#mbec25c1300" x="45.716875" y="158.398125" style="stroke: #000000; stroke-width: 0.8"/>
      </g>
     </g>
     <g id="text_11">
      <!-- 0.6 -->
      <g transform="translate(22.81375 162.197344) scale(0.1 -0.1)">
       <use xlink:href="#DejaVuSans-30"/>
       <use xlink:href="#DejaVuSans-2e" x="63.623047"/>
       <use xlink:href="#DejaVuSans-36" x="95.410156"/>
      </g>
     </g>
    </g>
    <g id="ytick_5">
     <g id="line2d_21">
      <path d="M 45.716875 97.918125 
L 659.516875 97.918125 
" clip-path="url(#pab1275f2c6)" style="fill: none; stroke: #b0b0b0; stroke-width: 0.8; stroke-linecap: square"/>
     </g>
     <g id="line2d_22">
      <g>
       <use xlink:href="#mbec25c1300" x="45.716875" y="97.918125" style="stroke: #000000; stroke-width: 0.8"/>
      </g>
     </g>
     <g id="text_12">
      <!-- 0.8 -->
      <g transform="translate(22.81375 101.717344) scale(0.1 -0.1)">
       <use xlink:href="#DejaVuSans-30"/>
       <use xlink:href="#DejaVuSans-2e" x="63.623047"/>
       <use xlink:href="#DejaVuSans-38" x="95.410156"/>
      </g>
     </g>
    </g>
    <g id="ytick_6">
     <g id="line2d_23">
      <path d="M 45.716875 37.438125 
L 659.516875 37.438125 
" clip-path="url(#pab1275f2c6)" style="fill: none; stroke: #b0b0b0; stroke-width: 0.8; stroke-linecap: square"/>
     </g>
     <g id="line2d_24">
      <g>
       <use xlink:href="#mbec25c1300" x="45.716875" y="37.438125" style="stroke: #000000; stroke-width: 0.8"/>
      </g>
     </g>
     <g id="text_13">
      <!-- 1.0 -->
      <g transform="translate(22.81375 41.237344) scale(0.1 -0.1)">
       <use xlink:href="#DejaVuSans-31"/>
       <use xlink:href="#DejaVuSans-2e" x="63.623047"/>
       <use xlink:href="#DejaVuSans-30" x="95.410156"/>
      </g>
     </g>
    </g>
    <g id="text_14">
     <!-- True Positive Rate -->
     <g transform="translate(16.318125 242.07375) rotate(-90) scale(0.12 -0.12)">
      <defs>
       <path id="DejaVuSans-54" d="M -19 4666 
L 3928 4666 
L 3928 4134 
L 2272 4134 
L 2272 0 
L 1638 0 
L 1638 4134 
L -19 4134 
L -19 4666 
z
" transform="scale(0.015625)"/>
       <path id="DejaVuSans-72" d="M 2631 2963 
Q 2534 3019 2420 3045 
Q 2306 3072 2169 3072 
Q 1681 3072 1420 2755 
Q 1159 2438 1159 1844 
L 1159 0 
L 581 0 
L 581 3500 
L 1159 3500 
L 1159 2956 
Q 1341 3275 1631 3429 
Q 1922 3584 2338 3584 
Q 2397 3584 2469 3576 
Q 2541 3569 2628 3553 
L 2631 2963 
z
" transform="scale(0.015625)"/>
       <path id="DejaVuSans-75" d="M 544 1381 
L 544 3500 
L 1119 3500 
L 1119 1403 
Q 1119 906 1312 657 
Q 1506 409 1894 409 
Q 2359 409 2629 706 
Q 2900 1003 2900 1516 
L 2900 3500 
L 3475 3500 
L 3475 0 
L 2900 0 
L 2900 538 
Q 2691 219 2414 64 
Q 2138 -91 1772 -91 
Q 1169 -91 856 284 
Q 544 659 544 1381 
z
M 1991 3584 
L 1991 3584 
z
" transform="scale(0.015625)"/>
      </defs>
      <use xlink:href="#DejaVuSans-54"/>
      <use xlink:href="#DejaVuSans-72" x="46.333984"/>
      <use xlink:href="#DejaVuSans-75" x="87.447266"/>
      <use xlink:href="#DejaVuSans-65" x="150.826172"/>
      <use xlink:href="#DejaVuSans-20" x="212.349609"/>
      <use xlink:href="#DejaVuSans-50" x="244.136719"/>
      <use xlink:href="#DejaVuSans-6f" x="300.814453"/>
      <use xlink:href="#DejaVuSans-73" x="361.996094"/>
      <use xlink:href="#DejaVuSans-69" x="414.095703"/>
      <use xlink:href="#DejaVuSans-74" x="441.878906"/>
      <use xlink:href="#DejaVuSans-69" x="481.087891"/>
      <use xlink:href="#DejaVuSans-76" x="508.871094"/>
      <use xlink:href="#DejaVuSans-65" x="568.050781"/>
      <use xlink:href="#DejaVuSans-20" x="629.574219"/>
      <use xlink:href="#DejaVuSans-52" x="661.361328"/>
      <use xlink:href="#DejaVuSans-61" x="728.59375"/>
      <use xlink:href="#DejaVuSans-74" x="789.873047"/>
      <use xlink:href="#DejaVuSans-65" x="829.082031"/>
     </g>
    </g>
   </g>
   <g id="line2d_25">
    <path d="M 73.616875 339.838125 
L 73.7066 281.651608 
L 73.796325 281.651608 
L 73.88605 264.521271 
L 73.975775 264.521271 
L 74.0655 260.698799 
L 74.155225 260.698799 
L 74.24495 258.150485 
L 74.334675 258.150485 
L 74.334675 257.301046 
L 74.60385 257.301046 
L 74.693575 256.451608 
L 74.7833 256.451608 
L 74.873026 255.743743 
L 74.962751 255.743743 
L 75.052476 254.752732 
L 75.142201 254.752732 
L 75.231926 252.204417 
L 75.321651 252.204417 
L 75.321651 250.363968 
L 75.501101 250.363968 
L 75.590826 249.656103 
L 75.770276 249.656103 
L 75.770276 249.372956 
L 76.039451 249.372956 
L 76.039451 249.231383 
L 76.218901 249.231383 
L 76.308626 246.399923 
L 76.398351 246.116777 
L 76.488076 244.134754 
L 76.577801 244.134754 
L 76.667526 243.426889 
L 76.757251 243.426889 
L 76.846976 242.294305 
L 76.936701 242.294305 
L 76.936701 242.152732 
L 77.116151 242.152732 
L 77.205876 241.020147 
L 77.295601 241.020147 
L 77.385327 239.74599 
L 77.475052 239.74599 
L 77.923677 239.038125 
L 78.013402 237.905541 
L 78.103127 237.905541 
L 78.103127 237.480822 
L 78.641477 237.480822 
L 78.731202 235.923518 
L 78.820927 235.923518 
L 78.910652 233.799923 
L 79.000377 233.516777 
L 79.269552 233.516777 
L 79.449002 233.233631 
L 79.449002 232.950485 
L 79.628452 232.950485 
L 79.718177 232.525765 
L 79.897628 232.242619 
L 79.897628 231.393181 
L 80.077078 231.393181 
L 80.077078 231.110035 
L 80.256528 230.826889 
L 80.346253 230.260597 
L 80.435978 230.260597 
L 80.435978 230.119024 
L 80.615428 230.119024 
L 80.705153 229.552732 
L 81.153778 229.552732 
L 81.243503 229.411159 
L 81.333228 228.420147 
L 81.422953 228.420147 
L 81.512678 227.570709 
L 81.602403 227.570709 
L 81.692128 227.004417 
L 81.781853 227.004417 
L 81.781853 226.862844 
L 81.871578 226.862844 
L 82.320204 226.438125 
L 82.409929 225.447114 
L 82.589379 225.447114 
L 82.679104 224.880822 
L 82.768829 224.880822 
L 82.858554 224.172956 
L 83.127729 224.172956 
L 83.217454 223.323518 
L 83.396904 223.323518 
L 83.396904 222.47408 
L 83.576354 222.332507 
L 83.755804 222.332507 
L 83.755804 222.190934 
L 83.845529 222.190934 
L 84.114704 221.907788 
L 84.204429 220.916777 
L 84.742779 220.916777 
L 84.832505 220.067338 
L 85.011955 220.067338 
L 85.011955 219.784192 
L 85.28113 219.359473 
L 85.370855 218.651608 
L 85.46058 218.651608 
L 85.550305 218.226889 
L 85.64003 218.226889 
L 86.17838 217.377451 
L 86.268105 216.952732 
L 86.806455 216.103294 
L 87.07563 215.961721 
L 87.165355 215.537001 
L 87.25508 215.537001 
L 87.25508 215.253855 
L 87.434531 215.253855 
L 87.434531 214.54599 
L 87.524256 214.54599 
L 87.793431 214.121271 
L 87.883156 212.988687 
L 87.972881 212.988687 
L 88.062606 212.422395 
L 88.152331 212.422395 
L 88.242056 211.997676 
L 88.511231 211.997676 
L 88.600956 211.572956 
L 88.780406 211.572956 
L 88.870131 210.157226 
L 88.959856 210.157226 
L 89.049581 209.307788 
L 89.229031 209.307788 
L 89.318756 208.883069 
L 89.408481 208.883069 
L 89.408481 208.741496 
L 89.587931 208.741496 
L 89.587931 208.599923 
L 89.857107 208.599923 
L 89.857107 208.45835 
L 90.664632 208.45835 
L 90.754357 208.175204 
L 91.382432 208.175204 
L 91.472157 207.750485 
L 91.651607 207.750485 
L 91.741332 206.901046 
L 91.920782 206.901046 
L 91.920782 206.759473 
L 92.100232 206.759473 
L 92.100232 206.6179 
L 92.279683 206.6179 
L 92.638583 206.051608 
L 92.818033 206.051608 
L 92.907758 205.626889 
L 93.176933 205.626889 
L 93.266658 205.343743 
L 93.356383 205.343743 
L 93.356383 204.777451 
L 93.535833 204.777451 
L 93.625558 204.494305 
L 93.715283 204.494305 
L 93.805008 202.937001 
L 93.894733 202.937001 
L 93.894733 202.795428 
L 93.984458 202.795428 
L 94.433083 202.087563 
L 94.702259 202.087563 
L 94.702259 201.804417 
L 95.061159 201.804417 
L 95.150884 201.379698 
L 95.509784 201.379698 
L 95.778959 201.096552 
L 95.868684 199.822395 
L 96.227584 199.822395 
L 96.227584 199.539249 
L 96.407034 199.539249 
L 96.407034 199.114529 
L 96.676209 199.114529 
L 96.676209 198.831383 
L 97.035109 198.548237 
L 97.035109 198.406664 
L 97.21456 198.406664 
L 97.21456 198.123518 
L 97.304285 198.123518 
L 97.57346 198.123518 
L 97.57346 197.840372 
L 97.75291 197.840372 
L 97.75291 197.698799 
L 97.93236 197.698799 
L 97.93236 197.557226 
L 98.11181 197.557226 
L 98.201535 197.132507 
L 98.29126 197.132507 
L 98.29126 196.707788 
L 98.919335 196.707788 
L 99.00906 195.999923 
L 99.098785 195.999923 
L 99.098785 195.85835 
L 99.278235 195.85835 
L 99.278235 195.716777 
L 99.457685 195.716777 
L 99.54741 195.292058 
L 99.637135 195.150485 
L 99.816586 195.150485 
L 99.906311 193.876327 
L 100.265211 193.026889 
L 100.534386 193.026889 
L 100.534386 192.60217 
L 100.713836 192.60217 
L 100.983011 192.035878 
L 101.162461 192.035878 
L 101.611086 191.469586 
L 101.700811 190.478574 
L 101.790536 190.478574 
L 102.239162 189.912282 
L 102.418612 189.770709 
L 102.418612 189.629136 
L 102.508337 189.629136 
L 102.687787 189.204417 
L 102.777512 189.204417 
L 102.956962 189.062844 
L 102.956962 188.921271 
L 103.315862 188.921271 
L 103.315862 188.779698 
L 103.943937 188.779698 
L 103.943937 188.496552 
L 104.302837 188.071833 
L 104.392562 186.939249 
L 104.482287 186.939249 
L 104.482287 186.797676 
L 104.841188 186.797676 
L 104.841188 186.372956 
L 104.930913 186.372956 
L 105.200088 186.08981 
L 105.289813 186.08981 
L 105.289813 185.523518 
L 105.648713 185.523518 
L 105.738438 184.249361 
L 106.187063 184.249361 
L 106.276788 183.824642 
L 106.545963 183.824642 
L 106.545963 183.541496 
L 106.725413 183.541496 
L 106.725413 183.399923 
L 106.904863 183.399923 
L 106.904863 183.25835 
L 107.174039 183.25835 
L 107.353489 183.116777 
L 107.443214 182.692058 
L 107.532939 182.692058 
L 107.622664 182.125765 
L 107.712389 181.984192 
L 108.071289 181.984192 
L 108.161014 181.701046 
L 108.340464 181.701046 
L 108.340464 181.559473 
L 108.519914 181.559473 
L 108.609639 180.710035 
L 108.699364 180.710035 
L 108.699364 180.568462 
L 108.878814 180.568462 
L 108.878814 180.285316 
L 109.147989 180.285316 
L 109.506889 179.577451 
L 109.506889 179.435878 
L 109.776065 179.435878 
L 109.776065 179.294305 
L 110.04524 179.294305 
L 110.134965 178.728013 
L 110.22469 178.728013 
L 110.314415 178.58644 
L 110.852765 178.58644 
L 110.852765 178.161721 
L 111.032215 178.161721 
L 111.12194 177.878574 
L 111.391115 177.878574 
L 111.391115 177.737001 
L 111.570565 177.737001 
L 111.570565 177.170709 
L 111.83974 177.170709 
L 112.01919 176.887563 
L 112.01919 176.604417 
L 112.288366 176.604417 
L 112.288366 176.462844 
L 113.185616 176.462844 
L 113.185616 175.896552 
L 113.365066 175.896552 
L 113.454791 175.613406 
L 113.544516 175.613406 
L 113.544516 175.33026 
L 113.903416 175.33026 
L 113.903416 174.622395 
L 114.172591 174.622395 
L 114.172591 174.056103 
L 114.262316 174.056103 
L 114.352041 173.914529 
L 114.352041 173.48981 
L 114.621217 173.48981 
L 114.710942 172.781945 
L 115.069842 172.781945 
L 115.159567 172.498799 
L 115.249292 172.498799 
L 115.339017 172.07408 
L 115.518467 172.07408 
L 115.608192 171.790934 
L 115.877367 171.790934 
L 115.877367 171.649361 
L 116.325992 171.649361 
L 116.325992 171.507788 
L 116.415717 171.507788 
L 116.595167 171.507788 
L 116.684892 171.224642 
L 116.864342 171.224642 
L 116.954067 170.941496 
L 117.133518 170.941496 
L 117.133518 170.65835 
L 117.312968 170.65835 
L 117.402693 170.375204 
L 117.492418 170.375204 
L 117.582143 170.092058 
L 117.941043 170.092058 
L 117.941043 169.950485 
L 118.120493 169.950485 
L 118.210218 169.242619 
L 118.389668 169.242619 
L 118.389668 168.8179 
L 118.569118 168.8179 
L 118.569118 168.676327 
L 118.748568 168.676327 
L 118.748568 168.534754 
L 119.197193 168.534754 
L 119.197193 168.393181 
L 119.376643 168.393181 
L 119.376643 168.251608 
L 119.645819 168.251608 
L 119.645819 167.968462 
L 119.914994 167.968462 
L 119.914994 167.826889 
L 120.094444 167.826889 
L 120.094444 167.685316 
L 120.363619 167.685316 
L 120.363619 167.40217 
L 120.901969 167.40217 
L 120.901969 167.260597 
L 121.081419 167.260597 
L 121.081419 166.269586 
L 121.171144 166.269586 
L 121.440319 166.269586 
L 121.440319 165.844867 
L 121.619769 165.844867 
L 121.709494 165.561721 
L 121.888944 165.561721 
L 121.97867 164.995428 
L 122.33757 164.995428 
L 122.427295 164.429136 
L 122.51702 164.429136 
L 122.51702 164.287563 
L 122.786195 164.287563 
L 122.87592 163.862844 
L 123.23482 163.862844 
L 123.23482 163.579698 
L 123.683445 163.579698 
L 123.683445 163.438125 
L 124.042345 163.438125 
L 124.221795 163.296552 
L 124.490971 163.296552 
L 124.580696 163.013406 
L 124.670421 163.013406 
L 124.670421 162.305541 
L 124.849871 162.305541 
L 124.849871 162.163968 
L 124.939596 162.163968 
L 125.298496 162.163968 
L 125.388221 161.880822 
L 125.567671 161.880822 
L 125.567671 161.031383 
L 125.747121 161.031383 
L 125.836846 160.323518 
L 126.285471 160.323518 
L 126.285471 160.181945 
L 126.554646 160.181945 
L 126.554646 160.040372 
L 126.913546 160.040372 
L 127.003272 159.898799 
L 127.362172 159.898799 
L 127.362172 159.615653 
L 127.541622 159.615653 
L 127.541622 159.47408 
L 127.721072 159.47408 
L 127.810797 159.190934 
L 128.079972 159.190934 
L 128.169697 158.907788 
L 128.528597 158.907788 
L 128.528597 158.766215 
L 128.618322 158.766215 
L 128.887497 158.766215 
L 128.977222 158.341496 
L 129.336122 158.341496 
L 129.425848 157.916777 
L 129.515573 157.916777 
L 129.605298 157.775204 
L 129.784748 157.775204 
L 129.784748 157.633631 
L 130.233373 157.633631 
L 130.233373 157.350485 
L 130.502548 157.350485 
L 130.592273 156.925765 
L 130.681998 156.925765 
L 130.771723 156.359473 
L 130.861448 156.359473 
L 130.951173 155.651608 
L 131.310073 155.651608 
L 131.399798 155.368462 
L 131.579248 155.368462 
L 131.848423 154.660597 
L 132.117599 154.660597 
L 132.207324 154.235878 
L 132.386774 154.235878 
L 132.386774 154.094305 
L 132.566224 154.094305 
L 132.745674 153.811159 
L 132.925124 153.811159 
L 132.925124 153.669586 
L 133.194299 153.669586 
L 133.194299 153.528013 
L 133.373749 153.528013 
L 133.463474 153.103294 
L 133.642924 153.103294 
L 133.642924 152.820147 
L 133.822374 152.820147 
L 133.822374 152.678574 
L 133.912099 152.678574 
L 134.001824 152.537001 
L 134.360724 152.537001 
L 134.45045 152.112282 
L 134.540175 152.112282 
L 134.6299 151.829136 
L 134.9888 151.262844 
L 135.078525 150.838125 
L 135.3477 150.838125 
L 135.616875 150.413406 
L 135.88605 150.413406 
L 135.88605 150.271833 
L 136.0655 150.271833 
L 136.155225 149.988687 
L 136.873026 149.988687 
L 136.873026 149.705541 
L 137.411376 149.705541 
L 137.501101 149.422395 
L 138.129176 149.422395 
L 138.129176 149.280822 
L 138.398351 149.280822 
L 138.488076 148.856103 
L 138.667526 148.856103 
L 138.757251 148.572956 
L 138.846976 148.431383 
L 139.026426 148.431383 
L 139.205876 148.28981 
L 139.564777 148.28981 
L 139.564777 148.148237 
L 139.923677 147.865091 
L 139.923677 147.723518 
L 140.192852 147.723518 
L 140.372302 147.581945 
L 140.551752 147.581945 
L 140.551752 147.440372 
L 140.641477 147.440372 
L 140.731202 147.298799 
L 140.820927 146.732507 
L 141.179827 146.732507 
L 141.179827 146.590934 
L 141.897628 146.590934 
L 141.897628 146.449361 
L 141.987353 146.449361 
L 142.346253 146.024642 
L 142.705153 146.024642 
L 142.794878 145.45835 
L 143.692128 145.45835 
L 143.692128 144.467338 
L 143.961303 144.467338 
L 143.961303 144.184192 
L 144.320204 144.184192 
L 144.320204 144.042619 
L 144.768829 144.042619 
L 144.768829 143.901046 
L 144.948279 143.901046 
L 144.948279 143.759473 
L 145.127729 143.759473 
L 145.396904 143.334754 
L 145.576354 143.334754 
L 145.666079 143.193181 
L 145.666079 142.768462 
L 145.935254 142.768462 
L 146.024979 142.626889 
L 146.563329 142.626889 
L 146.563329 142.343743 
L 146.742779 142.060597 
L 147.191405 142.060597 
L 147.191405 141.919024 
L 147.370855 141.919024 
L 147.909205 140.928013 
L 148.35783 140.928013 
L 148.447555 140.503294 
L 148.53728 140.503294 
L 148.627005 140.220147 
L 148.71673 140.220147 
L 148.806455 139.937001 
L 148.985905 139.937001 
L 148.985905 139.370709 
L 149.165355 139.370709 
L 149.25508 138.94599 
L 149.344806 138.94599 
L 149.434531 138.804417 
L 149.883156 138.804417 
L 149.972881 138.379698 
L 150.242056 138.238125 
L 150.242056 137.954979 
L 150.421506 137.954979 
L 150.421506 137.671833 
L 150.600956 137.671833 
L 150.690681 137.388687 
L 151.229031 137.388687 
L 151.229031 137.105541 
L 151.318756 137.105541 
L 151.587931 137.105541 
L 151.587931 136.963968 
L 152.485182 136.963968 
L 152.574907 136.539249 
L 152.933807 136.539249 
L 152.933807 136.397676 
L 153.292707 136.397676 
L 153.292707 136.256103 
L 153.382432 136.256103 
L 154.369408 135.831383 
L 154.369408 135.548237 
L 154.548858 135.548237 
L 154.548858 135.406664 
L 154.638583 135.406664 
L 154.728308 135.265091 
L 155.087208 135.265091 
L 155.176933 134.840372 
L 155.805008 134.840372 
L 155.805008 134.698799 
L 156.074183 134.698799 
L 156.074183 134.557226 
L 156.702259 134.557226 
L 156.702259 134.415653 
L 157.061159 134.415653 
L 157.150884 134.132507 
L 157.509784 134.132507 
L 157.509784 133.990934 
L 157.689234 133.990934 
L 157.689234 133.849361 
L 158.227584 133.849361 
L 158.227584 133.566215 
L 158.945384 133.566215 
L 158.945384 133.424642 
L 159.035109 133.424642 
L 159.21456 133.283069 
L 159.75291 133.283069 
L 159.75291 133.141496 
L 160.29126 133.141496 
L 160.380985 132.716777 
L 160.65016 132.716777 
L 160.65016 132.575204 
L 160.919335 132.575204 
L 161.278235 132.150485 
L 161.54741 132.150485 
L 161.54741 132.008912 
L 162.175486 132.008912 
L 162.265211 131.584192 
L 162.354936 131.584192 
L 162.444661 131.159473 
L 162.624111 131.159473 
L 163.431636 129.885316 
L 163.880261 129.885316 
L 163.880261 129.460597 
L 164.328887 129.460597 
L 164.328887 129.319024 
L 164.508337 129.319024 
L 164.508337 129.177451 
L 164.777512 129.177451 
L 164.777512 129.035878 
L 165.226137 129.035878 
L 165.226137 128.894305 
L 166.392562 128.894305 
L 166.392562 128.611159 
L 167.110363 128.611159 
L 167.110363 128.469586 
L 167.379538 128.469586 
L 167.379538 128.328013 
L 167.469263 128.328013 
L 167.648713 127.903294 
L 168.097338 127.903294 
L 168.097338 127.761721 
L 168.187063 127.761721 
L 168.366513 127.478574 
L 169.622664 127.478574 
L 169.622664 127.053855 
L 170.161014 127.053855 
L 170.161014 126.912282 
L 170.789089 126.912282 
L 170.789089 126.629136 
L 171.147989 126.629136 
L 171.147989 126.487563 
L 171.596615 126.487563 
L 171.68634 125.921271 
L 171.955515 125.921271 
L 171.955515 125.779698 
L 172.314415 125.779698 
L 172.314415 125.638125 
L 172.673315 125.638125 
L 172.673315 125.354979 
L 172.852765 125.354979 
L 172.852765 125.213406 
L 172.94249 125.213406 
L 173.12194 125.213406 
L 173.12194 125.071833 
L 173.83974 125.071833 
L 173.83974 124.93026 
L 174.198641 124.93026 
L 174.198641 124.788687 
L 174.647266 124.788687 
L 174.736991 124.505541 
L 174.916441 124.505541 
L 174.916441 124.222395 
L 175.365066 124.222395 
L 175.365066 123.939249 
L 175.634241 123.939249 
L 175.634241 123.797676 
L 175.903416 123.797676 
L 175.903416 123.656103 
L 176.531491 123.656103 
L 176.621217 122.948237 
L 177.249292 122.948237 
L 177.339017 122.665091 
L 177.608192 122.665091 
L 177.697917 122.240372 
L 177.877367 122.240372 
L 177.877367 122.098799 
L 178.056817 122.098799 
L 178.146542 121.815653 
L 178.325992 121.815653 
L 178.415717 121.532507 
L 178.684892 121.532507 
L 178.774617 120.966215 
L 178.954067 120.966215 
L 178.954067 120.824642 
L 179.223243 120.824642 
L 179.223243 120.399923 
L 179.312968 120.399923 
L 179.492418 120.25835 
L 179.671868 120.25835 
L 179.671868 120.116777 
L 179.941043 120.116777 
L 180.030768 119.550485 
L 180.299943 119.550485 
L 180.299943 119.408912 
L 180.569118 119.408912 
L 180.658843 118.842619 
L 181.376643 118.842619 
L 181.376643 118.701046 
L 181.556094 118.559473 
L 181.825269 118.559473 
L 181.825269 118.4179 
L 182.184169 118.4179 
L 182.273894 118.134754 
L 182.453344 118.134754 
L 182.453344 117.993181 
L 182.632794 117.993181 
L 182.812244 117.710035 
L 182.991694 117.710035 
L 182.991694 117.568462 
L 183.350594 117.568462 
L 183.350594 117.426889 
L 183.799219 117.426889 
L 183.799219 117.143743 
L 183.888944 117.143743 
L 184.068395 117.143743 
L 184.068395 117.00217 
L 184.247845 117.00217 
L 184.247845 116.719024 
L 184.427295 116.719024 
L 184.51702 116.152732 
L 184.786195 116.152732 
L 184.87592 115.869586 
L 184.965645 115.869586 
L 185.05537 115.728013 
L 185.41427 115.728013 
L 185.41427 115.58644 
L 185.77317 115.58644 
L 185.77317 115.444867 
L 186.042345 115.444867 
L 186.042345 114.878574 
L 187.119046 114.878574 
L 187.119046 114.737001 
L 187.208771 114.737001 
L 187.567671 114.737001 
L 187.567671 114.595428 
L 188.195746 114.595428 
L 188.285471 114.453855 
L 188.554646 114.453855 
L 188.823821 114.312282 
L 189.182722 114.312282 
L 189.182722 114.170709 
L 190.618322 114.170709 
L 191.695023 113.604417 
L 191.695023 113.462844 
L 191.874473 113.462844 
L 191.874473 113.321271 
L 192.412823 113.321271 
L 192.412823 112.896552 
L 193.130623 112.896552 
L 193.489523 112.471833 
L 194.476499 111.905541 
L 194.476499 111.763968 
L 194.745674 111.763968 
L 194.745674 111.622395 
L 194.835399 111.622395 
L 194.925124 111.480822 
L 195.284024 111.197676 
L 195.822374 111.197676 
L 195.822374 110.914529 
L 196.001824 110.914529 
L 196.540175 110.48981 
L 197.3477 110.48981 
L 197.3477 110.348237 
L 197.52715 110.348237 
L 197.616875 109.923518 
L 197.796325 109.923518 
L 197.975775 109.781945 
L 198.514125 109.781945 
L 198.693575 109.640372 
L 198.693575 109.498799 
L 199.231926 108.932507 
L 199.770276 108.932507 
L 199.770276 108.790934 
L 200.398351 108.790934 
L 200.398351 108.507788 
L 200.577801 108.507788 
L 200.577801 108.366215 
L 201.026426 108.366215 
L 201.116151 108.224642 
L 201.564777 108.224642 
L 201.564777 108.083069 
L 201.923677 108.083069 
L 202.462027 107.65835 
L 203.359277 107.65835 
L 203.449002 107.233631 
L 203.718177 107.233631 
L 203.718177 107.092058 
L 203.897628 107.092058 
L 203.897628 106.950485 
L 204.705153 106.950485 
L 204.705153 106.808912 
L 205.333228 106.808912 
L 205.333228 106.667338 
L 205.512678 106.667338 
L 205.512678 106.525765 
L 205.961303 106.525765 
L 205.961303 106.384192 
L 206.230478 106.384192 
L 206.230478 106.242619 
L 207.127729 106.242619 
L 207.486629 105.8179 
L 207.666079 105.8179 
L 207.755804 105.534754 
L 207.845529 105.534754 
L 207.935254 105.393181 
L 208.742779 105.393181 
L 208.742779 105.251608 
L 208.832505 105.251608 
L 209.370855 105.110035 
L 209.46058 104.685316 
L 209.81948 104.685316 
L 209.81948 104.119024 
L 209.909205 104.119024 
L 210.268105 104.119024 
L 210.268105 103.977451 
L 210.447555 103.835878 
L 210.627005 103.835878 
L 210.89618 103.552732 
L 211.165355 103.552732 
L 211.25508 103.269586 
L 211.434531 103.269586 
L 211.434531 103.128013 
L 211.703706 103.128013 
L 212.062606 102.703294 
L 212.152331 102.703294 
L 212.242056 102.561721 
L 212.600956 102.561721 
L 212.600956 102.420147 
L 214.485182 102.420147 
L 214.844082 102.137001 
L 214.933807 101.287563 
L 215.382432 101.287563 
L 215.382432 100.862844 
L 215.651607 100.862844 
L 215.831057 100.721271 
L 215.831057 100.579698 
L 217.087208 100.579698 
L 217.087208 100.438125 
L 217.805008 100.438125 
L 217.805008 100.296552 
L 218.163908 100.296552 
L 218.163908 100.154979 
L 218.433083 100.154979 
L 218.522808 99.73026 
L 219.061159 99.447114 
L 219.061159 99.305541 
L 219.240609 99.305541 
L 219.240609 99.163968 
L 219.599509 99.163968 
L 219.778959 98.739249 
L 220.048134 98.739249 
L 220.048134 98.597676 
L 220.137859 98.597676 
L 220.317309 98.314529 
L 220.586484 98.314529 
L 220.586484 98.172956 
L 221.035109 98.172956 
L 221.035109 98.031383 
L 221.75291 98.031383 
L 221.75291 97.88981 
L 222.201535 97.88981 
L 223.098785 97.323518 
L 223.36796 97.323518 
L 223.36796 97.181945 
L 224.175486 97.181945 
L 224.175486 96.757226 
L 224.354936 96.757226 
L 224.534386 96.049361 
L 224.713836 95.624642 
L 225.341911 95.624642 
L 225.341911 95.483069 
L 225.431636 95.483069 
L 225.611086 95.483069 
L 225.790536 95.341496 
L 225.969986 95.341496 
L 226.239162 95.199923 
L 226.239162 95.05835 
L 226.328887 95.05835 
L 226.508337 95.05835 
L 226.687787 94.775204 
L 227.046687 94.775204 
L 227.046687 94.633631 
L 227.764487 94.633631 
L 227.854212 94.350485 
L 228.302837 94.350485 
L 228.482287 94.208912 
L 228.841188 94.208912 
L 228.841188 94.067338 
L 229.020638 94.067338 
L 229.469263 93.642619 
L 229.738438 93.642619 
L 229.738438 93.501046 
L 229.917888 93.501046 
L 230.007613 93.2179 
L 230.815138 93.2179 
L 230.815138 93.076327 
L 230.904863 93.076327 
L 231.174039 93.076327 
L 231.263764 92.934754 
L 232.161014 92.934754 
L 232.519914 92.651608 
L 232.699364 92.651608 
L 232.699364 92.510035 
L 232.789089 92.510035 
L 233.417164 92.510035 
L 233.68634 92.226889 
L 234.673315 91.80217 
L 236.647266 91.80217 
L 236.826716 91.660597 
L 236.826716 91.519024 
L 237.006166 91.519024 
L 237.095891 91.235878 
L 237.454791 91.235878 
L 237.544516 91.094305 
L 237.813691 91.094305 
L 237.903416 90.811159 
L 238.082866 90.811159 
L 238.262316 90.669586 
L 238.531491 90.528013 
L 238.531491 90.38644 
L 238.890392 90.38644 
L 238.890392 90.103294 
L 239.608192 90.103294 
L 239.697917 89.820147 
L 239.877367 89.820147 
L 239.877367 89.537001 
L 240.236267 89.537001 
L 240.325992 89.395428 
L 241.312968 89.395428 
L 241.312968 89.253855 
L 241.851318 89.253855 
L 241.851318 88.687563 
L 242.928018 88.687563 
L 243.017743 88.262844 
L 246.15812 86.988687 
L 246.15812 86.705541 
L 246.51702 86.705541 
L 248.490971 86.422395 
L 248.490971 86.280822 
L 248.939596 85.997676 
L 249.388221 85.997676 
L 249.388221 85.856103 
L 249.747121 85.856103 
L 250.195746 85.572956 
L 251.272447 85.148237 
L 251.631347 85.148237 
L 252.169697 85.006664 
L 252.169697 84.865091 
L 252.528597 84.865091 
L 254.053923 83.87408 
L 255.399798 83.87408 
L 255.668973 83.590934 
L 256.386774 83.590934 
L 256.745674 83.307788 
L 257.284024 83.307788 
L 257.463474 82.741496 
L 259.52715 82.741496 
L 259.52715 82.599923 
L 260.155225 82.316777 
L 260.24495 82.316777 
L 260.334675 82.033631 
L 260.514125 82.033631 
L 260.693575 81.892058 
L 260.962751 81.750485 
L 261.231926 81.750485 
L 261.770276 81.608912 
L 261.770276 81.467338 
L 261.860001 81.467338 
L 262.129176 81.325765 
L 262.488076 81.325765 
L 263.026426 80.901046 
L 263.116151 80.901046 
L 263.564777 80.759473 
L 263.564777 80.6179 
L 263.923677 80.334754 
L 264.910652 80.334754 
L 264.910652 80.193181 
L 265.359277 80.193181 
L 265.897628 79.910035 
L 267.871578 78.635878 
L 268.230478 78.635878 
L 268.230478 78.352732 
L 268.409929 78.352732 
L 268.499654 78.211159 
L 270.114704 78.211159 
L 272.268105 77.78644 
L 272.985905 77.503294 
L 273.524256 77.503294 
L 273.524256 77.361721 
L 274.242056 77.220147 
L 274.242056 77.078574 
L 274.331781 77.078574 
L 274.511231 76.937001 
L 274.511231 76.795428 
L 274.600956 76.795428 
L 274.959856 76.795428 
L 275.229031 76.653855 
L 275.946832 76.653855 
L 275.946832 76.512282 
L 276.126282 76.512282 
L 276.126282 76.370709 
L 276.305732 76.370709 
L 276.664632 76.229136 
L 277.651607 76.229136 
L 277.741332 75.804417 
L 277.831057 75.804417 
L 277.831057 75.662844 
L 278.010507 75.662844 
L 278.010507 75.521271 
L 278.548858 75.521271 
L 278.548858 75.379698 
L 278.997483 75.096552 
L 279.894733 75.096552 
L 279.894733 74.954979 
L 280.343358 74.954979 
L 280.343358 74.813406 
L 280.702259 74.813406 
L 282.048134 74.671833 
L 282.048134 74.247114 
L 282.227584 74.247114 
L 282.945384 73.963968 
L 282.945384 73.822395 
L 284.29126 73.822395 
L 284.82961 73.680822 
L 284.82961 73.397676 
L 285.36796 73.397676 
L 285.36796 73.114529 
L 285.906311 73.114529 
L 285.906311 72.831383 
L 285.996036 72.831383 
L 286.983011 72.831383 
L 286.983011 72.68981 
L 287.431636 72.68981 
L 287.521361 72.548237 
L 287.790536 72.548237 
L 287.790536 72.406664 
L 288.149437 72.406664 
L 288.418612 72.265091 
L 288.508337 71.415653 
L 288.598062 71.415653 
L 288.598062 71.132507 
L 288.777512 71.132507 
L 288.867237 70.990934 
L 289.315862 70.990934 
L 289.405587 70.566215 
L 290.392562 70.566215 
L 290.392562 70.424642 
L 291.379538 70.424642 
L 291.379538 70.141496 
L 292.725413 70.141496 
L 292.904863 69.85835 
L 294.340464 69.85835 
L 294.519914 69.716777 
L 294.878814 69.716777 
L 295.058264 69.575204 
L 295.327439 69.575204 
L 295.327439 69.433631 
L 296.134965 69.150485 
L 298.826716 69.150485 
L 298.916441 68.725765 
L 299.095891 68.725765 
L 299.095891 68.584192 
L 299.993141 68.584192 
L 300.082866 68.159473 
L 300.441766 68.159473 
L 300.531491 67.876327 
L 301.608192 67.876327 
L 301.608192 67.734754 
L 301.967092 67.734754 
L 301.967092 67.593181 
L 302.056817 67.593181 
L 302.236267 67.168462 
L 303.133518 67.168462 
L 303.133518 67.026889 
L 303.223243 67.026889 
L 303.492418 67.026889 
L 303.492418 66.885316 
L 303.671868 66.885316 
L 303.671868 66.743743 
L 304.210218 66.743743 
L 304.210218 66.319024 
L 305.197193 66.319024 
L 305.197193 66.177451 
L 306.004719 66.177451 
L 306.004719 66.035878 
L 306.363619 66.035878 
L 306.363619 65.894305 
L 307.619769 65.894305 
L 307.709494 65.752732 
L 307.97867 65.752732 
L 308.15812 65.611159 
L 309.862895 65.611159 
L 310.042345 65.469586 
L 310.849871 65.469586 
L 310.849871 65.328013 
L 311.388221 65.328013 
L 311.388221 65.18644 
L 311.836846 65.18644 
L 311.836846 65.044867 
L 312.375196 65.044867 
L 312.375196 64.761721 
L 313.003272 64.761721 
L 313.182722 64.478574 
L 313.810797 64.478574 
L 313.810797 64.337001 
L 315.066947 64.337001 
L 315.156672 64.195428 
L 315.425848 64.195428 
L 315.425848 63.912282 
L 316.233373 63.912282 
L 316.412823 63.770709 
L 316.681998 63.770709 
L 316.681998 63.629136 
L 316.771723 63.629136 
L 317.489523 63.34599 
L 318.745674 63.34599 
L 318.745674 63.204417 
L 319.373749 63.204417 
L 319.373749 63.062844 
L 320.181274 63.062844 
L 320.181274 62.921271 
L 320.270999 62.921271 
L 320.899075 62.921271 
L 320.899075 62.779698 
L 321.616875 62.779698 
L 321.7066 62.213406 
L 322.0655 62.213406 
L 322.0655 62.071833 
L 322.334675 62.071833 
L 322.334675 61.93026 
L 322.4244 61.93026 
L 322.7833 61.93026 
L 322.962751 61.788687 
L 323.501101 61.788687 
L 323.860001 61.647114 
L 324.218901 61.647114 
L 324.218901 61.505541 
L 324.488076 61.505541 
L 324.488076 61.363968 
L 325.026426 61.363968 
L 325.026426 61.222395 
L 325.205876 61.222395 
L 325.205876 60.939249 
L 325.385327 60.939249 
L 325.385327 60.797676 
L 326.372302 60.797676 
L 326.551752 60.656103 
L 327.718177 60.656103 
L 327.718177 60.514529 
L 327.897628 60.514529 
L 327.987353 60.372956 
L 328.525703 60.372956 
L 328.705153 60.08981 
L 329.512678 60.08981 
L 330.948279 59.523518 
L 331.396904 59.523518 
L 331.666079 59.381945 
L 332.742779 59.381945 
L 332.832505 59.098799 
L 334.088655 59.098799 
L 334.17838 58.957226 
L 334.806455 58.957226 
L 335.07563 58.815653 
L 335.883156 58.815653 
L 335.883156 58.67408 
L 336.511231 58.67408 
L 336.600956 58.532507 
L 337.139306 58.532507 
L 337.139306 58.390934 
L 338.036557 58.390934 
L 338.036557 58.249361 
L 338.754357 58.249361 
L 338.844082 58.107788 
L 339.472157 58.107788 
L 340.189957 57.966215 
L 340.728308 57.966215 
L 340.728308 57.824642 
L 341.356383 57.824642 
L 341.535833 57.683069 
L 343.061159 57.683069 
L 343.061159 57.399923 
L 343.689234 57.399923 
L 343.689234 57.116777 
L 344.407034 57.116777 
L 344.407034 56.975204 
L 344.676209 56.975204 
L 344.765934 56.833631 
L 345.57346 56.833631 
L 345.57346 56.692058 
L 345.842635 56.692058 
L 345.842635 56.550485 
L 346.29126 56.550485 
L 346.29126 56.408912 
L 346.380985 56.408912 
L 348.893286 56.408912 
L 349.072736 56.267338 
L 349.611086 56.267338 
L 349.611086 56.125765 
L 350.239162 56.125765 
L 350.328887 55.984192 
L 351.136412 55.984192 
L 351.136412 55.842619 
L 353.110363 55.842619 
L 353.738438 55.559473 
L 354.635688 55.4179 
L 354.635688 55.134754 
L 356.519914 55.134754 
L 356.519914 54.851608 
L 356.609639 54.851608 
L 357.506889 54.851608 
L 357.68634 54.710035 
L 358.04524 54.710035 
L 358.134965 54.568462 
L 358.58359 54.568462 
L 358.58359 54.426889 
L 358.94249 54.426889 
L 359.032215 54.285316 
L 359.66029 54.285316 
L 359.66029 54.143743 
L 363.339017 54.143743 
L 363.339017 54.00217 
L 365.133518 54.00217 
L 365.133518 53.860597 
L 365.851318 53.860597 
L 365.851318 53.719024 
L 366.928018 53.719024 
L 367.107468 53.577451 
L 368.363619 53.577451 
L 368.453344 53.294305 
L 368.543069 53.294305 
L 368.543069 53.152732 
L 369.260869 53.152732 
L 369.260869 53.011159 
L 369.619769 53.011159 
L 369.619769 52.869586 
L 369.799219 52.869586 
L 369.799219 52.728013 
L 373.208771 52.728013 
L 373.298496 52.444867 
L 373.657396 52.444867 
L 373.657396 52.303294 
L 374.554646 52.303294 
L 374.644371 51.878574 
L 375.362172 51.878574 
L 375.631347 51.595428 
L 375.990247 51.595428 
L 375.990247 51.312282 
L 376.349147 51.312282 
L 376.349147 51.170709 
L 376.438872 51.170709 
L 376.977222 51.170709 
L 377.066947 50.887563 
L 378.323098 50.887563 
L 378.502548 50.74599 
L 378.951173 50.74599 
L 378.951173 50.604417 
L 381.822374 50.604417 
L 381.912099 50.462844 
L 382.9888 50.462844 
L 382.9888 50.321271 
L 384.0655 50.321271 
L 384.0655 50.179698 
L 384.693575 50.179698 
L 384.7833 50.038125 
L 385.411376 50.038125 
L 385.411376 49.896552 
L 387.295601 49.896552 
L 387.385327 49.754979 
L 389.807902 49.754979 
L 389.897628 49.471833 
L 390.166803 49.471833 
L 390.256528 49.33026 
L 390.525703 49.33026 
L 390.525703 49.188687 
L 391.781853 49.188687 
L 391.871578 49.047114 
L 392.768829 49.047114 
L 392.858554 48.905541 
L 393.576354 48.905541 
L 393.666079 48.763968 
L 394.742779 48.763968 
L 394.742779 48.622395 
L 395.909205 48.622395 
L 395.99893 48.480822 
L 396.806455 48.480822 
L 396.89618 48.339249 
L 400.664632 48.339249 
L 400.664632 48.197676 
L 401.023532 48.197676 
L 401.023532 48.056103 
L 401.831057 48.056103 
L 401.831057 47.914529 
L 402.369408 47.914529 
L 402.548858 47.772956 
L 402.997483 47.772956 
L 402.997483 47.631383 
L 405.150884 47.631383 
L 405.240609 47.48981 
L 406.496759 47.48981 
L 406.496759 47.348237 
L 407.57346 47.348237 
L 407.57346 47.206664 
L 408.380985 47.206664 
L 408.380985 47.065091 
L 408.47071 47.065091 
L 408.65016 47.065091 
L 408.65016 46.923518 
L 408.82961 46.923518 
L 408.919335 46.781945 
L 409.726861 46.781945 
L 409.726861 46.640372 
L 409.816586 46.640372 
L 418.161014 46.640372 
L 418.161014 46.498799 
L 419.417164 46.498799 
L 419.86579 46.357226 
L 420.134965 46.357226 
L 420.134965 46.07408 
L 420.22469 46.07408 
L 421.391115 46.07408 
L 421.391115 45.932507 
L 422.647266 45.932507 
L 422.647266 45.790934 
L 422.916441 45.790934 
L 422.916441 45.649361 
L 424.531491 45.649361 
L 424.531491 45.507788 
L 424.621217 45.507788 
L 425.608192 45.507788 
L 425.608192 45.366215 
L 426.684892 45.366215 
L 426.684892 45.083069 
L 428.479393 45.083069 
L 428.569118 44.941496 
L 429.017743 44.941496 
L 429.017743 44.799923 
L 430.991694 44.799923 
L 430.991694 44.65835 
L 431.081419 44.65835 
L 434.042345 44.65835 
L 434.042345 44.516777 
L 434.31152 44.516777 
L 434.31152 44.375204 
L 434.760146 44.375204 
L 434.760146 44.233631 
L 435.388221 44.233631 
L 435.388221 44.092058 
L 436.106021 44.092058 
L 436.106021 43.950485 
L 437.990247 43.950485 
L 437.990247 43.808912 
L 438.079972 43.808912 
L 438.349147 43.808912 
L 438.349147 43.667338 
L 439.964198 43.667338 
L 439.964198 43.525765 
L 442.386774 43.525765 
L 442.386774 43.384192 
L 442.476499 43.384192 
L 443.732649 43.384192 
L 443.912099 43.101046 
L 444.45045 43.101046 
L 444.45045 42.959473 
L 448.667526 42.959473 
L 448.757251 42.8179 
L 450.462027 42.8179 
L 450.551752 42.676327 
L 451.628452 42.676327 
L 451.628452 42.534754 
L 451.987353 42.534754 
L 451.987353 42.393181 
L 453.422953 42.393181 
L 453.422953 42.251608 
L 454.679104 42.251608 
L 454.948279 42.110035 
L 457.28113 42.110035 
L 457.28113 41.968462 
L 458.985905 41.968462 
L 458.985905 41.826889 
L 460.421506 41.826889 
L 460.421506 41.685316 
L 460.511231 41.685316 
L 464.548858 41.685316 
L 464.548858 41.543743 
L 465.535833 41.543743 
L 465.625558 41.260597 
L 465.805008 41.260597 
L 465.805008 41.119024 
L 466.612533 41.119024 
L 466.612533 40.977451 
L 468.855659 40.977451 
L 468.855659 40.835878 
L 469.93236 40.835878 
L 469.93236 40.552732 
L 470.82961 40.552732 
L 473.072736 40.411159 
L 476.213112 40.411159 
L 476.213112 40.269586 
L 477.020638 40.269586 
L 477.020638 40.128013 
L 478.097338 40.128013 
L 478.097338 39.98644 
L 478.187063 39.98644 
L 481.86579 39.98644 
L 481.86579 39.844867 
L 482.314415 39.844867 
L 482.493865 39.703294 
L 484.467816 39.703294 
L 485.275341 39.561721 
L 494.51702 39.561721 
L 494.51702 39.420147 
L 499.362172 39.420147 
L 499.362172 39.278574 
L 500.259422 39.278574 
L 500.528597 39.137001 
L 500.797772 39.137001 
L 500.887497 38.995428 
L 504.655949 38.995428 
L 504.835399 38.853855 
L 505.912099 38.853855 
L 505.912099 38.712282 
L 506.001824 38.712282 
L 506.80935 38.712282 
L 506.9888 38.570709 
L 516.948279 38.570709 
L 516.948279 38.429136 
L 518.653054 38.429136 
L 518.92223 38.14599 
L 522.062606 38.14599 
L 522.062606 38.004417 
L 527.087208 38.004417 
L 527.356383 37.862844 
L 531.842635 37.862844 
L 531.842635 37.721271 
L 536.059711 37.721271 
L 536.508337 37.579698 
L 547.185616 37.579698 
L 547.454791 37.438125 
L 631.616875 37.438125 
L 631.616875 37.438125 
" clip-path="url(#pab1275f2c6)" style="fill: none; stroke: #1f77b4; stroke-width: 1.5; stroke-linecap: square"/>
   </g>
   <g id="line2d_26">
    <path d="M 73.616875 339.838125 
L 73.616875 259.383079 
L 74.291603 259.383079 
L 74.291603 251.060143 
L 76.315787 251.060143 
L 76.990515 248.285831 
L 78.339971 248.285831 
L 78.339971 226.091336 
L 79.689426 226.091336 
L 79.689426 214.994088 
L 85.761978 214.994088 
L 85.761978 212.219776 
L 86.436706 212.219776 
L 86.436706 203.896841 
L 87.111434 203.896841 
L 87.111434 201.122529 
L 88.46089 201.122529 
L 88.46089 198.348217 
L 91.159801 198.348217 
L 91.159801 192.799593 
L 93.858713 192.799593 
L 93.858713 190.025281 
L 95.882897 190.025281 
L 95.882897 187.250969 
L 99.256536 187.250969 
L 99.256536 181.702345 
L 107.353272 181.702345 
L 107.353272 178.928033 
L 117.474191 178.928033 
L 117.474191 176.153721 
L 120.84783 176.153721 
L 120.84783 173.379409 
L 122.872014 173.379409 
L 122.872014 170.605097 
L 132.318205 170.605097 
L 132.318205 165.056474 
L 132.992933 165.056474 
L 132.992933 162.282162 
L 135.017117 162.282162 
L 135.017117 159.50785 
L 137.041301 159.50785 
L 137.041301 156.733538 
L 141.089668 156.733538 
L 141.089668 153.959226 
L 141.764396 153.959226 
L 142.439124 151.184914 
L 145.812764 151.184914 
L 145.812764 148.410602 
L 147.836948 148.410602 
L 149.186403 145.63629 
L 149.186403 140.087666 
L 153.234771 140.087666 
L 153.234771 137.313354 
L 154.584227 137.313354 
L 154.584227 134.539042 
L 157.957867 134.539042 
L 159.307322 131.764731 
L 166.72933 131.764731 
L 166.72933 128.990419 
L 179.54916 128.990419 
L 179.54916 123.441795 
L 180.223888 123.441795 
L 180.223888 120.667483 
L 188.320623 120.667483 
L 188.320623 117.893171 
L 191.019535 117.893171 
L 191.019535 115.118859 
L 193.718447 115.118859 
L 197.092087 106.795923 
L 201.140454 106.795923 
L 201.140454 104.021611 
L 203.164638 104.021611 
L 203.839366 101.247299 
L 203.839366 98.472987 
L 207.213006 98.472987 
L 207.213006 95.698675 
L 207.887734 92.924364 
L 214.635013 92.924364 
L 214.635013 90.150052 
L 218.008653 90.150052 
L 218.008653 87.37574 
L 220.032836 87.37574 
L 220.032836 84.601428 
L 221.382292 84.601428 
L 222.05702 81.827116 
L 233.527395 81.827116 
L 233.527395 79.052804 
L 274.685799 79.052804 
L 275.360527 76.278492 
L 282.782534 76.278492 
L 282.782534 73.50418 
L 283.457262 73.50418 
L 283.457262 70.729868 
L 305.048556 70.729868 
L 305.048556 67.955556 
L 307.07274 67.955556 
L 307.07274 65.181244 
L 343.508048 65.181244 
L 343.508048 62.406932 
L 353.628967 62.406932 
L 353.628967 59.63262 
L 354.978423 59.63262 
L 354.978423 56.858308 
L 359.701518 56.858308 
L 359.701518 54.083997 
L 373.870805 54.083997 
L 373.870805 51.309685 
L 381.292812 51.309685 
L 381.292812 48.535373 
L 384.666452 48.535373 
L 384.666452 45.761061 
L 390.739003 45.761061 
L 390.739003 42.986749 
L 408.281929 42.986749 
L 408.281929 40.212437 
L 416.378665 40.212437 
L 417.053393 37.438125 
L 631.616875 37.438125 
L 631.616875 37.438125 
" clip-path="url(#pab1275f2c6)" style="fill: none; stroke: #ff7f0e; stroke-width: 1.5; stroke-linecap: square"/>
   </g>
   <g id="line2d_27">
    <path d="M 73.616875 339.838125 
L 73.616875 335.806125 
L 73.616875 255.166125 
L 76.107946 255.166125 
L 76.107946 243.070125 
L 81.090089 243.070125 
L 81.090089 239.038125 
L 83.581161 239.038125 
L 83.581161 230.974125 
L 83.581161 222.910125 
L 88.563304 222.910125 
L 88.563304 210.814125 
L 91.054375 210.814125 
L 91.054375 206.782125 
L 96.036518 206.782125 
L 96.036518 198.718125 
L 98.527589 198.718125 
L 98.527589 194.686125 
L 106.000804 194.686125 
L 106.000804 190.654125 
L 108.491875 190.654125 
L 108.491875 186.622125 
L 113.474018 186.622125 
L 118.456161 182.590125 
L 118.456161 178.558125 
L 120.947232 178.558125 
L 120.947232 174.526125 
L 123.438304 174.526125 
L 123.438304 170.494125 
L 130.911518 170.494125 
L 130.911518 162.430125 
L 133.402589 162.430125 
L 133.402589 158.398125 
L 143.366875 158.398125 
L 143.366875 154.366125 
L 145.857946 154.366125 
L 145.857946 150.334125 
L 150.840089 150.334125 
L 150.840089 146.302125 
L 170.768661 146.302125 
L 170.768661 142.270125 
L 180.732946 142.270125 
L 180.732946 134.206125 
L 198.170446 134.206125 
L 198.170446 126.142125 
L 203.152589 126.142125 
L 205.643661 122.110125 
L 208.134732 122.110125 
L 208.134732 118.078125 
L 230.554375 118.078125 
L 230.554375 105.982125 
L 250.482946 105.982125 
L 250.482946 93.886125 
L 252.974018 93.886125 
L 252.974018 85.822125 
L 267.920446 85.822125 
L 272.902589 85.822125 
L 272.902589 81.790125 
L 292.831161 81.790125 
L 292.831161 77.758125 
L 300.304375 77.758125 
L 307.777589 77.758125 
L 307.777589 73.726125 
L 310.268661 73.726125 
L 310.268661 69.694125 
L 325.215089 69.694125 
L 325.215089 65.662125 
L 332.688304 65.662125 
L 337.670446 65.662125 
L 337.670446 61.630125 
L 350.125804 61.630125 
L 350.125804 57.598125 
L 414.893661 57.598125 
L 414.893661 53.566125 
L 429.840089 53.566125 
L 429.840089 49.534125 
L 449.768661 49.534125 
L 454.750804 49.534125 
L 474.679375 49.534125 
L 474.679375 45.502125 
L 482.152589 45.502125 
L 492.116875 45.502125 
L 514.536518 45.502125 
L 514.536518 41.470125 
L 544.429375 41.470125 
L 544.429375 37.438125 
L 559.375804 37.438125 
L 564.357946 37.438125 
L 631.616875 37.438125 
" clip-path="url(#pab1275f2c6)" style="fill: none; stroke: #2ca02c; stroke-width: 1.5; stroke-linecap: square"/>
   </g>
   <g id="line2d_28">
    <path d="M 73.616875 339.838125 
L 73.616875 302.038125 
L 93.78555 302.038125 
L 107.231333 302.038125 
L 140.845791 302.038125 
L 140.845791 264.238125 
L 221.520489 264.238125 
L 221.520489 226.438125 
L 241.689164 226.438125 
L 241.689164 188.638125 
L 255.134947 188.638125 
L 329.086755 188.638125 
L 329.086755 150.838125 
L 335.809646 150.838125 
L 335.809646 113.038125 
L 403.038562 113.038125 
L 403.038562 75.238125 
L 463.544586 75.238125 
L 476.990369 75.238125 
L 517.327718 75.238125 
L 517.327718 37.438125 
L 631.616875 37.438125 
" clip-path="url(#pab1275f2c6)" style="fill: none; stroke: #d62728; stroke-width: 1.5; stroke-linecap: square"/>
   </g>
   <g id="line2d_29">
    <path d="M 73.616875 339.838125 
L 73.616875 309.598125 
L 73.616875 188.638125 
L 87.924567 188.638125 
L 87.924567 158.398125 
L 95.078413 158.398125 
L 95.078413 128.158125 
L 145.155337 128.158125 
L 145.155337 97.918125 
L 152.309183 97.918125 
L 152.309183 67.678125 
L 223.847644 67.678125 
L 223.847644 37.438125 
L 631.616875 37.438125 
" clip-path="url(#pab1275f2c6)" style="fill: none; stroke: #9467bd; stroke-width: 1.5; stroke-linecap: square"/>
   </g>
   <g id="line2d_30">
    <path d="M 73.616875 339.838125 
L 631.616875 37.438125 
" clip-path="url(#pab1275f2c6)" style="fill: none; stroke-dasharray: 7.4,3.2; stroke-dashoffset: 0; stroke: #808080; stroke-width: 2"/>
   </g>
   <g id="patch_3">
    <path d="M 45.716875 354.958125 
L 45.716875 22.318125 
" style="fill: none; stroke: #000000; stroke-width: 0.8; stroke-linejoin: miter; stroke-linecap: square"/>
   </g>
   <g id="patch_4">
    <path d="M 659.516875 354.958125 
L 659.516875 22.318125 
" style="fill: none; stroke: #000000; stroke-width: 0.8; stroke-linejoin: miter; stroke-linecap: square"/>
   </g>
   <g id="patch_5">
    <path d="M 45.716875 354.958125 
L 659.516875 354.958125 
" style="fill: none; stroke: #000000; stroke-width: 0.8; stroke-linejoin: miter; stroke-linecap: square"/>
   </g>
   <g id="patch_6">
    <path d="M 45.716875 22.318125 
L 659.516875 22.318125 
" style="fill: none; stroke: #000000; stroke-width: 0.8; stroke-linejoin: miter; stroke-linecap: square"/>
   </g>
   <g id="text_15">
    <!-- ROC Curve: Random Forest Classifier -->
    <g transform="translate(241.55125 16.318125) scale(0.12 -0.12)">
     <defs>
      <path id="DejaVuSans-4f" d="M 2522 4238 
Q 1834 4238 1429 3725 
Q 1025 3213 1025 2328 
Q 1025 1447 1429 934 
Q 1834 422 2522 422 
Q 3209 422 3611 934 
Q 4013 1447 4013 2328 
Q 4013 3213 3611 3725 
Q 3209 4238 2522 4238 
z
M 2522 4750 
Q 3503 4750 4090 4092 
Q 4678 3434 4678 2328 
Q 4678 1225 4090 567 
Q 3503 -91 2522 -91 
Q 1538 -91 948 565 
Q 359 1222 359 2328 
Q 359 3434 948 4092 
Q 1538 4750 2522 4750 
z
" transform="scale(0.015625)"/>
      <path id="DejaVuSans-43" d="M 4122 4306 
L 4122 3641 
Q 3803 3938 3442 4084 
Q 3081 4231 2675 4231 
Q 1875 4231 1450 3742 
Q 1025 3253 1025 2328 
Q 1025 1406 1450 917 
Q 1875 428 2675 428 
Q 3081 428 3442 575 
Q 3803 722 4122 1019 
L 4122 359 
Q 3791 134 3420 21 
Q 3050 -91 2638 -91 
Q 1578 -91 968 557 
Q 359 1206 359 2328 
Q 359 3453 968 4101 
Q 1578 4750 2638 4750 
Q 3056 4750 3426 4639 
Q 3797 4528 4122 4306 
z
" transform="scale(0.015625)"/>
      <path id="DejaVuSans-3a" d="M 750 794 
L 1409 794 
L 1409 0 
L 750 0 
L 750 794 
z
M 750 3309 
L 1409 3309 
L 1409 2516 
L 750 2516 
L 750 3309 
z
" transform="scale(0.015625)"/>
      <path id="DejaVuSans-6e" d="M 3513 2113 
L 3513 0 
L 2938 0 
L 2938 2094 
Q 2938 2591 2744 2837 
Q 2550 3084 2163 3084 
Q 1697 3084 1428 2787 
Q 1159 2491 1159 1978 
L 1159 0 
L 581 0 
L 581 3500 
L 1159 3500 
L 1159 2956 
Q 1366 3272 1645 3428 
Q 1925 3584 2291 3584 
Q 2894 3584 3203 3211 
Q 3513 2838 3513 2113 
z
" transform="scale(0.015625)"/>
      <path id="DejaVuSans-64" d="M 2906 2969 
L 2906 4863 
L 3481 4863 
L 3481 0 
L 2906 0 
L 2906 525 
Q 2725 213 2448 61 
Q 2172 -91 1784 -91 
Q 1150 -91 751 415 
Q 353 922 353 1747 
Q 353 2572 751 3078 
Q 1150 3584 1784 3584 
Q 2172 3584 2448 3432 
Q 2725 3281 2906 2969 
z
M 947 1747 
Q 947 1113 1208 752 
Q 1469 391 1925 391 
Q 2381 391 2643 752 
Q 2906 1113 2906 1747 
Q 2906 2381 2643 2742 
Q 2381 3103 1925 3103 
Q 1469 3103 1208 2742 
Q 947 2381 947 1747 
z
" transform="scale(0.015625)"/>
      <path id="DejaVuSans-6d" d="M 3328 2828 
Q 3544 3216 3844 3400 
Q 4144 3584 4550 3584 
Q 5097 3584 5394 3201 
Q 5691 2819 5691 2113 
L 5691 0 
L 5113 0 
L 5113 2094 
Q 5113 2597 4934 2840 
Q 4756 3084 4391 3084 
Q 3944 3084 3684 2787 
Q 3425 2491 3425 1978 
L 3425 0 
L 2847 0 
L 2847 2094 
Q 2847 2600 2669 2842 
Q 2491 3084 2119 3084 
Q 1678 3084 1418 2786 
Q 1159 2488 1159 1978 
L 1159 0 
L 581 0 
L 581 3500 
L 1159 3500 
L 1159 2956 
Q 1356 3278 1631 3431 
Q 1906 3584 2284 3584 
Q 2666 3584 2933 3390 
Q 3200 3197 3328 2828 
z
" transform="scale(0.015625)"/>
      <path id="DejaVuSans-66" d="M 2375 4863 
L 2375 4384 
L 1825 4384 
Q 1516 4384 1395 4259 
Q 1275 4134 1275 3809 
L 1275 3500 
L 2222 3500 
L 2222 3053 
L 1275 3053 
L 1275 0 
L 697 0 
L 697 3053 
L 147 3053 
L 147 3500 
L 697 3500 
L 697 3744 
Q 697 4328 969 4595 
Q 1241 4863 1831 4863 
L 2375 4863 
z
" transform="scale(0.015625)"/>
     </defs>
     <use xlink:href="#DejaVuSans-52"/>
     <use xlink:href="#DejaVuSans-4f" x="69.482422"/>
     <use xlink:href="#DejaVuSans-43" x="148.193359"/>
     <use xlink:href="#DejaVuSans-20" x="218.017578"/>
     <use xlink:href="#DejaVuSans-43" x="249.804688"/>
     <use xlink:href="#DejaVuSans-75" x="319.628906"/>
     <use xlink:href="#DejaVuSans-72" x="383.007812"/>
     <use xlink:href="#DejaVuSans-76" x="424.121094"/>
     <use xlink:href="#DejaVuSans-65" x="483.300781"/>
     <use xlink:href="#DejaVuSans-3a" x="544.824219"/>
     <use xlink:href="#DejaVuSans-20" x="578.515625"/>
     <use xlink:href="#DejaVuSans-52" x="610.302734"/>
     <use xlink:href="#DejaVuSans-61" x="677.535156"/>
     <use xlink:href="#DejaVuSans-6e" x="738.814453"/>
     <use xlink:href="#DejaVuSans-64" x="802.193359"/>
     <use xlink:href="#DejaVuSans-6f" x="865.669922"/>
     <use xlink:href="#DejaVuSans-6d" x="926.851562"/>
     <use xlink:href="#DejaVuSans-20" x="1024.263672"/>
     <use xlink:href="#DejaVuSans-46" x="1056.050781"/>
     <use xlink:href="#DejaVuSans-6f" x="1109.945312"/>
     <use xlink:href="#DejaVuSans-72" x="1171.126953"/>
     <use xlink:href="#DejaVuSans-65" x="1209.990234"/>
     <use xlink:href="#DejaVuSans-73" x="1271.513672"/>
     <use xlink:href="#DejaVuSans-74" x="1323.613281"/>
     <use xlink:href="#DejaVuSans-20" x="1362.822266"/>
     <use xlink:href="#DejaVuSans-43" x="1394.609375"/>
     <use xlink:href="#DejaVuSans-6c" x="1464.433594"/>
     <use xlink:href="#DejaVuSans-61" x="1492.216797"/>
     <use xlink:href="#DejaVuSans-73" x="1553.496094"/>
     <use xlink:href="#DejaVuSans-73" x="1605.595703"/>
     <use xlink:href="#DejaVuSans-69" x="1657.695312"/>
     <use xlink:href="#DejaVuSans-66" x="1685.478516"/>
     <use xlink:href="#DejaVuSans-69" x="1720.683594"/>
     <use xlink:href="#DejaVuSans-65" x="1748.466797"/>
     <use xlink:href="#DejaVuSans-72" x="1809.990234"/>
    </g>
   </g>
   <g id="legend_1">
    <g id="patch_7">
     <path d="M 173.484063 500.922875 
L 531.749688 500.922875 
Q 533.749688 500.922875 533.749688 498.922875 
L 533.749688 411.854125 
Q 533.749688 409.854125 531.749688 409.854125 
L 173.484063 409.854125 
Q 171.484063 409.854125 171.484063 411.854125 
L 171.484063 498.922875 
Q 171.484063 500.922875 173.484063 500.922875 
z
" style="fill: #ffffff; opacity: 0.8; stroke: #cccccc; stroke-linejoin: miter"/>
    </g>
    <g id="line2d_31">
     <path d="M 175.484063 417.952562 
L 185.484063 417.952562 
L 195.484063 417.952562 
" style="fill: none; stroke: #1f77b4; stroke-width: 1.5; stroke-linecap: square"/>
    </g>
    <g id="text_16">
     <!-- AUC for White = 0.86, Count: 8,355, Pos: 2,136, Neg: 6,219 -->
     <g transform="translate(203.484063 421.452562) scale(0.1 -0.1)">
      <defs>
       <path id="DejaVuSans-41" d="M 2188 4044 
L 1331 1722 
L 3047 1722 
L 2188 4044 
z
M 1831 4666 
L 2547 4666 
L 4325 0 
L 3669 0 
L 3244 1197 
L 1141 1197 
L 716 0 
L 50 0 
L 1831 4666 
z
" transform="scale(0.015625)"/>
       <path id="DejaVuSans-55" d="M 556 4666 
L 1191 4666 
L 1191 1831 
Q 1191 1081 1462 751 
Q 1734 422 2344 422 
Q 2950 422 3222 751 
Q 3494 1081 3494 1831 
L 3494 4666 
L 4128 4666 
L 4128 1753 
Q 4128 841 3676 375 
Q 3225 -91 2344 -91 
Q 1459 -91 1007 375 
Q 556 841 556 1753 
L 556 4666 
z
" transform="scale(0.015625)"/>
       <path id="DejaVuSans-57" d="M 213 4666 
L 850 4666 
L 1831 722 
L 2809 4666 
L 3519 4666 
L 4500 722 
L 5478 4666 
L 6119 4666 
L 4947 0 
L 4153 0 
L 3169 4050 
L 2175 0 
L 1381 0 
L 213 4666 
z
" transform="scale(0.015625)"/>
       <path id="DejaVuSans-68" d="M 3513 2113 
L 3513 0 
L 2938 0 
L 2938 2094 
Q 2938 2591 2744 2837 
Q 2550 3084 2163 3084 
Q 1697 3084 1428 2787 
Q 1159 2491 1159 1978 
L 1159 0 
L 581 0 
L 581 4863 
L 1159 4863 
L 1159 2956 
Q 1366 3272 1645 3428 
Q 1925 3584 2291 3584 
Q 2894 3584 3203 3211 
Q 3513 2838 3513 2113 
z
" transform="scale(0.015625)"/>
       <path id="DejaVuSans-3d" d="M 678 2906 
L 4684 2906 
L 4684 2381 
L 678 2381 
L 678 2906 
z
M 678 1631 
L 4684 1631 
L 4684 1100 
L 678 1100 
L 678 1631 
z
" transform="scale(0.015625)"/>
       <path id="DejaVuSans-2c" d="M 750 794 
L 1409 794 
L 1409 256 
L 897 -744 
L 494 -744 
L 750 256 
L 750 794 
z
" transform="scale(0.015625)"/>
       <path id="DejaVuSans-33" d="M 2597 2516 
Q 3050 2419 3304 2112 
Q 3559 1806 3559 1356 
Q 3559 666 3084 287 
Q 2609 -91 1734 -91 
Q 1441 -91 1130 -33 
Q 819 25 488 141 
L 488 750 
Q 750 597 1062 519 
Q 1375 441 1716 441 
Q 2309 441 2620 675 
Q 2931 909 2931 1356 
Q 2931 1769 2642 2001 
Q 2353 2234 1838 2234 
L 1294 2234 
L 1294 2753 
L 1863 2753 
Q 2328 2753 2575 2939 
Q 2822 3125 2822 3475 
Q 2822 3834 2567 4026 
Q 2313 4219 1838 4219 
Q 1578 4219 1281 4162 
Q 984 4106 628 3988 
L 628 4550 
Q 988 4650 1302 4700 
Q 1616 4750 1894 4750 
Q 2613 4750 3031 4423 
Q 3450 4097 3450 3541 
Q 3450 3153 3228 2886 
Q 3006 2619 2597 2516 
z
" transform="scale(0.015625)"/>
       <path id="DejaVuSans-35" d="M 691 4666 
L 3169 4666 
L 3169 4134 
L 1269 4134 
L 1269 2991 
Q 1406 3038 1543 3061 
Q 1681 3084 1819 3084 
Q 2600 3084 3056 2656 
Q 3513 2228 3513 1497 
Q 3513 744 3044 326 
Q 2575 -91 1722 -91 
Q 1428 -91 1123 -41 
Q 819 9 494 109 
L 494 744 
Q 775 591 1075 516 
Q 1375 441 1709 441 
Q 2250 441 2565 725 
Q 2881 1009 2881 1497 
Q 2881 1984 2565 2268 
Q 2250 2553 1709 2553 
Q 1456 2553 1204 2497 
Q 953 2441 691 2322 
L 691 4666 
z
" transform="scale(0.015625)"/>
       <path id="DejaVuSans-4e" d="M 628 4666 
L 1478 4666 
L 3547 763 
L 3547 4666 
L 4159 4666 
L 4159 0 
L 3309 0 
L 1241 3903 
L 1241 0 
L 628 0 
L 628 4666 
z
" transform="scale(0.015625)"/>
       <path id="DejaVuSans-67" d="M 2906 1791 
Q 2906 2416 2648 2759 
Q 2391 3103 1925 3103 
Q 1463 3103 1205 2759 
Q 947 2416 947 1791 
Q 947 1169 1205 825 
Q 1463 481 1925 481 
Q 2391 481 2648 825 
Q 2906 1169 2906 1791 
z
M 3481 434 
Q 3481 -459 3084 -895 
Q 2688 -1331 1869 -1331 
Q 1566 -1331 1297 -1286 
Q 1028 -1241 775 -1147 
L 775 -588 
Q 1028 -725 1275 -790 
Q 1522 -856 1778 -856 
Q 2344 -856 2625 -561 
Q 2906 -266 2906 331 
L 2906 616 
Q 2728 306 2450 153 
Q 2172 0 1784 0 
Q 1141 0 747 490 
Q 353 981 353 1791 
Q 353 2603 747 3093 
Q 1141 3584 1784 3584 
Q 2172 3584 2450 3431 
Q 2728 3278 2906 2969 
L 2906 3500 
L 3481 3500 
L 3481 434 
z
" transform="scale(0.015625)"/>
       <path id="DejaVuSans-39" d="M 703 97 
L 703 672 
Q 941 559 1184 500 
Q 1428 441 1663 441 
Q 2288 441 2617 861 
Q 2947 1281 2994 2138 
Q 2813 1869 2534 1725 
Q 2256 1581 1919 1581 
Q 1219 1581 811 2004 
Q 403 2428 403 3163 
Q 403 3881 828 4315 
Q 1253 4750 1959 4750 
Q 2769 4750 3195 4129 
Q 3622 3509 3622 2328 
Q 3622 1225 3098 567 
Q 2575 -91 1691 -91 
Q 1453 -91 1209 -44 
Q 966 3 703 97 
z
M 1959 2075 
Q 2384 2075 2632 2365 
Q 2881 2656 2881 3163 
Q 2881 3666 2632 3958 
Q 2384 4250 1959 4250 
Q 1534 4250 1286 3958 
Q 1038 3666 1038 3163 
Q 1038 2656 1286 2365 
Q 1534 2075 1959 2075 
z
" transform="scale(0.015625)"/>
      </defs>
      <use xlink:href="#DejaVuSans-41"/>
      <use xlink:href="#DejaVuSans-55" x="68.408203"/>
      <use xlink:href="#DejaVuSans-43" x="141.601562"/>
      <use xlink:href="#DejaVuSans-20" x="211.425781"/>
      <use xlink:href="#DejaVuSans-66" x="243.212891"/>
      <use xlink:href="#DejaVuSans-6f" x="278.417969"/>
      <use xlink:href="#DejaVuSans-72" x="339.599609"/>
      <use xlink:href="#DejaVuSans-20" x="380.712891"/>
      <use xlink:href="#DejaVuSans-57" x="412.5"/>
      <use xlink:href="#DejaVuSans-68" x="511.376953"/>
      <use xlink:href="#DejaVuSans-69" x="574.755859"/>
      <use xlink:href="#DejaVuSans-74" x="602.539062"/>
      <use xlink:href="#DejaVuSans-65" x="641.748047"/>
      <use xlink:href="#DejaVuSans-20" x="703.271484"/>
      <use xlink:href="#DejaVuSans-3d" x="735.058594"/>
      <use xlink:href="#DejaVuSans-20" x="818.847656"/>
      <use xlink:href="#DejaVuSans-30" x="850.634766"/>
      <use xlink:href="#DejaVuSans-2e" x="914.257812"/>
      <use xlink:href="#DejaVuSans-38" x="946.044922"/>
      <use xlink:href="#DejaVuSans-36" x="1009.667969"/>
      <use xlink:href="#DejaVuSans-2c" x="1073.291016"/>
      <use xlink:href="#DejaVuSans-20" x="1105.078125"/>
      <use xlink:href="#DejaVuSans-43" x="1136.865234"/>
      <use xlink:href="#DejaVuSans-6f" x="1206.689453"/>
      <use xlink:href="#DejaVuSans-75" x="1267.871094"/>
      <use xlink:href="#DejaVuSans-6e" x="1331.25"/>
      <use xlink:href="#DejaVuSans-74" x="1394.628906"/>
      <use xlink:href="#DejaVuSans-3a" x="1433.837891"/>
      <use xlink:href="#DejaVuSans-20" x="1467.529297"/>
      <use xlink:href="#DejaVuSans-38" x="1499.316406"/>
      <use xlink:href="#DejaVuSans-2c" x="1562.939453"/>
      <use xlink:href="#DejaVuSans-33" x="1594.726562"/>
      <use xlink:href="#DejaVuSans-35" x="1658.349609"/>
      <use xlink:href="#DejaVuSans-35" x="1721.972656"/>
      <use xlink:href="#DejaVuSans-2c" x="1785.595703"/>
      <use xlink:href="#DejaVuSans-20" x="1817.382812"/>
      <use xlink:href="#DejaVuSans-50" x="1849.169922"/>
      <use xlink:href="#DejaVuSans-6f" x="1905.847656"/>
      <use xlink:href="#DejaVuSans-73" x="1967.029297"/>
      <use xlink:href="#DejaVuSans-3a" x="2019.128906"/>
      <use xlink:href="#DejaVuSans-20" x="2052.820312"/>
      <use xlink:href="#DejaVuSans-32" x="2084.607422"/>
      <use xlink:href="#DejaVuSans-2c" x="2148.230469"/>
      <use xlink:href="#DejaVuSans-31" x="2180.017578"/>
      <use xlink:href="#DejaVuSans-33" x="2243.640625"/>
      <use xlink:href="#DejaVuSans-36" x="2307.263672"/>
      <use xlink:href="#DejaVuSans-2c" x="2370.886719"/>
      <use xlink:href="#DejaVuSans-20" x="2402.673828"/>
      <use xlink:href="#DejaVuSans-4e" x="2434.460938"/>
      <use xlink:href="#DejaVuSans-65" x="2509.265625"/>
      <use xlink:href="#DejaVuSans-67" x="2570.789062"/>
      <use xlink:href="#DejaVuSans-3a" x="2634.265625"/>
      <use xlink:href="#DejaVuSans-20" x="2667.957031"/>
      <use xlink:href="#DejaVuSans-36" x="2699.744141"/>
      <use xlink:href="#DejaVuSans-2c" x="2763.367188"/>
      <use xlink:href="#DejaVuSans-32" x="2795.154297"/>
      <use xlink:href="#DejaVuSans-31" x="2858.777344"/>
      <use xlink:href="#DejaVuSans-39" x="2922.400391"/>
     </g>
    </g>
    <g id="line2d_32">
     <path d="M 175.484063 432.630688 
L 185.484063 432.630688 
L 195.484063 432.630688 
" style="fill: none; stroke: #ff7f0e; stroke-width: 1.5; stroke-linecap: square"/>
    </g>
    <g id="text_17">
     <!-- AUC for Black = 0.87, Count: 936, Pos: 109, Neg: 827 -->
     <g transform="translate(203.484063 436.130688) scale(0.1 -0.1)">
      <defs>
       <path id="DejaVuSans-42" d="M 1259 2228 
L 1259 519 
L 2272 519 
Q 2781 519 3026 730 
Q 3272 941 3272 1375 
Q 3272 1813 3026 2020 
Q 2781 2228 2272 2228 
L 1259 2228 
z
M 1259 4147 
L 1259 2741 
L 2194 2741 
Q 2656 2741 2882 2914 
Q 3109 3088 3109 3444 
Q 3109 3797 2882 3972 
Q 2656 4147 2194 4147 
L 1259 4147 
z
M 628 4666 
L 2241 4666 
Q 2963 4666 3353 4366 
Q 3744 4066 3744 3513 
Q 3744 3084 3544 2831 
Q 3344 2578 2956 2516 
Q 3422 2416 3680 2098 
Q 3938 1781 3938 1306 
Q 3938 681 3513 340 
Q 3088 0 2303 0 
L 628 0 
L 628 4666 
z
" transform="scale(0.015625)"/>
       <path id="DejaVuSans-63" d="M 3122 3366 
L 3122 2828 
Q 2878 2963 2633 3030 
Q 2388 3097 2138 3097 
Q 1578 3097 1268 2742 
Q 959 2388 959 1747 
Q 959 1106 1268 751 
Q 1578 397 2138 397 
Q 2388 397 2633 464 
Q 2878 531 3122 666 
L 3122 134 
Q 2881 22 2623 -34 
Q 2366 -91 2075 -91 
Q 1284 -91 818 406 
Q 353 903 353 1747 
Q 353 2603 823 3093 
Q 1294 3584 2113 3584 
Q 2378 3584 2631 3529 
Q 2884 3475 3122 3366 
z
" transform="scale(0.015625)"/>
       <path id="DejaVuSans-6b" d="M 581 4863 
L 1159 4863 
L 1159 1991 
L 2875 3500 
L 3609 3500 
L 1753 1863 
L 3688 0 
L 2938 0 
L 1159 1709 
L 1159 0 
L 581 0 
L 581 4863 
z
" transform="scale(0.015625)"/>
       <path id="DejaVuSans-37" d="M 525 4666 
L 3525 4666 
L 3525 4397 
L 1831 0 
L 1172 0 
L 2766 4134 
L 525 4134 
L 525 4666 
z
" transform="scale(0.015625)"/>
      </defs>
      <use xlink:href="#DejaVuSans-41"/>
      <use xlink:href="#DejaVuSans-55" x="68.408203"/>
      <use xlink:href="#DejaVuSans-43" x="141.601562"/>
      <use xlink:href="#DejaVuSans-20" x="211.425781"/>
      <use xlink:href="#DejaVuSans-66" x="243.212891"/>
      <use xlink:href="#DejaVuSans-6f" x="278.417969"/>
      <use xlink:href="#DejaVuSans-72" x="339.599609"/>
      <use xlink:href="#DejaVuSans-20" x="380.712891"/>
      <use xlink:href="#DejaVuSans-42" x="412.5"/>
      <use xlink:href="#DejaVuSans-6c" x="481.103516"/>
      <use xlink:href="#DejaVuSans-61" x="508.886719"/>
      <use xlink:href="#DejaVuSans-63" x="570.166016"/>
      <use xlink:href="#DejaVuSans-6b" x="625.146484"/>
      <use xlink:href="#DejaVuSans-20" x="683.056641"/>
      <use xlink:href="#DejaVuSans-3d" x="714.84375"/>
      <use xlink:href="#DejaVuSans-20" x="798.632812"/>
      <use xlink:href="#DejaVuSans-30" x="830.419922"/>
      <use xlink:href="#DejaVuSans-2e" x="894.042969"/>
      <use xlink:href="#DejaVuSans-38" x="925.830078"/>
      <use xlink:href="#DejaVuSans-37" x="989.453125"/>
      <use xlink:href="#DejaVuSans-2c" x="1053.076172"/>
      <use xlink:href="#DejaVuSans-20" x="1084.863281"/>
      <use xlink:href="#DejaVuSans-43" x="1116.650391"/>
      <use xlink:href="#DejaVuSans-6f" x="1186.474609"/>
      <use xlink:href="#DejaVuSans-75" x="1247.65625"/>
      <use xlink:href="#DejaVuSans-6e" x="1311.035156"/>
      <use xlink:href="#DejaVuSans-74" x="1374.414062"/>
      <use xlink:href="#DejaVuSans-3a" x="1413.623047"/>
      <use xlink:href="#DejaVuSans-20" x="1447.314453"/>
      <use xlink:href="#DejaVuSans-39" x="1479.101562"/>
      <use xlink:href="#DejaVuSans-33" x="1542.724609"/>
      <use xlink:href="#DejaVuSans-36" x="1606.347656"/>
      <use xlink:href="#DejaVuSans-2c" x="1669.970703"/>
      <use xlink:href="#DejaVuSans-20" x="1701.757812"/>
      <use xlink:href="#DejaVuSans-50" x="1733.544922"/>
      <use xlink:href="#DejaVuSans-6f" x="1790.222656"/>
      <use xlink:href="#DejaVuSans-73" x="1851.404297"/>
      <use xlink:href="#DejaVuSans-3a" x="1903.503906"/>
      <use xlink:href="#DejaVuSans-20" x="1937.195312"/>
      <use xlink:href="#DejaVuSans-31" x="1968.982422"/>
      <use xlink:href="#DejaVuSans-30" x="2032.605469"/>
      <use xlink:href="#DejaVuSans-39" x="2096.228516"/>
      <use xlink:href="#DejaVuSans-2c" x="2159.851562"/>
      <use xlink:href="#DejaVuSans-20" x="2191.638672"/>
      <use xlink:href="#DejaVuSans-4e" x="2223.425781"/>
      <use xlink:href="#DejaVuSans-65" x="2298.230469"/>
      <use xlink:href="#DejaVuSans-67" x="2359.753906"/>
      <use xlink:href="#DejaVuSans-3a" x="2423.230469"/>
      <use xlink:href="#DejaVuSans-20" x="2456.921875"/>
      <use xlink:href="#DejaVuSans-38" x="2488.708984"/>
      <use xlink:href="#DejaVuSans-32" x="2552.332031"/>
      <use xlink:href="#DejaVuSans-37" x="2615.955078"/>
     </g>
    </g>
    <g id="line2d_33">
     <path d="M 175.484063 447.308813 
L 185.484063 447.308813 
L 195.484063 447.308813 
" style="fill: none; stroke: #2ca02c; stroke-width: 1.5; stroke-linecap: square"/>
    </g>
    <g id="text_18">
     <!-- AUC for Asian-Pac-Islander = 0.84, Count: 299, Pos: 75, Neg: 224 -->
     <g transform="translate(203.484063 450.808813) scale(0.1 -0.1)">
      <defs>
       <path id="DejaVuSans-2d" d="M 313 2009 
L 1997 2009 
L 1997 1497 
L 313 1497 
L 313 2009 
z
" transform="scale(0.015625)"/>
       <path id="DejaVuSans-49" d="M 628 4666 
L 1259 4666 
L 1259 0 
L 628 0 
L 628 4666 
z
" transform="scale(0.015625)"/>
      </defs>
      <use xlink:href="#DejaVuSans-41"/>
      <use xlink:href="#DejaVuSans-55" x="68.408203"/>
      <use xlink:href="#DejaVuSans-43" x="141.601562"/>
      <use xlink:href="#DejaVuSans-20" x="211.425781"/>
      <use xlink:href="#DejaVuSans-66" x="243.212891"/>
      <use xlink:href="#DejaVuSans-6f" x="278.417969"/>
      <use xlink:href="#DejaVuSans-72" x="339.599609"/>
      <use xlink:href="#DejaVuSans-20" x="380.712891"/>
      <use xlink:href="#DejaVuSans-41" x="412.5"/>
      <use xlink:href="#DejaVuSans-73" x="480.908203"/>
      <use xlink:href="#DejaVuSans-69" x="533.007812"/>
      <use xlink:href="#DejaVuSans-61" x="560.791016"/>
      <use xlink:href="#DejaVuSans-6e" x="622.070312"/>
      <use xlink:href="#DejaVuSans-2d" x="685.449219"/>
      <use xlink:href="#DejaVuSans-50" x="721.533203"/>
      <use xlink:href="#DejaVuSans-61" x="777.335938"/>
      <use xlink:href="#DejaVuSans-63" x="838.615234"/>
      <use xlink:href="#DejaVuSans-2d" x="893.595703"/>
      <use xlink:href="#DejaVuSans-49" x="929.679688"/>
      <use xlink:href="#DejaVuSans-73" x="959.171875"/>
      <use xlink:href="#DejaVuSans-6c" x="1011.271484"/>
      <use xlink:href="#DejaVuSans-61" x="1039.054688"/>
      <use xlink:href="#DejaVuSans-6e" x="1100.333984"/>
      <use xlink:href="#DejaVuSans-64" x="1163.712891"/>
      <use xlink:href="#DejaVuSans-65" x="1227.189453"/>
      <use xlink:href="#DejaVuSans-72" x="1288.712891"/>
      <use xlink:href="#DejaVuSans-20" x="1329.826172"/>
      <use xlink:href="#DejaVuSans-3d" x="1361.613281"/>
      <use xlink:href="#DejaVuSans-20" x="1445.402344"/>
      <use xlink:href="#DejaVuSans-30" x="1477.189453"/>
      <use xlink:href="#DejaVuSans-2e" x="1540.8125"/>
      <use xlink:href="#DejaVuSans-38" x="1572.599609"/>
      <use xlink:href="#DejaVuSans-34" x="1636.222656"/>
      <use xlink:href="#DejaVuSans-2c" x="1699.845703"/>
      <use xlink:href="#DejaVuSans-20" x="1731.632812"/>
      <use xlink:href="#DejaVuSans-43" x="1763.419922"/>
      <use xlink:href="#DejaVuSans-6f" x="1833.244141"/>
      <use xlink:href="#DejaVuSans-75" x="1894.425781"/>
      <use xlink:href="#DejaVuSans-6e" x="1957.804688"/>
      <use xlink:href="#DejaVuSans-74" x="2021.183594"/>
      <use xlink:href="#DejaVuSans-3a" x="2060.392578"/>
      <use xlink:href="#DejaVuSans-20" x="2094.083984"/>
      <use xlink:href="#DejaVuSans-32" x="2125.871094"/>
      <use xlink:href="#DejaVuSans-39" x="2189.494141"/>
      <use xlink:href="#DejaVuSans-39" x="2253.117188"/>
      <use xlink:href="#DejaVuSans-2c" x="2316.740234"/>
      <use xlink:href="#DejaVuSans-20" x="2348.527344"/>
      <use xlink:href="#DejaVuSans-50" x="2380.314453"/>
      <use xlink:href="#DejaVuSans-6f" x="2436.992188"/>
      <use xlink:href="#DejaVuSans-73" x="2498.173828"/>
      <use xlink:href="#DejaVuSans-3a" x="2550.273438"/>
      <use xlink:href="#DejaVuSans-20" x="2583.964844"/>
      <use xlink:href="#DejaVuSans-37" x="2615.751953"/>
      <use xlink:href="#DejaVuSans-35" x="2679.375"/>
      <use xlink:href="#DejaVuSans-2c" x="2742.998047"/>
      <use xlink:href="#DejaVuSans-20" x="2774.785156"/>
      <use xlink:href="#DejaVuSans-4e" x="2806.572266"/>
      <use xlink:href="#DejaVuSans-65" x="2881.376953"/>
      <use xlink:href="#DejaVuSans-67" x="2942.900391"/>
      <use xlink:href="#DejaVuSans-3a" x="3006.376953"/>
      <use xlink:href="#DejaVuSans-20" x="3040.068359"/>
      <use xlink:href="#DejaVuSans-32" x="3071.855469"/>
      <use xlink:href="#DejaVuSans-32" x="3135.478516"/>
      <use xlink:href="#DejaVuSans-34" x="3199.101562"/>
     </g>
    </g>
    <g id="line2d_34">
     <path d="M 175.484063 461.986938 
L 185.484063 461.986938 
L 195.484063 461.986938 
" style="fill: none; stroke: #d62728; stroke-width: 1.5; stroke-linecap: square"/>
    </g>
    <g id="text_19">
     <!-- AUC for Amer-Indian-Eskimo = 0.62, Count: 91, Pos: 8, Neg: 83 -->
     <g transform="translate(203.484063 465.486938) scale(0.1 -0.1)">
      <defs>
       <path id="DejaVuSans-45" d="M 628 4666 
L 3578 4666 
L 3578 4134 
L 1259 4134 
L 1259 2753 
L 3481 2753 
L 3481 2222 
L 1259 2222 
L 1259 531 
L 3634 531 
L 3634 0 
L 628 0 
L 628 4666 
z
" transform="scale(0.015625)"/>
      </defs>
      <use xlink:href="#DejaVuSans-41"/>
      <use xlink:href="#DejaVuSans-55" x="68.408203"/>
      <use xlink:href="#DejaVuSans-43" x="141.601562"/>
      <use xlink:href="#DejaVuSans-20" x="211.425781"/>
      <use xlink:href="#DejaVuSans-66" x="243.212891"/>
      <use xlink:href="#DejaVuSans-6f" x="278.417969"/>
      <use xlink:href="#DejaVuSans-72" x="339.599609"/>
      <use xlink:href="#DejaVuSans-20" x="380.712891"/>
      <use xlink:href="#DejaVuSans-41" x="412.5"/>
      <use xlink:href="#DejaVuSans-6d" x="480.908203"/>
      <use xlink:href="#DejaVuSans-65" x="578.320312"/>
      <use xlink:href="#DejaVuSans-72" x="639.84375"/>
      <use xlink:href="#DejaVuSans-2d" x="674.582031"/>
      <use xlink:href="#DejaVuSans-49" x="710.666016"/>
      <use xlink:href="#DejaVuSans-6e" x="740.158203"/>
      <use xlink:href="#DejaVuSans-64" x="803.537109"/>
      <use xlink:href="#DejaVuSans-69" x="867.013672"/>
      <use xlink:href="#DejaVuSans-61" x="894.796875"/>
      <use xlink:href="#DejaVuSans-6e" x="956.076172"/>
      <use xlink:href="#DejaVuSans-2d" x="1019.455078"/>
      <use xlink:href="#DejaVuSans-45" x="1055.539062"/>
      <use xlink:href="#DejaVuSans-73" x="1118.722656"/>
      <use xlink:href="#DejaVuSans-6b" x="1170.822266"/>
      <use xlink:href="#DejaVuSans-69" x="1228.732422"/>
      <use xlink:href="#DejaVuSans-6d" x="1256.515625"/>
      <use xlink:href="#DejaVuSans-6f" x="1353.927734"/>
      <use xlink:href="#DejaVuSans-20" x="1415.109375"/>
      <use xlink:href="#DejaVuSans-3d" x="1446.896484"/>
      <use xlink:href="#DejaVuSans-20" x="1530.685547"/>
      <use xlink:href="#DejaVuSans-30" x="1562.472656"/>
      <use xlink:href="#DejaVuSans-2e" x="1626.095703"/>
      <use xlink:href="#DejaVuSans-36" x="1657.882812"/>
      <use xlink:href="#DejaVuSans-32" x="1721.505859"/>
      <use xlink:href="#DejaVuSans-2c" x="1785.128906"/>
      <use xlink:href="#DejaVuSans-20" x="1816.916016"/>
      <use xlink:href="#DejaVuSans-43" x="1848.703125"/>
      <use xlink:href="#DejaVuSans-6f" x="1918.527344"/>
      <use xlink:href="#DejaVuSans-75" x="1979.708984"/>
      <use xlink:href="#DejaVuSans-6e" x="2043.087891"/>
      <use xlink:href="#DejaVuSans-74" x="2106.466797"/>
      <use xlink:href="#DejaVuSans-3a" x="2145.675781"/>
      <use xlink:href="#DejaVuSans-20" x="2179.367188"/>
      <use xlink:href="#DejaVuSans-39" x="2211.154297"/>
      <use xlink:href="#DejaVuSans-31" x="2274.777344"/>
      <use xlink:href="#DejaVuSans-2c" x="2338.400391"/>
      <use xlink:href="#DejaVuSans-20" x="2370.1875"/>
      <use xlink:href="#DejaVuSans-50" x="2401.974609"/>
      <use xlink:href="#DejaVuSans-6f" x="2458.652344"/>
      <use xlink:href="#DejaVuSans-73" x="2519.833984"/>
      <use xlink:href="#DejaVuSans-3a" x="2571.933594"/>
      <use xlink:href="#DejaVuSans-20" x="2605.625"/>
      <use xlink:href="#DejaVuSans-38" x="2637.412109"/>
      <use xlink:href="#DejaVuSans-2c" x="2701.035156"/>
      <use xlink:href="#DejaVuSans-20" x="2732.822266"/>
      <use xlink:href="#DejaVuSans-4e" x="2764.609375"/>
      <use xlink:href="#DejaVuSans-65" x="2839.414062"/>
      <use xlink:href="#DejaVuSans-67" x="2900.9375"/>
      <use xlink:href="#DejaVuSans-3a" x="2964.414062"/>
      <use xlink:href="#DejaVuSans-20" x="2998.105469"/>
      <use xlink:href="#DejaVuSans-38" x="3029.892578"/>
      <use xlink:href="#DejaVuSans-33" x="3093.515625"/>
     </g>
    </g>
    <g id="line2d_35">
     <path d="M 175.484063 476.665063 
L 185.484063 476.665063 
L 195.484063 476.665063 
" style="fill: none; stroke: #9467bd; stroke-width: 1.5; stroke-linecap: square"/>
    </g>
    <g id="text_20">
     <!-- AUC for Other = 0.94, Count: 88, Pos: 10, Neg: 78 -->
     <g transform="translate(203.484063 480.165063) scale(0.1 -0.1)">
      <use xlink:href="#DejaVuSans-41"/>
      <use xlink:href="#DejaVuSans-55" x="68.408203"/>
      <use xlink:href="#DejaVuSans-43" x="141.601562"/>
      <use xlink:href="#DejaVuSans-20" x="211.425781"/>
      <use xlink:href="#DejaVuSans-66" x="243.212891"/>
      <use xlink:href="#DejaVuSans-6f" x="278.417969"/>
      <use xlink:href="#DejaVuSans-72" x="339.599609"/>
      <use xlink:href="#DejaVuSans-20" x="380.712891"/>
      <use xlink:href="#DejaVuSans-4f" x="412.5"/>
      <use xlink:href="#DejaVuSans-74" x="491.210938"/>
      <use xlink:href="#DejaVuSans-68" x="530.419922"/>
      <use xlink:href="#DejaVuSans-65" x="593.798828"/>
      <use xlink:href="#DejaVuSans-72" x="655.322266"/>
      <use xlink:href="#DejaVuSans-20" x="696.435547"/>
      <use xlink:href="#DejaVuSans-3d" x="728.222656"/>
      <use xlink:href="#DejaVuSans-20" x="812.011719"/>
      <use xlink:href="#DejaVuSans-30" x="843.798828"/>
      <use xlink:href="#DejaVuSans-2e" x="907.421875"/>
      <use xlink:href="#DejaVuSans-39" x="939.208984"/>
      <use xlink:href="#DejaVuSans-34" x="1002.832031"/>
      <use xlink:href="#DejaVuSans-2c" x="1066.455078"/>
      <use xlink:href="#DejaVuSans-20" x="1098.242188"/>
      <use xlink:href="#DejaVuSans-43" x="1130.029297"/>
      <use xlink:href="#DejaVuSans-6f" x="1199.853516"/>
      <use xlink:href="#DejaVuSans-75" x="1261.035156"/>
      <use xlink:href="#DejaVuSans-6e" x="1324.414062"/>
      <use xlink:href="#DejaVuSans-74" x="1387.792969"/>
      <use xlink:href="#DejaVuSans-3a" x="1427.001953"/>
      <use xlink:href="#DejaVuSans-20" x="1460.693359"/>
      <use xlink:href="#DejaVuSans-38" x="1492.480469"/>
      <use xlink:href="#DejaVuSans-38" x="1556.103516"/>
      <use xlink:href="#DejaVuSans-2c" x="1619.726562"/>
      <use xlink:href="#DejaVuSans-20" x="1651.513672"/>
      <use xlink:href="#DejaVuSans-50" x="1683.300781"/>
      <use xlink:href="#DejaVuSans-6f" x="1739.978516"/>
      <use xlink:href="#DejaVuSans-73" x="1801.160156"/>
      <use xlink:href="#DejaVuSans-3a" x="1853.259766"/>
      <use xlink:href="#DejaVuSans-20" x="1886.951172"/>
      <use xlink:href="#DejaVuSans-31" x="1918.738281"/>
      <use xlink:href="#DejaVuSans-30" x="1982.361328"/>
      <use xlink:href="#DejaVuSans-2c" x="2045.984375"/>
      <use xlink:href="#DejaVuSans-20" x="2077.771484"/>
      <use xlink:href="#DejaVuSans-4e" x="2109.558594"/>
      <use xlink:href="#DejaVuSans-65" x="2184.363281"/>
      <use xlink:href="#DejaVuSans-67" x="2245.886719"/>
      <use xlink:href="#DejaVuSans-3a" x="2309.363281"/>
      <use xlink:href="#DejaVuSans-20" x="2343.054688"/>
      <use xlink:href="#DejaVuSans-37" x="2374.841797"/>
      <use xlink:href="#DejaVuSans-38" x="2438.464844"/>
     </g>
    </g>
    <g id="line2d_36">
     <path d="M 175.484063 491.343187 
L 185.484063 491.343187 
L 195.484063 491.343187 
" style="fill: none; stroke-dasharray: 7.4,3.2; stroke-dashoffset: 0; stroke: #808080; stroke-width: 2"/>
    </g>
    <g id="text_21">
     <!-- Random Guess -->
     <g transform="translate(203.484063 494.843187) scale(0.1 -0.1)">
      <defs>
       <path id="DejaVuSans-47" d="M 3809 666 
L 3809 1919 
L 2778 1919 
L 2778 2438 
L 4434 2438 
L 4434 434 
Q 4069 175 3628 42 
Q 3188 -91 2688 -91 
Q 1594 -91 976 548 
Q 359 1188 359 2328 
Q 359 3472 976 4111 
Q 1594 4750 2688 4750 
Q 3144 4750 3555 4637 
Q 3966 4525 4313 4306 
L 4313 3634 
Q 3963 3931 3569 4081 
Q 3175 4231 2741 4231 
Q 1884 4231 1454 3753 
Q 1025 3275 1025 2328 
Q 1025 1384 1454 906 
Q 1884 428 2741 428 
Q 3075 428 3337 486 
Q 3600 544 3809 666 
z
" transform="scale(0.015625)"/>
      </defs>
      <use xlink:href="#DejaVuSans-52"/>
      <use xlink:href="#DejaVuSans-61" x="67.232422"/>
      <use xlink:href="#DejaVuSans-6e" x="128.511719"/>
      <use xlink:href="#DejaVuSans-64" x="191.890625"/>
      <use xlink:href="#DejaVuSans-6f" x="255.367188"/>
      <use xlink:href="#DejaVuSans-6d" x="316.548828"/>
      <use xlink:href="#DejaVuSans-20" x="413.960938"/>
      <use xlink:href="#DejaVuSans-47" x="445.748047"/>
      <use xlink:href="#DejaVuSans-75" x="523.238281"/>
      <use xlink:href="#DejaVuSans-65" x="586.617188"/>
      <use xlink:href="#DejaVuSans-73" x="648.140625"/>
      <use xlink:href="#DejaVuSans-73" x="700.240234"/>
     </g>
    </g>
   </g>
  </g>
 </g>
 <defs>
  <clipPath id="pab1275f2c6">
   <rect x="45.716875" y="22.318125" width="613.8" height="332.64"/>
  </clipPath>
 </defs>
</svg>
