<?xml version="1.0" encoding="utf-8" standalone="no"?>
<!DOCTYPE svg PUBLIC "-//W3C//DTD SVG 1.1//EN"
  "http://www.w3.org/Graphics/SVG/1.1/DTD/svg11.dtd">
<svg xmlns:xlink="http://www.w3.org/1999/xlink" width="499.316875pt" height="478.326625pt" viewBox="0 0 499.316875 478.326625" xmlns="http://www.w3.org/2000/svg" version="1.1">
 <metadata>
  <rdf:RDF xmlns:dc="http://purl.org/dc/elements/1.1/" xmlns:cc="http://creativecommons.org/ns#" xmlns:rdf="http://www.w3.org/1999/02/22-rdf-syntax-ns#">
   <cc:Work>
    <dc:type rdf:resource="http://purl.org/dc/dcmitype/StillImage"/>
    <dc:date>2025-03-17T16:45:15.630339</dc:date>
    <dc:format>image/svg+xml</dc:format>
    <dc:creator>
     <cc:Agent>
      <dc:title>Matplotlib v3.9.2, https://matplotlib.org/</dc:title>
     </cc:Agent>
    </dc:creator>
   </cc:Work>
  </rdf:RDF>
 </metadata>
 <defs>
  <style type="text/css">*{stroke-linejoin: round; stroke-linecap: butt}</style>
 </defs>
 <g id="figure_1">
  <g id="patch_1">
   <path d="M 0 478.326625 
L 499.316875 478.326625 
L 499.316875 0 
L 0 0 
z
" style="fill: #ffffff"/>
  </g>
  <g id="axes_1">
   <g id="patch_2">
    <path d="M 45.716875 339.84 
L 492.116875 339.84 
L 492.116875 7.2 
L 45.716875 7.2 
z
" style="fill: #ffffff"/>
   </g>
   <g id="matplotlib.axis_1">
    <g id="xtick_1">
     <g id="line2d_1">
      <path d="M 66.007784 339.84 
L 66.007784 7.2 
" clip-path="url(#p42368c357c)" style="fill: none; stroke: #b0b0b0; stroke-width: 0.8; stroke-linecap: square"/>
     </g>
     <g id="line2d_2">
      <defs>
       <path id="mecea29e7ef" d="M 0 0 
L 0 3.5 
" style="stroke: #000000; stroke-width: 0.8"/>
      </defs>
      <g>
       <use xlink:href="#mecea29e7ef" x="66.007784" y="339.84" style="stroke: #000000; stroke-width: 0.8"/>
      </g>
     </g>
     <g id="text_1">
      <!-- 0.0 -->
      <g transform="translate(58.056222 354.438438) scale(0.1 -0.1)">
       <defs>
        <path id="DejaVuSans-30" d="M 2034 4250 
Q 1547 4250 1301 3770 
Q 1056 3291 1056 2328 
Q 1056 1369 1301 889 
Q 1547 409 2034 409 
Q 2525 409 2770 889 
Q 3016 1369 3016 2328 
Q 3016 3291 2770 3770 
Q 2525 4250 2034 4250 
z
M 2034 4750 
Q 2819 4750 3233 4129 
Q 3647 3509 3647 2328 
Q 3647 1150 3233 529 
Q 2819 -91 2034 -91 
Q 1250 -91 836 529 
Q 422 1150 422 2328 
Q 422 3509 836 4129 
Q 1250 4750 2034 4750 
z
" transform="scale(0.015625)"/>
        <path id="DejaVuSans-2e" d="M 684 794 
L 1344 794 
L 1344 0 
L 684 0 
L 684 794 
z
" transform="scale(0.015625)"/>
       </defs>
       <use xlink:href="#DejaVuSans-30"/>
       <use xlink:href="#DejaVuSans-2e" x="63.623047"/>
       <use xlink:href="#DejaVuSans-30" x="95.410156"/>
      </g>
     </g>
    </g>
    <g id="xtick_2">
     <g id="line2d_3">
      <path d="M 147.17142 339.84 
L 147.17142 7.2 
" clip-path="url(#p42368c357c)" style="fill: none; stroke: #b0b0b0; stroke-width: 0.8; stroke-linecap: square"/>
     </g>
     <g id="line2d_4">
      <g>
       <use xlink:href="#mecea29e7ef" x="147.17142" y="339.84" style="stroke: #000000; stroke-width: 0.8"/>
      </g>
     </g>
     <g id="text_2">
      <!-- 0.2 -->
      <g transform="translate(139.219858 354.438438) scale(0.1 -0.1)">
       <defs>
        <path id="DejaVuSans-32" d="M 1228 531 
L 3431 531 
L 3431 0 
L 469 0 
L 469 531 
Q 828 903 1448 1529 
Q 2069 2156 2228 2338 
Q 2531 2678 2651 2914 
Q 2772 3150 2772 3378 
Q 2772 3750 2511 3984 
Q 2250 4219 1831 4219 
Q 1534 4219 1204 4116 
Q 875 4013 500 3803 
L 500 4441 
Q 881 4594 1212 4672 
Q 1544 4750 1819 4750 
Q 2544 4750 2975 4387 
Q 3406 4025 3406 3419 
Q 3406 3131 3298 2873 
Q 3191 2616 2906 2266 
Q 2828 2175 2409 1742 
Q 1991 1309 1228 531 
z
" transform="scale(0.015625)"/>
       </defs>
       <use xlink:href="#DejaVuSans-30"/>
       <use xlink:href="#DejaVuSans-2e" x="63.623047"/>
       <use xlink:href="#DejaVuSans-32" x="95.410156"/>
      </g>
     </g>
    </g>
    <g id="xtick_3">
     <g id="line2d_5">
      <path d="M 228.335057 339.84 
L 228.335057 7.2 
" clip-path="url(#p42368c357c)" style="fill: none; stroke: #b0b0b0; stroke-width: 0.8; stroke-linecap: square"/>
     </g>
     <g id="line2d_6">
      <g>
       <use xlink:href="#mecea29e7ef" x="228.335057" y="339.84" style="stroke: #000000; stroke-width: 0.8"/>
      </g>
     </g>
     <g id="text_3">
      <!-- 0.4 -->
      <g transform="translate(220.383494 354.438438) scale(0.1 -0.1)">
       <defs>
        <path id="DejaVuSans-34" d="M 2419 4116 
L 825 1625 
L 2419 1625 
L 2419 4116 
z
M 2253 4666 
L 3047 4666 
L 3047 1625 
L 3713 1625 
L 3713 1100 
L 3047 1100 
L 3047 0 
L 2419 0 
L 2419 1100 
L 313 1100 
L 313 1709 
L 2253 4666 
z
" transform="scale(0.015625)"/>
       </defs>
       <use xlink:href="#DejaVuSans-30"/>
       <use xlink:href="#DejaVuSans-2e" x="63.623047"/>
       <use xlink:href="#DejaVuSans-34" x="95.410156"/>
      </g>
     </g>
    </g>
    <g id="xtick_4">
     <g id="line2d_7">
      <path d="M 309.498693 339.84 
L 309.498693 7.2 
" clip-path="url(#p42368c357c)" style="fill: none; stroke: #b0b0b0; stroke-width: 0.8; stroke-linecap: square"/>
     </g>
     <g id="line2d_8">
      <g>
       <use xlink:href="#mecea29e7ef" x="309.498693" y="339.84" style="stroke: #000000; stroke-width: 0.8"/>
      </g>
     </g>
     <g id="text_4">
      <!-- 0.6 -->
      <g transform="translate(301.547131 354.438438) scale(0.1 -0.1)">
       <defs>
        <path id="DejaVuSans-36" d="M 2113 2584 
Q 1688 2584 1439 2293 
Q 1191 2003 1191 1497 
Q 1191 994 1439 701 
Q 1688 409 2113 409 
Q 2538 409 2786 701 
Q 3034 994 3034 1497 
Q 3034 2003 2786 2293 
Q 2538 2584 2113 2584 
z
M 3366 4563 
L 3366 3988 
Q 3128 4100 2886 4159 
Q 2644 4219 2406 4219 
Q 1781 4219 1451 3797 
Q 1122 3375 1075 2522 
Q 1259 2794 1537 2939 
Q 1816 3084 2150 3084 
Q 2853 3084 3261 2657 
Q 3669 2231 3669 1497 
Q 3669 778 3244 343 
Q 2819 -91 2113 -91 
Q 1303 -91 875 529 
Q 447 1150 447 2328 
Q 447 3434 972 4092 
Q 1497 4750 2381 4750 
Q 2619 4750 2861 4703 
Q 3103 4656 3366 4563 
z
" transform="scale(0.015625)"/>
       </defs>
       <use xlink:href="#DejaVuSans-30"/>
       <use xlink:href="#DejaVuSans-2e" x="63.623047"/>
       <use xlink:href="#DejaVuSans-36" x="95.410156"/>
      </g>
     </g>
    </g>
    <g id="xtick_5">
     <g id="line2d_9">
      <path d="M 390.66233 339.84 
L 390.66233 7.2 
" clip-path="url(#p42368c357c)" style="fill: none; stroke: #b0b0b0; stroke-width: 0.8; stroke-linecap: square"/>
     </g>
     <g id="line2d_10">
      <g>
       <use xlink:href="#mecea29e7ef" x="390.66233" y="339.84" style="stroke: #000000; stroke-width: 0.8"/>
      </g>
     </g>
     <g id="text_5">
      <!-- 0.8 -->
      <g transform="translate(382.710767 354.438438) scale(0.1 -0.1)">
       <defs>
        <path id="DejaVuSans-38" d="M 2034 2216 
Q 1584 2216 1326 1975 
Q 1069 1734 1069 1313 
Q 1069 891 1326 650 
Q 1584 409 2034 409 
Q 2484 409 2743 651 
Q 3003 894 3003 1313 
Q 3003 1734 2745 1975 
Q 2488 2216 2034 2216 
z
M 1403 2484 
Q 997 2584 770 2862 
Q 544 3141 544 3541 
Q 544 4100 942 4425 
Q 1341 4750 2034 4750 
Q 2731 4750 3128 4425 
Q 3525 4100 3525 3541 
Q 3525 3141 3298 2862 
Q 3072 2584 2669 2484 
Q 3125 2378 3379 2068 
Q 3634 1759 3634 1313 
Q 3634 634 3220 271 
Q 2806 -91 2034 -91 
Q 1263 -91 848 271 
Q 434 634 434 1313 
Q 434 1759 690 2068 
Q 947 2378 1403 2484 
z
M 1172 3481 
Q 1172 3119 1398 2916 
Q 1625 2713 2034 2713 
Q 2441 2713 2670 2916 
Q 2900 3119 2900 3481 
Q 2900 3844 2670 4047 
Q 2441 4250 2034 4250 
Q 1625 4250 1398 4047 
Q 1172 3844 1172 3481 
z
" transform="scale(0.015625)"/>
       </defs>
       <use xlink:href="#DejaVuSans-30"/>
       <use xlink:href="#DejaVuSans-2e" x="63.623047"/>
       <use xlink:href="#DejaVuSans-38" x="95.410156"/>
      </g>
     </g>
    </g>
    <g id="xtick_6">
     <g id="line2d_11">
      <path d="M 471.825966 339.84 
L 471.825966 7.2 
" clip-path="url(#p42368c357c)" style="fill: none; stroke: #b0b0b0; stroke-width: 0.8; stroke-linecap: square"/>
     </g>
     <g id="line2d_12">
      <g>
       <use xlink:href="#mecea29e7ef" x="471.825966" y="339.84" style="stroke: #000000; stroke-width: 0.8"/>
      </g>
     </g>
     <g id="text_6">
      <!-- 1.0 -->
      <g transform="translate(463.874403 354.438438) scale(0.1 -0.1)">
       <defs>
        <path id="DejaVuSans-31" d="M 794 531 
L 1825 531 
L 1825 4091 
L 703 3866 
L 703 4441 
L 1819 4666 
L 2450 4666 
L 2450 531 
L 3481 531 
L 3481 0 
L 794 0 
L 794 531 
z
" transform="scale(0.015625)"/>
       </defs>
       <use xlink:href="#DejaVuSans-31"/>
       <use xlink:href="#DejaVuSans-2e" x="63.623047"/>
       <use xlink:href="#DejaVuSans-30" x="95.410156"/>
      </g>
     </g>
    </g>
    <g id="text_7">
     <!-- Recall -->
     <g transform="translate(251.01625 369.63625) scale(0.12 -0.12)">
      <defs>
       <path id="DejaVuSans-52" d="M 2841 2188 
Q 3044 2119 3236 1894 
Q 3428 1669 3622 1275 
L 4263 0 
L 3584 0 
L 2988 1197 
Q 2756 1666 2539 1819 
Q 2322 1972 1947 1972 
L 1259 1972 
L 1259 0 
L 628 0 
L 628 4666 
L 2053 4666 
Q 2853 4666 3247 4331 
Q 3641 3997 3641 3322 
Q 3641 2881 3436 2590 
Q 3231 2300 2841 2188 
z
M 1259 4147 
L 1259 2491 
L 2053 2491 
Q 2509 2491 2742 2702 
Q 2975 2913 2975 3322 
Q 2975 3731 2742 3939 
Q 2509 4147 2053 4147 
L 1259 4147 
z
" transform="scale(0.015625)"/>
       <path id="DejaVuSans-65" d="M 3597 1894 
L 3597 1613 
L 953 1613 
Q 991 1019 1311 708 
Q 1631 397 2203 397 
Q 2534 397 2845 478 
Q 3156 559 3463 722 
L 3463 178 
Q 3153 47 2828 -22 
Q 2503 -91 2169 -91 
Q 1331 -91 842 396 
Q 353 884 353 1716 
Q 353 2575 817 3079 
Q 1281 3584 2069 3584 
Q 2775 3584 3186 3129 
Q 3597 2675 3597 1894 
z
M 3022 2063 
Q 3016 2534 2758 2815 
Q 2500 3097 2075 3097 
Q 1594 3097 1305 2825 
Q 1016 2553 972 2059 
L 3022 2063 
z
" transform="scale(0.015625)"/>
       <path id="DejaVuSans-63" d="M 3122 3366 
L 3122 2828 
Q 2878 2963 2633 3030 
Q 2388 3097 2138 3097 
Q 1578 3097 1268 2742 
Q 959 2388 959 1747 
Q 959 1106 1268 751 
Q 1578 397 2138 397 
Q 2388 397 2633 464 
Q 2878 531 3122 666 
L 3122 134 
Q 2881 22 2623 -34 
Q 2366 -91 2075 -91 
Q 1284 -91 818 406 
Q 353 903 353 1747 
Q 353 2603 823 3093 
Q 1294 3584 2113 3584 
Q 2378 3584 2631 3529 
Q 2884 3475 3122 3366 
z
" transform="scale(0.015625)"/>
       <path id="DejaVuSans-61" d="M 2194 1759 
Q 1497 1759 1228 1600 
Q 959 1441 959 1056 
Q 959 750 1161 570 
Q 1363 391 1709 391 
Q 2188 391 2477 730 
Q 2766 1069 2766 1631 
L 2766 1759 
L 2194 1759 
z
M 3341 1997 
L 3341 0 
L 2766 0 
L 2766 531 
Q 2569 213 2275 61 
Q 1981 -91 1556 -91 
Q 1019 -91 701 211 
Q 384 513 384 1019 
Q 384 1609 779 1909 
Q 1175 2209 1959 2209 
L 2766 2209 
L 2766 2266 
Q 2766 2663 2505 2880 
Q 2244 3097 1772 3097 
Q 1472 3097 1187 3025 
Q 903 2953 641 2809 
L 641 3341 
Q 956 3463 1253 3523 
Q 1550 3584 1831 3584 
Q 2591 3584 2966 3190 
Q 3341 2797 3341 1997 
z
" transform="scale(0.015625)"/>
       <path id="DejaVuSans-6c" d="M 603 4863 
L 1178 4863 
L 1178 0 
L 603 0 
L 603 4863 
z
" transform="scale(0.015625)"/>
      </defs>
      <use xlink:href="#DejaVuSans-52"/>
      <use xlink:href="#DejaVuSans-65" x="64.982422"/>
      <use xlink:href="#DejaVuSans-63" x="126.505859"/>
      <use xlink:href="#DejaVuSans-61" x="181.486328"/>
      <use xlink:href="#DejaVuSans-6c" x="242.765625"/>
      <use xlink:href="#DejaVuSans-6c" x="270.548828"/>
     </g>
    </g>
   </g>
   <g id="matplotlib.axis_2">
    <g id="ytick_1">
     <g id="line2d_13">
      <path d="M 45.716875 287.55759 
L 492.116875 287.55759 
" clip-path="url(#p42368c357c)" style="fill: none; stroke: #b0b0b0; stroke-width: 0.8; stroke-linecap: square"/>
     </g>
     <g id="line2d_14">
      <defs>
       <path id="m6a66058be8" d="M 0 0 
L -3.5 0 
" style="stroke: #000000; stroke-width: 0.8"/>
      </defs>
      <g>
       <use xlink:href="#m6a66058be8" x="45.716875" y="287.55759" style="stroke: #000000; stroke-width: 0.8"/>
      </g>
     </g>
     <g id="text_8">
      <!-- 0.2 -->
      <g transform="translate(22.81375 291.356809) scale(0.1 -0.1)">
       <use xlink:href="#DejaVuSans-30"/>
       <use xlink:href="#DejaVuSans-2e" x="63.623047"/>
       <use xlink:href="#DejaVuSans-32" x="95.410156"/>
      </g>
     </g>
    </g>
    <g id="ytick_2">
     <g id="line2d_15">
      <path d="M 45.716875 221.248193 
L 492.116875 221.248193 
" clip-path="url(#p42368c357c)" style="fill: none; stroke: #b0b0b0; stroke-width: 0.8; stroke-linecap: square"/>
     </g>
     <g id="line2d_16">
      <g>
       <use xlink:href="#m6a66058be8" x="45.716875" y="221.248193" style="stroke: #000000; stroke-width: 0.8"/>
      </g>
     </g>
     <g id="text_9">
      <!-- 0.4 -->
      <g transform="translate(22.81375 225.047412) scale(0.1 -0.1)">
       <use xlink:href="#DejaVuSans-30"/>
       <use xlink:href="#DejaVuSans-2e" x="63.623047"/>
       <use xlink:href="#DejaVuSans-34" x="95.410156"/>
      </g>
     </g>
    </g>
    <g id="ytick_3">
     <g id="line2d_17">
      <path d="M 45.716875 154.938795 
L 492.116875 154.938795 
" clip-path="url(#p42368c357c)" style="fill: none; stroke: #b0b0b0; stroke-width: 0.8; stroke-linecap: square"/>
     </g>
     <g id="line2d_18">
      <g>
       <use xlink:href="#m6a66058be8" x="45.716875" y="154.938795" style="stroke: #000000; stroke-width: 0.8"/>
      </g>
     </g>
     <g id="text_10">
      <!-- 0.6 -->
      <g transform="translate(22.81375 158.738014) scale(0.1 -0.1)">
       <use xlink:href="#DejaVuSans-30"/>
       <use xlink:href="#DejaVuSans-2e" x="63.623047"/>
       <use xlink:href="#DejaVuSans-36" x="95.410156"/>
      </g>
     </g>
    </g>
    <g id="ytick_4">
     <g id="line2d_19">
      <path d="M 45.716875 88.629398 
L 492.116875 88.629398 
" clip-path="url(#p42368c357c)" style="fill: none; stroke: #b0b0b0; stroke-width: 0.8; stroke-linecap: square"/>
     </g>
     <g id="line2d_20">
      <g>
       <use xlink:href="#m6a66058be8" x="45.716875" y="88.629398" style="stroke: #000000; stroke-width: 0.8"/>
      </g>
     </g>
     <g id="text_11">
      <!-- 0.8 -->
      <g transform="translate(22.81375 92.428616) scale(0.1 -0.1)">
       <use xlink:href="#DejaVuSans-30"/>
       <use xlink:href="#DejaVuSans-2e" x="63.623047"/>
       <use xlink:href="#DejaVuSans-38" x="95.410156"/>
      </g>
     </g>
    </g>
    <g id="ytick_5">
     <g id="line2d_21">
      <path d="M 45.716875 22.32 
L 492.116875 22.32 
" clip-path="url(#p42368c357c)" style="fill: none; stroke: #b0b0b0; stroke-width: 0.8; stroke-linecap: square"/>
     </g>
     <g id="line2d_22">
      <g>
       <use xlink:href="#m6a66058be8" x="45.716875" y="22.32" style="stroke: #000000; stroke-width: 0.8"/>
      </g>
     </g>
     <g id="text_12">
      <!-- 1.0 -->
      <g transform="translate(22.81375 26.119219) scale(0.1 -0.1)">
       <use xlink:href="#DejaVuSans-31"/>
       <use xlink:href="#DejaVuSans-2e" x="63.623047"/>
       <use xlink:href="#DejaVuSans-30" x="95.410156"/>
      </g>
     </g>
    </g>
    <g id="text_13">
     <!-- Precision -->
     <g transform="translate(16.318125 200.288437) rotate(-90) scale(0.12 -0.12)">
      <defs>
       <path id="DejaVuSans-50" d="M 1259 4147 
L 1259 2394 
L 2053 2394 
Q 2494 2394 2734 2622 
Q 2975 2850 2975 3272 
Q 2975 3691 2734 3919 
Q 2494 4147 2053 4147 
L 1259 4147 
z
M 628 4666 
L 2053 4666 
Q 2838 4666 3239 4311 
Q 3641 3956 3641 3272 
Q 3641 2581 3239 2228 
Q 2838 1875 2053 1875 
L 1259 1875 
L 1259 0 
L 628 0 
L 628 4666 
z
" transform="scale(0.015625)"/>
       <path id="DejaVuSans-72" d="M 2631 2963 
Q 2534 3019 2420 3045 
Q 2306 3072 2169 3072 
Q 1681 3072 1420 2755 
Q 1159 2438 1159 1844 
L 1159 0 
L 581 0 
L 581 3500 
L 1159 3500 
L 1159 2956 
Q 1341 3275 1631 3429 
Q 1922 3584 2338 3584 
Q 2397 3584 2469 3576 
Q 2541 3569 2628 3553 
L 2631 2963 
z
" transform="scale(0.015625)"/>
       <path id="DejaVuSans-69" d="M 603 3500 
L 1178 3500 
L 1178 0 
L 603 0 
L 603 3500 
z
M 603 4863 
L 1178 4863 
L 1178 4134 
L 603 4134 
L 603 4863 
z
" transform="scale(0.015625)"/>
       <path id="DejaVuSans-73" d="M 2834 3397 
L 2834 2853 
Q 2591 2978 2328 3040 
Q 2066 3103 1784 3103 
Q 1356 3103 1142 2972 
Q 928 2841 928 2578 
Q 928 2378 1081 2264 
Q 1234 2150 1697 2047 
L 1894 2003 
Q 2506 1872 2764 1633 
Q 3022 1394 3022 966 
Q 3022 478 2636 193 
Q 2250 -91 1575 -91 
Q 1294 -91 989 -36 
Q 684 19 347 128 
L 347 722 
Q 666 556 975 473 
Q 1284 391 1588 391 
Q 1994 391 2212 530 
Q 2431 669 2431 922 
Q 2431 1156 2273 1281 
Q 2116 1406 1581 1522 
L 1381 1569 
Q 847 1681 609 1914 
Q 372 2147 372 2553 
Q 372 3047 722 3315 
Q 1072 3584 1716 3584 
Q 2034 3584 2315 3537 
Q 2597 3491 2834 3397 
z
" transform="scale(0.015625)"/>
       <path id="DejaVuSans-6f" d="M 1959 3097 
Q 1497 3097 1228 2736 
Q 959 2375 959 1747 
Q 959 1119 1226 758 
Q 1494 397 1959 397 
Q 2419 397 2687 759 
Q 2956 1122 2956 1747 
Q 2956 2369 2687 2733 
Q 2419 3097 1959 3097 
z
M 1959 3584 
Q 2709 3584 3137 3096 
Q 3566 2609 3566 1747 
Q 3566 888 3137 398 
Q 2709 -91 1959 -91 
Q 1206 -91 779 398 
Q 353 888 353 1747 
Q 353 2609 779 3096 
Q 1206 3584 1959 3584 
z
" transform="scale(0.015625)"/>
       <path id="DejaVuSans-6e" d="M 3513 2113 
L 3513 0 
L 2938 0 
L 2938 2094 
Q 2938 2591 2744 2837 
Q 2550 3084 2163 3084 
Q 1697 3084 1428 2787 
Q 1159 2491 1159 1978 
L 1159 0 
L 581 0 
L 581 3500 
L 1159 3500 
L 1159 2956 
Q 1366 3272 1645 3428 
Q 1925 3584 2291 3584 
Q 2894 3584 3203 3211 
Q 3513 2838 3513 2113 
z
" transform="scale(0.015625)"/>
      </defs>
      <use xlink:href="#DejaVuSans-50"/>
      <use xlink:href="#DejaVuSans-72" x="58.552734"/>
      <use xlink:href="#DejaVuSans-65" x="97.416016"/>
      <use xlink:href="#DejaVuSans-63" x="158.939453"/>
      <use xlink:href="#DejaVuSans-69" x="213.919922"/>
      <use xlink:href="#DejaVuSans-73" x="241.703125"/>
      <use xlink:href="#DejaVuSans-69" x="293.802734"/>
      <use xlink:href="#DejaVuSans-6f" x="321.585938"/>
      <use xlink:href="#DejaVuSans-6e" x="382.767578"/>
     </g>
    </g>
   </g>
   <g id="line2d_23">
    <path d="M 471.825966 269.105245 
L 466.316262 257.058576 
L 466.316262 255.849659 
L 465.746293 255.172186 
L 465.366313 251.665526 
L 464.986334 251.008564 
L 464.796344 250.415653 
L 463.466415 250.298778 
L 463.466415 249.488312 
L 463.086436 248.188598 
L 462.326477 247.301962 
L 461.946497 246.527556 
L 460.616569 244.265986 
L 460.426579 244.126627 
L 460.236589 244.039402 
L 460.236589 243.898957 
L 459.66662 243.899746 
L 459.09665 243.918163 
L 458.336691 242.903531 
L 457.006763 240.373358 
L 456.436793 240.406695 
L 455.676834 240.381862 
L 453.966926 237.859629 
L 452.257018 236.049294 
L 452.257018 236.008092 
L 451.877038 235.127448 
L 451.687049 234.82907 
L 451.687049 234.639285 
L 451.117079 234.349694 
L 444.277447 228.442315 
L 443.137508 228.558387 
L 441.23761 226.199743 
L 441.047621 226.189705 
L 440.477651 225.53252 
L 440.287662 225.117221 
L 437.627805 222.217392 
L 437.437815 221.829025 
L 437.437815 221.721349 
L 437.247825 221.573172 
L 435.537917 220.300523 
L 435.347927 220.313871 
L 433.448029 219.497358 
L 433.258039 219.199972 
L 430.978162 218.643684 
L 430.978162 218.499982 
L 430.598182 218.063643 
L 424.898489 214.13199 
L 423.75855 213.637208 
L 423.56856 213.585641 
L 422.618611 212.303363 
L 422.618611 212.271153 
L 422.428622 212.153124 
L 422.238632 212.099462 
L 417.108908 208.505462 
L 408.179388 206.394495 
L 405.139551 205.46895 
L 404.379592 205.167621 
L 385.190624 191.854498 
L 384.240675 191.533984 
L 384.240675 191.296378 
L 384.240675 191.20114 
L 384.050685 190.868557 
L 382.910746 190.396584 
L 381.960797 190.209333 
L 381.960797 189.966084 
L 369.231482 181.674019 
L 369.041492 181.220091 
L 368.851502 180.933121 
L 368.471523 180.583073 
L 368.471523 180.29816 
L 368.091543 179.368573 
L 348.142616 165.228184 
L 343.202881 160.916427 
L 343.202881 160.762375 
L 325.533831 151.501847 
L 312.424536 140.987561 
L 312.424536 140.670933 
L 305.394914 135.37891 
L 305.394914 135.264578 
L 300.835159 132.954817 
L 300.26519 132.895401 
L 299.88521 132.054845 
L 299.69522 131.509957 
L 295.705435 130.80616 
L 279.936283 120.540795 
L 279.936283 120.248772 
L 279.936283 119.956018 
L 278.986334 119.230515 
L 275.186538 114.970893 
L 273.28664 111.428808 
L 247.06805 94.879874 
L 246.68807 93.287496 
L 246.308091 93.189199 
L 246.308091 92.756539 
L 242.318305 87.250346 
L 241.938325 87.131531 
L 241.938325 86.899587 
L 241.748336 86.490385 
L 196.910746 46.416282 
L 196.720757 46.033887 
L 196.340777 44.843573 
L 195.960797 43.636975 
L 182.661512 38.74338 
L 181.901553 38.354254 
L 181.901553 37.366733 
L 181.331584 36.939395 
L 180.761615 36.002892 
L 180.191645 36.06836 
L 179.431686 36.156632 
L 176.961819 36.451511 
L 176.01187 33.924145 
L 174.871931 32.960866 
L 170.122187 26.501674 
L 168.602268 25.963373 
L 168.032299 25.983503 
L 164.612483 25.483616 
L 161.192667 25.596156 
L 66.007784 22.32 
" clip-path="url(#p42368c357c)" style="fill: none; stroke: #1f77b4; stroke-width: 1.5; stroke-linecap: square"/>
   </g>
   <g id="line2d_24">
    <path d="M 471.825966 315.257349 
L 468.102863 309.877953 
L 468.102863 309.551301 
L 468.102863 309.496387 
L 468.102863 306.999089 
L 468.102863 306.06048 
L 468.102863 305.8038 
L 468.102863 305.739199 
L 468.102863 305.674424 
L 468.102863 304.883302 
L 468.102863 303.646687 
L 468.102863 303.220489 
L 468.102863 300.976183 
L 468.102863 300.740764 
L 468.102863 300.582651 
L 468.102863 300.343707 
L 468.102863 299.613844 
L 460.656658 298.347271 
L 460.656658 297.905235 
L 460.656658 296.064388 
L 453.210453 296.013151 
L 449.48735 296.084687 
L 445.764248 286.768193 
L 445.764248 286.500867 
L 438.318043 281.791556 
L 434.59494 281.569297 
L 434.59494 280.272477 
L 434.59494 277.711183 
L 430.871837 278.128981 
L 430.871837 277.952023 
L 423.425632 278.443976 
L 419.70253 278.153133 
L 415.979427 278.588203 
L 415.979427 278.222772 
L 415.979427 277.667925 
L 412.256325 270.306365 
L 412.256325 270.079298 
L 408.533222 269.138313 
L 397.363914 261.655482 
L 393.640812 258.207529 
L 393.640812 256.936307 
L 341.517375 242.851254 
L 341.517375 242.346637 
L 334.07117 238.546296 
L 334.07117 237.986487 
L 334.07117 237.421217 
L 334.07117 236.273968 
L 334.07117 234.510072 
L 300.563247 209.815538 
L 289.393939 208.663928 
L 285.670837 210.034103 
L 281.947734 202.451828 
L 281.947734 193.619277 
L 278.224631 192.344096 
L 274.501529 188.093494 
L 270.778426 189.586949 
L 270.778426 185.023614 
L 270.778426 181.83789 
L 267.055324 161.355834 
L 263.332221 142.156261 
L 263.332221 136.928835 
L 233.5474 96.632256 
L 233.5474 92.119366 
L 233.5474 87.445301 
L 226.101195 79.703133 
L 188.870169 58.162918 
L 185.147067 59.158554 
L 185.147067 50.738313 
L 181.423964 42.413757 
L 181.423964 32.680843 
L 181.423964 22.32 
L 177.700862 22.32 
L 170.254656 22.32 
L 66.007784 22.32 
" clip-path="url(#p42368c357c)" style="fill: none; stroke: #ff7f0e; stroke-width: 1.5; stroke-linecap: square"/>
   </g>
   <g id="line2d_25">
    <path d="M 471.825966 270.703028 
L 471.825966 256.734081 
L 471.825966 255.192289 
L 471.825966 250.258554 
L 471.825966 249.825046 
L 471.825966 249.387895 
L 471.825966 248.502479 
L 466.415057 249.464958 
L 466.415057 247.65713 
L 461.004148 245.818193 
L 461.004148 244.351467 
L 461.004148 242.844373 
L 461.004148 240.769184 
L 461.004148 239.702223 
L 455.593239 237.421217 
L 455.593239 236.850404 
L 455.593239 230.181065 
L 450.18233 230.621773 
L 444.77142 229.75849 
L 444.77142 224.932048 
L 444.77142 224.211741 
L 444.77142 223.483341 
L 439.360511 223.142747 
L 439.360511 222.391458 
L 439.360511 219.297916 
L 428.538693 217.586938 
L 428.538693 216.745703 
L 428.538693 215.031687 
L 428.538693 213.274278 
L 406.895057 208.815181 
L 406.895057 205.728972 
L 406.895057 204.670843 
L 396.073239 192.072058 
L 379.840511 193.619277 
L 363.607784 186.572636 
L 352.785966 176.372136 
L 341.964148 172.050898 
L 336.553239 163.322742 
L 325.73142 154.938795 
L 314.909602 155.799956 
L 314.909602 153.193811 
L 309.498693 152.250576 
L 309.498693 146.65012 
L 309.498693 143.731573 
L 309.498693 131.186175 
L 271.62233 96.748916 
L 255.389602 101.602975 
L 206.69142 84.48506 
L 185.047784 22.32 
L 174.225966 22.32 
L 168.815057 22.32 
L 157.993239 22.32 
L 66.007784 22.32 
" clip-path="url(#p42368c357c)" style="fill: none; stroke: #2ca02c; stroke-width: 1.5; stroke-linecap: square"/>
   </g>
   <g id="line2d_26">
    <path d="M 471.825966 324.72 
L 421.098693 322.074811 
L 421.098693 321.633253 
L 421.098693 321.179257 
L 421.098693 320.712289 
L 421.098693 320.231786 
L 421.098693 319.737151 
L 421.098693 319.22775 
L 421.098693 317.604036 
L 421.098693 316.434264 
L 370.37142 320.150345 
L 370.37142 319.569024 
L 370.37142 318.967305 
L 319.644148 317.829272 
L 319.644148 312.423614 
L 319.644148 310.242384 
L 319.644148 307.818795 
L 268.916875 313.679474 
L 268.916875 312.423614 
L 268.916875 306.503133 
L 218.189602 314.081349 
L 167.46233 318.967305 
L 167.46233 302.859759 
L 116.735057 323.726353 
L 116.735057 320.712289 
L 116.735057 317.028434 
L 116.735057 312.423614 
L 116.735057 188.093494 
L 116.735057 22.32 
L 66.007784 22.32 
" clip-path="url(#p42368c357c)" style="fill: none; stroke: #d62728; stroke-width: 1.5; stroke-linecap: square"/>
   </g>
   <g id="line2d_27">
    <path d="M 471.825966 316.191194 
L 471.825966 305.110078 
L 471.825966 299.515023 
L 471.825966 297.672583 
L 471.825966 296.703714 
L 471.825966 294.662169 
L 471.825966 290.107952 
L 471.825966 287.55759 
L 471.825966 286.204337 
L 471.825966 284.794699 
L 471.825966 283.325076 
L 471.825966 273.001869 
L 471.825966 268.85494 
L 431.244148 270.980241 
L 431.244148 268.612048 
L 431.244148 266.10455 
L 431.244148 263.445082 
L 431.244148 260.619398 
L 431.244148 250.973095 
L 390.66233 247.771952 
L 390.66233 227.563373 
L 350.080511 208.815181 
L 350.080511 175.341687 
L 350.080511 160.464578 
L 350.080511 142.882541 
L 309.498693 154.938795 
L 309.498693 132.835663 
L 268.916875 117.047711 
L 268.916875 22.32 
L 228.335057 22.32 
L 187.753239 22.32 
L 147.17142 22.32 
L 66.007784 22.32 
" clip-path="url(#p42368c357c)" style="fill: none; stroke: #9467bd; stroke-width: 1.5; stroke-linecap: square"/>
   </g>
   <g id="patch_3">
    <path d="M 45.716875 339.84 
L 45.716875 7.2 
" style="fill: none; stroke: #000000; stroke-width: 0.8; stroke-linejoin: miter; stroke-linecap: square"/>
   </g>
   <g id="patch_4">
    <path d="M 492.116875 339.84 
L 492.116875 7.2 
" style="fill: none; stroke: #000000; stroke-width: 0.8; stroke-linejoin: miter; stroke-linecap: square"/>
   </g>
   <g id="patch_5">
    <path d="M 45.716875 339.84 
L 492.116875 339.84 
" style="fill: none; stroke: #000000; stroke-width: 0.8; stroke-linejoin: miter; stroke-linecap: square"/>
   </g>
   <g id="patch_6">
    <path d="M 45.716875 7.2 
L 492.116875 7.2 
" style="fill: none; stroke: #000000; stroke-width: 0.8; stroke-linejoin: miter; stroke-linecap: square"/>
   </g>
   <g id="legend_1">
    <g id="patch_7">
     <path d="M 83.295 471.126625 
L 454.53875 471.126625 
Q 456.53875 471.126625 456.53875 469.126625 
L 456.53875 396.736 
Q 456.53875 394.736 454.53875 394.736 
L 83.295 394.736 
Q 81.295 394.736 81.295 396.736 
L 81.295 469.126625 
Q 81.295 471.126625 83.295 471.126625 
z
" style="fill: #ffffff; opacity: 0.8; stroke: #cccccc; stroke-linejoin: miter"/>
    </g>
    <g id="line2d_28">
     <path d="M 85.295 402.834438 
L 95.295 402.834438 
L 105.295 402.834438 
" style="fill: none; stroke: #1f77b4; stroke-width: 1.5; stroke-linecap: square"/>
    </g>
    <g id="text_14">
     <!-- AUCPR for White = 0.73, Count: 8,355, Pos: 2,136, Neg: 6,219 -->
     <g transform="translate(113.295 406.334438) scale(0.1 -0.1)">
      <defs>
       <path id="DejaVuSans-41" d="M 2188 4044 
L 1331 1722 
L 3047 1722 
L 2188 4044 
z
M 1831 4666 
L 2547 4666 
L 4325 0 
L 3669 0 
L 3244 1197 
L 1141 1197 
L 716 0 
L 50 0 
L 1831 4666 
z
" transform="scale(0.015625)"/>
       <path id="DejaVuSans-55" d="M 556 4666 
L 1191 4666 
L 1191 1831 
Q 1191 1081 1462 751 
Q 1734 422 2344 422 
Q 2950 422 3222 751 
Q 3494 1081 3494 1831 
L 3494 4666 
L 4128 4666 
L 4128 1753 
Q 4128 841 3676 375 
Q 3225 -91 2344 -91 
Q 1459 -91 1007 375 
Q 556 841 556 1753 
L 556 4666 
z
" transform="scale(0.015625)"/>
       <path id="DejaVuSans-43" d="M 4122 4306 
L 4122 3641 
Q 3803 3938 3442 4084 
Q 3081 4231 2675 4231 
Q 1875 4231 1450 3742 
Q 1025 3253 1025 2328 
Q 1025 1406 1450 917 
Q 1875 428 2675 428 
Q 3081 428 3442 575 
Q 3803 722 4122 1019 
L 4122 359 
Q 3791 134 3420 21 
Q 3050 -91 2638 -91 
Q 1578 -91 968 557 
Q 359 1206 359 2328 
Q 359 3453 968 4101 
Q 1578 4750 2638 4750 
Q 3056 4750 3426 4639 
Q 3797 4528 4122 4306 
z
" transform="scale(0.015625)"/>
       <path id="DejaVuSans-20" transform="scale(0.015625)"/>
       <path id="DejaVuSans-66" d="M 2375 4863 
L 2375 4384 
L 1825 4384 
Q 1516 4384 1395 4259 
Q 1275 4134 1275 3809 
L 1275 3500 
L 2222 3500 
L 2222 3053 
L 1275 3053 
L 1275 0 
L 697 0 
L 697 3053 
L 147 3053 
L 147 3500 
L 697 3500 
L 697 3744 
Q 697 4328 969 4595 
Q 1241 4863 1831 4863 
L 2375 4863 
z
" transform="scale(0.015625)"/>
       <path id="DejaVuSans-57" d="M 213 4666 
L 850 4666 
L 1831 722 
L 2809 4666 
L 3519 4666 
L 4500 722 
L 5478 4666 
L 6119 4666 
L 4947 0 
L 4153 0 
L 3169 4050 
L 2175 0 
L 1381 0 
L 213 4666 
z
" transform="scale(0.015625)"/>
       <path id="DejaVuSans-68" d="M 3513 2113 
L 3513 0 
L 2938 0 
L 2938 2094 
Q 2938 2591 2744 2837 
Q 2550 3084 2163 3084 
Q 1697 3084 1428 2787 
Q 1159 2491 1159 1978 
L 1159 0 
L 581 0 
L 581 4863 
L 1159 4863 
L 1159 2956 
Q 1366 3272 1645 3428 
Q 1925 3584 2291 3584 
Q 2894 3584 3203 3211 
Q 3513 2838 3513 2113 
z
" transform="scale(0.015625)"/>
       <path id="DejaVuSans-74" d="M 1172 4494 
L 1172 3500 
L 2356 3500 
L 2356 3053 
L 1172 3053 
L 1172 1153 
Q 1172 725 1289 603 
Q 1406 481 1766 481 
L 2356 481 
L 2356 0 
L 1766 0 
Q 1100 0 847 248 
Q 594 497 594 1153 
L 594 3053 
L 172 3053 
L 172 3500 
L 594 3500 
L 594 4494 
L 1172 4494 
z
" transform="scale(0.015625)"/>
       <path id="DejaVuSans-3d" d="M 678 2906 
L 4684 2906 
L 4684 2381 
L 678 2381 
L 678 2906 
z
M 678 1631 
L 4684 1631 
L 4684 1100 
L 678 1100 
L 678 1631 
z
" transform="scale(0.015625)"/>
       <path id="DejaVuSans-37" d="M 525 4666 
L 3525 4666 
L 3525 4397 
L 1831 0 
L 1172 0 
L 2766 4134 
L 525 4134 
L 525 4666 
z
" transform="scale(0.015625)"/>
       <path id="DejaVuSans-33" d="M 2597 2516 
Q 3050 2419 3304 2112 
Q 3559 1806 3559 1356 
Q 3559 666 3084 287 
Q 2609 -91 1734 -91 
Q 1441 -91 1130 -33 
Q 819 25 488 141 
L 488 750 
Q 750 597 1062 519 
Q 1375 441 1716 441 
Q 2309 441 2620 675 
Q 2931 909 2931 1356 
Q 2931 1769 2642 2001 
Q 2353 2234 1838 2234 
L 1294 2234 
L 1294 2753 
L 1863 2753 
Q 2328 2753 2575 2939 
Q 2822 3125 2822 3475 
Q 2822 3834 2567 4026 
Q 2313 4219 1838 4219 
Q 1578 4219 1281 4162 
Q 984 4106 628 3988 
L 628 4550 
Q 988 4650 1302 4700 
Q 1616 4750 1894 4750 
Q 2613 4750 3031 4423 
Q 3450 4097 3450 3541 
Q 3450 3153 3228 2886 
Q 3006 2619 2597 2516 
z
" transform="scale(0.015625)"/>
       <path id="DejaVuSans-2c" d="M 750 794 
L 1409 794 
L 1409 256 
L 897 -744 
L 494 -744 
L 750 256 
L 750 794 
z
" transform="scale(0.015625)"/>
       <path id="DejaVuSans-75" d="M 544 1381 
L 544 3500 
L 1119 3500 
L 1119 1403 
Q 1119 906 1312 657 
Q 1506 409 1894 409 
Q 2359 409 2629 706 
Q 2900 1003 2900 1516 
L 2900 3500 
L 3475 3500 
L 3475 0 
L 2900 0 
L 2900 538 
Q 2691 219 2414 64 
Q 2138 -91 1772 -91 
Q 1169 -91 856 284 
Q 544 659 544 1381 
z
M 1991 3584 
L 1991 3584 
z
" transform="scale(0.015625)"/>
       <path id="DejaVuSans-3a" d="M 750 794 
L 1409 794 
L 1409 0 
L 750 0 
L 750 794 
z
M 750 3309 
L 1409 3309 
L 1409 2516 
L 750 2516 
L 750 3309 
z
" transform="scale(0.015625)"/>
       <path id="DejaVuSans-35" d="M 691 4666 
L 3169 4666 
L 3169 4134 
L 1269 4134 
L 1269 2991 
Q 1406 3038 1543 3061 
Q 1681 3084 1819 3084 
Q 2600 3084 3056 2656 
Q 3513 2228 3513 1497 
Q 3513 744 3044 326 
Q 2575 -91 1722 -91 
Q 1428 -91 1123 -41 
Q 819 9 494 109 
L 494 744 
Q 775 591 1075 516 
Q 1375 441 1709 441 
Q 2250 441 2565 725 
Q 2881 1009 2881 1497 
Q 2881 1984 2565 2268 
Q 2250 2553 1709 2553 
Q 1456 2553 1204 2497 
Q 953 2441 691 2322 
L 691 4666 
z
" transform="scale(0.015625)"/>
       <path id="DejaVuSans-4e" d="M 628 4666 
L 1478 4666 
L 3547 763 
L 3547 4666 
L 4159 4666 
L 4159 0 
L 3309 0 
L 1241 3903 
L 1241 0 
L 628 0 
L 628 4666 
z
" transform="scale(0.015625)"/>
       <path id="DejaVuSans-67" d="M 2906 1791 
Q 2906 2416 2648 2759 
Q 2391 3103 1925 3103 
Q 1463 3103 1205 2759 
Q 947 2416 947 1791 
Q 947 1169 1205 825 
Q 1463 481 1925 481 
Q 2391 481 2648 825 
Q 2906 1169 2906 1791 
z
M 3481 434 
Q 3481 -459 3084 -895 
Q 2688 -1331 1869 -1331 
Q 1566 -1331 1297 -1286 
Q 1028 -1241 775 -1147 
L 775 -588 
Q 1028 -725 1275 -790 
Q 1522 -856 1778 -856 
Q 2344 -856 2625 -561 
Q 2906 -266 2906 331 
L 2906 616 
Q 2728 306 2450 153 
Q 2172 0 1784 0 
Q 1141 0 747 490 
Q 353 981 353 1791 
Q 353 2603 747 3093 
Q 1141 3584 1784 3584 
Q 2172 3584 2450 3431 
Q 2728 3278 2906 2969 
L 2906 3500 
L 3481 3500 
L 3481 434 
z
" transform="scale(0.015625)"/>
       <path id="DejaVuSans-39" d="M 703 97 
L 703 672 
Q 941 559 1184 500 
Q 1428 441 1663 441 
Q 2288 441 2617 861 
Q 2947 1281 2994 2138 
Q 2813 1869 2534 1725 
Q 2256 1581 1919 1581 
Q 1219 1581 811 2004 
Q 403 2428 403 3163 
Q 403 3881 828 4315 
Q 1253 4750 1959 4750 
Q 2769 4750 3195 4129 
Q 3622 3509 3622 2328 
Q 3622 1225 3098 567 
Q 2575 -91 1691 -91 
Q 1453 -91 1209 -44 
Q 966 3 703 97 
z
M 1959 2075 
Q 2384 2075 2632 2365 
Q 2881 2656 2881 3163 
Q 2881 3666 2632 3958 
Q 2384 4250 1959 4250 
Q 1534 4250 1286 3958 
Q 1038 3666 1038 3163 
Q 1038 2656 1286 2365 
Q 1534 2075 1959 2075 
z
" transform="scale(0.015625)"/>
      </defs>
      <use xlink:href="#DejaVuSans-41"/>
      <use xlink:href="#DejaVuSans-55" x="68.408203"/>
      <use xlink:href="#DejaVuSans-43" x="141.601562"/>
      <use xlink:href="#DejaVuSans-50" x="211.425781"/>
      <use xlink:href="#DejaVuSans-52" x="271.728516"/>
      <use xlink:href="#DejaVuSans-20" x="341.210938"/>
      <use xlink:href="#DejaVuSans-66" x="372.998047"/>
      <use xlink:href="#DejaVuSans-6f" x="408.203125"/>
      <use xlink:href="#DejaVuSans-72" x="469.384766"/>
      <use xlink:href="#DejaVuSans-20" x="510.498047"/>
      <use xlink:href="#DejaVuSans-57" x="542.285156"/>
      <use xlink:href="#DejaVuSans-68" x="641.162109"/>
      <use xlink:href="#DejaVuSans-69" x="704.541016"/>
      <use xlink:href="#DejaVuSans-74" x="732.324219"/>
      <use xlink:href="#DejaVuSans-65" x="771.533203"/>
      <use xlink:href="#DejaVuSans-20" x="833.056641"/>
      <use xlink:href="#DejaVuSans-3d" x="864.84375"/>
      <use xlink:href="#DejaVuSans-20" x="948.632812"/>
      <use xlink:href="#DejaVuSans-30" x="980.419922"/>
      <use xlink:href="#DejaVuSans-2e" x="1044.042969"/>
      <use xlink:href="#DejaVuSans-37" x="1075.830078"/>
      <use xlink:href="#DejaVuSans-33" x="1139.453125"/>
      <use xlink:href="#DejaVuSans-2c" x="1203.076172"/>
      <use xlink:href="#DejaVuSans-20" x="1234.863281"/>
      <use xlink:href="#DejaVuSans-43" x="1266.650391"/>
      <use xlink:href="#DejaVuSans-6f" x="1336.474609"/>
      <use xlink:href="#DejaVuSans-75" x="1397.65625"/>
      <use xlink:href="#DejaVuSans-6e" x="1461.035156"/>
      <use xlink:href="#DejaVuSans-74" x="1524.414062"/>
      <use xlink:href="#DejaVuSans-3a" x="1563.623047"/>
      <use xlink:href="#DejaVuSans-20" x="1597.314453"/>
      <use xlink:href="#DejaVuSans-38" x="1629.101562"/>
      <use xlink:href="#DejaVuSans-2c" x="1692.724609"/>
      <use xlink:href="#DejaVuSans-33" x="1724.511719"/>
      <use xlink:href="#DejaVuSans-35" x="1788.134766"/>
      <use xlink:href="#DejaVuSans-35" x="1851.757812"/>
      <use xlink:href="#DejaVuSans-2c" x="1915.380859"/>
      <use xlink:href="#DejaVuSans-20" x="1947.167969"/>
      <use xlink:href="#DejaVuSans-50" x="1978.955078"/>
      <use xlink:href="#DejaVuSans-6f" x="2035.632812"/>
      <use xlink:href="#DejaVuSans-73" x="2096.814453"/>
      <use xlink:href="#DejaVuSans-3a" x="2148.914062"/>
      <use xlink:href="#DejaVuSans-20" x="2182.605469"/>
      <use xlink:href="#DejaVuSans-32" x="2214.392578"/>
      <use xlink:href="#DejaVuSans-2c" x="2278.015625"/>
      <use xlink:href="#DejaVuSans-31" x="2309.802734"/>
      <use xlink:href="#DejaVuSans-33" x="2373.425781"/>
      <use xlink:href="#DejaVuSans-36" x="2437.048828"/>
      <use xlink:href="#DejaVuSans-2c" x="2500.671875"/>
      <use xlink:href="#DejaVuSans-20" x="2532.458984"/>
      <use xlink:href="#DejaVuSans-4e" x="2564.246094"/>
      <use xlink:href="#DejaVuSans-65" x="2639.050781"/>
      <use xlink:href="#DejaVuSans-67" x="2700.574219"/>
      <use xlink:href="#DejaVuSans-3a" x="2764.050781"/>
      <use xlink:href="#DejaVuSans-20" x="2797.742188"/>
      <use xlink:href="#DejaVuSans-36" x="2829.529297"/>
      <use xlink:href="#DejaVuSans-2c" x="2893.152344"/>
      <use xlink:href="#DejaVuSans-32" x="2924.939453"/>
      <use xlink:href="#DejaVuSans-31" x="2988.5625"/>
      <use xlink:href="#DejaVuSans-39" x="3052.185547"/>
     </g>
    </g>
    <g id="line2d_29">
     <path d="M 85.295 417.512563 
L 95.295 417.512563 
L 105.295 417.512563 
" style="fill: none; stroke: #ff7f0e; stroke-width: 1.5; stroke-linecap: square"/>
    </g>
    <g id="text_15">
     <!-- AUCPR for Black = 0.61, Count: 936, Pos: 109, Neg: 827 -->
     <g transform="translate(113.295 421.012563) scale(0.1 -0.1)">
      <defs>
       <path id="DejaVuSans-42" d="M 1259 2228 
L 1259 519 
L 2272 519 
Q 2781 519 3026 730 
Q 3272 941 3272 1375 
Q 3272 1813 3026 2020 
Q 2781 2228 2272 2228 
L 1259 2228 
z
M 1259 4147 
L 1259 2741 
L 2194 2741 
Q 2656 2741 2882 2914 
Q 3109 3088 3109 3444 
Q 3109 3797 2882 3972 
Q 2656 4147 2194 4147 
L 1259 4147 
z
M 628 4666 
L 2241 4666 
Q 2963 4666 3353 4366 
Q 3744 4066 3744 3513 
Q 3744 3084 3544 2831 
Q 3344 2578 2956 2516 
Q 3422 2416 3680 2098 
Q 3938 1781 3938 1306 
Q 3938 681 3513 340 
Q 3088 0 2303 0 
L 628 0 
L 628 4666 
z
" transform="scale(0.015625)"/>
       <path id="DejaVuSans-6b" d="M 581 4863 
L 1159 4863 
L 1159 1991 
L 2875 3500 
L 3609 3500 
L 1753 1863 
L 3688 0 
L 2938 0 
L 1159 1709 
L 1159 0 
L 581 0 
L 581 4863 
z
" transform="scale(0.015625)"/>
      </defs>
      <use xlink:href="#DejaVuSans-41"/>
      <use xlink:href="#DejaVuSans-55" x="68.408203"/>
      <use xlink:href="#DejaVuSans-43" x="141.601562"/>
      <use xlink:href="#DejaVuSans-50" x="211.425781"/>
      <use xlink:href="#DejaVuSans-52" x="271.728516"/>
      <use xlink:href="#DejaVuSans-20" x="341.210938"/>
      <use xlink:href="#DejaVuSans-66" x="372.998047"/>
      <use xlink:href="#DejaVuSans-6f" x="408.203125"/>
      <use xlink:href="#DejaVuSans-72" x="469.384766"/>
      <use xlink:href="#DejaVuSans-20" x="510.498047"/>
      <use xlink:href="#DejaVuSans-42" x="542.285156"/>
      <use xlink:href="#DejaVuSans-6c" x="610.888672"/>
      <use xlink:href="#DejaVuSans-61" x="638.671875"/>
      <use xlink:href="#DejaVuSans-63" x="699.951172"/>
      <use xlink:href="#DejaVuSans-6b" x="754.931641"/>
      <use xlink:href="#DejaVuSans-20" x="812.841797"/>
      <use xlink:href="#DejaVuSans-3d" x="844.628906"/>
      <use xlink:href="#DejaVuSans-20" x="928.417969"/>
      <use xlink:href="#DejaVuSans-30" x="960.205078"/>
      <use xlink:href="#DejaVuSans-2e" x="1023.828125"/>
      <use xlink:href="#DejaVuSans-36" x="1055.615234"/>
      <use xlink:href="#DejaVuSans-31" x="1119.238281"/>
      <use xlink:href="#DejaVuSans-2c" x="1182.861328"/>
      <use xlink:href="#DejaVuSans-20" x="1214.648438"/>
      <use xlink:href="#DejaVuSans-43" x="1246.435547"/>
      <use xlink:href="#DejaVuSans-6f" x="1316.259766"/>
      <use xlink:href="#DejaVuSans-75" x="1377.441406"/>
      <use xlink:href="#DejaVuSans-6e" x="1440.820312"/>
      <use xlink:href="#DejaVuSans-74" x="1504.199219"/>
      <use xlink:href="#DejaVuSans-3a" x="1543.408203"/>
      <use xlink:href="#DejaVuSans-20" x="1577.099609"/>
      <use xlink:href="#DejaVuSans-39" x="1608.886719"/>
      <use xlink:href="#DejaVuSans-33" x="1672.509766"/>
      <use xlink:href="#DejaVuSans-36" x="1736.132812"/>
      <use xlink:href="#DejaVuSans-2c" x="1799.755859"/>
      <use xlink:href="#DejaVuSans-20" x="1831.542969"/>
      <use xlink:href="#DejaVuSans-50" x="1863.330078"/>
      <use xlink:href="#DejaVuSans-6f" x="1920.007812"/>
      <use xlink:href="#DejaVuSans-73" x="1981.189453"/>
      <use xlink:href="#DejaVuSans-3a" x="2033.289062"/>
      <use xlink:href="#DejaVuSans-20" x="2066.980469"/>
      <use xlink:href="#DejaVuSans-31" x="2098.767578"/>
      <use xlink:href="#DejaVuSans-30" x="2162.390625"/>
      <use xlink:href="#DejaVuSans-39" x="2226.013672"/>
      <use xlink:href="#DejaVuSans-2c" x="2289.636719"/>
      <use xlink:href="#DejaVuSans-20" x="2321.423828"/>
      <use xlink:href="#DejaVuSans-4e" x="2353.210938"/>
      <use xlink:href="#DejaVuSans-65" x="2428.015625"/>
      <use xlink:href="#DejaVuSans-67" x="2489.539062"/>
      <use xlink:href="#DejaVuSans-3a" x="2553.015625"/>
      <use xlink:href="#DejaVuSans-20" x="2586.707031"/>
      <use xlink:href="#DejaVuSans-38" x="2618.494141"/>
      <use xlink:href="#DejaVuSans-32" x="2682.117188"/>
      <use xlink:href="#DejaVuSans-37" x="2745.740234"/>
     </g>
    </g>
    <g id="line2d_30">
     <path d="M 85.295 432.190688 
L 95.295 432.190688 
L 105.295 432.190688 
" style="fill: none; stroke: #2ca02c; stroke-width: 1.5; stroke-linecap: square"/>
    </g>
    <g id="text_16">
     <!-- AUCPR for Asian-Pac-Islander = 0.72, Count: 299, Pos: 75, Neg: 224 -->
     <g transform="translate(113.295 435.690688) scale(0.1 -0.1)">
      <defs>
       <path id="DejaVuSans-2d" d="M 313 2009 
L 1997 2009 
L 1997 1497 
L 313 1497 
L 313 2009 
z
" transform="scale(0.015625)"/>
       <path id="DejaVuSans-49" d="M 628 4666 
L 1259 4666 
L 1259 0 
L 628 0 
L 628 4666 
z
" transform="scale(0.015625)"/>
       <path id="DejaVuSans-64" d="M 2906 2969 
L 2906 4863 
L 3481 4863 
L 3481 0 
L 2906 0 
L 2906 525 
Q 2725 213 2448 61 
Q 2172 -91 1784 -91 
Q 1150 -91 751 415 
Q 353 922 353 1747 
Q 353 2572 751 3078 
Q 1150 3584 1784 3584 
Q 2172 3584 2448 3432 
Q 2725 3281 2906 2969 
z
M 947 1747 
Q 947 1113 1208 752 
Q 1469 391 1925 391 
Q 2381 391 2643 752 
Q 2906 1113 2906 1747 
Q 2906 2381 2643 2742 
Q 2381 3103 1925 3103 
Q 1469 3103 1208 2742 
Q 947 2381 947 1747 
z
" transform="scale(0.015625)"/>
      </defs>
      <use xlink:href="#DejaVuSans-41"/>
      <use xlink:href="#DejaVuSans-55" x="68.408203"/>
      <use xlink:href="#DejaVuSans-43" x="141.601562"/>
      <use xlink:href="#DejaVuSans-50" x="211.425781"/>
      <use xlink:href="#DejaVuSans-52" x="271.728516"/>
      <use xlink:href="#DejaVuSans-20" x="341.210938"/>
      <use xlink:href="#DejaVuSans-66" x="372.998047"/>
      <use xlink:href="#DejaVuSans-6f" x="408.203125"/>
      <use xlink:href="#DejaVuSans-72" x="469.384766"/>
      <use xlink:href="#DejaVuSans-20" x="510.498047"/>
      <use xlink:href="#DejaVuSans-41" x="542.285156"/>
      <use xlink:href="#DejaVuSans-73" x="610.693359"/>
      <use xlink:href="#DejaVuSans-69" x="662.792969"/>
      <use xlink:href="#DejaVuSans-61" x="690.576172"/>
      <use xlink:href="#DejaVuSans-6e" x="751.855469"/>
      <use xlink:href="#DejaVuSans-2d" x="815.234375"/>
      <use xlink:href="#DejaVuSans-50" x="851.318359"/>
      <use xlink:href="#DejaVuSans-61" x="907.121094"/>
      <use xlink:href="#DejaVuSans-63" x="968.400391"/>
      <use xlink:href="#DejaVuSans-2d" x="1023.380859"/>
      <use xlink:href="#DejaVuSans-49" x="1059.464844"/>
      <use xlink:href="#DejaVuSans-73" x="1088.957031"/>
      <use xlink:href="#DejaVuSans-6c" x="1141.056641"/>
      <use xlink:href="#DejaVuSans-61" x="1168.839844"/>
      <use xlink:href="#DejaVuSans-6e" x="1230.119141"/>
      <use xlink:href="#DejaVuSans-64" x="1293.498047"/>
      <use xlink:href="#DejaVuSans-65" x="1356.974609"/>
      <use xlink:href="#DejaVuSans-72" x="1418.498047"/>
      <use xlink:href="#DejaVuSans-20" x="1459.611328"/>
      <use xlink:href="#DejaVuSans-3d" x="1491.398438"/>
      <use xlink:href="#DejaVuSans-20" x="1575.1875"/>
      <use xlink:href="#DejaVuSans-30" x="1606.974609"/>
      <use xlink:href="#DejaVuSans-2e" x="1670.597656"/>
      <use xlink:href="#DejaVuSans-37" x="1702.384766"/>
      <use xlink:href="#DejaVuSans-32" x="1766.007812"/>
      <use xlink:href="#DejaVuSans-2c" x="1829.630859"/>
      <use xlink:href="#DejaVuSans-20" x="1861.417969"/>
      <use xlink:href="#DejaVuSans-43" x="1893.205078"/>
      <use xlink:href="#DejaVuSans-6f" x="1963.029297"/>
      <use xlink:href="#DejaVuSans-75" x="2024.210938"/>
      <use xlink:href="#DejaVuSans-6e" x="2087.589844"/>
      <use xlink:href="#DejaVuSans-74" x="2150.96875"/>
      <use xlink:href="#DejaVuSans-3a" x="2190.177734"/>
      <use xlink:href="#DejaVuSans-20" x="2223.869141"/>
      <use xlink:href="#DejaVuSans-32" x="2255.65625"/>
      <use xlink:href="#DejaVuSans-39" x="2319.279297"/>
      <use xlink:href="#DejaVuSans-39" x="2382.902344"/>
      <use xlink:href="#DejaVuSans-2c" x="2446.525391"/>
      <use xlink:href="#DejaVuSans-20" x="2478.3125"/>
      <use xlink:href="#DejaVuSans-50" x="2510.099609"/>
      <use xlink:href="#DejaVuSans-6f" x="2566.777344"/>
      <use xlink:href="#DejaVuSans-73" x="2627.958984"/>
      <use xlink:href="#DejaVuSans-3a" x="2680.058594"/>
      <use xlink:href="#DejaVuSans-20" x="2713.75"/>
      <use xlink:href="#DejaVuSans-37" x="2745.537109"/>
      <use xlink:href="#DejaVuSans-35" x="2809.160156"/>
      <use xlink:href="#DejaVuSans-2c" x="2872.783203"/>
      <use xlink:href="#DejaVuSans-20" x="2904.570312"/>
      <use xlink:href="#DejaVuSans-4e" x="2936.357422"/>
      <use xlink:href="#DejaVuSans-65" x="3011.162109"/>
      <use xlink:href="#DejaVuSans-67" x="3072.685547"/>
      <use xlink:href="#DejaVuSans-3a" x="3136.162109"/>
      <use xlink:href="#DejaVuSans-20" x="3169.853516"/>
      <use xlink:href="#DejaVuSans-32" x="3201.640625"/>
      <use xlink:href="#DejaVuSans-32" x="3265.263672"/>
      <use xlink:href="#DejaVuSans-34" x="3328.886719"/>
     </g>
    </g>
    <g id="line2d_31">
     <path d="M 85.295 446.868813 
L 95.295 446.868813 
L 105.295 446.868813 
" style="fill: none; stroke: #d62728; stroke-width: 1.5; stroke-linecap: square"/>
    </g>
    <g id="text_17">
     <!-- AUCPR for Amer-Indian-Eskimo = 0.23, Count: 91, Pos: 8, Neg: 83 -->
     <g transform="translate(113.295 450.368813) scale(0.1 -0.1)">
      <defs>
       <path id="DejaVuSans-6d" d="M 3328 2828 
Q 3544 3216 3844 3400 
Q 4144 3584 4550 3584 
Q 5097 3584 5394 3201 
Q 5691 2819 5691 2113 
L 5691 0 
L 5113 0 
L 5113 2094 
Q 5113 2597 4934 2840 
Q 4756 3084 4391 3084 
Q 3944 3084 3684 2787 
Q 3425 2491 3425 1978 
L 3425 0 
L 2847 0 
L 2847 2094 
Q 2847 2600 2669 2842 
Q 2491 3084 2119 3084 
Q 1678 3084 1418 2786 
Q 1159 2488 1159 1978 
L 1159 0 
L 581 0 
L 581 3500 
L 1159 3500 
L 1159 2956 
Q 1356 3278 1631 3431 
Q 1906 3584 2284 3584 
Q 2666 3584 2933 3390 
Q 3200 3197 3328 2828 
z
" transform="scale(0.015625)"/>
       <path id="DejaVuSans-45" d="M 628 4666 
L 3578 4666 
L 3578 4134 
L 1259 4134 
L 1259 2753 
L 3481 2753 
L 3481 2222 
L 1259 2222 
L 1259 531 
L 3634 531 
L 3634 0 
L 628 0 
L 628 4666 
z
" transform="scale(0.015625)"/>
      </defs>
      <use xlink:href="#DejaVuSans-41"/>
      <use xlink:href="#DejaVuSans-55" x="68.408203"/>
      <use xlink:href="#DejaVuSans-43" x="141.601562"/>
      <use xlink:href="#DejaVuSans-50" x="211.425781"/>
      <use xlink:href="#DejaVuSans-52" x="271.728516"/>
      <use xlink:href="#DejaVuSans-20" x="341.210938"/>
      <use xlink:href="#DejaVuSans-66" x="372.998047"/>
      <use xlink:href="#DejaVuSans-6f" x="408.203125"/>
      <use xlink:href="#DejaVuSans-72" x="469.384766"/>
      <use xlink:href="#DejaVuSans-20" x="510.498047"/>
      <use xlink:href="#DejaVuSans-41" x="542.285156"/>
      <use xlink:href="#DejaVuSans-6d" x="610.693359"/>
      <use xlink:href="#DejaVuSans-65" x="708.105469"/>
      <use xlink:href="#DejaVuSans-72" x="769.628906"/>
      <use xlink:href="#DejaVuSans-2d" x="804.367188"/>
      <use xlink:href="#DejaVuSans-49" x="840.451172"/>
      <use xlink:href="#DejaVuSans-6e" x="869.943359"/>
      <use xlink:href="#DejaVuSans-64" x="933.322266"/>
      <use xlink:href="#DejaVuSans-69" x="996.798828"/>
      <use xlink:href="#DejaVuSans-61" x="1024.582031"/>
      <use xlink:href="#DejaVuSans-6e" x="1085.861328"/>
      <use xlink:href="#DejaVuSans-2d" x="1149.240234"/>
      <use xlink:href="#DejaVuSans-45" x="1185.324219"/>
      <use xlink:href="#DejaVuSans-73" x="1248.507812"/>
      <use xlink:href="#DejaVuSans-6b" x="1300.607422"/>
      <use xlink:href="#DejaVuSans-69" x="1358.517578"/>
      <use xlink:href="#DejaVuSans-6d" x="1386.300781"/>
      <use xlink:href="#DejaVuSans-6f" x="1483.712891"/>
      <use xlink:href="#DejaVuSans-20" x="1544.894531"/>
      <use xlink:href="#DejaVuSans-3d" x="1576.681641"/>
      <use xlink:href="#DejaVuSans-20" x="1660.470703"/>
      <use xlink:href="#DejaVuSans-30" x="1692.257812"/>
      <use xlink:href="#DejaVuSans-2e" x="1755.880859"/>
      <use xlink:href="#DejaVuSans-32" x="1787.667969"/>
      <use xlink:href="#DejaVuSans-33" x="1851.291016"/>
      <use xlink:href="#DejaVuSans-2c" x="1914.914062"/>
      <use xlink:href="#DejaVuSans-20" x="1946.701172"/>
      <use xlink:href="#DejaVuSans-43" x="1978.488281"/>
      <use xlink:href="#DejaVuSans-6f" x="2048.3125"/>
      <use xlink:href="#DejaVuSans-75" x="2109.494141"/>
      <use xlink:href="#DejaVuSans-6e" x="2172.873047"/>
      <use xlink:href="#DejaVuSans-74" x="2236.251953"/>
      <use xlink:href="#DejaVuSans-3a" x="2275.460938"/>
      <use xlink:href="#DejaVuSans-20" x="2309.152344"/>
      <use xlink:href="#DejaVuSans-39" x="2340.939453"/>
      <use xlink:href="#DejaVuSans-31" x="2404.5625"/>
      <use xlink:href="#DejaVuSans-2c" x="2468.185547"/>
      <use xlink:href="#DejaVuSans-20" x="2499.972656"/>
      <use xlink:href="#DejaVuSans-50" x="2531.759766"/>
      <use xlink:href="#DejaVuSans-6f" x="2588.4375"/>
      <use xlink:href="#DejaVuSans-73" x="2649.619141"/>
      <use xlink:href="#DejaVuSans-3a" x="2701.71875"/>
      <use xlink:href="#DejaVuSans-20" x="2735.410156"/>
      <use xlink:href="#DejaVuSans-38" x="2767.197266"/>
      <use xlink:href="#DejaVuSans-2c" x="2830.820312"/>
      <use xlink:href="#DejaVuSans-20" x="2862.607422"/>
      <use xlink:href="#DejaVuSans-4e" x="2894.394531"/>
      <use xlink:href="#DejaVuSans-65" x="2969.199219"/>
      <use xlink:href="#DejaVuSans-67" x="3030.722656"/>
      <use xlink:href="#DejaVuSans-3a" x="3094.199219"/>
      <use xlink:href="#DejaVuSans-20" x="3127.890625"/>
      <use xlink:href="#DejaVuSans-38" x="3159.677734"/>
      <use xlink:href="#DejaVuSans-33" x="3223.300781"/>
     </g>
    </g>
    <g id="line2d_32">
     <path d="M 85.295 461.546938 
L 95.295 461.546938 
L 105.295 461.546938 
" style="fill: none; stroke: #9467bd; stroke-width: 1.5; stroke-linecap: square"/>
    </g>
    <g id="text_18">
     <!-- AUCPR for Other = 0.73, Count: 88, Pos: 10, Neg: 78 -->
     <g transform="translate(113.295 465.046938) scale(0.1 -0.1)">
      <defs>
       <path id="DejaVuSans-4f" d="M 2522 4238 
Q 1834 4238 1429 3725 
Q 1025 3213 1025 2328 
Q 1025 1447 1429 934 
Q 1834 422 2522 422 
Q 3209 422 3611 934 
Q 4013 1447 4013 2328 
Q 4013 3213 3611 3725 
Q 3209 4238 2522 4238 
z
M 2522 4750 
Q 3503 4750 4090 4092 
Q 4678 3434 4678 2328 
Q 4678 1225 4090 567 
Q 3503 -91 2522 -91 
Q 1538 -91 948 565 
Q 359 1222 359 2328 
Q 359 3434 948 4092 
Q 1538 4750 2522 4750 
z
" transform="scale(0.015625)"/>
      </defs>
      <use xlink:href="#DejaVuSans-41"/>
      <use xlink:href="#DejaVuSans-55" x="68.408203"/>
      <use xlink:href="#DejaVuSans-43" x="141.601562"/>
      <use xlink:href="#DejaVuSans-50" x="211.425781"/>
      <use xlink:href="#DejaVuSans-52" x="271.728516"/>
      <use xlink:href="#DejaVuSans-20" x="341.210938"/>
      <use xlink:href="#DejaVuSans-66" x="372.998047"/>
      <use xlink:href="#DejaVuSans-6f" x="408.203125"/>
      <use xlink:href="#DejaVuSans-72" x="469.384766"/>
      <use xlink:href="#DejaVuSans-20" x="510.498047"/>
      <use xlink:href="#DejaVuSans-4f" x="542.285156"/>
      <use xlink:href="#DejaVuSans-74" x="620.996094"/>
      <use xlink:href="#DejaVuSans-68" x="660.205078"/>
      <use xlink:href="#DejaVuSans-65" x="723.583984"/>
      <use xlink:href="#DejaVuSans-72" x="785.107422"/>
      <use xlink:href="#DejaVuSans-20" x="826.220703"/>
      <use xlink:href="#DejaVuSans-3d" x="858.007812"/>
      <use xlink:href="#DejaVuSans-20" x="941.796875"/>
      <use xlink:href="#DejaVuSans-30" x="973.583984"/>
      <use xlink:href="#DejaVuSans-2e" x="1037.207031"/>
      <use xlink:href="#DejaVuSans-37" x="1068.994141"/>
      <use xlink:href="#DejaVuSans-33" x="1132.617188"/>
      <use xlink:href="#DejaVuSans-2c" x="1196.240234"/>
      <use xlink:href="#DejaVuSans-20" x="1228.027344"/>
      <use xlink:href="#DejaVuSans-43" x="1259.814453"/>
      <use xlink:href="#DejaVuSans-6f" x="1329.638672"/>
      <use xlink:href="#DejaVuSans-75" x="1390.820312"/>
      <use xlink:href="#DejaVuSans-6e" x="1454.199219"/>
      <use xlink:href="#DejaVuSans-74" x="1517.578125"/>
      <use xlink:href="#DejaVuSans-3a" x="1556.787109"/>
      <use xlink:href="#DejaVuSans-20" x="1590.478516"/>
      <use xlink:href="#DejaVuSans-38" x="1622.265625"/>
      <use xlink:href="#DejaVuSans-38" x="1685.888672"/>
      <use xlink:href="#DejaVuSans-2c" x="1749.511719"/>
      <use xlink:href="#DejaVuSans-20" x="1781.298828"/>
      <use xlink:href="#DejaVuSans-50" x="1813.085938"/>
      <use xlink:href="#DejaVuSans-6f" x="1869.763672"/>
      <use xlink:href="#DejaVuSans-73" x="1930.945312"/>
      <use xlink:href="#DejaVuSans-3a" x="1983.044922"/>
      <use xlink:href="#DejaVuSans-20" x="2016.736328"/>
      <use xlink:href="#DejaVuSans-31" x="2048.523438"/>
      <use xlink:href="#DejaVuSans-30" x="2112.146484"/>
      <use xlink:href="#DejaVuSans-2c" x="2175.769531"/>
      <use xlink:href="#DejaVuSans-20" x="2207.556641"/>
      <use xlink:href="#DejaVuSans-4e" x="2239.34375"/>
      <use xlink:href="#DejaVuSans-65" x="2314.148438"/>
      <use xlink:href="#DejaVuSans-67" x="2375.671875"/>
      <use xlink:href="#DejaVuSans-3a" x="2439.148438"/>
      <use xlink:href="#DejaVuSans-20" x="2472.839844"/>
      <use xlink:href="#DejaVuSans-37" x="2504.626953"/>
      <use xlink:href="#DejaVuSans-38" x="2568.25"/>
     </g>
    </g>
   </g>
  </g>
 </g>
 <defs>
  <clipPath id="p42368c357c">
   <rect x="45.716875" y="7.2" width="446.4" height="332.64"/>
  </clipPath>
 </defs>
</svg>
