<?xml version="1.0" encoding="utf-8" standalone="no"?>
<!DOCTYPE svg PUBLIC "-//W3C//DTD SVG 1.1//EN"
  "http://www.w3.org/Graphics/SVG/1.1/DTD/svg11.dtd">
<svg xmlns:xlink="http://www.w3.org/1999/xlink" width="499.316875pt" height="493.44475pt" viewBox="0 0 499.316875 493.44475" xmlns="http://www.w3.org/2000/svg" version="1.1">
 <metadata>
  <rdf:RDF xmlns:dc="http://purl.org/dc/elements/1.1/" xmlns:cc="http://creativecommons.org/ns#" xmlns:rdf="http://www.w3.org/1999/02/22-rdf-syntax-ns#">
   <cc:Work>
    <dc:type rdf:resource="http://purl.org/dc/dcmitype/StillImage"/>
    <dc:date>2025-03-13T20:54:23.832807</dc:date>
    <dc:format>image/svg+xml</dc:format>
    <dc:creator>
     <cc:Agent>
      <dc:title>Matplotlib v3.9.2, https://matplotlib.org/</dc:title>
     </cc:Agent>
    </dc:creator>
   </cc:Work>
  </rdf:RDF>
 </metadata>
 <defs>
  <style type="text/css">*{stroke-linejoin: round; stroke-linecap: butt}</style>
 </defs>
 <g id="figure_1">
  <g id="patch_1">
   <path d="M 0 493.44475 
L 499.316875 493.44475 
L 499.316875 -0 
L 0 -0 
z
" style="fill: #ffffff"/>
  </g>
  <g id="axes_1">
   <g id="patch_2">
    <path d="M 45.716875 354.958125 
L 492.116875 354.958125 
L 492.116875 22.318125 
L 45.716875 22.318125 
z
" style="fill: #ffffff"/>
   </g>
   <g id="matplotlib.axis_1">
    <g id="xtick_1">
     <g id="line2d_1">
      <path d="M 66.007784 354.958125 
L 66.007784 22.318125 
" clip-path="url(#p633400e841)" style="fill: none; stroke: #b0b0b0; stroke-width: 0.8; stroke-linecap: square"/>
     </g>
     <g id="line2d_2">
      <defs>
       <path id="mf8d4adfe47" d="M 0 0 
L 0 3.5 
" style="stroke: #000000; stroke-width: 0.8"/>
      </defs>
      <g>
       <use xlink:href="#mf8d4adfe47" x="66.007784" y="354.958125" style="stroke: #000000; stroke-width: 0.8"/>
      </g>
     </g>
     <g id="text_1">
      <!-- 0.0 -->
      <g transform="translate(58.056222 369.556562) scale(0.1 -0.1)">
       <defs>
        <path id="DejaVuSans-30" d="M 2034 4250 
Q 1547 4250 1301 3770 
Q 1056 3291 1056 2328 
Q 1056 1369 1301 889 
Q 1547 409 2034 409 
Q 2525 409 2770 889 
Q 3016 1369 3016 2328 
Q 3016 3291 2770 3770 
Q 2525 4250 2034 4250 
z
M 2034 4750 
Q 2819 4750 3233 4129 
Q 3647 3509 3647 2328 
Q 3647 1150 3233 529 
Q 2819 -91 2034 -91 
Q 1250 -91 836 529 
Q 422 1150 422 2328 
Q 422 3509 836 4129 
Q 1250 4750 2034 4750 
z
" transform="scale(0.015625)"/>
        <path id="DejaVuSans-2e" d="M 684 794 
L 1344 794 
L 1344 0 
L 684 0 
L 684 794 
z
" transform="scale(0.015625)"/>
       </defs>
       <use xlink:href="#DejaVuSans-30"/>
       <use xlink:href="#DejaVuSans-2e" x="63.623047"/>
       <use xlink:href="#DejaVuSans-30" x="95.410156"/>
      </g>
     </g>
    </g>
    <g id="xtick_2">
     <g id="line2d_3">
      <path d="M 147.17142 354.958125 
L 147.17142 22.318125 
" clip-path="url(#p633400e841)" style="fill: none; stroke: #b0b0b0; stroke-width: 0.8; stroke-linecap: square"/>
     </g>
     <g id="line2d_4">
      <g>
       <use xlink:href="#mf8d4adfe47" x="147.17142" y="354.958125" style="stroke: #000000; stroke-width: 0.8"/>
      </g>
     </g>
     <g id="text_2">
      <!-- 0.2 -->
      <g transform="translate(139.219858 369.556562) scale(0.1 -0.1)">
       <defs>
        <path id="DejaVuSans-32" d="M 1228 531 
L 3431 531 
L 3431 0 
L 469 0 
L 469 531 
Q 828 903 1448 1529 
Q 2069 2156 2228 2338 
Q 2531 2678 2651 2914 
Q 2772 3150 2772 3378 
Q 2772 3750 2511 3984 
Q 2250 4219 1831 4219 
Q 1534 4219 1204 4116 
Q 875 4013 500 3803 
L 500 4441 
Q 881 4594 1212 4672 
Q 1544 4750 1819 4750 
Q 2544 4750 2975 4387 
Q 3406 4025 3406 3419 
Q 3406 3131 3298 2873 
Q 3191 2616 2906 2266 
Q 2828 2175 2409 1742 
Q 1991 1309 1228 531 
z
" transform="scale(0.015625)"/>
       </defs>
       <use xlink:href="#DejaVuSans-30"/>
       <use xlink:href="#DejaVuSans-2e" x="63.623047"/>
       <use xlink:href="#DejaVuSans-32" x="95.410156"/>
      </g>
     </g>
    </g>
    <g id="xtick_3">
     <g id="line2d_5">
      <path d="M 228.335057 354.958125 
L 228.335057 22.318125 
" clip-path="url(#p633400e841)" style="fill: none; stroke: #b0b0b0; stroke-width: 0.8; stroke-linecap: square"/>
     </g>
     <g id="line2d_6">
      <g>
       <use xlink:href="#mf8d4adfe47" x="228.335057" y="354.958125" style="stroke: #000000; stroke-width: 0.8"/>
      </g>
     </g>
     <g id="text_3">
      <!-- 0.4 -->
      <g transform="translate(220.383494 369.556562) scale(0.1 -0.1)">
       <defs>
        <path id="DejaVuSans-34" d="M 2419 4116 
L 825 1625 
L 2419 1625 
L 2419 4116 
z
M 2253 4666 
L 3047 4666 
L 3047 1625 
L 3713 1625 
L 3713 1100 
L 3047 1100 
L 3047 0 
L 2419 0 
L 2419 1100 
L 313 1100 
L 313 1709 
L 2253 4666 
z
" transform="scale(0.015625)"/>
       </defs>
       <use xlink:href="#DejaVuSans-30"/>
       <use xlink:href="#DejaVuSans-2e" x="63.623047"/>
       <use xlink:href="#DejaVuSans-34" x="95.410156"/>
      </g>
     </g>
    </g>
    <g id="xtick_4">
     <g id="line2d_7">
      <path d="M 309.498693 354.958125 
L 309.498693 22.318125 
" clip-path="url(#p633400e841)" style="fill: none; stroke: #b0b0b0; stroke-width: 0.8; stroke-linecap: square"/>
     </g>
     <g id="line2d_8">
      <g>
       <use xlink:href="#mf8d4adfe47" x="309.498693" y="354.958125" style="stroke: #000000; stroke-width: 0.8"/>
      </g>
     </g>
     <g id="text_4">
      <!-- 0.6 -->
      <g transform="translate(301.547131 369.556562) scale(0.1 -0.1)">
       <defs>
        <path id="DejaVuSans-36" d="M 2113 2584 
Q 1688 2584 1439 2293 
Q 1191 2003 1191 1497 
Q 1191 994 1439 701 
Q 1688 409 2113 409 
Q 2538 409 2786 701 
Q 3034 994 3034 1497 
Q 3034 2003 2786 2293 
Q 2538 2584 2113 2584 
z
M 3366 4563 
L 3366 3988 
Q 3128 4100 2886 4159 
Q 2644 4219 2406 4219 
Q 1781 4219 1451 3797 
Q 1122 3375 1075 2522 
Q 1259 2794 1537 2939 
Q 1816 3084 2150 3084 
Q 2853 3084 3261 2657 
Q 3669 2231 3669 1497 
Q 3669 778 3244 343 
Q 2819 -91 2113 -91 
Q 1303 -91 875 529 
Q 447 1150 447 2328 
Q 447 3434 972 4092 
Q 1497 4750 2381 4750 
Q 2619 4750 2861 4703 
Q 3103 4656 3366 4563 
z
" transform="scale(0.015625)"/>
       </defs>
       <use xlink:href="#DejaVuSans-30"/>
       <use xlink:href="#DejaVuSans-2e" x="63.623047"/>
       <use xlink:href="#DejaVuSans-36" x="95.410156"/>
      </g>
     </g>
    </g>
    <g id="xtick_5">
     <g id="line2d_9">
      <path d="M 390.66233 354.958125 
L 390.66233 22.318125 
" clip-path="url(#p633400e841)" style="fill: none; stroke: #b0b0b0; stroke-width: 0.8; stroke-linecap: square"/>
     </g>
     <g id="line2d_10">
      <g>
       <use xlink:href="#mf8d4adfe47" x="390.66233" y="354.958125" style="stroke: #000000; stroke-width: 0.8"/>
      </g>
     </g>
     <g id="text_5">
      <!-- 0.8 -->
      <g transform="translate(382.710767 369.556562) scale(0.1 -0.1)">
       <defs>
        <path id="DejaVuSans-38" d="M 2034 2216 
Q 1584 2216 1326 1975 
Q 1069 1734 1069 1313 
Q 1069 891 1326 650 
Q 1584 409 2034 409 
Q 2484 409 2743 651 
Q 3003 894 3003 1313 
Q 3003 1734 2745 1975 
Q 2488 2216 2034 2216 
z
M 1403 2484 
Q 997 2584 770 2862 
Q 544 3141 544 3541 
Q 544 4100 942 4425 
Q 1341 4750 2034 4750 
Q 2731 4750 3128 4425 
Q 3525 4100 3525 3541 
Q 3525 3141 3298 2862 
Q 3072 2584 2669 2484 
Q 3125 2378 3379 2068 
Q 3634 1759 3634 1313 
Q 3634 634 3220 271 
Q 2806 -91 2034 -91 
Q 1263 -91 848 271 
Q 434 634 434 1313 
Q 434 1759 690 2068 
Q 947 2378 1403 2484 
z
M 1172 3481 
Q 1172 3119 1398 2916 
Q 1625 2713 2034 2713 
Q 2441 2713 2670 2916 
Q 2900 3119 2900 3481 
Q 2900 3844 2670 4047 
Q 2441 4250 2034 4250 
Q 1625 4250 1398 4047 
Q 1172 3844 1172 3481 
z
" transform="scale(0.015625)"/>
       </defs>
       <use xlink:href="#DejaVuSans-30"/>
       <use xlink:href="#DejaVuSans-2e" x="63.623047"/>
       <use xlink:href="#DejaVuSans-38" x="95.410156"/>
      </g>
     </g>
    </g>
    <g id="xtick_6">
     <g id="line2d_11">
      <path d="M 471.825966 354.958125 
L 471.825966 22.318125 
" clip-path="url(#p633400e841)" style="fill: none; stroke: #b0b0b0; stroke-width: 0.8; stroke-linecap: square"/>
     </g>
     <g id="line2d_12">
      <g>
       <use xlink:href="#mf8d4adfe47" x="471.825966" y="354.958125" style="stroke: #000000; stroke-width: 0.8"/>
      </g>
     </g>
     <g id="text_6">
      <!-- 1.0 -->
      <g transform="translate(463.874403 369.556562) scale(0.1 -0.1)">
       <defs>
        <path id="DejaVuSans-31" d="M 794 531 
L 1825 531 
L 1825 4091 
L 703 3866 
L 703 4441 
L 1819 4666 
L 2450 4666 
L 2450 531 
L 3481 531 
L 3481 0 
L 794 0 
L 794 531 
z
" transform="scale(0.015625)"/>
       </defs>
       <use xlink:href="#DejaVuSans-31"/>
       <use xlink:href="#DejaVuSans-2e" x="63.623047"/>
       <use xlink:href="#DejaVuSans-30" x="95.410156"/>
      </g>
     </g>
    </g>
    <g id="text_7">
     <!-- Recall -->
     <g transform="translate(251.01625 384.754375) scale(0.12 -0.12)">
      <defs>
       <path id="DejaVuSans-52" d="M 2841 2188 
Q 3044 2119 3236 1894 
Q 3428 1669 3622 1275 
L 4263 0 
L 3584 0 
L 2988 1197 
Q 2756 1666 2539 1819 
Q 2322 1972 1947 1972 
L 1259 1972 
L 1259 0 
L 628 0 
L 628 4666 
L 2053 4666 
Q 2853 4666 3247 4331 
Q 3641 3997 3641 3322 
Q 3641 2881 3436 2590 
Q 3231 2300 2841 2188 
z
M 1259 4147 
L 1259 2491 
L 2053 2491 
Q 2509 2491 2742 2702 
Q 2975 2913 2975 3322 
Q 2975 3731 2742 3939 
Q 2509 4147 2053 4147 
L 1259 4147 
z
" transform="scale(0.015625)"/>
       <path id="DejaVuSans-65" d="M 3597 1894 
L 3597 1613 
L 953 1613 
Q 991 1019 1311 708 
Q 1631 397 2203 397 
Q 2534 397 2845 478 
Q 3156 559 3463 722 
L 3463 178 
Q 3153 47 2828 -22 
Q 2503 -91 2169 -91 
Q 1331 -91 842 396 
Q 353 884 353 1716 
Q 353 2575 817 3079 
Q 1281 3584 2069 3584 
Q 2775 3584 3186 3129 
Q 3597 2675 3597 1894 
z
M 3022 2063 
Q 3016 2534 2758 2815 
Q 2500 3097 2075 3097 
Q 1594 3097 1305 2825 
Q 1016 2553 972 2059 
L 3022 2063 
z
" transform="scale(0.015625)"/>
       <path id="DejaVuSans-63" d="M 3122 3366 
L 3122 2828 
Q 2878 2963 2633 3030 
Q 2388 3097 2138 3097 
Q 1578 3097 1268 2742 
Q 959 2388 959 1747 
Q 959 1106 1268 751 
Q 1578 397 2138 397 
Q 2388 397 2633 464 
Q 2878 531 3122 666 
L 3122 134 
Q 2881 22 2623 -34 
Q 2366 -91 2075 -91 
Q 1284 -91 818 406 
Q 353 903 353 1747 
Q 353 2603 823 3093 
Q 1294 3584 2113 3584 
Q 2378 3584 2631 3529 
Q 2884 3475 3122 3366 
z
" transform="scale(0.015625)"/>
       <path id="DejaVuSans-61" d="M 2194 1759 
Q 1497 1759 1228 1600 
Q 959 1441 959 1056 
Q 959 750 1161 570 
Q 1363 391 1709 391 
Q 2188 391 2477 730 
Q 2766 1069 2766 1631 
L 2766 1759 
L 2194 1759 
z
M 3341 1997 
L 3341 0 
L 2766 0 
L 2766 531 
Q 2569 213 2275 61 
Q 1981 -91 1556 -91 
Q 1019 -91 701 211 
Q 384 513 384 1019 
Q 384 1609 779 1909 
Q 1175 2209 1959 2209 
L 2766 2209 
L 2766 2266 
Q 2766 2663 2505 2880 
Q 2244 3097 1772 3097 
Q 1472 3097 1187 3025 
Q 903 2953 641 2809 
L 641 3341 
Q 956 3463 1253 3523 
Q 1550 3584 1831 3584 
Q 2591 3584 2966 3190 
Q 3341 2797 3341 1997 
z
" transform="scale(0.015625)"/>
       <path id="DejaVuSans-6c" d="M 603 4863 
L 1178 4863 
L 1178 0 
L 603 0 
L 603 4863 
z
" transform="scale(0.015625)"/>
      </defs>
      <use xlink:href="#DejaVuSans-52"/>
      <use xlink:href="#DejaVuSans-65" x="64.982422"/>
      <use xlink:href="#DejaVuSans-63" x="126.505859"/>
      <use xlink:href="#DejaVuSans-61" x="181.486328"/>
      <use xlink:href="#DejaVuSans-6c" x="242.765625"/>
      <use xlink:href="#DejaVuSans-6c" x="270.548828"/>
     </g>
    </g>
   </g>
   <g id="matplotlib.axis_2">
    <g id="ytick_1">
     <g id="line2d_13">
      <path d="M 45.716875 302.675715 
L 492.116875 302.675715 
" clip-path="url(#p633400e841)" style="fill: none; stroke: #b0b0b0; stroke-width: 0.8; stroke-linecap: square"/>
     </g>
     <g id="line2d_14">
      <defs>
       <path id="me0c6f8d918" d="M 0 0 
L -3.5 0 
" style="stroke: #000000; stroke-width: 0.8"/>
      </defs>
      <g>
       <use xlink:href="#me0c6f8d918" x="45.716875" y="302.675715" style="stroke: #000000; stroke-width: 0.8"/>
      </g>
     </g>
     <g id="text_8">
      <!-- 0.2 -->
      <g transform="translate(22.81375 306.474934) scale(0.1 -0.1)">
       <use xlink:href="#DejaVuSans-30"/>
       <use xlink:href="#DejaVuSans-2e" x="63.623047"/>
       <use xlink:href="#DejaVuSans-32" x="95.410156"/>
      </g>
     </g>
    </g>
    <g id="ytick_2">
     <g id="line2d_15">
      <path d="M 45.716875 236.366318 
L 492.116875 236.366318 
" clip-path="url(#p633400e841)" style="fill: none; stroke: #b0b0b0; stroke-width: 0.8; stroke-linecap: square"/>
     </g>
     <g id="line2d_16">
      <g>
       <use xlink:href="#me0c6f8d918" x="45.716875" y="236.366318" style="stroke: #000000; stroke-width: 0.8"/>
      </g>
     </g>
     <g id="text_9">
      <!-- 0.4 -->
      <g transform="translate(22.81375 240.165537) scale(0.1 -0.1)">
       <use xlink:href="#DejaVuSans-30"/>
       <use xlink:href="#DejaVuSans-2e" x="63.623047"/>
       <use xlink:href="#DejaVuSans-34" x="95.410156"/>
      </g>
     </g>
    </g>
    <g id="ytick_3">
     <g id="line2d_17">
      <path d="M 45.716875 170.05692 
L 492.116875 170.05692 
" clip-path="url(#p633400e841)" style="fill: none; stroke: #b0b0b0; stroke-width: 0.8; stroke-linecap: square"/>
     </g>
     <g id="line2d_18">
      <g>
       <use xlink:href="#me0c6f8d918" x="45.716875" y="170.05692" style="stroke: #000000; stroke-width: 0.8"/>
      </g>
     </g>
     <g id="text_10">
      <!-- 0.6 -->
      <g transform="translate(22.81375 173.856139) scale(0.1 -0.1)">
       <use xlink:href="#DejaVuSans-30"/>
       <use xlink:href="#DejaVuSans-2e" x="63.623047"/>
       <use xlink:href="#DejaVuSans-36" x="95.410156"/>
      </g>
     </g>
    </g>
    <g id="ytick_4">
     <g id="line2d_19">
      <path d="M 45.716875 103.747523 
L 492.116875 103.747523 
" clip-path="url(#p633400e841)" style="fill: none; stroke: #b0b0b0; stroke-width: 0.8; stroke-linecap: square"/>
     </g>
     <g id="line2d_20">
      <g>
       <use xlink:href="#me0c6f8d918" x="45.716875" y="103.747523" style="stroke: #000000; stroke-width: 0.8"/>
      </g>
     </g>
     <g id="text_11">
      <!-- 0.8 -->
      <g transform="translate(22.81375 107.546741) scale(0.1 -0.1)">
       <use xlink:href="#DejaVuSans-30"/>
       <use xlink:href="#DejaVuSans-2e" x="63.623047"/>
       <use xlink:href="#DejaVuSans-38" x="95.410156"/>
      </g>
     </g>
    </g>
    <g id="ytick_5">
     <g id="line2d_21">
      <path d="M 45.716875 37.438125 
L 492.116875 37.438125 
" clip-path="url(#p633400e841)" style="fill: none; stroke: #b0b0b0; stroke-width: 0.8; stroke-linecap: square"/>
     </g>
     <g id="line2d_22">
      <g>
       <use xlink:href="#me0c6f8d918" x="45.716875" y="37.438125" style="stroke: #000000; stroke-width: 0.8"/>
      </g>
     </g>
     <g id="text_12">
      <!-- 1.0 -->
      <g transform="translate(22.81375 41.237344) scale(0.1 -0.1)">
       <use xlink:href="#DejaVuSans-31"/>
       <use xlink:href="#DejaVuSans-2e" x="63.623047"/>
       <use xlink:href="#DejaVuSans-30" x="95.410156"/>
      </g>
     </g>
    </g>
    <g id="text_13">
     <!-- Precision -->
     <g transform="translate(16.318125 215.406562) rotate(-90) scale(0.12 -0.12)">
      <defs>
       <path id="DejaVuSans-50" d="M 1259 4147 
L 1259 2394 
L 2053 2394 
Q 2494 2394 2734 2622 
Q 2975 2850 2975 3272 
Q 2975 3691 2734 3919 
Q 2494 4147 2053 4147 
L 1259 4147 
z
M 628 4666 
L 2053 4666 
Q 2838 4666 3239 4311 
Q 3641 3956 3641 3272 
Q 3641 2581 3239 2228 
Q 2838 1875 2053 1875 
L 1259 1875 
L 1259 0 
L 628 0 
L 628 4666 
z
" transform="scale(0.015625)"/>
       <path id="DejaVuSans-72" d="M 2631 2963 
Q 2534 3019 2420 3045 
Q 2306 3072 2169 3072 
Q 1681 3072 1420 2755 
Q 1159 2438 1159 1844 
L 1159 0 
L 581 0 
L 581 3500 
L 1159 3500 
L 1159 2956 
Q 1341 3275 1631 3429 
Q 1922 3584 2338 3584 
Q 2397 3584 2469 3576 
Q 2541 3569 2628 3553 
L 2631 2963 
z
" transform="scale(0.015625)"/>
       <path id="DejaVuSans-69" d="M 603 3500 
L 1178 3500 
L 1178 0 
L 603 0 
L 603 3500 
z
M 603 4863 
L 1178 4863 
L 1178 4134 
L 603 4134 
L 603 4863 
z
" transform="scale(0.015625)"/>
       <path id="DejaVuSans-73" d="M 2834 3397 
L 2834 2853 
Q 2591 2978 2328 3040 
Q 2066 3103 1784 3103 
Q 1356 3103 1142 2972 
Q 928 2841 928 2578 
Q 928 2378 1081 2264 
Q 1234 2150 1697 2047 
L 1894 2003 
Q 2506 1872 2764 1633 
Q 3022 1394 3022 966 
Q 3022 478 2636 193 
Q 2250 -91 1575 -91 
Q 1294 -91 989 -36 
Q 684 19 347 128 
L 347 722 
Q 666 556 975 473 
Q 1284 391 1588 391 
Q 1994 391 2212 530 
Q 2431 669 2431 922 
Q 2431 1156 2273 1281 
Q 2116 1406 1581 1522 
L 1381 1569 
Q 847 1681 609 1914 
Q 372 2147 372 2553 
Q 372 3047 722 3315 
Q 1072 3584 1716 3584 
Q 2034 3584 2315 3537 
Q 2597 3491 2834 3397 
z
" transform="scale(0.015625)"/>
       <path id="DejaVuSans-6f" d="M 1959 3097 
Q 1497 3097 1228 2736 
Q 959 2375 959 1747 
Q 959 1119 1226 758 
Q 1494 397 1959 397 
Q 2419 397 2687 759 
Q 2956 1122 2956 1747 
Q 2956 2369 2687 2733 
Q 2419 3097 1959 3097 
z
M 1959 3584 
Q 2709 3584 3137 3096 
Q 3566 2609 3566 1747 
Q 3566 888 3137 398 
Q 2709 -91 1959 -91 
Q 1206 -91 779 398 
Q 353 888 353 1747 
Q 353 2609 779 3096 
Q 1206 3584 1959 3584 
z
" transform="scale(0.015625)"/>
       <path id="DejaVuSans-6e" d="M 3513 2113 
L 3513 0 
L 2938 0 
L 2938 2094 
Q 2938 2591 2744 2837 
Q 2550 3084 2163 3084 
Q 1697 3084 1428 2787 
Q 1159 2491 1159 1978 
L 1159 0 
L 581 0 
L 581 3500 
L 1159 3500 
L 1159 2956 
Q 1366 3272 1645 3428 
Q 1925 3584 2291 3584 
Q 2894 3584 3203 3211 
Q 3513 2838 3513 2113 
z
" transform="scale(0.015625)"/>
      </defs>
      <use xlink:href="#DejaVuSans-50"/>
      <use xlink:href="#DejaVuSans-72" x="58.552734"/>
      <use xlink:href="#DejaVuSans-65" x="97.416016"/>
      <use xlink:href="#DejaVuSans-63" x="158.939453"/>
      <use xlink:href="#DejaVuSans-69" x="213.919922"/>
      <use xlink:href="#DejaVuSans-73" x="241.703125"/>
      <use xlink:href="#DejaVuSans-69" x="293.802734"/>
      <use xlink:href="#DejaVuSans-6f" x="321.585938"/>
      <use xlink:href="#DejaVuSans-6e" x="382.767578"/>
     </g>
    </g>
   </g>
   <g id="line2d_23">
    <path d="M 471.825966 284.22337 
L 466.316262 272.176701 
L 466.316262 270.967784 
L 465.746293 270.290311 
L 465.366313 266.783651 
L 464.986334 266.126689 
L 464.796344 265.533778 
L 463.466415 265.416903 
L 463.466415 264.606437 
L 463.086436 263.306723 
L 462.326477 262.420087 
L 461.946497 261.645681 
L 460.616569 259.384111 
L 460.426579 259.244752 
L 460.236589 259.157527 
L 460.236589 259.017082 
L 459.66662 259.017871 
L 459.09665 259.036288 
L 458.336691 258.021656 
L 457.006763 255.491483 
L 456.436793 255.52482 
L 455.676834 255.499987 
L 453.966926 252.977754 
L 452.257018 251.167419 
L 452.257018 251.126217 
L 451.877038 250.245573 
L 451.687049 249.947195 
L 451.687049 249.75741 
L 451.117079 249.467819 
L 444.277447 243.56044 
L 443.137508 243.676512 
L 441.23761 241.317868 
L 441.047621 241.30783 
L 440.477651 240.650645 
L 440.287662 240.235346 
L 437.627805 237.335517 
L 437.437815 236.94715 
L 437.437815 236.839474 
L 437.247825 236.691297 
L 435.537917 235.418648 
L 435.347927 235.431996 
L 433.448029 234.615483 
L 433.258039 234.318097 
L 430.978162 233.761809 
L 430.978162 233.618107 
L 430.598182 233.181768 
L 424.898489 229.250115 
L 423.75855 228.755333 
L 423.56856 228.703766 
L 422.618611 227.421488 
L 422.618611 227.389278 
L 422.428622 227.271249 
L 422.238632 227.217587 
L 417.108908 223.623587 
L 408.179388 221.51262 
L 405.139551 220.587075 
L 404.379592 220.285746 
L 385.190624 206.972623 
L 384.240675 206.652109 
L 384.240675 206.414503 
L 384.240675 206.319265 
L 384.050685 205.986682 
L 382.910746 205.514709 
L 381.960797 205.327458 
L 381.960797 205.084209 
L 369.231482 196.792144 
L 369.041492 196.338216 
L 368.851502 196.051246 
L 368.471523 195.701198 
L 368.471523 195.416285 
L 368.091543 194.486698 
L 348.142616 180.346309 
L 343.202881 176.034552 
L 343.202881 175.8805 
L 325.533831 166.619972 
L 312.424536 156.105686 
L 312.424536 155.789058 
L 305.394914 150.497035 
L 305.394914 150.382703 
L 300.835159 148.072942 
L 300.26519 148.013526 
L 299.88521 147.17297 
L 299.69522 146.628082 
L 295.705435 145.924285 
L 279.936283 135.65892 
L 279.936283 135.366897 
L 279.936283 135.074143 
L 278.986334 134.34864 
L 275.186538 130.089018 
L 273.28664 126.546933 
L 247.06805 109.997999 
L 246.68807 108.405621 
L 246.308091 108.307324 
L 246.308091 107.874664 
L 242.318305 102.368471 
L 241.938325 102.249656 
L 241.938325 102.017712 
L 241.748336 101.60851 
L 196.910746 61.534407 
L 196.720757 61.152012 
L 196.340777 59.961698 
L 195.960797 58.7551 
L 182.661512 53.861505 
L 181.901553 53.472379 
L 181.901553 52.484858 
L 181.331584 52.05752 
L 180.761615 51.121017 
L 180.191645 51.186485 
L 179.431686 51.274757 
L 176.961819 51.569636 
L 176.01187 49.04227 
L 174.871931 48.078991 
L 170.122187 41.619799 
L 168.602268 41.081498 
L 168.032299 41.101628 
L 164.612483 40.601741 
L 161.192667 40.714281 
L 66.007784 37.438125 
" clip-path="url(#p633400e841)" style="fill: none; stroke: #1f77b4; stroke-width: 1.5; stroke-linecap: square"/>
   </g>
   <g id="line2d_24">
    <path d="M 471.825966 330.375474 
L 468.102863 324.996078 
L 468.102863 324.669426 
L 468.102863 324.614512 
L 468.102863 322.117214 
L 468.102863 321.178605 
L 468.102863 320.921925 
L 468.102863 320.857324 
L 468.102863 320.792549 
L 468.102863 320.001427 
L 468.102863 318.764812 
L 468.102863 318.338614 
L 468.102863 316.094308 
L 468.102863 315.858889 
L 468.102863 315.700776 
L 468.102863 315.461832 
L 468.102863 314.731969 
L 460.656658 313.465396 
L 460.656658 313.02336 
L 460.656658 311.182513 
L 453.210453 311.131276 
L 449.48735 311.202812 
L 445.764248 301.886318 
L 445.764248 301.618992 
L 438.318043 296.909681 
L 434.59494 296.687422 
L 434.59494 295.390602 
L 434.59494 292.829308 
L 430.871837 293.247106 
L 430.871837 293.070148 
L 423.425632 293.562101 
L 419.70253 293.271258 
L 415.979427 293.706328 
L 415.979427 293.340897 
L 415.979427 292.78605 
L 412.256325 285.42449 
L 412.256325 285.197423 
L 408.533222 284.256438 
L 397.363914 276.773607 
L 393.640812 273.325654 
L 393.640812 272.054432 
L 341.517375 257.969379 
L 341.517375 257.464762 
L 334.07117 253.664421 
L 334.07117 253.104612 
L 334.07117 252.539342 
L 334.07117 251.392093 
L 334.07117 249.628197 
L 300.563247 224.933663 
L 289.393939 223.782053 
L 285.670837 225.152228 
L 281.947734 217.569953 
L 281.947734 208.737402 
L 278.224631 207.462221 
L 274.501529 203.211619 
L 270.778426 204.705074 
L 270.778426 200.141739 
L 270.778426 196.956015 
L 267.055324 176.473959 
L 263.332221 157.274386 
L 263.332221 152.04696 
L 233.5474 111.750381 
L 233.5474 107.237491 
L 233.5474 102.563426 
L 226.101195 94.821258 
L 188.870169 73.281043 
L 185.147067 74.276679 
L 185.147067 65.856438 
L 181.423964 57.531882 
L 181.423964 47.798968 
L 181.423964 37.438125 
L 177.700862 37.438125 
L 170.254656 37.438125 
L 66.007784 37.438125 
" clip-path="url(#p633400e841)" style="fill: none; stroke: #ff7f0e; stroke-width: 1.5; stroke-linecap: square"/>
   </g>
   <g id="line2d_25">
    <path d="M 471.825966 285.821153 
L 471.825966 271.852206 
L 471.825966 270.310414 
L 471.825966 265.376679 
L 471.825966 264.943171 
L 471.825966 264.50602 
L 471.825966 263.620604 
L 466.415057 264.583083 
L 466.415057 262.775255 
L 461.004148 260.936318 
L 461.004148 259.469592 
L 461.004148 257.962498 
L 461.004148 255.887309 
L 461.004148 254.820348 
L 455.593239 252.539342 
L 455.593239 251.968529 
L 455.593239 245.29919 
L 450.18233 245.739898 
L 444.77142 244.876615 
L 444.77142 240.050173 
L 444.77142 239.329866 
L 444.77142 238.601466 
L 439.360511 238.260872 
L 439.360511 237.509583 
L 439.360511 234.416041 
L 428.538693 232.705063 
L 428.538693 231.863828 
L 428.538693 230.149812 
L 428.538693 228.392403 
L 406.895057 223.933306 
L 406.895057 220.847097 
L 406.895057 219.788968 
L 396.073239 207.190183 
L 379.840511 208.737402 
L 363.607784 201.690761 
L 352.785966 191.490261 
L 341.964148 187.169023 
L 336.553239 178.440867 
L 325.73142 170.05692 
L 314.909602 170.918081 
L 314.909602 168.311936 
L 309.498693 167.368701 
L 309.498693 161.768245 
L 309.498693 158.849698 
L 309.498693 146.3043 
L 271.62233 111.867041 
L 255.389602 116.7211 
L 206.69142 99.603185 
L 185.047784 37.438125 
L 174.225966 37.438125 
L 168.815057 37.438125 
L 157.993239 37.438125 
L 66.007784 37.438125 
" clip-path="url(#p633400e841)" style="fill: none; stroke: #2ca02c; stroke-width: 1.5; stroke-linecap: square"/>
   </g>
   <g id="line2d_26">
    <path d="M 471.825966 339.838125 
L 421.098693 337.192936 
L 421.098693 336.751378 
L 421.098693 336.297382 
L 421.098693 335.830414 
L 421.098693 335.349911 
L 421.098693 334.855276 
L 421.098693 334.345875 
L 421.098693 332.722161 
L 421.098693 331.552389 
L 370.37142 335.26847 
L 370.37142 334.687149 
L 370.37142 334.08543 
L 319.644148 332.947397 
L 319.644148 327.541739 
L 319.644148 325.360509 
L 319.644148 322.93692 
L 268.916875 328.797599 
L 268.916875 327.541739 
L 268.916875 321.621258 
L 218.189602 329.199474 
L 167.46233 334.08543 
L 167.46233 317.977884 
L 116.735057 338.844478 
L 116.735057 335.830414 
L 116.735057 332.146559 
L 116.735057 327.541739 
L 116.735057 203.211619 
L 116.735057 37.438125 
L 66.007784 37.438125 
" clip-path="url(#p633400e841)" style="fill: none; stroke: #d62728; stroke-width: 1.5; stroke-linecap: square"/>
   </g>
   <g id="line2d_27">
    <path d="M 471.825966 331.309319 
L 471.825966 320.228203 
L 471.825966 314.633148 
L 471.825966 312.790708 
L 471.825966 311.821839 
L 471.825966 309.780294 
L 471.825966 305.226077 
L 471.825966 302.675715 
L 471.825966 301.322462 
L 471.825966 299.912824 
L 471.825966 298.443201 
L 471.825966 288.119994 
L 471.825966 283.973065 
L 431.244148 286.098366 
L 431.244148 283.730173 
L 431.244148 281.222675 
L 431.244148 278.563207 
L 431.244148 275.737523 
L 431.244148 266.09122 
L 390.66233 262.890077 
L 390.66233 242.681498 
L 350.080511 223.933306 
L 350.080511 190.459812 
L 350.080511 175.582703 
L 350.080511 158.000666 
L 309.498693 170.05692 
L 309.498693 147.953788 
L 268.916875 132.165836 
L 268.916875 37.438125 
L 228.335057 37.438125 
L 187.753239 37.438125 
L 147.17142 37.438125 
L 66.007784 37.438125 
" clip-path="url(#p633400e841)" style="fill: none; stroke: #9467bd; stroke-width: 1.5; stroke-linecap: square"/>
   </g>
   <g id="patch_3">
    <path d="M 45.716875 354.958125 
L 45.716875 22.318125 
" style="fill: none; stroke: #000000; stroke-width: 0.8; stroke-linejoin: miter; stroke-linecap: square"/>
   </g>
   <g id="patch_4">
    <path d="M 492.116875 354.958125 
L 492.116875 22.318125 
" style="fill: none; stroke: #000000; stroke-width: 0.8; stroke-linejoin: miter; stroke-linecap: square"/>
   </g>
   <g id="patch_5">
    <path d="M 45.716875 354.958125 
L 492.116875 354.958125 
" style="fill: none; stroke: #000000; stroke-width: 0.8; stroke-linejoin: miter; stroke-linecap: square"/>
   </g>
   <g id="patch_6">
    <path d="M 45.716875 22.318125 
L 492.116875 22.318125 
" style="fill: none; stroke: #000000; stroke-width: 0.8; stroke-linejoin: miter; stroke-linecap: square"/>
   </g>
   <g id="text_14">
    <!-- PR Curve: Random Forest Classifier -->
    <g transform="translate(163.14625 16.318125) scale(0.12 -0.12)">
     <defs>
      <path id="DejaVuSans-20" transform="scale(0.015625)"/>
      <path id="DejaVuSans-43" d="M 4122 4306 
L 4122 3641 
Q 3803 3938 3442 4084 
Q 3081 4231 2675 4231 
Q 1875 4231 1450 3742 
Q 1025 3253 1025 2328 
Q 1025 1406 1450 917 
Q 1875 428 2675 428 
Q 3081 428 3442 575 
Q 3803 722 4122 1019 
L 4122 359 
Q 3791 134 3420 21 
Q 3050 -91 2638 -91 
Q 1578 -91 968 557 
Q 359 1206 359 2328 
Q 359 3453 968 4101 
Q 1578 4750 2638 4750 
Q 3056 4750 3426 4639 
Q 3797 4528 4122 4306 
z
" transform="scale(0.015625)"/>
      <path id="DejaVuSans-75" d="M 544 1381 
L 544 3500 
L 1119 3500 
L 1119 1403 
Q 1119 906 1312 657 
Q 1506 409 1894 409 
Q 2359 409 2629 706 
Q 2900 1003 2900 1516 
L 2900 3500 
L 3475 3500 
L 3475 0 
L 2900 0 
L 2900 538 
Q 2691 219 2414 64 
Q 2138 -91 1772 -91 
Q 1169 -91 856 284 
Q 544 659 544 1381 
z
M 1991 3584 
L 1991 3584 
z
" transform="scale(0.015625)"/>
      <path id="DejaVuSans-76" d="M 191 3500 
L 800 3500 
L 1894 563 
L 2988 3500 
L 3597 3500 
L 2284 0 
L 1503 0 
L 191 3500 
z
" transform="scale(0.015625)"/>
      <path id="DejaVuSans-3a" d="M 750 794 
L 1409 794 
L 1409 0 
L 750 0 
L 750 794 
z
M 750 3309 
L 1409 3309 
L 1409 2516 
L 750 2516 
L 750 3309 
z
" transform="scale(0.015625)"/>
      <path id="DejaVuSans-64" d="M 2906 2969 
L 2906 4863 
L 3481 4863 
L 3481 0 
L 2906 0 
L 2906 525 
Q 2725 213 2448 61 
Q 2172 -91 1784 -91 
Q 1150 -91 751 415 
Q 353 922 353 1747 
Q 353 2572 751 3078 
Q 1150 3584 1784 3584 
Q 2172 3584 2448 3432 
Q 2725 3281 2906 2969 
z
M 947 1747 
Q 947 1113 1208 752 
Q 1469 391 1925 391 
Q 2381 391 2643 752 
Q 2906 1113 2906 1747 
Q 2906 2381 2643 2742 
Q 2381 3103 1925 3103 
Q 1469 3103 1208 2742 
Q 947 2381 947 1747 
z
" transform="scale(0.015625)"/>
      <path id="DejaVuSans-6d" d="M 3328 2828 
Q 3544 3216 3844 3400 
Q 4144 3584 4550 3584 
Q 5097 3584 5394 3201 
Q 5691 2819 5691 2113 
L 5691 0 
L 5113 0 
L 5113 2094 
Q 5113 2597 4934 2840 
Q 4756 3084 4391 3084 
Q 3944 3084 3684 2787 
Q 3425 2491 3425 1978 
L 3425 0 
L 2847 0 
L 2847 2094 
Q 2847 2600 2669 2842 
Q 2491 3084 2119 3084 
Q 1678 3084 1418 2786 
Q 1159 2488 1159 1978 
L 1159 0 
L 581 0 
L 581 3500 
L 1159 3500 
L 1159 2956 
Q 1356 3278 1631 3431 
Q 1906 3584 2284 3584 
Q 2666 3584 2933 3390 
Q 3200 3197 3328 2828 
z
" transform="scale(0.015625)"/>
      <path id="DejaVuSans-46" d="M 628 4666 
L 3309 4666 
L 3309 4134 
L 1259 4134 
L 1259 2759 
L 3109 2759 
L 3109 2228 
L 1259 2228 
L 1259 0 
L 628 0 
L 628 4666 
z
" transform="scale(0.015625)"/>
      <path id="DejaVuSans-74" d="M 1172 4494 
L 1172 3500 
L 2356 3500 
L 2356 3053 
L 1172 3053 
L 1172 1153 
Q 1172 725 1289 603 
Q 1406 481 1766 481 
L 2356 481 
L 2356 0 
L 1766 0 
Q 1100 0 847 248 
Q 594 497 594 1153 
L 594 3053 
L 172 3053 
L 172 3500 
L 594 3500 
L 594 4494 
L 1172 4494 
z
" transform="scale(0.015625)"/>
      <path id="DejaVuSans-66" d="M 2375 4863 
L 2375 4384 
L 1825 4384 
Q 1516 4384 1395 4259 
Q 1275 4134 1275 3809 
L 1275 3500 
L 2222 3500 
L 2222 3053 
L 1275 3053 
L 1275 0 
L 697 0 
L 697 3053 
L 147 3053 
L 147 3500 
L 697 3500 
L 697 3744 
Q 697 4328 969 4595 
Q 1241 4863 1831 4863 
L 2375 4863 
z
" transform="scale(0.015625)"/>
     </defs>
     <use xlink:href="#DejaVuSans-50"/>
     <use xlink:href="#DejaVuSans-52" x="60.302734"/>
     <use xlink:href="#DejaVuSans-20" x="129.785156"/>
     <use xlink:href="#DejaVuSans-43" x="161.572266"/>
     <use xlink:href="#DejaVuSans-75" x="231.396484"/>
     <use xlink:href="#DejaVuSans-72" x="294.775391"/>
     <use xlink:href="#DejaVuSans-76" x="335.888672"/>
     <use xlink:href="#DejaVuSans-65" x="395.068359"/>
     <use xlink:href="#DejaVuSans-3a" x="456.591797"/>
     <use xlink:href="#DejaVuSans-20" x="490.283203"/>
     <use xlink:href="#DejaVuSans-52" x="522.070312"/>
     <use xlink:href="#DejaVuSans-61" x="589.302734"/>
     <use xlink:href="#DejaVuSans-6e" x="650.582031"/>
     <use xlink:href="#DejaVuSans-64" x="713.960938"/>
     <use xlink:href="#DejaVuSans-6f" x="777.4375"/>
     <use xlink:href="#DejaVuSans-6d" x="838.619141"/>
     <use xlink:href="#DejaVuSans-20" x="936.03125"/>
     <use xlink:href="#DejaVuSans-46" x="967.818359"/>
     <use xlink:href="#DejaVuSans-6f" x="1021.712891"/>
     <use xlink:href="#DejaVuSans-72" x="1082.894531"/>
     <use xlink:href="#DejaVuSans-65" x="1121.757812"/>
     <use xlink:href="#DejaVuSans-73" x="1183.28125"/>
     <use xlink:href="#DejaVuSans-74" x="1235.380859"/>
     <use xlink:href="#DejaVuSans-20" x="1274.589844"/>
     <use xlink:href="#DejaVuSans-43" x="1306.376953"/>
     <use xlink:href="#DejaVuSans-6c" x="1376.201172"/>
     <use xlink:href="#DejaVuSans-61" x="1403.984375"/>
     <use xlink:href="#DejaVuSans-73" x="1465.263672"/>
     <use xlink:href="#DejaVuSans-73" x="1517.363281"/>
     <use xlink:href="#DejaVuSans-69" x="1569.462891"/>
     <use xlink:href="#DejaVuSans-66" x="1597.246094"/>
     <use xlink:href="#DejaVuSans-69" x="1632.451172"/>
     <use xlink:href="#DejaVuSans-65" x="1660.234375"/>
     <use xlink:href="#DejaVuSans-72" x="1721.757812"/>
    </g>
   </g>
   <g id="legend_1">
    <g id="patch_7">
     <path d="M 90.73875 486.24475 
L 447.095 486.24475 
Q 449.095 486.24475 449.095 484.24475 
L 449.095 411.854125 
Q 449.095 409.854125 447.095 409.854125 
L 90.73875 409.854125 
Q 88.73875 409.854125 88.73875 411.854125 
L 88.73875 484.24475 
Q 88.73875 486.24475 90.73875 486.24475 
z
" style="fill: #ffffff; opacity: 0.8; stroke: #cccccc; stroke-linejoin: miter"/>
    </g>
    <g id="line2d_28">
     <path d="M 92.73875 417.952562 
L 102.73875 417.952562 
L 112.73875 417.952562 
" style="fill: none; stroke: #1f77b4; stroke-width: 1.5; stroke-linecap: square"/>
    </g>
    <g id="text_15">
     <!-- AP for White = 0.711, Count: 8,355, Pos: 2,136, Neg: 6,219 -->
     <g transform="translate(120.73875 421.452562) scale(0.1 -0.1)">
      <defs>
       <path id="DejaVuSans-41" d="M 2188 4044 
L 1331 1722 
L 3047 1722 
L 2188 4044 
z
M 1831 4666 
L 2547 4666 
L 4325 0 
L 3669 0 
L 3244 1197 
L 1141 1197 
L 716 0 
L 50 0 
L 1831 4666 
z
" transform="scale(0.015625)"/>
       <path id="DejaVuSans-57" d="M 213 4666 
L 850 4666 
L 1831 722 
L 2809 4666 
L 3519 4666 
L 4500 722 
L 5478 4666 
L 6119 4666 
L 4947 0 
L 4153 0 
L 3169 4050 
L 2175 0 
L 1381 0 
L 213 4666 
z
" transform="scale(0.015625)"/>
       <path id="DejaVuSans-68" d="M 3513 2113 
L 3513 0 
L 2938 0 
L 2938 2094 
Q 2938 2591 2744 2837 
Q 2550 3084 2163 3084 
Q 1697 3084 1428 2787 
Q 1159 2491 1159 1978 
L 1159 0 
L 581 0 
L 581 4863 
L 1159 4863 
L 1159 2956 
Q 1366 3272 1645 3428 
Q 1925 3584 2291 3584 
Q 2894 3584 3203 3211 
Q 3513 2838 3513 2113 
z
" transform="scale(0.015625)"/>
       <path id="DejaVuSans-3d" d="M 678 2906 
L 4684 2906 
L 4684 2381 
L 678 2381 
L 678 2906 
z
M 678 1631 
L 4684 1631 
L 4684 1100 
L 678 1100 
L 678 1631 
z
" transform="scale(0.015625)"/>
       <path id="DejaVuSans-37" d="M 525 4666 
L 3525 4666 
L 3525 4397 
L 1831 0 
L 1172 0 
L 2766 4134 
L 525 4134 
L 525 4666 
z
" transform="scale(0.015625)"/>
       <path id="DejaVuSans-2c" d="M 750 794 
L 1409 794 
L 1409 256 
L 897 -744 
L 494 -744 
L 750 256 
L 750 794 
z
" transform="scale(0.015625)"/>
       <path id="DejaVuSans-33" d="M 2597 2516 
Q 3050 2419 3304 2112 
Q 3559 1806 3559 1356 
Q 3559 666 3084 287 
Q 2609 -91 1734 -91 
Q 1441 -91 1130 -33 
Q 819 25 488 141 
L 488 750 
Q 750 597 1062 519 
Q 1375 441 1716 441 
Q 2309 441 2620 675 
Q 2931 909 2931 1356 
Q 2931 1769 2642 2001 
Q 2353 2234 1838 2234 
L 1294 2234 
L 1294 2753 
L 1863 2753 
Q 2328 2753 2575 2939 
Q 2822 3125 2822 3475 
Q 2822 3834 2567 4026 
Q 2313 4219 1838 4219 
Q 1578 4219 1281 4162 
Q 984 4106 628 3988 
L 628 4550 
Q 988 4650 1302 4700 
Q 1616 4750 1894 4750 
Q 2613 4750 3031 4423 
Q 3450 4097 3450 3541 
Q 3450 3153 3228 2886 
Q 3006 2619 2597 2516 
z
" transform="scale(0.015625)"/>
       <path id="DejaVuSans-35" d="M 691 4666 
L 3169 4666 
L 3169 4134 
L 1269 4134 
L 1269 2991 
Q 1406 3038 1543 3061 
Q 1681 3084 1819 3084 
Q 2600 3084 3056 2656 
Q 3513 2228 3513 1497 
Q 3513 744 3044 326 
Q 2575 -91 1722 -91 
Q 1428 -91 1123 -41 
Q 819 9 494 109 
L 494 744 
Q 775 591 1075 516 
Q 1375 441 1709 441 
Q 2250 441 2565 725 
Q 2881 1009 2881 1497 
Q 2881 1984 2565 2268 
Q 2250 2553 1709 2553 
Q 1456 2553 1204 2497 
Q 953 2441 691 2322 
L 691 4666 
z
" transform="scale(0.015625)"/>
       <path id="DejaVuSans-4e" d="M 628 4666 
L 1478 4666 
L 3547 763 
L 3547 4666 
L 4159 4666 
L 4159 0 
L 3309 0 
L 1241 3903 
L 1241 0 
L 628 0 
L 628 4666 
z
" transform="scale(0.015625)"/>
       <path id="DejaVuSans-67" d="M 2906 1791 
Q 2906 2416 2648 2759 
Q 2391 3103 1925 3103 
Q 1463 3103 1205 2759 
Q 947 2416 947 1791 
Q 947 1169 1205 825 
Q 1463 481 1925 481 
Q 2391 481 2648 825 
Q 2906 1169 2906 1791 
z
M 3481 434 
Q 3481 -459 3084 -895 
Q 2688 -1331 1869 -1331 
Q 1566 -1331 1297 -1286 
Q 1028 -1241 775 -1147 
L 775 -588 
Q 1028 -725 1275 -790 
Q 1522 -856 1778 -856 
Q 2344 -856 2625 -561 
Q 2906 -266 2906 331 
L 2906 616 
Q 2728 306 2450 153 
Q 2172 0 1784 0 
Q 1141 0 747 490 
Q 353 981 353 1791 
Q 353 2603 747 3093 
Q 1141 3584 1784 3584 
Q 2172 3584 2450 3431 
Q 2728 3278 2906 2969 
L 2906 3500 
L 3481 3500 
L 3481 434 
z
" transform="scale(0.015625)"/>
       <path id="DejaVuSans-39" d="M 703 97 
L 703 672 
Q 941 559 1184 500 
Q 1428 441 1663 441 
Q 2288 441 2617 861 
Q 2947 1281 2994 2138 
Q 2813 1869 2534 1725 
Q 2256 1581 1919 1581 
Q 1219 1581 811 2004 
Q 403 2428 403 3163 
Q 403 3881 828 4315 
Q 1253 4750 1959 4750 
Q 2769 4750 3195 4129 
Q 3622 3509 3622 2328 
Q 3622 1225 3098 567 
Q 2575 -91 1691 -91 
Q 1453 -91 1209 -44 
Q 966 3 703 97 
z
M 1959 2075 
Q 2384 2075 2632 2365 
Q 2881 2656 2881 3163 
Q 2881 3666 2632 3958 
Q 2384 4250 1959 4250 
Q 1534 4250 1286 3958 
Q 1038 3666 1038 3163 
Q 1038 2656 1286 2365 
Q 1534 2075 1959 2075 
z
" transform="scale(0.015625)"/>
      </defs>
      <use xlink:href="#DejaVuSans-41"/>
      <use xlink:href="#DejaVuSans-50" x="68.408203"/>
      <use xlink:href="#DejaVuSans-20" x="128.710938"/>
      <use xlink:href="#DejaVuSans-66" x="160.498047"/>
      <use xlink:href="#DejaVuSans-6f" x="195.703125"/>
      <use xlink:href="#DejaVuSans-72" x="256.884766"/>
      <use xlink:href="#DejaVuSans-20" x="297.998047"/>
      <use xlink:href="#DejaVuSans-57" x="329.785156"/>
      <use xlink:href="#DejaVuSans-68" x="428.662109"/>
      <use xlink:href="#DejaVuSans-69" x="492.041016"/>
      <use xlink:href="#DejaVuSans-74" x="519.824219"/>
      <use xlink:href="#DejaVuSans-65" x="559.033203"/>
      <use xlink:href="#DejaVuSans-20" x="620.556641"/>
      <use xlink:href="#DejaVuSans-3d" x="652.34375"/>
      <use xlink:href="#DejaVuSans-20" x="736.132812"/>
      <use xlink:href="#DejaVuSans-30" x="767.919922"/>
      <use xlink:href="#DejaVuSans-2e" x="831.542969"/>
      <use xlink:href="#DejaVuSans-37" x="863.330078"/>
      <use xlink:href="#DejaVuSans-31" x="926.953125"/>
      <use xlink:href="#DejaVuSans-31" x="990.576172"/>
      <use xlink:href="#DejaVuSans-2c" x="1054.199219"/>
      <use xlink:href="#DejaVuSans-20" x="1085.986328"/>
      <use xlink:href="#DejaVuSans-43" x="1117.773438"/>
      <use xlink:href="#DejaVuSans-6f" x="1187.597656"/>
      <use xlink:href="#DejaVuSans-75" x="1248.779297"/>
      <use xlink:href="#DejaVuSans-6e" x="1312.158203"/>
      <use xlink:href="#DejaVuSans-74" x="1375.537109"/>
      <use xlink:href="#DejaVuSans-3a" x="1414.746094"/>
      <use xlink:href="#DejaVuSans-20" x="1448.4375"/>
      <use xlink:href="#DejaVuSans-38" x="1480.224609"/>
      <use xlink:href="#DejaVuSans-2c" x="1543.847656"/>
      <use xlink:href="#DejaVuSans-33" x="1575.634766"/>
      <use xlink:href="#DejaVuSans-35" x="1639.257812"/>
      <use xlink:href="#DejaVuSans-35" x="1702.880859"/>
      <use xlink:href="#DejaVuSans-2c" x="1766.503906"/>
      <use xlink:href="#DejaVuSans-20" x="1798.291016"/>
      <use xlink:href="#DejaVuSans-50" x="1830.078125"/>
      <use xlink:href="#DejaVuSans-6f" x="1886.755859"/>
      <use xlink:href="#DejaVuSans-73" x="1947.9375"/>
      <use xlink:href="#DejaVuSans-3a" x="2000.037109"/>
      <use xlink:href="#DejaVuSans-20" x="2033.728516"/>
      <use xlink:href="#DejaVuSans-32" x="2065.515625"/>
      <use xlink:href="#DejaVuSans-2c" x="2129.138672"/>
      <use xlink:href="#DejaVuSans-31" x="2160.925781"/>
      <use xlink:href="#DejaVuSans-33" x="2224.548828"/>
      <use xlink:href="#DejaVuSans-36" x="2288.171875"/>
      <use xlink:href="#DejaVuSans-2c" x="2351.794922"/>
      <use xlink:href="#DejaVuSans-20" x="2383.582031"/>
      <use xlink:href="#DejaVuSans-4e" x="2415.369141"/>
      <use xlink:href="#DejaVuSans-65" x="2490.173828"/>
      <use xlink:href="#DejaVuSans-67" x="2551.697266"/>
      <use xlink:href="#DejaVuSans-3a" x="2615.173828"/>
      <use xlink:href="#DejaVuSans-20" x="2648.865234"/>
      <use xlink:href="#DejaVuSans-36" x="2680.652344"/>
      <use xlink:href="#DejaVuSans-2c" x="2744.275391"/>
      <use xlink:href="#DejaVuSans-32" x="2776.0625"/>
      <use xlink:href="#DejaVuSans-31" x="2839.685547"/>
      <use xlink:href="#DejaVuSans-39" x="2903.308594"/>
     </g>
    </g>
    <g id="line2d_29">
     <path d="M 92.73875 432.630688 
L 102.73875 432.630688 
L 112.73875 432.630688 
" style="fill: none; stroke: #ff7f0e; stroke-width: 1.5; stroke-linecap: square"/>
    </g>
    <g id="text_16">
     <!-- AP for Black = 0.597, Count: 936, Pos: 109, Neg: 827 -->
     <g transform="translate(120.73875 436.130688) scale(0.1 -0.1)">
      <defs>
       <path id="DejaVuSans-42" d="M 1259 2228 
L 1259 519 
L 2272 519 
Q 2781 519 3026 730 
Q 3272 941 3272 1375 
Q 3272 1813 3026 2020 
Q 2781 2228 2272 2228 
L 1259 2228 
z
M 1259 4147 
L 1259 2741 
L 2194 2741 
Q 2656 2741 2882 2914 
Q 3109 3088 3109 3444 
Q 3109 3797 2882 3972 
Q 2656 4147 2194 4147 
L 1259 4147 
z
M 628 4666 
L 2241 4666 
Q 2963 4666 3353 4366 
Q 3744 4066 3744 3513 
Q 3744 3084 3544 2831 
Q 3344 2578 2956 2516 
Q 3422 2416 3680 2098 
Q 3938 1781 3938 1306 
Q 3938 681 3513 340 
Q 3088 0 2303 0 
L 628 0 
L 628 4666 
z
" transform="scale(0.015625)"/>
       <path id="DejaVuSans-6b" d="M 581 4863 
L 1159 4863 
L 1159 1991 
L 2875 3500 
L 3609 3500 
L 1753 1863 
L 3688 0 
L 2938 0 
L 1159 1709 
L 1159 0 
L 581 0 
L 581 4863 
z
" transform="scale(0.015625)"/>
      </defs>
      <use xlink:href="#DejaVuSans-41"/>
      <use xlink:href="#DejaVuSans-50" x="68.408203"/>
      <use xlink:href="#DejaVuSans-20" x="128.710938"/>
      <use xlink:href="#DejaVuSans-66" x="160.498047"/>
      <use xlink:href="#DejaVuSans-6f" x="195.703125"/>
      <use xlink:href="#DejaVuSans-72" x="256.884766"/>
      <use xlink:href="#DejaVuSans-20" x="297.998047"/>
      <use xlink:href="#DejaVuSans-42" x="329.785156"/>
      <use xlink:href="#DejaVuSans-6c" x="398.388672"/>
      <use xlink:href="#DejaVuSans-61" x="426.171875"/>
      <use xlink:href="#DejaVuSans-63" x="487.451172"/>
      <use xlink:href="#DejaVuSans-6b" x="542.431641"/>
      <use xlink:href="#DejaVuSans-20" x="600.341797"/>
      <use xlink:href="#DejaVuSans-3d" x="632.128906"/>
      <use xlink:href="#DejaVuSans-20" x="715.917969"/>
      <use xlink:href="#DejaVuSans-30" x="747.705078"/>
      <use xlink:href="#DejaVuSans-2e" x="811.328125"/>
      <use xlink:href="#DejaVuSans-35" x="843.115234"/>
      <use xlink:href="#DejaVuSans-39" x="906.738281"/>
      <use xlink:href="#DejaVuSans-37" x="970.361328"/>
      <use xlink:href="#DejaVuSans-2c" x="1033.984375"/>
      <use xlink:href="#DejaVuSans-20" x="1065.771484"/>
      <use xlink:href="#DejaVuSans-43" x="1097.558594"/>
      <use xlink:href="#DejaVuSans-6f" x="1167.382812"/>
      <use xlink:href="#DejaVuSans-75" x="1228.564453"/>
      <use xlink:href="#DejaVuSans-6e" x="1291.943359"/>
      <use xlink:href="#DejaVuSans-74" x="1355.322266"/>
      <use xlink:href="#DejaVuSans-3a" x="1394.53125"/>
      <use xlink:href="#DejaVuSans-20" x="1428.222656"/>
      <use xlink:href="#DejaVuSans-39" x="1460.009766"/>
      <use xlink:href="#DejaVuSans-33" x="1523.632812"/>
      <use xlink:href="#DejaVuSans-36" x="1587.255859"/>
      <use xlink:href="#DejaVuSans-2c" x="1650.878906"/>
      <use xlink:href="#DejaVuSans-20" x="1682.666016"/>
      <use xlink:href="#DejaVuSans-50" x="1714.453125"/>
      <use xlink:href="#DejaVuSans-6f" x="1771.130859"/>
      <use xlink:href="#DejaVuSans-73" x="1832.3125"/>
      <use xlink:href="#DejaVuSans-3a" x="1884.412109"/>
      <use xlink:href="#DejaVuSans-20" x="1918.103516"/>
      <use xlink:href="#DejaVuSans-31" x="1949.890625"/>
      <use xlink:href="#DejaVuSans-30" x="2013.513672"/>
      <use xlink:href="#DejaVuSans-39" x="2077.136719"/>
      <use xlink:href="#DejaVuSans-2c" x="2140.759766"/>
      <use xlink:href="#DejaVuSans-20" x="2172.546875"/>
      <use xlink:href="#DejaVuSans-4e" x="2204.333984"/>
      <use xlink:href="#DejaVuSans-65" x="2279.138672"/>
      <use xlink:href="#DejaVuSans-67" x="2340.662109"/>
      <use xlink:href="#DejaVuSans-3a" x="2404.138672"/>
      <use xlink:href="#DejaVuSans-20" x="2437.830078"/>
      <use xlink:href="#DejaVuSans-38" x="2469.617188"/>
      <use xlink:href="#DejaVuSans-32" x="2533.240234"/>
      <use xlink:href="#DejaVuSans-37" x="2596.863281"/>
     </g>
    </g>
    <g id="line2d_30">
     <path d="M 92.73875 447.308813 
L 102.73875 447.308813 
L 112.73875 447.308813 
" style="fill: none; stroke: #2ca02c; stroke-width: 1.5; stroke-linecap: square"/>
    </g>
    <g id="text_17">
     <!-- AP for Asian-Pac-Islander = 0.709, Count: 299, Pos: 75, Neg: 224 -->
     <g transform="translate(120.73875 450.808813) scale(0.1 -0.1)">
      <defs>
       <path id="DejaVuSans-2d" d="M 313 2009 
L 1997 2009 
L 1997 1497 
L 313 1497 
L 313 2009 
z
" transform="scale(0.015625)"/>
       <path id="DejaVuSans-49" d="M 628 4666 
L 1259 4666 
L 1259 0 
L 628 0 
L 628 4666 
z
" transform="scale(0.015625)"/>
      </defs>
      <use xlink:href="#DejaVuSans-41"/>
      <use xlink:href="#DejaVuSans-50" x="68.408203"/>
      <use xlink:href="#DejaVuSans-20" x="128.710938"/>
      <use xlink:href="#DejaVuSans-66" x="160.498047"/>
      <use xlink:href="#DejaVuSans-6f" x="195.703125"/>
      <use xlink:href="#DejaVuSans-72" x="256.884766"/>
      <use xlink:href="#DejaVuSans-20" x="297.998047"/>
      <use xlink:href="#DejaVuSans-41" x="329.785156"/>
      <use xlink:href="#DejaVuSans-73" x="398.193359"/>
      <use xlink:href="#DejaVuSans-69" x="450.292969"/>
      <use xlink:href="#DejaVuSans-61" x="478.076172"/>
      <use xlink:href="#DejaVuSans-6e" x="539.355469"/>
      <use xlink:href="#DejaVuSans-2d" x="602.734375"/>
      <use xlink:href="#DejaVuSans-50" x="638.818359"/>
      <use xlink:href="#DejaVuSans-61" x="694.621094"/>
      <use xlink:href="#DejaVuSans-63" x="755.900391"/>
      <use xlink:href="#DejaVuSans-2d" x="810.880859"/>
      <use xlink:href="#DejaVuSans-49" x="846.964844"/>
      <use xlink:href="#DejaVuSans-73" x="876.457031"/>
      <use xlink:href="#DejaVuSans-6c" x="928.556641"/>
      <use xlink:href="#DejaVuSans-61" x="956.339844"/>
      <use xlink:href="#DejaVuSans-6e" x="1017.619141"/>
      <use xlink:href="#DejaVuSans-64" x="1080.998047"/>
      <use xlink:href="#DejaVuSans-65" x="1144.474609"/>
      <use xlink:href="#DejaVuSans-72" x="1205.998047"/>
      <use xlink:href="#DejaVuSans-20" x="1247.111328"/>
      <use xlink:href="#DejaVuSans-3d" x="1278.898438"/>
      <use xlink:href="#DejaVuSans-20" x="1362.6875"/>
      <use xlink:href="#DejaVuSans-30" x="1394.474609"/>
      <use xlink:href="#DejaVuSans-2e" x="1458.097656"/>
      <use xlink:href="#DejaVuSans-37" x="1489.884766"/>
      <use xlink:href="#DejaVuSans-30" x="1553.507812"/>
      <use xlink:href="#DejaVuSans-39" x="1617.130859"/>
      <use xlink:href="#DejaVuSans-2c" x="1680.753906"/>
      <use xlink:href="#DejaVuSans-20" x="1712.541016"/>
      <use xlink:href="#DejaVuSans-43" x="1744.328125"/>
      <use xlink:href="#DejaVuSans-6f" x="1814.152344"/>
      <use xlink:href="#DejaVuSans-75" x="1875.333984"/>
      <use xlink:href="#DejaVuSans-6e" x="1938.712891"/>
      <use xlink:href="#DejaVuSans-74" x="2002.091797"/>
      <use xlink:href="#DejaVuSans-3a" x="2041.300781"/>
      <use xlink:href="#DejaVuSans-20" x="2074.992188"/>
      <use xlink:href="#DejaVuSans-32" x="2106.779297"/>
      <use xlink:href="#DejaVuSans-39" x="2170.402344"/>
      <use xlink:href="#DejaVuSans-39" x="2234.025391"/>
      <use xlink:href="#DejaVuSans-2c" x="2297.648438"/>
      <use xlink:href="#DejaVuSans-20" x="2329.435547"/>
      <use xlink:href="#DejaVuSans-50" x="2361.222656"/>
      <use xlink:href="#DejaVuSans-6f" x="2417.900391"/>
      <use xlink:href="#DejaVuSans-73" x="2479.082031"/>
      <use xlink:href="#DejaVuSans-3a" x="2531.181641"/>
      <use xlink:href="#DejaVuSans-20" x="2564.873047"/>
      <use xlink:href="#DejaVuSans-37" x="2596.660156"/>
      <use xlink:href="#DejaVuSans-35" x="2660.283203"/>
      <use xlink:href="#DejaVuSans-2c" x="2723.90625"/>
      <use xlink:href="#DejaVuSans-20" x="2755.693359"/>
      <use xlink:href="#DejaVuSans-4e" x="2787.480469"/>
      <use xlink:href="#DejaVuSans-65" x="2862.285156"/>
      <use xlink:href="#DejaVuSans-67" x="2923.808594"/>
      <use xlink:href="#DejaVuSans-3a" x="2987.285156"/>
      <use xlink:href="#DejaVuSans-20" x="3020.976562"/>
      <use xlink:href="#DejaVuSans-32" x="3052.763672"/>
      <use xlink:href="#DejaVuSans-32" x="3116.386719"/>
      <use xlink:href="#DejaVuSans-34" x="3180.009766"/>
     </g>
    </g>
    <g id="line2d_31">
     <path d="M 92.73875 461.986938 
L 102.73875 461.986938 
L 112.73875 461.986938 
" style="fill: none; stroke: #d62728; stroke-width: 1.5; stroke-linecap: square"/>
    </g>
    <g id="text_18">
     <!-- AP for Amer-Indian-Eskimo = 0.233, Count: 91, Pos: 8, Neg: 83 -->
     <g transform="translate(120.73875 465.486938) scale(0.1 -0.1)">
      <defs>
       <path id="DejaVuSans-45" d="M 628 4666 
L 3578 4666 
L 3578 4134 
L 1259 4134 
L 1259 2753 
L 3481 2753 
L 3481 2222 
L 1259 2222 
L 1259 531 
L 3634 531 
L 3634 0 
L 628 0 
L 628 4666 
z
" transform="scale(0.015625)"/>
      </defs>
      <use xlink:href="#DejaVuSans-41"/>
      <use xlink:href="#DejaVuSans-50" x="68.408203"/>
      <use xlink:href="#DejaVuSans-20" x="128.710938"/>
      <use xlink:href="#DejaVuSans-66" x="160.498047"/>
      <use xlink:href="#DejaVuSans-6f" x="195.703125"/>
      <use xlink:href="#DejaVuSans-72" x="256.884766"/>
      <use xlink:href="#DejaVuSans-20" x="297.998047"/>
      <use xlink:href="#DejaVuSans-41" x="329.785156"/>
      <use xlink:href="#DejaVuSans-6d" x="398.193359"/>
      <use xlink:href="#DejaVuSans-65" x="495.605469"/>
      <use xlink:href="#DejaVuSans-72" x="557.128906"/>
      <use xlink:href="#DejaVuSans-2d" x="591.867188"/>
      <use xlink:href="#DejaVuSans-49" x="627.951172"/>
      <use xlink:href="#DejaVuSans-6e" x="657.443359"/>
      <use xlink:href="#DejaVuSans-64" x="720.822266"/>
      <use xlink:href="#DejaVuSans-69" x="784.298828"/>
      <use xlink:href="#DejaVuSans-61" x="812.082031"/>
      <use xlink:href="#DejaVuSans-6e" x="873.361328"/>
      <use xlink:href="#DejaVuSans-2d" x="936.740234"/>
      <use xlink:href="#DejaVuSans-45" x="972.824219"/>
      <use xlink:href="#DejaVuSans-73" x="1036.007812"/>
      <use xlink:href="#DejaVuSans-6b" x="1088.107422"/>
      <use xlink:href="#DejaVuSans-69" x="1146.017578"/>
      <use xlink:href="#DejaVuSans-6d" x="1173.800781"/>
      <use xlink:href="#DejaVuSans-6f" x="1271.212891"/>
      <use xlink:href="#DejaVuSans-20" x="1332.394531"/>
      <use xlink:href="#DejaVuSans-3d" x="1364.181641"/>
      <use xlink:href="#DejaVuSans-20" x="1447.970703"/>
      <use xlink:href="#DejaVuSans-30" x="1479.757812"/>
      <use xlink:href="#DejaVuSans-2e" x="1543.380859"/>
      <use xlink:href="#DejaVuSans-32" x="1575.167969"/>
      <use xlink:href="#DejaVuSans-33" x="1638.791016"/>
      <use xlink:href="#DejaVuSans-33" x="1702.414062"/>
      <use xlink:href="#DejaVuSans-2c" x="1766.037109"/>
      <use xlink:href="#DejaVuSans-20" x="1797.824219"/>
      <use xlink:href="#DejaVuSans-43" x="1829.611328"/>
      <use xlink:href="#DejaVuSans-6f" x="1899.435547"/>
      <use xlink:href="#DejaVuSans-75" x="1960.617188"/>
      <use xlink:href="#DejaVuSans-6e" x="2023.996094"/>
      <use xlink:href="#DejaVuSans-74" x="2087.375"/>
      <use xlink:href="#DejaVuSans-3a" x="2126.583984"/>
      <use xlink:href="#DejaVuSans-20" x="2160.275391"/>
      <use xlink:href="#DejaVuSans-39" x="2192.0625"/>
      <use xlink:href="#DejaVuSans-31" x="2255.685547"/>
      <use xlink:href="#DejaVuSans-2c" x="2319.308594"/>
      <use xlink:href="#DejaVuSans-20" x="2351.095703"/>
      <use xlink:href="#DejaVuSans-50" x="2382.882812"/>
      <use xlink:href="#DejaVuSans-6f" x="2439.560547"/>
      <use xlink:href="#DejaVuSans-73" x="2500.742188"/>
      <use xlink:href="#DejaVuSans-3a" x="2552.841797"/>
      <use xlink:href="#DejaVuSans-20" x="2586.533203"/>
      <use xlink:href="#DejaVuSans-38" x="2618.320312"/>
      <use xlink:href="#DejaVuSans-2c" x="2681.943359"/>
      <use xlink:href="#DejaVuSans-20" x="2713.730469"/>
      <use xlink:href="#DejaVuSans-4e" x="2745.517578"/>
      <use xlink:href="#DejaVuSans-65" x="2820.322266"/>
      <use xlink:href="#DejaVuSans-67" x="2881.845703"/>
      <use xlink:href="#DejaVuSans-3a" x="2945.322266"/>
      <use xlink:href="#DejaVuSans-20" x="2979.013672"/>
      <use xlink:href="#DejaVuSans-38" x="3010.800781"/>
      <use xlink:href="#DejaVuSans-33" x="3074.423828"/>
     </g>
    </g>
    <g id="line2d_32">
     <path d="M 92.73875 476.665063 
L 102.73875 476.665063 
L 112.73875 476.665063 
" style="fill: none; stroke: #9467bd; stroke-width: 1.5; stroke-linecap: square"/>
    </g>
    <g id="text_19">
     <!-- AP for Other = 0.725, Count: 88, Pos: 10, Neg: 78 -->
     <g transform="translate(120.73875 480.165063) scale(0.1 -0.1)">
      <defs>
       <path id="DejaVuSans-4f" d="M 2522 4238 
Q 1834 4238 1429 3725 
Q 1025 3213 1025 2328 
Q 1025 1447 1429 934 
Q 1834 422 2522 422 
Q 3209 422 3611 934 
Q 4013 1447 4013 2328 
Q 4013 3213 3611 3725 
Q 3209 4238 2522 4238 
z
M 2522 4750 
Q 3503 4750 4090 4092 
Q 4678 3434 4678 2328 
Q 4678 1225 4090 567 
Q 3503 -91 2522 -91 
Q 1538 -91 948 565 
Q 359 1222 359 2328 
Q 359 3434 948 4092 
Q 1538 4750 2522 4750 
z
" transform="scale(0.015625)"/>
      </defs>
      <use xlink:href="#DejaVuSans-41"/>
      <use xlink:href="#DejaVuSans-50" x="68.408203"/>
      <use xlink:href="#DejaVuSans-20" x="128.710938"/>
      <use xlink:href="#DejaVuSans-66" x="160.498047"/>
      <use xlink:href="#DejaVuSans-6f" x="195.703125"/>
      <use xlink:href="#DejaVuSans-72" x="256.884766"/>
      <use xlink:href="#DejaVuSans-20" x="297.998047"/>
      <use xlink:href="#DejaVuSans-4f" x="329.785156"/>
      <use xlink:href="#DejaVuSans-74" x="408.496094"/>
      <use xlink:href="#DejaVuSans-68" x="447.705078"/>
      <use xlink:href="#DejaVuSans-65" x="511.083984"/>
      <use xlink:href="#DejaVuSans-72" x="572.607422"/>
      <use xlink:href="#DejaVuSans-20" x="613.720703"/>
      <use xlink:href="#DejaVuSans-3d" x="645.507812"/>
      <use xlink:href="#DejaVuSans-20" x="729.296875"/>
      <use xlink:href="#DejaVuSans-30" x="761.083984"/>
      <use xlink:href="#DejaVuSans-2e" x="824.707031"/>
      <use xlink:href="#DejaVuSans-37" x="856.494141"/>
      <use xlink:href="#DejaVuSans-32" x="920.117188"/>
      <use xlink:href="#DejaVuSans-35" x="983.740234"/>
      <use xlink:href="#DejaVuSans-2c" x="1047.363281"/>
      <use xlink:href="#DejaVuSans-20" x="1079.150391"/>
      <use xlink:href="#DejaVuSans-43" x="1110.9375"/>
      <use xlink:href="#DejaVuSans-6f" x="1180.761719"/>
      <use xlink:href="#DejaVuSans-75" x="1241.943359"/>
      <use xlink:href="#DejaVuSans-6e" x="1305.322266"/>
      <use xlink:href="#DejaVuSans-74" x="1368.701172"/>
      <use xlink:href="#DejaVuSans-3a" x="1407.910156"/>
      <use xlink:href="#DejaVuSans-20" x="1441.601562"/>
      <use xlink:href="#DejaVuSans-38" x="1473.388672"/>
      <use xlink:href="#DejaVuSans-38" x="1537.011719"/>
      <use xlink:href="#DejaVuSans-2c" x="1600.634766"/>
      <use xlink:href="#DejaVuSans-20" x="1632.421875"/>
      <use xlink:href="#DejaVuSans-50" x="1664.208984"/>
      <use xlink:href="#DejaVuSans-6f" x="1720.886719"/>
      <use xlink:href="#DejaVuSans-73" x="1782.068359"/>
      <use xlink:href="#DejaVuSans-3a" x="1834.167969"/>
      <use xlink:href="#DejaVuSans-20" x="1867.859375"/>
      <use xlink:href="#DejaVuSans-31" x="1899.646484"/>
      <use xlink:href="#DejaVuSans-30" x="1963.269531"/>
      <use xlink:href="#DejaVuSans-2c" x="2026.892578"/>
      <use xlink:href="#DejaVuSans-20" x="2058.679688"/>
      <use xlink:href="#DejaVuSans-4e" x="2090.466797"/>
      <use xlink:href="#DejaVuSans-65" x="2165.271484"/>
      <use xlink:href="#DejaVuSans-67" x="2226.794922"/>
      <use xlink:href="#DejaVuSans-3a" x="2290.271484"/>
      <use xlink:href="#DejaVuSans-20" x="2323.962891"/>
      <use xlink:href="#DejaVuSans-37" x="2355.75"/>
      <use xlink:href="#DejaVuSans-38" x="2419.373047"/>
     </g>
    </g>
   </g>
  </g>
 </g>
 <defs>
  <clipPath id="p633400e841">
   <rect x="45.716875" y="22.318125" width="446.4" height="332.64"/>
  </clipPath>
 </defs>
</svg>
