<?xml version="1.0" encoding="utf-8" standalone="no"?>
<!DOCTYPE svg PUBLIC "-//W3C//DTD SVG 1.1//EN"
  "http://www.w3.org/Graphics/SVG/1.1/DTD/svg11.dtd">
<svg xmlns:xlink="http://www.w3.org/1999/xlink" width="499.316875pt" height="508.122875pt" viewBox="0 0 499.316875 508.122875" xmlns="http://www.w3.org/2000/svg" version="1.1">
 <metadata>
  <rdf:RDF xmlns:dc="http://purl.org/dc/elements/1.1/" xmlns:cc="http://creativecommons.org/ns#" xmlns:rdf="http://www.w3.org/1999/02/22-rdf-syntax-ns#">
   <cc:Work>
    <dc:type rdf:resource="http://purl.org/dc/dcmitype/StillImage"/>
    <dc:date>2025-03-14T11:26:03.329372</dc:date>
    <dc:format>image/svg+xml</dc:format>
    <dc:creator>
     <cc:Agent>
      <dc:title>Matplotlib v3.9.2, https://matplotlib.org/</dc:title>
     </cc:Agent>
    </dc:creator>
   </cc:Work>
  </rdf:RDF>
 </metadata>
 <defs>
  <style type="text/css">*{stroke-linejoin: round; stroke-linecap: butt}</style>
 </defs>
 <g id="figure_1">
  <g id="patch_1">
   <path d="M 0 508.122875 
L 499.316875 508.122875 
L 499.316875 -0 
L 0 -0 
z
" style="fill: #ffffff"/>
  </g>
  <g id="axes_1">
   <g id="patch_2">
    <path d="M 45.716875 354.958125 
L 492.116875 354.958125 
L 492.116875 22.318125 
L 45.716875 22.318125 
z
" style="fill: #ffffff"/>
   </g>
   <g id="matplotlib.axis_1">
    <g id="xtick_1">
     <g id="line2d_1">
      <path d="M 66.007784 354.958125 
L 66.007784 22.318125 
" clip-path="url(#pb5830d2720)" style="fill: none; stroke: #b0b0b0; stroke-width: 0.8; stroke-linecap: square"/>
     </g>
     <g id="line2d_2">
      <defs>
       <path id="madd10a1ab0" d="M 0 0 
L 0 3.5 
" style="stroke: #000000; stroke-width: 0.8"/>
      </defs>
      <g>
       <use xlink:href="#madd10a1ab0" x="66.007784" y="354.958125" style="stroke: #000000; stroke-width: 0.8"/>
      </g>
     </g>
     <g id="text_1">
      <!-- 0.0 -->
      <g transform="translate(58.056222 369.556563) scale(0.1 -0.1)">
       <defs>
        <path id="DejaVuSans-30" d="M 2034 4250 
Q 1547 4250 1301 3770 
Q 1056 3291 1056 2328 
Q 1056 1369 1301 889 
Q 1547 409 2034 409 
Q 2525 409 2770 889 
Q 3016 1369 3016 2328 
Q 3016 3291 2770 3770 
Q 2525 4250 2034 4250 
z
M 2034 4750 
Q 2819 4750 3233 4129 
Q 3647 3509 3647 2328 
Q 3647 1150 3233 529 
Q 2819 -91 2034 -91 
Q 1250 -91 836 529 
Q 422 1150 422 2328 
Q 422 3509 836 4129 
Q 1250 4750 2034 4750 
z
" transform="scale(0.015625)"/>
        <path id="DejaVuSans-2e" d="M 684 794 
L 1344 794 
L 1344 0 
L 684 0 
L 684 794 
z
" transform="scale(0.015625)"/>
       </defs>
       <use xlink:href="#DejaVuSans-30"/>
       <use xlink:href="#DejaVuSans-2e" x="63.623047"/>
       <use xlink:href="#DejaVuSans-30" x="95.410156"/>
      </g>
     </g>
    </g>
    <g id="xtick_2">
     <g id="line2d_3">
      <path d="M 147.17142 354.958125 
L 147.17142 22.318125 
" clip-path="url(#pb5830d2720)" style="fill: none; stroke: #b0b0b0; stroke-width: 0.8; stroke-linecap: square"/>
     </g>
     <g id="line2d_4">
      <g>
       <use xlink:href="#madd10a1ab0" x="147.17142" y="354.958125" style="stroke: #000000; stroke-width: 0.8"/>
      </g>
     </g>
     <g id="text_2">
      <!-- 0.2 -->
      <g transform="translate(139.219858 369.556563) scale(0.1 -0.1)">
       <defs>
        <path id="DejaVuSans-32" d="M 1228 531 
L 3431 531 
L 3431 0 
L 469 0 
L 469 531 
Q 828 903 1448 1529 
Q 2069 2156 2228 2338 
Q 2531 2678 2651 2914 
Q 2772 3150 2772 3378 
Q 2772 3750 2511 3984 
Q 2250 4219 1831 4219 
Q 1534 4219 1204 4116 
Q 875 4013 500 3803 
L 500 4441 
Q 881 4594 1212 4672 
Q 1544 4750 1819 4750 
Q 2544 4750 2975 4387 
Q 3406 4025 3406 3419 
Q 3406 3131 3298 2873 
Q 3191 2616 2906 2266 
Q 2828 2175 2409 1742 
Q 1991 1309 1228 531 
z
" transform="scale(0.015625)"/>
       </defs>
       <use xlink:href="#DejaVuSans-30"/>
       <use xlink:href="#DejaVuSans-2e" x="63.623047"/>
       <use xlink:href="#DejaVuSans-32" x="95.410156"/>
      </g>
     </g>
    </g>
    <g id="xtick_3">
     <g id="line2d_5">
      <path d="M 228.335057 354.958125 
L 228.335057 22.318125 
" clip-path="url(#pb5830d2720)" style="fill: none; stroke: #b0b0b0; stroke-width: 0.8; stroke-linecap: square"/>
     </g>
     <g id="line2d_6">
      <g>
       <use xlink:href="#madd10a1ab0" x="228.335057" y="354.958125" style="stroke: #000000; stroke-width: 0.8"/>
      </g>
     </g>
     <g id="text_3">
      <!-- 0.4 -->
      <g transform="translate(220.383494 369.556563) scale(0.1 -0.1)">
       <defs>
        <path id="DejaVuSans-34" d="M 2419 4116 
L 825 1625 
L 2419 1625 
L 2419 4116 
z
M 2253 4666 
L 3047 4666 
L 3047 1625 
L 3713 1625 
L 3713 1100 
L 3047 1100 
L 3047 0 
L 2419 0 
L 2419 1100 
L 313 1100 
L 313 1709 
L 2253 4666 
z
" transform="scale(0.015625)"/>
       </defs>
       <use xlink:href="#DejaVuSans-30"/>
       <use xlink:href="#DejaVuSans-2e" x="63.623047"/>
       <use xlink:href="#DejaVuSans-34" x="95.410156"/>
      </g>
     </g>
    </g>
    <g id="xtick_4">
     <g id="line2d_7">
      <path d="M 309.498693 354.958125 
L 309.498693 22.318125 
" clip-path="url(#pb5830d2720)" style="fill: none; stroke: #b0b0b0; stroke-width: 0.8; stroke-linecap: square"/>
     </g>
     <g id="line2d_8">
      <g>
       <use xlink:href="#madd10a1ab0" x="309.498693" y="354.958125" style="stroke: #000000; stroke-width: 0.8"/>
      </g>
     </g>
     <g id="text_4">
      <!-- 0.6 -->
      <g transform="translate(301.547131 369.556563) scale(0.1 -0.1)">
       <defs>
        <path id="DejaVuSans-36" d="M 2113 2584 
Q 1688 2584 1439 2293 
Q 1191 2003 1191 1497 
Q 1191 994 1439 701 
Q 1688 409 2113 409 
Q 2538 409 2786 701 
Q 3034 994 3034 1497 
Q 3034 2003 2786 2293 
Q 2538 2584 2113 2584 
z
M 3366 4563 
L 3366 3988 
Q 3128 4100 2886 4159 
Q 2644 4219 2406 4219 
Q 1781 4219 1451 3797 
Q 1122 3375 1075 2522 
Q 1259 2794 1537 2939 
Q 1816 3084 2150 3084 
Q 2853 3084 3261 2657 
Q 3669 2231 3669 1497 
Q 3669 778 3244 343 
Q 2819 -91 2113 -91 
Q 1303 -91 875 529 
Q 447 1150 447 2328 
Q 447 3434 972 4092 
Q 1497 4750 2381 4750 
Q 2619 4750 2861 4703 
Q 3103 4656 3366 4563 
z
" transform="scale(0.015625)"/>
       </defs>
       <use xlink:href="#DejaVuSans-30"/>
       <use xlink:href="#DejaVuSans-2e" x="63.623047"/>
       <use xlink:href="#DejaVuSans-36" x="95.410156"/>
      </g>
     </g>
    </g>
    <g id="xtick_5">
     <g id="line2d_9">
      <path d="M 390.66233 354.958125 
L 390.66233 22.318125 
" clip-path="url(#pb5830d2720)" style="fill: none; stroke: #b0b0b0; stroke-width: 0.8; stroke-linecap: square"/>
     </g>
     <g id="line2d_10">
      <g>
       <use xlink:href="#madd10a1ab0" x="390.66233" y="354.958125" style="stroke: #000000; stroke-width: 0.8"/>
      </g>
     </g>
     <g id="text_5">
      <!-- 0.8 -->
      <g transform="translate(382.710767 369.556563) scale(0.1 -0.1)">
       <defs>
        <path id="DejaVuSans-38" d="M 2034 2216 
Q 1584 2216 1326 1975 
Q 1069 1734 1069 1313 
Q 1069 891 1326 650 
Q 1584 409 2034 409 
Q 2484 409 2743 651 
Q 3003 894 3003 1313 
Q 3003 1734 2745 1975 
Q 2488 2216 2034 2216 
z
M 1403 2484 
Q 997 2584 770 2862 
Q 544 3141 544 3541 
Q 544 4100 942 4425 
Q 1341 4750 2034 4750 
Q 2731 4750 3128 4425 
Q 3525 4100 3525 3541 
Q 3525 3141 3298 2862 
Q 3072 2584 2669 2484 
Q 3125 2378 3379 2068 
Q 3634 1759 3634 1313 
Q 3634 634 3220 271 
Q 2806 -91 2034 -91 
Q 1263 -91 848 271 
Q 434 634 434 1313 
Q 434 1759 690 2068 
Q 947 2378 1403 2484 
z
M 1172 3481 
Q 1172 3119 1398 2916 
Q 1625 2713 2034 2713 
Q 2441 2713 2670 2916 
Q 2900 3119 2900 3481 
Q 2900 3844 2670 4047 
Q 2441 4250 2034 4250 
Q 1625 4250 1398 4047 
Q 1172 3844 1172 3481 
z
" transform="scale(0.015625)"/>
       </defs>
       <use xlink:href="#DejaVuSans-30"/>
       <use xlink:href="#DejaVuSans-2e" x="63.623047"/>
       <use xlink:href="#DejaVuSans-38" x="95.410156"/>
      </g>
     </g>
    </g>
    <g id="xtick_6">
     <g id="line2d_11">
      <path d="M 471.825966 354.958125 
L 471.825966 22.318125 
" clip-path="url(#pb5830d2720)" style="fill: none; stroke: #b0b0b0; stroke-width: 0.8; stroke-linecap: square"/>
     </g>
     <g id="line2d_12">
      <g>
       <use xlink:href="#madd10a1ab0" x="471.825966" y="354.958125" style="stroke: #000000; stroke-width: 0.8"/>
      </g>
     </g>
     <g id="text_6">
      <!-- 1.0 -->
      <g transform="translate(463.874403 369.556563) scale(0.1 -0.1)">
       <defs>
        <path id="DejaVuSans-31" d="M 794 531 
L 1825 531 
L 1825 4091 
L 703 3866 
L 703 4441 
L 1819 4666 
L 2450 4666 
L 2450 531 
L 3481 531 
L 3481 0 
L 794 0 
L 794 531 
z
" transform="scale(0.015625)"/>
       </defs>
       <use xlink:href="#DejaVuSans-31"/>
       <use xlink:href="#DejaVuSans-2e" x="63.623047"/>
       <use xlink:href="#DejaVuSans-30" x="95.410156"/>
      </g>
     </g>
    </g>
    <g id="text_7">
     <!-- False Positive Rate -->
     <g transform="translate(213.157188 384.754375) scale(0.12 -0.12)">
      <defs>
       <path id="DejaVuSans-46" d="M 628 4666 
L 3309 4666 
L 3309 4134 
L 1259 4134 
L 1259 2759 
L 3109 2759 
L 3109 2228 
L 1259 2228 
L 1259 0 
L 628 0 
L 628 4666 
z
" transform="scale(0.015625)"/>
       <path id="DejaVuSans-61" d="M 2194 1759 
Q 1497 1759 1228 1600 
Q 959 1441 959 1056 
Q 959 750 1161 570 
Q 1363 391 1709 391 
Q 2188 391 2477 730 
Q 2766 1069 2766 1631 
L 2766 1759 
L 2194 1759 
z
M 3341 1997 
L 3341 0 
L 2766 0 
L 2766 531 
Q 2569 213 2275 61 
Q 1981 -91 1556 -91 
Q 1019 -91 701 211 
Q 384 513 384 1019 
Q 384 1609 779 1909 
Q 1175 2209 1959 2209 
L 2766 2209 
L 2766 2266 
Q 2766 2663 2505 2880 
Q 2244 3097 1772 3097 
Q 1472 3097 1187 3025 
Q 903 2953 641 2809 
L 641 3341 
Q 956 3463 1253 3523 
Q 1550 3584 1831 3584 
Q 2591 3584 2966 3190 
Q 3341 2797 3341 1997 
z
" transform="scale(0.015625)"/>
       <path id="DejaVuSans-6c" d="M 603 4863 
L 1178 4863 
L 1178 0 
L 603 0 
L 603 4863 
z
" transform="scale(0.015625)"/>
       <path id="DejaVuSans-73" d="M 2834 3397 
L 2834 2853 
Q 2591 2978 2328 3040 
Q 2066 3103 1784 3103 
Q 1356 3103 1142 2972 
Q 928 2841 928 2578 
Q 928 2378 1081 2264 
Q 1234 2150 1697 2047 
L 1894 2003 
Q 2506 1872 2764 1633 
Q 3022 1394 3022 966 
Q 3022 478 2636 193 
Q 2250 -91 1575 -91 
Q 1294 -91 989 -36 
Q 684 19 347 128 
L 347 722 
Q 666 556 975 473 
Q 1284 391 1588 391 
Q 1994 391 2212 530 
Q 2431 669 2431 922 
Q 2431 1156 2273 1281 
Q 2116 1406 1581 1522 
L 1381 1569 
Q 847 1681 609 1914 
Q 372 2147 372 2553 
Q 372 3047 722 3315 
Q 1072 3584 1716 3584 
Q 2034 3584 2315 3537 
Q 2597 3491 2834 3397 
z
" transform="scale(0.015625)"/>
       <path id="DejaVuSans-65" d="M 3597 1894 
L 3597 1613 
L 953 1613 
Q 991 1019 1311 708 
Q 1631 397 2203 397 
Q 2534 397 2845 478 
Q 3156 559 3463 722 
L 3463 178 
Q 3153 47 2828 -22 
Q 2503 -91 2169 -91 
Q 1331 -91 842 396 
Q 353 884 353 1716 
Q 353 2575 817 3079 
Q 1281 3584 2069 3584 
Q 2775 3584 3186 3129 
Q 3597 2675 3597 1894 
z
M 3022 2063 
Q 3016 2534 2758 2815 
Q 2500 3097 2075 3097 
Q 1594 3097 1305 2825 
Q 1016 2553 972 2059 
L 3022 2063 
z
" transform="scale(0.015625)"/>
       <path id="DejaVuSans-20" transform="scale(0.015625)"/>
       <path id="DejaVuSans-50" d="M 1259 4147 
L 1259 2394 
L 2053 2394 
Q 2494 2394 2734 2622 
Q 2975 2850 2975 3272 
Q 2975 3691 2734 3919 
Q 2494 4147 2053 4147 
L 1259 4147 
z
M 628 4666 
L 2053 4666 
Q 2838 4666 3239 4311 
Q 3641 3956 3641 3272 
Q 3641 2581 3239 2228 
Q 2838 1875 2053 1875 
L 1259 1875 
L 1259 0 
L 628 0 
L 628 4666 
z
" transform="scale(0.015625)"/>
       <path id="DejaVuSans-6f" d="M 1959 3097 
Q 1497 3097 1228 2736 
Q 959 2375 959 1747 
Q 959 1119 1226 758 
Q 1494 397 1959 397 
Q 2419 397 2687 759 
Q 2956 1122 2956 1747 
Q 2956 2369 2687 2733 
Q 2419 3097 1959 3097 
z
M 1959 3584 
Q 2709 3584 3137 3096 
Q 3566 2609 3566 1747 
Q 3566 888 3137 398 
Q 2709 -91 1959 -91 
Q 1206 -91 779 398 
Q 353 888 353 1747 
Q 353 2609 779 3096 
Q 1206 3584 1959 3584 
z
" transform="scale(0.015625)"/>
       <path id="DejaVuSans-69" d="M 603 3500 
L 1178 3500 
L 1178 0 
L 603 0 
L 603 3500 
z
M 603 4863 
L 1178 4863 
L 1178 4134 
L 603 4134 
L 603 4863 
z
" transform="scale(0.015625)"/>
       <path id="DejaVuSans-74" d="M 1172 4494 
L 1172 3500 
L 2356 3500 
L 2356 3053 
L 1172 3053 
L 1172 1153 
Q 1172 725 1289 603 
Q 1406 481 1766 481 
L 2356 481 
L 2356 0 
L 1766 0 
Q 1100 0 847 248 
Q 594 497 594 1153 
L 594 3053 
L 172 3053 
L 172 3500 
L 594 3500 
L 594 4494 
L 1172 4494 
z
" transform="scale(0.015625)"/>
       <path id="DejaVuSans-76" d="M 191 3500 
L 800 3500 
L 1894 563 
L 2988 3500 
L 3597 3500 
L 2284 0 
L 1503 0 
L 191 3500 
z
" transform="scale(0.015625)"/>
       <path id="DejaVuSans-52" d="M 2841 2188 
Q 3044 2119 3236 1894 
Q 3428 1669 3622 1275 
L 4263 0 
L 3584 0 
L 2988 1197 
Q 2756 1666 2539 1819 
Q 2322 1972 1947 1972 
L 1259 1972 
L 1259 0 
L 628 0 
L 628 4666 
L 2053 4666 
Q 2853 4666 3247 4331 
Q 3641 3997 3641 3322 
Q 3641 2881 3436 2590 
Q 3231 2300 2841 2188 
z
M 1259 4147 
L 1259 2491 
L 2053 2491 
Q 2509 2491 2742 2702 
Q 2975 2913 2975 3322 
Q 2975 3731 2742 3939 
Q 2509 4147 2053 4147 
L 1259 4147 
z
" transform="scale(0.015625)"/>
      </defs>
      <use xlink:href="#DejaVuSans-46"/>
      <use xlink:href="#DejaVuSans-61" x="48.394531"/>
      <use xlink:href="#DejaVuSans-6c" x="109.673828"/>
      <use xlink:href="#DejaVuSans-73" x="137.457031"/>
      <use xlink:href="#DejaVuSans-65" x="189.556641"/>
      <use xlink:href="#DejaVuSans-20" x="251.080078"/>
      <use xlink:href="#DejaVuSans-50" x="282.867188"/>
      <use xlink:href="#DejaVuSans-6f" x="339.544922"/>
      <use xlink:href="#DejaVuSans-73" x="400.726562"/>
      <use xlink:href="#DejaVuSans-69" x="452.826172"/>
      <use xlink:href="#DejaVuSans-74" x="480.609375"/>
      <use xlink:href="#DejaVuSans-69" x="519.818359"/>
      <use xlink:href="#DejaVuSans-76" x="547.601562"/>
      <use xlink:href="#DejaVuSans-65" x="606.78125"/>
      <use xlink:href="#DejaVuSans-20" x="668.304688"/>
      <use xlink:href="#DejaVuSans-52" x="700.091797"/>
      <use xlink:href="#DejaVuSans-61" x="767.324219"/>
      <use xlink:href="#DejaVuSans-74" x="828.603516"/>
      <use xlink:href="#DejaVuSans-65" x="867.8125"/>
     </g>
    </g>
   </g>
   <g id="matplotlib.axis_2">
    <g id="ytick_1">
     <g id="line2d_13">
      <path d="M 45.716875 339.838125 
L 492.116875 339.838125 
" clip-path="url(#pb5830d2720)" style="fill: none; stroke: #b0b0b0; stroke-width: 0.8; stroke-linecap: square"/>
     </g>
     <g id="line2d_14">
      <defs>
       <path id="m83042967b4" d="M 0 0 
L -3.5 0 
" style="stroke: #000000; stroke-width: 0.8"/>
      </defs>
      <g>
       <use xlink:href="#m83042967b4" x="45.716875" y="339.838125" style="stroke: #000000; stroke-width: 0.8"/>
      </g>
     </g>
     <g id="text_8">
      <!-- 0.0 -->
      <g transform="translate(22.81375 343.637344) scale(0.1 -0.1)">
       <use xlink:href="#DejaVuSans-30"/>
       <use xlink:href="#DejaVuSans-2e" x="63.623047"/>
       <use xlink:href="#DejaVuSans-30" x="95.410156"/>
      </g>
     </g>
    </g>
    <g id="ytick_2">
     <g id="line2d_15">
      <path d="M 45.716875 279.358125 
L 492.116875 279.358125 
" clip-path="url(#pb5830d2720)" style="fill: none; stroke: #b0b0b0; stroke-width: 0.8; stroke-linecap: square"/>
     </g>
     <g id="line2d_16">
      <g>
       <use xlink:href="#m83042967b4" x="45.716875" y="279.358125" style="stroke: #000000; stroke-width: 0.8"/>
      </g>
     </g>
     <g id="text_9">
      <!-- 0.2 -->
      <g transform="translate(22.81375 283.157344) scale(0.1 -0.1)">
       <use xlink:href="#DejaVuSans-30"/>
       <use xlink:href="#DejaVuSans-2e" x="63.623047"/>
       <use xlink:href="#DejaVuSans-32" x="95.410156"/>
      </g>
     </g>
    </g>
    <g id="ytick_3">
     <g id="line2d_17">
      <path d="M 45.716875 218.878125 
L 492.116875 218.878125 
" clip-path="url(#pb5830d2720)" style="fill: none; stroke: #b0b0b0; stroke-width: 0.8; stroke-linecap: square"/>
     </g>
     <g id="line2d_18">
      <g>
       <use xlink:href="#m83042967b4" x="45.716875" y="218.878125" style="stroke: #000000; stroke-width: 0.8"/>
      </g>
     </g>
     <g id="text_10">
      <!-- 0.4 -->
      <g transform="translate(22.81375 222.677344) scale(0.1 -0.1)">
       <use xlink:href="#DejaVuSans-30"/>
       <use xlink:href="#DejaVuSans-2e" x="63.623047"/>
       <use xlink:href="#DejaVuSans-34" x="95.410156"/>
      </g>
     </g>
    </g>
    <g id="ytick_4">
     <g id="line2d_19">
      <path d="M 45.716875 158.398125 
L 492.116875 158.398125 
" clip-path="url(#pb5830d2720)" style="fill: none; stroke: #b0b0b0; stroke-width: 0.8; stroke-linecap: square"/>
     </g>
     <g id="line2d_20">
      <g>
       <use xlink:href="#m83042967b4" x="45.716875" y="158.398125" style="stroke: #000000; stroke-width: 0.8"/>
      </g>
     </g>
     <g id="text_11">
      <!-- 0.6 -->
      <g transform="translate(22.81375 162.197344) scale(0.1 -0.1)">
       <use xlink:href="#DejaVuSans-30"/>
       <use xlink:href="#DejaVuSans-2e" x="63.623047"/>
       <use xlink:href="#DejaVuSans-36" x="95.410156"/>
      </g>
     </g>
    </g>
    <g id="ytick_5">
     <g id="line2d_21">
      <path d="M 45.716875 97.918125 
L 492.116875 97.918125 
" clip-path="url(#pb5830d2720)" style="fill: none; stroke: #b0b0b0; stroke-width: 0.8; stroke-linecap: square"/>
     </g>
     <g id="line2d_22">
      <g>
       <use xlink:href="#m83042967b4" x="45.716875" y="97.918125" style="stroke: #000000; stroke-width: 0.8"/>
      </g>
     </g>
     <g id="text_12">
      <!-- 0.8 -->
      <g transform="translate(22.81375 101.717344) scale(0.1 -0.1)">
       <use xlink:href="#DejaVuSans-30"/>
       <use xlink:href="#DejaVuSans-2e" x="63.623047"/>
       <use xlink:href="#DejaVuSans-38" x="95.410156"/>
      </g>
     </g>
    </g>
    <g id="ytick_6">
     <g id="line2d_23">
      <path d="M 45.716875 37.438125 
L 492.116875 37.438125 
" clip-path="url(#pb5830d2720)" style="fill: none; stroke: #b0b0b0; stroke-width: 0.8; stroke-linecap: square"/>
     </g>
     <g id="line2d_24">
      <g>
       <use xlink:href="#m83042967b4" x="45.716875" y="37.438125" style="stroke: #000000; stroke-width: 0.8"/>
      </g>
     </g>
     <g id="text_13">
      <!-- 1.0 -->
      <g transform="translate(22.81375 41.237344) scale(0.1 -0.1)">
       <use xlink:href="#DejaVuSans-31"/>
       <use xlink:href="#DejaVuSans-2e" x="63.623047"/>
       <use xlink:href="#DejaVuSans-30" x="95.410156"/>
      </g>
     </g>
    </g>
    <g id="text_14">
     <!-- True Positive Rate -->
     <g transform="translate(16.318125 242.07375) rotate(-90) scale(0.12 -0.12)">
      <defs>
       <path id="DejaVuSans-54" d="M -19 4666 
L 3928 4666 
L 3928 4134 
L 2272 4134 
L 2272 0 
L 1638 0 
L 1638 4134 
L -19 4134 
L -19 4666 
z
" transform="scale(0.015625)"/>
       <path id="DejaVuSans-72" d="M 2631 2963 
Q 2534 3019 2420 3045 
Q 2306 3072 2169 3072 
Q 1681 3072 1420 2755 
Q 1159 2438 1159 1844 
L 1159 0 
L 581 0 
L 581 3500 
L 1159 3500 
L 1159 2956 
Q 1341 3275 1631 3429 
Q 1922 3584 2338 3584 
Q 2397 3584 2469 3576 
Q 2541 3569 2628 3553 
L 2631 2963 
z
" transform="scale(0.015625)"/>
       <path id="DejaVuSans-75" d="M 544 1381 
L 544 3500 
L 1119 3500 
L 1119 1403 
Q 1119 906 1312 657 
Q 1506 409 1894 409 
Q 2359 409 2629 706 
Q 2900 1003 2900 1516 
L 2900 3500 
L 3475 3500 
L 3475 0 
L 2900 0 
L 2900 538 
Q 2691 219 2414 64 
Q 2138 -91 1772 -91 
Q 1169 -91 856 284 
Q 544 659 544 1381 
z
M 1991 3584 
L 1991 3584 
z
" transform="scale(0.015625)"/>
      </defs>
      <use xlink:href="#DejaVuSans-54"/>
      <use xlink:href="#DejaVuSans-72" x="46.333984"/>
      <use xlink:href="#DejaVuSans-75" x="87.447266"/>
      <use xlink:href="#DejaVuSans-65" x="150.826172"/>
      <use xlink:href="#DejaVuSans-20" x="212.349609"/>
      <use xlink:href="#DejaVuSans-50" x="244.136719"/>
      <use xlink:href="#DejaVuSans-6f" x="300.814453"/>
      <use xlink:href="#DejaVuSans-73" x="361.996094"/>
      <use xlink:href="#DejaVuSans-69" x="414.095703"/>
      <use xlink:href="#DejaVuSans-74" x="441.878906"/>
      <use xlink:href="#DejaVuSans-69" x="481.087891"/>
      <use xlink:href="#DejaVuSans-76" x="508.871094"/>
      <use xlink:href="#DejaVuSans-65" x="568.050781"/>
      <use xlink:href="#DejaVuSans-20" x="629.574219"/>
      <use xlink:href="#DejaVuSans-52" x="661.361328"/>
      <use xlink:href="#DejaVuSans-61" x="728.59375"/>
      <use xlink:href="#DejaVuSans-74" x="789.873047"/>
      <use xlink:href="#DejaVuSans-65" x="829.082031"/>
     </g>
    </g>
   </g>
   <g id="line2d_25">
    <path d="M 66.007784 339.838125 
L 66.073039 281.651608 
L 66.138293 281.651608 
L 66.203548 264.521271 
L 66.268802 264.521271 
L 66.334057 260.698799 
L 66.399312 260.698799 
L 66.464566 258.150485 
L 66.529821 258.150485 
L 66.529821 257.301046 
L 66.725584 257.301046 
L 66.790839 256.451608 
L 66.856094 256.451608 
L 66.921348 255.743743 
L 66.986603 255.743743 
L 67.051857 254.752732 
L 67.117112 254.752732 
L 67.182366 252.204417 
L 67.247621 252.204417 
L 67.247621 250.363968 
L 67.37813 250.363968 
L 67.443385 249.656103 
L 67.573894 249.656103 
L 67.573894 249.372956 
L 67.769658 249.372956 
L 67.769658 249.231383 
L 67.900167 249.231383 
L 67.965421 246.399923 
L 68.030676 246.116777 
L 68.09593 244.134754 
L 68.161185 244.134754 
L 68.22644 243.426889 
L 68.291694 243.426889 
L 68.356949 242.294305 
L 68.422203 242.294305 
L 68.422203 242.152732 
L 68.552712 242.152732 
L 68.617967 241.020147 
L 68.683222 241.020147 
L 68.748476 239.74599 
L 68.813731 239.74599 
L 69.140004 239.038125 
L 69.205258 237.905541 
L 69.270513 237.905541 
L 69.270513 237.480822 
L 69.66204 237.480822 
L 69.727295 235.923518 
L 69.792549 235.923518 
L 69.857804 233.799923 
L 69.923058 233.516777 
L 70.118822 233.516777 
L 70.249331 233.233631 
L 70.249331 232.950485 
L 70.37984 232.950485 
L 70.445095 232.525765 
L 70.575604 232.242619 
L 70.575604 231.393181 
L 70.706113 231.393181 
L 70.706113 231.110035 
L 70.836622 230.826889 
L 70.901877 230.260597 
L 70.967132 230.260597 
L 70.967132 230.119024 
L 71.097641 230.119024 
L 71.162895 229.552732 
L 71.489168 229.552732 
L 71.554423 229.411159 
L 71.619677 228.420147 
L 71.684932 228.420147 
L 71.750186 227.570709 
L 71.815441 227.570709 
L 71.880696 227.004417 
L 71.94595 227.004417 
L 71.94595 226.862844 
L 72.011205 226.862844 
L 72.337478 226.438125 
L 72.402732 225.447114 
L 72.533241 225.447114 
L 72.598496 224.880822 
L 72.66375 224.880822 
L 72.729005 224.172956 
L 72.924769 224.172956 
L 72.990023 223.323518 
L 73.120532 223.323518 
L 73.120532 222.47408 
L 73.642569 221.907788 
L 73.707824 220.916777 
L 74.099351 220.916777 
L 74.164606 220.067338 
L 74.295115 220.067338 
L 74.295115 219.784192 
L 74.490878 219.359473 
L 74.556133 218.651608 
L 74.621388 218.651608 
L 74.686642 218.226889 
L 74.751897 218.226889 
L 75.143424 217.377451 
L 75.208679 216.952732 
L 75.600206 216.103294 
L 75.79597 215.961721 
L 75.861224 215.537001 
L 75.926479 215.537001 
L 75.926479 215.253855 
L 76.056988 215.253855 
L 76.056988 214.54599 
L 76.122243 214.54599 
L 76.318006 214.121271 
L 76.383261 212.988687 
L 76.448516 212.988687 
L 76.51377 212.422395 
L 76.579025 212.422395 
L 76.644279 211.997676 
L 76.840043 211.997676 
L 76.905298 211.572956 
L 77.035807 211.572956 
L 77.101061 210.157226 
L 77.166316 210.157226 
L 77.23157 209.307788 
L 77.36208 209.307788 
L 77.427334 208.883069 
L 77.492589 208.883069 
L 77.492589 208.741496 
L 77.623098 208.741496 
L 77.623098 208.599923 
L 77.818862 208.599923 
L 77.818862 208.45835 
L 78.406153 208.45835 
L 78.471407 208.175204 
L 78.928189 208.175204 
L 78.993444 207.750485 
L 79.123953 207.750485 
L 79.189208 206.901046 
L 79.319717 206.901046 
L 79.319717 206.759473 
L 79.450226 206.759473 
L 79.450226 206.6179 
L 79.580735 206.6179 
L 79.841753 206.051608 
L 79.972262 206.051608 
L 80.037517 205.626889 
L 80.233281 205.626889 
L 80.298535 205.343743 
L 80.36379 205.343743 
L 80.36379 204.777451 
L 80.494299 204.777451 
L 80.559554 204.494305 
L 80.624808 204.494305 
L 80.690063 202.937001 
L 80.755317 202.937001 
L 80.755317 202.795428 
L 80.820572 202.795428 
L 81.146845 202.087563 
L 81.342608 202.087563 
L 81.342608 201.804417 
L 81.603627 201.804417 
L 81.668881 201.379698 
L 81.9299 201.379698 
L 82.125663 201.096552 
L 82.190918 199.822395 
L 82.451936 199.822395 
L 82.451936 199.539249 
L 82.582445 199.539249 
L 82.582445 199.114529 
L 82.778209 199.114529 
L 82.778209 198.831383 
L 83.169736 198.406664 
L 83.169736 198.123518 
L 83.234991 198.123518 
L 83.430755 198.123518 
L 83.430755 197.840372 
L 83.561264 197.840372 
L 83.561264 197.698799 
L 83.691773 197.698799 
L 83.691773 197.557226 
L 83.822282 197.557226 
L 83.887537 197.132507 
L 83.952791 197.132507 
L 83.952791 196.707788 
L 84.409573 196.707788 
L 84.474828 195.999923 
L 84.540082 195.999923 
L 84.540082 195.85835 
L 84.670592 195.85835 
L 84.670592 195.716777 
L 84.801101 195.716777 
L 84.866355 195.292058 
L 84.93161 195.150485 
L 85.062119 195.150485 
L 85.127374 193.876327 
L 85.388392 193.026889 
L 85.584156 193.026889 
L 85.584156 192.60217 
L 85.714665 192.60217 
L 85.910428 192.035878 
L 86.040938 192.035878 
L 86.36721 191.469586 
L 86.432465 190.478574 
L 86.49772 190.478574 
L 86.823992 189.912282 
L 87.019756 189.629136 
L 87.21552 189.204417 
L 87.607047 188.779698 
L 88.063829 188.779698 
L 88.063829 188.496552 
L 88.324848 188.071833 
L 88.390102 186.939249 
L 88.455357 186.939249 
L 88.455357 186.797676 
L 88.716375 186.797676 
L 88.716375 186.372956 
L 88.78163 186.372956 
L 88.977393 186.08981 
L 89.042648 186.08981 
L 89.042648 185.523518 
L 89.303666 185.523518 
L 89.368921 184.249361 
L 89.695194 184.249361 
L 89.760448 183.824642 
L 89.956212 183.824642 
L 89.956212 183.541496 
L 90.086721 183.541496 
L 90.086721 183.399923 
L 90.21723 183.399923 
L 90.21723 183.25835 
L 90.412994 183.25835 
L 90.543503 183.116777 
L 90.608758 182.692058 
L 90.674012 182.692058 
L 90.739267 182.125765 
L 90.804521 181.984192 
L 91.06554 181.984192 
L 91.130794 181.701046 
L 91.261303 181.701046 
L 91.261303 181.559473 
L 91.391813 181.559473 
L 91.457067 180.710035 
L 91.522322 180.710035 
L 91.522322 180.568462 
L 91.652831 180.568462 
L 91.652831 180.285316 
L 91.848595 180.285316 
L 92.109613 179.577451 
L 92.109613 179.435878 
L 92.305377 179.435878 
L 92.305377 179.294305 
L 92.50114 179.294305 
L 92.566395 178.728013 
L 92.631649 178.728013 
L 92.696904 178.58644 
L 93.088431 178.58644 
L 93.088431 178.161721 
L 93.218941 178.161721 
L 93.284195 177.878574 
L 93.479959 177.878574 
L 93.479959 177.737001 
L 93.610468 177.737001 
L 93.610468 177.170709 
L 93.806232 177.170709 
L 93.936741 176.887563 
L 93.936741 176.604417 
L 94.132505 176.604417 
L 94.132505 176.462844 
L 94.78505 176.462844 
L 94.78505 175.896552 
L 94.915559 175.896552 
L 94.980814 175.613406 
L 95.046069 175.613406 
L 95.046069 175.33026 
L 95.307087 175.33026 
L 95.307087 174.622395 
L 95.502851 174.622395 
L 95.502851 174.056103 
L 95.568105 174.056103 
L 95.63336 173.914529 
L 95.63336 173.48981 
L 95.829123 173.48981 
L 95.894378 172.781945 
L 96.155396 172.781945 
L 96.220651 172.498799 
L 96.285905 172.498799 
L 96.35116 172.07408 
L 96.481669 172.07408 
L 96.546924 171.790934 
L 96.742687 171.790934 
L 96.742687 171.649361 
L 97.06896 171.649361 
L 97.06896 171.507788 
L 97.134215 171.507788 
L 97.264724 171.507788 
L 97.329979 171.224642 
L 97.460488 171.224642 
L 97.525742 170.941496 
L 97.656251 170.941496 
L 97.656251 170.65835 
L 97.786761 170.65835 
L 97.852015 170.375204 
L 97.91727 170.375204 
L 97.982524 170.092058 
L 98.243543 170.092058 
L 98.243543 169.950485 
L 98.374052 169.950485 
L 98.439306 169.242619 
L 98.569815 169.242619 
L 98.569815 168.8179 
L 98.700325 168.8179 
L 98.700325 168.676327 
L 98.830834 168.676327 
L 98.830834 168.534754 
L 99.157107 168.534754 
L 99.157107 168.393181 
L 99.287616 168.393181 
L 99.287616 168.251608 
L 99.483379 168.251608 
L 99.483379 167.968462 
L 99.679143 167.968462 
L 99.679143 167.826889 
L 99.809652 167.826889 
L 99.809652 167.685316 
L 100.005416 167.685316 
L 100.005416 167.40217 
L 100.396943 167.40217 
L 100.396943 167.260597 
L 100.527453 167.260597 
L 100.527453 166.269586 
L 100.592707 166.269586 
L 100.788471 166.269586 
L 100.788471 165.844867 
L 100.91898 165.844867 
L 100.984235 165.561721 
L 101.114744 165.561721 
L 101.179998 164.995428 
L 101.441017 164.995428 
L 101.506271 164.429136 
L 101.571526 164.429136 
L 101.571526 164.287563 
L 101.767289 164.287563 
L 101.832544 163.862844 
L 102.093562 163.862844 
L 102.093562 163.579698 
L 102.419835 163.579698 
L 102.419835 163.438125 
L 102.680853 163.438125 
L 102.811363 163.296552 
L 103.007126 163.296552 
L 103.072381 163.013406 
L 103.137635 163.013406 
L 103.137635 162.305541 
L 103.268145 162.305541 
L 103.268145 162.163968 
L 103.333399 162.163968 
L 103.594417 162.163968 
L 103.659672 161.880822 
L 103.790181 161.880822 
L 103.790181 161.031383 
L 103.92069 161.031383 
L 103.985945 160.323518 
L 104.312218 160.323518 
L 104.312218 160.181945 
L 104.507981 160.181945 
L 104.507981 160.040372 
L 104.769 160.040372 
L 104.834254 159.898799 
L 105.095273 159.898799 
L 105.095273 159.615653 
L 105.225782 159.615653 
L 105.225782 159.47408 
L 105.356291 159.47408 
L 105.421545 159.190934 
L 105.617309 159.190934 
L 105.682564 158.907788 
L 105.943582 158.907788 
L 105.943582 158.766215 
L 106.008837 158.766215 
L 106.2046 158.766215 
L 106.269855 158.341496 
L 106.530873 158.341496 
L 106.596128 157.916777 
L 106.661382 157.916777 
L 106.726637 157.775204 
L 106.857146 157.775204 
L 106.857146 157.633631 
L 107.183419 157.633631 
L 107.183419 157.350485 
L 107.379183 157.350485 
L 107.444437 156.925765 
L 107.509692 156.925765 
L 107.574946 156.359473 
L 107.640201 156.359473 
L 107.705455 155.651608 
L 107.966474 155.651608 
L 108.031728 155.368462 
L 108.162237 155.368462 
L 108.358001 154.660597 
L 108.553765 154.660597 
L 108.619019 154.235878 
L 108.749529 154.235878 
L 108.749529 154.094305 
L 108.880038 154.094305 
L 109.010547 153.811159 
L 109.141056 153.811159 
L 109.141056 153.669586 
L 109.33682 153.669586 
L 109.33682 153.528013 
L 109.467329 153.528013 
L 109.532583 153.103294 
L 109.663093 153.103294 
L 109.663093 152.820147 
L 109.793602 152.820147 
L 109.793602 152.678574 
L 109.858856 152.678574 
L 109.924111 152.537001 
L 110.185129 152.537001 
L 110.250384 152.112282 
L 110.315638 152.112282 
L 110.380893 151.829136 
L 110.641911 151.262844 
L 110.707166 150.838125 
L 110.902929 150.838125 
L 111.098693 150.413406 
L 111.294457 150.413406 
L 111.294457 150.271833 
L 111.424966 150.271833 
L 111.490221 149.988687 
L 112.012257 149.988687 
L 112.012257 149.705541 
L 112.403785 149.705541 
L 112.469039 149.422395 
L 112.925821 149.422395 
L 112.925821 149.280822 
L 113.121585 149.280822 
L 113.186839 148.856103 
L 113.317349 148.856103 
L 113.382603 148.572956 
L 113.447858 148.431383 
L 113.578367 148.431383 
L 113.708876 148.28981 
L 113.969894 148.28981 
L 113.969894 148.148237 
L 114.557185 147.581945 
L 114.687695 147.581945 
L 114.687695 147.440372 
L 114.752949 147.440372 
L 114.818204 147.298799 
L 114.883458 146.732507 
L 115.144477 146.732507 
L 115.144477 146.590934 
L 115.666513 146.590934 
L 115.666513 146.449361 
L 115.731768 146.449361 
L 115.992786 146.024642 
L 116.253804 146.024642 
L 116.319059 145.45835 
L 116.971605 145.45835 
L 116.971605 144.467338 
L 117.167368 144.467338 
L 117.167368 144.184192 
L 117.428387 144.184192 
L 117.428387 144.042619 
L 117.75466 144.042619 
L 117.75466 143.901046 
L 117.885169 143.901046 
L 117.885169 143.759473 
L 118.015678 143.759473 
L 118.211442 143.334754 
L 118.341951 143.334754 
L 118.407205 143.193181 
L 118.407205 142.768462 
L 118.602969 142.768462 
L 118.668224 142.626889 
L 119.059751 142.626889 
L 119.059751 142.343743 
L 119.19026 142.060597 
L 119.516533 142.060597 
L 119.516533 141.919024 
L 119.647042 141.919024 
L 120.03857 140.928013 
L 120.364842 140.928013 
L 120.430097 140.503294 
L 120.495352 140.503294 
L 120.560606 140.220147 
L 120.625861 140.220147 
L 120.691115 139.937001 
L 120.821624 139.937001 
L 120.821624 139.370709 
L 120.952134 139.370709 
L 121.017388 138.94599 
L 121.082643 138.94599 
L 121.147897 138.804417 
L 121.47417 138.804417 
L 121.539425 138.379698 
L 121.735188 138.238125 
L 121.735188 137.954979 
L 121.865698 137.954979 
L 121.865698 137.671833 
L 121.996207 137.671833 
L 122.061461 137.388687 
L 122.452989 137.388687 
L 122.452989 137.105541 
L 122.518243 137.105541 
L 122.714007 137.105541 
L 122.714007 136.963968 
L 123.366553 136.963968 
L 123.431807 136.539249 
L 123.692826 136.539249 
L 123.692826 136.397676 
L 123.953844 136.397676 
L 123.953844 136.256103 
L 124.019098 136.256103 
L 124.736899 135.831383 
L 124.736899 135.548237 
L 124.867408 135.548237 
L 124.867408 135.406664 
L 124.932662 135.406664 
L 124.997917 135.265091 
L 125.258935 135.265091 
L 125.32419 134.840372 
L 125.780972 134.840372 
L 125.780972 134.698799 
L 125.976736 134.698799 
L 125.976736 134.557226 
L 126.433518 134.557226 
L 126.433518 134.415653 
L 126.694536 134.415653 
L 126.75979 134.132507 
L 127.020809 134.132507 
L 127.020809 133.990934 
L 127.151318 133.990934 
L 127.151318 133.849361 
L 127.542845 133.849361 
L 127.542845 133.566215 
L 128.064882 133.566215 
L 128.064882 133.424642 
L 128.130136 133.424642 
L 128.260646 133.283069 
L 128.652173 133.283069 
L 128.652173 133.141496 
L 129.0437 133.141496 
L 129.108955 132.716777 
L 129.304719 132.716777 
L 129.304719 132.575204 
L 129.500482 132.575204 
L 129.761501 132.150485 
L 129.957264 132.150485 
L 129.957264 132.008912 
L 130.414046 132.008912 
L 130.479301 131.584192 
L 130.544556 131.584192 
L 130.60981 131.159473 
L 130.740319 131.159473 
L 131.32761 129.885316 
L 131.653883 129.885316 
L 131.653883 129.460597 
L 131.980156 129.460597 
L 131.980156 129.319024 
L 132.110665 129.319024 
L 132.110665 129.177451 
L 132.306429 129.177451 
L 132.306429 129.035878 
L 132.632702 129.035878 
L 132.632702 128.894305 
L 133.481011 128.894305 
L 133.481011 128.611159 
L 134.003048 128.611159 
L 134.003048 128.469586 
L 134.198812 128.469586 
L 134.198812 128.328013 
L 134.264066 128.328013 
L 134.394575 127.903294 
L 134.720848 127.903294 
L 134.720848 127.761721 
L 134.786103 127.761721 
L 134.916612 127.478574 
L 135.830176 127.478574 
L 135.830176 127.053855 
L 136.221703 127.053855 
L 136.221703 126.912282 
L 136.678485 126.912282 
L 136.678485 126.629136 
L 136.939504 126.629136 
L 136.939504 126.487563 
L 137.265776 126.487563 
L 137.331031 125.921271 
L 137.526795 125.921271 
L 137.526795 125.779698 
L 137.787813 125.779698 
L 137.787813 125.638125 
L 138.048831 125.638125 
L 138.048831 125.354979 
L 138.17934 125.354979 
L 138.17934 125.213406 
L 138.244595 125.213406 
L 138.375104 125.213406 
L 138.375104 125.071833 
L 138.897141 125.071833 
L 138.897141 124.93026 
L 139.158159 124.93026 
L 139.158159 124.788687 
L 139.484432 124.788687 
L 139.549686 124.505541 
L 139.680196 124.505541 
L 139.680196 124.222395 
L 140.006468 124.222395 
L 140.006468 123.939249 
L 140.202232 123.939249 
L 140.202232 123.797676 
L 140.397996 123.797676 
L 140.397996 123.656103 
L 140.854778 123.656103 
L 140.920032 122.948237 
L 141.376814 122.948237 
L 141.442069 122.665091 
L 141.637833 122.665091 
L 141.703087 122.240372 
L 141.833596 122.240372 
L 141.833596 122.098799 
L 141.964106 122.098799 
L 142.02936 121.815653 
L 142.159869 121.815653 
L 142.225124 121.532507 
L 142.420888 121.532507 
L 142.486142 120.966215 
L 142.616651 120.966215 
L 142.616651 120.824642 
L 142.812415 120.824642 
L 142.812415 120.399923 
L 142.87767 120.399923 
L 143.138688 120.116777 
L 143.334452 120.116777 
L 143.399706 119.550485 
L 143.59547 119.550485 
L 143.59547 119.408912 
L 143.791234 119.408912 
L 143.856488 118.842619 
L 144.378525 118.842619 
L 144.378525 118.701046 
L 144.509034 118.559473 
L 144.704798 118.559473 
L 144.704798 118.4179 
L 144.965816 118.4179 
L 145.031071 118.134754 
L 145.16158 118.134754 
L 145.16158 117.993181 
L 145.292089 117.993181 
L 145.422598 117.710035 
L 145.553107 117.710035 
L 145.553107 117.568462 
L 145.814125 117.568462 
L 145.814125 117.426889 
L 146.140398 117.426889 
L 146.140398 117.143743 
L 146.205653 117.143743 
L 146.336162 117.143743 
L 146.336162 117.00217 
L 146.466671 117.00217 
L 146.466671 116.719024 
L 146.59718 116.719024 
L 146.662435 116.152732 
L 146.858199 116.152732 
L 146.923453 115.869586 
L 146.988708 115.869586 
L 147.053962 115.728013 
L 147.314981 115.728013 
L 147.314981 115.58644 
L 147.575999 115.58644 
L 147.575999 115.444867 
L 147.771763 115.444867 
L 147.771763 114.878574 
L 148.554817 114.878574 
L 148.554817 114.737001 
L 148.620072 114.737001 
L 148.88109 114.737001 
L 148.88109 114.595428 
L 149.337872 114.595428 
L 149.403127 114.453855 
L 149.598891 114.453855 
L 149.794654 114.312282 
L 150.055673 114.312282 
L 150.055673 114.170709 
L 151.099746 114.170709 
L 151.882801 113.604417 
L 151.882801 113.462844 
L 152.01331 113.462844 
L 152.01331 113.321271 
L 152.404837 113.321271 
L 152.404837 112.896552 
L 152.926874 112.896552 
L 153.187892 112.471833 
L 153.905692 111.905541 
L 153.905692 111.763968 
L 154.101456 111.763968 
L 154.101456 111.622395 
L 154.166711 111.622395 
L 154.231965 111.480822 
L 154.492983 111.197676 
L 154.884511 111.197676 
L 154.884511 110.914529 
L 155.01502 110.914529 
L 155.406547 110.48981 
L 155.993839 110.48981 
L 155.993839 110.348237 
L 156.124348 110.348237 
L 156.189602 109.923518 
L 156.320111 109.923518 
L 156.450621 109.781945 
L 156.842148 109.781945 
L 156.972657 109.498799 
L 157.364185 108.932507 
L 157.755712 108.932507 
L 157.755712 108.790934 
L 158.212494 108.790934 
L 158.212494 108.507788 
L 158.343003 108.507788 
L 158.343003 108.366215 
L 158.669276 108.366215 
L 158.734531 108.224642 
L 159.060803 108.224642 
L 159.060803 108.083069 
L 159.321822 108.083069 
L 159.713349 107.65835 
L 160.365895 107.65835 
L 160.431149 107.233631 
L 160.626913 107.233631 
L 160.626913 107.092058 
L 160.757422 107.092058 
L 160.757422 106.950485 
L 161.344713 106.950485 
L 161.344713 106.808912 
L 161.801495 106.808912 
L 161.801495 106.667338 
L 161.932005 106.667338 
L 161.932005 106.525765 
L 162.258277 106.525765 
L 162.258277 106.384192 
L 162.454041 106.384192 
L 162.454041 106.242619 
L 163.106587 106.242619 
L 163.367605 105.8179 
L 163.498114 105.8179 
L 163.563369 105.534754 
L 163.628623 105.534754 
L 163.693878 105.393181 
L 164.281169 105.393181 
L 164.281169 105.251608 
L 164.346424 105.251608 
L 164.737951 105.110035 
L 164.803206 104.685316 
L 165.064224 104.685316 
L 165.064224 104.119024 
L 165.129479 104.119024 
L 165.390497 104.119024 
L 165.390497 103.977451 
L 165.782024 103.694305 
L 165.847279 103.694305 
L 165.847279 103.552732 
L 166.043043 103.552732 
L 166.108297 103.269586 
L 166.238806 103.269586 
L 166.238806 103.128013 
L 166.43457 103.128013 
L 166.695588 102.703294 
L 166.760843 102.703294 
L 166.826097 102.561721 
L 167.087116 102.561721 
L 167.087116 102.420147 
L 168.457462 102.420147 
L 168.71848 102.137001 
L 168.783735 101.287563 
L 169.110007 101.287563 
L 169.110007 100.862844 
L 169.305771 100.862844 
L 169.43628 100.579698 
L 170.349844 100.579698 
L 170.349844 100.438125 
L 170.871881 100.438125 
L 170.871881 100.296552 
L 171.132899 100.296552 
L 171.132899 100.154979 
L 171.328663 100.154979 
L 171.393917 99.73026 
L 171.785445 99.447114 
L 171.785445 99.305541 
L 171.915954 99.305541 
L 171.915954 99.163968 
L 172.176972 99.163968 
L 172.307481 98.739249 
L 172.503245 98.739249 
L 172.503245 98.597676 
L 172.5685 98.597676 
L 172.699009 98.314529 
L 172.894773 98.314529 
L 172.894773 98.172956 
L 173.221046 98.172956 
L 173.221046 98.031383 
L 173.743082 98.031383 
L 173.743082 97.88981 
L 174.069355 97.88981 
L 174.721901 97.323518 
L 174.917664 97.323518 
L 174.917664 97.181945 
L 175.504956 97.181945 
L 175.504956 96.757226 
L 175.635465 96.757226 
L 175.765974 96.049361 
L 175.896483 95.624642 
L 176.353265 95.624642 
L 176.353265 95.483069 
L 176.41852 95.483069 
L 176.549029 95.483069 
L 176.810047 95.341496 
L 177.005811 95.199923 
L 177.005811 95.05835 
L 177.071065 95.05835 
L 177.201574 95.05835 
L 177.332084 94.775204 
L 177.593102 94.775204 
L 177.593102 94.633631 
L 178.115138 94.633631 
L 178.180393 94.350485 
L 178.506666 94.350485 
L 178.637175 94.208912 
L 178.898193 94.208912 
L 178.898193 94.067338 
L 179.028702 94.067338 
L 179.354975 93.642619 
L 179.550739 93.642619 
L 179.550739 93.501046 
L 179.681248 93.501046 
L 179.746503 93.2179 
L 180.333794 93.2179 
L 180.333794 93.076327 
L 180.399048 93.076327 
L 180.594812 93.076327 
L 180.660067 92.934754 
L 181.312612 92.934754 
L 181.769394 92.510035 
L 182.226176 92.510035 
L 182.42194 92.226889 
L 183.13974 91.80217 
L 184.575341 91.80217 
L 184.901614 91.377451 
L 184.901614 91.235878 
L 185.162632 91.235878 
L 185.227887 91.094305 
L 185.42365 91.094305 
L 185.488905 90.811159 
L 185.619414 90.811159 
L 185.749923 90.669586 
L 185.945687 90.528013 
L 185.945687 90.38644 
L 186.206705 90.38644 
L 186.206705 90.103294 
L 186.728742 90.103294 
L 186.793996 89.820147 
L 186.924506 89.820147 
L 186.924506 89.537001 
L 187.185524 89.537001 
L 187.250778 89.395428 
L 187.968579 89.395428 
L 187.968579 89.253855 
L 188.360106 89.253855 
L 188.360106 88.687563 
L 189.143161 88.687563 
L 189.208416 88.262844 
L 191.492326 86.988687 
L 191.492326 86.705541 
L 191.753344 86.705541 
L 193.188944 86.422395 
L 193.188944 86.280822 
L 193.515217 85.997676 
L 193.84149 85.997676 
L 193.84149 85.856103 
L 194.102508 85.856103 
L 194.428781 85.572956 
L 195.211836 85.148237 
L 195.472854 85.148237 
L 195.864382 85.006664 
L 195.864382 84.865091 
L 196.1254 84.865091 
L 197.234728 83.87408 
L 198.213546 83.87408 
L 198.539819 83.590934 
L 198.931347 83.590934 
L 199.322874 83.307788 
L 199.583892 83.307788 
L 199.714402 82.741496 
L 201.215257 82.741496 
L 201.215257 82.599923 
L 201.672039 82.316777 
L 201.737293 82.316777 
L 201.802548 82.033631 
L 201.933057 82.033631 
L 202.063566 81.892058 
L 202.25933 81.750485 
L 202.455094 81.750485 
L 202.846621 81.608912 
L 202.846621 81.467338 
L 202.911876 81.467338 
L 203.107639 81.325765 
L 203.368658 81.325765 
L 203.760185 80.901046 
L 203.82544 80.901046 
L 204.151713 80.759473 
L 204.151713 80.6179 
L 204.412731 80.334754 
L 205.130531 80.334754 
L 205.130531 80.193181 
L 205.456804 80.193181 
L 205.848331 79.910035 
L 207.283932 78.635878 
L 207.54495 78.635878 
L 207.54495 78.352732 
L 207.675459 78.352732 
L 207.740714 78.211159 
L 208.915296 78.211159 
L 210.481406 77.78644 
L 211.003443 77.503294 
L 211.39497 77.503294 
L 211.39497 77.361721 
L 211.917007 77.220147 
L 211.917007 77.078574 
L 211.982261 77.078574 
L 212.373789 76.795428 
L 212.439043 76.795428 
L 212.634807 76.653855 
L 213.156843 76.653855 
L 213.156843 76.512282 
L 213.287353 76.512282 
L 213.287353 76.370709 
L 213.417862 76.370709 
L 213.67888 76.229136 
L 214.39668 76.229136 
L 214.461935 75.804417 
L 214.527189 75.804417 
L 214.527189 75.662844 
L 214.657699 75.662844 
L 214.657699 75.521271 
L 215.049226 75.521271 
L 215.049226 75.379698 
L 215.375499 75.096552 
L 216.028045 75.096552 
L 216.028045 74.954979 
L 216.354317 74.954979 
L 216.354317 74.813406 
L 216.615336 74.813406 
L 217.594154 74.671833 
L 217.594154 74.247114 
L 217.724663 74.247114 
L 218.2467 73.963968 
L 218.2467 73.822395 
L 219.225519 73.822395 
L 219.617046 73.680822 
L 219.617046 73.397676 
L 220.008573 73.397676 
L 220.008573 73.114529 
L 220.400101 73.114529 
L 220.400101 72.831383 
L 220.465355 72.831383 
L 221.183156 72.831383 
L 221.183156 72.68981 
L 221.509429 72.68981 
L 221.574683 72.548237 
L 221.770447 72.548237 
L 221.770447 72.406664 
L 222.031465 72.406664 
L 222.227229 72.265091 
L 222.292483 71.415653 
L 222.357738 71.415653 
L 222.357738 71.132507 
L 222.488247 71.132507 
L 222.553502 70.990934 
L 222.879775 70.990934 
L 222.945029 70.566215 
L 223.662829 70.566215 
L 223.662829 70.424642 
L 224.38063 70.424642 
L 224.38063 70.141496 
L 225.359448 70.141496 
L 225.489957 69.85835 
L 226.534031 69.85835 
L 226.66454 69.716777 
L 226.925558 69.716777 
L 227.056067 69.575204 
L 227.251831 69.575204 
L 227.251831 69.433631 
L 227.839122 69.150485 
L 229.796759 69.150485 
L 229.862014 68.725765 
L 229.992523 68.725765 
L 229.992523 68.584192 
L 230.645069 68.584192 
L 230.710323 68.159473 
L 230.971342 68.159473 
L 231.036596 67.876327 
L 231.819651 67.876327 
L 231.819651 67.734754 
L 232.080669 67.734754 
L 232.080669 67.593181 
L 232.145924 67.593181 
L 232.276433 67.168462 
L 232.928979 67.168462 
L 232.928979 67.026889 
L 232.994233 67.026889 
L 233.189997 67.026889 
L 233.189997 66.885316 
L 233.320506 66.885316 
L 233.320506 66.743743 
L 233.712034 66.743743 
L 233.712034 66.319024 
L 234.429834 66.319024 
L 234.429834 66.177451 
L 235.017125 66.177451 
L 235.017125 66.035878 
L 235.278143 66.035878 
L 235.278143 65.894305 
L 236.191707 65.894305 
L 236.256962 65.752732 
L 236.452726 65.752732 
L 236.583235 65.611159 
L 237.823072 65.611159 
L 237.953581 65.469586 
L 238.540872 65.469586 
L 238.540872 65.328013 
L 238.932399 65.328013 
L 238.932399 65.18644 
L 239.258672 65.18644 
L 239.258672 65.044867 
L 239.6502 65.044867 
L 239.6502 64.761721 
L 240.106982 64.761721 
L 240.237491 64.478574 
L 240.694273 64.478574 
L 240.694273 64.337001 
L 241.607837 64.337001 
L 241.673091 64.195428 
L 241.868855 64.195428 
L 241.868855 63.912282 
L 242.456146 63.912282 
L 242.717164 63.770709 
L 242.782419 63.770709 
L 242.782419 63.629136 
L 242.847674 63.629136 
L 243.36971 63.34599 
L 244.283274 63.34599 
L 244.283274 63.204417 
L 244.740056 63.204417 
L 244.740056 63.062844 
L 245.327347 63.062844 
L 245.327347 62.921271 
L 245.392602 62.921271 
L 245.849384 62.921271 
L 245.849384 62.779698 
L 246.37142 62.779698 
L 246.436675 62.213406 
L 246.697693 62.213406 
L 246.697693 62.071833 
L 246.893457 62.071833 
L 246.893457 61.93026 
L 246.958712 61.93026 
L 247.21973 61.93026 
L 247.350239 61.788687 
L 247.741766 61.788687 
L 248.002785 61.647114 
L 248.263803 61.647114 
L 248.263803 61.505541 
L 248.459567 61.505541 
L 248.459567 61.363968 
L 248.851094 61.363968 
L 248.851094 61.222395 
L 248.981603 61.222395 
L 248.981603 60.939249 
L 249.112112 60.939249 
L 249.112112 60.797676 
L 249.829913 60.797676 
L 249.960422 60.656103 
L 250.808731 60.656103 
L 250.808731 60.514529 
L 250.93924 60.514529 
L 251.004495 60.372956 
L 251.396022 60.372956 
L 251.526532 60.08981 
L 252.113823 60.08981 
L 253.157896 59.523518 
L 253.484169 59.523518 
L 253.679932 59.381945 
L 254.462987 59.381945 
L 254.528242 59.098799 
L 255.441806 59.098799 
L 255.507061 58.957226 
L 255.963843 58.957226 
L 256.159606 58.815653 
L 256.746897 58.815653 
L 256.746897 58.67408 
L 257.203679 58.67408 
L 257.268934 58.532507 
L 257.660461 58.532507 
L 257.660461 58.390934 
L 258.313007 58.390934 
L 258.313007 58.249361 
L 258.835044 58.249361 
L 258.900298 58.107788 
L 259.35708 58.107788 
L 259.879117 57.966215 
L 260.270644 57.966215 
L 260.270644 57.824642 
L 260.727426 57.824642 
L 260.857935 57.683069 
L 261.967263 57.683069 
L 261.967263 57.399923 
L 262.424045 57.399923 
L 262.424045 57.116777 
L 262.946082 57.116777 
L 262.946082 56.975204 
L 263.141845 56.975204 
L 263.2071 56.833631 
L 263.794391 56.833631 
L 263.794391 56.692058 
L 263.990155 56.692058 
L 263.990155 56.550485 
L 264.316428 56.550485 
L 264.316428 56.408912 
L 264.381682 56.408912 
L 266.20881 56.408912 
L 266.339319 56.267338 
L 266.730847 56.267338 
L 266.730847 56.125765 
L 267.187629 56.125765 
L 267.252883 55.984192 
L 267.840175 55.984192 
L 267.840175 55.842619 
L 269.275775 55.842619 
L 269.732557 55.559473 
L 270.385103 55.4179 
L 270.385103 55.134754 
L 271.755449 55.134754 
L 271.755449 54.851608 
L 271.820703 54.851608 
L 272.473249 54.851608 
L 272.603758 54.710035 
L 272.864777 54.710035 
L 272.930031 54.568462 
L 273.256304 54.568462 
L 273.256304 54.426889 
L 273.517322 54.426889 
L 273.582577 54.285316 
L 274.039359 54.285316 
L 274.039359 54.143743 
L 276.714796 54.143743 
L 276.714796 54.00217 
L 278.019888 54.00217 
L 278.019888 53.860597 
L 278.541924 53.860597 
L 278.541924 53.719024 
L 279.324979 53.719024 
L 279.455488 53.577451 
L 280.369052 53.577451 
L 280.434307 53.294305 
L 280.499561 53.294305 
L 280.499561 53.152732 
L 281.021598 53.152732 
L 281.021598 53.011159 
L 281.282616 53.011159 
L 281.282616 52.869586 
L 281.413125 52.869586 
L 281.413125 52.728013 
L 283.892799 52.728013 
L 283.958054 52.444867 
L 284.219072 52.444867 
L 284.219072 52.303294 
L 284.871618 52.303294 
L 284.936872 51.878574 
L 285.458909 51.878574 
L 285.654673 51.595428 
L 285.915691 51.595428 
L 285.915691 51.312282 
L 286.176709 51.312282 
L 286.176709 51.170709 
L 286.241964 51.170709 
L 286.633491 51.170709 
L 286.698746 50.887563 
L 287.61231 50.887563 
L 287.742819 50.74599 
L 288.069092 50.74599 
L 288.069092 50.604417 
L 290.157238 50.604417 
L 290.222493 50.462844 
L 291.005548 50.462844 
L 291.005548 50.321271 
L 291.788602 50.321271 
L 291.788602 50.179698 
L 292.245384 50.179698 
L 292.310639 50.038125 
L 292.767421 50.038125 
L 292.767421 49.896552 
L 294.137767 49.896552 
L 294.203022 49.754979 
L 295.964895 49.754979 
L 296.03015 49.471833 
L 296.225913 49.471833 
L 296.291168 49.33026 
L 296.486932 49.33026 
L 296.486932 49.188687 
L 297.400496 49.188687 
L 297.46575 49.047114 
L 298.118296 49.047114 
L 298.18355 48.905541 
L 298.705587 48.905541 
L 298.770842 48.763968 
L 299.553896 48.763968 
L 299.553896 48.622395 
L 300.402206 48.622395 
L 300.46746 48.480822 
L 301.054752 48.480822 
L 301.120006 48.339249 
L 303.860698 48.339249 
L 303.860698 48.197676 
L 304.121716 48.197676 
L 304.121716 48.056103 
L 304.709008 48.056103 
L 304.709008 47.914529 
L 305.100535 47.914529 
L 305.231044 47.772956 
L 305.557317 47.772956 
L 305.557317 47.631383 
L 307.123427 47.631383 
L 307.188681 47.48981 
L 308.102245 47.48981 
L 308.102245 47.348237 
L 308.8853 47.348237 
L 308.8853 47.206664 
L 309.472591 47.206664 
L 309.472591 47.065091 
L 309.537846 47.065091 
L 309.668355 47.065091 
L 309.668355 46.923518 
L 309.798864 46.923518 
L 309.864119 46.781945 
L 310.45141 46.781945 
L 310.45141 46.640372 
L 310.516665 46.640372 
L 316.58534 46.640372 
L 316.58534 46.498799 
L 317.498904 46.498799 
L 317.825177 46.357226 
L 318.02094 46.357226 
L 318.02094 46.07408 
L 318.086195 46.07408 
L 318.934504 46.07408 
L 318.934504 45.932507 
L 319.848068 45.932507 
L 319.848068 45.790934 
L 320.043832 45.790934 
L 320.043832 45.649361 
L 321.218414 45.649361 
L 321.218414 45.507788 
L 321.283669 45.507788 
L 322.001469 45.507788 
L 322.001469 45.366215 
L 322.784524 45.366215 
L 322.784524 45.083069 
L 324.089615 45.083069 
L 324.15487 44.941496 
L 324.481143 44.941496 
L 324.481143 44.799923 
L 325.916743 44.799923 
L 325.916743 44.65835 
L 325.981998 44.65835 
L 328.135399 44.65835 
L 328.135399 44.516777 
L 328.331163 44.516777 
L 328.331163 44.375204 
L 328.657435 44.375204 
L 328.657435 44.233631 
L 329.114217 44.233631 
L 329.114217 44.092058 
L 329.636254 44.092058 
L 329.636254 43.950485 
L 331.0066 43.950485 
L 331.0066 43.808912 
L 331.071855 43.808912 
L 331.267618 43.808912 
L 331.267618 43.667338 
L 332.442201 43.667338 
L 332.442201 43.525765 
L 334.204074 43.525765 
L 334.204074 43.384192 
L 334.269329 43.384192 
L 335.182893 43.384192 
L 335.313402 43.101046 
L 335.704929 43.101046 
L 335.704929 42.959473 
L 338.771894 42.959473 
L 338.837149 42.8179 
L 340.076986 42.8179 
L 340.14224 42.676327 
L 340.925295 42.676327 
L 340.925295 42.534754 
L 341.186313 42.534754 
L 341.186313 42.393181 
L 342.230386 42.393181 
L 342.230386 42.251608 
L 343.14395 42.251608 
L 343.339714 42.110035 
L 345.036333 42.110035 
L 345.036333 41.968462 
L 346.27617 41.968462 
L 346.27617 41.826889 
L 347.320243 41.826889 
L 347.320243 41.685316 
L 347.385498 41.685316 
L 350.321953 41.685316 
L 350.321953 41.543743 
L 351.039754 41.543743 
L 351.105008 41.260597 
L 351.235517 41.260597 
L 351.235517 41.119024 
L 351.822808 41.119024 
L 351.822808 40.977451 
L 353.454173 40.977451 
L 353.454173 40.835878 
L 354.237228 40.835878 
L 354.237228 40.552732 
L 354.889773 40.552732 
L 356.521138 40.411159 
L 358.805048 40.411159 
L 358.805048 40.269586 
L 359.392339 40.269586 
L 359.392339 40.128013 
L 360.175394 40.128013 
L 360.175394 39.98644 
L 360.240648 39.98644 
L 362.916086 39.98644 
L 362.916086 39.844867 
L 363.242358 39.844867 
L 363.372868 39.703294 
L 364.808468 39.703294 
L 365.395759 39.561721 
L 372.11698 39.561721 
L 372.11698 39.420147 
L 375.640727 39.420147 
L 375.640727 39.278574 
L 376.293273 39.278574 
L 376.489037 39.137001 
L 376.6848 39.137001 
L 376.750055 38.995428 
L 379.490747 38.995428 
L 379.621256 38.853855 
L 380.404311 38.853855 
L 380.404311 38.712282 
L 380.469565 38.712282 
L 381.056857 38.712282 
L 381.187366 38.570709 
L 388.430623 38.570709 
L 388.430623 38.429136 
L 389.67046 38.429136 
L 389.866224 38.14599 
L 392.150134 38.14599 
L 392.150134 38.004417 
L 395.80439 38.004417 
L 396.000154 37.862844 
L 399.262882 37.862844 
L 399.262882 37.721271 
L 402.329847 37.721271 
L 402.65612 37.579698 
L 410.421414 37.579698 
L 410.617178 37.438125 
L 471.825966 37.438125 
L 471.825966 37.438125 
" clip-path="url(#pb5830d2720)" style="fill: none; stroke: #1f77b4; stroke-width: 1.5; stroke-linecap: square"/>
   </g>
   <g id="line2d_26">
    <path d="M 66.007784 339.838125 
L 66.007784 259.383079 
L 66.498495 259.383079 
L 66.498495 251.060143 
L 67.970629 251.060143 
L 68.46134 248.285831 
L 69.442763 248.285831 
L 69.442763 226.091336 
L 70.424185 226.091336 
L 70.424185 214.994088 
L 74.840586 214.994088 
L 74.840586 212.219776 
L 75.331297 212.219776 
L 75.331297 203.896841 
L 75.822009 203.896841 
L 75.822009 201.122529 
L 76.803431 201.122529 
L 76.803431 198.348217 
L 78.766276 198.348217 
L 78.766276 192.799593 
L 80.729121 192.799593 
L 80.729121 190.025281 
L 82.201254 190.025281 
L 82.201254 187.250969 
L 84.654811 187.250969 
L 84.654811 181.702345 
L 90.543345 181.702345 
L 90.543345 178.928033 
L 97.904014 178.928033 
L 97.904014 176.153721 
L 100.35757 176.153721 
L 100.35757 173.379409 
L 101.829703 173.379409 
L 101.829703 170.605097 
L 108.699661 170.605097 
L 108.699661 165.056474 
L 109.190372 165.056474 
L 109.190372 162.282162 
L 110.662505 162.282162 
L 110.662505 159.50785 
L 112.134639 159.50785 
L 112.134639 156.733538 
L 115.078906 156.733538 
L 115.078906 153.959226 
L 115.569618 153.959226 
L 116.060329 151.184914 
L 118.513885 151.184914 
L 118.513885 148.410602 
L 119.986019 148.410602 
L 120.967441 145.63629 
L 120.967441 140.087666 
L 123.911708 140.087666 
L 123.911708 137.313354 
L 124.893131 137.313354 
L 124.893131 134.539042 
L 127.346687 134.539042 
L 128.328109 131.764731 
L 133.725933 131.764731 
L 133.725933 128.990419 
L 143.049446 128.990419 
L 143.049446 123.441795 
L 143.540157 123.441795 
L 143.540157 120.667483 
L 149.428692 120.667483 
L 149.428692 117.893171 
L 151.391537 117.893171 
L 151.391537 115.118859 
L 153.354382 115.118859 
L 155.807938 106.795923 
L 158.752205 106.795923 
L 158.752205 104.021611 
L 160.224339 104.021611 
L 160.71505 101.247299 
L 160.71505 98.472987 
L 163.168606 98.472987 
L 163.168606 95.698675 
L 163.659318 92.924364 
L 168.56643 92.924364 
L 168.56643 90.150052 
L 171.019986 90.150052 
L 171.019986 87.37574 
L 172.49212 87.37574 
L 172.49212 84.601428 
L 173.473542 84.601428 
L 173.964253 81.827116 
L 182.306344 81.827116 
L 182.306344 79.052804 
L 212.239729 79.052804 
L 212.73044 76.278492 
L 218.128263 76.278492 
L 218.128263 73.50418 
L 218.618975 73.50418 
L 218.618975 70.729868 
L 234.321734 70.729868 
L 234.321734 67.955556 
L 235.793867 67.955556 
L 235.793867 65.181244 
L 262.292273 65.181244 
L 262.292273 62.406932 
L 269.652942 62.406932 
L 269.652942 59.63262 
L 270.634364 59.63262 
L 270.634364 56.858308 
L 274.069343 56.858308 
L 274.069343 54.083997 
L 284.374279 54.083997 
L 284.374279 51.309685 
L 289.772102 51.309685 
L 289.772102 48.535373 
L 292.225658 48.535373 
L 292.225658 45.761061 
L 296.642059 45.761061 
L 296.642059 42.986749 
L 309.400551 42.986749 
L 309.400551 40.212437 
L 315.289086 40.212437 
L 315.779797 37.438125 
L 471.825966 37.438125 
L 471.825966 37.438125 
" clip-path="url(#pb5830d2720)" style="fill: none; stroke: #ff7f0e; stroke-width: 1.5; stroke-linecap: square"/>
   </g>
   <g id="line2d_27">
    <path d="M 66.007784 339.838125 
L 66.007784 335.806125 
L 66.007784 255.166125 
L 67.819472 255.166125 
L 67.819472 243.070125 
L 71.442849 243.070125 
L 71.442849 239.038125 
L 73.254537 239.038125 
L 73.254537 230.974125 
L 73.254537 222.910125 
L 76.877914 222.910125 
L 76.877914 210.814125 
L 78.689602 210.814125 
L 78.689602 206.782125 
L 82.312979 206.782125 
L 82.312979 198.718125 
L 84.124667 198.718125 
L 84.124667 194.686125 
L 89.559732 194.686125 
L 89.559732 190.654125 
L 91.37142 190.654125 
L 91.37142 186.622125 
L 94.994797 186.622125 
L 98.618174 182.590125 
L 98.618174 178.558125 
L 100.429862 178.558125 
L 100.429862 174.526125 
L 102.24155 174.526125 
L 102.24155 170.494125 
L 107.676615 170.494125 
L 107.676615 162.430125 
L 109.488304 162.430125 
L 109.488304 158.398125 
L 116.735057 158.398125 
L 116.735057 154.366125 
L 118.546745 154.366125 
L 118.546745 150.334125 
L 122.170122 150.334125 
L 122.170122 146.302125 
L 136.663628 146.302125 
L 136.663628 142.270125 
L 143.910381 142.270125 
L 143.910381 134.206125 
L 156.5922 134.206125 
L 156.5922 126.142125 
L 160.215576 126.142125 
L 162.027265 122.110125 
L 163.838953 122.110125 
L 163.838953 118.078125 
L 180.144148 118.078125 
L 180.144148 105.982125 
L 194.637654 105.982125 
L 194.637654 93.886125 
L 196.449343 93.886125 
L 196.449343 85.822125 
L 207.319472 85.822125 
L 210.942849 85.822125 
L 210.942849 81.790125 
L 225.436356 81.790125 
L 225.436356 77.758125 
L 230.87142 77.758125 
L 236.306485 77.758125 
L 236.306485 73.726125 
L 238.118174 73.726125 
L 238.118174 69.694125 
L 248.988304 69.694125 
L 248.988304 65.662125 
L 254.423369 65.662125 
L 258.046745 65.662125 
L 258.046745 61.630125 
L 267.105187 61.630125 
L 267.105187 57.598125 
L 314.209083 57.598125 
L 314.209083 53.566125 
L 325.079213 53.566125 
L 325.079213 49.534125 
L 339.572719 49.534125 
L 343.196096 49.534125 
L 357.689602 49.534125 
L 357.689602 45.502125 
L 363.124667 45.502125 
L 370.37142 45.502125 
L 386.676615 45.502125 
L 386.676615 41.470125 
L 408.416875 41.470125 
L 408.416875 37.438125 
L 419.287005 37.438125 
L 422.910381 37.438125 
L 471.825966 37.438125 
" clip-path="url(#pb5830d2720)" style="fill: none; stroke: #2ca02c; stroke-width: 1.5; stroke-linecap: square"/>
   </g>
   <g id="line2d_28">
    <path d="M 66.007784 339.838125 
L 66.007784 302.038125 
L 80.675911 302.038125 
L 90.454663 302.038125 
L 114.901541 302.038125 
L 114.901541 264.238125 
L 173.574049 264.238125 
L 173.574049 226.438125 
L 188.242176 226.438125 
L 188.242176 188.638125 
L 198.020928 188.638125 
L 251.80406 188.638125 
L 251.80406 150.838125 
L 256.693436 150.838125 
L 256.693436 113.038125 
L 305.587193 113.038125 
L 305.587193 75.238125 
L 349.591574 75.238125 
L 359.370325 75.238125 
L 388.706579 75.238125 
L 388.706579 37.438125 
L 471.825966 37.438125 
" clip-path="url(#pb5830d2720)" style="fill: none; stroke: #d62728; stroke-width: 1.5; stroke-linecap: square"/>
   </g>
   <g id="line2d_29">
    <path d="M 66.007784 339.838125 
L 66.007784 309.598125 
L 66.007784 188.638125 
L 76.413378 188.638125 
L 76.413378 158.398125 
L 81.616176 158.398125 
L 81.616176 128.158125 
L 118.035756 128.158125 
L 118.035756 97.918125 
L 123.238553 97.918125 
L 123.238553 67.678125 
L 175.266525 67.678125 
L 175.266525 37.438125 
L 471.825966 37.438125 
" clip-path="url(#pb5830d2720)" style="fill: none; stroke: #9467bd; stroke-width: 1.5; stroke-linecap: square"/>
   </g>
   <g id="line2d_30">
    <path d="M 66.007784 339.838125 
L 471.825966 37.438125 
" clip-path="url(#pb5830d2720)" style="fill: none; stroke-dasharray: 7.4,3.2; stroke-dashoffset: 0; stroke: #808080; stroke-width: 2"/>
   </g>
   <g id="patch_3">
    <path d="M 45.716875 354.958125 
L 45.716875 22.318125 
" style="fill: none; stroke: #000000; stroke-width: 0.8; stroke-linejoin: miter; stroke-linecap: square"/>
   </g>
   <g id="patch_4">
    <path d="M 492.116875 354.958125 
L 492.116875 22.318125 
" style="fill: none; stroke: #000000; stroke-width: 0.8; stroke-linejoin: miter; stroke-linecap: square"/>
   </g>
   <g id="patch_5">
    <path d="M 45.716875 354.958125 
L 492.116875 354.958125 
" style="fill: none; stroke: #000000; stroke-width: 0.8; stroke-linejoin: miter; stroke-linecap: square"/>
   </g>
   <g id="patch_6">
    <path d="M 45.716875 22.318125 
L 492.116875 22.318125 
" style="fill: none; stroke: #000000; stroke-width: 0.8; stroke-linejoin: miter; stroke-linecap: square"/>
   </g>
   <g id="text_15">
    <!-- ROC Curve: Random Forest Classifier -->
    <g transform="translate(157.85125 16.318125) scale(0.12 -0.12)">
     <defs>
      <path id="DejaVuSans-4f" d="M 2522 4238 
Q 1834 4238 1429 3725 
Q 1025 3213 1025 2328 
Q 1025 1447 1429 934 
Q 1834 422 2522 422 
Q 3209 422 3611 934 
Q 4013 1447 4013 2328 
Q 4013 3213 3611 3725 
Q 3209 4238 2522 4238 
z
M 2522 4750 
Q 3503 4750 4090 4092 
Q 4678 3434 4678 2328 
Q 4678 1225 4090 567 
Q 3503 -91 2522 -91 
Q 1538 -91 948 565 
Q 359 1222 359 2328 
Q 359 3434 948 4092 
Q 1538 4750 2522 4750 
z
" transform="scale(0.015625)"/>
      <path id="DejaVuSans-43" d="M 4122 4306 
L 4122 3641 
Q 3803 3938 3442 4084 
Q 3081 4231 2675 4231 
Q 1875 4231 1450 3742 
Q 1025 3253 1025 2328 
Q 1025 1406 1450 917 
Q 1875 428 2675 428 
Q 3081 428 3442 575 
Q 3803 722 4122 1019 
L 4122 359 
Q 3791 134 3420 21 
Q 3050 -91 2638 -91 
Q 1578 -91 968 557 
Q 359 1206 359 2328 
Q 359 3453 968 4101 
Q 1578 4750 2638 4750 
Q 3056 4750 3426 4639 
Q 3797 4528 4122 4306 
z
" transform="scale(0.015625)"/>
      <path id="DejaVuSans-3a" d="M 750 794 
L 1409 794 
L 1409 0 
L 750 0 
L 750 794 
z
M 750 3309 
L 1409 3309 
L 1409 2516 
L 750 2516 
L 750 3309 
z
" transform="scale(0.015625)"/>
      <path id="DejaVuSans-6e" d="M 3513 2113 
L 3513 0 
L 2938 0 
L 2938 2094 
Q 2938 2591 2744 2837 
Q 2550 3084 2163 3084 
Q 1697 3084 1428 2787 
Q 1159 2491 1159 1978 
L 1159 0 
L 581 0 
L 581 3500 
L 1159 3500 
L 1159 2956 
Q 1366 3272 1645 3428 
Q 1925 3584 2291 3584 
Q 2894 3584 3203 3211 
Q 3513 2838 3513 2113 
z
" transform="scale(0.015625)"/>
      <path id="DejaVuSans-64" d="M 2906 2969 
L 2906 4863 
L 3481 4863 
L 3481 0 
L 2906 0 
L 2906 525 
Q 2725 213 2448 61 
Q 2172 -91 1784 -91 
Q 1150 -91 751 415 
Q 353 922 353 1747 
Q 353 2572 751 3078 
Q 1150 3584 1784 3584 
Q 2172 3584 2448 3432 
Q 2725 3281 2906 2969 
z
M 947 1747 
Q 947 1113 1208 752 
Q 1469 391 1925 391 
Q 2381 391 2643 752 
Q 2906 1113 2906 1747 
Q 2906 2381 2643 2742 
Q 2381 3103 1925 3103 
Q 1469 3103 1208 2742 
Q 947 2381 947 1747 
z
" transform="scale(0.015625)"/>
      <path id="DejaVuSans-6d" d="M 3328 2828 
Q 3544 3216 3844 3400 
Q 4144 3584 4550 3584 
Q 5097 3584 5394 3201 
Q 5691 2819 5691 2113 
L 5691 0 
L 5113 0 
L 5113 2094 
Q 5113 2597 4934 2840 
Q 4756 3084 4391 3084 
Q 3944 3084 3684 2787 
Q 3425 2491 3425 1978 
L 3425 0 
L 2847 0 
L 2847 2094 
Q 2847 2600 2669 2842 
Q 2491 3084 2119 3084 
Q 1678 3084 1418 2786 
Q 1159 2488 1159 1978 
L 1159 0 
L 581 0 
L 581 3500 
L 1159 3500 
L 1159 2956 
Q 1356 3278 1631 3431 
Q 1906 3584 2284 3584 
Q 2666 3584 2933 3390 
Q 3200 3197 3328 2828 
z
" transform="scale(0.015625)"/>
      <path id="DejaVuSans-66" d="M 2375 4863 
L 2375 4384 
L 1825 4384 
Q 1516 4384 1395 4259 
Q 1275 4134 1275 3809 
L 1275 3500 
L 2222 3500 
L 2222 3053 
L 1275 3053 
L 1275 0 
L 697 0 
L 697 3053 
L 147 3053 
L 147 3500 
L 697 3500 
L 697 3744 
Q 697 4328 969 4595 
Q 1241 4863 1831 4863 
L 2375 4863 
z
" transform="scale(0.015625)"/>
     </defs>
     <use xlink:href="#DejaVuSans-52"/>
     <use xlink:href="#DejaVuSans-4f" x="69.482422"/>
     <use xlink:href="#DejaVuSans-43" x="148.193359"/>
     <use xlink:href="#DejaVuSans-20" x="218.017578"/>
     <use xlink:href="#DejaVuSans-43" x="249.804688"/>
     <use xlink:href="#DejaVuSans-75" x="319.628906"/>
     <use xlink:href="#DejaVuSans-72" x="383.007812"/>
     <use xlink:href="#DejaVuSans-76" x="424.121094"/>
     <use xlink:href="#DejaVuSans-65" x="483.300781"/>
     <use xlink:href="#DejaVuSans-3a" x="544.824219"/>
     <use xlink:href="#DejaVuSans-20" x="578.515625"/>
     <use xlink:href="#DejaVuSans-52" x="610.302734"/>
     <use xlink:href="#DejaVuSans-61" x="677.535156"/>
     <use xlink:href="#DejaVuSans-6e" x="738.814453"/>
     <use xlink:href="#DejaVuSans-64" x="802.193359"/>
     <use xlink:href="#DejaVuSans-6f" x="865.669922"/>
     <use xlink:href="#DejaVuSans-6d" x="926.851562"/>
     <use xlink:href="#DejaVuSans-20" x="1024.263672"/>
     <use xlink:href="#DejaVuSans-46" x="1056.050781"/>
     <use xlink:href="#DejaVuSans-6f" x="1109.945312"/>
     <use xlink:href="#DejaVuSans-72" x="1171.126953"/>
     <use xlink:href="#DejaVuSans-65" x="1209.990234"/>
     <use xlink:href="#DejaVuSans-73" x="1271.513672"/>
     <use xlink:href="#DejaVuSans-74" x="1323.613281"/>
     <use xlink:href="#DejaVuSans-20" x="1362.822266"/>
     <use xlink:href="#DejaVuSans-43" x="1394.609375"/>
     <use xlink:href="#DejaVuSans-6c" x="1464.433594"/>
     <use xlink:href="#DejaVuSans-61" x="1492.216797"/>
     <use xlink:href="#DejaVuSans-73" x="1553.496094"/>
     <use xlink:href="#DejaVuSans-73" x="1605.595703"/>
     <use xlink:href="#DejaVuSans-69" x="1657.695312"/>
     <use xlink:href="#DejaVuSans-66" x="1685.478516"/>
     <use xlink:href="#DejaVuSans-69" x="1720.683594"/>
     <use xlink:href="#DejaVuSans-65" x="1748.466797"/>
     <use xlink:href="#DejaVuSans-72" x="1809.990234"/>
    </g>
   </g>
   <g id="legend_1">
    <g id="patch_7">
     <path d="M 77.059062 500.922875 
L 460.774688 500.922875 
Q 462.774688 500.922875 462.774688 498.922875 
L 462.774688 411.854125 
Q 462.774688 409.854125 460.774688 409.854125 
L 77.059062 409.854125 
Q 75.059062 409.854125 75.059062 411.854125 
L 75.059062 498.922875 
Q 75.059062 500.922875 77.059062 500.922875 
z
" style="fill: #ffffff; opacity: 0.8; stroke: #cccccc; stroke-linejoin: miter"/>
    </g>
    <g id="line2d_31">
     <path d="M 79.059062 417.952562 
L 89.059062 417.952562 
L 99.059062 417.952562 
" style="fill: none; stroke: #1f77b4; stroke-width: 1.5; stroke-linecap: square"/>
    </g>
    <g id="text_16">
     <!-- AUC for White = 0.864577, Count: 8,355, Pos: 2,136, Neg: 6,219 -->
     <g transform="translate(107.059062 421.452562) scale(0.1 -0.1)">
      <defs>
       <path id="DejaVuSans-41" d="M 2188 4044 
L 1331 1722 
L 3047 1722 
L 2188 4044 
z
M 1831 4666 
L 2547 4666 
L 4325 0 
L 3669 0 
L 3244 1197 
L 1141 1197 
L 716 0 
L 50 0 
L 1831 4666 
z
" transform="scale(0.015625)"/>
       <path id="DejaVuSans-55" d="M 556 4666 
L 1191 4666 
L 1191 1831 
Q 1191 1081 1462 751 
Q 1734 422 2344 422 
Q 2950 422 3222 751 
Q 3494 1081 3494 1831 
L 3494 4666 
L 4128 4666 
L 4128 1753 
Q 4128 841 3676 375 
Q 3225 -91 2344 -91 
Q 1459 -91 1007 375 
Q 556 841 556 1753 
L 556 4666 
z
" transform="scale(0.015625)"/>
       <path id="DejaVuSans-57" d="M 213 4666 
L 850 4666 
L 1831 722 
L 2809 4666 
L 3519 4666 
L 4500 722 
L 5478 4666 
L 6119 4666 
L 4947 0 
L 4153 0 
L 3169 4050 
L 2175 0 
L 1381 0 
L 213 4666 
z
" transform="scale(0.015625)"/>
       <path id="DejaVuSans-68" d="M 3513 2113 
L 3513 0 
L 2938 0 
L 2938 2094 
Q 2938 2591 2744 2837 
Q 2550 3084 2163 3084 
Q 1697 3084 1428 2787 
Q 1159 2491 1159 1978 
L 1159 0 
L 581 0 
L 581 4863 
L 1159 4863 
L 1159 2956 
Q 1366 3272 1645 3428 
Q 1925 3584 2291 3584 
Q 2894 3584 3203 3211 
Q 3513 2838 3513 2113 
z
" transform="scale(0.015625)"/>
       <path id="DejaVuSans-3d" d="M 678 2906 
L 4684 2906 
L 4684 2381 
L 678 2381 
L 678 2906 
z
M 678 1631 
L 4684 1631 
L 4684 1100 
L 678 1100 
L 678 1631 
z
" transform="scale(0.015625)"/>
       <path id="DejaVuSans-35" d="M 691 4666 
L 3169 4666 
L 3169 4134 
L 1269 4134 
L 1269 2991 
Q 1406 3038 1543 3061 
Q 1681 3084 1819 3084 
Q 2600 3084 3056 2656 
Q 3513 2228 3513 1497 
Q 3513 744 3044 326 
Q 2575 -91 1722 -91 
Q 1428 -91 1123 -41 
Q 819 9 494 109 
L 494 744 
Q 775 591 1075 516 
Q 1375 441 1709 441 
Q 2250 441 2565 725 
Q 2881 1009 2881 1497 
Q 2881 1984 2565 2268 
Q 2250 2553 1709 2553 
Q 1456 2553 1204 2497 
Q 953 2441 691 2322 
L 691 4666 
z
" transform="scale(0.015625)"/>
       <path id="DejaVuSans-37" d="M 525 4666 
L 3525 4666 
L 3525 4397 
L 1831 0 
L 1172 0 
L 2766 4134 
L 525 4134 
L 525 4666 
z
" transform="scale(0.015625)"/>
       <path id="DejaVuSans-2c" d="M 750 794 
L 1409 794 
L 1409 256 
L 897 -744 
L 494 -744 
L 750 256 
L 750 794 
z
" transform="scale(0.015625)"/>
       <path id="DejaVuSans-33" d="M 2597 2516 
Q 3050 2419 3304 2112 
Q 3559 1806 3559 1356 
Q 3559 666 3084 287 
Q 2609 -91 1734 -91 
Q 1441 -91 1130 -33 
Q 819 25 488 141 
L 488 750 
Q 750 597 1062 519 
Q 1375 441 1716 441 
Q 2309 441 2620 675 
Q 2931 909 2931 1356 
Q 2931 1769 2642 2001 
Q 2353 2234 1838 2234 
L 1294 2234 
L 1294 2753 
L 1863 2753 
Q 2328 2753 2575 2939 
Q 2822 3125 2822 3475 
Q 2822 3834 2567 4026 
Q 2313 4219 1838 4219 
Q 1578 4219 1281 4162 
Q 984 4106 628 3988 
L 628 4550 
Q 988 4650 1302 4700 
Q 1616 4750 1894 4750 
Q 2613 4750 3031 4423 
Q 3450 4097 3450 3541 
Q 3450 3153 3228 2886 
Q 3006 2619 2597 2516 
z
" transform="scale(0.015625)"/>
       <path id="DejaVuSans-4e" d="M 628 4666 
L 1478 4666 
L 3547 763 
L 3547 4666 
L 4159 4666 
L 4159 0 
L 3309 0 
L 1241 3903 
L 1241 0 
L 628 0 
L 628 4666 
z
" transform="scale(0.015625)"/>
       <path id="DejaVuSans-67" d="M 2906 1791 
Q 2906 2416 2648 2759 
Q 2391 3103 1925 3103 
Q 1463 3103 1205 2759 
Q 947 2416 947 1791 
Q 947 1169 1205 825 
Q 1463 481 1925 481 
Q 2391 481 2648 825 
Q 2906 1169 2906 1791 
z
M 3481 434 
Q 3481 -459 3084 -895 
Q 2688 -1331 1869 -1331 
Q 1566 -1331 1297 -1286 
Q 1028 -1241 775 -1147 
L 775 -588 
Q 1028 -725 1275 -790 
Q 1522 -856 1778 -856 
Q 2344 -856 2625 -561 
Q 2906 -266 2906 331 
L 2906 616 
Q 2728 306 2450 153 
Q 2172 0 1784 0 
Q 1141 0 747 490 
Q 353 981 353 1791 
Q 353 2603 747 3093 
Q 1141 3584 1784 3584 
Q 2172 3584 2450 3431 
Q 2728 3278 2906 2969 
L 2906 3500 
L 3481 3500 
L 3481 434 
z
" transform="scale(0.015625)"/>
       <path id="DejaVuSans-39" d="M 703 97 
L 703 672 
Q 941 559 1184 500 
Q 1428 441 1663 441 
Q 2288 441 2617 861 
Q 2947 1281 2994 2138 
Q 2813 1869 2534 1725 
Q 2256 1581 1919 1581 
Q 1219 1581 811 2004 
Q 403 2428 403 3163 
Q 403 3881 828 4315 
Q 1253 4750 1959 4750 
Q 2769 4750 3195 4129 
Q 3622 3509 3622 2328 
Q 3622 1225 3098 567 
Q 2575 -91 1691 -91 
Q 1453 -91 1209 -44 
Q 966 3 703 97 
z
M 1959 2075 
Q 2384 2075 2632 2365 
Q 2881 2656 2881 3163 
Q 2881 3666 2632 3958 
Q 2384 4250 1959 4250 
Q 1534 4250 1286 3958 
Q 1038 3666 1038 3163 
Q 1038 2656 1286 2365 
Q 1534 2075 1959 2075 
z
" transform="scale(0.015625)"/>
      </defs>
      <use xlink:href="#DejaVuSans-41"/>
      <use xlink:href="#DejaVuSans-55" x="68.408203"/>
      <use xlink:href="#DejaVuSans-43" x="141.601562"/>
      <use xlink:href="#DejaVuSans-20" x="211.425781"/>
      <use xlink:href="#DejaVuSans-66" x="243.212891"/>
      <use xlink:href="#DejaVuSans-6f" x="278.417969"/>
      <use xlink:href="#DejaVuSans-72" x="339.599609"/>
      <use xlink:href="#DejaVuSans-20" x="380.712891"/>
      <use xlink:href="#DejaVuSans-57" x="412.5"/>
      <use xlink:href="#DejaVuSans-68" x="511.376953"/>
      <use xlink:href="#DejaVuSans-69" x="574.755859"/>
      <use xlink:href="#DejaVuSans-74" x="602.539062"/>
      <use xlink:href="#DejaVuSans-65" x="641.748047"/>
      <use xlink:href="#DejaVuSans-20" x="703.271484"/>
      <use xlink:href="#DejaVuSans-3d" x="735.058594"/>
      <use xlink:href="#DejaVuSans-20" x="818.847656"/>
      <use xlink:href="#DejaVuSans-30" x="850.634766"/>
      <use xlink:href="#DejaVuSans-2e" x="914.257812"/>
      <use xlink:href="#DejaVuSans-38" x="946.044922"/>
      <use xlink:href="#DejaVuSans-36" x="1009.667969"/>
      <use xlink:href="#DejaVuSans-34" x="1073.291016"/>
      <use xlink:href="#DejaVuSans-35" x="1136.914062"/>
      <use xlink:href="#DejaVuSans-37" x="1200.537109"/>
      <use xlink:href="#DejaVuSans-37" x="1264.160156"/>
      <use xlink:href="#DejaVuSans-2c" x="1327.783203"/>
      <use xlink:href="#DejaVuSans-20" x="1359.570312"/>
      <use xlink:href="#DejaVuSans-43" x="1391.357422"/>
      <use xlink:href="#DejaVuSans-6f" x="1461.181641"/>
      <use xlink:href="#DejaVuSans-75" x="1522.363281"/>
      <use xlink:href="#DejaVuSans-6e" x="1585.742188"/>
      <use xlink:href="#DejaVuSans-74" x="1649.121094"/>
      <use xlink:href="#DejaVuSans-3a" x="1688.330078"/>
      <use xlink:href="#DejaVuSans-20" x="1722.021484"/>
      <use xlink:href="#DejaVuSans-38" x="1753.808594"/>
      <use xlink:href="#DejaVuSans-2c" x="1817.431641"/>
      <use xlink:href="#DejaVuSans-33" x="1849.21875"/>
      <use xlink:href="#DejaVuSans-35" x="1912.841797"/>
      <use xlink:href="#DejaVuSans-35" x="1976.464844"/>
      <use xlink:href="#DejaVuSans-2c" x="2040.087891"/>
      <use xlink:href="#DejaVuSans-20" x="2071.875"/>
      <use xlink:href="#DejaVuSans-50" x="2103.662109"/>
      <use xlink:href="#DejaVuSans-6f" x="2160.339844"/>
      <use xlink:href="#DejaVuSans-73" x="2221.521484"/>
      <use xlink:href="#DejaVuSans-3a" x="2273.621094"/>
      <use xlink:href="#DejaVuSans-20" x="2307.3125"/>
      <use xlink:href="#DejaVuSans-32" x="2339.099609"/>
      <use xlink:href="#DejaVuSans-2c" x="2402.722656"/>
      <use xlink:href="#DejaVuSans-31" x="2434.509766"/>
      <use xlink:href="#DejaVuSans-33" x="2498.132812"/>
      <use xlink:href="#DejaVuSans-36" x="2561.755859"/>
      <use xlink:href="#DejaVuSans-2c" x="2625.378906"/>
      <use xlink:href="#DejaVuSans-20" x="2657.166016"/>
      <use xlink:href="#DejaVuSans-4e" x="2688.953125"/>
      <use xlink:href="#DejaVuSans-65" x="2763.757812"/>
      <use xlink:href="#DejaVuSans-67" x="2825.28125"/>
      <use xlink:href="#DejaVuSans-3a" x="2888.757812"/>
      <use xlink:href="#DejaVuSans-20" x="2922.449219"/>
      <use xlink:href="#DejaVuSans-36" x="2954.236328"/>
      <use xlink:href="#DejaVuSans-2c" x="3017.859375"/>
      <use xlink:href="#DejaVuSans-32" x="3049.646484"/>
      <use xlink:href="#DejaVuSans-31" x="3113.269531"/>
      <use xlink:href="#DejaVuSans-39" x="3176.892578"/>
     </g>
    </g>
    <g id="line2d_32">
     <path d="M 79.059062 432.630688 
L 89.059062 432.630688 
L 99.059062 432.630688 
" style="fill: none; stroke: #ff7f0e; stroke-width: 1.5; stroke-linecap: square"/>
    </g>
    <g id="text_17">
     <!-- AUC for Black = 0.869274, Count: 936, Pos: 109, Neg: 827 -->
     <g transform="translate(107.059062 436.130688) scale(0.1 -0.1)">
      <defs>
       <path id="DejaVuSans-42" d="M 1259 2228 
L 1259 519 
L 2272 519 
Q 2781 519 3026 730 
Q 3272 941 3272 1375 
Q 3272 1813 3026 2020 
Q 2781 2228 2272 2228 
L 1259 2228 
z
M 1259 4147 
L 1259 2741 
L 2194 2741 
Q 2656 2741 2882 2914 
Q 3109 3088 3109 3444 
Q 3109 3797 2882 3972 
Q 2656 4147 2194 4147 
L 1259 4147 
z
M 628 4666 
L 2241 4666 
Q 2963 4666 3353 4366 
Q 3744 4066 3744 3513 
Q 3744 3084 3544 2831 
Q 3344 2578 2956 2516 
Q 3422 2416 3680 2098 
Q 3938 1781 3938 1306 
Q 3938 681 3513 340 
Q 3088 0 2303 0 
L 628 0 
L 628 4666 
z
" transform="scale(0.015625)"/>
       <path id="DejaVuSans-63" d="M 3122 3366 
L 3122 2828 
Q 2878 2963 2633 3030 
Q 2388 3097 2138 3097 
Q 1578 3097 1268 2742 
Q 959 2388 959 1747 
Q 959 1106 1268 751 
Q 1578 397 2138 397 
Q 2388 397 2633 464 
Q 2878 531 3122 666 
L 3122 134 
Q 2881 22 2623 -34 
Q 2366 -91 2075 -91 
Q 1284 -91 818 406 
Q 353 903 353 1747 
Q 353 2603 823 3093 
Q 1294 3584 2113 3584 
Q 2378 3584 2631 3529 
Q 2884 3475 3122 3366 
z
" transform="scale(0.015625)"/>
       <path id="DejaVuSans-6b" d="M 581 4863 
L 1159 4863 
L 1159 1991 
L 2875 3500 
L 3609 3500 
L 1753 1863 
L 3688 0 
L 2938 0 
L 1159 1709 
L 1159 0 
L 581 0 
L 581 4863 
z
" transform="scale(0.015625)"/>
      </defs>
      <use xlink:href="#DejaVuSans-41"/>
      <use xlink:href="#DejaVuSans-55" x="68.408203"/>
      <use xlink:href="#DejaVuSans-43" x="141.601562"/>
      <use xlink:href="#DejaVuSans-20" x="211.425781"/>
      <use xlink:href="#DejaVuSans-66" x="243.212891"/>
      <use xlink:href="#DejaVuSans-6f" x="278.417969"/>
      <use xlink:href="#DejaVuSans-72" x="339.599609"/>
      <use xlink:href="#DejaVuSans-20" x="380.712891"/>
      <use xlink:href="#DejaVuSans-42" x="412.5"/>
      <use xlink:href="#DejaVuSans-6c" x="481.103516"/>
      <use xlink:href="#DejaVuSans-61" x="508.886719"/>
      <use xlink:href="#DejaVuSans-63" x="570.166016"/>
      <use xlink:href="#DejaVuSans-6b" x="625.146484"/>
      <use xlink:href="#DejaVuSans-20" x="683.056641"/>
      <use xlink:href="#DejaVuSans-3d" x="714.84375"/>
      <use xlink:href="#DejaVuSans-20" x="798.632812"/>
      <use xlink:href="#DejaVuSans-30" x="830.419922"/>
      <use xlink:href="#DejaVuSans-2e" x="894.042969"/>
      <use xlink:href="#DejaVuSans-38" x="925.830078"/>
      <use xlink:href="#DejaVuSans-36" x="989.453125"/>
      <use xlink:href="#DejaVuSans-39" x="1053.076172"/>
      <use xlink:href="#DejaVuSans-32" x="1116.699219"/>
      <use xlink:href="#DejaVuSans-37" x="1180.322266"/>
      <use xlink:href="#DejaVuSans-34" x="1243.945312"/>
      <use xlink:href="#DejaVuSans-2c" x="1307.568359"/>
      <use xlink:href="#DejaVuSans-20" x="1339.355469"/>
      <use xlink:href="#DejaVuSans-43" x="1371.142578"/>
      <use xlink:href="#DejaVuSans-6f" x="1440.966797"/>
      <use xlink:href="#DejaVuSans-75" x="1502.148438"/>
      <use xlink:href="#DejaVuSans-6e" x="1565.527344"/>
      <use xlink:href="#DejaVuSans-74" x="1628.90625"/>
      <use xlink:href="#DejaVuSans-3a" x="1668.115234"/>
      <use xlink:href="#DejaVuSans-20" x="1701.806641"/>
      <use xlink:href="#DejaVuSans-39" x="1733.59375"/>
      <use xlink:href="#DejaVuSans-33" x="1797.216797"/>
      <use xlink:href="#DejaVuSans-36" x="1860.839844"/>
      <use xlink:href="#DejaVuSans-2c" x="1924.462891"/>
      <use xlink:href="#DejaVuSans-20" x="1956.25"/>
      <use xlink:href="#DejaVuSans-50" x="1988.037109"/>
      <use xlink:href="#DejaVuSans-6f" x="2044.714844"/>
      <use xlink:href="#DejaVuSans-73" x="2105.896484"/>
      <use xlink:href="#DejaVuSans-3a" x="2157.996094"/>
      <use xlink:href="#DejaVuSans-20" x="2191.6875"/>
      <use xlink:href="#DejaVuSans-31" x="2223.474609"/>
      <use xlink:href="#DejaVuSans-30" x="2287.097656"/>
      <use xlink:href="#DejaVuSans-39" x="2350.720703"/>
      <use xlink:href="#DejaVuSans-2c" x="2414.34375"/>
      <use xlink:href="#DejaVuSans-20" x="2446.130859"/>
      <use xlink:href="#DejaVuSans-4e" x="2477.917969"/>
      <use xlink:href="#DejaVuSans-65" x="2552.722656"/>
      <use xlink:href="#DejaVuSans-67" x="2614.246094"/>
      <use xlink:href="#DejaVuSans-3a" x="2677.722656"/>
      <use xlink:href="#DejaVuSans-20" x="2711.414062"/>
      <use xlink:href="#DejaVuSans-38" x="2743.201172"/>
      <use xlink:href="#DejaVuSans-32" x="2806.824219"/>
      <use xlink:href="#DejaVuSans-37" x="2870.447266"/>
     </g>
    </g>
    <g id="line2d_33">
     <path d="M 79.059062 447.308813 
L 89.059062 447.308813 
L 99.059062 447.308813 
" style="fill: none; stroke: #2ca02c; stroke-width: 1.5; stroke-linecap: square"/>
    </g>
    <g id="text_18">
     <!-- AUC for Asian-Pac-Islander = 0.839673, Count: 299, Pos: 75, Neg: 224 -->
     <g transform="translate(107.059062 450.808813) scale(0.1 -0.1)">
      <defs>
       <path id="DejaVuSans-2d" d="M 313 2009 
L 1997 2009 
L 1997 1497 
L 313 1497 
L 313 2009 
z
" transform="scale(0.015625)"/>
       <path id="DejaVuSans-49" d="M 628 4666 
L 1259 4666 
L 1259 0 
L 628 0 
L 628 4666 
z
" transform="scale(0.015625)"/>
      </defs>
      <use xlink:href="#DejaVuSans-41"/>
      <use xlink:href="#DejaVuSans-55" x="68.408203"/>
      <use xlink:href="#DejaVuSans-43" x="141.601562"/>
      <use xlink:href="#DejaVuSans-20" x="211.425781"/>
      <use xlink:href="#DejaVuSans-66" x="243.212891"/>
      <use xlink:href="#DejaVuSans-6f" x="278.417969"/>
      <use xlink:href="#DejaVuSans-72" x="339.599609"/>
      <use xlink:href="#DejaVuSans-20" x="380.712891"/>
      <use xlink:href="#DejaVuSans-41" x="412.5"/>
      <use xlink:href="#DejaVuSans-73" x="480.908203"/>
      <use xlink:href="#DejaVuSans-69" x="533.007812"/>
      <use xlink:href="#DejaVuSans-61" x="560.791016"/>
      <use xlink:href="#DejaVuSans-6e" x="622.070312"/>
      <use xlink:href="#DejaVuSans-2d" x="685.449219"/>
      <use xlink:href="#DejaVuSans-50" x="721.533203"/>
      <use xlink:href="#DejaVuSans-61" x="777.335938"/>
      <use xlink:href="#DejaVuSans-63" x="838.615234"/>
      <use xlink:href="#DejaVuSans-2d" x="893.595703"/>
      <use xlink:href="#DejaVuSans-49" x="929.679688"/>
      <use xlink:href="#DejaVuSans-73" x="959.171875"/>
      <use xlink:href="#DejaVuSans-6c" x="1011.271484"/>
      <use xlink:href="#DejaVuSans-61" x="1039.054688"/>
      <use xlink:href="#DejaVuSans-6e" x="1100.333984"/>
      <use xlink:href="#DejaVuSans-64" x="1163.712891"/>
      <use xlink:href="#DejaVuSans-65" x="1227.189453"/>
      <use xlink:href="#DejaVuSans-72" x="1288.712891"/>
      <use xlink:href="#DejaVuSans-20" x="1329.826172"/>
      <use xlink:href="#DejaVuSans-3d" x="1361.613281"/>
      <use xlink:href="#DejaVuSans-20" x="1445.402344"/>
      <use xlink:href="#DejaVuSans-30" x="1477.189453"/>
      <use xlink:href="#DejaVuSans-2e" x="1540.8125"/>
      <use xlink:href="#DejaVuSans-38" x="1572.599609"/>
      <use xlink:href="#DejaVuSans-33" x="1636.222656"/>
      <use xlink:href="#DejaVuSans-39" x="1699.845703"/>
      <use xlink:href="#DejaVuSans-36" x="1763.46875"/>
      <use xlink:href="#DejaVuSans-37" x="1827.091797"/>
      <use xlink:href="#DejaVuSans-33" x="1890.714844"/>
      <use xlink:href="#DejaVuSans-2c" x="1954.337891"/>
      <use xlink:href="#DejaVuSans-20" x="1986.125"/>
      <use xlink:href="#DejaVuSans-43" x="2017.912109"/>
      <use xlink:href="#DejaVuSans-6f" x="2087.736328"/>
      <use xlink:href="#DejaVuSans-75" x="2148.917969"/>
      <use xlink:href="#DejaVuSans-6e" x="2212.296875"/>
      <use xlink:href="#DejaVuSans-74" x="2275.675781"/>
      <use xlink:href="#DejaVuSans-3a" x="2314.884766"/>
      <use xlink:href="#DejaVuSans-20" x="2348.576172"/>
      <use xlink:href="#DejaVuSans-32" x="2380.363281"/>
      <use xlink:href="#DejaVuSans-39" x="2443.986328"/>
      <use xlink:href="#DejaVuSans-39" x="2507.609375"/>
      <use xlink:href="#DejaVuSans-2c" x="2571.232422"/>
      <use xlink:href="#DejaVuSans-20" x="2603.019531"/>
      <use xlink:href="#DejaVuSans-50" x="2634.806641"/>
      <use xlink:href="#DejaVuSans-6f" x="2691.484375"/>
      <use xlink:href="#DejaVuSans-73" x="2752.666016"/>
      <use xlink:href="#DejaVuSans-3a" x="2804.765625"/>
      <use xlink:href="#DejaVuSans-20" x="2838.457031"/>
      <use xlink:href="#DejaVuSans-37" x="2870.244141"/>
      <use xlink:href="#DejaVuSans-35" x="2933.867188"/>
      <use xlink:href="#DejaVuSans-2c" x="2997.490234"/>
      <use xlink:href="#DejaVuSans-20" x="3029.277344"/>
      <use xlink:href="#DejaVuSans-4e" x="3061.064453"/>
      <use xlink:href="#DejaVuSans-65" x="3135.869141"/>
      <use xlink:href="#DejaVuSans-67" x="3197.392578"/>
      <use xlink:href="#DejaVuSans-3a" x="3260.869141"/>
      <use xlink:href="#DejaVuSans-20" x="3294.560547"/>
      <use xlink:href="#DejaVuSans-32" x="3326.347656"/>
      <use xlink:href="#DejaVuSans-32" x="3389.970703"/>
      <use xlink:href="#DejaVuSans-34" x="3453.59375"/>
     </g>
    </g>
    <g id="line2d_34">
     <path d="M 79.059062 461.986938 
L 89.059062 461.986938 
L 99.059062 461.986938 
" style="fill: none; stroke: #d62728; stroke-width: 1.5; stroke-linecap: square"/>
    </g>
    <g id="text_19">
     <!-- AUC for Amer-Indian-Eskimo = 0.625000, Count: 91, Pos: 8, Neg: 83 -->
     <g transform="translate(107.059062 465.486938) scale(0.1 -0.1)">
      <defs>
       <path id="DejaVuSans-45" d="M 628 4666 
L 3578 4666 
L 3578 4134 
L 1259 4134 
L 1259 2753 
L 3481 2753 
L 3481 2222 
L 1259 2222 
L 1259 531 
L 3634 531 
L 3634 0 
L 628 0 
L 628 4666 
z
" transform="scale(0.015625)"/>
      </defs>
      <use xlink:href="#DejaVuSans-41"/>
      <use xlink:href="#DejaVuSans-55" x="68.408203"/>
      <use xlink:href="#DejaVuSans-43" x="141.601562"/>
      <use xlink:href="#DejaVuSans-20" x="211.425781"/>
      <use xlink:href="#DejaVuSans-66" x="243.212891"/>
      <use xlink:href="#DejaVuSans-6f" x="278.417969"/>
      <use xlink:href="#DejaVuSans-72" x="339.599609"/>
      <use xlink:href="#DejaVuSans-20" x="380.712891"/>
      <use xlink:href="#DejaVuSans-41" x="412.5"/>
      <use xlink:href="#DejaVuSans-6d" x="480.908203"/>
      <use xlink:href="#DejaVuSans-65" x="578.320312"/>
      <use xlink:href="#DejaVuSans-72" x="639.84375"/>
      <use xlink:href="#DejaVuSans-2d" x="674.582031"/>
      <use xlink:href="#DejaVuSans-49" x="710.666016"/>
      <use xlink:href="#DejaVuSans-6e" x="740.158203"/>
      <use xlink:href="#DejaVuSans-64" x="803.537109"/>
      <use xlink:href="#DejaVuSans-69" x="867.013672"/>
      <use xlink:href="#DejaVuSans-61" x="894.796875"/>
      <use xlink:href="#DejaVuSans-6e" x="956.076172"/>
      <use xlink:href="#DejaVuSans-2d" x="1019.455078"/>
      <use xlink:href="#DejaVuSans-45" x="1055.539062"/>
      <use xlink:href="#DejaVuSans-73" x="1118.722656"/>
      <use xlink:href="#DejaVuSans-6b" x="1170.822266"/>
      <use xlink:href="#DejaVuSans-69" x="1228.732422"/>
      <use xlink:href="#DejaVuSans-6d" x="1256.515625"/>
      <use xlink:href="#DejaVuSans-6f" x="1353.927734"/>
      <use xlink:href="#DejaVuSans-20" x="1415.109375"/>
      <use xlink:href="#DejaVuSans-3d" x="1446.896484"/>
      <use xlink:href="#DejaVuSans-20" x="1530.685547"/>
      <use xlink:href="#DejaVuSans-30" x="1562.472656"/>
      <use xlink:href="#DejaVuSans-2e" x="1626.095703"/>
      <use xlink:href="#DejaVuSans-36" x="1657.882812"/>
      <use xlink:href="#DejaVuSans-32" x="1721.505859"/>
      <use xlink:href="#DejaVuSans-35" x="1785.128906"/>
      <use xlink:href="#DejaVuSans-30" x="1848.751953"/>
      <use xlink:href="#DejaVuSans-30" x="1912.375"/>
      <use xlink:href="#DejaVuSans-30" x="1975.998047"/>
      <use xlink:href="#DejaVuSans-2c" x="2039.621094"/>
      <use xlink:href="#DejaVuSans-20" x="2071.408203"/>
      <use xlink:href="#DejaVuSans-43" x="2103.195312"/>
      <use xlink:href="#DejaVuSans-6f" x="2173.019531"/>
      <use xlink:href="#DejaVuSans-75" x="2234.201172"/>
      <use xlink:href="#DejaVuSans-6e" x="2297.580078"/>
      <use xlink:href="#DejaVuSans-74" x="2360.958984"/>
      <use xlink:href="#DejaVuSans-3a" x="2400.167969"/>
      <use xlink:href="#DejaVuSans-20" x="2433.859375"/>
      <use xlink:href="#DejaVuSans-39" x="2465.646484"/>
      <use xlink:href="#DejaVuSans-31" x="2529.269531"/>
      <use xlink:href="#DejaVuSans-2c" x="2592.892578"/>
      <use xlink:href="#DejaVuSans-20" x="2624.679688"/>
      <use xlink:href="#DejaVuSans-50" x="2656.466797"/>
      <use xlink:href="#DejaVuSans-6f" x="2713.144531"/>
      <use xlink:href="#DejaVuSans-73" x="2774.326172"/>
      <use xlink:href="#DejaVuSans-3a" x="2826.425781"/>
      <use xlink:href="#DejaVuSans-20" x="2860.117188"/>
      <use xlink:href="#DejaVuSans-38" x="2891.904297"/>
      <use xlink:href="#DejaVuSans-2c" x="2955.527344"/>
      <use xlink:href="#DejaVuSans-20" x="2987.314453"/>
      <use xlink:href="#DejaVuSans-4e" x="3019.101562"/>
      <use xlink:href="#DejaVuSans-65" x="3093.90625"/>
      <use xlink:href="#DejaVuSans-67" x="3155.429688"/>
      <use xlink:href="#DejaVuSans-3a" x="3218.90625"/>
      <use xlink:href="#DejaVuSans-20" x="3252.597656"/>
      <use xlink:href="#DejaVuSans-38" x="3284.384766"/>
      <use xlink:href="#DejaVuSans-33" x="3348.007812"/>
     </g>
    </g>
    <g id="line2d_35">
     <path d="M 79.059062 476.665063 
L 89.059062 476.665063 
L 99.059062 476.665063 
" style="fill: none; stroke: #9467bd; stroke-width: 1.5; stroke-linecap: square"/>
    </g>
    <g id="text_20">
     <!-- AUC for Other = 0.939744, Count: 88, Pos: 10, Neg: 78 -->
     <g transform="translate(107.059062 480.165063) scale(0.1 -0.1)">
      <use xlink:href="#DejaVuSans-41"/>
      <use xlink:href="#DejaVuSans-55" x="68.408203"/>
      <use xlink:href="#DejaVuSans-43" x="141.601562"/>
      <use xlink:href="#DejaVuSans-20" x="211.425781"/>
      <use xlink:href="#DejaVuSans-66" x="243.212891"/>
      <use xlink:href="#DejaVuSans-6f" x="278.417969"/>
      <use xlink:href="#DejaVuSans-72" x="339.599609"/>
      <use xlink:href="#DejaVuSans-20" x="380.712891"/>
      <use xlink:href="#DejaVuSans-4f" x="412.5"/>
      <use xlink:href="#DejaVuSans-74" x="491.210938"/>
      <use xlink:href="#DejaVuSans-68" x="530.419922"/>
      <use xlink:href="#DejaVuSans-65" x="593.798828"/>
      <use xlink:href="#DejaVuSans-72" x="655.322266"/>
      <use xlink:href="#DejaVuSans-20" x="696.435547"/>
      <use xlink:href="#DejaVuSans-3d" x="728.222656"/>
      <use xlink:href="#DejaVuSans-20" x="812.011719"/>
      <use xlink:href="#DejaVuSans-30" x="843.798828"/>
      <use xlink:href="#DejaVuSans-2e" x="907.421875"/>
      <use xlink:href="#DejaVuSans-39" x="939.208984"/>
      <use xlink:href="#DejaVuSans-33" x="1002.832031"/>
      <use xlink:href="#DejaVuSans-39" x="1066.455078"/>
      <use xlink:href="#DejaVuSans-37" x="1130.078125"/>
      <use xlink:href="#DejaVuSans-34" x="1193.701172"/>
      <use xlink:href="#DejaVuSans-34" x="1257.324219"/>
      <use xlink:href="#DejaVuSans-2c" x="1320.947266"/>
      <use xlink:href="#DejaVuSans-20" x="1352.734375"/>
      <use xlink:href="#DejaVuSans-43" x="1384.521484"/>
      <use xlink:href="#DejaVuSans-6f" x="1454.345703"/>
      <use xlink:href="#DejaVuSans-75" x="1515.527344"/>
      <use xlink:href="#DejaVuSans-6e" x="1578.90625"/>
      <use xlink:href="#DejaVuSans-74" x="1642.285156"/>
      <use xlink:href="#DejaVuSans-3a" x="1681.494141"/>
      <use xlink:href="#DejaVuSans-20" x="1715.185547"/>
      <use xlink:href="#DejaVuSans-38" x="1746.972656"/>
      <use xlink:href="#DejaVuSans-38" x="1810.595703"/>
      <use xlink:href="#DejaVuSans-2c" x="1874.21875"/>
      <use xlink:href="#DejaVuSans-20" x="1906.005859"/>
      <use xlink:href="#DejaVuSans-50" x="1937.792969"/>
      <use xlink:href="#DejaVuSans-6f" x="1994.470703"/>
      <use xlink:href="#DejaVuSans-73" x="2055.652344"/>
      <use xlink:href="#DejaVuSans-3a" x="2107.751953"/>
      <use xlink:href="#DejaVuSans-20" x="2141.443359"/>
      <use xlink:href="#DejaVuSans-31" x="2173.230469"/>
      <use xlink:href="#DejaVuSans-30" x="2236.853516"/>
      <use xlink:href="#DejaVuSans-2c" x="2300.476562"/>
      <use xlink:href="#DejaVuSans-20" x="2332.263672"/>
      <use xlink:href="#DejaVuSans-4e" x="2364.050781"/>
      <use xlink:href="#DejaVuSans-65" x="2438.855469"/>
      <use xlink:href="#DejaVuSans-67" x="2500.378906"/>
      <use xlink:href="#DejaVuSans-3a" x="2563.855469"/>
      <use xlink:href="#DejaVuSans-20" x="2597.546875"/>
      <use xlink:href="#DejaVuSans-37" x="2629.333984"/>
      <use xlink:href="#DejaVuSans-38" x="2692.957031"/>
     </g>
    </g>
    <g id="line2d_36">
     <path d="M 79.059062 491.343187 
L 89.059062 491.343187 
L 99.059062 491.343187 
" style="fill: none; stroke-dasharray: 7.4,3.2; stroke-dashoffset: 0; stroke: #808080; stroke-width: 2"/>
    </g>
    <g id="text_21">
     <!-- Random Guess -->
     <g transform="translate(107.059062 494.843187) scale(0.1 -0.1)">
      <defs>
       <path id="DejaVuSans-47" d="M 3809 666 
L 3809 1919 
L 2778 1919 
L 2778 2438 
L 4434 2438 
L 4434 434 
Q 4069 175 3628 42 
Q 3188 -91 2688 -91 
Q 1594 -91 976 548 
Q 359 1188 359 2328 
Q 359 3472 976 4111 
Q 1594 4750 2688 4750 
Q 3144 4750 3555 4637 
Q 3966 4525 4313 4306 
L 4313 3634 
Q 3963 3931 3569 4081 
Q 3175 4231 2741 4231 
Q 1884 4231 1454 3753 
Q 1025 3275 1025 2328 
Q 1025 1384 1454 906 
Q 1884 428 2741 428 
Q 3075 428 3337 486 
Q 3600 544 3809 666 
z
" transform="scale(0.015625)"/>
      </defs>
      <use xlink:href="#DejaVuSans-52"/>
      <use xlink:href="#DejaVuSans-61" x="67.232422"/>
      <use xlink:href="#DejaVuSans-6e" x="128.511719"/>
      <use xlink:href="#DejaVuSans-64" x="191.890625"/>
      <use xlink:href="#DejaVuSans-6f" x="255.367188"/>
      <use xlink:href="#DejaVuSans-6d" x="316.548828"/>
      <use xlink:href="#DejaVuSans-20" x="413.960938"/>
      <use xlink:href="#DejaVuSans-47" x="445.748047"/>
      <use xlink:href="#DejaVuSans-75" x="523.238281"/>
      <use xlink:href="#DejaVuSans-65" x="586.617188"/>
      <use xlink:href="#DejaVuSans-73" x="648.140625"/>
      <use xlink:href="#DejaVuSans-73" x="700.240234"/>
     </g>
    </g>
   </g>
  </g>
 </g>
 <defs>
  <clipPath id="pb5830d2720">
   <rect x="45.716875" y="22.318125" width="446.4" height="332.64"/>
  </clipPath>
 </defs>
</svg>
