<?xml version="1.0" encoding="utf-8" standalone="no"?>
<!DOCTYPE svg PUBLIC "-//W3C//DTD SVG 1.1//EN"
  "http://www.w3.org/Graphics/SVG/1.1/DTD/svg11.dtd">
<svg xmlns:xlink="http://www.w3.org/1999/xlink" width="499.316875pt" height="508.122875pt" viewBox="0 0 499.316875 508.122875" xmlns="http://www.w3.org/2000/svg" version="1.1">
 <metadata>
  <rdf:RDF xmlns:dc="http://purl.org/dc/elements/1.1/" xmlns:cc="http://creativecommons.org/ns#" xmlns:rdf="http://www.w3.org/1999/02/22-rdf-syntax-ns#">
   <cc:Work>
    <dc:type rdf:resource="http://purl.org/dc/dcmitype/StillImage"/>
    <dc:date>2025-03-17T08:14:40.412141</dc:date>
    <dc:format>image/svg+xml</dc:format>
    <dc:creator>
     <cc:Agent>
      <dc:title>Matplotlib v3.9.2, https://matplotlib.org/</dc:title>
     </cc:Agent>
    </dc:creator>
   </cc:Work>
  </rdf:RDF>
 </metadata>
 <defs>
  <style type="text/css">*{stroke-linejoin: round; stroke-linecap: butt}</style>
 </defs>
 <g id="figure_1">
  <g id="patch_1">
   <path d="M 0 508.122875 
L 499.316875 508.122875 
L 499.316875 -0 
L 0 -0 
z
" style="fill: #ffffff"/>
  </g>
  <g id="axes_1">
   <g id="patch_2">
    <path d="M 45.716875 354.958125 
L 492.116875 354.958125 
L 492.116875 22.318125 
L 45.716875 22.318125 
z
" style="fill: #ffffff"/>
   </g>
   <g id="matplotlib.axis_1">
    <g id="xtick_1">
     <g id="line2d_1">
      <path d="M 66.007784 354.958125 
L 66.007784 22.318125 
" clip-path="url(#pa5d38d5985)" style="fill: none; stroke: #b0b0b0; stroke-width: 0.8; stroke-linecap: square"/>
     </g>
     <g id="line2d_2">
      <defs>
       <path id="m21bd42e78e" d="M 0 0 
L 0 3.5 
" style="stroke: #000000; stroke-width: 0.8"/>
      </defs>
      <g>
       <use xlink:href="#m21bd42e78e" x="66.007784" y="354.958125" style="stroke: #000000; stroke-width: 0.8"/>
      </g>
     </g>
     <g id="text_1">
      <!-- 0.0 -->
      <g transform="translate(58.056222 369.556563) scale(0.1 -0.1)">
       <defs>
        <path id="DejaVuSans-30" d="M 2034 4250 
Q 1547 4250 1301 3770 
Q 1056 3291 1056 2328 
Q 1056 1369 1301 889 
Q 1547 409 2034 409 
Q 2525 409 2770 889 
Q 3016 1369 3016 2328 
Q 3016 3291 2770 3770 
Q 2525 4250 2034 4250 
z
M 2034 4750 
Q 2819 4750 3233 4129 
Q 3647 3509 3647 2328 
Q 3647 1150 3233 529 
Q 2819 -91 2034 -91 
Q 1250 -91 836 529 
Q 422 1150 422 2328 
Q 422 3509 836 4129 
Q 1250 4750 2034 4750 
z
" transform="scale(0.015625)"/>
        <path id="DejaVuSans-2e" d="M 684 794 
L 1344 794 
L 1344 0 
L 684 0 
L 684 794 
z
" transform="scale(0.015625)"/>
       </defs>
       <use xlink:href="#DejaVuSans-30"/>
       <use xlink:href="#DejaVuSans-2e" x="63.623047"/>
       <use xlink:href="#DejaVuSans-30" x="95.410156"/>
      </g>
     </g>
    </g>
    <g id="xtick_2">
     <g id="line2d_3">
      <path d="M 147.17142 354.958125 
L 147.17142 22.318125 
" clip-path="url(#pa5d38d5985)" style="fill: none; stroke: #b0b0b0; stroke-width: 0.8; stroke-linecap: square"/>
     </g>
     <g id="line2d_4">
      <g>
       <use xlink:href="#m21bd42e78e" x="147.17142" y="354.958125" style="stroke: #000000; stroke-width: 0.8"/>
      </g>
     </g>
     <g id="text_2">
      <!-- 0.2 -->
      <g transform="translate(139.219858 369.556563) scale(0.1 -0.1)">
       <defs>
        <path id="DejaVuSans-32" d="M 1228 531 
L 3431 531 
L 3431 0 
L 469 0 
L 469 531 
Q 828 903 1448 1529 
Q 2069 2156 2228 2338 
Q 2531 2678 2651 2914 
Q 2772 3150 2772 3378 
Q 2772 3750 2511 3984 
Q 2250 4219 1831 4219 
Q 1534 4219 1204 4116 
Q 875 4013 500 3803 
L 500 4441 
Q 881 4594 1212 4672 
Q 1544 4750 1819 4750 
Q 2544 4750 2975 4387 
Q 3406 4025 3406 3419 
Q 3406 3131 3298 2873 
Q 3191 2616 2906 2266 
Q 2828 2175 2409 1742 
Q 1991 1309 1228 531 
z
" transform="scale(0.015625)"/>
       </defs>
       <use xlink:href="#DejaVuSans-30"/>
       <use xlink:href="#DejaVuSans-2e" x="63.623047"/>
       <use xlink:href="#DejaVuSans-32" x="95.410156"/>
      </g>
     </g>
    </g>
    <g id="xtick_3">
     <g id="line2d_5">
      <path d="M 228.335057 354.958125 
L 228.335057 22.318125 
" clip-path="url(#pa5d38d5985)" style="fill: none; stroke: #b0b0b0; stroke-width: 0.8; stroke-linecap: square"/>
     </g>
     <g id="line2d_6">
      <g>
       <use xlink:href="#m21bd42e78e" x="228.335057" y="354.958125" style="stroke: #000000; stroke-width: 0.8"/>
      </g>
     </g>
     <g id="text_3">
      <!-- 0.4 -->
      <g transform="translate(220.383494 369.556563) scale(0.1 -0.1)">
       <defs>
        <path id="DejaVuSans-34" d="M 2419 4116 
L 825 1625 
L 2419 1625 
L 2419 4116 
z
M 2253 4666 
L 3047 4666 
L 3047 1625 
L 3713 1625 
L 3713 1100 
L 3047 1100 
L 3047 0 
L 2419 0 
L 2419 1100 
L 313 1100 
L 313 1709 
L 2253 4666 
z
" transform="scale(0.015625)"/>
       </defs>
       <use xlink:href="#DejaVuSans-30"/>
       <use xlink:href="#DejaVuSans-2e" x="63.623047"/>
       <use xlink:href="#DejaVuSans-34" x="95.410156"/>
      </g>
     </g>
    </g>
    <g id="xtick_4">
     <g id="line2d_7">
      <path d="M 309.498693 354.958125 
L 309.498693 22.318125 
" clip-path="url(#pa5d38d5985)" style="fill: none; stroke: #b0b0b0; stroke-width: 0.8; stroke-linecap: square"/>
     </g>
     <g id="line2d_8">
      <g>
       <use xlink:href="#m21bd42e78e" x="309.498693" y="354.958125" style="stroke: #000000; stroke-width: 0.8"/>
      </g>
     </g>
     <g id="text_4">
      <!-- 0.6 -->
      <g transform="translate(301.547131 369.556563) scale(0.1 -0.1)">
       <defs>
        <path id="DejaVuSans-36" d="M 2113 2584 
Q 1688 2584 1439 2293 
Q 1191 2003 1191 1497 
Q 1191 994 1439 701 
Q 1688 409 2113 409 
Q 2538 409 2786 701 
Q 3034 994 3034 1497 
Q 3034 2003 2786 2293 
Q 2538 2584 2113 2584 
z
M 3366 4563 
L 3366 3988 
Q 3128 4100 2886 4159 
Q 2644 4219 2406 4219 
Q 1781 4219 1451 3797 
Q 1122 3375 1075 2522 
Q 1259 2794 1537 2939 
Q 1816 3084 2150 3084 
Q 2853 3084 3261 2657 
Q 3669 2231 3669 1497 
Q 3669 778 3244 343 
Q 2819 -91 2113 -91 
Q 1303 -91 875 529 
Q 447 1150 447 2328 
Q 447 3434 972 4092 
Q 1497 4750 2381 4750 
Q 2619 4750 2861 4703 
Q 3103 4656 3366 4563 
z
" transform="scale(0.015625)"/>
       </defs>
       <use xlink:href="#DejaVuSans-30"/>
       <use xlink:href="#DejaVuSans-2e" x="63.623047"/>
       <use xlink:href="#DejaVuSans-36" x="95.410156"/>
      </g>
     </g>
    </g>
    <g id="xtick_5">
     <g id="line2d_9">
      <path d="M 390.66233 354.958125 
L 390.66233 22.318125 
" clip-path="url(#pa5d38d5985)" style="fill: none; stroke: #b0b0b0; stroke-width: 0.8; stroke-linecap: square"/>
     </g>
     <g id="line2d_10">
      <g>
       <use xlink:href="#m21bd42e78e" x="390.66233" y="354.958125" style="stroke: #000000; stroke-width: 0.8"/>
      </g>
     </g>
     <g id="text_5">
      <!-- 0.8 -->
      <g transform="translate(382.710767 369.556563) scale(0.1 -0.1)">
       <defs>
        <path id="DejaVuSans-38" d="M 2034 2216 
Q 1584 2216 1326 1975 
Q 1069 1734 1069 1313 
Q 1069 891 1326 650 
Q 1584 409 2034 409 
Q 2484 409 2743 651 
Q 3003 894 3003 1313 
Q 3003 1734 2745 1975 
Q 2488 2216 2034 2216 
z
M 1403 2484 
Q 997 2584 770 2862 
Q 544 3141 544 3541 
Q 544 4100 942 4425 
Q 1341 4750 2034 4750 
Q 2731 4750 3128 4425 
Q 3525 4100 3525 3541 
Q 3525 3141 3298 2862 
Q 3072 2584 2669 2484 
Q 3125 2378 3379 2068 
Q 3634 1759 3634 1313 
Q 3634 634 3220 271 
Q 2806 -91 2034 -91 
Q 1263 -91 848 271 
Q 434 634 434 1313 
Q 434 1759 690 2068 
Q 947 2378 1403 2484 
z
M 1172 3481 
Q 1172 3119 1398 2916 
Q 1625 2713 2034 2713 
Q 2441 2713 2670 2916 
Q 2900 3119 2900 3481 
Q 2900 3844 2670 4047 
Q 2441 4250 2034 4250 
Q 1625 4250 1398 4047 
Q 1172 3844 1172 3481 
z
" transform="scale(0.015625)"/>
       </defs>
       <use xlink:href="#DejaVuSans-30"/>
       <use xlink:href="#DejaVuSans-2e" x="63.623047"/>
       <use xlink:href="#DejaVuSans-38" x="95.410156"/>
      </g>
     </g>
    </g>
    <g id="xtick_6">
     <g id="line2d_11">
      <path d="M 471.825966 354.958125 
L 471.825966 22.318125 
" clip-path="url(#pa5d38d5985)" style="fill: none; stroke: #b0b0b0; stroke-width: 0.8; stroke-linecap: square"/>
     </g>
     <g id="line2d_12">
      <g>
       <use xlink:href="#m21bd42e78e" x="471.825966" y="354.958125" style="stroke: #000000; stroke-width: 0.8"/>
      </g>
     </g>
     <g id="text_6">
      <!-- 1.0 -->
      <g transform="translate(463.874403 369.556563) scale(0.1 -0.1)">
       <defs>
        <path id="DejaVuSans-31" d="M 794 531 
L 1825 531 
L 1825 4091 
L 703 3866 
L 703 4441 
L 1819 4666 
L 2450 4666 
L 2450 531 
L 3481 531 
L 3481 0 
L 794 0 
L 794 531 
z
" transform="scale(0.015625)"/>
       </defs>
       <use xlink:href="#DejaVuSans-31"/>
       <use xlink:href="#DejaVuSans-2e" x="63.623047"/>
       <use xlink:href="#DejaVuSans-30" x="95.410156"/>
      </g>
     </g>
    </g>
    <g id="text_7">
     <!-- False Positive Rate -->
     <g transform="translate(213.157188 384.754375) scale(0.12 -0.12)">
      <defs>
       <path id="DejaVuSans-46" d="M 628 4666 
L 3309 4666 
L 3309 4134 
L 1259 4134 
L 1259 2759 
L 3109 2759 
L 3109 2228 
L 1259 2228 
L 1259 0 
L 628 0 
L 628 4666 
z
" transform="scale(0.015625)"/>
       <path id="DejaVuSans-61" d="M 2194 1759 
Q 1497 1759 1228 1600 
Q 959 1441 959 1056 
Q 959 750 1161 570 
Q 1363 391 1709 391 
Q 2188 391 2477 730 
Q 2766 1069 2766 1631 
L 2766 1759 
L 2194 1759 
z
M 3341 1997 
L 3341 0 
L 2766 0 
L 2766 531 
Q 2569 213 2275 61 
Q 1981 -91 1556 -91 
Q 1019 -91 701 211 
Q 384 513 384 1019 
Q 384 1609 779 1909 
Q 1175 2209 1959 2209 
L 2766 2209 
L 2766 2266 
Q 2766 2663 2505 2880 
Q 2244 3097 1772 3097 
Q 1472 3097 1187 3025 
Q 903 2953 641 2809 
L 641 3341 
Q 956 3463 1253 3523 
Q 1550 3584 1831 3584 
Q 2591 3584 2966 3190 
Q 3341 2797 3341 1997 
z
" transform="scale(0.015625)"/>
       <path id="DejaVuSans-6c" d="M 603 4863 
L 1178 4863 
L 1178 0 
L 603 0 
L 603 4863 
z
" transform="scale(0.015625)"/>
       <path id="DejaVuSans-73" d="M 2834 3397 
L 2834 2853 
Q 2591 2978 2328 3040 
Q 2066 3103 1784 3103 
Q 1356 3103 1142 2972 
Q 928 2841 928 2578 
Q 928 2378 1081 2264 
Q 1234 2150 1697 2047 
L 1894 2003 
Q 2506 1872 2764 1633 
Q 3022 1394 3022 966 
Q 3022 478 2636 193 
Q 2250 -91 1575 -91 
Q 1294 -91 989 -36 
Q 684 19 347 128 
L 347 722 
Q 666 556 975 473 
Q 1284 391 1588 391 
Q 1994 391 2212 530 
Q 2431 669 2431 922 
Q 2431 1156 2273 1281 
Q 2116 1406 1581 1522 
L 1381 1569 
Q 847 1681 609 1914 
Q 372 2147 372 2553 
Q 372 3047 722 3315 
Q 1072 3584 1716 3584 
Q 2034 3584 2315 3537 
Q 2597 3491 2834 3397 
z
" transform="scale(0.015625)"/>
       <path id="DejaVuSans-65" d="M 3597 1894 
L 3597 1613 
L 953 1613 
Q 991 1019 1311 708 
Q 1631 397 2203 397 
Q 2534 397 2845 478 
Q 3156 559 3463 722 
L 3463 178 
Q 3153 47 2828 -22 
Q 2503 -91 2169 -91 
Q 1331 -91 842 396 
Q 353 884 353 1716 
Q 353 2575 817 3079 
Q 1281 3584 2069 3584 
Q 2775 3584 3186 3129 
Q 3597 2675 3597 1894 
z
M 3022 2063 
Q 3016 2534 2758 2815 
Q 2500 3097 2075 3097 
Q 1594 3097 1305 2825 
Q 1016 2553 972 2059 
L 3022 2063 
z
" transform="scale(0.015625)"/>
       <path id="DejaVuSans-20" transform="scale(0.015625)"/>
       <path id="DejaVuSans-50" d="M 1259 4147 
L 1259 2394 
L 2053 2394 
Q 2494 2394 2734 2622 
Q 2975 2850 2975 3272 
Q 2975 3691 2734 3919 
Q 2494 4147 2053 4147 
L 1259 4147 
z
M 628 4666 
L 2053 4666 
Q 2838 4666 3239 4311 
Q 3641 3956 3641 3272 
Q 3641 2581 3239 2228 
Q 2838 1875 2053 1875 
L 1259 1875 
L 1259 0 
L 628 0 
L 628 4666 
z
" transform="scale(0.015625)"/>
       <path id="DejaVuSans-6f" d="M 1959 3097 
Q 1497 3097 1228 2736 
Q 959 2375 959 1747 
Q 959 1119 1226 758 
Q 1494 397 1959 397 
Q 2419 397 2687 759 
Q 2956 1122 2956 1747 
Q 2956 2369 2687 2733 
Q 2419 3097 1959 3097 
z
M 1959 3584 
Q 2709 3584 3137 3096 
Q 3566 2609 3566 1747 
Q 3566 888 3137 398 
Q 2709 -91 1959 -91 
Q 1206 -91 779 398 
Q 353 888 353 1747 
Q 353 2609 779 3096 
Q 1206 3584 1959 3584 
z
" transform="scale(0.015625)"/>
       <path id="DejaVuSans-69" d="M 603 3500 
L 1178 3500 
L 1178 0 
L 603 0 
L 603 3500 
z
M 603 4863 
L 1178 4863 
L 1178 4134 
L 603 4134 
L 603 4863 
z
" transform="scale(0.015625)"/>
       <path id="DejaVuSans-74" d="M 1172 4494 
L 1172 3500 
L 2356 3500 
L 2356 3053 
L 1172 3053 
L 1172 1153 
Q 1172 725 1289 603 
Q 1406 481 1766 481 
L 2356 481 
L 2356 0 
L 1766 0 
Q 1100 0 847 248 
Q 594 497 594 1153 
L 594 3053 
L 172 3053 
L 172 3500 
L 594 3500 
L 594 4494 
L 1172 4494 
z
" transform="scale(0.015625)"/>
       <path id="DejaVuSans-76" d="M 191 3500 
L 800 3500 
L 1894 563 
L 2988 3500 
L 3597 3500 
L 2284 0 
L 1503 0 
L 191 3500 
z
" transform="scale(0.015625)"/>
       <path id="DejaVuSans-52" d="M 2841 2188 
Q 3044 2119 3236 1894 
Q 3428 1669 3622 1275 
L 4263 0 
L 3584 0 
L 2988 1197 
Q 2756 1666 2539 1819 
Q 2322 1972 1947 1972 
L 1259 1972 
L 1259 0 
L 628 0 
L 628 4666 
L 2053 4666 
Q 2853 4666 3247 4331 
Q 3641 3997 3641 3322 
Q 3641 2881 3436 2590 
Q 3231 2300 2841 2188 
z
M 1259 4147 
L 1259 2491 
L 2053 2491 
Q 2509 2491 2742 2702 
Q 2975 2913 2975 3322 
Q 2975 3731 2742 3939 
Q 2509 4147 2053 4147 
L 1259 4147 
z
" transform="scale(0.015625)"/>
      </defs>
      <use xlink:href="#DejaVuSans-46"/>
      <use xlink:href="#DejaVuSans-61" x="48.394531"/>
      <use xlink:href="#DejaVuSans-6c" x="109.673828"/>
      <use xlink:href="#DejaVuSans-73" x="137.457031"/>
      <use xlink:href="#DejaVuSans-65" x="189.556641"/>
      <use xlink:href="#DejaVuSans-20" x="251.080078"/>
      <use xlink:href="#DejaVuSans-50" x="282.867188"/>
      <use xlink:href="#DejaVuSans-6f" x="339.544922"/>
      <use xlink:href="#DejaVuSans-73" x="400.726562"/>
      <use xlink:href="#DejaVuSans-69" x="452.826172"/>
      <use xlink:href="#DejaVuSans-74" x="480.609375"/>
      <use xlink:href="#DejaVuSans-69" x="519.818359"/>
      <use xlink:href="#DejaVuSans-76" x="547.601562"/>
      <use xlink:href="#DejaVuSans-65" x="606.78125"/>
      <use xlink:href="#DejaVuSans-20" x="668.304688"/>
      <use xlink:href="#DejaVuSans-52" x="700.091797"/>
      <use xlink:href="#DejaVuSans-61" x="767.324219"/>
      <use xlink:href="#DejaVuSans-74" x="828.603516"/>
      <use xlink:href="#DejaVuSans-65" x="867.8125"/>
     </g>
    </g>
   </g>
   <g id="matplotlib.axis_2">
    <g id="ytick_1">
     <g id="line2d_13">
      <path d="M 45.716875 339.838125 
L 492.116875 339.838125 
" clip-path="url(#pa5d38d5985)" style="fill: none; stroke: #b0b0b0; stroke-width: 0.8; stroke-linecap: square"/>
     </g>
     <g id="line2d_14">
      <defs>
       <path id="m3289291c5e" d="M 0 0 
L -3.5 0 
" style="stroke: #000000; stroke-width: 0.8"/>
      </defs>
      <g>
       <use xlink:href="#m3289291c5e" x="45.716875" y="339.838125" style="stroke: #000000; stroke-width: 0.8"/>
      </g>
     </g>
     <g id="text_8">
      <!-- 0.0 -->
      <g transform="translate(22.81375 343.637344) scale(0.1 -0.1)">
       <use xlink:href="#DejaVuSans-30"/>
       <use xlink:href="#DejaVuSans-2e" x="63.623047"/>
       <use xlink:href="#DejaVuSans-30" x="95.410156"/>
      </g>
     </g>
    </g>
    <g id="ytick_2">
     <g id="line2d_15">
      <path d="M 45.716875 279.358125 
L 492.116875 279.358125 
" clip-path="url(#pa5d38d5985)" style="fill: none; stroke: #b0b0b0; stroke-width: 0.8; stroke-linecap: square"/>
     </g>
     <g id="line2d_16">
      <g>
       <use xlink:href="#m3289291c5e" x="45.716875" y="279.358125" style="stroke: #000000; stroke-width: 0.8"/>
      </g>
     </g>
     <g id="text_9">
      <!-- 0.2 -->
      <g transform="translate(22.81375 283.157344) scale(0.1 -0.1)">
       <use xlink:href="#DejaVuSans-30"/>
       <use xlink:href="#DejaVuSans-2e" x="63.623047"/>
       <use xlink:href="#DejaVuSans-32" x="95.410156"/>
      </g>
     </g>
    </g>
    <g id="ytick_3">
     <g id="line2d_17">
      <path d="M 45.716875 218.878125 
L 492.116875 218.878125 
" clip-path="url(#pa5d38d5985)" style="fill: none; stroke: #b0b0b0; stroke-width: 0.8; stroke-linecap: square"/>
     </g>
     <g id="line2d_18">
      <g>
       <use xlink:href="#m3289291c5e" x="45.716875" y="218.878125" style="stroke: #000000; stroke-width: 0.8"/>
      </g>
     </g>
     <g id="text_10">
      <!-- 0.4 -->
      <g transform="translate(22.81375 222.677344) scale(0.1 -0.1)">
       <use xlink:href="#DejaVuSans-30"/>
       <use xlink:href="#DejaVuSans-2e" x="63.623047"/>
       <use xlink:href="#DejaVuSans-34" x="95.410156"/>
      </g>
     </g>
    </g>
    <g id="ytick_4">
     <g id="line2d_19">
      <path d="M 45.716875 158.398125 
L 492.116875 158.398125 
" clip-path="url(#pa5d38d5985)" style="fill: none; stroke: #b0b0b0; stroke-width: 0.8; stroke-linecap: square"/>
     </g>
     <g id="line2d_20">
      <g>
       <use xlink:href="#m3289291c5e" x="45.716875" y="158.398125" style="stroke: #000000; stroke-width: 0.8"/>
      </g>
     </g>
     <g id="text_11">
      <!-- 0.6 -->
      <g transform="translate(22.81375 162.197344) scale(0.1 -0.1)">
       <use xlink:href="#DejaVuSans-30"/>
       <use xlink:href="#DejaVuSans-2e" x="63.623047"/>
       <use xlink:href="#DejaVuSans-36" x="95.410156"/>
      </g>
     </g>
    </g>
    <g id="ytick_5">
     <g id="line2d_21">
      <path d="M 45.716875 97.918125 
L 492.116875 97.918125 
" clip-path="url(#pa5d38d5985)" style="fill: none; stroke: #b0b0b0; stroke-width: 0.8; stroke-linecap: square"/>
     </g>
     <g id="line2d_22">
      <g>
       <use xlink:href="#m3289291c5e" x="45.716875" y="97.918125" style="stroke: #000000; stroke-width: 0.8"/>
      </g>
     </g>
     <g id="text_12">
      <!-- 0.8 -->
      <g transform="translate(22.81375 101.717344) scale(0.1 -0.1)">
       <use xlink:href="#DejaVuSans-30"/>
       <use xlink:href="#DejaVuSans-2e" x="63.623047"/>
       <use xlink:href="#DejaVuSans-38" x="95.410156"/>
      </g>
     </g>
    </g>
    <g id="ytick_6">
     <g id="line2d_23">
      <path d="M 45.716875 37.438125 
L 492.116875 37.438125 
" clip-path="url(#pa5d38d5985)" style="fill: none; stroke: #b0b0b0; stroke-width: 0.8; stroke-linecap: square"/>
     </g>
     <g id="line2d_24">
      <g>
       <use xlink:href="#m3289291c5e" x="45.716875" y="37.438125" style="stroke: #000000; stroke-width: 0.8"/>
      </g>
     </g>
     <g id="text_13">
      <!-- 1.0 -->
      <g transform="translate(22.81375 41.237344) scale(0.1 -0.1)">
       <use xlink:href="#DejaVuSans-31"/>
       <use xlink:href="#DejaVuSans-2e" x="63.623047"/>
       <use xlink:href="#DejaVuSans-30" x="95.410156"/>
      </g>
     </g>
    </g>
    <g id="text_14">
     <!-- True Positive Rate -->
     <g transform="translate(16.318125 242.07375) rotate(-90) scale(0.12 -0.12)">
      <defs>
       <path id="DejaVuSans-54" d="M -19 4666 
L 3928 4666 
L 3928 4134 
L 2272 4134 
L 2272 0 
L 1638 0 
L 1638 4134 
L -19 4134 
L -19 4666 
z
" transform="scale(0.015625)"/>
       <path id="DejaVuSans-72" d="M 2631 2963 
Q 2534 3019 2420 3045 
Q 2306 3072 2169 3072 
Q 1681 3072 1420 2755 
Q 1159 2438 1159 1844 
L 1159 0 
L 581 0 
L 581 3500 
L 1159 3500 
L 1159 2956 
Q 1341 3275 1631 3429 
Q 1922 3584 2338 3584 
Q 2397 3584 2469 3576 
Q 2541 3569 2628 3553 
L 2631 2963 
z
" transform="scale(0.015625)"/>
       <path id="DejaVuSans-75" d="M 544 1381 
L 544 3500 
L 1119 3500 
L 1119 1403 
Q 1119 906 1312 657 
Q 1506 409 1894 409 
Q 2359 409 2629 706 
Q 2900 1003 2900 1516 
L 2900 3500 
L 3475 3500 
L 3475 0 
L 2900 0 
L 2900 538 
Q 2691 219 2414 64 
Q 2138 -91 1772 -91 
Q 1169 -91 856 284 
Q 544 659 544 1381 
z
M 1991 3584 
L 1991 3584 
z
" transform="scale(0.015625)"/>
      </defs>
      <use xlink:href="#DejaVuSans-54"/>
      <use xlink:href="#DejaVuSans-72" x="46.333984"/>
      <use xlink:href="#DejaVuSans-75" x="87.447266"/>
      <use xlink:href="#DejaVuSans-65" x="150.826172"/>
      <use xlink:href="#DejaVuSans-20" x="212.349609"/>
      <use xlink:href="#DejaVuSans-50" x="244.136719"/>
      <use xlink:href="#DejaVuSans-6f" x="300.814453"/>
      <use xlink:href="#DejaVuSans-73" x="361.996094"/>
      <use xlink:href="#DejaVuSans-69" x="414.095703"/>
      <use xlink:href="#DejaVuSans-74" x="441.878906"/>
      <use xlink:href="#DejaVuSans-69" x="481.087891"/>
      <use xlink:href="#DejaVuSans-76" x="508.871094"/>
      <use xlink:href="#DejaVuSans-65" x="568.050781"/>
      <use xlink:href="#DejaVuSans-20" x="629.574219"/>
      <use xlink:href="#DejaVuSans-52" x="661.361328"/>
      <use xlink:href="#DejaVuSans-61" x="728.59375"/>
      <use xlink:href="#DejaVuSans-74" x="789.873047"/>
      <use xlink:href="#DejaVuSans-65" x="829.082031"/>
     </g>
    </g>
   </g>
   <g id="line2d_25">
    <path d="M 66.007784 339.838125 
L 66.334057 268.910035 
L 66.334057 266.361721 
L 66.399312 263.813406 
L 66.399312 263.388687 
L 66.464566 262.256103 
L 67.247621 258.716777 
L 67.37813 257.867338 
L 67.704403 257.159473 
L 67.704403 255.319024 
L 67.704403 254.752732 
L 67.704403 254.328013 
L 67.834912 253.903294 
L 67.900167 253.478574 
L 68.030676 253.478574 
L 68.09593 252.912282 
L 69.074749 243.00217 
L 69.466276 242.435878 
L 69.531531 242.294305 
L 80.494299 208.883069 
L 80.624808 208.741496 
L 80.690063 208.741496 
L 80.755317 208.45835 
L 82.712954 205.485316 
L 82.843464 205.485316 
L 82.908718 205.20217 
L 83.430755 204.919024 
L 92.174867 185.381945 
L 93.871486 183.966215 
L 96.220651 181.134754 
L 96.677433 180.426889 
L 96.938451 180.426889 
L 104.377472 168.676327 
L 105.421545 165.703294 
L 105.747818 165.561721 
L 106.269855 165.278574 
L 106.400364 164.853855 
L 108.48851 161.456103 
L 108.553765 161.456103 
L 112.991076 156.2179 
L 113.186839 156.2179 
L 122.909771 146.449361 
L 134.264066 133.283069 
L 134.394575 133.283069 
L 139.419177 129.60217 
L 159.387076 114.737001 
L 160.561659 114.453855 
L 160.887931 114.453855 
L 161.409968 114.170709 
L 161.801495 114.029136 
L 162.388787 113.887563 
L 177.005811 104.40217 
L 177.332084 104.40217 
L 177.919375 103.694305 
L 178.963448 102.844867 
L 179.485484 102.703294 
L 179.615994 102.703294 
L 179.942266 102.703294 
L 180.725321 101.995428 
L 208.915296 87.696552 
L 209.763606 87.13026 
L 212.700061 84.865091 
L 220.465355 78.211159 
L 229.796759 74.388687 
L 229.992523 74.247114 
L 230.318796 74.105541 
L 230.38405 74.105541 
L 233.451015 73.397676 
L 233.646779 73.256103 
L 235.212889 72.406664 
L 246.50193 68.159473 
L 247.676512 67.876327 
L 248.002785 67.876327 
L 250.417204 66.177451 
L 251.200259 66.035878 
L 254.07146 64.620147 
L 254.136714 64.478574 
L 258.051989 63.204417 
L 258.508771 63.062844 
L 258.769789 63.062844 
L 259.813862 62.921271 
L 268.49272 60.939249 
L 269.667303 60.797676 
L 271.690194 60.372956 
L 271.820703 60.231383 
L 279.19447 58.815653 
L 279.520743 57.966215 
L 300.663224 52.869586 
L 301.903061 52.444867 
L 302.490352 52.444867 
L 303.534425 52.303294 
L 306.536136 52.020147 
L 306.666645 52.020147 
L 313.583629 50.74599 
L 323.176051 49.471833 
L 323.763343 48.905541 
L 324.024361 48.480822 
L 333.877801 47.48981 
L 338.119348 46.923518 
L 338.445621 46.498799 
L 338.837149 46.07408 
L 339.359185 46.07408 
L 339.815967 45.932507 
L 340.468513 45.790934 
L 350.060935 44.799923 
L 353.388918 44.516777 
L 357.499956 43.950485 
L 363.111849 43.667338 
L 366.505087 43.667338 
L 368.005942 42.676327 
L 370.68138 42.534754 
L 373.813599 42.251608 
L 389.931478 41.968462 
L 393.585734 41.543743 
L 399.393391 41.543743 
L 471.825966 37.438125 
" clip-path="url(#pa5d38d5985)" style="fill: none; stroke: #1f77b4; stroke-width: 1.5; stroke-linecap: square"/>
   </g>
   <g id="line2d_26">
    <path d="M 66.007784 339.838125 
L 66.007784 262.157391 
L 66.007784 256.608767 
L 66.007784 253.834455 
L 66.989207 253.834455 
L 67.479918 251.060143 
L 67.970629 251.060143 
L 67.970629 248.285831 
L 70.424185 220.542712 
L 71.405608 214.994088 
L 72.38703 214.994088 
L 79.747698 192.799593 
L 80.729121 192.799593 
L 85.145522 190.025281 
L 91.034056 187.250969 
L 92.015479 187.250969 
L 93.487613 187.250969 
L 93.487613 184.476657 
L 95.450457 181.702345 
L 96.43188 178.928033 
L 99.866859 178.928033 
L 103.792548 176.153721 
L 103.792548 173.379409 
L 106.246104 165.056474 
L 128.818821 140.087666 
L 130.290954 140.087666 
L 131.272377 140.087666 
L 132.253799 140.087666 
L 137.651623 134.539042 
L 138.142334 134.539042 
L 170.529275 95.698675 
L 172.49212 95.698675 
L 179.362077 92.924364 
L 197.518392 84.601428 
L 200.953371 81.827116 
L 201.444082 81.827116 
L 220.581819 79.052804 
L 222.053953 79.052804 
L 223.035376 79.052804 
L 223.526087 76.278492 
L 225.979643 73.50418 
L 227.942488 67.955556 
L 228.433199 67.955556 
L 228.92391 65.181244 
L 236.284579 65.181244 
L 240.210268 65.181244 
L 242.663825 62.406932 
L 262.292273 56.858308 
L 263.273696 56.858308 
L 305.474861 54.083997 
L 307.437706 51.309685 
L 312.344818 45.761061 
L 322.159043 45.761061 
L 324.612599 45.761061 
L 336.880379 40.212437 
L 341.29678 40.212437 
L 342.768914 40.212437 
L 343.750337 40.212437 
L 345.22247 40.212437 
L 359.943807 40.212437 
L 362.888074 40.212437 
L 371.720876 40.212437 
L 377.609411 40.212437 
L 378.590833 40.212437 
L 380.553678 40.212437 
L 387.914347 40.212437 
L 409.014929 40.212437 
L 409.505641 40.212437 
L 412.449908 40.212437 
L 471.825966 37.438125 
" clip-path="url(#pa5d38d5985)" style="fill: none; stroke: #ff7f0e; stroke-width: 1.5; stroke-linecap: square"/>
   </g>
   <g id="line2d_27">
    <path d="M 66.007784 339.838125 
L 66.007784 271.294125 
L 66.007784 263.230125 
L 66.007784 259.198125 
L 66.007784 251.134125 
L 76.877914 235.006125 
L 85.936356 198.718125 
L 85.936356 186.622125 
L 105.864927 158.398125 
L 113.11168 158.398125 
L 114.923369 158.398125 
L 118.546745 158.398125 
L 120.358433 154.366125 
L 122.170122 154.366125 
L 123.98181 146.302125 
L 133.040252 138.238125 
L 142.098693 134.206125 
L 149.345446 126.142125 
L 163.838953 118.078125 
L 178.332459 105.982125 
L 181.955836 93.886125 
L 205.507784 85.822125 
L 207.319472 85.822125 
L 212.754537 85.822125 
L 230.87142 69.694125 
L 238.118174 69.694125 
L 239.929862 69.694125 
L 248.988304 61.630125 
L 256.235057 61.630125 
L 258.046745 61.630125 
L 261.670122 57.598125 
L 265.293498 57.598125 
L 277.975317 57.598125 
L 283.410381 53.566125 
L 285.22207 49.534125 
L 305.150641 49.534125 
L 306.96233 49.534125 
L 317.832459 45.502125 
L 321.455836 45.502125 
L 328.702589 45.502125 
L 339.572719 45.502125 
L 350.442849 41.470125 
L 357.689602 41.470125 
L 357.689602 37.438125 
L 361.312979 37.438125 
L 364.936356 37.438125 
L 386.676615 37.438125 
L 393.923369 37.438125 
L 471.825966 37.438125 
" clip-path="url(#pa5d38d5985)" style="fill: none; stroke: #2ca02c; stroke-width: 1.5; stroke-linecap: square"/>
   </g>
   <g id="line2d_28">
    <path d="M 66.007784 339.838125 
L 66.007784 302.038125 
L 70.89716 302.038125 
L 100.233414 302.038125 
L 114.901541 302.038125 
L 119.790917 264.238125 
L 149.127171 264.238125 
L 173.574049 226.438125 
L 183.352801 188.638125 
L 202.910303 188.638125 
L 207.799679 188.638125 
L 217.57843 150.838125 
L 237.135933 150.838125 
L 266.472187 150.838125 
L 315.365944 113.038125 
L 325.144695 113.038125 
L 334.923447 75.238125 
L 344.702198 75.238125 
L 359.370325 75.238125 
L 388.706579 75.238125 
L 471.825966 37.438125 
" clip-path="url(#pa5d38d5985)" style="fill: none; stroke: #d62728; stroke-width: 1.5; stroke-linecap: square"/>
   </g>
   <g id="line2d_29">
    <path d="M 66.007784 339.838125 
L 66.007784 279.358125 
L 66.007784 188.638125 
L 76.413378 188.638125 
L 81.616176 158.398125 
L 86.818973 158.398125 
L 86.818973 128.158125 
L 97.224567 128.158125 
L 112.832959 128.158125 
L 133.644148 97.918125 
L 154.455337 97.918125 
L 170.063728 67.678125 
L 185.67212 67.678125 
L 206.483309 67.678125 
L 216.888903 37.438125 
L 227.294497 37.438125 
L 258.511281 37.438125 
L 274.119672 37.438125 
L 284.525267 37.438125 
L 305.336455 37.438125 
L 315.74205 37.438125 
L 320.944847 37.438125 
L 331.350441 37.438125 
L 367.770022 37.438125 
L 471.825966 37.438125 
" clip-path="url(#pa5d38d5985)" style="fill: none; stroke: #9467bd; stroke-width: 1.5; stroke-linecap: square"/>
   </g>
   <g id="line2d_30">
    <path d="M 66.007784 339.838125 
L 471.825966 37.438125 
" clip-path="url(#pa5d38d5985)" style="fill: none; stroke-dasharray: 7.4,3.2; stroke-dashoffset: 0; stroke: #808080; stroke-width: 2"/>
   </g>
   <g id="patch_3">
    <path d="M 45.716875 354.958125 
L 45.716875 22.318125 
" style="fill: none; stroke: #000000; stroke-width: 0.8; stroke-linejoin: miter; stroke-linecap: square"/>
   </g>
   <g id="patch_4">
    <path d="M 492.116875 354.958125 
L 492.116875 22.318125 
" style="fill: none; stroke: #000000; stroke-width: 0.8; stroke-linejoin: miter; stroke-linecap: square"/>
   </g>
   <g id="patch_5">
    <path d="M 45.716875 354.958125 
L 492.116875 354.958125 
" style="fill: none; stroke: #000000; stroke-width: 0.8; stroke-linejoin: miter; stroke-linecap: square"/>
   </g>
   <g id="patch_6">
    <path d="M 45.716875 22.318125 
L 492.116875 22.318125 
" style="fill: none; stroke: #000000; stroke-width: 0.8; stroke-linejoin: miter; stroke-linecap: square"/>
   </g>
   <g id="text_15">
    <!-- ROC Curve: Random Forest Classifier -->
    <g transform="translate(157.85125 16.318125) scale(0.12 -0.12)">
     <defs>
      <path id="DejaVuSans-4f" d="M 2522 4238 
Q 1834 4238 1429 3725 
Q 1025 3213 1025 2328 
Q 1025 1447 1429 934 
Q 1834 422 2522 422 
Q 3209 422 3611 934 
Q 4013 1447 4013 2328 
Q 4013 3213 3611 3725 
Q 3209 4238 2522 4238 
z
M 2522 4750 
Q 3503 4750 4090 4092 
Q 4678 3434 4678 2328 
Q 4678 1225 4090 567 
Q 3503 -91 2522 -91 
Q 1538 -91 948 565 
Q 359 1222 359 2328 
Q 359 3434 948 4092 
Q 1538 4750 2522 4750 
z
" transform="scale(0.015625)"/>
      <path id="DejaVuSans-43" d="M 4122 4306 
L 4122 3641 
Q 3803 3938 3442 4084 
Q 3081 4231 2675 4231 
Q 1875 4231 1450 3742 
Q 1025 3253 1025 2328 
Q 1025 1406 1450 917 
Q 1875 428 2675 428 
Q 3081 428 3442 575 
Q 3803 722 4122 1019 
L 4122 359 
Q 3791 134 3420 21 
Q 3050 -91 2638 -91 
Q 1578 -91 968 557 
Q 359 1206 359 2328 
Q 359 3453 968 4101 
Q 1578 4750 2638 4750 
Q 3056 4750 3426 4639 
Q 3797 4528 4122 4306 
z
" transform="scale(0.015625)"/>
      <path id="DejaVuSans-3a" d="M 750 794 
L 1409 794 
L 1409 0 
L 750 0 
L 750 794 
z
M 750 3309 
L 1409 3309 
L 1409 2516 
L 750 2516 
L 750 3309 
z
" transform="scale(0.015625)"/>
      <path id="DejaVuSans-6e" d="M 3513 2113 
L 3513 0 
L 2938 0 
L 2938 2094 
Q 2938 2591 2744 2837 
Q 2550 3084 2163 3084 
Q 1697 3084 1428 2787 
Q 1159 2491 1159 1978 
L 1159 0 
L 581 0 
L 581 3500 
L 1159 3500 
L 1159 2956 
Q 1366 3272 1645 3428 
Q 1925 3584 2291 3584 
Q 2894 3584 3203 3211 
Q 3513 2838 3513 2113 
z
" transform="scale(0.015625)"/>
      <path id="DejaVuSans-64" d="M 2906 2969 
L 2906 4863 
L 3481 4863 
L 3481 0 
L 2906 0 
L 2906 525 
Q 2725 213 2448 61 
Q 2172 -91 1784 -91 
Q 1150 -91 751 415 
Q 353 922 353 1747 
Q 353 2572 751 3078 
Q 1150 3584 1784 3584 
Q 2172 3584 2448 3432 
Q 2725 3281 2906 2969 
z
M 947 1747 
Q 947 1113 1208 752 
Q 1469 391 1925 391 
Q 2381 391 2643 752 
Q 2906 1113 2906 1747 
Q 2906 2381 2643 2742 
Q 2381 3103 1925 3103 
Q 1469 3103 1208 2742 
Q 947 2381 947 1747 
z
" transform="scale(0.015625)"/>
      <path id="DejaVuSans-6d" d="M 3328 2828 
Q 3544 3216 3844 3400 
Q 4144 3584 4550 3584 
Q 5097 3584 5394 3201 
Q 5691 2819 5691 2113 
L 5691 0 
L 5113 0 
L 5113 2094 
Q 5113 2597 4934 2840 
Q 4756 3084 4391 3084 
Q 3944 3084 3684 2787 
Q 3425 2491 3425 1978 
L 3425 0 
L 2847 0 
L 2847 2094 
Q 2847 2600 2669 2842 
Q 2491 3084 2119 3084 
Q 1678 3084 1418 2786 
Q 1159 2488 1159 1978 
L 1159 0 
L 581 0 
L 581 3500 
L 1159 3500 
L 1159 2956 
Q 1356 3278 1631 3431 
Q 1906 3584 2284 3584 
Q 2666 3584 2933 3390 
Q 3200 3197 3328 2828 
z
" transform="scale(0.015625)"/>
      <path id="DejaVuSans-66" d="M 2375 4863 
L 2375 4384 
L 1825 4384 
Q 1516 4384 1395 4259 
Q 1275 4134 1275 3809 
L 1275 3500 
L 2222 3500 
L 2222 3053 
L 1275 3053 
L 1275 0 
L 697 0 
L 697 3053 
L 147 3053 
L 147 3500 
L 697 3500 
L 697 3744 
Q 697 4328 969 4595 
Q 1241 4863 1831 4863 
L 2375 4863 
z
" transform="scale(0.015625)"/>
     </defs>
     <use xlink:href="#DejaVuSans-52"/>
     <use xlink:href="#DejaVuSans-4f" x="69.482422"/>
     <use xlink:href="#DejaVuSans-43" x="148.193359"/>
     <use xlink:href="#DejaVuSans-20" x="218.017578"/>
     <use xlink:href="#DejaVuSans-43" x="249.804688"/>
     <use xlink:href="#DejaVuSans-75" x="319.628906"/>
     <use xlink:href="#DejaVuSans-72" x="383.007812"/>
     <use xlink:href="#DejaVuSans-76" x="424.121094"/>
     <use xlink:href="#DejaVuSans-65" x="483.300781"/>
     <use xlink:href="#DejaVuSans-3a" x="544.824219"/>
     <use xlink:href="#DejaVuSans-20" x="578.515625"/>
     <use xlink:href="#DejaVuSans-52" x="610.302734"/>
     <use xlink:href="#DejaVuSans-61" x="677.535156"/>
     <use xlink:href="#DejaVuSans-6e" x="738.814453"/>
     <use xlink:href="#DejaVuSans-64" x="802.193359"/>
     <use xlink:href="#DejaVuSans-6f" x="865.669922"/>
     <use xlink:href="#DejaVuSans-6d" x="926.851562"/>
     <use xlink:href="#DejaVuSans-20" x="1024.263672"/>
     <use xlink:href="#DejaVuSans-46" x="1056.050781"/>
     <use xlink:href="#DejaVuSans-6f" x="1109.945312"/>
     <use xlink:href="#DejaVuSans-72" x="1171.126953"/>
     <use xlink:href="#DejaVuSans-65" x="1209.990234"/>
     <use xlink:href="#DejaVuSans-73" x="1271.513672"/>
     <use xlink:href="#DejaVuSans-74" x="1323.613281"/>
     <use xlink:href="#DejaVuSans-20" x="1362.822266"/>
     <use xlink:href="#DejaVuSans-43" x="1394.609375"/>
     <use xlink:href="#DejaVuSans-6c" x="1464.433594"/>
     <use xlink:href="#DejaVuSans-61" x="1492.216797"/>
     <use xlink:href="#DejaVuSans-73" x="1553.496094"/>
     <use xlink:href="#DejaVuSans-73" x="1605.595703"/>
     <use xlink:href="#DejaVuSans-69" x="1657.695312"/>
     <use xlink:href="#DejaVuSans-66" x="1685.478516"/>
     <use xlink:href="#DejaVuSans-69" x="1720.683594"/>
     <use xlink:href="#DejaVuSans-65" x="1748.466797"/>
     <use xlink:href="#DejaVuSans-72" x="1809.990234"/>
    </g>
   </g>
   <g id="legend_1">
    <g id="patch_7">
     <path d="M 77.059062 500.922875 
L 460.774688 500.922875 
Q 462.774688 500.922875 462.774688 498.922875 
L 462.774688 411.854125 
Q 462.774688 409.854125 460.774688 409.854125 
L 77.059062 409.854125 
Q 75.059062 409.854125 75.059062 411.854125 
L 75.059062 498.922875 
Q 75.059062 500.922875 77.059062 500.922875 
z
" style="fill: #ffffff; opacity: 0.8; stroke: #cccccc; stroke-linejoin: miter"/>
    </g>
    <g id="line2d_31">
     <path d="M 79.059062 417.952562 
L 89.059062 417.952562 
L 99.059062 417.952562 
" style="fill: none; stroke: #1f77b4; stroke-width: 1.5; stroke-linecap: square"/>
    </g>
    <g id="text_16">
     <!-- AUC for White = 0.847248, Count: 8,355, Pos: 2,136, Neg: 6,219 -->
     <g transform="translate(107.059062 421.452562) scale(0.1 -0.1)">
      <defs>
       <path id="DejaVuSans-41" d="M 2188 4044 
L 1331 1722 
L 3047 1722 
L 2188 4044 
z
M 1831 4666 
L 2547 4666 
L 4325 0 
L 3669 0 
L 3244 1197 
L 1141 1197 
L 716 0 
L 50 0 
L 1831 4666 
z
" transform="scale(0.015625)"/>
       <path id="DejaVuSans-55" d="M 556 4666 
L 1191 4666 
L 1191 1831 
Q 1191 1081 1462 751 
Q 1734 422 2344 422 
Q 2950 422 3222 751 
Q 3494 1081 3494 1831 
L 3494 4666 
L 4128 4666 
L 4128 1753 
Q 4128 841 3676 375 
Q 3225 -91 2344 -91 
Q 1459 -91 1007 375 
Q 556 841 556 1753 
L 556 4666 
z
" transform="scale(0.015625)"/>
       <path id="DejaVuSans-57" d="M 213 4666 
L 850 4666 
L 1831 722 
L 2809 4666 
L 3519 4666 
L 4500 722 
L 5478 4666 
L 6119 4666 
L 4947 0 
L 4153 0 
L 3169 4050 
L 2175 0 
L 1381 0 
L 213 4666 
z
" transform="scale(0.015625)"/>
       <path id="DejaVuSans-68" d="M 3513 2113 
L 3513 0 
L 2938 0 
L 2938 2094 
Q 2938 2591 2744 2837 
Q 2550 3084 2163 3084 
Q 1697 3084 1428 2787 
Q 1159 2491 1159 1978 
L 1159 0 
L 581 0 
L 581 4863 
L 1159 4863 
L 1159 2956 
Q 1366 3272 1645 3428 
Q 1925 3584 2291 3584 
Q 2894 3584 3203 3211 
Q 3513 2838 3513 2113 
z
" transform="scale(0.015625)"/>
       <path id="DejaVuSans-3d" d="M 678 2906 
L 4684 2906 
L 4684 2381 
L 678 2381 
L 678 2906 
z
M 678 1631 
L 4684 1631 
L 4684 1100 
L 678 1100 
L 678 1631 
z
" transform="scale(0.015625)"/>
       <path id="DejaVuSans-37" d="M 525 4666 
L 3525 4666 
L 3525 4397 
L 1831 0 
L 1172 0 
L 2766 4134 
L 525 4134 
L 525 4666 
z
" transform="scale(0.015625)"/>
       <path id="DejaVuSans-2c" d="M 750 794 
L 1409 794 
L 1409 256 
L 897 -744 
L 494 -744 
L 750 256 
L 750 794 
z
" transform="scale(0.015625)"/>
       <path id="DejaVuSans-33" d="M 2597 2516 
Q 3050 2419 3304 2112 
Q 3559 1806 3559 1356 
Q 3559 666 3084 287 
Q 2609 -91 1734 -91 
Q 1441 -91 1130 -33 
Q 819 25 488 141 
L 488 750 
Q 750 597 1062 519 
Q 1375 441 1716 441 
Q 2309 441 2620 675 
Q 2931 909 2931 1356 
Q 2931 1769 2642 2001 
Q 2353 2234 1838 2234 
L 1294 2234 
L 1294 2753 
L 1863 2753 
Q 2328 2753 2575 2939 
Q 2822 3125 2822 3475 
Q 2822 3834 2567 4026 
Q 2313 4219 1838 4219 
Q 1578 4219 1281 4162 
Q 984 4106 628 3988 
L 628 4550 
Q 988 4650 1302 4700 
Q 1616 4750 1894 4750 
Q 2613 4750 3031 4423 
Q 3450 4097 3450 3541 
Q 3450 3153 3228 2886 
Q 3006 2619 2597 2516 
z
" transform="scale(0.015625)"/>
       <path id="DejaVuSans-35" d="M 691 4666 
L 3169 4666 
L 3169 4134 
L 1269 4134 
L 1269 2991 
Q 1406 3038 1543 3061 
Q 1681 3084 1819 3084 
Q 2600 3084 3056 2656 
Q 3513 2228 3513 1497 
Q 3513 744 3044 326 
Q 2575 -91 1722 -91 
Q 1428 -91 1123 -41 
Q 819 9 494 109 
L 494 744 
Q 775 591 1075 516 
Q 1375 441 1709 441 
Q 2250 441 2565 725 
Q 2881 1009 2881 1497 
Q 2881 1984 2565 2268 
Q 2250 2553 1709 2553 
Q 1456 2553 1204 2497 
Q 953 2441 691 2322 
L 691 4666 
z
" transform="scale(0.015625)"/>
       <path id="DejaVuSans-4e" d="M 628 4666 
L 1478 4666 
L 3547 763 
L 3547 4666 
L 4159 4666 
L 4159 0 
L 3309 0 
L 1241 3903 
L 1241 0 
L 628 0 
L 628 4666 
z
" transform="scale(0.015625)"/>
       <path id="DejaVuSans-67" d="M 2906 1791 
Q 2906 2416 2648 2759 
Q 2391 3103 1925 3103 
Q 1463 3103 1205 2759 
Q 947 2416 947 1791 
Q 947 1169 1205 825 
Q 1463 481 1925 481 
Q 2391 481 2648 825 
Q 2906 1169 2906 1791 
z
M 3481 434 
Q 3481 -459 3084 -895 
Q 2688 -1331 1869 -1331 
Q 1566 -1331 1297 -1286 
Q 1028 -1241 775 -1147 
L 775 -588 
Q 1028 -725 1275 -790 
Q 1522 -856 1778 -856 
Q 2344 -856 2625 -561 
Q 2906 -266 2906 331 
L 2906 616 
Q 2728 306 2450 153 
Q 2172 0 1784 0 
Q 1141 0 747 490 
Q 353 981 353 1791 
Q 353 2603 747 3093 
Q 1141 3584 1784 3584 
Q 2172 3584 2450 3431 
Q 2728 3278 2906 2969 
L 2906 3500 
L 3481 3500 
L 3481 434 
z
" transform="scale(0.015625)"/>
       <path id="DejaVuSans-39" d="M 703 97 
L 703 672 
Q 941 559 1184 500 
Q 1428 441 1663 441 
Q 2288 441 2617 861 
Q 2947 1281 2994 2138 
Q 2813 1869 2534 1725 
Q 2256 1581 1919 1581 
Q 1219 1581 811 2004 
Q 403 2428 403 3163 
Q 403 3881 828 4315 
Q 1253 4750 1959 4750 
Q 2769 4750 3195 4129 
Q 3622 3509 3622 2328 
Q 3622 1225 3098 567 
Q 2575 -91 1691 -91 
Q 1453 -91 1209 -44 
Q 966 3 703 97 
z
M 1959 2075 
Q 2384 2075 2632 2365 
Q 2881 2656 2881 3163 
Q 2881 3666 2632 3958 
Q 2384 4250 1959 4250 
Q 1534 4250 1286 3958 
Q 1038 3666 1038 3163 
Q 1038 2656 1286 2365 
Q 1534 2075 1959 2075 
z
" transform="scale(0.015625)"/>
      </defs>
      <use xlink:href="#DejaVuSans-41"/>
      <use xlink:href="#DejaVuSans-55" x="68.408203"/>
      <use xlink:href="#DejaVuSans-43" x="141.601562"/>
      <use xlink:href="#DejaVuSans-20" x="211.425781"/>
      <use xlink:href="#DejaVuSans-66" x="243.212891"/>
      <use xlink:href="#DejaVuSans-6f" x="278.417969"/>
      <use xlink:href="#DejaVuSans-72" x="339.599609"/>
      <use xlink:href="#DejaVuSans-20" x="380.712891"/>
      <use xlink:href="#DejaVuSans-57" x="412.5"/>
      <use xlink:href="#DejaVuSans-68" x="511.376953"/>
      <use xlink:href="#DejaVuSans-69" x="574.755859"/>
      <use xlink:href="#DejaVuSans-74" x="602.539062"/>
      <use xlink:href="#DejaVuSans-65" x="641.748047"/>
      <use xlink:href="#DejaVuSans-20" x="703.271484"/>
      <use xlink:href="#DejaVuSans-3d" x="735.058594"/>
      <use xlink:href="#DejaVuSans-20" x="818.847656"/>
      <use xlink:href="#DejaVuSans-30" x="850.634766"/>
      <use xlink:href="#DejaVuSans-2e" x="914.257812"/>
      <use xlink:href="#DejaVuSans-38" x="946.044922"/>
      <use xlink:href="#DejaVuSans-34" x="1009.667969"/>
      <use xlink:href="#DejaVuSans-37" x="1073.291016"/>
      <use xlink:href="#DejaVuSans-32" x="1136.914062"/>
      <use xlink:href="#DejaVuSans-34" x="1200.537109"/>
      <use xlink:href="#DejaVuSans-38" x="1264.160156"/>
      <use xlink:href="#DejaVuSans-2c" x="1327.783203"/>
      <use xlink:href="#DejaVuSans-20" x="1359.570312"/>
      <use xlink:href="#DejaVuSans-43" x="1391.357422"/>
      <use xlink:href="#DejaVuSans-6f" x="1461.181641"/>
      <use xlink:href="#DejaVuSans-75" x="1522.363281"/>
      <use xlink:href="#DejaVuSans-6e" x="1585.742188"/>
      <use xlink:href="#DejaVuSans-74" x="1649.121094"/>
      <use xlink:href="#DejaVuSans-3a" x="1688.330078"/>
      <use xlink:href="#DejaVuSans-20" x="1722.021484"/>
      <use xlink:href="#DejaVuSans-38" x="1753.808594"/>
      <use xlink:href="#DejaVuSans-2c" x="1817.431641"/>
      <use xlink:href="#DejaVuSans-33" x="1849.21875"/>
      <use xlink:href="#DejaVuSans-35" x="1912.841797"/>
      <use xlink:href="#DejaVuSans-35" x="1976.464844"/>
      <use xlink:href="#DejaVuSans-2c" x="2040.087891"/>
      <use xlink:href="#DejaVuSans-20" x="2071.875"/>
      <use xlink:href="#DejaVuSans-50" x="2103.662109"/>
      <use xlink:href="#DejaVuSans-6f" x="2160.339844"/>
      <use xlink:href="#DejaVuSans-73" x="2221.521484"/>
      <use xlink:href="#DejaVuSans-3a" x="2273.621094"/>
      <use xlink:href="#DejaVuSans-20" x="2307.3125"/>
      <use xlink:href="#DejaVuSans-32" x="2339.099609"/>
      <use xlink:href="#DejaVuSans-2c" x="2402.722656"/>
      <use xlink:href="#DejaVuSans-31" x="2434.509766"/>
      <use xlink:href="#DejaVuSans-33" x="2498.132812"/>
      <use xlink:href="#DejaVuSans-36" x="2561.755859"/>
      <use xlink:href="#DejaVuSans-2c" x="2625.378906"/>
      <use xlink:href="#DejaVuSans-20" x="2657.166016"/>
      <use xlink:href="#DejaVuSans-4e" x="2688.953125"/>
      <use xlink:href="#DejaVuSans-65" x="2763.757812"/>
      <use xlink:href="#DejaVuSans-67" x="2825.28125"/>
      <use xlink:href="#DejaVuSans-3a" x="2888.757812"/>
      <use xlink:href="#DejaVuSans-20" x="2922.449219"/>
      <use xlink:href="#DejaVuSans-36" x="2954.236328"/>
      <use xlink:href="#DejaVuSans-2c" x="3017.859375"/>
      <use xlink:href="#DejaVuSans-32" x="3049.646484"/>
      <use xlink:href="#DejaVuSans-31" x="3113.269531"/>
      <use xlink:href="#DejaVuSans-39" x="3176.892578"/>
     </g>
    </g>
    <g id="line2d_32">
     <path d="M 79.059062 432.630688 
L 89.059062 432.630688 
L 99.059062 432.630688 
" style="fill: none; stroke: #ff7f0e; stroke-width: 1.5; stroke-linecap: square"/>
    </g>
    <g id="text_17">
     <!-- AUC for Black = 0.859030, Count: 936, Pos: 109, Neg: 827 -->
     <g transform="translate(107.059062 436.130688) scale(0.1 -0.1)">
      <defs>
       <path id="DejaVuSans-42" d="M 1259 2228 
L 1259 519 
L 2272 519 
Q 2781 519 3026 730 
Q 3272 941 3272 1375 
Q 3272 1813 3026 2020 
Q 2781 2228 2272 2228 
L 1259 2228 
z
M 1259 4147 
L 1259 2741 
L 2194 2741 
Q 2656 2741 2882 2914 
Q 3109 3088 3109 3444 
Q 3109 3797 2882 3972 
Q 2656 4147 2194 4147 
L 1259 4147 
z
M 628 4666 
L 2241 4666 
Q 2963 4666 3353 4366 
Q 3744 4066 3744 3513 
Q 3744 3084 3544 2831 
Q 3344 2578 2956 2516 
Q 3422 2416 3680 2098 
Q 3938 1781 3938 1306 
Q 3938 681 3513 340 
Q 3088 0 2303 0 
L 628 0 
L 628 4666 
z
" transform="scale(0.015625)"/>
       <path id="DejaVuSans-63" d="M 3122 3366 
L 3122 2828 
Q 2878 2963 2633 3030 
Q 2388 3097 2138 3097 
Q 1578 3097 1268 2742 
Q 959 2388 959 1747 
Q 959 1106 1268 751 
Q 1578 397 2138 397 
Q 2388 397 2633 464 
Q 2878 531 3122 666 
L 3122 134 
Q 2881 22 2623 -34 
Q 2366 -91 2075 -91 
Q 1284 -91 818 406 
Q 353 903 353 1747 
Q 353 2603 823 3093 
Q 1294 3584 2113 3584 
Q 2378 3584 2631 3529 
Q 2884 3475 3122 3366 
z
" transform="scale(0.015625)"/>
       <path id="DejaVuSans-6b" d="M 581 4863 
L 1159 4863 
L 1159 1991 
L 2875 3500 
L 3609 3500 
L 1753 1863 
L 3688 0 
L 2938 0 
L 1159 1709 
L 1159 0 
L 581 0 
L 581 4863 
z
" transform="scale(0.015625)"/>
      </defs>
      <use xlink:href="#DejaVuSans-41"/>
      <use xlink:href="#DejaVuSans-55" x="68.408203"/>
      <use xlink:href="#DejaVuSans-43" x="141.601562"/>
      <use xlink:href="#DejaVuSans-20" x="211.425781"/>
      <use xlink:href="#DejaVuSans-66" x="243.212891"/>
      <use xlink:href="#DejaVuSans-6f" x="278.417969"/>
      <use xlink:href="#DejaVuSans-72" x="339.599609"/>
      <use xlink:href="#DejaVuSans-20" x="380.712891"/>
      <use xlink:href="#DejaVuSans-42" x="412.5"/>
      <use xlink:href="#DejaVuSans-6c" x="481.103516"/>
      <use xlink:href="#DejaVuSans-61" x="508.886719"/>
      <use xlink:href="#DejaVuSans-63" x="570.166016"/>
      <use xlink:href="#DejaVuSans-6b" x="625.146484"/>
      <use xlink:href="#DejaVuSans-20" x="683.056641"/>
      <use xlink:href="#DejaVuSans-3d" x="714.84375"/>
      <use xlink:href="#DejaVuSans-20" x="798.632812"/>
      <use xlink:href="#DejaVuSans-30" x="830.419922"/>
      <use xlink:href="#DejaVuSans-2e" x="894.042969"/>
      <use xlink:href="#DejaVuSans-38" x="925.830078"/>
      <use xlink:href="#DejaVuSans-35" x="989.453125"/>
      <use xlink:href="#DejaVuSans-39" x="1053.076172"/>
      <use xlink:href="#DejaVuSans-30" x="1116.699219"/>
      <use xlink:href="#DejaVuSans-33" x="1180.322266"/>
      <use xlink:href="#DejaVuSans-30" x="1243.945312"/>
      <use xlink:href="#DejaVuSans-2c" x="1307.568359"/>
      <use xlink:href="#DejaVuSans-20" x="1339.355469"/>
      <use xlink:href="#DejaVuSans-43" x="1371.142578"/>
      <use xlink:href="#DejaVuSans-6f" x="1440.966797"/>
      <use xlink:href="#DejaVuSans-75" x="1502.148438"/>
      <use xlink:href="#DejaVuSans-6e" x="1565.527344"/>
      <use xlink:href="#DejaVuSans-74" x="1628.90625"/>
      <use xlink:href="#DejaVuSans-3a" x="1668.115234"/>
      <use xlink:href="#DejaVuSans-20" x="1701.806641"/>
      <use xlink:href="#DejaVuSans-39" x="1733.59375"/>
      <use xlink:href="#DejaVuSans-33" x="1797.216797"/>
      <use xlink:href="#DejaVuSans-36" x="1860.839844"/>
      <use xlink:href="#DejaVuSans-2c" x="1924.462891"/>
      <use xlink:href="#DejaVuSans-20" x="1956.25"/>
      <use xlink:href="#DejaVuSans-50" x="1988.037109"/>
      <use xlink:href="#DejaVuSans-6f" x="2044.714844"/>
      <use xlink:href="#DejaVuSans-73" x="2105.896484"/>
      <use xlink:href="#DejaVuSans-3a" x="2157.996094"/>
      <use xlink:href="#DejaVuSans-20" x="2191.6875"/>
      <use xlink:href="#DejaVuSans-31" x="2223.474609"/>
      <use xlink:href="#DejaVuSans-30" x="2287.097656"/>
      <use xlink:href="#DejaVuSans-39" x="2350.720703"/>
      <use xlink:href="#DejaVuSans-2c" x="2414.34375"/>
      <use xlink:href="#DejaVuSans-20" x="2446.130859"/>
      <use xlink:href="#DejaVuSans-4e" x="2477.917969"/>
      <use xlink:href="#DejaVuSans-65" x="2552.722656"/>
      <use xlink:href="#DejaVuSans-67" x="2614.246094"/>
      <use xlink:href="#DejaVuSans-3a" x="2677.722656"/>
      <use xlink:href="#DejaVuSans-20" x="2711.414062"/>
      <use xlink:href="#DejaVuSans-38" x="2743.201172"/>
      <use xlink:href="#DejaVuSans-32" x="2806.824219"/>
      <use xlink:href="#DejaVuSans-37" x="2870.447266"/>
     </g>
    </g>
    <g id="line2d_33">
     <path d="M 79.059062 447.308813 
L 89.059062 447.308813 
L 99.059062 447.308813 
" style="fill: none; stroke: #2ca02c; stroke-width: 1.5; stroke-linecap: square"/>
    </g>
    <g id="text_18">
     <!-- AUC for Asian-Pac-Islander = 0.853095, Count: 299, Pos: 75, Neg: 224 -->
     <g transform="translate(107.059062 450.808813) scale(0.1 -0.1)">
      <defs>
       <path id="DejaVuSans-2d" d="M 313 2009 
L 1997 2009 
L 1997 1497 
L 313 1497 
L 313 2009 
z
" transform="scale(0.015625)"/>
       <path id="DejaVuSans-49" d="M 628 4666 
L 1259 4666 
L 1259 0 
L 628 0 
L 628 4666 
z
" transform="scale(0.015625)"/>
      </defs>
      <use xlink:href="#DejaVuSans-41"/>
      <use xlink:href="#DejaVuSans-55" x="68.408203"/>
      <use xlink:href="#DejaVuSans-43" x="141.601562"/>
      <use xlink:href="#DejaVuSans-20" x="211.425781"/>
      <use xlink:href="#DejaVuSans-66" x="243.212891"/>
      <use xlink:href="#DejaVuSans-6f" x="278.417969"/>
      <use xlink:href="#DejaVuSans-72" x="339.599609"/>
      <use xlink:href="#DejaVuSans-20" x="380.712891"/>
      <use xlink:href="#DejaVuSans-41" x="412.5"/>
      <use xlink:href="#DejaVuSans-73" x="480.908203"/>
      <use xlink:href="#DejaVuSans-69" x="533.007812"/>
      <use xlink:href="#DejaVuSans-61" x="560.791016"/>
      <use xlink:href="#DejaVuSans-6e" x="622.070312"/>
      <use xlink:href="#DejaVuSans-2d" x="685.449219"/>
      <use xlink:href="#DejaVuSans-50" x="721.533203"/>
      <use xlink:href="#DejaVuSans-61" x="777.335938"/>
      <use xlink:href="#DejaVuSans-63" x="838.615234"/>
      <use xlink:href="#DejaVuSans-2d" x="893.595703"/>
      <use xlink:href="#DejaVuSans-49" x="929.679688"/>
      <use xlink:href="#DejaVuSans-73" x="959.171875"/>
      <use xlink:href="#DejaVuSans-6c" x="1011.271484"/>
      <use xlink:href="#DejaVuSans-61" x="1039.054688"/>
      <use xlink:href="#DejaVuSans-6e" x="1100.333984"/>
      <use xlink:href="#DejaVuSans-64" x="1163.712891"/>
      <use xlink:href="#DejaVuSans-65" x="1227.189453"/>
      <use xlink:href="#DejaVuSans-72" x="1288.712891"/>
      <use xlink:href="#DejaVuSans-20" x="1329.826172"/>
      <use xlink:href="#DejaVuSans-3d" x="1361.613281"/>
      <use xlink:href="#DejaVuSans-20" x="1445.402344"/>
      <use xlink:href="#DejaVuSans-30" x="1477.189453"/>
      <use xlink:href="#DejaVuSans-2e" x="1540.8125"/>
      <use xlink:href="#DejaVuSans-38" x="1572.599609"/>
      <use xlink:href="#DejaVuSans-35" x="1636.222656"/>
      <use xlink:href="#DejaVuSans-33" x="1699.845703"/>
      <use xlink:href="#DejaVuSans-30" x="1763.46875"/>
      <use xlink:href="#DejaVuSans-39" x="1827.091797"/>
      <use xlink:href="#DejaVuSans-35" x="1890.714844"/>
      <use xlink:href="#DejaVuSans-2c" x="1954.337891"/>
      <use xlink:href="#DejaVuSans-20" x="1986.125"/>
      <use xlink:href="#DejaVuSans-43" x="2017.912109"/>
      <use xlink:href="#DejaVuSans-6f" x="2087.736328"/>
      <use xlink:href="#DejaVuSans-75" x="2148.917969"/>
      <use xlink:href="#DejaVuSans-6e" x="2212.296875"/>
      <use xlink:href="#DejaVuSans-74" x="2275.675781"/>
      <use xlink:href="#DejaVuSans-3a" x="2314.884766"/>
      <use xlink:href="#DejaVuSans-20" x="2348.576172"/>
      <use xlink:href="#DejaVuSans-32" x="2380.363281"/>
      <use xlink:href="#DejaVuSans-39" x="2443.986328"/>
      <use xlink:href="#DejaVuSans-39" x="2507.609375"/>
      <use xlink:href="#DejaVuSans-2c" x="2571.232422"/>
      <use xlink:href="#DejaVuSans-20" x="2603.019531"/>
      <use xlink:href="#DejaVuSans-50" x="2634.806641"/>
      <use xlink:href="#DejaVuSans-6f" x="2691.484375"/>
      <use xlink:href="#DejaVuSans-73" x="2752.666016"/>
      <use xlink:href="#DejaVuSans-3a" x="2804.765625"/>
      <use xlink:href="#DejaVuSans-20" x="2838.457031"/>
      <use xlink:href="#DejaVuSans-37" x="2870.244141"/>
      <use xlink:href="#DejaVuSans-35" x="2933.867188"/>
      <use xlink:href="#DejaVuSans-2c" x="2997.490234"/>
      <use xlink:href="#DejaVuSans-20" x="3029.277344"/>
      <use xlink:href="#DejaVuSans-4e" x="3061.064453"/>
      <use xlink:href="#DejaVuSans-65" x="3135.869141"/>
      <use xlink:href="#DejaVuSans-67" x="3197.392578"/>
      <use xlink:href="#DejaVuSans-3a" x="3260.869141"/>
      <use xlink:href="#DejaVuSans-20" x="3294.560547"/>
      <use xlink:href="#DejaVuSans-32" x="3326.347656"/>
      <use xlink:href="#DejaVuSans-32" x="3389.970703"/>
      <use xlink:href="#DejaVuSans-34" x="3453.59375"/>
     </g>
    </g>
    <g id="line2d_34">
     <path d="M 79.059062 461.986938 
L 89.059062 461.986938 
L 99.059062 461.986938 
" style="fill: none; stroke: #d62728; stroke-width: 1.5; stroke-linecap: square"/>
    </g>
    <g id="text_19">
     <!-- AUC for Amer-Indian-Eskimo = 0.612199, Count: 91, Pos: 8, Neg: 83 -->
     <g transform="translate(107.059062 465.486938) scale(0.1 -0.1)">
      <defs>
       <path id="DejaVuSans-45" d="M 628 4666 
L 3578 4666 
L 3578 4134 
L 1259 4134 
L 1259 2753 
L 3481 2753 
L 3481 2222 
L 1259 2222 
L 1259 531 
L 3634 531 
L 3634 0 
L 628 0 
L 628 4666 
z
" transform="scale(0.015625)"/>
      </defs>
      <use xlink:href="#DejaVuSans-41"/>
      <use xlink:href="#DejaVuSans-55" x="68.408203"/>
      <use xlink:href="#DejaVuSans-43" x="141.601562"/>
      <use xlink:href="#DejaVuSans-20" x="211.425781"/>
      <use xlink:href="#DejaVuSans-66" x="243.212891"/>
      <use xlink:href="#DejaVuSans-6f" x="278.417969"/>
      <use xlink:href="#DejaVuSans-72" x="339.599609"/>
      <use xlink:href="#DejaVuSans-20" x="380.712891"/>
      <use xlink:href="#DejaVuSans-41" x="412.5"/>
      <use xlink:href="#DejaVuSans-6d" x="480.908203"/>
      <use xlink:href="#DejaVuSans-65" x="578.320312"/>
      <use xlink:href="#DejaVuSans-72" x="639.84375"/>
      <use xlink:href="#DejaVuSans-2d" x="674.582031"/>
      <use xlink:href="#DejaVuSans-49" x="710.666016"/>
      <use xlink:href="#DejaVuSans-6e" x="740.158203"/>
      <use xlink:href="#DejaVuSans-64" x="803.537109"/>
      <use xlink:href="#DejaVuSans-69" x="867.013672"/>
      <use xlink:href="#DejaVuSans-61" x="894.796875"/>
      <use xlink:href="#DejaVuSans-6e" x="956.076172"/>
      <use xlink:href="#DejaVuSans-2d" x="1019.455078"/>
      <use xlink:href="#DejaVuSans-45" x="1055.539062"/>
      <use xlink:href="#DejaVuSans-73" x="1118.722656"/>
      <use xlink:href="#DejaVuSans-6b" x="1170.822266"/>
      <use xlink:href="#DejaVuSans-69" x="1228.732422"/>
      <use xlink:href="#DejaVuSans-6d" x="1256.515625"/>
      <use xlink:href="#DejaVuSans-6f" x="1353.927734"/>
      <use xlink:href="#DejaVuSans-20" x="1415.109375"/>
      <use xlink:href="#DejaVuSans-3d" x="1446.896484"/>
      <use xlink:href="#DejaVuSans-20" x="1530.685547"/>
      <use xlink:href="#DejaVuSans-30" x="1562.472656"/>
      <use xlink:href="#DejaVuSans-2e" x="1626.095703"/>
      <use xlink:href="#DejaVuSans-36" x="1657.882812"/>
      <use xlink:href="#DejaVuSans-31" x="1721.505859"/>
      <use xlink:href="#DejaVuSans-32" x="1785.128906"/>
      <use xlink:href="#DejaVuSans-31" x="1848.751953"/>
      <use xlink:href="#DejaVuSans-39" x="1912.375"/>
      <use xlink:href="#DejaVuSans-39" x="1975.998047"/>
      <use xlink:href="#DejaVuSans-2c" x="2039.621094"/>
      <use xlink:href="#DejaVuSans-20" x="2071.408203"/>
      <use xlink:href="#DejaVuSans-43" x="2103.195312"/>
      <use xlink:href="#DejaVuSans-6f" x="2173.019531"/>
      <use xlink:href="#DejaVuSans-75" x="2234.201172"/>
      <use xlink:href="#DejaVuSans-6e" x="2297.580078"/>
      <use xlink:href="#DejaVuSans-74" x="2360.958984"/>
      <use xlink:href="#DejaVuSans-3a" x="2400.167969"/>
      <use xlink:href="#DejaVuSans-20" x="2433.859375"/>
      <use xlink:href="#DejaVuSans-39" x="2465.646484"/>
      <use xlink:href="#DejaVuSans-31" x="2529.269531"/>
      <use xlink:href="#DejaVuSans-2c" x="2592.892578"/>
      <use xlink:href="#DejaVuSans-20" x="2624.679688"/>
      <use xlink:href="#DejaVuSans-50" x="2656.466797"/>
      <use xlink:href="#DejaVuSans-6f" x="2713.144531"/>
      <use xlink:href="#DejaVuSans-73" x="2774.326172"/>
      <use xlink:href="#DejaVuSans-3a" x="2826.425781"/>
      <use xlink:href="#DejaVuSans-20" x="2860.117188"/>
      <use xlink:href="#DejaVuSans-38" x="2891.904297"/>
      <use xlink:href="#DejaVuSans-2c" x="2955.527344"/>
      <use xlink:href="#DejaVuSans-20" x="2987.314453"/>
      <use xlink:href="#DejaVuSans-4e" x="3019.101562"/>
      <use xlink:href="#DejaVuSans-65" x="3093.90625"/>
      <use xlink:href="#DejaVuSans-67" x="3155.429688"/>
      <use xlink:href="#DejaVuSans-3a" x="3218.90625"/>
      <use xlink:href="#DejaVuSans-20" x="3252.597656"/>
      <use xlink:href="#DejaVuSans-38" x="3284.384766"/>
      <use xlink:href="#DejaVuSans-33" x="3348.007812"/>
     </g>
    </g>
    <g id="line2d_35">
     <path d="M 79.059062 476.665063 
L 89.059062 476.665063 
L 99.059062 476.665063 
" style="fill: none; stroke: #9467bd; stroke-width: 1.5; stroke-linecap: square"/>
    </g>
    <g id="text_20">
     <!-- AUC for Other = 0.917949, Count: 88, Pos: 10, Neg: 78 -->
     <g transform="translate(107.059062 480.165063) scale(0.1 -0.1)">
      <use xlink:href="#DejaVuSans-41"/>
      <use xlink:href="#DejaVuSans-55" x="68.408203"/>
      <use xlink:href="#DejaVuSans-43" x="141.601562"/>
      <use xlink:href="#DejaVuSans-20" x="211.425781"/>
      <use xlink:href="#DejaVuSans-66" x="243.212891"/>
      <use xlink:href="#DejaVuSans-6f" x="278.417969"/>
      <use xlink:href="#DejaVuSans-72" x="339.599609"/>
      <use xlink:href="#DejaVuSans-20" x="380.712891"/>
      <use xlink:href="#DejaVuSans-4f" x="412.5"/>
      <use xlink:href="#DejaVuSans-74" x="491.210938"/>
      <use xlink:href="#DejaVuSans-68" x="530.419922"/>
      <use xlink:href="#DejaVuSans-65" x="593.798828"/>
      <use xlink:href="#DejaVuSans-72" x="655.322266"/>
      <use xlink:href="#DejaVuSans-20" x="696.435547"/>
      <use xlink:href="#DejaVuSans-3d" x="728.222656"/>
      <use xlink:href="#DejaVuSans-20" x="812.011719"/>
      <use xlink:href="#DejaVuSans-30" x="843.798828"/>
      <use xlink:href="#DejaVuSans-2e" x="907.421875"/>
      <use xlink:href="#DejaVuSans-39" x="939.208984"/>
      <use xlink:href="#DejaVuSans-31" x="1002.832031"/>
      <use xlink:href="#DejaVuSans-37" x="1066.455078"/>
      <use xlink:href="#DejaVuSans-39" x="1130.078125"/>
      <use xlink:href="#DejaVuSans-34" x="1193.701172"/>
      <use xlink:href="#DejaVuSans-39" x="1257.324219"/>
      <use xlink:href="#DejaVuSans-2c" x="1320.947266"/>
      <use xlink:href="#DejaVuSans-20" x="1352.734375"/>
      <use xlink:href="#DejaVuSans-43" x="1384.521484"/>
      <use xlink:href="#DejaVuSans-6f" x="1454.345703"/>
      <use xlink:href="#DejaVuSans-75" x="1515.527344"/>
      <use xlink:href="#DejaVuSans-6e" x="1578.90625"/>
      <use xlink:href="#DejaVuSans-74" x="1642.285156"/>
      <use xlink:href="#DejaVuSans-3a" x="1681.494141"/>
      <use xlink:href="#DejaVuSans-20" x="1715.185547"/>
      <use xlink:href="#DejaVuSans-38" x="1746.972656"/>
      <use xlink:href="#DejaVuSans-38" x="1810.595703"/>
      <use xlink:href="#DejaVuSans-2c" x="1874.21875"/>
      <use xlink:href="#DejaVuSans-20" x="1906.005859"/>
      <use xlink:href="#DejaVuSans-50" x="1937.792969"/>
      <use xlink:href="#DejaVuSans-6f" x="1994.470703"/>
      <use xlink:href="#DejaVuSans-73" x="2055.652344"/>
      <use xlink:href="#DejaVuSans-3a" x="2107.751953"/>
      <use xlink:href="#DejaVuSans-20" x="2141.443359"/>
      <use xlink:href="#DejaVuSans-31" x="2173.230469"/>
      <use xlink:href="#DejaVuSans-30" x="2236.853516"/>
      <use xlink:href="#DejaVuSans-2c" x="2300.476562"/>
      <use xlink:href="#DejaVuSans-20" x="2332.263672"/>
      <use xlink:href="#DejaVuSans-4e" x="2364.050781"/>
      <use xlink:href="#DejaVuSans-65" x="2438.855469"/>
      <use xlink:href="#DejaVuSans-67" x="2500.378906"/>
      <use xlink:href="#DejaVuSans-3a" x="2563.855469"/>
      <use xlink:href="#DejaVuSans-20" x="2597.546875"/>
      <use xlink:href="#DejaVuSans-37" x="2629.333984"/>
      <use xlink:href="#DejaVuSans-38" x="2692.957031"/>
     </g>
    </g>
    <g id="line2d_36">
     <path d="M 79.059062 491.343187 
L 89.059062 491.343187 
L 99.059062 491.343187 
" style="fill: none; stroke-dasharray: 7.4,3.2; stroke-dashoffset: 0; stroke: #808080; stroke-width: 2"/>
    </g>
    <g id="text_21">
     <!-- Random Guess -->
     <g transform="translate(107.059062 494.843187) scale(0.1 -0.1)">
      <defs>
       <path id="DejaVuSans-47" d="M 3809 666 
L 3809 1919 
L 2778 1919 
L 2778 2438 
L 4434 2438 
L 4434 434 
Q 4069 175 3628 42 
Q 3188 -91 2688 -91 
Q 1594 -91 976 548 
Q 359 1188 359 2328 
Q 359 3472 976 4111 
Q 1594 4750 2688 4750 
Q 3144 4750 3555 4637 
Q 3966 4525 4313 4306 
L 4313 3634 
Q 3963 3931 3569 4081 
Q 3175 4231 2741 4231 
Q 1884 4231 1454 3753 
Q 1025 3275 1025 2328 
Q 1025 1384 1454 906 
Q 1884 428 2741 428 
Q 3075 428 3337 486 
Q 3600 544 3809 666 
z
" transform="scale(0.015625)"/>
      </defs>
      <use xlink:href="#DejaVuSans-52"/>
      <use xlink:href="#DejaVuSans-61" x="67.232422"/>
      <use xlink:href="#DejaVuSans-6e" x="128.511719"/>
      <use xlink:href="#DejaVuSans-64" x="191.890625"/>
      <use xlink:href="#DejaVuSans-6f" x="255.367188"/>
      <use xlink:href="#DejaVuSans-6d" x="316.548828"/>
      <use xlink:href="#DejaVuSans-20" x="413.960938"/>
      <use xlink:href="#DejaVuSans-47" x="445.748047"/>
      <use xlink:href="#DejaVuSans-75" x="523.238281"/>
      <use xlink:href="#DejaVuSans-65" x="586.617188"/>
      <use xlink:href="#DejaVuSans-73" x="648.140625"/>
      <use xlink:href="#DejaVuSans-73" x="700.240234"/>
     </g>
    </g>
   </g>
  </g>
 </g>
 <defs>
  <clipPath id="pa5d38d5985">
   <rect x="45.716875" y="22.318125" width="446.4" height="332.64"/>
  </clipPath>
 </defs>
</svg>
